<?xml version="1.0" encoding="utf-8"?>
<!-- Generator: Adobe Illustrator 24.1.0, SVG Export Plug-In . SVG Version: 6.00 Build 0)  -->
<svg version="1.1" id="Livello_1" xmlns="http://www.w3.org/2000/svg" xmlns:xlink="http://www.w3.org/1999/xlink" x="0px" y="0px"
	 viewBox="0 0 340.2 404.5" style="enable-background:new 0 0 340.2 404.5;" width="50" height="50" xml:space="preserve">
<style type="text/css">
	.st0{fill:#FEFEFE;}
</style>
<g>
	<path class="st0" d="M213.1,395c-5.4,0-10.1-2.2-12.8-5.9c-1.3-1.9-2-3.7-2.2-5.4c-9.7-0.1-18-3.8-25.6-8
		c-4.1,7.7-11.9,12.2-21.9,12.2c-1.4,0-2.9-0.1-4.3-0.3c-1.4-0.2-2.8-0.2-4.3-0.2c-2.7,0-5.5,0.2-8.4,0.5c-3.1,0.3-6.3,0.6-9.6,0.6
		c-1.3,0-2.5,0-3.7-0.1c-2.5-0.2-5.3-0.4-8-1.4c-4.3-1.6-7.2-5-8.1-9.4c-0.6-3.2,0.1-6.4,2.2-9.1c3-3.9,7.8-5.6,11-5.9
		c0.6-0.1,0.8-0.1,2.6-2.8c1.2-1.8,2.6-4,4.9-5.9c0.7-1,1.7-1.7,2.8-2.2c1.7-0.8,2.3-2.2,3.4-6.7c0.4-1.5,0.8-3.2,1.4-4.8
		c-2-0.9-3.9-2.6-5.9-5.1c-12.6-15.9-18.3-33.9-16.7-53.4c0-0.2-0.1-0.5-0.2-0.8c-5.8-3.9-6.6-9.9-7.1-13.6c-0.1-1-0.3-2.5-0.6-3
		c-2-1.5-4.7-4.9-1.5-11.1c0.2-0.4,0.5-1,0.7-1.4c0.4-2,1-3.8,1.6-5.4c1.3-3.7,1.3-4.3,0.7-5.2c-1.4-2.2-1.8-4.8-1.3-7.3
		c0.5-2,1.9-5,5.9-7.4c3.6-2.2,2.9-4.3,2.6-5.3c-0.8-2.2-2-6,0-9.9c1.7-3.2,4.7-4.5,6.5-5.1c0.5-0.6,1.1-1.7,1.7-2.8
		c-8.1-1.3-12.9-7.7-15.3-11c-5.7-7.7-11.8-17.6-13-32.4c-0.9-10.8-1-21.6-1.1-32c0-2.6-0.1-5.1-0.1-7.7c-0.1-4.4,1.1-9,2.1-11.9
		c3.1-8.1,1.8-8.8-2-10.5c-3.8-1.8-6.4-4.8-7.1-8.4c-0.2-1-0.4-2.5,0-4.3c-10.1-7.3-17.8-23.9-16.8-34.1c0.7-7.2,5.7-10.4,10.1-10.4
		c3,0,5.9,1.4,7.9,3.8c1.9,2.3,4.8,3.7,8.1,5.3c1.6,0.8,3.2,1.6,4.9,2.5c0.5,0.3,0.9,0.5,1.3,0.8V53c1-2.9,3.4-9.6,11.2-10.1
		c0.5,0,1-0.1,1.5-0.1c6.7,0,12.4,2.9,15.8,8c0.1,0.2,0.3,0.4,0.4,0.6c0.1,0,0.2,0,0.4,0c5.1,0.2,9.8,2.7,13.1,6.9
		c1.7-2.3,4.4-3.6,7.1-4.8l0.9-0.4c4.2-2,8.5-3.2,12.6-4.3c4.7-1.3,9.1-2.6,12.9-4.8c0.5-0.3,0.9-0.5,1.2-0.7
		c1.4-7.4,6.7-11.1,10.3-13.7c0.9-0.6,1.8-1.2,2.5-1.8c0.9-0.8,3.8-3.1,7.9-3.1c2.2,0,4.3,0.7,6.3,2c2.5-14.1,11.4-16.2,16.5-16.2
		c3.5,0,7.4,1,11.9,2.9c0.6,0.3,1.2,0.7,1.8,1.1c0.2,0,0.5,0,0.7,0c4.1,0,7.7,1,10.9,2c2.1,0.6,4.2,1.2,5.9,1.3c0.1,0,0.2,0,0.3,0
		c5.9,0.7,9.9,4.9,10,10.8c0,1-0.2,2-0.5,2.9c-2.1,5.5-6.8,9.1-12,9.1c-0.7,0-1.3-0.1-2-0.2c-0.2,0-0.3-0.1-0.5-0.1
		c-0.1,0.5-0.2,1.1-0.2,1.6c-0.2,1.5-0.5,3.2-1,5c0.6,0.8,1.5,1.9,2.7,3.3c1,1.3,2.2,2.5,3.4,3.8c2.3,2.5,4.7,5.1,6.7,8.3
		c10.8,17,7.1,49.7-7.3,63.6c-6.9,6.7-14.6,10.1-22.8,10.1c-2.4,0-4.8-0.3-7.2-0.9c-0.3,0.6-0.6,1.2-0.9,1.8c-1.3,2.5-2,3.9-1.9,5.4
		c0.6,7.4-3.2,15.1-9.2,18.4c-4.4,2.5-7.9,6.5-3.2,19.7c1.7,4.7,6.3,9.2,11.2,13.9c3.6,3.4,7.2,6.9,10.3,11c1.1,1.5,3,3.3,4.8,5
		c4.2,4,8.3,7.8,8.6,13.1c0.3,4.6,2.3,5.7,8,8.3l1.1,0.5c11.5,5.2,20,13.3,25.9,24.7c3.7,7.1-0.4,12.7-2.1,15
		c-0.3,0.4-0.7,1-0.9,1.3c-1,4.3-4.5,7.1-8.8,7.1l0,0c-3.7,0-6.8-2.2-9-3.7l-0.3-0.2c-1-0.7-1.6-1-2.1-1.3c-0.4,0.5-1.2,1.4-2.3,3.2
		c-2.2,3.6-3.2,8-4.3,12.7c-0.6,2.7-1.3,5.6-2.2,8.4c8.5,7.1,5.6,16.6,4.1,21.4c-0.5,1.5-0.9,3-1.1,4.2c-1.1,7.3-0.5,10.8,2,12.8
		c4.2,3.3,6.5,7.6,6.6,12.2c0.1,4.5-1.9,8.8-5.4,11.9c-0.2,0.1-0.3,0.3-0.4,0.3c0.1,0.5,0.4,1.4,0.6,2l0.2,0.5
		c4.2,13.3,0,21.8-13,26c-4.7,1.5-9.4,2.2-13.9,2.9c-1.8,0.3-3.5,0.5-5.2,0.8C215.6,394.9,214.3,395,213.1,395z M180.1,346.1
		c4.6,1.6,8.6,4.9,11.2,7.6c2.4,2.5,4.4,2.8,6.1,2.8c1.5,0,3.1-0.3,5.1-1c-0.1-0.7-0.2-1.5-0.3-2.1c-0.1-0.4-0.1-0.8-0.2-1.2
		c-0.5-3.3,1.1-5.9,1.9-7.1c0.1-0.1,0.1-0.2,0.2-0.3c3.1-5.9,1.9-8.3-1.7-11.2c-3-2.4-4.1-5.5-4.5-7.6c-0.6-0.3-1.3-0.5-1.8-0.8
		c-0.7,1.7-1.6,3.4-2.9,5.2c-1.3,1.8-4.7,6.6-10.2,6.6c-6.6,0-9.4-6.4-10.3-8.5c-0.1-0.2-0.2-0.5-0.3-0.7c0.4,3.1,1.8,6.1,4.4,8.9
		C178.6,338.6,180.7,342.3,180.1,346.1z M119.8,124.6c-1.5,11.1-1.1,22.1,1.1,33.5c1.1,5.6,2.1,9.9,4.6,13.7
		c0.3,0.5,0.7,0.9,0.9,1.2c0.1-0.3,0.3-0.6,0.4-0.9c0.1-0.3,0.1-1.2,0.2-1.8c0.1-2,0.2-4.8,1.9-7.5c3.1-5,2.2-10.8,1.1-17.6
		c-0.3-1.8-0.6-3.7-0.8-5.7c-0.1-1.1-0.3-2.3-0.6-3.6c-0.4-2.2-0.8-4.7-0.9-7.4C124.7,127.8,122.1,126.3,119.8,124.6z"/>
	<path d="M218.6,18c2.4,0,5.4,0.8,8.9,2.3c-2.2,3.4-5.9,5.6-7.4,9.7c-1,2.6,0.3,4.4,1.3,6.1c0.4,0.6,1.7,0.9,3,0.9
		c0.5,0,1.1,0,1.5-0.1c3.3-0.7,1.9-3.7,1.7-5.4c-0.4-3.4,0-6.3,1.9-9c1.2-0.3,2.4-0.4,3.6-0.4c5.6,0,10.7,2.8,16.2,3.3
		c2.1,0.2,3.3,1.3,3.4,3.5c-0.9,2.3-2.9,4.3-5,4.3c-0.2,0-0.4,0-0.6-0.1c-1.1-0.2-2-0.3-2.8-0.3c-8.9,0-5,10.6-8.9,14.6
		c-0.4,0.4,3.4,5.1,5.4,7.6c3.1,3.8,7,7.2,9.6,11.3c8.8,13.9,5.8,42.7-6.2,54.2c-5.1,4.9-11,8-17.6,8c-2.9,0-5.9-0.6-9-1.8
		c-0.5-0.2-1.4-1.4-2.2-1.4c-0.5,0-0.9,0.4-1.1,1.7c-0.9,5.5-5.7,9.6-5.2,15.9c0.4,4.3-1.8,9.3-5.3,11.2
		c-13.2,7.3-9.4,21.1-6.6,28.8c3.7,10.3,15.5,17.5,22.6,26.9c3.9,5.2,11.6,10.2,11.9,14.1c0.7,9.9,7.5,12.4,13.5,15.1
		c10.2,4.6,17.3,11.7,22.4,21.4c2.5,4.7-2.8,7.1-3.6,11c-0.2,1.1-0.8,1.5-1.5,1.5c-1.4,0-3.5-1.5-5-2.6c-2.7-1.9-4.9-2.8-6.8-2.8
		c-3,0-5.4,2.4-8.2,7c-4.8,7.8-4.8,16.8-8,25c-0.4,1.1-0.3,3.6,0.3,3.9c10.4,5.6,4.2,13.3,3.1,20.6c-1,7-1.5,14.9,4.8,19.8
		c5.6,4.4,4.1,9.8,0.9,12.5c-4.4,3.8-2.9,7.3-1.9,10.8c2.9,9,1.2,13.6-8.1,16.6c-5.8,1.9-12,2.4-18.1,3.5c-0.8,0.1-1.5,0.2-2.3,0.2
		c-2.7,0-5.3-0.9-6.7-2.8c-2.4-3.4,1.2-6.4,4.2-10.6c-4.2,1.4-8.1,2.1-11.8,2.1c-11.5,0-21.1-6-30.6-11.9
		c-0.8,9.5-6.9,16.1-17.4,16.1c-1.1,0-2.2-0.1-3.4-0.2c-1.8-0.2-3.5-0.3-5.3-0.3c-6.1,0-12,1.1-18,1.1c-1,0-2.1,0-3.1-0.1
		c-4.1-0.3-8.4-0.6-9.2-4.8c-0.7-3.5,3.7-5.9,6.5-6.1c7.2-0.6,7.7-7.9,12.3-11c0.2-0.1,0.2-0.6,0.5-0.7c7.8-3.7,6.4-12.4,9.8-18.6
		c1.3-2.4,1.6-6.5-3.2-6.5c-0.3,0-0.7,0-1.1,0.1h-0.1c-1,0-2.7-1.6-3.9-3.2c-11.3-14.2-16.6-30-15.1-48.2c0.2-2.4-1.1-6.2-2.9-7.3
		c-6.8-3.8-2.3-12.6-7.9-16.8c-0.3-0.3,1.7-3.2,2-4.9c0.9-5.3,5-10.4,1.3-16.3c-0.8-1.2-0.1-2.8,2.2-4.2c4.9-2.9,7.9-7.9,5.8-14.2
		c-1-2.9-1.5-4.6,2.4-5.6s8.6-11.9,7.3-15.6c-0.3-0.9-0.9-1.9-2.2-1.9c-0.2,0-0.5,0-0.7,0.1c-1,0.2-1.9,0.3-2.8,0.3
		c-5.5,0-9.1-4.1-12.1-8.2c-6.2-8.4-10.6-16.7-11.5-28.5c-1-13.2-1-26.2-1.2-39.3c-0.1-3.2,0.8-6.8,1.7-9.1c3.3-8.7,4.1-15.4-5.8-20
		c-1.8-0.9-4.7-3.2-1.8-6.7c1.1-1.2,0.7-3-2-4.1C81.1,76,72.6,60,73.4,51.4c0.2-2.5,1.4-3.6,2.6-3.6c0.7,0,1.5,0.4,2.1,1.1
		c4.1,4.9,9.9,6.6,15,9.6c5,2.9,8.8,7,13.2,11.4c0.8-4.7-4.8-7.3-2.2-11.9c1.7-3,1.8-7.6,5.9-7.9c0.3,0,0.7,0,1,0
		c3.6,0,7.4,1.4,9.6,4.7c1.8,2.6,2.6,3.9,6.8,4c5.1,0.2,9.8,5.2,10.8,11.5c0.3,1.7-0.7,4.5,1.8,4.5c0.3,0,0.6,0,1-0.1
		c3.2-0.6,6.1-2.2,8-5.1c0.2-0.2,0-0.8-0.2-1.1c-3.6-6-3.3-5.7,3.1-8.7c8.4-3.9,18-4.6,26.2-9.5c2.3-1.4,4.4-3,4.5-4.6
		c0.6-6.8,6.2-8.9,10.3-12.3c1-0.8,2-1.4,3.1-1.4c1,0,2,0.4,3.2,1.5c1.3,1.2,2.7,1.7,4.1,1.7c3,0,5.6-2.5,6.3-6.6
		C210.4,21.6,213.3,18,218.6,18 M223.3,103.5c-0.8,0-1.8-0.2-2.6-0.2c-0.2,0-0.3,0-0.5,0c-2.1,0.3-4.5-0.5-4.3,3.1
		c0.1,2.5,1,5.1,3.1,5.1c0.3,0,0.6,0,0.9-0.1c5.2-1.5,11.1-1.5,13.1-9.3c1.7-6.7,0.2-13.5,2.7-19.9c0.6-1.6-0.8-3-2.5-3.2l0,0
		c-1.3,0-12.3,15.9-11.6,16.9c0.4,0.7,1.8,0.9,2.6,1.5c1.1,0.8,2.1,1.8,1.9,3.6C225.6,103.1,224.5,103.5,223.3,103.5 M158.3,83.3
		c-1.8,0-3.5-0.2-5.1-0.2c-2.2,0-4,0.5-4.9,3.1c-1.3,4,4.3,5.3,7.1,5.6c0.2,0,0.5,0,0.7,0c4.7,0,2.3-5.7,5.1-8.8
		C160.3,83.3,159.3,83.3,158.3,83.3 M127.8,181.2c3.2,0,4.5-2.9,5.9-6c1.4-3,0.3-6.2,1.7-8.4c5.7-9.2,2.4-19,1.4-28
		c-0.6-5.5-2.7-10.9-0.4-17.5c-1.2,0.3-2.4,0.4-3.5,0.4c-8.1,0-12-6.8-17.8-11.8c-4.4,16.8-4.7,33.2-1.5,49.7
		c1.1,5.7,2.3,11.2,5.7,16.4c2.3,3.5,5,5.1,8.3,5.3C127.6,181.2,127.7,181.2,127.8,181.2 M182.9,329.4c-1.3,0-2.4-1.6-3.5-4.1
		c-1.9-4.2-4.2-8-7.6-11.2c-1-0.9-1.7-1.5-2.3-1.5c-0.7,0-1.3,0.7-2.1,2.4c-4.5,9.2-3.6,18.5,3.8,26.5c1.6,1.7,2.1,3.1,0.8,4.3
		c-0.2,3.5-0.4,6,4.1,6.8c3.6,0.7,7.2,3.4,9.9,6.2c3.6,3.6,7.4,5.1,11.4,5.1c2.7,0,5.5-0.6,8.3-1.7c5.6-2,4.3-6.7,3.7-11.1
		c-0.1-0.9,0.8-1.9,1.3-2.9c4.3-8,3.7-14.8-3.6-20.6c-3.1-2.4-1.2-6.6-3.9-7.7c-8.5-3.2-9.8-4.3-10.3-13.1
		c-0.3-5.4-3.9-9.3-5.8-13.9c-0.6-1.5-1.9-2.1-3.2-2.1c-0.6,0-1.2,0.1-1.7,0.4c-1.7,0.8-1.4,3.2-0.8,4.5c1.5,3.4,3.5,6.5,5.3,9.8
		c3.5,6.7,5.8,13.1,0.5,20.5C185.3,328.4,184,329.4,182.9,329.4 M218.6,3c-4,0-15.8,1.2-21.5,14.3c-0.5,0-0.9-0.1-1.3-0.1
		c-4.5,0-8.8,1.6-12.7,4.9c-0.5,0.4-1.2,0.9-2,1.4c-3.6,2.5-9.7,6.8-12.4,14.9c-2.7,1.3-6,2.2-9.6,3.3c-4.2,1.2-8.9,2.5-13.7,4.7
		l-0.8,0.4c-1.1,0.5-2.4,1.1-3.7,1.8c-2.9-2.1-6.3-3.5-9.8-4.2c-4.9-5.7-12.3-9.1-20.3-9.1c-0.7,0-1.4,0-2.1,0.1
		c-5.6,0.4-10.5,3-13.9,7.5c-2.4-1.2-4.6-2.3-5.4-3.3c-3.4-4.2-8.4-6.5-13.6-6.5c-7.9,0-16.5,5.9-17.6,17.2
		c-0.9,9.8,3.6,19.6,6.4,24.6c2,3.5,5.4,8.9,10.4,13.3c0.1,0.8,0.2,1.6,0.4,2.3c1.2,5.5,4.8,10.1,10.1,13c-0.2,0.5-0.4,1-0.6,1.7
		c-0.6,1.7-2.8,7.8-2.6,14.7c0,2.6,0.1,5.1,0.1,7.7c0.1,10.6,0.3,21.5,1.2,32.5c1.3,16.7,8,27.7,14.4,36.3c1.4,1.9,4.1,5.5,8,8.5
		c-0.6,0.7-1.1,1.5-1.5,2.3c-2.7,5.1-2.2,10-1.3,13.3c-5.2,3.6-7.1,8-7.9,11.1c-0.9,3.7-0.5,7.5,1.1,10.9c-0.1,0.3-0.2,0.6-0.3,0.8
		c-0.5,1.5-1.2,3.4-1.7,5.5c-0.1,0.1-0.1,0.2-0.2,0.3c-0.3,0.6-0.7,1.4-1,2.2c-2.6,6.3-1,12.2,2.3,16c0,0.1,0,0.2,0,0.3
		c0.5,3.4,1.4,10.6,7,16.2c-0.9,20.2,5.4,38.8,18.5,55.4c1,1.3,2.1,2.4,3.2,3.5l0,0c-0.2,0.8-0.4,1.8-0.7,2.5
		c-1.2,0.7-2.4,1.7-3.6,3c-2.7,2.4-4.5,5.1-5.7,7c-4.5,1-9.8,3.6-13.4,8.4c-3.3,4.4-4.6,9.7-3.5,15c1.4,7,6,12.5,12.8,15
		c3.7,1.4,7.4,1.7,10.1,1.9h0.1c1.4,0.1,2.7,0.1,4.2,0.1c3.7,0,7-0.3,10.3-0.6c2.8-0.2,5.4-0.5,7.7-0.5c1.3,0,2.4,0.1,3.4,0.2
		c1.8,0.2,3.6,0.3,5.3,0.3c9,0,16.9-3,22.8-8.7c0.5-0.4,0.9-0.9,1.3-1.4c5.4,2.6,11.2,4.6,17.8,5.5c0.5,0.9,1,1.8,1.6,2.7
		c4.1,5.7,11,9,18.8,9c1.6,0,3.3-0.1,4.9-0.4s3.2-0.5,4.9-0.8c4.6-0.7,9.9-1.5,15.1-3.2c13.1-4.2,16.5-11.6,17.7-14
		c3.3-7.1,2.2-14.3,0.7-19.6c3.2-4.1,5-9.2,4.9-14.4c-0.2-6.7-3.4-13-9.1-17.6c-0.1-0.7-0.2-2.4,0.4-6.2c0.1-0.6,0.5-1.9,0.8-3.1
		c1.1-3.7,2.7-8.7,1.9-14.6c-0.4-3.2-1.7-7.3-4.7-11.1c0.4-1.6,0.8-3.2,1.1-4.7c0.6-2.7,1.2-5.1,1.9-7.2c2.4,1.2,5.4,2.3,8.8,2.3
		c7.2,0,13.4-4.6,15.7-11.4c0,0,0-0.1,0.1-0.1c1.2-1.6,3-4,4.1-7.4c1.7-5.1,1.2-10.6-1.3-15.5c-6.8-13-16.4-22.2-29.5-28.1
		c-0.4-0.2-0.8-0.3-1.1-0.5c-1.1-0.5-2.8-1.2-3.6-1.7c0-0.1,0-0.1,0-0.2c-0.5-8.2-6.3-13.7-10.9-18.1c-1.5-1.4-3.2-3-4-4
		c-3.4-4.6-7.5-8.5-11.1-11.9c-4.1-3.9-8.3-8-9.4-11c-0.5-1.4-2-5.6-1.8-8.5c0.1-1,0.1-1.3,1.6-2.1c8-4.4,13.2-14.1,13.1-23.8
		c0.8,0.1,1.6,0.1,2.4,0.1c10.1,0,19.8-4.2,28.1-12.2c8.1-7.9,13.7-20.8,15.3-35.3s-0.9-28.2-7-37.7c-2.4-3.8-5.2-6.7-7.6-9.3
		c-0.6-0.7-1.2-1.3-1.7-1.9c5.7-1.9,10.4-6.6,12.9-12.8c0.7-1.8,1.1-3.8,1-5.8c-0.2-9.5-7-16.9-16.6-18c-0.2,0-0.4,0-0.6-0.1
		c-1-0.1-2.8-0.6-4.5-1.1c-3.1-0.9-7-2-11.5-2.2c-0.3-0.2-0.7-0.3-1-0.5C228,4.2,223.1,3,218.6,3L218.6,3z M190,342.9
		c2.2-1,4.3-2.6,6.3-4.6c0.4,0.4,0.9,0.8,1.4,1.2c0.2,0.1,0.3,0.2,0.4,0.3c-0.1,0.3-0.3,0.7-0.6,1.3l0,0c-0.6,1-1.9,3-2.6,5.7
		C193.5,345.5,191.9,344.1,190,342.9L190,342.9z"/>
</g>
</svg>
