<?xml version="1.0" encoding="utf-8"?>
<!-- Generator: Adobe Illustrator 24.1.0, SVG Export Plug-In . SVG Version: 6.00 Build 0)  -->
<svg version="1.1" id="Livello_1" xmlns="http://www.w3.org/2000/svg" xmlns:xlink="http://www.w3.org/1999/xlink" x="0px" y="0px"
	 viewBox="0 0 474 741.4" style="enable-background:new 0 0 474 741.4;" width="50" height="50" xml:space="preserve">
<style type="text/css">
	.st0{fill:#FEFEFE;}
</style>
<g>
	<path class="st0" d="M117.7,726.3c-3.1,0-5.9-1.3-8-3.7c-0.4-0.5-1-1.3-1.5-2.2c-0.6,0.2-1.2,0.2-1.8,0.2c-2.4,0-4.8-1.2-6.2-3.3
		c-7.4-10.9-4.2-28.1,7-37.7c3.7-3.2,5.4-7.6,7.4-12.8c0.8-2.1,1.7-4.3,2.7-6.5c-3.3-2-5.9-4.6-8.2-6.9c-1.6-1.6-3-3-4.5-4
		c-8.5-6.1-20-15.9-22.5-30.8c-0.4-2.6-1.3-5.1-2.2-7.9c-0.7-2-1.3-4-1.9-6.3c-0.8-3,0.3-6.1,2.8-7.9c1.3-1,2.9-1.5,4.5-1.5
		c1.4,0,2.7,0.4,3.9,1.1c1.6,1,3.5,1.9,5.5,2.8c6,2.7,13.4,6.2,17.4,15.1c0.6,1.3,2.8,1.4,4.1,1.4c1.8,0,3.8-0.3,5.7-1
		c3.2-1.1,5.7-3.5,8.6-6.4c3-3,6.5-6.3,11.1-8.2c3.9-1.5,4.1-2.6,3.9-8.9c-0.1-2.2-0.2-4.4,0.1-6.7c1.2-9,5.6-15.7,13.5-20.5
		c3.3-2,7.3-5.3,8-9.2c0.5-3-0.8-6.6-4-10.6c-6.8-8.6-5.8-15.8-3.3-20.8c-1.8-2.6-3.1-6.7,0.2-11.7c-9.1-3.8-8.8-12.6-8.7-16.2
		c0-1,0.1-2,0-2.6c-0.3-2.3,0.3-4.1,0.6-5.1c0,0,0,0,0,0c0.1-1.7-0.5-3.1-1-3.7c-0.2-0.2-0.4-0.4-1-0.4c-0.3,0-0.7,0.1-1.2,0.2
		c-2.9,0.7-5.7,1.1-8.5,1.1c-11.2,0-21.1-5.9-28.6-17c-6.4-9.6-6.2-19.8,0.5-27.9c2.9-3.5,6.2-4.9,8.9-5.4
		c-12.1-34.8-12.8-45.6-4.9-73.2c-18.3-2.4-33.7-9.5-45.7-21.2c-13.1-12.8-24.3-32.8-3.2-55.4c5.4-5.8,12.3-9,20-9.2
		c0.2,0,0.3,0,0.5,0c4.9,0,7.7,2,9.2,3.7c2,2.2,3,5.3,2.6,8.6c-0.9,8.8-7.8,9.1-8.6,9.1c-1.6,0-3-0.5-4.1-1c0,0.1,0,0.3,0,0.4
		c0.8,2,2.1,3.4,4.2,4.4c6.9,3.2,14.5,4.8,22.6,4.8c14.2,0,28.7-5,40.1-13.8c-7.7-13-16.1-20.3-26.9-23.8c-2.5-0.8-4.8-1.2-7.2-1.2
		c-3.2,0-6.4,0.7-10,2.2c-9.3,3.8-18.6,5.7-27.6,5.7c-14.8,0-29.3-5.1-43-15.1c-12.2-8.9-17.6-25-12.1-35.9c0-0.1,0.1-0.2,0.1-0.3
		c2.1-6.6,6.5-8,9.7-8c0.8,0,1.7,0.1,2.5,0.3c4.6,1.1,6.5,3.7,7.3,5.8c1.2,3.2,0.2,5.9-0.8,7.6c1.1,2.9,5,6.3,9.7,7.2
		c1.6,0.3,3.2,0.5,4.7,0.5c7.7,0,14.8-3.7,21.3-7.6c15.6-9.4,32.3-14,51.2-14c5.3,0,10.9,0.4,16.5,1.1c19.4,2.5,34.6,12.4,47,22.4
		c5.2-11.2,12.4-21.5,22-31.3c-3.6-1.4-7.5-3.8-9.1-8.3c-2.2-6,1.4-11.7,2.6-13.5c6.9-11,17.5-17.3,29.1-17.3c7.3,0,14.5,2.5,21,7.2
		c-5.9-20.7-3.2-40.8,7.8-58.3c11.9-18.8,26.3-28.9,44.1-30.6c-6.2-5.5-14.6-8.6-24.1-8.6c-5.2,0-10.5,1-15.6,2.9
		c-6.1,2.2-11.4,6.2-17,10.3l-1.3,0.9c-14.4,10.6-27.8,15.6-42.2,15.6c-3.2,0-6.5-0.3-9.8-0.8c-18.6-2.9-35.7-19.7-38.1-37.4
		c-2.5-18.4,10-41.2,26.3-47.8c3.3-1.4,6.8-2.1,10.2-2.1c4.5,0,8.8,1.2,12.8,3.5c2.9,1.7,4.3,5,3.5,8.3c-1.1,4.4-4.7,7.2-9.1,7.2
		c-0.9,0-1.7-0.1-2.2-0.2c-4.3,0.1-7.1,1.6-9.8,8.7c-0.8,2.2-0.3,2.7,0.4,3.3c2.3,2.1,4.8,3.1,7.7,3.1c1.9,0,3.9-0.4,6.1-1.3
		c6.3-2.4,11.9-6.6,17.8-10.9c3.5-2.5,7-5.2,10.8-7.6c15.5-9.6,34.4-19.5,56.1-19.5c0.3,0,0.6,0,0.9,0c23.2,0.3,43,6.3,59.1,17.8
		c16.3,11.6,28.7,29.1,37,51.8c11.9,32.5,6.9,62.3-15.6,92.9c9.8,4,19.9,8.2,29,14.7c33.9,24.4,46.9,51.1,42.3,86.6
		c-3.4,26.6-17.2,50.4-39.8,68.9c-10.9,8.9-18.2,17.4-23.1,26.8c-0.4,0.8-0.6,1.3-0.7,1.6c0.1,0.1,0.2,0.2,0.3,0.3
		c5.4,5,8.6,12.2,9.1,20.6c0.4,6.8-1.8,13.1-6.2,17.8c-4.1,4.4-9.8,6.9-16.1,7.1c0.1,2.6,0,5.2-0.1,7.7c-0.3,7.3-0.4,12,2.8,16.2
		c4.9,6.6,1.7,13,0.1,16.1c-0.2,0.4-0.4,0.8-0.6,1.2c-2.8,6.2-2.4,7.8-0.7,9.8c2.9,3.6,2.7,8.5,2.4,11.1c-0.9,6.7,1.3,13.3,3.6,20.3
		c0.6,1.7,1.1,3.4,1.7,5.2c2.2,7.2,0.6,16.5-4.2,24.8c-3.8,6.5-9,11.2-14.6,13.4c-0.5,2-1.4,3.7-2.4,5c3.1,0.8,7.9,3.3,7.6,11.3
		c0,0.1,0,0.2,0,0.3c3.1,10.4-0.5,19.3-3.4,26.6c-0.7,1.8-1.4,3.5-2,5.2c-1.3,3.7-3.8,6.5-7.4,7.9c-1.3,0.5-2.4,1-1.6,4.4
		c1.7,7.1,3.8,13.1,6.8,18.8c2.1,4.1,5.1,7.9,8.2,11.9c5.2,6.7,10.7,13.7,13.2,23.2c3.3,12.2-3.2,21.1-7.5,26.9l-0.3,0.4
		c-7,9.5-16.9,15.7-27.9,17.4c-0.2,0-0.4,0.1-0.5,0.1c-0.8,0.1-1.9,0.3-3.1,0.3c-2.8,0-5.3-1-7.2-2.9c-1.3,0.6-2.6,0.8-3.8,0.8
		c-4.4,0-7.1-3.1-9.1-5.4l-0.3-0.4c-7.8-8.8-10-20.3-6.3-33.1c1.4-4.8,3-9.7,4.5-14.4c0.6-2,1.3-4,1.9-5.9c0.5-1.6,0.4-2.2,0.3-2.3
		l0,0c0,0-0.6-0.5-2.5-1c-1.1-0.3-2.5-0.3-4-0.3c-0.5,0-1,0-1.5,0c-0.2,0-0.4,0-0.6,0l-1.2,0c-2.4,0-7.4,0-11-3.8
		c-0.3-0.3-0.5-0.6-0.8-1c2.5,5.8,4.7,12.3,4.5,19.7c-0.1,3-0.2,12-10.7,13.8c-1.5,0.3-3,0.6-4.5,0.9c-5,1-10.2,2.1-15.9,2.1
		c-3.5,0-6.7-0.4-10-1.2c-0.1,0-0.4-0.1-1.1-0.1c-0.8,0-1.8,0.1-2.9,0.2c-1.4,0.1-2.9,0.3-4.6,0.3c-1.7,0-3.3-0.1-4.7-0.4
		c-5.1-1-8.3-3.4-9.7-7.1c-1.3-3.6-0.4-7.3,2.6-11c1.8-2.2,3.2-5,4.7-7.9c2.2-4.4,4.8-9.3,9.1-13.5c-0.1-0.8-0.6-2.4-0.9-3.5
		l-0.3-1.2c-0.8-2.8-2.9-5.1-5.3-7.9c-3.5-4-7.8-8.9-8.7-16.3l-0.1-0.5c-0.3-2.2-0.7-5.8,2-8.9c1.2-1.4,2.8-2.3,4.6-2.8
		c-1.2-6.7-4.7-12.4-10.4-17.2c-1.4,0.3-2.9,0.5-4.4,0.5c-3.3,0-6.2-0.8-8.9-1.8c-3.3,4.4-8.2,6.3-11.6,7.6
		c-0.4,0.1-0.8,0.3-1.1,0.4c0.1,1.6-0.1,3.2-0.7,4.6c-0.5,1.3-1.3,2.5-2.4,3.5c2.6,7.1-1.6,12.9-3.9,16.2c-0.3,0.4-0.6,0.8-0.9,1.2
		c-4,5.9-9.9,7.9-14.2,9.4c-0.6,0.2-1.3,0.4-1.9,0.7c-0.5,0.2-0.9,0.3-1.4,0.4c-3.6,5.6-9.1,8.2-13.4,10.2c-1.8,0.8-3.5,1.6-4.8,2.5
		c0.3,0.2,0.6,0.3,0.9,0.5c4.7,2.6,10.5,5.7,14,12.8c1,2.1,1,4.5,0,6.6s-2.9,3.6-5.2,4.1l-0.9,0.2c-4.6,0.9-5.4,1.4-5.6,2.1
		c-0.3,1.2-0.8,3.3,4.8,6.6c6.9,4.1,10.2,10.3,9.7,17.9c0,0.2,0,0.2,0,0.2c0.1,0.3,1,1.4,1.6,2.1l0.4,0.5c3.6,4.3,4.8,9.1,3.4,13.3
		c-0.8,2.2-2.9,6-9,7.3c-2.9,0.6-5.1,2.5-8.5,5.5c-2.2,2-4.7,4.2-7.7,6l-1.4,0.8c-5.1,3.1-10.4,6.2-18.2,6.2c-1.7,0-3.5-0.2-5.3-0.5
		c-0.7-0.1-1.5-0.2-2.3-0.2c-4.6,0-10.7,1.7-16,3.1l-0.7,0.2c-0.2,0.1-0.4,0.1-0.7,0.2C121.6,725.7,119.8,726.3,117.7,726.3z
		 M299,632.3c0-0.2-0.1-0.4-0.1-0.6c-0.1-0.1-0.2-0.2-0.3-0.2C298.7,631.7,298.8,632,299,632.3z M297.6,589c0.7,0.2,1.5,0.4,2.2,0.8
		c-0.6-0.7-1.1-1.2-1.4-1.5C298.2,588.5,297.9,588.7,297.6,589z M233.4,193.5c-0.2,0-0.5,0-0.8,0.1c-2,0.6-2.9,0.9-2.7,2.9
		c1.2-1,2.4-2,3.7-3C233.5,193.5,233.5,193.5,233.4,193.5z"/>
	<path d="M296.4,21.4c0.3,0,0.5,0,0.8,0c43,0.5,73.4,21.6,89.1,64.6c13.2,36.2,2.5,65.7-20.6,93.6c12.4,5.2,25.5,9.6,36.7,17.6
		c31.9,23,43.5,46.8,39.3,79.5c-3.3,25.8-16.7,47.3-37.1,64c-10.1,8.2-19,17.5-25,29.2c-2,3.9-2.8,7.1,1.2,10.8
		c4.3,4,6.3,9.6,6.7,15.6c0.6,9.4-5.9,17-15.9,17c-0.2,0-0.3,0-0.5,0c-0.2,0-0.3,0-0.5,0c-4.9,0-5.9,2-5.6,6.2
		c0.7,10-2.7,20.5,4.2,29.7c2.5,3.4,0.1,6.6-1.3,9.6c-2.8,6-4.5,11.7,0.2,17.7c1,1.2,1,3.6,0.8,5.4c-1.4,10.2,2.7,19.4,5.5,28.7
		c3.3,10.6-6,27.4-16.4,29.6c-0.9,0.2-2.6,0.9-2.6,1.2c1.3,8-6.3,7.9-9.9,11.6c-3.9,3.9-3.1,10.3-2.2,15.8c0.2,1.2,1.3,2.4,2.8,2.4
		c0,0,0,0,0,0c1.7,0,3-0.5,3.3-2.6c0.3-1.8,1-3.5,1.5-5.2c0.9-3.1,3.3-4.6,6.1-4.6c0.2,0,0.4,0,0.6,0c4.1,0.3,2.1,4,2.9,6.2
		c3.3,10.2-2,18.7-5.1,27.6c-0.6,1.6-1.6,2.7-3.1,3.4c-6.1,2.4-7.4,7.6-6.2,13c1.6,7.1,3.9,13.8,7.5,20.6
		c6.1,11.7,17.2,20.1,20.8,33.5c2.4,8.9-2.6,15.5-6.6,20.9c-5.3,7.2-13.2,12.9-23,14.4c-0.9,0.1-1.7,0.3-2.5,0.3
		c-1,0-1.8-0.3-2.4-1.4c-1-1.9,0.4-3.3,1.7-4.6c1.1-1.1,2.4-2.2,2.9-3.6c0.5-1.2,2-2.9,0.3-4.2c-0.7-0.5-1.4-0.7-2.2-0.7
		c-0.8,0-1.6,0.2-2.3,0.7c-2.9,1.9-5.8,4.2-6.6,7.6c-0.7,3-1.5,4.1-2.4,4.1c-1.1,0-2.4-1.6-3.9-3.2c-6.9-7.7-7.3-17-4.7-26
		c2-6.7,4.2-13.4,6.4-20.2c2.2-6.9-0.6-11.3-7.7-12.9c-2.4-0.5-4.7-0.4-7-0.5c-0.2,0-0.5,0-0.7,0c-0.4,0-0.8,0-1.2,0
		c-3.5,0-7-0.3-6.6-5.9c0-0.2-0.2-0.5-0.4-0.6c-9.3-5.9-9.4-16-11.5-25.2c-0.3-2-1.2-4.3,0.6-5.9c0.1-0.1,0.2-0.1,0.4-0.1
		c0.7,0,2,0.5,2.3,1c3.2,4.9,9.9,3,13.6,7.5c0.5,0.6,0.9,0.9,1.3,0.9c0.8,0,1.3-1.2,1.8-3.3c1.8-7.5-3.3-10.5-6.8-15.1
		c-3.5-4.5-6.2-6.8-9.1-6.8c-2.6,0-5.2,2-8.4,6c-2.2,2.8-8.6,6.8,0.4,9.8c0.5,0.2,0.2,2.9,0.3,4.4c-1,9.3-5.9,17.7-1.6,28
		c3.7,8.7,9.1,17.2,8.9,27.6c-0.1,4-0.7,5.9-4.5,6.6c-6.3,1.2-12.5,2.8-19,2.8c-2.6,0-5.3-0.3-8.1-1c-0.9-0.2-1.9-0.3-3-0.3
		c-2.3,0-4.9,0.4-7.5,0.4c-1.1,0-2.2-0.1-3.2-0.3c-4.9-1-5.1-3-2.7-6c5.3-6.5,7.1-15.1,13.5-21c3.4-3.2,2-6.9,0.5-11.9
		c-2.7-9.3-12.5-13.4-13.7-23c-0.4-2.9-0.7-4.1,2-4.1c0.4,0,0.9,0,1.5,0.1c0.2,0,0.3,0,0.5,0c3.7,0,3-5.1,2.8-6.7
		c-1.3-9.8-6.2-17.9-14-24.1c-0.9-0.7-2.5-1.4-3.7-1.4c-0.3,0-0.5,0-0.7,0.1c-1.4,0.5-2.8,0.7-4.1,0.7c-4.7,0-8.7-2.5-13.1-4.1
		c-0.7,8.6-8.5,9.3-14,12.1c-2.9,1.5-4.7,1.5-2.6,5c1.4,2.4-0.3,4.2-2.5,4.8c-3.5,1-5.7,3.5-8.3,5.4c0.6,0.8,1.3,1.1,2,1.1
		c1.7,0,3.4-1.8,4.8-1.8c0.6,0,1.1,0.3,1.6,1.3c2.1,4.3-1.1,7.8-3.5,11.4c-3.1,4.6-7.9,5.6-12.5,7.3c-0.5,0.2-1.3,0.2-2,0.2
		c-0.1,0-0.2,0-0.3,0c-0.7,0-1.3,0-1.4,0.3c-3.5,10.5-16.1,9.5-21.6,17.4c-2.3,3.2-2.1,4.5,1.1,6.7c5.3,3.6,12.1,5.4,15.5,12.3
		c-5.3,1.1-10.9,1.9-12.3,7.9c-1.6,7.1,3,11.6,8.2,14.7c4.5,2.7,6.4,6.2,6,10.9c-0.3,3.7,1.7,5.7,3.8,8.2c2.5,3,3.9,7.3-1.4,8.4
		c-8,1.7-12.1,8.6-18.5,12.4c-5.4,3.2-9.5,6-15.8,6c-1.3,0-2.6-0.1-4.1-0.4c-1.1-0.2-2.3-0.3-3.6-0.3c-5.9,0-12.6,1.9-18.7,3.6
		c-1.2,0.3-2.5,0.9-3.7,0.9c-0.8,0-1.6-0.3-2.2-1.1c-1.6-1.9,0.8-3.2,1.4-4.8c0.4-1.1,1-2.8,0.4-3.6c-0.5-0.8-1.2-1.1-2-1.1
		c-0.8,0-1.7,0.3-2.3,0.6c-2.3,1.1-4.4,2.8-6.5,4.2c-4.9-7.3-3.2-20.2,5.7-27.7c8.6-7.3,9-18.4,14.8-26.7c0.3-0.5-0.3-2.5-0.8-2.6
		c-7.5-1.6-11.4-8.5-17-12.6c-8.6-6.2-17.6-14.4-19.5-26c-0.9-5.2-2.9-9.6-4.3-14.8c7.2,4.4,16,5.7,20.1,14.6
		c1.9,4.3,6.3,5.9,11,5.9c2.7,0,5.5-0.5,8.1-1.4c8.9-3,13.1-11.9,20.1-14.7c12-4.8,7.7-14.6,8.7-21.5c1-7.7,4.9-12,10-15.1
		c13-8,15.5-18.8,6-30.8c-3.2-4.1-5.1-8.6-1.9-13.6c1.3-2,1.7-4-0.2-5.7c-2-1.9-1.6-3.1,0.2-5.1c2.8-3.3,2.7-8.6-1.3-9.4
		c-9.4-1.8-6.1-8.5-6.9-13.8c-0.1-1,0.5-2,0.6-3c0.6-6.1-2.7-12.6-9.5-12.6c-0.9,0-1.9,0.1-3,0.4c-2.3,0.6-4.6,0.9-6.7,0.9
		c-9.3,0-16.7-5.2-22.3-13.6c-4.2-6.3-5-12.9,0.1-19c1.8-2.1,3.6-2.9,5.5-2.9c3.1,0,6.3,2,9.5,3.7c-17.6-48.5-18-54.4-7-90.9
		c-19.1-0.8-36.6-6.5-50.2-19.9c-14.9-14.6-17.4-29.4-3-44.9c3.9-4.2,8.8-6.6,14.7-6.8c0.1,0,0.2,0,0.3,0c2.5,0,4.7,0.9,4.3,4
		c-0.2,1.8-0.6,2.3-1.2,2.3c-0.9,0-2.1-1.5-3-1.6c-0.3,0-0.5,0-0.8,0c-5.2,0-9.4,6.1-7.2,11.4c1.5,3.7,4.1,6.5,8,8.3
		c8.2,3.8,16.9,5.5,25.7,5.5c16.7,0,33.6-6.3,46.2-16.6c2.6-2.1,2.9-4.2,1.4-6.9c-7.5-13.2-17-24-32.1-28.8c-3.2-1-6.3-1.5-9.4-1.5
		c-4.3,0-8.5,0.9-12.8,2.7c-8.5,3.5-16.7,5.2-24.8,5.2c-13.5,0-26.4-4.7-38.6-13.7c-9.3-6.8-13.7-19-9.7-26.6
		c0.7-1.4,0.8-4.1,3.1-4.1c0.3,0,0.5,0,0.9,0.1c4.3,1,0.3,3.3,0.3,4.7c0.2,7.1,7.4,14.2,16.1,15.9c2.1,0.4,4.2,0.6,6.2,0.6
		c9.3,0,17.5-4.1,25.2-8.7c15-9.1,30.7-12.9,47.3-12.9c5.1,0,10.3,0.4,15.6,1.1c18.4,2.4,32.8,12.1,46.5,23.5
		c1.6,1.3,2.7,2.4,3.7,2.4c0.9,0,1.7-0.8,2.6-3.1c7.8-19.4,21.3-34.3,37.4-47.1c2-1.6,7.9-1.7,5-6c-2.3-3.5-5.6-7-10.3-7
		c-0.9,0-1.9,0.1-3,0.5c-7.2,2.1-9.5,6.8-7.2,14.4c-7.5-2.4-8.8-5.4-4.9-11.6c5.7-9.1,14-13.8,22.7-13.8c6.4,0,13,2.5,19,7.6
		c1.2,1,2.2,1.4,3.1,1.4c1.3,0,2.4-0.7,3.8-1.8c2.5-1.9,4.4-3,3-7.4c-6-18.9-4.4-37.6,6.2-54.5c10.1-16,23.5-27.4,43.3-27.4
		c1.1,0,2.3,0,3.4,0.1c0.8,0,1.6,0.2,2.4,0.2c1,0,2-0.2,2.8-1.2c-7.1-14.3-21.9-22.5-38.2-22.5c-6,0-12.1,1.1-18.2,3.3
		c-7.6,2.8-13.8,7.6-20.2,12.3c-11.5,8.5-23.6,14.1-37.7,14.1c-2.8,0-5.7-0.2-8.6-0.7c-14.8-2.3-29.7-15.9-31.8-31
		c-2.1-15,8.5-34.5,21.7-39.8c2.5-1,4.9-1.5,7.4-1.5c3.1,0,6.2,0.8,9,2.5c-0.3,1.2-1,1.5-1.8,1.5c-0.7,0-1.4-0.2-1.9-0.2
		c0,0,0,0,0,0c-9.3,0.1-14,5.4-17.1,13.6c-1.8,4.7-0.9,8.6,2.4,11.5c3.8,3.5,8.2,5,12.8,5c2.9,0,5.9-0.6,8.8-1.8
		c11.2-4.3,19.9-12.9,29.9-19.1C260.4,29.8,277.2,21.4,296.4,21.4 M296.4,6.4c-23.6,0-43.6,10.4-60,20.6c-4,2.5-7.6,5.1-11.1,7.7
		c0.2-0.6,0.4-1.3,0.6-1.9c1.6-6.4-1.3-13.2-7-16.5c-5-3-10.8-4.5-16.6-4.5c-4.4,0-8.8,0.9-13,2.6c-19.4,7.9-33.9,34-30.9,55.8
		c2.9,21.1,22.4,40.4,44.3,43.8c3.7,0.6,7.4,0.9,11,0.9c15.8,0,31-5.6,46.6-17l1.3-1c5.4-4,10.1-7.5,15.2-9.3
		c4.3-1.6,8.7-2.4,13-2.4c0.6,0,1.2,0,1.9,0c-10.7,5.7-20.2,14.9-28.2,27.7c-9.5,15-13.4,31.7-11.6,49.1c-3.6-1-7.2-1.5-10.9-1.5
		c-14.2,0-27.1,7.6-35.4,20.8c-4.5,7.1-5.6,13.8-3.3,20.1c1.1,3,2.8,5.4,4.7,7.2c-5.1,5.9-9.4,12.1-13.1,18.4
		c-11.8-8.6-26-16.2-43.5-18.5c-6-0.8-11.9-1.2-17.5-1.2c-20.3,0-38.3,4.9-55.1,15.1c-5.6,3.4-11.6,6.5-17.5,6.5
		c-1.1,0-2.2-0.1-3.3-0.3c-1-0.2-1.9-0.7-2.7-1.2c0.8-3.6,0.2-6.7-0.7-9c-1.2-3.1-4.3-8.5-12.6-10.4c-1.4-0.3-2.8-0.5-4.2-0.5
		c-2.9,0-12.8,0.9-16.8,13c-6.8,14.3-0.5,33.8,14.6,44.8c8.9,6.5,18.1,11.1,27.5,13.8c-0.1,0.1-0.2,0.2-0.3,0.4
		c-19.3,20.8-18,44.8,3.5,65.9c11.3,11.1,25.2,18.4,41.5,21.9c-2.5,10.2-3.8,19.3-3,29.4c0.8,10,3.5,20.5,8,33.7
		c-1.9,1.3-3.7,2.9-5.3,4.8c-8.9,10.8-9.2,24.5-1,36.9c6.2,9.3,17.3,20.3,34.8,20.3c1.2,0,2.4-0.1,3.6-0.2c0,0.5,0.1,1,0.1,1.5
		c0,0.3,0,1,0,1.5c-0.1,3-0.3,7.9,2.1,13c1,2,2.5,4.4,4.8,6.5c-0.6,3.3-0.2,6.3,0.8,9.1c-2.1,6.3-2.2,15.1,5.6,25.1
		c2.5,3.1,2.5,4.7,2.5,4.7c0,0,0,0,0,0c0,0-0.6,1.7-4.6,4.1c-9.7,6-15.4,14.7-17,25.9c-0.4,3-0.3,5.8-0.2,8.1c0,0.6,0.1,1.3,0.1,1.9
		c-5.6,2.4-9.6,6.3-12.8,9.4c-2.2,2.1-4.2,4.1-5.8,4.6c-0.7,0.2-1.5,0.4-2.2,0.5c-5.4-9.3-13.8-13.2-19.6-15.8
		c-1.8-0.8-3.5-1.6-4.8-2.4c-2.4-1.5-5.1-2.2-7.9-2.2c-3.2,0-6.3,1-8.9,3c-4.9,3.7-7.1,9.9-5.6,15.9c0.7,2.5,1.4,4.7,2.1,6.7
		c0.8,2.5,1.6,4.7,1.9,6.7c2.9,17.7,16,28.8,25.5,35.7c0.9,0.7,2.2,1.9,3.5,3.3c1.3,1.3,2.7,2.7,4.3,4.1c-0.2,0.4-0.3,0.8-0.5,1.3
		c-1.9,4.9-3.1,8-5.3,9.8C88.2,686,84.5,707.4,94,721.5c2.5,3.7,6.3,5.9,10.4,6.4c3.4,3.8,8.1,5.9,13.2,5.9c3.3,0,6-0.9,7.5-1.4
		c0.1,0,0.2-0.1,0.3-0.1l0.6-0.2c4.9-1.3,10.4-2.9,14-2.9c0.6,0,0.9,0,1.1,0.1c2.2,0.4,4.4,0.6,6.5,0.6c9.8,0,16.6-4,22-7.3
		c0.4-0.3,0.9-0.5,1.4-0.8c3.7-2.2,6.6-4.8,8.9-6.9c1.9-1.7,4-3.5,5-3.8c7.1-1.5,12.4-5.9,14.6-12.2c2.3-6.7,0.6-14.2-4.7-20.6
		l-0.2-0.3c-0.2-7.6-3.3-14.2-9.1-19.1c2.4-1.5,4.4-3.6,5.6-6.2c2-4.2,2-9.1-0.1-13.2c-1.9-3.9-4.4-6.8-7-9.2c2.8-1.7,5.7-4,8.1-7.1
		c0.4-0.1,0.7-0.2,1.1-0.4c5-1.7,12.5-4.3,18-12.3c0.2-0.4,0.5-0.7,0.8-1.1c1.4-2,3.4-4.8,4.7-8.3c1.3-3.5,1.7-7,1.2-10.5
		c0.5-0.8,0.9-1.6,1.2-2.4c0.3-0.7,0.5-1.4,0.7-2.2c2.4-1.1,5.3-2.6,8-4.8c2.1,0.5,4.3,0.8,6.7,0.8c0.6,0,1.3,0,1.9-0.1
		c1.7,1.8,3,3.6,4,5.7c-0.5,0.5-0.9,0.9-1.3,1.3c-5,5.6-4.1,12.1-3.8,14.8l0.1,0.5c1.2,9.7,6.6,15.8,10.5,20.3
		c1.7,1.9,3.4,3.9,3.7,5c0.1,0.2,0.1,0.4,0.2,0.5c-3.4,4.1-5.6,8.5-7.5,12.1c-1.4,2.7-2.6,5-3.9,6.7c-6.3,7.8-5.1,14.8-3.9,18.2
		c1.6,4.3,5.5,9.9,15.2,11.9c2,0.4,4,0.6,6.2,0.6c2,0,3.8-0.2,5.2-0.3c0.8-0.1,1.5-0.1,2-0.2c3.6,0.9,7.3,1.3,11.2,1.3
		c6.4,0,12.2-1.2,17.4-2.2c1.5-0.3,2.9-0.6,4.3-0.8c4.8-0.9,8.2-2.9,10.6-5.1c-1.2,11.7,2.2,22.4,9.7,30.9l0.3,0.4
		c2.4,2.8,7,7.9,14.8,7.9c0.6,0,1.3,0,2.3-0.2c2.6,1.4,5.6,2.2,8.7,2.2c1.9,0,3.4-0.3,4.4-0.4c0.1,0,0.3,0,0.4-0.1
		c12.9-2,24.6-9.2,32.8-20.4l0.3-0.4c4.5-6.2,13-17.6,8.7-33.3c-3-11-9.1-18.9-14.6-25.8c-2.9-3.7-5.6-7.2-7.5-10.7
		c-2.3-4.4-4.1-9.1-5.5-14.5c3.8-2.5,6.7-6.1,8.2-10.6c0.5-1.5,1.2-3.1,1.9-4.9c3-7.6,7.2-17.9,3.9-30.3c0-1.9-0.1-5.1-1.7-8.5
		c-0.6-1.3-1.3-2.4-2.2-3.5c4.7-3.2,8.9-7.8,12.2-13.4c5.9-10.1,7.8-21.6,4.9-30.8c-0.6-1.8-1.2-3.6-1.7-5.3c-2.1-6.4-4-12-3.3-16.9
		c0.5-3.6,0.7-10.4-3.4-16.1c0.2-0.6,0.5-1.4,1.1-2.7c0.1-0.3,0.3-0.6,0.4-0.9c0.9-1.8,2.3-4.6,3-8.1c1-5.6-0.3-11.3-3.8-15.9
		c-1.5-2.1-1.6-4.9-1.3-11.4c0-0.5,0-1.1,0.1-1.6c5.5-1.5,10.3-4.3,14.2-8.4c5.8-6.2,8.7-14.5,8.2-23.4c-0.5-8.4-3.2-15.8-7.8-21.7
		c4.3-7.3,10.6-14.1,19.4-21.4c24.1-19.7,38.8-45.2,42.5-73.7c2.5-19.6,0.1-36.6-7.5-51.9c-7.4-15-19.8-28.6-37.9-41.7
		c-7.1-5.1-14.5-8.8-21.9-12c7.2-11.1,12.1-22.2,15-33.4c4.8-18.9,3.6-38.7-3.8-58.8c-8.8-24.1-22.2-42.7-39.7-55.3
		c-17.3-12.4-38.6-18.9-63.3-19.2C297.1,6.4,296.8,6.4,296.4,6.4L296.4,6.4z M105.5,278.4c2.4-0.8,4.8-1.6,7.3-2.6
		c2.6-1.1,5-1.6,7.1-1.6c1.6,0,3.2,0.3,4.9,0.8c7.4,2.3,13.3,6.8,18.9,14.5c-9,5.4-19.6,8.4-29.8,8.4c-3.3,0-6.4-0.3-9.5-0.9
		c1.4-2.3,2.5-5.1,2.8-8.5C107.5,284.9,106.9,281.4,105.5,278.4L105.5,278.4z M312.7,649l0.3,0c-0.1,0.4-0.2,0.8-0.4,1.1
		c0-0.4-0.1-0.8-0.2-1.1C312.5,649,312.6,649,312.7,649L312.7,649z M318.7,649.2C318.7,649.2,318.7,649.2,318.7,649.2L318.7,649.2z"
		/>
</g>
</svg>
