<?xml version="1.0" encoding="utf-8"?>
<!-- Generator: Adobe Illustrator 24.1.0, SVG Export Plug-In . SVG Version: 6.00 Build 0)  -->
<svg version="1.1" id="Livello_1" xmlns="http://www.w3.org/2000/svg" xmlns:xlink="http://www.w3.org/1999/xlink" x="0px" y="0px"
	 viewBox="0 0 474 405.9" style="enable-background:new 0 0 474 405.9;" width="50" height="50" xml:space="preserve">
<style type="text/css">

		.Stile_x0020_grafica{fill:#FEFEFE;stroke:#000000;stroke-width:15;stroke-linecap:round;stroke-linejoin:round;stroke-miterlimit:10;}
	.st0{fill:#FEFEFE;}
</style>
<g>
	<path class="st0" d="M115.9,389.6c-1.8,0-3.5-0.3-5.2-1c-0.6,0.1-1.3,0.2-2.2,0.2c-0.5,0-1,0-1.5-0.1c-7-1-11.7-4.8-15.7-8.7
		c-2.8-2.8-5.6-4.8-8.5-6.2c-4.2-2.1-5.7-5.8-6.5-7.6c-0.7-1.8-1.7-3.5-3.2-5.5c-2.6-3.6-4.4-8.1-5-12.7c-0.2-1.5-0.7-3.1-1.3-4.9
		c-0.6-1.8-1.3-3.8-1.7-6.1c-0.2-1.1-0.4-2.2-0.7-3.3c-0.7-3.6-1.5-7.4-1.8-11.4c-0.2-3.5,0.7-6.8,2.5-9.2c0.3-2.1,1.4-4,3.2-5.5
		c1-0.9,2-2.1,2.3-5.3c0.3-3.4,0.8-7.4,2.2-11.4c0.1-0.3,0.1-1.3,0.2-2c0-1,0.1-2.1,0.2-3.4c0.5-3.3,0.6-7,0.5-11.2
		c-0.1-4.3,0.6-8.4,1.3-12c0.2-0.8,0.3-1.7,0.5-2.5c0-0.2,0-0.9,0-1.3c0-1.3,0-3,0.5-5c0.1-1.8,0.9-3.2,1.5-4.1
		c0.2-0.3,0-1.9-0.2-3.2c-0.1-0.7-0.2-1.5-0.3-2.2c-0.7-6.4,4.2-10.4,6.6-12.3c1.2-1,2.6-1.6,4-1.9c1.1-2,3.1-3.7,6.7-5l0.8-0.3
		c2.2-0.8,4.1-1.8,5.6-2.9c0,0,0.1-0.1,0.1-0.1c-0.5-0.3-1-0.7-1.4-1c-3.1-2.3-5.6-4.6-7.7-7.1c-2.7-3.2-5.5-6.7-8.7-11.1l-0.5-0.7
		c-2.3-3.1-5.5-7.3-5.5-12.9c0-1.2-0.3-2.6-0.6-4.1c-0.2-1.2-0.5-2.5-0.6-3.9c-0.3-2.8-1.2-9.9,7.4-12.4c0.1-0.3,0.3-0.7,0.5-1.2
		c0.7-2,1.7-3.7,2.5-5.3c0.8-1.5,1.5-3,2-4.3c0.4-1.3,0.6-2.7,0.8-4.5c0.1-0.7,0.2-1.4,0.3-2c0.9-6.1,1.9-11.1,3.2-15.9
		c0-0.2,0.1-0.4,0.2-0.6c-0.8-3.9,1-7.8,4.7-9.7c0.4-0.2,0.9-0.6,1.6-1.8c2.1-4,4.9-5.4,7.2-5.7c0.3-0.3,0.6-0.6,1-0.9
		c1.7-1.4,3.8-2.1,5.8-2.1c2,0,3.9,0.7,5.3,1.9c2.9,0.2,5.2,1.3,6.7,2.1c0.4,0.2,0.8,0.4,1,0.5c5,1.9,8.9,2.9,12.7,3.4
		c3.5,0.4,6.3,1.8,8.6,2.9l0.5,0.2c1.2,0.6,2.8,1,4.6,1.4c1,0.2,1.9,0.5,2.9,0.7l0.7,0.2c0.9,0.2,1.8,0.5,2.7,0.8
		c0.2-1.6,0.6-3.2,1.2-4.9c0.3-0.8,0.5-2.3-1.3-5.9c-0.8-1.7-2.1-3.3-3.5-5.2c-0.8-1-1.6-2.1-2.4-3.3c-0.5-0.7-1-1.5-1.5-2.2
		c-1.2-1.7-2.3-3.4-3.5-4.9c-2.1-2.7-4.3-5.5-6.7-7.9c-0.4-0.4-1.3-1.1-3.1-2c-1.7-0.8-2.8-1.8-3.5-2.5c0,0,0,0,0,0
		c-1-0.4-2-1.1-3-2.3c-0.8-0.9-1.8-2.6-2-4.8c-1-1.6-1.6-3.8-0.9-6.8c-0.2-1.2-0.3-2.4-0.4-3.5c-0.2-2.2-0.4-4.4-1.1-5.5
		c-0.8-1.2-1.4-2.5-1.9-3.6c-0.9-1.8-1.7-3.3-2.6-3.9c-1-0.7-1.8-1.6-2.3-2.6c0,0,0,0-0.1,0c-0.2-0.1-0.6-0.1-0.8-0.2
		c-1.5,0.7-3.1,1.1-4.8,1.1c-2,0-4-0.6-5.7-1.6c-0.7-0.4-1.4-0.6-2.4-0.6c-1.4,0-3.1,0.4-4.6,0.7c0,0-0.7,0.2-0.9,0.2
		c-2,3.2-5.7,4.5-7.8,5c-0.1,0.1-0.3,0.2-0.4,0.4c-2.9,2.4-4.7,5.3-5.6,8.9c-0.9,3.5-3.7,6.1-7.1,6.5c-0.4,0.1-0.8,0.1-1.1,0.1
		c-1.5,0-5.3-0.5-7.5-4.9c-1.5-2.9-1.8-6.2-1-10c0.3-1.2,0.6-2.2,0.9-3.2c0.3-1.1,0.6-2,0.7-2.8c0.4-2.5,1.9-5,4-6.7
		c2.5-2,4.7-4.3,7.1-6.8c1.6-1.7,3.3-3.4,5.1-5.1c0.7-0.7,1.4-1.3,2.2-1.9c0.7-0.6,1.3-1.2,2-1.8c1.8-1.7,4.1-2.6,6.5-2.6
		c1.1,0,2,0.2,2.6,0.3l0.2,0c0.5,0,1.1,0,1.8,0c1.8,0,4,0,6.5,0.7c1.2,0.4,2.6,0.5,4.5,0.5c1.2,0,2.6-0.1,4-0.1
		c1.5-0.1,3.1-0.2,4.8-0.2c0,0,0.3,0,0.3,0c0.4,0,0.7,0,1.1-0.1c0.6,0,1.3-0.1,2.1-0.1c1.6,0,3,0.2,4.3,0.6c0.8-0.9,1.7-1.8,2.6-2.8
		c1-1,1.9-2,2.9-3.1c1.7-1.9,4.1-2.9,6.6-2.9c0.9,0,1.8,0.1,2.7,0.4c0.3,0.1,0.9,0.2,1.5,0.2c1.2,0.2,2.7,0.4,4.4,1
		c0.5,0.2,1.2,0.3,2.4,0.3c0.4,0,0.7,0,1.1,0l0.3,0c4.2,0,7.6,1.5,10,2.8c4.8,2.5,5.1,6.6,5.1,8.3c-0.1,2.7,1.4,5.3,3.9,9.1
		c0.1,0.2,0.3,0.5,0.5,0.7c0.6,0.9,1.3,2,1.9,3.3c0.9-0.6,1.7-1.2,2.5-1.7c0.6-0.4,1.2-0.8,1.6-1.1c2.1-1.6,4.1-3.5,5.9-5.6
		c4.4-5.2,8.7-9,13.6-12c5.7-3.6,11.1-6.1,16.5-7.8c5.8-1.8,11.4-2.9,16.8-3.3c1.5-0.1,3.2-0.4,4.9-0.7c2.7-0.5,5.7-1,8.9-1
		c0.9,0,1.9,0,2.8,0.1c5.8,0.6,13.3,1.6,20.8,4c0.7,0.2,1.7,0.4,2.7,0.6c1.4,0.3,3,0.6,4.6,1.1c1.9,0.6,3.9,1.2,6.1,1.7
		c6,1.6,12.8,3.3,18.8,8.3c1.9,1.6,3.7,3.2,5.4,4.8l0.5,0.5c1.6,0.4,2.9,1,4.1,1.8l0.3-0.4c2-2.5,5-6.2,10.5-7.4
		c0.3-0.1,1-0.2,2.3-1.7c1.3-1.4,2.7-2.4,3.9-3.4c0.6-0.4,1.1-0.8,1.5-1.2c1.4-1.2,2.8-2.7,4.2-4.2c1-1.1,2-2.2,3.1-3.3
		c1.3-1.3,3.2-2.9,5.6-4.2c1.8-2.4,4.4-3.8,7.5-3.8c1,0,1.9,0.2,2.7,0.3c0.7-0.1,1.5-0.2,2.2-0.2c4.2,0,7.3,2,9.4,3.3
		c0.3,0.2,0.6,0.4,0.9,0.5c4.1,2.4,9.1,5.9,11.8,11.6c1.9,3.8,3.6,6.5,5.7,8.8c1.5,1.6,2.1,3.4,2.5,4.4c0,0,0,0.1,0,0.1
		c1.3,2,1.8,4.5,1.2,6.9c-0.6,2.6-2.4,4.8-4.9,5.9c-1.2,0.5-2.4,0.8-3.6,0.8c-1.5,0-5.4-0.5-7.6-5c-0.8-1.5-2.2-3-3.9-4.7
		c-1-1-2-2.1-3-3.2c-1.5-1.8-2.6-3-3.6-3.5c-1.4-0.7-3.1-1.2-5.2-1.3l-0.1,0c-0.5,0.1-1.9,1.5-2.7,2.3c-0.4,0.4-0.8,0.8-1.2,1.1
		c-0.9,0.8-1.7,1.6-2.5,2.5c-2.1,2.1-4.3,4.2-6.9,6.2l-0.9,0.7c-1.5,1.1-2.9,2.2-3.8,3.2c0.4,1.2,0.4,2.5,0.2,3.8
		c1.7-1.4,3.9-2.2,6.2-2.2c2.7,0,5.1,1,6.8,2.8c0.4,0,0.8,0,1.1,0c2.4,0,4.5,0.5,6.4,1.4c3,1.5,6.5,2.4,10.2,3.4
		c2.4,0.6,4.9,1.3,7.4,2.1l0.4,0.1c0.4,0.1,0.8,0.3,1.2,0.4c1.8-1.7,4-2.4,5.8-2.4c1.4,0,2.7,0.3,3.7,0.8c0.8-0.2,1.6-0.2,2.4-0.2
		c5.4,0,10.1,3.7,11.1,8.8c0.3,0.4,1.8,1.2,2.4,1.5c2.6,1.3,4.8,3.2,6.8,5.8c1.2,1.6,2.5,3.1,3.9,4.7c2,2.3,4,4.7,5.9,7.4
		c0.3,0.5,1.4,1.3,2.3,2c1.1,0.8,2.2,1.7,3.4,2.8c4.1,4,8.1,8,11.4,13.2c2.1,3.3,2.2,6.6,2.3,8.7c0,0.4,0,0.7,0.1,1.1
		c0.2,2.9,0.9,5.8,1.6,8.9c0.3,1.3,0.6,2.6,0.8,3.9c0.8,4.2,1.4,8.5,1.5,12.8c0.2,4.7-2.9,7.9-4.5,9.6c-1.6,1.6-3.7,2.6-5.9,2.6
		c0,0,0,0,0,0c-3.2,0-6.1-1.9-7.3-4.9c-1.6-3.1-1.2-5.7-0.5-7.4c-1.5-2-2-4.1-2.1-5.5c-1.2-1.7-1.6-3.4-1.7-4.6
		c-1.8-2.4-2.6-4.9-3.2-6.8c-0.3-0.8-0.6-2-0.9-2.3c-1.3-1.3-2.4-2.6-3.3-3.8c-0.7-0.9-1.3-1.8-1.8-2.1c-1.5-1.2-2.7-2.5-3.7-3.6
		c-0.8-0.8-1.4-1.6-2-2c-2.2-1.7-3.6-3.7-4.7-5.4c-0.4-0.6-0.8-1.2-1.1-1.5c-3.1-3.8-6.9-7.3-10.2-10.2l-0.2-0.2
		c-2.3-2-3.7-3.2-5.3-3.6c-1.3-0.3-2.6-0.8-3.6-1.6c-1.3-0.3-3-1-4.4-2.5c-0.7-0.1-1.5-0.2-2.2-0.3c-2.1-0.3-4.1-0.5-6.1-0.5
		c-2.9-0.1-5.2-1.3-6.7-2.1c-0.3-0.2-0.8-0.4-1-0.5c-0.6-0.2-1.7-0.3-2.8-0.4c-1.3-0.1-2.7-0.2-4.2-0.6c-0.1,0.1-0.3,0.2-0.4,0.2
		c-0.5,0.3-1.1,0.6-1.6,0.8c-0.6,0.3-2,1-2.3,2.6c-0.5,2.1-1.1,4.1-1.6,6c-0.9,3-1.7,5.8-2,8.5c-0.4,3.3-1.8,6-3,8.1
		c-0.2,0.4-0.5,0.9-0.7,1.3l-0.3,0.6c-0.4,0.7-0.7,1.4-0.9,1.9c-0.8,2.3-2,5.4-4.6,8.1c-0.2,0.3-0.7,1.5-1,2.3
		c-0.2,0.6-0.4,1.2-0.7,1.8c0.2,0.9,0.4,1.7,0.4,2.4c3.9,0.6,7.2,3.6,8.9,6.4c0.3,0.5,0.9,1.3,2.4,2c1.8,0.9,3.3,2.2,4.6,3.9
		c2,2.7,4.6,5,7.7,6.8c3.9,2.3,7.3,5,10.6,7.6c0.8,0.6,1.5,1.2,2.3,1.8c2.7,2.1,4.5,3.4,6.3,3.5c1.8,0,3.2,0.6,4.2,1.1
		c1-0.3,1.9-0.4,2.9-0.4c2.6,0,5.1,1.1,6.9,2.9c0.8,0.8,1.4,1.7,1.9,2.7c1.6,1,3,2.4,4,4.2c2,3.3,2.5,7.3,1.6,10.9
		c-0.3,1.1-0.1,2.3,0.5,4c0.8,2.3,1.3,4.5,1.7,6.4c0.3,1.5,0.6,2.9,1,4.1c1.7,5,2,9.9,2.3,14.3c0.1,1.7,0.2,3.3,0.4,4.8
		c0.4,3.6,0.2,6.9,0,9.9c-0.1,1-0.1,2.1-0.2,3.1c-0.1,1.3-0.1,2.6-0.1,3.8c0,3.5-0.1,7.1-0.8,11c-0.4,2.4-1.4,4.1-2.1,5.3
		c-0.1,0.2-0.2,0.4-0.3,0.6c-1.6,3.1-3.2,6.1-4.8,9c-1.2,2.2-2.4,4.3-3.5,6.5c-1.2,2.2-2.8,3.6-3.8,4.4c-0.2,0.1-0.3,0.3-0.5,0.4
		c-1.2,1.3-2.4,2.6-3.7,4c-2,2.2-4,4.4-6.3,6.6c-2.3,2.1-4.7,4.1-7,6.1c-1,0.8-2,1.6-2.9,2.5c-1.4,1.2-3.1,1.8-4.9,1.8
		c-1.6,0-3.1-0.5-4.5-1.5c-2.3-1.7-3.6-4-3.8-6.6c-0.3-4.1,2.3-6.6,3.1-7.5l0.1-0.1c3.6-3.9,6.6-8.5,9.7-13.5c1-1.5,1.9-3,2.9-4.5
		c1.2-1.8,2.4-3.4,3.7-5c1.4-1.9,2.8-3.6,3.8-5.4c1.8-3.1,2.6-5.8,2.7-8.6c0-1.3,0.2-2.4,0.3-3.5c0.1-1,0.3-2.2,0.2-2.7
		c-0.4-2.1-0.7-4.2-1-6.2c-0.5-3.9-1-7.5-2.4-10.7c-1.8-4.3-3.4-8.6-4.1-13.5c-0.1-0.7-1.1-2.4-1.8-3.5c-1.5-2.6-2.4-5.1-3.1-7.3
		c-0.3-1-0.7-2-1-2.9c-0.7-0.4-1.4-1-2-1.8c-1.7-0.7-3.6-2-5.2-4.3c-0.1-0.2-0.3-0.5-1.2-0.8c-4-1.5-7.7-3.5-10.7-5.3
		c-2.2-1.2-4.2-2.2-6.2-2.9c-0.9-0.3-2.4-0.8-3.8-1.8c-0.3,0-0.6,0-0.9,0c-2.9,0-5.7-1.4-7.5-3.7c-0.3,0-0.7-0.1-1.1-0.2
		c-1.4,0.5-2.6,0.6-3.4,0.8c-1.8,0.3-3.8,1.7-6,3.4c-0.7,0.5-1.4,1-2.1,1.5c-0.6,0.4-1.3,0.9-1.9,1.4c-2.5,1.8-5.4,3.9-8.9,5.4
		c-1.4,0.6-2.8,2-4.3,3.6c-0.6,0.6-1.1,1.1-1.7,1.7c-0.4,0.4-0.7,0.7-1.1,1.1c-1.1,1.2-2.4,2.6-4.3,3.9c-0.3,2.8-1.7,5.2-4,7
		c-0.3,0.2-0.5,1.2-0.5,1.9c-0.2,2.1-0.9,3.9-2.1,5.4c0.7,1.5,0.9,3,0.7,4.5c-0.3,2.2,0.6,4.4,2.2,7.9l0.5,1.2
		c0.6,1.4,1.1,2,1.6,2.4c1.8,1.5,3.3,3.1,4.7,4.5c0.2,0.3,0.5,0.5,0.7,0.8c2.5,0.8,5.3,2.6,6.6,7.1c0.2,0.1,0.3,0.3,0.4,0.5
		c0.5,0.6,0.9,1.2,1.2,1.9c2.8,1.7,4.3,4.9,3.9,8.6c0.2,0.5,0.9,1.4,1.4,2c0.3,0.4,0.6,0.8,0.8,1.1c2.7,3.8,4.4,8.2,4.9,12.9
		c0.4,3.8,1.1,5,2.2,5.9c1.7,1.3,3.1,2.8,4.3,4.1c0.3,0.3,0.6,0.6,0.9,1c1.5,1.6,4.7,6,1,12.1c-0.1,0.1-0.1,0.2-0.2,0.3
		c1.3,2.3,1.9,5.6,0,10.1c-0.1,0.2-0.2,0.4-0.2,0.5c-1.1,3.8-3.5,7-6.9,9.3c-0.7,0.5-1.3,1.1-1.8,1.9c-2.3,3.5-4.9,7.3-8.1,10.8
		c-0.5,0.5-1,1.1-1.5,1.6c-1.3,1.4-2.6,2.8-3.4,4.1c-1.1,1.8-2.5,2.8-3.3,3.3l-0.1,0.1c-0.6,0.6-1.2,1.2-1.8,1.8
		c-1.5,1.5-3,3.1-4.8,4.6c-2.2,1.9-4.7,2.9-6.8,3.7c-0.8,0.3-1.6,0.9-2.6,1.7c-0.1,1.5-0.4,2.9-0.9,4.4c-1.7,4.6-5.4,6.3-8.3,6.3
		c-0.7,0-1.5-0.1-2.2-0.3c-0.7-0.2-1.4-0.4-2-0.7c-0.2,0-0.5,0-0.7,0c-0.6,0-1,0-1.3-0.1l0,0c-2,0-4.4,0.4-6.6,0.7
		c-1.1,0.2-2.2,0.4-3.4,0.6l-0.7,0.1c-0.2,0.1-0.3,0.1-0.5,0.2c-1.1,0.5-3,1.3-5.4,1.4c-1.4,0.1-3.1,0.1-4.8,0.1
		c-3.5,0-6.5-0.2-9.3-0.8c-6.6-1.2-7.7-6.2-7.3-9c0.1-0.9,0.4-1.8,0.8-2.7c-1.7,0.7-3.3,1.3-4.9,1.9c-2,0.7-4,1.6-6.2,2.6
		c-1,0.5-2,0.9-3,1.4c-2.2,1-4.4,1.4-6.2,1.7c-1.7,0.3-3.2,0.6-4.2,1.1c-2.2,3.5-5,5.3-8.4,5.3c-0.6,0-1.1-0.1-1.7-0.2
		c-2.6,1.7-5.4,2.5-7.6,3.2l-1,0.3c-2.1,0.7-4.2,1.2-6.2,1.6c-1.2,0.3-2.4,0.6-3.6,0.9c-2.1,0.6-4.3,1.5-6.6,2.4
		c-1.4,0.6-2.9,1.2-4.5,1.7c-2.6,0.9-5,1.2-7.2,1.5c-0.5,0.1-1.1,0.1-1.6,0.2l-1.4,0.2c-4.6,0.7-8.9,1.3-12.5,2.8
		c-0.9,0.3-1.7,0.7-2.6,1c-1.1,0.4-2.1,0.8-3,1.2c2.7,0.9,4.7,3.1,5.5,5.9c0.9,3.6-0.4,8-5.4,10c-5.2,2.5-10.8,4.2-17.8,5.3
		c0,0-0.3,0.2-0.3,0.2C122.5,388.2,119.5,389.6,115.9,389.6z M109.8,361.5c1.3,1.1,2.9,2.3,4.4,3.1c-1.1-0.7-2-1.4-2.7-2
		c-0.6-0.5-1.1-0.9-1.5-1.1c-0.2-0.1-0.4-0.2-0.6-0.4C109.5,361.3,109.7,361.4,109.8,361.5z M123.9,342.8c0.4,0,0.8,0.1,1.2,0.1
		c0.6,0,1.2,0.1,1.7,0.1c1.2,0,2.3,0.3,3.2,0.6c0.9-0.3,1.7-0.6,2.4-0.7c0.2-0.1,0.4-0.1,0.6-0.2c1.4-0.4,2.6-0.5,3.5-0.6
		c0.1,0,0.1,0,0.2,0c1.2-0.8,2.7-1.3,4.2-1.3c0.7,0,1.5,0.1,2.2,0.3c0.3-0.1,0.8-0.3,1.2-0.5c1.3-0.6,3.1-1.4,5.2-1.8
		c0.3-0.2,0.9-0.6,1.3-0.9c1-0.7,2-1.5,3.4-2.1c0.1-0.1,0.3-0.2,0.4-0.2c-3.1-0.8-6-2-8.7-3.2c-0.3-0.1-0.6-0.3-0.9-0.5
		c-0.3-0.1-0.6-0.1-0.9-0.2c-0.7,4.8-4.2,7.1-7.3,7.6c-0.5,0.1-1,0.1-1.5,0.1c-1.5,0-6.5-0.5-8.4-6.6c-0.6-2-0.8-3.7-0.9-4.9
		c-0.1-2-0.1-3.9,0-5.7c0.1-2.1,0.1-4.2-0.2-5.8c0-0.1,0-0.2-0.1-0.2c-5.5-5.3-8.5-12.3-9.2-21.5c0-0.4-0.1-0.7-0.2-1.1
		c-0.3-0.8-0.5-1.5-0.6-2.2c-0.9-1.4-1.4-3-1.3-4.7c-0.1-0.2-0.1-0.4-0.2-0.6c-1.2-3.4-0.4-6.6,2.2-9.6c-0.2-4.1,0-8.5,0.7-13.4
		c0.1-0.6,0.2-1.2,0.3-1.8c0.4-3.1,0.9-6.2,1.9-9.5c0,0,0.1-0.3,0.1-0.3c-0.5-2.4-0.1-4.9,1.2-7.3c0,0-0.1,0.1-0.1,0.1
		c-1,2.7-3,4.7-5.5,5.8c-0.5,1-1.4,2.1-2.6,3c-1.4,3.2-2.6,6.5-3.9,10c-0.6,1.5-1.1,3-1.7,4.5c-0.8,2.1-1.5,4.3-2.2,6.6
		c-1,3-2,6.1-3.3,9.3c-0.3,0.8-0.7,1.6-1.1,2.5c-1,2.3-1.9,4.4-2.3,6.3l0,0.1c-0.5,2.4-1,4.7-0.9,6.7c0,2.8-0.6,5.3-1.1,7.3
		c-0.3,1.1-0.5,2.1-0.6,2.9c-0.2,2.3-0.1,3.1,0.2,3.6c2.4,4.1,1.7,7.3,0.7,9.3c-0.1,0.1-0.1,0.2-0.2,0.4c1.6,2.5,2.1,5.8,1.2,9.3
		c0.6-0.1,1.2-0.2,1.8-0.2c1.6,0,5.5,0.5,7.7,5c3,0.3,5.4,1.4,7.1,2.1c0.5,0.2,1,0.5,1.4,0.7c1.5,0.7,2.8,1.4,3.9,1.6
		c1.7,0.3,3.1,0.9,4.1,1.4C123.3,342.5,123.7,342.7,123.9,342.8z M272.8,313.3c-0.3,0.1-0.5,0.2-0.8,0.3c-1.6,0.5-3.3,1.2-5.5,2.2
		c-1.6,0.7-3.2,1.8-5,3l-1,0.7c-1.8,1.2-3.6,2.4-5.3,3.6c-2.8,1.9-5.7,3.9-8.7,5.8c0.1,0,0.3,0,0.4,0c0.3-0.1,0.9-0.4,1.4-0.6
		c1.1-0.5,2.6-1.2,4.5-1.6c1.4-1.5,3.4-2.3,5.5-2.3c0.1,0,0.2,0,0.3,0c0.2-0.1,0.3-0.2,0.5-0.3c1.2-0.8,2.4-1.5,3.7-2.2
		c0.5-0.3,1.1-0.6,1.6-0.9c2.4-1.3,4.4-2.5,5.5-3.9C270.7,315.7,271.7,314.5,272.8,313.3z M145.1,288.3c0,0.8,0,1.9-0.4,3.1
		c-0.4,1.1,0.3,2.8,1.4,5.5l0.1,0.2c1.6,3.9,4.3,7.6,7.2,11.4c0.5,0.7,1.1,1.4,1.6,2.2c0.2,0.3,1.1,0.8,1.8,1.2
		c1.5,0.9,3.4,2.2,5.2,4.2c1,1.2,3.2,1.8,5.8,2.5l0.3,0.1c0.8,0.2,1.9,0.6,3.1,1.2c1.7,0.9,3,2.2,3.7,3.8c2.7-0.8,5.3-1.1,7.6-1.5
		c1.1-0.2,2.2-0.3,3.2-0.5c0.1,0,0.1-0.1,0.2-0.1c0.9-0.4,2.4-1.1,4.4-1.2c1.6-1.1,3.5-1.7,5.6-1.7c0.6,0,1.2,0,1.6,0.1
		c0.7,0.1,1.4,0.1,2,0.1c2.2,0,4.1-0.4,5.8-1.2c1.6-0.7,3.1-0.9,4.1-1.1c0.2,0,0.4,0,0.5-0.1c2.2-0.5,4.4-2.2,6.9-4.1
		c0.9-0.7,1.9-1.4,2.9-2.2c2.4-1.7,4.7-3.5,7.1-5.4c1.3-1,2.6-2,3.9-3c1.3-1,2.6-2.5,3.5-4.2c1.5-2.6,3.2-4.5,4.7-6.1
		c0.2-0.3,0.5-0.5,0.7-0.8c0.5-0.6,1.1-1.7,1.6-2.9c0.4-0.7,0.7-1.6,1.2-2.4c-0.3-2.8,0.7-5.5,2.8-7.7c0-0.6,0-1.2-0.1-1.7
		c-0.1-3.7-0.2-7.6,0.2-11.6c0.2-1.5,0.4-3,0.6-4.4c0.4-2.5,0.7-4.9,0.7-7.1c0-2.8-0.4-5.7-1-8.5c0,0-0.1,0-0.1,0
		c-3,0-6.6-1.6-8-6.1c-1.2-2.6-1.4-5.1-1.4-7.4c0-0.4,0-0.8,0-1.2c0-0.8,0-1.9-0.1-2.2c-0.2-0.3-0.3-0.7-0.4-1
		c-0.3-0.1-0.6-0.1-0.8-0.2c-0.9-0.3-1.7-0.7-2.5-1.2c-0.1,0.1-0.2,0.2-0.4,0.4c0,0,0,0.1,0.1,0.1c3.6,4.3,3.9,9,4.2,12.7l0,0.6
		c0.5,6.6-3.2,10.6-5.2,12.7c-0.3,0.4-0.7,0.7-1,1.1c-0.5,0.6-1,1.2-1.5,1.6c-0.2,0.2-0.4,0.4-0.6,0.6c-1,4-3.6,7.2-7.1,9
		c-0.1,0.7-0.2,1.3-0.3,1.8c0,0.1,0,0.2-0.1,0.3c0.7,2.6-0.1,5.1-1.2,6.8c-1.1,1.7-2.8,2.9-4.7,3.4c0,0,0,0.1-0.1,0.2
		c0,2.6-0.1,5.4-0.5,8.3c0,0.2,0.1,0.8,0.2,1.2c0.2,1.3,0.5,3,0.3,5c-0.8,8.7-7.8,9.1-8.6,9.1c0,0-0.1,0-0.1,0
		c-2.2,0-4.3-0.9-5.9-2.5c-2.4-2.5-2.7-5.7-2.7-7.4c0-1.3,0-2.6,0-3.9c0-0.2,0-0.4,0-0.6c-0.6,0.2-1.2,0.3-1.9,0.3
		c-0.1,0-0.3,0-0.4,0c-2.3,0-4.5-1-6-2.7c-1.1-1.2-1.8-2.6-2-4.2c-0.8-0.6-1.8-1.4-2.7-2.5c-0.3-0.4-1.1-1.3-1.7-1.8
		c-2.4-1.9-3.2-4.8-3-7.3c-2-1-5.2-3.1-6.4-7.6c-3-1-4.6-2.9-5.4-4.4c-1,1-2.4,1.9-4.4,2.4c-0.8,0.2-1.5,0.3-2.3,0.3
		c-2.4,0-5.4-1.1-7.2-4.2c-1.9,4.8-5.2,6.1-7.6,6.3c-0.3,0-0.6,0-0.9,0c0,0-0.1,0-0.1,0c-0.6,0.7-1.3,1.2-2.1,1.7
		c-0.7,3.8-1.3,7.3-1.1,10.6c0.1,1.4,0.1,2.8,0.1,4.1c0,1,0,2,0.1,2.8c0.7,1.2,1.2,2.4,1.4,3.5C144.9,284.8,145.2,286.6,145.1,288.3
		z M280,305.7c0.1-0.1,0.1-0.2,0.2-0.3c0,0-0.1,0.1-0.1,0.1C280,305.6,280,305.6,280,305.7z M281.6,289.7c2.4,2.9,3.3,6.5,2.4,9.9
		c-0.1,0.5-0.3,1.1-0.5,1.6c1-1,2-1.9,3.3-2.7c0.5-0.3,0.8-0.7,0.9-1c0.9-2.1,2.3-4,4.1-5.9c-1-2.3-1.1-4.9-0.1-7.2
		c0.5-1.3,1.3-2.4,2.4-3.2c0.1-1,0.2-1.9,0.2-2.7c0.1-1.3,0.3-2.5,0.2-3.5c-0.3-4.4-0.7-9.2-1.2-14.5c0,0-0.1-0.1-0.1-0.1
		c-3-0.7-5.3-2.5-6.6-5.1c-0.2-0.5-0.4-1-0.6-1.5c-0.3-0.2-0.5-0.4-0.8-0.7c-0.2-0.2-0.5-0.5-0.7-0.7c-0.4-0.4-0.9-0.9-1.1-1
		c-2.4-1.4-3.9-3.6-4.4-6.2c-0.2-1.2-0.2-2.4,0.1-3.6c-2.6-1.1-4.5-3.4-5.3-6.5c0,0,0,0,0-0.1c-0.5,0.3-1,0.6-1.6,0.8
		c0,0.2,0.1,0.4,0.1,0.6c0.6,3.2,1.2,6.6,1.4,10.1c0.3,4.3,1.2,8.7,2.1,13.3l0.2,1.1c0.2,1.1,0.4,2,0.5,3c0.2,1.6,0.5,3,0.9,4.2
		c1.2,3.3,1.8,7,1.9,11.7c0.1,2.5,0.8,5.3,1.7,8.2C281.2,288.4,281.4,289.1,281.6,289.7z M102.9,181.9c0.3,0.6,0.6,1.2,0.9,2
		c0.6,1.5,1.5,3.1,2.6,4.8c0.9,1.6,1.9,3.2,2.8,5.1c0.9,1.9,2.5,3.7,4.3,5.7c1,1.1,2,2.3,3.1,3.5c0.3,0.4,0.9,1,1.4,1.5
		c0.8,0.8,1.8,1.8,2.7,3c1.3-1.1,2.5-2.1,3.7-3.1c0.9-0.7,1.8-1.4,2.7-2.2c1.3-1.1,2.6-2,3.8-2.9c1.2-0.9,2.4-1.8,3.4-2.6
		c5.3-4.7,9.6-10.5,12.8-15c0.2-0.3,0.5-0.6,0.7-1c0.9-1.3,1.9-2.7,1.9-3.3c0-0.2-0.1-0.7-0.2-1c-0.1-0.5-0.2-1.1-0.3-1.6
		c-0.5-3.6,0.8-6.3,1.5-7.7c0,0,0,0,0,0c-0.2-2-0.4-6,2.9-9.8c0-0.2,0.1-0.5,0.1-0.8c-0.3-0.2-0.8-0.4-1.6-0.7
		c-0.4-0.1-0.7-0.2-1.1-0.3c-1.4-0.3-3.3-0.8-5.3-2c-6.1-3.7-11.7-5.5-17.3-5.5c-0.9,0-1.9,0.1-2.9,0.2c-2.2,1.8-4.8,3.1-7.5,3.7
		c-0.9,3.8-2.7,7-5.3,9.5c-2.1,2-3.2,5.1-4.6,8.6c-0.3,0.9-0.6,1.7-1,2.6c-0.1,0.2-0.1,0.4-0.2,0.6c-0.5,1.5-1.3,4.5-4,6.5
		c0,0.5-0.1,1.1-0.2,1.7C102.8,181.6,102.9,181.8,102.9,181.9z M155.1,70.4c1.1,0.9,1.9,2.1,2.4,3.4c0.7,1.6,1.7,3,3,4.3
		c0.8-1.5,1.5-3.1,2.3-4.6c-0.9-1.5-1.5-2.9-1.9-4.1l-0.1-0.2c-0.3-0.9-1-2-1.6-3.1c-1.7-2.9-3.8-6.7-3.8-11.7
		c-0.2-0.3-0.5-0.6-0.8-0.9c-1.3-1.6-3.4-4-4.3-7.6c-1.1-0.2-2.3-0.3-3.5-0.4c-0.2,0-0.4,0-0.6-0.1c-0.9,1.1-1.8,2-2.9,2.8
		c1.4,3.1,2.4,6.1,3.5,9.1l0.1,0.2c0.1,0.3,0.4,0.8,0.7,1.3c0.8,1.4,1.9,3.3,2.3,5.9C152.7,66.1,154.3,68.2,155.1,70.4z"/>
	<path d="M352.3,17.8c0.6,0,1.3,0.2,2,0.5c0.2,0.1,0.4,0.1,0.6,0.1c0.1,0,0.2,0,0.3,0c0.7-0.3,1.4-0.4,2.1-0.4
		c2.4,0,4.5,1.6,6.5,2.8c3.5,2.1,7.1,4.7,8.9,8.4c1.9,3.9,4,7.4,6.9,10.6c0.9,0.9,0.9,2.4,1.7,3.5c0.4,0.6,0.3,1.5-0.6,1.9
		c-0.2,0.1-0.3,0.1-0.4,0.1c-0.5,0-0.7-0.6-1-1.1c-1.9-3.6-5.2-6.2-7.8-9.2c-1.8-2.1-3.5-4.1-5.9-5.3c-2.5-1.3-5.2-1.9-8-2.1
		c-0.2,0-0.5,0-0.7,0c-4,0-6.4,3-9.1,5.5c-2.9,2.7-5.6,5.7-8.8,8.2c-3.1,2.3-6.4,4.6-8.1,8.3c-0.5,1-0.8,1.7,0.2,2.8
		c1.1,1.1,0.5,2.1-1,2.5c-0.1,0-0.1,0-0.2,0c-0.1,0-0.3,0-0.4,0c-0.2,0-0.3,0-0.4,0.2c-0.5,3.5-4.1,4.3-5.7,6.9
		c-0.3,0.4-0.5,0.7-0.1,1.2c4.6,5.4,5.7,12.1,6.6,18.8c0.1,0.9,0.4,1.9,0.5,3.2c1.6-1.8,1.3-4.1,2.1-5.9c0.7-1.4,1.3-3,0.7-4.9
		c-0.3-1,0.6-2.7,1.9-3.6c1.1-0.8,1.4-1.8,1.2-3.2c-0.3-2.3,0.4-3.5,1.9-3.5c0.6,0,1.3,0.2,2.2,0.6c0.4,0.2,0.6,0.3,0.9,0.3
		c0.3,0,0.4-0.3,0.5-1c0.1-1.1,0.9-2.2,1.7-3.1c0.4-0.5,1.1-0.7,1.8-0.7c0.9,0,1.7,0.4,1.9,1.2c0.4,1.6,1.4,1.6,2.6,1.6
		c0.1,0,0.2,0,0.3,0c1,0,2.1-0.1,3.1-0.1c1,0,2.1,0.1,3,0.6c5.9,2.9,12.4,3.9,18.5,5.9c1.8,0.6,3.5,1.2,5.2,1.2
		c0.7,0,1.4-0.1,2.2-0.3c0.4-0.1,1.1,0,1.2-0.5c0.3-1.3,0.7-1.8,1.3-1.8c0.6,0,1.3,0.5,2,1c0.4,0.3,0.7,0.4,1,0.4
		c0.5,0,1-0.2,1.5-0.5c0.5-0.2,1.1-0.3,1.7-0.3c1.7,0,3.4,1,3.7,2.7c0.7,3.7,3.5,5.3,6.4,6.8c1.8,0.9,3.1,2.1,4.2,3.7
		c3.1,4,6.6,7.6,9.5,11.8c1.6,2.4,4.5,3.8,6.7,5.9c3.7,3.6,7.4,7.3,10.2,11.8c1.3,2.1,1,4.4,1.2,6.5c0.4,4.7,1.6,9.1,2.5,13.6
		c0.8,3.8,1.2,7.7,1.4,11.6c0.1,1.5-1.3,2.9-2.4,4.1c-0.2,0.2-0.3,0.3-0.5,0.3c-0.2,0-0.3-0.1-0.4-0.3c-0.2-0.6-0.8-1.1-0.4-1.9
		c1.5-2.6,1.1-5-1-7c-0.8-0.8-0.7-1.7-0.7-2.6c0-1.1-0.2-1.8-1.1-2.5c-1.3-1-0.2-3-1.5-4.3c-3-3-2.4-7.9-5.5-10.8
		c-2.1-2-3.5-4.7-5.6-6.4c-2.2-1.7-3.6-4.1-5.9-5.8c-1.9-1.4-2.9-3.8-4.5-5.7c-3.3-4.1-7.1-7.6-11.1-11.1c-2.7-2.4-5.3-4.7-8.9-5.4
		c-1.1-0.2-1.7-1.2-1.2-3c-0.8,1-1.5,1.5-2.1,1.5c-0.6,0-1.1-0.5-1.5-1.6c-0.4-1-1.4-0.9-2.3-1c-3.5-0.3-6.9-0.9-10.5-1
		c-1.8-0.1-3.5-1.5-5.2-2.1c-2.8-1.1-5.9-0.7-8.7-1.4c-0.4-0.1-0.8-0.2-1.2-0.2c-1.9,0-3.4,1.2-4.9,1.8c-3.2,1.4-5.7,4.2-6.6,7.8
		c-1.2,5.1-3.2,10-3.8,15.3c-0.3,2.3-1.8,4.6-2.9,6.8c-0.6,1.1-1.2,2.2-1.6,3.3c-0.7,1.9-1.4,3.8-2.9,5.4c-2.5,2.5-2.6,6.2-4.5,8.9
		c-0.5,0.7,0,0.9,0.3,1.3c1.1,1.2,0.6,2.7,0.8,4.1c0.3,2.6-1.7,2.7-2.9,3.8c-1.2,1.1-2.4,2.4-3.3,3.7c-0.8,1.2-1.1,2.7-3,2.7
		c0,0-0.1,0-0.1,0c0,0,0,0,0,0c-0.5,0-0.6,0.7-0.8,1.2c-1.3,3.5-2.9,4.6-6.7,4.6c-0.1,0-0.1,0-0.2,0c-0.4,0-0.9,0-1.3,0
		c-0.8,0-1.5,0.1-2.3,0.4c-0.2,0.1-0.5,0.1-0.7,0.1c-0.7,0-1.3-0.4-1.7-1.4c-0.5-1.5-3-2.7-4.8-2.7c-0.3,0-0.7,0-0.9,0.2
		c-0.4,0.1-1,0.5-1,0.7c0.3,1.7-0.9,3.2-0.4,4.9c1.1,4.1-0.4,6.7-4.5,7.5c-1.7,0.3-2.5,1.3-1.5,3c0.9,1.6,0.3,2.6-1.1,3.4
		c-1,0.6-3.2,3.1-3.8,4.4c0.1,0.1,0.3,0.2,0.4,0.2c0.3,0,0.6-0.3,0.8-0.5c3.5-2.9,7.8-4.6,11.3-7.7c2.6-2.3,5.5-4.2,8.8-5.7
		c2.4-1.1,4.5-3.2,6.3-5.4c1.3-1.6,3-2.8,4.6-4.1c2.5-2,4.1-4.7,5.5-7.5c0.6-1.1,1.4-1.6,2.4-1.7c0.2,0,0.3,0,0.5,0
		c2.2,0,4.4,0.7,6.6,0.9c1.2,0.1,2.8,1.6,3.7,3c1.3,2.1,3.2,3.6,5.4,4.7c0.8,0.4,1.4,0.9,2,1.7c2.7,3.6,6,6.5,9.9,8.8
		c4.3,2.6,8.2,5.8,12.1,8.9c3.2,2.5,6.4,5,10.8,5.1c0.9,0,1.6,0.8,2.3,1.1c0.6,0.2,1.1,0.3,1.7,0.3c0.7,0,1.5-0.2,2.2-0.5
		c0.4-0.2,0.7-0.3,1.1-0.3c1.2,0,2.2,0.8,2.1,2.1c0,1.4,0.4,1.6,1.7,1.9c2.3,0.6,4.1,4.2,3.3,7.3c-0.8,3-0.3,5.9,0.7,8.5
		c1.2,3.4,1.5,7,2.6,10.4c1.9,5.7,1.7,11.7,2.4,17.6c0.5,4-0.1,7.9-0.3,11.9c-0.2,4.6,0,9.3-0.7,13.9c-0.2,1.5-1.1,2.5-1.7,3.8
		c-2.6,5.2-5.6,10.2-8.3,15.4c-0.7,1.4-2,2.1-3,3.1c-3.3,3.4-6.3,7.1-9.8,10.3c-3.1,2.9-6.5,5.6-9.7,8.3c-1.7-1.2-0.2-2.4,0.4-3
		c5.3-5.7,9.1-12.5,13.4-18.9c2.4-3.7,5.5-6.9,7.7-10.8c2.2-3.8,3.6-7.7,3.7-12.1c0.1-2.6,0.9-5.2,0.4-7.8
		c-1.2-6.1-1.3-12.4-3.7-18.3c-1.5-3.7-3-7.5-3.6-11.7c-0.3-2.2-1.6-4.4-2.8-6.4c-2-3.4-2.5-7.3-4.3-10.7c-0.3-0.6-0.6-1.5-1.1-1.5
		c-1.9-0.2-1.7-1.6-1.7-3c-0.6,0.3-1.1,0.5-1.6,0.5c-1.2,0-2.2-0.9-2.9-1.9c-1.2-1.8-2.8-2.8-4.8-3.5c-3.4-1.2-6.4-2.9-9.6-4.7
		c-2.3-1.4-4.9-2.6-7.5-3.5c-0.8-0.3-1.6-0.5-2.1-1.1c-0.9-0.9-1.8-1.5-2.9-1.5c-0.4,0-0.9,0.1-1.4,0.3c-0.2,0.1-0.5,0.1-0.7,0.1
		c-0.8,0-1.5-0.5-1.9-1.3c-0.8-1.4-1.7-2.6-3.3-2.6c-0.3,0-0.6,0-1,0.1c-0.2,0-0.4,0.1-0.5,0.1c-1.2,0-1.2-1.3-1.2-2.8
		c-1.1,2.8-3.1,3.1-5.2,3.4c-4.4,0.7-7.7,3.7-11.3,6.1c-3.1,2.1-6,4.5-9.4,6c-3.5,1.5-5.7,4.3-8.3,6.8c-1.4,1.4-2.6,3.1-4.3,4.1
		c-2,1.3-3.1,2.9-3.2,5.2c-0.1,1-0.5,1.6-1.1,2.1c-2.4,1.8-3.2,4.4-3.5,7.2c-0.1,0.7-0.2,1.1-0.7,1.6c-2.6,2.6-2.8,4.2-1,7.2
		c0.1,0.2,0.3,0.6,0.3,0.8c-0.6,4.8,1.4,8.9,3.2,13.1c0.9,2,2,3.8,3.7,5.3c2.1,1.7,3.8,3.7,5.7,5.6c0.4,0.4,0.7,0.8,1.3,0.8
		c2.7,0.1,2.6,2.3,2.8,4.1c0.1,0.7,0.1,1.3,0.9,1.3c0.1,0,0.2,0,0.3,0c0,0,0.1,0,0.1,0c0.3,0,0.5,0.1,0.5,0.4
		c-0.2,1.9,1.1,2.4,2.6,2.9c0.6,0.2,0.7,0.9,0.6,1.6c-0.4,3.4,1.9,5.9,3.6,8.3c2.1,2.9,3.2,6.1,3.6,9.4c0.5,4.3,1.4,8.2,5.1,11
		c1.6,1.2,2.9,2.8,4.4,4.3c0.9,0.9,0.9,1.7,0.1,3c-1.1,1.8-2.8,3.7-1.6,6.2c0.1,0.1,0,0.4,0,0.4c3,1.8,1,4,0.4,6c-0.7,2.3-2,4-4,5.3
		c-1.6,1.1-2.8,2.4-3.9,3.9c-2.3,3.4-4.6,6.8-7.4,9.9c-2,2.2-4.2,4.3-5.8,6.8c-0.4,0.7-1.4,1.1-2,1.7c-2.1,2.1-4.1,4.3-6.3,6.2
		c-1.3,1.1-3,1.8-4.6,2.4c-2.4,0.9-4.3,2.5-6.3,4c-1,0.7-1.4,1.7-1.3,2.9c0.2,1.2,0,2.4-0.4,3.5c-0.2,0.7-0.7,1.4-1.3,1.4
		c-0.1,0-0.2,0-0.2,0c-0.6-0.2-1.7-0.4-1.7-1.5c0-0.4,0.2-1-0.4-1.1c-0.1,0-0.2,0-0.3,0c-0.5,0-0.9,0.3-1,0.7c-0.3,0.8-0.7,1-1.2,1
		c-0.4,0-0.8-0.1-1.2-0.1c0,0,0,0,0,0c-2.6,0-5.3,0.4-7.9,0.8c-1.5,0.2-3,0.5-4.6,0.8c-1.5,0.3-2.8,1.3-4.6,1.4
		c-1.5,0.1-3,0.1-4.5,0.1c-2.6,0-5.3-0.1-7.9-0.6c-0.6-0.1-1.3-0.2-1.3-0.6c0.1-0.5,0.3-1.1,1.2-1.3c1.5-0.4,3-0.9,4.5-1
		c2.7-0.1,4.8-2,7.4-2.5c1.1-0.2,2.7,0.1,3.2-1.7c0.1-0.3,0.2-0.4,0.3-0.4c0.3,0,0.6,0.6,1.2,0.6c0.1,0,0.3,0,0.4-0.1
		c2.2-1.3,4.4-2.7,6.7-4c3.4-2,7-3.6,9.4-6.9c1.6-2.2,3.4-4.3,5.7-5.6c1.7-1,2.6-2.4,3.5-3.9c1.5-2.7,3.2-5.3,6-7.2
		c1.3-0.9,2.7-2.2,3.5-4c0.8-1.7,2-3.2,3.5-4.6c2.6-2.5,2.7-4.2,0.8-7.3c-0.7-1.1,0-2.1,1.1-2.3c1.5-0.3,1.8-1.4,1.7-2.5
		c-0.2-3.2,0.7-6.3,0.5-9.5c-0.3-5.3-0.8-10.6-1.4-15.9c-0.2-2.2-3.4-5.2-5.5-5.5c-1.7-0.3-2.4-1.6-1.5-3.1c0.3-0.5,0.4-1.1,0.2-1.5
		c-0.1-0.3-0.2-0.4-0.4-0.4c-0.3,0-0.6,0.4-0.8,0.5c-0.1,0-0.2,0-0.2,0c-0.8,0-1.4-0.5-1.9-1c-1-0.9-1.9-1.9-3.1-2.7
		c-1.4-0.9-0.8-2.2-0.1-3.1c0.7-0.8,0.7-1.2,0-2c-0.7-0.7-1-1.8-1.6-2.6c-0.8-0.9-0.9-2.6-2.5-2.6c-0.2,0-0.4,0-0.7,0.1
		c-0.1,0-0.1,0-0.2,0c-0.6,0-1-0.8-1.1-1.3c-1-4.2-3.9-7.4-6.3-10.7c-0.2-0.2-0.4-0.8-0.8-0.8c-0.1,0-0.3,0.1-0.5,0.3
		c-0.5,0.6-1,0.9-1.4,0.9c-0.7,0-1.2-0.8-1.6-2.3c0,2.6,0,4.3,0,6.1c0,1.2-0.4,2.2-1.6,2.2c0,0,0,0-0.1,0c-1,0-1.2-1.1-1.1-2.1
		c0.2-2.6-0.3-5.1-0.6-7.6c-0.3-2.5-1.4-5-3.3-7.3c-1.1,4.4-0.8,8.6-0.5,12.6c0.3,3.7,0.6,7.4,1.2,11.1c0.6,3.8,1.4,7.6,1.7,11.4
		c0.4,5.2,1.4,10.2,2.5,15.3c0.5,2.7,0.7,5.5,1.7,8.2c1,2.9,1.4,6.2,1.4,9.4c0.1,4.7,1.8,9.1,2.9,13.5c0.1,0.4,0.6,0.7,0.9,1
		c2,2.1,1.5,4.9-1.4,5.8c-0.9,0.3-0.8,0.5-0.9,1.1c-0.4,2.3-1,4.3-3.6,5.2c-2.1,0.7-4.2,1.6-6.3,2.5c-2.5,1.1-4.8,2.7-7.1,4.3
		c-5.2,3.5-10.3,7.2-15.6,10.4c-4.1,2.4-8.4,4.6-13,6.1c-3.4,1.1-6.6,2.8-9.9,4.2c-1.4,0.6-2.9,0.9-4.4,1.2
		c-2.9,0.5-5.9,1.2-8.3,3.1c-0.3,0.3-0.4,0.5-0.6,0.8c-0.9,1.6-1.7,2.5-2.5,2.5c-0.8,0-1.6-0.7-2.6-2.2c-2.2,3.8-6.1,4.7-9.8,5.9
		c-3.2,1-6.4,1.6-9.5,2.5c-3.9,1.1-7.7,2.9-11.7,4.3c-2.4,0.9-4.9,1-7.4,1.3c-5.3,0.8-10.7,1.4-15.7,3.4c-2.7,1.1-5.5,2-8,3.3
		c-2.1,1.1-4.8,0.5-6.9,1.9c-0.6,0.4-1.2,0.6-1.8,0.6c-0.8,0-1.5-0.3-2.4-1c-1.7-1.2-4-1.7-6-2.4c-2.5-0.8-4.1-3-6.4-4.2
		c-2.6-1.5-5.3-2.9-7.8-4.4c-3.3-1.9-6.4-4-7.5-8c-0.1-0.4-0.5-0.8-0.4-1.2c0.2-0.7-0.6-1.8,0.5-2.1c0.1,0,0.3-0.1,0.4-0.1
		c0.8,0,1,1,1.2,1.5c1,2.4,3,3.4,5.3,3.4c1.9,0,3.4,0.8,5,1.5c2.3,1.1,4.5,2.3,7.2,2.8c1.9,0.3,3.5,1.7,5.6,1.8
		c1.2,0.1,2.4,0.2,3.5,0.2c1.2,0,1.9,1.6,3,1.6c0.3,0,0.7-0.1,1.2-0.5c1.2-1,2.7-1.2,4.2-1.7c1.9-0.6,4.2,0,5.9-1.6
		c0.7,0.3,1.4,0.4,2.1,0.4c2.8,0,5.2-2.1,8-2.5c2.3-0.3,4.3-2.6,6.6-3.7c3.5-1.8,6.1-4.9,9.2-7.4c2.8-2.2,6.3-3.1,9.6-4.1
		c3.5-1.1,7.2-1.3,10.8-2c1.2-0.2,2.3-1.1,3.6-1.1c0.5,0,1.1,0.2,1.7,0.6c0.1,0.1,0.1,0.1,0.2,0.1c0.3,0,0.7-0.4,0.8-0.8
		c0.4-1.3,1.3-1.6,2.3-1.6c0.3,0,0.7,0,1,0.1c0.9,0.1,1.7,0.1,2.6,0.1c3.1,0,6-0.5,8.9-1.8c1-0.4,2.2-0.4,3.2-0.7
		c4.9-1.2,8.5-4.6,12.4-7.4c3.9-2.7,7.5-5.8,11.2-8.6c2.2-1.7,4.1-4,5.5-6.5c1.2-2.2,2.9-3.8,4.5-5.5c2.5-2.7,3.1-6.5,5.5-9.2
		c0.3-0.4-0.1-0.5-0.3-0.7c-0.8-1.2-0.6-2.3,0.5-3.1c1.5-1.2,1.9-2.7,1.8-4.6c-0.1-4.3-0.4-8.7,0.1-13c0.4-4.1,1.3-8.1,1.3-12.2
		c0.1-4.2-0.7-8.2-1.5-12.1c-0.9-4.2-2.1-8.2-3-12.4c-0.2-0.8-0.4-1.2-0.9-1.2c-0.1,0-0.3,0-0.5,0.1c-0.9,0.2-1,0.8-0.8,1.7
		c0.5,2,0.5,4.1-0.1,6.2c-0.3,0.9-0.7,1.6-1.6,1.6c0,0-0.1,0-0.1,0c-0.9,0-0.8-0.9-1.1-1.5c-0.8-1.5-0.8-3-0.8-4.5
		c0-2.2,0.2-4.4-0.8-6.6c-0.5-1,0.2-2.4,0.5-3.5c0.6-2.6,0.2-5.1,0.4-7.6c0.1-1.6-1-2.9-2-3.8c-0.4-0.3-0.7-0.5-0.9-0.5
		c-0.7,0-1,1.1-1.1,1.8c-0.3,1.2-0.1,2.6-0.1,3.9c0,0.9-0.1,1.8-0.5,2.6c-0.4,0.8-0.6,2.1-1.6,2.1c-0.1,0-0.3,0-0.5-0.1
		c-1.1-0.3-1.3-1.7-1.1-2.8c0.2-1.2-0.2-2.4,0-3.6c0.1-0.5-0.2-1-0.6-1.1c0,0,0,0-0.1,0c-0.4,0-0.5,0.5-0.8,0.9
		c-0.7,1-0.3,2-0.4,3.1c0,0.7-0.3,1.3-1,1.3c-0.4,0-0.8,0.1-1.2,0.1c-0.4,0-0.8-0.1-1.1-0.5c-0.5-0.6-0.8-0.9-1.1-0.9
		c-0.3,0-0.5,0.4-0.7,1.2c-0.5,1.8-1.8,2.7-2.9,3.9c-2.2,2.4-3,6,0,9.7c2.2,2.7,2.3,5.8,2.6,9.2c0.3,4.2-2.4,5.9-4.5,8.4
		c-1.3,1.6-3,2.8-3.5,5c-0.5,2.5-2.2,4.3-4.5,4.8c-2.7,0.6-2.6,2.6-2.7,4.5c0,1.9-1.1,3.7-0.3,5.7c0.1,0.2-0.1,1-0.6,1c0,0,0,0,0,0
		c-0.7,0-0.9-0.6-1-1.2c-0.1-1.7,0.5-3.5-1.2-4.8c-0.8,1.8-0.5,3.8-0.7,5.7c-0.2,1.8-1.5,3.1-2.1,4.8c-0.2,0.6-0.6,1.2-0.6,1.9
		c0,2.8-0.1,5.7-0.4,8.5c-0.3,2.2,0.7,4.3,0.5,6.5c-0.1,1.1-0.3,2.2-1.2,2.2c0,0,0,0,0,0c-0.8,0-1.1-1.1-1.1-2.2
		c0.1-3-0.1-6.1,0.1-9.1c0-1.2-0.5-2.3-0.5-3.5c0-0.3-0.5-0.8-0.6-0.8c0,0,0,0,0,0c-0.6,0.2-1,0.3-1.3,0.3c-1.2,0,0-1.4,0.3-2
		c0.7-1.5-0.1-2.2-1.2-2.8c-1.1-0.5-2.2-0.7-3.4-0.7c-0.7,0-1.4,0.1-2.1,0.1c-1.2,0.1-1.5,0.9-0.8,1.9c0.8,1.2,0.6,2.4,0.6,3.7
		c0,0.5-0.3,1-0.7,1.1c0,0,0,0,0,0c-0.4,0-0.8-0.5-0.7-1c0.4-3.2-2.8-3.8-4.3-5.6c-0.8-1-1.8-2.1-2.9-2.9c-0.2-0.1-0.2-0.7-0.1-1.1
		c0.7-2.2-0.8-5.4-2.8-6.4c-1.8-0.9-3.6-1.4-4-4.1c-0.3-1.6-1.9-3.7-4.3-4.4c-2.1-0.6-2.3-1.8-1.4-3.8c0.7-1.5,1.7-3.3-0.5-4.7
		c-0.1-0.1-0.4-0.2-0.1-0.5c1.6-1.6,0.1-3,0-4.5c-0.2-1.9-0.1-4,0.2-6c0.3-2.1-0.1-4.3,1-6.4c0.1-0.3-0.4-0.8-0.7-0.8
		c0,0-0.1,0-0.1,0c-0.9,0.8-2.6-0.3-3.2,1.2c-0.1,0.3,0,0.6-0.2,0.9c-0.5,0.7-0.2,2-1.6,2c0,0,0,0,0,0c-1.7,0-1.1-1.5-1.5-2.3
		c-1,0.4-2,0.7-2.9,1.1c-0.5,0.2-1,0.4-1.1,1.2c-0.2,4.2-0.7,8.4-0.8,12.5c0,2.2,0.7,4.3,0,6.6c-0.3,1-0.9,1.1-1.5,1.3
		c-0.1,0-0.2,0-0.3,0c-0.6,0-0.8-0.5-1-1.2c-1-4-1.2-8.2-0.7-12.2c0.2-1.7,0.1-3.3,0.4-5.5c-2.5,2.6-5.5,4-7,7.2
		c-0.7,1.5-2.4,2.3-2.4,4.2c0,0.2-0.4,0.6-0.6,0.6c0,0,0,0,0,0c-0.1,0-0.2,0-0.2,0c-2.7,0-2,2.2-2.2,3.8c-0.2,1.2,0.1,2.3-0.4,3.5
		c-0.3,0.8-0.6,1.7-1.4,1.8c-0.1,0-0.1,0-0.1,0c-1,0-0.7-1.2-1.1-1.9c-0.3-0.5-0.2-1.3-0.5-2.1c-0.8,2.1-3.5,2.9-3.7,5.5
		c-0.1,0.8-0.6,1.3-1.4,1.3c-0.1,0-0.2,0-0.4,0c-0.1,0-0.2,0-0.4,0c-1.1,0-1.4,1-1.6,1.8c-1,5.2-2.2,10.5-1.8,15.8
		c0.2,2.8-0.1,5.5,0.3,8.3c0.1,0.6,0.3,0.9,0.6,1.4c0.5,0.8,1.2,1.5,0.3,2.8c-0.4,0.6,1.8,0.5,1.4,1.9c-0.1,0.4,0.1,0.9,0,1.4
		c-1.3,3.9,0.2,7.4,1.6,10.9c2.3,5.6,6.1,10.3,9.6,15.1c2,2.7,5.2,3.4,7.2,5.8c2.5,3,6.2,4,9.9,5c0.6,0.2,1.1,0.3,1.6,0.6
		c0.4,0.2,0.6,0.6,0.6,1.1c-0.1,0.7-0.8,0.8-1.1,0.8c0,0,0,0,0,0c-0.5,0-0.9-0.1-1.4-0.1c-1.9,0-3.8,0.3-5.6,0.3
		c-0.8,0-1.6-0.1-2.3-0.2c-3-0.6-5.8-1.8-8.6-3c-0.6-0.3-1.4-0.8-2-0.9c-1.9-0.3-3.5-1-4.8-2.5c-0.4-0.5-0.8-0.8-1.3-0.8
		c-0.4,0-0.7,0.2-1.2,0.7c-0.3,0.4-0.7,0.5-1.2,0.5c-0.6,0-1.3-0.3-1.9-0.7c0,2.8,0,5.5,0,8.1c0,0.9,0.1,1.7-1.1,1.9
		c-0.1,0-0.2,0-0.3,0c-0.9,0-1.1-0.8-1.3-1.5c-0.3-1-0.4-2-0.5-3c-0.3-4.1,0.4-8.3-0.4-12.4c-0.3-1.7-1-3.1-2.2-4.2
		c-4.8-4.5-6.5-10.4-6.9-16.7c-0.1-1.1-0.3-2.2-0.7-3.2c-0.3-0.7-0.4-1.2,0.2-1.6c2.1-1.5,0.9-1.7-0.6-1.7c0,0,0,0-0.1,0
		c0,0,0,0,0,0c-0.4,0-0.9-0.3-0.9-0.5c0.3-1.3-0.2-2.3-0.6-3.4c-0.4-1.2,0.5-2,1.4-2.9c0.9-1,1.4-2.4,1.3-3.9
		c-0.3-4.2,0-8.5,0.6-12.6c0.5-3.4,0.9-7,1.9-10.4c0.4-1.3,0.8-2.4,0.3-3.8c-0.6-1.9,1.9-5,4-5.3c1.2-0.1,1.5-0.6,1.2-1.8
		c-0.7-3.2-0.5-3.3,2.6-3.8c2.4-0.4,4.1-2.6,6-4c6.4-4.9,11-11.3,15.4-17.9c1.6-2.3,3.6-4.4,6-6.1c2-1.4,1.8-4,2.5-6
		c0.1-0.5-0.3-1-0.9-1c-0.2,0-0.4,0-0.6,0.1c-4.8,2.3-9.5,4.8-13.7,8.2c-5,4.1-10.3,7.9-15,12.3c-4,3.7-8.8,6.3-13,9.7
		c-1.5,1.2-3.1,2.3-4.7,3.3c-1.4,0.9-2.5,2-3,3.6c-0.4,1.3-1.6,1.9-3,1.9c-0.3,0-0.7,0-1,0c-0.6,0-1.2,0-1.8,0
		c1.2,1.8,1.4,3.2-0.8,4.2c-0.4,0.2-0.7,0.8-0.9,1.2c-2.3,5.3-4.2,10.7-6.2,16.1c-2,5.2-3.3,10.5-5.4,15.6
		c-1.4,3.4-3.1,6.6-3.8,10.2c-0.6,2.8-1.1,5.6-1.1,8.4c0,3.3-1.3,6.2-1.7,9.4c-0.3,2.9-0.3,5.6,1.2,8.2c0.7,1.2,1.2,2.6-1.1,2.9
		c-0.4,0-1,0.2-0.7,0.5c1.5,1.7-0.2,4.3,2,6c1.3,1,1.1,3.2,0.6,4.7c-1.9,5.6-0.2,10.8,1.7,16c0.4,1,0.9,1.9,0.8,3
		c-0.1,1.1,0.4,2.2,0.9,3.1c3.2,5.6,7.2,10.5,12.2,14.6c2.3,1.9,4.9,3.8,7.6,4.8c1.8,0.6,3.7,1.2,5.6,1.2c1.4,0,2.9-0.3,4.3-1.1
		c0.4,0.2,0.8,0.3,1.2,0.3c1.1,0,2.3-0.7,3.4-0.7c0.6,0,1.1,0.2,1.7,0.7c0.3,0.3,0.6,0.4,1,0.4c0.3,0,0.7-0.1,1-0.1
		c0.2,0,0.4,0,0.6,0c1.7,0,3.4,0.3,5.2,0.3c0.8,0,1.6-0.1,2.4-0.3c0.2,0,0.4-0.1,0.5-0.1c0.5,0,1,0.2,1.2,0.8c0.2,0.9-0.7,1-1.3,1.3
		c-5.2,2.5-10.7,3.9-16.3,4.8c-0.9,0.1-1.5,0.5-2.2,0.9c-1.6,0.9-3.2,1.5-4.9,1.5c-1.1,0-2.3-0.3-3.5-1c-0.3-0.2-0.7-0.2-1-0.2
		c-0.9,0-1.9,0.4-2.9,0.4c-0.1,0-0.3,0-0.4,0c-4.9-0.7-8.2-3.4-11.5-6.6c-3.1-3-6.5-5.7-10.3-7.6c-1.6-0.8-2.3-2.3-2.9-3.7
		c-1-2.5-2.4-4.8-4-7c-2-2.7-3.2-6.1-3.6-9.3c-0.5-4-2.4-7.5-3.1-11.4c-0.9-4.6-2-9.2-2.4-13.9c-0.1-1.3,0.1-3.7,1.8-4.9
		c0.7-0.5,1.2-1,0.7-2c-0.3-0.6,0.1-1.1,0.6-1.6c3.2-2.7,4.5-6.2,4.9-10.4c0.3-3.2,0.7-6.5,1.8-9.5c0.8-2.2,0.4-4.6,0.8-6.8
		c0.6-4.1,0.7-8.2,0.6-12.4c-0.1-4.4,0.9-8.7,1.7-13c0.4-2.1-0.2-4.4,0.6-6.5c0.1-0.2-0.1-0.5,0-0.7c2.6-3.4,1.4-7,1-10.8
		c-0.2-2.4,2-4.2,3.9-5.7c0.4-0.3,0.8-0.5,1.2-0.5c0.8,0,1.7,0.6,2.4,1.1c0.4,0.2,0.7,0.4,1.1,0.4c0.3,0,0.6-0.1,0.8-0.2
		c0.7-0.4,0.6-1,0.5-1.6c-0.6-4-0.5-3.7,3.4-5.2c2.5-1,5-2.2,7.3-3.8c3.1-2.2,6.5-4.2,9.9-6.3c-3.6-2.4-7.6-4.3-11-6.9
		c-2.4-1.8-4.6-3.8-6.5-6c-2.9-3.4-5.7-7-8.4-10.6c-2.1-2.8-4.5-5.8-4.6-9.3c0-3-0.9-5.9-1.3-8.8c-0.4-3.2-0.4-3.9,2.9-4.5
		c2.2-0.4,3.7-3.3,4.5-5.5c1.3-3.4,3.4-6.4,4.5-9.9c0.9-2.6,1-5.2,1.4-7.8c0.8-5.1,1.7-10.1,3-15.1c0.3-1.2,0.8-2.4,0.3-3.8
		c-0.3-0.7,0-1.4,0.7-1.7c2.2-1.1,3.7-2.9,4.8-5.1c0.4-0.8,0.9-1.7,1.6-1.7c0.4,0,0.9,0.3,1.5,0.9c0.3,0.3,0.5,0.4,0.8,0.4
		c0.6,0,1-0.9,1-1.4c0.1-1.1,0.6-1.8,1.3-2.5c0.3-0.3,0.8-0.5,1.1-0.5c0.3,0,0.6,0.2,0.8,0.5c0.5,1.2,1.4,1.4,2.3,1.4
		c0.3,0,0.6,0,0.9-0.1c0.2,0,0.4,0,0.5,0c2.2,0,3.9,1.4,5.8,2.2c4.7,1.8,9.5,3.2,14.6,3.8c2.4,0.3,4.5,1.4,6.5,2.4
		c2.8,1.4,5.9,1.8,8.8,2.6c3.2,0.9,6.5,1.8,9.6,2.9c0.3,0.1,0.6,0.2,0.8,0.2c0.8,0,1.1-0.5,1.5-1.2c0.3-0.5,0.5-1.2,0.5-1.9
		c0.1-2.9,0.2-5.8,1.2-8.7c1.4-3.9,0.3-7.8-1.5-11.6c-1.7-3.6-4.4-6.4-6.6-9.6c-1.7-2.5-3.4-5.1-5.2-7.5c-2.3-3-4.7-5.9-7.3-8.6
		c-1.5-1.5-3.4-2.6-5.3-3.5c-1.4-0.7-2.2-2.1-3.7-2.6c-0.1,0-0.2-0.2-0.3-0.3c-1-0.9,1.7-2.3-0.6-3.3c-1.7-0.7-0.2-2.5-0.4-3.6
		c-0.8-4.3-0.4-9-2.7-12.8c-2-3.3-3.2-7.3-6.6-9.7c0-2.7-2.9-3.1-4.1-3.5c-1-0.4-2.2-0.6-3.4-0.6c-1.1,0-2.2,0.2-3.2,0.7
		c-0.5,0.3-1,0.4-1.5,0.4c-0.7,0-1.4-0.2-1.8-0.5c-2.1-1.3-4.2-1.7-6.3-1.7c-2.1,0-4.2,0.4-6.3,0.9c-2.2,0.5-4.3,0.8-5.5,3.4
		c-0.5,1-2.4,1.7-3.8,1.9c-1.4,0.2-2.1,1-3,1.8c-4.1,3.4-6.8,7.7-8.1,12.9c-0.1,0.5-0.4,0.9-0.8,0.9c0,0-0.1,0-0.1,0
		c-0.4,0-0.7-0.4-0.9-0.8c-0.8-1.6-0.7-3.3-0.3-4.8c0.5-2.2,1.4-4.3,1.7-6.6c0.1-0.7,0.7-1.5,1.3-2c4.6-3.7,8.4-8.3,12.7-12.3
		c1.4-1.3,2.8-2.5,4.2-3.8c0.5-0.4,0.9-0.6,1.4-0.6c0.6,0,1.2,0.2,1.8,0.3c2.4,0.3,4.8-0.2,7.2,0.5c2.2,0.6,4.4,0.8,6.6,0.8
		c2.9,0,5.8-0.3,8.7-0.3c0.1,0,0.2,0,0.3,0c0,0,0,0,0.1,0c1,0,2.1-0.1,3.1-0.1c1.4,0,2.7,0.2,3.9,1.4c0.1,0.1,0.3,0.1,0.4,0.1
		c2.4,0.5,2.4,0.5,3,2.6c0.7-2,0.8-3.9,2.1-5.4c1.9-2.1,4-4.2,5.9-6.4c0.3-0.4,0.7-0.5,1.1-0.5c0.2,0,0.4,0,0.6,0.1
		c1.8,0.5,3.8,0.5,5.4,1.1c1.7,0.6,3.3,0.7,4.9,0.7c0.4,0,0.8,0,1.2,0c0.1,0,0.1,0,0.2,0c2.4,0,4.5,0.8,6.6,1.9
		c0.5,0.2,1.1,0.5,1,1.3c-0.2,5.2,2.4,9.3,5.1,13.5c1,1.5,2.2,3,2.6,5c0.6,2.6,3,4.1,4.8,5.8c0.3,0.3,0.6,0.4,0.8,0.4
		c0.8,0,1.4-1,1.6-1.5c1.5-3.3,4.8-4.6,7.4-6.5c2.7-2,5.1-4.3,7.2-6.7c3.5-4.1,7.2-7.6,11.8-10.5c4.7-2.9,9.6-5.4,14.8-7
		c4.9-1.5,9.9-2.6,15.1-3c4.4-0.3,8.8-1.7,13.3-1.7c0.7,0,1.3,0,2,0.1c6.5,0.7,13,1.7,19.3,3.7c2.4,0.8,4.9,1,7.3,1.8
		c7.6,2.6,15.9,3.3,22.5,8.7c2.2,1.8,4.3,3.8,6.4,5.7c0.4,0.4,0.7,1.1,1.3,1.1c0,0,0,0,0.1,0c0.1,0,0.2,0,0.4,0
		c2.4,0,3.8,1.9,5.2,3.3c1.1,1.1,1.7,1.6,2.3,1.6c0.6,0,1.1-0.5,2.1-1.6c1.2-1.2,1.8-2.7,2.8-4c1.8-2.2,3.5-4.6,6.6-5.3
		c2.6-0.5,4.5-2,6.3-4c1.4-1.5,3.2-2.6,4.8-4c2.7-2.4,5.1-5.2,7.6-7.8c1.2-1.2,2.5-2.3,4.1-3c0.7-0.3,1.6-0.5,1.8-1.2
		C350.8,18.2,351.5,17.8,352.3,17.8 M162.6,90c2.7-4.6,5-9.2,7.2-13.9c0.9-1.9,1.7-3.7,0.2-5.5c-1.1-1.2-1.6-2.7-2.2-4.1
		c-1.7-4.6-5.7-8.4-4.8-13.9c0.1-0.5-0.7-1.3-1.1-1.9c-1.7-2.6-4.5-4.4-4.5-8.1c0-1-1-3.2-3.2-3.6c-2.8-0.6-5.6-0.8-8.4-1.1
		c-0.4,0-0.7-0.1-1.1-0.1c-1.5,0-2.6,0.4-3.5,1.7c-1.2,1.7-2.6,3.1-4.7,4c-1.8,0.8-2.3,3.6-1.3,5.3c1.9,3.6,3.2,7.4,4.4,11.1
		c0.8,2.3,2.6,4.1,2.8,6.6c0.2,2.3,1.3,3.9,3.4,4.6c1.6,0.5,2.4,1.3,2.1,3c-0.1,0.7,0.5,0.9,1.1,1.2c0.6,0.2,1.1,0.5,1.4,1.3
		C153,82.6,158.1,86,162.6,90 M114.2,144.9c-0.2,0-0.4,0-0.6,0c-0.1,0-0.3,0-0.4,0c-1.9,0-1.9,1-2,2.2c-0.2,3.4-1.2,6.5-3.7,9
		c-4,3.8-5.4,9-7.3,13.9c-0.6,1.4-0.8,3.5-2.2,4.1c-3.1,1.4-2,4.2-2.7,6.4c-0.7,2.1,0.8,4.1,1.6,6.1c1.4,3.7,3.9,6.9,5.6,10.4
		c2,4.3,5.5,7.2,8.3,10.7c1.9,2.4,4.7,4.1,5.7,7.4c0.4,1.4,2,2.1,3.5,2.1c1.1,0,2.2-0.4,2.9-1.2c2.7-3.1,6.1-5.4,9.2-8
		c2.3-2,5-3.6,7.3-5.7c5.4-4.8,9.8-10.4,13.9-16.3c1.9-2.7,4.2-5.4,3.9-9.1c-0.1-1.1-0.4-2.2-0.6-3.3c-0.4-2.4,1.7-3.9,1.6-6.1
		c-0.1-2-0.7-3.8,1.4-5.7c1.1-1,1.4-4,1.7-6.2c-0.3-0.6,0-1.3-0.4-2c-1.5-2.7-3.9-4-6.6-4.9c-1.6-0.5-3.4-0.7-4.8-1.5
		c-6.7-4-13.6-6.6-21.2-6.6c-1.6,0-3.2,0.1-4.8,0.3c-0.9,0.1-1.5,0.3-2.2,0.9C119.4,143.8,116.8,144.9,114.2,144.9 M202,259.2
		C202,259.2,202,259.2,202,259.2c-0.9,0-0.5-1.2-0.7-1.9c-0.3-1.3,0.8-2.6,0-3.9c-0.3-0.5-0.1-3.8-0.1-4.6c0-1,0.4-2,0-2.9
		c-0.2,0.1-0.4,0.2-0.6,0.2c-0.4,0-0.9-0.2-1.4-0.2c-0.4,0-0.8,0.2-1,0.8c-0.1,0.2-0.2,0.2-0.3,0.2c-0.1,0-0.2,0-0.4-0.1
		c-0.4-0.2-0.6-0.4-0.8-0.4c-0.3,0-0.2,0.4-0.1,1.2c0.1,0.8-0.3,1.1-0.9,1.2c-0.1,0-0.2,0-0.2,0c-0.5,0-0.5-0.5-0.6-1
		c-0.2-1.5-0.2-1.5-1.4-2.5c0.1,2,0.4,3.9,1.8,5.3c0.3,0.3,1.4,0.2,1.1,0.9c-0.2,0.5-0.5,0.6-1,0.6c-0.3,0-0.7-0.1-1-0.3
		c-1.6-0.8-3.4-1.4-4.7-2.8c-0.4-0.5-0.8-0.7-1.1-0.7c-0.6,0-0.9,0.7-1.1,1.5c-0.3,1.1-0.1,2.3,0.7,3.2c1,1.1,2.1,2.2,3.3,3.1
		c2.3,1.8,4.1,3.8,4.2,7c0,1.1-0.2,2-1,2.9c-0.5,0.5-1.8,1-1,1.9c0.7,0.8,1.4,1.9,2.7,1.9c0.1,0,0.1,0,0.2,0c0.1,0,0.1,0,0.2,0
		c0.4,0,0.8,0.1,1.2,0.1c0.2,0,0.5,0,0.7-0.1c2-0.8,5-0.4,5.2-3.7c0.1-1.1,0.9-0.7,1-0.8c-0.1-0.5-0.3-0.7-0.7-0.7
		c-0.3,0-0.6,0.1-0.9,0.1c-0.4,0-0.8-0.2-0.9-1.1c-0.1-1.3,0.1-2.9,0.7-3.4c1-0.8,1.6-1.9,2.2-2.8c2.2-3.6,6.2-6.5,4.6-11.6
		c-0.2-0.7-0.1-0.9-0.4-0.9c-0.1,0-0.3,0-0.6,0.1c-2.1,0.4-3.7,2.7-3.7,5.1c0,1.2,0.4,2.6-1,3.2c-1.2,0.5-1.2,0.4-1.2,1.2
		c0,0.9,0.1,1.8,0,2.7C203.1,258.1,202.8,259.2,202,259.2 M305.3,277.2c0.4,0,0.6-0.6,1-0.8c1.6-1.1,1.2-2.8,1.3-4.3
		c0.3-2.4-1.8-3.7-2.8-6c-0.2,3.3-0.4,6.2-0.6,9.1c-0.1,0.8,0.2,1.6,0.8,2C305.2,277.2,305.2,277.2,305.3,277.2 M352.3,2.8
		C352.3,2.8,352.3,2.8,352.3,2.8c-4.8,0-9.1,2-12.3,5.3c-2.7,1.6-4.7,3.4-6.1,4.8c-1.2,1.2-2.3,2.3-3.3,3.5
		c-1.3,1.4-2.6,2.7-3.7,3.7c-0.2,0.2-0.7,0.5-1.1,0.8c-1.3,1-3,2.3-4.7,4.1c-4,1.1-7,3.2-9.3,5.2c-1.2-1.1-2.4-2.2-3.8-3.3
		c-7.3-6-15.3-8.1-21.7-9.8c-2-0.5-3.9-1-5.6-1.6c-2.1-0.7-4-1.1-5.6-1.4c-0.6-0.1-1.5-0.3-1.8-0.4c-8.1-2.7-16.2-3.7-22.3-4.4
		c-1.2-0.1-2.4-0.2-3.6-0.2c-3.9,0-7.4,0.6-10.2,1.1c-1.6,0.3-3,0.6-4.2,0.6c-6.1,0.5-12.1,1.6-18.5,3.7c-6,1.9-12,4.7-18.2,8.6
		C190.8,26.7,186,31,181,36.8c-0.7,0.8-1.5,1.6-2.2,2.4c-0.5-0.8-0.8-1.5-0.9-1.9c0.1-2.5-0.3-10.6-9.1-15.2
		c-3-1.6-7.6-3.6-13.5-3.6c-0.1,0-0.2,0-0.4,0c-0.4,0-0.7,0-1,0c-0.2,0-0.3,0-0.4,0c-2.1-0.7-4.1-1-5.4-1.1c-0.2,0-0.5-0.1-0.7-0.1
		c-1.5-0.4-3-0.6-4.5-0.6c-4.6,0-9.1,2-12.2,5.4c-0.8,0.9-1.7,1.8-2.6,2.8c-0.5,0-1.1-0.1-1.6-0.1c-1,0-1.9,0.1-2.6,0.1
		c-0.2,0-0.4,0-0.6,0l-0.3,0c-1.9,0-3.6,0.1-5.2,0.2c-1.3,0.1-2.5,0.1-3.5,0.1c-1.1,0-1.9-0.1-2.4-0.2c-3.5-1-6.6-1-8.6-1
		c-0.3,0-0.6,0-0.9,0c-0.8-0.2-2.1-0.4-3.7-0.4c-4.4,0-8.5,1.7-11.7,4.7c-0.5,0.5-1.1,1-1.8,1.6c-0.7,0.6-1.5,1.3-2.3,2.1
		c-2,1.8-3.7,3.6-5.4,5.4c-2.2,2.3-4.4,4.5-6.5,6.2c-3.6,2.9-6.1,7.1-6.7,11.5c0,0.3-0.3,1.1-0.5,1.8c-0.3,1-0.7,2.3-1,3.7
		c-1.3,5.5-0.7,10.6,1.6,15.1c4.3,8.3,11.9,8.9,14.2,8.9c0.7,0,1.5-0.1,2.2-0.2c6.5-0.9,11.7-5.7,13.3-12.2c0.4-1.7,1.2-3.1,2.4-4.3
		c3.3-1,6.1-2.8,8.3-5c0.3-0.1,0.6-0.1,0.8-0.1c2.7,1.4,5.7,2.2,8.7,2.2c1,0,1.9-0.1,2.9-0.2c0,0,0,0,0,0c0.3,0.4,0.6,1.2,0.9,1.7
		c0.5,1,1.2,2.3,2,3.6c0.1,0.6,0.2,1.8,0.3,2.8c0.1,0.8,0.2,1.7,0.3,2.6c-0.2,1.2-0.3,2.8-0.1,4.5c0.2,1.7,0.7,3.4,1.4,4.9
		c0.5,2.8,1.8,5.2,3.3,7c1.5,1.9,3.1,3.1,4.6,4c1,0.9,2.6,2.1,4.6,3c0.6,0.3,1,0.5,1.1,0.6c2.1,2.1,4.1,4.7,6,7.1
		c1,1.3,2.1,2.8,3.2,4.5c0.5,0.8,1,1.5,1.5,2.3c0.9,1.3,1.8,2.5,2.7,3.6c0.3,0.4,0.6,0.8,0.9,1.2c-2.5-1.2-6.1-2.9-10.5-3.4
		c-3.1-0.3-6.4-1.2-10.7-2.8c-0.1-0.1-0.3-0.2-0.4-0.2c-1.5-0.8-4.1-2.1-7.4-2.7c-2.4-1.4-5.1-2.2-8-2.2c-3.7,0-7.4,1.3-10.4,3.7
		c-3.2,1-7.1,3.3-9.9,8.5c-5.2,3.3-8,9.2-7.5,15.1c-1.2,4.8-2.2,9.8-3.1,15.8c-0.1,0.7-0.2,1.5-0.3,2.2c-0.1,1.2-0.3,2.5-0.5,3
		c-0.3,0.8-0.9,2-1.6,3.3c-0.6,1.2-1.3,2.6-2,4.1c-2.5,1.2-5.3,3.3-7.2,6.8c-2.8,4.9-2.2,9.8-1.9,12.4c0.2,1.7,0.5,3.2,0.7,4.5
		c0.2,1.1,0.4,2.3,0.4,2.8c0.1,8,4.4,13.8,7,17.3l0.5,0.7c3.3,4.5,6.2,8.2,9.1,11.5c0.4,0.5,0.9,1,1.3,1.5c-1.5,0.9-3.1,2.1-4.5,3.8
		c-1.4,0.6-2.7,1.4-3.9,2.4c-2.9,2.3-10.4,8.5-9.3,18.9c0.1,0.9,0.2,1.8,0.3,2.5c0,0.1,0,0.2,0,0.3c-0.6,1.3-1.2,2.9-1.4,4.8
		c-0.6,2.6-0.5,4.8-0.5,6.2c0,0.2,0,0.3,0,0.5c-0.1,0.7-0.2,1.3-0.4,2c-0.7,4-1.6,8.5-1.4,13.6c0.1,3.8,0,7-0.5,9.9
		c-0.2,1.7-0.3,3.1-0.3,4.2c0,0.2,0,0.4,0,0.6c-1.5,4.5-2,8.7-2.3,12.4c0,0.3-0.1,0.5-0.1,0.6c-2.4,2.2-4.1,4.9-4.9,7.8
		c-2.3,3.7-3.4,8.1-3.1,12.9c0.3,4.5,1.2,8.7,1.9,12.4c0.2,1.1,0.4,2.2,0.6,3.2c0.5,2.7,1.3,5.1,1.9,7c0.4,1.3,0.9,2.7,1,3.5
		c0.7,5.8,3,11.5,6.3,16.1c1.1,1.5,1.8,2.8,2.3,4c0.9,2.2,3.3,8.1,10.1,11.4c2.1,1.1,4.3,2.7,6.6,4.9c4.7,4.6,10.8,9.5,19.9,10.8
		c0.8,0.1,1.7,0.2,2.5,0.2c0.5,0,0.9,0,1.4-0.1c1.9,0.6,3.9,0.8,6,0.8c3.7,0,7.4-1,11.3-2.9c7-1.2,13-3.1,18.4-5.6
		c9-3.7,11.3-12.3,9.6-18.7c0-0.2-0.1-0.3-0.1-0.4c2-0.4,4.3-0.8,6.7-1.1l1.4-0.2c0.5-0.1,1-0.1,1.5-0.2c2.3-0.3,5.4-0.6,8.8-1.9
		c1.7-0.6,3.2-1.2,4.7-1.8c2.1-0.9,4.1-1.7,5.8-2.1c1-0.3,2.2-0.6,3.4-0.8c2-0.5,4.3-1,6.7-1.8c0.3-0.1,0.6-0.2,0.9-0.3
		c1.9-0.6,4.4-1.3,7.1-2.7c3.1,0,8.5-0.9,13-6.4c0.2,0,0.5-0.1,0.8-0.2c2.3-0.4,5-1,8-2.3c1.1-0.5,2.1-1,3.1-1.4
		c0.4-0.2,0.9-0.4,1.3-0.6c2,4,6,7.3,11.8,8.4c3.3,0.6,6.6,0.9,10.6,0.9c1.8,0,3.6-0.1,5-0.1c3.6-0.1,6.3-1.2,7.8-1.8
		c1.1-0.2,2.2-0.4,3.1-0.6c1.8-0.3,3.7-0.6,5.2-0.6c0.3,0,0.6,0,0.9,0.1c0.5,0.2,0.9,0.3,1.4,0.4c1.4,0.4,2.8,0.6,4.2,0.6
		c6.8,0,12.8-4.4,15.4-11.2c0.3-0.7,0.5-1.5,0.7-2.2c2.3-0.9,5-2.3,7.5-4.4c2.1-1.7,3.8-3.5,5.3-5.1c0.4-0.4,0.8-0.9,1.2-1.3
		c1.2-0.9,3.3-2.5,4.9-5.2c0.4-0.6,1.5-1.8,2.4-2.8c0.5-0.6,1.1-1.1,1.6-1.7c3.5-3.8,6.3-7.8,8.7-11.6c4.7-3.2,8-7.7,9.7-12.9
		c0,0,0-0.1,0-0.1c2.2-5.1,2.2-9.3,1.3-12.7c2.8-7.3,0.2-13.8-3.6-17.9c-0.3-0.3-0.5-0.6-0.8-0.9c-1.2-1.2-2.6-2.8-4.3-4.2
		c-0.1-0.3-0.1-0.8-0.2-1.5c-0.7-6.1-2.8-11.6-6.3-16.5c-0.3-0.4-0.5-0.7-0.8-1.1c-0.3-4.5-2.4-8.6-5.7-11.3c-0.2-0.3-0.4-0.6-0.7-1
		c-0.3-0.9-0.8-1.9-1.3-2.8c-1.8-3.1-4.5-5.5-7.7-7c-1.3-1.3-2.7-2.7-4.3-4.2c0,0,0,0,0,0c-0.2-0.4-0.4-0.9-0.6-1.3
		c-0.6-1.3-1.5-3.3-1.6-4.1c0.1-1.2,0.2-2.6-0.1-4.3c0.6-1.3,1.1-2.7,1.3-4.4c1.8-1.9,3.1-4.2,4-6.6c1.3-1.2,2.3-2.3,3.1-3.1
		c0.2-0.3,0.6-0.6,0.7-0.8c0.7-0.6,1.3-1.3,1.8-1.8c0.7-0.7,1.7-1.7,2.1-2c4.2-1.8,7.5-4.2,10.1-6.1c0.6-0.4,1.2-0.9,1.8-1.3
		c0.8-0.6,1.6-1.1,2.3-1.6c1-0.7,2.4-1.7,3-2c0.2,0,0.3-0.1,0.5-0.1c2.6,2,5.7,3.1,9,3.3c1.4,0.7,2.7,1.1,3.4,1.4l0.1,0
		c1.5,0.5,3.1,1.2,4.8,2.2c3,1.8,6.6,3.7,10.7,5.3c1.8,2.2,3.8,3.7,5.7,4.7c0.1,0.1,0.2,0.2,0.3,0.2c0.1,0.2,0.1,0.4,0.2,0.6
		c0.8,2.3,1.8,5.5,3.7,8.7l0,0.1c0.3,0.5,0.7,1.1,0.9,1.6c0.9,5.4,2.7,10,4.5,14.4c0.9,2.3,1.4,5.4,1.9,8.9c0.3,1.9,0.5,3.8,0.9,5.8
		c0,0.3-0.1,0.7-0.1,1c-0.1,1.1-0.3,2.6-0.4,4.2c0,1.1-0.3,2.6-1.7,5.1c-0.8,1.4-1.9,2.8-3.3,4.6c-1.2,1.6-2.6,3.4-4,5.5
		c-1,1.5-2,3.1-3,4.6c-2.9,4.6-5.7,8.9-8.8,12.3c-4.8,4.8-5.5,9.9-5.2,13.3c0.4,4.8,2.8,9.1,6.8,12.1c2.7,2,5.8,2.9,8.9,2.9
		c3.5,0,7-1.2,9.8-3.6c1-0.8,1.9-1.6,2.9-2.4c2.4-2,4.8-4.1,7.3-6.3c2.5-2.4,4.7-4.7,6.7-7c1.2-1.3,2.2-2.5,3.3-3.6
		c0,0,0.1-0.1,0.1-0.1c1.2-1,3.8-3.1,5.6-6.7c1.1-2.1,2.2-4.2,3.4-6.4c1.6-3,3.3-6,4.9-9.1c0.1-0.1,0.1-0.2,0.2-0.3
		c0.8-1.4,2.4-4.1,3-7.8c0.7-4.4,0.8-8.5,0.9-12.1c0-1.3,0-2.5,0.1-3.6c0-0.9,0.1-1.9,0.2-2.9c0.2-3.1,0.5-7,0-11.3
		c-0.2-1.4-0.3-2.9-0.4-4.5c-0.3-4.8-0.7-10.3-2.7-16.2c-0.3-0.8-0.5-2-0.8-3.3c-0.4-2.1-1-4.7-1.9-7.4c0-0.1-0.1-0.2-0.1-0.3
		c1.2-5.4,0.3-11.1-2.5-16c-1.3-2.1-2.9-4-4.7-5.5c-0.6-1-1.4-2-2.3-2.9c-3.2-3.3-7.7-5.1-12.3-5.1c-0.7,0-1.5,0-2.2,0.1
		c-1.2-0.4-2.5-0.7-4.1-0.8c-0.7-0.4-1.8-1.3-2.6-1.9c-0.7-0.6-1.5-1.2-2.2-1.8c-3.3-2.6-7.1-5.6-11.4-8.2c-2.3-1.4-4.2-3-5.6-4.9
		c-1.9-2.6-4.3-4.6-7.1-6c-1-1.4-2.9-3.9-5.8-6c2.1-3,3.2-5.9,3.9-7.8c0.1-0.2,0.3-0.7,0.5-1l0.3-0.6c0.2-0.4,0.4-0.7,0.6-1.1
		c1.4-2.4,3.4-6.1,3.9-10.9c0.2-2.1,0.9-4.4,1.7-7.2c0.4-1.2,0.7-2.5,1.1-3.8c0.5,0,0.9,0.1,1.3,0.1c0.3,0,0.7,0.1,1,0.1
		c1.9,1,5.3,2.8,9.9,2.9c1.6,0,3.4,0.3,5.3,0.5c1.4,1,2.9,1.8,4.5,2.3c1.4,0.9,3,1.5,4.7,1.9c0.5,0.4,1.6,1.3,2.3,1.9l0.2,0.2
		c3.2,2.8,6.6,5.9,9.4,9.4c0.1,0.1,0.4,0.6,0.6,0.9c1.3,1.9,3.1,4.7,6.4,7.2c0.2,0.2,0.7,0.7,1,1.1c1,1.1,2.4,2.7,4.3,4.2
		c0.2,0.3,0.6,0.7,0.8,1.1c0.7,1,1.7,2.2,2.8,3.4c0,0.1,0.1,0.3,0.1,0.4c0.6,1.9,1.5,4.7,3.3,7.5c0.4,1.5,0.9,3,1.6,4.3
		c0.3,1.4,0.7,2.7,1.3,4c-0.3,2.7-0.1,5.9,1.7,9.4c2.4,5.6,7.9,9.2,14.1,9.2c4.2,0,8.3-1.8,11.3-4.8c1.9-2,7-7.2,6.6-15.2
		c-0.2-4.7-0.8-9.4-1.7-14c-0.3-1.4-0.6-2.7-0.9-4c-0.6-2.8-1.2-5.5-1.4-7.9c0-0.2,0-0.5,0-0.7c-0.1-2.6-0.3-7.5-3.4-12.5
		c-3.7-5.8-8.2-10.4-12.5-14.5c-1.5-1.4-2.9-2.5-4.1-3.4c-0.3-0.3-0.8-0.6-1.1-0.8c-2-2.8-4.1-5.2-5.9-7.4c-1.3-1.5-2.5-3-3.6-4.4
		c-2.5-3.3-5.4-5.9-8.8-7.7c-2.5-6.1-8.2-10.4-15-11.2c1.3-1.7,2.3-3.8,2.8-5.9c1-4.1,0.4-8.3-1.7-11.9c-0.5-1.5-1.6-4-3.8-6.4
		c-1.6-1.7-2.9-3.8-4.5-7c-3.7-7.5-10.2-12-14.7-14.7c-0.2-0.1-0.5-0.3-0.7-0.4c-2.5-1.6-7.1-4.4-13.4-4.4c-0.7,0-1.3,0-2,0.1
		C354.3,2.9,353.3,2.8,352.3,2.8L352.3,2.8z M354.2,47.7c0.5-0.5,1-1,1.4-1.4c0.8-0.8,1.6-1.6,2.4-2.3c0.2-0.2,0.5-0.5,0.7-0.7
		c0.4,0.4,0.9,1,1.3,1.5c1.2,1.4,2.3,2.6,3.3,3.6c0.9,1,2.2,2.3,2.6,2.9c0,0,0,0.1,0.1,0.1c-1.1-0.4-2.1-0.8-3-1.2
		c-2.5-1.3-5.2-2-8.3-2.1C354.5,47.9,354.4,47.8,354.2,47.7L354.2,47.7z M128.1,155.6c0.1,0,0.1,0,0.2,0c4.2,0,8.5,1.4,13.4,4.4
		c0.6,0.4,1.2,0.7,1.8,1c-0.3,1.5-0.5,3-0.5,4.6c-0.9,2.3-2,5.9-1.3,10.3c0,0.1,0,0.2,0,0.3c0,0.1-0.1,0.1-0.1,0.2
		c-0.2,0.3-0.5,0.7-0.7,1c-2.9,4.2-6.9,9.5-11.7,13.7c-0.7,0.6-1.8,1.4-2.8,2.2c-1.3,0.9-2.7,2-4.2,3.3c-0.2,0.2-0.5,0.4-0.8,0.6
		c-0.8-1-1.7-1.9-2.4-2.8c-1.4-1.5-2.7-3-3.1-3.9c-1-2.2-2.2-4.1-3.1-5.7c-0.6-1.1-1.3-2.1-1.7-2.9c1.8-2.6,2.6-5.3,3-6.5
		c0-0.1,0-0.1,0.1-0.2c0.3-0.8,0.6-1.7,0.9-2.5c0.9-2.5,1.9-5,2.7-5.8c2.7-2.6,4.7-5.6,6.1-9.1C125.4,157.2,126.8,156.5,128.1,155.6
		L128.1,155.6z M76.7,164.8C76.7,164.8,76.7,164.8,76.7,164.8L76.7,164.8z M234.8,258.8c0.4-0.4,0.8-0.8,1.2-1.3
		c0.1-0.1,0.4-0.5,0.7-0.7c0.7-0.7,1.6-1.7,2.6-3c-0.1,1.6-0.3,3.4-0.6,5.4c-0.2,1.5-0.4,3-0.6,4.7c-0.4,4.1-0.4,8.1-0.3,11.7
		c-1.7,2.6-2.6,5.5-2.7,8.4c-0.2,0.3-0.3,0.6-0.4,0.9c-0.2,0.5-0.5,1-0.7,1.4c-0.1,0.2-0.3,0.3-0.4,0.5c-1.6,1.8-3.9,4.2-5.8,7.6
		c-0.5,0.9-1.1,1.6-1.6,1.9c-1.4,1-2.7,2.1-3.9,3.1c-2.1,1.6-4,3.2-6,4.6c3.2-2.6,5.5-6.7,6-12.3c0.2-2.9-0.1-5.4-0.4-6.8
		c0,0,0-0.1,0-0.1c0.1-1.3,0.2-2.6,0.3-3.8c1.4-1.1,2.6-2.4,3.6-3.9c1.8-2.7,2.7-5.8,2.7-8.9C231.3,265.7,233.5,262.5,234.8,258.8
		L234.8,258.8z M286.8,277.8c-0.2-4.7-1-8.8-2.2-12.4c-0.1-0.3-0.2-0.7-0.3-1.3c0.6,0.5,1.3,1,1.9,1.4c0.3,3.5,0.6,6.8,0.8,9.9
		c0,0.4-0.1,1.4-0.2,2.2C286.9,277.7,286.9,277.8,286.8,277.8L286.8,277.8z M150.2,267.3c1.6-0.5,3.4-1.3,5.3-2.7
		c1.8,0.7,3.8,1.1,5.9,1.1c1.4,0,2.8-0.2,4.2-0.6c0.4-0.1,0.8-0.2,1.1-0.3c0.3,0.2,0.6,0.4,0.8,0.5c1.2,2.4,2.9,4.6,5.1,6.3
		c0.7,3.5,2.6,6.6,5.4,8.9c0.1,0.1,0.3,0.3,0.6,0.7c0.7,0.8,1.3,1.5,1.9,2c0.7,1.7,1.7,3.4,3,4.8c1.8,2,4,3.5,6.5,4.3
		c0.4,3.9,2,7.4,4.7,10.1c3,3.1,7,4.8,11.3,4.8c0.1,0,0.1,0,0.2,0v0c0,0,0,0,0.1,0c0,0,0,0,0,0c0,0,0,0,0,0c0,0,0,0,0.1,0
		c2.7-0.1,5.5-0.8,7.9-2.3c-0.7,0.5-1.4,1-2,1.5c-1.3,1-3.2,2.4-4,2.7c0,0,0,0,0,0c-1.2,0.2-3.5,0.5-6.1,1.7
		c-0.5,0.2-1.2,0.5-2.7,0.5c-0.4,0-0.9,0-1.3-0.1l-0.1,0c-0.5,0-1.3-0.1-2.3-0.1c-2.9,0-5.7,0.7-8.1,1.9c-1.8,0.3-3.3,0.9-4.3,1.3
		c-0.7,0.1-1.4,0.2-2.1,0.3c-1.2,0.2-2.4,0.3-3.7,0.6c-1-0.8-2-1.6-3.2-2.2c-1.8-0.9-3.4-1.4-4.5-1.7l-0.3-0.1
		c-0.9-0.2-2-0.6-2.7-0.8c-2.3-2.6-4.8-4.1-6.3-5.1c-0.1-0.1-0.2-0.1-0.3-0.2c-0.3-0.4-0.6-0.9-1-1.3c-2.7-3.6-5-6.7-6.3-9.8
		l-0.1-0.2c-0.2-0.6-0.5-1.3-0.7-1.9c0.3-1.5,0.4-2.8,0.4-3.8c0.1-2.6-0.3-5.4-1.6-7.9c-0.2-0.9-0.6-1.8-1-2.7c0-0.3,0-0.6,0-0.9
		c0-1.4,0-2.9-0.1-4.6C149.8,270.8,149.9,269.1,150.2,267.3L150.2,267.3z M102.5,310.5c0-0.1,0-0.2,0-0.4c0-0.3,0.3-1.2,0.4-1.9
		c0.6-2.3,1.4-5.4,1.3-9.2c0-1.2,0.4-3.2,0.8-5.2l0-0.1c0.2-1.1,1-2.9,1.8-4.7c0.2,1.8,0.8,3.5,1.6,5.1c0.1,0.5,0.3,1.1,0.5,1.6
		c0.8,9.8,3.9,17.6,9.4,23.8c0,0.8,0,1.7,0,2.6c0,1.9-0.1,4,0.1,6.4c0.1,1.7,0.3,3.2,0.7,4.7c-0.3-0.1-0.6-0.3-0.9-0.4
		c-0.5-0.2-1-0.5-1.5-0.7c-1.3-0.6-3.3-1.5-5.8-2.1c-1.8-2.2-4-3.6-6.3-4.5c-0.2-1.1-0.4-2.1-0.8-3.1
		C104.7,319.2,104.8,315.2,102.5,310.5L102.5,310.5z"/>
</g>
</svg>
