<?xml version="1.0" encoding="utf-8"?>
<!-- Generator: Adobe Illustrator 24.1.0, SVG Export Plug-In . SVG Version: 6.00 Build 0)  -->
<svg version="1.1" id="Livello_1" xmlns="http://www.w3.org/2000/svg" xmlns:xlink="http://www.w3.org/1999/xlink" x="0px" y="0px"
	 viewBox="0 0 474 345.3" style="enable-background:new 0 0 474 345.3;" width="50" height="50" xml:space="preserve">
<style type="text/css">

		.Stile_x0020_grafica{fill:#FEFEFE;stroke:#000000;stroke-width:15;stroke-linecap:round;stroke-linejoin:round;stroke-miterlimit:10;}
	.st0{fill:#FEFEFE;}
</style>
<g>
	<path class="st0" d="M129.2,332.6c-3.6,0-7.1-1.6-9.5-4.4l-0.1-0.1c-1-0.9-3.3-3.2-3.7-7c-0.3-2.9,0-8.4,6-12.3
		c1.3-0.8,2.6-1.8,3.9-2.8c-2.5-1.9-5-4-7.3-6.6c-3.3-3.7-5-8.2-4.9-12.9c0-0.6,0-1.2,0-1.9c0-1.8,0.1-3.4,0-5
		c-0.3-5.2,1.7-9.3,3.2-12.6c0.2-0.4,0.4-0.8,0.6-1.2c0.5-1.1,1-2.2,1.4-3.5c0.8-2,1.7-4.3,2.9-6.6c0.3-0.5,0.5-1.6,0.7-2.8
		c0.2-1.4,0.5-3,1.1-4.7c-0.1-0.4-0.3-0.9-0.4-1.4c-0.3-1.4-0.5-2.8-0.6-4.2c-4.2-2.4-6.6-6.6-6.6-11.5c0-4.5,2.7-8.7,6.7-11
		c0.4-1,0.9-1.9,1.6-2.7c0-0.2,0-0.3,0-0.5c0.1-2,0.2-4.1,0.3-6.1c0.2-4.3,0.4-8.4,0.4-12.5c0-0.5-0.1-1.1-0.2-1.9
		c-4.7-1.8-7.5-5.4-9.1-7.6c0,0-0.1-0.1-0.1-0.1c-4.1-3.2-6-8-5.6-13.5c-0.7-1.7-1-3.2-1.2-4.3c0-0.2-0.1-0.4-0.1-0.6
		c-1.9-2.5-2.2-5.8-0.8-8.9c0.9-2.1,0.6-2.5,0.4-2.9c-1.1-1.4-1.5-2.8-1.7-4c-1.1-1.5-1.6-3-2-4c-0.1-0.3-0.3-0.7-0.3-0.9
		c-1.1-1.6-1.5-3.2-1.8-4.2c0-0.1,0-0.1-0.1-0.2c-1.3-1.5-2-3.4-2-5.4c0-1.2,0.4-2.9,1.5-4.4c0,0,0,0,0-0.1c0.1-1.2,0.2-2.8,0.8-4.6
		c0.9-2.6,2-4.7,3.6-6.4c0-0.2,0-0.4-0.1-0.7c-0.2-1.6-0.7-3.2-1.3-5.1c-0.2-0.5-0.3-1-0.5-1.6c-1-3.5,0.1-6.4,0.7-7.8
		c0-0.1,0.1-0.2,0.1-0.3c1.8-5.2,5.1-9.3,10-12c3.1-1.7,6-1.8,7.9-1.9c0.5,0,1.1,0,1.3-0.1c1.7-0.6,3.3-1.1,4.8-1.4
		c0.4-0.6,0.9-1.2,1.5-1.8l0.5-0.5c1.3-1.3,3-2.9,5.1-4.1c0.2-2.1,1-4.1,2.4-5.7c0.5-0.6,1-1.4,1.6-2.4c0.9-1.5,2.1-3.4,3.8-5.2
		c4.3-4.5,8.7-5.4,11.7-5.4c0.3,0,0.5,0,0.8,0c0.1,0,0.2,0,0.3,0c0.3,0,0.4,0,0.5,0c0,0,0.3-0.2,0.9-1c3.5-5,8.5-8.7,14.5-10.8
		c1.3-0.5,2.5-0.7,3.8-0.7c1.2,0,2.3,0.2,3.3,0.6c1.7-4,5.2-7.1,10.1-8.6c0.1-0.1,0.3-0.1,0.5-0.2c0.5-0.2,1.1-0.5,1.8-0.7
		c1.5-2.5,3.4-4.3,4.9-5.8c0.3-0.3,0.7-0.7,1-1c1.6-1.6,3.2-3.7,4.7-5.9c2.3-3.1,5-4.8,7.2-6.2c0.7-0.4,1.3-0.8,1.9-1.2
		c4.8-3.5,10-3.8,13.9-4c0.4,0,0.8,0,1.1-0.1c0.2-0.2,0.5-0.4,0.7-0.6c0.8-0.7,1.7-1.5,3-2.3c3.9-2.4,8.7-5.1,14.3-6.5
		c0.9-0.2,1.8-0.4,2.8-0.4c2.8,0,5,1,6.5,1.8c2.7,1.4,4.5,3.8,4.9,6.6c0,0.2,0.1,0.4,0.1,0.6l1.3,0c1.4,0,2.8,0,4.2,0
		c2.7,0,4.9,0.6,6.7,1c1.1,0.3,2.2,0.5,3,0.6c0.7,0,1.3,0.1,1.8,0.2c3.4,0.1,6.6,0.7,9.4,1.3c0.6,0.1,1.1,0.2,1.7,0.3
		c4.9,1,9.5,3,14.3,6.3c6,4.2,7,9.3,6.7,12.8c0,0.3,0,0.8,0,1.3c0,2.5,0,6.8-3.3,10.7c-1.2,1.5-2.4,2.4-3.6,3
		c6.6,2.6,11.9,6.9,15.9,12.8c1.9,2.8,3.4,5.6,4.9,8.4l0.4,0.8c1.7,3.2,3,6.8,4.2,11.7c1,4.4,2.2,9.4,1.7,14.9
		c-0.1,0.7-0.1,1.5-0.1,2.2c-0.1,2.1-0.2,4.5-0.9,7.1c0.3,0,0.7,0,1,0c0.9,0,1.5-0.1,1.9-0.2c0.9-0.3,1.9-0.5,2.8-0.5
		c0.4,0,0.8,0,1.2,0.1c1.5,0.2,3.2,0.3,4.9,0.4c4.7,0.2,10.5,0.4,16,3.8c3.2,2,7.9,5.3,10.9,10.7c1,1.8,2.1,3.9,3.1,6.3
		c1.7,4.1,1.8,8.2,0.5,12.5l-0.3,0.8c-0.6,2.1-1.4,4.6-3,7.1c2.5,1.3,4.4,3.5,5.5,6.4c1.4,3.7,1.2,7.1,1,9.7c0,0.6-0.1,1.1-0.1,1.7
		c0,0.5,0,0.6,0.1,0.7c1.3,3.8,0.1,6.5-1,8.1c-0.5,0.6-1,1.2-1.6,1.6c0.1,0.5,0.2,1.1,0.3,1.7c0.1,0.6,0.2,1.2,0.3,1.8
		c0.5,3.5,0.9,8-0.5,12.6c0,0.1,0,0.3-0.1,0.4c-0.1,0.9-0.3,2.2-0.9,3.7c-0.4,1.1-0.9,2.1-1.5,3.1c4,4,6,10.3,4.5,16
		c-0.1,0.3-0.1,0.5-0.2,0.7c-0.2,1.6-0.8,3.6-2.5,5.4c-1.6,1.7-3.9,2.6-6.3,2.6l0,0c-0.2,0-0.4,0-0.7,0c-0.1,0-0.2,0-0.3,0
		c0.6,4.8,0.4,9.5,0.2,13.8l0,0.2c-0.1,1.3-0.2,4-1.7,6.6c0,0.7,0,1.3,0,2c0,1,0,2.1,0,3.1c-0.1,5.8-3.8,10.2-9.3,11.1c0,0,0,0,0,0
		c-4.2,4.1-8.8,6.2-13.7,6.2c-0.6,0-1.2,0-1.8-0.1c0,0,0,0,0,0c-0.6,0-1.6,0.4-2.6,0.7l-0.7,0.2c-5,1.7-9.1,2.7-13,3.3
		c-1.4,0.2-3.1,0.7-5,1.6c-2.9,1.3-6.1,2-9.5,2c-2.5,0-5-0.4-7.9-1.1c-1-0.3-1.8-0.4-2.6-0.6c-1.1,0.6-2.5,1.1-4.2,1.1
		c-2.4,0-4.8-1-6.6-3c-0.1-0.1-0.2-0.2-0.3-0.3c-2.4-2.4-3.5-4.7-3.8-6.8c-3.1-2.6-5.3-5.6-7.1-8.5c-1.2,0-2.4,0-3.7,0
		c-1.7,0-3.2,0-4.6-0.1c-4.3-0.2-8.8-0.6-13.3-1.7c-0.6,2.2-1.3,4.3-2,6.5c-0.6,1.9-1.4,3.7-2.2,5.4c-0.1,0.2-0.2,1.1-0.3,1.7
		c-0.1,0.3-0.1,0.7-0.2,1c-1.2,7-3.4,14.2-10.6,19.4c-5.3,3.8-11.4,6.1-18.5,7.1c-1.2,0.2-2.6,0.6-4.2,1c-0.9,0.3-1.7,0.5-2.6,0.7
		c-0.5,0.1-0.9,0.3-1.4,0.4c-1.6,0.4-3.3,0.9-5.3,1.2c-0.5,0.1-1.1,0.1-1.6,0.1c-4.4,0-7.8-2.1-10-3.7c-0.6-0.4-1.2-0.9-1.8-1.3
		c-0.1,0.1-0.2,0.2-0.3,0.3c-2,1.6-4.3,2.5-6.8,2.5c-0.9,0-1.8-0.1-2.6-0.3c-2.7,1.6-6.7,3.3-11.5,3.3c-0.1,0.1-0.4,0.4-0.4,0.4
		c-1.7,3.1-4.8,5-8.5,5c-1.1,0-2.2-0.2-3.3-0.5c-1.4-0.4-2.5-1.1-3.4-1.8c-0.5,0.6-1,1.2-1.5,1.8l-1,1.3c-1.3,1.6-2.8,3.5-4.9,5.2
		c-0.2,0.4-0.3,0.8-0.6,1.2c-3,5.1-7.6,8.5-13.8,10.2C131.4,332.4,130.3,332.6,129.2,332.6z M146.4,269.7c-0.1,1.4,0.1,2.8,0.6,4.4
		c1.2-1,2.6-1.9,4.2-2.6c0.9-1.4,2-2.4,2.8-3.1c-1.7-2.6-2-5.8-0.7-8.6c0.1-0.3,0.1-0.5,0.2-0.8c0.2-0.8,0.5-1.4,0.7-2
		c0-0.1,0.1-0.2,0.1-0.3c-0.8-0.1-1.6-0.3-2.4-0.4c-0.6-0.1-1.3-0.3-2.1-0.5c-1.1,3.5-1.8,6.5-2.2,9.3c-0.2,1.8-0.8,3.1-1.1,4.1
		C146.5,269.3,146.4,269.5,146.4,269.7z M221.8,255.9c0.2,0.4,0.4,0.8,0.7,1.2c0.2,0.4,0.5,0.8,0.7,1.3c0.1-1.6,0.6-2.9,1-3.9
		C223.4,255,222.6,255.5,221.8,255.9z M265.8,54c2.1,0,3.8,0.6,5.1,1c0.2,0.1,0.4,0.1,0.6,0.2c1.5,0.4,2.7,1.1,3.7,1.6
		c1.4-0.6,2.7-0.6,3.3-0.6c1.6-0.1,3-0.1,4.4-0.1c3.1,0,5.9,0.2,8.5,0.5c-0.8-1-1.4-2.2-1.7-3.6c-0.4-1.8-0.2-3.7,0.6-5.4
		c-0.2-0.4-0.9-1.1-1.6-1.3c-1.5-0.5-3.4-0.8-5.4-1c-2.3-0.3-4.8-0.6-7.4-1.4c-2.4,0-4.7-0.2-7-0.4c-2-0.2-3.9-0.3-5.7-0.3
		c-1,0-1.9,0.1-2.8,0.2c-1.8,0.2-3.5,0.3-5.2,0.4c-1.2,0-2.4,0.1-3.5,0.2c0,0-0.1,0-0.1,0c0.2,1.1,0.2,2.2,0.2,3.3
		c3.4,2.3,5.6,5.7,6.1,9.5c0.8-0.4,1.7-0.8,2.6-1.3C262.1,54.5,263.9,54,265.8,54z"/>
	<path d="M247.7,20.3c1.1,0,2.1,0.5,3.1,0.9c1.5,0.8,1.1,1.9,0.1,2.9c-1.5,1.5-3.1,2.9-4.1,5.2c2.5,0,4.9,0,7.3,0c2.2,0,4.3,0,6.5,0
		c1.4,0,2.8,0,4.2,0c0,0,0,0,0.1,0c3.2,0,6.2,1.4,9.3,1.6c0.4,0,0.9,0.2,1.3,0.2c3.6,0,7,0.9,10.5,1.5c4.4,0.8,8,2.7,11.5,5.1
		c2,1.4,3.7,3.2,3.5,6.1c-0.2,2.6,0.4,5.4-1.6,7.7c-0.4,0.5-0.7,1-1.1,1c-0.1,0-0.3,0-0.5-0.1c-0.8-0.4-0.6-1.5-0.2-2
		c0.7-0.9,0.5-1.8,0.5-2.8c0-3.7-3.3-7.2-6.7-8.3c-4.6-1.6-9.5-1.2-14.1-2.9c-0.1,0-0.1,0-0.2,0c-0.1,0-0.2,0-0.3,0
		c-0.3,0-0.5,0-0.8,0c-4.3,0-8.5-0.7-12.8-0.7c-1.2,0-2.5,0.1-3.7,0.2c-2.9,0.4-5.7,0.2-8.5,0.6c-1.9,0.2-3.8,0.9-5.5,1.6
		c-1.7,0.7-2.5,2.9-1.5,5.5c0.6,1.6,0.6,3.2,0.4,4.8c-0.3,2.5,1.3,3.8,3,4.8c4.4,2.7,4.5,7.8,0.4,10.7c-1.3,0.9-2.3,2.3-3.3,3.6
		c-1.2,1.6-2.5,2.8-4.6,2.8c-0.1,0-0.2,0-0.3,0c-0.1,0-0.2,0-0.2,0c-0.5,0-0.9,0.1-0.8,0.8c0.1,0.4,0.3,0.4,0.5,0.4
		c0.1,0,0.3,0,0.4,0c0.1,0,0.1,0,0.1,0c0.1,0,0.3,0,0.4,0c1.1,0,1.9-0.8,2.9-1c4.2-1.1,8.1-3.3,12.2-4.5c3.2-1,6.2-2.4,9.2-4
		c0.5-0.3,1.1-0.4,1.7-0.4c1.2,0,2.5,0.5,3.7,0.9c1,0.3,1.8,0.8,2.7,1.3c1.1,0.6,2.2,1.2,3.3,1.2c0.8,0,1.6-0.3,2.4-1
		c0.2-0.2,0.7-0.2,1.1-0.2c1.3-0.1,2.7-0.1,4-0.1c5.3,0,10.6,0.6,15.6,2.6c5.2,2,9.4,5.3,12.6,10.1c1.9,2.7,3.4,5.6,4.9,8.5
		c1.6,3,2.7,6.4,3.5,9.8c1,4.1,1.9,8.2,1.5,12.4c-0.3,3.3-0.1,6.7-1.5,10c-1.1,2.6,0.9,4.8,1.7,7.1c0.1,0.3,0.3,0.3,0.5,0.3
		c0.1,0,0.2,0,0.2,0c0.5,0,1.1-0.1,1.6-0.1c1.6,0,3.2,0.2,4.8,0.2c1.5,0,3-0.1,4.5-0.7c0.1,0,0.2,0,0.3,0c0.1,0,0.1,0,0.2,0
		c6.1,0.9,12.6-0.3,18.1,3.1c3.2,2,6.3,4.4,8.3,8c1,1.8,1.9,3.6,2.7,5.5c1,2.5,1.1,4.8,0.3,7.3c-0.7,2.3-1.3,4.6-2.8,6.7
		c-1.4,2-3.3,3.3-5.1,4.3c-1.3,0.7-1.4,1.7-1.5,2.3c-0.6,3.2-2.6,5-5.3,6.3c-1.1,0.5-1.6,1.1-1.5,2.5c0.1,0.9,0.5,1,0.9,1
		c0.2,0,0.4,0,0.6,0c0.2,0,0.3,0,0.4,0.1c3.6,1.5,7,3.4,9.7,6.5c1.6-3.3,0-6.5,0.3-9.6c0.1-1.7,0.3-3.1,2.2-3.4
		c0.3,0,0.5-0.1,0.7-0.1c1.7,0,3,1.1,3.7,2.8c1.1,2.8,0.5,5.7,0.5,8.5c0,1.2,0.1,2.2,0.4,3.2c0.3,0.9,0.4,1.7-0.7,1.7
		c-0.1,0-0.2,0-0.3,0c-0.1,0-0.1,0-0.2,0c-0.6,0-0.7,0.4-0.9,1c-1.6,3.2-0.6,6.3-0.1,9.5c0.5,3,0.7,6.3-0.3,9.4
		c-0.4,1.2-0.3,2.4-0.7,3.6c-1.2,3.2-3.4,5.5-6.1,7.8c1.5,0.5,2.7,1.2,4,1.7c3.7,1.5,5.9,6.3,4.8,10.4c-0.1,0.3-0.4,0.5-0.4,0.8
		c0,1.1,0,2.3-1.4,2.3c-0.1,0-0.1,0-0.2,0c-1.4-0.1-0.8-1.6-1.3-2.4c-0.5-0.9-0.2-2.1-0.5-3.2c-0.5-2.7-2.6-3-4.5-3.2
		c-1.7-0.3-3.4-0.7-5.1-1.1c-1.3-0.3-1.9-0.9-2.4-1.9c-1.1-1.8-1.1-3.5,0-5.4c1.1-1.9,2.7-3.7,3.3-6c-0.2-0.1-0.3-0.1-0.4-0.1
		c-0.4,0-0.6,0.3-1,0.7c-1.4,1.6-2.8,3.5-4.6,4.5c-2.1,1.1-1.3,1.9-0.4,3.2c1,1.5,1.7,3.1,2.6,4.6c1.2,3.1,2.4,6.2,3.7,9.2
		c0.4,0.9,0.3,1.8,0.7,2.7c2.4,6.3,2.1,12.9,1.8,19.4c-0.1,1.3,0,3.1-1.4,4.2c-0.6,0.5-0.2,1.3-0.3,1.9c0,2,0,4,0,6
		c0,2.3-1.1,3.6-3.3,3.9c-1.6,0.2-2.7,1-3.8,2c-2.4,2.4-5.1,4-8.4,4c-0.3,0-0.7,0-1.1-0.1c-0.3,0-0.6,0-0.8,0c-2,0-3.8,0.7-5.7,1.4
		c-3.8,1.3-7.6,2.4-11.6,2.9c-2.4,0.3-4.9,1.2-7.1,2.2c-2.1,1-4.3,1.3-6.4,1.3c-2,0-4-0.3-6-0.8c-1.9-0.5-3.7-0.9-5.6-1
		c-0.2,0-0.4,0-0.6,0c-0.3,0-0.6,0.1-0.9,0.3c-0.5,0.5-1,0.9-1.5,0.9c-0.3,0-0.7-0.2-1.1-0.6c-1.1-1.1-2.7-2.3-1.9-4
		c0.5-1.1,0.1-1.6-0.6-2c-4.2-2.7-6.9-6.6-9.2-10.9c-0.5-0.9-1.2-1.1-2.1-1.1c0,0-0.1,0-0.1,0c-2.1,0-4.3,0.1-6.4,0.1
		c-1.4,0-2.9,0-4.3-0.1c-5.6-0.3-11.3-0.8-16.6-3c-0.8-0.4-1.7-0.8-2.5-1.9c-0.7,5.3-2.2,10.1-3.8,14.9c-0.5,1.5-1.1,2.9-1.8,4.3
		c-0.8,1.5-0.9,3.1-1.2,4.8c-1,5.6-2.4,10.9-7.6,14.6c-4.6,3.3-9.5,5-15.1,5.7c-2.5,0.3-5.1,1.3-7.7,2c-1.9,0.5-3.7,1.1-5.6,1.4
		c-0.2,0-0.5,0-0.7,0c-2.1,0-4-1.1-5.7-2.3c-1.7-1.2-3.3-2.5-4.1-4.6c-0.2-0.4-0.3-0.6-0.6-0.6c-0.2,0-0.5,0.1-0.8,0.4
		c-1.8,1.4-3.9,2.5-5.7,4c-0.7,0.5-1.3,0.8-2,0.8c-0.4,0-0.7-0.1-1.1-0.2c-0.6-0.2-1.2-0.4-1.8-0.4c-1,0-1.9,0.3-2.7,0.8
		c-2.7,1.6-5.5,2.8-8.6,2.8c-0.5,0-1,0-1.5-0.1c-0.1,0-0.2,0-0.4,0c-0.1,0-0.3,0-0.4,0c-0.4,0-0.8,0-1.1-0.3
		c-0.2-0.2-0.4-0.3-0.6-0.3c-0.3,0-0.5,0.2-0.4,0.6c0.3,2-1.7,2.8-2.3,4.3c-0.4,0.9-1.1,1.2-1.9,1.2c-0.4,0-0.8-0.1-1.2-0.2
		c-1.4-0.4-2-1.8-2.4-3.2c-0.8-2.8-0.6-5.6-0.6-8.6c-2.1,0.9-2.7,3-3.4,4.5c-1.8,4-4.5,7.2-7.2,10.5c-1.7,2.1-3.2,4.2-5.5,5.6
		c-0.9,0.5-0.6,1.5-1,2.3c-2.1,3.7-5.4,5.7-9.3,6.8c-0.4,0.1-0.8,0.2-1.2,0.2c-1.5,0-2.9-0.8-3.9-1.8c-0.7-0.8-1.8-1.5-2-3
		c-0.3-2.5,0.7-3.9,2.6-5.2c4-2.6,7.6-5.7,10.9-9.1c0.9-0.9,0.8-1.2-0.3-1.9c-4.5-2.8-8.9-5.7-12.4-9.7c-1.9-2.2-3.1-4.8-3.1-7.9
		c0-2.4,0.1-4.9,0-7.3c-0.2-3.8,1.6-7,3.1-10.2c1.5-3.2,2.5-6.5,4.1-9.6c1.7-3.1,1.3-6.7,2.8-9.8c0.7-1.4-0.3-3-0.7-4.4
		c-0.4-1.8-0.5-3.5-0.3-5.2c0.2-2-0.7-2.6-2.3-3.1c-2.8-0.9-4.4-2.9-4.4-5.7c0-2,1.8-4.4,4.2-4.9c1.2-0.3,1.9-0.7,1.8-2
		c-0.1-0.9,0.4-1.8,0.9-2.1c1.8-1.3,1.4-3.1,1.5-4.8c0.2-6.3,0.7-12.7,0.6-19c0-2.2-0.8-4.3-0.7-6.5c0-1.4-1.5-1.7-2.4-1.8
		c-3.7-0.4-5.7-2.9-7.7-5.5c-0.3-0.4-0.4-0.8-0.8-1c-3.1-2-3.9-5-3.3-8.4c0.1-0.9-0.2-1.7-0.6-2.5c-1.1-2.1-0.5-4.7-2.2-6.6
		c-0.4-0.4-0.2-1,0-1.5c1.6-3.6,2-7.1-0.6-10.4c-0.6-0.8,0.4-2.1-0.5-2.7c-1.9-1.5-2-3.9-3.3-5.7c-1.1-1.6-0.9-3.9-2.5-5.3
		c-0.5-0.4,0.6-0.7,0.8-1.2c0.8-1.9,0.3-4,1-5.9c0.5-1.5,1.2-2.8,2.2-3.8c2-1.9,1.9-3.8,1.7-6.4c-0.3-2.9-1.2-5.4-2-8.1
		c-0.4-1.2,0.4-2.5,0.7-3.6c1.1-3.4,3.2-6,6.5-7.9c2.7-1.5,5.4-0.5,8-1.5c1.8-0.7,3.8-1.2,5.8-1.5c1.5-0.2,2-2.2,3.2-3.3
		c2.2-2.1,4.1-4.2,7.3-4.8c1.8-0.4,1.5-2.2,1-3.1c-0.7-1.3-0.3-2.3,0.3-3c1.9-2.3,3-5.1,5.1-7.3c1.8-1.9,3.9-3.1,6.3-3.1
		c0.1,0,0.2,0,0.4,0c0.2,0,0.5,0,0.7,0c3.3,0,5.4-1.4,7.4-4.2c2.7-3.7,6.4-6.5,10.9-8.1c0.4-0.2,0.9-0.3,1.2-0.3
		c0.6,0,1.2,0.3,1.7,0.9c1.8,2.1,4.6,1.4,6.8,2.4c0.1,0,0.1,0,0.2,0c0.6,0,1.4-1.6,1.2-2.5c-0.9-4.4,1.1-7.8,5.7-9.2
		c1.3-0.4,2.5-1.3,4-1.3c0.2,0,0.4,0,0.6,0c0,0,0.1,0,0.1,0c0.5,0,0.9-0.6,1.1-1.1c1-3.1,3.4-5,5.6-7.2c2-2,3.8-4.4,5.5-6.8
		c2-2.7,4.9-3.9,7.4-5.7c3.5-2.5,7.6-2.4,11.4-2.7c3.4-0.2,4.6-2.7,6.8-4c3.9-2.4,7.8-4.5,12.3-5.7
		C247.1,20.3,247.4,20.3,247.7,20.3 M326.4,140c0.5,0,0.9-0.1,1.5-0.5c-0.6-0.2-1-0.2-1.5-0.2c-0.5,0-1,0.1-1.6,0.3
		C325.4,139.8,325.9,140,326.4,140 M346.2,139.9C346.2,139.9,346.2,139.9,346.2,139.9c0.2,0,0.3-0.3,0.6-0.6c-0.3,0-0.6-0.1-0.8-0.1
		c0,0-0.1,0-0.1,0c-0.3,0-0.3,0.3-0.1,0.4C345.8,139.9,346,139.9,346.2,139.9 M327.6,174.4c0.5,0,0.7-0.3,0.7-0.8
		c0-1.3,0.2-2.6-0.4-4c-0.7,1.3-0.1,2.9-0.9,4.1c-0.1,0.2,0.1,0.5,0.5,0.6C327.5,174.4,327.6,174.4,327.6,174.4 M346,198.2
		c0.3,0,0.6-0.3,0.9-0.6c1.2-1.4,2.5-2.7,3.5-4.1c1.2-1.7,2.5-3.4,2.8-5.1c-0.1-1.8-4.6-7.7-5.9-8c-0.2,0-0.3-0.1-0.5-0.1
		c-0.6,0-0.8,0.5-0.8,1.2c-0.1,1.9-0.2,3.8-0.8,5.5c-1.1,3.6-0.6,7,0.2,10.5C345.6,198.1,345.8,198.2,346,198.2 M332,189.5
		c0.9-1.9,1-3.4,0.4-5c-0.3-0.6-0.5-1.2-1.1-1.2c-0.2,0-0.5,0.1-0.8,0.3c-0.9,0.5-1.4,0.7-0.6,1.8
		C330.6,186.6,331.6,187.7,332,189.5 M321.3,211.8c0.3,0,0.6-0.2,0.8-0.8c0.6-2.1,2.3-3.7,3.1-5.7c0.4-1.1,0.3-1.4-0.3-2.2
		c-1.9-2.5-3.7-5.1-5.5-7.6c-0.8,1.5-1.5,3.1-2.3,4.6c-2,4.2-1,8.4,2.7,11.1C320.3,211.3,320.9,211.8,321.3,211.8 M171.8,229.6
		c0.3,0,0.5-0.5,0.7-0.6c0.3-0.2,0.6-0.4,0.8-0.6c0,0,0,0,0,0c2.2-0.9,4.5-2.2,3.6-4.8c-0.7-2.3,0.2-2.3,2.2-2.3
		c-1.5-1.1-2.6-1.9-3.8-2.8c-0.3,1.1-0.1,2-0.4,3c-0.6,2.5-2.1,4.5-2.7,6.9c-0.6,0-1.1,0.4-0.9,0.9
		C171.5,229.5,171.7,229.6,171.8,229.6 M336.2,235.7c0.4-0.4,0.7-0.6,0.8-0.9c2.2-4,1.5-11.7-1.4-15.2c-0.3-0.4-0.7-0.6-1-0.6
		c-0.4,0-0.7,0.3-0.9,0.8c-0.6,1.3-1.4,2.5-2.4,3.6c-0.9,1-0.8,2.2,0,3.3C333.4,229.4,334.7,232.5,336.2,235.7 M304,247.6
		c0.4,0,0.8,0,1.2,0c4.7,0,9.2,0.9,13.4,3.6c0.1-3.3-1-6-0.6-8.9c0-0.2-0.3-0.5-0.4-0.8c-0.8-3.3-1.1-6.6-0.7-10
		c0.1-0.8,0.2-1.6-0.2-2.1c-1.8-2.2-4-3.9-6.3-5.3c-0.3-0.2-0.6-0.3-0.8-0.3c-0.6,0-0.9,0.5-1,1.1c-0.2,1.4-1.1,2.4-1.9,3.3
		c-1.5,1.7-1.8,3.5-1,5.4c0.4,0.9,0.4,1.7,0.4,2.6C306.4,240.1,304.7,243.7,304,247.6 M181.4,227.8c0.1,0,0.2,0,0.3-0.1
		c0.5-0.6,0-1.4-0.4-1.9c0.1-0.7-0.3-1.1-1-1.2c0.1,0.7,0.1,1.4,0.1,2.1c-0.3,0.1-0.6,0.5-0.3,0.6
		C180.4,227.4,181,227.8,181.4,227.8 M288.5,244.4c1.5,0,3.2-1.1,3.3-2.4c0.2-2.1-0.3-4.2,0.6-6.2c0.2-0.4,0.2-1.1-0.5-1.3
		c-0.1,0-0.1,0-0.2,0c-0.6,0-1,0.5-0.9,0.8c0,2.5-2,4.4-2.2,6.9c-0.9,0.6-0.4,1.4-0.4,2.2C288.4,244.4,288.5,244.4,288.5,244.4
		 M210.6,235.9c0.4,0,0.8-0.2,1-0.7c-0.2-0.1-0.4-0.2-0.6-0.2c-0.4,0-0.7,0.3-1,0.8C210.2,235.9,210.4,235.9,210.6,235.9
		 M208.3,237.8C208.3,237.8,208.3,237.8,208.3,237.8c0.7,0,1-0.6,1.2-1.3c-0.4,0.5-1.3,0-1.4,0.8C208,237.5,208.2,237.8,208.3,237.8
		 M156.9,239.2c-0.6,0-1.2-0.1-1.9-0.2c-0.2-0.4-0.4-0.5-0.6-0.5c-0.2,0-0.4,0.1-0.6,0.3c-0.2,0.3,0.1,0.6,0.6,0.7
		c0.2,0.4,0.6,0.4,1,0.5c0.8,0.3,1.6,0.4,2.4,0.4c2,0,4.1-0.7,6.1-0.8c0.2,0,0.3,0,0.5,0c0.2,0,0.5,0,0.7,0c1,0,2.1-0.1,2.8-1.3
		c-0.8-0.4-1.6-0.7-2.3-1.3c-0.3-0.2-0.5-0.5-0.9-0.5c-0.2,0-0.3,0.1-0.6,0.3c-1.6,1.4-3.7,1.7-5.6,2.3
		C158,239.2,157.5,239.2,156.9,239.2 M273.5,244c0.1,0,0.2,0,0.3-0.2c0.6-0.6,0.2-1.5,0.3-2.3c0-0.5,0.1-1.1-0.5-1.1
		c0,0-0.1,0-0.2,0c-0.2,0-0.4,0-0.5,0c-1.6,0-2.8-1.1-4.2-1.5c-0.2-0.4-0.5-0.6-0.8-0.6c-0.3,0-0.6,0.1-0.8,0.3
		c-0.4,0.3,0,0.7,0.5,0.8c1.9,0.8,2.8,2.9,4.8,3.7C272.7,243.5,273.1,244,273.5,244 M139.2,288c-1,0-2-0.4-3-1.3
		c-2.4-2-3.6-4.8-4.3-7.8c-0.1-0.3,0-0.8-0.5-0.9c0,0-0.1,0-0.1,0c-0.2,0-0.5,0.1-0.5,0.2c-0.4,2.1-1.4,4.2-1.1,6.2
		c0.6,3.7,3.1,6.4,6.1,8.8c1.1,0.9,2.4,1.6,3.4,3c0.8,1.1,1.6,1.7,2.4,1.7c1,0,1.9-0.8,2.7-2.4c0.2-0.4,0.5-0.7,0.6-1.1
		c0.9-2.3,2.4-4.4,3-6.8c1-4.2,2.6-7.9,7-9.4c1.1-0.4,1.7-0.8,2.1-1.8c0.9-2.2,3.6-2.8,4.4-5.4c0.7-2.4,1.3-4.7,2.2-7.6
		c-0.7,0.6-1,0.7-1.1,0.9c-0.3,0.4-0.8,0.8-1.2,0.8c-0.2,0-0.4-0.1-0.6-0.3c-0.5-0.4-1-1.2-0.3-2.1c0.3-0.3,0.2-0.9,0.4-1.4
		c0.7-2.2,1.9-4.3,1.4-6.7c-0.3-1.2-0.6-2.2,0-3.5c0.5-1-0.1-1.7-1.3-1.7c0,0-0.1,0-0.1,0c-0.6,0-1.1,0-1.7,0
		c-1.8,0-3.5-0.1-5.3-0.5c-3.2-0.7-4.4-1.3-3.9-3.4c0.7-3.1-1.1-4.7-2.7-6.7c-2.1,4.1-2.3,8.6-3.7,12.8c-1.4,4-2.5,8.2-3,12.4
		c-0.2,1.8-1.3,3.1-1.4,5c-0.3,4.5,1,8.5,3,12.4c0.6,1.2,1.6,2.4,0.8,3.9C141.8,287.1,140.6,288,139.2,288 M342.3,246.4
		c0.1,0,0.2-0.1,0.2-0.3c0.1-1.6,0.4-3.3-0.1-5c-0.9,0.5-0.4,1.4-0.8,1.9c-0.4,0.9-0.5,1.9,0.1,2.8
		C341.8,246.1,342.1,246.4,342.3,246.4 M258.7,246c0.3,0,0.5,0,0.8,0c-1.9-1-2.4-2.6-3.8-3.4c-0.3-0.2-0.6-0.3-0.9-0.3
		c-0.7,0-1.3,0.6-1.5,1c-0.6,0.9,0.8,0.8,1.2,1.1C255.6,245.1,256.8,246,258.7,246 M328.5,250.4c0.1,0,0.2,0,0.2,0
		c1.1-0.3,1.9-2.4,1.3-3.3c-0.8-1.2-1.7-2.4-3-4.1c-0.2,2.6,0.9,4.5,0.6,6.5C327.5,249.8,327.9,250.4,328.5,250.4 M232,244
		c-0.5,0-1,0-1.5,0c-0.8,0-1.6,0.1-2.4,0.4c-4.3,1.9-8.5,3.9-12.3,6.5c-1.7,1.1-2.9,2.8-3.3,4.9c-0.2,1.4,1.3,0.6,1.7,1.7
		c0.9,2.2,2.4,4.3,3.4,6.6c1,2.4,2.3,4.7,3.5,7c0.1,0.3,0.4,0.8,0.7,0.8c0.2,0,0.3-0.1,0.5-0.4c2-2.8,4.6-4.8,8-5.7
		c0.4-0.1,0.8-0.5,0.8-1c0-1.5,0.3-3.2-0.2-4.6c-0.7-1.8,0.3-2.9,1-4.1c0.3-0.6,0.7-0.8,1.2-0.8c0.7,0,1.4,0.5,2.1,0.6
		c0.3,1.4-0.5,3,0.8,4.1c-0.2,0.5-1,0.7-0.8,1.5c0.1,0.3,0.3,0.3,0.5,0.3c0.1,0,0.2,0,0.3,0c0.9-0.2,0.4-0.9,0.5-1.5
		c0.5-2.7,0.7-5.4,1.5-8c1.2-3.6,1.3-4-1.4-6.6c-0.7-0.7-1.8-2.1-2.3-2.1c0,0-0.1,0-0.1,0C233.6,243.9,232.8,244,232,244
		 M172.1,253.3c0.2,0,0.5-0.1,0.9-0.3c1.1-0.6,2.6-0.3,3.3-1.4c0.2-0.7-0.1-0.8-0.6-1c-0.4-0.2-0.9-0.2-1.3-0.2c-1,0-2,0.4-3.1,0.4
		c-0.4,0-0.9,0.4-0.5,1.3C171.2,252.8,171.5,253.3,172.1,253.3 M171.3,277.3c1.4-0.9,2.1-2.2,2.8-3.4c0.7-1.2,1.4-2.4,2.6-2.4
		c0.4,0,1,0.1,1.6,0.5c0.3,0.2,0.6,0.3,0.9,0.3c0.5,0,0.9-0.3,1.3-1c0.3-0.6,0.8-1,1.6-1c0.1,0,0.1,0,0.2,0c0.1,0,0.2,0,0.3,0
		c1.2,0,1.6-0.9,1.5-2.1c0-3.6-0.1-7.1,0-10.7c0-1-0.5-1.7-0.8-2.5c-0.2-0.4-0.4-0.7-0.7-0.7c-0.2,0-0.5,0.2-0.8,0.5
		c-1.7,2.2-4.1,3.1-6.7,3.5c-0.7,0.1-1.5,0.9-1.1,1.3c1.1,1.2,0.1,2.2-0.1,3.3c-0.5,3-1.4,6-1.7,9
		C172.3,273.9,170.4,275.2,171.3,277.3 M335.8,256c0,0,0.1,0,0.2,0c0,0,0.1,0,0.1,0c0.2,0,0.3,0,0.3-0.3c-0.1-0.3-0.4-0.5-0.6-0.8
		c-0.2,0.2-0.5,0.3-0.6,0.6C335,255.9,335.4,255.9,335.8,256 M296.9,259.6c0.6,0,1.2-0.1,1.9-0.3c-2-0.7-3.7-1.2-5-2.4
		c-0.3-0.2-0.5-0.4-0.8-0.4c-0.2,0-0.3,0.1-0.5,0.3c-0.4,0.6,0.2,1,0.6,1.3C294.2,258.9,295.4,259.6,296.9,259.6 M303.5,264.4
		c0.4,0,0.8-0.1,1.1-0.1c0.1,0,0.2,0,0.2,0c0.2,0,0.3,0,0.5,0c0.3,0,0.7,0,1.2,0c0.4,0.1,0.9,0.1,1.4,0.1c1.2,0,2.4-0.3,3.3-1
		c1.4-1.2,3.1-1.4,4.6-2.2c1.3-0.6,0.2-1.5-0.3-1.5c-1.9-0.1-3.5-1.3-5.4-1.4c-0.2,0-0.4,0-0.6,0c-1,0-1.8,0.2-2.4,1.6
		c-0.5,1.2-2.1,1.8-2.9,3c-0.4,0.6-1.9-0.2-1.6,0.9C302.8,264.3,303.1,264.4,303.5,264.4 M205.3,272.7c-0.4,0-0.8-0.1-1.2-0.2
		c-0.3-0.1-0.5-0.2-0.6-0.2c-0.4,0-0.6,0.2-0.7,0.6c-0.9,2.2-1.7,4.3-1.8,6.7c0,0,0,0-0.1,0c0,0,0,0,0,0c-0.1,0-0.2,0-0.3,0
		c-0.4,0-0.8,0.1-0.9,0.7c0,0.2,0.2,0.5,0.2,0.5c0,0,0,0,0,0c0.7-0.1,1.2-0.4,1.1-1.2c0,0,0,0,0,0l0,0c0,0,0,0,0,0c0,0,0,0,0,0l0,0
		c0,0,0,0,0-0.1c0.4-0.2,0.9-0.2,1.3-0.2c1.3,0,2.2,0.7,2.1,2c-0.1,1.3-0.5,2.7-1.5,3.6c-2.6,2.4-2.4,5,0.6,6.7
		c0.3,0.2,0.4,0.6,0.6,0.9c0.6,0.6,1.1,1.1,1.8,1.1c0.4,0,0.9-0.2,1.3-0.8c0.2-0.3,0.4-0.4,0.6-0.4c0.2,0,0.4,0.1,0.7,0.3
		c0.4,0.3,1,0.5,1.5,0.5c0.2,0,0.3,0,0.4-0.1c2.2-1.6,5.4,0.2,7.2-2.4c0.1-0.1,0.2-0.2,0.3-0.2c0.2,0,0.3,0.1,0.5,0.2
		c0.4,0.2,0.8,0.3,1.2,0.3c1.1,0,2-0.7,2.9-1.5c-4.5-1.5-6-6.6-4-9.8c0.6-0.9,0.9-1.9-0.8-1.9c-0.7,0-0.7-0.5-0.6-0.9
		c0.2-1.1-0.2-2.1-0.6-2.9c-1.1-2-1-4.5-2.7-6.1c-0.1-1.6-0.9-2.9-1.9-4.4c-0.2,1.8-1.1,3.6,1.1,4.5c0,1-0.6,1.4-1.5,1.6
		c-1.3,0.3-2.7,0.8-3.6,1.8C207,272.3,206.2,272.7,205.3,272.7 M224.2,284.8c0.9,0,1.6-0.5,2.4-0.5c0.2,0,0.4,0,0.6,0.1
		c0.3,0.1,0.5,0.2,0.8,0.2c0.6,0,1.1-0.3,1.2-0.9c0.4-1.2-1-1.8-1.5-2.6c-0.1-0.2-0.6-0.3-1.1-0.3c-0.5,0-1.1,0.1-1.2,0.6
		c-0.4,1.2-1.4,2.1-1.4,3.5C224.1,284.8,224.2,284.8,224.2,284.8 M228,286.7c0.3,0,0.5-0.3,0.7-0.5c0.2-0.4-0.1-0.4-0.2-0.5
		c-0.1,0-0.2,0-0.3,0c-0.3,0-0.5,0.1-0.5,0.5c0,0.2,0.1,0.5,0.2,0.5C227.9,286.7,227.9,286.7,228,286.7 M247.7,5.3
		C247.7,5.3,247.7,5.3,247.7,5.3c-1.6,0-3.2,0.2-4.7,0.6c-6.5,1.7-11.9,4.7-16.3,7.4c-1.1,0.7-2,1.4-2.8,2
		c-4.3,0.3-10.5,1.1-16.4,5.3c-0.3,0.2-0.8,0.6-1.4,0.9c-2.5,1.5-6.2,3.8-9.3,8.1c-1.4,1.9-2.8,3.8-4,5c-0.3,0.3-0.6,0.6-0.9,0.9
		c-1.3,1.2-3,2.9-4.6,5.1c-4.7,1.5-8.5,4.1-11.2,7.5c-1.9,0.1-3.9,0.4-5.8,1.1c-6.6,2.4-12.3,6.3-16.5,11.6
		c-4.2,0.4-9.7,2.2-14.9,7.6c-2.3,2.4-3.7,4.8-4.8,6.5c-0.3,0.5-0.8,1.2-0.9,1.5c-1.6,1.8-2.7,3.9-3.4,6.1c-1.4,1.1-2.6,2.3-3.6,3.2
		l-0.5,0.5c-0.2,0.2-0.4,0.4-0.5,0.5c-0.7,0.2-1.4,0.4-2.1,0.7c0,0,0,0-0.1,0c-2.3,0.1-6.6,0.3-11.3,2.9c-6.4,3.6-10.9,9-13.3,15.9
		l0,0.1c-0.7,1.8-2.7,6.7-0.9,12.7c0.2,0.6,0.3,1.1,0.5,1.7c0.2,0.6,0.4,1.2,0.5,1.7c-1.1,1.8-2.1,3.8-2.8,6c-0.6,1.8-0.8,3.4-1,4.7
		c-1.3,2.6-1.7,5-1.7,6.6c-0.1,3.3,0.9,6.4,2.7,9.1c0.4,1.2,1,2.7,2,4.4c0,0,0,0.1,0,0.1c0.4,1,1,2.5,1.9,4.1
		c0.2,0.9,0.5,1.8,0.9,2.6c-1.5,4.5-1,9.2,1.2,13.2c0.2,0.9,0.4,2.1,0.9,3.4c-0.1,6.9,2.6,13.1,7.7,17.5c1.4,1.9,3.8,4.9,7.4,7.2
		c0,3-0.2,6.1-0.3,9.4c-0.1,1.5-0.1,3-0.2,4.5c-5.1,3.8-8.4,9.8-8.4,16.1c0,6.3,2.6,11.8,7,15.7c0.1,0.5,0.2,0.9,0.3,1.4
		c-0.3,1.3-0.5,2.5-0.7,3.5c-0.1,0.3-0.1,0.7-0.2,1c-1.3,2.4-2.2,4.8-3,6.8c-0.4,1.1-0.9,2.2-1.3,3.1c-0.2,0.4-0.3,0.7-0.5,1.1
		c-1.7,3.6-4.4,9.1-4,16.3c0.1,1.3,0,2.8,0,4.4c0,0.6,0,1.3,0,1.9c-0.1,6.5,2.3,12.7,6.8,17.9c0.4,0.4,0.8,0.9,1.2,1.3
		c-4.3,4.3-6.3,10.1-5.6,16.3c0.7,6.5,4.6,10.2,5.9,11.5c3.9,4.2,9.3,6.7,14.9,6.7c1.7,0,3.5-0.2,5.1-0.7c8-2.2,14.3-6.9,18.3-13.7
		c0.1-0.1,0.1-0.2,0.2-0.3c1.4-1.3,2.5-2.6,3.5-3.7c1.5,0.4,3.1,0.6,4.6,0.6c5.1,0,9.7-2.1,12.8-5.7c2.9-0.4,5.9-1.4,8.8-2.8
		c0.4,0,0.9,0,1.3,0c2.3,0,4.6-0.5,6.8-1.3c2.6,1.6,6.9,3.6,12.2,3.6c0.8,0,1.7,0,2.5-0.1c2.6-0.3,4.7-0.9,6.5-1.4
		c0.4-0.1,0.8-0.2,1.2-0.3c1-0.3,2-0.5,2.8-0.8c1.1-0.3,2.5-0.7,3.1-0.8c8.3-1.1,15.5-3.9,21.8-8.4c10.7-7.7,12.8-19.3,13.6-24.2
		c0.1-0.4,0.1-0.7,0.2-1.1c0-0.1,0-0.2,0.1-0.4c0.8-1.8,1.6-3.6,2.2-5.5c0-0.1,0.1-0.2,0.1-0.3c2.7,0.3,5.3,0.5,7.8,0.6
		c1.4,0.1,3,0.1,4.7,0.1c1.2,1.6,2.6,3.3,4.3,4.9c0.8,2.6,2.5,5.4,5.3,8.1l0.2,0.2c3.2,3.4,7.5,5.3,12,5.3c1.4,0,3.1-0.2,4.9-0.8
		c0,0,0,0,0,0c3.4,0.9,6.6,1.3,9.7,1.3c4.4,0,8.7-0.9,12.6-2.7c1.7-0.8,2.6-0.9,2.9-1c4.5-0.6,8.9-1.7,14.5-3.6l0.7-0.3
		c0.2-0.1,0.4-0.2,0.7-0.2c0.4,0,0.9,0,1.3,0c6.3,0,12.2-2.3,17.4-6.9c7.7-2.3,13-9.2,13.1-17.8c0-1.1,0-2.2,0-3.2
		c0-0.1,0-0.2,0-0.2c1.5-3.4,1.6-6.6,1.7-8l0-0.2c0.1-2.5,0.2-5.2,0.2-8.1c1.7-0.8,3.3-1.9,4.7-3.3c2.4-2.4,3.9-5.4,4.5-8.8
		c0.1-0.2,0.1-0.4,0.2-0.7c1.7-6.6,0.4-13.5-3-19c0.7-1.9,0.9-3.6,1-4.6c1.6-5.8,1.2-11.2,0.6-15.3c0,0,0-0.1,0-0.1
		c1.7-2.5,3.7-7.1,2.1-13.3c0-0.2,0-0.5,0-0.7c0.2-3,0.5-7.6-1.5-12.8c-0.8-2.1-1.9-4.1-3.3-5.7c0.4-1,0.7-2,0.9-2.8
		c0.1-0.3,0.2-0.5,0.3-0.8c1.9-5.9,1.7-11.8-0.7-17.6c-1.1-2.7-2.4-5.1-3.5-7.1c-3.9-7-9.6-11-13.5-13.5c-7.1-4.4-14.4-4.7-19.7-4.9
		c-1.4-0.1-2.8-0.1-3.8-0.2c0-0.2,0-0.4,0-0.6c0.6-6.7-0.7-12.6-1.8-17.3c-0.8-3.4-2.2-8.6-4.9-13.5l-0.4-0.8
		c-1.5-2.8-3.2-5.9-5.3-9c-2.8-4.2-6.2-7.7-10.2-10.5c2.5-4.7,2.5-9.2,2.5-11.7c0-0.3,0-0.7,0-0.8c0.3-4.5-0.5-13-9.9-19.5
		c-5.7-4-11.2-6.4-17.2-7.5c-0.6-0.1-1.1-0.2-1.7-0.3c-3-0.6-6.3-1.3-10.1-1.4c-0.6-0.1-1.4-0.2-2.2-0.2c-0.3,0-1-0.2-1.6-0.4
		c-2.1-0.5-4.9-1.2-8.4-1.2c0,0-0.1,0-0.1,0c-0.1,0-0.1,0-0.2,0c-1.6-2.6-3.9-4.8-6.8-6.3C256.4,7.2,252.6,5.3,247.7,5.3L247.7,5.3z
		 M234.1,258.1L234.1,258.1L234.1,258.1L234.1,258.1z"/>
</g>
</svg>
