<?xml version="1.0" encoding="utf-8"?>
<!-- Generator: Adobe Illustrator 24.1.0, SVG Export Plug-In . SVG Version: 6.00 Build 0)  -->
<svg version="1.1" id="Livello_1" xmlns="http://www.w3.org/2000/svg" xmlns:xlink="http://www.w3.org/1999/xlink" x="0px" y="0px"
	 viewBox="0 0 474 405.9" style="enable-background:new 0 0 474 405.9;" width="50" height="50" xml:space="preserve">
<style type="text/css">

		.Stile_x0020_grafica{fill:#FEFEFE;stroke:#000000;stroke-width:15;stroke-linecap:round;stroke-linejoin:round;stroke-miterlimit:10;}
	.st0{fill:#FEFEFE;}
</style>
<g>
	<path class="st0" d="M225.9,393.9c-1.4,0-2.5-0.3-3.3-0.5c0,0-0.1,0-0.1,0c-0.2,0-0.5,0-0.7,0c-0.4,0-0.8,0-1.2,0
		c-1.3,0-3.2-0.1-5.3-1l-0.1,0c-3.4-1.4-5.4-3.5-6-6.4c-0.3-0.3-0.9-0.7-1.4-1c-0.6-0.4-1.2-0.9-1.8-1.3l-0.7-0.6
		c-3.2-2.5-6.2-4.9-9.5-5.9c-0.1,0-0.6-0.1-0.9-0.1c-0.6-0.1-1.5-0.2-2.4-0.4c-1.9-0.4-3.5-1.2-4.7-1.9c-1,0.4-2,0.6-3.1,0.6
		c-0.8,0-1.4-0.1-2.1-0.3c-0.8,0.5-1.9,0.9-3.1,1.1c-1.3,0.5-2.7,0.7-4.2,0.7c-0.5,0-1.1,0-1.6-0.1c-0.2,0-0.4,0-0.6,0
		c-0.3,0-0.6,0-0.9,0c0,0,0,0,0,0c-1.4,0.7-2.9,1.1-4.5,1.1c-1.1,0-2.2-0.2-3.2-0.5c-0.2,0-0.4-0.1-0.7-0.1
		c-1.9-0.2-5.3-0.7-8.2-3.7c-0.8-0.8-1.3-1.7-1.7-2.7c-0.2-0.1-0.4-0.2-0.7-0.3c-0.3-0.1-1.1-0.2-1.8-0.3c-1.6-0.2-3.7-0.5-6-1.5
		c-1.8-0.8-3.2-2.3-3.9-4.1c-0.1,0-0.1,0-0.2-0.1c-1.8-0.6-3.3-2-4.2-3.6c-1.7-0.9-3-2.5-3.6-4.5c0,0,0,0,0,0
		c-1.9,0-3.9-0.4-5.8-1.3c-0.9,0-2.3-0.1-3.8-0.7c-3.9-1.6-6.3-4.5-8-7.1c-2-3-3.8-6-5.5-8.9c-2.1-3.6-4.1-6.9-6.4-10
		c0.8,3.1,1.8,6.3,3.1,9.9c0.2,0.6,0.6,1.3,1,2.1c0.8,1.4,1.7,3.2,2.3,5.4c3.1,2.9,4,7.4,2.1,11.3c-1.6,3.5-4.8,5.6-8.3,5.6
		c-0.7,0-1.4-0.1-2-0.2c-0.6,0.1-1.4,0.3-2.2,0.3c-0.3,0-0.7,0-1-0.1c-4.3-0.5-8.7-0.5-12.1-0.5c-1.8,0-3.6,0-5.4,0
		c-1.8,0-3.5,0-5.3,0c-7.1,0-9.4-4.7-10.2-7.6c-0.3-1.2-1.4-2.5-2.7-4.1c-1.4-1.7-2.9-3.6-4.1-6.1c-0.7-1.4-1.5-2.8-2.4-4.4
		c-1.9-3.3-4.1-7.1-5.3-11.7c-1-3.8-2.6-7-4.9-9.5c-0.5-0.6-1-1.1-1.5-1.7c-0.8-0.9-1.6-1.8-2.3-2.6c-1.4-0.4-3.4-1.3-4.9-3.4
		c-1.3-1.9-1.8-4.3-1.3-6.7c0.8-4.3,4.3-6.1,5.6-6.7c0,0,0.1,0,0.1-0.1c0.4-0.4,0.9-0.7,1.3-1c1-0.8,1.9-1.5,2.4-2.1
		c2.3-2.9,5.2-4.6,7.5-6c0.8-0.5,1.6-0.9,2.2-1.4c0.9-0.7,1.2-1,1.3-1.1c1.9-3.3,4.9-4.6,6.5-5.4c0.2-0.1,0.5-0.2,0.7-0.3
		c0.1-0.1,0.4-0.2,0.7-0.4c0.8-2.3,2-4.5,3.7-6.8c0,0,0,0,0-0.1c-0.3-3.7,1-7.1,4-10.2c2.3-2.4,4.9-4.8,7.9-7.1
		c0.2-0.4,0.5-1.1,0.7-1.6c1.7-3.9,3.4-8,5-12c1.4-3.4,3.4-5.5,5.5-6.8c-0.5-5.7,3-9.8,4.9-12.1l0.5-0.6c4.4-5.3,10.1-8.2,14.3-9.9
		c0.8-1.4,1.9-2.2,2.6-2.7c1.9-1.2,3.7-2.8,5.7-4.5c3.7-3.3,7.9-7.1,13.9-9l0.3-0.1c1.8-0.6,3.8-1.2,6.1-1.6c0.2-0.5,0.3-1,0.4-1.4
		c0.7-3.3,2.8-6.1,5.8-7.9c-1-5.5-0.1-10.2,2.7-14c2.2-2.9,5.3-4.1,7.4-4.8c0.3-0.1,0.6-0.2,0.9-0.4c3.5-1.5,6.8-3.8,10.2-6.2
		c1.2-0.9,2.5-1.7,3.7-2.6c2-1.3,3.4-3.1,5.2-5.5c0.4-0.5,0.8-1,1.2-1.5c1.6-2.1,1.8-3.3,1.6-5.1c-0.5-3.7,1.3-6.6,2.1-7.9
		c3.7-5.9,5.9-12.9,7.5-18.9c0.9-3.3,0.9-5.5-0.1-7.3c-2.1-3.9-1.7-8.4,1.1-13.3l0.5-0.8c1.3-2.3,2.8-5,5.2-7.3
		c1.3-5.9,5.9-8.1,9.5-8.1c0.5,0,1.1,0,1.6,0.1c0.2,0,0.4,0,0.6,0c1.9,0,4.1-1.5,6.6-3.2c0.4-0.3,0.8-0.5,1.2-0.8
		c2.6-1.7,5-3.2,7.1-4.4c2.1-1.2,4.1-2.6,6.2-4.1c1.7-1.2,3.5-2.4,5.3-3.6c4-2.5,7.6-5.8,11.3-9.4c1.8-1.7,3.7-3.5,5.7-5.2
		c0.8-0.6,1.5-1.4,2.3-2.2c2.5-2.4,5.2-5.1,9.3-6.9c0.1-0.1,0.6-0.3,0.9-0.5c1.1-0.7,2.7-1.8,4.7-2.4c1-1.5,2-2.7,2.9-3.9
		c1-1.3,2-2.5,2.6-3.7c2.1-3.9,5.8-4.7,7.2-4.9c3.2-1.3,6.3-1.8,9-2.2c1.4-0.2,2.6-0.4,3.8-0.7c2.9-0.7,5.8-1.2,8-1.6
		c2.7-0.5,5.6-1.6,8.5-2.7c2.5-0.9,5-1.9,7.7-2.7c1.4-0.4,3-0.9,4.6-1.5c1-0.4,2.1-0.7,3.1-1.1l0.1,0c0.7-0.3,2-0.7,3.7-0.7
		c0.5,0,0.9,0,1.4,0.1c0.9-0.3,1.6-0.5,2.2-0.6c0.1,0,0.3-0.1,0.4-0.1c1.3-0.9,2.9-1.3,4.5-1.3c1.5,0,2.7,0.4,3.3,0.6l0.1,0
		c2.1,0.5,3.9,1.3,5.5,2.1c1.3,0.6,2.4,1.1,3.4,1.3c0.2,0,0.4,0,0.6,0c0.5,0,1,0,1.4,0.1l0.8,0c0.7,0,2.5,0,4.4,0.8
		c1.1-0.2,2.1-0.3,3.1-0.3c2.5,0,8.5,0.9,10.8,9c0.9,3.1,2,5.1,3.7,6.5c0,0,0.1,0,0.1,0.1c0.6,0.3,1.7,0.9,2.8,1.8l0.4,0.3
		c0.6,0.5,1.5,1.3,2.4,2.4c0.4-0.1,0.8-0.1,1.1-0.1l0.1,0c1.6-0.2,3-0.3,4.4-0.3c4.1,0,7.6,0.8,10.7,2.6c1.5-0.4,3-0.6,4.6-0.6
		c3.2,0,6.4,0.9,9.9,2.7c1.1,0.6,2.3,1.1,3.7,1.6c2.9,1.2,6.2,2.5,9.3,5c5,4.1,9,9.2,11.6,15.1c1.2,2.6,1,5,0.9,6.6
		c0,0.3,0,0.5,0,0.8c0.1,3.1-1.2,5.1-2.3,6.2c-1.5,1.6-3.6,2.5-5.9,2.5c0,0,0,0,0,0c-0.2,0-0.5,0-0.7,0c-4.3-0.3-6.4-2.9-7.4-4.9
		l-0.2-0.5c-0.6-1.3-1.6-3.3-2.2-3.7c0,0,0,0,0,0c0,0-0.2,0-0.4,0c0,0-0.4,0-0.5,0c-4.4,0-6.9-2.9-8-4.2c0-0.1-0.1-0.1-0.1-0.2
		c-0.3-0.2-0.9-0.4-1.6-0.5c-0.2,0.4-0.5,0.7-0.8,1.1c-1.6,1.8-3.8,2.8-6.3,2.8c-0.1,0-0.3,0-0.3,0c-0.3,0-0.5,0-0.8,0
		c-0.5,0-1,0.1-1.5,0.1c-2.1,0-4-0.4-5.8-1.2c-1.1-0.5-1.9-1.2-2.6-1.8c-0.2,0.1-0.4,0.1-0.5,0.1c-0.7,0.2-1.5,0.4-1.8,0.6
		c-0.1,0.1-0.3,0.2-0.5,0.3c-1.1,0.6-2.9,1.7-5.3,2c-1.7,1.8-3.5,2.6-5.3,2.9c-1.5,1.5-3.1,2.7-4.5,3.7c-1.7,1.3-3.1,2.4-4.1,3.6
		c0.3,0,0.7,0,1,0c2.3,0,4.5,0.7,6.2,2c0.3,0,0.6,0,1,0c0.4,0,1,0,1.5,0.1c1.3-0.9,2.8-1.4,4.4-1.4c0.3,0,0.7,0,1,0.1
		c2.6,0.4,4.9,2.1,5.9,4.5c0.6,1.4,1.4,2.8,2.2,4.4c2.2,4.1,4.8,8.9,5,15c3,1.4,5.6,3.6,7.8,6.6c0-0.2,0.1-0.3,0.1-0.5
		c-1.2-3.6-0.2-6.1,1-7.7c-0.1-0.8-0.1-1.5-0.1-2.1c0-0.8-0.1-2-0.2-2.4c-1.8-2-2.7-4.7-2.6-7.3c0.2-2.4,1.3-4.6,3.1-6.2
		c1.5-1.3,3.5-2,5.5-2c1.9,0,4.7,0.6,7.4,3.7l0.1,0.2c2.4,2.7,5.8,6.4,6.2,12.7c0.2,3,0.9,6.2,1.9,9.1c0.9,2.4,1.1,4.7,1.3,6.6
		c0.1,1,0.2,2,0.4,2.6c0.7,2.7,1,5.2,1.3,7.7c0.3,2.6,0.7,5,1.3,7.2c1.2,3.9,0.1,7.3-0.6,9.3c-0.2,0.4-0.3,1-0.4,1.2
		c-0.1,0.5-0.2,0.9-0.4,1.3c-0.2,8.1-4.9,13.9-7.7,17.5c-0.8,1-3.3,4.2-7.7,4.2c-0.4,0.3-0.8,0.6-1.2,0.9c-0.8,2.7-2,5.2-3.8,7.2
		c1.3-0.7,2.7-1,4.1-1c3.3,0,6.3,1.9,7.9,5c0.5,0.9,1.2,1.9,2,3.1c2,2.7,4.4,6.1,5.2,10.9c0.3,2.1,0.4,4,0.5,5.9
		c0,0.8,0.1,1.7,0.2,2.5c0,0.5,0.1,1.1,0.1,1.6c0.2,2.8,0.4,5.2,1.2,7.2c1.2,2.9,1.2,6.2,0,9c-0.7,1.6-1.7,3-3.1,4.1
		c0,2.4-0.3,4.6-0.6,6.6c-0.1,0.4-0.1,0.9-0.2,1.3c1.6,4.2,0.4,7.8-0.2,9.9c-0.1,0.3-0.2,0.5-0.2,0.8c-1.3,4.8-4.5,6.3-6.6,6.8
		c0,2,0,4.1,0,6.1c0.2,1.1,0.5,3.6-0.9,6c0.4,0,0.7-0.1,1.1-0.1c0.7,0,1.3,0.1,1.9,0.2c5.5,1.3,9.7,6.5,10.1,12.6
		c0.5,6.5-1.1,11.8-4.8,16c0,0.3-0.1,0.7-0.1,0.9l0,0.4c-0.3,2.9-1.5,5-2.4,6.3c-0.1,0.2-0.3,0.5-0.4,0.7c-0.2,0.3-0.3,0.6-0.4,0.9
		c0.1,1.4,0.2,4.4-2.2,7c-0.6,0.7-1.3,1.2-2.1,1.7c-0.1,1-0.2,2.1-0.3,3.1c-0.3,3.4-0.6,6.6-0.5,9.7c0.1,6.6-4.6,8.9-7.4,9.2
		c-0.3,0-0.7,0.1-1,0.1c-0.4,0-0.7,0-1.1-0.1c2.1,2.1,3.6,4.5,4.9,6.5c0.3,0.5,0.7,1,1,1.5c0,0.1,0.1,0.1,0.1,0.2
		c1.5,0.5,3,1.4,4.3,2.9c1.5,1.8,2.2,4.1,2,6.5c-0.3,2.2-1.6,6.2-7.5,7.7c-1,0.3-2,0.4-3.1,0.4c0,0-0.1,0-0.1,0
		c-0.2,0.1-0.3,0.2-0.5,0.3c-0.1,0-0.1,0.1-0.2,0.1c-0.2,0.2-0.6,0.4-1,0.7c-0.2,0.5-0.4,0.9-0.6,1.3c-1.3,2.3-3.6,4-6.3,4.4
		c-0.8,0.1-2,0.7-3.2,1.4c-1.2,0.6-2.5,1.3-4,1.9c-1.1,0.4-2.1,0.7-3,0.9c-0.4,0.1-0.8,0.2-1.3,0.4c-0.6,0.2-1.7,0.6-3.2,0.6
		c-0.1,0-0.2,0-0.3,0c-2.4,3.6-6.4,6.3-12.1,8.2c-0.9,0.3-1.8,0.4-2.7,0.4c-1.3,0-2.6-0.3-3.7-0.9c-0.3,0.3-0.6,0.5-0.9,0.8
		c-0.2,1-0.6,2.1-1.3,3.1c-0.3,1.8-1,3.1-1.7,4c-2.3,3-5.6,3.3-6.9,3.5l-0.2,0c-1.8,0.4-3.5,0.8-5.4,1.2c-1.6,0.4-3.2,0.8-4.8,1.1
		c-0.8,0.2-1.6,0.3-2.3,0.3c-1.8,0-3.6-0.5-5.2-1.3c-1.2,1.2-3,2.4-5.5,2.7c-0.6,0.1-1.2,0.2-1.8,0.2c-1.8,0.3-3.9,0.5-6.1,0.5
		c-3.7,0-6.9-0.8-10-2.4c-2.2-1.2-5.3-1.6-8.6-2c-1.3-0.2-2.6-0.3-3.9-0.6c-3.7-0.6-7.6-0.6-11.7-0.7c-2.3,0-4.7,0-7.2-0.1
		c-0.2,0-0.8,0.1-1.2,0.2c-0.4,0.1-0.8,0.2-1.1,0.2c-1.8,0.3-3.6,0.5-5.4,0.5c-3,0-6-0.5-9-1.5c-0.1,0-0.2,0.1-0.3,0.1
		c-3.3,1.7-7,2.5-10.8,2.5c-0.6,0-1.3,0-1.9-0.1c-0.1,0-0.3,0-0.4,0c-0.6,0-1.3,0.1-2.1,0.1c-0.1,0-0.2,0-0.3,0
		c-1.9,1.6-4.3,2.5-6.8,2.5c-1,0-2-0.2-3-0.5c-0.2,0-0.6-0.1-0.9-0.1c-0.5-0.1-1.2-0.1-1.9-0.3c-1.6,0.9-3.3,1.3-5,1.3
		c0,0-0.1,0-0.1,0c-0.5,1-1.1,1.9-1.9,2.7C230.7,392.9,228.4,393.9,225.9,393.9z M394,282.5c2.2,0,4.2,0.7,6,2
		c1-0.6,2.2-1.1,3.7-1.3c3.3-3.5,5.9-6.6,7.8-10.2c-0.1-0.3-0.2-0.6-0.2-0.9c-0.1-0.3-0.2-0.6-0.2-0.9c-0.9-1.6-1-3.2-0.9-4.3
		c0.1-1.3,0.5-2.6,1.2-3.7c-0.2,0-0.4,0-0.5,0c-1.2,0-2.7-0.3-4.2-1.2c-0.6,0-1.2-0.1-1.8-0.3c-1.2,0.7-2.7,1.2-4.4,1.4
		c-1.5,4.7-4.8,6.1-6.9,6.5c-1,3.7-3.5,5.9-5.2,7.2c0,0.2,0.1,0.4,0.1,0.6c0.3,1.8,0.6,4,0.4,6.4c0.9-0.6,1.9-1,2.9-1.2
		C392.5,282.6,393.3,282.5,394,282.5z M371.3,240.8c0.4,0.4,0.9,0.8,1.3,1.2c0,0,0.1-0.1,0.1-0.1c1.9-1.5,4.1-3.3,6.6-4.7
		c0.1-0.2,0.2-0.4,0.3-0.5c2.1-3.7,4.4-7.2,6.6-10.6l0.9-1.4c0.4-0.7,0.7-1.6,1-3.2c0.3-1.4,0.7-3.1,1.4-4.8c1.1-2.9,3.9-4.7,7-4.7
		c0,0,0.3,0,0.3,0c0.1,0,0.3,0,0.4,0c1-0.5,2.1-0.9,3.2-1.1c0.4-3.7,2.7-7.3,3.6-8.5c1-1.3,2.1-2.1,3.2-2.6c0.1-0.3,0.2-0.6,0.4-0.9
		c0.3-0.8,0-2.2-0.7-4.6c-0.2-0.6-0.3-1.2-0.5-1.9c-0.4-1.4-0.5-3-0.4-4.6c0.1-1.2,0-1.5-0.1-1.5c-1.6-2-2.3-4.4-1.9-6.9
		c0.2-1.3,0.7-2.4,1.3-3.5c-1.7,1.2-3.6,2-5.7,2.5c-1.7,1.1-3.4,1.7-4.7,2.1c-0.4,0.1-0.8,0.3-1.2,0.4c-0.5,0.2-0.9,0.4-1.4,0.6
		c-2.2,0.9-3.6,1.5-4,2.3c-2.6,5.3-6.6,6.1-8.8,6.1c-0.2,0-0.5,0-0.7,0c-0.7,2.2-1.3,4.1-1.3,6c0,6.2,0.5,12,1.8,17.8
		c1.8,8.4,0,16.2-5.1,22.6C373.2,237.7,372.3,239.2,371.3,240.8z M332.6,64.2c1,0.3,2,0.8,2.9,1.3c0.3,0,0.7-0.1,1-0.1
		c0,0,0,0,0.1,0c0.3-0.5,0.7-1.1,1.1-1.6c1-1.6,2.1-3.3,3.7-5.1c1-1.1,2-2.3,2.3-3.3c1-3.4,3.6-5.7,7.1-6.5c0.5-0.1,0.7-0.2,0.8-0.2
		c1.2-0.7,2.3-1.2,3.5-1.8c-2.4-0.6-4.8-2.1-6.3-4.8c0,0,0,0,0,0c-0.7,0-1.6,0-2.6-0.2c-1.1,1.1-2.7,2.2-4.9,2.6
		c-0.4,0.7-0.7,1.4-0.8,2.1c-1,5.4-3.4,8.6-7.8,9.9C333.6,59.4,333.5,62,332.6,64.2z"/>
	<path d="M338.1,19.5c0.4,0,1,0.3,1.4,0.4c3.2,0.8,6,2.7,9.3,3.4c1,0.2,2,0.2,2.9,0.3c0.2,0,0.5,0,0.8,0c0.2,0,0.5,0,0.7,0
		c0.9,0,1.8,0.1,2.6,0.8c0.2,0.2,0.6,0.3,1,0.3c0.5,0,1.1-0.2,1.7-0.3c0.9-0.2,1.6-0.4,2.3-0.4c1.8,0,2.8,1,3.5,3.6
		c1.2,4.2,3,7.8,6.5,10.5c0.8,0.6,1.8,0.9,2.5,1.5c1.7,1.5,3.8,3,3,5.8c-0.3,1.1,0.4,2,1.2,2.2c0,0,0.1,0,0.1,0c0.5,0,0.5-1,0.7-1.5
		c0.9-1.8,3.1-2.1,4.7-2.2c1.2-0.1,2.3-0.2,3.5-0.2c2.6,0,5.1,0.4,7.5,1.9c0.9,0.6,2,0.9,3.1,0.9c0.5,0,1-0.1,1.5-0.2
		c1.1-0.4,2.2-0.6,3.3-0.6c2.3,0,4.4,0.8,6.4,1.8c3.9,2,8.2,2.9,11.7,5.8c4.2,3.4,7.4,7.5,9.6,12.4c0.6,1.3,0.2,3,0.2,4.5
		c0,0.5-0.1,0.9-0.7,0.9c0,0-0.1,0-0.1,0c-0.6,0-0.9,0-1.2-0.8c-2-4.1-3.9-8.4-9.5-8.4c-0.1,0-0.3,0-0.5,0c0,0,0,0-0.1,0
		c-1.4,0-2.2-1.8-3.4-2.7c-1.8-1.4-4.7-2.3-7.4-2.3c-1.7,0-3.4,0.3-4.6,1.1c-0.3,0.2-0.6,0.6-0.7,0.9c-0.3,0.6,0.6,1.9-0.7,1.9
		c0,0,0,0-0.1,0c-0.1,0-0.2,0-0.3,0c-0.8,0-1.5,0.1-2.3,0.1c-0.8,0-1.7-0.1-2.6-0.5c-1.6-0.8-2.1-3.5-4-3.5c-0.4,0-0.8,0.1-1.3,0.3
		c-2.1,1-4.3,1.1-6.4,2.2c-1.1,0.6-2.3,1.5-3.7,1.5c-0.5,0-1-0.1-1.6-0.4c-0.2-0.1-0.3-0.1-0.5-0.1c-0.6,0-0.8,0.7-1,1.3
		c-0.6,1.2-1.2,2.3-2.6,2.3c-0.2,0-0.3,0-0.5,0c-0.1,0-0.1,0-0.2,0c-0.8,0-1.5,0.8-1.8,1.2c-3.1,3.3-7.2,5.4-10.1,8.9
		c-1.1,1.4-1.9,3.2-2.8,4.8c-0.7,1.2-1.3,2.3-2.8,2.3c-0.5,0-1-0.1-1.6-0.3c1.8,3.2,3.4,5.8,6.4,5.8c0.2,0,0.3,0,0.5,0
		c2.2-0.2,4.5-0.1,6.7-0.3c0.2,0,0.4,0,0.6,0c0.8,0,1.5,0.2,2.1,1c0.8,0.9,1.9,1.1,3.1,1.1c0,0,0,0,0,0c0.6,0,1.3,0,1.9,0
		c1.2,0,2.3,0.1,3.4,0.8c0.3,0.2,0.6,0.3,0.8,0.3c0.9,0,1-1.6,1.6-2.5c2.9,6.8,8.3,12.5,6.1,21c-1.6-3.8-4.4-6-6.6-8.7
		c-0.6-0.7-1.5-1-2.4-1c-1.4,0-2.8,0.7-3.2,1.9c-0.2,0.6-0.3,1.2-1,1.2c0,0-0.1,0-0.1,0c-0.6,0-0.9-0.6-1.2-1
		c-0.5-0.7-0.9-1.6-1.2-2.4c-0.5-1.1-1.2-1.6-2-1.6c-0.5,0-1,0.2-1.6,0.5c-1.4,0.9-1.6,1.7-0.6,3.4c1.2,2.1,1.8,4.5,3.7,6.2
		c0.5,0.5,0.6,1.3,0.5,2.1c-0.1,1.2,0,2.4,1.3,3.2c0.5,0.3,0.8,1.2,0.7,2c-0.1,1.6,1,2.3,2.3,2.8c0.5,0.2,1,0.4,1.4,0.4
		c0.6,0,1.2-0.3,1.6-1.2c0.2-0.4,1-0.5,1.5-0.7c2.1-1,3.9-2.4,4.3-4.9c0.1-0.7,0.7-1.4,1.2-1.4c0,0,0,0,0,0c0.8,0,0.6,0.9,0.8,1.5
		c0.5,1.9,0.3,3.4-1.2,4.9c-1.1,1.1-1.6,3-2.4,4.4c-1.3,2.3-2.4,3.2-4.3,3.2c-0.6,0-1.2-0.1-1.9-0.2c-0.3-0.1-0.5-0.1-0.8-0.1
		c-1.6,0-2.2,1.3-2.5,2.6c-0.4,1.4-0.1,2.6,1.6,2.6c0.2,0,0.3,0,0.5,0c0.2,0,0.3,0,0.5,0c0.4,0,0.8,0.1,1.1,0.6c0.5,0.8,0.8,2,1.9,2
		c0,0,0,0,0,0c0.2,0,0.3,0,0.5,0c1.2,0,2.5,0.1,3.7,0.1c1.1,0,2.2-0.1,3.3-0.4c0.3-0.1,0.8-0.1,0.9-0.7c0.1-1,1.1-2.3,1.8-2.5
		c4-1.1,5-4.3,3.2-8.2c-1.1-2.4-1.6-5.1-3.3-7.4c-0.2-0.3,0.1-1.5,1.2-1.5c0.2,0,0.5,0.1,0.8,0.2c3.5,1.4,5.7,4.2,7.4,7.2
		c1.6,2.9,2.4,6.2,2.2,9.7c-0.1,2.3-1.3,4.2-1.5,6.3c-0.3,3.2-1.2,5.2-5,5.2c-0.1,0-0.1,0-0.2,0c0,0,0,0,0,0c-1.3,0-2.7,1.7-3.9,2.8
		c-0.5,0.5-0.9,0.7-1.3,0.7c-0.4,0-0.9-0.3-1.4-0.8c-0.9-0.9-1.8-1.3-2.7-1.3c-1.2,0-2.3,1-2.7,2.9c-0.3,1.1-0.9,1.4-1.6,1.4
		c-0.5,0-1-0.1-1.5-0.2c-0.3,0-0.6-0.1-0.8-0.1c-0.4,0-0.7,0.1-0.7,0.8c-0.1,0.8-0.4,1.3-1.1,1.3c-0.1,0-0.2,0-0.3,0
		c-0.9-0.1-1.6-0.8-1.6-1.7c0-1.1-0.5-1.9-1.3-2.2c-0.1,0-0.3-0.1-0.4-0.1c-0.9,0-0.9,1.3-1.4,1.8c-0.5,0.6-0.7,1.4-1.2,2.1
		c-0.8,1.1-2,2.2-1.5,3.6c0.9,2.5,2.2,4.8,5.1,5.6c0.2,0.1,0.4,0.1,0.6,0.1c0.7,0,1.4-0.4,2-0.8c1-0.7,1.9-1,2.7-1
		c1.4,0,2.7,0.7,4.1,1.5c0.5,0.3,1,0.5,1.5,0.5c1.5,0,2.6-1.4,3.8-2c1.2-0.7,2.4-1.7,2.3-3.6c-0.1-1.2,1.2-2,2.1-2.6
		c1.6-1.1,3.1-2.9,5.2-2.9c0.4,0,0.9,0.1,1.3,0.2c0.1,0,0.2,0,0.2,0c0.4,0,0.7-0.4,1-0.7c2.4-1.7,4.6-3.6,7.1-5.1
		c3-1.8,2.5-4.9,3-7.6c0.3-2,0.6-4.3-1-6.2c-0.5-0.6-0.5-1.3-0.4-1.9c1-4.3,0-8.8,1.5-13c0.5-1.4-1.1-3.2-0.6-3.8
		c1-1.1,2-1.9,1.6-3.5c-0.8-3.5,0.3-7.4-2.5-10.5c-0.7-0.8-0.9-2.1-0.2-2.7c0.2-0.2,0.4-0.3,0.7-0.3c0.7,0,1.4,0.7,1.9,1.2
		c2.2,2.4,4.2,4.6,4.5,8.4c0.3,3.7,1.1,7.5,2.4,11.1c1,2.6,0.7,5.6,1.4,8.4c1.3,5,1.2,10.3,2.8,15.3c0.7,2.3-0.7,4.6-1.2,6.8
		c-0.1,0.5-0.5,1.1-0.5,1.6c0.2,5.7-2.8,9.9-6.1,14c-0.5,0.6-1.1,1.4-1.9,1.4c-0.2,0-0.4-0.1-0.6-0.2c-0.5-0.3-0.9-0.4-1.3-0.4
		c-0.9,0-1.4,0.7-2.1,1.5c-0.5,0.6-1.1,1.2-1.9,1.6c-1.2,0.6-2.1,1.7-2.3,3.1c-0.9,4.5-3.9,7.6-8.3,8.5c-0.4,0.1-0.7,0.2-1.1,0.5
		c-1.6,1.2-3.5,1.5-5.2,2.3c-3.4,1.4-7.3,2.6-9.2,6.5c-0.6,1.3-1.3,1.9-2.1,1.9c-0.6,0-1.3-0.3-2.1-0.9c-0.2-0.2-0.6-0.2-0.9-0.2
		c-1.2,0-2.9,0.8-3.3,1.9c-1.3,4.2-3.2,8.2-3.2,12.7c0,6.5,0.6,13,1.9,19.4c1.2,5.8,0.3,11.4-3.7,16.4c-2.5,3.1-4.3,6.9-6.3,10.4
		c-1,1.7,0.9,2.2,1.6,2.8c1.6,1.2,4,1.4,4.2,4.2c0.1,0.7,3,1.2,5,1.2c0.8,0,1.5-0.1,1.7-0.3c3-2.2,5.8-4.8,9.1-6.6
		c1.3-0.7,1.9-1.9,2.6-3.1c2.2-4,4.7-7.7,7.2-11.5c2-3,1.9-6.3,3.1-9.4c0,0,0,0,0.1,0c0.1,0,0.1,0,0.2,0c0.1,0,0.2,0,0.2,0
		c0.5,1,0.5,2.7,1.6,2.8c0,0,0,0,0,0c1.2,0,0.9-1.7,1.3-2.7c0.4-0.8,1-1.2,1.7-1.2c0.6,0,1.2,0.3,1.7,1c0.3,0.4,0.5,0.5,0.7,0.5
		c0.3,0,0.5-0.2,0.9-0.3c2.5-1.1,3.6-3.8,2.9-7.4c-0.2-1.2,1.9-5.8,3-5.8c3.1-0.1,2.8-2.8,3.6-4.5c1.7-3.8,0.2-7.5-0.8-11.3
		c-0.2-0.7-0.2-1.5-0.2-2.2c0.2-2.4-0.1-4.7-1.7-6.7c-0.6-0.7-0.5-1.4,0.3-1.9c0.3-0.2,0.5-0.2,0.7-0.2c0.5,0,0.9,0.4,1.2,0.8
		c2,4,5.8,7,6.5,11.7c0.4,2.6,0.4,5.3,0.6,7.9c0.3,3.7,0.4,7.5,1.8,11.1c0.9,2.1,0.1,4.3-2,5.1c-1.8,0.7-1.8,2.5-1.7,3.4
		c0.3,3.1-0.3,6-0.6,8.9c-0.1,0.9-0.3,2,0.1,2.7c1.3,2.4,0.3,4.5-0.4,6.7c-0.2,0.6-0.4,1.5-1.3,1.6c-0.1,0-0.1,0-0.2,0
		c-0.9,0-1.3-0.8-1.8-1.3c-0.5-0.5-0.3-1.9-1.2-1.9c-0.1,0-0.2,0-0.4,0.1c-1.4,0.4-2,1.7-2,3.2c0,4.5,0,9.1,0,13.6
		c0,0.8,0.6,2.1-0.6,2.3c0,0-0.1,0-0.1,0c-0.8,0-0.6-1.3-0.9-2c-0.8-1.9-0.3-3.8-0.4-5.7c0-1.1-0.6-2.1-1.3-2.1c0,0,0,0,0,0
		c-1,0-0.8,1.3-0.7,2.1c0.1,1.4,0.1,2.9,0.7,4.1c0.6,1.3,0,2.2-0.8,2.4c-0.1,0-0.2,0-0.3,0c-0.8,0-1.5-0.7-1.6-1.9
		c0-1-0.4-2.1-1.7-2.4c-0.7,4-2,5.4-5,5.6c-4.2,0.2-4.4,0.2-5.3,4.4c-0.3,1.4-0.7,2.1-1.4,2.1c-0.4,0-0.9-0.2-1.6-0.7
		c-0.2-0.2-0.4-0.3-0.6-0.3c-0.2,0-0.3,0.1-0.4,0.3c-1,1.9-2.5,3.7-3,5.8c-0.7,2.7-3,3.6-4.7,5.2c-1.1,1.1-1.1,1.7-1,3.2
		c0.2,3.4,1.5,7.1,0.1,10.3c-1.2,2.7-0.7,4.9,0,7.2c0.4,1.4,0.8,2.7-0.3,3.9c-0.2,0.3-0.4,0.6-0.1,0.8c0.2,0.2,0.4,0.2,0.6,0.2
		c0.2,0,0.4-0.1,0.5-0.2c1.6-1.7,4.6-1.4,5.6-4.3c0.2-0.6,0.6-0.7,1.2-0.7c0.6,0,1.2,0.1,1.8,0.1c0.2,0,0.3,0,0.5,0
		c0.1,0,0.2,0,0.2,0c0.3,0,0.5,0.1,0.8,0.1c0.4,0,0.8-0.2,0.7-1c-0.1-0.9-0.1-1.8,1-2c0.2,0,0.5-0.1,0.7-0.1c0.8,0,1.6,0.4,2.2,1.1
		c1.2,1.3,2.3,2,3.6,2c1.2,0,2.5-0.7,3.8-2c0.5-0.5,1-0.6,1.5-0.6c0.2,0,0.4,0,0.6,0c0.1,0,0.2,0,0.3,0c0.8,0,1.3-0.4,1.9-1
		c4.2-4.2,8.1-8.6,10.6-14c1.2-2.6-0.1-4.9-0.4-7.4c-0.1-0.4-0.9-0.7-0.3-1.2c0.3-0.3,0.9-0.6,1.3-0.6c0.1,0,0.1,0,0.2,0
		c2.4,0.6,4.2,3.2,4.4,5.8c0.3,4.2-0.3,7.9-3.5,11.2c-1,1-1.2,3.1-1.4,4.8c-0.2,1.7-1.2,3-2,4.4c-0.6,1.1-1.1,2.4-1.3,3.7
		c-0.2,1.1,0.7,2.9-1,2.9c-0.3,0-0.7-0.1-1.3-0.2c-0.1,0-0.1,0-0.2,0c-0.8,0-1.5,1.7-1.6,2.9c-0.3,5.6-1.1,11.1-1,16.7
		c0,0.7,0,1.5-0.7,1.6c0,0-0.1,0-0.1,0c-0.7,0-0.9-1-1-1.5c-0.2-1.3-0.2-2.7-0.2-4c0.1-2.3-0.3-4.6-0.8-7.1
		c-0.6,0.7-1.1,0.9-1.7,0.9c-0.8,0-1.6-0.4-2.3-0.9c-0.7,2.6,0.2,5.1-0.6,7.5c-1.2,3.6-3.5,6-7.1,7.2c-0.7,0.2-1.4,0.6-2,1
		c-1.1,0.8-1.1,2.1-0.1,2.4c3.3,1,5.1,3.8,7.7,5.7c3,2.1,4.7,5.4,6.7,8.3c0.9,1.4,1.4,2.9,3.5,3c0.4,0,1.8,0.6,1.6,1.5
		c-0.1,0.9-1.2,1.1-1.9,1.3c-0.4,0.1-0.8,0.1-1.2,0.1c-1.2,0-2.5-0.4-3.6-0.8c-0.8-0.3-1.7-0.3-2.5-0.3c-0.8,0-1.6,0.1-2.3,0.1
		c-0.4,0-0.8,0-1.1-0.1c0,0-0.1,0-0.1,0c-0.5,0-1,0.3-1,0.7c0,0.4,0.4,0.8,0.9,0.8c0.1,0,0.1,0,0.2,0c0.1,0,0.2,0,0.2,0
		c0.6,0,1.2,0.6,1.9,0.6c0.3,0,0.6-0.1,0.9-0.4c0,0,0.1,0,0.1,0c0.3,0,1.2,0.5,2,0.9c-0.8,0.5-1.1,0.9-1.5,0.9
		c-2.3,0.1-4.3,0.2-2.9,3.4c0.2,0.6-0.3,1.1-1,1.2c-3.2,0.5-5.7,2.5-8.7,3.6c-1.3,0.5-2.6,0.8-3.9,1.2c-0.3,0.1-0.7,0.3-0.9,0.3
		c-0.2,0-0.4-0.1-0.5-0.4c-0.3-0.8,0.2-1.3,1.1-1.6c3-1,4.4-3.9,3.4-6.8c-0.3-1-1.1-1.3-1.7-1.5c0,0-0.1,0-0.1,0
		c-0.5,0-1,0.7-1.2,1.3c-1.2,4.8-4.9,8.2-7.3,12.3c-1.6,2.7-5.2,4.5-8.4,5.5c-0.1,0-0.2,0-0.3,0c-1.1,0-1.9-2.3-1.5-3.2
		c0.7-1.8,0.1-2-0.7-2c-0.3,0-0.7,0-1,0c0,0,0,0-0.1,0c-0.6,0-1.1,0-1.6,0c-1.9,0-2,0.1-1.9,0.7c0.1,1.6-1,2.6-1.7,3.8
		c0,0.1,0.2,0.3,0.2,0.4c0,1.2-0.9,2.1-1.8,2.1c0,0-0.1,0-0.1,0c-0.1,0-0.3,0-0.4,0c-2.4,0-2.2,2-1.6,3c1,1.9-1.4,2.3-1.1,3.6
		c0.4,2.3-1.4,1.9-2.7,2.2c-3.5,0.7-6.9,1.6-10.4,2.4c-0.3,0.1-0.5,0.1-0.7,0.1c-1.1,0-2-0.5-2.8-1.4c-0.6-0.7-1.6-0.9-2.2-1.3
		c-0.8-0.5-1.4-0.7-1.9-0.7c-1.5,0-2.1,1.7-2.8,3c-0.5,0.9-0.9,1.6-1.8,1.7c-2.4,0.3-4.7,0.7-7.1,0.7c-2.1,0-4.2-0.4-6.4-1.6
		c-4.5-2.4-9.8-2.5-14.9-3.4c-6.6-1.1-13.1-0.6-19.7-0.9c-0.1,0-0.2,0-0.4,0c-1.3,0-2.6,0.4-3.8,0.6c-1.3,0.3-2.7,0.4-4,0.4
		c-2.4,0-4.8-0.4-7.1-1.4c-0.5-0.2-1.1-0.3-1.7-0.3c-1.3,0-2.7,0.5-3.8,1c-2.4,1.2-4.9,1.7-7.5,1.7c-0.5,0-0.9,0-1.4,0
		c-0.3,0-0.6,0-0.9,0c-1.8,0-3.6,0.3-5.4,0.3c-0.7,0-1.5-0.1-2.2-0.2c-0.4,1,1.4,0.9,0.9,1.4c-0.6,0.6-1.5,1.2-2.4,1.2
		c-0.2,0-0.5,0-0.7-0.1c-2.2-0.7-4.7-0.1-6.7-2.1c-0.4-0.4-0.8-0.5-1.1-0.5c-1,0-2,1-3,1.6c0.7,0.3,1,0.4,1.3,0.4
		c0.3,0,0.7-0.2,1.3-0.5c0.3-0.2,0.7-0.3,1-0.3c0.2,0,0.4,0.1,0.5,0.4c0.3,0.7-0.6,0.5-0.9,0.7c-0.9,0.6-1.7,1-2.3,1
		c-1.1,0-2-0.8-2.7-2.4c-0.8-1.8-2.5-1.2-3.8-1.6c-0.4-0.1-0.7-0.1-1.1-0.1c-0.6,0-1.3,0.1-2.1,0.1c1.3,1.9,2.1,3.9,2.7,6
		c0.3,1.1,0.6,2-0.3,3c-0.4,0.4-0.8,0.6-1.3,0.6c-0.4,0-0.9-0.1-1.4-0.3c-0.6-0.2-1.3-0.2-1.9-0.2c-0.6,0-1.3,0-2,0
		c-0.8,0-1.7-0.1-2.5-0.4c-0.7-0.3-1.5-0.6-1.6-1c-0.5-3.5-3.6-4.9-5.9-6.7c-3.9-3-7.7-6.2-12.5-7.7c-1.3-0.4-2.6-0.4-3.8-0.7
		c-2.8-0.7-4.8-3-7.7-3.3c-0.5-0.1-1-0.2-1.4-0.2c-0.2,0-0.3,0-0.5,0.1c-0.3,0.1-0.9,0.3-0.4,0.8c0.3,0.3,1.5-0.1,1,0.8
		c-0.1,0.2-0.3,0.3-0.5,0.3c-0.4,0-0.8-0.3-1.2-0.6c-0.6-0.4-1.2-0.6-1.9-0.6c-0.7,0-1.4,0.1-2.1,0.1c-0.2,0-0.4,0-0.6,0
		c0,0,0,0-0.1,0c-0.4,0-0.7,0.4-0.5,0.6c1.6,1.7-0.4,1.2-1,1.5c-0.7,0.3-1.3,0.4-2,0.4c-0.7,0-1.5-0.1-2.2-0.1c-0.2,0-0.4,0-0.7,0
		c-0.1,0-0.1,0-0.2,0c-0.3,0-0.5-0.1-0.6-0.5c-0.2-1.5-0.5-1.9-1-1.9c-0.7,0-1.7,1-2.4,1c0,0,0,0,0,0c0.1,1,1.8,0.7,1.3,1.6
		c-0.3,0.5-1,0.9-1.7,0.9c-0.2,0-0.5,0-0.7-0.1c-2-0.7-4.3-0.2-6-2c0.6-0.5,2.3-0.9,1-2.3c-0.8-0.9-0.9-2.7-2.2-2.7
		c-0.4,0-0.8,0.1-1.4,0.4c-0.3,0.1-0.6,0.2-1,0.2c-0.4,0-0.7-0.1-1-0.2c-2.5-1.1-5.3-0.7-7.8-1.9c1.1-0.1,2.2-0.1,3.2-0.2
		c0.6-0.9-1.5-1-0.5-2.2c0.5-0.7-0.5-1-1.2-1.3c-0.9-0.4-1.9-0.4-2.8-0.4c-0.3,0-0.5,0-0.8,0c-0.9,0-1.7,0-2.5-0.3
		c0-0.2,0-0.5,0-0.7c2.7,0,5.4,0,8,0c0-0.3,0-0.6,0-0.8c-0.1,0-0.1,0-0.2,0c-3.4,0-6.5-1.6-9.9-1.6c-0.4,0-0.7,0-1.1,0.1
		c1.2-0.4,2.5-0.7,3.7-0.7c0.9,0,1.7,0.2,2.6,0.5c1.1,0.5,2.1,0.5,3.2,0.5c0.3,0,0.6,0,1,0c0.3,0,0.5,0,0.8,0c0.1,0,0.1,0,0.1,0
		c0.5,0,0.8-0.1,0.8-0.8c0-0.6-0.4-0.7-0.7-0.7c-0.1,0-0.2,0-0.3,0c-0.4,0-0.8,0.1-1.3,0.1c-2.3,0-4.5-0.6-6.7-0.6
		c-0.1,0-0.1,0-0.2,0c-0.2,0-0.3,0-0.5,0c-0.5,0-0.9-0.1-1.1-1.3c-0.2-1.7-1.2-3.4-1.6-5.2c-0.2-0.7-0.6-1.2-1.1-1.2
		c-0.4,0-0.7,0.2-1.1,0.8c-1.3,2.2-2.9,3.2-4.7,3.2c-1.1,0-2.3-0.4-3.6-1.1c-0.4-0.2-0.8-0.2-1.3-0.2c-0.2,0-0.5,0-0.8,0
		c-0.4,0-0.8,0-1.2-0.2c-2.1-0.8-3.4-2.6-4.6-4.4c-4.5-6.6-7.9-13.8-12.8-20.2c-1.4-1.9-2.1-4.4-2.8-6.7c-0.8-2.4-2.7-4.3-3.3-6.8
		c0-0.1-0.2-0.5-0.5-0.5c-0.1,0-0.1,0-0.2,0.1c-0.4,0.2-0.5,0.6-0.6,1c-0.9,2.4-1.6,4.8-3.2,7c-0.8,1.1-1.6,2.4-2.8,2.4
		c-0.2,0-0.5-0.1-0.8-0.2c-1.7-0.8-3.6-2.1-2.2-4.8c-2.3,1.2-2.5,2.8-0.8,4.1c1.6,1.3,2.9,3.1,3.2,5.1c1.1,5.9,2.7,11.5,4.7,17.2
		c1.1,3.1,3.5,5.7,3.5,9.2c0,0.7,1,0.7,1.5,1.1c1.1,0.8,1.2,1.9,0.7,2.9c-0.3,0.7-0.8,1.3-1.5,1.3c-0.3,0-0.7-0.1-1.1-0.4
		c-0.3-0.2-0.5-0.2-0.8-0.2c-0.8,0-1.6,0.6-2.4,0.6c-0.1,0-0.1,0-0.2,0c-4.3-0.5-8.6-0.6-12.9-0.6c-3.6,0-7.1,0.1-10.7,0.1
		c0,0,0,0,0,0c-1.6,0-2.5-0.3-3-2.1c-1.3-4.5-5.2-7.4-7.2-11.5c-2.4-4.9-5.8-9.2-7.2-14.7c-1.2-4.6-3.3-8.9-6.5-12.6
		c-1.8-2-3.5-4.2-5.5-6c-0.9-0.8-3.1,0-2.7-2c0.2-1.1,1.9-1.4,2.8-2.2c1.7-1.5,3.6-2.7,5.1-4.5c2.1-2.7,5.4-3.9,8.2-5.9
		c1.4-1,2.6-2,3.4-3.4c0.9-1.6,2.7-2,4.2-2.8c1.7-0.9,3.4-1.9,4-3.9c0.6-1.9,1.6-3.7,2.9-5.3c1.2-1.6,1.7-3.3,1.5-5.3
		c-0.2-1.8,0.8-3.1,2-4.3c2.3-2.4,4.8-4.6,7.4-6.6c1.2-1,2-2.7,2.7-4.2c1.8-4,3.4-8.1,5.1-12.2c0.9-2.2,2.2-3.5,4.6-4.1
		c1.5-0.4,3.2-1.9,2.4-3.4c-2.4-4.4,0.4-7.1,2.8-10c3.2-3.9,7.5-6.2,12.1-8.1c1.3-0.5,2.3-1.1,2.8-2.5c0.1-0.2,0-0.4,0.1-0.5
		c6.2-3.9,10.6-10.4,17.9-12.8c2.4-0.8,4.8-1.6,7.4-1.6c0.1,0,0.2,0,0.3,0c0,0,0.1,0,0.1,0c1.4,0,2.2-0.5,2.5-2
		c0.4-1.7,1.2-3.3,1.5-5.1c0.4-1.8,1.8-2.9,3.5-3.5c3.5-1.3,3.7-2.3,2.7-5.8c-0.8-3.2-1.2-6.7,1-9.6c1.2-1.5,3.5-2.1,5.3-2.8
		c5.6-2.4,10.3-6.1,15.2-9.5c3.5-2.3,5.6-5.4,8-8.6c2.7-3.5,3.7-6.6,3.1-10.7c-0.1-1,0.4-2,1-2.9c4-6.4,6.4-13.6,8.4-20.8
		c1.2-4.2,1.5-8.6-0.7-12.8c-1.1-2-0.1-4.3,1-6.1c1.6-2.8,3.1-5.8,5.9-7.8c0.9-0.6,0.4-1.3,0.5-2c0.2-1.5,0.8-2.6,2.3-2.6
		c0.2,0,0.4,0,0.6,0c0.6,0.1,1.1,0.1,1.7,0.1c4.6,0,8.2-2.7,11.9-5.2c2.2-1.5,4.5-2.9,6.8-4.2c4.1-2.4,7.8-5.3,11.8-7.8
		c6.7-4.2,12-10.1,17.9-15.2c3.2-2.7,5.8-6.2,9.8-7.9c2-0.9,3.6-2.8,6-2.8c0.2,0,0.4,0,0.7,0.1c0.1,0,0.1,0,0.2,0
		c0.8,0,0.9-0.9,1.1-1.3c1.8-3.6,4.9-6.3,6.8-9.8c0.7-1.3,2-1,3-1.4c3.8-1.7,8.1-1.7,12.1-2.7c2.5-0.6,5-1.1,7.6-1.5
		c5.9-1.1,11.2-4,17-5.6c2.7-0.8,5.3-1.8,8-2.7c0.5-0.2,1-0.4,1.5-0.4c0.4,0,0.8,0.2,1.1,0.7c0.2,0.3,0.4,0.4,0.5,0.4
		c0.2,0,0.3-0.1,0.4-0.2c1.5-1.8,4.1-1.3,5.9-2.7C337.8,19.5,337.9,19.5,338.1,19.5 M340,37.2c-0.4,0-0.8-0.2-1.4-0.8
		c-0.1-0.1-0.3-0.2-0.4-0.2c-0.3,0-0.6,0.4-0.8,0.7c-1.9,2.6-3.6,5.3-4.2,8.6c-0.7,3.6-1.6,4.3-5.2,4.5c-0.1,0-0.3,0.2-0.4,0.3
		c-2.5,1.5-3.7,5-2.4,7.8c0.6,1.2,0.9,2.9,0.3,3.6c-2.2,2.3-1.4,4.7-0.9,7.2c0.3,1.6,0.9,2.3,2.3,2.3c0.1,0,0.2,0,0.3,0
		c0.3,0,0.5,0,0.8,0c1.3,0,2.6,0.2,3.7,1c1.1,0.7,2.2,1.1,3.5,1.1c0.4,0,0.9,0,1.3-0.1c0.5,0.1,0.9,0.2,1.3,0.2
		c1.9,0,3.3-1.2,4.5-2.9c1.5-2.1,2.7-4.4,4.5-6.4c1.7-1.8,3.3-3.8,4-6.3c0.2-0.7,0.6-1,1.4-1.2c1-0.2,2.1-0.5,3-1
		c4.8-2.7,10.1-4,15.4-5.5c2.3-0.7,2.6-1.2,0.8-2.9c-2.2-2.2-5.5-3.2-7.2-6.1c-0.1-0.3-0.7-0.5-0.9-0.5c0,0-0.1,0-0.1,0
		c-0.5,0.3-0.9,0.4-1.4,0.4c-1.3,0-2.6-0.9-3.8-0.9c0,0-0.1,0-0.1,0c-0.1,0-0.2,0-0.2,0c-1.8,0-2.3-1-2.6-2.4
		c-0.4-2.2-1.9-2.7-3.7-2.8c-0.2,0-0.3,0-0.5,0c-0.7,0-1.3,0.1-2,0.1c-0.9,0-1.8-0.1-2.6-0.5c-0.6-0.3-1.1-0.4-1.6-0.4
		c-1.2,0-2.1,0.8-2.8,1.8C341.2,36.4,340.7,37.2,340,37.2 M138.5,341c0,0,0.1,0,0.1,0c0.3-0.1,0.3-0.5,0.1-0.8
		c-1.1-2.2-2.7-4.4-0.9-7.1c0.2-0.3,0.1-1-0.4-1.7c-0.9-1.2-1.8-2.7-1.5-4.4c0.3-2.2-0.3-4.3-0.7-6.4c-0.4-1.7-0.6-2.9,1.5-3.2
		c0.9-0.2,1-0.5,0.4-1.1c-0.5-0.6,0.5-1.9-0.9-1.9c0,0-0.1,0-0.1,0c-2.2,0-4.1,2-4.1,4.5c-0.4,1.5,0.3,3.1,0.6,4.7
		c0.5,2.7,0,5.6,1.4,8.1c1,1.8,2,3.5,2.2,5.6c0.1,1.2,1.1,2.3,1.7,3.4C137.9,340.8,138.3,341,138.5,341 M338.1,4.5
		C338.1,4.5,338.1,4.5,338.1,4.5c-2.6,0-5.1,0.6-7.3,1.8c-0.2,0.1-0.4,0.1-0.6,0.2c-0.2,0-0.3,0-0.5,0c-3,0-5.3,0.8-6.2,1.2l0,0
		c-1.1,0.4-2.2,0.8-3.2,1.1c-1.5,0.5-2.8,1-4,1.3c-3.1,0.9-5.9,1.9-8.4,2.9c-2.8,1.1-5.2,2-7.2,2.4c-2.3,0.4-5.3,1-8.3,1.7
		c-0.9,0.2-2,0.4-3.2,0.6c-2.8,0.4-6.3,1-10,2.4c-6.5,1.4-9.9,5.4-11.7,8.6c-0.3,0.6-1.1,1.6-1.9,2.6c-0.6,0.7-1.2,1.5-1.8,2.4
		c-1.8,0.8-3.1,1.7-4.1,2.3c-0.1,0.1-0.2,0.1-0.2,0.2c-5.1,2.3-8.5,5.7-11.1,8.2c-0.7,0.7-1.4,1.4-2,1.9c-2.1,1.8-4,3.6-5.9,5.4
		c-3.5,3.3-6.8,6.4-10.2,8.5c-2,1.3-3.8,2.5-5.6,3.7c-2,1.4-3.9,2.7-5.8,3.8c-2.3,1.3-4.8,2.9-7.5,4.6c-0.4,0.3-0.8,0.5-1.2,0.8
		c-0.9,0.6-2.2,1.4-2.9,1.8c-0.6-0.1-1.2-0.1-1.8-0.1c-6.5,0-13.6,3.7-16.3,11.8c-2.3,2.6-3.8,5.3-5,7.4l-0.4,0.8
		c-5.1,8.9-3.6,16-1.3,20.4c0,0.2-0.1,0.9-0.4,2.1c-1.5,5.5-3.5,11.7-6.7,16.9c-1,1.5-3.9,6.2-3.2,12.3c-0.4,0.5-0.8,1-1.2,1.5
		c-1.6,2-2.5,3.2-3.4,3.8c-1.3,0.9-2.6,1.8-3.9,2.7c-3.3,2.3-6.1,4.3-8.8,5.4c-0.2,0.1-0.4,0.2-0.7,0.3c-2.5,0.9-7.2,2.7-10.7,7.3
		c-2.5,3.2-4.9,8.2-4.7,15.2c-1.8,1.8-3.2,3.9-4.2,6.3c-0.9,0.3-1.8,0.5-2.6,0.8l-0.3,0.1c-7.5,2.4-12.5,6.9-16.6,10.5
		c-1.7,1.5-3.3,3-4.7,3.8c-1.3,0.8-2.4,1.8-3.4,2.9c-4.7,2.1-10.5,5.5-15.3,11.2c-0.2,0.2-0.3,0.4-0.5,0.6c-1.6,1.8-3.9,4.6-5.4,8.6
		c-0.6,1.5-0.9,3-1.1,4.6c-2.2,2.1-3.9,4.7-5.2,7.8c-1.6,4-3.1,7.8-4.8,11.6c-2.7,2.2-5.1,4.4-7.3,6.7c-4.4,4.6-5.8,9.3-6.1,13.1
		c-0.8,1.2-1.5,2.4-2.1,3.7c-2.1,1.1-5.3,3-7.7,6.6c-0.4,0.3-1,0.6-1.6,1c-2.5,1.5-6.3,3.7-9.4,7.6c-0.2,0.2-0.8,0.7-1.2,1
		c-0.3,0.2-0.6,0.4-0.9,0.7c-4.9,2.7-7.9,6.6-8.9,11.7c-0.9,4.4,0,8.8,2.5,12.4c1.7,2.5,4,4.4,6.8,5.6c0.3,0.3,0.6,0.7,0.9,1.1
		c0.5,0.6,1,1.2,1.6,1.8c1.5,1.7,2.6,3.8,3.2,6.5c1.5,5.6,4,10,6.1,13.6c0.8,1.4,1.6,2.7,2.1,3.9c1.5,3.2,3.4,5.5,4.9,7.4
		c0.5,0.6,1.2,1.5,1.4,1.9c2.4,7.8,9,12.6,17.3,12.6c1.8,0,3.6,0,5.4,0c1.8,0,3.6,0,5.3,0c3.2,0,7.3,0.1,11.3,0.5
		c0.6,0.1,1.2,0.1,1.8,0.1c0.8,0,1.5-0.1,2.2-0.1c0.7,0.1,1.3,0.1,2,0.1c6.4,0,12.1-3.7,15-9.7c0.6,0.3,1.2,0.6,1.8,0.8
		c1.6,0.6,3.2,1,4.9,1.2c0.9,0.3,1.8,0.6,2.7,0.8c0.8,1.1,1.8,2.1,2.9,3c1.2,1.6,2.7,3,4.5,4.1c1.5,2.2,3.6,4,6.2,5.2
		c2.5,1.1,4.9,1.6,6.7,1.9c0.4,0.5,0.7,0.9,1.1,1.3c4.7,4.8,10.2,5.6,12.6,5.9c1.6,0.5,3.2,0.7,4.9,0.7c2.1,0,4.1-0.4,6-1.1
		c0.4,0,0.9,0,1.5,0c2.1,0,4.1-0.3,6.1-0.9c0.8-0.2,1.6-0.4,2.3-0.6c0.3,0,0.7,0,1,0c0.7,0,1.5-0.1,2.2-0.2c1.1,0.5,2.4,0.9,3.9,1.3
		c1.3,0.3,2.3,0.4,3.1,0.5c0,0,0,0,0,0c1.9,0.8,4.3,2.6,6.7,4.5l0.7,0.6c0.5,0.4,1,0.8,1.5,1.1c1.4,3.1,4.1,6.5,9.5,8.7l0.1,0
		c2.5,1,5.2,1.5,8.1,1.5c0.4,0,0.8,0,1.1,0c1.1,0.3,2.5,0.5,4.2,0.5c4.5,0,8.7-1.8,12-5c0.3-0.3,0.6-0.6,0.9-1
		c0.6-0.1,1.2-0.3,1.8-0.5c0,0,0,0,0,0c0,0,0.1,0,0.1,0c1.5,0.4,3,0.6,4.6,0.6c3.3,0,6.5-0.9,9.3-2.6c0.7,0,1.4,0.1,2.1,0.1
		c4.1,0,8-0.7,11.6-2.2c2.8,0.7,5.6,1.1,8.5,1.1c2.2,0,4.5-0.2,6.8-0.7c0.4-0.1,0.9-0.2,1.3-0.3c0.1,0,0.1,0,0.2,0
		c2.3,0.1,4.5,0.1,6.6,0.1c3.8,0,7.4,0,10.5,0.6c1.5,0.2,2.9,0.4,4.2,0.6c2.3,0.3,5.1,0.7,6.1,1.2c4.2,2.2,8.6,3.3,13.5,3.3
		c2.7,0,5.2-0.3,7.2-0.6c0.6-0.1,1.1-0.2,1.7-0.2c1.7-0.2,3.8-0.7,5.8-1.8c1.3,0.3,2.7,0.4,4,0.4c1.3,0,2.6-0.1,3.9-0.4
		c1.7-0.4,3.4-0.8,5-1.1c1.7-0.4,3.3-0.8,4.8-1.1c5-0.5,9-2.7,11.8-6.3c1-1.3,1.7-2.6,2.3-4.1c1.5-0.1,3-0.3,4.4-0.8
		c5.7-1.9,10.3-4.7,13.6-8.3c0.9-0.2,1.6-0.5,2-0.6c0.2-0.1,0.5-0.1,0.8-0.2c1-0.3,2.3-0.6,3.7-1.2c1.9-0.7,3.5-1.6,4.8-2.2
		c0.5-0.2,1.1-0.6,1.4-0.7c4.3-0.8,8.1-3.4,10.5-7c0.5-0.1,0.9-0.2,1.3-0.3c11-2.8,12.9-11.5,13.2-14.1c0.5-4.4-0.8-8.8-3.7-12.2
		c-1.1-1.3-2.3-2.4-3.7-3.3c2.8-2.8,4.7-6.9,4.6-12.3c0-2.7,0.2-5.6,0.5-8.8c0.2-0.2,0.3-0.3,0.4-0.5c2.6-2.8,4-6.3,4.1-10.3
		c1-1.6,2.4-4.3,3-8c3.9-5.4,5.6-11.9,5-19.5c-0.6-7.9-5.3-14.8-12.1-18c0-0.2,0-0.4-0.1-0.7c0-0.4,0-0.7,0-1.1
		c2.5-1.8,5-4.7,6.3-9.4c0.1-0.2,0.1-0.4,0.2-0.6c0.7-2.3,2.3-7.2,0.7-12.9c0.2-1.3,0.4-2.6,0.5-4.1c1-1.3,1.9-2.7,2.6-4.3
		c2-4.7,2-10.1,0-14.9c-0.3-0.8-0.5-3-0.6-4.9c0-0.6-0.1-1.1-0.1-1.7c-0.1-0.7-0.1-1.5-0.1-2.3c-0.1-2-0.2-4.2-0.6-6.6
		c-1-6.6-4.3-11.2-6.5-14.2c-0.5-0.7-1.2-1.7-1.4-2c-0.9-1.8-2.1-3.4-3.5-4.7c1.1-0.9,2.3-2,3.4-3.4c3.1-3.9,8.7-10.9,9.3-20.9
		c0.1-0.3,0.2-0.6,0.2-0.9c0.1-0.2,0.1-0.4,0.2-0.5c0.8-2.5,2.6-7.7,0.7-13.9c-0.5-1.6-0.7-3.6-1.1-6c-0.3-2.6-0.7-5.5-1.5-8.6
		c0-0.2-0.1-1-0.2-1.6c-0.2-2.2-0.5-5.1-1.7-8.4c-0.8-2.2-1.3-4.7-1.5-7c-0.3-4.9-1.9-8.7-3.8-11.7c0.3,0,0.7,0,1,0
		c4.3,0,8.3-1.7,11.3-4.7c2.9-3,4.5-7.1,4.4-11.4c0-0.1,0-0.2,0-0.3c0.1-1.9,0.4-5.9-1.6-10.2c-3.2-6.9-7.8-12.9-13.7-17.7
		c-4-3.3-8.2-5-11.3-6.2c-1.1-0.5-2.2-0.9-3-1.3c-4.5-2.4-8.9-3.5-13.3-3.5c-1.2,0-2.5,0.1-3.7,0.3c-3.6-1.5-7.5-2.2-11.7-2.2
		c-0.9,0-1.8,0-2.8,0.1c-0.1-0.1-0.2-0.2-0.3-0.3l-0.3-0.3c-1.2-1.1-2.4-1.8-3.4-2.3c-0.3-0.4-0.6-1.1-1-2.4
		c-3-10.7-11.3-14.5-18-14.5c-0.8,0-1.7,0.1-2.5,0.2c-1.6-0.4-3.2-0.6-5-0.6c-0.2,0-0.3,0-0.5,0c-0.4,0-0.7,0-1-0.1
		c-0.5-0.2-1.1-0.5-1.7-0.7c-1.7-0.8-3.8-1.7-6.4-2.4C342.7,5.1,340.7,4.5,338.1,4.5L338.1,4.5z M407.5,74.4
		c0.3-0.1,0.5-0.2,0.7-0.4c0.1,0.1,0.2,0.1,0.3,0.2C408.2,74.3,407.8,74.3,407.5,74.4L407.5,74.4z M396.3,82.5
		c-0.3-0.6-0.5-1.1-0.7-1.6c-1.1-2.6-2.9-4.7-5-6.3c2.3,0.9,4.8,1.3,7.5,1.3c0.8,0,1.4,0,1.9-0.1c0.1,0,0.2,0,0.3,0
		c0.1,0,0.3,0,0.4,0c1,0,2-0.1,3-0.3c-1.3,0.6-2.5,1.4-3.6,2.3C398.5,79.2,397.3,80.7,396.3,82.5L396.3,82.5z M394.1,189.1
		c0.4-0.2,0.8-0.3,1.1-0.4c0.5-0.2,1-0.4,1.5-0.6c0.1,0,0.4-0.1,0.7-0.2c0.2-0.1,0.4-0.1,0.6-0.2c0.2,0.3,0.3,0.7,0.5,1
		c0,1.9,0.2,3.8,0.7,5.6c0.2,0.6,0.3,1.2,0.5,1.9c-0.5,0.5-1,1-1.4,1.6c-0.2,0.2-2.3,3-3.9,6.9c-3.2,0.5-6.1,2-8.4,4.2
		c-0.6-4-1-8-1-12.2C388.7,195.3,391.9,192.7,394.1,189.1L394.1,189.1z M399.2,275.5c1-0.5,1.9-1.1,2.8-1.8c-0.6,0.8-1.3,1.5-2,2.3
		c-0.3-0.1-0.6-0.2-1-0.3C399.1,275.7,399.2,275.6,399.2,275.5L399.2,275.5z"/>
</g>
</svg>
