<?xml version="1.0" encoding="utf-8"?>
<!-- Generator: Adobe Illustrator 24.1.0, SVG Export Plug-In . SVG Version: 6.00 Build 0)  -->
<svg version="1.1" id="Livello_1" xmlns="http://www.w3.org/2000/svg" xmlns:xlink="http://www.w3.org/1999/xlink" x="0px" y="0px"
	 viewBox="0 0 463 501.7" style="enable-background:new 0 0 463 501.7;" width="50" height="50" xml:space="preserve">
<style type="text/css">
	.st0{fill:#FEFEFE;}
</style>
<g>
	<path class="st0" d="M53.6,488.2c-0.4,0-0.8,0-1.2,0c-0.5,0-0.9,0-1.4,0h-0.8c-2.6,0-6.7,0-10.8-2.7c-0.2,0.1-0.4,0.1-0.6,0.2
		c-1.3,0.4-2.6,0.6-3.9,0.6c-4,0-7.5-1.9-10.4-5.6c-1.2-1.6-3.6-5.8,0.4-11.3c0.4-2.3,1.1-4.4,1.7-6.2c0.8-2.5,1.5-4.7,1.4-6.6
		c-0.2-1.7-0.2-3.3-0.2-4.9c-0.1-2.9-0.1-5.4-1-7.5c-1.5-3.7-0.5-7.3,0.2-9.7c0.2-0.6,0.4-1.2,0.4-1.6c0-0.1,0-0.2,0-0.3
		c-3.9-1.6-6.5-4.3-8.7-6.5c-1.1-1.1-2.2-2.2-3.2-2.9c-3.2-2.1-5.1-5.7-5.6-10.2c-0.6-6.2,1.6-13,5.6-17c0.5-0.5,0.9-1.1,1.5-2.3
		c2.5-4.9,6.5-10.6,15-10.6c1.4,0,3,0.2,4.7,0.5c0.5,0.1,0.9,0.1,1.3,0.1c0.7,0,1.3-0.2,1.9-0.5c2.2-1.3,4.5-2.2,6.5-2.9
		c2.8-1,4.6-1.8,4.9-2.7c1.2-3.1,2.4-6.1,3.7-9c4.8-11.4,9.3-22.1,7-33.8c-1-5.3,1.7-8.9,3.2-10.8l0.2-0.2
		c5.5-7.1,10.1-13.7,10.8-21.6c0.2-2.3-0.4-4.8-1.1-7.8c-0.2-1-0.5-1.9-0.7-2.9c-2.1-10-0.1-19.6,5.8-28c4.1-5.8,13.1-6.4,16.8-6.4
		c4.2,0,10,0.7,13.6,4.2c1,1,2.4,1.9,3.9,2.9c2.1,1.4,4.6,3,6.7,5.3c3.7,4,6.3,8.5,8.8,12.9c0.5,0.8,0.9,1.6,1.4,2.4
		c0.8,1.3,3.2,6,1.9,11c-0.2,0.8-0.8,3.1,2.2,4.7c2.5,1.4,4.9,2.9,7.1,4.6c-2-5.6-0.7-11.1-0.2-13.5l0.3-1.3
		c1.4-6.4,3.4-15,11.6-20.2c-0.6-0.1-1.3-0.3-2-0.5c-1.9-0.5-4.2-0.6-6.6-0.7c-2.6-0.1-5.5-0.3-8.6-1c-2.9-0.6-5.4-1.8-7.5-2.8
		s-3.8-1.8-5.4-1.9c-3.3-0.2-5.1-2-5.9-3.1c-2.9-3.9-6.9-4.3-13.8-4.9c-3.1-0.2-6.3-0.5-9.6-1.2c-6.7-1.6-12.4-5.7-16.9-12.4
		c-1.9-2.9-1.6-6-1.5-7.6v-0.4c0-0.6,0.2-1.2,0.3-1.7c-0.9-4.1-0.3-7.9,0.2-11.1c0.6-3.9,0.7-5.6-0.2-6.9c-1.9-2.8-2.1-6.3-0.4-10.3
		c0.6-1.4,0.7-3.4,0.7-5.5c0-0.1-0.1-0.3-0.1-0.4c-2.7-10.1,4.9-12.9,6.4-13.3c0.2-0.1,0.8-0.5,1.3-0.9c-0.8-1.1-1.5-2.4-1.6-4.2
		c0-0.3-0.1-0.5-0.1-0.5c-0.3-0.4-2-1.3-3.1-1.8c-2.1-1-4.7-2.4-7-4.6l-0.1-0.1c-1.5-1.5-3.9-3.9-3.8-7.8c0.1-4.1,2.9-6.7,4.2-7.8
		c3.4-3,7.1-4.6,10-5.8c1.1-0.5,2.1-0.9,3.1-1.3c2.8-1.4,3.2-2.3,3.4-3.1c1.6-6,5-10.4,8-14.3c0.8-1.1,1.6-2,2.3-3
		c1.2-1.7,2.7-2.8,4.5-3.5c1.4-3.6,4.3-5.7,5.9-6.9c0.4-0.3,0.9-0.7,1.2-0.9c0.1-0.1,0.1-0.2,0.1-0.3c0,0,0-0.1-0.1-0.2
		c-6.2-13.7-5.5-25.3,2.1-34.5c-2.5-4.8-3.3-9.7-2.2-14.6c1.2-5.9,5-11,10.9-14.7c1.9-9.9,10.5-14,14.8-16
		c6.5-3.1,11.4-5.7,14.4-11.1c4.7-8.3,13.9-13,25.9-13.1h0.7c9.6,0,17.6,2.3,24.5,7.1c2.4,1.6,4.1,2.6,5.8,2.6c0.2,0,0.4,0,0.5,0
		c0.6-0.1,1.3-0.1,2-0.1c3.7,0,7,1.1,9.7,3.1c0.4,0.3,0.7,0.5,1.8,0.5s2.4-0.2,3.8-0.4c1.4-0.2,2.8-0.3,4.1-0.3
		c6.1,0,11.6,2.4,15.8,6.9c0.1,0.1,0.2,0.2,0.2,0.2c9,2.8,14.9,9.5,16.7,19.1c0,0.2,0.1,0.4,0.1,0.5h0.1c7,1.5,12.1,4.7,15.2,9.6
		c3,4.8,3.9,10.7,2.6,18c5.5,5.2,8.6,12.1,8.6,19.2c0,0.1,0,0.2,0,0.3c0.1,0.1,0.3,0.1,0.5,0.2c0.9,0.3,1.7,0.7,2.6,1
		c3.6,1.5,6.8,2.7,9.9,2.7c0.5,0,1.1,0,1.6-0.1c0.9-0.1,1.8-0.2,2.7-0.2c5.4,0,9.9,2.2,13.5,4c1.6,0.8,3,1.5,4.4,2
		c0.3,0.1,0.5,0.2,0.7,0.2c2.6-4.4,6.4-5.1,8.5-5.1c0.8,0,1.5,0.1,2.3,0.3c2.4,0.6,5.4,2.2,6.8,6.6c0.1,0,0.2,0,0.2,0
		c1.3,0.2,2.9,0.5,4.5,1.2c0.2,0.1,0.4,0.1,0.6,0.1c1.8,0.4,7.4,1.8,8.9,8.2c1.2,5.2-0.9,9.5-6.4,12.7l-0.4,0.3
		c-0.5,0.3-1.3,1.4-2.1,2.5c-1.4,1.9-3.2,4.3-6,6.2c-0.1,0.1-0.3,0.3-0.4,0.5c-0.7,0.8-1.8,2.1-3.4,3.2c-0.6,6.9-5.5,11.7-12.5,11.8
		c-1.2,2.3-3.1,4.1-5.7,5.2c-5.3,2.3-12,5.2-19.4,6.1c-0.4,0.1-0.9,0.1-1.3,0.1s-1,0.1-1.3,0.2c-1.7,1.3-3.5,2.2-5,2.9
		c-0.7,0.3-1.6,0.8-2.1,1.1c-0.1,0.9-0.3,1.7-0.5,2.5c2.2,1.7,4.1,4.2,4.7,7.9c1.3,1.2,2.3,2.4,3.2,3.5c1.2,1.4,2.2,2.7,3,2.9
		c6.8,1.7,13.4,5.4,18.8,10.6c8.1-6.7,17.9-7.1,24.6-7.4c2.9-0.1,5.1-0.4,6.8-1c-0.9-3.2-0.7-7.4,2.2-12.5c0.3-0.5,0.4-1.1,0.6-1.9
		c-2.9-1.3-7-4.2-7.6-11c-0.4-4.4,0.7-10.6,8-14.9c0.8-0.4,1.6-0.8,2.4-1c0-0.5,0-0.9,0.1-1.4v-0.2c0.8-9,6.3-10.7,8.1-11.2
		c1.7-0.5,3.4-0.7,5.2-0.7c2.5,0,4.8,0.5,6.8,0.9c0.8,0.2,1.5,0.3,2.1,0.4c0.1-0.2,0.1-0.3,0.2-0.5c1.2-2.7,3.9-4.4,6.8-4.4
		c0.1,0,0.1,0,0.2,0c5.5,0.2,9.5,2.6,12.7,4.6c1,0.6,2,1.2,2.8,1.6c0.2,0.1,0.3,0.2,0.5,0.3c0.7-0.4,1.3-0.7,1.8-1
		c0.4-0.2,1-0.5,1.2-0.6c1.4-1.4,3.3-2.1,5.2-2.1c1.7,0,3.3,0.6,4.7,1.7c3,2.4,3.6,6.7,1.6,9.9c-0.2,0.3-0.3,1.6-0.4,2.4
		c-0.4,3.1-1.1,8.1-5.6,11.7c-0.1,0.3-0.3,0.5-0.4,0.7c-2.8,4.7-6.5,7.8-10.1,10.3c-11,7.8-15.7,14.4-16.1,22.9
		c-0.3,6.5-4.8,9-6.5,10c-0.2,0.1-0.3,0.2-0.5,0.3c-3.9,2.5-3.9,2.5-3.9,6.5c0.1,3.4-2.2,6.4-5.5,7.3c-0.9,0.2-1.7,0.4-2.6,0.4
		c-0.4,0-0.8,0-1.2-0.1c-0.8,0.5-1.5,0.9-2,1.2c-0.3,0.2-0.7,0.4-1.1,0.6c-0.3,1.3-0.7,2.3-1.1,3.1c-0.1,0.3-0.3,0.7-0.3,0.9
		c0,0.1,0,0.2-0.1,0.3c-1,4.5-3.4,7.3-7.4,8.2c-0.8,0.2-1.6,0.3-2.4,0.3c-4.1,0-6.5-2.5-7.7-4c-1.4,1.3-4,3.4-7.7,3.4
		c-0.3,0-0.6,0-1,0c-0.2,0-0.4,0-0.5,0c-1.9,0-3.8,1.1-6.8,3c-1.3,0.8-2.7,1.7-4.3,2.5c-1,0.5-2,0.9-3,1.1c0.6,0.6,1.3,1.1,2.1,1.5
		c1.9,1.1,4.1,3.4,4.6,6.6c0.4,2.5,1.2,3.2,6.6,5.6c1.1,0.5,2.2,1,3.2,1.5c5.2,2.5,9.3,4.3,14.1,5c8.6,1.3,12.9,5.6,15,9.7
		c3.7,2.3,5.8,5.2,6.2,8.8c0.3,2.8-0.5,5.4-2.3,7.8c1.2,4.6,0.8,9.3-1.3,13.8c-1,2.3-1.8,4.3-2,6.4c3.3-1,5.8-3.3,8.1-7.4
		c2.1-3.8,4.7-6.8,7.3-9.8l1.2-1.4c0.7-0.9,1.2-1.7,1.5-2.6c2.6-8.6,6.8-16.6,19.9-16.6c1.1,0,2.4,0.1,3.7,0.2c1.5-0.7,3-1,4.6-1
		c2.3,0,4.2,0.7,5.2,1.1c4.3,1.6,7.9,5.5,10.3,11.1c2.2,5.2,3.8,13.6,1.1,19.9c-0.6,1.3-1.2,2.6-1.7,3.9c-2.9,6.4-5.4,11.9-4.6,17.7
		c0.3,1.9,0.8,5.8-1.8,9.7c-3,4.4-4.4,10-5.9,15.8l-0.2,0.9c-1.1,4.4-0.3,9.3,2.4,14.7c4.7,9.4,10.3,18.2,16.4,26.2
		c9,1,11.8,6.8,12.6,10.9c0,0.1,0.1,0.1,0.1,0.2c1.3,1.6,4.8,6,2.6,12.2c-1.8,5.3-5.9,7-7.9,7.8c-0.1,0-0.3,0.1-0.4,0.2
		c-0.7,0.9-1.2,2.2-2,4.5s-0.4,3.6,1.2,7.5l0.4,1c1.3,3.3,2.6,6.2,4,8.8c2,3.8,2,8,0.1,11.3c-1.9,3.2-5.3,5-9.3,5h-0.3
		c-0.4,0-0.8,0-1.3,0c-0.4,0-0.8,0-1.1,0c-2,3.2-5.8,4.6-8.9,4.6c-0.5,0-1.1,0-1.6-0.1c-2.1-0.3-4.5-0.3-7-0.3c-4,0-8.6,0-13.4-1.4
		c-0.9-0.3-2.3-0.3-3.9-0.4c-2.3-0.1-4.8-0.3-7.5-1c-4.6-1.2-6.7-3.8-7.7-5.8c-1.5-2.8-1.5-6.1-0.2-9.7c0.3-0.7,0.5-1.4,0.8-2.1
		c1.4-3.8,2.9-8,5.7-12c-0.1-5.4,2.2-9.6,4-12.8c0.6-1.2,1.3-2.3,1.7-3.2c1.2-3,4.2-6.5,8.6-6.6c0.4-0.4,0.9-1.3,1.3-1.9
		c0.8-1.3,1.8-2.8,3.2-4.3c-2.9-6.9-7.7-11.8-14.9-15.5c-3.3-1.7-5.7-4.1-7.9-6.2c-1-1-2-2-3-2.7c-5.4-4.2-5.9-12.2-1-18.8
		c1.9-2.6,2.5-5.6,1.9-9.7c-0.1-0.8-0.2-1-0.2-1c-2.9-4.1-4.5-8.4-4.9-13.1c-1,0.6-2,1.2-3.1,1.8c-7.1,4.1-13.9,8.1-19.2,13.6
		c-0.5,0.6-1.2,1.5-1.8,2.5c-1,1.6-2.3,3.6-4.2,5.4c-1.5,7.7-5.6,14.3-12.1,19.5c-2.4,1.9-5.3,2.9-8.4,3c0.6,2.7,0.7,5.1-0.2,7.5
		c-1.6,4.4-5.5,5.7-7.8,6.5c0,0-0.1,0-0.1,0.1c-0.6,7.5-5.4,9.4-8.3,9.8c-0.5,0.1-1.1,0.1-1.6,0.1c-4.8,0-7.8-3.2-9.4-4.9
		c-0.3-0.3-0.5-0.5-0.8-0.8c-1.7-1.6-2.9-3.3-3.8-5c-0.2,0.3-0.4,0.6-0.6,0.9c-1,1.6-2.3,2.8-3.8,3.5c-0.9,8.3-8,8.5-8.8,8.5
		c-0.1,0-0.2,0-0.3,0c-2.7-0.1-5-1.2-6.7-3.2c-1.8-2.2-2.4-5.1-1.8-8.5c-0.1-0.1-0.3-0.1-0.5-0.2c-0.6-0.2-1.2-0.4-1.7-0.6
		c1.5,8-0.7,16-6.4,23.8c-1.9,2.6-4.1,4.6-6.1,6.5c-0.4,0.4-0.9,0.8-1.3,1.2c-3.1,3-7.4,4.6-12.1,4.6c-4.7,0-9.4-1.7-13.2-4.6
		c-5.9-4.7-7-16.2-3.6-22.1c2.5-4.4,7-5.6,8.9-6.1c2.6-0.7,3.2-1.3,3.3-1.4c0,0,0.2-0.7-0.1-2.5c-0.7-3.8-2.5-7.6-5.6-11.8
		c-5.7-0.4-10.7-2.2-15-5.3c-0.3,1.2-0.5,2.3-0.8,3.5c0,0.2-0.1,0.4-0.1,0.5c-0.3,1.5-0.8,4.3-3.2,6.8c-4,4.2-8.8,4.7-12,5
		c-0.9,0.1-1.7,0.2-2.2,0.3c-1.2,0.3-2.3,0.4-3.4,0.4c-1.7,0-3.2-0.3-4.6-0.8c1.2,4.1,2,8.7,0.8,13.8v0.1c0,1.5,0.1,4.9-2.5,7.6
		c-1.6,1.7-3.9,2.7-6.4,2.7c0,0-0.1,0-0.2,0c-1.2,0-2.4-0.2-3.5-0.7c-0.8,0.2-1.7,0.3-2.5,0.3c-0.1,0-0.3,0-0.4,0
		c0,0.2-0.7,3.8-0.7,3.8c-0.5,2.8-2.6,5.1-5.4,5.9c-0.7,0.2-1.4,0.3-2.2,0.4c-1.1,0.9-2.5,1.4-4,1.5c-0.2,0-0.4,0-0.6,0
		c-2,0-3.8-0.8-5.3-2.1c-5.3-5.2-5.4-9-5.1-13.8c0-0.4,0.1-0.9,0.1-1.4c0.1-2.5,0.5-5,0.8-7.3c0.9-6.8,1.3-11.2-1-15.4
		c-3.7-6.7-3.2-13.3,1.2-18.9c-6.7-2.4-13.9-5.5-20.7-9.8c-4.2-2.7-6.1-6.4-6-11.7c0.1-5.6-2.7-10-10.2-16.2
		c-0.1-0.1-0.4-0.3-0.9-0.6c-3.6,5.3-8.9,8.8-13.5,12l-0.3,0.2c-2.1,1.4-4.2,3-6,4.5c-0.4,5.2-3.5,8.7-5.5,11
		c-0.5,0.6-1,1.2-1.4,1.6c-2.6,3.5-2.9,8.2-3.3,13.6c-0.1,1.5-0.2,3-0.4,4.6c-0.1,1.5-0.1,3.1-0.1,4.9c0.1,4.6,0.2,10.3-3,15.9
		c-0.9,1.6-3.5,6.4-10.2,6.4c-0.3,0-0.6,0-1,0c-0.6,0-1.1-0.1-1.7-0.1c-6,0-11.8,1.9-17.8,5.9c-0.2,0.2-0.6,0.6-1,1.4
		c8,3.2,12.3,10.1,15.3,14.9c0.3,0.4,0.5,0.8,0.7,1.3c0.3,0.5,0.7,1.1,0.8,1.3c1.6,1.2,5.9,4.6,4.6,9.9c0.3,0.5,1.1,1.3,1.6,1.9
		c1.7,1.8,3.7,4,4.9,7.3c1.6,4.8,3.2,8.6,5.6,11.7c3.4,4.5,2,8.5,1.3,10c-1.2,2.3-3.3,3.9-5.9,4.6c-0.3,1.5-0.8,2.9-1.7,4.1
		c-1.9,2.7-5,4.3-9.2,4.7c-2.3,0.2-4.6,0.7-7.2,1.3C62.5,487.3,58.2,488.2,53.6,488.2z M288.1,364.9c1.4,0,2.7,0.2,4,0.7
		c0.6-2,0.5-4.1-0.1-6.7c-0.1-0.1-0.3-0.1-0.4-0.2c-1.5,2.3-3.5,4.5-6,6.3c0.2,0,0.4,0,0.6,0c0.4,0,0.8,0,1.3,0
		C287.7,364.9,287.9,364.9,288.1,364.9z M171.2,255.4L171.2,255.4c0.1-0.1,0.1-0.1,0.1-0.2C171.3,255.2,171.2,255.3,171.2,255.4z
		 M129.5,223.1c0.2,0.4,0.4,0.9,0.6,1.3c0.2,0,0.5-0.1,0.7-0.1c2.6-0.4,5.6-0.9,8.7-0.9c1.6,0,3.2,0.1,4.7,0.4
		c2-4.4,4.4-9.7,7.9-14.4c1.7-2.3,3.5-4.6,5.3-6.8c0.6-0.8,1.3-1.6,1.9-2.4c-0.1-1.1,0-2.2,0.1-3.1c-0.4,0.1-0.9,0.1-1.4,0.1
		c-1.1,0.1-2.2,0.1-3.4,0.1c-1.4,0-2.8,0-4.1-0.1c-1.2,0-2.4-0.1-3.6-0.1c-3.4,0-5.6,0.4-7.7,1.4c-3.2,1.4-7,2.2-11.2,2.2
		c-0.2,0-0.4,0-0.6,0c0,1.6-0.3,3.5-1.1,5.5c1.5,0.8,2.8,1.9,3.7,3.3c1.7,2.4,2.2,5.5,1.6,8.7C131.3,220.3,130.5,221.9,129.5,223.1z
		 M276.7,146.5c0.2,0,0.4,0,0.6,0c0.7,0,1.1-0.1,1.1-0.2c2.3-2.4,5.2-5.3,8.6-8c-2.6,0.3-5.3,0.9-8.2,1.4c-0.7,0.1-1.5,0.3-2.2,0.4
		c0.4,2.3,0.2,4.5-0.1,6.2C276.6,146.4,276.6,146.5,276.7,146.5C276.6,146.5,276.6,146.5,276.7,146.5z"/>
	<path d="M178.9,20.9c7.2,0,14.1,1.5,20.2,5.7c3,2.1,6.2,3.9,10,3.9c0.4,0,0.9,0,1.3-0.1c0.4,0,0.8-0.1,1.2-0.1
		c1.8,0,3.7,0.4,5.1,1.6c2.1,1.6,4.2,2.1,6.4,2.1c1.6,0,3.3-0.3,5-0.5c1-0.2,2-0.2,2.9-0.2c3.9,0,7.4,1.4,10.3,4.5
		c1,1,1.9,1.8,3.4,2.2c6.6,2,10.4,6.7,11.6,13.3c0.7,3.6,2.2,5.7,6,6.5c12,2.5,14,10.7,11.6,20.9c-0.5,2-0.3,2.3,1.3,3.6
		c4.7,3.7,7.7,9,7.6,14.9c0,4.4,2.5,6.5,5.3,7.6c4.9,1.9,9.7,4.2,15.2,4.2c0.9,0,1.8-0.1,2.7-0.2c0.6-0.1,1.1-0.1,1.7-0.1
		c5.5,0,10.3,3.8,15.4,5.6c1.7,0.6,3.2,1,4.5,1c1.9,0,3.5-0.9,4.8-3.5c0.5-1,1.1-2,2.3-2c0.2,0,0.4,0,0.6,0.1
		c1.3,0.3,1.3,1.4,1.6,2.5c1.2,4.6,5.7,3.6,8.8,4.9c1.9,0.8,4.5,0.5,5.1,3.2c0.7,2.8-1.5,3.7-3.4,4.9c-3.6,2.2-4.9,6.6-8.5,8.9
		c-1.6,1.1-2.5,3.3-4.8,4.1c-1.6,0.6-2.1,2.6-2.2,4.4c0,3.8-2.1,5.6-5.2,5.6c-0.4,0-0.7,0-1.1-0.1c-0.5-0.1-0.9-0.1-1.3-0.1
		c-2.1,0-3.3,0.8-3.7,3.3c-0.2,1.4-1.2,2.2-2.3,2.8c-5.6,2.4-11.2,4.8-17.3,5.6c-2.2,0.3-4.4,0.2-6.1,1.7c-3.5,3-9.6,3.1-10.1,9.5
		c-0.1,1.7-2.5,2.1-3.9,3.1s-2.3,2.1-0.1,3c4.1,1.6,9.1,2.3,8.2,8.6c4.6,2.5,6.3,8.6,11.8,10c7,1.8,13.1,6,17.6,10.8
		c1.6,1.7,2.7,2.4,3.5,2.4c1.5,0,2.1-2.1,3.6-3.4c5.9-5.5,13.5-6.1,20.9-6.4c5.3-0.2,10.2-1,14.4-4.4c1.3-1,2.3-2.1,0.9-3.4
		c-3.1-3.2-1.8-6.6-0.2-9.5c2-3.6,1.4-7.5,2.5-11.2c0.3-1-0.6-2.3-1-3.5c-0.4-0.6-0.7-0.8-1-0.8c-0.4,0-0.7,0.7-0.9,1.4
		c-0.3,0.8,0,1.9-1,2.4c-2.6-0.9-4.4-2-4.7-5.4c-0.4-4,1.5-6.1,4.3-7.8c0.5-0.3,1.1-0.5,1.6-0.5c1.4,0,2.7,0.9,3.4,2.3
		c1.6,3,3.9,4.7,6.7,4.7c0.5,0,1,0,1.5-0.1c2.1-0.4,1.8-6.8-0.3-10.4c-0.4-0.7-1-1.2-1.5-1.7c-1.6,0.2-1.8,2.9-3.1,2.9
		c-0.2,0-0.5-0.1-0.7-0.2c-1.4-0.8-1.6-3.3-1.5-5.2c0.2-1.9,0.3-4.1,2.8-4.8c1-0.3,2-0.4,3.1-0.4c2.7,0,5.3,0.9,8,1.3
		c1.1,0.2,1.5,1.3,1.3,2.2c-0.6,2.3,0.5,4.3,0.8,6.4c0.4,2.6-0.9,6.4,3.7,6.4c0.1,0,0.2,0,0.3,0c3.6-0.1,6.9-3.3,7.2-7.2
		c0.1-2.2,1.4-4.5-2.1-6.1c-1.9-0.9-1.4-4.5-3.2-6.5c5,0.1,8.4,3.5,12.5,5.5c1.1,0.5,0.1,2-0.4,2.9c-0.9,1.9-1,3.8-0.3,6.2
		c2.9-1,5.1-2.4,5.6-5.5c0.7-3.9,4.7-4,7.1-6.3c-2.6,4-0.4,9.8-5.2,12.9c-0.7,0.5-1,1.5-1.5,2.3c-2,3.4-4.7,5.6-8,8
		c-9.9,7-18.6,15.4-19.3,28.7c-0.1,2.8-1.9,3.3-3.5,4.3c-6.1,3.9-7.4,6.2-7.3,12.9c-0.2,0.1-0.4,0.1-0.5,0.1c-1.5,0-1-2.3-2.6-2.5
		c-1,4.9-8,4.3-8.9,9.7c-0.2,1.4-1,2.6-1.4,4c-0.4,1.3-0.3,2.9-2,3.4c-0.2,0.1-0.4,0.1-0.6,0.1c-1.3,0-1.8-1.3-2.6-2.3
		c-1.3-1.6-3.1-2.4-4.8-2.4c-1.7,0-3.5,0.7-4.9,2.2c-0.9,0.9-1.9,1.8-3,1.8c-0.1,0-0.1,0-0.2,0c-0.4,0-0.9-0.1-1.3-0.1
		c-5.7,0-9.8,3.9-14.5,6.3c-0.6,0.3-1.2,0.5-1.7,0.5c-0.8,0-1.6-0.4-2-1.1c-2.4-3.7-6.3-4.6-10.1-5.8c-0.9,1.3,0.3,2.2,0.7,3.3
		c2.4,7.4,4.7,14.8,12.1,18.9c0.4,0.2,0.8,0.7,0.9,1.1c1.2,8.2,7.7,9.7,14,12.8c5.3,2.6,10.3,4.8,16.2,5.7c4.2,0.6,8.6,2.3,10.1,7.2
		c0,0.1,0.1,0.3,0.2,0.4c4.9,2.3,6.5,5,1.4,8.9c-0.9,0.6,0.2,1.8,0.5,2.5c1.4,3.6,1.2,7.1-0.3,10.5c-1.6,3.4-2.7,6.7-2.7,10.7
		c0,3.5-3.9,3.8-6.3,4.4c-3.1,0.7-5.6,2.3-7.4,4.3c-2.1,2.4-4.6,3.3-7.3,3.7c-8.9,1.1-13,8-16.9,14.5c-1.9,3.1,2,4.5,4.4,4.5
		c0.2,0,0.5,0,0.7,0c0.5-0.1,1-0.1,1.5-0.1c1,0,2.1,0.1,3.1,0.1c2.9,0,5.6-0.5,6.7-4.7c8.4-2.5,9.4-12.7,17.1-16.3
		c3.1-1.4,6.2-3.2,9.5-3.5c8.1-0.7,13.2-5.1,16.9-11.7c2.1-3.7,4.9-6.8,7.6-10c1.3-1.6,2.3-3.3,2.9-5.3c2.6-8.5,5.4-11.3,12.7-11.3
		c1,0,2,0.1,3.2,0.1c0.2,0,0.5,0,0.7,0c1,0,2-0.2,3-0.7c0.5-0.3,1-0.4,1.5-0.4c0.9,0,1.7,0.3,2.5,0.6c6.1,2.3,9.7,15.1,7.1,21.1
		c-3.5,8.1-8.2,16.1-6.9,25.7c0.2,1.5,0.4,3-0.6,4.5c-3.9,5.8-5.5,12.5-7.2,19c-1.8,6.9-0.2,13.7,3,19.9c5,10,11,19.5,17.9,28.3
		c1,1.3,1.8,1.8,3.4,1.9c3.6,0.2,6.6,1.2,7.2,5.6c0.4,2.7,4.2,4,2.9,7.8c-1.1,3.3-4.5,2.9-6.3,4.8c-2.1,2.2-3,4.7-4,7.6
		c-1.9,5.5-0.2,9,1.7,13.6c1.3,3.3,2.7,6.4,4.3,9.5c1.5,2.8,0.5,5.3-2.6,5.3h-0.1c-0.9,0-1.9-0.1-2.8-0.1c-2.5,0-4.7,0.5-6.1,3.5
		c-0.3,0.6-1.6,1.1-2.6,1.1c-0.1,0-0.2,0-0.3,0c-6.4-1.1-12.9,0.4-19.4-1.6c-3.5-1-7.7-0.4-11.6-1.5c-3.5-0.9-3.8-2.9-2.8-5.6
		c1.6-4.3,3-8.8,5.8-12.7c0.6-0.9,1.4-1.8,1.3-2.9c-0.8-5.6,3.1-9.6,5-14.3c0.3-0.8,1.2-1.9,1.8-1.9l0,0l0,0c6.8,0,6.9-7.8,11.8-10
		c0.8-0.4,1.1-1.9,0.6-3.3c-3.4-10.3-10-17.6-19.6-22.5c-3.7-1.9-6.3-5.6-9.6-8.2c-2.5-1.9-1.6-5.7,0.4-8.5
		c3.3-4.5,4.1-9.6,3.3-15.1c-0.2-1.6-0.6-3.1-1.6-4.3c-5.2-7.2-4.2-14.6-0.8-22.1c0.2-0.4,0.4-0.9,0.5-1.3c0-0.1-0.1-0.3-0.3-0.6
		c-1.3,0.7-2.7,1.3-3.9,2.2c-11.1,8.1-24.4,13.1-34.2,23.2c-2.8,2.9-4,7.1-7.9,9.1c-0.7,0.3,0.1,1.1,0,1.7c-1.1,6.6-4.4,11.9-9.6,16
		c-1.2,1-2.5,1.3-3.8,1.3c-1.7,0-3.4-0.6-5.1-1c-0.5-0.1-1-0.2-1.4-0.2c-1.3,0-1.7,0.8-1.6,2.6c0.1,1.7-0.2,3.5,0.2,5.1
		c2.2,8.4,0.6,6.3-6.3,9.5c-1.8,0.8-1.2,1.9-1.3,3c0,2,0.4,4.7-2,5.1c-0.2,0-0.3,0-0.5,0c-2.1,0-3.5-2.2-5.1-3.7
		c-3.7-3.4-3.8-8.6-6.8-12.4c-2.6-3.2-2.6-7.5-0.8-11.1c2.8-5.6,2.3-11,0.5-16.5c-0.2-0.7-0.8-1.6-1.3-1.8c-4.5-1-6.8-4-7.5-8.7
		c-2.7,9.9-7,17.7-18.6,17.8c3.5,7.7,7.7,10.7,15.1,10.7c0.5,0,1.1,0,1.7,0c0.1,0,0.2,0,0.3,0c4.8,0,9.2,7.5,6.7,11.9
		c-1.4,2.6-3.2,4.9-4.9,7.3c-0.2,0.3-0.5,0.8-0.8,0.9c-3.7,0.6-3.7,0.5-4.2,4.9c-0.1,1.2,0.1,2.9-1.4,2.9c0,0,0,0-0.1,0
		c-1.7,0-1.5-1.9-1.3-3c0.9-4.8-1-7.2-5.8-8.6s-8.6-5-12.1-8.6c-1-1.1-2.1-1.8-3.2-1.8c-0.5,0-1.1,0.2-1.7,0.6c-2,1.3,0,2.8,0.6,4
		c2.1,3.7,3.4,7.7,4.6,11.7c2.2,7.5-0.2,14.1-4.6,20.1c-1.8,2.5-4.2,4.5-6.5,6.7c-1.8,1.7-4.3,2.5-6.9,2.5c-2.9,0-6-1-8.6-3
		c-2.5-2-3.6-9.3-1.8-12.5c0.9-1.6,2.7-2.2,4.3-2.6c7.2-1.9,9.8-5.4,8.6-12.5c-1-5.8-3.8-10.8-7.4-15.5c-0.8-1-1.6-2.4-3.2-2.4
		c-9.8-0.1-16.4-4.9-21-14c-1.5,6-3.2,11.9-4.5,18c-0.3,1.4-0.4,2.7-1.4,3.7c-2.9,3-6.9,2.3-10.5,3.1c-0.7,0.1-1.3,0.2-1.8,0.2
		c-3.4,0-4.7-2.7-6.6-5.5c-1.9-2.8-5.2-4.6-7.2-7.6c-3.5,3.9-3,7.2-1.7,11.7c1.9,6.7,6.2,13.1,4.3,20.6c-0.4,1.5,0.7,4.1-1.6,4.2
		l0,0c-2.1,0-0.8-2.5-1.1-3.8c-0.1-0.4-0.1-0.9-0.2-1.4c-1.6,0.1-1.2,1.6-1.7,2.4c-1,1.5-1.9,2.5-3,2.5c-0.8,0-1.7-0.6-2.5-2.1
		c-0.4-0.7-0.6-1.5-1.5-1.5c-0.1,0-0.3,0-0.5,0.1c-1.2,0.3-1.8,1.1-2,2.3c-0.6,3.8-1.3,7.5-2,11.1c-0.2,0.1-0.4,0.1-0.5,0.1
		c-1.5,0-1.4-2.4-2.6-2.4c-0.1,0-0.3,0-0.5,0.1c-1.7,0.7-0.2,2.6-1.1,3.8c-3.6-3.6-3-4.8-2.8-9.4c0.5-8.9,3.7-18-1.2-26.8
		c-3-5.3-1.5-9.7,3.5-13.5c1.6-1.2,2.8-2.5,2.6-4.7c-0.2-2.4-2.5-2-3.9-2.4c-8.4-2.8-16.7-6-24.3-10.8c-1.9-1.2-2.6-2.5-2.6-5.2
		c0.2-9.7-5.9-16.3-12.9-22.1c-1.1-0.9-2.4-1.6-3.6-2.1c-1.4-0.6-2.6-1.2-3.7-1.2c-1.2,0-2.4,0.7-3.7,2.9
		c-2.8,4.9-7.9,8.3-12.7,11.5c-2.6,1.7-5,3.7-7.5,5.6c-0.8,0.7-2.1,1.8-1.9,2.5c0.9,5-2.9,7.5-5.3,10.8c-4.9,6.6-4.4,14.4-5.1,21.9
		c-0.6,6,1,12.2-2.1,17.9c-0.9,1.7-1.7,2.5-3.7,2.5c-0.2,0-0.3,0-0.5,0c-0.7,0-1.4-0.1-2.1-0.1c-8,0-15.3,2.8-22,7.2
		c-3.1,2.1-4.4,5.9-5.3,9.5c-0.6,2.4,0.8,3.8,3.1,4.3c7.1,1.6,10.8,7.1,14.3,12.7c1,1.6,1.7,3.2,3.2,4.4c0.8,0.7,2.2,1.8,2,2.4
		c-1.5,6.4,5.1,8.6,6.7,13.4c1.7,4.8,3.5,9.6,6.7,13.8c1.5,2,0.4,2.9-1.5,2.9c-0.2,0-0.4,0-0.6,0c-0.3,0-0.6,0-0.9,0
		c-2.6,0-3.9,1.2-3.1,4.2c0.9,3.7-2.5,4.2-4.1,4.4c-6.4,0.6-12.4,3-19,3c-0.3,0-0.6,0-0.9,0c-0.6,0-1.1,0-1.6,0c-0.3,0-0.5,0-0.8,0
		c-2.8,0-5.4-0.1-7.8-2.5c-0.4-0.3-1-0.5-1.7-0.5c-1.3,0-2.9,0.4-4.1,0.8c-0.6,0.2-1.1,0.3-1.6,0.3c-2,0-3.4-1.4-4.5-2.7
		c-1-1.3,1.5-2.8,1.7-4.2c0.7-5.4,3.9-10.3,3.4-16c-0.4-4.9,0.3-9.8-1.7-14.6c-0.8-1.9,0.7-4.8,1.1-7.2c0.6-3.8-0.5-6.7-4.4-8.3
		c-4.4-1.8-6.8-6.1-10.7-8.7c-3.8-2.5-2.7-11.8,1.2-15.7c1.3-1.3,2.1-2.6,2.8-4.1c2.3-4.6,4.5-6.5,8.3-6.5c1,0,2,0.1,3.3,0.4
		c0.9,0.2,1.9,0.3,2.8,0.3c2.1,0,4-0.5,5.8-1.6c4.9-3,12.2-3.2,14.5-9.3c5.7-15.1,14.4-29.6,11-46.9c-0.4-2.1,0.8-3.4,2-5
		C77.5,320.9,83,313,83.9,303c0.4-4.4-1-8.6-1.9-12.9c-1.7-8,0-15.6,4.6-22.1c1.5-2.1,6.2-3.2,10.7-3.2c3.6,0,7,0.7,8.5,2.2
		c3.2,3,7.4,4.8,10.2,7.8c3.7,4,6.4,9.2,9.2,14c0.9,1.5,1.5,3.8,1.1,5.4c-1.5,6.1,1.5,10.7,5.8,13.1c10.3,5.7,17.7,14.8,27.2,21.1
		c5.3,3.6,9.6,7.7,13.3,12.9c1.9,2.7,1.3,6.5,4.2,9c3.7-2.5,6.5-5.7,7.8-10.2c0.7-2.7,0.5-4.6-3-4.8c-3.4-0.1-6-1.5-6.9-5.2
		c-0.4-1.8-2.2-1.5-3.3-2.1c-5.3-2.7-11.6-4.2-14.1-10.6c-0.6-1.6-0.9-3.3-1.5-4.9c-0.6-1.7-0.9-4.1-2.1-5c-5.1-3.8-4.8-9.2-3.6-14
		c1.5-6.7,2.7-13.9,9.9-17.6c1-0.5,2.1-1.8,2.3-2.8c1.1-6.7,6.1-9.1,11.7-10.5c2.5-0.6,3.7-1.7,4.3-4c1.8-6.1,3.8-12.1,7.7-17.3
		c0.8-1,1.3-2.1,2.5-2.7c1.2-0.6,2.4-1.3,1.9-2.8c-0.6-1.8-2.3-1.9-3.9-1.9c-0.1,0-0.1,0-0.2,0c-2.7,0-4.7,2.4-7.3,2.4
		c-4,0-5.8,1.7-6.9,5.5c-0.7,2.5-2.3,4.7-4.5,6.4c-2.5,2-3.8,4.9-4.3,8.1c-0.9,5.3-1.4,7.2-4.2,7.2c-1.1,0-2.6-0.3-4.7-0.8
		c-5.1-1.3-10.3-0.6-15.4-1.8c-4.9-1.1-8.9-4.5-14-4.8c-0.2,0-0.4,0-0.4-0.1c-7.1-9.5-18.2-6.7-27.7-8.9c-5.5-1.3-9.3-4.8-12.3-9.2
		c-0.5-0.8-0.3-2.1-0.2-3.2c0.1-0.8,0.9-1.6,0.7-2.2c-2.8-7.3,3.2-15.2-1.6-22.3c-0.6-0.8-0.1-2.1,0.3-3.2c1.2-2.8,1.3-5.7,1.3-8.7
		c0-2.1-2.3-5.3,0.9-6.2c3.7-1.1,6.5-5.3,10.4-5.3c1.1,0,2.3,0.3,3.7,1.2c1.4,0.9,4.5,0.3,4,3c-0.4,2-2.3,3-4.5,3
		c-0.1,0-0.2,0-0.3,0c-0.1,0-0.1,0-0.2,0c-3,0-4.3,2.6-6,4.3c-1,1-0.9,3.6,0.2,4.8c0.3,0.3,0.6,0.5,1,0.5c0.9,0,1.9-0.7,2.8-1.1
		c0.8-0.4,1.7-1,2.4-1c0.7,0,1.2,0.7,1.1,3.1c1.9-5.9,6.6-7.1,11-8.3c0.8-0.2,1.6-0.4,2.4-0.4c2,0,3.9,0.8,5.2,2.6
		c1.6,2.1,1,4.5-0.3,6.6c-0.3,0.6-0.9,1.4-1.5,1.4c-0.2,0-0.4-0.1-0.7-0.3c-1.4-1.4-2.6-1.9-3.6-1.9c-2.3,0-3.7,2.9-5.3,4.7
		c-1.5,1.8-3.9,4.6-2.4,6.5c0.5,0.6,1.1,0.8,1.8,0.8c1.6,0,3.6-1.2,5.1-1.8c2.4-0.9,4.8-1.8,7.3-1.8c0.6,0,1.1,0,1.7,0.1
		c2.6,0.4,3.4,2.2,2.9,4.4c-0.3,1.5-0.8,2.6-2.6,2.6c-0.4,0-0.8,0-1.2-0.1c-0.6-0.1-1.2-0.2-1.7-0.2c-3.8,0-6.8,2.8-10.2,6.5
		c2.9-0.7,4.8-0.8,6.5-1.5c0.7-0.3,1.4-0.4,2-0.4c1.5,0,2.8,0.7,4.1,1.5c2.3,1.4,2.7,3-0.1,4.4c-1.5,0.8-3.1,1.4-5.4,2.5
		c1.8,0.8,3.6,1,5.2,1c2.1,0,4.2-0.4,6.3-0.6c4.1-0.4,8.2-1.5,12.4-1.5c2.1,0,4.2,0.3,6.4,1.2c0.6,0.2,1.1,0.3,1.5,0.3
		c2.2,0,2.5-2.8,3.1-4.1c2.2-5,4.4-10,7.7-14.4c2.6-3.5,5.4-6.9,8.1-10.4c0.5-0.6,1.3-1.6,1.2-1.9c-2-3.8,1.4-6.6,1.8-9.9
		c0.4-2.7-0.5-2.3-2-2.6c-0.8-0.2-1.5-0.2-2.3-0.2c-2.5,0-5,0.8-7.4,0.9c-0.9,0.1-1.9,0.1-2.8,0.1c-2.5,0-5.1-0.2-7.7-0.2
		c-3.5,0-7.1,0.4-10.8,2c-2.3,1-5.1,1.5-8.1,1.5c-3.1,0-6.3-0.5-9.4-1.5c-9.1-2.9-17.9-6.2-25.9-11.4c-0.7-0.4-1.8-0.8-1.8-1.3
		c-0.6-7.6-8.3-7.6-12.3-11.6c-1.9-1.9-2.6-2.5,0-4.9c3.4-3.1,7.6-4.1,11.4-6c3.5-1.7,6.3-3.9,7.4-7.9c1.5-5.9,5.8-10.2,9.2-14.9
		c0.5-0.7,1.1-1,1.9-1c0.2,0,0.4,0,0.5,0s0.2,0,0.4,0c1.1,0,2.4-0.6,2.3-1.4c-0.6-5.3,4.8-6,6.8-9.4c1.4-2.5,1.8-4.7,0.5-7.5
		c-4.8-10.5-5.9-20.7,3.7-29.4c1.5-1.3,0.4-2-0.3-3.1c-5.8-8.2-3.9-16.9,4.9-22.2c1.1-0.7,2.6-0.8,2.7-2.7c0.4-7,5.5-10,10.9-12.6
		c7-3.3,13.5-6.7,17.7-14.1c3.9-6.9,11.6-9.2,19.5-9.3C178.5,20.9,178.7,20.9,178.9,20.9 M275.9,154c0.1,0,0.2,0,0.2,0
		c0.4,0,0.7,0,1.1,0c2.3,0,4.7-0.6,6.4-2.4c4.3-4.4,8.8-8.6,14.1-11.9c1.6-1,4.1-2.4,2.9-4.7c-1.1-2.3-2.9-4.2-6.2-4.5
		c-0.9-0.1-1.8-0.1-2.7-0.1c-6.4,0-12.6,1.6-18.9,2.8c-3,0.5-5.6,2.7-4,6.9c0.6,1.6,0.5,3.8,0.1,5.5C268.3,149.2,272,154,275.9,154
		 M130.2,144.6c-3,3.1-5.1,5.4-7.4,7.7c-4.6,4.5-3.7,9.1,2.4,11c7.5,2.3,14.6,6.2,22.5,7.5c4.9,0.8,10,2.3,14.8,2.3
		c5,0,9.9-1.6,14.1-7.2c-0.8-0.4-1.7-0.6-2.5-0.6c-1.2,0-2.4,0.4-3.7,1c-2.4,1.1-5,1.8-7.5,1.8c-2.9,0-5.6-0.9-8-2.9
		c-3.3-2.8-6-5.7-10.2-5.7c-1,0-2,0.2-3.2,0.5c-0.5,0.1-0.9,0.2-1.4,0.2c-2.5,0-5-1.8-6.9-3.7C130.2,153.5,130.1,149.6,130.2,144.6
		 M307,326.5c2.7-3.4,5.5-6.3,6.6-10.3c0.3-1.2,0.9-3.1,0.4-3.6c-4-3.5-5.4-9.3-10.2-12c-1.1-0.6-2.1-1.9-3.4-1.9
		c-0.4,0-0.8,0.1-1.2,0.4c-1.8,1.3-0.8,3.3-0.3,5.1C300.8,311.7,303.1,319,307,326.5 M240.4,364c1.6,0,2.6-0.8,2.5-3.5
		c-0.1-5.2,2.6-9,7.5-10.6c3.2-1.1,4.4-3.1,4.6-6.2c0.5-8.1,0.4-15.9-6.6-22.1c-0.6,1.6-0.3,3.1,0.2,4.6c1.5,5.2-0.7,14.1-5.1,16.8
		c-4.5,2.7-6.5,7.2-9.4,11s-0.3,8.9,4.6,9.8C239.3,363.9,239.9,364,240.4,364 M290,342.6c0.7-1.8,2.1-2.4,3.4-3.2
		c0.9-0.5,2-1.1,1.9-2.4c-0.3-3.7,0-7.6-2.5-10.7c-0.7-0.9-1.2-3-2.5-3c-0.4,0-0.8,0.2-1.4,0.6c-2.2,1.6-6.1,2.6-3.7,7
		C287.2,334.6,289.2,338.3,290,342.6 M217.8,340.1c1.1,0,0.8-1.9,1.4-2.6c2.1-3,1.1-6.2,0.1-9.7c-2.2,2.1-4,3.7-5.7,5.4
		c-1,0.9-1.5,2.2-0.5,3.3c1.2,1.3,2.6,2.9,4.2,3.5C217.5,340,217.7,340.1,217.8,340.1 M178.9,5.9c-0.3,0-0.5,0-0.8,0
		c-14.7,0.2-26.2,6.2-32.3,16.9c-1.8,3.2-4.8,5-11.2,8c-4.3,2-14.5,6.9-18.2,18.2c-6.1,4.6-10.2,10.8-11.7,17.8
		c-1,5-0.7,10.2,1,15.1c-5,7.9-7.7,18.8-2.5,33.5c-1.3,1.2-2.6,2.7-3.8,4.7c-2,1.2-3.7,2.8-5.1,4.7c-0.6,0.9-1.4,1.8-2.1,2.8
		c-3,3.9-6.8,8.7-8.8,15.3l0,0c-0.7,0.3-1.6,0.7-2.6,1.1c-3.3,1.4-7.9,3.3-12.2,7.2c-1.6,1.4-6.4,5.8-6.6,13.1
		c-0.2,7.2,4.1,11.5,6,13.3l0.1,0.1c1.9,1.9,3.9,3.3,5.7,4.3c-2.3,2.5-3.9,5.6-4.4,9.2c-0.5,3.4,0.1,6.1,0.6,7.9
		c0,0.9-0.1,1.5-0.1,1.7c-3,7.2-1.5,12.7,0.5,16.2c-0.1,0.7-0.2,1.8-0.4,2.6c-0.5,3.1-1.1,7.4-0.4,12.1c-0.1,0.4-0.1,0.7-0.1,1.1
		v0.2c-0.2,2-0.7,7.4,2.7,12.5c2.2,3.3,4.7,6.1,7.4,8.4c-1.9,1.3-3.7,2.9-5.1,4.9c-7.2,10.1-9.6,21.8-7.1,33.9
		c0.2,1.1,0.5,2.1,0.7,3.1c0.5,2,1,4.3,0.9,5.3c-0.5,6-4.5,11.6-9.3,17.7l-0.2,0.2c-1.7,2.2-6.4,8.2-4.6,16.9
		c1.9,9.4-2,18.7-6.5,29.4c-1,2.3-1.9,4.6-2.9,7c-0.5,0.2-0.9,0.4-1.4,0.5c-1.9,0.7-4.1,1.5-6.5,2.8c-1.9-0.3-3.6-0.5-5.3-0.5
		c-5.4,0-10.2,1.6-14.2,4.9c-3.8,3.1-6.1,7.1-7.5,9.8c-0.2,0.3-0.3,0.5-0.3,0.6C4.8,396,1.9,405,2.7,413.3
		c0.7,6.7,3.8,12.3,8.9,15.7c0.4,0.3,1.3,1.2,2,1.9c1.4,1.4,3.2,3.2,5.4,4.8c-0.5,2.9-0.6,6.7,1.1,10.7c0.3,0.8,0.4,2.9,0.4,4.8
		c0,1.6,0.1,3.4,0.2,5.3c-0.1,0.7-0.6,2.4-1,3.7c-0.5,1.6-1.1,3.5-1.6,5.6c-5.9,9.5-0.5,17.4,0.7,18.9c5.5,7,11.9,8.5,16.3,8.5
		c1.2,0,2.3-0.1,3.5-0.3c4.8,2.2,9.3,2.2,11.8,2.2h0.4h0.4c0.4,0,0.7,0,1.1,0c0.5,0,1,0,1.4,0c5.4,0,10.1-1,14.2-1.9
		c2.3-0.5,4.4-1,6.2-1.2c8-0.7,12.4-4.7,14.6-7.8c0.6-0.9,1.2-1.9,1.6-2.9c2.8-1.6,5.1-3.9,6.5-6.9c2.8-5.7,2.1-12.4-2-17.8
		c-1.8-2.4-3.1-5.6-4.5-9.7c-1.5-4.3-4-7.3-5.9-9.4c-0.2-3.7-1.8-8.1-6.7-12.4l0,0c-0.3-0.5-0.6-1-0.9-1.5
		c-1.8-2.9-4.2-6.7-7.6-10.3c1.6-0.4,3.1-0.6,4.7-0.6c0.4,0,0.8,0,1.2,0c0.5,0,1,0,1.5,0c5.1,0,12.1-1.8,16.8-10.2
		c4.1-7.4,4-14.5,3.9-19.7c0-1.5-0.1-3,0.1-4c0.2-1.7,0.3-3.3,0.4-4.9c0.3-4.2,0.5-7.9,1.9-9.7c0.2-0.2,0.6-0.7,1-1.2
		c1.8-2.1,5.3-6,6.7-11.8c1.1-0.8,2.2-1.6,3.3-2.4l0.3-0.2c3.1-2.1,6.7-4.5,10-7.6c2.4,2.6,2.9,4.4,2.9,6.1c-0.2,7.9,3,14,9.5,18.1
		c4.8,3,9.6,5.5,14.4,7.5c-1.6,5.9-0.8,12.3,2.6,18.5c1.2,2.2,0.9,5.4,0.2,10.8c-0.3,2.4-0.7,5.1-0.8,7.9c0,0.5-0.1,0.9-0.1,1.3
		c-0.4,5.9-0.2,12.3,7.3,19.6c2.8,2.8,6.6,4.3,10.5,4.3c0.4,0,0.8,0,1.2,0c2.1-0.2,4.2-0.8,6-1.8c0.5-0.1,1.1-0.2,1.6-0.4
		c4.6-1.3,8.3-4.7,9.9-9c0.2,0,0.3,0,0.5,0c0.1,0,0.2,0,0.2,0c4.5-0.1,8.7-1.9,11.7-5c4.3-4.5,4.6-9.7,4.6-12.2
		c0.4-2.3,0.6-4.5,0.5-6.6c0.2,0,0.5-0.1,0.7-0.1s0.9-0.1,1.3-0.1c3.8-0.4,10.8-1,16.8-7.2c1.6-1.7,2.7-3.5,3.5-5.2
		c2,0.7,4,1.2,5.9,1.5c0.5,0.9,1,1.7,1.4,2.6c-3.1,1.3-7.2,3.7-10,8.5c-5,8.7-3.7,24.5,5.5,31.7c5.1,4,11.5,6.3,17.8,6.3
		c6.6,0,12.7-2.4,17.2-6.7c0.4-0.4,0.8-0.8,1.2-1.2c2.1-2,4.7-4.4,7-7.5c2.3-3.2,4.1-6.3,5.3-9.3c1.7,0.7,3.6,1,5.5,1.1
		c0.2,0,0.3,0,0.5,0c5.2,0,10.8-2.5,14-7.9c2.5,2.4,6.9,5.6,13.2,5.6c0.9,0,1.9-0.1,2.8-0.2c6.5-1,11.8-5.6,13.8-11.9
		c3-1.6,6.5-4.3,8.3-9.3c0.5-1.4,0.8-2.8,1-4.1c1.9-0.8,3.6-1.8,5.2-3.1c7.2-5.8,12.1-13.2,14.3-21.6c1.6-1.8,2.8-3.6,3.7-5
		c0.3-0.5,0.7-1.2,1-1.4c3.4-3.4,7.6-6.3,12.2-9.1c0.7,1.6,1.6,3.2,2.5,4.5c0.2,2.2-0.4,2.9-0.7,3.4c-7.2,9.9-6.2,22.4,2.5,29.1
		c0.6,0.5,1.4,1.3,2.3,2.1c2.3,2.3,5.4,5.4,9.8,7.6c4.1,2.1,7.2,4.7,9.4,8c0,0,0,0.1-0.1,0.1c-5.6,1.7-9.4,6.5-11.1,10.6
		c-0.2,0.6-0.8,1.5-1.3,2.4c-1.7,3.1-4.4,7.9-4.9,14.1c-2.5,4.1-4,8.3-5.3,11.7c-0.2,0.7-0.5,1.3-0.7,2c-2.7,7-1.2,12.4,0.5,15.7
		c1.7,3.3,5.2,7.7,12.4,9.6c3.5,0.9,6.7,1.1,9.1,1.2c0.8,0,1.9,0.1,2.3,0.2c5.8,1.7,11.1,1.7,15.3,1.7c2.3,0,4.3,0,5.8,0.2
		c0.9,0.1,1.8,0.2,2.8,0.2c3.7,0,8.5-1.3,12.2-4.5c6.3-0.2,12-3.4,15.1-8.6c3.3-5.5,3.4-12.5,0.2-18.7c-1.3-2.4-2.4-5-3.7-8.1
		l-0.4-1c-0.3-0.8-0.7-1.9-1-2.5c0.1-0.3,0.2-0.6,0.3-1c3.1-1.6,7.7-4.8,9.9-11.3c2.1-6.3,1.1-12.4-3-18.1
		c-1.4-4.8-5.3-12-15.3-14.4c-5.2-7-9.9-14.7-14-22.7c-1.9-3.7-2.5-6.8-1.8-9.4l0.2-0.9c1.3-5.2,2.6-10.1,4.9-13.5
		c4.3-6.3,3.4-12.6,3-15c-0.5-3.5,1.2-7.5,4-13.6c0.6-1.3,1.2-2.6,1.8-4c3.7-8.5,1.9-18.9-1-25.8c-3.2-7.6-8.2-12.8-14.5-15.2
		c-1.3-0.5-4.2-1.6-7.8-1.6c-2,0-3.9,0.3-5.8,0.9c-0.9,0-1.7-0.1-2.5-0.1c-15.4,0-21.9,9.1-25,16.1c-0.5-3.8-2.4-8.7-7.9-12.8
		c-3.1-4.9-8.8-10.2-19.5-11.8c-3.8-0.6-7.4-2.1-11.9-4.3c-1.2-0.6-2.4-1.1-3.5-1.6c-0.8-0.4-1.8-0.8-2.5-1.2
		c-0.3-1.3-0.7-2.5-1.3-3.6c0.7-0.4,1.4-0.8,1.8-1c0.4,0,0.8,0,1.2,0c2.5,0,4.8-0.5,7.1-1.5c2.9,1.7,5.9,2.2,8.2,2.2
		c1.4,0,2.8-0.2,4.2-0.5c3.1-0.8,10.6-3.6,12.8-13.7c0-0.1,0.1-0.1,0.1-0.2c0-0.1,0.1-0.2,0.1-0.3c1-0.1,2-0.3,2.9-0.6
		c6.5-1.8,10.9-7.7,10.9-14.4c0.1-0.1,0.2-0.1,0.3-0.2l0.2-0.1c6.5-3.7,9.9-9.1,10.2-16.1c0.3-6,3.9-10.8,12.9-17.2
		c4-2.9,8.6-6.6,12.1-12.4c5.8-5.4,6.7-12.3,7.2-15.5c0-0.2,0.1-0.5,0.1-0.7c3.2-6.2,1.6-13.9-3.9-18.4c-2.8-2.3-6.1-3.4-9.5-3.4
		c-2.9,0-5.8,0.8-8.3,2.5c-3.5-2.2-8.7-5.1-15.7-5.3c-0.1,0-0.3,0-0.4,0c-3.9,0-7.5,1.5-10.3,4.1c-1.7-0.3-3.6-0.5-5.6-0.5
		c-2.5,0-5,0.4-7.4,1.1c-0.1,0-0.1,0-0.2,0.1c1.8-3.7,2.3-8.1,1.3-12.3c-1.2-5-4.6-11.4-14.4-13.8c-0.7-0.3-1.3-0.5-1.9-0.7
		c-3.2-5.1-8-6.8-10.3-7.3c-1.3-0.3-2.7-0.5-4-0.5c-2.1,0-6.4,0.5-10.4,3.6c-4.1-2-9.6-4.7-16.7-4.7c-1.3,0-2.5,0.1-3.8,0.3
		c-0.2,0-0.4,0-0.6,0c-1.4,0-3.6-0.8-5.9-1.7c-0.9-6.2-3.6-12-7.8-16.9c0.7-7.5-0.7-14-4.2-19.4c-2.5-3.9-7.1-8.8-15.4-11.6
		c-2.9-9.5-9.6-16.7-18.9-20.1c-5.5-5.3-12.4-8.1-20.1-8.1c-1.7,0-3.5,0.1-5.3,0.4c-0.4,0.1-1,0.2-1.5,0.2c-3.6-2.3-8-3.5-12.6-3.5
		c-0.7,0-1.4,0-2.1,0.1c-0.3-0.2-0.9-0.5-1.9-1.2C199.5,8.7,189.8,5.9,178.9,5.9L178.9,5.9z M348.2,148.3c1.2-0.9,2.3-1.8,3.2-2.8
		c-0.1,0.3-0.2,0.7-0.2,1.1c-2,1.2-3.6,2.6-4.9,4c0-0.1,0-0.2,0.1-0.3C347.1,149.5,347.8,148.8,348.2,148.3L348.2,148.3z
		 M331.2,165.1c3.9-0.8,7.2-2.6,9.8-5.2c-0.8,3.1-0.8,6-0.6,8.1c0.3,3.5,1.6,8.7,5.9,13c-0.7,1.8-1.1,3.6-1.3,5.2
		c-6,0.2-14.8,0.8-23.1,5.4c-4.9-3.6-10.2-6.4-15.8-8c-0.2-0.3-0.5-0.6-0.7-0.9c-0.6-0.7-1.3-1.6-2.2-2.5c-0.3-1.1-0.8-2.2-1.3-3.3
		l0.1-0.1c0.3,0,0.5-0.1,0.8-0.1c8.5-1,15.7-4.2,21.4-6.7C327,169,329.4,167.3,331.2,165.1L331.2,165.1z M137.4,207.1
		c1.8-0.5,3.5-1,5.1-1.8c1-0.4,2.1-0.6,3.9-0.7c-0.1,0.1-0.1,0.2-0.2,0.3c-2.7,3.6-4.8,7.4-6.5,10.9h-0.1h-0.1
		C139.5,212.7,138.8,209.7,137.4,207.1L137.4,207.1z M137.9,280.6c-0.4-0.6-0.7-1.3-1.1-1.9c-0.7-1.2-1.4-2.4-2.1-3.7
		c0.4,0.1,0.8,0.2,1.2,0.3c1.4,0.3,2.7,0.5,4,0.7C139,277.6,138.4,279.1,137.9,280.6L137.9,280.6z"/>
</g>
</svg>
