<?xml version="1.0" encoding="utf-8"?>
<!-- Generator: Adobe Illustrator 24.1.0, SVG Export Plug-In . SVG Version: 6.00 Build 0)  -->
<svg version="1.1" id="Livello_1" xmlns="http://www.w3.org/2000/svg" xmlns:xlink="http://www.w3.org/1999/xlink" x="0px" y="0px"
	 viewBox="0 0 474 418.5" style="enable-background:new 0 0 474 418.5;" width="50" height="50" xml:space="preserve">
<style type="text/css">

		.Stile_x0020_grafica{fill:#FEFEFE;stroke:#000000;stroke-width:15;stroke-linecap:round;stroke-linejoin:round;stroke-miterlimit:10;}
	.st0{fill:#FEFEFE;}
</style>
<g>
	<path class="st0" d="M280.7,404.5c-1.7,0-3.3-0.4-4.7-1c-1,0.2-2,0.3-3,0.3c-3.2,0-6.5-0.9-10.4-2.6c-0.1-0.1-0.3-0.1-0.4-0.2
		c-2.6-0.2-5.1-0.7-7.4-1.2c-2.7-0.5-5.2-1-7.5-1c-0.7,0-1.4,0-2,0.1c-0.1,0-0.1,0.1-0.2,0.2c-2.1,1.9-4.4,2.9-6.8,2.9
		c-1,0-3.5-0.2-5.7-2.2c-2.4,0.7-4.5,0.8-6.1,0.8c-1.4,0-2.7-0.1-4-0.2c-1.1-0.1-2-0.1-2.9-0.1c-0.1,0-0.3,0-0.4,0
		c-0.9,0-1.8,0-2.4,0.2c-0.1,0-0.2,0-0.3,0.1c-0.7,0.2-1.9,0.5-3.2,0.5c-2.5,0-4.8-1-6.4-2.8c-0.3-0.4-0.6-0.8-0.9-1.2
		c-0.9-0.2-1.7-0.3-2.4-0.3c-0.7,0-1.2,0.1-1.8,0.4c-1.8,0.9-3.5,1.3-5.1,1.3c-2.8,0-5.8-1.3-7.5-4.2c-0.1,0-0.3,0-0.4,0
		c-1.8,0-3.6,0.1-5.5,0.2c-2.1,0.1-4.3,0.3-6.5,0.3c-0.4,0-0.9,0-1.3,0c-3,1.6-5.9,2.4-8.6,3.1c-2.2,0.6-4,1-5.4,1.8
		c-2.2,1.3-4.4,1.3-5.3,1.3l-0.5,0c-0.4,0-0.8,0.1-1.2,0.1c-0.3,0-0.5,0-0.7,0c-0.2,0.1-0.4,0.1-0.5,0.2l-1.8,0.6
		c-1.3,0.4-2.7,0.9-4,1.3c-0.1,0-0.2,0.1-0.4,0.1c-0.9,0.3-2.5,0.9-4.4,0.9c-3.7,0-6.8-2.1-8.3-5.5c0,0-0.1,0-0.1,0l-0.2,0
		c-0.4,0-0.7,0-1.1,0c-1.1,0-2.1-0.1-3-0.4c-4.8-0.6-7.3-4.2-7.7-7.7c0-0.1,0-0.3,0-0.5c-1.2-0.3-2.6-0.5-4.2-0.6
		c-1.5,0-2.9-0.1-4.4-0.1c-5.7,0-12.2-0.1-18.7-2.2c-4.2-1.1-6.1-4.2-6.6-6.9c-1.2-0.3-2.2-0.6-3-0.9c-0.5-0.2-1.3-0.4-1.5-0.5
		c-4,0.5-7.9,1-11.5,1.3l-0.2,0c-0.6,0.1-1.4,0.3-2.4,0.3c-2.6,0-5.1-1-6.8-2.9c-2.2-2.4-3.6-6.5-0.9-10.7c0.3-1,0.7-2,1.2-2.8
		c-1.5-0.4-2.7-1-3.5-1.6c-0.4,0.1-0.9,0.1-1.3,0.1c-2.6,0-4.9-1.1-6.4-3c-1.3-1.6-1.9-3.7-1.6-5.8c-2.4-0.4-5.7-1.3-8.3-4.4
		c-0.2-0.1-0.5-0.2-0.7-0.3c-1.5-0.6-3.5-1.5-5.4-3.3l0,0c-4.4-3.8-3.9-8.5-2.1-11.5c1.6-2.6,4.2-4.1,7.2-4.1c2.2,0,3.9,0.9,4.6,1.3
		c1.1,0.5,2.4,0.6,4.2,0.6c0.7,0,1.5,0,2.2-0.1c0.4,0,0.9,0,1.3,0c0.6,0,1.2,0,1.8,0c0.1-0.6,0.3-1.2,0.5-1.8
		c-0.9-0.8-1.9-1.6-2.9-2.4c-0.9-0.7-1.7-1.4-2.6-2.1c-0.1,0-0.1-0.1-0.2-0.2c-0.5-0.4-1.4-1-2.2-1.9c-2.9-3.2-3.4-7.7-1.4-11.3
		c1.6-2.6,4.3-4.2,7.4-4.2c1.5,0,2.6,0.3,3.3,0.6l0.2,0.1c0.7,0.2,1.3,0.4,1.9,0.6c-0.3-0.4-0.6-0.8-0.9-1.2
		c-3.1-4.6-1.5-9.1,1.3-11.4c0.7-0.5,1.4-1,2.2-1.3c0.1-1,0.2-1.9,0.3-2.8c0.1-0.9,0.3-1.8,0.3-2.6c0.1-1.5-0.1-3.2-0.4-5.2
		c-0.3-2-0.6-4.3-0.5-6.7c0-1.4,0.2-2.6,0.4-3.5c0-0.2,0.1-0.5,0.1-0.7c-0.4-3.6,1.9-7,5.4-8c0.7-0.2,1.4-0.3,2.1-0.3
		c2.9,0,5.6,1.7,6.8,4.4c0.5,1.2,1.1,2.4,1.6,3.6c0,0,0,0,0,0c-0.4-2.1,0-4.3,1.3-6.4c1.8-2.9,2.8-6.6,3.8-10.5
		c0.4-1.6,0.9-3.3,1.4-5c0.8-2.7,1.9-5.5,4.4-8.4c1.4-1.6,3.5-2.5,5.6-2.5c0.6,0,1.3,0.1,1.9,0.3c1.1,0.3,2,0.8,2.9,1.5
		c0.4-2.3,1-4.5,1.7-6.6c1-2.8,3.3-5.2,6.8-7c1.4-0.7,2.8-1.1,4.2-1.1c1.4,0,3.2,0.4,4.8,1.5c1.5-1.3,3.5-2.1,5.6-2.1
		c0.3,0,0.8-0.1,1.2-0.1c1.2,0,2.3,0.2,3.4,0.7c1.1-0.7,2.2-1,3-1.2c0.5-0.1,1-0.1,1.4-0.1c1.6,0,3.1,0.5,4.3,1.4
		c1.1-1.5,3-3,6.3-3.3c2-1.3,4.1-2.5,6.1-3.7c1.8-1.1,3.6-2.1,5.3-3.2c2-1.2,4.2-1.8,6.5-1.8c0.6,0,1.2,0,1.9,0.1
		c2.3,0.3,4.3,1.6,5.5,3.6c1.2,2,1.4,4.4,0.6,6.5c-0.1,0.3-0.3,0.6-0.4,0.9c6.3-3.3,11.7-7.1,16.6-11.6c0.8-0.7,3.3-3,6.9-3
		c2.2,0,4.2,0.8,5.8,2.3c1.6,1.6,2.5,3.6,2.6,5.8c0.3-0.2,0.9-0.6,1.3-0.8c1.3-0.9,2.8-2,4.9-2.7c1.1-0.4,2.1-0.6,3.2-0.6
		c2.6,0,5,1.2,6.7,3.3c1.5,1.9,2.1,4.2,1.8,6.4c0,0,0,0,0,0c1.5,0,3,0.4,4.4,1.2c1.4-0.8,3.1-1.4,5.2-1.4c2.1,0,4.2,0.6,6.2,1.9
		c1.7,1.1,3.9,1.8,6.3,2.6c1.2-1.4,2.8-2.3,4.6-2.7c0.9-1,1.9-1.9,3.1-2.5c0-0.2-0.1-0.3-0.1-0.5c-0.4-0.1-0.8-0.2-1.2-0.4
		c-1.9-0.6-3.6-1.1-5.4-1.5c-0.9-0.2-4.4-1.2-6.2-4.7c-0.5,0.1-0.9,0.1-1.4,0.1c-3,0-7.1-1.3-9.6-7.5c-0.2-0.2-0.6-0.4-1-0.4
		c-1.2,0.3-2.5,0.5-3.8,0.5c-4.8,0-7.9-2.6-9.3-7.8c-0.3-0.4-0.5-0.9-0.7-1.4c-2.1-1.1-3.6-2.5-4.7-4c-0.2,0-0.4,0-0.6-0.1
		c-0.4,0.1-0.7,0.1-1.1,0.1c-1.2,0-2.4-0.3-3.5-0.8c-0.4-0.2-0.8-0.4-1.1-0.7c-0.6-0.3-1.1-0.7-1.6-1c-1.2,0.7-2.6,1-4,1
		c-1.2,0-3.1-0.3-5-1.7c-2.2-1.6-3.6-3.8-4-6.3c-0.6-0.4-1.2-0.9-1.7-1.5c-1.1,0.5-2.3,0.7-3.6,0.7c-1.5,0-2.9-0.4-4.3-1.1
		c-3.8-1.9-5.4-4.5-6-6.9c-1.7,0.8-3.4,1.1-5,1.1c-1,0-2-0.1-3-0.4c-2,2.8-5.1,3.9-7.6,3.9c-0.3,0-0.6,0-1,0
		c-4.3-0.4-8.7-3.9-8.6-10.8c0-0.5,0-1.1,0.1-1.7c0-0.5,0.1-1.4,0-1.7c-0.1-0.2-0.1-0.4-0.2-0.7c-0.1-0.2-0.2-0.5-0.2-0.8
		c-4.8-2.4-7.6-7.1-7.3-12.4c-0.5-0.4-1-1-1.5-1.6c-4.6-6-3.7-10.7-1.9-13.8c-0.4-1.8-0.6-3.5-0.8-5c-0.1-0.4-0.1-0.8-0.2-1.2
		c-0.5-3.6,0.8-5.9,2-7.3c1.6-1.8,3.8-2.8,6.3-2.8c1.4,0,2.9,0.4,4.4,1.1c0.4,0.2,1,0.5,1.7,1c1.3-2.8,3.7-3.9,5-4.4
		c1-0.3,2-0.5,3-0.5c1.8,0,3.4,0.5,4.9,1.5c1-0.4,2.1-0.8,3.4-0.8c0.7,0,2,0.1,3.3,0.7c0.8-0.7,1.8-1.3,2.8-1.8
		c-1-0.6-1.9-1.4-2.6-2.4c-2.1,1.7-4.4,1.9-5.3,1.9c-0.3,0-0.6,0-0.9,0c-4.4-0.4-7.6-4.1-7.9-8.8c0-0.2,0-0.5-0.1-0.7
		c-0.5,0.1-0.8,0.1-1.1,0.1c-0.2,0-0.4,0-0.6,0c-3.1,0-6.9-1.7-8.4-6.5c-0.2-0.5-0.3-1-0.5-1.5c-0.9-2.6-2.3-6.4-1.3-10.9
		c-0.4-0.1-0.8-0.2-1.2-0.3c-1,0.6-2.6,1.3-4.6,1.3c-1.2,0-2.3-0.2-3.4-0.7c-1.4-0.6-5.8-2.9-5.4-9.2c-0.2-5.5,2-9.2,4.3-11.6
		c0.5-2.2,1.5-4,2.3-5.3c0.3-0.5,0.6-1.1,0.7-1.4c0.3-1.2,1.1-3.6,3.4-5.4c-0.3-1.3-0.3-2.5-0.2-3.2c0.2-1.7,1.4-5.9,6.8-7.3l-0.1,0
		c1.1-0.3,2.2-0.6,3.2-0.7c0.3-1,0.6-1.7,1-2.2c1-1.6,3.1-3.7,7-4.1c0.7-0.1,1.3-0.1,2-0.1c3.2,0,6.4,0.8,9.6,2.3
		c1.8-1.1,3.7-1.6,5.7-1.6c2.1,0,6.2,0.7,9.3,5.4c0.2,0.2,1.5,0.6,2.3,0.9l0.1,0c1.4,0.5,2.6,1.2,3.4,1.7c0.1,0,0.2,0.1,0.2,0.1
		c0.1,0,0.3,0,0.4,0c2.4,0,4.7,1.2,6.1,3.2c0.2,0,0.4,0,0.6-0.1c1-0.1,2.2-0.3,3.5-0.3c1,0,1.9,0.1,2.8,0.3c0.7,0.1,1.8,0.2,2.9,0.2
		c2.2,0.1,4.8,0.2,7.6,1.2c0.8-0.2,1.8-0.4,2.9-0.4c-1.9-2-3-4.7-3.3-7.5c-0.4-4.6,1.7-9.2,5.5-12.4c3.4-2.9,7.2-4.4,11-4.4
		c0.2,0,0.5,0,0.5,0c0.6,0,1.4-0.1,2.3-0.3c1.3-0.2,3-0.5,4.8-0.5c2.4,0,4.5,0.5,6.6,1.4c4.6,2.1,7.2,5.8,7.4,10.6
		c0.1,0.1,0.1,0.3,0.2,0.4c0.3,0.6,0.7,1.4,1,2.3c0.2,0.6,0.4,1.1,0.6,1.7c1.1,3,2.5,6.9,1.9,11.5c1,0.2,1.8,0.4,2.6,0.4
		c0.3,0,0.7,0,1-0.1c0.8-0.2,1.7-0.2,2.5-0.2c1.8,0,3.4,0.3,4.8,0.8c-0.7-0.7-1.2-1.5-1.7-2.1c-0.4-0.6-1.1-1.4-1.3-1.6
		c-3.9-1.5-6.7-5.4-7.1-10c-3.6-4.3-4.3-9.3-4.8-13c-0.2-1.4-0.4-2.7-0.7-3.7c-0.9-3-0.2-6.2,1.8-8.8c2.5-3.4,7.2-5.6,11.5-5.6
		c1.3,0,2.6,0.2,3.9,0.6c0.6,0.2,1.8,0.6,2.2,0.6c0,0,0,0,0.1,0c1.5-0.6,3.1-0.9,4.6-0.9c2.7,0,7.6,0.9,11,7.2
		c3.3,2.4,5.2,6.3,5.1,10.8c0,1.1,0.1,2.3,1.5,4c3.3,4.1,5.1,8.3,5.5,12.6c1.8-2.2,5.1-4.6,10.7-5.1c0.6,0,1.1-0.1,1.6-0.1
		c4.9,0,9.1,2.1,11.8,6c0.1,0,0.2,0.1,0.2,0.1c1.4,0.6,3.8,1.7,5.7,4c1.7,2.1,4.4,5.3,4.4,10c0,1.3,0.3,2.6,0.9,4.2
		c1.5,3.9,0.8,7.3,0.3,9.5l-0.1,0.5c-0.5,2.8-0.8,5.7-1.2,8.7c-0.5,4.5-1,9.1-2.2,13.8c-0.4,1.5-1.5,5.4-5.2,8.5
		c2.9,1.4,6.1,3.2,8.8,6.4l0.1,0.1c4.7,4.8,2.4,9.5,1.6,10.9c-0.6,1-1.4,1.9-2.3,2.6c0.7,1.2,1.3,2.3,1.9,3.5
		c0.2,0.1,0.4,0.2,0.5,0.3c0.9,0.5,2.1,1.2,3.3,2.2c0.1,0.1,0.4,0.3,0.7,0.5l0.4,0.3c4.5,3.1,6.2,8.2,4.1,12.5
		c-0.4,0.9-1,1.8-1.7,2.4c-0.1,0.6-0.2,1.2-0.3,1.7c0.1,0.1,0.2,0.1,0.3,0.2c2.9,1.4,4.9,3.8,5.5,6.6c0.3,1.3,0.3,2.6,0,3.9
		c1.8,3.1,1.2,5.9,0.4,7.7c2.5,0.8,4.6,2.3,6,4.4c1.3,1.9,1.7,4.2,1.2,6.4c3.8,0.5,6.2,2.8,7.4,4c0.1,0.1,0.2,0.2,0.4,0.4
		c2.1,1,3.7,2.9,4.3,5.2c0.4,1.3,0.4,2.6,0.1,3.9c0.1,0.3,0.1,0.6,0.1,0.9c1.1,0.8,2.2,1.9,3.1,3.4c1.4,1,2.6,2.4,3.1,4.7
		c0.1,0.3,0.1,0.6,0.1,0.8c0.3,0.1,0.6,0.2,0.9,0.3c2.5,0.6,4.8,2.2,6.4,4.3c1.9,2.4,2.5,4.9,1.8,7.4c-0.2,0.8-0.5,1.5-0.9,2.2
		c0.7,0.4,1.3,0.8,1.9,1.1c4.7,2.8,5.8,7.3,4.7,10.9c0.3,0.9,0.5,1.8,0.5,2.6c2.8,2.3,3.9,6,2.7,9.8c0,0,0,0.1,0,0.1
		c1.7,1.4,2.9,3.4,3.3,5.4c0.1,0.4,0.1,0.9,0.2,1.3c2.5,0.9,4.5,2.3,6.1,3.5c4.6,3.5,4.5,8.5,2.5,11.7c-0.3,0.4-0.6,0.8-0.9,1.2
		c3.3,2.6,5.3,7.5,3.7,11.6c0.1,0.4,0.1,1,0.2,1.5c2.8,2.4,3.9,6.1,2.9,9.6c-0.2,0.8-0.6,1.6-1,2.3c1.1,2.8,2.5,3.8,4.2,4.4
		c2.2,0.8,4.1,1.7,6,2.6c0.8,0.4,1.6,0.8,2.4,1.1c6.1,2.7,5.8,7.9,5.5,9.4c-0.5,3.4-2.8,5.9-6,6.7c0.2,1.1,0.2,2.4-0.1,3.9
		c1.3,0.8,2.4,1.7,3.2,2.5c0.4,0.4,0.9,0.8,1.1,0.9c2.2,1.4,4.9,2.3,7.8,3.3c2.4,0.8,4.8,1.7,7.3,2.9c0.4,0.2,0.5,0.2,0.5,0.2
		c2.3,0.6,4.2,2,5.3,4c1.1,2,1.4,4.3,0.7,6.6c-1,3.5-4.2,5.9-7.9,5.9l0,0c-0.7,0-1.2-0.1-1.5-0.1l-0.1,0c-1-0.1-2.6-0.4-4.3-1.2
		c-0.6-0.3-1-0.3-1.2-0.3c-0.4,0-0.9,0.1-1.4,0.4c-0.6,0.3-1.2,0.5-1.8,0.7c-0.2,0.6-0.6,1.1-0.9,1.6c-0.1,0.6-0.2,1.3-0.5,2
		c0,0.1-0.1,0.2-0.1,0.3c-0.4,1.4-1.4,4.3-4.3,6.1c-0.6,0.4-1.2,0.7-1.1,4.6c0.1,2.5-0.9,4.9-2.6,6.7c-1.1,1.2-2.6,2-4.1,2.4
		c-1.9,5.3-5.5,9.2-10.5,11.3c0,0.1,0,0.2,0,0.3c-0.2,1.4-1.4,6.1-7.4,7.1c-1.6,0.5-3.2,1.3-5,2.1c-1.7,0.8-3.5,1.6-5.5,2.3
		l-0.2,0.1c-0.5,0.2-1.2,0.4-2,0.6c-1.2,0.7-2.7,1-4.2,1c-0.9,0-1.8-0.1-2.8-0.4c-1.3-0.3-2.8-0.5-4.4-0.7c-1.7-0.2-3.5-0.4-5.3-0.9
		c-1.8,1.3-3.9,2.1-6.2,2.1c-0.8,0-1.6-0.1-2.4-0.3c-1,0.3-2,0.4-2.8,0.6c-0.3,0.1-0.8,0.1-1.1,0.2c-1.3,1.5-3.7,3.5-8,3.5
		c-0.9,0-1.7-0.1-2.2-0.1c-0.2,0-0.3,0-0.5,0c-0.6,0-1.2-0.1-1.8-0.1c-0.5,0-1.1-0.1-1.6-0.1c-0.2,0-0.3,0-0.4,0
		c-0.9,0.3-1.8,0.4-2.8,0.4c-0.3,0-0.5,0-0.8,0c-1.1,0.7-2.4,1.1-3.8,1.1c-1.2,0.7-2.6,1.1-4.1,1.1c-1.8,0-3.2-0.6-3.8-0.8
		c-1.2-0.5-2.5-0.7-4.1-0.7c-1.7,0-3.7,0.2-5.7,0.5l-1.1,0.1c-1.8,0.2-3.5,0.3-5.2,0.3c-2.7,0-5.2-0.3-7.6-0.9c0,0,0,0,0,0
		c-3,2.2-6.2,3-8.6,3.5c-1.1,0.2-2.1,0.5-2.7,0.8C283.7,404.2,282.3,404.5,280.7,404.5z M79.9,275.7L79.9,275.7z M192.7,127.3
		c2,0,4,0.8,5.5,2.2c0.7,0.6,1.5,1.6,2.1,3c1.5-0.5,2.8-1,4.2-1.1c-1.1-0.7-2.4-1.7-3.6-3.1l-0.2-0.2c-0.8-0.9-1.5-1.8-2.3-2.9
		c-0.1,0-0.2,0-0.2,0c-0.2,0-0.4,0-0.6,0c-1.3-0.1-2.5-0.5-3.6-1.1c-0.5,0.1-0.9,0.2-1.2,0.2c-0.4,0-0.7,0.1-1,0.1
		c-0.8,0-1.6-0.1-2.4-0.3c-0.3,0.2-0.7,0.3-1,0.4c-1,0.3-1.9,0.5-2.9,0.5c-3.4,0-6.4-2-7.9-5.2c-0.1-0.2-0.3-0.5-0.5-0.7
		c-0.3,0.5-0.7,0.9-1.1,1.3c2.4,0.9,4.4,3,5.1,6c0.8,0.1,1.6,0.4,2.3,0.7c0.1,0,0.1-0.1,0.2-0.1c1.1-0.6,2.3-0.9,3.5-0.9
		c1.4,0,2.8,0.4,4.1,1.2c0.1,0.1,0.3,0.2,0.4,0.3C192,127.3,192.3,127.3,192.7,127.3z M298.5,84.8c0.2-0.3,0.4-0.6,0.5-0.9
		c-0.5-0.6-1.1-1.2-1.7-1.8c-1.3-1.3-2.7-2.8-4-4.5l0,0.3c0,0.7-0.2,1.4-0.3,2c0.3,0.6,0.6,1.2,0.8,1.4
		C295.7,82.4,297.2,83.6,298.5,84.8C298.4,84.8,298.4,84.8,298.5,84.8z"/>
	<path d="M258.3,21.5c0.5,0,1,0.1,1.5,0.2c1.6,0.5,3,1,4.6,1c0.9,0,1.8-0.1,2.8-0.5c0.7-0.3,1.3-0.4,1.9-0.4c1.9,0,3.4,1.3,4.5,3.4
		c0.4,0.8,0.9,1.6,1.8,2.2c1.8,1,2.4,2.8,2.3,4.8c-0.1,3.4,1,6.2,3.2,8.9c2.5,3.1,4.3,6.7,3.8,11c-0.1,1.3,0.2,2.5,0.7,3.7
		c1.6,3.9,2.3,7.9,0.8,12.1c-0.9,2.5,0.6,5.2-0.1,7.8c-0.1,0.6-0.1,1.2-0.2,1.7c-0.1,1-1.4,1.6-0.8,2.9c1.2,2.8,2.3,5.8,5,7.4
		c1.4,0.8,2.5,1.8,3.7,2.9c1.4,1.3,3.2,1.7,5.2,1.7c0.4,0,0.8,0,1.2,0c2.8-0.2,4.1-1.1,4.9-3.6c0.2-0.6,0.8-1.1,1.2-1.6
		c1.6-2,1.8-3.8,0.2-6c-2.6-3.7-6.5-6.3-8.6-10.5c-1.3-2.6-2.5-5-1.2-7.8c0.4-0.9,0.4-1.7,0.3-2.6c-1-5.2,1.3-8.3,6.7-8.7
		c0.3,0,0.7,0,1,0c2.5,0,4.5,0.9,5.9,3.2c1.4,2.3,4.3,2.1,6.1,4.2c1.4,1.7,2.7,3.3,2.7,5.2c0,2.4,0.6,4.7,1.4,6.8
		c0.8,2.1,0.3,4-0.1,6c-1.4,7.3-1.4,14.8-3.3,22.1c-0.7,2.5-1.7,4.4-4.1,5.6c-1.3,0.7-2.7,1.5-3.6,2.8c-1.9,2.9-1.4,4.9,1.7,6.5
		c3.8,2,8.2,3.2,11.1,6.8c0.6,0.7,1.5,1.3,1,2.2c-0.4,0.6-0.9,0.9-1.6,0.9c-0.4,0-0.8-0.1-1.2-0.3c-1.9-0.7-3.9-1.2-5.8-1.8
		c-0.2-0.1-0.4-0.1-0.6-0.1c-0.3,0-0.6,0.2-0.9,0.5c-0.4,0.5-0.1,0.9,0.2,1.3c1.3,1.8,2.4,3.8,4,5.3c2.3,2.4,4.2,4.8,5.4,8
		c0.9,2.2,3.7,2.9,5.5,4.4c0.5,0.4,1.1,0.8,1.6,1.2c1.1,0.8,2.1,2,1.6,3.1c-0.2,0.4-0.5,0.6-0.7,0.6c-0.6,0-1.3-0.8-2-0.9
		c-0.6-0.1-1.2,0-1.8-0.1c-0.5-0.1-1-0.2-1.5-0.2c-0.9,0-1.6,0.2-1.7,1c-0.2,1.6,1.2,3.3,2.9,3.3c2.8,0,2.7,0.9,1.8,3.1
		c-1,2.4,0.6,5.4,3,6.5c0.6,0.3,1.2,0.6,1.8,0.9c1.2,0.6,2.1,1.6,1.1,2.7c-0.3,0.3-0.5,0.5-0.7,0.5c-0.6,0-1.1-1-1.7-1.4
		c-0.6,1.1-0.2,1.7,0.6,2.3c0.5,0.4,1.5,0.2,1.5,1.2c0,1.3,2.4,2.1,1.3,3.4c-0.2,0.3-0.4,0.4-0.6,0.4c-0.7,0-1.5-1.2-2.4-1.3
		c-0.3,0-0.5-0.1-0.8-0.1c-0.4,0-0.8,0.1-1,0.3c-0.4,0.5,0,1,0.5,1.5c1.6,1.3,3.3,2.5,3.4,4.9c0.1,2.5,1.8,3.6,4.1,3.9
		c1.3,0.2,2.7,0.6,3.5,1.8c0.2,0.3,0,0.9-0.4,0.9c-0.6,0.1-1.3,0.2-1.9,0.2c-0.8,0-1.5-0.2-2.2-0.9c-0.3-0.3-0.6-0.4-1-0.4
		c-0.4,0-0.8,0.1-1.2,0.3c1.1,2.8,3.1,5.1,4.3,7.8c0.7,1.5,2,1.8,3.4,1.9c0.8,0.1,1.6,0.1,2.4,0.1c0.6,0,1.1,0,1.7-0.2
		c0.3-0.1,0.7-0.1,1-0.1c2.6,0,3.7,2.8,5.8,3.6c0.2,0.1,0.7,0.4,0.3,0.9c-0.2,0.3-0.4,0.4-0.7,0.4c-0.2,0-0.3,0-0.5-0.1
		c-1.7-0.3-3.3-1.4-5.6-1.4c-0.3,0-0.7,0-1.1,0.1c2.7,1.3,4.7,2.3,6.8,3.3c0.5,0.2,1.4,0.2,1.3,0.9c-0.1,0.4-0.5,1-1.2,1
		c0,0,0,0,0,0c-0.1,0-0.3,0-0.4,0c-0.9,0-1.8,0.1-1.7,1.4c0.1,1.2,1.1,1.9,2.4,2.1c1.9,0.3,4.1-0.1,5.1,2.3c-0.6,0.1-1.3,0-1.5,0.9
		c0.5,0.1,1,0.1,1.6,0.2c2.5,0.8,2.5,0.9,0.5,2.6c-0.6,0.5-0.1,1.1-0.3,1.6c-0.1,0.4-0.5,0.7-1.2,1.4c0.4-0.1,0.9-0.1,1.3-0.1
		c3.1,0,5.5,1.6,8.2,2.2c0.9,0.2,1.6,0.7,2.1,1.5c0.3,0.4,0.7,0.9,0.6,1.2c-0.1,0.5-0.5,0.7-1,0.7c-0.2,0-0.3,0-0.5-0.1
		c-2.1-0.4-4.1-1-6.2-1.4c-0.2,0-0.7-0.7-1.1-0.7c-0.2,0-0.3,0.3-0.2,1.1c0.1,0.9-1.7,2.2,0.6,2.6c0.1,0,0.1,0,0.2,0
		c0.2,0,0.4,0,0.6,0c0.1,0,0.2,0,0.3,0.1c1.1,0.5,2.8-0.2,3.3,1.2c0.6,1.7-1.8,1.4-2.3,2.8c3.8,1.4,7.2,3.3,10.6,5.3
		c1,0.6,1.8,1.4,1.2,2.6c-0.2,0.5-0.5,0.7-0.9,0.7c-0.3,0-0.7-0.2-1-0.6c-0.4-0.6-0.9-1.2-1.5-1.2c-0.2,0-0.4,0.1-0.7,0.3
		c-0.5,0.4,0.3,0.9,0.9,1c0,1.1-1.2,0.3-1.5,1c0.5,1,1.6,1.3,2.6,1.8c1.2,0.6,2.8,1,2.1,2.8c-0.2,0.5-0.4,0.6-0.7,0.6
		c-0.5,0-1.1-0.8-1.8-0.8c-0.2,0-0.4,0.1-0.5,0.2c-0.3,1.8,1.2,2.4,2.6,3.1c1,0.5,2,0.8,2.9,1.2c1,0.4,1,1.1,0.7,1.9
		c-0.2,0.6-0.4,1.2-1.1,1.2c-0.1,0-0.3,0-0.5-0.1c-0.1,0-0.2,0-0.4,0c-0.5,0-1.1,0.2-1.4,0.7c1.8,1.9,2.6,4.6,5.1,6
		c0.8,0.5,1.9,1.6,1.1,2.6c-0.2,0.3-0.5,0.4-0.7,0.4c-0.7,0-1.3-0.9-2.2-1.2c0.1,1.2,0.1,2,1.2,2.4c1.6,0.5,3.4,0.8,3.1,3.3
		c0,0.4,0.2,0.5,0.6,0.5c0.2,0,0.5,0,0.7,0c0,0,0.1,0,0.1,0c2.5,0.2,4.5,1.4,6.5,2.9c0.5,0.3,1.2,1,0.7,1.7
		c-0.2,0.4-0.5,0.5-0.8,0.5c-0.4,0-0.8-0.2-1.2-0.4c-2.2-1-4.5-1.9-6.8-2.9c-0.1,0.5-0.3,0.7-0.2,0.8c3.2,4.3,5.4,9.5,9.7,13
		c1,0.8,1.8,2.6,1.3,3.3c-1.4,1.9,0.4,3.6-0.4,5.5c-0.5,1.2,1,3,2.5,3.9c0.7,0.4,1.1,1.2,0.9,2c-0.2,0.5-0.4,0.7-0.6,0.7
		c-0.3,0-0.7-0.2-1.1-0.4c-0.1,0-0.2,0-0.3,0c-0.8,0-0.4,1-0.3,1.4c1.4,6.2,3.6,11.7,10.3,14.2c2.7,1,5.3,2.4,7.9,3.5
		c0.6,0.3,1.3,0.6,1.2,1.4c-0.1,0.6-0.4,0.7-0.7,0.7c-0.2,0-0.4,0-0.7,0c-0.1,0-0.2,0-0.3,0c-1.4,0.4-2.8,0.6-4.3,0.6
		c-1.7,0-3.4-0.2-5.2-0.5c2.3,2.2,1.6,6,4.6,7.8c0.8,0.5,0.5,1.6,0.2,2.4c-1.3,3.8-0.9,5.1,2.7,6.7c2.1,0.9,3.3,2.7,5.1,3.8
		c4.9,3.1,10.7,4.2,15.8,6.6c0.6,0.3,1.2,0.6,1.9,0.7c0.7,0.2,0.9,0.7,0.8,1.3c-0.1,0.4-0.4,0.5-0.7,0.5c-0.2,0-0.4,0-0.5,0
		c-0.7-0.1-1.4-0.2-1.9-0.5c-1.5-0.8-3.1-1.2-4.7-1.2c-1.5,0-3.1,0.4-4.6,1.1c-1,0.4-1.9,0.7-2.8,0.7c-0.8,0-1.7-0.2-2.5-0.7
		c-0.6-0.4-1.2-0.8-1.7-0.8c-0.4,0-0.8,0.2-1.3,0.7c-0.4-0.3-0.7-0.4-1.1-0.4c-0.6,0-1.2,0.3-1.8,0.5c1.3,1.7,2.5,3.3,4.8,3.5
		c0.6,0,1.3,0.8,0.8,1.1c-2,0.9-1,2.6-1.5,3.9c-0.3,0.9-0.6,2.1-1.3,2.5c-4.3,2.6-4.7,6.7-4.6,11.1c0,1-0.7,1.7-1.6,1.7
		c-0.5,0-1-0.2-1.4-0.7c-0.9-1.1-1.5-1.5-1.9-1.5c-0.8,0-0.5,2.1-0.6,2.8c-0.7,6.3-4,10.6-10.2,11.8c-1.7,0.3-2.4,1.7-3.9,2.2
		c-0.9,0.3-0.6,1.4,0.8,1.5c0.8,0.1,1.6,0.8,1.5,1.5c-0.1,0.8-1.2,0.7-1.9,0.9c-3.8,1.2-7.3,3.2-11.1,4.6c-0.6,0.2-1,0.4-1.4,0.4
		c-0.4,0-0.7-0.3-1-1c-0.1-0.3-0.3-0.5-0.6-0.5c-0.2,0-0.3,0.1-0.5,0.3c-0.5,0.5,0,0.6,0.2,1c0.5,0.7,0.2,1.2-0.6,1.2
		c-0.2,0-0.5,0-0.8-0.1c-4.1-1.1-8.4-0.9-12.5-2.4c-0.4-0.2-0.8-0.3-1.2-0.3c-0.6,0-1.1,0.3-1.6,1.2c-0.5,0.8-1.4,1.7-2.6,1.7
		c-0.5,0-1-0.2-1.6-0.5c-0.2-0.1-0.5-0.2-0.8-0.2c-0.1,0-0.2,0-0.3,0.1c-2.9,1.7-6.9,0.4-9.3,3.7c-0.5,0.8-1.4,1-2.3,1
		c-0.8,0-1.7-0.2-2.5-0.2c-1.2,0-2.4-0.2-3.6-0.2c-0.9,0-1.8,0.1-2.6,0.3c-0.2,0.1-0.4,0.1-0.6,0.1c-0.9,0-1.9-0.6-2.8-0.6
		c-0.7,0-1.3,0.3-1.7,1.6c0,0,0,0-0.1,0c-0.2,0-0.9-0.2-1.4-0.2c-0.1,0-0.2,0-0.2,0c0,0,0,0-0.1,0c-0.3,0-0.7-0.4-1.1-0.4
		c-0.2,0-0.4,0.1-0.4,0.6c-0.1,0.8-0.5,1-0.8,1c-0.4,0-0.8-0.2-1.1-0.3c-2.2-0.9-4.5-1.2-6.7-1.2c-2.5,0-5.1,0.4-7.7,0.7
		c-1.4,0.2-2.8,0.3-4.3,0.3c-1.9,0-3.8-0.2-5.7-0.7c-0.7-0.2-1.4-0.3-2.2-0.3c-1.4,0-2.7,0.4-3.9,1.3c-3,2.5-7,2.2-10.3,3.7
		c-0.3,0.1-0.7,0.2-1,0.2c-0.7,0-1.5-0.2-1.9-0.6c-0.7-0.6-1.2-0.8-1.8-0.8c-0.6,0-1.3,0.2-2.1,0.4c-0.6,0.1-1.2,0.2-1.9,0.2
		c-2.4,0-4.9-0.9-7.2-1.9c-0.4-0.2-0.8-0.8-1.2-0.8c-5.8-0.1-11.4-2.3-17.2-2.3c-1.1,0-2.2,0.1-3.4,0.3c-1.6,0.3-2.8,1-4,2.1
		c-0.7,0.6-1.2,0.9-1.7,0.9c-0.7,0-1.2-0.7-1.5-1.9c-0.3-1.1-1.2-1.5-2.1-1.5c-0.6,0-1.2,0.2-1.6,0.4c-2.2,1.3-4.4,1.6-6.7,1.6
		c-2.3,0-4.6-0.3-6.9-0.3c-0.2,0-0.4,0-0.6,0c-1.2,0-2.4,0.1-3.5,0.3c-0.8,0.1-1.6,0.5-2.2,0.5c-0.8,0-1.3-0.5-1.1-2.3
		c0.1-0.6-0.4-0.5-0.8-0.6c-2.6-0.7-5.3-1.4-7.9-1.4c-1.7,0-3.4,0.3-5.1,1.2c-0.7,0.4-1.3,0.5-1.7,0.5c-1,0-1.4-0.8-1.5-2.2
		c-0.1-1.9-1.1-1.6-2.4-1.8c-1.3-0.1-2.6-0.2-4-0.2c-4,0-8,0.5-12,0.5c-0.5,0-1.1,0-1.6,0c-0.1,0-0.1,0-0.2,0
		c-0.9,0-1.8,0.2-2.5,0.6c-4.6,2.8-10.2,2.6-14.7,5.3c-0.4,0.2-0.9,0.3-1.4,0.3c-0.2,0-0.4,0-0.6,0c-0.2,0-0.4,0-0.6,0c0,0,0,0,0,0
		c-0.2,0-0.4,0-0.5,0c-0.6,0-1.2-0.1-1.8-0.1c-0.6,0-1.2,0.1-1.8,0.7c-2,0.6-4,1.3-5.9,1.9c-0.8,0.3-1.7,0.7-2.4,0.7
		c-0.7,0-1.2-0.3-1.6-1.3c-0.6-1.7,0.2-3.3,2.3-3.7c0.5-0.1,0.9-0.2,1.2-1.2c-3,0.5-5.9,0.7-8.8,0.7c-0.5,0-1,0-1.5,0
		c0,0-0.1,0-0.1,0c-0.4,0-0.8,0.1-1.2,0.1c-0.4,0-0.7,0-1-0.2c-0.7-0.4-2.1,0.3-2.2-1.3c-0.1-1.4,0.7-1.9,2.1-2.4
		c-2.1-0.4-2.7-2.4-4-3.1c-2.9-1.5-6.2-2.2-9.6-2.3c-7.1-0.2-14.2,0.3-21.1-2c-0.7-0.2-1.4-0.2-1.4-1.1c0-0.9,0.6-1.2,1.5-1.4
		c2.6-0.5,5.2-1.3,7.5-1.8c-4.3-3.4-9.6-1.8-14.5-2.7c-2.2-0.4-4-1.6-6.5-1.6c-0.3,0-0.6,0-0.9,0.1c-3.7,0.5-7.5,0.9-11.2,1.2
		c-0.6,0.1-1.3,0.3-1.9,0.3c-0.5,0-1-0.1-1.4-0.6c-1.1-1.1,0.6-1.8,0.7-2.7c0.3-2.5,1.7-3.1,3.5-3.1c0.4,0,0.7,0,1.1,0.1
		c0.1,0,0.2,0,0.3,0c0.8,0,1.6-0.3,2.3-0.5c0.5-0.1,0.9-0.5,0.7-1.1c-0.2-1.3-0.2-1.8,0.4-1.8c0.3,0,0.7,0.1,1.3,0.3
		c0.5,0.1,1.1,0.5,1.5,0.5c0.3,0,0.6-0.2,0.7-0.9c0.1-0.8-0.3-0.9-0.9-0.9c-0.3,0-0.6,0-0.9,0c-0.1,0-0.2,0-0.3,0
		c-0.6-0.1-1.2,0.2-1.5-0.9c-0.7-2.8-2.9-4.1-5.5-4.4c-1.4-0.1-2.8-0.5-4.2-0.5c-0.6,0-1.2,0.1-1.8,0.2c-0.2,0-0.3,0.1-0.5,0.1
		c-1.4,0-2.4-1.4-3.8-1.7c-0.5-0.1-0.9-0.3-1.4-0.3c-0.1,0-0.2,0-0.3,0c-0.5,0.1-1.2,0.3-1.7,0.3c-0.4,0-0.7-0.1-0.6-0.6
		c0.3-1.3-0.2-3.7,2.1-3.8c1.4,0,2.2-0.9,3.6-1.7c-3.6-0.4-6.5-2.1-10-2.4c-1.6-0.2-4.3-0.1-6.1-2.4c-1.2-1.6-4.4-2-6.3-3.8
		c-0.7-0.6-1.6-1.1-0.9-2.1c0.2-0.4,0.5-0.5,0.8-0.5c0.5,0,0.9,0.4,1.3,0.6c2.5,1.1,4.9,1.4,7.5,1.4c0.9,0,1.7,0,2.6-0.1
		c0.3,0,0.6,0,1,0c2.6,0,5.3,0.5,8,0.7c0.2,0,0.4,0,0.5,0c2.1,0,3.4-1.1,4.1-2.7c0.6-1.3-1.2-2.4-2.1-3.4c-0.3-0.3-0.7-0.6-1.3-1.1
		c0.6-0.3,0.9-0.4,1.2-0.6c0.2-0.2,0.4-0.2,0.7-0.2c0.7,0,1.5,0.5,1.9,0.5c0.2,0,0.4-0.1,0.4-0.5c0.1-1.5-1-3.3-2.3-4.5
		c-3.1-2.7-6.3-5.3-9.5-7.9c-0.5-0.4-1.1-0.8-1.6-1.3c-0.6-0.7-0.9-1.7-0.5-2.5c0.2-0.4,0.6-0.5,0.9-0.5c0.4,0,0.9,0.2,1.4,0.3
		c4,1.1,7.2,3.8,11.1,5.1c0.4,0.1,0.8,0.2,1.2,0.2c1.5,0,2.5-1,2.4-2.6c-0.1-1-0.3-1.2-1.4-1.3c-1.3,0-2.3-0.8-1.1-2.3
		c0.9-1.1,1.9-2,2.9-3c-2.1-1.5-1.9-4.4-3.9-6c-0.7-0.5-1.3-1.2-1.8-1.9c-0.3-0.4-0.8-1.1-0.3-1.5c0.2-0.2,0.6-0.3,1-0.3
		c0.2,0,0.5,0,0.6,0.1c1.6,0.6,3.2,1.3,4.8,2c0.1-0.2,0.3-0.5,0.3-0.5c-3.2-4.2-1.3-8.9-1.1-13.4c0.2-4.2-1-8.1-0.9-12.2
		c0-1.7,0.7-3.2,0.5-5c2.5,5.5,4.6,11.1,8.1,16.3c1-1.6,1.9-3,2.8-4.4c0.9-0.8,2.2-0.9,2.9-2c2-0.3,2.7-1.6,2.9-3.4
		c1.4-2.3,1.7-4.6-0.4-6.6c-0.5-0.5-0.7-1-0.2-1.7c3.3-5.3,4.2-11.5,6-17.4c0.6-1.9,1.2-3.7,2.9-5.6c0.7,3.3,0,6.3,1.2,9.1
		c1,2.5,2.7,3.7,4.5,3.7c1.4,0,3-0.8,4.5-2.3c2.9-2.9,1.3-6.1,1.4-9.2c0.1-3.8,0.7-7.6,1.9-11.1c0.4-1.2,1.9-2.2,3.2-2.9
		c0.3-0.1,0.5-0.2,0.7-0.2c0.7,0,0.8,1,0.9,1.8c0.1,3.1,0.3,6.1,0.4,9.2c0,1,0.2,1.4,0.8,1.4c0.3,0,0.6,0,1.1-0.1
		c3.8-0.6,2.7-3.4,3.1-5.6c0.2-1.1-0.1-2.1,1.8-2.2c1-0.1,3-1.4,2-3.4c-0.4-0.9-0.6-1.5,0.4-1.5c0,0,0.1,0,0.1,0c0,0,0,0,0.1,0
		c0.3,0,0.7-0.1,1-0.1c0.5,0,1,0.2,1,1.1c0,1.3,0.1,2.6-0.2,3.8c-0.7,2.5,0.9,4,2.2,5.5c0.2,0.2,0.5,0.3,0.7,0.3
		c1.1,0,2.6-1.6,2.8-3.3c0.2-2.4-0.4-4.9,0.4-7.2c0.1-0.4,0.2-0.7,0.9-0.9c0.8,1.8,0.1,3.7,0,5.5c-0.1,1.1,0.3,1.3,0.8,1.3
		c0.2,0,0.4,0,0.6,0c2.4-0.2,4.1-1.2,5.2-3.5c0.9-1.8,2.8-2.8,3.7-4.8c0.4-0.9,2.1-0.2,3.2-0.9c4.1-2.6,8.4-5.1,12.6-7.7
		c0.8-0.5,1.6-0.7,2.6-0.7c0.3,0,0.6,0,0.9,0.1c-0.8,2.1-2.7,3.3-4,4.9c-1.6,1.9-3.4,3.8-3,6.7c-1.6,0.5-1.4,1.7-1.2,2.9
		c-1.5,0-1.7,0.9-1.6,2.4c1.1-0.9,2-1.6,2.9-2.3c0,0,0,0,0,0c0.3,0,0.5-0.1,0.5-0.5c1.5-1.6,3.6-2.6,4.9-4.5c0.4-0.5,0.9-1,1.5-1
		c0.5,0,1,0.3,1.6,1.1c1.4,1.9,2.3,2.6,3.4,2.6c0.9,0,1.9-0.5,3.5-1.3c7.1-3.6,13.7-8.1,19.6-13.5c0.5-0.5,1.2-1,1.8-1
		c0.2,0,0.4,0.1,0.6,0.2c0.8,0.8,0,1.8-0.8,2.5c-1.3,1.2-2.7,2.1-1.9,4.4c0.3,0.9-0.8,2.2-1.5,3.3c-1.4,2-2.9,4.1-1.8,7.3
		c1.9-2.3,4.2-2.9,6.7-3.2c1.4-0.2,3.3,0,2.3-2.7c-0.4-1.2,0.7-1.4,1.6-1.4c0.2,0,0.5,0,0.6,0c0.2,0,0.4,0,0.6,0
		c1.1,0,1.9-0.3,1.9-1.8c0-0.2,0.1-0.5,0.2-0.5c0,0,0,0,0,0c3.4,0,5.5-3,8.4-4c0.2-0.1,0.5-0.1,0.6-0.1c0.3,0,0.6,0.2,0.9,0.5
		c0.3,0.4,0.3,0.9,0,1.3c-0.6,0.8-1.3,1.5-1.8,2.3c-0.6,0.9-1.7,2.1-1.4,2.8c0.9,2.3,2.2,4.2,4.7,4.2c0.5,0,1-0.1,1.6-0.2
		c1-0.3,2-0.9,2.9-0.9c0,0,0,0,0.1,0c0,0,0,0,0,0c0.5,0,1.1-0.3,1.6-0.3c0.6,0,1,0.3,1.2,1.5c0.1,0.8,1.3,1.1,2.5,1.1
		c1,0,1.9-0.2,2.4-0.7c1.1-1.1,2.1-2.1,3.5-2.1c0.6,0,1.3,0.2,2.2,0.7c3.7,2.3,8,3.3,12.1,4.7c0.5,0.2,1,0.3,1.4,0.3
		c1.4,0,2.1-1.1,2.1-3c0-0.8,0.6-1.1,1-1.1c0.1,0,0.2,0,0.3,0c0.4,0.1,0.7,0.2,1.1,0.2c1.3,0,1.9-0.9,2.4-2.2
		c0.3-0.7,0.9-1.1,1.5-1.3c2.9-0.7,3.5-3,4.5-5.4c0.7-1.7-1.4-2.1-0.9-3.4c0.3-0.7-1.4-1.5,0-2.2c0.4,1.1,2.5,0.1,2.4,1.9
		c0,0.2,0.2,0.3,0.2,0.5c1.5-2,0.9-3.7-1.4-4c-4.7-0.8-9.1-2.6-13.7-3.7c-2-0.4-0.7-2.3-1.5-3.4c-1.1-1.7-2.2-2.7-3.6-2.7
		c-0.6,0-1.3,0.2-2.1,0.6c-0.8,0.4-1.5,0.6-2,0.6c-1.3,0-2-1.2-2.6-2.8c-1.2-3-4.6-5.1-7.9-5.1c-0.6,0-1.1,0.1-1.7,0.2
		c-0.9,0.2-1.6,0.3-2.1,0.3c-1.5,0-1.9-0.9-2.3-3.7c0.1,0,0.2,0,0.4,0c0.5,0,1,0.1,1,0.7c0,0.7,0,1.4,0.6,1.4c0.2,0,0.4-0.1,0.8-0.2
		c1-0.4,1.2-0.9,0.6-1.7c-0.6-0.8,0.1-2.5-1.2-2.7c-0.1,0-0.1,0-0.2,0c-0.9,0-1.1,1.4-1.7,2c0,0-0.1,0.1-0.2,0.1
		c-0.2,0-0.4-0.1-0.6-0.1c-0.5-1.8-1.4-3.2-3.2-3.9c-2.1-0.9-3.2-2.9-4.3-4.8c-0.4-0.7-0.7-1.1-1.2-1.1c-0.3,0-0.6,0.2-1,0.5
		c-0.4,0.3-0.8,0.4-1.2,0.4c-0.6,0-1.2-0.2-1.8-0.2c-0.3,0-0.6,0-0.8,0.2c0-0.3-0.2-0.5-0.5-0.5c0,0-0.1,0-0.1,0
		c-2.4-1.1-3.2-3.5-4.3-5.7c-1.8,0.9-2,3.2-4,3.8c-0.5,0.1-0.7,0.7-1.3,0.7c-0.2,0-0.4-0.1-0.7-0.3c-0.9-0.6-1.1-1.3-1-2.2
		c0.1-0.8,0-1.6,0.3-2.3c0.5-1.6,0.6-2.5-0.4-2.5c-0.4,0-1,0.1-1.7,0.5c-0.3,0.1-0.6,0.2-0.9,0.2c-1.1,0-1.4-1.3-1.5-2.5
		c-0.1-1.5,0.4-3-0.8-4.5c-0.7-0.8-1.3-1.3-1.8-1.3c-0.6,0-1.1,0.4-1.6,1.3c-0.7,1.1-1.2,2.2-1.9,3.2c-0.6,0.8-1.3,1.6-2.3,1.6
		c-0.3,0-0.6-0.1-0.9-0.2c-1.3-0.7-2.6-1.6-2.3-3.6c0.2-1,0.8-2.1,0.3-3.1c-0.4-1,0-3-1.3-3c-0.4,0-1,0.2-1.8,0.7
		c-0.2,0.1-0.4,0.2-0.7,0.2c-1.2,0-2.4-1.6-3.8-2.5c-0.2,2-1,3.3-2.7,4.1c-0.8,0.4-1.5,0.6-2.3,0.6c-0.6,0-1.1-0.2-1.5-0.5
		c-0.9-0.7-0.5-2.2-0.1-3.3c0.6-1.7,1.6-3.5-0.4-5c-0.7-0.5-1.3-0.8-1.8-0.8c-0.6,0-1.2,0.4-1.6,1.4c-1.3,2.8-2.3,5.7-2.8,8.7
		c-0.2,1.5-0.9,2.9-2.4,2.9c-0.1,0-0.2,0-0.2,0c-1.5-0.1-1.8-1.8-1.8-3.2c0-1.9,0.3-3.8-0.2-5.5c-0.7-2.3-1.1-4.7-4-5.9
		c-2.8-1.2-4.1-3.8-3.2-7.2c0.6-2.5-2.2-3.3-3.3-4.8c-1.8-2.4-2.5-4.3-0.6-6.4c1.1-1.2,0.9-2,0.5-3.3c-0.7-2.2-0.9-4.5-1.2-6.8
		c-0.1-1.1,0.2-1.6,0.8-1.6c0.3,0,0.7,0.1,1.1,0.3c0.3,0.1,0.6,0.3,0.7,0.5c1.4,1.9,2.9,2.5,4.5,2.5c1.6,0,3.3-0.6,5-1.2
		c1.3-0.5,1.1-1.3,1.2-2.3c0.1-0.9-0.3-2.2,0.9-2.6c0.2-0.1,0.4-0.1,0.5-0.1c0.9,0,1.4,1,2,1.7c0.7,0.8,1.6,1.3,2.6,1.3
		c0.9,0,1.8-0.4,2.5-1.3c0.5-0.6,0.9-0.9,1.2-0.9c0.3,0,0.6,0.4,1,1.2c0.6,1.3,1.3,1.9,2.1,1.9c0.7,0,1.5-0.5,2.3-1.4
		c1.7-1.9,3.3-3.7,6-4.3c0.3-0.1,0.6-0.1,0.9-0.1c0.8,0,1.1,0.5,1.1,1.5c0,0.9-0.2,1.8,0,2.6c0.4,1.4,0.5,3,2.1,3
		c0.4,0,0.9-0.1,1.5-0.3c0.7-0.3,1.4-0.4,1.9-0.4c1.7,0,2.5,1.3,2.1,3.7c1.7-1.7,3.5-2.8,5.7-3.9c-0.1,2.3,0.4,2.9,1.3,2.9
		c0.9,0,2-0.6,2.9-0.8c0.5-0.1,0.9-0.7,1.3-0.7c0.1,0,0.3,0.1,0.4,0.2c0.6,0.6,0.2,1.5,0,2.2c-0.5,1.5-2.4,3,0.1,4.4
		c1.1,0.6,2.3,1,3.4,1c1,0,2-0.3,3-1.2c0.9-0.8,1.8-1.3,3-1.7c1.3-0.5,2.2-0.8,2.7-0.8c0.9,0,0.9,0.8,0.9,3.1c0,1.3,0.7,1.5,1.3,1.5
		c0.3,0,0.6,0,0.8-0.1c0.9-0.2,1.8-0.8,2.4-1.5c1.7-1.8,2.7-4.1,4.2-6.1c2.1-2.7-0.3-8.1-3.6-9.5c-1.6-0.7-3.1-1-4.5-2.7
		c-1.6-1.9-3-3.6-3.8-6c-0.2-0.6-0.8-1.2-1.6-1.2c-0.4,0-0.9,0.2-1.3,0.6c-0.5,0.5-1,0.7-1.8,0.7c-0.1,0-0.1,0-0.2,0
		c1.3-2.5-2.1-3.2-2-5.5c0-0.3-0.1-0.4-0.3-0.4c-0.3,0-0.7,0.3-1,0.5c-0.8,0.8-1.3,1.7-1.5,2.8c-0.2,0.8-0.4,1.7-1.2,1.8
		c-0.1,0-0.1,0-0.2,0c-1.1,0-0.8-1.3-1.1-1.9c-0.5-0.9-0.6-2-1-3c-0.4-1-1.2-1.6-2.2-1.6c-0.2,0-0.4,0-0.6,0.1
		c-1.4,0.3-1.1,1.4-1.2,2.3c-0.1,1.1,0.1,2.1,0.5,3.2c0.2,0.5,0.5,1.2-0.3,1.5c-0.1,0-0.3,0.1-0.4,0.1c-0.4,0-0.8-0.3-1-0.8
		c-1.3-3-4.1-4.9-5.6-7.8c-0.6-1.3-1.1-1.9-1.7-1.9c-0.6,0-1.2,0.7-2.1,1.8c-1.4,1.8-3.3,3.2-4,5.7c-0.1,0.2-0.2,0.3-0.3,0.3
		c-0.3,0-0.8-0.7-1-1.2c-1.1-2.7-1.4-5.7-3.1-8.1c-0.4-0.5-0.4-1.2-1.1-1.6c-1-0.6-1.7-0.9-2.2-0.9c-0.8,0-1.2,0.7-1.6,2.3
		c-0.5,2-0.9,4.2-1.5,6.2c-0.2,0.6-0.5,1.6-1.3,1.6c0,0-0.1,0-0.1,0c-0.8-0.1-1.2-1-1.2-1.8c-0.2-3.6-1.3-7.1-0.9-10.9
		c0.2-1.8-1.1-3.9-2.8-4.9c-0.3-0.2-0.6-0.3-0.8-0.3c-0.9,0-1.3,1.3-1.7,2.1c-0.7,1.6-1,3.3-1.6,4.9c-0.2,0.5-0.3,1.4-1.2,1.4
		c0,0-0.1,0-0.1,0c-0.9,0-1.1-0.8-1.3-1.3c-0.9-3-2.5-5.9-1.5-9.2c0.8-2.8-1.7-7.3-4.7-8c-1.5-0.4-3-0.7-4.3-1.5
		c-0.2-0.1-0.4-0.2-0.6-0.2c-0.7,0-1.1,1-1.8,1.3c-0.6,0.3-1.1,0.9-1.9,0.9c-0.2,0-0.3,0-0.5-0.1c-1.1-0.5-0.7-1.5-0.7-2.3
		c-0.1-2.8,0.7-5.3,3-7.1c0.4-0.3,0.9-0.7,0.9-1.1c-0.2-3.3,2.5-5.4,3.1-8.4c0.4-1.6,2.1-2.2,3.4-2.4c1.8-0.3,2.6-1.3,3-2.7
		c0.4-1.4-0.9-2-1.8-2.7c-0.5-0.4-1.3-0.7-1.2-1.5c0.1-0.8,1-0.9,1.6-1.1c0.8-0.2,1.6-0.4,2.4-0.4c0.2,0,0.3,0,0.5,0
		c0.5,0,1,0.1,1.5,0.1c1.5,0,2.9-0.4,3.7-2c0.2-0.4,0.4-0.5,0.7-0.5c0.5,0,1,0.5,1.4,0.5c0.2,0,0.3-0.1,0.4-0.5c0.2-1.3-1.8-1-2.2-2
		c-0.5-1.3,0-1.7,1.3-1.9c0.4,0,0.8-0.1,1.2-0.1c2.6,0,5,0.8,7.2,2c1,0.5,1.8,0.8,2.7,0.8c1,0,1.9-0.3,2.9-1.1c0.9-0.7,1.8-1,2.5-1
		c1.1,0,2.2,0.7,3.1,2c1.5,2.2,3.8,3.1,6.1,3.9c1.9,0.7,3.5,2.4,5.6,2.4c0.3,0,0.7,0,1-0.1c1.3,2.7,3.1,3.3,5.1,3.3
		c1.7,0,3.5-0.4,5.1-0.4c0.5,0,0.9,0,1.3,0.1c3.5,0.7,7.2,0,10.6,1.6c0.4,0.2,0.7,0.3,1.1,0.3c1.1,0,2.1-0.7,3.2-0.7
		c0.1,0,0.2,0,0.3,0c4.8,0.6,9.7,0.5,14.5,0.6c0.3,0,0.6,0.1,0.9,0.1c0.4,0,0.8-0.1,1.1-0.7c0.4-0.9,0.2-1.5-0.5-2.1
		c-3.5-3-5.9-7.2-9.9-9.7c-3.4-2.1-3-7,0.5-10c1.8-1.5,3.9-2.6,6.1-2.6c0.1,0,0.1,0,0.2,0c0.1,0,0.2,0,0.3,0c2.3,0,4.6-0.8,7-0.8
		c1.1,0,2.3,0.2,3.5,0.7c2.2,1,3,2.4,3,4.4c0,1.7,1,3,1.5,4.4c1.2,3.6,3,7.2,1.8,11.2c-1,3.5,0.1,5.4,3.5,6.3
		c2.3,0.6,4.5,1.2,6.8,1.2c0.8,0,1.5-0.1,2.3-0.2c0.4-0.1,0.8-0.1,1.2-0.1c3,0,5.4,1.9,8,3.1c1,0.4,1.9,0.8,2.7,0.8
		c1,0,1.9-0.5,2.8-1.8c1.6-2.4,2.3-5.3,0.3-7.3c-1.8-1.8-1.5-4.5-3.1-6.2c-2-2.1-3.1-4.8-6.2-6c-1.5-0.6-2.5-2.5-2.5-4.4
		c0-1-0.2-1.9-1-2.6c-4.2-4.1-3.3-9.8-4.7-14.7C251.5,24.1,255.2,21.5,258.3,21.5 M258.3,6.5C258.3,6.5,258.3,6.5,258.3,6.5
		c-6.7,0-13.6,3.4-17.5,8.6c-1.8,2.4-3,5.2-3.4,8c-1.7-0.4-3.4-0.6-5.2-0.6c-2.4,0-4.5,0.4-6,0.6c-0.4,0.1-0.8,0.1-1.1,0.2
		c-0.1,0-0.3,0-0.4,0c-5.6,0-11.1,2.1-15.8,6.2c-5.3,4.5-8.2,10.9-8.1,17.4c-0.5,0-1-0.1-1.2-0.1c-1.3-0.3-2.7-0.4-4.2-0.4
		c-0.5,0-0.9,0-1.4,0c-2.1-1.5-4.5-2.5-7.1-2.8c-0.9-0.5-2-1-3.3-1.5l-0.1,0c0,0-0.1,0-0.1,0c-3.6-4.3-8.6-6.7-14.1-6.7
		c-1.6,0-3.6,0.2-5.8,1c-3.2-1.1-6.3-1.7-9.5-1.7c-0.9,0-1.9,0-2.8,0.1c-6.9,0.7-10.6,4.7-12.3,7.2c0,0,0,0,0,0
		c-8,2.1-11.6,8.4-12.3,13.5c0,0.4-0.1,0.9-0.1,1.5c-1.2,1.6-2.1,3.5-2.7,5.5c-0.1,0.1-0.1,0.2-0.2,0.3c-0.7,1.2-1.7,3-2.5,5.3
		c-3.4,4.2-5.2,9.4-5.1,15.2c-0.5,8.7,4.8,14.1,10,16.3c1.5,0.6,3.1,1,4.8,1.2c0.4,2,1,3.8,1.5,5c0.2,0.5,0.3,0.9,0.4,1.2
		c1.7,5.3,5,8.5,8.6,10.2c-1-0.2-2-0.3-3-0.3c-4.6,0-8.9,2-11.9,5.4c-3.1,3.6-4.4,8.2-3.8,13.2c0.1,0.4,0.1,0.8,0.1,1.2
		c0.1,1,0.3,2,0.4,3.2c-2.1,5.4-1.7,12.3,3.7,19.3c0,0,0.1,0.1,0.1,0.1c0.6,5.4,3.3,10.2,7.6,13.6c0,0.1,0,0.3,0,0.4
		c-0.1,11.6,7.9,17.6,15.4,18.3c0.5,0.1,1.1,0.1,1.7,0.1c3.8,0,7.3-1.2,10.2-3.4c0.1,0,0.3,0,0.4,0c0.4,0,0.8,0,1.3,0
		c1.6,1.9,3.7,3.6,6.4,5c2.4,1.2,5,1.8,7.5,1.9c1.2,2.2,3,4.1,5.2,5.7c2.8,2,6.1,3.1,9.4,3.1c0.9,0,1.9-0.1,3-0.3
		c0.1,0.1,0.2,0.1,0.3,0.1c1.7,0.9,3.5,1.4,5.3,1.6c0.6,0.6,1.2,1.1,1.9,1.6c0.3,1,0.7,1.9,1.3,2.9c-0.3,0.1-0.6,0.2-0.9,0.3
		c-0.1,0-0.2,0.1-0.3,0.1c-0.2-0.2-0.5-0.5-0.7-0.7c-3-2.8-6.8-4.4-11-4.4c-4.3,0-8.3,1.7-11.9,5c-1.9,1.7-3.8,3.3-5.9,4.8
		c-2.4-3.4-6.2-5.6-10.3-6.2c-0.9-0.1-1.9-0.2-2.8-0.2c-3.8,0-7.3,1-10.5,3c-1.7,1.1-3.4,2.1-5.2,3.2c-1.6,1-3.2,1.9-4.9,3
		c-2,0.4-3.7,1.1-5.1,1.9c-1-0.2-2-0.3-3-0.3c-0.9,0-1.9,0.1-2.9,0.3c-0.8,0.2-1.5,0.4-2.3,0.6c-0.9-0.1-1.8-0.2-2.7-0.2
		c-0.7,0-1.3,0-1.7,0.1c-2,0.1-3.9,0.5-5.6,1.2c-1.4-0.4-2.8-0.6-4.3-0.6c0,0,0,0,0,0c-2.7,0-5.2,0.7-7.7,1.9
		c-5.1,2.7-8.6,6.4-10.3,11c-4.1,0.1-8,1.9-10.7,5.1c-3.5,4-5,7.9-6,11.2c-0.6,1.9-1,3.6-1.5,5.3c-0.4,1.5-0.7,2.9-1.1,4.1
		c-1.6-0.6-3.3-0.9-5.1-0.9c-1.4,0-2.7,0.2-4.1,0.6c-6.6,1.9-11,8-10.9,14.7c-0.2,1-0.5,2.7-0.5,4.6c0,2.9,0.3,5.6,0.6,7.7
		c0.2,1.5,0.4,3,0.3,3.8c0,0.3-0.1,0.8-0.1,1.3c0,0,0,0,0,0c-3,2.4-5.1,6.1-5.6,10.3c-3.9,1.1-7.2,3.7-9.3,7.3
		c-2.6,4.4-2.9,9.5-1.3,14.2c-4.6,0.7-8.7,3.4-11.3,7.5c-3.6,5.9-3.9,14.7,3.6,21.1c2.4,2.2,4.9,3.4,6.6,4.2c1.9,1.8,4,3.1,6,3.9
		c0.6,1.6,1.4,3.2,2.5,4.6c1.9,2.4,4.4,4.1,7.2,5.1c-0.8,5.2,1.1,10.2,4.2,13.4c3.2,3.4,7.6,5.3,12.3,5.3c1.6,0,2.9-0.2,3.7-0.4
		c2.9-0.3,6-0.6,9.3-1c1.9,3.5,5.2,6.4,10.1,7.8c7.5,2.4,14.5,2.5,20.8,2.5c1,0,2,0,2.9,0c2.3,4.6,6.6,7.9,12,8.7
		c0.6,0.2,1.2,0.3,1.9,0.4c3.1,3.5,7.5,5.6,12.4,5.6c3.2,0,5.8-0.9,7-1.4l0.2-0.1c1.3-0.4,2.6-0.8,3.9-1.3l1.3-0.4
		c0.3,0,0.7,0,1-0.1l0.2,0c1.3,0,5.1,0,9.1-2.4c0.5-0.3,2.2-0.7,3.4-1c2.3-0.6,5.3-1.4,8.4-2.8c2.3,0,4.5-0.2,6.5-0.3
		c0.7,0,1.4-0.1,2.1-0.1c3.1,2.7,7,4.1,10.9,4.1c2.1,0,4.2-0.4,6.2-1.1c2.9,2.4,6.6,3.8,10.4,3.8c2.2,0,3.9-0.4,4.9-0.7
		c0.3,0,0.8,0,1.2,0l0.2,0c0.6,0,1.5,0.1,2.4,0.1c1.3,0.1,2.9,0.2,4.5,0.2c1.6,0,3.2-0.1,4.6-0.3c2.4,1.2,4.9,1.7,7.2,1.7
		c2.5,0,6.1-0.6,9.8-3.2c1.5,0.1,3.3,0.5,5.2,0.8c2.1,0.4,4.4,0.9,6.9,1.1c4.5,2,8.7,3,12.8,3c0.7,0,1.4,0,2.1-0.1
		c1.8,0.6,3.7,0.8,5.6,0.8c2.5,0,5-0.5,7.2-1.5c0.3-0.1,0.9-0.2,1.4-0.3c2.1-0.5,5.2-1.2,8.4-2.9c2,0.3,4,0.5,6.1,0.5
		c1.9,0,4-0.1,6.1-0.4l1.1-0.1c1.8-0.2,3.5-0.4,4.8-0.4c0.4,0,0.9,0,1.2,0.1c1,0.4,3.5,1.4,6.7,1.4c2.2,0,4.3-0.4,6.2-1.3
		c1.2-0.2,2.3-0.5,3.4-0.9c0.9-0.1,1.8-0.2,2.7-0.4c0.2,0,0.4,0,0.6,0c0.5,0,1.1,0.1,1.8,0.1l0.1,0c0.7,0.1,1.8,0.2,3,0.2
		c4.4,0,8.4-1.4,11.5-4c0.2,0,0.3-0.1,0.5-0.1c0.8,0.1,1.5,0.2,2.3,0.2c2.6,0,5.2-0.6,7.5-1.7c1.1,0.2,2.1,0.3,3,0.4
		c1.4,0.2,2.7,0.3,3.5,0.6c1.6,0.4,3.2,0.6,4.7,0.6c2.4,0,4.7-0.5,6.7-1.4c0.9-0.2,1.6-0.5,2.1-0.7l0.2-0.1c2.2-0.8,4.2-1.7,6-2.5
		c1.4-0.6,2.7-1.2,3.8-1.6c6.3-1.3,10-5.3,11.8-9.4c4.3-2.6,7.7-6.2,10-10.8c1.4-0.8,2.7-1.7,3.8-2.9c3.1-3.2,4.8-7.5,4.7-12
		c2.6-2.4,3.9-5.1,4.5-7c1.1,0.3,1.9,0.4,2.5,0.5l0.1,0c0.6,0.1,1.5,0.2,2.6,0.2c7.1,0,13.2-4.5,15.1-11.3c1.2-4.3,0.7-8.7-1.4-12.5
		c-2-3.6-5.3-6.1-9.3-7.3c-2.8-1.3-5.5-2.3-7.9-3.1c-1.6-0.6-3.1-1.1-4.4-1.6c1.7-2.1,2.8-4.7,3.3-7.5c0.9-5.6-1.2-13.5-9.8-17.4
		c-0.7-0.3-1.5-0.7-2.3-1.1c-1.5-0.7-3.1-1.5-4.9-2.2c0.8-4.4-0.2-8.9-2.7-12.5c0.5-4-0.6-8.1-2.6-11.5c2-6.4-0.2-13.4-6-17.9
		c-1.2-0.9-2.6-1.9-4.2-2.8c-0.5-1.3-1.1-2.6-1.9-3.7c0.2-4-1-7.9-3.4-10.9c0.7-5.5-1.4-10.9-5.8-14.7c0.2-3.1-0.5-6.9-3.5-10.8l0,0
		c-1.9-2.6-4.5-4.7-7.3-6c-0.9-1.8-2-3.4-3.5-4.7c-0.4-0.5-0.8-1.1-1.2-1.6c0-1.2-0.2-2.4-0.5-3.5c-1.1-3.9-3.6-7.3-7.1-9.3
		c-1-1-2.7-2.5-5-3.7c-0.4-1.8-1.2-3.6-2.3-5.2c-0.9-1.3-2.1-2.8-3.8-4.1c-0.1-1.6-0.4-3.3-1-4.9c0.1-1.4,0-2.9-0.4-4.4
		c-0.6-2.7-1.9-5.3-3.8-7.4c2.8-7.4,0-15.7-7.1-20.6l-0.4-0.3c-0.1-0.1-0.2-0.1-0.2-0.2c-0.2-0.2-0.5-0.4-0.7-0.6
		c2.2-4.9,2.4-12-3.4-18.2c-1.1-1.3-2.4-2.5-3.6-3.5c0.6-1.4,1.2-2.9,1.6-4.4c1.4-5.3,2-10.5,2.5-15c0.3-2.9,0.6-5.6,1.1-8.1
		l0.1-0.5c0.5-2.7,1.6-7.7-0.7-13.6c-0.3-0.7-0.4-1.3-0.4-1.7c-0.1-7.3-4.2-12.3-6.1-14.7c-2.4-2.8-5-4.5-7-5.4
		c-4.1-4.8-10-7.4-16.6-7.4c-0.7,0-1.5,0-2.2,0.1c-2,0.2-4,0.6-5.8,1.1c-1-2-2.3-3.9-3.8-5.8c0-6.1-2.5-11.6-6.8-15.3
		c-3.9-6.2-9.9-9.7-16.8-9.7c-1.6,0-3.2,0.2-4.8,0.6C262.3,6.8,260.3,6.5,258.3,6.5L258.3,6.5L258.3,6.5z"/>
</g>
</svg>
