<?xml version="1.0" encoding="utf-8"?>
<!-- Generator: Adobe Illustrator 24.1.0, SVG Export Plug-In . SVG Version: 6.00 Build 0)  -->
<svg version="1.1" id="Livello_1" xmlns="http://www.w3.org/2000/svg" xmlns:xlink="http://www.w3.org/1999/xlink" x="0px" y="0px"
	 viewBox="0 0 425 454.2" style="enable-background:new 0 0 425 454.2;" width="50" height="50" xml:space="preserve">
<style type="text/css">
	.st0{fill:#FEFEFE;}
</style>
<g id="zDMsU0_1_">
	<g>
		<path class="st0" d="M227.1,443.3c-5.1,0-10.3-0.3-15.2-0.5c-4.8-0.2-9.4-0.5-14-0.5c-16.1-0.1-32.7-0.1-49.4-0.8
			c-7.4-0.3-15-1.4-21.1-7.2c-11.9-1.7-20.3-8.8-27.7-15.2c-0.9-0.7-1.7-1.5-2.6-2.2c-3.3-2.8-6.8-4.8-10.8-6.1
			c-6.4-2.2-11.8-6.2-16.2-9.7c-4-3.2-7.4-7.1-10-11.7c-1.2-0.4-2.6-1-3.9-2.3c-1.4-1.3-2.8-2.6-4.4-4c-4.5-4-9.5-8.4-12.9-14.8
			c-5.2-1.9-7.7-5.9-9.4-8.6c-0.4-0.6-0.8-1.2-1.1-1.7c-0.1-0.1-0.1-0.2-0.2-0.3c-2.6-0.9-4.8-2.9-5.8-5.5c-0.8-2.2-0.8-4.5,0.1-6.6
			l0,0c-0.1-0.4-0.7-1.4-1.2-2.2c-1.3-2.1-3.1-4.9-3.3-8.7c-0.4-6.4,1.9-12.7,6.1-16.9c2.2-2.2,4.6-4.3,6.8-6.3
			c1.6-1.4,3.1-2.7,4.5-4c0.2-0.2,0.3-0.5,0.4-2.8c0-0.6,0-1.2,0.1-1.8c-1.5-4,0.6-7.2,2.2-8.6c0.6-0.5,0.8-0.6,0.9-3.2
			c0.2-2.4,0.6-4.6,1.1-6.7c0.5-2.2,0.9-4.3,0.9-6c0-1.9,0.5-3.5,1.1-4.8c-0.8-3.1-0.3-6.1,1.5-8.3c1.4-1.7,1.7-4.1,2.1-8
			c0.2-1.9,0.4-3.8,0.8-5.8c1.2-5.8,2.6-11.6,4.2-16.8c1.7-5.9,2.7-11.7,2.8-17.6c0.1-2.9,1.4-5,2.2-6.3c0.1-0.2,0.2-0.4,0.3-0.6
			c0.1-0.3,0.3-0.7,0.5-1.2c0.4-0.9,1.1-2.4,1.1-2.8c-1.1-3.4-1-8,2.6-10.8c0.2-0.2,0.3-0.3,0.4-0.3c0.1-0.6-0.3-2.3-0.5-3.5
			c-0.2-1-0.4-2.2-0.6-3.5c-0.2-1.8,0.1-3.3,0.7-4.5c-0.2-0.7-0.4-1.5-0.4-2.2c-0.2-3.1,1.1-5.3,2.4-6.9c-0.2-0.5-0.4-1.1-0.6-1.7
			c-0.5-2-0.4-3.9-0.4-5.4c0-0.4,0-0.8,0-1.2c-0.2,0.1-0.5,0.2-0.7,0.3c-1.6,0.6-3.4,0.9-5.3,0.9c-6.2,0-13.9-3.4-16-9.6
			c-0.5-1.5-1.4-2.8-3.3-4.7c-0.3-0.3-0.6-0.7-0.9-1c-0.6,0.1-1.2,0.2-1.9,0.2s-1.3-0.1-1.7-0.1l-0.6-0.1c-4.1-0.4-8.4-0.9-10.7-4.9
			c-1.2-2-1.4-4.4-0.6-6.6c0-0.3-0.1-0.7-0.2-1.1c-0.5-2.1-1.2-5.5,0.3-9.2c0.3-2.8,1.2-4.8,2.4-6.3c0.7-7.3,5.5-11.9,8.9-15.2
			c1.5-1.5,3-2.9,3.8-4.2c0.6-0.9,0.6-2.2,0.8-4.4c0.2-2.9,0.3-6.5,2.4-10.2c0.8-1.4,0.9-3.6,1.1-6.1c0-0.5,0.1-0.9,0.1-1.4
			c-0.9,0.9-2.1,1.6-3.5,1.9c-0.1,0-0.1,0-0.2,0c-0.3,0.5-0.8,1.9-1.1,2.8c-0.7,2.1-1.5,4.8-3.4,7.3c-2.7,3.6-6.1,5.6-9.7,5.6
			c-2.1,0-4.2-0.7-5.9-2L15.2,98c-8.4-6.4-5-13.5-3.7-15.5c2.1-3.3,3.5-7.3,4.7-13c1.1-5.2,4.7-9.8,10.9-13.7l0.6-0.4
			c1.4-0.9,3.9-2.5,4.7-3.5C32,46.4,34,42,35.5,38.5c0.9-2.1,1.7-3.9,1.8-5.6c0.2-3.1,0.9-11.5,7.4-17.2c3.3-2.9,7.4-4.5,11.6-4.5
			c4.5,0,8.6,1.8,11.6,5.2c0.3,0.3,1.1,0.9,1.7,1.4c1.5,1.1,3.5,2.5,4.8,4.7c0.2,0.2,0.6,0.6,0.9,0.8c2,1.9,7.3,6.8,4.6,14.9
			c0.1,0.4,0.2,1.2,0.3,1.7c0.4,1.8,0.8,4,0.7,6.5c-0.1,1.7-0.2,3.5-0.2,5.3c-0.2,6.8-0.5,13.9-3.1,21.3c-1.5,4.3-1.6,9.6-1.6,15.1
			v1.1c0.9,1.8,5.2,5.1,8.3,5.7c0.1,0,0.3,0,0.5,0.1c0.1-0.3,0.1-0.7,0.2-1c0.8-5.5,4.2-9.8,6.6-13l0.3-0.4c2.8-3.6,6.1-6.4,9.3-9.2
			c1.4-1.2,2.8-2.4,4-3.6c3.3-3.1,7.1-4.7,11.1-4.7c2.6,0,5,0.7,7,1.4c1-6.4,4.7-8.8,7.5-9.6c-1.4-4.1-1.4-8.1-1.3-11.3
			c0-2.1,0-4.1-0.3-5.6c-1.2-5.3,1.5-10.2,6.8-12.1c1.4-0.5,2.8-0.8,4.3-0.8c3.4,0,6.7,1.4,8.9,3.9c0.7,0.7,1.1,1.5,1.5,2.2
			c1.5,0.4,2.8,1,4,2c1.5,1.1,5.8,5.3,2.6,12c0.1,1.1,0.2,2.2,0.2,3.2c0,0.4,0,1,0.1,1.4c2.5,0.4,5.1,2,6.4,4.6
			c0.2,0,0.4-0.1,0.6-0.1c0.9-0.2,1.9-0.3,2.8-0.3c2,0,4,0.4,6,1.2c0.5-2.8,0.4-3.1,0-3.6c-3-3.9-2.4-7.5-1.8-9.3
			c0.5-1.5,1.3-2.6,2.3-3.6c-0.1-0.4-0.3-0.8-0.4-1c0,0,0,0-0.1,0c-2.8-1.3-4.7-3.9-5.2-7.1c-0.6-3.9,1.1-8.3,4.1-11
			c2-1.8,4.6-2.8,7.3-2.8c3.9,0,7.7,2,9.8,5.3c0.7,1,1.2,1.6,3.5,2.1c4.5,1,6.8,3.4,8,5.3c1,1.5,1.9,3.9,1.7,7.1
			c2.1-0.4,4-0.6,5.9-0.6h0.1c0.4-0.8,0.8-1.6,1.2-2.4c1.1-2.1,1.6-3.3,1.6-4.6c0-2,0.8-4,2.2-5.4s3.3-2.1,5.3-2.1
			c0.1,0,0.2,0,0.2,0c1.9,0.1,3.8,0.4,5.4,0.7c1.4,0.3,2.7,0.5,3.7,0.5c0.8,0,1.1-0.2,1.4-0.3c4.4-3.1,8.9-3.3,12.2-3.4h0.3
			c0.3,0,0.5,0,0.7,0c5.3,0,9.7,1.9,12.2,5.5c2.3,3.1,2.9,7.2,1.6,11.2c-0.3,0.9-0.6,1.6-1,2.3c1.6,0.8,3.7,2.1,5,4.7
			c0.3,0.5,0.5,0.9,1.9,0.9c4.4,0,7,2.6,8.3,4.3c1.8,0.3,3.4,1.2,4.6,2.6c0.7-2.7,2-4.7,2.9-6c3.3-4.9,8.2-7.8,13.3-7.8
			c2,0,4,0.4,5.9,1.3h0.5c0.8,0,1.8,0,3,0.3c0.1,0,0.2,0,0.3,0c0.5,0,1.2-0.1,1.9-0.1c3.9,0,6.2,1.7,7.5,3.2c0.8,1,1.5,2,1.8,3.2
			c4,3.1,5.8,7.5,7.1,10.6c1.3,3.2,1.9,4.3,2.8,4.7c3,1.1,6.6,3.9,6.4,10.9c0,0.1,0,0.2,0,0.2c1.6,2.9,3.4,5.8,5.3,8.8
			c1.6,2.5,3.3,5.1,4.8,7.8c1.4,2.5,2.8,4.9,4.1,7.4c2.4,4.4,4.7,8.6,7.2,12.6c4.4,7,6.2,14.3,7.9,21.3c0.9,3.7,1.8,7.2,2.9,10.5
			c1,2.6,1.4,5.2,1.8,7.6c0.6,3.5,1,5.8,2.4,7.2c2.1,2.2,2.7,5.5,1.4,8.3c0.1,0.5,0.6,1.6,0.9,2.3c1.1,2.3,2.6,5.6,2.4,9.5
			c0.9,1.2,2.2,3,2.7,5.4c0.5,2,0.6,3.8,0.6,5.4c0.1,1.2,0.2,2.9,0.4,3.3c0.2,0.2,0.3,0.4,0.5,0.6c1.5,1.9,4.4,5.4,4.3,10.3
			c2.7,3.7,3.7,6.5,3.9,11.1c3,5,4.2,10.3,5.3,15c0.7,3.3,1.4,6.4,2.7,8.9l0.5,1.1c1.8,3.9,3.6,7.6,6,10.4c4.3,5,6.6,11.3,7,19.1
			c1,1.1,2.4,2.8,3.2,5.3c2.7,9.3,6.3,22,3.7,34.3c-0.5,2.3-0.3,4.8,0,7.7c0.3,3.5,0.7,7.6-0.3,12c-0.5,2.2-1.9,8.2-8.2,10.4
			c-0.1,0-0.1,0-0.2,0.1c5.9,5.4,4.7,12,4.1,15.4c-0.1,0.8-0.3,1.5-0.3,2c-0.4,6.7-4,12.5-10.9,17.2c-1.8,1.2-3.6,2.4-5.4,3.6
			c-7.7,5.1-15,10-20.4,16.5c-5.7,7-13,13.1-21.7,18.3c-11.7,6.9-21.8,11.7-31.8,15c-1.9,0.6-3.8,1.1-5.7,1.5
			c-3.6,0.9-6.7,1.6-8.8,3.4c-3.2,2.7-6.9,2.8-8.1,2.8h-0.1c-1.1,1.4-2.6,2.3-4.4,2.7l-10,2.1c-0.5,0.1-1,0.2-1.5,0.2
			c-0.4,0-0.8,0-1.2-0.1c-1.1,0.7-2.4,1-3.8,1c-0.2,0-0.3,0-0.5,0c-0.5,0-1-0.1-1.5-0.1c-4.6,0-9.4,1.5-14.5,3
			c-0.9,0.3-1.9,0.6-2.8,0.8C245.5,442.2,237.2,443.3,227.1,443.3z M271.1,160.7c0,0.3,0,0.5,0,0.8c-0.4,5.1,0.2,10.2,1.6,15
			c-0.4-4.3-0.5-8.3-0.6-11.5c0-0.6,0-1.2,0-1.9c0-0.4,0-0.8,0-1.3C271.7,161.5,271.4,161.1,271.1,160.7z M266.1,85.8
			c0.1,0.3,0.4,0.8,0.8,1.4c0.8,1.2,1.5,2.5,2,3.8c0.6-3.2,1.4-6.3,2.1-9.3c0.4-1.7,0.8-3.3,1.2-5c0.3-1.3,0.4-3,0.5-4.7
			c0.1-1.9,0.3-4,0.7-6.2c0.4-1.9,1.1-3.5,1.6-4.9c-0.2,0.2-0.4,0.3-0.6,0.5c-4.5,3.6-5.7,7.7-4.4,14.5c0.4,2,0.5,5.9-3.5,9.3
			C266.4,85.5,266.2,85.6,266.1,85.8z M241.8,58.7c0.5,0.2,0.9,0.4,1.3,0.7c-0.6-1.4-1.4-2.6-2.6-3.7c0.4,0.8,0.7,1.6,0.9,2.2
			C241.6,58.2,241.7,58.5,241.8,58.7z"/>
		<path d="M56.5,19.3c2.2,0,4.4,0.8,6,2.7c1.8,2,4.7,3.3,5.8,5.1c1.7,2.8,6.6,4.4,4.6,9.7c-1,2.6,1,6.3,0.8,9.7
			c-0.5,8.2,0,16.5-2.9,24.6c-2.2,6.1-2,12.7-2.1,19.2c0,4.8,8.2,11.5,14.5,12.6c1.8,0.3,3.3,0.5,4.4,0.5c3.5,0,4.1-1.8,5-7.7
			c0.6-3.7,3.3-7.1,5.4-9.9c3.5-4.5,8.3-8,12.5-11.9c2.1-2,4-2.7,6-2.7c1.8,0,3.6,0.6,5.4,1.3c1.1,0.4,2.1,0.6,3.1,0.6
			c3.1,0,5.4-2.1,5.8-5.9c0.3-2.8,1.1-4.8,3.4-4.8c0.6,0,1.3,0.1,2.2,0.4c0.7,0.2,1.4,0.7,2,0.7c0.5,0,0.9-0.3,1.2-1.2
			c0.6-1.6,3.1-2.9,1.3-4.8c-5.8-6.1-2.6-13.9-4.2-20.8c-0.4-1.8,0.5-2.8,2.1-3.4c0.6-0.2,1.1-0.3,1.7-0.3c1.3,0,2.6,0.5,3.3,1.4
			c1.9,2.1-2.3,1.7-1.9,3.6c0.2,0.6,0.7,0.7,1.2,0.7c0.2,0,0.4,0,0.5,0s0.2,0,0.3,0c0.3,0,0.6,0,0.9,0c0.9,0,1.8-0.1,2.7-0.1
			c1,0,1.9,0.1,2.8,0.8c2.4,1.9-0.9,3.7-0.5,5.5c1.2,4.7-1.5,11.7,6.8,12.7c0.3,0,0.7,0.3,0.8,0.5c0.3,3.9,1.7,5,3.7,5
			c1.5,0,3.4-0.6,5.2-1c0.4-0.1,0.9-0.1,1.3-0.1c1.8,0,3.6,0.6,5.2,1.6c1.2,0.7,2.4,1.1,3.5,1.1c2.3,0,4.1-1.5,4.2-4.2
			c0.2-4.2,2.4-8.5-1-12.9c-2.2-2.9,1.1-4.1,3.9-4.7c-2.5-3.7-1.3-9.1-6.6-11.5c-1.8-0.8-0.8-4.3,0.8-5.7c0.7-0.6,1.5-0.9,2.3-0.9
			c1.4,0,2.7,0.8,3.4,1.8c2,3.2,4.7,4.6,8.3,5.4c2.7,0.6,4.4,2.2,3.6,5.8c-1.2,5.2-0.1,7.6,3.7,7.6c1.1,0,2.4-0.2,3.9-0.6
			c1.9-0.5,4-0.8,5.9-0.8c0.5,0,0.9,0,1.4,0.1c0.3,0,0.5,0,0.8,0c2,0,3.5-0.8,4-2.6c1.2-3.9,4.2-7.2,4.2-12.1
			c2.9,0.1,6.2,1.2,9.3,1.2c2,0,3.9-0.4,5.7-1.7c2.6-1.9,5.6-1.9,8.4-2c0.2,0,0.3,0,0.5,0c5.3,0,8,2.9,6.7,6.9
			c-0.5,1.5-0.9,2.3-2.5,2.3c-3.9,0.1-6.8,3.2-10.8,3.4c-1.7,0.1-2.7,1.6-2.9,4c-0.2,3.9,1.3,8.3-1.9,11.8c-0.2,0.2-0.1,1.2,0.1,1.3
			c3.6,2.1,2.4,7.6,6.9,9.1c0.8,0.3,2,1.1,1.9,2.6c-0.2,3.9,1.7,5.1,4.8,5.1c0.4,0,0.9,0,1.4-0.1c4.2-0.4,4.7-2.6,4.9-6.3
			c0.3-6.6-1.2-12.2-6.1-16.7c-2.3-2.1-0.9-3.9,0.2-5.7c0.6-0.9,1.9-2.2,2.6-2.2c0.1,0,0.2,0.1,0.3,0.2c1.2,2.7,4.5,1.9,5.7,4.1
			c1.8,3.5,4.9,4.9,8.5,5c3.1,0,2.9,4.4,6.2,4.4c0.3,0,0.6,0,1-0.1c-7.6,6-8.7,13.5-7.1,21.9c0.2,1-0.3,1.6-1,2.1
			c-4.2,3.6-4.2,7.1-1.2,11.7c1.9,2.8,2.6,6.5,3.6,9.8c1,2.9,1.1,6.8,5.1,6.9c0.1,0,0.1,0,0.2,0c3.9,0,5.7-3.8,5.8-6.8
			c0.1-7.9,2.5-15.3,4.2-22.8c0.8-3.6,0.6-7.5,1.3-11.1c0.7-3.4,3.5-6.7,2.4-9.9c-1.2-3.6-0.2-5.7,1.6-8.4c1.8-2.7,4.3-4.4,7.1-4.4
			c1.1,0,2.2,0.3,3.3,0.8c0.8,0.4,1.7,0.5,2.5,0.5c0.2,0,0.5,0,0.7,0c0.6,0,1.1,0,1.7,0.2c0.3,0.1,0.6,0.1,1,0.1
			c0.8,0,1.7-0.1,2.4-0.1c1.5,0,2.7,0.5,2.3,3.6c8.4,2.9,5.9,14.6,14.4,17.7c2.7,1,0.7,4.4,1.9,6.8c3.2,6.2,7.3,11.7,10.7,17.6
			c3.8,6.7,7.3,13.7,11.4,20.2c5.9,9.3,6.5,20.3,10.1,30.4c2.1,5.7,1.2,12.5,5.9,17.4c-2.8,5.7,3.7,10,2.5,15.6
			c-0.5,2.4,2.4,3.9,3,6.5c0.9,3.8-0.2,8.2,2.5,11.6c1.9,2.4,4.1,4.5,2.9,8c-0.1,0.2,0.2,0.6,0.4,0.9c3.3,4.1,3.8,5.4,3.9,10.3
			c0,0.2-0.1,0.4,0,0.5c5.4,7.4,4.9,16.9,8.6,24.8c2.1,4.5,4.2,9.2,7.6,13.2c3.9,4.5,5.1,10,5.2,15.8c0.1,2.6,2.7,3.5,3.4,5.9
			c2.9,10.1,5.7,20.6,3.5,30.6c-1.5,6.9,1.2,13.1-0.3,19.5c-0.5,2.3-1.2,4.2-3.4,5c-2.3,0.8-5.9,0.7-6.2,3.2
			c-0.3,2.8,0.4,7.3,2.3,8.6c5.2,3.6,2.8,8.1,2.5,12.3c-0.3,5.1-3.6,8.7-7.7,11.4c-9.6,6.6-20,12.5-27.4,21.6
			c-5.6,6.9-12.4,12.3-19.7,16.6c-9.6,5.7-19.5,10.8-30.3,14.3c-5.6,1.8-12.2,2.1-17.1,6.4c-0.9,0.8-2,0.9-3.3,0.9
			c-0.8,0-1.6-0.1-2.4-0.1c-0.2,0-0.3,0-0.5,0c-0.3-1.7-0.9-2.2-1.5-2.2c-1.1,0-2.4,1.6-3.6,1.6c-0.2,0-0.4,0-0.5-0.1
			c-0.2-0.1-0.7-0.3-1.1-0.3c-0.7,0-1.4,0.3-1.3,1.6c0.1,1.4,0.9,1.6,1.8,1.6c0.4,0,0.8,0,1.2,0c0.7,0.3,1.3,0.6,2,0.9
			c-3.3,0.7-6.7,1.4-10,2.1c-0.3-0.3-0.6-0.5-0.9-0.8c0.9-0.7,1.9-1.8-0.1-2c-0.4,0-0.8-0.1-1.2-0.1c-1.4,0-2.9,0.4-3.7,1.9
			c0.3,0.7,0.6,1.3,0.9,2c-0.7,0-1.3-0.1-2-0.1c-6.7,0-13.1,2.3-19.4,4.1c-7.9,2.3-15.9,3-23.9,3c-9.7,0-19.4-1-29.2-1
			c-16.4-0.1-32.8-0.1-49.1-0.8c-6.1-0.3-12.6-1-17.3-6.2c-0.4-0.4-1.1-0.7-1.8-0.8c-11.7-1.1-19.5-8.9-27.9-15.9
			c-3.9-3.3-8.3-5.8-13.2-7.5c-5.2-1.8-9.7-5.1-14-8.5c-4-3.1-7.1-7.2-9.3-11.8c-0.8-1.7-2.8-0.4-3.9-1.6
			c-5.9-5.7-12.9-10.4-16.5-18.3c-0.4-0.9-1.7-1.8-2.7-2c-4.2-1.1-5.6-4.9-7.7-7.9c-1-1.3-1.1-2.8-3.3-2.9c-1.2,0-2.6-1.4-1.2-2.8
			c1.3-1.3,0.2-1.9,0.1-3c-0.4-4.1-4.2-6.7-4.4-10.6c-0.2-4.1,1.2-8.4,4-11.2c3.5-3.5,7.5-6.6,11.1-10.1c3.6-3.4,2.4-7.4,3-11.2
			c0.1-0.5-0.8-1.6-0.7-1.7c2.7-2.2,3.3-4.5,3.6-8.4c0.3-4.2,2.1-8.7,2-13.3c0-1.3,0.8-2.1,1.5-3c0.8-1,2.1-2.1-0.3-2.9
			c-0.4-0.1-0.7-1.8-0.4-2.2c4.1-5,3.3-11.5,4.5-17.1c1.1-5.4,2.5-11,4-16.1c1.9-6.5,3-12.9,3.1-19.5c0-1.4,1.3-2.6,1.9-4
			c1.3-3,3-5.9,1.9-9.4c-0.2-0.7-0.4-2.1,0-2.4c5.4-4.1,2.8-9.2,2.2-14.2c-0.1-0.6,0.8-1.3,1.3-1.9c0.4-0.5,0.9-0.9,1.4-1.4
			c-5.4-3.7-0.1-5.2,1.4-7.8c0.9-1.6-1.6-3.1-2.1-5c-0.9-3.7,1.1-8.2-3.1-11c-0.1-0.1,0-0.3,0-0.5c2.2-6.8-2.1-12.2-4.3-18
			c-1.8-4.9-4.1-9.6-6.3-14.4c-0.5-1.1-1.9-1.8-2.8-1.8c-0.4,0-0.7,0.1-0.9,0.3c-1.6,1.6-3.4,3.7-3.1,6.3c0.4,4.2,0.8,8.2,5.5,10.9
			c2.5,1.4,5.1,4.9,4.2,9c-0.1,0.3-0.1,0.8,0.1,1c1.8,2.4,3.9,4.9-0.5,6.6c-0.7,0.3-1.6,0.4-2.5,0.4c-3.6,0-8-2-8.8-4.4
			c-1-3.2-2.9-5.4-5.2-7.7c-2.4-2.4-1.9-6-1.7-9.2c0.1-2.3,0.3-4.4-1.8-6.1c-0.9-0.8-1.8-1.4-2.7-1.4c-0.5,0-1,0.2-1.6,0.7
			c-1.4,1.1-1.6,2.1-0.1,3.9c1.1,1.4-0.6,3.6-3.1,4.3c1.9,1,4.4,1.1,4.5,3.6c0,0.9-0.8,1.1-1.5,1.1c-0.3,0-0.6,0-0.8-0.1
			c-2.1-0.2-6.1-0.6-5.7-1.5c1.6-3.6-1.6-6.9,0.1-10.2c0.8-1.6-0.3-4.2,2.5-4.8c0.1,0,0.4-0.2,0.3-0.3c-1.4-9.4,7.6-12.9,11.5-19.3
			c3-4.9,0.8-10.2,3.3-14.9c3.1-5.6,1-12.4,3.9-18.1c0.9-1.7,0.9-4.7-0.4-5.3c-1.9-0.8-4.1-1.8-6.2-1.8c-1.1,0-2.2,0.3-3.2,0.9
			c-2,1.3-4.8,2.6-4.2,6.1c0.1,0.6-0.2,1.7-0.4,1.8c-6.8,1.6-5.8,8.7-8.9,12.9c-1.1,1.5-2.5,2.5-3.7,2.5c-0.5,0-1-0.2-1.4-0.5
			c-1.3-0.9-3.8-2.7-2-5.6c2.9-4.7,4.5-9.9,5.7-15.4c0.8-3.9,4.4-6.9,7.6-8.9c4.2-2.7,9.2-5.6,8.8-10.3c-0.6-7,4.4-11.8,4.9-18.3
			c0.3-3.8,1-8.7,4.9-12.1C51.7,20.3,54.1,19.3,56.5,19.3 M145.2,86.3c2.7,0,6-1.4,5.4-2.6c-1.7-3.4,0.4-6.6-0.6-10
			c-1.3-4.5-5.4-6.4-8.1-10.3c-0.1,4.4-2.1,7.6-5,10.4c-0.6,0.6-0.6,2.3-0.2,3.4c1.1,3.3,3.4,6,5.9,8.3
			C143.2,86.1,144.1,86.3,145.2,86.3 M276.1,204.7c0.2,0,0.5,0,0.9-0.1c2.3-0.6,6.8-0.3,6.4-3.3c-0.5-4.1,0.5-8.2-0.8-12.4
			c-2.3-7.7-3-15.8-3-23.9c0-2.7,0.4-7.2-0.9-7.7c-4.7-2.1-3.1-7.4-2.5-8.6c2.1-4.4,0.4-4.8-1.6-4.8c-0.5,0-1,0-1.4,0s-0.7,0-1-0.1
			c-0.6-0.1-1.1-0.2-1.6-0.2c-3.2,0-4.7,2.1-6.1,5.1c-1.9,4-0.6,8.1-0.9,12.2c-0.6,8.8,1.1,17.4,4.8,25c2.5,5.2,3.5,11.2,7.5,15.6
			C276.5,202.4,274.5,204.7,276.1,204.7 M151,232.7c0.1,0,0.2,0,0.3,0c2.8-0.2,2.1-3.3,3.4-4.9c-0.2-1.8-1.3-2-2.4-2
			c-0.3,0-0.6,0-0.8,0s-0.5,0-0.7,0c-0.3-0.1-0.6-0.1-0.8-0.1c-2.6,0-1.6,3.2-2.1,4.5C147.2,231.8,149.5,232.7,151,232.7
			 M244.5,259.5c1.1,0,1.1-1.9,1.9-2.6c1.2-1.1,2.2-2.5,3.2-3.7c1.6-2,0.6-9.4-1.7-9.5c-3.3-0.3-3.7-2.7-5.1-5.4
			c-3.4,7.7-4,12.1-2.2,17.6c0.5,1.4,1.9,2.9,3.3,3.5C244.1,259.5,244.3,259.5,244.5,259.5 M283.2,258.4c2,0,3.4-1,2.8-3.7
			c-0.7-3-1.7-6.7-1.6-9.1c0.3-7.2-5.4-3.9-8-5.9c0,0.8-0.9-0.1-1.3,0.9c-0.9,2.2,1.1,14.7,3.1,16.1c1.2,0.8,2.6,1.5,4,1.7
			C282.5,258.4,282.9,258.4,283.2,258.4 M159.2,255.9c3.1,0,5.8-3.9,5.7-7.7c0.4-3.6-3.6-4.3-4.3-7c-1.6,2-3,4-5.4,5.4
			c-1.7,1-0.7,4-1,6.1c-0.5,3.2,2.8,3.1,4.9,3.2C159,255.9,159.1,255.9,159.2,255.9 M212.8,316.9c0.8,0,1.5-0.1,2.2-0.3
			c2.1-0.7,0.9-2.7,0.8-4.3c-0.1-0.7,0.7-1.5,0.9-2.3c1.2-4.6,2.4-9.1,3.3-13.8c1-5.5-0.3-11.8,4.3-16.4c0.2-0.3,0.3-1.2,0.1-1.3
			c-3-2.1-1.2-5-1.6-7.6c-0.6-4.2-0.1-9.3-6-11.1c-1.7,4.7-4.3,9.1-4.5,14.5c-0.2,4.6,1.6,9.6-2.3,13.5c-0.6,0.6-0.2,1.4,0.3,1.7
			c2.5,1.3,0.9,3.4,1.3,5.2c0.5,2.8-1.7,4.5-1.9,7c-0.4,3.7-0.4,7.6-1.8,11c-1.1,2.6,0.1,3.2,1.5,3.6
			C210.3,316.7,211.6,316.9,212.8,316.9 M250.2,287.6c0.4,0,0.7-0.1,1-0.4c1.7-1.7,3.6-3.2,4-5.9c0.4-3.3,1.4-6.6,0.7-10
			c-0.2-1.6-0.1-3.4-0.7-4.8c-0.7-1.7-2.2-2.7-3.9-2.7c-0.5,0-0.9,0.1-1.4,0.2c-3,1.1-1.3,2.5,0.3,3.6c-2.6,2.7-3.4,5.9-2.9,9.6
			c0,0.3,1.2,9.8,1.5,10C249.4,287.4,249.8,287.6,250.2,287.6 M56.5,4.3L56.5,4.3c-6,0-11.9,2.2-16.6,6.3
			c-8.8,7.7-9.7,18.6-9.9,22.2c-0.1,0.6-0.8,2.1-1.2,3.2c-1.3,3.1-3.2,7.3-3.7,12.7c-0.5,0.3-0.9,0.6-1.3,0.8L23.2,50
			C15.3,55,10.5,61.3,9,68.5C8,73.2,6.9,76.4,5.3,79c-4.5,7.2-4.5,17.9,5.6,25.4l0.1,0.1c3,2.3,6.7,3.5,10.5,3.5c0.2,0,0.3,0,0.5,0
			c-2.9,3.3-5.8,7.7-6.8,13.5c-1.2,1.9-2.1,4.3-2.5,7.3c-1.7,5-1,9.4-0.5,11.9c-0.6,3.6,0,7.3,1.8,10.5c4.2,7.2,11.8,8.1,16.4,8.6
			l0.6,0.1c0.3,0,0.7,0.1,1.2,0.1c0.2,0.3,0.3,0.4,0.3,0.4c3,9.1,12.6,14.1,21.3,14.7c-0.8,2-1.2,4.3-1.1,7c0,0.4,0.1,0.8,0.1,1.3
			c-0.5,1.9-0.6,3.9-0.4,5.9c0.2,1.3,0.4,2.4,0.6,3.4c-2.7,3.6-3.7,8.4-2.8,13.2c0,0,0,0.1-0.1,0.1c-0.1,0.3-0.2,0.5-0.4,0.8l0,0
			c-1,1.7-3.2,5.2-3.4,10.1c-0.1,5.4-0.9,10.4-2.5,15.7c-1.6,5.4-3.1,11.4-4.3,17.4c-0.5,2.4-0.7,4.6-0.9,6.5
			c-0.1,1.4-0.4,3.4-0.6,4.2c-2.7,3.4-3.8,7.6-3.3,12.1c-0.5,1.6-0.9,3.5-0.8,5.6c0,0.9-0.4,2.8-0.7,4.4c-0.5,2.2-1,4.6-1.2,7.3
			c-2.9,3.3-4.6,8.3-3.2,13.6c-0.8,0.7-1.5,1.4-2.3,2.1c-2.4,2.1-4.8,4.2-7.2,6.6c-5.7,5.7-8.8,14.2-8.3,22.6
			c0.3,5.2,2.4,9.1,3.9,11.6c-0.4,2.7-0.1,5.6,0.9,8.2c1.5,3.8,4.2,6.9,7.7,8.7c1.6,2.6,4.7,7.4,10.4,10.4c3.9,6.3,9,10.8,13.2,14.6
			c1.5,1.3,2.9,2.5,4.1,3.7s2.5,2.1,4,2.9c2.8,4.4,6.4,8.3,10.5,11.6c5,3.9,10.9,8.4,18.5,10.9c3.1,1.1,5.9,2.6,8.4,4.7
			c0.9,0.7,1.7,1.4,2.6,2.2c7.4,6.3,16.4,14.1,29.3,16.6c8.8,7,19.3,7.4,24.1,7.6c16.9,0.7,33.5,0.8,49.7,0.8
			c4.4,0,8.9,0.2,13.6,0.5c5.1,0.3,10.3,0.5,15.6,0.5c10.9,0,19.8-1.1,28.1-3.6c0.9-0.3,1.9-0.6,2.9-0.9c4.5-1.4,8.8-2.7,12.3-2.7
			c0.3,0,0.7,0,1,0c0.4,0,0.7,0,1,0c1.8,0,3.5-0.3,5.2-0.9c1,0,1.9-0.1,2.9-0.3l5-1l5-1c2.2-0.5,4.3-1.4,6-2.7c3.9-0.5,7.2-2,10-4.4
			c0.7-0.6,3.6-1.3,5.6-1.8c1.9-0.4,4.1-1,6.3-1.7c10.5-3.5,21.1-8.4,33.3-15.6c9.4-5.6,17.4-12.3,23.7-20
			c4.6-5.7,11.4-10.2,18.7-15c1.8-1.2,3.7-2.4,5.5-3.7c11-7.6,13.8-16.6,14.2-22.9c0-0.2,0.1-0.7,0.2-1.1c0.4-2.6,1.5-8.6-1.1-14.7
			c2.5-2.7,4.2-6.3,5.3-10.7c1.3-5.6,0.9-10.4,0.5-14.3c-0.2-2.3-0.4-4.2-0.1-5.4c3.1-14.1-0.9-27.9-3.8-38c-0.8-2.6-2-4.7-3.1-6.2
			c-0.8-8.4-3.7-15.3-8.6-21c-1.8-2.1-3.3-5.3-4.9-8.7l-0.5-1.1c-0.9-1.8-1.5-4.5-2.1-7.4c-1-4.6-2.3-10.1-5.3-15.6
			c-0.4-4.3-1.6-7.6-3.8-11.2c-0.6-5.3-3.4-9.3-5.2-11.6c0-0.2,0-0.3,0-0.5c-0.1-1.7-0.2-4.1-0.8-6.7c-0.6-2.5-1.6-4.6-2.6-6.1
			c-0.3-4.2-1.8-7.6-2.8-9.9c0.8-4.5-0.5-9.3-3.7-12.7c-0.2-0.7-0.5-2.4-0.7-3.6c-0.4-2.5-1-5.6-2.1-8.9c-1.1-2.9-1.9-6.2-2.7-9.7
			c-1.8-7.3-3.8-15.6-8.9-23.6c-2.4-3.8-4.6-7.8-6.9-12.1c-1.3-2.4-2.7-5-4.1-7.5c-1.6-2.9-3.4-5.6-5-8.1c-1.5-2.3-2.9-4.5-4.1-6.6
			c-0.4-9.1-5.5-13.4-9.2-15.3c-0.2-0.5-0.4-1-0.6-1.4c-1.3-3.2-3.4-8.3-7.9-12.4c-0.7-1.5-1.6-2.6-2.4-3.6
			c-1.9-2.1-6.1-5.7-13.1-5.7c-0.7,0-1.3,0-1.8,0.1c-0.9-0.1-1.7-0.2-2.4-0.2c-2.4-0.9-4.9-1.3-7.4-1.3c-7.4,0-14.2,3.7-18.9,10.2
			c-2.2-1.6-4.7-2.7-7.4-3.1c-0.3-0.4-0.7-0.8-1-1.1c1-5.4-0.2-10.8-3.4-15.1c-4-5.4-10.6-8.6-18.3-8.6c-0.3,0-0.7,0-1,0h-0.3
			c-3.4,0.1-8.9,0.3-14.5,3.6c-0.4-0.1-0.8-0.2-1.2-0.2c-1.8-0.3-4-0.7-6.5-0.8c-0.2,0-0.3,0-0.5,0c-3.9,0-7.7,1.5-10.5,4.3
			c-1.3,1.3-2.4,2.8-3.2,4.5c-2.6-2.8-6.1-4.8-10.1-5.8c-3.5-4.8-9.3-7.7-15.3-7.7c-4.5,0-8.9,1.7-12.3,4.7
			c-4.1,3.6-6.6,9.1-6.8,14.5c-0.4-0.4-0.9-0.8-1.4-1.2c-1.2-0.9-2.4-1.7-3.7-2.2c-0.3-0.3-0.5-0.7-0.8-1c-3.6-4-8.9-6.3-14.4-6.3
			c-2.3,0-4.6,0.4-6.8,1.2c-8.9,3.2-13.6,11.8-11.6,20.8c0.2,0.7,0.1,2.5,0.1,3.9c0,2.1,0,4.8,0.3,7.7c-1.4,1.2-2.7,2.8-3.8,4.6
			c-0.7-0.1-1.5-0.1-2.2-0.1c-4.2,0-10.4,1.2-16.3,6.8c-1.1,1.1-2.4,2.2-3.7,3.3c-3.3,2.9-7,6.1-10.3,10.3l-0.3,0.4
			c-0.5,0.7-1.1,1.4-1.7,2.2c0.2-1.1,0.4-2.1,0.7-3c3-8.5,3.3-16.5,3.5-23.5c0.1-1.8,0.1-3.5,0.2-5.1c0.2-3.4-0.4-6.3-0.8-8.3
			c1.3-5.7,0-10.3-1.5-13.3c-1.8-3.7-4.3-6-5.8-7.4c-0.1-0.1-0.1-0.1-0.2-0.2c-2-2.9-4.5-4.7-6.2-5.9c-0.3-0.2-0.6-0.5-0.8-0.6
			C69,6.9,63,4.3,56.5,4.3L56.5,4.3z"/>
	</g>
</g>
</svg>
