<?xml version="1.0" encoding="utf-8"?>
<!-- Generator: Adobe Illustrator 24.1.0, SVG Export Plug-In . SVG Version: 6.00 Build 0)  -->
<svg version="1.1" id="Livello_1" xmlns="http://www.w3.org/2000/svg" xmlns:xlink="http://www.w3.org/1999/xlink" x="0px" y="0px"
	 viewBox="0 0 436 694.7" style="enable-background:new 0 0 436 694.7;" width="50" height="50" xml:space="preserve">
<style type="text/css">
	.st0{fill:#FEFEFE;}
</style>
<g>
	<path class="st0" d="M86.6,681.9c-9.5,0-18.2-3.1-25.9-9.2c-4.4-3.4-9-8.1-10.1-16.8c-0.1-0.5-0.1-0.9-0.1-1.4
		c-8.5-1.8-17.2-5-25.5-10.5c-9.4-6.4-11.7-13.8-12-18.9c-0.5-7.6,3.3-15.5,10.3-21.6c15.1-13.1,33.4-20.8,56-23.6
		c11.2-1.4,21.1-2.1,30.3-2.1c7.5,0,14.5,0.4,21.3,1.3c4.5,0.6,9.1,1.3,13.6,1.9c8.3,1.2,16.8,2.5,25.2,3.2
		c3.6,0.3,7.2,0.7,10.9,1.1c12.1,1.2,24.6,2.5,36.7,2.5c4.7,0,9-0.2,13.2-0.5c1.8-0.2,3.5-0.3,5.2-0.5c-4.3-0.5-8.6-1-12.9-1.5
		c-10.1-1.2-20.6-2.5-30.9-3.4c-44.1-3.8-82-19.2-112.7-45.8c-21.7-18.8-34.6-43.2-38.3-72.6c-2.7-21-0.1-42.1,7.9-64.3
		c3.4-9.5,7.7-18.3,13-26.4c-0.3,0.2-0.6,0.4-0.9,0.5c-3.3,2-6.2,3.8-8.1,6.2c0.4,0.7,0.7,1.6,0.9,2.5c0.5,2,0.9,7.1-5.2,10.4l0,0
		c-1,0.8-2.4,1.6-4.3,2.1c-0.1,0.1-0.1,0.2-0.2,0.4c-1.2,2.2-3.4,3.7-5.9,3.9c-0.2,0.6-0.5,1.2-0.9,1.7c-1.4,2-3.7,3.2-6.1,3.2
		c-0.9,0-1.9-0.2-2.8-0.6c-5.1-2.1-9.3-6.6-11.1-12c-1.5-4.5-1.2-9.3,0.8-13.1c-2.2-3.1-2.3-7.2,0-10.9l0.1-0.2
		c3.1-4.9,4.9-7.9,4.1-11.5c-1.5-6.7,3.5-10.9,5.6-12.6c0.2-0.2,0.4-0.4,0.6-0.5c4.1-3.6,6.2-8.8,8.2-14.3c0.7-1.9,1.6-3.4,2.4-4.8
		c0.7-1.2,1.4-2.5,1.4-3c-0.8-5,3.1-7.7,4.4-8.6l0.2-0.2l0.7-0.5c7.3-5.4,14.3-10.5,19.8-17c2.6-3,5.4-5.6,8.1-8.1
		c3.2-2.9,6.2-5.7,8.4-8.8c6.7-9.3,16.1-14.1,24.3-18.3c1.9-1,3.7-1.9,5.4-2.9l0.3-0.2c1.1-0.6,3.1-1.8,5.8-1.8c0.5,0,1,0,1.6,0.1
		c0.3,0.1,0.6,0.1,0.9,0.1c2,0,4-1.6,7-4.3l0.1-0.1c1.9-1.6,4.9-3.8,9.2-3.8c0,0,0.6,0,0.8,0c7.7,0,14.1-3.7,20.7-12
		c7.6-9.5,17.2-15.3,27.3-21c3-1.7,4.5-2.7,5.6-4.5c1.6-2.6,3.1-5.2,4.7-7.9c5.1-8.3,9.8-16.1,13.5-24.5c3.6-8.3,5.9-17.2,8.2-26.6
		c2.4-9.4,4.8-19,5.9-28.6c0.6-5.5,0.5-11,0.4-16.9c0-1,0-2-0.1-3.1c-2.1,0.9-4.3,1.3-6.5,1.3c-5.8,0-10.8-2.9-13.7-7.6
		c-1.5,0.6-3.2,0.9-5.1,0.9c-5.4,0-12.3-2.4-15-7.6c-2.5-4.8-2.4-9.9,0.1-14.1c1.2-2,3-3.7,5.1-4.9c-1.5-0.5-2.9-1.2-4.2-2.1
		c-0.2,0-0.7,0.2-0.7,0.2c-2.9,0.7-4.8,1-6.5,1c-7.1,0-9.9-4.7-11.2-8.6c-1.5-1-2.6-2.4-3.3-4.1c-1.1-3-0.2-6.3,2.2-8.4
		c0.1-0.1,0.1-0.1,0.2-0.2c0.3-0.3,0.6-0.6,1.1-1c-1.5-1-3.1-1.5-4.8-1.5s-3.5,0.6-5.2,1.7c-3.4,2.1-7,3.2-10.6,3.2
		c-3.9,0-7.7-1.2-11.7-3.6c-6.2-3.7-6.6-9.7-6.8-12.9c0-0.6-0.1-1.6-0.2-1.9c-1.2-3.6,0.6-6.6,1.2-7.6c0.1-0.1,7.4-11.7,13.5-12.6
		c0.7-0.1,1.4-0.2,2.1-0.2c4.1,0,7.9,1.9,10.9,5.4c0,0,0,0,0.1,0.1c1.3,0.9,4.2,3.1,4.6,7c2.3-0.6,4.6-0.9,6.8-0.9
		c8.5,0,15.9,4.4,20.4,12c2.3,3.8,3.7,5.8,6.1,6.9c2.3,1.1,3.8,1.7,5.3,1.7c0.5,0,1-0.1,1.5-0.2c1.8-0.5,3.5-0.7,5.3-0.7
		c2.3,0,4.5,0.4,6.5,1.1c0,0,0,0,0.1-0.1c1.6-2.2,3.9-3.5,6.4-3.8c0.2-0.7,0.5-1.4,0.8-2.2c5.7-13.2,17.9-21.3,31.8-21.3
		c0.7,0,1.5,0,2.2,0.1c7.5,0.5,13.9,4.9,18.1,12.4c3.8,6.8,6.5,14.4,8.6,23.9c1.6,7.1,3.5,14.4,5.3,21.4c0.8,3.2,1.7,6.5,2.5,9.7
		c0.6,2.3,1.1,4.5,1.7,6.7c4.7,18.2,9.5,37,9.9,56.9c0.1,5.7,1,11.5,1.9,17.6c1.2,7.6,2.3,15.5,2,23.8c-0.2,6.5-0.2,13.2-0.1,19.7
		c0.1,8.8,0.1,17.9-0.5,26.9c-1.6,24.8-7.7,45.7-18.7,63.8l-1.7,2.8c-11.9,19.8-24.2,40.3-42.9,56.2c-2.2,1.9-4.3,4-6.4,6.2
		c-1.5,1.5-2.9,3-4.5,4.5c4.1,5.9,9.5,10.7,15.6,15.9c10.7,9.1,22.4,18.5,35.4,25.2c1.9,1,4,1.8,6.3,2.7c1.4,0.5,2.8,1.1,4.3,1.7
		c8.2,3.5,9.4,10.2,7.9,15.2c-1.2,3.9-0.7,8.1-0.2,13c0.3,2.9,0.6,5.9,0.6,9.1c0,7.1,2.1,13.7,6.5,20.1c0.1,0.1,0.2,0.2,0.3,0.3
		c1.4,1.1,4.2,3.5,4.8,7.9c0.3,2.1,0.2,4-0.1,5.6c2.7,1.2,5.3,2.3,7.8,3.4c25.2,11,46.1,28.2,65,45.2c15.3,13.8,25.8,26.5,33,40.2
		c0.3,0.7,0.7,1.3,1,2c3.8,7.1,8.1,15.2,8.1,25.1c0,13.9-6.3,24.8-18.2,31.5c-17.5,9.8-37.1,16.8-60.1,21.4
		c-22.3,4.5-44.8,6.8-66.8,6.8l0,0c-6.6,0-13.3-0.2-19.9-0.6c-24.9-1.5-49.9-6-76.5-13.8l-6.4-1.9c-18.5-5.4-37.7-11-56.9-14.3
		c-5.7-1-10.3-1.4-14.4-1.4c-3.7,0-7.1,0.4-10.3,1.2c7.6,2.8,15.3,6.1,22.2,11.5c9.6,7.5,10.1,15.1,9.6,19
		c-0.5,3.8-2.9,10.7-13.3,15.3C102.6,679.9,94.4,681.9,86.6,681.9z M211.9,402.9c0.3,1.8,0.6,3.6,0.8,5.4c0.7,4.7,1.3,9.2,3.2,12.5
		c8.1,14.2,16.9,25.6,26.7,34.6c0-0.1-0.1-0.9-0.1-0.9c-0.4-5.3,1.6-9.4,5.9-12.4c0.2-0.2,0.8-0.5,1.1-0.8
		c-0.3-5.5,1.9-9.6,3.9-12.6c0.1-0.2,0.2-0.3,0.3-0.5C238,418.4,224.5,410.2,211.9,402.9z M72.3,348.3c1.6,2.7,2.5,5.3,2.6,7.7
		c3.4-3.7,7.1-7.2,11-10.6c3.2-2.7,5.9-6.3,8.7-10.1c2.8-3.7,5.7-7.6,9.4-11.1c0.6-0.6,1.2-1.2,1.8-1.8c1.8-1.8,3.8-3.9,6.4-5.5
		c7.4-4.7,12.8-11.7,18.5-19.2c0.1-0.1,0.2-0.2,0.2-0.3c-8,5.9-17.1,9.2-25.4,12.1l-1.9,0.7c-11.5,4.1-21.9,10-31.7,18.2
		C76,334.6,76.2,341.6,72.3,348.3C72.3,348.2,72.3,348.3,72.3,348.3z"/>
	<path d="M143.4,18.2c2.3,0,4.1,1.4,5.4,3.1c0.9,1.1,3.9,2.2,2.1,3.6c-1.2,0.9-2.8,1.8-4.6,1.8c-0.9,0-1.9-0.2-2.8-0.8
		c-0.7-0.4-0.4-2.2-1.3-2.2c-0.3,0-0.6,0.2-1.1,0.5c-1.3,1-2.4,2.2-2.6,4.1c-0.5,4.9,3.3,8.3,8.3,8.3c0.5,0,1,0,1.5-0.1
		c4.5-0.6,7.3-4.4,11.4-5.7c2.1-0.6,4.1-1,6-1c5.7,0,10.6,2.8,13.9,8.3c2.4,4.1,4.8,7.8,9.4,9.9c2.8,1.3,5.4,2.4,8.4,2.4
		c1.1,0,2.2-0.1,3.4-0.4c1.2-0.3,2.3-0.4,3.4-0.4c5.3,0,9.5,3.3,13.4,7.1c0.9,4,3.9,5.9,7.4,7.4c0.7,0.3,1.5,0.8,2.1,0.8
		c0.5,0,0.9-0.2,1.2-1c0.6-1.5-0.2-3.3-1.8-3.3c-0.1,0-0.1,0-0.2,0c-0.2,0-0.4,0-0.6,0c-3.7,0-5.3-2.8-7.3-5c-0.4-1.4,0.5-3.1-1-4.2
		c-1.5-1.1-1.6-2.4-0.6-3.8c0.4-0.6,0.9-0.8,1.5-0.8c0.5,0,1.1,0.2,1.7,0.5c1.6,0.7,3.1,1.4,2.9,3.5c-0.1,1.1-0.7,2.3-0.5,3.4
		c0.5,2.1,2.1,2.5,3.7,2.5c0.4,0,0.8,0,1.1-0.1c2.4-0.3,1.1-2.3,0.8-3.4c-0.5-1.9-1.2-4-2.4-5.4c-2.3-2.6-1.8-5-0.6-7.6
		c4.5-10.2,14-16.8,24.9-16.8c0.6,0,1.2,0,1.8,0.1c5.5,0.4,9.4,3.9,12,8.6c3.8,6.8,6.2,14.2,7.9,21.8c2.3,10.5,5.2,20.9,7.9,31.3
		c5.2,20.4,11,40.6,11.4,61.9c0.3,13.7,4.4,27.1,3.9,41c-0.5,15.5,0.4,31-0.6,46.5c-1.4,21.3-6.4,41.9-17.6,60.5
		c-12.4,20.5-24.4,41.3-43,57.2c-4.7,4-8.7,8.7-13.3,12.8c-2.2,1.9-2,3.1-0.6,5.4c4.9,7.9,11.6,14,18.6,19.9
		c11.5,9.8,23.3,19.2,36.8,26.1c3.5,1.8,7.3,3.1,11,4.6c2.7,1.1,4.7,2.9,3.7,6.1c-2.5,8.1,0.2,16.2,0.1,24.2c0,9.2,2.9,17.2,8,24.6
		c1.1,1.6,3.4,2.3,3.7,4.6c0.4,3.1,0.4,6.1-4.6,7.7c6.4,2.7,11.6,4.9,16.8,7.2c23.9,10.4,43.8,26.7,63,43.9
		c12.3,11.1,23.5,23.3,31.3,38.1c3.9,7.4,8.2,14.7,8.2,23.6c0,11.2-4.9,19.7-14.4,25c-18.1,10.1-37.6,16.5-57.9,20.6
		c-21.6,4.4-43.4,6.7-65.3,6.7c-6.5,0-13-0.2-19.5-0.6c-25.5-1.6-50.4-6.4-74.9-13.5c-21.2-6.2-42.4-12.6-64.2-16.4
		c-5.2-0.9-10.4-1.6-15.6-1.6c-5.7,0-11.3,0.8-16.9,2.9c-1.5,0.6-3.1,1.2-4.5,2.1c-3.5,2.2-3.6,4.3-0.3,7c1.6,1.3,3.4,1.9,5.3,2.6
		c8.3,2.9,16.5,6.1,23.5,11.6c9.8,7.7,9.2,16.6-2,21.5c-7.6,3.3-15.4,5.7-23,5.7c-7.2,0-14.3-2.1-21.2-7.6c-3.5-2.8-6.6-6-7.4-11.9
		c3.5,3.5,6.4,6.2,9.9,7.9c4.1,2,8.2,3,12.4,3c3.1,0,6.2-0.5,9.3-1.7c2.1-0.8,5-1.6,4.8-4.3c-0.1-2.7-2.2-4.6-4.9-5.8
		c-7.3-3.4-15.1-3.7-22.8-4.5c-13.3-1.4-26.2-4.1-37.6-11.8c-13.5-9.1-9.5-21.2-1-28.6c14.9-12.9,32.6-19.4,52-21.8
		c9.8-1.2,19.6-2,29.4-2c6.8,0,13.6,0.4,20.4,1.3c13,1.7,25.9,4,39,5.2c16.1,1.5,32.1,3.6,48.3,3.6c4.6,0,9.2-0.2,13.8-0.6
		c10.1-0.9,20.1-2.5,29.7-5.8c1.8-0.6,4.8-0.9,4.5-3.8c-0.3-3-3.2-3.3-5.4-3.5c-22.5-1.7-44.9-5.2-67.4-7.2
		c-40.5-3.5-77.4-17.1-108.4-44C63.4,513,51.7,490.3,48.2,463c-2.7-21.1,0.4-40.9,7.5-60.8c7.3-20.2,19-36.9,35.1-50.8
		c7.2-6.2,11.5-14.9,18.3-21.4c2.3-2.2,4.4-4.7,7-6.3c10.7-6.7,17.4-17.4,24.9-26.8c6.8-8.5,12.9-17.9,18.8-26.6
		c-1.3-0.2-2.6-0.3-3.8-0.3c-10,0-16.3,7.4-22.1,14.6c-8.7,10.9-21,14.7-33,19c-13.9,4.9-26,12.3-36.9,22c-2.4,2.1-1.7,3.7,0.1,5.7
		c4.1,4.5,4.5,9.2,1.1,14.2c-1.7,2.6-0.8,4.7,0.5,6.9c2.4,4.1,2.5,6.5-2.2,10.3c-5.6,4.7-12.9,7.1-17.3,13.2c-0.6,0.8-1.1,1-1.6,1
		c-0.7,0-1.4-0.5-2.2-0.8s-2.1-1.2-3-1.2c-0.5,0-0.9,0.3-1,1.1c-0.2,2-3.2,5.5,1.4,6.9c1,0.3,1.9,0.9,3.1,0.9c0.1,0,0.1,0,0.2,0
		c0.6,0,1.4-0.9,2.1-0.9c0.4,0,0.7,0.3,0.9,1.3c0.4,1.7-1.4,2-2.4,2.8c-0.8,0.7-1.7,0.9-2.7,0.9c-0.4,0-0.8,0-1.1-0.1
		c-0.5-0.1-1-0.1-1.5-0.1c-2.3,0-3.1,1.1-1.3,4.2c-0.1,0-0.2,0-0.3,0c-3.9,0-3.7-4.8-7-5c-1.4,3.2-2.1,6.4,0.9,9.8
		c-6.1-2.5-9.1-10.2-6.2-15c1.5-2.5,2.5-4.7-0.3-7c-1-0.8-1.1-1.7-0.2-3c3.3-5.2,6.7-10.4,5.2-17.3c-0.6-2.7,2.1-4.4,3.9-6
		c5.3-4.7,7.9-10.9,10.2-17.3c1.4-3.8,4.9-6.9,4.1-11.5c-0.1-0.4,1.1-1.1,1.7-1.6c7.7-5.7,15.5-11.3,21.8-18.7
		c5.3-6.1,12.2-10.9,16.9-17.4c7-9.7,17.5-13.7,27.2-19c0.8-0.4,1.7-1.1,2.5-1.1c0.1,0,0.1,0,0.2,0c0.8,0.1,1.5,0.2,2.2,0.2
		c4.9,0,8.4-3.1,12-6.1c1.3-1.1,2.6-1.9,4.3-1.9h0.1c0.2,0,0.5,0,0.7,0c11.5,0,19.8-6.4,26.6-14.9c6.8-8.6,15.9-13.9,25.1-19.1
		c3.4-1.9,6.3-3.7,8.4-7.2c6.5-10.9,13.6-21.6,18.6-33.2c3.9-8.9,6.3-18.4,8.7-27.9c2.5-9.8,4.9-19.5,6.1-29.5
		c1-8.3,0.3-16.6,0.3-24.9c0-1.6-5.1-4-7.6-4c-0.4,0-0.8,0.1-1,0.2c-1.8,1.1-3.6,1.6-5.4,1.6c-4.3,0-8.1-3.1-8.9-8.2
		c-0.9-5.3-3.5-8.1-7.6-8.1c-1.4,0-3,0.3-4.8,1c-1,0.4-2.5,0.6-2.2,2.1c0.2,0.9,1,1.8,1.7,2.3c0.4,0.3,0.7,0.4,0.9,0.4
		c0.8,0,0.9-1.2,1.4-1.8c0.5-0.6,1.1-1.7,2.1-1.7c0.2,0,0.4,0,0.7,0.1c1.1,0.5,1.9,1.4,2,2.7c0.1,1.3,0.4,2.7-1,3.6
		c-0.7,0.5-1.8,0.7-3.1,0.7c-3.2,0-7.3-1.5-8.4-3.5c-2.9-5.6,0.7-10.3,7.7-10.3c0.4,0,0.8,0,1.1,0c0.7,0.1,1.5,0.1,2.2,0.1
		c3.6,0,6.6-0.8,9.3-4.2c1.7-2.1,1.4-3.1-0.2-4.4c-2.8-2.2-5.9-3.7-9.4-3.7c-0.5,0-1.1,0-1.7,0.1c-1.3,0.2-2.6,0.3-3.9,0.3
		c-2.6,0-5.1-0.5-7.5-2.4c-0.8-0.6-1.7-0.8-2.6-0.8c-1.1,0-2.1,0.3-3.2,0.5c-2,0.5-3.6,0.8-4.8,0.8c-3,0-3.9-1.7-4.7-6.5
		c-0.1-0.7-0.5-0.9-0.9-0.9c-0.3,0-0.6,0.1-0.9,0.1c-0.4,0-0.7-0.1-0.9-0.6c0.9-0.7,1.6-1.9,2.8-1.9c0.4,0,0.7,0.1,1.2,0.4
		c1.2,0.8,1.9,1.9,1.1,3.8c-0.9,2.1,1.1,2.4,2.6,2.6c0.1,0,0.3,0,0.4,0c1.7,0,2.3-1.2,2.1-2.9c-1.5-9.8-9.2-17.9-18.4-17.9
		c-3,0-6.1,0.9-9.3,2.9c-2.2,1.4-4.4,2.1-6.6,2.1c-2.7,0-5.3-0.9-7.9-2.5c-4.2-2.5-2.6-7.2-3.8-10.8c-0.4-1.1,7.3-10.2,8.7-10.4
		C142.8,18.2,143.1,18.2,143.4,18.2 M44.5,366.3c1.6,0,3.2-2.4,4.5-3.8c1.1-1.2-0.9-2.4-0.3-3.7c0.1,0,0.2,0,0.3,0
		c1.6,0,1.3,2.6,3,2.6c0.1,0,0.2,0,0.3,0c0.9-1.2,2-2.3,2.5-3.6c0.4-1-0.1-2.8-0.9-2.8c-0.1,0-0.2,0-0.3,0.1
		c-2.2,1.2-5.6-0.7-6.9,2.6c-0.7,1.2-1.4,2.3-1.9,3.5c-0.7,1.6-3.2,3.9-0.9,5C44,366.2,44.2,366.3,44.5,366.3 M264.8,478.8
		c1,0,1.7-0.8,2.1-2.6c0.6-2.7,1.1-5.6,4.4-7.5c0.1,12,0.1,12.1,7.6,14.4c1.3,0.4,2.7,0.4,4.1,0.6c0.1-1.8,1.2-3.8,0-5.3
		c-3.7-4.5-4.6-10.6-8.5-15c-1.8-2-2.7-5.7-5.6-5.7c-0.1,0-0.1,0-0.2,0c-3.2,0.2-3,4.2-4.1,6.6s-3.5,5.3-5.4,5.3
		c-0.3,0-0.6-0.1-0.9-0.2c-2.8-1.7-8.5-1.5-7.9-6.9c0.3-2.9,0.1-5.6-0.1-8.4c-0.2-2.5,0.4-4.2,2.7-5.7c2.2-1.5,4.7-3.4,4.4-6.8
		c-0.3-3.3,0.8-5.9,2.6-8.8c3.1-4.7,2.4-8.2-1.3-10.5c-16.9-10.5-33.8-20.8-51.1-30.6c-0.8-0.5-1.4-0.7-1.9-0.7
		c-1,0-1.5,0.9-1.8,2.2c-0.9,3.3,0,6.5,0.7,9.8c1.5,7.3,1.5,15.1,5.2,21.5c9.5,16.6,21.1,31.7,36.5,43.4c5.2,3.9,10.6,7.4,16.5,10.1
		C263.4,478.5,264.1,478.8,264.8,478.8 M143.4,3.2c-1.1,0-2.1,0.1-3.2,0.2c-5.7,0.9-9.4,4.6-12.8,8.4c-1.2,1.3-4.1,4.7-6,7.8
		c-3.2,5.3-3,10-2.1,13.2c0,0.2,0,0.5,0.1,0.7c0.3,3.6,0.9,13.1,10.5,18.8c5.1,3.1,10.4,4.6,15.6,4.6c3.2,0,6.3-0.6,9.4-1.7
		c0.2,1,0.4,2,0.8,3c0.9,2.3,2.2,4.4,3.9,6c0.5,1.2,1.2,2.5,2,3.7c3.1,4.5,7.7,7.2,13.1,7.8c-1.3,5.1-0.7,10.8,2,15.9
		c4.2,8.1,13.9,11.7,21.7,11.7c0.8,0,1.5,0,2.3-0.1c4.1,4.1,9.7,6.6,15.7,6.8c0,3.6,0,7-0.4,10.3c-1.1,9.1-3.4,18.5-5.7,27.6v0.1
		c-2.3,9.1-4.5,17.7-7.8,25.4c-3.5,7.9-8.1,15.6-13,23.6c-1.6,2.6-3.2,5.3-4.8,7.9c-0.2,0.3-1.2,0.9-2.8,1.7
		c-10.7,6-21.1,12.3-29.5,22.8c-6.5,8.1-11.1,9.2-14.8,9.2c-0.1,0-0.2,0-0.4,0s-0.3,0-0.5,0c-7.6,0-12.5,4.2-14.1,5.6l-0.1,0.1
		c-0.9,0.7-2,1.8-2.8,2.3c-0.6-0.1-1.2-0.1-1.8-0.1c-4.7,0-8.1,2-9.6,2.9l-0.2,0.1c-1.6,0.9-3.4,1.8-5.2,2.7
		c-9,4.6-19.1,9.8-26.9,20.6c-1.8,2.5-4.5,5-7.4,7.7c-2.7,2.5-5.9,5.4-8.7,8.7c-5,5.9-11.6,10.7-18.6,15.8l-0.7,0.5l-0.1,0.1
		c-6.4,4.4-7.8,9.8-7.8,13.6c-0.1,0.2-0.2,0.3-0.3,0.4c-0.8,1.5-2,3.5-2.9,5.9c-2,5.4-3.6,9-6.2,11.3c-0.2,0.1-0.3,0.3-0.5,0.4
		c-1.2,1.1-3.1,2.7-4.8,5c-3.2,4.4-4.3,9.8-3.2,14.9c0,0.1,0,0.1,0,0.1c0,0.9-2,3.9-3.1,5.7l-0.1,0.2c-3.1,4.9-3.7,10.4-1.9,15.3
		c-1.5,4.8-1.4,10,0.3,15.1c2.5,7.6,8.1,13.6,15.4,16.6c1.8,0.7,3.8,1.1,5.6,1.1c2.3,0,4.5-0.5,6.5-1.5c-5.1,18.6-6.4,36.6-4.1,54.6
		c4,31.2,17.7,57.2,40.9,77.3c13.4,11.6,28.2,21.2,44.2,28.7c-2.9-0.1-5.8-0.2-8.8-0.2c-9.5,0-19.7,0.7-31.2,2.1
		c-23.8,3-44,11.5-59.9,25.4c-8.8,7.6-13.5,17.7-12.9,27.7c0.4,6.8,3.4,16.6,15.3,24.7c7.5,5.1,15.3,8.3,23,10.5
		c2.3,9.2,8,14.6,12.2,18c9.1,7.2,19.3,10.8,30.5,10.8c8.8,0,18-2.2,29-6.9c13.9-6,17.1-15.9,17.8-21.2c0.6-4.8,0.2-13.7-8.6-22.4
		c16.2,3.3,32.1,7.9,48.8,12.8c2.1,0.6,4.3,1.3,6.4,1.9c27.1,7.9,52.7,12.5,78.1,14c6.8,0.4,13.6,0.6,20.4,0.6
		c22.5,0,45.5-2.3,68.3-7c23.7-4.8,44.1-12.1,62.3-22.2c14.2-8,22.1-21.5,22.1-38.1c0-11.8-5-21.2-8.9-28.7c-0.3-0.6-0.7-1.3-1-1.9
		c-7.6-14.5-18.6-28-34.6-42.3c-19.3-17.4-40.9-35.1-67-46.5c-1-0.5-2.1-0.9-3.1-1.4c0-0.5-0.1-1.1-0.2-1.7
		c-0.8-6.7-4.9-10.6-6.9-12.3c-3.2-4.9-4.7-9.7-4.6-15c0-3.6-0.4-7-0.7-9.9c-0.4-4.1-0.8-7.6-0.1-10c2.5-8.4-0.2-19.1-12.1-24.2
		c-1.6-0.7-3-1.3-4.5-1.8c-2.1-0.8-4-1.6-5.6-2.4c-11.6-6-22-14-34-24.2c-3.9-3.3-7.4-6.4-10.4-9.7c2-2,3.9-3.9,5.7-5.5
		c19.7-16.7,32.3-37.7,44.5-58.1l1.7-2.8c11.6-19.2,18-41.2,19.7-67.2c0.6-9.3,0.5-18.5,0.5-27.5c0-6.7-0.1-13.1,0.1-19.4
		c0.3-9-0.9-17.2-2.1-25.2c-0.9-5.8-1.7-11.4-1.8-16.6c-0.4-20.8-5.3-40-10.1-58.6c-0.6-2.2-1.1-4.5-1.7-6.7
		c-0.8-3.3-1.7-6.6-2.5-9.8c-1.9-7.3-3.7-14.1-5.2-21.1c-2.3-10.2-5.3-18.4-9.4-25.9c-5.5-9.8-14.1-15.6-24.2-16.2
		c-0.9-0.1-1.8-0.1-2.7-0.1c-8.4,0-16.4,2.5-23.3,7.2c-6.4,4.4-11.5,10.4-14.9,17.6c-1.1,0.5-2.1,1.1-3.1,1.8
		c-1.4-0.2-2.8-0.3-4.2-0.3c-2.2,0-4.5,0.3-6.8,0.8c-0.3-0.1-1-0.4-2.1-0.9c-0.7-0.3-2.3-3.1-2.8-4c-5.9-10-15.7-15.7-26.8-15.7
		c-0.7,0-1.4,0-2.2,0.1c-1.1-1.5-2.5-3-4.2-4.3C155.1,5.8,149.4,3.2,143.4,3.2L143.4,3.2L143.4,3.2L143.4,3.2z M193.4,89L193.4,89
		L193.4,89L193.4,89z M81.3,330.6c4.8-3.6,9.9-6.6,15.1-9.2c-3,3.2-5.4,6.5-7.7,9.5c-2.1,2.7-4,5.4-6,7.4
		C82.6,335.7,82.1,333.1,81.3,330.6L81.3,330.6z M239,440.9c-5.7-6.5-11-14.1-16-22.7c6.6,3.9,13.5,8.1,20.8,12.7
		c-0.8,1.9-1.4,4.2-1.6,6.6C241.1,438.5,240,439.6,239,440.9L239,440.9z"/>
</g>
</svg>
