<?xml version="1.0" encoding="utf-8"?>
<!-- Generator: Adobe Illustrator 24.1.0, SVG Export Plug-In . SVG Version: 6.00 Build 0)  -->
<svg version="1.1" id="Livello_1" xmlns="http://www.w3.org/2000/svg" xmlns:xlink="http://www.w3.org/1999/xlink" x="0px" y="0px"
	 viewBox="0 0 340.2 446" style="enable-background:new 0 0 340.2 446;" width="50" height="50" xml:space="preserve">
<style type="text/css">
	.st0{fill:#FEFEFE;}
</style>
<g id="bhIVRF_1_">
	<g>
		<path class="st0" d="M281.6,434.3c-1.8,0-3.6-0.1-5.5-0.2c-3.3-0.2-6.3-2.2-8.3-5.4c-1.9-3-3.3-8.2-1.2-12.9
			c0.6-1.5,0.9-2.7-1.4-5.6c-1.3-1.7-3.1-4.2-3.6-7.8c-4.3-4.1-4.3-9.5-4.4-12.6V389c-0.2-9.3-2.2-18.3-4.9-28.7
			c-5.4-1.4-8.5-4.5-10.4-8.1c0,0.8,0,1.6,0,2.4c0,7.8,0,15.3,2.2,21.9c1.8,5.3,1.5,10.2,1.3,14.5c-0.1,2-0.2,3.9-0.1,5.7
			c0.1,1.8,0.2,3.5,0.3,5.2c0.1,1.9,0.1,3.6,0.3,5.3c0.5,5.1-2,9.4-6.7,11.4c-3.7,1.6-8.4,3.6-13.7,3.6c-2.2,0-4.3-0.3-6.3-1
			c-0.1,0-0.6,0.3-0.6,0.3c-7.1,3.5-14.3,5.3-21.4,5.3c-7.8,0-15.6-2.1-23.2-6.3c-6.6-3.6-6.6-8.7-6-11.5c0.9-4,3.8-6,5-6.8
			c0.1-0.1,0.2-0.2,0.3-0.2c5.7-4.8,12.1-7.4,18.2-10c1.5-0.6,2.9-1.2,4.3-1.8c1.2-1.9,2.6-3.5,3.8-4.8c2-2.2,2.6-3,2.6-4
			c0.1-1.7,0.2-3.5,0.3-5.2c0.4-5.2,0.7-10.2-0.4-14.8c-1.6-0.5-3-1.1-4.1-1.7c-10.8-5.1-13.3-10-11-21.8c0.4-2.1,0.1-4.5-1-8
			c0,0-4.1-13.2-5.1-16.1c-1.1-3.6-1.2-6.8-0.1-9.4c-2.1-2.4-3.6-5.9-3.1-11.1c0.2-1.9-0.9-3.9-2.8-6.9c-5.2-8-9.5-17.1-12.6-27
			c-6.3-0.8-8.5-7-9.3-10c-2.9-1.2-5.4-4.1-5.6-8.8c-0.5-11.4,1.1-22.2,2.6-30.3c1.9-10,4.5-19.8,7.1-28.9c0.4-1.2,0.2-3.4,0.1-4.1
			c-0.3-3.7,0.6-6.8,2.7-9.2c0.5-0.6,1.2-1.3,2.1-1.9c-1-3.8-2-8.6-0.1-13.9c0.6-1.7,0.4-3.6-0.5-5.6c-1.2-2.7-1.7-5.4-2.1-7.7
			c-0.2-1-0.4-2-0.6-2.8c-0.4,0-0.7,0-1.1,0c-11.5,0-21.3-7.6-25.1-19.3c-0.5-0.3-1.2-0.7-1.8-1c-0.9-0.5-2-1-3.1-1.7
			c-0.2-0.1-0.5-0.2-0.8-0.2c-0.2,0-0.3-0.1-0.5-0.1c-1.6,1.3-3.7,2.1-5.9,2.1c-2.6,0-5.1-1-7.3-2.9c-2.9-2.5-6.2-4.7-9.8-7.1
			c-5.7-3.8-11.7-7.8-16.5-13.5c-4.6-5.4-10.7-9-16.6-12.5c-0.6-0.4-1.3-0.8-1.9-1.2c-2.8-1.7-5.2-3.2-7.4-3.2c-2,0-4.5-0.7-6.4-2.4
			c-2.3,0.7-4.6,1.1-6.8,1.1c-4.7,0-11.6-1.6-17.5-9.3c-4.8-6.2-6.2-14.5-4-21.5c-2.2-1.7-3.6-4.3-3.9-7.2c-0.3-3.5,1.4-6.7,4.4-8.4
			c1.7-1,3.3-1.1,4.3-1.2c1.2-0.4,2.4-0.6,3.6-0.7c1.2-2.2,3.8-4.6,9.1-5.2c1.5-0.1,3.2-0.5,5-0.9c1.2-0.3,2.4-0.5,3.7-0.8
			c0.8-0.2,1.7-0.2,2.5-0.2c3.3,0,6.4,1.2,8.9,3.5c2.2,2,4.2,3.7,6.3,5.4c4.1,0.2,7.2,2.6,9.2,7.3c1.1,2.4,2.8,4.7,4.6,7.2
			c1.4,1.8,2.8,3.7,4.1,5.8c1.3,2.2,3.1,3.1,6.4,4.8c1.2,0.6,2.5,1.3,3.8,2.1c1.1-0.3,2.2-0.4,3.3-0.4c4,0,7.1,1.7,9.4,3
			c0.7,0.4,1.3,0.7,1.8,0.9c6.1,2.7,11.2,4.6,16.4,5.1c4,0.4,7,2,8.8,4.8c0.6,0.9,1.1,2,1.4,3.4c3.3,0.2,5.4,1.9,6.5,2.7l0.3,0.2
			l1,0.3c0.8,0.6,1.9,1.5,2.5,1.7l0,0c1.1-0.4,2.2-0.6,3.4-0.6c1.9,0,3.4,0.6,4.3,0.9c0.1,0,0.2,0.1,0.4,0.1c3.8,1,7.5,1.6,11,1.6
			c2.9,0,5.8-0.3,8.6-1c0.4-0.1,0.9-0.2,1.4-0.3c-0.3-0.5-0.5-1-0.8-1.5c-1.1-1.9-2.2-3.8-3.5-5.8c-1.1-1.8-2.2-3.7-3.3-5.6
			c-5-8.7-4.1-16.8,2.7-24.8l0.2-0.2c2.2-2.5,4-4.7,4.5-6.9c1.3-5.9,6-7.7,7.8-8.3c0.1-0.1,0.3-0.1,0.4-0.2c4.8-3,10.1-4.5,15.8-4.5
			c4.2,0,8.6,0.8,13.5,2.4c10.8,3.6,17.4,14.5,16.1,26.5c-0.7,6.1-0.3,12.2,0.1,18.7c0.2,3.3,0.4,6.7,0.5,10.2
			c4.1,2,8.7,2.9,14.6,2.9c1.1,0,2.3,0,3.5-0.1c0.5,0,0.9,0,1.4,0c9.4,0,13.1,5.9,15,10.4c3.3,7.8,7.1,16.6,7.1,26.5
			c0,1.8,0.4,3.2,1.4,5c0.8,1.3,1.5,2.7,2.3,4c2.9,5.2,5.6,10.1,9.3,14.1c2.3,2.5,2.9,5.3,3.3,7.1c0,0.2,0.1,0.4,0.1,0.5
			c8,2,14.3,7.5,16.8,15.1c2.7,8,0.8,16.8-5.2,23.5c-4.6,5.2-9.1,10.3-12.8,15.8c-3.8,5.6-9.8,6.2-12.6,6.3
			c-1.5,1.6-3.2,2.9-4.6,4.1c-2.2,1.8-4.1,3.4-5,5.1c-1,2.1-2.4,3.4-3.7,4.2c1.3,4.1,2.6,8.9,1.7,13.8c-0.1,0.7,0,2,0.1,3.3
			c0.3,3.2,0.8,8.2-2.2,12.9c1.8,5.9,2.6,11.9,3.4,17.6c0.1,1,0.3,2.1,0.4,3.1c0.3,1.8,0.5,2.4,0.6,2.6c1,1,3,3.3,3.6,6.4
			c4.6,2.3,6.7,6.5,8.4,12.2c0.8,2.8,1.6,5.7,2.4,8.5c3.1,10.9,5.9,21.3,10.6,31c2.3,4.9,1.7,10.7-1.4,14.8
			c-0.7,0.9-0.8,1.8,0.1,5.4c1.6,6.8,3.8,13.7,5.9,20.4c1.3,4.2,2.7,8.5,3.9,12.8c0.9,3.1,2.1,6.1,3.3,9.3c0.6,1.6,1.3,3.2,1.9,4.9
			c0.7,1.9,2.3,3.5,4.3,5.6l0.5,0.5c3.4,3.4,4.9,7.9,4.2,12.2c-0.7,4-3.2,7.4-7,9.3C300.6,432.5,291.8,434.3,281.6,434.3
			L281.6,434.3z M244.3,173.7c0.2,0.3,0.7,1,1,1.5c0.9,1.3,2.1,2.9,3,4.9c0.1,0.3,0.4,0.9,1.7,0.9c0.5,0,1.1-0.1,1.7-0.4
			c0.2-1.9,0.8-4.9,3.5-7.4c0.2-0.5,0.3-1.8,0.4-2.8c0.1-0.7,0.1-1.6,0.3-2.4c-3.3-4.7-6.7-9.4-10-13.9c-0.7-1-1.5-2-2.2-3
			c-0.4,0.6-0.8,1.2-1.1,1.7c-1.7,2.6-2.3,3.6-2.2,5.2c0.2,2.9,1.1,5.8,2.1,8.9C243.1,169.1,243.8,171.3,244.3,173.7z"/>
		<path d="M55.1,26.2c1.5,0,2.8,0.5,4,1.6c2.3,2,4.6,4,6.9,5.9c0.7,0.6,1.3,1.6,2.2,1.6c0.1,0,0.3,0,0.4-0.1
			c0.4-0.1,0.8-0.2,1.2-0.2c1.7,0,2.3,1.5,2.9,2.8c2.3,5.2,6.4,9.3,9.2,13.8c3.7,6,9.5,7,14.2,10.4c0.5,0.4,1.4,0.9,1.9,0.9
			c0.1,0,0.2,0,0.2-0.1c1.3-0.8,2.5-1.1,3.6-1.1c2.9,0,5.5,2.1,8.2,3.2c6,2.7,12.1,5,18.7,5.7c2,0.2,4.5,0.9,3.4,4.3
			c-0.6,1.8,2.5,4.8,4.5,4.8c0.3,0,0.6-0.1,0.8-0.2c0.7-0.5,1.3-0.6,1.8-0.6c1.1,0,1.8,0.8,2.6,1.4c2.4,1.9,4.7,3.9,7.7,3.9
			c0.9,0,1.8-0.2,2.8-0.6c0.2-0.1,0.5-0.1,0.7-0.1c0.9,0,1.8,0.5,2.7,0.7c4.3,1.2,8.7,1.8,13.1,1.8c3.4,0,6.9-0.4,10.4-1.3
			c0.8-0.2,1.5-0.4,2.2-0.4c1.2,0,2.3,0.5,3,2.3c0.3,0.9,0.9,2.3,2.2,2.3c0.3,0,0.6-0.1,1-0.2c1.9-0.8,2-2.3,1.7-3.9
			c-0.8-4.6-2.5-8.8-4.8-12.9c-2.2-3.9-4.6-7.6-6.9-11.5c-3.5-6.1-2.8-10.7,1.9-16.2c2.6-3.1,5.4-6.2,6.3-10.4
			c0.6-2.7,3.1-2.6,4.8-3.7c3.9-2.5,7.9-3.4,12-3.4c3.7,0,7.5,0.8,11.2,2c7.6,2.5,11.9,10.1,11,18.6c-1.2,10.5,0.5,21,0.6,31.5
			c0,2.1,1.2,3.5,3.5,4.6c6,3.1,12.2,4,18.5,4c1.3,0,2.6,0,3.9-0.1c0.3,0,0.7,0,1,0c4.2,0,6.3,1.6,8.1,5.9
			c3.2,7.5,6.5,15.2,6.5,23.5c0,3.4,0.8,6,2.4,8.8c3.8,6.7,7.2,13.6,12.4,19.4c1.9,2.1,1.1,5.4,3.2,7.7c0.9,1,1.6,1.7,3,2
			c12.8,2.4,17.7,16.6,8.9,26.5c-4.7,5.3-9.4,10.7-13.4,16.6c-1.8,2.6-4.5,3-7.3,3.1c-1.2,0.1-2.4-0.2-3.2,0.9
			c-3.7,4.6-9.5,7-12.2,12.5c-0.4,0.7-0.9,1.5-1.7,1.5l0,0h-0.1c-4.9,0-4.1,2.5-3,6c1.3,4.1,3,8.7,2.3,12.7
			c-0.9,5,2.3,10.8-2.4,15.2c-0.7,0.7-0.4,1.6-0.1,2.6c2.4,7,3.2,14.3,4.3,21.6c0.4,2.6,1,5.1,2.7,6.8c2.5,2.4,1.9,4.3-0.4,6.7
			c7.1,0.2,8.6,2,10.5,8.8c4,13.7,7.3,27.7,13.4,40.6c1.3,2.6,0.6,5.4-0.6,7c-3,3.9-2.2,8-1.3,11.7c2.7,11.3,6.7,22.3,9.9,33.5
			c1.5,5.1,3.6,9.8,5.3,14.7c1.3,3.7,3.9,6.2,6.5,8.7c3.1,3.1,3,7.6-0.9,9.5c-7.4,3.7-15.3,5-23.4,5c-1.7,0-3.4-0.1-5.1-0.2
			c-2.3-0.1-4.4-5-3.1-7.8c2.3-5.1,0.8-9.3-2.4-13.3c-1.1-1.4-2-2.8-2-4.6c0-1.1-0.1-2.4-1-2.9c-3.5-2.2-3.2-5.7-3.3-9.1
			c-0.2-11.4-3-22.3-5.8-33.3c-0.3-1.1-0.8-2-2.1-2.1c-8.9-0.7-9.8-7.4-10.4-14c-1.1-12-7.4-21.2-15.1-30c-0.3,0.5-0.7,0.8-0.7,1
			c1.7,9.9,1.8,20.2,6.1,29.5c0.8,1.7,0.8,3.1-0.5,4.2c-1.9,1.7-2,3.8-1.9,6.1c0.1,9.6-0.5,19.5,2.6,28.6c2.1,6.3,0.4,12.3,0.8,18.4
			c0.3,3.5,0.2,7.1,0.6,10.6c0.2,1.9-0.5,3.1-2.1,3.8c-3.5,1.5-7,3-10.8,3c-1.7,0-3.4-0.3-5.2-1c-0.4-0.2-0.8-0.2-1.2-0.2
			c-1.4,0-2.7,0.8-3.9,1.4c-6.1,3-12.1,4.5-18,4.5c-6.6,0-13.1-1.8-19.6-5.4c-1.3-0.7-2.7-1.5-2.3-3.3c0.3-1.5,1.7-2,2.8-2.9
			c6.9-5.7,15.4-8.1,23.3-11.9c2-5.2,8.1-7.7,8.4-14.2c0.3-8.1,1.7-16.2-0.8-24.2c-0.5-1.6-0.7-2.8-2.8-2.9
			c-1.6-0.1-3.3-0.9-4.8-1.6c-7.7-3.6-8.4-5.1-6.7-13.5c0.8-4,0-7.9-1.2-11.7c-1.7-5.4-3.4-10.7-5.1-16.1c-0.7-2.3-1.3-4.3,1.5-6.1
			c1.8-1.2,1.2-3.5-0.8-4.4c-3.2-1.5-3.9-3.7-3.5-7c0.4-4.4-1.7-8.1-4-11.7c-5.7-8.7-9.8-18.2-12.6-28.3c-0.4-1.3-0.3-2.8-0.5-4.3
			c-2,1.4-3.4,2.2-4.5,2.2c-1.6,0-2.6-1.7-3.5-5.2c-0.5-1.8-0.3-4.2-3.1-4.2c-0.2,0-0.4,0-0.6,0h-0.1c-0.9,0-1.3-1.1-1.4-2.4
			c-0.5-9.6,0.8-19.1,2.5-28.6c1.8-9.6,4.3-18.9,7-28.2c0.6-2.1,0.6-4.5,0.4-6.7c-0.2-3.1,1-4.8,4.1-5c2.5-0.2,2.2-0.8,1.6-3.2
			c-1-4.4-3.1-8.8-1.4-13.7c1.3-3.7,0.9-7.4-0.7-11.1c-1.9-4.4-1.5-9.6-4.1-13.8c-0.5-0.9-1-1.6-2.1-1.6c-0.2,0-0.4,0-0.6,0.1
			c-1.3,0.3-2.6,0.4-3.9,0.4c-8.8,0-15.5-6.1-18.2-14.7c-1-3.4-5.1-4.3-8-6.2c-1.5-1-3.6-1-5.2-1.9c-0.8-0.5-1.5-0.8-2.1-0.8
			c-0.7,0-1.3,0.5-1.9,1.9c-0.4,1-1.1,1.4-1.9,1.4s-1.6-0.4-2.4-1c-8.2-7.1-18.5-11.6-25.5-19.8C87.6,81.6,81,77.6,74.3,73.7
			c-4-2.3-8-5.3-13-5.4c-0.6,0-1.5-0.3-1.7-0.7c-0.9-1.8-1.9-2.3-3.1-2.3c-1.1,0-2.4,0.5-3.7,0.9C51.1,66.7,49.5,67,48,67
			c-4.5,0-8.3-2.2-11.5-6.4c-3.9-5.1-4.6-12.6-1.4-17.8c1.6-2.5,3-4.4-1.1-4.4c-0.2,0-0.5,0-0.7,0h-0.1c-1.4,0-2.9-1-3-2.5
			c-0.1-2,1.9-1.3,3-1.7c1.7-0.6,3.4-0.7,5.2-0.7c1.1,0,2.1,0,3.3,0c0.5,0,0.9,0,1.4,0c-2.6-3.1-2.2-4.6,1.8-5
			c3.1-0.3,6.2-1.2,9.3-1.8C54.4,26.2,54.8,26.2,55.1,26.2 M250,188.5c2.5,0,5.1-0.8,7.3-2.5c2.8-2.1,0.9-5.4,3-7.3
			c3-2.7,2.5-6.5,3.1-10.3c0.3-1.4-0.3-3.2-1.2-4.5c-4.5-6.5-9.2-12.7-13.8-19.1c-0.3-0.4-7.5-2.3-8.6-2.3c-0.1,0-0.1,0-0.1,0
			c-0.2,0.1-0.4,0.4-0.4,0.6c-1.4,5.4-6.9,8.5-6.3,15.6c0.5,6,2.9,11.1,4.1,16.7c0.6,2.8,3.2,4.8,4.4,7.6
			C242.9,186.7,246.3,188.5,250,188.5 M230.1,307c2.2-3,3.6-4.9,5.1-6.9c-1.4-1.1-3.7-0.8-3.9-3c-0.3-4.3-3.1-7.4-5.2-10.8
			c-0.4-0.6-0.5-1.8-1.3-1.8c-0.1,0-0.3,0-0.4,0.1c-0.8,0.4-2,1.8-1.8,2.4c0.9,3.3-0.7,7.2,2.9,10C228.3,299,231.1,301.6,230.1,307
			 M55.1,11.2c-1.3,0-2.6,0.1-3.8,0.4c-1.4,0.3-2.8,0.6-4,0.8c-1.5,0.3-3,0.7-4,0.8C37,13.8,33.1,16.3,30.6,19c-0.2,0-0.5,0-0.7,0.1
			c-1.5,0.2-4,0.6-6.5,2.1c-5.5,3.1-8.7,9-8.2,15.5c0.2,3.3,1.4,6.3,3.2,8.8c-1.2,8.2,0.9,17,6.2,23.9C30.7,77.3,39,81.6,48,81.6
			c1.8,0,3.6-0.2,5.5-0.5c2.3,1.2,4.8,1.8,7.5,1.9c0.8,0.2,2.6,1.4,3.8,2.1c0.7,0.4,1.3,0.8,2,1.2c5.7,3.4,11,6.5,14.7,10.9
			c5.5,6.5,12.2,11,18.1,14.9c3.3,2.2,6.5,4.3,9,6.5c3.5,3,7.8,4.7,12.2,4.7c2.1,0,4.2-0.4,6.1-1.2c4.8,11.5,14.5,19.2,26,21
			c0.4,2,1,4.1,2,6.4c0.1,0.2,0.1,0.3,0.2,0.4c-1.7,5.1-1.6,9.7-1,13.6c-2.2,2.8-4.6,7.4-4.1,14.1c0.1,1,0.1,1.5,0.1,1.7
			c-2.6,9.2-5.3,19.1-7.2,29.3c-1.6,8.5-3.3,19.9-2.8,32c0.3,6.3,3.1,10.8,6.9,13.5c0.5,1.4,1.2,2.9,2.2,4.4c1.9,3,4.5,5.2,7.4,6.6
			c3.2,9.1,7.3,17.5,12.2,25.1c1,1.5,1.4,2.3,1.6,2.7c-0.4,5.3,0.7,9.4,2.5,12.6c0,0.3-0.1,0.5-0.1,0.8c-0.5,4.3,0.6,7.7,1.2,9.5
			c0.9,2.9,1.9,5.9,2.8,8.8c0.8,2.4,1.5,4.8,2.3,7.3c0.8,2.6,0.9,3.7,0.8,4.2c-0.9,4.5-2.2,11.3,1.1,18.1c3.4,7,10,10.1,14,11.9h0.1
			c0.1,0.1,0.3,0.1,0.5,0.2c0.1,2.7-0.1,5.7-0.3,8.9c-0.1,1.2-0.2,2.5-0.2,3.8c-0.2,0.3-0.5,0.6-0.8,0.9c-0.9,1-2.1,2.3-3.2,3.8
			c-0.7,0.3-1.5,0.6-2.2,0.9c-6.2,2.6-13.3,5.6-19.8,10.9l0,0c-1.6,1.1-6.6,4.5-8.1,11.4c-0.7,3-1.9,13.2,9.7,19.6
			c8.7,4.8,17.7,7.3,26.8,7.3c7.7,0,15.3-1.8,22.8-5.2c1.8,0.4,3.7,0.5,5.5,0.5c6.8,0,12.5-2.4,16.6-4.1c7.7-3.3,12-10.5,11.2-19
			c-0.1-0.8-0.1-1.7-0.2-2.6c0.4,0.7,0.9,1.4,1.5,2.1c1.1,4.2,3.3,7.2,4.4,8.6c-2.2,6.8-0.3,13.7,2.4,18.1c3.3,5.4,8.5,8.6,14.3,9
			c2,0.1,4,0.2,5.9,0.2c11.4,0,21.3-2.1,30.1-6.6c6-3,10-8.4,11.1-14.7c1.1-6.6-1.2-13.6-6.2-18.7l-0.5-0.5c-0.9-1-2.4-2.4-2.6-2.9
			c-0.6-1.7-1.3-3.4-1.9-5c-1.2-3-2.3-5.8-3.1-8.6c-1.3-4.4-2.6-8.8-4-13c-2.2-6.8-4.2-13.3-5.8-19.8c0-0.2-0.1-0.5-0.2-0.9
			c3.8-6.2,4.2-14.1,1-20.8c-4.4-9.1-7.2-19.2-10.1-29.8c-0.8-2.8-1.6-5.7-2.4-8.6c-1.6-5.6-4.1-11.3-9.3-15.1
			c-0.7-1.7-1.7-3.4-3.1-5.1c-0.1-1-0.3-2-0.4-3c-0.7-4.9-1.4-10.3-2.9-15.8c2.4-5.7,1.9-11.2,1.6-14.4c-0.1-0.6-0.1-1.3-0.1-1.7
			c0.7-4.5,0.1-8.8-0.8-12.5c0.7-0.9,1.4-2,1.9-3.1c0.4-0.6,2-1.9,3.1-2.7c1-0.8,2.1-1.7,3.2-2.7c6.7-1,11.9-4.1,15.4-9.3
			c3.5-5.1,7.6-9.8,12.2-15c7.8-8.7,10.3-20.3,6.7-30.9c-2.9-8.6-9.4-15.2-17.8-18.6c-0.7-2-1.9-4.5-4-6.8c-3.1-3.4-5.6-8-8.3-12.8
			c-0.8-1.4-1.5-2.7-2.3-4.1c-0.4-0.7-0.4-0.9-0.4-1.3c0-11.5-4.1-21.1-7.7-29.5c-5.3-12.3-14.8-14.9-21.9-14.9c-0.6,0-1.1,0-1.7,0
			c-1.1,0.1-2.2,0.1-3.1,0.1c-2.8,0-5.2-0.2-7.3-0.7c-0.1-1.8-0.2-3.6-0.3-5.3c-0.4-6.2-0.8-12-0.2-17.4c1.7-15.6-7-29.8-21.2-34.5
			c-5.7-1.9-10.9-2.8-15.8-2.8c-6.9,0-13.3,1.8-19.1,5.2c-8.6,3.7-11.6,9.5-12.6,14c-0.3,0.8-1.9,2.5-2.9,3.7l-0.2,0.2
			c-11.2,13-8.1,25.3-3.5,33.3c0.6,1,1.2,2,1.7,3c-2.1-0.2-4.2-0.5-6.3-1.1l0,0c-1.2-0.4-3.7-1.3-6.9-1.3c-0.6,0-1.2,0-1.8,0.1
			c-0.1-0.1-0.2-0.1-0.3-0.2l-0.1-0.1c-0.9-0.8-2.8-2.3-5.6-3.3c-0.2-0.4-0.4-0.8-0.7-1.1c-2.1-3.2-6.3-7.3-14.3-8.1
			c-4.3-0.5-8.6-2.1-14.2-4.5c-0.2-0.1-0.8-0.4-1.2-0.6c-2.7-1.5-7.1-3.9-13-3.9c-0.6,0-1.3,0-1.9,0.1c-0.6-0.3-1.2-0.6-1.8-0.9
			c-1.9-1-3.1-1.6-3.4-2c-1.5-2.4-3.1-4.6-4.5-6.4c-1.6-2.1-3.1-4.1-3.8-5.7c-3.4-7.7-8.7-10.5-12.9-11.4c-1.4-1.2-2.9-2.5-4.5-3.9
			C65.1,13,60.3,11.2,55.1,11.2L55.1,11.2L55.1,11.2L55.1,11.2z"/>
	</g>
</g>
</svg>
