<?xml version="1.0" encoding="utf-8"?>
<!-- Generator: Adobe Illustrator 24.1.0, SVG Export Plug-In . SVG Version: 6.00 Build 0)  -->
<svg version="1.1" id="Livello_1" xmlns="http://www.w3.org/2000/svg" xmlns:xlink="http://www.w3.org/1999/xlink" x="0px" y="0px"
	 viewBox="0 0 474 515.6" style="enable-background:new 0 0 474 515.6;" width="50" height="50" xml:space="preserve">
<style type="text/css">
	.st0{fill:#FEFEFE;}
</style>
<g id="QOrSGx_1_">
	<g>
		<path class="st0" d="M363.5,507c-2.1,0-4-0.2-5.9-0.4c-1.6-0.2-3.2-0.3-4.5-0.3c-44.3,0-88.5,0-132.8,0l-39.6,0c0,0-29.2,0-35.4,0
			l-10.7,0c-3.1,0-6.1,0-9.2,0c-3,0-6.1,0-9.1,0c-5.8,0-10.4,0.1-14.6,0.3c-3.7,0.2-7.7,0.3-12.2,0.3c-4,0-8-0.1-11.8-0.1
			c-3.8-0.1-7.8-0.1-11.6-0.1c-4,0-7.4,0.1-10.6,0.2c-3,0.1-6.3,0.2-9.8,0.2c-4.8,0-9.7-0.1-14.5-0.2c-3.7-0.1-7.6-0.2-11.3-0.2
			c-1.6,0-5.2,0-7.8-3.1c-1.6-1.9-2.3-4.3-2-6.9c0.2-1.5,0.1-3.4-0.1-5.3c-0.3-3.9-0.6-8.7,1.4-13.7c2.4-5.8,6.1-7.1,8.9-7.1
			c4.5,0,7.2,3.5,8.1,4.7c0.2,0.3,0.4,0.6,0.6,0.9c1-0.1,2.1-0.3,2.4-0.6c2.3-2.8,5-4.2,8.1-4.2c1.9,0,3.4,0.5,4.8,1l0.1,0
			c0.1,0,0.2,0.1,0.4,0.1c0.6,0,1.4-0.2,2.4-0.5c-2-14.6-8.1-26.6-18.6-36.6c-4.7-4.4-5.1-9.5-5-13.4c0.3-8.5,0.3-17.3,0.4-25.7
			c0-5,0-9.9,0.1-14.9c0-0.2-0.1-0.5-0.1-0.8c-0.2-2.2-0.7-6.3,2.3-9.6c1-1.1,2.5-2.3,4.8-2.9c0.6-1.4,1.1-2.7,1.7-3.9
			c1.4-3.1,2.6-5.5,2.4-7.9c-0.2-3.3-0.2-6.5-0.3-9.7c0-1.1,0-2.2,0-3.3l0-0.3c-0.1-1.2-0.2-3.4,1.1-5.8c1.7-3.2,2.9-6.8,4.1-10.6
			c0.7-2.1,1.4-4.3,2.2-6.5c0-0.1,0.1-0.2,0.1-0.3c2.2-6.4,6.5-7.7,9.6-7.7c0.4,0,0.8,0,1.2,0.1c2.8,0.3,6.5,1.8,8.3,7.4
			c0,0.1,0.1,0.2,0.1,0.3c1.3,2.8,2.3,5.6,3.2,8.3c1.1,3.4,2.2,6.6,3.9,9.1c1.1,1.6,3.2,5.7-0.2,10.7c-0.4,6.7,1.6,13.3,4,20.1
			c1.7,0.5,3.2,1.3,4.4,2.6c3.1,3.2,2.9,7.3,2.9,9.3c0,0.2,0,0.4,0,0.5c0,4.7-0.1,9.4-0.2,14c-0.2,7.2-0.3,14.2-0.1,21.1
			c1,0,2-0.1,3.1-0.1c1.8-0.1,3.7-0.2,5.6-0.2c1,0,1.9,0,2.8,0.1c7,0.4,13.9,0.4,21.5,0.4h3c4.4,0,8.7,0,13,0.1
			c0-5.7,0.1-11.4,0.1-17c0.2-12.2,0.4-24.8-0.5-37c-0.8-11.2-0.8-22.4-0.8-33.2c0-6.5,0-13.2-0.2-19.8c0-0.8-0.2-1.1-0.8-1.6
			c-1.8-1.5-3.5-3-5.1-4.5c-4.6-4.2-9-8.1-14.2-9.9c-4.1-1.3-7.4-4.4-9-8.4c-0.9-2.1-0.8-4.4,0.3-6.4c0.1-0.1,0.1-0.2,0.2-0.4
			c-5-7.1-4.6-15.4-4.3-20.8c0.2-5,0.3-9.9,0.3-15.1c0-3.7,0-7.6,0.1-11.4c0-0.2,0-0.4,0-0.5c0,0-0.1-0.1-0.2-0.2
			c-4.3-3.5-8.1-7.9-11.6-13.5c-2.7-4.3-2-7.6-1-9.7c1-2,3.3-4.5,8.3-4.8c1.2-0.1,2.4-0.1,3.3-0.1c0.3,0,0.6,0,0.8,0
			c0.3-0.7,0.6-1.5,1-2.4c2.3-5.2,3.4-10.9,4.6-16.8c0.9-4.4,1.8-8.9,3.2-13.5c2.1-6.6,1.4-13.8,0.5-21.8c-0.5-4.4,0.6-7.6,1.4-10
			c0.3-0.8,0.5-1.6,0.6-2.1c1-5.3,2.4-10.4,3.8-15.3c0.6-2,1.1-3.9,1.7-5.9l0.1-0.3c1.7-6.6,6.2-7.9,8.7-8.1c0.2,0,0.5,0,0.7,0
			c1.6,0,7.2,0.6,9.2,7.8c0.9,3.1,1.7,6.3,2.4,9.4c1.6,6.3,3.1,12.2,5.2,18c1.3,3.5,0.3,6.7-0.2,8.7c-0.1,0.4-0.3,1-0.3,1.2
			c-0.9,9.4,1.1,18.7,3.3,28.6c0.5,2.3,1,4.6,1.5,6.9c0.2,0.9,0.3,1.8,0.5,2.7c0.6,3.5,1,5.7,2.4,7.2c1.2,1.3,2.4,3.4,2.6,5.9
			c2.6-0.1,5.4-0.1,8.6-0.1c1.4,0,2.9,0,4.3,0c-0.6-2.2-1.3-4.4-1.9-6.6c-1.7-5.9-3.5-11.9-5.3-17.9l-0.2-0.7
			c-0.5-1.5-1.1-3.6-1.1-6.2c0-4.7,0-9.4,0.1-14.1c0.1-15.9,0.2-32.2,0-48.3c-0.1-7.9,0.6-15.1,2.2-22.2c2.2-9.9,3.1-17.9,2.8-25.4
			c-0.2-4.6,1.2-8,4-10.1c0,0,0-0.1,0-0.1c1-5.4,2.1-10.8,3.2-16.2c0.7-3.5,1.4-6.9,2.1-10.4c1.7-8.6,7.4-9.9,10.7-9.9l0.2,0
			c2.7,0,9,1.1,10.1,9.7c0,0.2,0,0.3,0.1,0.5c1.4,7.3,2.9,14.6,4.3,21.9l0.9,4.4c5.2,4.7,4.7,11.1,4.4,14.5c0,0.6-0.1,1.2-0.1,1.8
			c-0.1,6,1.1,12,2.4,18.3c0.3,1.3,0.5,2.5,0.8,3.8c0.5-0.5,1-1.1,0.2-4.4c0-0.2-0.1-0.4-0.1-0.5c-1.6-6.4,0.7-10,3.4-12
			c0-5.1,1.4-9.6,2.6-13.6c0.8-2.6,1.5-5,1.8-7.2l0-0.3c1-8.8,7.4-9.5,9.3-9.5c0.2,0,0.4,0,0.6,0c4.2,0.3,7.2,3,8.8,8
			c0,0.2,0.1,0.3,0.1,0.4c0.7,2,0.9,4,1.1,5.6c0.1,0.9,0.3,2.4,0.5,2.8c2.6,1.9,3.5,4.8,2.9,8.6l0,0.2c0,0.6-0.1,1.2-0.1,1.9
			c-0.1,1-0.2,2.5-0.1,3.1c0,0,0.1,0.1,0.2,0.1c1.9,1.2,6.1,4.7,3.5,12.1c0,0.1-0.1,0.2-0.1,0.3c-0.9,3.6-0.4,4,0.3,4.6
			c3.1,2.4,4.4,5.8,3.7,10.1l0,0.3c-0.1,1.2-0.4,2.3-0.6,3.2c-0.1,0.4-0.2,0.8-0.2,1.1c1.1,9.2,0.5,18.2-0.1,26.9
			c-0.5,7.7-1,15-0.4,22.2l0,0.2c0.1,0.9,0.2,1.8,0.3,2c8,15.3,16.7,27.6,26.5,37.8c2.7,2.8,6.5,4.4,10.8,6.1c1.5,0.6,3,1.2,4.5,1.9
			c7.7,3.5,15.6,6.9,23.2,10.2c4.3,1.9,8.8,3.8,13.2,5.7c0.3-1.1,0.7-2.1,1-3.1c0.6-1.8,1.2-3.6,1.1-4.6c-0.8-5.5,0.3-10.4,1.3-14.6
			c0.6-2.7,1.2-5.3,1.2-7.6c-0.2-7.7,5.5-10,7.2-10.6c0.7-0.2,1.5-0.3,2.2-0.3c2.8,0,5.4,1.5,6.7,4.1c1.6,3.1,1.9,6.2,2.2,8.6
			l0.1,0.7c0.3,2.5,0.5,4.9,0.7,7.3c0.5,5.8,1,11.3,2.3,16.5c1.4,5.7,1.9,10.7,1.5,15.7c0.7,0.2,1.3,0.5,2,0.7
			c0.3-1.8,0.5-3.6,0.7-5.4c0.7-6.3,1.5-12.9,4-19.6c0.9-2.5,3.2-4.3,5.8-4.8c0.4-0.1,0.8-0.1,1.2-0.1c2.2,0,4.3,1,5.8,2.7
			c0.7,0.9,1.3,1.8,1.8,2.6c0.2-1.7,0.8-3.7,2.4-5.5c1-1,2.2-1.8,3.5-2.3c0.2-1.1,0.4-2.3,0.6-3.5c0.8-4.9,1.7-9.9,3.1-14.9
			c2.9-10.3,2.8-20.8,2.3-29.7c-0.5-9.1,1.9-17.2,4.1-25c1.4-4.6,2.7-9,3.2-13.4c0.7-5,4.4-8.5,8.9-8.6c0.1,0,0.2,0,0.2,0
			c2.2,0,7.6,0.8,9.5,8.4c0.7,2.7,1.3,5.4,1.9,8.1c1.1,5.2,2.2,10.1,3.9,14.7c2.5,6.8,2,13.1,1.5,18.6c-0.1,1.5-0.2,3-0.3,4.4
			c-0.3,8.2,1.5,16.1,3.3,24.6l0.4,1.6c0.9,4.2,1.7,8.4,2.2,12.5l0.1,0.6c0.1,0.6,0.2,1.4,0.3,1.9c3.3,2,4.9,5.3,4.8,10
			c0,0.1,0,0.3,0,0.4c0,3,0,6,0,9c0,8.1,0,16.4-0.3,24.7c-0.1,1.6,0.3,2.8,2.5,5.3c3,3.4,6.4,8.2,6,16c-0.3,6.9-0.3,14-0.3,20.9
			c0,4.5,0,9.1-0.1,13.7c4.6,2.8,9.8,6,13.8,11.3c3.9,5.2,6.5,8.6,6.8,13.3c0.3,5.5-3.1,9.8-6.4,14c-3.7,4.7-5.1,10.4-6.6,16.9
			c-0.4,1.5-0.7,3.1-1.2,4.7c-0.1,0.7-0.2,1.9-0.8,3.2c-0.7,1.6-0.8,2.4,0.6,4.1c3.8,4.9,3.4,10.5,3.1,13.6
			c-0.6,6.7-0.7,13.5-0.7,19.2c-0.1,15.6-0.1,31.4-0.1,46.8v9.3c0,1.2,0,2.4,0,3.6c0,3.2-0.1,6.3,0.2,9.1c0.2,1.4,1.5,3.1,4.4,5.3
			c1.3,1,3.2,1.9,5.2,2.8c1.4-1.5,3.6-3,6.8-3c1.3,0,2.6,0.3,3.8,0.8c5.2,2.3,8.5,8.1,7.7,13.8c-0.5,4.2-0.7,7.9-0.7,11.5
			c0.1,3.6-1.4,5.9-2.7,7.2c-1.3,1.3-3.5,2.8-7.1,2.8l0,0c-0.3,0-0.6,0-1,0c-3.3-0.3-7-0.4-11.2-0.4c-3.7,0-7.6,0.1-11.3,0.2
			c-3.8,0.1-7.7,0.2-11.6,0.2h-0.4c-3.6,0-7.2-0.1-10.7-0.2c-3.5-0.1-7.2-0.2-10.7-0.2c-2.4,0-4.6,0.1-6.6,0.2
			c-1.3,0.1-2.7,0.1-4.3,0.1c-2.1,0-4.2-0.1-6.2-0.1c-2-0.1-3.9-0.1-5.7-0.1c-2.8,0-5,0.1-7.1,0.4C365.9,506.9,364.7,507,363.5,507z
			 M179.8,398.3c0.8,0,1.6,0,2.3,0c3.7,0,4.5-0.6,5.4-2c1.2-1.9,2.7-3.2,3.9-4.2c0.4-0.4,0.8-0.7,1.1-1c1-1,2.1-2.1,2.9-3
			c-0.7-0.9-1.7-2.1-2.6-3.2c-0.7-0.8-1.3-1.7-1.8-2.4c-0.1-0.1-0.2-0.3-0.3-0.4c-3.7,0.1-7.3,1.5-11,4.2c0,0.4,0,1.1,0,1.7
			c0,0.8,0.1,1.7,0,2.7c0,0.7,0,1.4,0,2.1l0,1.1c0,0.4,0,0.8-0.1,1.2V398.3z"/>
		<path d="M176.3,20.4c0,0,0.1,0,0.1,0c2.9,0.1,2.6,2.3,2.9,4.1c1.8,9,3.6,18.1,5.4,27.1c0.2,0.8,0.1,2,0.6,2.3
			c5.1,2.7,3.5,7.5,3.5,11.6c-0.2,10.7,3.2,20.7,4.6,31.1c0.8,6.1,0.8,12.3,0.1,18.3c-1.3,9.7,6.2,13.5,11.2,19.3
			c-0.1-6.2,2.3-12.6-1.8-18.3c-0.9-1.2-0.5-2.5-0.2-3.8c1.3-5.1,2-10.1,0.6-15.3c-0.3-1.1-0.3-2.2,0.7-3.1c4.1-3.2,4.1-7.5,3-12.1
			c-0.5-2.2-1.5-4.3,1.8-5.5c1.4-0.5,1.8-2.7,1.8-4.3c-0.3-7.3,3.4-13.8,4.3-20.9c0.2-1.3,0.2-3.3,1.9-3.3c0,0,0.1,0,0.1,0
			c1.5,0.1,1.8,2,2.3,3.4c1.4,4,0.2,8.8,4.2,11.9c0.3,0.3-0.1,1.5-0.1,2.3c-0.2,4.4-1.4,9,3.5,12c1.5,0.9,0.5,2.7,0.1,4.1
			c-1.2,4.7-1.4,9.2,3,12.5c1.3,1,0.9,2.3,0.7,3.6c-0.2,1.9-1.1,3.9-0.9,5.7c2,16.4-1.9,32.7-0.5,49.1c0.2,1.8,0.3,3.4,1.2,5.1
			c7.6,14.3,16.4,27.7,27.7,39.5c5,5.2,11.6,6.9,17.7,9.7c14.1,6.4,28.4,12.4,42.5,18.7c1.2,0.5,2.1,0.8,2.7,0.8c1,0,1.3-1,1-3.5
			c-0.6-5.4,3.6-10.2,2.8-15.7c-1.1-7.3,2.7-14,2.5-21.2c0-1.1,0-2.7,2-3.3c1.1,2.2,1.2,4.5,1.5,6.8c0.9,8.3,1.1,16.7,3.1,24.8
			c1.2,4.9,1.8,9.4,1.2,14.3c-0.3,3.2,1,5.4,4.4,6.4c3.5,1.1,6.8,2.9,10.5,4.5c3.4-10.6,2.3-22.2,6.4-33.1c2,2.4,2,5.2,2.5,7.7
			c1.9,9.6,2.2,19.4,4.9,28.8c-3.5,3.9,0.2,8-0.1,11.9c-0.1,0.7-0.1,1.7,0.8,2.1c0.2,0.1,0.4,0.1,0.6,0.1c0.8,0,1.1-1,1.6-1.5
			c3.9-4.2,5.3-9.2,5.2-15c-0.3-10.8-0.3-21.7-0.2-32.5c0-1.8-0.9-4.8,1.9-4.8c0.5,0,1.1,0.1,1.8,0.3c0.1,0,0.2,0,0.3,0
			c1,0,1-1.7,1.2-2.7c1.3-7,2.2-14.1,4.1-20.9c3-10.6,3.2-21.4,2.6-32.1c-0.7-13,5.6-24.5,7.3-36.9c0.1-1,0.7-2.1,1.7-2.1
			c0,0,0,0,0,0c1.5,0,2,1.5,2.3,2.7c2,7.8,3.2,15.9,6,23.4c2.5,6.9,1,13.6,0.8,20.2c-0.3,9.7,1.8,18.9,3.9,28.1
			c0.9,4,1.6,7.9,2.1,11.9c0.4,3,0.6,6.1,3.8,7.9c1.5,0.8,1.2,2.5,1.2,3.9c-0.1,11.1,0.1,22.3-0.3,33.4c-0.2,4.5,1.7,7.6,4.4,10.6
			c2.7,3.1,4.3,6.1,4.1,10.7c-0.6,12.2-0.1,24.4-0.4,36.7c-0.1,2.8,1.6,3.5,3.3,4.6c4.4,2.7,8.8,5.3,12,9.6
			c6.7,8.8,7.2,9.5,0.5,18.1c-5.9,7.5-7,16.3-9.3,24.9c-0.1,0.5,0,1-0.2,1.4c-2,4.3-1.5,8.1,1.5,11.9c1.9,2.3,1.8,5.3,1.5,8.3
			c-0.6,6.6-0.7,13.2-0.7,19.8c-0.1,18.7-0.1,37.4-0.1,56.1c0,4.5-0.3,9.1,0.2,13.6c0.5,4.5,3.9,7.8,7.2,10.4
			c3,2.3,6.8,3.7,10.2,5.4c0.5,0.2,0.9,0.4,1.4,0.4c0.7,0,1.4-0.4,2-1.2c0.8-1.2,1.6-3.1,3-3.1c0.2,0,0.5,0.1,0.8,0.2
			c2.3,1,3.6,3.7,3.3,6c-0.5,4.2-0.8,8.3-0.7,12.5c0,1.5-0.7,2.4-2.3,2.4c-0.1,0-0.3,0-0.4,0c-3.9-0.3-7.8-0.4-11.8-0.4
			c-7.7,0-15.3,0.4-22.9,0.4c-0.1,0-0.3,0-0.4,0c-7.1,0-14.3-0.4-21.4-0.4c-2.3,0-4.7,0-7,0.2c-1.3,0.1-2.6,0.1-3.9,0.1
			c-4,0-7.9-0.2-11.9-0.2c-2.7,0-5.4,0.1-8.1,0.5c-0.8,0.1-1.6,0.1-2.4,0.1c-3.4,0-7-0.7-10.5-0.7c-57.5,0-114.9,0-172.4,0
			c-11.8,0-23.5,0-35.3,0c-3.4,0-6.9,0-10.3,0c-0.2,0-0.4,0-0.6,0c-6.1,0-12.2-0.1-18.3-0.1c-5,0-10,0.1-15,0.3
			c-4,0.2-7.9,0.3-11.9,0.3c-7.8,0-15.6-0.2-23.5-0.2c-3.6,0-7.3,0.1-10.9,0.2c-3.2,0.1-6.3,0.2-9.5,0.2c-8.5,0-17.2-0.4-25.7-0.4
			c-1.3,0-2.6,0-2.5-1.4c0.8-5.7-1.4-11.5,0.9-17.2c0.6-1.6,1.2-2.4,1.9-2.4c0.6,0,1.3,0.6,2.2,1.7c1.1,1.5,1.5,4.2,3.6,4.2
			c0.2,0,0.3,0,0.5,0c3.7-0.6,8-0.4,10.7-3.7c0.9-1.1,1.5-1.4,2.3-1.4c0.6,0,1.4,0.3,2.4,0.6c1,0.3,2,0.5,2.9,0.5
			c3.3,0,6.5-1.6,9.5-2.8c1.8-0.7,0.6-3.3,0.4-4.9c-2-16.6-8.9-30.8-21-42.4c-2.3-2.2-2.8-4.5-2.7-7.7c0.4-13.6,0.3-27.2,0.5-40.8
			c0-2.5-1.5-6.3,2.5-6.3c0.5,0,1,0,1.6,0.1c0,0,0,0,0,0c0.4,0,1.1-0.8,1.2-1.3c1.6-6.2,6.1-11.4,5.7-18.2
			c-0.3-4.2-0.2-8.4-0.3-12.6c0-0.8-0.1-1.7,0.2-2.4c3.1-5.7,4.5-12,6.8-18c0.5-1.3,0.9-3.2,2.7-3.2c0.1,0,0.2,0,0.3,0
			c1.7,0.2,1.8,2.1,2.4,3.3c2.9,6,3.8,12.9,7.7,18.5c1.2,1.7-1.2,2.7-1.3,4.3c-1.1,10.1,2.3,19.3,5.7,28.5c0.2,0.6,0.5,1.2,1,1.2
			c0.1,0,0.2,0,0.3,0c0.7-0.2,1.2-0.2,1.7-0.2c3.1,0,2.5,3.4,2.5,5.3c0,13.3-1,26.7,0,40c0.1,1.8,0.5,2.3,2.5,2.5
			c0.9,0.1,1.9,0.1,2.8,0.1c3.6,0,7.1-0.3,10.6-0.3c0.8,0,1.6,0,2.4,0.1c7.3,0.4,14.6,0.4,21.9,0.4c1,0,2,0,3,0
			c5.1,0,10.2,0,15.2,0.1c0.1,0,0.3,0,0.4,0c3.8,0,4.9-1.5,4.8-5.3c-0.1-18.9,0.9-37.9-0.4-56.8c-1.2-17.6-0.5-35.1-1-52.7
			c-0.1-3.1-1.3-5.4-3.5-7.1c-6.9-5.7-12.9-12.8-21.8-15.7c-1.9-0.6-3.6-2.1-4.4-4.1c0.4-0.7,0.9-0.9,1.5-0.9c0.3,0,0.7,0.1,1,0.1
			c0,0,0.1,0,0.1,0c3.4-0.1,3.3-2,1.2-3.4c-7.4-5.1-7.5-12.3-7.1-20.1c0.4-8.9,0.1-17.8,0.4-26.7c0.1-2.9-0.7-4.8-3-6.7
			c-4-3.3-7.3-7.3-10.1-11.7c-1.4-2.2-0.8-2.9,1.5-3c1-0.1,1.9-0.1,2.9-0.1c7.2-0.1,5.9-0.6,8.7-6.9c4.5-10.1,4.9-20.9,8.1-31.1
			c2.6-8.3,1.8-16.8,0.8-24.9c-0.5-4.1,1.4-6.7,2-10c1.3-7,3.5-13.7,5.3-20.6c0.3-1.2,0.5-2.7,2.1-2.9c0.1,0,0.1,0,0.2,0
			c1.2,0,1.7,1.2,2,2.3c2.6,9.3,4.5,18.8,7.8,27.9c0.7,1.9-0.7,4.3-0.9,6.6c-1.2,13,2.4,25.3,4.9,37.7c0.9,4.7,1.2,9.6,4.6,13.4
			c0.5,0.5,0.9,1.6,0.7,2.2c-1.4,5.4,1.1,6.2,4.8,6.2c0.6,0,1.2,0,1.9,0c3.2-0.1,6.3-0.2,9.5-0.2c3.6,0,7.3,0.1,10.9,0.1
			c0,0,0.1,0,0.1,0c2.3,0,3.1-0.8,2.4-3.2c-3.1-10.3-6-20.7-9.1-31.1c-0.5-1.5-1-3-1-4.7c0.1-20.9,0.3-41.7,0-62.6
			c-0.1-7,0.5-13.7,2-20.4c2-9,3.4-18.1,3-27.4c-0.1-1.8-0.1-3.5,2.1-4.3c1.8-0.7,1.5-2.6,1.9-4.2c1.7-8.9,3.5-17.7,5.2-26.6
			C173.3,22.2,173.7,20.4,176.3,20.4 M150.2,422.9c0.1,0,0.2,0,0.4,0c1.8-0.1,3.6-0.1,5.5-0.1c2.5,0,5.1,0,7.6,0.1c0,0,0.1,0,0.1,0
			c2.5,0,2.8-1,1.3-2.8c-2.6-3.3-5.2-6.6-7.8-9.9c-1.7-2.1-2.2-3.8,1.4-4.1c2.9-0.2,2.7-2.4,2.6-4.3c-0.2-7.3-0.6-14.5-0.6-21.8
			c-0.1-10.8,0-21.7,0-32.5c0-1.4,0.5-3.1-1.2-3.9c-0.4-0.2-0.9-0.3-1.4-0.3c-4.1,0-11.4,5.6-11.4,9.2c0,10.8,0,21.7,0,32.5
			c0,11.3,0.1,22.6-0.1,33.9C146.7,422,147.6,422.9,150.2,422.9 M174.1,405.8c0.1,0,0.2,0,0.2,0c0.8-0.1,1.7-0.1,2.5-0.1
			c1.7,0,3.5,0.1,5.3,0.1c4.4,0,8.6-0.7,11.7-5.4c1-1.6,2.7-2.7,4.1-4.1c7.7-7.8,7.7-7.9,0.7-16.2c-1.7-2.1-2.9-5.3-5.8-5.5
			c-0.5,0-0.9,0-1.4,0c-5.9,0-11.2,2.1-16.2,5.8c-3.9,2.9-2.7,6.5-2.8,10.1c0,1.1,0,2.3,0,3.4c0,0-0.1,0-0.1,0c0,2.9,0,5.8,0,8.7
			C172.3,404.1,172.5,405.8,174.1,405.8 M176.3,5.4C176.3,5.4,176.3,5.4,176.3,5.4C176.3,5.4,176.3,5.4,176.3,5.4
			c-3.5,0-15.2,1.1-18.1,15.9c-0.7,3.5-1.4,6.9-2,10.4c-0.9,4.6-1.8,9.3-2.8,14c-1.6,1.8-2.9,3.9-3.7,6.2c-1.2,3.4-1,6.4-1,8
			c0.3,6.8-0.5,14.2-2.6,23.4c-1.7,7.6-2.5,15.5-2.4,23.9c0.1,9.7,0.1,19.6,0.1,29.3c-1.8-5.2-3.2-10.6-4.6-16.4
			c-0.8-3.1-1.6-6.3-2.5-9.6c-2.7-9.8-10.3-13.3-16.4-13.3c-0.4,0-0.9,0-1.3,0c-2.9,0.2-12.4,1.9-15.4,13.8l0,0.2
			c-0.5,1.9-1,3.8-1.6,5.8c-1.4,5.1-2.9,10.3-4,15.9c-0.1,0.2-0.2,0.7-0.4,1.1c-0.9,2.7-2.5,7.3-1.8,13.4c0.9,7.4,1.4,13.4-0.2,18.6
			c-1.5,4.9-2.5,9.7-3.4,14.2c-1,4.8-1.9,9.4-3.4,13.4c-8.7,0.7-12.5,5.9-14.1,8.9c-1.6,3.1-3.5,9.5,1.3,17.1
			c3.3,5.1,6.8,9.4,10.6,13c0,2.9,0,5.8-0.1,8.6c0,5.1,0,9.9-0.3,14.7c-0.3,5.1-0.7,13.8,3.6,22.1c-0.6,2.9-0.3,6,0.8,8.8
			c2.5,6,7.4,10.6,13.6,12.6c3.8,1.2,7.4,4.5,11.5,8.3c1.1,1,2.3,2.1,3.5,3.1c0.1,5.7,0.1,11.5,0.1,17.2c0,11,0,22.3,0.8,33.7
			c0.8,11.8,0.7,23.7,0.5,36.3c0,3.1-0.1,6.3-0.1,9.5c-1.8,0-3.7,0-5.5,0l-1.5,0l-1.5,0c-7.5,0-14.3,0-21.1-0.4
			c-1-0.1-2-0.1-3.2-0.1c-0.5,0-0.9,0-1.4,0c0-4.3,0.1-8.6,0.2-13.1c0.1-4.6,0.2-9.4,0.2-14.1c0-0.1,0-0.2,0-0.3
			c0.1-2.5,0.3-9.3-5-14.8c-1.1-1.2-2.4-2.2-3.8-3c-1.4-4.4-2.5-8.5-2.5-12.4c3.3-6.5,1.8-12.9-1.1-17.1c-1.1-1.6-2-4.2-3-7.2
			c-0.9-2.7-1.9-5.6-3.3-8.7c-3.4-10-11.3-12-14.5-12.3c-0.7-0.1-1.3-0.1-2-0.1c-2.9,0-12.6,0.9-16.7,12.8l-0.1,0.2
			c-0.9,2.4-1.6,4.6-2.3,6.8c-1.1,3.5-2.2,6.8-3.6,9.4c-2.2,4.2-2.1,8.2-2,9.7l0,0.1c0,1.1,0,2.1,0,3.2c0,3.2,0.1,6.6,0.3,10
			c-0.1,0.7-1.1,2.9-1.7,4.3c-0.2,0.4-0.4,0.8-0.6,1.2c-1.8,0.9-3.3,2.2-4.7,3.7c-5.2,5.9-4.5,12.9-4.2,15.5c0,0.1,0,0.2,0,0.3
			c-0.1,4.9-0.1,9.8-0.1,14.6c0,8.4-0.1,17.1-0.3,25.5c-0.2,5,0.4,12.5,7.3,19c7,6.6,11.7,14.3,14.4,23.1c-2.3,0.2-4.9,0.9-7.6,2.7
			c-3.6-2.8-7.3-3.5-10-3.5c0,0,0,0,0,0c-3.3,0-11.5,1.1-15.8,11.8c-2.7,6.6-2.3,12.6-2,17c0.1,1.5,0.2,3.1,0.1,3.8
			c-0.6,4.6,0.7,9.3,3.7,12.8c4.9,5.6,11.3,5.7,13.4,5.7c3.7,0,7.5,0.1,11.2,0.2c4.8,0.1,9.7,0.2,14.7,0.2c3.7,0,7-0.1,10.2-0.2
			c3.1-0.1,6.4-0.2,10.3-0.2c3.8,0,7.7,0.1,11.5,0.1c3.9,0.1,7.9,0.1,12,0.1c4.7,0,8.8-0.1,12.6-0.3c4.1-0.2,8.6-0.3,14.3-0.3
			c3,0,6.1,0,9,0c3,0,6.2,0,9.3,0l0.6,0c3.4,0,6.8,0,10.3,0c6.2,0,12.3,0,18.5,0c5.6,0,11.2,0,16.8,0l41.1,0c43.8,0,87.5,0,131.3,0
			c1,0,2.3,0.1,3.8,0.3c2,0.2,4.3,0.4,6.7,0.4c1.6,0,3-0.1,4.4-0.3c1.7-0.2,3.6-0.3,6.1-0.3c1.8,0,3.6,0.1,5.5,0.1
			c2.1,0.1,4.2,0.1,6.4,0.1c1.7,0,3.2,0,4.7-0.1c1.9-0.1,3.9-0.2,6.2-0.2c3.4,0,6.8,0.1,10.4,0.2c3.6,0.1,7.2,0.2,10.9,0.2l0.5,0
			c4,0,8-0.1,11.8-0.2c3.8-0.1,7.5-0.2,11.1-0.2c4.1,0,7.5,0.1,10.6,0.4c0.5,0,1,0.1,1.5,0.1c4.8,0,9.3-1.8,12.5-5.1
			c3.2-3.3,4.9-7.8,4.8-12.6c-0.1-3.2,0.1-6.6,0.6-10.4c1.1-8.9-4-18-12.2-21.6c-2.2-1-4.5-1.5-6.8-1.5c-2.2,0-4.8,0.4-7.4,1.7
			c-0.8-0.6-1.3-1.1-1.6-1.4c-0.1-2.1-0.1-4.5-0.1-7c0-1.2,0-2.5,0-3.7l0-9.7c0-15.2,0-30.9,0.1-46.3c0-5.6,0.1-12.2,0.7-18.6
			c0.3-3.2,0.9-10.5-3.6-17.3c0.3-1.1,0.5-2.1,0.6-2.9c0.4-1.5,0.7-2.9,1.1-4.3c1.4-5.9,2.5-10.6,5.2-14c3.8-4.8,8.4-10.7,8-19
			c-0.4-6.9-4-11.8-8.3-17.4c-3.7-4.9-8.1-8.2-12.2-10.9c0-3.2,0-6.5,0-9.6c0-7.1,0-13.9,0.3-20.6c0.4-8-2.2-14.9-7.9-21.4
			c-0.3-0.3-0.5-0.5-0.6-0.7c0.3-8.2,0.3-16.4,0.3-24.3c0-3,0-5.9,0-8.9l0-0.2c0.2-7.1-2.4-11.5-5.3-14.3c-0.6-4.2-1.3-8.4-2.3-12.6
			l-0.4-1.7c-1.8-8-3.4-15.5-3.2-22.7c0-1.2,0.2-2.6,0.3-4.1c0.5-6,1.1-13.5-2-21.8c-1.5-4.1-2.5-8.8-3.6-13.7
			c-0.6-2.7-1.2-5.5-1.9-8.3c-2.6-10.3-10.4-14-16.8-14c-0.1,0-0.2,0-0.3,0c-8.3,0.2-15.1,6.5-16.2,15.1c-0.5,3.8-1.7,7.9-3,12.3
			c-2.3,8-5,17.1-4.4,27.5c0.5,8.3,0.6,18-2,27.2c-1.5,5.4-2.4,10.6-3.3,15.7c-0.3,0.3-0.7,0.5-1,0.8c-1.8-0.7-3.7-1.1-5.7-1.1
			c-0.8,0-1.6,0.1-2.5,0.2c-2.9,0.5-5.5,1.8-7.6,3.6c-0.2-2.4-0.4-4.9-0.7-7.5l-0.1-0.7c-0.3-2.7-0.7-6.9-2.9-11.2
			c-2.6-5.2-7.9-8.3-13.4-8.3c-1.5,0-3,0.2-4.5,0.7c-6.2,1.9-12.7,7.7-12.5,17.9c0,1.3-0.5,3.5-1,5.7c-0.9,3.7-1.9,8.2-1.7,13.3
			c-1.5-0.7-3-1.3-4.5-1.9c-7.6-3.3-15.5-6.7-23.1-10.2c-1.7-0.8-3.3-1.4-4.8-2c-3.7-1.5-6.6-2.7-8.2-4.4
			c-9.1-9.4-17.2-20.9-24.7-35c0-0.1,0-0.2,0-0.3l0-0.2c-0.6-6.6-0.1-13.7,0.4-21.1c0.6-8.6,1.2-17.5,0.2-26.9
			c0.2-1,0.5-2.2,0.7-3.8l0-0.1c1.1-7-1.3-11.8-3.9-14.7c2.5-8.3-0.6-13.8-3.5-17c0-0.2,0-0.5,0-0.8c1-6.4-1.2-10.8-3.4-13.3
			c-0.2-1.8-0.5-4.3-1.5-7.1l-0.1-0.2c-3.5-11.3-12-13-15.4-13.2c-0.4,0-0.8,0-1.1,0c-5.3,0-14.5,3.1-16.5,14.7
			c-0.4-0.6-0.8-1.1-1.3-1.7l-0.5-2.3c-1.4-7.1-2.9-14.4-4.3-21.6l0-0.2c-1.5-11.8-10.3-16.1-17.4-16.3
			C176.6,5.4,176.4,5.4,176.3,5.4L176.3,5.4L176.3,5.4z"/>
	</g>
</g>
</svg>
