<?xml version="1.0" encoding="utf-8"?>
<!-- Generator: Adobe Illustrator 24.1.0, SVG Export Plug-In . SVG Version: 6.00 Build 0)  -->
<svg version="1.1" id="Livello_1" xmlns="http://www.w3.org/2000/svg" xmlns:xlink="http://www.w3.org/1999/xlink" x="0px" y="0px"
	 viewBox="0 0 449 498.2" style="enable-background:new 0 0 449 498.2;" width="50" height="50" xml:space="preserve">
<style type="text/css">
	.st0{fill:#FEFEFE;}
</style>
<g id="qUNSFw_1_">
	<g>
		<path class="st0" d="M395.9,485.1c-3.1,0-5.9-0.9-8.3-2.6c-1.7-1.3-4.2-1.9-7-2.7c-1.4-0.4-2.9-0.8-4.4-1.3
			c-5.4-0.4-7.6-3.4-8.5-5.6c-0.4,0-0.9,0.1-1.3,0.1c-6.5,0-10.1-4.2-12-6.5c-0.4-0.4-0.9-1.1-1.2-1.4c-2.5-0.9-4.4-2.8-5.2-5.3
			c-1.5-4.2,0.3-8.6,1.6-10.5c1.3-1.9,1.1-4.3,0.6-8.4c-0.1-0.8-0.2-1.7-0.3-2.5c-0.2-2-0.7-6.6,2.5-10.2c1.8-2.1,4.3-3.3,7.5-3.6
			c-0.7-2-1.1-2.4-1.2-2.5c0,0-0.1-0.1-0.4-0.1c-6.6-0.9-8.4-6.4-9-8.2c-0.1-0.2-0.1-0.4-0.2-0.5c-1.2-3.2-2.5-6.4-3.7-9.6
			c-2.5-6.3-5-12.8-7.4-19.3c-0.2-0.5-0.3-0.8-1.4-1.3c-0.5-0.2-0.9-0.4-1.4-0.6c-3.2-1.4-7.6-3.3-10.2-8c-2.3-4.1-6.1-6.2-11.8-8.4
			c-11.1-4.2-18.1-15.3-17.4-27.7c0.2-3-0.5-4.2-1.9-5.3c-0.8-0.7-1.6-1.4-2.4-2.2c-5.7,10.2-14.8,16-25,16
			c-7.7,0-15.5-3.5-21.7-9.9c-3.4-3.5-6.3-7.2-8.8-11.2c-2.8,3.3-6,6.4-10.2,8.5c3.7,5.3,5,11.1,5.8,14.8c0.7,3,1.9,8.5-1.9,13.6
			c0.1,0.2,0.2,0.6,0.3,1.1c0.5,1.5,1,3,1.6,4.5c2.6,7.6,5.4,15.5,7.4,23.6c0,0.2,0.1,0.3,0.1,0.5c0.5,1.7,1.9,6.1-1.3,10.2
			c-0.2,0.2-0.2,0.4-0.2,0.4c-0.1,0.6,0.9,2.8,1.3,3.5c0.8,1.7,1.4,3.3,2,4.9c1.4,3.6,2.4,6.5,4.7,8.4c2.5,2.1,3.7,4.9,4.3,7.5
			c1.5-0.2,3-0.3,4.6-0.3c4.3,0,8.3,0.7,12.1,1.3c2.9,0.5,5.6,0.9,8.1,1.1c4.9,0.3,7.5,2.5,9,4.3c2.1,2.7,2.7,6.2,1.9,10.5
			c-0.3,1.4-0.7,2.7-1.1,3.9c1.2,1,2.2,2.3,2.9,3.3l0.2,0.3c1,1.4,4,5.8,1.6,11c-1.6,3.5-4.8,5.6-8.5,5.6c-1.4,0-2.7-0.3-3.4-0.5
			l-0.2-0.1c-0.1,0-0.2,0-0.3,0c-1,0-2.5,0.6-4,1.2c-2.3,0.9-5.2,2-8.6,2.2c-1.2,0.1-2.4,0.2-3.7,0.2c-3,0.2-6.1,0.4-9.3,0.4
			c-2.2,0-4.2-0.1-6.1-0.3c-0.7-0.1-1.5-0.1-2.2-0.1c-3.3,0-6.8,0.7-10.2,2.1c-6.8,2.7-14.2,4-23.1,4c-1.6,0-3.1,0-4.9-0.1
			c-0.5,0-0.9,0-1.4-0.1c-0.7,0-1.3-0.1-1.8-0.1c-0.9,0-1,0.1-1.3,0.3c-2.3,1.5-4.9,2.4-7.3,2.4c-3,0-6.4-1.3-8.7-4.6
			c-1.7,0.8-3.8,1.7-6.3,1.7c-4.1,0-7.7-2.4-9.5-6.4c-1.4-2.9-1.4-6.3-0.1-9.6c1.1-2.7,3-5.1,5.4-6.8c-1.8-6.2-2.7-10.5,0.1-14.6
			c3.1-4.5,8-4.9,15.4-5.4c0.7-0.1,1.4-0.1,2-0.1c3.1,0,6,0.6,8.7,1.7c1.2-2.6,0.7-3.5-0.2-4.7c-2.1-3.1-3.1-6.4-4-9.3l-0.3-1.1
			c-0.1-0.3-0.2-0.5-0.2-0.7c-2.8-0.7-6.4-2.6-8.8-7.5c-2-4.1-4-8.2-6.1-12.2c-2.1-4.2-4.2-8.5-6.3-12.8c-0.9-1.7-2.4-5-2.1-8.7
			c0-0.1,0-0.2,0-0.3c-0.4-0.2-1.3-0.5-2.8-1c-11.5-3.4-18.9-12.2-20.9-24.8c-0.8-5.2-2.3-10.3-3.9-15.6c-1.1-3.6-2.2-7.3-3.1-11.2
			c-0.9-3.7-2-8.7,0.4-14.1c-1.4-2.9-1.7-6.7,0.4-9.6c-0.1-0.3-0.3-0.6-0.4-0.8c-0.7-1.4-1.5-3.2-1.9-5.4c-0.8-4.7-1.1-9.4-1.4-13.9
			c-0.1-1.6-0.2-3.1-0.3-4.7c-0.2-2.3-0.3-4.6-0.5-6.9c-0.2-3.6-0.5-7.3-0.8-10.9c-0.6-6.7,2.8-10.2,4.9-11.7
			c2.5-1.8,5.3-2.3,7.9-2.7l0.7-0.1c1.3-0.2,2.7-0.5,4.4-0.5c6,0,10.4,3.5,12.1,9.6c1.3,4.7,2.9,9.6,4.4,14.3
			c0.2,0.6,0.4,1.2,0.6,1.7c0.6-0.5,1.2-1,1.8-1.4c8.5-6.6,17.3-13.4,28.3-17.6c0.6-0.2,1.3-0.5,1.8-2.3c0.1-0.3,0.2-0.6,0.3-1
			c-2,0.8-4.1,1.5-6.2,2c-3.1,0.7-5.9,1.1-8.6,1.1c-8.1,0-14.8-3.4-19.6-9.9c-22.1-3.4-41.7-13.5-58.3-30.3
			c-0.3-0.3-0.5-0.5-0.7-0.7c-0.3,0.3-0.7,0.7-1.2,1.1c-1.6,1.5-3.2,3.2-4.8,5c-3.1,3.4-6.4,6.8-10.4,9.8c-0.1,0.3-0.2,0.7-0.3,1.1
			c0,0.1-0.1,0.4-0.1,0.6c-0.2,1.1-0.5,2.9-1.4,4.8c0.2,0.5,0.4,0.9,0.5,1.5c0.8,2.6,1.2,8.1-0.9,11.4c-1.2,1.9-1.2,4.1-1,7.9
			c0.1,2.3,0.2,4.8-0.2,7.5c-0.4,3.1-0.4,6.5-0.3,10c0,1.1,0,2.3,0.1,3.4c0.1,9.5-5.8,13.2-9.3,14.6c-0.1,0.2-0.4,0.7-0.7,1.9
			c-1.9,6.5-3.2,13.2-3.7,19.9c-0.7,9.5-2.6,18.7-4.5,27.6c-1.5,7.5-3,14.6-3.8,21.8c-0.8,6.9-1.2,14.2-1.6,21.1
			c-0.1,1.5-0.2,3-0.3,4.6c6.6,4.5,8.9,11,7.1,19.4c-1.1,5-0.7,10.4-0.3,16.1c0.1,1.2,0.2,2.5,0.2,3.7c0.6,0.2,1.7,0.3,2.8,0.3
			c0.8,0,1.7,0.1,2.7,0.2c5.1,0.6,9.6,4,11.4,8.5c1.6,3.9,1,8.2-1.6,11.5c-1,1.2-2,2.7-3,4.2c-2.7,4-5.7,8.5-10.9,11.7
			c-1.4,0.9-3.4,2-5.7,2.5c-2.8,5.1-8.5,5.7-11.6,6c-0.8,0.1-1.9,0.2-2.3,0.3c-1.1,0.4-2.4,0.5-3.7,0.5c-0.4,0-0.9,0-1.3,0
			c-0.1,0-0.2,0-0.3,0c-2.6,0.9-5.1,1.3-7.4,1.3c-6.9,0-12.7-3.5-17-10.4c-2.3-3.7-5.2-7-8.2-9.6c-7-6.1-5.6-13.7-5-17
			c1.4-7.5,3-15.1,4.5-22.4c0.5-2.2,0.9-4.4,1.4-6.6c1.1-5.1,3.9-8,6.4-10c0.2-0.9,0.2-3,0.1-4.4v-0.7c-0.2-4.9-0.4-9.8-0.7-14.6
			c-0.5-10.4-1.1-21.1-0.8-31.8c0.3-10,0.7-20.2,1.1-30.1c0.1-3.1,0.3-6.2,0.4-9.3c0.2-5.6,0-11.4-0.8-17.8c-0.2-1.5-1-3-2.6-4.8
			c-3.5-4.1-5-9-4.3-14.2c0.4-3.3,0.8-6.5,1.2-9.8c1.1-9.2,2.3-18.7,4.3-28.1c0.1-0.7,0.3-1.4,0.5-2.1c0.6-2.7,1.1-5.1,1-7.2
			c-0.8-10.6,4.6-17.8,9.5-22.6c-2.8-3.5-3-6.9-2.7-9.3c0.5-3.3,2.3-5.9,3.6-7.7c0.2-0.3,0.5-0.6,0.7-1c0-0.2,0.1-0.4,0.2-0.7
			c0.6-2.2,2.1-3.9,4-4.9c0.2-1.9,0.4-3.8,0.6-5.7c0.9-7.9,1.8-16,3-24c1.1-7.1,2.7-14,4.4-20.8l0.1-0.4c1.2-5.1,5.9-8.7,11.3-8.7
			c2.9,0,5.7,1.1,7.9,3.1l0.7,0.6c2.6,2.4,7,6.3,7,13.1c0,1.1,0.3,2.5,0.7,4.1c0.8,3.4,1.9,8.2,0.2,13.2c1.9,5,0.8,9.8,0,13.2
			c-0.1,0.3-0.2,0.7-0.2,1c2.7,1.6,4.7,3.8,6.3,5.5c0.8-1.7,2.2-3.8,4.8-5c0.1,0,0.2-0.1,0.2-0.1c0.1-0.6,0.1-2,0.1-2.9s0-1.8,0-2.7
			c0.4-12,1.8-25.8,8.3-38.6c-2-5.4-0.6-12.4,3.1-17.1c-1.4-4.8-0.4-8.5,1.4-11.3c-1.9-6.7,0.3-12.7,2-17.2c0.6-1.5,1.1-3,1.4-4.2
			c1.9-8,10.4-11.1,16-13.2c0.5-0.2,0.9-0.3,1.4-0.5c0.2-0.1,0.5-0.2,0.7-0.2c0.8-2.9,3.3-7,11.2-7.1c0,0,0.8,0,1,0
			c6.8,0,13.1,1.5,18.8,4.6c-0.5-3.4-1.4-6.5-3-9.5c-1.3-2.3-2.5-5-3.6-7.8c-3.1-8.2-0.7-16.5,6-20.6c2.1-1.3,4.8-2,7.7-2
			c4.8,0,11.7,2,15.2,7.5c7.4,11.7,15,26.8,13.2,44.5c1.7-0.8,3.3-1,4.5-1c1.5,0,3,0.3,4.5,0.9c2.7,1.1,6.1,1.4,9.6,1.7
			c3.1,0.3,6.3,0.5,9.6,1.4c2.1,0.5,6.1,1.5,8.2,6.8c1.5,3.8,3.4,9.1,3.5,15.2c3.8,0.5,8.4,2.7,11.9,9.1c2.2-0.4,4.6-0.6,7.2-0.6
			c3,0,5.9,0.3,8.8,0.5c2.6,0.2,5,0.5,7.4,0.5c0.4,0,0.7,0,1.1,0c0.7,0,1.3,0,2-0.1c4.5-0.1,6.5-0.2,8.7-2
			c4.9-4.1,10.9-4.5,15.7-4.8c1.4-0.1,2.7-0.2,3.8-0.3l3.1-0.5c5.5-0.8,11.2-1.7,17-2.1c0.8-0.1,3.6-1.3,6.8-3.9
			c0.1-0.1,0.3-0.2,0.4-0.4c0.7-0.6,1.7-1.4,3.1-2.2c-0.6-3.2-1.1-6.4-1.7-9.6c-1.5-8.8-3.1-17.9-4.8-26.8c-0.6-2.9-0.4-5.6-0.2-7.8
			c0.1-1.5,0.2-2.8,0-3.8c-0.5-2.9,0.3-5.8,2.2-8c2-2.3,5-3.7,8.2-3.7c2.4,0,4.8,0.8,6.8,2.2c1.3,0.9,2.4,2,3.4,3.1
			c1.8-1.7,4.1-2.5,6.9-2.6h0.3c5.9,0,10.5,4.1,11.8,10.5c1.4,6.7,2.7,13.3,3.9,19.7c1,5.6,2,11.1,3,16.7c0.7,3.9,1.4,7.8,2.1,11.7
			c4,2.4,4.7,7.1,5,8.7l0.4,2.5c0.3,1.8,0.6,3.6,0.9,5.3c0.4,2.2,0.8,2.2,1.7,2.2c0.5,0,1-0.1,1.6-0.2c0.9-0.2,1.8-0.3,2.7-0.3
			c5.5,0,8.6,3.6,10.1,5.3c0.3,0.3,0.6,0.6,0.7,0.8c4.6,4.2,5,10.4,1.2,15.7c-0.2,0.3-0.5,0.7-0.7,1c-0.6,6.2-2.9,11.5-5.4,16.2
			c0.1,0,0.2,0,0.3,0c6.4,0,9.6,4.4,14.1,10.4c0.8,1.1,1.7,2.2,2.5,3.3c0.9,1.1,1.7,2.3,2.6,3.5c2.2,2.9,5,7.5,3.9,12.7
			c-1.1,5.3-5.2,8.3-8.8,10.4c-1.7,1-3.4,2-5.4,3c0.9,3.7-0.5,7.2-1.1,8.9c-2.3,5.9-1,12.2,0.6,19.5c0.3,1.5,0.6,2.9,0.9,4.4
			c1,5.5,1.6,11,2.2,16.3c0.4,3.5,0.7,6.9,1.2,10.2c0.8,5.9,1.3,11.8,1.7,17.6c0.5,6.8,0.9,13.2,2,19.5c0.4,2.2,0.5,4.4,0.6,6.3
			c0.1,1.7,0.2,3.3,0.4,4.6c3.1,0.5,8,2.6,9.3,10.1c1.9,11.2,4,22.3,6.2,33.7c0.7,3.9,1.6,8.4-1.5,12c-2.4,2.8-5.6,3.4-7.8,3.5
			c0.2,3.2-1,5.5-1.8,6.7c-1.9,2.7-5.1,4.2-8.6,4.2c-0.6,0-1.3,0-2-0.1c3.2,10.2,6.4,20.6,8.7,31.3c0.7,3,1.2,7.6-1.5,12.1
			c-0.3,0.4-0.3,0.7-0.3,0.7l0,0c0,0,0.1,0.5,1.1,1.4c5.2,5.2,7.8,10.8,7.9,17c0.4,0.3,1.1,0.7,1.6,0.9c0.6,0.3,1.2,0.7,1.8,1
			c0.2,0.1,0.4,0.2,0.5,0.3c1.5,0.9,4.4,2.6,5.7,6.8c4,0.6,9.4,1.9,12.5,6.7c3.4,5.1,2.2,11.3,1,15.5c-0.4,1.4-0.6,2.4-0.6,2.8l0,0
			c1.7,1.9,2.3,4.1,2.7,5.4c0.1,0.2,0.1,0.4,0.2,0.6c1.6,3.5,1.9,7.3,0.6,10.6c-1,2.8-3.1,4.9-5.7,6c-1.9,0.8-4.5,1.8-7.4,1.8l0,0
			c-3.3,0-6.4-1.2-8.9-3.4c-1-0.9-2.2-1.4-5.2-1.4c-0.8,0-1.7,0-2.7,0.1C404.5,483.2,400.3,485.1,395.9,485.1z M403.1,352.9
			L403.1,352.9z M260.4,295.1c0.8,4.5,2,8.5,4,11.9c1.5-4.6,2.7-9.2,3.6-13.4C265.5,294.1,262.9,294.6,260.4,295.1z M283.4,191.9
			c0.9,2.7,1.1,5.3,1.4,7.6c0.2,2.1,0.4,3.8,1,5.2c1.3,3.1,3,6.2,4.7,9.5c2.8,5.1,5.6,10.4,7.3,16.5c2.2,7.9,7.3,12.5,17,15.2
			c11.5,3.2,19.4,9.9,23.3,19.9c0.6,1.5,1.1,2.9,1.7,4.4c0.1,0.3,0.3,0.7,0.4,1c0-0.1,0.4-0.9,0.4-0.9c0.2-0.5,0.5-1.1,0.6-1.4
			c-0.5-3.1-1-6.2-1.5-9.3c-0.9-5.5-1.8-11.3-3-16.7c-1.2-5.7-1.2-11.3-0.1-17.3c0.3-1.6,0.7-3.2,1.1-4.7c0.8-3,1.5-5.9,1.2-8.1
			c-1.4-10.6-3.5-21.2-5.4-30.3h-0.1c-6.5,0-11.5-5.2-12-12.6c-0.4-5.9,2.1-10.2,4.7-13.4c-3.1-1.5-6.1-2.7-9-2.8
			c-2.3-0.1-4.7-0.2-7.3-0.2c-5.2,0-10.7,0.2-15.4,0.5c-0.4,0-0.8,0-1.1,0c-3.9,0-10.7-1.4-11.5-11.1c-0.2-1.9-2.6-3.8-4.3-3.8
			c-0.2,0-0.2,0-0.2,0c-0.5,0.4-1.1,0.9-1.7,1.3c-2.2,1.7-4.3,3.2-5.8,5c-2.3,2.6-2.4,4.3-0.2,6.9c5.3,6.3,9.5,13.2,13.7,19.9
			l0.7,1.1C289.3,182.1,286.4,188.4,283.4,191.9z M134.1,187c10.2,9.3,21,15.4,32.8,18.7c0.5,0.1,1,0.3,1.5,0.4
			c1.3-3.2,2.9-7.7,3.7-10.4c-1.5-2.7-3.6-5.3-5.9-8c-2.3-2.8-4.7-5.7-6.7-9c-0.4,0.1-0.8,0.1-1.1,0.2c-2,0.3-3.8,0.6-5.4,1
			c-0.9,0.3-1.8,0.5-2.7,0.8C144.4,182.2,138.7,183.8,134.1,187z M117.8,159c5.7-3.6,10.6-7.2,13.6-12.7c0.9-1.7,1.9-3.5,3-5.2
			c-0.8,0.3-1.6,0.7-2.5,1c-2.5,1.1-5.4,2.3-8.7,2.8c-2,0.3-2.5,0.4-4.1,6.1c-0.4,1.6-0.7,3.4-1,5.5c-0.1,0.8-0.2,1.5-0.3,2.3
			C117.8,158.9,117.8,158.9,117.8,159z"/>
		<path d="M158.5,21.2c3.3,0,7.3,1.5,8.8,4c9.8,15.5,16.1,31.8,9.8,50.4c-1.8,5.2-0.4,9.4,4.4,13.7c0.1-6.1,3.6-10,6.1-14.3
			c0.9-1.6,2.1-2.7,3.7-2.7c0.5,0,1,0.1,1.6,0.3c6.5,2.7,13.6,1.8,20.2,3.4c1.7,0.4,2.4,0.6,3.1,2.3c2.2,5.5,3.6,11,2.6,17
			c-0.4,2.3,0.4,3.3,2,3.3c0.4,0,0.8-0.1,1.3-0.2c0.9-0.2,1.7-0.3,2.5-0.3c3.5,0,5.7,2.2,7.5,5.6c1.2,2.2,2.7,3.9,5.3,3.9
			c0.5,0,1-0.1,1.5-0.2c2.3-0.5,4.6-0.7,6.8-0.7c5.4,0,10.7,1,16.1,1c0.5,0,0.9,0,1.4,0c5.4-0.2,10.4,0.2,15.2-3.8
			c4.2-3.5,10.5-2.7,15.8-3.5c6.5-0.9,13-2,19.6-2.5c3.1-0.2,7.6-2.9,10.9-5.5c1.1-0.9,2.1-2.1,3.6-2.1c0.1,0,0.2,0,0.3,0
			c0.3,0,0.5,0,0.8,0c3.1,0,2.6-2.2,2.2-4.5c-2.3-13.2-4.6-26.5-7.1-39.7c-0.7-3.8,0.5-7.5-0.1-11.3c-0.3-1.8,1.2-3,3-3
			c0.8,0,1.7,0.3,2.5,0.8c2.7,1.9,4.1,4.4,4.6,7.7c2.3,14.1,4.8,28.2,7.4,42.2c1,5.3,4,10.1,4.3,16.3c2.8-2.5,3.7-4.9,3-8.2
			c-2.8-15-5.4-30.1-8.1-45.2c-0.4-2.2-0.5-4.2-0.1-6.4c0.5-2.2,0.9-4.6,3.6-4.6h0.1c2.6,0,3.9,2.1,4.4,4.5c1.3,6.5,2.6,13,3.8,19.6
			c1.8,9.5,3.4,19,5.2,28.5c0.3,1.9,0.4,3.9,2.9,4.7c1.5,0.5,1.8,2.3,2,3.8c0.4,2.6,0.8,5.3,1.3,7.9c0.9,5.4,4.2,8.4,9.1,8.4
			c1,0,2-0.1,3.1-0.3c0.4-0.1,0.8-0.1,1.1-0.1c2.8,0,4,2.5,5.7,4.1c1.9,1.7,1.7,3.7,0.2,5.7c-1,1.3-1.9,2.7-2.1,4.5
			c-0.6,6.6-3.7,12.3-7.1,17.9c-1.2,2-2.4,3.9-3,6.2c-0.4,1.5-2.1,2.9-0.3,4.4c0.5,0.4,0.9,0.5,1.3,0.5c1,0,1.9-0.8,2.8-1.2
			c4.2-2,6.6-3.1,8.6-3.1c2.6,0,4.2,2.2,8.1,7.4c1.7,2.3,3.4,4.5,5.1,6.8c4.2,5.6,3.5,8.5-2.7,12.2c-2.6,1.5-5.2,3-7.8,4.4
			c-1.8,0.9-3.5,2-4.6,4.3c4.4,1,4.1,3.4,2.7,7c-3.6,9.4-0.7,18.8,1.1,28c1.6,8.7,2.1,17.5,3.4,26.3c1.8,12.4,1.6,24.9,3.7,37.3
			c0.8,4.4,0.2,8.9,1.5,13.2c0.7,2.2,1.4,3.8,3.9,3.8c0.1,0,0.3,0,0.4,0c0.2,0,0.3,0,0.5,0c2.5,0,3.6,1.5,4,4.1
			c2,11.3,4.1,22.6,6.2,33.8c1.1,5.6,1,6.7-3.3,6.7c-0.6,0-1.2,0-1.9,0c-0.3,0-0.5,0-0.8,0c-4.4,0-5.4,1.9-3.9,6.1
			c1,3,0.1,4.8-2.6,4.8c-0.4,0-0.8,0-1.3-0.1c-0.4-0.1-0.7-0.1-1.1-0.1c-1.5,0-3,0.4-4.5,0.4s-3-0.4-4.1-2.1
			c-0.6-2.6,0.7-5.8-2.7-7.8c-1,3.9,0.4,7,1.6,10.1c0.1,0.2,0.2,0.5,0.3,0.7c4.2,12.9,8.4,25.8,11.3,39.2c0.5,2.5,0.6,4.7-0.6,6.7
			c-2.6,4.4-1.2,8.2,1.9,11.3c3.5,3.5,5.8,7.3,5.7,12.3c0,4.6,4,6,6.8,7.7c1.6,1,2.7,1.3,3.2,3.4c0.6,2.7,2.2,4.4,5.6,4.8
			c8.3,1.1,10.1,4.5,7.8,12.8c-0.9,3.3-1.7,6.7,1.1,9.9c0.9,1,1,2.8,1.6,4.1c1.2,2.6,1,5.7-1.2,6.6c-1.3,0.6-2.9,1.1-4.5,1.1
			c-1.3,0-2.6-0.4-3.9-1.5c-3.1-2.7-6.6-3.3-10.2-3.3c-2,0-4.1,0.2-6.1,0.2c-0.8,0-1.2,0.8-1.7,1.6c-1.2,2.1-3.7,3.3-6.2,3.3
			c-1.4,0-2.7-0.4-3.8-1.1c-4.1-3.1-9.3-3.6-13.9-5.3c-1.1-0.4-3.1,0.1-3.5-1.2c-1-3.4-3.8-4.6-6.4-4.6c-0.3,0-0.6,0-1,0.1
			c-0.3,0-0.6,0.1-0.9,0.1c-5.4,0-6.4-6.1-10.7-7.4c-1.4-0.4-0.7-3.4,0.1-4.6c3.4-5.1,2-10.5,1.5-15.8c-0.4-3.5,0.1-5.6,4.4-5.6
			c4.6-0.1,7-4.5,5.5-9c-1.3-4.1-3-7.7-8-8.4c-2.3-0.3-2.5-2.3-3.1-4c-3.7-9.6-7.5-19.1-11.1-28.8c-1-2.8-2.7-4.3-5.3-5.5
			c-3-1.4-6.6-2.4-8.2-5.4c-3.5-6.4-9.2-9.3-15.7-11.8c-8.2-3.1-13-11.5-12.5-20.3c0.3-4.7-0.9-8.4-4.6-11.5c-3.5-3-6.1-6.9-9.1-11
			c-1.6,3.9-2.8,7.5-4.7,10.8c-4.5,8.1-11.3,12.2-18.4,12.2c-5.6,0-11.3-2.5-16.4-7.6c-5.4-5.5-9.5-11.9-12.2-19.2
			c-2.6,0.7-3.4,2.9-4.6,4.6c-4.6,6.1-9.4,11.7-17.7,12.5c-3.1,0.3-3.3,2.4-1,3.9c6.2,4.1,8.2,10.5,9.7,17.2
			c0.6,2.7,1.1,5.3-0.7,7.7c-2,2.6-1.6,5-0.6,7.9c3.1,9.1,6.5,18.1,8.8,27.5c0.4,1.5,1.2,3,0.2,4.3c-3.1,4-1.7,7.7,0.1,11.6
			c2.5,5.5,3.6,11.6,8.6,15.9c2.1,1.8,2.1,5.2,2,8c-0.1,1.7,0.5,2.7,1.7,2.7c0.4,0,0.8-0.1,1.3-0.3c2.9-1.1,5.8-1.5,8.7-1.5
			c6.6,0,13.2,2.1,19.9,2.4c4.1,0.2,4.5,2.7,3.9,5.8c-0.4,1.8-1,3.5-1.6,5.3c-0.7,2.2-1,4.2,1.9,5.2c1,0.3,1.9,1.4,2.5,2.3
			c0.8,1.2,1.9,2.6,1.2,4.1c-0.4,0.9-1,1.2-1.7,1.2c-0.8,0-1.6-0.3-2.3-0.4c-0.6-0.1-1.1-0.1-1.7-0.1c-4.6,0-8.4,3.2-13.1,3.4
			c-4.2,0.2-8.4,0.7-12.6,0.7c-1.8,0-3.5-0.1-5.3-0.3c-1-0.1-2-0.2-3.1-0.2c-4.5,0-9,1-13,2.7c-6.7,2.7-13.4,3.5-20.3,3.5
			c-1.5,0-3,0-4.5-0.1c-1.2-0.1-2.4-0.2-3.5-0.2c-1.8,0-3.6,0.3-5.4,1.5c-1,0.7-2.1,1.1-3.1,1.1c-1.5,0-2.9-0.9-3.5-3.6
			c-0.5-1.8-1.5-2.4-2.8-2.4c-1,0-2.2,0.4-3.2,0.9c-1.7,0.8-3.7,2.2-5.4,2.2c-1.1,0-2-0.5-2.7-2c-1.3-2.9,1.1-6.6,4.4-8
			c3.3-1.4,2.5-3.3,1.8-5.6c-3.3-11.3-3.3-11.3,8.4-12.2c0.5,0,1-0.1,1.4-0.1c2.6,0,5,0.6,7.2,1.9c1.2,0.7,2.2,1,3,1
			c1.8,0,3-1.4,4.3-3.8c2.7-4.8,3.4-9.1,0.1-13.9c-1.7-2.4-2.4-5.5-3.3-8.3c-0.9-2.9-2.3-5.1-5.5-5.8c-1.9-0.4-3.1-1.7-3.9-3.5
			c-4.1-8.4-8.3-16.6-12.4-25c-0.7-1.5-1.5-3.2-1.4-4.7c0.6-6.1-3.5-7.8-8.2-9.1c-9.4-2.7-14.2-9.9-15.6-18.8
			c-1.4-9.4-4.9-18.2-7.1-27.4c-0.8-3.4-1.5-6.5,0.1-9.7c1-2,1.2-3.7-0.1-5.6c-0.4-0.6-0.8-2-0.4-2.3c4-4.5-0.3-8-1-12
			c-1-5.9-1.1-11.9-1.6-17.9c-0.4-6-0.7-12-1.3-17.9c-0.5-5,3-5.7,6.5-6.3c1.3-0.2,2.7-0.5,3.9-0.5c2.1,0,3.9,0.8,4.9,4.1
			c2.1,7.5,4.6,14.9,6.9,22.4c0.6,1.8,0.9,2.8,1.9,2.8c0.6,0,1.5-0.5,2.9-1.4c10.6-7.9,20.5-17,33.2-21.7c3.3-1.2,5.2-3.5,6.4-7.1
			c2-6.4,4.6-12.6,6.6-19.2c-6.9,4.4-13.6,8.8-21.4,10.7c-2.3,0.6-4.6,0.9-6.8,0.9c-5.3,0-10-1.9-13.7-7c-1.2-1.6-2.6-2.4-4.5-2.7
			c-21.3-3.2-39.3-13-54.4-28.2c-2.7-2.7-4.3-4-6-4s-3.5,1.4-6.5,4.3c-5.3,5-9.7,11-15.9,15.1c-1.5,1-1.2,2.6-1.6,4
			c-0.6,1.8-0.2,4.2-2.2,5.3c-3.1,1.8-3.9,2.6,0.2,4.4c1.6,0.7,1.5,5.8,0.9,6.7c-3.8,5.9-1.5,12.3-2.3,18.4
			c-0.6,4.8-0.3,9.6-0.3,14.5c0,3.5-1.1,6.2-4.5,7.5c-3.1,1.2-4.3,3.8-5.2,6.8c-2.1,7-3.4,14.2-4,21.5C68,326.5,62.9,342.5,61,359
			c-1.1,9.4-1.5,19-2.1,28.5c-0.1,1.2,0,2.3,1.6,3.2c5.5,3,7.1,6.7,5.8,12.6c-1.7,7.9-0.5,15.9-0.2,23.8c0.1,3,2.6,3.9,5.1,4.7
			c2.3,0.7,4.6,0.6,6.9,0.9c4.3,0.5,7.2,4.9,4.8,7.8c-3.9,4.8-6.4,10.9-12,14.3c-1.1,0.7-2.3,1.3-3.6,1.6c-2.1,0.5-3.4,0.7-4.7,3.4
			c-1.3,2.8-6.4,1.9-9.8,3c-0.5,0.1-1,0.2-1.5,0.2c-0.6,0-1.3-0.1-1.9-0.1c-0.5,0-1.1,0-1.6,0.2c-2,0.7-3.9,1.1-5.6,1.1
			c-4.3,0-7.8-2.3-10.7-6.9c-2.6-4.1-5.9-8.1-9.6-11.3c-3.5-3-3.2-6.5-2.6-10c1.8-9.6,3.8-19.2,5.8-28.8c0.5-2.5,1.7-4.1,3.9-5.8
			c3.3-2.5,2.9-7.2,2.7-11.1c-0.5-15.3-1.9-30.6-1.5-45.9c0.3-13.1,1-26.2,1.5-39.3c0.3-6.3-0.1-12.7-0.8-19
			c-0.4-3.4-2.1-6.3-4.3-8.8c-2.1-2.4-2.9-5.2-2.5-8.3c1.7-12.5,2.9-25.1,5.4-37.4c0.8-3.9,1.9-7.5,1.6-11.5
			c-0.6-7.7,3.3-13.1,8.7-18c2.3-2.1,2.7-5.6,0.7-7.3c-5-4.2-1.6-7.3,0.6-10.7c1.2-0.6,0.8-1.8,1.1-2.8c0.4,0.1,0.7,0.1,1,0.1
			c1.9,0,2.6-1.3,2.8-3.4c1.2-10.7,2.3-21.4,3.9-32.1c1-6.9,2.7-13.7,4.3-20.5c0.5-1.9,2.2-3,4.1-3c1,0,2,0.3,2.8,1.1
			c2.4,2.2,5.2,4.3,5.2,8.1c0,5.8,4.1,11.7-0.1,17.5c4.3,5.5,0.3,11.1,0.3,16.7c0,1.4,0.3,2.3,1.6,2.7c3.9,1.2,6.2,4.4,8.8,7.1
			c1.6,1.6,3.2,2.5,4.7,2.5c2,0,3.7-1.4,5-4.2c0.6-1.2,1-2.9,2-3.4c5.8-2.6,4.6-7.5,4.8-12.2c0.5-13,2-25.8,8.6-37.5
			c0.5-0.9,0.6-1.6-0.2-2.9c-2.2-3.5-0.4-10.2,3.1-12.4c1.5-1,1.1-1.7,0.6-2.8c-1.5-3.2-2.2-6.2,0.8-9c0.8-0.7,0.8-1.8,0.4-2.8
			c-3.3-7,1.3-13.3,2.8-19.4c1.1-4.5,7.8-6.5,12.7-8.4c2.5-0.9,5-1,5.2-4.8c0.1-2.2,2.6-2.1,4.5-2.1c0.2,0,0.4,0,0.6,0
			c9.6,0,17.7,3.7,24.3,10.6c0.4,0.4,1,0.8,2.2,1.7c0.6-10.3,0.8-19.7-4.1-28.5c-1.2-2.2-2.2-4.4-3.1-6.7c-1.8-4.9-0.7-9.3,2.9-11.5
			C155.7,21.5,157,21.2,158.5,21.2 M253.3,142.4c0.1,0,0.2,0,0.3,0c1.3-0.3,1.1-1.8,1.3-2.7c0.1-5.9-2.1-9.1-6.1-9.1
			c-1.1,0-2.4,0.2-3.8,0.8c-0.8,0.3-1.8,0.2-1.6,1.3c0.1,0.5,0.6,1.3,1.1,1.4c3.4,1,5.7,3.2,6.9,6.6
			C251.7,141.5,252.4,142.4,253.3,142.4 M344.1,293.1c2.3,0,4-3.6,7.1-3.8c-5.4-3.8-6.7-9.3-4.1-15.4c0.9-2,1.9-3.8,1.5-6.2
			c-1.6-8.8-2.8-17.8-4.6-26.5c-1-4.9-1-9.5,0-14.3c1-5.1,3-10.1,2.3-15.2c-1.5-10.9-3.6-21.6-5.8-32.4c-0.5-2.2-1.5-4.7-4.6-4.7
			c-0.4,0-0.9,0-1.4,0.2c-0.4,0.1-0.7,0.1-1.1,0.1c-2.8,0-4.3-2.4-4.5-5.6c-0.4-5.1,3.1-8.2,5.9-11.6c1.7-2,2.5-4.2,0-5.4
			c-5.6-2.7-11.1-5.9-17.4-6.3c-2.6-0.1-5.1-0.2-7.7-0.2c-5.2,0-10.5,0.2-15.7,0.5c-0.3,0-0.5,0-0.7,0c-2.9,0-3.8-1-4.1-4.3
			c-0.5-5.9-6.4-10.6-11.7-10.6c-1.7,0-3.4,0.5-4.8,1.6c-2.9,2.3-6.1,4.4-8.6,7.3c-4.8,5.4-4.9,11.3-0.4,16.7
			c5.2,6.3,9.5,13.2,13.8,20.1c2.5,3.9,3,7.7-1.2,11c-0.8,0.7-2.2,1.6-1.5,2.8c3.2,5,1.8,11.1,3.9,16.3c3.5,8.6,9.2,16.2,11.7,25.2
			c3.3,11.6,11.3,17.3,22.3,20.4c8.4,2.3,15,6.9,18.3,15.4c2.3,5.9,4.1,12,7.5,17.3c1.6,2.5,2.1,6.4,4.8,7.3
			C343.6,293.1,343.9,293.1,344.1,293.1 M113.3,170.2c0.4,0,0.9-0.2,1.5-0.6c8.6-5.5,17.9-10.2,23.2-19.8c2-3.7,4.3-7.6,7-10.8
			c3.7-4.4,0.9-5.1-2.4-5.9c-1.1-0.3-2.3-0.4-3.4-0.4c-0.8,0-1.6,0.1-2.4,0.1c-5.3,0.5-9.6,4-14.5,4.7c-7.2,1-8.8,6.1-10.3,11.5
			c-0.8,3-1.1,6.2-1.7,9.9c0.5,2.8,0.9,6,1.7,9.3C112.1,169.1,112.3,170.2,113.3,170.2 M172.5,214c0.1,0,0.1,0,0.2,0
			c1.3,0,8-18.7,7.4-20c-0.3-0.6-0.9-1-1.2-1.6c-3.8-7.1-10.2-12.2-13.9-19.4c-0.8-1.6-2.2-2.1-3.8-2.1c-0.3,0-0.6,0-1,0.1
			c-3.1,0.5-6.3,0.8-9.3,1.7c-8.9,2.6-18,4.6-25,11.4c-2.2,2.1-2.1,3.5,0.1,5.6c11.1,10.9,23.8,19.1,38.9,23.3
			C167.4,213.6,170,214,172.5,214 M188.9,216.1c0.3,0,0.6,0,1-0.1c1.9-1.3,6.2,0.4,6.6-2.7c0.3-2-1.9-5.6-4.8-5.6
			c-0.1,0-0.2,0-0.4,0c-3.2,0.3-3.1,4.1-3.8,6.6C187.1,215.5,187.7,216.1,188.9,216.1 M266.2,319.1c1.2,0,2.2-1,3-3.1
			c3.1-8,5.2-16.4,7.1-24.8c0.6-2.7,0.3-6.1-3.6-6.1c-0.4,0-0.8,0-1.2,0.1c-5.4,1.1-10.9,2.2-16.3,3.3c-1.5,0.3-3.2,0.8-2.9,2.7
			c1.3,9.6,3.5,18.9,10.8,26C264.2,318.5,265.3,319.1,266.2,319.1 M158.5,6.2L158.5,6.2c-4.3,0-8.3,1.1-11.6,3
			c-9.8,5.9-13.5,18.1-9.1,29.6c0.4,1,0.8,2,1.2,2.9c-2.1-0.3-4.2-0.4-6.4-0.4c-0.3,0-0.5,0-0.8,0h-0.3c-1.5,0-4.3,0-7.3,1.1
			c-4.1,1.4-7.3,4.1-9.3,7.6c-6.4,2.4-17,6.8-19.7,18.1c-0.2,0.8-0.7,2.1-1.1,3.3c-1.6,4.4-4.1,11-2.8,18.8c-1.2,2.9-2,6.4-1.4,10.6
			c-3.1,5.4-4.3,12-3.1,18c-2.1,4.6-3.6,9.2-4.7,13.8c-0.1-0.4-0.1-0.7-0.2-0.9c0-10.1-6.4-15.8-9.5-18.6c-0.2-0.2-0.4-0.4-0.6-0.5
			c-3.5-3.2-8.1-5-13-5c-8.9,0-16.6,5.9-18.6,14.5l-0.1,0.4c-1.7,6.9-3.4,14-4.5,21.4c-1.2,8.2-2.1,16.4-3,24.3
			c-0.1,0.8-0.2,1.6-0.3,2.4c-1.8,1.7-3.2,3.9-4,6.5c-1.6,2.2-4.1,5.8-4.8,10.8c-0.3,2.2-0.4,5.5,1,9.2c-4.2,5.3-8.7,13.4-7.9,24.3
			c0.1,1-0.4,3-0.8,5c-0.2,0.7-0.3,1.5-0.5,2.3c-2,9.7-3.2,19.3-4.4,28.7c-0.4,3.2-0.8,6.5-1.2,9.7c-1,7.3,1.1,14.4,6,20
			c0.5,0.6,0.7,1,0.8,1.1c0.7,5.9,0.9,11.2,0.7,16.3c-0.1,3.1-0.3,6.2-0.4,9.3c-0.4,9.9-0.8,20.1-1.1,30.2
			c-0.3,11,0.3,21.9,0.8,32.4c0.2,4.8,0.5,9.7,0.7,14.5v0.7c0,0.2,0,0.4,0,0.6c-3.4,3.4-5.5,7.3-6.4,11.9c-0.5,2.2-0.9,4.4-1.4,6.6
			c-1.5,7.4-3.1,15-4.5,22.6c-0.5,2.9-1,6.4-0.3,10.3c0.9,5.3,3.6,10,7.8,13.6c2.5,2.2,4.8,4.9,6.8,8c7.3,11.5,16.7,13.9,23.4,13.9
			c2.7,0,5.6-0.4,8.4-1.2c0.2,0,0.4,0,0.6,0c2,0,3.8-0.3,5.6-0.8c0.3,0,0.8-0.1,1.2-0.1c3.1-0.3,10.6-1.1,15.6-7.1
			c2-0.8,3.6-1.7,4.9-2.5c6.7-4.1,10.5-9.8,13.3-14c0.9-1.4,1.8-2.7,2.6-3.7c4.4-5.4,5.4-12.5,2.8-19c-2.8-6.8-9.3-11.9-16.8-13
			c-0.3-4.3-0.4-8.1,0.4-11.4c2.2-9.8-0.2-18.3-6.7-24.4c0-0.2,0-0.5,0-0.7c0.4-7.2,0.8-14,1.6-20.7c0.8-6.9,2.2-13.8,3.7-21.1
			c1.9-9.1,3.8-18.6,4.6-28.5c0.4-5.8,1.5-11.5,3-17.1c6.8-4,10.8-11.3,10.7-20c0-1.2,0-2.3-0.1-3.5c-0.1-3.3-0.1-6.4,0.2-8.9
			c0.4-3.3,0.3-6.3,0.3-8.8c0-1.2-0.1-3.1,0-3.8c3.3-5.4,2.8-12.5,1.9-16.5c0.3-1,0.5-1.8,0.6-2.6c3.5-2.9,6.4-6,9.1-8.9
			c0.2-0.2,0.4-0.5,0.6-0.7c9.1,8.3,18.9,14.8,29.4,19.6c-0.9,0.4-1.8,1-2.7,1.6c-5.9,4.1-8.8,10.9-8.1,18.5c0.3,3.5,0.5,7,0.8,10.7
			c0.1,2.3,0.3,4.6,0.5,7c0.1,1.5,0.2,3,0.3,4.6c0.3,4.7,0.6,9.6,1.5,14.8c0.3,1.9,0.9,3.5,1.4,4.8c-1.1,3.3-1,6.7-0.1,9.8
			c-1.9,6.5-0.5,12.4,0.3,15.8c0.9,4.1,2.1,7.9,3.2,11.6c1.5,5.1,3,9.9,3.7,14.6c2.2,14.6,10.9,25.5,24,30.2c0.6,3,1.8,5.3,2.5,6.8
			c2.1,4.3,4.2,8.6,6.3,12.8c2,4,4.1,8.1,6,12.2c2.6,5.3,6.2,8.2,9.4,9.8c0.1,0.3,0.2,0.6,0.3,1c-0.2,0-0.5,0-0.7,0
			c-8.2,0.6-15.9,1.2-21,8.6c-3.7,5.4-3.6,10.8-2.3,16.4c-1.7,1.9-3.1,4.1-4,6.5c-2,5.1-1.9,10.6,0.3,15.4
			c3.1,6.7,9.2,10.7,16.3,10.7c1.6,0,3-0.2,4.4-0.5c3,2.2,6.7,3.5,10.7,3.5c3.3,0,6.6-0.9,9.7-2.6c0.1,0,0.1,0,0.2,0
			c0.5,0,1,0.1,1.5,0.1c1.8,0.1,3.5,0.1,5.2,0.1c9.9,0,18.1-1.4,25.9-4.6c2.6-1,5.1-1.6,7.4-1.6c0.5,0,1,0,1.4,0.1
			c2.2,0.2,4.5,0.4,6.9,0.4c3.5,0,6.7-0.2,9.9-0.5c1.2-0.1,2.4-0.2,3.6-0.2c4.6-0.3,8.2-1.7,10.9-2.7c0.4-0.2,0.9-0.4,1.3-0.5
			c1,0.2,2.4,0.4,3.9,0.4c6.7,0,12.6-3.8,15.4-10c1.9-4.1,3-10.6-2.3-18.3l-0.1-0.2c-0.3-0.4-0.5-0.8-0.8-1.2c0-0.1,0.1-0.3,0.1-0.4
			c1.6-8.1-0.9-13.5-3.3-16.6c-1.9-2.5-6.4-6.7-14.5-7.2c-2.1-0.1-4.6-0.5-7.3-1c-3.9-0.7-8.2-1.4-13-1.4c-1.1-1.9-2.5-3.7-4.4-5.4
			c-0.7-0.6-1.6-3-2.5-5.3c-0.6-1.5-1.2-3.2-2-5c1.9-4,2-8.6,0.5-13.7l-0.1-0.2c-2.1-8.4-4.9-16.4-7.6-24.1
			c-0.3-0.8-0.5-1.6-0.8-2.3c3.1-6.7,1.7-13.3,1-16.1c-0.5-2.1-1.1-4.9-2.2-8.1c0.9,1,1.8,2,2.8,3c7.7,7.8,17.3,12.1,27.1,12.1
			c8.1,0,15.8-3,22.2-8.4c2,12.3,10.1,22.7,21.8,27.1c5.4,2.1,7,3.3,7.9,5c3.7,6.7,9.8,9.5,13.3,11.1c2.2,5.8,4.4,11.6,6.7,17.3
			c1.2,3.1,2.5,6.3,3.7,9.4c0,0.1,0,0.2,0.1,0.2c1,3.2,2.5,5.7,4.2,7.6c-5,6-4.2,13.1-4,15.5c0.1,0.9,0.2,1.8,0.3,2.6
			c0.1,1.2,0.4,2.9,0.4,3.8c-2.4,3.9-4.4,10.4-2.1,16.7c1.4,4,4.2,7.2,7.8,9c2.1,2.5,6.7,7.9,14.9,9c2.2,2.5,5.7,4.9,11.1,5.6
			c1.4,0.4,2.7,0.8,3.9,1.1c1.6,0.4,3.9,1.1,4.5,1.5c3.6,2.7,8,4.1,12.7,4.1c5.4,0,10.5-1.9,14.4-5.1c0.2,0,0.3,0,0.4,0
			c3.8,3.1,8.4,4.8,13.3,4.8c4.3,0,7.8-1.3,10.4-2.4c4.5-1.9,8-5.6,9.8-10.3c1.9-4.9,1.6-10.7-0.6-15.8l0,0
			c-0.3-1.1-0.8-2.9-1.9-4.9c1.1-3.9,3.1-12.9-2.2-20.9c-3.8-5.7-9.4-8.1-13.6-9.2c-2.4-3.9-5.6-5.8-7.1-6.7
			c-0.1-0.1-0.2-0.1-0.3-0.2c-0.1,0-0.1-0.1-0.2-0.1c-0.9-5.4-3.3-10.5-7.3-15.2c1.9-5.9,0.8-11.1,0.4-13.1
			c-1.7-8.1-3.9-16-6.3-23.7c2.8-1.3,5.2-3.2,7-5.7c0.8-1.1,1.8-2.8,2.4-4.9c2.3-0.9,4.8-2.4,6.9-4.9c5.3-6.4,3.9-13.8,3.1-18.2
			c-2.1-11.4-4.2-22.5-6.1-33.6c-1.3-7.4-5.2-11.9-9.7-14.3c-0.1-2-0.2-4.3-0.7-6.8c-1-6-1.5-12.2-1.9-18.7
			c-0.4-5.9-0.8-11.9-1.7-18.1c-0.5-3.2-0.8-6.5-1.2-10c-0.6-5.5-1.2-11.1-2.3-16.9c-0.3-1.6-0.6-3.1-0.9-4.5
			c-1.3-6.2-2.4-11.5-0.9-15.3c0.5-1.3,1.5-4,1.8-7.3c0.5-0.3,1-0.6,1.5-0.9c2.6-1.5,10.4-6.2,12.3-15.4s-3.5-16.3-5.2-18.7
			c-0.9-1.2-1.8-2.4-2.7-3.5c-0.8-1.1-1.6-2.1-2.4-3.2c-2.9-3.9-5.9-8-10-10.6c1-2.7,1.8-5.7,2.3-8.8c5.5-8.1,4.5-18.2-2.4-24.8
			c-0.1-0.1-0.2-0.2-0.3-0.4c-1.8-2.1-6.6-7.5-15-7.8c0-0.2-0.1-0.4-0.1-0.7c-0.1-0.8-0.3-1.7-0.4-2.5c-0.9-5.5-3-9.2-5.5-11.6
			c-0.5-3-1.1-6-1.6-9c-1-5.4-2-11.1-3-16.6c-1.2-6.4-2.5-13.1-3.9-19.9c-2-9.8-9.7-16.5-19.1-16.5c-0.2,0-0.3,0-0.5,0
			c-2,0-3.9,0.4-5.6,1c-0.1,0-0.1-0.1-0.2-0.1c-3.3-2.3-7.2-3.6-11.2-3.6c-5.4,0-10.5,2.3-13.9,6.3c-3.3,3.8-4.7,8.9-3.9,14
			c0,0.4-0.1,1.4-0.1,2.1c-0.2,2.5-0.4,5.8,0.3,9.7c1.7,8.9,3.3,17.9,4.8,26.7c0.3,1.7,0.6,3.3,0.9,5l0,0c-1.5,1.2-2.9,2-3.6,2.3
			c-5.7,0.5-11.3,1.3-16.6,2.1c-1,0.2-2.1,0.3-3.1,0.5c-0.9,0.1-2,0.2-3.3,0.3c-5.2,0.4-13.2,0.9-20,6.5c0,0,0,0-0.1,0
			c-0.6,0.2-2.6,0.2-4.1,0.3c-0.7,0-1.4,0-2.1,0.1c-0.3,0-0.6,0-0.9,0c-2,0-4.3-0.2-6.7-0.4c-2.8-0.3-6.1-0.6-9.5-0.6
			c-1.2,0-2.4,0-3.5,0.1c-2.7-3.4-5.7-5.5-8.6-6.8c-0.7-4.9-2.2-9.1-3.6-12.3c-3.6-8.8-11-10.6-13.4-11.2c-3.9-1-7.5-1.3-10.7-1.6
			c-3.1-0.3-5.7-0.5-7.4-1.2c-1.4-0.6-2.8-1-4.2-1.2c-0.2-3.9-0.8-7.9-1.7-11.8c-2.2-9-6.3-18.1-12.8-28.5
			C175.8,10.5,167.4,6.2,158.5,6.2L158.5,6.2L158.5,6.2z M291.5,193.4c1.8-3,2.7-6.3,2.9-9.8c0.2-4.7-1.2-9.5-4.2-14.3l-0.7-1.1
			c-1.8-2.9-3.7-5.9-5.7-8.9c2.9,1.5,6.2,2.2,9.4,2.2c0.5,0,1,0,1.5,0c4.8-0.2,9.9-0.5,15-0.5c1.9,0,3.6,0,5.3,0.1
			c-0.9,2.7-1.4,5.8-1.1,9.4c0.6,8.9,5.9,15.9,13.2,18.5c1.6,7.8,3.1,16.3,4.3,24.8c0.1,0.9-0.6,3.5-1,5.2c-0.4,1.5-0.8,3.3-1.2,5.1
			c-1.3,6.8-1.3,13.2,0,19.7c-3.4-2.1-7.5-3.9-12.3-5.3c-8.2-2.3-10.5-5.4-11.8-10c-1.9-6.9-5.1-12.8-7.9-18c-1.7-3.1-3.2-6-4.4-8.7
			c-0.2-0.5-0.3-2-0.4-3.1C292.1,197.2,291.9,195.4,291.5,193.4L291.5,193.4z M148.5,188.8c1.3-0.4,2.6-0.7,3.9-1.1
			c0.9-0.3,1.8-0.5,2.7-0.8c0.3-0.1,0.6-0.1,0.9-0.2c1.5,2.1,3.1,3.9,4.5,5.7c1.3,1.5,2.4,2.9,3.4,4.3c0,0.1,0,0.1-0.1,0.2
			C158.5,194.9,153.4,192.2,148.5,188.8L148.5,188.8z M175.7,257.5c-0.2-0.8-0.5-1.6-0.7-2.4c0.8,0.4,1.6,0.8,2.5,1.1
			C176.8,256.7,176.3,257.1,175.7,257.5L175.7,257.5z"/>
	</g>
</g>
</svg>
