<?xml version="1.0" encoding="utf-8"?>
<!-- Generator: Adobe Illustrator 24.1.0, SVG Export Plug-In . SVG Version: 6.00 Build 0)  -->
<svg version="1.1" id="Livello_1" xmlns="http://www.w3.org/2000/svg" xmlns:xlink="http://www.w3.org/1999/xlink" x="0px" y="0px"
	 viewBox="0 0 470 285.1" style="enable-background:new 0 0 470 285.1;" width="50" height="50" xml:space="preserve">
<style type="text/css">
	.st0{fill:#FEFEFE;}
</style>
<g id="GwrjWg_1_">
	<g>
		<path class="st0" d="M329.5,275.6c-2.7,0-5.1-1.2-6.8-3.3c-2-2.5-2.8-6.4-0.8-9.9c-0.6,0.1-1.2,0.2-1.8,0.2
			c-2.7,0-5.2-1.2-7.1-3.3c-2.4-2.8-2.4-5.7-2.2-7.1c0.4-3.3,2.6-5.2,3.8-6.1c0.4-0.7,0.8-1.3,1.2-1.9c0.5-0.8,1-1.5,1.3-2
			c2.7-6.1,6.9-7,9.1-7c0.3,0,0.6,0,0.9,0.1c0.2-0.2,0.4-0.4,0.6-0.6c1.9-1.8,5.1-4.8,10.1-4.8c0.5,0,1,0,1.5,0.1
			c2.2,0.3,6.1,1.2,8.3,4.7c0.6,0.9,1.3,1.6,5.1,2c0.9-0.5,1.7-1,2.6-1.5c3.5-2,6.8-3.8,9.4-6.3c-0.4-0.2-0.8-0.5-1.2-0.7
			c-3.1-1.9-6.1-3.6-9.2-5.1c-0.5-0.2-0.8-0.3-0.9-0.3l0,0c-6.8,3.7-13.7,4.2-19.9,4.6c-0.8,0.1-1.6,0.1-2.3,0.2
			c-6.6,7.2-15.9,8.2-22.2,8.8c-6.6,0.7-13.1,2.3-19.9,4c-3,0.8-6.1,1.5-9.2,2.2c-7.3,1.6-13.5,2.4-19.3,2.4c-1.2,0-2.5,0-3.7-0.1
			c-0.2,0-0.4,0-0.5,0c-1.4,0-3,0.3-4.8,0.6c-2.2,0.4-4.7,0.9-7.4,0.9c-1.1,0-2.2-0.1-3.3-0.2c-2.3-0.4-4.8-0.5-7.9-0.5
			c-2.2,0-4.5,0.1-6.8,0.2c-2.4,0.1-4.9,0.2-7.4,0.2c-3,0-5.6-0.1-8-0.4c-0.2,0-0.5,0-0.8,0c-1.2,0-2.8,0.2-4.4,0.5
			c-2,0.3-4.3,0.6-6.7,0.6c-1.1,0-2.2-0.1-3.2-0.2c-0.5-0.1-1-0.1-1.5-0.1c-2.4,0-5.1,0.7-7.9,1.5c-3.4,0.9-7.3,2-11.6,2
			c-2.5,0-5-0.4-7.3-1.1c-1-0.3-2-0.5-3.1-0.5c-2.7,0-5.7,1-8.9,2.1c0,0.7-0.1,1.4-0.2,2c-0.9,3.7-3.8,5.3-4.9,5.9l-0.1,0.1
			c-5.8,3.2-11,4.8-16.1,4.8c-2.2,0-4.5-0.3-6.7-0.9c-0.3-0.1-0.7-0.1-1.3-0.1s-1.4,0.1-2.1,0.1c-1,0.1-2.1,0.2-3.2,0.2h-0.6
			c-3.9,0-7.8,0.3-11.9,0.6c-4.2,0.3-8.6,0.6-13,0.6c-4.3,0-8.1-0.3-11.7-0.9c-0.4-0.1-1-0.1-1.6-0.2c-2.7-0.2-8.5-0.6-12-5.7
			c-0.9-0.1-1.9-0.3-2.8-0.4c-2.1-0.3-4.1-0.6-5.8-0.6c-1.9,0-3.2,0.4-4.5,1.2c-1.7,1.1-3.6,1.8-5.5,1.8c-2.3,0-4.6-0.9-6.6-2.5
			c-1-0.8-2-1.6-3.1-2.5c-2-1.5-4-3-5.9-4.9c-0.4-0.4-0.8-0.7-1.1-0.8c0,0.1,0,0.2,0,0.3c-0.2,2.4-1.3,4.6-3.2,6.3
			c-1.7,1.5-3.8,2.3-6,2.3c-3.2,0-5.4-1.6-6.4-2.3l-0.5-0.4c-3.4-2.4-9.6-6.9-8.7-15.7c0.7-6.8,8.6-13,15.6-14.4
			c1.2-7.6,5.9-9.7,9.3-10.3c0.9-1,2-1.8,3.2-2.4c-9.9-11.6-9-27.2,2.4-39c2-2.1,3.6-4,5-5.8c-2.7-2.4-3.4-5.1-3.5-6.9
			c-0.1-1.1,0-3,1.1-5c-0.7-1.9-1.3-3.8-1.9-5.8c-0.3-1-0.7-2-1-3.1c-0.8-2.5-0.3-5.2,1.4-7.2c1.4-1.6,3.3-2.6,5.4-2.6
			c-3.8-0.9-6.8-4.4-8.1-7.7c-2.6-6.4-1.8-13.5,2.2-19.5c4-6.1,10.7-9.9,17.4-10.1c0.8,0,1.5,0,2.3,0c3.3,0,6.1,0,8.3-1.1
			c1.9-1,4.2-1.5,6.5-1.5c2.1,0,4.2,0.5,6.1,1.3c0.2,0.1,0.2,0.1,0.3,0.1c0.7,0,2.5-0.9,3.6-1.4c10.8-5.3,21.4-8.1,32.6-8.5
			c1.8-0.1,4.6-3.3,6.1-5c1.5-1.7,2.9-3.5,4.5-5.4c1.9-2.4,3.9-4.8,6-7.1c0.5-0.6,1-1.4,1.6-2.3c0.7-1.1,1.4-2.3,2.4-3.5
			c3.6-4.5,7.7-8.4,11.3-11.9c0.9-0.9,1.8-1.7,2.6-2.6c3.1-3.2,6.7-6.8,11.1-9.3c2.3-1.3,4.4-3,6.8-4.7c3.6-2.8,7.4-5.6,12.1-7.7
			c1.2-0.5,2.5-1.5,4-2.6c0.4-0.3,0.7-0.5,1.1-0.8c0.1-0.1,0.2-0.2,0.3-0.3c1.3-1.3,4-4,8.3-4c1.1,0,2.5,0.2,3.9,0.8
			c9.9-3,19.7-4.8,28.4-6.1c2.5-2.4,5.1-3,7-3c3.8,0,6.5,2.3,7.9,3.5l0.1,0.1c11.5,2.1,19,9.3,25.6,15.6c2.4,2.3,4.8,4.6,7.2,6.5
			c1.9,1.5,4.1,3.9,4.4,7.4c0.1,1.2-0.1,2.3-0.5,3.4c0.2,0.2,0.3,0.5,0.5,0.7c0.4,0.7,0.9,1.3,1.3,2c2.4,3.5,5.6,8.2,5.5,14.6
			c3,3.6,3.4,7,3.1,9.4c-0.7,6.1-5.9,9.4-7.6,10.5c-0.2,0.1-0.6,0.9-1.2,2.2c-2.3,5.3-4.8,9.8-7.4,13.6c3.5-0.7,7-1.1,10.5-1.1
			c7.3,0,14.7,1.6,22.6,4.7c9.9,4,20.1,6.7,30.9,9.5c2.5,0.7,5,1.3,7.4,2c0.4-0.1,1.2-0.4,1.7-0.7c0.6-0.3,1.2-0.5,1.8-0.7
			c13.9-5.2,27.3-10.5,40.1-15.6c2.2-0.9,4.5-1.8,6.7-2.7c3.7-1.4,7.4-2.9,11.1-4.4c6.1-2.5,11.6-3.7,16.9-3.7
			c8.1,0,15.5,2.9,22,8.6c0.6,0,1.3-0.1,1.8-0.1c6.2,0,8.2,3.9,8.8,5.6c0.9,2.6,0.4,4.8-0.7,6.7c2,2.9,2,5.8,1.4,8.1
			c-0.7,2.8-2.4,4.9-4.8,6.1c1.2,3.4-0.2,6.4-0.9,7.4c-1.7,2.9-4.7,4.6-8.1,4.6c-1.4,0-2.6-0.3-3.4-0.5h-0.1c-0.1,0-0.2,0-0.5,0
			c-1.5,0-3,0.9-3.6,1.6c1.2,1.9,1.6,4.3,0.8,6.6c-1.1,3-3.9,5-7.1,5c-0.3,0-0.6,0-0.9-0.1c-0.4,0-0.7-0.1-1-0.1c-0.2,0-0.4,0-0.6,0
			c0.9,1.1,1.6,2.3,2,3.3c2.7,4.2,1.1,7.8,0.3,9.2c-1.6,2.7-4.4,4.3-7.5,4.3c-1.7,0-3-0.5-3.7-0.7h-0.1c-0.2,0-0.4-0.1-0.7-0.1
			c3.3,3.8,3.4,9,0.1,12.7c-1.8,2-4.2,3.1-6.8,3.1c-1.2,0-2.4-0.2-3.5-0.7c1.7,2.3,2.2,5.3,1.2,8.2c-1.3,3.8-4.7,6.2-8.8,6.2
			c-0.2,0-0.5,0-0.7,0c-0.1,0-0.2,0-0.2,0c-0.4,0-0.8,0.1-1.3,0.1c2.2,1,4.4,1.9,6.6,2.9c1.9,0.8,3.8,1.6,5.7,2.5c0.1,0,0.1,0,0.2,0
			c0.6,0,1.1-0.1,1.7-0.1c5.4,0,8,3.2,9.1,5c0.6,1.1,1.3,2.2,2.1,3.3c2.6,4.1,5.6,8.7,6.3,15c0.9,8.7-8.4,17.9-15.5,21.1l-1.6,0.7
			c-6.8,3.1-13.2,6-18.2,10.6c-2.5,2.4-5.3,3.9-7.8,5.2c-1.8,1-3.4,1.9-4.6,2.9c-0.3,0.2-0.9,0.8-1.2,1.1c-1.4,5.3-5.6,8.7-10.9,8.7
			c-1.6,0-3.2-0.3-4.8-0.9c-3.8-1.4-7.5-2.1-11.3-2.1c-5.4,0-10.9,1.4-16.9,4.2c-0.3,0.1-0.6,0.3-0.9,0.4c-0.2,0.1-0.5,0.2-0.7,0.3
			l-0.1,0.1C333.4,274.8,331.7,275.6,329.5,275.6z M76.6,215.2c4.6,0,8.5,3.5,9.7,8.4c0.1,0,0.1-0.1,0.2-0.1c3-4.6,7.8-5.1,10.1-5.4
			c0.4,0,0.9-0.1,1.2-0.1c3.7-2.9,7.6-4.4,11.8-4.4c1,0,2,0.1,3.1,0.3c-0.8-2.2-0.9-4.9,0.2-8c1.5-4.5,3-8.5,4.4-12.1
			c0.3-0.7,0.4-1,0.4-1.1c0,0,0-0.1-0.1-0.1c-2.5-5.5-1.3-11.5,2.8-15.7c-0.7,0.2-1.5,0.3-2.4,0.3c-2,0-3.8-0.7-5.4-1.9
			c-0.3-0.3-0.6-0.5-0.9-0.8c-4.9,9-12.9,11-17.8,11.3c-0.2,0-0.3,0-0.4,0c-0.1,0.3-0.3,0.8-0.5,1.7c0,0.2-0.1,0.7-0.1,1
			c-1.2,9.2-6.5,10.6-9.6,10.6c-0.1,0-0.3,0-0.4,0c-0.4,0-0.8-0.1-1.2-0.1c-1.3,1.8-3.2,3.2-5.2,3.7c0.1,2.6-0.3,5.2-1.2,7.6
			c-1,2.7-3.1,4.6-5.5,5.6c0.7-0.1,1.4-0.1,2-0.1c0.3,0,0.7,0,1,0c0.2,0,0.5,0,0.7,0c0.3,0,0.5,0,0.5,0
			C74.7,215.3,75.6,215.2,76.6,215.2z M62.6,215.5c0.4,0.4,0.8,0.8,1.2,1.1c0.3,0.3,0.5,0.4,0.7,0.6c0.7-0.4,1.4-0.7,2.1-0.9
			c-0.1,0-0.2,0-0.3,0c-0.8,0-1.6-0.1-2.3-0.3C63.5,215.9,63,215.7,62.6,215.5z M57.1,141c0.4,0.5,0.8,1.1,1.1,1.5
			c0.2-0.2,0.4-0.4,0.7-0.6C58.3,141.6,57.7,141.3,57.1,141z M175.4,112.6c0.2,0,0.3,0,0.5,0c0.4,0,0.8-0.1,1.3-0.4
			c-0.1-0.3-0.2-0.6-0.3-0.8c0-0.2-0.1-0.3-0.1-0.6c-0.5,0.6-1,1.2-1.5,1.8C175.3,112.6,175.4,112.6,175.4,112.6z M204.7,82
			c-1.6,3.4-4.3,6.2-7.8,8.4c-3.7,2.3-6.8,5.2-9.9,8.4c0.8-0.2,1.6-0.3,2.5-0.3c0.1,0,0.3,0,0.4,0c0.6-1,1.6-2.1,2.8-3.2
			c2.7-2.4,6.3-5.2,10.6-5.8c0.6-2.5,2.2-5.2,6.4-7.1c0.1,0,0.2-0.1,0.3-0.1c2.2-1.4,4.8-2.1,7.4-2.1c0.5,0,1,0,1.5,0.1
			c0.3-0.9,0.6-1.8,0.8-2.9c0.3-1.2,0.6-2.5,1.1-3.9c-0.8,0.1-1.6,0.3-2.4,0.4c-4.4,0.7-4.5,0.9-4.9,1.9
			C212.2,79.8,208.2,81.9,204.7,82z"/>
		<path d="M235.3,19.3c2,0,3.7,3,5.7,3.3c13.6,2,20.8,13.2,30.5,20.8c0.9,0.7,2,2,1.3,2.7c-3,3.2,0.1,4.8,1.4,6.9
			c2.7,4.2,6.3,8,5.5,13.6c-0.1,0.8,0.3,2,0.9,2.6c4.3,4.2,2.3,7.2-1.8,9.7c-2.1,1.3-3.1,3.3-4.1,5.5c-3,6.9-6.9,13.9-12.3,18.7
			c-4.9,4.5-10.7,8.3-16.1,12.4c-1.7,1.3-3.3,2.8-4.8,4.3c-2,2.1-3.2,5.5-7.3,5.5c-0.4,0-0.9,0-1.4-0.1c-0.2,0-0.4,0-0.6,0
			c-3,0-6.2,3.7-7.5,7c-1.1,3-2.5,5.1-5.8,5.1c-1.8,0-2.5,0.9-2.9,2.4c-0.5,2,1.1,2.4,2.3,3c0.9,0.4,1.7,1.4,2.7,1.4
			c0.4,0,0.9-0.2,1.4-0.8c0.8-0.9,1.7-2,2.1-3.1c0.6-1.6,1.8-2.5,2.9-2.5c0.4,0,0.7,0.1,1.1,0.3c2.3,1.2,0.5,2.9-0.4,4.3
			c-0.2,0.3-0.3,0.8-0.7,2.1c6.2-2.1,9.8-6.6,14.6-9.1c0.9-0.5,1.6-1.4,2.6-1.4c0.3,0,0.7,0.1,1.1,0.5c1.7,1.5-1.3,2.2-0.5,4.1
			c4-2.1,7.9-4.2,10.8-7.7c1-1.2,2.2-2.8,3.7-2.8c0.3,0,0.6,0.1,0.9,0.2c2.1,0.8,0.5,3.1,0.9,5.1c6.6-2.4,12.9-4.8,17.4-10.4
			c0.8-1,1.7-1.8,2.8-2.4c0.6-0.3,1.1-0.4,1.6-0.4c1,0,1.9,0.5,2.5,1.5c1,1.4-0.3,2.3-1.1,3.2c-1,1-2.1,1.8-3.2,2.8
			c1.2,1.4,2.4,2,3.7,2c1.2,0,2.3-0.5,3.6-1.2c4.4-2.7,9-4.6,14.6-5.9c-4-1.5-8.1-3.1-12.1-4.5c-3.3-1.1-6.5-1.6-9.6-1.6
			c-5.7,0-11.3,1.8-16.9,4.9c-8.9,4.9-18.4,8.8-28,12.1c-1.5,0.5-3.1,1.1-4.9,1.1c-0.6,0-1.1-0.1-1.8-0.2c0.2-2.1,1.9-3.2,3.4-4
			c11.5-6.7,22.2-14.6,34.8-19.6c5.6-2.2,11-3.2,16.3-3.2c6.6,0,13.2,1.5,19.8,4.2c12.8,5.2,26.3,8.3,39.6,11.9
			c0.5,0.1,1,0.2,1.5,0.2c2.2,0,4.2-1.2,6.2-1.9c13.5-5.1,26.9-10.3,40.2-15.6c6-2.4,12-4.7,17.9-7.1c4.9-2,9.5-3.2,14-3.2
			c6.2,0,12,2.1,17.5,7.2c0.7,0.7,1.4,1.2,2.3,1.4c0.3,0.1,0.6,0.1,1,0.1c0.9,0,2-0.1,2.9-0.1c2.1,0,3.1,0.6-1.7,4.3
			c-1.6,1.2,0.3,2.1,1.3,2.8c1.4,1,3.3,1.8,2.7,3.9c-0.3,1.1-0.9,1.3-1.7,1.3c-0.5,0-1-0.1-1.4-0.1c-0.1,0-0.3,0-0.4,0
			c-2.5,0.3-3.6,2.5-4.6,4.4c-1,1.8,1.3,2.2,2.2,3.1c0.8,0.8,1.9,1.5,1.1,2.7c-0.4,0.7-1,0.9-1.6,0.9c-0.5,0-1.1-0.2-1.7-0.3
			c-0.7-0.2-1.5-0.3-2.3-0.3c-4.5,0-9.6,2.9-10.9,7.1c-0.6,1.8-2.6,1.9-2.6,3.8c1.1,0.7,2.4,1.5,3.7,2.3c-0.7-0.1-1.3-0.1-2-0.1
			c-6.7,0-10,4.7-13.6,10.4c0.7-0.1,1.4-0.1,2-0.1c3,0,5.2,0.8,6.3,3.8c0.3,0.7,1.1,1.2,0.6,2c-0.3,0.5-0.7,0.7-1.1,0.7
			s-0.9-0.2-1.4-0.4c-0.7-0.3-1.6-0.3-2.3-0.6c-1.1-0.5-2.1-0.7-3-0.7c-4.1,0-6.4,4.1-9.4,6.3c-1.3,0.9-0.5,1.8,0.8,2.3
			c2.2,0.7,3.3,2.8,4.9,4.4c0.9,0.8,1.3,1.9,0.4,2.9c-0.4,0.4-0.8,0.6-1.2,0.6c-0.6,0-1.1-0.3-1.7-0.8c-0.5-0.4-0.9-0.8-1.4-1.2
			c-2.2-1.8-3.7-2.8-4.9-2.8c-1.5,0-2.7,1.4-4.5,4.3c-1.7,2.8-3.4,5.6-5.1,8.4c2.3,0.8,4.7,1.6,7,2.5c0.9,0.4,1.6,1.1,1.3,2.2
			c-0.3,0.8-1,1.1-1.7,1.1c-0.1,0-0.1,0-0.2,0c-0.3,0-0.5,0-0.8,0c-3.4,0-6.7,1.6-10.2,1.6c-0.5,0-1.1,0-1.6-0.1
			c-0.3,0-0.5-0.1-0.8-0.1c-3.3,0-4.6,3.6-7.3,5.5c9.5,5.3,19.1,9.1,28.5,13.3c0.5,0.2,1.1,0.3,1.7,0.3c0.8,0,1.6-0.1,2.3-0.1
			c1.1,0,2,0.2,2.6,1.3c2.8,4.9,6.8,9.4,7.4,15.4c0.4,4.1-5.7,11-11.2,13.5c-7.6,3.5-15.4,6.8-21.7,12.6c-3.6,3.3-8.5,4.7-12.2,8
			c-1.6,1.4-3,2.7-3.5,4.7c-0.6,2.4-2,3.3-3.7,3.3c-0.7,0-1.5-0.2-2.2-0.4c-4.7-1.8-9.3-2.6-13.9-2.6c-6.8,0-13.5,1.8-20.1,4.9
			c-0.6,0.3-1.1,0.5-1.7,0.8c-0.5,0.2-1,0.5-1.5,0.5c-0.4,0-0.7-0.1-1-0.5c-0.8-1,0-1.8,0.6-2.4c3.5-3.2,5.4-7.8,9.9-10.4
			c-2.5-2-5-2.7-7.4-2.7c-2.9,0-5.7,0.9-8.5,1.8c-1,0.3-2,1.1-3,1.1c-0.5,0-0.9-0.2-1.3-0.7c-1.7-2,1.1-2.4,1.8-3.6
			c1-1.9,2.5-3.6,3.4-5.6c0.5-1.2,1.4-2.6,2.3-2.6c0.1,0,0.1,0,0.2,0c0.5,0.1,1,0.2,1.4,0.2c4.3,0,5.9-5.5,10-5.5c0.2,0,0.4,0,0.6,0
			c1,0.1,2.4,0.5,2.9,1.3c2.7,4.2,6.7,5.1,11.2,5.5c0.5,0,0.9,0.3,1.4,0.3c0.2,0,0.5-0.1,0.7-0.2c6-3.7,12.6-6.4,17.3-12
			c2-2.3,0.9-7.3-1.8-8.8c-4.2-2.4-8.2-5-12.6-7c-1.5-0.7-2.9-1.1-4.2-1.1c-1.2,0-2.4,0.3-3.5,0.9c-6.3,3.5-13.3,3.4-20.1,4
			c-1.2,0.1-2.2,0-2.9,1c-4.6,6.3-12,7.1-18.5,7.8c-10.3,1.1-20,4.2-29.9,6.4c-5.8,1.3-11.7,2.2-17.6,2.2c-1.1,0-2.2,0-3.2-0.1
			c-0.3,0-0.7,0-1,0c-4.2,0-8.1,1.5-12.1,1.5c-0.7,0-1.4,0-2.1-0.2c-3-0.5-6-0.6-9-0.6c-4.8,0-9.5,0.4-14.3,0.4
			c-2.4,0-4.8-0.1-7.2-0.4c-0.5-0.1-1.1-0.1-1.6-0.1c-3.6,0-7.4,1.1-11.1,1.1c-0.7,0-1.5,0-2.2-0.1c-0.9-0.1-1.7-0.2-2.5-0.2
			c-6.7,0-13,3.4-19.5,3.4c-1.7,0-3.3-0.2-5-0.8c-1.8-0.6-3.6-0.8-5.4-0.8c-4.3,0-8.3,1.5-12.3,2.9c-2.5,0.9-8.1,0.9-4.2,6.5
			c0.5,0.8-0.4,1.2-1.2,1.6c-4,2.2-8.1,3.8-12.5,3.8c-1.5,0-3.1-0.2-4.7-0.6c-1.1-0.3-2.2-0.4-3.3-0.4c-1.8,0-3.6,0.3-5.4,0.3H121
			c-0.2,0-0.3,0-0.5,0c-8.3,0-16.6,1.2-24.9,1.2c-3.5,0-7-0.2-10.4-0.8c-3.6-0.6-8,0.4-9.7-4.5c-0.2-0.6-1.6-1-2.5-1.1
			c-3.8-0.4-7.6-1.3-11.4-1.3c-3,0-5.9,0.6-8.7,2.6c-0.4,0.3-0.8,0.4-1.2,0.4c-0.6,0-1.1-0.3-1.7-0.8c-2.8-2.4-6-4.4-8.7-7
			c-2.4-2.3-4.8-3.2-7.4-3.2c-2.1,0-4.3,0.6-6.5,1.5c-2.7,1-2.8,2-1.1,4c0.8,0.9,1.8,2.1,0.5,3.2c-0.3,0.3-0.7,0.4-1,0.4
			c-0.7,0-1.4-0.5-2-0.9c-3.2-2.3-6.7-4.5-6.2-9.3c0.3-3.3,6.6-8,11.1-8c0.1,0,0.2,0,0.3,0c0.5,0,0.9,0,1.2,0c1.8,0,2.6-0.5,2.7-3.3
			c0.1-2.7-0.1-6.9,4.2-6.9c0.4,0,0.8,0,1.3,0.1c0.1,0,0.2,0,0.2,0c1.1,0,1.2-1.5,1.8-2.3c0.7-0.9,1.6-1.2,2.5-1.2
			c0.6,0,1.2,0.1,1.7,0.2c0.8,0.2,1.8,0.8,2.4,0.8c0.1,0,0.2,0,0.3-0.1c1.5-1,2.8-1.4,4-1.4c3.1,0,5.3,3,7.8,5.1
			c1.7,1.5,3.6,2.5,5.6,2.5c1.1,0,2.2-0.3,3.4-1c1.1-0.7,2.4-0.8,3.6-0.8c0.6,0,1.1,0,1.7,0c0.9,0,1.9-0.1,2.8-0.4
			c0.2-0.1,0.4-0.1,0.5-0.1c1.2,0,2.2,1.4,2.5,3c0.2,1.2,0.5,2.4,0.7,3.7c0.3,2.2,1,3.4,2.5,3.4c0.6,0,1.4-0.2,2.3-0.6
			c2.8-1.3,6.1-1.3,8.2-4.6c1.9-2.9,6.3-1,9.3-3.4c2.5-2,5-3,7.4-3c3.3,0,6.5,1.7,9.6,4.7c1.8,1.7,3.5,2.5,4.9,2.5
			c1.7,0,3.2-1.2,4.1-3.4c0.1-0.3,0.6-0.7,0.5-0.7c-3.6-4.8,2.2-10.8-2.3-15.6c-0.1,0-0.2,0-0.2,0c-1.1,0-1.4,1.4-2.2,2.1
			c-0.8,0.8-1.3,2.1-2.4,2.1c-0.3,0-0.5-0.1-0.9-0.3c-1.6-0.9-1.3-2.8-0.8-4.3c1.3-3.9,2.7-7.9,4.3-11.7c0.9-2.4,1.4-4.5,0.2-7.1
			c-1.6-3.6,0-6.9,3.1-8.9c5.7-3.5,8.2-8.4,8.4-15c0-1.1,0.4-1.8-0.5-1.8c-0.2,0-0.5,0-0.9,0.1c-0.6,0.1-1.1,0.2-1.4,0.2
			c-1.9,0-1.3-1.7-0.4-3.3c0.8-1.3,1.8-3.3,3-3.5c6.6-1.2,4.6-5.7,4.1-9.6c-0.3-2.8,0.5-5.7-1.3-8.2c-7,2.6-2.7,8.4-3.2,12.6
			c-0.3,0.1-0.5,0.1-0.7,0.1c-1.2,0-1.3-1.2-1.9-1.7c-1.3-1-1.7-3.5-3.7-3.5c-0.5,0-1,0.1-1.6,0.5c-3.1,1.5-5.1,3.2-4.1,7.1
			c1.4,5.3-0.3,9.9-3.8,14c-0.4,0.5-0.9,1.2-1.6,1.2c-0.2,0-0.5-0.1-0.7-0.3c-0.4-0.3-0.5-1.6-0.2-2.2c1.4-2.9,1.6-5.8,0.6-8.7
			c-0.6-1.8-1.5-2.9-2.8-2.9c-0.7,0-1.6,0.4-2.6,1.2c-2.4,2-4.2,4.4-5,7.8c-1.7,7.4-5.7,13.2-13.9,13.7c-5.3,0.3-6.8,3.3-7.7,7.4
			c-0.5,2.2-0.2,5.9-2.5,5.9H83c-2.4-0.1-0.3-3.8-1.2-5.8c-0.5-1.1-0.1-2.8-0.4-4.2c-1.2,4.6-6.4,7.3-5.9,12.7
			c0,0.4-0.7,1.1-1.2,1.2c-0.1,0-0.1,0-0.2,0c-0.9,0-0.9-0.9-1-1.6c-0.6-7.9,1.7-14.5,7.7-19.9c0.7-0.6,2.6-0.1,1.8-2
			c-0.5-1.1-1.4-1.5-2.3-1.5c-0.4,0-0.9,0.1-1.2,0.3c-2.9,1.4-6,2.4-7.9,5.6c-4.2,7.2-6.3,14.6-3.2,22.8c1,2.7,1.2,5.6,0.1,8.3
			c-0.3,0.7-0.9,1.4-1.8,1.4c-0.1,0-0.3,0-0.5-0.1c-1.2-0.3-0.6-1.2-0.4-1.9c0.3-1.1-0.3-1.8-0.8-2.6c-3.7-6.1-4.6-12.6-2.9-19.5
			c0.3-1.1,1.5-3-0.4-3.7c-0.2-0.1-0.3-0.1-0.5-0.1c-1.2,0-1.9,1.5-2.7,2.4c-2.7,3.2-5.7,6.4-3.3,11.6c-5.7-3.6-5.5-9.8,0-15.1
			c1.2-1.2,2.8-2.1,4.1-3.2c0.6-0.5,1.9-0.8,1.3-2c-0.2-0.5-0.5-0.6-0.8-0.6c-0.5,0-1,0.5-1.5,0.7c-4.8,2.5-9.9,5.7-12,10.3
			c-2.3,5.1-3.4,11.5-0.4,17.1c1.6,3,4.1,4.6,7.4,4.6c0.6,0,1.1,0,1.8-0.1c0.9-0.1,1.8-0.7,2.8-0.7c0.4,0,0.9,0.1,1.3,0.4
			c-1.4,2.2-4.4,3.4-7.4,3.4c-2.7,0-5.5-0.9-7.2-2.8c-8-8.9-7.3-20.2,1.6-29.5c2.2-2.2,4.2-4.6,6.1-7.1c2.2-3,3.2-6.2-0.7-8.9
			c-1.8-1.2-2.7-2.8-0.7-4.6c1.5-1.3,0.4-2.5-0.1-3.8c-1.1-3-2.1-6.1-3.3-9.8c3.7,0.6,4.5,3.4,6.2,5.2c1.6,1.7,3.3,2.6,5,2.6
			c1.4,0,2.8-0.7,4-2.1c1.4-1.6,2.8-2.7,4.6-2.7c0.7,0,1.5,0.2,2.3,0.5c0.4,0.2,0.7,0.2,1,0.2c1.9,0,3.1-2.5,5.4-2.5
			c0.1,0,0.2,0,0.3,0c0.1,0,0.3,0,0.4,0c1.8,0,3.9-1.1,4.7-4.3c0.9-3.9,4.9-5.4,9-5.6c0.1,0,0.2,0,0.4,0c0.9,0,1.8,0.1,2.7,0.1
			c1.2,0,2.3-0.2,3.5-0.9c-3.1-2.6-6.2-5-9.1-7.6c-0.5-0.5-0.9-0.6-1.3-0.6c-0.8,0-1.2,0.9-1.6,1.4c-3.1,4.2-8,5.9-12.2,8.4
			c-1.4,0.8-2.9,1.2-4.3,1.2c-3.7,0-7.4-2.3-10.9-3.9c-2.8-1.3-4.7-4.3-8.3-4.3h-0.1l0,0c-0.9,0-2.5-1.6-3.1-3.2
			c-3.8-9.6,4.6-19.1,12.8-19.3c4.6-0.1,9.3,0.3,13.8-2c0.8-0.4,2-0.7,3.1-0.7c1,0,2,0.2,2.9,0.6c1.2,0.6,2.4,0.8,3.5,0.8
			c2.4,0,4.6-1.1,6.9-2.2c9.3-4.6,19-7.3,29.5-7.7c4.8-0.2,8.4-4,11.5-7.6c3.5-4.1,6.8-8.4,10.4-12.5c1.7-1.9,2.7-4.2,4.2-6.1
			c3.2-4,6.9-7.6,10.6-11.2c3.9-3.8,7.6-8.2,12.3-10.8c6.3-3.6,11.4-9.1,18.1-12c2.5-1.1,4.5-2.7,6.7-4.3c1.2-0.8,2.4-2.9,4.1-2.9
			c0.7,0,1.5,0.4,2.5,1.5c0,0,0.1,0,0.2,0c0.2,0,0.4-0.1,0.6-0.1c10.8-3.6,21.9-5.6,33.1-7.2C233.4,19.9,234.4,19.3,235.3,19.3
			 M204.3,74.6c-0.1,0-0.1,0-0.2,0c-0.3,0-0.6-0.1-0.9-0.1c-2.7,0-4.1,1.8-5.2,4.2c-1.1,2.4-3,4.1-5.1,5.5
			c-11.1,6.9-17.9,18.1-26.8,27.3c-0.4,0.4-1.1,1.2-1,1.5c1.3,3-1,2.8-2.6,3.9c-1.9,1.3-5.2,3.3-3.4,6s0.7,3.7-0.8,3.7
			c-0.3,0-0.7,0-1-0.1s-0.7-0.1-0.9-0.1c-1.5,0-2.2,1-3.4,1.7c-1.6,0.9-4.2,0.8-2.6,3.6c0.9,1.4,1.8,3.2,3.5,3.2
			c0.7,0,1.4-0.3,2.4-0.9c1.3-0.9,3.4-0.6,5-1c3.5-0.9,6.5-2.6,8.7-5.6c-0.6-0.5-1.2-0.6-1.8-0.6c-0.9,0-1.7,0.5-2.5,0.7
			c-0.4,0.1-0.7,0.2-1,0.2c-0.6,0-1-0.3-1.3-0.9c-0.4-0.9,0.3-1.5,0.9-2c2.8-2,5.8-4.7,9-4.7c0.3,0,0.6,0,1,0.1
			c0.6,0.1,1.2,0.1,1.7,0.1c5.1,0,7.8-4,11.6-6.3c2.3-1.4,1.7-3.2-1.2-3.6c-1.8-0.2-3.2-0.8-1.2-2.4c1.2-0.9,2.9-1.9,4.5-1.9
			c0.7,0,1.5,0.2,2.1,0.7c1.2,1,2.2,1.4,3,1.4c1.9,0,3.2-1.9,5-3.6c-3.9-0.1-4.7-1.1-2-3.6c2.2-1.9,4.9-4,7.3-4c0.3,0,0.6,0,0.9,0.1
			c0.6,0.2,1.1,0.2,1.6,0.2c2.9,0,4.4-2.3,7-3.1c-1.3-2-4,0-4-2.5c0-1.9,2-2.2,3.3-3c1.1-0.7,2.3-1,3.5-1c0.7,0,1.3,0.1,1.9,0.3
			c0.6,0.2,1.2,0.3,1.7,0.3c1.6,0,2.7-1,3.7-2.7c2.9-4.8,2.1-11.3,6.9-15.3c0.2-0.2,0.3-1.1,0.1-1.2c-2-1.7-2-4.9-4.1-6.1
			c-0.2-0.1-0.3-0.1-0.4-0.1c-1,0-1.5,2.5-3,2.7c-1.4,0.2-2.8,0.3-4.2,0.6c-5.2,1-11.1,0.7-13.5,7.2C206.3,73.9,205,74.6,204.3,74.6
			 M235.3,4.3c-2.5,0-6.4,0.6-10.2,3.4c-7.8,1.2-16.4,2.8-25.1,5.3c-1.6-0.4-2.9-0.5-4-0.5l0,0c-7.2,0-11.7,4.4-13.5,6.2
			c-0.2,0.2-0.4,0.3-0.7,0.5c-0.9,0.7-2.1,1.5-2.6,1.7c-5.6,2.4-9.9,5.7-13.7,8.6c-2.1,1.6-4.1,3.1-6,4.2c-5.3,3.1-9.3,7-12.7,10.6
			c-0.9,0.9-1.7,1.7-2.5,2.5c-3.8,3.6-8,7.8-11.9,12.6c-1.2,1.6-2.2,3-2.9,4.2c-0.3,0.5-0.7,1.1-0.9,1.3c-2.2,2.5-4.2,5-6.2,7.4
			c-1.5,1.8-2.9,3.6-4.3,5.2c-1,1.1-1.8,2-2.3,2.5c-11.7,0.6-22.8,3.6-34,9.1c-0.1,0-0.2,0.1-0.3,0.1c-2-0.6-4.2-0.9-6.3-0.9
			c-3.5,0-6.9,0.8-9.8,2.3c-0.6,0.3-3.3,0.3-5,0.3c-0.8,0-1.6,0-2.4,0c-9.1,0.2-18.1,5.4-23.5,13.5c-5.3,8-6.4,17.6-2.9,26.4
			c0.6,1.6,1.5,3.1,2.5,4.6c-2.3,3.7-2.8,8.3-1.4,12.6c0.4,1.1,0.7,2.1,1,3c0.4,1.1,0.7,2.2,1.1,3.3c-0.5,1.8-0.7,3.7-0.6,5.6
			c0.1,1.5,0.5,3.7,1.6,6c-0.3,0.3-0.6,0.7-1,1c-6.9,7.2-10.9,15.6-11.4,24.5c-0.3,5.9,0.9,11.7,3.6,17c-3.3,1.9-6,4.9-7.7,8.6
			c-0.1,0.3-0.3,0.6-0.4,1c-8.3,3.3-15.9,10.7-16.8,19.6c-1.4,13.2,8.2,20,11.8,22.6l0.5,0.4c1.3,0.9,5.2,3.7,10.8,3.7
			c4,0,7.9-1.5,10.9-4.1c0.2-0.2,0.4-0.4,0.7-0.6l0.1,0.1c1,0.8,2,1.5,2.8,2.2c4.2,3.6,8.5,4.3,11.4,4.3c3.4,0,6.7-1,9.6-3
			c0.1,0,0.2,0,0.4,0c1.2,0,2.9,0.3,4.7,0.5h0.1c1.7,1.7,3.8,3.1,6.1,4.2c3.7,1.6,7,1.8,9.3,2c0.3,0,0.8,0.1,1,0.1
			c4,0.7,8.2,1,12.9,1c4.7,0,9.2-0.3,13.5-0.6c4-0.3,7.8-0.6,11.4-0.6h0.4h0.2c1.5,0,2.8-0.1,3.8-0.2c0.5,0,1-0.1,1.4-0.1
			c2.7,0.7,5.4,1,8.1,1c6.4,0,12.9-1.9,19.8-5.7h0.1c3.9-2.1,6.6-5.1,7.9-8.7c0.9-0.3,1.8-0.4,2.4-0.4c0.3,0,0.5,0,0.7,0.1
			c3.1,1,6.3,1.5,9.7,1.5c5.2,0,9.8-1.2,13.5-2.2c2.4-0.6,4.6-1.2,6-1.2c0.2,0,0.3,0,0.4,0c1.4,0.2,2.8,0.3,4.3,0.3
			c2.9,0,5.6-0.4,7.8-0.7c1.2-0.2,2.6-0.4,3.3-0.4l0,0c2.7,0.3,5.5,0.4,8.8,0.4c2.7,0,5.2-0.1,7.7-0.2c2.3-0.1,4.5-0.2,6.6-0.2
			c2.7,0,4.9,0.1,6.8,0.4c1.4,0.2,2.9,0.3,4.4,0.3c3.4,0,6.4-0.6,8.8-1c1.3-0.2,2.7-0.5,3.4-0.5h0.1c1.4,0.1,2.7,0.1,4.1,0.1
			c6.4,0,13-0.8,20.9-2.6c3.2-0.7,6.4-1.5,9.4-2.3c5.2-1.3,10.1-2.5,15-3.3c-1.4,2-2.2,4.3-2.5,6.8c-0.6,4.6,0.8,9.2,3.9,12.9
			c1.7,2,3.7,3.5,6,4.5c0.4,3.1,1.6,6,3.5,8.4c3.1,3.9,7.8,6.1,12.7,6.1c4,0,6.9-1.5,8.1-2h0.1c0.1-0.1,0.3-0.1,0.4-0.2
			c0.4-0.2,0.7-0.3,1.1-0.5c5-2.4,9.4-3.5,13.7-3.5c2.9,0,5.7,0.5,8.6,1.6c2.5,0.9,5,1.4,7.5,1.4c7.8,0,14.5-4.7,17.4-12
			c0.7-0.5,1.9-1.1,2.9-1.7c2.7-1.5,6-3.3,9.3-6.3c4.1-3.8,9.9-6.4,16.1-9.2l1.6-0.7c9.1-4.1,21.3-15.7,19.9-28.7
			c-0.8-8-4.7-13.9-7.4-18.2c-0.7-1.1-1.4-2.1-1.9-3c-2.7-4.7-7-7.7-12.3-8.6c0.3-0.6,0.6-1.3,0.8-2c0.4-1.1,0.6-2.2,0.8-3.3
			c2.6-0.9,4.9-2.5,6.8-4.6c2.7-3,4.2-6.6,4.4-10.3c3.5-1.3,6.5-3.7,8.5-7c0.9-1.5,3.1-5.8,2-11.2c2.7-1.8,4.8-4.4,6-7.6
			c0.3-0.9,0.5-1.7,0.7-2.6c5.6-0.3,10.6-3.3,13.6-8.2c1.3-2.2,2.3-4.9,2.4-7.9c2-2,3.4-4.6,4.1-7.6c0.5-2.1,1.1-6.1-0.5-10.4
			c0.9-3.8,0.1-7-0.4-8.6c-1.7-5-6.6-10.3-15.1-10.6c-7.4-5.7-15.6-8.5-24.6-8.5c-6.3,0-12.8,1.4-19.8,4.3
			c-3.6,1.5-7.1,2.9-10.9,4.4c-2.3,0.9-4.5,1.8-6.8,2.7c-12.7,5.1-26.1,10.3-39.9,15.5c-0.5,0.2-0.9,0.3-1.3,0.5
			c-1.7-0.4-3.4-0.9-5-1.3c-10.6-2.8-20.6-5.4-30-9.2c-7.8-3.1-15.2-4.9-22.5-5.2c0.3-0.7,0.6-1.3,0.9-2l0,0c5.6-4,8.8-9,9.4-14.9
			c0.4-3.3,0-7.9-3.1-12.7c-0.6-7.4-4.3-12.8-6.7-16.3c0,0,0-0.1-0.1-0.1c0.1-0.8,0.1-1.5,0-2.3c-0.3-4.9-2.9-9.4-7.2-12.8
			c-2.1-1.7-4.3-3.8-6.6-6c-6.7-6.4-14.9-14.3-27.5-17.2C244.4,6.7,240.6,4.3,235.3,4.3L235.3,4.3z M99.7,192.3
			c3.3-0.8,6.3-2.1,9-3.9c0.1,1.4,0.4,2.9,0.8,4.3c-1.3,3.3-2.5,6.8-3.9,10.8c-0.4,1.1-0.6,2.1-0.8,3.1c-3,0.6-6.4,1.8-9.9,4.2
			c-1.6,0.2-4.1,0.6-6.6,1.7c-1.5-1.4-3.2-2.6-5.1-3.4c0.1-0.6,0.2-1.2,0.3-1.8c0.4-0.3,0.7-0.5,1.1-0.8c6.3-0.5,11.6-4.5,14.1-10.7
			C99.2,194.5,99.5,193.3,99.7,192.3L99.7,192.3z"/>
	</g>
</g>
</svg>
