<?xml version="1.0" encoding="utf-8"?>
<!-- Generator: Adobe Illustrator 24.1.0, SVG Export Plug-In . SVG Version: 6.00 Build 0)  -->
<svg version="1.1" id="Livello_1" xmlns="http://www.w3.org/2000/svg" xmlns:xlink="http://www.w3.org/1999/xlink" x="0px" y="0px"
	 viewBox="0 0 474 326.8" style="enable-background:new 0 0 474 326.8;" width="50" height="50" xml:space="preserve">
<style type="text/css">
	.st0{fill:#FEFEFE;}
</style>
<g>
	<path class="st0" d="M197.9,312c-0.3,0-0.6,0-0.9,0c-8-0.4-16-1.3-23.8-2.6c-4.5-0.8-6.8-3.7-8.1-5.2c-0.1-0.2-0.3-0.4-0.5-0.5
		c-2.5-1.9-4.2-4.3-5.6-6.3c-0.7-1-1.4-1.9-2-2.6c-5.1-5.6-4-11.8-3.3-15.5c0.2-1.1,0.4-2.4,0.3-2.9l-0.2-1.2
		c-0.4-2.8-0.8-5.2-1.8-7.1c-1.3-2.4-2.4-4.7-3.4-7c-1.7-3.7-3.2-7.2-5.4-10c-2.1-2.6-2.3-5.8-2.2-7.5c0.1-4.7-1.8-9.2-4-14.5
		c-0.5-1.2-1-2.5-1.5-3.7l-0.2-0.5c-0.8-1.9-2.4-5.7-0.6-10.1c0.6-1.4,0.4-3.3-0.1-6.2c-0.2-1.5-0.4-3-0.5-4.7l-0.1-1
		c-0.2-2.9-0.4-6.3,2.3-9c0.5-0.5,1-0.9,1.5-1.3c-0.5-1.6-1-3.2-1.5-4.8c-0.8-3-2.8-5.7-5-8.9c-2.8-4-5.9-8.5-7.4-14.3
		c-0.2-0.8-0.4-1.6-0.7-2.5c-0.6-2-1.4-4.4-1.6-7c-5.3-0.5-10.1-2.2-14.3-3.8c-2.1,3.3-4.4,6.9-7.2,10.2c-3.5,4.3-8.7,6-12.5,6.7
		c-0.5,0.1-1.1,0.3-1.8,0.5c-1.8,0.5-4,1.2-6.6,1.2c-0.4,0-0.9,0-1.3-0.1c-2.3,2.3-4.9,3.9-7.1,5.2c-0.4,0.3-0.9,0.5-1.3,0.8
		c1.9,2.5,3.1,5.6,3.7,9.3c0.4,2.3,0.8,3.2,0.9,3.4c5.1,4.8,6.5,10.8,4.1,17.4c-0.4,1.1-0.9,2.2-1.3,3.1c-0.9,2.1-1.5,3.5-1.4,4.6
		c0.2,2-0.4,4-1.6,5.5c0.9,2.3,1.1,4.6,0.6,6.9c-0.7,2.9-2.5,5.5-5.2,7.3c1.8,5.6,3,11.2,4.1,16.7c1.8,8.5,3.5,16.5,7.1,23.6
		c2,3.9,1.5,7.9-1.4,11.9c0,0.8-0.1,1.5-0.2,2.1c0,0.3-0.1,0.6-0.1,0.8c0.2,2.2-0.4,4-1.1,5.1C81.2,302,75,306,73,307.1
		c-1.6,0.8-4,1.9-6.8,1.9c-1.6,0-6.1-0.4-8.7-5.2c-0.7-0.1-1.4-0.3-2-0.6c-1.9-0.9-3.3-2.4-3.9-4.4c-1.1-3.1-1.7-6.1-2.2-8.9
		c-0.3-1.7-0.7-3.4-1.1-4.9c-0.9-3.4-2.7-6.6-5.4-9.5c-4.1-4.4-7.1-9.2-10-13.9c-2.1-3.3-4.1-6.5-6.4-9.3c-3.9-4.9-5-12.3-2.8-18.4
		c0-0.1,0.1-0.3,0.2-0.5c-1.2-2.9-2.5-6.5-2-11.1c-0.1-0.1-0.2-0.2-0.2-0.2c-0.8-0.8-1.9-1.9-2.7-3.2c-5.6-8.2-4.1-15.8-2.4-20.9
		c0.3-0.8,0.5-1.6,0.8-2.4c2.5-7.5,4.8-14.6,4.2-21.8c-0.5-5.6,2-9.9,3.8-13.1c0.7-1.2,1.3-2.3,1.7-3.3c4.1-11.4,8.3-21,12.9-29.3
		c1.5-2.7,3.6-4.9,5.4-6.8c1.1-1.1,2.1-2.2,2.8-3.2c4-5.4,8.4-11.2,13.5-16.1c1.6-1.5,2.8-3.3,4.3-5.5c0.5-0.8,1.1-1.5,1.6-2.3
		c0.1-0.1,0.2-0.2,0.3-0.4c1.1-1.6,3.9-5.7,9.5-5.7c0.2,0,0.4,0,0.6,0c0.1-0.1,0.2-0.1,0.3-0.2c1.5-1,3-2.1,4.6-3.2
		c0.7-0.5,1.3-1,2-1.4c0.9-0.6,1.8-1,2.9-1.2c0.6-0.1,1.3-0.2,1.9-0.2c2.7,0,5.1,1.2,6.6,3.3c0.9,1.2,2.3,3.9,1.2,7.6
		c0,0.1,0,0.1-0.1,0.2c-0.2,0.7-0.5,1.3-0.8,1.8c4,0.8,7.3,2.7,9.7,4.3c0.2,0,0.5,0,0.9,0c2.9,0,6-1,7.1-1.6
		c5.1-7.8,13.1-10,17.5-11.2c1.5-0.4,2.8-1.4,4.7-3.1c1.1-0.9,2.4-2,3.8-3c1.9-1.3,3.3-3.4,4.9-5.9c2.1-3.3,4.5-7,8.7-9.8
		c0.4-0.6,1.1-2.1,1.5-3c0.1-0.3,0.3-0.7,0.4-1c4.6-10.2,12.4-17.5,23.3-21.7c1.6-0.6,3.1-2,4.9-3.7c1.2-1.1,2.5-2.3,4-3.4
		c0.3-0.3,0.7-0.5,1-0.8c2.2-1.8,5.6-4.5,11.4-4.5c0.2,0,0.4,0,0.6,0c1.2-0.1,4.5-2.8,6.1-4l0.3-0.2c0.2-0.2,0.4-0.4,0.6-0.5
		c1.5-1.3,4.2-3.7,8.4-3.7c1.3,0,2.6,0.2,3.8,0.7c2.4-1.8,5.7-3.7,9.7-3.7c2.1,0,5,0.6,7.9,2.9c1.9-0.7,3.5-1.1,5.2-1.1
		c3.8,0,7,1.7,9.2,4.9c3.3,0.4,6.4,1.1,9.4,1.8c3.8,0.9,7.4,1.7,10.8,1.7c0.3,0,0.7,0,1,0c0.3,0,0.6,0,0.9,0
		c6.8,0,12.4,3.8,15.2,10.1c1.8,4.2,4.8,7.2,9.4,9.3c3.2,1.5,5.3,3.7,7.1,5.7c2.7-2.3,6.2-4.2,10.8-4.8c0.3,0,0.7-0.1,1-0.1
		c2,0,3.9,0.8,5.3,2.2c1.7,1.7,2.4,4,2.1,6.3c-0.5,4.1-2.3,7-3.7,9.4c-0.6,1.1-1.2,2.1-1.5,2.8c-1.5,4.6-1.3,4.7,2,7.2
		c15.5,11.5,24.1,26.1,25.6,43.4c0.4,4.5,0.3,8.4-0.1,12.1c-0.2,1.3,0,2.4,1.5,4.1c2.4,2.6,4.4,5.5,5.7,8.5c1.2,2.7,1.6,2.8,2,2.9
		c3.9,1,6.9,3.8,8.3,7.8c3.4,1,5.8,3.8,6.2,7.4c0,0.2,0.1,0.7,1.4,1c6.2,1.5,9.5,5.6,12,8.6c1,1.2,2,2.4,2.7,2.9
		c4.1,2.5,7.2,5.2,10.1,8.8c6.1,7.6,7.7,16,9.1,23.4c0.5,2.5,0.9,4.8,1.5,7.1l0.2,0.9c2.3,8.9,4.3,16.6,11.5,21.6
		c3.6,2.5,5.7,2.8,7.1,2.8c1.2,0,2.5-0.3,3.9-0.9c1.6-0.6,3.2-0.9,4.7-0.9c4.9,0,8.8,3.3,9.9,8.5c0.1,0.1,0.4,0.2,0.7,0.4
		c8.3,3.8,13.9,16.7,13.1,25.1c-1,11.2-7.5,18.1-19.4,20.6c-0.2,0-0.3,0.1-0.5,0.2c-1,0.3-2.5,0.8-4.3,0.8c-3.1,0-5.9-1.4-7.6-3.9
		c-0.1-0.1-0.4-0.5-0.7-1.1c-2.6-0.4-5.2-1.3-7.9-3.2c-3.2-2.4-4-6.9-1.8-10.2c0,0,0,0,0-0.1c-0.8,0.1-1.7,0.2-2.5,0.2
		c-2.3,0-4.5-0.4-6.6-1.2c0.1,0.9,0,1.9-0.2,2.8c-1.9,6.7-7.6,11.1-14.4,11.1c-2.4,0-4.8-0.6-7-1.7c-3.7-1.9-6.8-3.5-10-4.4
		c-4.3-1.2-6.4-3.7-7.4-5.6c-1-1.9-1.9-5-0.4-9.2c0.7-2.1,0.9-3.9,0.6-5.8c-0.9-5.3,0.8-10,4.9-13.1c-5.2-4.2-9.4-8.7-12.7-13.8
		c-0.5-0.8-1.3-1.4-1.6-1.5c-8.6-3.2-14.1-9.1-19.5-14.7l-1.3-1.4c-1.5-1.6-2.6-3.2-3.6-4.7c-1.1-1.6-2-2.9-2.8-3.3
		c-1.9-0.9-3.4-2.7-4.1-4.8c-0.4-1.3-0.9-3.9,0.4-6.5c-0.2-0.6-0.9-1.7-1.3-2.4c-0.3-0.5-0.6-1-0.9-1.5c-0.2-0.4-0.5-0.8-0.7-1.2
		c-2.2-3.8-5-8.6-4.8-15.1c0-0.3,0-0.4,0-0.4c0,0,0,0,0,0c0,0-0.2-0.2-0.8-0.4c-3.9-1.4-7-3.6-9.5-6.3c-0.3,2.8-1.3,5.4-2.8,7.7
		c-3.3,4.9-8.8,7.7-15.1,7.7c-0.3,0-0.7,0-1,0c-0.3,0-0.7,0-1-0.1c-0.2,0-0.4,0-0.7,0c-0.6,1.4-1,4.3-0.4,5.6c0.4,0.7,0.7,1.4,1,2.1
		c1.2,2.5,2.3,4.8,3.6,6.7c4.2,5.9,3.8,13.1-1,18.3c-2.5,2.7-4.3,4.8-5.8,7.1c-0.2,0.3-0.4,0.7-0.7,1c2.8,1.6,4.4,4,5.2,5.4
		c0.1,0.2,0.3,0.5,0.4,0.6c4.8,3.2,6.5,7.8,7.8,11.3l0.2,0.5c1.6,4.2,1.4,7.8-0.6,10.6c-1,1.5-3.5,4-8.4,4c-0.8,0-1.7-0.1-2.8-0.2
		c-0.7-0.1-1.3-0.2-2-0.2c-0.7-0.1-1.5-0.2-2.2-0.3c-0.1,0.3-0.3,0.5-0.5,0.8c-2.7,4.2-7.2,4.4-11.6,4.7c-0.6,0-1.2,0-1.8,0
		c-10.9,0-18.8-5.7-25.7-10.8c-0.7-0.5-1.3-1-2-1.4c-6.3-4.5-6.2-11.5-6.1-15.7c0-0.9,0-1.8,0-2.5c-0.2-3.2-0.7-5.1-1.9-6.5
		c-2.5-3.1-3-6.5-3.1-8.8c-0.2-3.1-0.5-4.1-1.1-4.6c-3.8-3-5.2-7.6-4.2-13.6c0.4-2.2,0-4.3-0.8-6.8c-0.7,0.4-1.3,0.7-1.8,1
		c-0.4,0.9-0.7,1.9-1.1,3c-0.3,0.8-0.6,1.6-0.9,2.4c-0.9,2.5-3.1,4.3-5.7,4.7c-0.5,0.1-0.9,0.1-1.4,0.1c-0.6,0-1.3-0.1-1.9-0.2
		c-0.1,0-0.2,0.1-0.3,0.1c-0.1,0-0.1,0.1-0.2,0.1c0.1,0.4,0.3,0.9,0.5,1.3c0.4,1.2,0.9,2.3,1.3,3.4c1.4,3.6,2.9,7.4,3.7,11.8
		c0.3,0.5,1.3,1.5,2.1,2.2c0.8,0.7,1.7,1.6,2.5,2.5c6.5,7.2,14.5,18.5,9.4,33.8c0,0.1-0.1,0.2-0.1,0.3c-0.4,1.3-1.5,5.5-6.1,7.2
		c-2.6,1-5.3,2-7.9,3c1.6,1.7,2.8,3.5,3.8,5l0.5,0.7c4.7,7,7.5,14.4,9.8,21.4c0.6,1.6,1.9,5.5-0.4,9.2c-2.3,3.7-6.4,4.3-8.1,4.6
		c-2.4,0.4-4.7,0.5-6.9,0.5c-3.1,0-6.1-0.4-8.9-1.1c-0.4,0.7-0.8,1.4-1.4,2.1C204,310.9,201.3,312,197.9,312z"/>
	<path d="M229.6,22.3c1.5,0,3,0.7,4.6,2.6c0.7,0.8,1.4,1.1,2.2,1.1c1,0,2-0.5,2.9-0.9c1.2-0.6,2.4-1,3.5-1c1.5,0,2.8,0.8,3.8,3
		c0.5,1.2,1.7,1.6,3,1.7c7.7,0.6,14.9,3.8,22.7,3.8c0.5,0,0.9,0,1.4,0c0.2,0,0.4,0,0.5,0c3.5,0,6.7,1.8,8.3,5.6
		c2.6,6.1,7.1,10.4,13.1,13.2c4.6,2.1,6.3,7.2,10.3,10.2c2.9-3.9,5.9-7.8,11.8-8.6c-0.6,4.3-3.7,7.2-4.9,10.9
		c-2.4,7.3-1.5,10.9,4.7,15.6c12.8,9.5,21.2,21.8,22.6,38.1c0.3,3.4,0.4,7-0.1,10.4c-0.6,4.1,0.8,7.3,3.4,10.2
		c1.8,2,3.3,4.1,4.4,6.5c1.5,3.3,3.1,6.1,7,7c1.8,0.4,2.9,2,3.3,4c0.4,1.9,1.3,3.7,3.5,3.7c0.1,0,0.3,0,0.4,0c0.1,0,0.1,0,0.2,0
		c0.9,0,1.4,0.5,1.4,1.1c0.5,4.4,3.7,6.7,7.1,7.5c6.3,1.5,7.9,7.8,12.5,10.6c3.2,2,5.7,4.1,8.2,7.1c6.7,8.3,6.7,18.2,9.2,27.7
		c2.5,9.8,4.9,20,14.7,26.8c3.9,2.7,7.5,4.1,11.3,4.1c2.1,0,4.3-0.4,6.7-1.4c0.7-0.3,1.4-0.4,1.9-0.4c1.3,0,2.2,0.8,2.6,2.6
		c0.6,2.9,2.4,4.4,4.9,5.6c5.1,2.4,9.3,12.1,8.8,17.7c-0.8,8.6-5.8,12.3-13.5,14c-1,0.2-2.2,0.8-3.2,0.8c-0.6,0-1.1-0.2-1.5-0.7
		c-1.2-1.7,1.9-2.1,2.1-4c-0.5,0-1,0-1.5,0c-1,0-1.9,0-2.9,0c-2.7,0-5.4-0.2-7.9-2.1c1.2-1.9,3.8-1.6,4.9-3.8
		c-1-1.3-2.9-1.8-3.9-3.8c-1.2-2.3-3.8-4.3-6.8-4.3c-0.3,0-0.7,0-1,0.1c-0.7,0.1-1.3,0.2-1.9,0.2c-4.1,0-7.1-2.2-9.7-5.4
		c-1.7-2.1-4.4-3.1-7-3.1c-1.8,0-3.5,0.5-5,1.4c-2.4,1.5-2.7,4-4,6.1c-0.7,1.1,0.5,1.6,1.3,2c2.2,1,3.8,2.6,4.7,4.9
		c0.5,1.2,1.1,1.6,1.9,1.6c1,0,2.1-0.6,3-0.6c0.3,0,0.5,0,0.7,0.1c-1,3.4-3.9,5.7-7.2,5.7c-1.2,0-2.3-0.3-3.5-0.9
		c-3.7-1.9-7.4-3.8-11.4-5c-2.9-0.8-3.7-2.5-2.8-5.2c1.1-3.1,1.5-6.2,0.9-9.5c-0.5-3.1,0.4-5.2,3.5-6.7c4.4-2.2,4.8-6.4,0.8-9.3
		c-5.2-3.8-9.7-8.2-13.2-13.6c-1.2-1.9-3.2-3.7-5.3-4.5c-7.6-2.9-12.7-8.6-18.1-14.3c-3-3.1-4.4-7.5-8.6-9.5
		c-0.2-0.1-0.4-0.9-0.3-1.2c2.3-4.3-0.4-7.6-2.3-11c-2.2-3.9-4.7-7.5-4.5-12.4c0.1-3.7-1.8-6.6-5.8-8.1c-5.8-2.1-9.4-7.2-12.4-12
		c-1-1.7-2.1-2.2-3.1-2.2c-1.4,0-2.8,0.9-4.1,0.9c0,0-0.1,0-0.1,0c0,0-0.1,0-0.1,0c-2.2,0-1.1,2.7-1.2,4.2c-0.1,0.9,0.2,1.8,0.6,2.6
		c3,7.4-1.1,15.1-9.6,15.1c-0.2,0-0.4,0-0.7,0c-0.8,0-1.6-0.1-2.5-0.1c-1.3,0-2.6,0.2-3.8,1.1c-3.5,2.5-5.2,10.6-2.8,15.4
		c1.7,3.3,3.1,6.8,5.3,9.8c2.3,3.3,1.8,6.5-0.4,8.9c-2.4,2.6-4.7,5.2-6.6,8.2c-1.2,1.9-3.4,2.5-5.8,3c1.4,2.4,2.6,4.7,3.9,6.9
		c0.3,0.5,0.7,1.4,0.9,1.4c0,0,0,0,0,0c0.4-0.1,0.8-0.1,1.2-0.1c3.7,0,4.1,4.4,6.7,6c3.1,1.9,4.2,5,5.4,8.3c1.3,3.6,0.2,4.5-2,4.5
		c-0.5,0-1.2-0.1-1.8-0.1c-4.2-0.6-8.6-0.7-12.4-2.9c-0.3,0.5-0.6,0.8-0.5,0.9c2.2,6.1,1.9,6.4-4.8,6.8c-0.4,0-0.9,0-1.3,0
		c-9.4,0-16.3-5.8-23.4-10.8c-4.1-2.9-2.7-8.2-3-12.6c-0.3-4-1-7.5-3.5-10.7c-1.1-1.4-1.4-3-1.6-4.7c-0.3-3.7-0.7-7.3-3.9-9.9
		c-2-1.6-1.8-4.4-1.5-6.5c0.7-4.6-0.4-8.6-1.9-12.9c-0.7-2.3-1-4-3.3-5c-1-0.4-2-0.7-2.8-0.7c-1.3,0-2.3,0.7-2.8,2.5
		c-0.8,2.7-4.1,1.8-5.4,4.7c-1,2.2-1.8,4.5-2.8,7.2c-1.2-1.3-2.4-2.5-3.3-2.5c-0.8,0-1.5,0.8-1.9,3c-1.3-0.8-1.1-1.7-1.3-2.3
		c-0.5-1.3-2-2.7-2.7-2.7c-0.1,0-0.2,0.1-0.3,0.2c-1,1.5-4.4,1.5-3.1,4.8c1.5,3.5,2.4,7.3,3.7,10.9c1.7,4.6,3.8,9,4.6,14
		c0.6,3.7,4,5.7,6.4,8.3c6.8,7.5,11.4,15.7,7.8,26.3c-0.4,1.2-0.5,2.4-1.8,3c-5.8,2.3-11.5,4.4-17.6,5.7c-0.3,0.1-0.7,0.1-1,0.1
		c-2.3,0-4.3-1.4-6.5-1.7c1.3,5.3,4.4,8.2,9.7,8.8c4.2,0.5,6,3.6,8.3,7c4.1,6.1,6.6,12.7,9,19.6c1,2.8,0.7,3.5-2.5,4
		c-2,0.3-3.9,0.4-5.8,0.4c-5.6,0-11-1.4-16-5.1c-1.2,2.4,0.4,3.9,0.6,5.6c0.2,2.5-0.1,3.7-2.9,3.7c-0.2,0-0.4,0-0.6,0
		c-7.7-0.4-15.3-1.2-22.9-2.5c-2.6-0.5-3.4-2.9-5.1-4.2c-2.7-2.1-4.4-5.5-6.8-8.1c-4.1-4.6-0.3-9.7-1.1-14.5
		c-0.6-3.7-1-7.3-2.8-10.6c-3.2-6-5.2-12.6-9.5-18c-0.5-0.7-0.7-1.8-0.7-2.6c0.2-7.7-3.3-14.3-6.1-21.2c-0.6-1.5-1.5-3.2-0.8-4.9
		c2-4.7,0.2-9.5,0-14.2c-0.2-3.5-0.4-4.7,0.9-4.7c0.7,0,1.8,0.4,3.6,0.9c0.6,0.2,1.2,0.1,2.3,0.2c-1.7-4.9-3.5-9.4-4.8-14
		c-2.4-8.6-10.2-14.3-12.4-23c-1.1-4.3-3.3-8.4-1.5-13c0.7-1.7-0.1-2.3-1.4-2.3c-0.2,0-0.5,0-0.7,0.1c-1.1,0.2-2.1,0.2-3.2,0.2
		c-5.8,0-11.2-2.3-16.6-4.2c-0.9-0.3-1.6-0.5-2.3-0.5c-1.4,0-2.4,0.7-3.4,2.4c-2.4,3.9-4.9,7.8-7.8,11.4c-1.9,2.4-5.2,3.6-8,4.1
		c-2.3,0.4-4.7,1.6-7.1,1.6c-0.8,0-1.5-0.1-2.3-0.4c-0.2-0.1-0.5-0.1-0.8-0.1c-0.7,0-1.6,0.2-1.8,0.6c-3.4,5.1-9.7,6.5-13.7,11
		c-1.8,2-2.3,3,0.2,4.5c3.1,1.9,4.4,4.8,5,8.4c0.4,2.7,1.2,5.9,3.1,7.6c3.1,2.9,3.6,5.9,2.3,9.5c-1.3,3.5-3.4,6.8-3.1,10.8
		c0,0.6-0.5,0.9-1.2,0.9c-0.5,0-1-0.2-1.4-0.5c-2.1,0.4-1.1,1.7-0.8,2.7c0.4,1,0.7,2.1,1.3,2.9c2.6,3.4,1.2,6.1-1.9,7.6
		c-2.8,1.4-3.6,2.8-2.6,5.7c5,14.3,5.4,29.9,12.5,43.6c1.6,3.2-2.5,4.4-2.3,7.3c0.1,1.3-0.3,2.9-0.3,4.5c0.2,0.9-0.1,1.3-0.8,1.3
		c-0.2,0-0.3,0-0.5-0.1c-3.1,1.5-0.3,2.9,0,4.4c0.4,2,2.9,4.1-0.6,5.9c-1.3,0.7-2.4,1.1-3.3,1.1c-1.4,0-2.4-1-2.8-3.7
		c-0.4-2.1-1.4-4-2.2-6.1c-2.5,0.8-0.1,3.7-2.5,4.6c-1.5-4.3-2-8.9-3.2-13.3c-1.3-5-4-9.2-7.2-12.7c-6.4-6.9-10.3-15.5-16-22.8
		c-2-2.5-3.1-7.2-1.6-11.2c0.6-1.6,1.2-3.3,0.5-5c-1.3-3.1-2.6-5.9-1.6-9.7c0.7-2.8-2.9-4.9-4.5-7.2c-3.2-4.7-3.2-9.1-1.5-14.3
		c2.8-8.8,6.1-17.5,5.3-27.1c-0.4-5,3.4-8.8,5-13.2c3.5-9.7,7.5-19.3,12.4-28.3c1.7-3.2,5.2-5.9,7.6-9.1c3.9-5.3,8-10.6,12.7-15.2
		c2.7-2.7,4.6-5.7,6.8-8.7c0.9-1.2,1.8-3,3.7-3c0.4,0,0.9,0.1,1.5,0.3c0.1,0,0.2,0,0.3,0c0.9,0,2.2-1.2,3.3-1.8
		c2.3-1.5,4.5-3.2,6.8-4.8c0.2,0,0.3,0,0.4,0c0.7,0,0.8,0.4,0.6,1.2c-0.8,2.5-4,4.1-2,7.7c0.7,1.3-2.6,2.8-2.6,5.7
		c2.5-1.5,4.8-2.1,7-2.1c3.5,0,6.8,1.5,10.1,3.7c1,0.7,2.7,1,4.6,1c4.9,0,11.5-1.9,13.1-4.7c3.2-5.3,8.2-7,13.4-8.4
		c4.6-1.2,7.3-4.7,10.9-7.2c6.2-4.2,7.7-11.8,13.8-15.9c2.1-1.4,3.2-4.5,4.4-7c3.9-8.7,10.4-14.4,19.1-17.8c4.4-1.7,7.1-5.4,10.7-8
		c2.4-1.8,4-3.8,7.9-3.8c0.1,0,0.2,0,0.4,0c0.1,0,0.1,0,0.2,0c3.8,0,7.7-3.2,11-5.9c1.4-1.1,2.6-2.6,4.3-2.6c0.8,0,1.7,0.3,2.8,1.2
		c0.4,0.3,0.8,0.5,1.3,0.5c1.4,0,2.8-1.4,4.1-2.3C226,23.3,227.8,22.3,229.6,22.3 M229.6,7.3C229.6,7.3,229.6,7.3,229.6,7.3
		c-4.5,0-8.3,1.5-11.2,3.2c-0.9-0.1-1.7-0.2-2.4-0.2c-7,0-11.4,3.9-13.3,5.6c-0.1,0.1-0.2,0.2-0.4,0.3l-0.2,0.2
		c-0.9,0.7-2.2,1.8-3.2,2.4c-7.7,0.4-12.5,4.2-14.9,6.1c-0.2,0.2-0.5,0.4-0.8,0.6c-1.8,1.3-3.2,2.7-4.5,3.8
		c-0.9,0.8-2.1,1.9-2.6,2.2c-12.7,5-21.9,13.6-27.3,25.6c-0.2,0.3-0.3,0.7-0.5,1.1c-0.1,0.3-0.3,0.7-0.4,1
		c-4.4,3.5-7.1,7.6-9.1,10.7c-0.9,1.4-2.2,3.4-2.8,3.8c-1.8,1.2-3.3,2.5-4.5,3.5c-0.7,0.6-1.7,1.4-2.1,1.7
		c-4.7,1.3-13.6,3.8-20.1,12.2c-0.4,0.1-0.7,0.2-1.1,0.2c-1-0.6-2-1.1-3.1-1.6c0-3.3-1.1-6.5-3.1-9.2c-3-4-7.6-6.3-12.6-6.3
		c-1.1,0-2.2,0.1-3.3,0.3c-2.1,0.4-4,1.3-5.8,2.5c-0.7,0.5-1.4,1-2,1.5c-1,0.7-2,1.5-3,2.1c-5.5,0.5-10.1,3.5-13.8,8.8l-0.2,0.2
		c-0.6,0.8-1.1,1.6-1.7,2.4c-1.3,1.8-2.3,3.3-3.4,4.4c-5.5,5.4-10.1,11.4-14.3,17c-0.5,0.6-1.3,1.5-2.2,2.4c-2,2.1-4.6,4.8-6.6,8.4
		c-4.7,8.7-9.1,18.6-13.3,30.4c-0.1,0.4-0.7,1.4-1.1,2.1c-2,3.5-5.4,9.5-4.7,17.4c0.5,5.7-1.5,11.8-3.8,18.8
		c-0.3,0.8-0.5,1.6-0.8,2.5c-3.3,10.2-2.2,19.2,3.4,27.4c0.5,0.7,1,1.4,1.5,2c0.1,3.3,0.8,6.2,1.7,8.6c-2,8-0.3,17,4.7,23.3
		c2,2.5,3.9,5.5,5.9,8.7c3,4.7,6.3,10,10.9,14.9c1.9,2.1,3.1,4.2,3.7,6.4c0.3,1.3,0.7,2.8,1,4.4c0.6,3,1.3,6.4,2.5,9.9
		c1.3,3.9,4.2,7,7.9,8.7c0.2,0.1,0.3,0.1,0.5,0.2c3.7,4.5,8.9,6.3,13.4,6.3c4.4,0,8-1.6,10.3-2.8c6.6-3.5,11.5-10.7,9.3-19.7
		c0.5-1.7,0.7-3.4,0.7-5.2c0,0,0-0.1,0-0.1c0-0.2,0-0.3,0.1-0.5c4.7-7.7,2.6-14.4,0.8-17.9c-3.2-6.3-4.8-13.8-6.5-21.8
		c-0.9-4.2-1.8-8.5-3-12.8c2-2.3,3.3-5,4-8c0.6-2.6,0.6-5.2,0.1-7.7c0.8-1.9,1.1-4,1.1-6.1c0.2-0.5,0.5-1.2,0.8-1.8
		c0.4-1,0.9-2.2,1.4-3.5c3.2-8.7,1.5-17.3-4.5-24c0-0.2-0.1-0.4-0.1-0.6c-0.3-1.9-0.8-3.8-1.4-5.5c0.5-0.4,1-0.8,1.5-1.2
		c3-0.2,5.5-0.9,7.2-1.5c0.4-0.1,0.9-0.3,1.1-0.3c7.1-1.3,13-4.5,16.9-9.3c1.6-2,3.1-4,4.5-6c1.6,0.5,3.2,1,4.9,1.3
		c0.3,1,0.6,1.9,0.8,2.7c0.2,0.8,0.5,1.5,0.6,2c1.8,7.2,5.5,12.5,8.5,16.8c1.8,2.5,3.4,4.9,3.9,6.6c0.1,0.3,0.1,0.5,0.2,0.8
		c-3.3,4.7-3,9.6-2.8,12.8c0,0.3,0,0.6,0.1,1c0.1,2,0.4,3.8,0.6,5.4c0.1,0.9,0.3,2.2,0.3,2.8c-2.7,7.1-0.2,13.1,0.8,15.4
		c0,0.1,0.1,0.2,0.1,0.3c0.5,1.3,1.1,2.6,1.6,3.8c1.9,4.4,3.5,8.2,3.4,11.3c-0.1,4.6,1.2,8.9,3.8,12.3c1.6,2.1,3,5,4.5,8.5
		c1.1,2.4,2.2,4.9,3.6,7.5c0.4,0.7,0.7,2.9,1,4.7c0,0.2,0.1,0.3,0.1,0.5c-0.1,0.3-0.1,0.8-0.2,1.1c-0.7,4-2.4,13.5,5.1,21.8
		c0.4,0.4,0.9,1.2,1.5,2c1.5,2.1,3.5,4.8,6.4,7.3c1.5,1.9,5.4,6.6,12.6,7.8c8.1,1.4,16.4,2.3,24.7,2.7c0.5,0,0.9,0,1.3,0
		c6,0,10-2.3,12.4-4.5c1.9,0.3,3.9,0.4,5.9,0.4c2.6,0,5.2-0.2,8-0.6c9.3-1.4,12.4-6.4,13.4-8.1c4.1-6.7,1.9-13.4,1.1-15.5
		c-2.3-6.8-5-14.1-9.4-21.2c3.5-1.6,7.6-5,9.5-11.7l0-0.1c0.3-1,0.6-2,0.9-3c0.2,0.1,0.4,0.3,0.6,0.4c7.1,5.2,16.8,12.2,30.2,12.2
		c0.7,0,1.5,0,2.2-0.1c4-0.2,10.2-0.6,14.9-5c0,0,0,0,0,0c1.4,0.2,2.6,0.3,3.8,0.3c6,0,11.4-2.6,14.5-7.2c2.4-3.4,4.6-9.2,1.5-17.5
		l-0.2-0.5c-1.4-3.7-3.5-9.5-9.3-14c-0.3-0.5-0.7-1-1.1-1.6c0.6-0.7,1.2-1.4,1.9-2.1c7.2-7.8,7.9-18.9,1.7-27.7
		c-0.6-0.8-1.2-1.9-1.8-3.1c6.2-1.4,11.6-4.9,15.2-10.2c0.9,6,3.6,10.6,5.5,13.8c0.2,0.4,0.4,0.8,0.7,1.1c0.2,0.3,0.4,0.7,0.6,1
		c-0.5,2.6-0.3,5.4,0.6,8c1.2,3.7,3.6,6.8,6.9,8.7c0.3,0.4,0.7,0.9,0.9,1.4c1.1,1.6,2.5,3.6,4.4,5.6c0.4,0.5,0.9,0.9,1.3,1.4
		c5.4,5.6,11.5,12,20.8,15.9c2.3,3.5,5,6.7,8.1,9.7c-2.1,3.9-2.7,8.6-1.9,13.5c0,0.2,0.1,0.8-0.3,2c-2.3,6.7-0.8,11.9,0.8,15.1
		c1.7,3.2,5.1,7.4,12,9.4c2.5,0.7,5.2,2.1,8.6,3.8c3.2,1.7,6.8,2.6,10.4,2.6c6.8,0,13-3.1,17.2-8.2c1,1.6,2.3,3,3.8,4.1
		c2.6,1.9,5.3,3.1,7.8,3.8c3.2,3.7,7.8,5.8,12.8,5.8c2.9,0,5.2-0.7,6.5-1.1c0.1,0,0.1,0,0.2-0.1c20-4.4,24.3-19,25-27.2
		c0.9-10.4-5-25.1-15.1-31.4c-2.8-6.6-8.9-10.8-16.1-10.8c-2.4,0-4.9,0.5-7.4,1.4c-0.7,0.3-1.1,0.3-1.2,0.3c0,0-0.8-0.1-2.8-1.5
		c-4.6-3.2-6.2-8.4-8.4-17.3l-0.2-0.9c-0.5-2-0.9-4.2-1.4-6.6c-1.5-7.9-3.3-17.7-10.6-26.8c-3.4-4.2-7-7.4-11.7-10.3
		c-0.3-0.3-0.8-1-1.2-1.4c-2.4-3-6.2-7.7-12.9-10.2c-1.4-3.3-3.8-6-6.9-7.8c-2.1-3.8-5.3-6.8-9.2-8.4c-1.6-3.3-3.7-6.5-6.3-9.5
		c0.4-3.8,0.4-7.8,0-12.3c-1.7-19.2-11-35.4-27.7-48.1c0.2-0.3,0.3-0.6,0.5-0.9c1.6-2.6,4-6.7,4.7-12.2c0.6-4.6-1-9.3-4.3-12.6
		c-2.8-2.8-6.7-4.4-10.6-4.4c-0.7,0-1.3,0-2,0.1c-3.4,0.5-6.3,1.4-8.9,2.7c-1.4-1.1-3-2.1-4.8-3c-3.7-1.7-4.9-3.8-5.7-5.5
		c-3.9-9-12.3-14.7-22-14.7c-0.4,0-0.9,0-1.3,0c-0.2,0-0.4,0-0.6,0c-2.6,0-5.6-0.7-9.1-1.5c-2.3-0.5-4.7-1.1-7.3-1.5
		c-3.5-3.4-8-5.4-13.1-5.4c-1.3,0-2.7,0.1-4,0.4C235.1,7.7,231.8,7.3,229.6,7.3L229.6,7.3z"/>
</g>
</svg>
