<?xml version="1.0" encoding="utf-8"?>
<!-- Generator: Adobe Illustrator 24.1.0, SVG Export Plug-In . SVG Version: 6.00 Build 0)  -->
<svg version="1.1" id="Livello_1" xmlns="http://www.w3.org/2000/svg" xmlns:xlink="http://www.w3.org/1999/xlink" x="0px" y="0px"
	 viewBox="0 0 630.4 616.3" style="enable-background:new 0 0 630.4 616.3;" width="50" height="50" xml:space="preserve">
<style type="text/css">
	.st0{fill:#FEFEFE;}
</style>
<g>
	<path class="st0" d="M323.5,605.2c-13.3,0-23.8-2-33.3-6.4c-0.3-0.1-0.6-0.3-0.9-0.4c-2.5-1.1-5.5-2.5-7.8-5.2
		c-1.6-2-3.9-6.2-1.9-12.4c-4.9-5.5-5-11.9-5.1-16.8c0-0.7,0-1.3-0.1-2c-0.1-1.4-0.9-2.9-4.8-5.6c-6.9-4.8-8.2-10.1-8.1-13.6
		c0.1-2,0.6-4.5,2.4-7.2c-4.8-0.5-10-1.4-15.9-2.7c-18.1-4.1-32.5-14.9-42.8-32c-0.1,0.5-0.2,1-0.3,1.5c-1.1,7-5.2,11.4-11.5,12.7
		c0,0.1,0.1,0.3,0.1,0.4c3.5,0.9,5.7,2.7,6.9,4.3c3.6,4.6,2.7,10.3,2.3,13.1c6.3,7.8,10.8,14.8,13.8,22.2l0.1,0.1
		c2.3,3.4,2.6,6.8,1,10c-0.8,1.6-3.3,5.4-9.2,5.4c-0.3,0-0.6,0-0.9,0c-0.1,0-0.2,0-0.4,0c-0.1,0-0.3,0-0.6,0c-1.7,0-3.1-0.4-4-0.6
		c-0.2,0-0.3-0.1-0.5-0.1c-0.9-0.1-1.7-0.2-2.4-0.3c-0.1,0-0.2,0-0.2,0c-3.7,2.7-7.7,4-12,4c-4.8,0-9-1.6-12.8-3.1
		c-1.8-0.7-3.5-1.3-5-1.7c-3.4-0.8-6.2-2.4-8.7-3.8c-1.1-0.6-2-1.2-3-1.6c-9.5-4.5-6.5-12.2-6.2-13.1c0.7-1.6,0.5-3.7,0-7
		c-0.5-3.7-1.1-8.3,0.4-13.1c-0.2-0.2-0.4-0.6-0.8-1c-1.8-1.8-3.4-3.8-5-5.6c-1.9-2.3-3.7-4.4-5.6-6c-4-3.4-6.2-7.4-8.1-10.9
		c-1.2-2.2-2.2-4-3.4-5.5c-6.6-7.6-1-15.3,1.1-18.2c0.6-0.8,1.4-1.9,1.5-2.4c1.9-6.7,9.6-9,15.6-9l0.3,0c1.4,0,2.6,0.3,3.7,0.8
		c-2.7-4.5-4.4-9.3-5.9-13.7c-0.1,0.4-0.2,0.9-0.3,1.3c-2,7.1-7.2,12.8-14.2,15.5c-7.2,2.8-13.9,4.3-20,4.3
		c-12,0-27.9-5.4-35.8-31.3c-9.8-32.3,1.2-61,31-80.9c4.7-3.2,8.7-6.1,12-9.1c3.8-3.4,6.1-8.3,6.4-13.6c0.2-4.9-1.3-9.6-4.2-12.7
		c-2.1-2.2-3.3-4.7-4.3-6.6c-0.7-1.3-1.2-2.4-1.8-3.1c-2.3-2.7-5.8-4.2-9.8-6c-3.3-1.5-7-3.1-10.4-5.6c-0.7-0.5-1.9-1.1-3.1-1.7
		c-1.8-0.9-3.9-2-5.8-3.4c-2.4-1.8-4-2.6-5.7-2.7c-3.8-0.3-7-1.5-9.6-3.7c-8.3-6.7-16.3-10-24.3-10c-6.1,0-12.2,1.9-18.7,5.8
		c-1.6,0.9-3.1,1.7-4.8,2.6c-0.8,0.4-1.6,0.8-2.4,1.2c-1.1,0.6-2.3,0.8-3.5,0.8c-1.4,0-2.8-0.4-4-1.1c-2.3-1.4-3.6-3.9-3.5-6.6
		c0.2-7.4,4.9-10.8,6.9-12.3c15.2-11.2,33.1-16.4,56.4-16.4c2.9,0,6,0.1,9.1,0.2c0.1,0,0.2,0,0.3,0c1.8-1.8,4.1-2.8,6.7-2.8
		c3.4,0,6,1.8,7.4,2.8l0.3,0.2c4.9,3.5,10.8,5.5,17,7.7c1.8,0.6,3.6,1.3,5.4,1.9c14.5,5.4,23.4,16.5,26.7,33c0.5,2.6,1.8,5,3.2,7.9
		c2,3.8,4.2,8.2,4.9,13.6c1.4,10.9,2.1,25.3-5,39.4c-3.7,7.4-9.6,13.1-17.5,17.1c-12.2,6.1-20.9,14.1-26.5,24.6
		c-7.4,13.7-7.1,25.9,1.2,38.3c2.3,3.4,5.5,5.5,8.4,5.5c0.1,0,0.1,0,0.2,0c-3.9-6.1-7.7-13.5-5.6-23.4c3-13.8,9.1-24.9,18.5-33.8
		c6.6-6.3,13-10.1,19.9-12.1c1.4-6.2,5-10.8,8-14.6c1.3-1.6,2.5-3.2,3.4-4.7c3.4-5.6,9.1-7.9,13.6-9.7c1.9-0.8,3.8-1.5,5.1-2.4
		c1.4-0.9,2.7-1.4,3.8-1.9c0.5-0.2,1.2-0.5,1.5-0.7c3.9-2.6,7-4.6,10.8-4.6c5.7,0,8.7,3.9,12.5,8.9c0.4,0.5,0.7,0.9,0.9,1
		c0.3-0.1,0.8-0.2,1.6-0.5c1.3-0.5,2.7-1.1,4.1-1.8c3.3-1.5,6.9-3.2,11.1-4.1c-0.4-5,1.3-8.3,2.9-10.2c1.7-2.1,5-4.5,10.7-4.6
		c0-0.1,0-0.1,0-0.2c1.2-9.9,7.8-13.4,13.4-13.4c0.2,0,0.5,0,0.7,0c0.1-0.4,0.3-0.9,0.4-1.3c1.3-4.3,2.4-8.4,2.9-12.3
		c0.5-4.3,2-7.9,3.3-11.2c0.9-2.3,1.8-4.5,2.2-6.6c1.2-6.8-2.2-16.2-11-21.3c-1.9-1.1-4.5-1.7-7.4-1.7c-2,0-4,0.3-5.8,0.9
		c5.9,4,10.4,10.3,11.7,17c2.1,11.3-3.3,20.8-14.8,26c-5.1,2.3-10.1,3.5-14.9,3.5c-8.1,0-15.7-3.3-22.6-10c-5.8-5.6-5.9-12.7-6-17.4
		l0-0.9c-0.5-27.1,9.8-48.4,30.5-63.2c4.6-3.3,8.9-4.9,13.2-4.9c0.2,0,0.5,0,0.7,0c1.4,0.1,2.8,0.1,4.7,0.1c0.9,0,1.8,0,2.6,0
		c0.9,0,1.8,0,2.7,0c6.5,0,14.1,0.3,22,3.4c13.1,5.2,23.2,12.6,30.7,22.7c3.2-5.6,7.5-10.1,13.1-13.6c0.4-0.2,0.7-0.6,0.9-1
		c-1.9-1.5-3.5-3.1-5.1-4.6c-3.6-3.5-5.8-5.5-8.7-5.5c-0.3,0-0.6,0-1,0.1c-0.8,0.1-1.6,0.1-2.5,0.1c-3.2,0-6.1-0.7-8.7-1.3
		c-0.6-0.2-1.3-0.3-1.9-0.5c-12.6-2.8-22.7-10.2-29.1-21.4c-7.3-12.6-9.3-28.8-5.1-42.4c6.2-20.3,17.1-35,33.3-45
		c6.3-3.9,10-8.9,10.6-14.4c0.6-5.7-2.1-11.9-7.7-17.5l0,0c-6.6-4.6-4.2-10.6-3.7-11.8c1.6-3.4,4.7-5.4,8.3-5.4
		c2.1,0,3.7,0.7,4.6,1.1l0.1,0.1c11.8,3.1,21.7,12.6,26.7,25.3c5.3,13.6,4.2,28.3-3,39.4c-2.7,4.1-5.6,7.9-8.5,11.6
		c-1.6,2-3.1,3.9-4.6,5.9c-5.3,7.1-8.5,12.9-8.5,19.7c0,8.1,2,11.6,8.4,13.1c-3.8-13.9-2.1-26.6,5.1-38.5c4.8-7.9,11.8-13.1,21-15.2
		c0.5-0.1,1-0.2,1.6-0.3c0.8-0.2,2-0.4,2.7-0.7c0,0,0,0,0,0c-0.2-2.5,0.6-5,2.2-6.8c1.7-1.8,4-2.9,6.5-2.9c0.9,0,1.7,0.1,2.6,0.4
		c2.4,0.7,5.5,2.6,6.8,5.8c3.8,9.2,1.2,17.7-6.6,21.8c-9.2,4.8-10.6,9.4-9.9,15.2c1,8.7,3.5,15.2,7.7,19.9c2-8.4,5.8-15.9,9.5-23.3
		c0.6-1.3,1.3-2.5,1.9-3.8c1.2-2.4,2.5-4.5,3.8-6.6c2.8-4.4,5.1-8.2,5-12.6c-0.3-8.8-1.8-13.8-5.1-17.1c-8-7.8-12.9-17.7-14.6-29.4
		c-1.8-12.7,4.4-23.5,10-31.5c4-5.7,10.3-8.6,18.9-8.6c1.4,0,2.8,0.1,4.4,0.2c12.1,1.1,23.3,10.9,27.1,22.4c0.1,0,0.2,0,0.3,0
		c2.5,0,4.9,1.1,6.9,3c5.7,5.6,6.5,12.7,2.2,19.1c-3.9,5.8-9.8,9.2-16.1,9.2c-0.5,0-1,0-1.5-0.1c3.5,3.1,7.2,6.6,10.2,11
		c0.9-1.1,1.8-2.1,2.8-3.1l0.3-0.4c4.2-4.4,9.5-9.9,18.7-9.9c1.7,0,3.6,0.2,5.5,0.6c1.2,0.3,2.3,0.4,3.3,0.4c2.1,0,7.1,0,8.6-12.1
		c0.9-6.6-0.1-12.5-3.3-19.7c-7.8-17.9-4.1-34.1,10.7-46.7c1.4-1.2,3.1-1.8,4.9-1.8c1.3,0,2.7,0.4,3.9,1.1c0,0,0.1,0.1,0.1,0.1
		c0.7-0.3,1.4-0.6,2.2-0.8c0.7-0.2,1.4-0.3,2.1-0.3c2,0,3.9,0.8,5.3,2.2c1.9,2,2.6,4.8,1.8,7.5c-2.1,7-0.5,12.9,2.8,20.2
		c4.1,9.1,2.8,18.3,1.6,26.4c-0.2,1.6-0.5,3.2-0.6,4.7c-1.7,14-6.4,25.6-14,34.5c-3.2,3.7-8.3,8.6-16,8.6c-2.8,0-5.7-0.7-8.6-2
		c-0.6-0.3-0.9-0.3-1-0.3c-0.1,0-0.6,0.4-1.4,1.4c-10.6,14.6-15.4,40.6-4.8,57c0.6,0.9,1.1,1.8,1.6,2.7c0.4-14.1,5.9-28.2,16.5-42.9
		c5.1-7,10.5-11.8,17-15c3.7-1.8,7.5-2.8,11.4-2.8c10,0,19.1,6.4,23,16.3c5.7,14.1,3.9,28.7-5,41.1c4.8-3.1,10.3-4.7,15.8-4.7
		c6.7,0,13.2,2.4,18.7,6.8c7.1,5.7,9,14,5.1,22.6c-3.3,7.4-10.9,12-19.9,12.1c1.1,2.6,2.9,4.8,5.3,6.3c0.7,0.3,1.9,0.9,3,2.1
		c3.3,3.5,5.8,3.9,7.9,3.9c2.5,0,5.7-0.9,9.9-2.7c6.8-3,13.7-3.4,19.5-3.4c2.1,0,4.2,0.1,6.2,0.1c2,0.1,3.9,0.1,5.7,0.1
		c0.8,0,1.6,0,2.4,0c3.5-0.1,6.1-0.3,8.5-0.6c5.2-0.7,5.6-2,5.8-2.5c0.6-1.6-1.5-4-2.5-5c-5.6-5.8-7.7-12.2-6.1-19.6
		c0.5-2.5,2.2-4.5,4.6-5.5c0.9-0.4,1.8-0.5,2.8-0.5c1.5,0,3,0.5,4.3,1.3c11.8,8.2,22.4,18.2,20.6,36.2c-2,20.2-18.2,34.8-40.2,36.2
		c-1.2,0.1-2.5,0.1-3.7,0.2c-6.8,0.4-13.2,0.7-18.6,3.5c1.1,6.4,1.2,12.4,0.3,18c0.4-0.1,0.8-0.2,1.3-0.2c2.9-0.4,5.8-0.7,8.5-0.7
		c9.8,0,18.4,3,25.8,8.8l0.1,0.1c1.5,1.2,3.9,3.1,4.8,3.1c0.2,0,0.4-0.1,0.8-0.3c0.9-0.5,1.7-0.9,1.4-6.2c-0.1-1.4,0.2-2.6,0.3-3.3
		c0-0.1,0.1-0.3,0.1-0.4c0.5-3.5,3.4-6.1,6.9-6.3c0.3,0,0.5,0,0.8,0c3.8,0,8.8,1.6,10.9,9.5l0.1,0.4c3.4,12.7,1.3,23.3-6.4,31.5
		c-5.4,5.7-12,8.5-19.7,8.5c0,0,0,0,0,0c-2.7,0-5.6-0.4-8.5-1.1l-1.6-0.4c-2.7-0.7-5.3-1.3-7.7-1.6c-0.9-0.1-1.8-0.1-2.7-0.1
		c-7.2,0-13.6,2.7-21.3,16c-2.8,4.8-2,9-0.3,16c0.6,2.4,1.1,4.9,1.5,7.6c0.4,2.6,1.5,5.4,2.7,8.4c0.3,0.8,0.6,1.7,1,2.5l0.1,0.2
		c0.8,2,2.4,6.3-0.1,10.6c-2.6,4.6-3.3,10.2-4,16.2c-0.7,5.9-1.4,12-3.9,18.2c-4,9.6-9.1,20.5-18.7,28.8c-0.2,0.2-0.7,0.7-1,1.3
		c-4.4,8.8-11.2,14.2-20.3,16.1c-0.4,0.1-0.8,0.3-1.1,0.5c-1.6,1.1-3.4,1.9-5.1,2.7c-0.7,0.3-1.7,0.8-2.4,1.2
		c1.2,3.9,3.3,8.1,6.9,9.1c7.3,2.1,11.6,7,15,11c1.5,1.8,3,3.5,4.5,4.7c2.5,1.9,3.9,5,4.2,9c0.3,4-0.6,9.5-4,13.8
		c0.2,0.4,0.4,0.8,0.6,1.3c2.5,5,7,14,0.3,22.6c1,5.8,0.2,11.4-0.5,16.4c-0.8,5.6-1.5,10.4,0.3,14.7c1.8,4.4,2.3,11.3-5.3,19.4
		c-3.6,3.8-7.2,5.7-11.2,5.7c-2.7,0-5.2-0.9-7.4-2.6c-1.4,0.8-3.1,1.2-4.8,1.2c-1.7,0-3.6-0.4-5.5-1.3c-1.9-0.8-3.8-1.6-5.9-2.4
		c-7.6-3-16.1-6.3-22.5-14.4c-6.1-7.7-4.7-14.2-2.4-18.4c0-0.4,0-1.4-0.1-2.1c-0.2-2.8-0.5-7.1,2.3-11.4c0.1-0.2,0.1-0.4,0.2-0.6
		c0.4-1.2,1-2.8,2.2-4.4c-2-3.2-4.2-7.7-2.5-12.7c1.3-3.8,4.2-6.1,7.3-7.6c-0.2-1.2-0.2-2.4-0.3-3.3c-0.6-0.2-1.3-0.5-1.9-0.7
		c-2.4-0.9-4.6-1.8-6.3-1.8c-0.3,0-0.6,0-0.9,0.1c-1.9,0.5-3.9,0.7-5.7,0.7c-10.5,0-16.9-7.7-19.1-10.3c-0.4-0.5-0.7-0.8-0.9-1
		c-1.8,0.5-3.6,0.7-5.6,0.7c-2.1,0-4.2-0.3-5.9-0.5c-1.3-0.2-2.6-0.3-3.7-0.4c-0.4,0-0.9,0-1.3,0c-8.6,0-17.3,2-27.2,6.4
		c-3.4,1.5-7.1,2.2-11.2,2.2c-4.6,0-8.9-0.9-13.2-1.9l0,0c-0.2,0.2-0.5,0.5-1,0.9c-2,1.9-3.8,4-5.7,6.3c-3.6,4.2-7.6,9-13.3,12.5
		c-1.3,0.8-1.4,1.4-1.4,1.9c-0.6,5.8-3.1,10.8-7.4,14.5c5.4,3.1,8.2,8.6,6.9,14.2c-1.1,5.1,1.2,8,7.1,14.1c0.6,0.6,1.2,1.2,1.8,1.8
		c3.4,3.6,4.9,7.6,6.1,10.8c0.7,1.7,1.2,3.2,1.9,4.4c1.8,2.8,2.1,6,0.9,8.9c-1.3,3.1-4.3,5.4-8.1,6.1l-0.5,0.1
		c-1.7,0.4-3.7,0.8-5.9,0.8c-1.8,0-3.5-0.3-5.1-0.8c-1.9,2.2-4,2.7-5.6,2.8C329.7,605.1,326.5,605.2,323.5,605.2z M482.6,181
		c0.6,0.9,1.2,1.8,1.8,2.8c1-1.4,2-2.6,3.1-3.9C486.1,180.6,484.4,181,482.6,181z"/>
	<path d="M458.4,20.4c-2,8.8-5.8,15.4-5.5,23.1c0.3,8.5,4.9,14.4,8.6,22.6c3-7.6,4.4-13.5,1.4-20.1c-2.8-6.1-4.5-12.6-1.6-19.3
		c1-2.3,1.7-5,5.5-6.2c-2.9,9.4-0.5,17.3,3.2,25.5c3.9,8.7,1.4,18.2,0.3,27.1c-1.3,11-4.8,21.7-12.3,30.5c-2.9,3.4-6.2,6-10.3,6
		c-1.6,0-3.4-0.4-5.4-1.3c-1.5-0.7-2.9-1-4.2-1c-2.8,0-5.3,1.5-7.4,4.5c-11.8,16.3-18,45.5-5,65.4c6.7,10.3,8.5,22.6,10.9,34.6
		c0.7-3.7,2-7,3.7-10.3c2.2,0.7,1.8,3.7,4.3,4.2c1-2.3,1.8-4.6,0.8-7.3c-9.1-22.6-2.7-42.4,10.8-61.1c3.8-5.3,8.2-9.7,14.2-12.7
		c2.8-1.4,5.5-2,8.1-2c7.4,0,13.5,5.1,16.1,11.6c4.7,11.9,3.4,23.6-4.3,34.1c-2.6,3.6-5.2,5.4-8.2,5.4c-2.7,0-5.8-1.5-9.6-4.4
		c-1.5,4.1-0.5,7.9,1.1,11.4c2,4.1,5.3,7.2,6.4,12c0.5,2.1,1.8,3.1,3.3,3.1c1.5,0,3.1-1,4.2-2.9c3.1-5.3,6.9-9.8,11.9-13.4
		c4-2.9,8.4-4.3,12.9-4.3c4.9,0,9.8,1.7,14,5.1c4.7,3.8,5.3,8.5,3,13.7c-2.1,4.7-7.1,7.6-13.3,7.6c-1.1,0-2.2-0.1-3.3-0.3
		c2.2-1.8,4-2.8,5.2-4.4c1.7-2.2,3.9-5.5,1-7.6c-0.8-0.5-1.6-0.8-2.4-0.8c-2,0-3.9,1.5-5.3,3.7c-6.5,10.1-3.6,23.4,6.7,29.7
		c0.4,0.2,0.9,0.3,1.2,0.6c4.3,4.5,8.6,6.3,13.3,6.3c4.1,0,8.3-1.3,12.9-3.3c5.2-2.3,10.9-2.7,16.6-2.7c4,0,8,0.2,11.9,0.2
		c0.9,0,1.8,0,2.7,0c3.1-0.1,6.2-0.3,9.3-0.7c5-0.7,10-2.3,11.8-7.4c1.7-4.8-0.8-9.3-4.2-12.7c-3.5-3.6-5.3-7.5-4.1-12.9
		c10.5,7.3,18.8,15.3,17.4,29.3c-1.6,16.5-14.8,28.3-33.3,29.5c-8.6,0.6-17.4,0.4-25.4,4.6c-2.8,1.5-4.8,2.6-4,6.9
		c1.9,9.6,1.3,19.3-3.8,28.8c5.2-1.5,9.5-3.3,14-4c2.5-0.4,4.9-0.6,7.3-0.6c7.5,0,14.7,2,21.1,7.2c2.9,2.3,6,4.8,9.6,4.8
		c1.3,0,2.7-0.3,4.2-1.1c5.5-2.9,5.7-8,5.4-13.3c0-0.6,0.2-1.3,0.3-2.2c0.1,0,0.2,0,0.3,0c2.8,0,3.2,2.5,3.7,4.3
		c2.4,8.8,2,17.3-4.6,24.4c-4.1,4.3-8.9,6.2-14.2,6.2c-2.2,0-4.4-0.3-6.7-0.9c-3.4-0.9-6.9-1.8-10.4-2.1c-1.1-0.1-2.2-0.2-3.3-0.2
		c-12.1,0-20.1,6.5-27.8,19.7c-5.9,10.1-1.1,19,0.2,28.4c0.6,4.3,2.5,8.4,4,12.5c0.6,1.5,1.3,3.1,0.5,4.5
		c-6.3,10.9-3.5,23.9-8.3,35.2c-4.1,9.8-8.6,19-16.7,26c-1.1,1-2.1,2.3-2.8,3.7c-3.2,6.4-8,10.6-15.1,12.1c-1.3,0.3-2.6,0.8-3.7,1.5
		c-4.3,2.8-12.6,4.4-11.3,9.7c1.5,6.4,4.9,14.5,12.7,16.7c8,2.3,11.1,9.9,16.9,14.4c2.1,1.6,2.1,9.1-1.6,12.9
		c-2.4,2.5-1.6,4.5-0.3,7.1c2.9,5.8,6.8,11.8,0.2,17.8c-0.4,0.4-0.5,1.3-0.3,1.9c3.3,11.5-3.9,23.2,0.7,34.8
		c1.7,4.2-0.9,8.3-3.8,11.5c-2.1,2.2-3.9,3.3-5.7,3.3c-2.1,0-4-1.6-6-4.7c-0.9-1.4-1.5-2.7-3.6-3.1c0.5,3.2,0.1,6.3-2.6,6.3
		c-0.7,0-1.5-0.2-2.4-0.6c-8.9-4-18.9-6.2-25.5-14.6c-2.6-3.3-3.7-6.6-1.7-10.2c2.3-4.1-0.9-8.8,2-13c0.9-1.4,1.2-3.7,2.6-5.1
		c2.6-2.5,2.2-4.4,0.2-7.4c-4.1-6.1-2.8-8.7,4.1-11.1c2.6-0.9,5.4-2,1.9-5.3c-0.3-0.3-0.4-0.8-0.5-1.2c-0.6-3.1,0.6-7.5-3.2-8.8
		c-4.1-1.4-8.3-3.7-12.7-3.7c-0.9,0-1.8,0.1-2.7,0.3c-1.4,0.3-2.7,0.5-3.9,0.5c-5.6,0-9.7-3.3-13.3-7.6c-1.9-2.3-3.7-3.8-6.3-3.8
		c-0.7,0-1.4,0.1-2.2,0.3c-1.3,0.4-2.6,0.5-3.8,0.5c-3.1,0-6.3-0.8-9.4-0.9c-0.5,0-1,0-1.5,0c-10.6,0-20.5,2.8-30.2,7
		c-2.7,1.2-5.4,1.6-8.2,1.6c-3.9,0-7.7-0.8-11.5-1.7c-0.8-0.2-1.5-0.3-2.1-0.3c-2.3,0-3.7,1.1-5.8,3.1c-6.1,5.8-10.4,13.3-17.8,17.9
		c-2.6,1.6-4.6,3.9-5,7.5c-0.4,4-2.2,7.6-5.5,10.2c-5,3.9-4.8,8.6,0.9,11.1c3.4,1.5,4.9,4.1,4.3,6.6c-2.3,10.6,4.9,16.5,10.8,22.7
		c4,4.2,4.3,9.6,7.2,14c1.1,1.7-0.1,3.1-2.4,3.6c-1.7,0.3-3.3,0.7-4.8,0.7c-1.6,0-3.1-0.4-4.7-1.5c-2.1-1.4-4.7-2-7.1-2.9
		c-1.8,2.9,2,3.4,1.5,5.5c-0.3,0.3-0.5,0.8-0.8,0.8c-3.2,0.2-6.3,0.3-9.5,0.3c-10.3,0-20.5-1.2-30.2-5.7c-4.2-1.9-9.1-3.4-6.3-10
		c0.6-1.4,0.3-4.2-0.7-5c-4.9-4.2-4.3-9.7-4.5-15.3c-0.2-5.3-3.9-8.6-7.9-11.4c-6.7-4.7-6.5-9.9,0.6-14.2c1.1-0.7,2.2-1.5,3.3-2.3
		c1.4-1.1,1.9-2.5,1.2-4.1c-0.5-1.1-1.3-1.3-2.2-1.3c-0.4,0-0.8,0-1.3,0.1c-1.1,0.1-2.2,0.1-3.3,0.1c-7.6,0-15.1-1.2-22.5-2.9
		c-18.7-4.2-31.3-15.9-40.2-32.3c-0.9-1.7-2-3.4-3.2-5.2c-4.9,3.4-8,7.6-8.9,13.1c-0.8,5-3.6,6.8-8.1,6.8c-0.3,0-0.5,0-0.8,0
		c-1.8-0.1-3.6-0.1-5.4-0.1c-2.9,0-5.8,0.1-8.7,0.1c0,2.9,3.1,3.4,4,3.5c5.4,0.5,7.7,3.7,8.3,8.5c0.3,2,1.6,2.5,3.3,2.6
		c6.3,0.4,5.9,5.3,5.2,9.2c-0.3,2-0.5,3.3,0.7,4.8c5.5,6.6,10.4,13.7,13.7,21.7c0.5,1.2,1.9,2.2,1.2,3.6c-0.5,1.1-1.5,1.3-2.5,1.3
		c-0.4,0-0.9,0-1.3,0c-0.1,0-0.2,0-0.4,0c-0.1,0-0.1,0-0.2,0c-1.2,0-2.5-0.6-3.7-0.7c-1.5-0.1-3.3-0.6-4.8-0.6
		c-0.7,0-1.3,0.1-1.7,0.5c-3.1,2.8-6.1,3.7-9,3.7c-5.4,0-10.7-3.3-16-4.6c-3.6-0.9-6.8-3.3-10.2-4.9c-1.5-0.7-3.2-1.7-2.5-3.4
		c3-7.1-1.8-14.3,0.9-21.4c1-2.7-0.7-5.8-2.8-7.9c-3.9-3.9-7.1-8.6-11-12c-5.2-4.4-6.5-10.8-10.7-15.6c-4.1-4.7,2.8-8.9,4.2-13.6
		c0.7-2.4,5.1-3.6,8.4-3.6c0.1,0,0.1,0,0.2,0c1.3,0,2.7,1.4,3.7,2.5c1.9,1.9,4.3,2.5,6.6,2.9c0.5,0.1,1,0.1,1.5,0.1
		c3.6,0,4.9-2.4,3.4-6.3c-0.8-2.1-1.1-4.5-2.4-6.1c-6.9-8.4-7.8-19.4-12.8-28.6c-2-3.7-3.2-7.4-2.1-11.5c1.2-4.2,1.1-8.3,0.9-12.6
		c-13.5,1.7-19,13.8-11.1,24.2c6.5,8.7,3.3,20.8-6.9,24.9c-6.3,2.5-12.1,3.7-17.3,3.7c-13.8,0-23.4-8.8-28.6-26
		c-9-29.8,1.3-54.6,28-72.5c4.4-3,8.8-6.2,12.8-9.7c11.2-9.8,11.7-27.4,2.7-37.1c-2.6-2.8-3.4-6.6-5.9-9.6
		c-5.8-6.6-14.7-7.8-21.4-12.7c-2.5-1.8-6.1-3.1-8.8-5.1c-2.9-2.2-5.9-3.8-9.5-4.2c-2-0.2-3.9-0.7-5.6-2c-9.3-7.5-19-11.6-29-11.6
		c-7.3,0-14.8,2.2-22.6,6.9c-2,1.2-4.1,2.2-6.8,3.6c0.1-3.5,2-5.1,3.8-6.4c15.7-11.5,33.5-14.9,52-14.9c2.9,0,5.8,0.1,8.8,0.2
		c1,0.1,2,0.3,2.8,0.3c1,0,1.9-0.4,2.8-1.9c0.5-0.9,1.2-1.3,1.8-1.3c1.2,0,2.4,1,3.4,1.7c7.3,5.1,15.9,7.5,24.1,10.5
		c13,4.9,19.5,14.9,21.9,27.4c1.5,7.6,7,13.2,8,21c1.6,12.2,1.4,23.9-4.2,35.1c-3.1,6.2-8,10.7-14.1,13.7
		c-12.7,6.3-22.9,15.1-29.7,27.7c-8.5,15.7-8.4,31,1.5,46c3.8,5.7,9.4,8.9,14.7,8.9c1.9,0,3.7-0.4,5.4-1.2c3.4-1.6,5.6-3.7,2.9-7.8
		c-4.1-6.1-8.1-12-6.3-20.3c2.6-11.7,7.7-21.8,16.4-29.9c5-4.8,10.7-8.8,17.6-10.6c1.7-0.4,4-0.8,4.2-2.9c0.5-8.2,7-13.2,10.8-19.4
		c3.3-5.4,10.9-6.3,16.3-9.7c1.7-1.1,3.7-1.5,5.4-2.6c3.3-2.2,5.2-3.3,6.7-3.3c1.9,0,3.4,1.9,6.5,6c1.9,2.5,3.7,4,6.5,4
		c1.3,0,2.8-0.3,4.6-1.1c5.1-2,10.1-5.1,15.7-5.8c3.9-0.5,5.1-2.3,4.4-6.3c-0.9-4.8,0.7-8.2,6.3-8.2c0.1,0,0.2,0,0.4,0
		c0.1,0,0.1,0,0.2,0c4.3,0,6.1-3,6.5-6.8c0.5-4.3,2.4-6.8,6-6.8c0.7,0,1.6,0.1,2.5,0.3c0.5,0.1,1,0.2,1.4,0.2c2.4,0,2.9-2.1,3.5-4.1
		c1.6-5.6,3.4-11.1,4.1-16.8c0.7-6.2,4.3-11.2,5.4-17.3c1.8-10.4-3.7-22.7-14.6-29.1c-3.2-1.9-7.1-2.7-11.1-2.7
		c-6.3,0-12.7,2.2-16.9,6.2c-0.9,0.9-2,1.8-1.8,3.4c-3.2,5.1-3.2,10.4-1.5,15.9c0.4,1.3,0.8,2.7,2.3,2.7c0.2,0,0.5,0,0.7-0.1
		c1.6-0.4,2.6-1.5,2.6-3.3c0-2.7,0.1-5.4-1.9-7.5c-1.5-1.7-2.8-3.4-2.1-5.9c7.5,0.4,15.7,7.7,17.1,15.3c1.5,8.1-2.4,14.1-10.5,17.9
		c-4.1,1.9-8.1,2.8-11.8,2.8c-6.2,0-11.9-2.6-17.3-7.8c-3.9-3.7-3.6-8.7-3.7-13.1c-0.4-23.5,7.8-43,27.4-57c2.6-1.9,5.7-3.5,8.8-3.5
		c0.1,0,0.3,0,0.4,0c1.7,0.1,3.4,0.1,5.1,0.1c1.8,0,3.6,0,5.4,0c6.4,0,12.7,0.3,19.3,2.9c16,6.3,27.2,16.3,34.2,31.8
		c2.9-1.3,2.4-4.3,3.1-6.3c2.5-7.2,6.8-12.9,13.2-17c4.6-2.9,6.6-9.8,2.5-12.6c-6.2-4.3-10.6-12.4-19.4-12.4c-0.6,0-1.2,0-1.9,0.1
		c-0.5,0.1-1.1,0.1-1.6,0.1c-3,0-6-1-8.9-1.6c-27-6-34.4-35.6-28.7-54.3c5.2-17,14.3-31,30.1-40.8c17.6-10.9,18.8-29.4,4-43.9
		c-0.9-0.9-2.7-1.4-1.9-3c0.4-0.8,0.9-1.1,1.5-1.1c0.8,0,1.8,0.6,2.6,0.8c20.9,5.3,31.7,34.6,19.6,53.4c-3.9,6-8.6,11.4-12.8,17.1
		c-5.3,7.2-10,14.7-10,24.1c0,13.3,5.5,19.6,18.8,21.1c2.6,0.3,5.2,0.4,8.3,0.6c-7-15-8.1-29.2,0.3-43.3c3.7-6.2,9-10.1,16.3-11.8
		c4.7-1.1,10.8-1.5,10.1-9.1c-0.1-0.9,0.5-1.4,1.3-1.4c0.1,0,0.3,0,0.5,0.1c0.8,0.2,1.7,0.8,2,1.5c2,4.9,1.7,9.8-3.1,12.3
		c-9.4,4.9-15.2,11.5-13.9,22.7c1.5,13.3,6.4,24.5,18.8,31.2c0.6,0.3,1.2,0.4,2.4,0.9c-0.2-13.8,6.2-24.9,12.1-36.7
		c3.5-7.2,9.9-13.5,9.6-22.8c-0.3-8.4-1.5-16.5-7.4-22.2c-7.3-7.1-11.1-15.8-12.4-25.1c-1.4-9.6,3.3-18.4,8.7-26.1
		c3-4.2,7.8-5.4,12.7-5.4c1.2,0,2.5,0.1,3.7,0.2c10.9,1,21.2,11.8,21.6,22.6c0.1,2.3-0.3,4.9,2.5,5.5c0.5,0.1,0.9,0.2,1.2,0.2
		c2.5,0,1.1-2.8,1.4-4.4c0.2-1,0.7-1.4,1.3-1.4c0.5,0,1.1,0.3,1.6,0.8c2.9,2.8,3.7,5.9,1.3,9.5c-2.6,3.9-6.3,5.9-9.9,5.9
		c-3.8,0-7.6-2.2-10-6.6c-1.6-2.9-2.9-6-4.6-8.8c-0.7-1.1-0.8-3.2-2.4-3.2c-0.2,0-0.3,0-0.5,0.1c-1.9,0.5-2.4,2.7-2.3,4.3
		c0.8,9,2.4,18,9.6,24.1c7.4,6.2,14.5,12.4,17.5,22.9c3.5-4.6,6.1-8.8,9.5-12.3c3.9-4.1,7.4-7.9,13.7-7.9c1.2,0,2.5,0.1,3.9,0.4
		c1.8,0.4,3.4,0.6,4.9,0.6c9.4,0,14.5-6.9,16.1-18.6c1.1-8.5-0.4-15.8-3.8-23.7C443.9,45.1,444.6,32,458.4,20.4 M402.8,205.2
		c2.5-1.5,2.9-3.5,3.6-5.3c3,2-0.7,6.1,2.4,8.1c3.4-1.7,5.5-5.8,4.3-8.5c-3.3-7.5-6.7-14.9-10.2-22.2c-0.5-1-0.2-2.8-2-2.8
		c-0.1,0-0.1,0-0.2,0c-1.6,0.1-1.9,1.6-2.5,2.7C391.5,187.9,398.8,196.1,402.8,205.2 M458.4,5.4c-3.5,0-6.9,1.2-9.7,3.6
		c-17.3,14.7-21.9,34.4-12.7,55.4c2.6,6,3.4,10.6,2.7,15.8c-0.4,3-1,4.8-1.5,5.6c-0.3,0-0.8-0.1-1.5-0.2c-2.4-0.5-4.8-0.8-7-0.8
		c-2.1,0-4.1,0.2-5.9,0.6c3.4-8.3,1.5-17.5-5.5-24.3c-2.1-2-4.5-3.5-7.1-4.3c-5.8-12.3-18.1-21.9-31.8-23.2
		c-1.8-0.2-3.5-0.3-5.1-0.3c-13.8,0-21.2,6.4-25,11.8c-5.9,8.4-13.5,21.4-11.3,36.9c1.1,7.7,3.5,14.7,7,21c-0.2,0-0.5,0-0.7,0
		c-4.6,0-9,1.9-12.1,5.3c-0.1,0.1-0.3,0.3-0.4,0.4c1-8.5-0.1-17.6-3.5-26.1c-5.8-14.8-17.4-25.8-31.3-29.7c-1.3-0.5-3.9-1.5-7.2-1.5
		c-6.4,0-12.2,3.7-15,9.7c-2.9,6.2-2.3,14.9,5.6,20.8c3.6,3.7,5.5,7.7,5.1,10.9c-0.5,4.2-4.6,7.3-7.1,8.9
		c-17.8,11-29.8,27.1-36.5,49.2c-4.7,15.5-2.5,34.1,5.8,48.4c2.4,4.1,5.1,7.7,8.3,10.9c-4.1-0.5-7.9-0.6-11.5-0.6
		c-0.9,0-1.8,0-2.8,0c-0.9,0-1.7,0-2.6,0c-1.8,0-3.1,0-4.4-0.1c-0.4,0-0.7,0-1.1,0c-5.9,0-11.6,2.1-17.5,6.3
		c-11.6,8.3-20.4,18.7-26,30.8c-5.3,11.4-7.8,24.4-7.6,38.6l0,0.9c0.1,5.2,0.2,14.9,8.3,22.7c8.3,8,17.6,12.1,27.8,12.1
		c5.9,0,12-1.4,18.1-4.2c4.2-1.9,7.7-4.3,10.6-7.1c-0.3,1.3-0.6,2.6-1,3.9c-5.9,1.5-11.9,5.7-14.6,13.8c-5.3,1.5-8.6,4.5-10.3,6.5
		c-1.7,2.1-3.6,5.1-4.3,9.3c-2.6,0.9-4.9,2-7,3c-0.1,0-0.2,0.1-0.2,0.1c-3.6-4.3-8.3-8.4-15.8-8.4c-5.9,0-10.3,2.8-14.6,5.5
		c-0.2,0.1-0.4,0.2-0.6,0.2c-1.2,0.5-3.1,1.2-5,2.5c-0.8,0.5-2.4,1.2-3.9,1.8c-2.4,1-5.3,2.1-8.2,3.9c1.3-9,0.7-17.5-0.2-24.6
		c-0.9-6.7-3.5-11.9-5.6-16.1c-1.2-2.4-2.3-4.4-2.6-5.9c-3.7-18.9-14.6-32.3-31.4-38.6c-1.9-0.7-3.7-1.4-5.5-2
		c-5.7-2-11.1-3.9-15.2-6.8l-0.2-0.1c-1.8-1.3-5.9-4.2-11.7-4.2c-3.3,0-6.5,1-9.2,2.7c-2.4-0.1-4.8-0.1-7-0.1
		c-24.9,0-44.3,5.7-60.8,17.8c-2.4,1.8-9.7,7.1-9.9,18.1c-0.1,5.3,2.5,10.3,7.1,13.1c2.4,1.5,5.2,2.3,7.9,2.3c2.4,0,4.8-0.6,6.9-1.7
		c0.8-0.4,1.6-0.8,2.3-1.2c1.7-0.9,3.5-1.7,5.3-2.8c5.2-3.2,10.1-4.7,14.8-4.7c6.2,0,12.6,2.7,19.6,8.3c3.8,3,8.3,4.8,13.5,5.3
		c0.2,0.1,0.7,0.3,2,1.3c2.4,1.8,4.9,3.1,6.9,4.1c0.7,0.4,1.8,0.9,2.1,1.1c4.1,3,8.2,4.8,11.8,6.4c3.1,1.4,5.8,2.6,7.1,3.9
		c0.2,0.3,0.6,1.1,0.9,1.7c1.1,2.3,2.7,5.4,5.5,8.4c1.5,1.6,2.4,4.4,2.2,7.3c-0.2,3.3-1.6,6.4-3.9,8.4c-3.1,2.7-6.7,5.5-11.2,8.5
		c-32.8,21.9-44.9,53.7-34.1,89.4c9.7,31.9,31.1,36.7,43,36.7c2.8,0,5.7-0.2,8.6-0.7c-0.1,0.3-0.2,0.5-0.3,0.8
		c-2,6.6-0.5,13.4,4.1,18.7c0.7,0.9,1.6,2.5,2.5,4.1c2,3.7,4.7,8.7,9.8,13.1c1.4,1.2,3,3.1,4.7,5.1c1,1.2,2.2,2.6,3.4,3.9
		c-0.7,4.7-0.1,8.9,0.3,12c0.2,1.2,0.4,2.7,0.4,3.5c-2.9,7.2-0.9,17.2,10,22.4c0.7,0.3,1.6,0.8,2.5,1.4c2.8,1.6,6.2,3.5,10.5,4.6
		c1,0.3,2.5,0.8,4.1,1.4c4.1,1.6,9.3,3.6,15.5,3.6c4.9,0,9.5-1.2,13.7-3.7c1.2,0.3,3.2,0.8,5.5,0.8c0.2,0,0.4,0,0.6,0l0,0
		c0.4,0,0.8,0,1.2,0c7,0,13-3.6,16-9.6c1.6-3.2,3.4-9.5-1.2-16.9c-3-6.9-7-13.7-12.6-20.8c0.3-3.6,0.1-8.6-2.7-13.4
		c10.3,11.8,23.2,19.6,38.6,23c2.7,0.6,5.2,1.1,7.6,1.5c0,0.2,0,0.5,0,0.7c-0.1,4.4,1.1,12.8,11.2,20c0.8,0.5,1.3,0.9,1.6,1.2
		c0,0.1,0,0.3,0,0.4c0.1,4.6,0.2,11.7,4.6,18.4c-1.1,7.7,2.4,13.1,4.2,15.3c3.4,4.2,7.7,6.1,10.6,7.4c0.3,0.1,0.6,0.3,0.9,0.4
		c10.5,4.8,22.1,7.1,36.5,7.1c3.1,0,6.5-0.1,10.3-0.3c1.7-0.1,4.4-0.5,7.1-2.2c1,0.1,2.1,0.2,3.1,0.2c3,0,5.5-0.5,7.4-0.9l0.4-0.1
		c6.3-1.3,11.2-5.1,13.5-10.6c2.2-5.1,1.6-11-1.5-15.9c-0.3-0.5-0.8-1.8-1.2-3c-1.4-3.7-3.2-8.7-7.7-13.3c-0.6-0.6-1.2-1.2-1.8-1.9
		c-5.3-5.4-5.4-6.1-5.1-7.2c1.3-5.9-0.2-11.9-3.9-16.6c2-3.1,3.4-6.7,4.1-10.4c5.8-3.9,9.8-8.7,13.4-12.9c1.2-1.4,2.3-2.7,3.3-3.9
		c3.4,0.7,7,1.2,10.9,1.2c5.1,0,9.8-1,14.2-2.9c9-3.9,16.7-5.7,24.2-5.7c0.4,0,0.8,0,1.1,0c0.7,0,1.7,0.2,2.9,0.3
		c1.9,0.3,4.3,0.6,6.9,0.6c0.9,0,1.9,0,2.8-0.1c2.4,2.6,4.9,4.6,7.5,6.3c4.7,2.9,9.9,4.4,15.3,4.4c0.6,0,1.3,0,1.9-0.1
		c-0.5,0.9-0.9,1.8-1.2,2.8c-2,5.9-0.6,11.3,1.1,15.1c-0.3,0.7-0.5,1.2-0.7,1.7c-3.7,6.1-3.3,12.1-3,15.2
		c-2.4,5.5-3.9,14.5,4.1,24.6c7.6,9.7,17.6,13.6,25.6,16.7c2,0.8,3.8,1.5,5.5,2.3c2.9,1.3,5.7,1.9,8.5,1.9c1.3,0,2.6-0.1,3.9-0.4
		c3,1.4,5.9,1.9,8.3,1.9c6,0,11.6-2.7,16.6-8.1c10.8-11.5,8.9-22.1,6.8-27.3c-0.9-2.3-0.5-5.6,0.2-10.8c0.6-4.5,1.4-9.8,0.9-15.6
		c3.1-5.3,3.5-10.5,3.1-14.4c-0.4-4.2-1.9-7.9-3.3-10.8c2.2-4.4,3.3-9.6,2.9-14.7c-0.4-6-3-11.1-7.1-14.4c-0.9-0.7-2.1-2.1-3.4-3.6
		c-3.3-3.8-8.1-9.5-16-12.5c10.5-2.5,18.7-9.2,23.9-19.3c10.5-9.3,15.9-20.9,20.1-31.1c3-7.1,3.8-14.1,4.5-20.3
		c0.6-5.4,1.1-10.1,3-13.3c4.3-7.4,1.6-14.4,0.6-17l-0.1-0.2c-0.3-0.9-0.7-1.7-1-2.6c-1-2.6-2-5-2.2-6.7c-0.4-3-1.1-5.8-1.6-8.2
		c-1.5-6.5-1.7-8.4-0.5-10.5c7.1-12.2,11.4-12.2,14.8-12.2c0.6,0,1.3,0,2,0.1c1.8,0.2,4.1,0.7,6.5,1.4c0.5,0.1,1.1,0.3,1.6,0.4
		c3.5,0.9,7,1.3,10.3,1.3c9.7,0,18.4-3.8,25.1-10.9c6.6-7,13.4-19.3,8.2-38.6l-0.1-0.3c-0.4-1.6-1.1-4.5-3.2-7.4
		c-3.4-4.9-8.8-7.7-14.9-7.7c-0.4,0-0.9,0-1.3,0c-6.7,0.4-12.3,5.3-13.7,11.8c-7.6-4.8-16.4-7.2-26-7.2c-0.5,0-1.1,0-1.7,0
		c0-1.5-0.1-3-0.2-4.6c3.2-0.6,6.8-0.8,10.8-1.1c1.3-0.1,2.5-0.1,3.8-0.2c12.4-0.8,23.4-5.2,31.9-12.8c8.7-7.7,14.1-18.4,15.3-30.2
		c2.4-24.8-15.9-37.6-23.8-43.1c-2.6-1.8-5.6-2.7-8.6-2.7c-1.9,0-3.8,0.4-5.6,1.1c-4.7,1.9-8.1,6-9.1,10.9
		c-1.6,7.9-0.2,15.2,4.2,21.6c-0.9,0-1.8,0.1-2.8,0.1c-0.7,0-1.4,0-2.2,0c-1.8,0-3.6-0.1-5.5-0.1c-2.1-0.1-4.2-0.1-6.4-0.1
		c-6.2,0-14.4,0.5-22.5,4c-4,1.7-6,2.1-6.9,2.1c-0.3,0-0.7,0-1.7-0.8c5.4-2.9,9.7-7.3,12.3-13c5.3-11.8,2.6-23.6-7.3-31.5
		c-6.9-5.5-15-8.5-23.4-8.5c-0.6,0-1.1,0-1.7,0c2.8-10.2,2.1-21.1-2.1-31.7c-5.1-12.8-16.9-21-30-21c-1.7,0-3.3,0.1-5,0.4
		c6.2-9.2,10.2-20.3,11.7-33.1c0.2-1.4,0.4-2.9,0.6-4.5c1.3-8.7,2.9-19.4-2.2-30.6c-3.1-6.9-3.8-10.7-2.5-14.9
		c1.6-5.3,0.2-11-3.7-14.9c-2.9-2.9-6.7-4.4-10.7-4.4c-1.4,0-2.7,0.2-4.1,0.6C461.3,5.6,459.8,5.4,458.4,5.4L458.4,5.4z
		 M433.7,145.3c0-0.2,0-0.4,0.1-0.6c0.9-7.5,3.4-15.1,7-21.2c2.1,0.6,4.1,0.9,6.2,0.9c-1,1.2-2,2.5-3,3.9
		C439.8,134,436.4,139.7,433.7,145.3L433.7,145.3z M343.7,152.9c0-0.1,0-0.1,0-0.2c-0.2-2.1-0.4-3.7,3.1-6.1c0,0,0,0.1-0.1,0.1
		C345.7,148.8,344.7,150.8,343.7,152.9L343.7,152.9z M293.1,225.9c1.1,0,2.2-0.1,3.2-0.2c0.6,0.4,1.7,1.3,2.6,2.3
		c-1,0.9-2,1.9-2.9,2.9c-1.8-1.8-3.7-3.5-5.6-5.1C291.2,225.9,292.1,225.9,293.1,225.9L293.1,225.9z"/>
</g>
</svg>
