<?xml version="1.0" encoding="utf-8"?>
<!-- Generator: Adobe Illustrator 24.1.0, SVG Export Plug-In . SVG Version: 6.00 Build 0)  -->
<svg version="1.1" id="Livello_1" xmlns="http://www.w3.org/2000/svg" xmlns:xlink="http://www.w3.org/1999/xlink" x="0px" y="0px"
	 viewBox="0 0 474 566.5" style="enable-background:new 0 0 474 566.5;" width="50" height="50" xml:space="preserve">
<style type="text/css">
	.st0{fill:#FEFEFE;}
</style>
<g id="Oibr3i_1_">
	<g>
		<path class="st0" d="M295,553.9c-6.5,0-13.1-0.7-19.5-2.1l-3-0.6c-9.6-2-19.6-4.1-29.2-8c-0.3,0.1-0.7,0.2-1,0.3
			c-1.4,0.4-3.2,0.9-5.4,0.9c-0.5,0-0.9,0-1.4-0.1c-0.2,0-0.3,0-0.5,0c-4.3-0.1-7.4-1.7-9.2-4.5c-9.2,4.9-20,7.6-31,7.6
			c-14,0-26.7-4.2-35.7-11.9c-4-3.4-7.9-7.3-10.3-12.6c-1.1,0.1-2.1,0.1-3.1,0.1c-5.2,0-9.8-1-13.8-3.2c-0.6,0.1-1.2,0.3-2,0.3
			c-1.4,0.1-2.9,0.1-4.4,0.1c-6.7,0-13.5-0.9-21.6-3c-5.1-1.3-9-3.6-11.8-7c-6.3-0.2-12.5-0.6-18.3-1c-0.2,0-0.5,0-0.7,0
			c-2-0.1-7.2-0.3-10.4-5c-1-0.1-2.2-0.4-3.4-0.9c-0.5,0-1,0-1.5-0.1c-4.1-0.4-12.5-1.3-14-8.8c-1.7-8.3,6.5-12.6,9.6-14.2
			c0.8-0.4,1.4-0.7,2-1c0.1-0.1,0.3-0.1,0.4-0.2c0.9-2.5,3-4.6,6.1-5.9c4.5-1.8,8.9-4.4,13.7-8c0.9-0.7,1.8-1.2,2.6-1.7
			c0.7-0.4,1.3-0.8,1.6-1.1c4.9-4.6,11.1-6.9,18.8-6.9c1.6,0,3.3,0.1,5.2,0.3c0.7,0.1,1.2,0.1,1.6,0.1c0.3,0,0.5,0,0.6,0
			c0.1-0.1,0.3-0.4,0.6-0.9c4.1-7.2,11.6-9.7,17.6-11.7c1.9-8.5,7.6-14.2,12.4-19c6-6,12.6-12.3,20.8-16.9c5.4-3,12.6-6.5,21-6.5
			c2.5,0,5,0.3,7.5,1c2.8-5.2,7.6-7.9,11.1-9.6c-0.3,0-0.7,0-1,0c-2.5,0-4.8-0.3-7-0.5c-1.8-0.2-3.6-0.4-5.1-0.4
			c-0.8,0-1.6,0.1-2.2,0.2c-1,0.2-2.1,0.3-3.1,0.3c-1.5,0-3-0.2-4.5-0.6c-2.6-0.7-5-1.3-7-1.3c-1.1,0-2.1,0.2-3,0.5
			c-2.4,0.9-4.8,1.3-7.1,1.3c-5.2,0-10.1-2.2-14.1-6.4c-0.1-0.1-0.2-0.3-1.3-0.3c-8.8-0.6-17.2-6.6-21.5-14.4
			c-5.7,5.7-9.4,12.8-11.4,22.1c-3.9,17.9-21.7,31.8-40.5,31.8c-0.5,0-1,0-1.5,0c-1,0-1.9-0.1-2.9-0.1c-5.3-0.1-11.3-0.2-17.3-3.2
			c-5.2-2.6-12.3-7.1-14.5-16.8c0,0-0.1-0.2-0.3-0.7c-1.1,2-3.8,5.9-9.1,5.9c-0.7,0-1.4-0.1-2.1-0.2c-3.3-0.6-5.1-2.5-6-3.9
			c-1.5-2.3-1.5-4.6-1.2-6.1c-2.1-6.8,0.9-13.4,8-17.1c0.6-0.3,1.2-0.7,1.9-1.1c0.6-0.4,1.3-0.8,2-1.2c-0.2-0.9-0.3-1.9-0.2-2.9
			c0.4-5.9,4.7-8.5,8.6-8.5c0.3,0,0.6,0,0.9,0c2.6-1.6,5.5-2.5,8.5-2.5c3.1,0,6.2,0.9,9.1,2.6c2.6,1.6,8.4,6.3,6.3,16.8
			c-0.7,3.3-1,5.8-0.5,8.3c0.2,0.9,0.9,3.9,3.8,3.9c0.1,0,0.2,0,0.3,0c4.8-0.3,9-1.7,12.9-4.1c0.5-0.3,0.7-1.3,1-3.9
			c0.1-0.8,0.2-1.7,0.3-2.5c0.4-2.5,0.6-5.1,0.8-7.8c0.5-6.1,1-12.4,3.6-18.8c3.1-7.5,6.7-16.5,14.1-23.5c-0.3,0-0.7-0.1-1-0.1
			c-2.4-0.4-4.5-2-5.5-4.3c-1.1-2.4-1.1-4.7-0.8-6.4c-0.9-0.5-1.7-1.2-2.3-2c-2.5-3.1-2-6.7-1.6-8.5c-6.3-1-9.3-5.7-10.8-8.1
			c-0.4-0.6-0.7-1.1-1-1.4c-1.6-2-4.7-7.4,1.3-13.9c0.1-0.1,0.2-0.2,0.3-0.3c0.8-0.9,1.6-1.5,2.3-2c4.7-12.1,15.7-15.9,22.9-18.1
			c0-8.4,5.3-15.7,14-19.1c0.2-0.1,0.4-0.2,0.6-0.2c-0.1-0.8-0.4-1.9-0.6-2.4c-1.1-4.3-0.5-7.5,0.6-9.9c-5.1-5.2-7.5-11.4-9.6-17
			c-0.4-1.1-0.8-2.2-1.3-3.3c-0.9-2.1-1.7-2.7-3.6-3.1c-1.1-0.3-2.2-0.4-3.4-0.4c-7.9,0-16.7,5.4-19.6,12.1
			c-0.3,0.7-0.5,1.5-0.7,2.5c2.3-0.6,4.6-0.9,6.9-0.9c6.5,0,12.6,2.6,16.6,7.1c3.8,4.3,5.6,10.1,4.8,16.1c-0.6,5.2-3.6,8.3-5.4,10.1
			c-5.2,5.5-13.8,8.8-22.4,8.8c-4.6,0-8.8-1-12.1-3c-7.8-4.6-8.8-10.9-8.3-15.4c0.2-1.4,0.5-2.7,1.1-3.9c-1.1-0.9-2.2-2-3.2-3.2
			c-4.8-5.9-6.6-14-4.9-22.4c3.8-19,22.6-35.6,42.7-37.9c1.4-0.2,2.6-0.3,3.6-0.5c-3.8-2.8-6.6-6-8.4-9.8c-0.6-1.3-1.1-2.6-1.4-3.7
			c-3.6,1.8-7.7,2.7-11.9,2.7c-0.4,0-0.8,0-1.2,0c-8.8-0.4-16.1-4.8-22.4-13.6l-0.6-0.8c-0.9-1.3-1.7-2.4-2.5-3.1
			c-0.7-0.6-1.5-1.2-2.2-1.8c-0.7,0.6-1.5,1.3-2.2,1.9c-2.7,2.2-5.5,3.4-8.6,3.4c-2.3,0-5.9-0.7-9.4-4.2c-2.4-2.3-7.2-8.6,0.2-17.1
			c3.4-4,9.1-6.2,15.5-6.2c4.5,0,9,1.1,13,3.1c5.5,2.8,9.4,6.9,12.7,10.6c1,1.1,2.9,3.3,3.7,3.5c0.1,0,0.4-0.1,0.9-0.3
			c2.4-1,3.2-1.6,3.4-1.8c0.1-0.3,0.2-1.3-0.1-4.1c-1.7-15.7,4.4-27.6,18.1-35.4c3.3-1.9,6.7-2.9,9.5-3.5c0.6-4,2.5-7.3,4.2-9.8
			c0.6-1,0.9-1.6,1-2c-0.3-0.2-1-0.6-2.2-1.1c-8.8-3.1-12.6-10-10.1-18.5c1.6-5.6,6.3-9.3,11.8-9.3c5.4,0,9.9,3.5,11.3,8.7
			c8.9,6,13.3,18.8,9.7,29.1c-0.4,1-0.5,1.4,1.8,3.8c2.1,2.2,3.9,3.3,5.3,3.5c0.1-0.2,0.1-0.4,0.1-0.5c0.7-6,3.1-10.9,5.3-15.2
			l0.3-0.6c0.5-1,0.7-1.4-0.5-3.3c-11.2-17-8-33.4,8.8-45c0.6-0.4,1.8-1.2,2.4-1.8c-0.7-2.7-1.2-2.8-2-2.9
			c-6.2-0.8-10.8-5.3-11.3-11.1c-0.4-4.1,1.4-7.8,5.2-11c2.2-1.8,4.8-2.8,7.5-2.8c3.4,0,6,1.5,7.4,2.3c7,3.9,11.8,11,13.1,19.4
			c1.4,8.9-1.3,18.2-7.3,24.8c-0.5,0.6-1.1,1.2-1.7,1.8c-1.9,1.9-3,3.2-3.5,4.5c-0.3,1-0.6,2.4,0.1,3.6c0.6,1,1.8,1.7,3.4,2
			c1.7,0.4,3.1,0.5,4.3,0.5c2.1,0,3.4-0.4,5.1-2.8c2.7-3.9,6.7-5.1,9.4-6c0.7-0.2,1.7-0.5,2.1-0.7c5.9-4.8,12.4-6.2,18.2-7.3
			c2-0.4,3.8-0.8,5.6-1.3c0.4-0.1,0.7-0.2,1.1-0.3c1.7-0.5,3.2-0.9,4-1.5c3.1-2.5,6.6-3.8,10.4-3.8c2.2,0,4.5,0.4,6.9,1.4
			c-0.8-1.2-1.3-2.4-1.6-3.8c-0.6-2.4-0.6-6.3,2.4-10.5c4.3-6,9.7-10.1,16-12c2.3-0.7,4.5-1,6.7-1c4.7,0,8.8,1.6,11.9,4.7
			c2.3,2.4,5,6.6,4.9,13.7c0,0.8-0.1,1.6-0.1,2.3c0.1,0,0.3,0,0.4,0c2-0.2,4.1-0.5,6.3-0.5c2.4,0,4.6,0.3,6.6,0.8
			c0.2,0.1,0.5,0.1,0.7,0.2c1.7,0.4,4.6,1.1,6.9,3.5c3,3.1,7.1,3.8,10.1,3.8c0.9,0,1.9-0.1,2.8-0.2c2-0.3,4-0.4,5.9-0.4
			c10,0,18.3,3.5,25.2,7c0.3,0.1,1.3,0.1,2,0.1l0.2,0c17.7,0.6,32.9,8.2,47.9,24c6.8,7.2,9.4,16,11.8,23.8c0.4,1.3,0.9,2,4.5,3.6
			c1.4,0.6,3,1.2,4.7,1.8c1.2,0.4,2.5,0.9,3.8,1.3c7,2.7,11.4,8.4,11.8,15.4c0.3,5,2.2,10,4.3,15.2c1.3,3.2,2.6,6.5,3.6,10.1l0,0.1
			c0.7,2.3,0.6,4.5-0.2,6.5c2,1.4,3.2,3.6,3.2,6c0,2.7-1.4,5.2-3.7,6.6c0.7,1.5,1,3.2,0.7,5.2c-0.1,0.5-0.2,0.9-0.3,1.4
			c1,0.8,2,1.6,2.9,2.5l0,0c4.3,2.7,6.1,6,5.2,9.9c0,0.2-0.1,0.4-0.1,0.6c0.7,0.7,1.3,1.5,1.8,2.5c1.4,2.4,1.3,5.3-0.1,7.6
			c-2.2,3.7-5.5,4.9-7.9,5.3c-0.4,1-1,2-1.7,2.7c1,3.6,1.2,6.8,1.2,9.6c3.3,4.6,2.8,9.7,2.5,12.7c-0.1,1-0.2,2.2-0.1,2.7
			c1.7,9.2-2.3,16.6-5.5,22.5c-0.7,1.2-1.3,2.4-1.9,3.6c-2.3,4.6-3.6,7.4-3.4,11c0.1,2.1-0.1,4.2-0.7,6.3c1.8-0.3,3.6-0.4,5.5-0.4
			c0.8,0,1.7,0,2.6,0.1c7.6,0.5,12.4,3.6,14.5,9.4c1.5-1.8,3.5-3.2,5.8-3.9c1.2-0.4,2.4-0.6,3.6-0.6c6.5,0,11.9,5.3,12.4,12
			c0.4,5.9,0,11.8-0.5,17.8c-0.6,7.8-7.7,13.5-16.7,13.6c-0.3,0-0.6,0-0.9,0c-4.8,0-11.8-0.5-18.1-4.7c-3.8-2.5-8.2-7.2-8.6-15.4
			c-3.4,2.1-5.9,5-7.5,8.9c-0.3,0.8-0.7,1.5-1,2.2c1.3,0.1,2.6,0.4,3.8,0.8c7.2,2.5,12.4,7.1,15.3,13.1c3,6.4,3,14,0.1,21.9
			c-6.6,17.8-19.8,28.5-39.3,32c-0.5,5.1-2,9.3-4.7,12.8c-0.6,0.8-0.9,1.8-1.2,3.4c3.6,0.1,6.8,0.8,9.8,2.2
			c16.1,7.1,15.9,22.9,15.8,28.8c-0.2,11.9-13.5,30.8-29,30.8c-0.3,0-0.6,0-1,0c-10.8-0.5-16.3-4.9-19.1-8.5
			c-1.7-2.2-3.3-5.5-3.6-10c-3.8,1.9-7.9,3.2-12.4,3.7c-0.1,0.3-0.1,0.7-0.2,1.1c0,0.4,0,0.7,0,0.8c0.2,0.2,0.9,0.7,2.7,1.6
			c9.2,4.4,12.2,14.1,8,25.4c2.7,2.2,7.5,6.9,7.4,14.6c5.9,2,9.3,6.4,11.9,9.6c0.8,1,1.5,2,2.3,2.8c2.6,2.8,2.7,5.7,2.6,7.2
			c-0.4,4-3.3,6.1-4.3,6.9l-0.2,0.1c-4.8,3.7-10.1,4.3-14.3,4.8l-0.8,0.1c-5.4,0.6-10.7,0.9-15.9,1.1l-1.9,0.1
			c-2.5,12.4-11,20.9-24.2,24.2C310.3,553,302.6,553.9,295,553.9z M388.4,344.2c0.3,0.3,0.7,0.7,1.4,1.3c0.1,0.1,0.3,0.2,0.4,0.4
			c-0.5-1.3-0.9-2.6-1.1-3.9C388.8,342.8,388.5,343.5,388.4,344.2z M98.2,156.9c3.6,0.5,6.2,2.6,8.1,4.2c0.1-0.2,0.2-0.5,0.3-0.7
			c0.6-1.4,0.9-2.2,0.9-2.6c-0.2-0.2-0.7-0.6-1.6-1.2c-2.5-1.6-4.6-3.4-6.3-5.4C99.3,153.1,98.8,155.1,98.2,156.9z"/>
		<path d="M149.1,23.4c1.3,0,2.5,0.6,3.7,1.3c11,6.2,13,22.7,3.9,32.6c-2.6,2.8-5.5,5.2-6.8,9.1c-2.3,7.3,1.6,13.6,9.1,15.2
			c2,0.4,4,0.7,5.8,0.7c4.3,0,8.1-1.5,11.3-6.1c2.1-3.1,7.2-2.9,10-5.2c6.3-5.2,14-5.2,21.1-7.3c2.7-0.8,5.5-1.4,7.8-3.2
			c1.9-1.5,3.7-2.1,5.7-2.1c1.8,0,3.6,0.5,5.5,1.4c2.5,1.2,4.9,2.1,7.3,2.1c2.6,0,5-1.1,7.2-4.2c0.8-1.2,2.8-1.8,4.3-2.2
			c5-1.2,6.1-5.3,7.1-9.3c0.4-1.6-0.3-3.5-1.9-4.2c-0.1,0-0.2-0.1-0.3-0.1c-0.7,0-1.7,0.6-2.2,1.1c-1.4,1.4-0.5,2.7,0.6,3.9
			c0.7,0.7,1.1,1.5,0.5,2.6c-1,1.8-3.4,2.9-6.1,2.9c-1.7,0-3.5-0.4-5.1-1.3c-4.4-2.4-5.5-5.3-3-8.9c3-4.3,6.8-7.6,12-9.1
			c1.6-0.5,3.1-0.7,4.5-0.7c5.7,0,9.4,4,9.3,10.9c-0.1,3.3-0.7,6.5-1.1,9.8c1.4,0.3,2.8,0.4,4.2,0.4c3.7,0,7.3-0.8,11-0.8
			c1.6,0,3.1,0.1,4.7,0.6c1.5,0.4,3.1,0.6,4.1,1.6c4.3,4.5,10.2,6.1,15.6,6.1c1.3,0,2.6-0.1,3.8-0.3c1.7-0.2,3.3-0.3,4.9-0.3
			c7.9,0,14.8,2.7,21.8,6.2c1.7,0.9,3.5,0.9,5.3,1c17.6,0.6,31,9.4,42.7,21.7c5.5,5.8,7.8,13.4,10,20.8c1.4,4.7,4.9,6.7,8.7,8.3
			c2.8,1.2,5.9,2.1,8.8,3.2c4.2,1.6,6.8,4.9,7,8.8c0.6,9.7,5.6,17.8,8.1,26.8c0.2,0.8,0.6,1.6-0.5,2.8c-3-3.2-5.9-6.4-8.8-9.6
			c-0.6-0.7-1.1-1.7-1.9-1.7c-0.2,0-0.5,0.1-0.7,0.3c-0.7,0.5-0.8,2.2-0.6,3.2c0.3,1.8,1.3,3.6,2.8,4.6c4.6,3.1,7,8.4,12.6,11.3
			c-1.8,1-3.5,1.4-5.1,1.4c-1.3,0-2.6-0.2-3.9-0.5c-0.6-0.1-1.3-0.4-1.9-0.4c-0.6,0-1.2,0.3-1.6,1.2c-0.7,1.7,0.7,2.2,1.8,3
			c2.8,1.9,8.1,3.3,7.7,5.9c-0.2,1.2-1.1,1.5-2.4,1.5c-1.1,0-2.3-0.2-3.7-0.2c-1.2,0-2.4,0.1-3.5,0.7c6.2,2,10.9,5,14.9,8.8
			c0.8,0.7,5.9,2.8-0.4,3.6c-1.2,0.1-1.9,2.5,0.5,3.6c1.9,0.8,3.9,1.7,5.1,3.7c-1.8,3-5.4,1.1-7.7,2.9c-0.8,0.6-3.4,0-1.3,2.2
			c0.9,0.9,0.5,1.8-0.1,2c-4.9,1.2-1.9,5.1-1.4,6.7c0.9,2.8,1,5.5,1,8.3c0,0.8-0.3,2.1,0.1,2.4c4.6,4,1.5,9.3,2.4,13.9
			c1.5,8.2-3.4,14.6-6.8,21.3c-2.4,4.7-4.5,9.1-4.1,14.8c0.5,8.3-9.8,17.4-18.1,17.5c-3.6,0-6.3,2-7.6,5.4c-1.6,4.5-3.3,9-6.4,12.8
			c-1.7,1.9-0.4,2.8,1.3,3c1,0.1,2,0.3,3,0.3c1.5,0,2.9-0.3,4.2-1.2c5-3.6,10.1-7,13.5-12.2c5.4-8.1,12.7-12.6,22.3-12.6
			c0.7,0,1.4,0,2.1,0.1c6.1,0.4,8.3,2.5,8.7,8.5c0.3,4,0.7,8,2.2,11.7c1.5,3.8,3.8,6.7,8.4,6.7c0.1,0,0.3,0,0.4,0
			c2-0.1,3.8-0.4,4.7-2.1c0.9-1.8,0.9-3.9-0.6-5.6c-1.7-1.9-2.6-4.2-3.5-6.5c-1.3-3.3-0.3-6.5,2.8-7.5c0.5-0.1,0.9-0.2,1.3-0.2
			c2.7,0,4.7,2.6,4.9,5.1c0.4,5.5,0,11.1-0.5,16.6c-0.4,4.5-5.1,6.7-9.3,6.7c-0.3,0-0.5,0-0.8,0c-4.8,0-9.8-0.6-14-3.4
			c-3.9-2.6-5.4-6.4-5.3-11.1c0.1-4.4-1.7-6.8-4.9-6.8c-1.3,0-2.7,0.4-4.4,1.2c-5.8,2.9-10.1,7.6-12.6,13.6
			c-3.7,8.7-9.8,14.4-18.9,16.8c-0.5,0.1-1.4,0.2-1.4,0.3c-0.2,4.4-2.5,8.2-3.2,12.4c-0.4,2.7,1.9,5.2,4.1,7.1
			c3.5,3.1,7.9,4.5,12.3,4.5c6.7,0,13.2-3.4,16.3-9.5c1-2,1.7-4.1,1.2-6.3c-0.8-3.7-2.6-7.4-6.8-7.6c-0.1,0-0.2,0-0.3,0
			c-3.9,0-3.1,4.2-4.2,6.7c2.4,1.1,5.5-0.5,6.9,2.4c1.2,2.4,0.7,4.7-1.1,6.4c-1.3,1.2-2.8,2-4.4,2c-1,0-2.1-0.3-3.3-1.1
			c-4-2.6-6.4-8.8-4.8-12.5c2.2-5.1,7.5-8.9,12.2-8.9c0.9,0,1.7,0.1,2.5,0.4c11.2,4,15.1,13.8,10.8,25.4
			c-6.4,17.2-19.6,25.6-37.3,27.8c-2.1,0.3-2.4,0.9-2.4,2.7c0.1,4.4-0.6,8.8-3.3,12.3c-3.3,4.3-2.5,9.4-4,14.1
			c-0.5,1.6,0.1,1.9,1,1.9c0.6,0,1.4-0.2,1.9-0.3c1.6-0.2,3.2-0.3,4.7-0.3c2.7,0,5.4,0.4,8,1.6c9.6,4.2,11.5,12.4,11.3,21.9
			c-0.1,8-10.4,23.4-21.5,23.4c-0.2,0-0.4,0-0.6,0c-11-0.5-17.4-6.1-15.1-16c1.1-4.9,6.7-8.4,11.9-8.4c2.1,0,4.1,0.6,5.7,1.8
			c3.4,2.7,3.1,6.6-0.7,8.9c-1.3,0.8-2.7,1.1-4.7,1.1c-1.3,0-2.8-0.1-4.8-0.4c1.5,2.7,3.9,4,6.5,4c2.2,0,4.6-1,6.6-3.1
			c3.8-4,3.6-15.7-0.3-19.4c-0.5-0.4-0.9-1-1.5-1.3c-0.4-0.2-1-0.2-1.7-0.2c-4.6,0-15.2,3-16.8,5.3c-5.7,7.8-13.1,12.4-22.9,13.1
			c-3.4,0.2-4.8,4.6-5,7.9c-0.4,5.6,2.9,7.6,7,9.6c6.6,3.2,6.7,10.1,3.9,17.1c-1.5,3.6-0.6,4.9,1.8,6.7c3.7,2.9,6.3,6.2,5.4,11.4
			c-0.5,2.7,2.1,4.3,4.1,4.8c6.1,1.4,8.5,6.8,12.2,10.8c1.5,1.6-0.1,2.4-1,3.1c-3.3,2.6-7.4,2.9-11.3,3.3
			c-5.9,0.7-11.9,0.9-17.9,1.2c-3.6,0.2-5.5,1-6.3,5.4c-1.8,10.2-8.7,16.5-18.8,18.9c-7,1.7-14.1,2.6-21.1,2.6c-6,0-11.9-0.6-18-1.9
			c-10.7-2.3-21.4-4.3-31.6-8.5c-0.7-0.3-1.3-0.4-2-0.4c-2.2,0-4.4,1.2-6.7,1.2c-0.2,0-0.4,0-0.6,0c-1.7-0.2-3.7,0.2-4.4-1.6
			c-0.7-1.9,2.1-1.8,2.6-3.2c-1.4-1.9-2.8-2.7-4.3-2.7c-1.5,0-3.1,0.7-4.9,1.9c-9.1,5.8-20,8.6-30.5,8.6c-11.7,0-23-3.5-30.8-10.1
			c-4-3.4-7.6-7-9.1-12.1c-0.6-2-1.4-2.6-2.9-2.6c-0.3,0-0.6,0-0.9,0.1c-1.8,0.2-3.6,0.4-5.3,0.4c-4,0-8-0.8-11.6-3.1
			c-0.6-0.4-1.1-0.5-1.6-0.5c-1.1,0-2.1,0.6-3.1,0.7c-1.3,0.1-2.6,0.1-3.9,0.1c-6.7,0-13.3-1.1-19.8-2.8c-3.2-0.8-6.3-2.2-8.3-5.2
			c-1-1.4-2.3-2-4.2-2.1c-6.3-0.2-12.6-0.6-18.9-1c-2.5-0.2-5.1,0.2-6.1-3.5c-0.7-2.4-4.2-0.7-6.2-2c-0.9-0.6-2.2-0.4-3.4-0.5
			c-2.8-0.3-7.1-0.7-7.5-2.8c-0.6-2.8,3.1-4.7,5.7-6.1c2.5-1.3,5.4-1.8,6-5.2c0.1-0.6,1.2-1.2,1.9-1.5c5.6-2.3,10.6-5.3,15.4-9
			c1.5-1.1,3.3-1.9,4.8-3.3c4-3.7,8.7-4.8,13.7-4.8c1.5,0,3,0.1,4.5,0.2c0.8,0.1,1.6,0.1,2.4,0.1c3.1,0,5.5-0.9,7.7-4.7
			c3.1-5.4,9.8-7,15.6-9c1.1-0.4,2.3-0.1,2.4-1.8c0.4-8,5.7-13.2,10.8-18.4c5.8-5.9,11.9-11.6,19.2-15.7c5.6-3.2,11.4-5.5,17.3-5.5
			c4.1,0,8.3,1.1,12.7,3.8c-0.2-8.2,4.8-11.2,10.9-14c5.1-2.3,10.1-3.6,15.2-3.6c3.6,0,7.2,0.6,10.8,2c0.2,0.1,0.5,0.1,0.8,0.1
			c3.3,0,12.5-3.1,13-4.7c0.7-2.6-1.8-4.8-0.6-8.2c-4.5,2.2-8,4.2-11.6,5.5c-3.9,1.4-7.8,2.2-11.6,2.2c-5.8,0-11.3-1.8-16.5-5.9
			c-0.6-0.5-1.4-1.2-2-1.2c0,0-0.1,0-0.1,0c-1.1,0.2-2.3,0.3-3.4,0.3c-4,0-8.1-1-12.1-1c-1.2,0-2.4,0.1-3.6,0.3
			c-0.6,0.1-1.2,0.2-1.8,0.2c-0.9,0-1.7-0.1-2.6-0.4c-3-0.8-5.9-1.5-8.9-1.5c-1.9,0-3.7,0.3-5.6,1c-1.5,0.6-3,0.9-4.5,0.9
			c-3.2,0-6.2-1.4-8.7-4.1c-1.7-1.8-3.7-2.5-6.2-2.6c-7.8-0.6-15.5-7.3-17.2-15.1c-0.4-2-0.8-3.2-1.9-3.2c-0.6,0-1.5,0.4-2.7,1.3
			c-10.4,7.7-16.2,18-19,30.4c-3.2,14.4-18.2,26-33.2,26c-0.4,0-0.8,0-1.2,0c-5.7-0.2-11.7,0.2-17.1-2.5c-5.1-2.5-9.2-5.8-10.5-11.7
			c-0.4-1.7-1.4-3.4-2.5-4.8c-1.6-2.1-3.5-3.1-5.3-3.1c-2.2,0-4.3,1.4-5.7,4c-0.8,1.4-1.4,3.2-3.2,3.2c-0.2,0-0.4,0-0.6-0.1
			c-2.4-0.5-0.5-2.5-1-3.7c-2.1-4.5,0.3-7.5,3.9-9.4c3-1.6,6.1-4.1,9.5-4.1c1.6,0,3.2,0.5,5,2c0.8,0.6,1.4,1.9,2.4,1.9
			c0.2,0,0.5-0.1,0.8-0.2c1.7-0.9,0.7-2.7,0.8-4c0.1-1.8-0.8-3.3-2.8-3.5c-0.6,0-1.1-0.1-1.7-0.1c-0.5,0-1,0-1.5,0
			c-0.8,0-1.5,0-2.3-0.1c-1.7-0.2-2.6-1.5-2.5-3.2c0.1-1.2,0.5-1.5,1.1-1.5c0.5,0,1.2,0.3,1.8,0.5c0.2,0.1,0.3,0.1,0.5,0.1
			c0.9,0,1.3-0.8,2-1.3c1.6-1.2,3.4-1.7,5.1-1.7c1.8,0,3.6,0.6,5.2,1.6c3.2,1.9,3.5,5.4,2.8,8.9c-0.7,3.7-1.3,7.3-0.6,11.1
			c1,5.9,5.4,10.1,11.2,10.1c0.3,0,0.5,0,0.8,0c5.9-0.4,11.4-2.1,16.4-5.3c4.3-2.7,4-7.4,4.7-11.5c1.3-8.3,0.8-16.9,4-24.9
			c3.9-9.5,7.9-19,17.3-24.7c4-2.4,1.8-5.8,0.2-8.1c-1-1.4-2.1-3.7-4.1-3.7c-0.8,0-1.7,0.4-2.8,1.4c-0.7,0.7-1.5,1.4-2.6,1.4
			c-0.2,0-0.4,0-0.5-0.1c-1-2.2,0.6-4.1,0.6-6.2c0-1.8,0.5-3.8-1.7-3.8c-0.4,0-0.8,0.1-1.4,0.2c-0.3,0.1-0.5,0.1-0.8,0.1
			c-1.6,0-1.2-1.6-0.9-3c0.9-4.2-1.3-8.3-5.1-8.4c-4.9-0.1-5.9-4.1-8.2-6.9c-1.5-1.9,0.3-3.4,1.4-4.7c0.8-1,2.7-1.4,3-2.4
			c2.8-9.9,10.9-13,19.5-15.7c3.2-1,4.6-2.8,4.5-6.5c-0.2-6.3,4.2-10.6,9.2-12.5c6.6-2.6,5.8-6.6,4.5-11.6c-0.5-2-0.6-4,0.7-5.7
			c2-2.5,1-4.8-1-6.6c-5.7-5.1-7.6-12.3-10.3-18.9c-1.9-4.7-4.9-6.7-8.8-7.6c-1.7-0.4-3.4-0.6-5.2-0.6c-10.8,0-22.3,7-26.5,16.6
			c-0.8,1.9-1.3,4.2-1.4,6.3c-0.4,5.3,0.7,7.6,3.9,7.6c1.2,0,2.8-0.3,4.7-0.9c2-0.6,4-1,5.9-1c8.6,0,15,6.2,13.9,14.8
			c-0.3,2.6-1.8,4.2-3.4,5.9c-3.9,4.1-10.8,6.5-17,6.5c-3.1,0-6.1-0.6-8.3-1.9c-3.1-1.9-5.1-4.3-4.6-8c0.3-2.3,2-3.6,3.9-4.1
			c0.6-0.1,1.1-0.2,1.6-0.2c2.7,0,4.8,1.6,6.5,3.9c0.9,1.2,1.5,2.6,2.9,3.3c1,0.5,1.9,0.7,2.7,0.7c1.5,0,2.9-0.6,4.2-1.6
			c1.8-1.2,2.7-3,2.2-5.2c-0.5-2.6-2.3-4-4.8-4.5c-1-0.2-2.1-0.3-3.1-0.3c-1.6,0-3.2,0.2-4.8,0.5c-1.1,0.2-2.1,0.3-3.1,0.3
			c-10.7,0-17.8-9.6-15.4-21.7c3.3-16.1,19.7-30.1,36.2-32c4.2-0.5,8.3-1,11.5-3.9c3.8-3.4,3.6-5.4-0.9-7.9c-4-2.2-7.6-5-9.5-9.1
			c-1.3-2.7-2-5.9,1.2-8c0.9-0.6,1.8-0.9,2.6-0.9c2,0,3.7,1.5,5.3,2.9c3,2.6,1.5,4.9-0.9,7c2.2,0.8,3.9,1.2,5.3,1.2
			c2.9,0,4.3-1.9,5.4-6.2c0.4-1.9,1-3.9,1.8-5.6c2.8-6.2,2.3-9.6-3.5-13.3c-5-3.1-7.7-7.6-10.3-12.4c-1.4-2.5-1.1-4.4,0.9-6.2
			c0.1,0,0.1,0,0.2,0c3.2,0,4.6,2.6,5.3,4.9c1.5,4.7,5,6.7,9.2,8.1c0.8,0.2,1.6,0.5,2.4,0.5c0.9,0,1.7-0.3,2.2-1
			c1.2-1.6,0.9-3.7-0.2-5.6c-3-5.1-10.1-8.5-16.5-8.5c-1.6,0-3.1,0.2-4.6,0.7c-5.5,2.8-7.1,5.8-6.3,12c1.7,14.2-6.9,25.1-19.6,25.1
			c-0.3,0-0.6,0-0.9,0c-7.5-0.3-12.5-4.7-16.6-10.4c-1.4-1.9-2.6-3.8-4.4-5.3c-3.4-2.8-5.2-4.3-6.9-4.3c-1.8,0-3.6,1.5-7.1,4.4
			c-1.3,1.1-2.5,1.6-3.8,1.6c-1.4,0-2.8-0.7-4.2-2c-2.7-2.6-1.2-4.7,0.6-6.8c2.1-2.4,5.8-3.7,9.8-3.7c3.2,0,6.5,0.8,9.6,2.3
			c4.2,2.2,7.5,5.5,10.6,8.9c2.7,3,5.4,6,9.2,6c1.2,0,2.5-0.3,3.9-0.9c6.9-3,8.8-5.1,7.9-13.6c-1.4-12.7,3.3-21.8,14.3-28.1
			c3.3-1.9,6.8-2.7,10.4-3.2c2-0.3,3.1-0.6,2.8-2.8c-0.4-3.7,1.1-6.7,3.1-9.7c4.4-6.7,2.6-11.6-4.9-14.3c-5-1.8-6.8-4.7-5.4-9.3
			c0.7-2.3,2.3-3.9,4.6-3.9c0,0,0,0,0,0c2.1,0,3.8,1.4,4.1,3.6c0.2,1.3,0.2,2.2,1.8,3.1c6.7,3.6,10.6,13.6,8,21.1
			c-1.8,5,0.4,8.3,3.5,11.5c3.1,3.2,6.6,5.8,11,5.8c0.6,0,1.2,0,1.7-0.1c3.3-0.5,5.2-4.1,5.6-7.1c0.6-5,2.8-9.2,4.9-13.4
			c1.9-3.9,1.3-7.2-1-10.7c-9-13.6-6.7-25.4,6.8-34.6c3.2-2.2,6.7-4.7,5.7-9.1c-1-4.3-2.9-8.5-8.4-9.2c-2.2-0.3-4.6-1.6-4.8-4.4
			c-0.2-1.9,1.1-3.3,2.6-4.6C147.3,23.7,148.2,23.4,149.1,23.4 M188,522.3c1,0,2.2-0.1,3.4-0.3c7.5-1.2,14.6-3.7,21.5-6.8
			c1-0.4,2.7-0.4,2.9-2.2c-2-0.3-5.1,0-5.6-0.9c-1-2.2-2.1-2.9-3.3-2.9c-1.7,0-3.4,1.5-5.3,2c-3.6,0.8-7.2,1.8-10.7,1.8
			c-3.2,0-6.4-0.8-9.4-3.3c0.9-0.7,1.8-1.5,1.7-2.7c0-0.6-0.5-0.7-0.9-0.7c-0.2,0-0.4,0-0.6,0.1c-1.3,0.2-1.4,1.1-1.2,2.2l0,0
			c-0.1,1.2-0.3,2.3-0.3,3.5C180.1,519.2,182.3,522.3,188,522.3 M149.1,8.4C149.1,8.4,149.1,8.4,149.1,8.4c-4.5,0-8.7,1.6-12.3,4.5
			c-7.3,6.1-8.3,12.8-7.9,17.4c0.5,5.7,3.4,10.6,7.8,13.9c-6.3,5.9-10.3,12.6-11.8,20.2c-0.4,2-0.6,4-0.6,6c-0.5-0.5-1-0.9-1.5-1.3
			c-3-6.9-9.8-11.5-17.6-11.5c-8.9,0-16.5,5.9-19.1,14.7c-3,10.3,0.6,19.6,9.2,25c-0.4,0.8-0.7,1.6-1,2.4c-2.3,0.7-4.7,1.7-7.1,3.1
			c-13.7,7.8-21.2,19.5-22.1,34.1c-2.7-2.5-5.8-4.9-9.6-6.8c-5-2.6-10.7-3.9-16.4-3.9c-8.6,0-16.3,3.2-21.2,8.8
			c-1.3,1.6-4.2,4.8-5.3,9.6c-1.5,6.4,0.5,12.9,5.5,17.8c5.3,5.2,10.9,6.3,14.6,6.3c2.6,0,6.2-0.5,10-2.7
			c7.6,10.6,17.1,16.3,28.2,16.7c0.5,0,1,0,1.5,0c1.3,0,2.5-0.1,3.7-0.2c-6.3,2.5-12.4,6.2-17.7,10.8c-9.4,8.2-15.8,18.7-18,29.7
			c-2.1,10.6,0.2,21,6.4,28.6c0.2,0.2,0.3,0.4,0.5,0.6c0,0.3-0.1,0.6-0.1,0.9c-1.1,9.3,3.3,17.6,11.9,22.7c3.8,2.2,8.3,3.6,13.2,3.9
			c-1.2,1.7-2.3,3.6-3.3,5.6c-0.6,0.5-1.2,1.1-1.8,1.8l-0.2,0.2c-1,1.1-3,3.2-4.3,6.5c-2.3,5.7-1.3,12.1,2.6,17
			c0.1,0.2,0.3,0.5,0.5,0.8c1.3,2.1,4.2,6.6,9.5,9.4c0.6,4.4,2.6,6.9,3.4,7.9c0.2,0.2,0.4,0.4,0.6,0.7c0.2,1.9,0.6,4,1.6,6.1
			c0.5,1.1,1.2,2.2,1.9,3.1c-4.5,6.4-7.3,13.2-9.6,18.8c-3,7.5-3.6,14.6-4.2,21c-0.2,2.6-0.4,5-0.8,7.2c-0.1,0.9-0.3,1.8-0.3,2.5
			c-1,0.4-2,0.8-3.1,1.1c0.1-0.8,0.3-1.7,0.5-2.7c2.1-10.5-1.5-19.8-9.8-24.7c-4-2.4-8.5-3.7-12.9-3.7c-3.6,0-7.2,0.8-10.4,2.5
			c-7.8,0.5-14,6.6-14.9,14.7c-4.7,2.5-8.1,5.9-10.2,10.1c-2.2,4.4-2.8,9.3-1.6,14.2c-0.2,3.4,0.7,6.6,2.5,9.4
			c2.4,3.8,6.3,6.3,10.9,7.2c1.2,0.2,2.3,0.3,3.5,0.3c1.9,0,4.1-0.3,6.3-1.2c4.8,7.3,11.6,10.7,14.3,12c7.5,3.7,14.7,3.9,20.4,4
			c0.9,0,1.8,0,2.7,0.1c0.6,0,1.2,0,1.8,0c22.1,0,43.2-16.6,47.8-37.7c1-4.3,2.3-8.1,4.2-11.4c5.3,5.1,12,8.5,19.2,9.5
			c5.1,4.5,11.1,6.9,17.6,7c-1.1,0.6-2.1,1.1-3,1.6c-9.1,5.1-16.1,11.8-22.5,18.2c-4.3,4.3-10.1,10.1-13.2,18.5
			c-5.3,1.9-11.5,4.8-16,10.7c-1.3-0.1-2.5-0.1-3.6-0.1c-9.5,0-17.4,2.9-23.7,8.6c-0.2,0.1-0.4,0.3-0.6,0.4c-0.8,0.5-2,1.2-3.2,2.1
			c-4.3,3.2-8.1,5.5-12,7c-3.8,1.6-6.9,4-8.8,7.1c-0.1,0.1-0.3,0.1-0.4,0.2c-1.7,0.9-4.4,2.3-6.8,4.4c-5.6,4.8-8,11.3-6.6,18
			c0.6,3.1,3.2,10.6,13.5,13.5c2.7,0.7,5.3,1,7.1,1.2c0.3,0,0.5,0.1,0.8,0.1c0.3,0.1,0.6,0.2,1,0.3c1.5,1.5,3.2,2.7,5.1,3.6
			c3.7,1.8,7.2,2,9,2c0.2,0,0.3,0,0.5,0c5,0.4,10.2,0.7,15.5,0.9c3.5,3.3,8,5.6,13.3,6.9c8.7,2.2,16.1,3.2,23.4,3.2
			c1.6,0,3.3-0.1,4.9-0.2c0.1,0,0.3,0,0.4,0c4.1,1.8,8.7,2.7,13.6,2.9c2.8,4.4,6.4,7.8,9.8,10.8c10.4,8.8,24.8,13.7,40.5,13.7
			c10.2,0,20.4-2.1,29.5-6.1c2.5,1.7,5.9,2.9,10.4,3l0.2,0c0.6,0.1,1.3,0.1,1.9,0.1c2.4,0,4.5-0.4,6-0.8c9.5,3.5,18.9,5.5,28.1,7.4
			c1,0.2,2,0.4,3,0.6c7,1.5,14.1,2.2,21.1,2.2c8.2,0,16.5-1,24.7-3.1c13.8-3.4,23.8-12.1,28.2-24.3c4.2-0.2,8.5-0.5,12.9-1l0.8-0.1
			c4.6-0.5,11.6-1.3,18-6.3l0,0c4.4-3.2,6.9-7.3,7.4-12.2c0.5-4.7-1.2-9.4-4.6-13c-0.5-0.5-1.2-1.4-1.8-2.3
			c-2.2-2.8-5.5-7.1-10.7-10.1c-0.8-3.8-2.5-7.8-6-11.7c0.7-2.8,0.9-5.4,0.9-7.9c3.8,1.8,8.6,3.1,14.6,3.4c0.4,0,0.9,0,1.3,0
			c20.5,0,36.3-23.2,36.5-38.2c0.1-6.6,0.3-26.7-20.3-35.8c-0.6-0.3-1.3-0.5-1.9-0.8c0.6-1.4,1.1-2.9,1.5-4.4
			c19.3-4.9,32.9-17.1,39.8-35.7c2.9-7.8,3.4-15.5,1.6-22.5c2.8,0.4,5.4,0.5,7.5,0.5c0.3,0,0.6,0,1,0c13-0.2,23.2-8.8,24.1-20.5
			c0.5-6.3,0.9-12.5,0.5-18.9c-0.8-10.6-9.5-19-19.9-19c-2,0-3.9,0.3-5.8,0.9c-0.5,0.2-1.1,0.4-1.6,0.6c0,0-0.1-0.1-0.1-0.1
			c-5.9-5.7-13.5-6.2-16-6.3c-0.1,0-0.2,0-0.3,0c0.2-1.4,1-3,2.5-6.1c0.5-1,1.1-2.1,1.8-3.3c3.3-6.1,8.4-15.3,6.4-26.9
			c0-0.3,0.1-0.8,0.1-1.2c0.3-3.2,0.9-9.5-2.5-15.7c-0.1-1.3-0.2-2.8-0.4-4.4c3.2-1.5,5.8-3.9,7.8-7.1c2.8-4.7,2.9-10.5,0.1-15.2
			c-0.2-0.3-0.3-0.6-0.5-0.8c0.1-4.7-2-9.2-5.8-12.5c-0.8-0.7-1.5-1.2-2.1-1.6c0-0.3,0-0.6,0-0.9c1.9-2.6,3-5.8,3-9.2
			c0-3-1-5.8-2.6-8.2c0.1-1.9-0.1-4.1-0.7-6.4l0-0.1c-1.1-3.9-2.5-7.4-3.8-10.8c-1.9-4.8-3.5-9-3.8-12.8
			c-0.6-9.8-6.9-18.2-16.6-21.9c-1.4-0.5-2.7-1-4-1.4c-1.5-0.5-3-1-4.2-1.5c-0.3-0.1-0.6-0.2-0.8-0.3c-2.4-7.9-5.5-17.4-13.1-25.3
			C371.9,62,354.6,53.4,335,52.7l-0.2,0c-0.1,0-0.1,0-0.2,0c-7.4-3.6-16.3-7.1-27.2-7.1c-2.3,0-4.6,0.2-6.9,0.5
			c-0.6,0.1-1.2,0.1-1.8,0.1c-1.2,0-3.5-0.2-4.7-1.4c-3.9-4.1-8.4-5.1-10.6-5.6c-0.1,0-0.3-0.1-0.4-0.1c-2.6-0.7-5.2-1-8.1-1.1
			c-0.7-4.4-2.6-9.2-6.6-13.3c-4.4-4.5-10.5-7-17.2-7c-2.9,0-5.8,0.5-8.8,1.4c-7.9,2.4-14.6,7.4-19.9,14.8c-2.2,3.1-3.5,6.5-4,9.9
			c-4.4,0.4-8.5,2.1-12.2,4.9c-0.5,0.2-1.2,0.4-1.8,0.5c-0.4,0.1-0.8,0.2-1.2,0.3c-1.4,0.4-3.2,0.8-5,1.1
			c-5.7,1.2-13.3,2.7-20.4,8.1c-0.2,0.1-0.4,0.1-0.6,0.2c-1.1,0.4-2.6,0.8-4.2,1.6c3.9-7.2,5.4-15.6,4.1-23.9
			c-1.7-10.7-7.8-19.7-16.8-24.8C158.5,10.7,154.4,8.4,149.1,8.4L149.1,8.4z M98.7,91.5C98.7,91.5,98.7,91.5,98.7,91.5L98.7,91.5
			L98.7,91.5z M101.5,100.2C101.5,100.2,101.5,100.2,101.5,100.2L101.5,100.2z M92.1,224.4c1-0.3,2-0.4,3-0.4c0.2,0,0.4,0,0.5,0
			c0.2,0.6,0.5,1.3,0.7,2c0.1,0.1,0.1,0.3,0.2,0.4C95.1,225.7,93.6,225,92.1,224.4L92.1,224.4z"/>
	</g>
</g>
</svg>
