<?xml version="1.0" encoding="utf-8"?>
<!-- Generator: Adobe Illustrator 24.1.0, SVG Export Plug-In . SVG Version: 6.00 Build 0)  -->
<svg version="1.1" id="Livello_1" xmlns="http://www.w3.org/2000/svg" xmlns:xlink="http://www.w3.org/1999/xlink" x="0px" y="0px"
	 viewBox="0 0 474 351.1" style="enable-background:new 0 0 474 351.1;" width="50" height="50" xml:space="preserve">
<style type="text/css">
	.st0{fill:#FFFFFF;}
</style>
<g>
	<path class="st0" d="M245.8,335.8c-5.2,0-12.1-0.5-19.1-4.1c-2.8-1.5-4.4-4.5-4-7.6c0.4-3.1,2.7-5.7,5.8-6.4c2.1-0.5,4-0.9,6-1.4
		c4.3-1,8.4-2,12.7-2.8c0.9-0.2,1.8-0.4,2.7-0.5c-0.6-0.1-1.2-0.2-1.6-0.2c-1.1,0.1-2.2,0.1-3.3,0.1c-6,0-11.5-1-16.9-2
		c-4.3-0.8-8.3-1.5-12.2-1.7c-8.9-0.4-16.5-4-23.5-7.7c-3-1.6-5.7-2.9-8.5-3.3c-3.6-0.5-6.3-3.4-6.5-7c0-0.5,0-1.1,0.1-1.8
		c-2.5-0.4-5.6-1.4-8.1-4.7c-2-2.7-1.9-6.3,0.1-9c0.8-1.1,1.7-1.9,2.6-2.4c-0.1-0.7-0.1-1.5,0-2.2c0.3-1.7,1.1-3.2,2.3-4.4
		c-1.3-1.9-1.8-4.3-1.1-6.5c0.7-2.4,2.6-4.3,5-5c0.1-0.5,0.2-1,0.4-1.5c-1.2,1.2-2.7,2-4.5,2.3c-0.7,0.1-1.4,0.1-2.1,0.1
		c-2,0-4-0.3-5.8-1c-0.1,0.2-0.2,0.3-0.3,0.5c-0.3,0.5-0.6,0.9-1,1.3c0.8,1.2,1.3,2.7,1.3,4.3c0,3.3-2.2,6.1-5.3,7.1
		c-1.8,0.6-3.5,0.8-5.2,0.8c-1.3,0-2.4-0.2-3.5-0.4c2,2,2.6,5.1,1.7,7.8c-1,2.9-3.7,4.8-6.7,4.9c-0.7,0-1.3,0-1.9,0
		c-4.4,0-7.8-0.8-10.9-2.7c-12.2-6.3-20.8-16.6-25.3-30.7c-4.9-15-6.4-29.2-4.6-43.5c0-0.3,0.1-0.5,0.1-0.8c-0.6,1-1.4,1.8-2.4,2.5
		c-1.2,0.8-2.6,1.1-4,1.1c-1.9,0-3.8-0.7-5.3-2.1c-6.8-6.7-9.5-14.8-11.3-22.5c-0.5-0.1-1.1-0.2-1.6-0.4c-0.1,0-0.1-0.1-0.2-0.1
		c-1.1,1.5-1.7,2.8-2.1,4.4c-1.7,8.1-5.1,16.1-10.4,24.3c-0.5,2.2-1.8,5.6-5.4,8c-1.3,0.9-2.7,1.3-4.2,1.3c-0.8,0-1.6-0.1-2.4-0.4
		c-2.2-0.7-4-2.5-4.7-4.7c-1.7-5,0.4-8.8,1.9-10.8c2.8-8.1,3.6-14,2.6-19.8c0,0,0,0,0,0c-1.6-1.4-2.6-3-3.2-4.5c0,0-0.1,0-0.1,0
		c-0.4,0-0.8,0-1.2,0c-1,1.9-2.2,3.6-3.3,5.3c-1.5,2.2-2.8,4.1-3.7,6.4c-1.1,2.9-3.9,4.8-7,4.8c-0.2,0-0.3,0-0.5,0
		c-1.9,3.8-3.8,8.4-4.7,11.7c0.8,1.5,1.6,3.3,1.7,5.6c0.1,2.9-1.4,5.5-3.9,6.9c0.2,3,0.2,6.4-0.4,10.2c-0.5,3.2-3,5.7-6.2,6.2
		c-0.4,0.1-0.8,0.1-1.2,0.1c-2.8,0-5.3-1.5-6.6-4c-2.9-5.5-4.1-10.1-3.9-14.9c0.3-8.8,0.5-18.1-1.7-26.8c-1.6-6.1,0.7-11.1,2.4-14.7
		c0.2-0.5,0.4-1,0.7-1.5c1.5-3.6,2.6-7.5,3.7-11.6c1-3.7,2-7.6,3.5-11.5c0-0.3,0-0.8,0-1.2c-0.1-1.7-0.2-3.9,0.5-6.5
		c2.3-8.3,6.8-14.4,12-20.9c1.2-1.5,2.4-3,3.5-4.5c9-11.4,18.3-23.1,29.8-33.1c7.8-6.7,16-12.4,25.2-18.6c3.3-2.2,6.7-4.6,9.9-7
		c7.5-5.4,15.3-11,24.2-15.4c4.9-2.4,9.9-4.5,14.8-6.4c6.8-2.8,13.2-5.4,19.1-8.8c7.1-4.1,15.1-4.7,21.5-5.2l1.5-0.1
		c6.6-0.5,12.2-0.9,17.4-3.8c4.3-2.4,8.9-2.9,13.1-3.4c2.1-0.2,4-0.5,5.6-0.9c3-0.8,6.1-1.2,9.4-1.2c6.1,0,11.8,1.3,17.3,2.6
		c1.6,0.4,3.2,0.7,4.7,1.1c3.2,0.7,5.2,2.9,6.2,4.4c0.6-0.2,1.3-0.4,2-0.5c4-2.1,8.1-2.6,11.5-3.1c2.3-0.3,4.4-0.6,6-1.3
		c3.1-1.2,6.5-1.8,10.5-1.8c1.8,0,3.6,0.1,5.3,0.2c1.5,0.1,3,0.2,4.3,0.2c0.7,0,1.4,0,2-0.1c1.2-0.1,2.5-0.2,3.8-0.2
		c7.4,0,14,1.9,20.3,3.7c4.9,1.4,9.5,2.7,14.1,3c1.7,0.1,3.2,0.5,4.6,1.3c5.9,3.2,12,6,18.5,8.9c13.4,6,27.2,12.2,39,23.2
		c3.3,3.1,6.5,6.2,9.7,9.3c5.6,5.4,11.3,11,17.2,16c12.3,10.6,19.8,23.7,26.4,36.2c4.7,8.8,6.8,18.7,8.5,26.7
		c0.7,3.3,1.9,6.7,3.3,10.3l0.7,1.9c2.8,7.8,2.2,15.4,1.6,22.1l-0.1,1.2c-0.4,4.4-3,7.6-7.3,9.2c-0.8,0.3-1.7,0.4-2.5,0.4
		c-1.6,0-3.2-0.5-4.6-1.5c-2-1.5-3.1-4-2.9-6.5c0.7-8.9-2.5-16-8.9-24.3c-0.4,0.1-0.8,0.1-1.1,0.1c-0.1,0-0.2,0-0.3,0
		c-3.3-0.1-6.1-2.4-6.9-5.5c-0.7-2.7-2.1-5.1-3.8-7.2c-0.2,0.1-0.4,0.3-0.6,0.4c-1.2,0.7-2.5,1.1-3.9,1.1c-0.3,0-0.5,0-0.8,0
		c1.1,1.5,2.2,3.3,2.9,5.5c0.8,2.5,0.2,5.3-1.5,7.3l-0.9,1c-1.5,1.7-3.5,2.5-5.6,2.5c-1.6,0-3.3-0.5-4.7-1.6c-1.5-1.2-3-2.4-4.5-3.5
		c-2.3-1.8-4.7-3.6-7.1-5.6c0,0.5,0,1.1,0.1,1.7c0.1,1.5,0.2,3.1,0.4,4.8c0,0.1,0,0.2,0,0.2c1.2,2,1.6,3.9,1.8,5.4l0,0.2
		c0.5,2.3-0.2,4.7-1.7,6.4c-1.4,1.6-3.5,2.5-5.6,2.5c-0.2,0-0.4,0-0.6,0c-3-0.2-6.8-1.5-8.8-6.4c-2.4-2.6-4.2-5.9-5.1-9.4
		c-0.5-2.1-1.9-4.1-3.5-6.5c-1.1-1.6-2.2-3.2-3.2-5.1c-0.2-0.4-0.3-0.5-0.4-0.5l0,0c0,0-0.3-0.2-1.3-0.2c0,0-0.4,0-0.5,0
		c-4,0-7.7-2-10.8-4.8c-2.2,0-4-0.9-5.4-1.7c-1.6-0.9-3.7-1.1-6.4-1.4c-1-0.1-2.2-0.2-3.3-0.4c0.2,1,0.3,2.2,0.4,3.5
		c0,1.1-0.2,2.2-0.6,3.2c0.5,0,1,0,1.6,0c2.6,0,5,0.4,7.6,1.3c11,3.8,20,11.9,25.2,22.8c4.7,9.9,6.1,21.5,3.6,31.9
		c-0.7,3.1-0.9,5.4-0.5,7.9c0.9,5.5-1.6,9.9-3.4,13.1c0,0,0,0.1-0.1,0.1c-0.3,2.2-1.1,3.9-1.7,5.1l-0.3,0.5
		c-1.1,2.3-3.4,3.8-5.9,4.1c-0.3,0-0.5,0-0.8,0c-2.3,0-4.4-1-5.8-2.8c-1.7-2.1-3.8-6.1-1.3-11.1c0,0,0-0.7,0-0.9
		c-2.3,1-4.8,1.5-7.3,1.5c-2.7,0-5.5-0.5-8.8-1.7c-2.5-0.9-4.4-3.1-4.9-5.7c-0.5-2.6,0.5-5.3,2.5-7.1c1.3-1.1,2.6-1.7,3.8-2.2
		c-0.3-1.2-0.4-2.3-0.4-3.3c-0.1,0.1-0.3,0.2-0.4,0.3c-1.3,0.9-2.7,1.3-4.2,1.3c-1.4,0-2.8-0.4-4-1.2c0.5,1.5,0.6,3.1,0.2,4.6
		c-0.5,2.1-1.8,3.9-3.8,5.1c0.2,0.2,0.5,0.5,0.7,0.8c1.6,2,2,4.7,1.1,7.2s-2.9,4.2-5.5,4.8c-1.6,0.3-2.8,1.3-4.3,3.1
		c2,2.2,2.5,5.5,1.2,8.2c-1.2,2.7-3.9,4.3-6.8,4.3c-0.3,0-0.6,0-1-0.1c-0.4-0.1-0.8-0.1-1.2-0.1c-2.7,0-4.8,1.4-8.2,4
		c-0.9,0.7-1.8,1.3-2.8,2c-0.1,1.2-0.4,2.1-0.7,2.8c-1,2-3,4.5-7.6,4.7c-0.6,0.1-1.2,0.2-1.8,0.3c-0.7,2.9-3.1,5.1-6.1,5.6
		c-1,0.2-2,0.2-3.1,0.2c-0.6,0-1.2,0-1.8-0.1c-0.8,2-2.3,3.6-4.4,4.4c-1.5,0.6-3.2,0.9-4.9,0.9c-0.3,0-0.6,0-0.9,0
		c-0.3,0.5-0.6,0.9-1,1.4c-1.4,1.5-3.4,2.3-5.4,2.3c-0.2,0-0.4,0-0.5,0c-2.1-0.1-4-0.6-5.7-1.1c-0.6,0.6-1.3,1.1-2,1.4
		c1.5,0.3,3.1,0.6,4.7,0.9c5.8,1.2,11.8,2.4,17.3,2.5c12.2,0.3,22.6,4.5,32.6,8.5l0.3,0.1c3.5,1.4,6.4,3.4,8.6,5.9
		c1.8,2.1,2.4,2.1,3.1,2.1c2.5,0,4.9,1.4,6.2,3.5c1.3,2.1,1.5,4.8,0.5,7.1c-0.1,0.3-0.3,0.5-0.4,0.8c1.8,2.5,2,5.9,0.2,8.6
		c-0.3,0.5-0.6,0.9-0.9,1.3c0.1,0.1,0.1,0.2,0.2,0.3c1.3,2,1.6,4.5,0.8,6.8c-0.8,2.3-2.7,4-5,4.6c-0.9,0.2-1.8,0.4-2.8,0.4
		c0,0.2-0.1,0.4-0.1,0.6c-0.7,3.2-3.4,5.6-6.7,5.9c-0.4,0-0.7,0-1.1,0c-0.8,0-1.5-0.1-2.1-0.2c-0.7,1.9-2.3,4.3-6.2,5.3
		c-19,4.9-38.2,5.7-57.8,6.1c-1.1,0-2.1,0.1-3.2,0.1C249.6,335.8,247.7,335.8,245.8,335.8z M172.3,223.8c-0.1,0.5-0.2,1-0.3,1.4
		c-0.1,0.3-0.2,0.6-0.2,0.7c-0.8,6.1,2.3,10.6,7.3,17.4l0.4,0.6c0.9,1.3,1.4,2.8,1.5,4.3c0.6-1.2,1.3-2.4,2.2-3.5
		c1-1.4,1.9-2.9,3-4.6c0.8-1.3,1.6-2.5,2.4-3.8c0.5-7.2,5.5-9.1,8.7-9.5c0.4-0.6,0.9-1.4,1.3-2.2c0.1-0.9,0.3-1.6,0.6-2.3
		c-3.7-0.3-7.4-1-11.7-2.4c-0.6-0.2-2.4-0.7-3.4-0.7c-0.3,0-0.5,0-1.1,0.7c-3.7,4-8.5,4-10.1,4C172.7,223.8,172.5,223.8,172.3,223.8
		z M150.5,240.4c0.6,0.7,2.2,1,4.1,1.4c-0.8-1.4-1.7-2.8-2.9-4.1c-0.3,0.9-0.7,1.8-1.3,2.6C150.5,240.4,150.5,240.4,150.5,240.4z
		 M204.4,205.4c2.2,0.3,5.5,1.3,7.9,5.3c0.4,0.6,0.6,1.2,0.8,1.9c0.3-0.2,0.7-0.4,1-0.5c1.9-1,3.5-1.9,4-2.8
		c2.4-4.4,6.2-4.9,7.7-4.9c0.6,0,1.2,0.1,1.8,0.2c2.3-1.6,4.7-2.2,6.3-2.7c0.7-0.2,1.7-0.5,2-0.6c1.7-1.7,4.1-2.8,6.5-3.6
		c-0.5-0.1-1.1-0.1-1.6-0.2c-1.3-0.1-2.6-0.3-3.6-0.3c-1.6,0-2.5,0.3-3.5,1c-2,1.5-4.2,2.3-6.5,2.3c-2.8,0-4.9-1.1-6.6-2.5
		c-0.6,0.1-1.3,0.2-2.1,0.2c-0.6,0-1.1,0-1.7-0.1c-2.2,5.4-5.8,6.6-8.6,6.6c-0.8,0-1.5-0.1-2.1-0.3
		C205.5,204.8,204.9,205.2,204.4,205.4z M123.1,189.6c6.1,1.7,11.9,3.3,17.8,3.8c0.7,0.1,1.5,0.1,2.4,0.1c1.8,0,3.6-0.1,5.5-0.3
		c0.8-0.1,1.5-0.1,2.3-0.2c1.4-0.1,2.8-0.1,4.1-0.2c5.3-0.2,8.6-0.4,11.5-2.4c0.5-0.4,1.1-0.7,1.6-1.1c2.2-1.5,3.6-2.5,4.6-3.5
		c-1.2-0.8-2.2-1.9-2.8-3.2c-0.4-0.1-0.9-0.1-1.4-0.3c-2.5-0.6-4.6-1.6-6.5-2.4c-2-0.9-3.7-1.7-5-1.7c-0.2,0-0.3,0-0.4,0
		c-0.3,0-0.8,0.1-1.1,0.1c-0.9,0-1.8-0.2-2.7-0.4c-2.5,2.8-5.7,5.5-10.8,6.6c-0.5,0.1-1.1,0.2-1.6,0.2c-1.8,0-3.6-0.7-4.9-1.9
		c-1.8-1.6-2.7-3.9-2.5-6.3c0.3-3.7,1.8-6.3,3-8.2c-1.4,0.7-2.8,0.9-3.7,0.9c-1,0-2.4-0.2-3.8-0.9c-0.1,0.1-0.6,0.4-0.8,0.5
		c0.7,3,0.7,5.8,0.6,8.2c2.2,5.4-0.2,8.9-1.9,10.6C125.4,188.6,124.3,189.2,123.1,189.6z M103.5,180.4c-0.4,4-0.1,8,0.8,12.1
		c0.5-1.1,1.3-2,2.3-2.9c1.8-1.6,4-2.4,6.4-2.4c0.6,0,1.2,0.1,1.8,0.1c-0.1-0.1-0.1-0.1-0.2-0.2c-1-1.1-1.7-2.4-2.1-3.8
		c-0.3-0.5-0.5-1-0.8-1.5c-0.6-1.1-1.2-2.2-1.7-3.2c0,0-0.1,0-0.1,0c-1.1,0-2.1-0.2-3.1-0.6C105.9,178.9,104.9,179.8,103.5,180.4z
		 M321.7,148.9c0.4,0,0.8,0,1.2,0c0.8,0,1.7,0,2.6-0.1c2.5-0.1,4.9-1,7.7-2.1c0,0,0.1,0,0.1,0c-0.4-0.3-0.7-0.6-1.1-1
		c-0.8-1-1.6-1.9-2.5-2.9c-2.1-2.4-4.2-4.8-6.2-7.6c-0.3-0.4-0.6-0.7-1-1c0.5,3.7,0.6,8.2-0.8,12.8
		C321.9,147.6,321.8,148.3,321.7,148.9z M174,129.1c0.3,0.3,0.6,0.7,0.9,1c0.2,0.2,0.5,0.5,0.8,0.8c0.3-0.1,0.7-0.2,1-0.3
		c-0.3-1.5-0.5-3.2-0.4-4.9c0.6-7.9,1.4-16.1,2.3-24.5c-4.5,5.1-6.4,11.9-8.4,19c-0.4,1.5-0.9,3.1-1.3,4.6c2.7,1,4.3,3.2,4.9,4
		C173.9,128.9,174,129,174,129.1z M246.7,43.9c4.2,1.9,5,5.3,5.1,6.7c0.4,5,3.7,8.1,9.1,12.8c1.2,1.1,2.5,2.2,3.8,3.4
		c7.5,7.1,14.7,14.3,19.7,23.9l0.2,0.4c1.2-2.5,3.4-5.3,6.6-6.4c3.2-1.1,4.8-3.7,7.4-8.4c0.2-0.4,0.5-0.8,0.7-1.3
		c-0.4,0.1-0.9,0.3-1.3,0.5c-0.4,0.2-0.9,0.4-1.3,0.6c-2.2,1-5.2,2.4-9.1,2.4c-1.4,0-2.9-0.2-4.3-0.5c-3-0.8-5.2-3.3-5.6-6.4
		c-0.4-3.1,1.2-6,3.9-7.5c2.3-1.2,4.1-2.9,6.1-4.9c0.9-0.9,1.8-1.8,2.9-2.7c0.1-0.1,0.2-0.4,0.3-0.8c-1.4,0.8-3.1,1.4-5,1.4
		c-2.7,0-5.2-1.2-6.8-3.2c-1.9-2.3-2.5-5.1-1.7-7.8c0.6-1.8,1.6-3.1,2.7-3.9c-2.7-0.6-4.8-1.8-5.9-2.4c-1.6-0.9-3.3-1.2-6-1.2
		c-1,0-2.1,0-3.2,0.1c-0.2,0-0.5,0-0.7,0c-1.2,0.4-3.1,1-5.2,1c-1.6,0-3.2-0.3-4.6-1c-1.5-0.7-2.7-1.8-3.5-3.1
		c-0.4,0.1-0.7,0.1-1.1,0.1c-0.3,0-0.6,0-0.9-0.1c-0.7-0.1-1.5-0.1-2.4-0.1c-1.9,0-3.8,0.2-5.9,0.4c-0.2,0-0.5,0-0.7,0.1
		c0.4,0.5,0.7,1,1,1.6c0.9,2,1.5,3.9,2,5.5c0,0,0,0.1,0,0.1c0.3,0,0.5,0,0.8,0C244.6,43.2,245.7,43.4,246.7,43.9z"/>
	<path d="M227.2,22.8c7,0,13.7,2.1,20.5,3.5c0.7,0.1,1.3,0.8,1.9,1.9c-1.1-0.1-2.2-0.2-3.3-0.2c-4.5,0-8.9,0.9-13.3,0.9
		c-0.1,0-0.2,0-0.2,0c-0.8,0-1.6,0-2.4,0c-3.5,0-6.8,0.3-9.4,3.5c-0.5,0.5-1.2,1-1.9,1c-0.3,0-0.5-0.1-0.8-0.2c-1-0.7-2.1-1-3.1-1
		c-2.2,0-4.4,1.2-6.8,1.5c5.1,2.5,11.1,3.2,14.2,8.6c1.1,0.3,3.1,0.3,2.9,1.7c-0.1,0.5-0.3,0.6-0.6,0.6c-0.5,0-1.3-0.5-2-0.5
		c-0.1,0-0.2,0-0.3,0c0.5,1.2,0.8,2.6,1.7,3.5c1.4,1.5,3.2,3.9,4.8,3.9c0,0,0.1,0,0.1,0c2.6-0.2,0.7-3.3,1.6-5
		c1-1.8,0.8-4.2,3.2-5.7c1.7,3.6,2,7.4,4.1,10.6c0.8,1.2,1.6,2.7,3.2,2.7c0,0,0,0,0.1,0c2.3,0,0.3-2.8,2.2-3.4
		c0.1,0.1,0.8,0.3,0.8,0.6c0.8,10.1,8.8,15,15.2,21c7,6.6,13.7,13.3,18.2,21.9c0.2,0.4,0.4,0.9,0.7,1.3c1.5,2.5,3,5,4.6,7.4
		c1.8-3.5,6.8-3.9,8.1-8.1c0.4-1.2,1.4-2.7,2.4-3c9.1-3,10.7-12.4,16-18.7c2.8-3.4,1.4-5.3-3.2-6c-1-0.1-2-0.2-3-0.2
		c-2.8,0-5.4,0.6-8.2,1.7c-2.3,0.9-4.6,2.4-7.6,2.4c-0.8,0-1.6-0.1-2.4-0.3c4.4-2.4,7.2-5.7,10.4-8.5c3.6-3.1,2.5-7.6,4.2-11.3
		c0.3-0.7,0-1.7-1.1-1.9c-2.4-0.4-4.7-1.6-7.1-1.6c-1,0-1.9,0.2-2.9,0.7c-0.7,0.8-1.8,1.6-2.7,1.6c-0.4,0-0.7-0.1-1-0.5
		c-1.1-1.4,0.9-1.5,1.8-1.9c2.6-2.1,4.6-4.7,6.3-7.6c0.8-1.3,2.7-2.9,0.8-4.3c-1.3-0.9-3.1-2.5-4.7-2.5c-0.5,0-1,0.2-1.5,0.5
		c-1.4,1.2-2.9,1.6-4.3,1.6c-2.2,0-4.3-1.1-5.7-1.8c-3.2-1.8-6.4-2.2-9.6-2.2c-1.7,0-3.5,0.1-5.3,0.2c-1.3,0.4-2.6,1-3.9,1
		c-0.5,0-1.1-0.1-1.7-0.3c0.1-1.5,1-1.7,2-1.7c0.1,0,0.3,0,0.4,0c5.5-3.6,12.2-2.5,18.1-4.8c2.6-1,5.2-1.3,7.8-1.3
		c3.2,0,6.4,0.4,9.6,0.4c0.9,0,1.8,0,2.7-0.1c1-0.1,2.1-0.1,3.1-0.1c11.8,0,22.3,6,33.9,6.7c0.5,0,1,0.1,1.4,0.4
		c18.6,10.3,39.7,15.8,56,30.9c9.1,8.5,17.8,17.5,27.1,25.5c11.1,9.6,18.1,21.6,24.7,34c4,7.6,5.9,16.2,7.8,24.8
		c1,4.5,2.7,8.9,4.2,13.2c2.4,6.7,1.6,13.4,1.1,20.2c-0.1,0.9-0.3,2-2.4,2.7c1.2-15.3-7.2-26.2-16.6-36.8c-0.6,0.1-0.5,1-0.5,1.8
		c-0.1,0.8,0,1.6-0.4,2.7c-2.5-9.3-9.5-14.8-16.8-20.2c-1.8,3,0.9,5.5,1.2,8.9c-2.9-1.9-4.9-4.9-8.4-4.9c-0.1,0-0.2,0-0.4,0
		c-0.1,0-0.1,0-0.2,0c-0.9,0-2.1-0.3-2.9-0.3c-0.7,0-1.2,0.2-1.3,0.9c0,2.4-3,3.7-1.4,6.7c1.5,2.7,3.6,4.7,5.5,6.9
		c1.6,1.8,3.2,3.6,4,5.9c-0.3,0.4-0.6,0.7-0.9,1.1c-5.2-4.1-10.7-8-15.5-12.6c-1.1-1.1-2-1.5-2.7-1.5c-0.9,0-1.7,0.7-2.7,1.7
		c-3.1,3.2-3,7.2-2.8,11.2c0.1,2.5,0.4,5,0.7,7.4c1.2,1.1,1.5,2.6,1.8,4.3c-2.4-0.2-2.4-1.9-2.9-3.1c-2.2-1.9-3.6-4.5-4.3-7.1
		c-1.3-5.2-5-8.9-7.5-13.4c-1.5-2.8-3.9-4.6-8.2-4.6c-0.1,0-0.2,0-0.4,0c0,0-0.1,0-0.1,0c-3.4,0-7.5-4-9.9-7.8
		c0.3-2.2,0.2-4.4-2.1-6.4c-1,2.9-0.9,4.9,1.5,6.3c0.1,1.1,1.1,3.2,0,3.2c-0.4,0-0.9-0.2-1.8-0.7c-4.9-2.9-10.5-1.8-15.7-3.3
		c-0.5-0.2-1-0.2-1.4-0.2c-2.3,0-3.5,2-4,4.5c-0.5,2.5,0.4,4.8,0.5,7.6c-2.8-3.3-5.8-6.4-8.2-10c-2-2.8-4.6-4.2-7.8-4.8
		c-0.7-0.1-1.3-0.2-1.9-0.2c-4,0-6,2.7-5.2,7.2c0.8,4.3,1.1,8.5-0.5,12.7h0c0.2,1.2-0.3,2.1-1.6,3.2c-1-2.3-0.2-4.3-0.2-6.2
		c-1-2.4-3.2-3.8-4.9-5.7c-0.3-0.3-0.6-0.9-1-1c-0.3-0.1-0.5-0.1-0.7-0.1c-2.4,0-2.5,2.9-4.1,4c-0.7-1.6-1.3-2.3-2-2.3
		c-0.8,0-1.5,1-2,2.4c-1.4,4.1,0.3,7.9,3.6,10.1c6.5,4.4,13.5,6,21.4,6c1,0,2,0,3-0.1c6.9-0.3,11.9-4.2,18.2-5
		c0.9-0.1,1.7-0.2,2.4-0.2c1.7,0,3.3,0.3,5.1,0.9c19.6,6.8,28.1,28.5,24,46c-0.8,3.6-1.2,7-0.6,10.8c0.6,3.6-1.9,6.9-3.6,10.1
		c0.3,1.5-0.5,2.7-1.2,4.2c-1.5-1.9-0.6-3,0.3-4.2c0-2.3,0.1-4.7,0.1-7c0-3.6-1.8-5.8-4.3-5.8c-1.1,0-2.4,0.4-3.8,1.4
		c-2.3,1.6-4.5,2.3-6.8,2.3c-2,0-4.1-0.5-6.3-1.3c2.5-2.1,5.5-0.2,7.6-1.9c3.8-2.9,6.8-6.3,8.9-10.6c1.4-3-0.4-4.3-2.7-5.4
		c-0.6-0.3-1.2-0.4-1.6-0.4c-1.6,0-2.5,1.5-3.1,3c-0.8,1.9-0.4,4.3-2.7,5.8c-0.6-2.8,0.2-5.4,0.2-7.9c-0.1-6.2-3.9-9.5-7.7-13.2
		c-0.5-0.5-0.8-2-1.9-2c-0.3,0-0.6,0.1-1.1,0.3c-1.9,1-3.7,1.7-4,4.3c-0.4,3.5,1.1,6.6,2,10.7c-3.5-2.4-4.9-5.1-5.6-8.1
		c-0.7-3.1-1.5-5.8-5.6-6.2c-1.1-0.1-2-2-2.9-3.2c-0.5-0.7-1.1-0.9-1.6-0.9c-0.8,0-1.6,0.6-2.3,1c-1.6,1.1,0.3,1.8,0.7,2.6
		c0.8,2.1,1.6,4.3,2.4,6.4c0.5,1.2,0.4,2.9,2.1,2.9c0.3,0,0.6,0,1-0.1c0.2-0.1,0.4-0.1,0.6-0.1c1.1,0,0.5,1.3,0.3,1.9
		c-1.8,4.1-3.5,8.1-0.3,12.3c0.7,0.9-0.6,1.4-1.2,1.7c-3.4,1.8-3.2,5.7-4.5,8.5c-1.2,2.6,2.7,0.8,4.2,2.8
		c-6.9,1.5-9.5,7.7-14.1,11.9c1.1,2.2,3.5,1.4,5.8,3.6c-0.7-0.1-1.4-0.1-2.1-0.1c-7.6,0-11.8,5.5-17.3,8.6c-1,0.6-3.1,1.2-1.9,2.8
		c2,2.6-0.5,1.9-1.4,2.1c-2.2,0.6-4.6,0.3-6.8,1.2c-2.4,1-5.1,1.6-1,4.7c-0.7,0.1-1.3,0.1-1.9,0.1c-2.4,0-4.7-0.5-6.8-0.5
		c-2,0-3.9,0.4-5.7,2.2c1.1,1,2.3,2,3.7,3.2c-0.8,0.3-1.5,0.4-2.2,0.4c-2.7,0-5.2-1.5-7.8-1.5c-1,0-2,0.2-3.1,0.9
		c0.2,2.1,3.2,1.8,3.5,4.2c-3.1-0.2-5.8-1.2-8.4-2.5c-0.5-0.2-0.9-0.3-1.4-0.3c-0.8,0-1.6,0.4-2.3,1c-1.2,1.2,1.4,1.7,0.5,3
		c-0.3,0.1-0.5,0.1-0.8,0.1c-1.2,0-2.3-0.7-3.5-1c-1-0.2-2.2-0.8-3.1-0.8c-0.9,0-1.5,0.7-1.1,3.2c0.1,0.7-0.2,0.9-0.6,0.9
		c-0.4,0-0.8-0.1-1.1-0.1c-1.2,0-2.3-1-3.6-1c-0.4,0-0.8,0.1-1.2,0.3c-0.6,3,3.5,2.8,3.7,5.2c-0.3,0.2-0.6,0.2-0.8,0.2
		c-0.8,0-1.6-0.6-2.4-0.6c0,0,0,0-0.1,0c0,0,0,0-0.1,0c-1,0-1.9-1-2.9-1c-0.4,0-0.7,0.1-1.1,0.5c-1.7,1.5,0,3.3-0.2,5
		c-0.1,1.3,2.4,1.2,3.8,1.2c7.3,0.3,14.6,1.4,21.5,2.9c6.2,1.3,12.6,2.5,18.7,2.7c11,0.3,20.6,4.2,30.4,8.1c2.2,0.9,4.2,2.1,5.7,3.9
		c2.3,2.6,4.7,4.6,8.6,4.7c-1.4,3.1-6.8,0.5-6.1,4.8c0.5,3.3,4.7,1.7,6.5,3.6c-0.1,0.2-0.2,0.5-0.4,0.6c-2.4,0.6-6.2-0.3-6.8,2.7
		c-0.9,4.3,4.7,3.7,6.6,6.6c-0.4,0.1-0.8,0.1-1.1,0.1c-1.9,0-3.9-1-5.7-1c-1.4,0-2.7,0.6-3.7,2.7c-1.5,3,2.8,2.5,2.3,4.9
		c-0.1,0-0.3,0-0.4,0c-1.5,0-3.1-0.6-4.7-0.6c-1.2,0-2.4,0.4-3.5,1.7c-0.7,0.9-3.4,1.1-1.3,3.2c0.5,0.5,0,0.8-0.8,1
		c-18.4,4.8-37.3,5.5-56.1,5.9c-2.8,0.1-5.7,0.2-8.6,0.2c-5.1,0-10.4-0.6-15.7-3.3c6.6-1.5,12.5-3,18.4-4.2
		c8.8-1.8,17.5-3.3,26.3-4.9c2.1-0.4,3.3-2.8,5.5-2.8c0.2,0,0.4,0,0.6,0.1c0,0,0,0,0,0c0.1,0,0.3-0.2,0.3-0.3c1.1-2.7-4-3.8-1.8-6.7
		c-0.9-0.4-1.8-1.1-2.7-1.1c-0.4,0-0.9,0.1-1.3,0.5c-1,0.8-1.9,1.5-2.8,1.5c-0.7,0-1.4-0.4-2.1-1.3c-0.1-0.1-0.3-0.1-0.5-0.1
		c-0.4,0-0.8,0.1-1.2,0.1c-0.1,0-0.2,0-0.2,0c-0.4,0-0.7-0.1-1.1-0.1c-2.3,0-4.3,1-6.4,2.2c-0.2,0.1-0.4,0.2-0.6,0.2
		c-1.3,0-1.9-2.7-3.9-2.7c-0.3,0-0.7,0.1-1.1,0.2c-0.6,0.3-1.3,0.4-2.1,0.4c-1.7,0-3.6-0.5-5.3-0.5c-0.2,0-0.3,0-0.5,0
		c-0.9,0.1-1.9,0.1-2.8,0.1c-9.8,0-19.1-3.3-28.7-3.8c-7.6-0.4-14.3-3.6-20.4-6.8c-3.6-1.9-7-3.5-10.9-4c-0.1-2.4,3.9-1.3,2.7-3.9
		c-1-2.1-2.3-3.8-4.9-4.5c-2.4-0.6-5.4,0.4-7.3-2.1c2.1-2.8,7.1,0.6,8.1-4c0.7-3.2-2.8-2.5-4-4c5.6-3.5,5.9-5.6,1-9.9
		c3-0.4,4.4-1.7,5-4.9c0.5-2.7,1.6-5.6,3.6-8.4c2.1-2.9,4-6.4,6.2-9.6c0.2-0.3,0.3-0.6,0.4-0.9c0.5-1.9-0.7-4.4,3.3-4.4
		c0.1,0,0.3,0,0.5,0c0,0,0,0,0.1,0c2,0,4.7-4.1,6.1-7.3c0.3-0.6,0.2-3.4,1.6-3.4c0.5,0,1.2,0.4,2.1,1.4c0,0,0,0,0.1,0
		c0.2,0,1-0.4,1.2-0.7c3.4-5.4,10.9-5.5,14-11.2c0.4-0.7,0.7-1,1.1-1c0.3,0,0.7,0.2,1.1,0.6c0.5,0.4,1,0.6,1.5,0.6
		c0.9,0,1.7-0.5,2.1-1c2.6-3.5,7.4-2.3,10.6-5.5c1.6-1.6,6.2-2.6,9.5-3.9c1.9-0.8,3.2-2.3,4.9-3.1c2-0.9,3.8-1.8,3.7-4
		c-0.2-2.2-2.6-2.7-4.2-3.8c-2.2-1.4-4.6-1.5-6.9-1.5c-0.6,0-1.2,0-1.8,0c-0.1,0-0.2,0-0.2,0c-2.9,0-5.9-0.6-8.8-0.6
		c-2.7,0-5.3,0.5-8,2.5c-0.7,0.6-1.4,0.8-2,0.8c-2.3,0-3.8-3.3-5.5-5.6c-0.8,1.6-1.5,3.3-3.2,3.3c-0.3,0-0.7-0.1-1-0.2
		c-0.9-0.3-1.6-0.4-2.3-0.4c-2.7,0-4.2,2.1-5.2,4.8c-0.5,1.5-0.9,2.3-1.8,2.3c-0.5,0-1.1-0.3-1.9-0.9c-0.6-0.5-1.4-0.8-2.2-0.8
		c-0.9,0-1.7,0.5-2.2,1.9c-0.2,0.7-0.4,1.5-1.5,1.5c0,0-0.1,0-0.1,0c-0.2,0-0.4,0-0.6,0c-2.9,0-5.2,1-5.1,4.5
		c0.2,6.6,1.7,8.4,6.8,9.3c1.3,0.2,3-0.4,4.3,1.8c-1.3,0.2-2.6,0.2-3.8,0.2c-4.3,0-8.4-0.9-12.3-2.1c-2-0.6-3.8-1.1-5.6-1.1
		c-2.3,0-4.5,0.8-6.6,3.1c-1.2,1.3-2.8,1.6-4.5,1.6c-1.2,0-2.5-0.1-3.7-0.1c-0.7,0-1.3,0-2,0.2c-2,0.4-3.1,1.3-2.5,2.4
		c1.1,2.3,0,4.2-0.3,6.2c-1.3,9.7,4.1,16.6,9.1,23.5c-0.4,0-0.8,0.1-1.1,0.1c-3.8,0-7.9-2.3-9.5-6.5c-1.6-4.2-4.1-7.7-6.9-10.7
		c-2.5-2.7-5.6-5.9-10.1-6.1c-0.1,0-0.3,0-0.4,0c-2.8,0-3.8,1.5-3.2,4.4c0.4,2.1,2.6,3.5,2.2,6.2c-2.5-1-3.6-3.9-6.5-4.1
		c-1.7,0.9,0.7,3.8-2.4,4.7c-1.3,0.4,0.1,3.3,2.1,3.9c3,0.9,5.1,2.9,7.1,5.2c3,3.3,7.3,3.5,11.3,4.5c0.2,0.1,0.4,0.1,0.7,0.1
		c0.3,0,0.5,0,0.8,0c0.8,0,1.6,0.2,2.2,1.5c-1.6,0.2-3.1,0.3-4.6,0.4c-2.2,0.2-5,0.2-5.4,2.5c-0.3,1.9,1.3,4,3.7,4.7
		c1.4,0.5,2.9,1,5.5,1.9c-1.1,0.4-2.1,0.5-3,0.5c-1.9,0-3.3-0.7-4.6-1.4c-4-1.1-8-1.9-12.1-2.5c-0.5-0.1-0.9-0.1-1.3-0.1
		c-1.4,0-2.1,0.6-3,1.8c-1.2,1.7-1.8,3.5-0.3,5c2.1,2.1,3,5.2,5.8,6.7c1.9,0.7,4.1,0.6,6.6,2.9c-0.5,0-1.1,0-1.5,0
		c-3,0-5.2-0.5-7.3-1.7c-11.1-5.7-18-14.8-21.8-26.4c-4.3-13.1-6-26.5-4.3-40.2c0.3-2.3,0.2-4.6,0-6.9c-0.1-1.1-2.4-1.8-0.8-3.2
		c0.5-0.4,1-0.5,1.5-0.5c0.7,0,1.5,0.2,2.3,0.5c8.2,2.3,16.4,4.9,25,5.7c1,0.1,2,0.1,3.1,0.1c2.8,0,5.6-0.3,8.4-0.5
		c6.7-0.4,13.4,0.3,19.4-3.9c5.5-3.8,11.5-7.1,11-15.2c-0.1-1.9-0.6-3.1-1.8-3.1c-0.5,0-1.2,0.2-2,0.7c-0.3,0.2-0.8,0.5-1.1,0.5
		c-0.2,0-0.3-0.1-0.4-0.5c-0.3-4.3-4.1-3.5-6.4-4.1c-4.5-1.1-8.5-4.3-13.3-4.3c-0.5,0-1,0-1.5,0.1c0,0,0,0-0.1,0
		c-0.1,0-0.3-0.1-0.4-0.1c-1.7-1.1-2.7-1.7-3.5-1.7c-1,0-1.8,0.9-3.6,3.1c-1.9,2.3-4,4.3-7.5,5c0.3-3,2.1-4.9,3.2-7
		c2.6-4.9,1.2-8.7-3.7-11.4c-1.3-0.7-2.4-1.2-3.3-1.2c-1.2,0-2.3,0.7-3.1,2.6c-0.3,0.6-0.6,1.6-1.3,1.6c-0.2,0-0.5-0.1-0.8-0.3
		c-1-0.7-2-1-2.9-1c-2.2,0-4.2,1.8-6.2,2.6c-2.3,1-3.6,3.2-2.6,5.8c1.2,3.3,0.9,6.5,0.9,9.8c0.6,1.1,1.5,2.4,0.3,3.5
		c-0.1,0.1-0.2,0.1-0.3,0.1c-0.5,0-1.2-0.6-1.1-1.5c-1.5-2.8-2.8-5.6-4.6-8.2c-0.7-1-1.3-2.9-2.6-2.9c-0.5,0-1.2,0.3-2.1,1.2
		c-0.2,0.2-0.3,0.2-0.5,0.2c-0.3,0-0.6-0.2-0.9-0.8c-0.6-1.3-1.2-1.7-2-1.7c-0.9,0-1.9,0.6-3,1.1c-1.6,0.6-2.1,3.8-4,3.8
		c-0.6,0-1.3-0.3-2.3-1c-0.1-0.1-0.1-0.1-0.2-0.1c-0.5,0-0.6,2-0.8,2.9c-1.6,8.3-0.8,16.3,1.8,24.4c-7.8-7.6-9-17.9-11.1-27.7
		c0,0-0.1,0-0.1,0c-2.2,0-2.6,2.1-4.2,3.1c-0.7-2.3-1.3-3.7-2.4-3.7c-0.8,0-1.9,0.7-3.4,2.4c-3.1,3.4-5.6,6.5-6.6,11.1
		c-1.7,8.3-5.4,15.9-10.2,23c-0.3,1.8-0.7,3.4-2.5,4.6c-0.7-2,0.3-3.4,1.4-4.7c2.9-8,4.8-16.1,3.3-24.7c-0.2-1.3-0.1-3-1.3-3.6
		c-3.4-1.7-2.8-4.9-3-7.9c-1.3,0.7-2.7,0.8-4.2,0.8c-1.3,0-2.5-0.1-3.8-0.1c-2.4,0-4.6,0.4-5.8,3.1c-2.2,4.5-5.7,7.9-7.8,13.4
		c-0.3-2.3-0.5-3.5-0.7-4.7c0,0-0.1,0-0.1,0c-2.9,0-11.7,18.6-12.4,25.8c1.1,1.1,2.1,2.3,2.2,4c-0.1,0-0.3,0-0.4,0c-1.4,0-1.8-2-3-2
		c-0.2,0-0.5,0.1-0.8,0.2c-0.4,5.4,1,10.8-0.1,17.3c-2.2-4.1-3.2-7.5-3-11.1c0.4-9.7,0.5-19.4-2-28.9c-1.1-4.2,1.1-7.8,2.7-11.4
		c3.3-7.6,4.4-15.8,7.3-23.5c1-2.6-0.2-5.3,0.6-8.3c2-7.2,6.2-12.7,10.6-18.3c10.1-12.7,19.9-25.8,32.3-36.5
		c7.7-6.7,16.1-12.4,24.5-18c11-7.4,21.2-15.9,33.2-21.9c11.3-5.5,23.4-9.1,34.4-15.5c5.4-3.1,12-3.7,18.3-4.2
		c7.6-0.6,14.9-0.8,22-4.8c4.8-2.7,11.3-2.1,16.9-3.5C222.2,23,224.7,22.8,227.2,22.8 M162.6,132.5c0.4,0,0.8-0.1,1.1-0.3
		c0.8-0.4,1.4-0.6,1.9-0.6c1.5,0,1.8,1.4,2.9,2.6c1.9,1.9,4,4.7,6.6,4.7c0.5,0,1.1-0.1,1.6-0.4c1.4-0.7,2.7-1,3.9-1
		c2,0,3.9,0.9,5.9,2.1c0.2-2.6-0.1-4.4-1-6.3c-1-2.2-2-4.8-1.8-7.1c1-12.2,2.1-24.5,3.8-36.7c0.3-2.1,0-2.8-0.7-2.8
		c-0.4,0-1,0.3-1.7,0.6c-4.1,2-7.9,4.3-11.3,7.8c-8.9,9.4-9.8,21.9-14,33C159.1,130.3,160.7,132.5,162.6,132.5 M227.2,7.8
		C227.2,7.8,227.2,7.8,227.2,7.8c-3.9,0-7.6,0.5-11.3,1.4c-1.1,0.3-2.8,0.5-4.6,0.7c-4.6,0.5-10.3,1.2-15.8,4.3
		c-3.8,2.1-8.4,2.4-14.3,2.8l-1.5,0.1c-6.8,0.5-16.1,1.2-24.7,6.1c-5.5,3.2-11.7,5.7-18.2,8.4c-5,2-10.1,4.1-15.3,6.6
		c-9.4,4.6-17.5,10.4-25.3,16c-3.3,2.4-6.5,4.7-9.7,6.8c-9.4,6.3-17.9,12.1-26,19.1c-12,10.4-21.5,22.5-30.7,34.1
		c-1.2,1.5-2.3,3-3.5,4.4c-4.4,5.5-10.4,13.1-13.3,23.5c-1,3.6-0.9,6.6-0.8,8.6c-1.3,3.7-2.3,7.3-3.2,10.7c-1,3.8-2,7.5-3.3,10.5
		c-0.2,0.4-0.4,0.9-0.6,1.3c-1.9,4.1-5,11-2.8,19.7c2,7.8,1.8,16.4,1.5,24.7c-0.2,6.2,1.2,11.9,4.7,18.6c2.6,5,7.8,8,13.3,8
		c0.8,0,1.6-0.1,2.4-0.2c6.4-1,11.4-6,12.4-12.4c0.5-2.9,0.6-5.6,0.6-8.1c2.5-2.8,3.9-6.6,3.8-10.6c-0.1-2.2-0.5-4.1-1.1-5.7
		c0.5-1.4,1.1-2.9,1.8-4.4c1.7-0.5,3.2-1.4,4.6-2.5c0,0.1-0.1,0.2-0.1,0.3c-4.2,6.5-3.6,12.5-2.2,16.6c1.5,4.4,5,7.9,9.4,9.4
		c1.6,0.5,3.2,0.8,4.8,0.8c3,0,5.9-0.9,8.4-2.6c3.9-2.7,6.6-6.4,8-11c2.6-4.1,4.8-8.2,6.6-12.4c1.8,3.1,4,6,6.9,8.8
		c2.4,2.4,5.5,3.8,8.6,4.2c-0.1,11.7,1.8,23.6,5.7,35.6c5.2,16,14.9,27.7,28.9,35c4.3,2.4,8.9,3.6,14.5,3.6c0.7,0,1.4,0,2.2-0.1
		c5.4-0.2,10.1-3.3,12.6-8c0.1,2.9,1.1,5.8,2.9,8.3c2.1,2.9,4.7,4.8,7.1,5.9c1.6,5.6,6.4,9.8,12.3,10.6c1.5,0.2,3.7,1.3,6,2.5
		c7.7,4,16.2,8,26.6,8.5c0.7,0,1.4,0.1,2.1,0.2c-1.2,1.9-2.1,4.1-2.4,6.4c-0.8,6.2,2.4,12.3,8,15.2c8.5,4.4,16.5,5,22.6,5
		c2,0,3.9-0.1,5.8-0.1c1,0,2.1-0.1,3.1-0.1c20.1-0.4,39.8-1.2,59.6-6.4c3.9-1,6.6-2.9,8.4-5c4.9-0.5,9.1-3.3,11.5-7.3
		c4.3-1.4,7.8-4.7,9.4-9c1.1-3,1.2-6.1,0.4-9.1c1.5-3.4,1.6-7.3,0.4-10.7c0.9-3.9,0.3-8.1-1.9-11.5c-2.3-3.7-6.1-6.1-10.3-6.8
		c-2.9-3.3-6.7-5.8-11.2-7.7l-0.3-0.1c-7.2-2.9-15-6-23.8-7.7c2.9-1.1,5.4-3,7.1-5.5c7-1.4,10.1-6.4,11.2-8.6
		c0.2-0.4,0.4-0.9,0.6-1.5c0.2-0.1,0.4-0.3,0.6-0.4c1.2-0.9,3.1-2.3,3.7-2.5c0,0,0.1,0,0.2,0c0.6,0.1,1.3,0.1,1.9,0.1
		c5.8,0,11.1-3.3,13.6-8.7c1.2-2.7,1.6-5.5,1.3-8.3c2.2-1.1,4-2.6,5.5-4.5c0.6,0.3,1.2,0.6,1.9,0.8c3.8,1.3,7.1,2,10.4,2.1
		c0.6,3,2,5.6,3.7,7.8c2.9,3.6,7.2,5.6,11.7,5.6c0.5,0,1.1,0,1.6-0.1c5.1-0.6,9.5-3.7,11.8-8.3c0.1-0.1,0.1-0.3,0.2-0.4
		c0.6-1.2,1.7-3.2,2.2-5.9c2.1-3.8,4.9-9.6,3.7-16.9c-0.2-1.5-0.1-2.9,0.4-5c1.6-6.6,1.8-13.8,0.7-20.8c0.9,0.2,1.7,0.3,2.3,0.3
		c0.4,0,0.7,0,1.1,0c4.3,0,8.4-1.8,11.3-5.1c1.8-2,2.9-4.4,3.5-7c2.1,1,4.3,1.5,6.5,1.5c4.1,0,8.3-1.7,11.2-5l0.9-1
		c0.4-0.5,0.8-0.9,1.1-1.4c1.6,1.1,3.5,1.8,5.5,2.2c3.9,5.6,5.8,10.6,5.3,16.4c-0.4,5.1,1.8,10,5.9,13.1c2.7,2,5.9,3.1,9.1,3.1
		c1.7,0,3.4-0.3,5.1-0.9c7.1-2.5,11.7-8.4,12.3-15.6l0.1-1.2c0.6-7.1,1.4-16-2-25.3c-0.2-0.6-0.5-1.3-0.7-1.9
		c-1.2-3.3-2.4-6.5-3-9.3c-1.8-8.4-4-18.9-9.2-28.6c-6.9-13.1-14.8-26.9-28.1-38.3c-5.7-4.9-11.1-10.2-16.9-15.7
		c-3.2-3.1-6.5-6.3-9.8-9.4c-12.7-11.9-27.1-18.3-41.1-24.5c-6.3-2.8-12.3-5.5-17.9-8.6c-2.3-1.3-4.9-2-7.7-2.2
		c-3.8-0.3-8-1.5-12.5-2.8c-6.5-1.9-14-4-22.4-4c-1.5,0-3,0.1-4.4,0.2c-0.4,0-0.8,0.1-1.3,0.1c-1.1,0-2.4-0.1-3.8-0.2
		c-1.7-0.1-3.7-0.2-5.7-0.2c-5,0-9.3,0.7-13.3,2.3c-0.8,0.3-2.6,0.6-4.4,0.8c-2.9,0.4-6.6,0.9-10.5,2.4c-2.3-1.8-4.7-2.7-6.7-3.1
		c-1.5-0.3-3-0.7-4.6-1C240.6,9.2,234.2,7.8,227.2,7.8L227.2,7.8z M265.5,46.1c0.9,0,1.8-0.1,2.6-0.1c0.7,0,1.2,0,1.6,0.1
		c-0.7,4.4,0.6,8.8,3.5,12.5c0.4,0.5,0.9,1,1.3,1.5c-1,1-1.8,2.1-2.5,3.3c-0.7-0.7-1.4-1.4-2.2-2c-1.4-1.3-2.7-2.4-4-3.6
		c-4.8-4.2-6.4-5.9-6.6-7.7c-0.1-0.6-0.2-1.6-0.5-2.8c0,0,0.1,0,0.1,0C261.6,47.2,263.9,46.6,265.5,46.1L265.5,46.1z M179.7,230.3
		c1-0.3,2-0.7,2.9-1.1c-0.6,1.3-1,2.7-1.3,4.2C180.6,232.2,180,231.2,179.7,230.3L179.7,230.3z"/>
</g>
</svg>
