<?xml version="1.0" encoding="utf-8"?>
<!-- Generator: Adobe Illustrator 24.1.0, SVG Export Plug-In . SVG Version: 6.00 Build 0)  -->
<svg version="1.1" id="Livello_1" xmlns="http://www.w3.org/2000/svg" xmlns:xlink="http://www.w3.org/1999/xlink" x="0px" y="0px"
	 viewBox="0 0 474 529.5" style="enable-background:new 0 0 474 529.5;" width="50" height="50" xml:space="preserve">
<style type="text/css">
	.st0{fill:#FEFEFE;}
</style>
<g id="WvlJHR_1_">
	<g>
		<path class="st0" d="M238.4,517c-2.1,0-3.9-0.5-5.4-1.6c-2-1.4-4.3-2-7.6-2c-1.9,0-4,0.2-6.2,0.4c-1.6,0.2-3.3,0.3-5,0.4
			c-1.1,0.1-2.2,0.1-3.3,0.1c-7.7,0-15.5-1.4-23.4-4c-8.2-2.8-11.8-10-9-18.3c1.5-4.4,2.7-9.2,3.9-14.5l-0.6-0.1
			c-7.7-1.9-15.7-3.9-23.5-6.2c-0.8-0.2-1.5-0.5-2.2-0.7c0,0.1-0.1,0.1-0.1,0.2c-1.5,1.7-3.6,2.6-5.7,2.6c-1.1,0-2.2-0.2-3.3-0.8
			c-7.4-3.6-12.7-7.9-16.6-13.6c-1-1.5-2.8-2.8-4.9-4.3c-3.3-2.3-7.3-5.2-9.8-10.2c-0.6-1.2-1.6-2.4-2.8-3.6
			c-0.2,0.9-0.6,1.7-1.2,2.4c-1.2,1.6-3,2.7-5,3c-0.5,0.1-1,0.1-1.5,0.1c-1.7,0-7.4-0.6-9.4-7.6l0-0.1c-0.8-2.6-1.9-5.2-3-7.9
			c-2.7-6.8-5.9-14.5-5.7-23.5c0.1-7.3-0.6-14.5-1.4-22.2c-0.1-1.2-0.2-2.4-0.4-3.6c-1.5-0.9-2.9-2.6-3.8-5.4
			c-0.5-1.3-0.8-2.6-1.2-3.9c-0.1-0.5-0.3-1-0.4-1.5c-0.2,1.5-0.9,3-2,4.2c-1.4,1.5-3.4,2.3-5.4,2.3c-0.6,0-1.3-0.1-1.9-0.2
			l-1.7-0.4c-2.1-0.5-3.9-2-4.8-3.9c-0.7-1.5-1.4-2.9-2.1-4.4c-1.5-3-2.8-5.9-4.4-8.6c-9.6-16-12.2-33.5-13.9-50
			c-1.8-17.1-1.4-35,1.4-54.6c2.7-19,7.2-35.7,13.7-51.2c4-9.5,7.4-19.7,10.6-29.6l1.1-3.5c5.6-16.8,13.5-33.7,24.3-51.7
			c14.4-24,30.7-43,49.9-58c2-1.6,4-3.1,6-4.7c9.6-7.6,19.5-15.4,30.5-21.8c11.8-6.9,24.3-8.9,36.4-10.8c1.6-0.3,3.2-0.5,4.8-0.8
			c6.9-1.1,13.6-1.3,20.1-1.4c3-0.1,5.9-0.1,8.8-0.3c0.5,0,1.2-0.2,2-0.4c1.2-0.3,2.6-0.7,4.3-0.8c1.2-0.1,2.3-0.2,3.4-0.2
			c5.8,0,10.9,1.4,15.2,4.2c3.8,2.5,8.1,5.6,12.1,9.4c0.9-2.5,2.2-4.9,4-6.8c6.7-7.4,15.4-11.8,27.4-13.6c1-0.2,2.1-0.2,3.2-0.2
			c4.3,0,7.8,1.4,10.7,2.4c1.6,0.6,3.1,1.2,4.1,1.2c0.5,0,0.9,0,1.4,0c17.2,0,24.4,14.1,27.8,20.9c11.2,22,23.9,43.5,37.6,63.7
			c8.6,12.6,12.3,26.9,14.8,39.2c2.2,11.1,5.3,25.6,8.6,40.2l0,0.2c1.4,6,2.8,12.2,3.1,18.7c1,20.4,1,36.3,0,51.4
			c-0.2,3.4-0.6,6.9-1,10.2c-0.9,7.8-1.7,15.2-0.7,22.4c1.6,12.2,1.8,22.4,0.9,32c-0.3,2.9-0.6,5.8-0.9,9l-0.5,4.6
			c-0.3,2.5-1.8,4.8-4,5.9c-0.3,3.9-1.5,7.4-2.5,10.3c-0.6,1.7-1.2,3.4-1.5,4.9c0,0-0.1,0.4-0.1,0.6c8.7,16.2,11.7,35,9.2,57.4
			c-2,17.6-12.7,30.1-20.7,38c-2.5,2.5-6.1,3.3-9.6,4c-0.9,0.2-1.7,0.4-2.3,0.5c-3.2,0.9-6.4,1.3-9.5,1.3c-6.5,0-12.5-1.9-17.9-5.6
			c-3.3,3.2-6.4,6.8-9.5,10.6c-1.7,2-3.4,4.1-5.2,6.1c-2.9,3.2-5.9,6.3-8.9,9.2c-1.2,1.1-2.3,2.3-3.5,3.4l-0.1,0.1
			c-0.8,0.8-2.8,2.8-6.1,3c-1.2,3.5-2.6,6.9-4,10.2c-0.3,0.8-0.7,1.6-1,2.3c-0.1,0.2-0.2,0.4-0.3,0.5c0.1,1.9,0.1,5.4-2.7,8.5
			c-0.8,0.9-1.7,1.5-2.8,1.9c-0.1,0.2-0.1,0.3-0.2,0.5c-0.8,1.7-3.3,5.8-10.3,5.8c0,0-1.1,0-1.5,0c-1.3,0-2.7,0-4,0
			c-1.4,0-2.9,0-4.3,0c-2.4,0-5.4-0.1-8.7-0.4c-1.9,1.2-4.4,2.1-7.6,2.1c-2.2,0-4.1-0.4-5.7-0.8c-0.7-0.2-1.4-0.3-1.9-0.4
			c-0.5-0.1-1-0.1-1.5-0.1c-1.7,0-3.2,0.3-5.3,1.1c-7.9,2.8-15.9,4-23.7,5.1c-3.4,0.5-6.5,0.9-9.7,1.5
			C240.5,516.8,239.5,517,238.4,517z M334.6,407.4c-1.4,1.7-3,3.2-4.9,4.5c-2.6,1.8-4.7,5.1-3.1,8.1c2.1,3.9,3.9,8,4.9,12.4
			c2.7-4.5,5.9-8.1,9.1-11.6l0.8-0.9c1-1.1,1.6-1.9,1.9-2.4c-0.5-0.4-1.2-1-2.3-1.8c-0.2-0.1-0.3-0.2-0.5-0.3
			C338.8,414.4,335.2,412,334.6,407.4z M388.3,425.1c0.9,0.3,1.7,0.5,2.4,0.5c0.6,0,2,0,4.3-2.6c5.5-6,8.2-13.2,8.3-22
			c-3.5,6.6-7.6,12.8-11.6,18.8C390.6,421.5,389.4,423.3,388.3,425.1z M130,331c0.3,5.4,0.7,10.4,2.3,14.8
			c5.9,16.1,14.3,28.8,25.5,39c12.4,11.3,25.7,20,40.5,26.6c0-0.2,0-0.3,0-0.5c0.3-5.1,0.6-10.8,2.9-16.1c2.5-5.5,3.9-10.1,4.3-14.5
			c-1.9,0.3-3.6,0.5-4.5,1.1c-1.2,0.8-2.7,1.2-4.1,1.2c-0.6,0-1.2-0.1-1.9-0.2l-0.1,0c-3.6-0.7-6.1-2.7-7.3-5.8
			c-0.9-2.3-0.6-4.9,0.8-6.9c2.4-3.6,5.4-6.2,8.4-8.4c-1.5-1.6-3.1-3.2-4.7-4.7c-0.8-0.8-1.7-1.5-2.5-2.3
			c-4.7-4.3-9.6-8.8-13.7-14.7c-5.2-7.6-11.4-16.4-18.3-24.2c-5.1-5.8-6.4-11.8-3.8-18.4l0.4-1c2.7-6.9,5.5-13.9,8.7-20.8
			c-3.1-5-7.1-9.4-11.3-14c-1-1.1-2-2.2-3-3.3c0.9,4.7,1.6,9.5,2.2,14.4c0.2,1.8,0.5,3.7,0.9,5.6c0.8,4,1.6,8.6,1.3,13.4
			c-0.3,3.8-3.4,6.8-7.2,7c-0.1,0-0.3,0-0.4,0c-1.6,0-7-0.5-9-6.6c-0.5-1.3-0.9-2.7-1.3-3.9c-0.7-2.1-1.3-4-2.1-5.8
			c-0.1-0.3-0.2-0.5-0.4-0.7c0,0-0.2,0.7-0.2,0.7c-0.8,3.2-1.8,7.6-5.4,10.4c-2.5,2-2.2,2.8-2,3.3c0.4,1,0.8,2,1.2,3
			c3,7.6,6,15.4,6.9,24.6c0.2,2-0.4,4-1.7,5.5c-0.4,0.5-0.9,0.9-1.4,1.3C129.9,330.5,130,330.8,130,331z M305.8,388.3
			c0.5,0.7,1,1.4,1.4,2.1c1.2,1.8,2.3,3.4,3.4,4.6c0-0.3,0-0.6-0.1-0.8c-1.1-2.5-1.2-5-0.4-7.2c-0.1-0.2-0.2-0.3-0.3-0.4
			C308.4,387.5,307,388,305.8,388.3z M351.9,388.7c1.2,0.5,2.3,1.2,3.1,1.9c1.3-3,2.7-6,4.3-8.9c7.3-12.9,11.6-24.1,13.6-35.4
			c1.3-7.2-2.4-9.1-5.7-9.9c-4.1-1-8-1.5-11.8-1.5c-1.8,0-3.6,0.1-5.3,0.3c1,0.2,2,0.6,3,1c5.9,2.7,8.8,8.5,7.8,14.9
			c-0.4,2.4-2,4.5-4.2,5.6c-1,0.5-2.1,0.7-3.2,0.7c-1.3,0-2.6-0.3-3.8-1c-2.9,4.3-3.8,7.4-3,10.4c1,3.7,1.8,8.2,1,13.4
			C349.8,381.5,351.6,384,351.9,388.7C351.9,388.7,351.9,388.7,351.9,388.7z M248.6,375.2c0.4,0.9,1.4,1.9,3.1,3.2
			c0.2-0.6,0.3-1.3,0.5-2.3C250.8,376,249.7,375.7,248.6,375.2z M301.1,351.4c3.5,0,6.5,1.9,8.4,5.3c0.7,1.3,2.4,2.1,5.3,3.4
			c1.4,0.6,3,1.3,4.6,2.2c4.1-7.5,9.3-14,14.3-20.3l0.2-0.3c0.6-0.7,1.2-1.4,1.8-2.1c-11.4,4.6-23.1,9.3-36.4,10.1
			c-0.1,0.2-0.2,0.5-0.3,0.7c-0.2,0.4-0.3,0.9-0.5,1.3C299.4,351.5,300.3,351.4,301.1,351.4z M246,346c0.9,0,1.7,0,2.5,0.1
			c-1-0.7-1.9-1.5-2.7-2.4c-0.3,0.8-0.7,1.6-1.2,2.3C245.1,346,245.6,346,246,346z M215.7,295.8c-0.2,0.2-0.3,0.4-0.5,0.6
			c-2.2,2.8-2.2,3.7-2.2,3.7c0,0,0.1,1.1,3,4.3l1.3,1.4c4.5,5.1,9.4,10.5,12.6,17.1c0.4-1,0.4-2.1-1.1-3.8c-2.2-2.4-4.3-5.1-6-7.9
			C219.7,306.4,217.4,301.3,215.7,295.8z M326.2,256.8c2.4,2.2,6.9,7.9,1.1,15.4c-1.1,1.4-2.3,2.5-3.3,3.5c-0.4,0.4-0.9,0.8-1.3,1.3
			c-0.5,0.5-1,1-1.5,1.6c-4.7,4.8-5.8,6.6-5,9.7c0.4,1.5,0.8,2.7,1.4,3.8c3.2,6,4,11.6,2.3,16.5c-0.1,0.4-0.3,0.7-0.4,1.1
			c10.7-3.7,23-7.2,35.8-7.2c5.1,0,10,0.5,14.7,1.6c-0.2-2.9-0.7-5.7-1.3-8.4c-1.8-1-3.7-2.9-4.6-6.5c-0.5-2.1-1.1-4.1-1.6-6.1
			c0,0-0.1,0-0.1,0c-0.4,0.1-0.7,0.1-1.1,0.1c-2.9,0-5.6-1.7-6.8-4.3c-3.3-7.1-5.3-12.8-6.6-17c-1-3.3-2.4-6.5-3.9-9.9
			c-1.3-3-2.6-6-3.7-9.2c-2.8-0.4-5.4-1.3-7.8-2.1c-1.5,2.7-3.6,5.3-6.3,8C325.2,250,325.1,255.3,326.2,256.8z M255.8,277.8
			c-0.5,2-0.7,4-0.7,5.9c0.4-0.2,0.9-0.3,1.3-0.4c0.2-0.2,0.6-0.4,0.9-0.6c0.1-0.1,0.3-0.2,0.4-0.3
			C257.3,280.7,256.6,279.2,255.8,277.8z M274.6,127.6c2.6,0,4.9,0.8,6.8,1.5c0.7,0.3,1.6,0.6,2.1,0.7c0.5,0.1,1,0.1,1.4,0.1
			c2.1,0,3.5-1.4,6.6-5.7l0-0.1c0.4-0.9,1.2-2.5,3-4c8-6.7,11.7-16.8,15.2-26.6c1.7-4.6,2.3-7.2,1.3-9.7c-1.2-3-0.2-5.6,0.2-6.6
			c0,0,0-0.1,0-0.1c3.7-10.2,2.3-21.1,0.7-32.5c0-0.4-0.1-0.7-0.1-1.1c-0.5-0.3-1.1-0.6-1.6-0.8c-4.3,1.1-4.3,1.7-4.7,7.5
			c0,0.3,0,0.7,0,1.1c0,0.4,0,0.7,0,1.2c0,3.1-1.9,5.9-4.9,7c-0.7,0.3-1.4,0.4-2.1,0.5c0,0.3,0,0.7,0,1c0.1,3.5-2.2,6.6-5.5,7.5
			c-0.7,0.2-1.3,0.3-2,0.3c-2.7,0-5.3-1.5-6.6-3.9l-0.6-1.1c-3.2-5.9-5.4-9.6-9-10.8c-1-0.4-2.1-0.7-3.1-1.1
			c-5.4-1.9-10.5-3.7-15.3-3.7c-1.9,0-3.7,0.3-5.5,0.8c-3.7,1.2-7.6,1.8-11.4,1.9c-2.4,0-3.9,0.8-5.4,2.7c-1.6,2-3.4,3.9-5.1,5.8
			c-4.3,4.7-8,8.7-8.9,13.7c-2,10.3-3.5,20.4-0.4,29.9c0.7,2,0.7,3.8,0.7,5.2c0,0.3,0,0.8,0,0.9c0.5,3.2,2.8,5.6,6.4,9.3
			c0.5,0.5,1,1,1.6,1.6c0.8-0.1,1.5-0.2,2.3-0.3c-0.4-2.4-0.4-5.2,0.3-8.4c0.7-3,3.1-5.3,6.2-5.8c0.4-0.1,0.7-0.1,1.1-0.1
			c2.7,0,5.2,1.4,6.5,3.8c0.1,0.2,0.2,0.3,0.2,0.3c0.2,0.1,1.3,0.3,2,0.4c0.6,0.1,1.2,0.2,1.8,0.3c3,0.7,5.9,1.4,9,3
			c3.5,1.8,11.5,6,10.8,15.7c0.5-0.2,1-0.4,1.5-0.6C271.5,128,273,127.6,274.6,127.6z"/>
		<path d="M322.8,20c5.7,0,9.9,3.7,14.7,3.7c0.1,0,0.2,0,0.4,0c0.3,0,0.7,0,1,0c11.8,0,17.1,8.7,21.1,16.8
			c11.4,22.4,24,43.8,38.1,64.5c7.5,11,11,23.6,13.6,36.5c2.7,13.5,5.5,26.9,8.6,40.3c1.3,5.8,2.7,11.7,3,17.6
			c0.9,16.8,1.2,33.6,0,50.5c-0.8,11.3-3.1,22.7-1.7,34.1c1.3,10.1,1.9,20.2,0.9,30.3c-0.4,4.2-0.9,8.5-1.4,13.6
			c-1.7-1.9-2.9-3.3-4.1-4.6c-1.8,0.8-1.9,2.6-1.4,3.4c4.1,7.7-0.9,14.4-2.4,21.4c-0.4,1.8-0.7,3.2,0.3,5.1
			c9.2,16.8,10.7,34.9,8.7,53.6c-1.5,13.7-9.2,24.3-18.5,33.5c-1.3,1.3-5.6,1.9-8.6,2.7c-2.6,0.7-5.1,1-7.5,1
			c-5.8,0-11.2-2-16.1-6.1c-0.9-0.7-1.5-1-2.1-1c-0.9,0-1.5,0.6-2.3,1.3c-6.8,5.7-11.9,12.9-17.8,19.4c-3.8,4.3-8,8.2-12.1,12.3
			c-0.4,0.4-0.9,0.9-1.4,0.9c-0.3,0-0.6-0.2-1-0.6c-0.6-0.7,1.6-2.3-0.2-2.3c-0.1,0-0.3,0-0.5,0c-1.9,0.2-3.1,1.8-3.6,3.7
			c-1.4,5.6-3.8,10.9-6.1,16.2c-1.9,2,0.2,4.9-1.6,6.9c-1.4-3.1-4.7-4.9-5.4-9.1c-1.8,4.2-2.9,7.2,0.2,10.8c2.3,2.6,0.7,4.2-2.5,4.2
			c0,0-0.1,0-0.1,0c-0.4,0-0.9,0-1.3,0c-2.8,0-5.6,0.1-8.3,0.1c-3.1,0-6.2-0.1-9.3-0.6c-0.3-0.1-0.7-0.1-1.1-0.1
			c-0.4,0-0.7,0.1-0.8,0.2c-1.6,1.6-3.3,2.1-5,2.1c-2.3,0-4.7-0.9-6.8-1.1c-0.8-0.1-1.5-0.1-2.3-0.1c-2.8,0-5.2,0.6-7.9,1.5
			c-10.4,3.7-21.4,4.4-32.2,6.4c-0.5,0.1-1.1,0.2-1.7,0.2c-0.4,0-0.9-0.1-1.2-0.3c-3.8-2.6-7.8-3.3-11.8-3.3
			c-3.8,0-7.7,0.6-11.5,0.8c-1,0.1-2,0.1-3,0.1c-7.2,0-14.2-1.3-21-3.6c-3.6-1.2-6-3.8-4.3-8.8c2-6.1,3.6-12.4,4.8-18.7
			c0.7-3.6-0.9-4.1-3.6-4.8c-8.8-2.2-17.7-4.3-26.4-6.9c-5.2-1.5-10.1-3.9-15.6-6.1c1.8,2.6,3.2,4.6,5.4,7.9
			c-6.3-3.1-10.6-6.6-13.7-11.1c-3.9-5.6-11.1-7.4-14.2-13.6c-2.5-5-7.5-8-10.3-12.7c-0.7-1.2-2.1-2.5-0.4-3.9
			c0.8-0.7,3.1,0.5,2.5-2c-0.2-0.8-0.7-1.6-1.4-1.6c-0.2,0-0.4,0.1-0.7,0.2c-0.3,0.2-0.5,0.2-0.7,0.2c-0.7,0-1.3-0.4-2.1-0.4
			c-0.6,0-1.2,0.3-1.9,1.3c-3.5,4.8-2.1,9.4-2.1,14.2c0,0.8,0.2,1.6,0.4,2.4c-0.2,0-0.3,0-0.4,0c-1.7,0-2-1.7-2.3-2.5
			c-3-9.6-8.5-18.3-8.3-29.1c0.2-10.2-1.3-20.5-2.2-30.7c0-0.2,0.6-3.2-0.5-3.2c-0.4,0-1.1,0.4-2.1,1.5c-0.1,0.1-0.2,0.2-0.3,0.2
			c-0.3,0-0.6-0.4-0.9-1.5c-1-3-1.7-6.1-2.9-9c-2.6-6.6-5.9-13-1.6-20.3c-6.2,7.5-15.4,13.1-11.7,25.4c-0.6-0.1-1.2-0.3-1.7-0.4
			c-2.3-4.5-4.2-9.1-6.8-13.4c-8.7-14.5-11.1-30.6-12.9-47c-1.9-17.7-1.1-35.3,1.4-52.7c2.4-16.8,6.5-33.4,13.2-49.3
			c4.6-10.9,8.3-22.4,12-33.7c5.9-17.8,14-34.3,23.6-50.2c12.8-21.4,28.3-40.5,48.1-55.9c11.6-9.1,22.9-18.5,35.6-26
			c12-7,25.3-8.4,38.6-10.7c9.3-1.6,18.7-1.1,28.1-1.6c2.3-0.1,4.3-1.1,6.6-1.3c0.9-0.1,1.8-0.1,2.7-0.1c4,0,7.9,0.9,11.1,3
			c6.6,4.3,13,9.3,17.2,16.1c2.8,4.6,1.7,10.1,1.9,15.4c-3.4-6.4-6.7-13-13.7-15.5c-6.8-2.3-13.6-5.2-20.9-5.2
			c-2.5,0-5.1,0.4-7.8,1.2c-3,1-6.1,1.5-9.3,1.5c-4.5,0.1-8.1,1.8-11.1,5.5c-5.8,7.2-13.7,13.3-15.5,22.7
			c-2.1,11.1-3.9,22.4-0.2,33.7c0.5,1.5,0.1,3.3,0.4,4.9c1.2,7.3,6.9,11.4,11.4,16.4c0.6,0.7,1.5,1.1,2.5,1.1c0.2,0,0.4,0,0.7-0.1
			c3.2-0.6,6.4-0.7,9.8-0.7c2.2,0,4.4,0,6.8,0c1.3,0,2.7,0,4.1-0.1c-6.8-2.6-11.8-5.4-9.9-14c2.4,4.1,5.8,4,8.9,4.7
			c2.4,0.5,4.8,1.1,7.1,2.3c3.8,2,7.4,4.2,6.7,9.2c-0.7,5.3-5.3,10.2-10.4,10.7c-2.4,0.3-4.5,0.7-6.5,1.5c-0.4,1.6,1,2.2,1.5,2.2
			c0.1,0,0.1,0,0.1,0c4.2-2,9.1,0,13.1-2.9c4.2-3,9.6-3.3,14.3-5.4c0.4-0.2,0.9-0.3,1.4-0.3c2.2,0,5,1.6,7.5,2.1
			c1,0.2,1.9,0.3,2.7,0.3c6.2,0,9.5-4.4,12.9-9c0.5-0.7,0.8-1.8,1.5-2.4c9.4-7.8,13.5-18.8,17.4-29.8c1.7-4.8,3.3-9.7,1.3-14.9
			c-0.1-0.4,0.1-1,0.3-1.4c4.8-13.2,2.3-26.6,0.6-39.9c-0.2-1.4-6.6-4.8-8.5-4.8c-0.1,0-0.2,0-0.3,0c-9.3,2.3-11.4,4.9-12.1,14.7
			c-0.1,0.8,0,1.6,0,2.8c-4.8-5.5-5-16-0.2-21.3c6.1-6.8,13.8-9.8,23-11.3C321.5,20,322.1,20,322.8,20 M197.5,228.3
			c-0.4,0-0.9-0.1-1.6-0.4c-1.3-2.2-2.8-2.9-4.5-2.9c-1.7,0-3.5,0.8-5.1,1.6c-3.2,1.5-5.3,6.1-4.6,8.3c1.6,4.8,0.8,9.5,1.7,14.1
			c0.3,1.8,0.4,3.7,2.3,5.4c2.2-5.2,2.4-10.9,5.8-15.3c2.5-3.2,5-6.5,7.5-9.8c2.8-3.3,4.6-7.1,6.7-11c-0.7-0.1-1.4-0.2-2-0.2
			c-4.5,0-4.9,3.7-5.1,7.2C198.7,226.9,198.7,228.3,197.5,228.3 M303,321.2c1,0,2.3-0.3,3.2-0.3c0,0,0,0,0,0c0,0,0.1,0,0.1,0
			c4.2,0,8-1.5,11.9-2.9c12.2-4.5,24.4-8.1,37-8.1c7.1,0,14.2,1.1,21.5,3.9c1.8-8.5,0.3-16.6-2-24.7c0-1.4,0.3-3-1.6-3.7
			c-0.9,1.5,0.4,2.5,0.6,3.6c-0.3,0.1-0.5,0.2-0.8,0.2c-1,0-1.3-1-1.6-1.9c-1.6-6.1-3.2-12.2-5.7-18c-0.5-1.1-0.2-2,0.4-2.8
			c0.6-0.9,1.1-1.8-0.2-2.4c-0.3-0.1-0.6-0.2-0.8-0.2c-0.9,0-1.2,1.1-1.6,1.9c-1.6,2.6-1.5,5.7-2.1,9.9c-2.8-6.1-4.7-11.2-6.3-16.1
			c-2.4-7.5-6.2-14.3-8.4-21.7c-0.4-1.2-1.2-2.3-2.4-2.3c-4.4-0.1-8.3-1.7-12.3-3.3c-0.5-0.2-1.1-0.3-1.6-0.3
			c-1.3,0-2.4,0.7-3.1,2.5c-1.3,3.4-3.5,6.2-6.2,8.8c-4.1,4-4.1,15.4,0,19.1c2.3,2.1,1.9,3.4,0.3,5.3c-1.2,1.6-2.7,2.8-4.1,4.3
			c-4.8,5.1-10.4,9.8-8.4,18.2c0.5,2,1.1,3.8,2.1,5.5c4.4,8.2,2.5,13.8-6,17.4c-3.1,1.3-3.9,4.5-3.8,6.9
			C301.2,321,302,321.2,303,321.2 M145.3,290.9c-1.6,0-1.7-1-1.9-1.6c-1.2-3.4-2.2-7-3.6-10.2c-1.8-4-5.3-7.7-9.2-7.7c0,0,0,0,0,0
			c-3,0-4.4,4.8-5.2,8.3c-0.6,2.5-1.2,5.6-3,7.1c-4.1,3.3-6,7.3-4.3,11.9c3.2,8.2,6.7,16.3,7.6,25.6c0,0,0,0-0.1,0
			c-0.8,0-2.1-1.1-2.9-1.1c-0.5,0-0.8,0.4-0.6,1.9c0.8,7.9,0.5,16,3.2,23.6c5.9,16,14.6,30.3,27.5,42c14,12.7,29.5,22.6,46.8,29.7
			c1.4,0.6,2.4,0.9,3.2,0.9c1.9,0,2.5-1.6,2.8-5c0.5-6.1,0.2-12.7,2.6-18c3.6-8.1,5.8-16,4.9-24.8c-0.1-0.9,0-2.2-0.9-2.2
			c-0.2,0-0.5,0.1-0.8,0.2c-4.5,2.3-10,1.2-14.3,4c-0.9-0.2-1.8-0.2-2.3-1.3c2.7-4.1,6.9-6.8,10.7-9.5c2.6-1.9,1.8-2.9,0.5-4.3
			c-2.8-3.1-5.7-6.1-8.7-8.9c-5.3-4.9-10.9-9.6-15.1-15.7c-5.9-8.6-12-17.2-18.9-25c-3.2-3.6-4-6.6-2.4-10.6
			c3-7.7,6.1-15.4,9.6-22.9c1-2.1,0.4-3.1-0.5-4.7c-5-8.4-12-15-18.2-22.3c-1.1-1.4-2.5-2-3.9-2c-1.6,0-3.1,0.9-4.3,2.5
			c-1.7,2.5-3,5.1-2.3,8.3c0.9,4.7,1.6,9.5,2.2,14.3c0.6,5.9,2.6,11.7,2.1,17.7C145.4,290.9,145.4,290.9,145.3,290.9 M252.8,297.5
			c0.3-3.9,2.1-6.1,5.9-7.1c1.8-0.5,3.3-2.2,5-3.2c2-1.2,1.9-2.4,1.6-4.8c-1.1-7.7-6-12.7-11-18.3
			C246,274.3,245.2,290.5,252.8,297.5 M230.9,357.7c0.4,0,0.8-0.6,1.2-2.3c0.1-0.4,1-1,1.5-1c0,0,0,0,0.1,0c0.6,0.1,1.2,0.1,1.7,0.1
			c3.5,0,7.1-0.9,10.6-0.9c1.7,0,3.3,0.2,4.9,0.8c2.5,0.9,4.5,1.3,6.1,1.3c3.8,0,5.5-2.5,6.4-8.4c0.2-1.3,0.3-2.6,0.4-4
			c0.1-4.4,0.1-6-1.5-6c-1,0-2.5,0.6-5,1.4c-0.1,1.9,3,1.6,2.5,3.8c-0.4,0.1-0.8,0.2-1.2,0.2c-0.1,0-0.2,0-0.2,0
			c-5.5-1.1-11-7.4-11.5-12.8c-0.2-2.1-0.6-4.3-1.1-6.3c-0.2-0.9-0.8-1.4-1.4-1.4c-0.4,0-0.8,0.3-1,0.8c-2.5,5.7-5.2,11.4-4.6,18.6
			c-4.5-5.2-5.1-9.3-2.4-14.8c2.2-4.5,1.4-8.9-2.1-12.7c-1.9-2.1-3.6-4.3-5.1-6.7c-6.4-10.5-9.1-22.1-9.5-35
			c-2.4,2.5-4.1,4.3-4.9,7.2c-1.1,4.3-2.3,8.5-5.3,12.2c-5.6,7-5.1,10.8,1,17.7c8.1,9.1,16.7,18,15.4,31.7
			c-0.5,5.1,0.7,9.9,3.4,14.2C229.7,356.2,230.3,357.7,230.9,357.7 M295.9,342.3c-0.2,0-0.5,0-0.7,0c-0.8,0-1.5,0.1-1.7,1.1
			c-0.6,3.7-3.1,7-2.8,11c0.3,3.8,4,4.5,6.2,6.5c0.6,0.6,1.1,0.8,1.4,0.8c1,0,1.1-2,1.9-2.5c0.4-0.2,0.7-0.3,1-0.3
			c0.9,0,1.5,0.8,1.9,1.4c3.2,5.8,10.2,6.2,14.8,10c1.2,1,2.3,3.5,4.3,3.5c0.3,0,0.5,0,0.8-0.2c2.8-1,0.8-4.3,2.1-6.2
			c0.2-0.3,0.3-0.6,0.5-0.9c4-7.3,9.1-13.8,14.2-20.2c1.7-2.1,4.2-4.1,7.1-4.1c1,0,2,0.2,3,0.7c2.6,1.2,4.1,3.6,3.5,6.9
			c-3-1.8-4.4-2.6-5.4-2.6c-0.8,0-1.2,0.5-2,1.5c-4.6,5.8-8.6,12.4-6.5,19.9c1.4,5.2,1.6,9.8-0.3,14.6c-0.6,1.4-0.2,3.5,0.8,3.5
			c0.1,0,0.2,0,0.4-0.1c1-0.4,1.7-0.6,2.3-0.6c2.3,0,1.6,3,2,4.5c0.6,2.1,1.9,4.6,3.2,4.8c4.1,0.5,3.8,4.1,5.4,6.3
			c1.1,1.6,1.9,3.4,3.4,6.3c3-8.4,5.4-15.8,9.3-22.6c6.7-11.9,12-24.2,14.5-37.8c1.7-9.2-2.1-16.2-11.3-18.5
			c-4.6-1.1-9.1-1.8-13.6-1.8c-5.9,0-11.8,1.1-17.6,3.4C324.3,336.1,310.9,342.2,295.9,342.3C295.9,342.3,295.9,342.3,295.9,342.3
			 M251.8,387.9c0.8,0,1.6-0.8,2.4-1.3c6-3.9,5.2-10.1,6-15.9c0.3-2.1-0.1-2.7-1.3-2.7c-0.4,0-0.9,0.1-1.5,0.2
			c-1.8,0.3-3.1,0.6-4,0.6c-1.9,0-2.8-0.9-5.5-3.3c-0.2-0.1-0.4-0.2-0.7-0.2c-0.1,0-0.3,0-0.4,0c-0.1,0-0.2,0-0.3,0
			c-1.5-0.2-3-0.4-4.4-0.4c-2.1,0-4.1,0.4-6,1.8c1,3.7,4.3,6.2,5.2,10.1c1.2,5.2,6.2,7.4,9.6,10.8
			C251.2,387.8,251.5,387.9,251.8,387.9 M380.3,432c0.7,0,1.5-0.3,2.2-1.3c0,0,0,0,0,0c0.1,0,0.9,0.4,1.3,0.6
			c2.5,1.1,4.8,1.7,6.9,1.7c3.6,0,6.8-1.7,9.9-5c9.2-10,11.4-22.2,9.7-35.1c-0.8-6.4-2.4-12.8-6-19.3c-0.9,3.2-0.6,5.6-1.2,8
			c-4.4,16.2-14.7,29-23.4,42.8c-1.3,2-1.8,4.2-1.5,6.1C378.3,431.2,379.2,432,380.3,432 M310.9,404.6c1.1,0,2.3-1.2,4.7-3.7
			c2.6-2.6,3.2-6.6,1.7-10c-0.2-0.4-0.4-1.1-0.2-1.4c1.8-2.2,1.1-3.5-0.3-6c-1.7-3.2-4.4-5.1-7.1-5.1c-1.5,0-3,0.6-4.3,1.9
			c-0.4,0.4-0.9,0.6-1.2,0.6c-0.7,0-1.2-0.5-1.8-1c-2.6-2.4-5.2-5-8.7-5c-0.9,0-1.9,0.2-3,0.6c-0.1,0-0.2,0-0.2,0
			c-0.7,0-0.7-1.4-1.9-1.4c-0.2,0-0.4,0-0.7,0.1c2.1,4.1,1.6,9.6,5.6,12c5.8,3.5,7.7,9.9,12.3,14.3
			C308.5,403.2,309.7,404.6,310.9,404.6 M322.6,453.1c5.6-4.5,11.1-8.2,13.5-13.4c2.7-5.9,6.7-10.2,10.8-14.7
			c6.2-6.9,5.9-10-1.6-15.3c-1.4-1-3.2-1.9-3.2-3.5c0-5-4.8-6.3-7-9.6c-0.3-0.5-0.6-0.7-0.9-0.7c-0.5,0-0.9,0.6-1.5,1.4
			c-2.1,3.1-4.3,6.4-7.3,8.5c-5.9,4-9,11.3-5.6,17.8c3.6,6.9,6.3,13.7,3.9,21.6C323.1,447.3,323.1,449.6,322.6,453.1 M322.8,5
			C322.8,5,322.8,5,322.8,5c-1.4,0-2.9,0.1-4.3,0.3c-13.8,2.1-23.9,7.2-31.9,16c-0.1,0.1-0.2,0.2-0.3,0.4c-2.1-1.6-4.2-3-6.1-4.2
			c-5.4-3.6-12.1-5.5-19.3-5.5c-1.4,0-2.7,0.1-4.1,0.2c-2.3,0.2-4.2,0.7-5.5,1.1c-0.3,0.1-0.6,0.2-0.8,0.2c-2.7,0.1-5.4,0.2-8.2,0.3
			c-6.8,0.1-13.8,0.3-21.2,1.5c-1.6,0.3-3.1,0.5-4.7,0.8c-12.2,1.9-26,4.2-39,11.7c-11.5,6.7-21.6,14.7-31.3,22.4
			c-2,1.6-4,3.1-6,4.7c-19.9,15.6-36.9,35.2-51.8,60c-11.1,18.5-19.2,35.9-25,53.2l-1.2,3.5c-3.4,10.2-6.5,19.8-10.4,29
			c-6.8,16.1-11.4,33.4-14.2,53c-2.9,20.2-3.4,38.7-1.5,56.5c1.9,17.4,4.6,35.8,15,53.1c1.4,2.3,2.7,5.1,4.1,7.9
			c0.7,1.5,1.4,3,2.2,4.5c1.9,3.9,5.5,6.7,9.7,7.8l0.7,0.2l1,0.3c1.2,0.3,2.5,0.5,3.7,0.5c1.6,0,3.2-0.3,4.7-0.8
			c0.3,0.4,0.6,0.8,1,1.2c0,0.2,0,0.5,0.1,0.7c0.8,7.5,1.5,14.5,1.4,21.3c-0.2,10.6,3.4,19.4,6.2,26.5c1,2.6,2,5,2.8,7.3
			c2.8,9.6,10.4,13.1,16.6,13.1c0.8,0,1.7-0.1,2.5-0.2c1.4-0.2,2.8-0.6,4.2-1.2c3,3.9,6.5,6.4,9.2,8.3c1.1,0.8,2.7,2,3.1,2.5
			c4.6,6.7,11,11.9,19.5,16.1c2.1,1,4.3,1.5,6.6,1.5c2.6,0,5.1-0.7,7.4-1.9c5.3,1.5,10.6,2.9,15.8,4.2c-0.6,2.3-1.3,4.5-2,6.7
			c-4.1,12.2,1.6,23.6,13.7,27.7c8.6,2.9,17.3,4.4,25.8,4.4c1.2,0,2.5,0,3.7-0.1c1.9-0.1,3.6-0.3,5.3-0.4c2-0.2,3.9-0.4,5.5-0.4
			c2.4,0,3,0.4,3.3,0.6c1.9,1.3,5.2,2.9,9.7,2.9c1.7,0,3.2-0.2,4.4-0.5c3-0.6,6.1-1,9.4-1.5c8.1-1.2,16.5-2.4,25.1-5.5
			c1.6-0.6,2.3-0.6,2.8-0.6c0.2,0,0.4,0,0.7,0c0.2,0,0.7,0.1,1.1,0.2c1.8,0.4,4.3,0.9,7.3,0.9c3.2,0,6.3-0.6,9.1-1.9
			c2.7,0.2,5.2,0.3,7.2,0.3c1.5,0,3,0,4.4,0c1.4,0,2.7,0,3.9,0c0.4,0,0.8,0,1.2,0l0.3,0c7.1,0,12.9-3.1,16.1-8.4
			c1-0.7,1.9-1.5,2.7-2.4c3.8-4.3,4.6-9,4.6-12c0.2-0.5,0.4-1,0.6-1.5c0.9-2.2,1.9-4.5,2.8-6.9c2-0.9,3.9-2.2,5.7-4l0.1-0.1
			c1.1-1.1,2.3-2.2,3.4-3.4c3.1-3,6.2-6.1,9.3-9.6c1.9-2.1,3.6-4.2,5.4-6.3c1.7-2.1,3.4-4.1,5.1-6c5.2,2.4,10.8,3.7,16.6,3.7
			c3.7,0,7.6-0.5,11.4-1.6c0.5-0.1,1.2-0.3,1.9-0.4c4.1-0.9,9.2-2,13.3-6.1c8.7-8.7,20.6-22.6,22.8-42.5c2.5-22.8-0.3-42.2-8.7-59.1
			c0.2-0.6,0.5-1.4,0.7-2.1c0.8-2.3,1.9-5.3,2.5-8.7c2.5-2.4,4.1-5.7,4.5-9.2l0.5-4.7c0.3-3.2,0.6-6.1,0.9-8.9
			c1-10.2,0.7-20.9-0.9-33.7c-0.8-6.3,0-13.3,0.8-20.7c0.4-3.4,0.8-6.9,1-10.5c1.1-15.4,1.1-31.6,0-52.3c-0.4-7.2-1.9-13.7-3.3-20
			l0-0.2c-3.3-14.5-6.3-29-8.5-40c-2.7-13.1-6.6-28.3-15.9-42c-13.6-19.9-26.1-41.1-37.2-62.8c-3.8-7.5-12.7-25-34.5-25
			c-0.3,0-0.6,0-0.8,0c-0.5-0.2-1.3-0.5-1.9-0.7C333.1,6.8,328.5,5,322.8,5L322.8,5z M239.9,58.5c4.5-0.1,9-0.9,13.4-2.3
			c1-0.3,2-0.5,3.2-0.5c3.6,0,8.1,1.6,12.8,3.3c1.1,0.4,2.1,0.8,3.2,1.1c1.1,0.4,3.5,4.9,4.8,7.3l0.6,1.2c2.7,4.9,7.8,7.9,13.2,7.9
			c1.3,0,2.6-0.2,3.9-0.5c5.1-1.4,9-5.3,10.4-10.2c0.2-0.1,0.4-0.2,0.5-0.3c-0.2,3.2-0.7,6.3-1.8,9.3l0,0c-1.5,4.1-1.6,8.1-0.2,11.8
			c-0.1,1-1,3.6-1.3,4.6c-3.9,10.9-6.9,18.4-12.9,23.3c-2.6,2.1-3.9,4.5-4.6,5.9c-0.4,0.5-0.9,1.2-1.3,1.7c-2.1-0.8-5.3-1.9-9.1-1.9
			c-0.9-2.4-2.3-4.6-4.1-6.6c-2.8-3.1-6.1-5.1-9.2-6.7c-3.8-2-7.4-2.9-10.8-3.6c-0.4-0.1-0.8-0.2-1.1-0.2c-2.8-3.1-6.8-4.9-11-4.9
			c-0.7,0-1.5,0.1-2.2,0.2c-3.4,0.5-6.5,2.2-8.7,4.6c-0.1-0.7-0.3-1.4-0.6-2.1c-2.6-7.8-1.2-16.8,0.6-26.2c0.5-2.8,3.6-6.2,7.1-10
			C236.3,62.7,238.1,60.7,239.9,58.5L239.9,58.5z M332.9,252.4c0.8-0.8,1.5-1.6,2.2-2.4c0.7,1.7,1.4,3.3,2,4.9
			c1.4,3.2,2.7,6.3,3.6,9.2c1.4,4.4,3.5,10.4,6.9,17.9c1.8,3.8,5,6.6,8.8,7.9c0.1,0.4,0.2,0.8,0.3,1.2c0.4,1.5,0.9,2.8,1.5,4
			c-1,0-2-0.1-3-0.1c-9.6,0-18.8,1.7-27.4,4.1c-0.6-3.4-1.8-6.9-3.7-10.5c-0.2-0.3-0.4-0.7-0.6-1.4c0.7-0.9,2-2.3,3-3.3
			c0.5-0.5,1-1.1,1.6-1.6c0.3-0.3,0.6-0.6,1-1c1.1-1.1,2.5-2.5,3.9-4.3c6.1-7.8,5.9-16.9-0.2-23.8
			C332.9,252.8,332.9,252.6,332.9,252.4L332.9,252.4z M137.6,333c2.2-3,3.2-6.7,2.9-10.4c-0.7-7.2-2.6-13.7-4.7-19.6
			c3,2,6.4,2.8,9.4,2.9c0.5,4.5,2.4,9.5,6.8,14.6c6.7,7.5,12.7,16.1,17.8,23.5c4.5,6.6,10,11.6,14.8,16c0.4,0.4,0.8,0.8,1.3,1.2
			c-1.3,1.3-2.5,2.8-3.6,4.5c-2.7,4.1-3.3,9.2-1.5,13.8c1.2,3.2,4.5,8.7,12.8,10.4l0,0c0.5,0.1,1.1,0.2,1.6,0.3
			c-0.2,0.6-0.5,1.1-0.7,1.7c-1.2,2.7-2,5.5-2.5,8.1c-10.4-5.6-20-12.4-29.1-20.7c-10.3-9.3-18-21.1-23.5-36
			C138.3,340.5,137.9,336.9,137.6,333L137.6,333z M354,364.8c2-0.1,4-0.5,5.8-1.4c0.1,0,0.2-0.1,0.3-0.2c-1.3,3.2-2.9,6.5-4.6,9.9
			C355.2,370,354.6,367.2,354,364.8L354,364.8z M190.5,415.3C190.5,415.3,190.5,415.3,190.5,415.3L190.5,415.3z"/>
	</g>
</g>
</svg>
