<?xml version="1.0" encoding="utf-8"?>
<!-- Generator: Adobe Illustrator 24.1.0, SVG Export Plug-In . SVG Version: 6.00 Build 0)  -->
<svg version="1.1" id="Livello_1" xmlns="http://www.w3.org/2000/svg" xmlns:xlink="http://www.w3.org/1999/xlink" x="0px" y="0px"
	 viewBox="0 0 474 605.9" style="enable-background:new 0 0 474 605.9;" width="50" height="50" xml:space="preserve">
<style type="text/css">
	.st0{fill:#FEFEFE;}
</style>
<g>
	<g>
		<path class="st0" d="M193.5,186.3c-1.4,0-2.9-0.4-4.2-1.3c-2.9-1.9-4.1-5.6-2.9-8.8c0.8-2.2,2.5-3.9,4.7-4.7
			c0.9-0.3,1.8-0.5,2.7-0.5c2.5,0,5,1.3,6.4,3.6c1.9,3.1,1.3,7-1.3,9.5l-0.3,0.3C197.2,185.6,195.4,186.3,193.5,186.3z"/>
		<path d="M193.8,178.5L193.8,178.5 M193.8,178.5c-0.1,0.1-0.2,0.2-0.3,0.3C193.6,178.7,193.7,178.6,193.8,178.5 M193.8,163.5
			c-0.7,0-1.3,0-2,0.1c-1.7,0.2-3.3,0.7-4.7,1.4c-3.5,1.7-6.3,4.8-7.6,8.5c-2.4,6.5-0.1,13.8,5.7,17.7c2.5,1.7,5.5,2.5,8.4,2.5
			c3.7,0,7.3-1.3,10.2-4l0.1-0.1l0,0c3-2.7,5-6.7,5-11.1c0-7.9-6-14.3-13.7-14.9C194.7,163.6,194.3,163.5,193.8,163.5L193.8,163.5z
			 M193.8,193.5L193.8,193.5L193.8,193.5L193.8,193.5z"/>
	</g>
	<g>
		<path class="st0" d="M325.1,596.4c-11.7,0-23.9-2.5-37.2-7.6c-2.2-0.8-4-2-5.4-3c-0.7-0.5-1.4-0.9-1.9-1.2c-2.7-1.5-5-3.2-7.2-4.9
			c-1.8-1.3-3.4-2.6-5.1-3.5c-7.4-4.2-9.1-11.4-10.4-16.7c-0.4-1.5-0.7-3-1.2-4.2c-1-2.7-1.4-5.4-1.8-7.7c-0.4-2.7-0.8-5-1.8-6.7
			c-1.3-2.2-1.9-4.6-1.8-7c-0.7,0-1.4,0-2,0c-2,0-4.1-0.1-6.4-0.3c-0.4,0-0.9-0.1-1.3-0.1c-0.2,0-0.6-0.1-0.7-0.1
			c0.7,2.7,1.3,7.5-2.9,11.2c-1,0.9-1.6,2.4-2.5,4.8c-0.5,1.2-1,2.6-1.7,4c-7,14.5-20.1,21.1-32.9,26.6c-10.2,4.4-20.8,6.6-31.3,6.6
			c-9.1,0-18.3-1.7-27.3-5c-14.6-5.4-26.5-16.3-36.6-33.4c-0.5-0.9-0.9-1.4-1.1-1.7c-0.2,0-0.4,0.1-0.6,0.2
			c-2.3,0.8-4.7,1.1-7.5,1.1c-1.8,0-3.5-0.1-5.1-0.3c-1.2-0.1-2.4-0.2-3.4-0.2c-0.1,0-0.2,0.1-0.3,0.1c-1.2,0.6-3.3,1.6-6,1.6
			c-1.2,0-2.4-0.2-3.6-0.6c-4.9-1.8-10.2-2.9-15.7-4c-9.4-1.9-19.1-3.9-28.3-9.6c-1.4-0.9-2.6-1.8-3.7-2.7c-1.8-1.4-2.9-2.3-3.7-2.3
			c-0.1,0-0.2,0-0.2,0c-0.4,0-0.7,0.1-1.1,0.1c-4.7,0-8-3.6-9.6-6.9c-6-12.9-7.1-26.1-3.5-40.4c1.8-7.3,4.7-16.9,11-25.6
			c6.9-9.7,16-14.5,27.1-14.5c0.6,0,1.2,0,1.9,0c6.9,0.3,13.5,1.9,19.5,4.8c0.4-0.5,0.7-1,1.1-1.3c1.8-1.8,4.1-2.8,6.5-2.8
			c2.8,0,4.9,1.3,5.9,2l0.1,0.1c2.1,1.1,3.9,2.9,5.2,5c1.5-7.9,3.8-16,7.5-23.8c0.1-0.3,0.1-0.4,0.2-0.4c0,0,0-0.1-0.1-0.3
			c-3.2-8.1-1.2-16,5.6-21.7c0.5-0.4,0.5-1.1,0.5-1.3c-1.6-5.2-0.2-9.3,0.8-12.1c0.2-0.7,0.4-1.3,0.6-1.8c0.9-3.8,3.9-6.6,8-7.3
			c1.5-0.3,3.7-3,3.7-4.3c-0.1-1.6,0-3,0.1-4.2c0.1-0.5,0.1-1.3,0.1-1.5c-1.3-3-1-6.5,0.9-9.6c1.9-3.2,5.2-5.4,8.9-6.3
			c-3.4-8.5-1.9-16.1,4.1-20.7c2.5-1.9,5-2.9,7.6-2.9c0.2,0,0.4,0,0.6,0c1.5-3.6,4.3-6.2,5.8-7.5c0.2-0.2,0.5-0.4,0.7-0.6
			c0.9-0.8,1.3-1.6,1.9-3.8c0.1-0.5,0.3-1.1,0.4-1.6c0.1-0.5,0.2-0.9,0.4-1.5c-1.5,2.4-3.4,4.5-5.7,6.1c-2.1,1.4-4.3,2.1-6.6,2.1
			c-2.9,0-7.1-1.2-10.6-6.8c-1.5,1.9-3.4,3.4-5.6,4.3c-1.2,0.5-2.9,1.1-5,1.1c-3.2,0-6.1-1.5-7.9-4c-0.4-0.6-0.9-1.2-1.5-1.9
			c-1.6-2-3.7-4.6-5-7.9c-3.3-0.7-6.2-2.7-8-5.7c-2.3-3.7-2.5-8.2-0.5-12.1c1.1-2.2,1.9-4,1.8-5.2c-0.9-7.6,3.4-13.3,11-14.6
			c2.8-0.5,5.4-2.4,8.4-4.6c2.4-1.8,5.2-3.8,8.5-5.3c0.1-0.4,0.3-1.1,0.4-1.8c0.8-6.3,4.5-10.5,7.2-13.5c1.2-1.4,2.4-2.7,3-3.8
			c1.3-2.5,4.1-5.4,10.3-5.4c0.2,0,0.4,0,0.6,0c0.3,0,0.6,0,0.9,0c10.6,0,20.3-4.3,31.1-9.5c4.4-2.1,9.4-4.6,13.8-7.8
			c-5.9-5.9-8.6-13.5-7.6-22.1c-0.1-0.2-0.3-0.5-0.5-0.8c-1.3-2-3.7-5.7-2.8-10.7c-0.7-7.7,4.8-9.9,6.5-10.5
			c0.3-0.1,0.6-0.2,0.8-0.2c-0.6-1.9-0.7-3.6-0.7-4.7c0.1-2.2,1.2-4.3,2.9-5.6c-0.4-1-0.8-2-1-3c-0.7-3.9,0.4-7.9,3-11.4
			c3-3.9,6.4-4.7,8.7-4.7c0.1,0,0.2,0,0.2,0c0.4-1.1,1.2-2.1,2.1-2.9c0.3-0.2,0.6-0.5,0.9-0.6c-5.8-2-10.9-5.6-15.5-9
			c-0.8-0.6-1.6-1.1-2.3-1.7c-4.8-3.4-7.5-8.5-8.2-15.7c-1.6-16.4,4.2-30.2,9.9-43.5c0.6-1.5,1.3-3,1.9-4.5
			c5.1-12.2,15.7-17,24.2-20.8c2-0.9,4-1,5.3-1c0.5,0,1.1,0,1.6,0c0.3,0,0.6,0,0.9,0c0.5,0,0.9,0,1.3,0c14.6,0,27.2,6.4,37.6,19
			c0.4,0.5,0.8,1,1.2,1.4c0.4-1.3,0.7-2.6,1.1-4c0.5-2,1.1-4.2,1.8-6.3c4.6-14.5,10.7-29.1,24.4-38.4c8.5-5.8,17.6-8.8,26.3-8.8
			c4.9,0,9.7,0.9,14.3,2.8c18.1,7.2,30.3,16.8,30.7,40.5c0.2,13.7-6.6,25.3-20.4,34.5c-7.2,4.9-14,7.2-20.6,7.2
			c-3.6,0-7.1-0.7-10.4-2.1c-4.7-1.9-7.9-4.3-10.2-6.9c-0.4,5.5-1.1,11.5-3.5,17.4c1.3,0.6,2.3,1.6,3.1,2.8c1.2,2,4.7,9.2-3.7,15.4
			c-0.4,0.3-0.5,0.5-0.5,0.5c0,0.1-0.1,0.6,0.2,1.6c0.7,2.3,0.9,4.5,0.9,6.6c0.6-0.1,1.2-0.2,1.9-0.2c2.6,0,5.1,1.1,7,3.1
			c0.4,0.4,0.8,0.9,1,1.3c2.2-1.2,4.6-2.1,7.3-2.7c1.2-0.3,2.5-0.4,3.7-0.4c5.1,0,9.8,2.3,12.8,6.2c2.6,3.5,3.8,7.9,3.2,12.4
			c2.7,0.5,5,1.9,6.6,3.9c1.8,2.2,2.6,5,2.3,7.9c-0.4,3.4-2.2,6.4-5,8.4c2.2,1.6,4.2,3.4,6,5l0.1,0.1c5.8,5.2,6.7,10.3,6.3,13.7
			c-0.2,1.8-0.7,3.9-2.2,6.1c1.2,2.1,1.8,4.6,1.4,7.2c-0.6,5.2-3.8,9.1-8.7,10.6c0.7,0.9,1.6,2,2.6,3.2c0.9,1.1,1.9,2.2,2.8,3.4
			c1.1,1.5,2.7,2.9,4.4,4.5c2.7,2.5,5.8,5.4,8,9.3c0.9,1.7,0.9,1.7,5.3,1.9l0.3,0c0.5,0,1.1,0,1.6,0c7.2,0,14-2.4,21.2-4.8
			c2.6-0.9,5.2-1.8,8-2.6c0.1-0.2,0.2-0.6,0.3-1.1c1.4-5.8,1.2-11.9,1.1-18.4c0-2-0.1-4.1-0.1-6.2c-2.5,4.2-6.8,7.1-11.8,7.6
			c-0.6,0.1-1.1,0.1-1.6,0.1c-4.2,0-11.5-1.7-13.8-13c-0.8-3.9-1-7.8-0.7-12l0-0.2c0.3-4.5,0.6-8.1,3.6-11c3-2.9,6.6-3,11.1-3.2
			l0.3,0c1.3-0.1,2.7-0.7,4.6-2c2.7-2,5.3-2.9,7.9-2.9c0.3,0,0.9,0,1.5,0.1c-1.6-1.9-2.7-4.7-2.7-8.9c0-10.1,9.6-21.2,19.1-22.1
			c0.4,0,0.8-0.1,1.2-0.1c4.5,0,8.6,2.3,11.2,6.4l0.6,0.8c2.4,3.7,4.7,7.3,7.4,10.3c1.6-3.5,5.1-7.3,12.4-7.6c0.4,0,0.7,0,1.1,0
			c6.6,0,11.5,3.3,13.7,9.3c0.3,0.7,0.8,1.3,1.6,1.9c4,2.8,5.2,6.2,5.5,8.5c0.3,2.4,0.1,6.1-3.1,10c-3.1,3.9-4.8,6.6-4.9,9.7
			c-0.2,5.3-3.6,9-10,10.9c-5.8,1.7-8.8,4.5-10.6,10c-2.9,8.8-6.3,17.9-12.7,25.9c1.7,12.7-9.8,18-13.7,19.8
			c-11.7,5.4-22.6,12.8-32.6,20c-5.3,3.8-11.1,4.6-15.7,5.1c-2.1,0.3-4,0.5-5.7,1c-0.9,0.3-1.9,0.4-2.9,0.4c0,0,0,0,0,0
			c-6,0-9.7-4.9-11.9-7.9c-0.3-0.4-0.6-0.9-0.9-1.2c-2.3-2.8-4.8-5.4-7.5-8.2c-4.1-4.3-8.4-8.7-12-14.1c-1.6-2.5-4.2-4.4-8-5.9
			c0,0.6,0,1.2,0,1.8c-0.4,6.4-4.2,11-10.5,13.1c-2.4,0.8-4.6,1.2-6.7,1.2c-1.7,0-3.3-0.2-4.8-0.7c-0.6,0.5-1.2,0.9-2,1.3
			c2.8,0.5,5.4,1.8,7.3,3.8c0.2,0.2,0.5,0.5,0.7,0.8c1.5-1.1,3.7-2.3,6.5-2.3c3.2,0,6.1,1.5,8.7,4.5c0.4,0.5,1.7,1.2,2.9,1.8
			c1.4,0.7,3,1.6,4.7,2.9c0,0,0.1,0,0.1,0c3.2-1.8,6.1-3.5,9.7-3.5c5.5,0,9,4.1,11.3,6.8c1.5,1.7,3.5,3.1,5.8,4.6
			c0.5,0.3,1,0.7,1.5,1c0,0,0.1,0.1,0.2,0.1c0.7,0.4,1.8,1,3,2.1c0.6,0.6,1.2,1.3,1.6,1.8c1.2-0.3,2.2-0.5,3.1-0.6
			c0.7-0.1,1.7-0.3,1.9-0.4c2.1-1.7,4.4-2.6,6.9-2.6c4.3,0,8.9,3,9.6,9.8c0,0.1,0,0.3,0.1,0.4c0.2,1.4,0.7,4-0.5,6.7
			c-1.2,2.8-0.5,4.5,4.7,9.7c0.4,0.4,0.9,0.9,1.3,1.3c7.4,7.7,11.5,17.1,12.6,28.8c0.1,1.4,0.3,2.8,0.4,4.1
			c1.1,10.7,2.1,21.7,0.6,32.9c-1.8,12.5-4.2,28-8.2,44.3c4.7-1.5,9.5-2.2,14.4-2.2c16,0,30.7,7.9,39.3,21.3
			c8.9,13.7,10.4,28.9,4.7,46.7c-1.8,5.6-4,12.6-9.4,18.3c-4,4.3-9.1,6.6-14.3,6.6c-6.7,0-12.8-3.9-16.3-10.4
			c-3.3-6.3-2.7-12.7-1.7-17.6c1-5.2,4.9-8.8,9.7-8.9c0.1,0,0.2,0,0.2,0c1,0,2.2,0.2,3.3,0.6c0.3-3.7-0.6-7.6-3.9-10.4
			c-2.9-2.5-6-3.8-8.6-3.8c-4.4,0-7.1,4.3-8.6,7.9c-0.1,0.2-0.1,0.4-0.2,0.6c-0.3,1.1-0.8,2.6-2,4.2c-9.2,12.7-6.6,25.7-1.4,44.2
			c0.1,0.2,0.1,0.5,0.2,0.7c0.6,2,1.4,4.8,0.9,8.2c-0.6,3.7-0.5,7.8,0.3,13.4c0.4,3.1,1.3,9.1-3.2,13.8c0,0.2-0.1,0.4-0.2,0.7
			c-2.6,9.2-5.7,16.5-9.6,23c-3.4,5.6-8.4,10.1-15.2,13.8C350.9,593.1,338.2,596.4,325.1,596.4z M55.9,468.4
			c-2.1,4.6-2.7,8.5-1.6,10.9c0.9,2.2,3.4,3.9,7.3,5.3c1.9,0.6,3.9,1,6,1c5.6,0,11.5-2.2,16.6-4.4c3-1.3,3.3-1.6,3.5-5.4
			c0.1-1.7,0.1-3.4,0.2-5.2c-3.4,3.3-8.4,5.6-12.9,5.6c-1.1,0-2.2-0.1-3.2-0.4c-4.5-1.2-8.2-3-11.3-5.6
			C58.9,469,57.4,468.4,55.9,468.4z M174.3,449.6c5.5,0,10.8,1,15.8,3c3.2,1.3,6.2,2.8,8.9,4.3c0.6-9.5,0.5-18.3-0.2-26.6
			c-0.5-5.5-1.7-10.9-3.6-16c0-0.1,0-0.1-0.1-0.1c0,0-0.1,0-0.1,0.1c-1.3,1-2.6,1.9-3.8,2.8c-1.4,1-2.8,2-3.9,2.9
			c-8.7,7.7-15.2,17.4-20,30.1C169.7,449.7,172,449.6,174.3,449.6z M299.5,402.1c0.7,1,1.3,2,1.9,3.1c0.4-1.4,0.8-2.8,1.1-4.2
			C301.5,401.5,300.5,401.9,299.5,402.1z M281.1,387c1.3,0.3,2.5,0.8,3.7,1.3c0,0,0,0,0-0.1c0.5-1.4,1.4-2.6,2.6-3.5
			c-0.7-0.8-1.7-1.6-2.6-1.9C283.2,384.3,282,385.7,281.1,387z M158.1,265.5c0,0.1,0,0.2,0,0.3c0.5,5.7-1.5,11-6,16.3
			c-2.3,2.8-4,6.3-4.8,10.4c-0.5,2.4-0.3,2.7,0.2,3.3c2.9,3.6,4.1,8.5,3.3,13.7c-0.1,0.4-0.1,0.7-0.2,1.1c1.3-2.3,3.3-4.4,6.3-6
			c0.6-1.3,1.3-3,2.6-4.5c0.9-1.1,3.6-4.2,7.6-4.8c-0.4-0.8-0.8-1.5-1.3-2.2c-6.8-8.6-3.9-15.8-1.6-19.2c0-0.5,0.1-1,0.1-1.6
			c0.7-5.6,3.8-9.9,8.7-12.1c2-0.9,3.7-1.3,5.4-1.3c1.4,0,3,0.3,4.4,1c0.1-0.4,0.3-0.7,0.4-1c0.5-1.3,0.9-2.4,1.1-3.3
			c-8.6,1.3-16.7,5.2-25.2,9.3l-0.5,0.2C158.3,265.3,158.1,265.4,158.1,265.5z M401.5,173.7c0.1,0.1,0.2,0.2,0.4,0.5
			c1.5,1.7,2.5,2.8,3.3,3.5c0.5-0.8,1-2,1.7-3.7c0.7-1.7,1.3-3.5,1.9-5.4c-1,0.7-2.2,1.2-3.4,1.3c-1.1,0.1-2.1,0.2-3.1,0.2
			c-0.7,0-1.8-0.1-3-0.3C400.2,170.8,400.9,172.1,401.5,173.7z M434.3,172.5c-0.1,0.3-0.2,0.6-0.3,0.9c0.1,0,0.1-0.1,0.2-0.1
			c0.1-0.1,0.3-0.3,0.5-0.5C434.6,172.7,434.5,172.6,434.3,172.5z M315.9,67.4c4.8-1.5,8.2-3.6,10.2-6.6c2.2-3.1,2.7-6.2,1.6-8.8
			c-1.2-2.7-4.2-4.5-8.2-4.9c-0.7-0.1-1.4-0.1-2-0.1c-3.7,0-6.7,1.2-9.5,3.8c-0.3,0.3-0.6,0.6-0.9,0.9c1.9-0.6,4-1,6-1
			c0.9,0,1.8,0.1,2.7,0.2c3.9,0.6,6.7,4.1,6.4,8.1c-0.3,3.8-2.4,6.6-6.3,8.3C316,67.3,316,67.4,315.9,67.4z"/>
		<path d="M312.6,18c3.8,0,7.7,0.7,11.6,2.2c16.4,6.5,25.6,13.9,25.9,33.6c0.2,12.5-7.1,21.4-17.1,28.2c-5.1,3.4-10.6,5.9-16.4,5.9
			c-2.5,0-5-0.5-7.5-1.5c-8.2-3.4-11.6-8.6-9.4-16.8c1.8-6.8,7.4-11.4,13.5-11.4c0.6,0,1.1,0,1.7,0.1c-0.2,1.9-2.1,1.9-3.1,2.8
			c-3,2.5-4.9,5.3-3.2,9.5c1.3,3.2,3.6,4.6,6.3,4.6c0.9,0,1.8-0.1,2.7-0.4c5.8-1.7,11.2-4.5,14.8-9.6c7.9-11.2,1.9-24-11.9-25.5
			c-1-0.1-1.9-0.2-2.8-0.2c-5.5,0-10.4,1.9-14.6,5.8c-9,8.3-12.1,18.9-13.6,30.7c-1,8.3-0.4,16.9-3.7,25c-2.4,5.9-6.4,9.7-11.8,12.1
			c-5,2.3-1.2,5.2-0.9,7.8c0.3,2.7,1.9,3.2,3.9,3.2c0.4,0,0.8,0,1.1,0c0.7,0,1.4-0.1,1.4-0.9c0-6.9,6-8.9,10-12.6
			c1.6,2.7-0.1,4.3-1.8,5.5c-3.6,2.7-4.1,6.3-3,10.2c1,3.6,0.8,6.9-1,10.1c-1.2,2.1-0.6,1.7,1.2,3.8c1.6,1.8,0.9,4.9,0.8,7.4
			c0,0.3-0.2,0.6-0.3,0.9c-0.5,1.3-2.5,2.1-1.4,3.9c0.3,0.4,0.6,0.5,0.9,0.5c0.4,0,0.9-0.2,1.3-0.4c1.9-0.9,3.8-2.2,3.1-4.5
			c-1-3.8,0.9-6.4,3.2-8.8c0.6-0.6,1.3-1,2-1c0.5,0,1,0.2,1.5,0.7c1.4,1.6,0.3,2.2-1.1,2.8c-1.7,0.7-2.8,2.6-2.5,4
			c1.1,4.4,0.1,8.1-2.4,11.7c-1,1.5,0.2,1.7,1.3,1.7c0.2,0,0.4,0,0.5,0c4-0.2,5.7-2.9,6.6-6.4c1.8-6.9,6-11.4,13-12.9
			c0.8-0.2,1.5-0.2,2.2-0.2c6,0,10,5.3,8.3,11.7c-0.6,2.4-1.9,4.6-1.3,7.3c0.6,2.9,3,3.5,5.3,3.6c0.1,0,0.2,0,0.3,0
			c3,0,0.9-2.9,1.5-4.2c2.5,0.3,3.5,2,3.3,3.7c-0.2,2.3-2.2,3.7-4.4,4.3c-1,0.3-1.9,0.4-2.8,0.4c-5.6,0-9.6-4.8-8.6-11
			c0.4-2.2,2-4.8-1.7-5.6c-0.5-0.1-1-0.1-1.4-0.1c-2.5,0-4.5,1.5-5.3,4c-1.6,5-1.9,10.4-5.5,14.7c-1.3,1.6,0.8,2.8,1.8,3.4
			c0.3,0.2,0.6,0.3,0.8,0.3c0.9,0,0.9-1.3,1-2.1c0.3-2.3,1.3-4.1,3.5-5.1c0.7-0.3,1.4-0.5,2.1-0.5c0.9,0,1.8,0.3,2.6,1.1
			c1.3,1.2,1.3,2.6,0.4,4c-0.6,1-1.1,2.3-2.2,2.3c-0.4,0-0.9-0.2-1.5-0.6c-0.3-0.2-0.6-0.3-0.9-0.3c-0.5,0-0.9,0.4-1,1
			c-0.3,1.2-0.9,2.8,0.1,3.7c0.2,0.2,0.8,0.4,1.3,0.4c0.5,0,1.1-0.1,1.4-0.3c3-1.9,5.7-2.7,8.2-2.7c6,0,10.9,4.4,15.6,8.6
			c5.8,5.2,5,10.3-1.8,14.4c-2.6,1.6-3.7,3.1-2.2,5.9c0.5,0.9,1.2,1.3,1.9,1.3c0.6,0,1.2-0.3,1.5-0.8c0.6-1.2-1.4-1.2-2.1-1.8
			c0.5-1.5,1.3-2.6,2.7-2.6c0.4,0,0.9,0.1,1.5,0.4c1.5,0.7,2.1,2.1,1.9,3.8c-0.3,2.4-1.6,4-4,4.4c-0.3,0.1-0.7,0.1-1,0.1
			c-2,0-3.8-1.2-5.8-2c-1.9,9.2,4.6,14.3,9.1,20.1c3.5,4.6,9,7.9,11.7,12.8c3,5.4,6.2,5.5,11.7,5.7c0.7,0,1.3,0,2,0
			c11.4,0,21.2-4.8,31.7-7.9c3.1-0.9,4.4-3.1,5.2-6.5c2.1-9.1,1.1-18.2,1.2-27.3c0-7-4.4-12.5-10.8-15.3c-0.9-0.4-1.8-0.5-2.7-0.5
			c-2.4,0-5,1.2-7,2.6c-1.8,1.3-1.8,4.3-0.2,6.4c0.7,0.9,1.4,1.3,2.2,1.3c1,0,2.1-0.6,3.1-1.3c0.9-0.6,1.4-1.8,2.7-1.8
			c0.1,0,0.1,0,0.2,0c0.3,4.7-3,9.4-7.5,9.8c-0.3,0-0.6,0-0.9,0c-4.1,0-5.6-3.1-6.4-7c-0.7-3.3-0.8-6.5-0.6-9.9
			c0.6-7.3,0.5-7.2,7.9-7.5c3.2-0.1,6-1.6,8.6-3.5c1.2-0.9,2.4-1.5,3.5-1.5c1.3,0,2.4,0.8,3.1,3c0.3,0.9,1,1.7,1.6,2.5
			c3.4,4,6.6,7.1,9.6,7.1c2.8,0,5.4-2.6,8.1-9.5c1-2.6,1.8-5.3,2.7-8c0.5-1.4,0.9-3.1-0.5-4.2c-2.4-1.9-3.2-4.5-4-7.3
			c-0.6-2.1-1.8-3.5-3.4-3.5c-0.6,0-1.3,0.2-2.1,0.7c-2.3,1.4-4.8,3.3-2.6,6.7c0.2,0.4,0.3,0.9,0.4,1.3c-0.8,0.1-1.5,0.2-2.1,0.2
			c-3.4,0-4.6-1.5-4.6-5.3c0-6.2,6.6-14.1,12.3-14.6c0.2,0,0.3,0,0.5,0c2.1,0,3.8,1.2,5,3c3.7,5.7,7.3,11.4,12.6,15.9
			c1.8,1.5,1.2,3.1,0.5,4.9c-1.8,4.8-3.3,9.7-3.2,15c0,2.4,1,3.7,2.5,3.7c0.8,0,1.6-0.3,2.6-1.1c2.3-1.7,4.9-2.8,7.3-4.2
			c4.6-2.5,8.2-12.1,6.2-16.5c-0.4-0.8-0.3-2.2-1.3-2.2c-0.2,0-0.4,0-0.7,0.1c-1.3,0.5-1.2,1.8-0.7,3c0.4,1.1,2.3,2.3,0.2,3.2
			c-0.2,0.1-0.4,0.1-0.6,0.1c-1,0-1.9-1.1-2.6-2c-2.4-2.7-3.2-5.7-2-9.2c1-3,3.3-3.8,6.2-3.9c0.2,0,0.5,0,0.7,0
			c3.2,0,5.4,1.1,6.7,4.5c0.8,2.2,2.3,4,4.3,5.4c3.1,2.2,3.1,5,0.9,7.7c-3.4,4.2-6.3,8.4-6.6,14.2c-0.1,2.6-2.6,3.4-4.6,4
			c-7.8,2.3-12.9,6.6-15.6,14.8c-3,8.9-6.3,17.9-12.8,25.2c-0.5,0.5-0.8,1.6-0.6,2.3c2.1,8-3.9,11.3-9.1,13.7
			c-12.1,5.6-23.1,13-33.8,20.8c-5.8,4.2-12.7,3.2-19,5c-0.3,0.1-0.6,0.1-0.8,0.1c-2.8,0-5.1-4-7-6.3c-6.1-7.5-13.6-13.5-19-21.7
			c-4.2-6.3-11.2-9.2-18.5-10.9c-0.5-0.1-1.2-0.4-1.7-0.4c-0.5,0-1,0.2-1.4,0.9c-0.8,1.4-1.5,2.4-2.1,2.4c-0.6,0-1-0.8-1.3-2.8
			c-0.1-0.3-0.7-0.7-1.1-0.8c-0.1,0-0.3,0-0.4,0c-1.8,0-3.3,1-4.3,2.4c-1.8,2.5-3.1,5.2-1.8,8.4c0.5,1.2,1.4,1.8,2.5,1.8
			c0.6,0,1.2-0.2,1.9-0.4c-0.2-1.5-3.2-2.3-1.3-4.4c1-1,2.1-1.5,3.2-1.5c0.6,0,1.1,0.1,1.7,0.3c2.1,0.8,3.1,2.4,2.9,4.7
			c-0.2,3.4-2.1,5.4-5.3,6.4c-1.5,0.5-3,0.8-4.4,0.8c-2.4,0-4.6-0.9-6.5-3.1c-0.6-0.7-0.9-1.8-1.6-2.5c-1-1.2-0.6-4.2-1.7-4.2
			c-0.1,0-0.3,0-0.5,0.1c-2.2,1.1-1.8,4.8-2.6,7.4c-0.1,0.2,0.2,0.7,0.4,0.8c0.2,0,0.3,0,0.5,0c0.4,0,0.8-0.1,1.2-0.1
			c0.8,0,1.5,0.2,1.4,1.8c-0.1,1.3-1.5,1.5-2.7,1.5c0,0-0.1,0-0.1,0c-2.1,0-3.5-1.1-4-3.1c-0.2-0.9-0.4-1.9-0.6-2.8
			c-4.6,3.3-4.6,4.8-0.1,7.2c1.4,0.8,3.2,2.3,2.4,3.8c-0.3,0.5-0.6,0.8-0.9,0.8c-0.7,0-1.4-1.4-2.2-1.6c-0.2-0.1-0.6-0.2-0.8-0.2
			c-0.1,0-0.1,0-0.1,0c-1.1,1.7-0.3,4.4-3.1,5.4c-2.3,0.8-3.7,2.3-1.2,4.7c1.3,1.2,0.3,2.8-0.1,4.2c-0.3,1.1-0.7,2.4,0.8,3
			c0.2,0.1,0.4,0.1,0.5,0.1c0.8,0,1.3-0.8,1.8-1.5c2.3-2.6,4-5.6,8-6.3c0.7-0.1,1.3-0.2,2-0.2c4.2,0,6.9,2.7,6.8,7.5
			c0,0.6,0.2,1.3,0.3,2.3c3-1.5,5.1-3.4,7.2-5.4c1.1-1.1,2.1-1.8,3.2-1.8c0.9,0,1.8,0.5,3,1.8c2.9,3.5,8.1,4,11,8.1
			c0.2,0.3,0.5,0.4,0.9,0.4c1.4,0,3.8-1.4,5.3-2.2c2.7-1.6,4.4-2.5,5.9-2.5c1.7,0,3.1,1.2,5.6,4.2c2.6,3,5.7,4.9,8.8,7
			c0.7,0.5,1.5,0.8,2.1,1.4c1.8,1.8,2.8,4.6,5.6,4.6c0.6,0,1.4-0.1,2.2-0.5c2.8-1.1,6.1-0.5,8.8-2.7c0.8-0.7,1.6-1,2.2-1
			c1.1,0,1.9,1.1,2.1,3c0.1,1.1,0.6,2.5,0.2,3.4c-3.8,8.8,2.9,14.5,7.4,19.2c6.8,7.1,9.7,15.4,10.5,24.3c1.1,11.7,2.7,23.6,1,35.3
			c-2.8,19.8-6.3,39.5-12.2,58.7c0.3,0.3,0.6,0.4,0.9,0.4c0.8,0,1.3-0.9,1.9-1.3c7.1-4.8,15.2-7.1,23-7.1c13,0,25.5,6.3,33.1,17.9
			c8.3,12.8,8.4,26.4,3.9,40.3c-1.8,5.5-3.6,11.1-7.7,15.5c-2.6,2.9-5.8,4.2-8.8,4.2c-3.8,0-7.4-2.2-9.7-6.5c-2.1-4-1.8-8.4-1-12.7
			c0.3-1.3,1-2.8,2.5-2.8c0,0,0,0,0.1,0c1.7,0,2.3,1.5,2.5,3.1c0.1,0.7,0.2,1.3,0.4,2c0.3,1.1,0.4,2.4,1.9,2.6c0.1,0,0.1,0,0.2,0
			c1.1,0,1.6-0.9,2-1.7c4.5-8,6.5-21-2.8-28.9c-4.3-3.6-9-5.6-13.4-5.6c-6.2,0-12,3.9-15.5,12.6c-0.4,1.1-0.6,2.3-1.3,3.2
			c-11.9,16.3-7.4,33.5-2.6,50.6c0.5,1.9,1.2,3.7,0.9,5.8c-0.8,5.2-0.4,10.4,0.3,15.5c0.4,2.9,0.9,6.1-2,8.3c-1,0.8-0.9,2-1.2,3.2
			c-2.1,7.4-4.8,14.5-8.8,21.1c-3,4.9-7.3,8.4-12.4,11.2c-11.3,6.2-22.6,8.8-34,8.8c-11.5,0-23-2.7-34.6-7.1
			c-2.3-0.9-4.2-2.6-6.4-3.8c-4.4-2.4-7.9-5.9-12.2-8.3c-6.2-3.5-6.1-11-8.2-16.9c-1.8-5.1-1.3-10.7-4.3-15.7
			c-1.3-2.2-1.1-5.8,1.6-7.8c1.5-1.2,1.4-2.8,2.6-4.9c-5.1,1.5-9.8,2.1-14.5,2.1c-2,0-3.9-0.1-5.9-0.2c-0.9-0.1-1.8-0.2-2.7-0.2
			c-0.1,0-0.2,0-0.3,0c0,0-0.1,0-0.1,0c-1.4,0-3-1.3-4.2-1.3c-0.5,0-0.9,0.2-1.2,0.7c-1.5,2.5-2.7,5.8-1.7,8.9
			c0.6,1.7,1.1,3.4-0.3,4.6c-3.5,3-4.2,7.4-6,11.2c-6,12.4-17.5,18-29.1,23c-9.3,4-18.8,6-28.3,6c-8.2,0-16.5-1.5-24.7-4.6
			c-14.9-5.5-24.9-16.9-32.8-30.1c-2-3.4-4-5.4-7.1-5.4c-1,0-2.1,0.2-3.4,0.6c-1.7,0.6-3.4,0.7-5.1,0.7c-3,0-6-0.5-8.9-0.5
			c-0.1,0-0.2,0-0.3,0c-2,0-3.7,1.8-5.6,1.8c-0.3,0-0.7-0.1-1.1-0.2c-14-5-29.5-4.8-42.6-12.9c-3.6-2.2-6.5-6.1-11.4-6.1
			c-0.4,0-0.8,0-1.2,0.1c-0.1,0-0.1,0-0.2,0c-1.1,0-2.2-1.3-2.7-2.5c-5.3-11.4-6.2-23-3.1-35.4c2.1-8.4,4.8-16.1,9.8-23.1
			c5.3-7.4,12-11.4,20.9-11.4c0.5,0,1,0,1.5,0c8.3,0.4,15.9,2.9,22.8,7.5c1,0.7,2.2,1.8,3.4,1.8c0.5,0,1-0.2,1.5-0.6
			c1.6-1.5-0.2-3-0.9-4.4c-0.6-1.1-1.3-2.2-0.4-3.2c0.4-0.4,0.8-0.6,1.2-0.6c0.9,0,1.7,0.8,2.4,1.1c3.2,1.7,4.7,6.8,3.2,10.6
			c-1.3,3.2-6.1,6.2-9.7,6.2c-0.5,0-0.9-0.1-1.4-0.2c-3.1-0.8-5.9-2-8.4-4.1c-2.7-2.2-5.8-3.5-9.4-3.5c-0.1,0-0.2,0-0.3,0
			c-2.8,0.1-5,1.4-6.1,3.7c-5.8,12.1-4.2,22.4,9.8,27.1c2.8,0.9,5.6,1.3,8.4,1.3c6.6,0,13.2-2.3,19.6-5.1c5.7-2.5,7.8-5.4,8-12
			c0.6-15.8,2.4-31.7,9.3-46.4c1-2.2,1.2-4.3,0.2-6.7c-2-5.1-0.7-9.7,3.5-13.3c2.9-2.5,3.6-6.3,2.8-9.1c-1.2-3.9,0.6-6.7,1.4-9.9
			c0.3-1,1-1.6,2.2-1.8c5.2-1,10.2-7.2,9.8-12.3c-0.2-2.6,0.9-5.1-0.4-8c-0.9-2,1.7-5.5,5.4-5.7c6.3-0.5,7.7-3,5.1-8.4
			c-2.9-6.1-2.5-10.9,1-13.6c1.1-0.9,2.1-1.3,3-1.3c1.2,0,2.1,0.8,2.9,2.6c0.5,1.2,0.7,3.1,2.1,3.1c0.3,0,0.6-0.1,0.9-0.2
			c1.8-0.8,2.5-3.9,2-5c-2.4-5.2,1.5-8,4.3-10.5c2.4-2.2,3.3-4.6,4.1-7.4c1.2-4.6,1.6-9.6,7.4-11.5c1.2-0.4,1.7-3.9,3.2-5.6
			c1.2-1.4,2.2-2.2,3.1-2.2c0.9,0,1.7,0.9,2.3,3c0.6,2.2,2,3.5,3.9,3.5c0.1,0,0.2,0,0.4,0c2.7-0.2,1.9-2.9,1.8-4.4
			c-0.6-5.7-1.3-11.5-5.1-16.3c-2.7-3.4-3.8-7.1-0.9-10.9c1-1.3,0.8-2.8,0.9-4.3c0.3-2.8,1.6-5,4.3-6.2c0.8-0.4,1.6-0.6,2.3-0.6
			c1.1,0,1.9,0.6,2.4,2.2c0.4,1.4,1.2,2.4,2.2,3.2c0.9,0.8,1.9,1.8,3.1,1.8c0.4,0,0.8-0.1,1.2-0.3c1.7-0.9,1.4-2.6,1.2-4
			c-0.6-5.2,3.3-9.2,3.3-14.3c0-5.8,0.1-7.4-3.2-7.4c-1.1,0-2.5,0.2-4.4,0.4c-10.4,1.3-19.6,5.9-28.9,10.4c-3.1,1.5-5,4.1-4.7,8
			c0.3,4.2-1.5,7.7-4.2,10.9c-3.4,4-5.4,8.7-6.4,13.8c-0.7,3.3-0.9,6.3,1.7,9.5c3.7,4.6,1.7,13-3.4,16.4c-0.9,0.6-1.7,0.8-2.4,0.8
			c-1.9,0-3.3-1.6-4.4-3.4c-3.4-5.7-0.7-11.6-0.7-17.4c0-1.1,0.6-2.3,0.6-3.4c-0.1-2.4,0.9-5.4-2.5-6.2c-0.5-0.1-0.9-0.2-1.3-0.2
			c-2.6,0-4.2,2.1-5.3,4.3c-1.4,2.8-2.4,5.8-3.5,8.7c-0.2,0.6-0.8,1,0.3,1.8c4,3.1,2.5,11.9-2.2,13.8c-0.7,0.3-1.5,0.5-2.3,0.5
			c-0.7,0-1.4-0.2-1.9-0.9c-2.9-4-7.1-7.5-6-13.6c-1.4,0.4-2.6,0.9-3.8,1c-0.1,0-0.1,0-0.2,0c-3.6,0-6.1-3.9-4.4-7.2
			c1.5-3,3-6,2.6-9.5c-0.5-3.8,1.4-5.7,4.8-6.3c7.9-1.3,12.7-8.1,19.8-10.9c2.3-0.9,3.4-4.5,3.7-7.3c0.8-6.5,6.7-9.6,9.4-14.8
			c0.6-1.2,2.3-1.4,3.7-1.4c0.1,0,0.3,0,0.4,0c0.4,0,0.7,0,1.1,0c12.4,0,23.5-5,34.3-10.3c5.9-2.9,11.8-5.9,17.1-10.1
			c2.8-2.2,3.5-5.7,0.8-7.9c-6-4.8-8.5-11.1-7.5-18.4c0.6-4.3-4.5-6.4-3.3-10.8c0.4-1.4-0.9-3.6,1.2-4.2c0.4-0.1,0.6-0.2,0.9-0.2
			c1.4,0,0.7,1.8,1,2.8c0.3,0.9,1.2,1.4,2,1.4c0.3,0,0.6-0.1,0.9-0.2c1.8-1.1,3.4-2.8,3-5.2c-0.2-1.3-1-2.4-0.6-3.8
			c0.2-0.2,0.5-0.3,0.7-0.3c0.9,0,1.4,1.8,2.2,1.8c0.3,0,0.5-0.2,0.9-0.7c0.8-1.3,0-2.5-1.8-2.6c-2.2-0.7-3.8-1.9-3.7-4.9
			c2.4,0.7,4.7,1.3,7,2c0.4,0.1,0.7,0.2,1,0.2c1.7,0,2.4-1.7,3.2-2.8c1.1-1.6-0.8-2.1-1.8-2.8c-1.4-0.9-2.8-1.7-4.2-2.6
			c-3.8-2.3-4.4-6.2-1.7-9.8c1-1.3,1.9-1.8,2.8-1.8c1.5,0,2.9,1.4,4.3,2.4c1.9,2.2,0.5,4.6,0.4,6.9c0.7,0.7,1.4,1,2.2,1
			c0.8,0,1.6-0.4,2.4-1c-2.1-2.2-3.1-4.8-2.7-7.9c1.9-1.5,1-3.6,0.6-6.1c3,1,4.1,2.3,3.9,4.8c-0.1,1.2-1.2,2.8,0.9,3.2
			c0.4,0.1,0.8,0.1,1.2,0.1c1.2,0,2.3-0.5,3-1.9c0.7-1.5,2-3.2,1.1-4.7c-2.2-3.8,0.1-6.9,0.4-10.1c0.3-0.2,0.6-0.2,0.8-0.2
			c1.3,0,1.6,2.1,2.3,2.1c0.2,0,0.4-0.1,0.7-0.4c2-2.3,3.9-5.1,4.3-8.3c0.1-0.6-0.4-0.8-1-0.8c-0.5,0-1.1,0.2-1.4,0.4
			c-4,2.5-7.7,3.5-11.1,3.5c-8.3,0-15.4-5.8-22.6-10.9c-3.4-2.4-4.7-6-5.1-10.3c-1.6-16.2,5.3-30,11.3-44.3
			c3.9-9.4,12.1-13.1,20.4-16.8c0.7-0.3,1.4-0.4,2.2-0.4c0.8,0,1.7,0.1,2.5,0.1c0.1,0,0.2,0,0.3,0c0.4,0,0.7,0,1.1,0
			c13.3,0,23.5,6.2,31.8,16.3c2.8,3.4,6.1,6.6,9.3,10.1c4.4-6.5,5.5-14.2,7.8-21.4c4.2-13.3,9.6-26.4,21.4-34.5
			C297.2,20.9,304.8,18,312.6,18 M325.4,200.1c0.8-4,2.2-6.9,5.8-8.4c1-0.4,1.7-1.6,1.4-2.9c-0.8-3.3-3.7-4.5-6.4-5.7
			c-1.2-0.5-2.5-1-3.7-1c-1.1,0-2.2,0.4-3.2,1.3c-1.8,1.7-2.3,3.5-0.8,5.7C320.7,192.6,322.9,196.1,325.4,200.1 M108.7,291.5
			c1.5-0.3,2-1.5,2.6-2.7c0.3-0.6,0.4-1.5,1.1-1.5c0.2,0,0.5,0.1,0.8,0.3c0.5,0.3,0.2,1.8,0.8,1.8c0.2,0,0.5-0.2,1-0.7
			c0.7-0.7,0.7-2,0.1-2.8c-0.7-0.9-1.4-1.2-2.1-1.2c-1,0-2.1,0.7-3.1,1.3c-2,1.1-2.8,2.7-2.1,4.9
			C108.1,291.2,108.5,291.4,108.7,291.5 M296.8,394.9c-1.4,0-2.8-0.6-4.2-1.9c-1.3-1.2-1.2-2.6,0.3-2.6c0.1,0,0.2,0,0.3,0
			c0.3,0,0.5,0,0.8,0c2.9,0,2-2.3,2-3.9c-0.3-5.6-6-11-11.5-11.3c-0.1,0-0.2,0-0.3,0c-1.4,0-2.6,0.5-3.7,1.5
			c-4.1,3.7-7.4,7.8-9,13.4c-0.9,3.1-0.1,3.3,2.4,3.3c6.3,0.2,11.4,2.6,15.6,7.4c4.6,5.4,7.9,11.5,10.2,18.1c0.7,2,1.3,4,3.4,6.1
			c6.2-17.6,11.1-34.9,11.5-53.1c0.1-5.8-3.2-9.3-7.8-9.3c-1.6,0-3.4,0.4-5.2,1.3c-1.5,0.7-1.4,1.5-0.5,2.6c2.5,3.3,3.6,7.2,4,11.1
			c0.5,5.2,0.8,10.7-3.4,14.9C299.9,394.1,298.4,394.9,296.8,394.9 M156.2,460.2c2.5-0.6,4.1-1,5.6-1.4c4.2-1.1,8.3-1.8,12.4-1.8
			c4.4,0,8.7,0.7,13.1,2.4c5.1,2,9.9,4.8,14.5,7.8c1.1,0.7,1.9,1.1,2.5,1.1c0.9,0,1.4-0.9,1.6-3.2c1.1-11.9,1.4-23.8,0.4-35.6
			c-0.5-6.1-1.9-12.2-4-18c-1.5-4.1-3.5-6-6-6c-1.7,0-3.7,0.9-5.9,2.7c-2.6,2.1-5.5,3.8-7.9,6C168.8,426.4,161.1,442,156.2,460.2
			 M312.6,3C312.6,3,312.6,3,312.6,3c-10.3,0-20.8,3.5-30.5,10.1c-14.8,10.1-21.7,25.2-26.6,40.2c-10.2-8.9-22-13.3-35.2-13.3
			c-0.5,0-0.9,0-1.4,0c-0.1,0-0.3,0-0.5,0c-0.5,0-1.2-0.1-2-0.1c-3.1,0-5.8,0.6-8.3,1.7c-9.2,4.1-21.8,9.8-28.1,24.7
			c-0.6,1.5-1.2,2.9-1.9,4.4c-5.8,13.5-12.3,28.8-10.5,47.1c0.9,9.4,4.8,16.5,11.4,21.1c0.8,0.5,1.5,1.1,2.3,1.6
			c1.6,1.1,3.2,2.3,4.9,3.5c-1,0.9-2,1.9-2.9,3.1c-4,5.2-5.5,11.3-4.4,17.3c0,0,0,0,0,0c-1.2,2.1-2,4.5-2.1,7c0,0.2,0,0.4,0,0.6
			c-4,2.9-7.1,7.7-6.7,14.8c-0.8,6.2,1.5,11,3.2,13.7c-0.2,6.6,1.2,12.7,4.3,18.1c-2.1,1.1-4.1,2.1-6.1,3.1
			c-10.3,5-18.8,8.8-27.8,8.8c-0.2,0-0.5,0-0.7,0c-0.2,0-0.5,0-0.8,0c-10.9,0-15.5,6.6-17,9.4c-0.2,0.4-1.2,1.5-2,2.3
			c-2.7,3.1-7.2,8-8.7,15.4c-2.4,1.4-4.4,2.9-6.2,4.2c-1.9,1.4-4.2,3.1-5.2,3.2C92,266.9,85,275.8,85.9,286.9
			c-0.3,0.6-0.7,1.5-0.9,2c-3.1,6.2-2.8,13.5,0.8,19.4c2.2,3.6,5.4,6.3,9,7.9c1.5,2.7,3.2,4.8,4.5,6.4c0.5,0.6,0.9,1.2,1.3,1.6
			c3.3,4.5,8.4,7.1,14,7.1c2.5,0,5.1-0.5,7.8-1.6c0.7-0.3,1.4-0.6,2-0.9c0.4,0.3,0.7,0.5,1.1,0.8c-5.3,4.5-9.3,12.1-7.7,21.9
			c-2.5,1.7-4.7,3.9-6.3,6.6c-2.8,4.6-3.5,9.8-2,14.6c-0.1,0.6-0.1,1.3-0.2,2.2c-5.7,1.9-10,6.4-11.5,12.3c-0.1,0.2-0.2,0.8-0.4,1.2
			c-0.9,2.6-2.4,7-1.7,12.6c-6.4,6.9-8.6,15.8-6,24.8c-1.7,3.8-3,7.6-4.2,11.4c-1.7-0.7-4-1.4-6.6-1.4c-3.4,0-6.6,1-9.3,2.9
			c-5.6-2-11.4-3.2-17.5-3.5c-0.7,0-1.5-0.1-2.2-0.1c-9.4,0-22.7,3.1-33.2,17.7C9.8,462.6,6.6,473,4.6,481c-4,16-2.7,30.8,4,45.3
			c3.1,6.8,9.2,11.1,16,11.3c0.2,0.2,0.5,0.4,0.7,0.6c1.2,0.9,2.6,2.1,4.4,3.2c10.3,6.3,21.1,8.6,30.7,10.5
			c5.3,1.1,10.3,2.1,14.7,3.7c2,0.7,4.1,1.1,6.2,1.1c3.3,0,6-0.9,7.8-1.7c0.4,0,0.9,0.1,1.3,0.1c1.7,0.1,3.6,0.3,5.8,0.3
			c1.6,0,3.1-0.1,4.6-0.3c10.6,16.9,23.3,27.8,38.6,33.5c9.8,3.7,19.9,5.5,30,5.5c11.6,0,23.1-2.4,34.3-7.3
			c10.4-4.5,27.9-12,36.7-30.2c0.8-1.7,1.4-3.3,1.9-4.6c0.3-0.7,0.6-1.7,0.9-2.2c1.5-1.4,2.7-3,3.6-4.8c0.3,0.8,0.6,2.5,0.7,3.7
			c0.4,2.5,0.9,5.7,2.1,9c0.3,0.8,0.6,2.1,0.9,3.4c1.4,5.9,3.8,15.7,14,21.5c1.3,0.7,2.7,1.8,4.3,3c2.3,1.7,4.9,3.7,8.2,5.5
			c0.2,0.1,0.8,0.5,1.3,0.8c1.7,1.1,3.9,2.7,6.9,3.8c14.2,5.4,27.3,8.1,39.9,8.1c14.4,0,28.3-3.6,41.2-10.6c8-4.4,13.9-9.8,18-16.5
			c4.2-6.8,7.4-14.5,10.2-24c5.5-7,4.3-15.4,3.9-18.4l0-0.1c-0.7-4.8-0.8-8.2-0.3-11.2c0.8-5.1-0.4-9.1-1.1-11.4
			c-0.1-0.2-0.1-0.4-0.2-0.6c-3.4-12.2-5.6-21.2-3.8-29.1c-0.5,5.2-0.2,11.6,3.2,17.9c4.8,9,13.4,14.4,22.9,14.4
			c7.3,0,14.4-3.2,19.8-9c6.5-7,9.1-15.1,11-21.1c6.4-19.7,4.5-37.6-5.6-53.1c-10-15.4-27.1-24.7-45.6-24.7c-1.5,0-3.1,0.1-4.6,0.2
			c2.6-12.4,4.4-24,5.7-33.7c1.7-12.1,0.6-23.6-0.5-34.7c-0.1-1.4-0.3-2.7-0.4-4.1c-1.3-13.4-6.1-24.3-14.6-33.2
			c-0.4-0.5-0.9-0.9-1.3-1.4c-0.8-0.8-1.9-1.9-2.6-2.8c1.4-4.3,0.8-8,0.5-9.6l0-0.1c-0.3-3.1-1.2-5.7-2.4-7.9c0.8-0.5,1.7-1,2.5-1.6
			c9.7-7,20.2-14.2,31.3-19.3c4-1.8,8.5-4.3,12.2-8.5c4-4.5,6-10,6-15.8c6-8.4,9.4-17.6,12.2-25.9c1-2.9,1.9-4.1,5.6-5.2
			c2.1-0.6,4.6-1.5,7.2-3.2c5-3.4,8-8.7,8.2-14.6c0-0.9,1-2.5,3.3-5.3c3.8-4.7,5.4-10.3,4.6-15.8c-0.7-5.2-3.6-9.8-8-13.2
			c-3.6-8.3-10.9-13-20.3-13c-0.5,0-0.9,0-1.4,0c-4.8,0.2-8.6,1.6-11.4,3.4c-0.6-0.9-1.1-1.7-1.7-2.6l-0.6-0.9
			c-4.1-6.2-10.4-9.8-17.5-9.8c-0.6,0-1.2,0-1.8,0.1c-13.4,1.2-26,15.5-26,29.5c0,1.2,0.1,2.3,0.2,3.3c-1.3,0.6-2.5,1.4-3.7,2.3
			c-0.5,0.3-0.8,0.5-1,0.6c-5.1,0.2-10.9,0.5-15.8,5.3c-5.1,4.9-5.5,10.7-5.9,15.9l0,0.2c-0.4,4.9-0.1,9.5,0.8,14
			c3.6,17.7,17.1,19,21.1,19c0.8,0,1.6,0,2.4-0.1c1.3-0.1,2.5-0.4,3.7-0.7c0,1.9-0.2,3.7-0.4,5.5c-1.4,0.5-2.7,0.9-4,1.4
			c-6.9,2.4-12.9,4.4-18.8,4.4c-0.4,0-0.8,0-1.2,0l-0.3,0c-0.1,0-0.2,0-0.3,0c-2.6-3.9-5.7-6.8-8.2-9.1c-1.4-1.3-2.8-2.6-3.5-3.5
			c-0.1-0.1-0.2-0.3-0.3-0.4c2.7-3,4.5-6.9,5-11.3c0.3-2.7,0.1-5.4-0.6-7.9c0.8-2,1.2-4,1.4-5.7c0.4-4.2-0.2-12.4-8.8-20l-0.1-0.1
			c-0.2-0.1-0.3-0.3-0.5-0.4c1-2,1.7-4.3,1.9-6.6c0.5-4.9-0.9-9.6-3.9-13.4c-1.4-1.7-3.1-3.2-5-4.3c-0.5-4.3-2.1-8.4-4.7-11.8
			c-4.4-5.8-11.3-9.1-18.8-9.1c-1.7,0-3.5,0.2-5.2,0.5c-1.4,0.3-2.8,0.7-4.1,1.1c-1.1-0.8-2.3-1.4-3.6-1.9c0.9-1.1,1.8-2.4,2.6-4
			c2.7-5.6,2.3-12-1.1-17.6c-0.2-0.4-0.5-0.8-0.8-1.2c0.2-0.7,0.4-1.3,0.5-2c0.5,0.2,1,0.5,1.6,0.7c4.3,1.8,8.7,2.7,13.3,2.7
			c8.2,0,16.3-2.8,24.8-8.5c19.9-13.4,23.9-29.6,23.7-40.9c-0.2-13-3.7-23.3-10.6-31.3c-7.1-8.2-16.5-12.7-24.8-16
			C324.2,4.1,318.5,3,312.6,3L312.6,3z M313.9,256.1c0.7-0.8,1.4-1.6,2-2.5c1.5,2,3,3.9,4.6,5.6c-0.5,0.2-1,0.4-1.5,0.7
			c-0.5-0.3-1-0.6-1.5-0.8c-0.4-0.2-0.9-0.5-1.2-0.7C315.5,257.5,314.7,256.8,313.9,256.1L313.9,256.1z M154.8,293.2
			c0.2-0.9,0.5-1.8,0.8-2.6c0.2,0.6,0.5,1.2,0.8,1.8c-0.4,0.4-0.9,0.8-1.3,1.3C155,293.5,154.9,293.3,154.8,293.2L154.8,293.2z
			 M179.1,442.3c3.3-6,7.1-11,11.7-15.3c0.2,1.3,0.4,2.6,0.5,4c0.4,4.6,0.6,9.3,0.6,14.3C187.8,443.7,183.5,442.7,179.1,442.3
			L179.1,442.3z M400.6,465.7c0.6-1.2,1.1-1.8,1.4-2.1c0.3,0.1,0.7,0.2,1.2,0.5C402.3,464.6,401.4,465.1,400.6,465.7L400.6,465.7z"
			/>
	</g>
</g>
</svg>
