<?xml version="1.0" encoding="UTF-8"?>
 "http://www.w3.org/TR/2001/REC-SVG-20010904/DTD/svg10.dtd">
<svg version="1.0" xmlns="http://www.w3.org/2000/svg"
 width="100" height="100" viewBox="0 0 100.000000 100.000000"
 preserveAspectRatio="xMidYMid meet">
<metadata>
Created by potrace 1.16, written by Peter Selinger 2001-2019
</metadata>
<g transform="translate(0.000000,100.000000) scale(0.100000,-0.100000)"
fill="#FEFEFE" stroke="#000000" stroke-width="2" stroke-linecap="round" stroke-linejoin="round">
<path d="M0 500 l0 -500 500 0 500 0 0 500 0 500 -500 0 -500 0 0 -500z m395
325 c-74 -72 -76 -76 -61 -97 15 -22 22 -69 11 -80 -3 -3 -17 -3 -30 0 -22 4
-25 10 -25 46 0 23 -7 51 -15 62 -22 29 -19 33 25 40 22 4 40 12 40 19 0 7 7
19 16 26 9 7 20 23 25 36 7 19 16 23 49 23 l41 0 -76 -75z m213 63 c19 -24 29
-83 24 -141 -5 -67 -24 -76 -43 -19 -16 49 -45 89 -71 98 -13 4 -17 9 -9 13
13 8 5 41 -10 41 -5 0 -9 5 -9 10 0 15 106 12 118 -2z m-141 -79 c-10 -14 -14
-33 -10 -50 6 -33 -17 -49 -41 -30 -12 10 -8 20 22 61 35 47 60 64 29 19z
m174 -161 c11 -11 19 -25 19 -30 0 -16 -38 -8 -44 10 -3 9 -9 23 -12 30 -9 20
17 14 37 -10z m96 -30 c-3 -7 -5 -2 -5 12 0 14 2 19 5 13 2 -7 2 -19 0 -25z
m33 1 c0 -10 -4 -19 -10 -19 -5 0 -10 12 -10 26 0 14 4 23 10 19 6 -3 10 -15
10 -26z m20 -69 l0 -80 -40 0 c-35 0 -40 3 -41 23 -1 21 -1 21 -9 -3 -7 -22
-8 -22 -9 -4 -1 26 54 82 62 62 4 -9 6 -7 6 5 1 9 6 17 11 17 6 0 10 14 10 30
0 17 2 30 5 30 3 0 5 -36 5 -80z m-433 -2 c14 -50 34 -61 53 -30 9 14 10 13 6
-8 -2 -14 -10 -51 -17 -82 l-14 -58 -58 0 -58 0 22 29 c22 30 21 49 -6 184 -3
15 2 18 27 15 28 -3 33 -8 45 -50z m318 -68 c3 -5 -1 -10 -9 -10 -9 0 -16 5
-16 10 0 6 4 10 9 10 6 0 13 -4 16 -10z m-34 -70 c-3 -25 -4 -76 -1 -115 l5
-70 60 -5 c68 -6 85 -14 85 -39 0 -13 -9 -20 -30 -23 -17 -3 -33 -1 -36 4 -3
4 -19 8 -36 8 -25 0 -29 3 -25 20 3 12 0 20 -8 20 -15 0 -68 127 -61 146 3 8
12 14 20 14 10 0 13 6 10 15 -6 13 14 80 21 73 2 -2 0 -23 -4 -48z m-261 -95
c0 -3 -11 -33 -25 -66 -13 -34 -22 -67 -19 -73 3 -6 -1 -3 -9 7 -15 18 -15 18
-20 0 -4 -16 -5 -16 -6 2 -1 11 -6 27 -12 35 -8 12 -10 8 -6 -17 2 -20 -1 -34
-9 -37 -7 -3 -14 -15 -17 -28 -2 -13 -5 23 -6 80 l-1 102 65 0 c36 0 65 -2 65
-5z m410 -185 c0 -5 -16 -10 -36 -10 -21 0 -33 4 -29 10 3 6 19 10 36 10 16 0
29 -4 29 -10z m-520 -76 c0 -8 -4 -14 -10 -14 -5 0 -10 9 -10 21 0 11 5 17 10
14 6 -3 10 -13 10 -21z m520 1 c0 -11 -11 -15 -40 -15 -29 0 -40 4 -40 15 0
11 11 15 40 15 29 0 40 -4 40 -15z m-485 -5 c3 -5 1 -10 -4 -10 -6 0 -11 5
-11 10 0 6 2 10 4 10 3 0 8 -4 11 -10z m395 0 c0 -5 -7 -10 -16 -10 -8 0 -12
5 -9 10 3 6 10 10 16 10 5 0 9 -4 9 -10z"/>
</g>
</svg>
