<?xml version="1.0" standalone="no"?>
<!DOCTYPE svg PUBLIC "-//W3C//DTD SVG 20010904//EN"
 "http://www.w3.org/TR/2001/REC-SVG-20010904/DTD/svg10.dtd">
<svg version="1.0" xmlns="http://www.w3.org/2000/svg"
 width="716.698806pt" height="897.093400pt" viewBox="0 0 716.698806 897.093400"
 preserveAspectRatio="xMidYMid meet">
<metadata>
Created by potrace 1.16, written by Peter Selinger 2001-2019
</metadata>
<g transform="translate(-42.023057,963.031455) scale(0.100000,-0.100000)"
fill="#FEFEFE" stroke="none">
<path d="M5745 9629 c-16 -4 -53 -7 -82 -8 -28 0 -55 -5 -58 -11 -3 -5 -44
-10 -90 -10 -46 0 -87 -4 -90 -10 -3 -5 -17 -10 -31 -10 -28 0 -104 -31 -104
-42 0 -5 -10 -8 -23 -8 -13 0 -34 -11 -47 -25 -13 -14 -29 -25 -35 -25 -7 0
-19 -8 -29 -19 -12 -13 -36 -20 -90 -24 -76 -5 -107 -17 -138 -52 -15 -16 -18
-34 -16 -89 2 -48 -1 -71 -10 -74 -6 -2 -12 -10 -12 -17 0 -8 -9 -19 -20 -25
-11 -6 -20 -20 -20 -32 0 -17 -3 -19 -12 -10 -8 8 -16 6 -29 -9 -19 -22 -18
-63 4 -107 8 -17 8 -28 -1 -43 -10 -15 -10 -19 1 -19 8 0 22 -9 32 -20 12 -13
31 -20 55 -20 43 0 67 -19 48 -38 -9 -9 -9 -12 1 -12 11 0 11 -3 1 -15 -11
-13 -10 -21 1 -43 8 -15 21 -32 29 -39 13 -10 11 -15 -12 -40 -27 -28 -38 -73
-19 -73 5 0 4 -11 -2 -25 -7 -14 -17 -25 -23 -25 -6 0 -21 -11 -34 -25 -13
-14 -29 -25 -36 -25 -6 0 -14 -9 -17 -20 -4 -17 -14 -20 -70 -20 -36 0 -69 5
-72 10 -4 6 -58 10 -130 10 -72 0 -126 -4 -130 -10 -3 -5 -28 -10 -55 -10 -27
0 -51 -4 -54 -9 -3 -4 -42 -12 -86 -15 -44 -4 -80 -12 -80 -17 0 -5 -11 -9
-24 -9 -14 0 -28 -4 -31 -10 -3 -5 -14 -10 -24 -10 -19 0 -147 -64 -172 -85
-8 -8 -20 -15 -26 -15 -5 0 -20 -11 -33 -25 -13 -14 -29 -25 -35 -25 -15 0
-55 -43 -55 -58 0 -7 -7 -12 -15 -12 -9 0 -20 -10 -25 -22 -6 -13 -14 -30 -19
-38 -5 -8 -16 -30 -23 -47 -7 -18 -19 -33 -25 -33 -7 0 -13 -9 -13 -20 0 -11
-4 -29 -10 -40 -5 -11 -14 -29 -20 -40 -5 -11 -10 -35 -10 -54 0 -25 5 -35 20
-39 19 -5 20 -14 20 -180 0 -107 -4 -178 -10 -182 -5 -3 -10 -16 -10 -29 0
-13 -9 -31 -20 -41 -11 -10 -20 -26 -20 -37 0 -11 -7 -18 -19 -18 -11 0 -23
-4 -26 -10 -3 -5 -22 -10 -41 -10 -19 0 -34 -4 -34 -9 0 -5 -8 -12 -17 -15
-46 -17 -153 -107 -153 -129 0 -5 -11 -23 -25 -41 -37 -46 -38 -47 -64 -96
-14 -27 -25 -70 -29 -108 -2 -34 -9 -65 -13 -68 -5 -3 -9 -16 -9 -30 0 -13 -6
-24 -13 -24 -16 0 -77 -62 -77 -78 0 -7 -6 -12 -13 -12 -14 0 -57 -41 -57 -54
0 -4 -11 -22 -25 -40 -14 -18 -25 -42 -25 -54 0 -11 -4 -24 -10 -27 -5 -3 -10
-37 -10 -75 0 -38 5 -72 10 -75 18 -11 10 -51 -15 -75 -14 -13 -25 -28 -25
-35 0 -6 -9 -17 -20 -25 -11 -8 -20 -20 -20 -27 0 -7 -7 -13 -15 -13 -8 0 -15
-6 -15 -13 0 -8 -9 -22 -19 -31 -10 -9 -22 -37 -26 -61 -3 -25 -10 -47 -16
-50 -5 -4 -9 -19 -9 -35 0 -16 -4 -32 -10 -35 -5 -3 -10 -44 -10 -90 0 -46 -4
-86 -8 -89 -5 -3 -12 -61 -16 -128 -4 -68 -11 -124 -16 -126 -6 -2 -10 -19
-10 -37 0 -19 -5 -37 -10 -40 -5 -3 -10 -21 -10 -39 0 -17 -15 -62 -34 -99
-19 -36 -37 -79 -41 -95 -3 -16 -19 -42 -35 -57 -17 -16 -30 -34 -30 -40 0
-20 -35 -45 -61 -45 -14 0 -30 -5 -36 -11 -8 -8 -17 -7 -32 2 -16 11 -23 11
-33 1 -6 -6 -27 -12 -45 -12 -18 0 -33 -4 -33 -10 0 -5 -12 -10 -28 -10 -39 0
-194 -80 -208 -108 -6 -13 -24 -36 -40 -53 -24 -25 -35 -29 -85 -29 -42 0 -58
-4 -63 -15 -3 -8 -16 -20 -28 -26 -36 -16 -66 -34 -87 -53 -10 -9 -22 -16 -27
-15 -26 6 -65 -24 -81 -61 -10 -22 -21 -40 -25 -40 -5 0 -8 -11 -8 -25 0 -25
-15 -35 -22 -13 -2 6 -31 13 -66 16 -47 3 -68 0 -88 -12 -21 -15 -28 -15 -41
-4 -26 22 -132 16 -176 -10 -21 -12 -46 -22 -56 -22 -21 0 -78 -27 -86 -41 -8
-12 -72 -12 -80 1 -3 6 -14 10 -23 10 -9 0 -28 6 -42 13 -14 7 -59 14 -100 15
-59 2 -83 -1 -113 -17 -56 -28 -66 -39 -73 -77 -3 -19 -10 -37 -15 -40 -5 -3
-9 -32 -9 -65 0 -33 -4 -59 -10 -59 -5 0 -10 -15 -10 -34 0 -19 -4 -37 -9 -40
-5 -4 -12 -25 -16 -49 -4 -23 -10 -46 -13 -52 -3 -5 -7 -25 -9 -44 -2 -20 -9
-39 -16 -43 -9 -5 -9 -12 -1 -25 11 -18 -8 -65 -42 -104 -8 -8 -14 -23 -14
-32 0 -9 -11 -36 -25 -61 -26 -47 -33 -100 -14 -111 6 -4 8 -13 5 -21 -3 -7
-1 -16 4 -19 13 -8 13 -72 0 -80 -6 -4 -8 -10 -5 -15 3 -5 1 -11 -5 -15 -13
-8 -13 -52 0 -60 5 -3 7 -11 4 -18 -2 -7 9 -26 26 -42 32 -30 38 -53 19 -72
-16 -16 16 -84 42 -90 21 -6 27 -57 9 -68 -14 -8 -13 -35 1 -35 17 0 59 -49
59 -69 0 -9 6 -29 13 -44 9 -21 19 -27 45 -27 31 0 32 -1 32 -43 0 -37 4 -46
25 -55 14 -6 25 -18 25 -26 0 -7 9 -16 20 -19 12 -3 20 -14 20 -26 0 -14 6
-21 19 -21 11 0 22 -4 25 -9 4 -5 17 -4 31 2 19 9 25 20 25 45 0 17 5 32 10
32 6 0 10 11 10 24 0 14 4 28 10 31 18 11 39 70 43 119 2 28 9 52 15 54 7 2
12 14 12 26 0 44 23 76 55 76 36 0 55 32 55 94 0 23 7 50 15 60 8 11 15 30 15
42 0 13 5 26 10 29 8 5 7 11 -1 21 -9 11 -9 18 -1 26 7 7 12 29 12 50 0 27 4
38 15 38 19 0 35 40 35 86 0 31 3 35 20 29 14 -5 20 -2 20 9 0 9 7 16 15 16
11 0 15 11 15 41 0 22 6 47 14 55 16 16 76 19 76 4 0 -18 76 -11 94 9 9 10 35
21 56 25 23 4 40 12 40 19 0 17 44 59 53 50 4 -3 15 1 24 9 10 9 29 18 42 20
28 4 53 38 34 45 -7 3 -13 19 -13 36 0 40 32 57 103 57 40 0 50 -3 54 -20 3
-11 12 -20 19 -20 8 0 14 -7 14 -15 0 -8 5 -15 10 -15 6 0 10 -7 10 -15 0 -39
152 -73 180 -40 7 8 21 15 31 15 10 0 21 5 24 10 3 6 17 10 30 10 13 0 27 5
30 10 8 13 105 13 105 1 0 -5 -6 -12 -12 -15 -7 -3 -3 -3 10 0 16 4 22 1 22
-10 0 -9 8 -16 19 -16 11 0 23 -4 26 -10 3 -5 17 -10 30 -10 13 0 27 -4 30
-10 3 -5 23 -10 44 -10 20 0 43 -6 49 -12 10 -10 17 -10 33 1 15 9 24 10 32 2
25 -25 116 -4 147 34 7 8 19 15 26 15 8 0 14 7 14 15 0 8 7 15 15 15 8 0 15 9
15 20 0 35 43 99 55 80 3 -5 1 -10 -4 -10 -6 0 -11 -4 -11 -9 0 -5 21 2 48 15
28 14 64 24 90 24 34 0 45 4 49 18 5 23 46 40 108 48 47 5 76 14 117 35 10 5
25 9 35 9 9 0 32 5 50 12 27 10 38 10 53 0 11 -7 36 -12 55 -12 19 0 35 -4 35
-10 0 -13 232 -14 246 -1 8 8 171 17 227 12 10 0 17 -9 17 -21 0 -11 4 -20 9
-20 5 0 12 -20 15 -44 4 -24 16 -52 26 -61 11 -10 20 -28 20 -41 0 -13 5 -26
10 -29 6 -3 10 -19 10 -34 0 -15 5 -32 12 -39 6 -6 13 -23 14 -38 4 -32 39
-72 68 -76 34 -5 31 -39 -9 -78 -19 -18 -35 -40 -35 -47 0 -7 -4 -13 -9 -13
-5 0 -11 -8 -15 -18 -3 -9 -14 -30 -25 -47 -12 -18 -20 -49 -20 -77 -1 -35 -5
-48 -15 -48 -21 0 -30 -20 -17 -33 6 -6 11 -23 11 -38 0 -15 5 -31 10 -34 6
-3 10 -37 10 -74 0 -42 6 -80 15 -97 10 -20 15 -59 15 -125 0 -83 3 -98 20
-114 26 -24 25 -47 -4 -74 -21 -20 -24 -30 -23 -112 0 -89 0 -89 30 -104 17
-8 37 -15 46 -15 9 0 27 -9 41 -20 22 -17 23 -22 13 -39 -8 -13 -13 -56 -13
-111 0 -68 -3 -90 -13 -90 -8 0 -24 -11 -37 -25 -13 -14 -29 -25 -35 -25 -6 0
-21 -10 -33 -23 -19 -20 -22 -35 -22 -98 0 -70 -15 -129 -32 -129 -5 0 -8 -18
-8 -40 0 -22 5 -40 10 -40 6 0 10 -19 10 -43 0 -31 5 -46 20 -57 21 -15 27
-59 11 -76 -5 -5 -11 -27 -13 -49 -2 -30 -9 -42 -25 -50 -19 -8 -23 -18 -23
-50 0 -23 -6 -53 -12 -68 l-13 -27 -265 0 c-166 0 -270 4 -276 10 -6 6 -94 13
-197 17 -103 3 -190 10 -193 15 -7 11 -164 11 -164 -1 0 -4 -28 -11 -62 -15
-34 -3 -67 -11 -72 -16 -6 -6 -34 -10 -62 -10 -29 0 -56 -4 -59 -10 -9 -15
-318 -13 -333 2 -10 10 -17 10 -33 0 -15 -10 -24 -10 -34 -2 -10 8 -15 8 -20
0 -5 -8 -11 -8 -21 1 -10 8 -18 8 -27 0 -10 -7 -17 -7 -24 0 -8 8 -13 8 -17 0
-9 -14 -86 -15 -86 -1 0 14 -43 13 -58 -2 -9 -9 -15 -9 -24 0 -7 7 -41 12 -83
12 -39 0 -76 5 -82 11 -14 14 -317 13 -321 -1 -2 -6 -10 -10 -19 -10 -22 0
-52 -41 -53 -71 0 -14 -4 -29 -9 -35 -6 -5 -11 -34 -13 -64 l-3 -55 -65 -6
c-99 -8 -131 -32 -176 -129 -8 -19 -20 -43 -25 -52 -5 -10 -9 -24 -9 -32 0 -7
-7 -27 -15 -42 -8 -16 -15 -37 -15 -46 0 -9 -5 -20 -10 -23 -6 -3 -10 -17 -10
-31 0 -13 -3 -24 -8 -24 -10 0 -42 -75 -42 -100 0 -11 -4 -20 -10 -20 -5 0
-10 -15 -10 -33 0 -21 -8 -41 -20 -52 -11 -10 -19 -23 -17 -29 2 -6 -5 -26
-15 -44 -10 -18 -18 -41 -18 -52 0 -10 -11 -40 -25 -66 -14 -26 -25 -49 -25
-50 0 -10 899 -3 905 6 11 18 43 11 60 -12 13 -19 17 -21 25 -8 7 12 12 12 35
0 22 -12 28 -12 34 -1 6 10 10 10 16 2 5 -9 10 -9 20 -1 10 8 14 7 18 -2 4
-10 8 -10 16 2 9 12 14 13 31 2 14 -8 20 -9 20 -1 0 8 4 8 14 0 10 -8 16 -9
21 -1 9 14 175 13 175 -1 0 -8 4 -8 14 0 10 8 16 9 21 2 4 -7 12 -7 25 1 15
10 25 9 46 -2 21 -11 28 -12 31 -3 4 10 9 10 25 0 16 -9 22 -9 25 1 6 15 45
16 61 0 8 -8 15 -8 26 1 9 8 16 9 21 2 4 -7 12 -7 25 1 15 9 24 9 45 -2 22
-12 28 -12 34 -1 6 10 10 10 16 2 5 -9 10 -9 20 -1 9 8 15 8 20 0 9 -14 58
-13 73 2 9 9 15 9 24 0 14 -14 64 -16 73 -2 4 6 13 5 25 -2 15 -9 24 -9 45 2
23 12 28 12 36 0 8 -12 12 -12 16 -2 6 14 53 17 53 2 0 -14 43 -13 58 2 9 9
15 9 24 0 16 -16 93 -15 118 0 16 10 24 10 40 0 15 -9 20 -9 20 0 0 9 3 9 11
1 9 -9 16 -9 31 0 15 10 20 9 28 -3 8 -12 12 -12 36 0 22 12 28 12 32 2 3 -9
7 -10 17 -2 10 8 15 8 20 0 5 -8 11 -8 21 1 10 8 14 8 14 0 0 -7 25 -11 70
-11 40 0 70 4 70 10 0 6 8 5 20 -2 17 -11 22 -10 30 2 8 12 13 13 30 3 27 -17
180 -18 180 -1 0 9 3 9 12 0 15 -15 84 -16 93 -2 5 8 11 7 21 -1 11 -9 18 -9
26 -1 8 8 16 7 29 -1 14 -8 24 -8 45 3 21 12 28 12 31 3 6 -16 144 -18 160 -2
8 8 13 8 17 0 9 -14 106 -15 106 -1 0 6 8 5 20 -2 17 -11 22 -10 30 2 9 13 11
13 19 0 8 -12 13 -12 35 0 22 11 30 11 52 0 20 -11 29 -11 44 -2 13 8 21 8 25
1 5 -7 11 -6 21 2 10 8 14 8 14 0 0 -14 286 -16 295 -1 4 6 13 5 25 -3 15 -9
24 -9 39 0 14 9 21 9 30 0 8 -8 11 -7 11 3 0 11 3 11 12 2 14 -14 64 -16 73
-2 4 6 13 5 25 -3 15 -9 25 -9 38 -1 12 8 22 8 36 0 14 -8 20 -8 23 2 4 10 8
10 19 1 12 -9 20 -9 40 2 20 10 29 11 44 1 25 -15 67 -16 76 -1 4 8 9 7 15 -2
8 -12 11 -11 19 1 8 12 13 13 30 3 25 -16 186 -18 196 -2 4 8 9 7 15 -2 7 -11
12 -12 28 -2 13 8 22 9 26 3 8 -14 108 -13 122 1 8 8 13 8 17 0 9 -15 59 -14
74 1 9 9 12 9 12 0 0 -17 231 -17 248 0 9 9 12 9 12 0 0 -16 141 -17 157 -1 8
8 13 8 17 0 9 -14 59 -14 73 0 8 8 13 8 17 0 9 -14 89 -14 103 0 8 8 13 8 17
0 10 -16 153 -14 159 2 3 9 9 9 26 0 26 -16 187 -17 197 -2 4 8 9 8 17 0 14
-14 157 -15 157 -1 0 6 53 10 138 10 93 0 142 4 150 12 9 9 17 8 37 -2 19 -10
28 -11 37 -2 9 9 7 22 -10 53 -12 22 -22 49 -22 60 0 10 -4 19 -9 19 -5 0 -12
15 -16 32 -6 32 -18 64 -36 100 -5 10 -9 26 -9 35 0 10 -7 27 -15 37 -8 11
-15 28 -15 38 0 10 -4 26 -9 36 -29 54 -61 131 -61 145 0 9 -4 19 -10 22 -5 3
-10 15 -10 25 0 11 -9 35 -20 55 -11 19 -19 39 -18 43 5 23 -45 92 -68 92 -6
0 -17 7 -24 15 -7 9 -35 15 -78 17 l-67 3 -3 55 c-2 35 -9 58 -18 63 -8 4 -14
21 -14 37 0 23 -5 30 -20 30 -22 0 -60 19 -72 35 -5 6 -11 5 -17 -4 -6 -9 -11
-10 -15 -2 -10 15 -106 14 -106 -1 0 -9 -3 -9 -12 0 -8 8 -46 12 -104 12 -55
0 -94 4 -96 10 -2 7 -136 11 -406 10 l-403 0 -45 25 c-25 14 -56 25 -69 25
-13 0 -26 4 -29 9 -3 5 -26 12 -50 15 -24 4 -52 16 -61 26 -10 11 -31 20 -47
20 -16 0 -40 7 -53 16 -17 11 -35 14 -64 9 -23 -4 -42 -2 -45 4 -11 18 -68 41
-101 41 -18 0 -38 7 -45 15 -7 8 -20 15 -29 15 -10 0 -27 10 -39 23 -12 13
-38 29 -57 37 -19 8 -35 19 -35 25 0 17 -44 55 -62 55 -9 0 -25 11 -36 24 -10
13 -32 26 -48 28 l-29 3 -7 88 c-3 48 -11 93 -16 100 -6 7 -12 30 -14 52 -2
30 -9 42 -28 52 -24 12 -54 50 -66 86 -4 11 -13 16 -24 12 -23 -7 -48 21 -32
37 7 7 12 37 12 67 0 51 3 57 27 69 15 6 44 12 64 12 21 0 51 8 68 18 l31 17
-2 105 c-3 98 -4 106 -26 115 -23 10 -29 29 -12 40 6 3 10 27 10 53 0 39 4 49
23 57 13 6 23 21 25 37 2 16 7 28 12 28 11 0 60 99 60 121 0 10 4 19 9 21 6 2
12 40 15 86 2 46 10 89 16 97 7 9 8 15 0 20 -5 3 -10 39 -10 79 0 60 -4 76
-20 91 -11 10 -34 46 -50 81 -24 48 -29 67 -21 81 6 10 18 36 28 58 9 22 27
49 40 60 17 15 23 31 23 63 0 23 5 42 10 42 13 0 13 63 0 76 -16 16 11 64 36
64 19 0 20 5 17 101 -2 94 -17 159 -35 159 -5 0 -8 15 -8 33 0 45 -15 57 -72
57 -40 0 -48 3 -48 18 0 27 23 72 38 72 6 0 12 7 12 15 0 17 45 21 55 5 7 -11
22 2 41 35 14 26 56 30 96 11 38 -20 38 -20 38 -1 0 8 7 15 15 15 11 0 15 12
15 45 0 25 5 45 10 45 27 0 4 66 -37 106 -13 12 -23 26 -23 31 0 5 -15 24 -34
42 -24 23 -35 29 -39 19 -5 -13 -8 -8 -22 37 -2 9 -12 18 -22 22 -22 8 -73 60
-73 74 0 5 -11 14 -25 19 -14 5 -25 15 -25 23 0 7 -16 28 -35 47 -19 19 -35
39 -35 45 0 13 -92 105 -105 105 -6 0 -30 20 -55 45 -25 24 -49 44 -54 45 -5
0 -19 11 -32 25 -13 14 -27 25 -31 25 -13 0 -123 114 -123 127 0 7 -3 13 -8
13 -4 0 -13 14 -20 30 -11 25 -11 35 0 60 7 16 17 30 23 30 15 0 35 50 35 86
0 18 5 36 10 39 6 3 10 17 10 31 0 19 5 24 25 24 16 0 25 6 25 15 0 8 7 15 15
15 9 0 19 10 24 22 10 26 -10 59 -48 80 -23 13 -24 14 -18 121 4 60 9 112 12
118 8 12 105 12 105 -1 0 -5 7 -10 15 -10 9 0 15 9 15 25 0 20 5 25 24 25 14
0 28 5 31 10 9 14 58 13 73 -2 9 -9 15 -9 24 0 17 17 58 15 58 -3 0 -11 12
-15 44 -15 25 0 47 4 50 9 3 4 29 4 57 0 29 -5 57 -5 63 -2 14 9 49 9 64 -1 6
-4 17 -4 23 -1 14 9 155 9 169 0 14 -9 40 13 51 43 12 32 50 26 67 -10 13 -28
54 -39 67 -18 8 13 72 13 80 1 3 -5 19 -12 35 -16 39 -9 85 -31 100 -50 9 -11
17 -12 32 -4 11 6 27 7 36 3 25 -11 36 -11 49 -2 12 9 151 9 168 -1 5 -3 24
-4 41 -2 18 1 35 -2 39 -8 3 -6 19 -11 35 -11 25 0 32 -7 54 -54 18 -39 33
-55 51 -60 14 -4 29 -14 32 -24 9 -22 34 -41 54 -42 9 0 22 -7 29 -15 27 -33
130 -8 130 31 0 11 -11 43 -25 70 -14 27 -25 54 -25 59 0 6 -9 17 -20 25 -21
15 -27 45 -10 55 25 15 -6 99 -40 108 -17 4 -20 14 -20 56 0 47 2 51 23 51 13
0 34 -11 47 -25 13 -14 31 -25 41 -25 10 0 21 -4 24 -10 9 -14 67 -12 88 4 21
16 22 65 2 92 -24 32 -19 44 18 37 17 -3 34 -10 35 -15 2 -4 14 -8 27 -8 13 0
27 -4 30 -10 3 -5 15 -10 26 -10 10 0 19 5 19 10 0 6 10 10 23 10 13 0 33 10
44 23 20 22 20 23 2 52 -10 17 -22 37 -26 45 -3 8 -15 22 -25 32 -19 16 -9 36
12 23 9 -6 44 10 68 33 11 10 11 17 0 42 -7 17 -18 30 -23 30 -6 0 -33 23 -60
50 -34 35 -57 50 -75 50 -15 0 -36 9 -48 20 -12 11 -35 20 -51 20 -16 0 -33 5
-36 10 -9 15 -68 12 -102 -5 -17 -9 -39 -28 -49 -43 -26 -40 -40 -52 -61 -52
-11 0 -24 -5 -30 -11 -5 -5 -36 -13 -67 -16 -31 -3 -59 -10 -62 -14 -3 -5 -40
-9 -84 -9 -60 0 -79 3 -84 15 -3 8 -14 15 -25 15 -11 0 -36 9 -56 20 -20 11
-53 20 -74 20 -35 0 -81 31 -81 55 0 12 -33 34 -52 35 -15 0 -18 10 -18 60 0
33 -6 70 -12 83 -18 32 -110 127 -123 127 -7 0 -22 12 -36 26 -13 14 -35 30
-48 35 l-24 10 5 135 c4 100 9 139 19 145 10 7 11 11 2 17 -7 4 -13 50 -16
115 l-6 107 64 31 c35 17 66 37 69 45 3 8 12 14 21 14 8 0 15 7 15 16 0 8 16
22 36 30 29 12 34 17 24 29 -19 23 22 19 65 -5 20 -11 53 -20 75 -20 21 0 45
-7 54 -15 8 -8 18 -15 22 -15 4 0 17 -11 30 -25 20 -22 29 -25 61 -19 21 3 42
10 47 15 6 5 19 9 29 9 21 0 56 37 57 60 0 9 6 22 12 28 10 10 10 15 -1 21
-16 10 -6 31 15 31 8 0 14 4 14 8 0 17 -26 62 -36 62 -14 0 -74 63 -74 78 0 7
-7 12 -15 12 -13 0 -15 16 -13 102 3 99 4 102 27 108 13 3 29 14 35 25 17 29
39 51 59 58 9 4 17 13 17 22 0 11 11 15 45 15 25 0 45 5 45 10 0 6 6 10 13 10
21 0 57 44 57 69 0 14 -7 25 -20 28 -11 3 -20 9 -20 13 0 4 -9 10 -20 13 -11
3 -23 13 -26 24 -3 10 -10 26 -15 35 -14 27 -11 58 6 58 19 0 19 14 -1 30 -25
22 -14 71 21 90 24 13 31 24 33 55 2 21 -1 42 -7 48 -17 17 -13 42 9 62 30 27
25 53 -14 69 -34 14 -35 17 -38 72 l-3 58 -39 11 c-22 7 -42 18 -44 26 -6 20
-54 69 -67 69 -7 0 -20 9 -31 21 -15 16 -29 20 -75 18 -47 -2 -68 3 -125 32
-52 26 -76 33 -99 28z"/>
<path d="M6235 6220 c-3 -5 -1 -10 4 -10 6 0 11 5 11 10 0 6 -2 10 -4 10 -3 0
-8 -4 -11 -10z"/>
</g>
</svg>
