<?xml version="1.0" encoding="UTF-8"?>
 "http://www.w3.org/TR/2001/REC-SVG-20010904/DTD/svg10.dtd">
<svg version="1.0" xmlns="http://www.w3.org/2000/svg"
 width="100" height="100" viewBox="0 0 82.000000 100.000000"
 preserveAspectRatio="xMidYMid meet">
<metadata>
Created by potrace 1.16, written by Peter Selinger 2001-2019
</metadata>
<g transform="translate(0.000000,100.000000) scale(0.100000,-0.100000)"
fill="#FEFEFE" stroke="#000000" stroke-width="2" stroke-linecap="round" stroke-linejoin="round">
<path d="M493 968 c-22 -10 -33 -35 -33 -75 0 -20 -5 -23 -35 -23 -45 0 -85
-37 -85 -78 0 -17 -6 -32 -14 -35 -20 -8 -64 -103 -75 -161 -5 -26 -10 -48
-12 -49 -77 -42 -102 -52 -144 -57 -46 -5 -50 -7 -59 -40 -17 -63 -13 -136 8
-159 26 -29 60 -27 74 4 7 14 12 32 12 40 0 7 13 23 29 34 23 17 38 20 74 15
33 -5 51 -2 68 10 13 9 36 16 51 16 l28 0 0 -108 0 -108 -126 2 c-141 2 -149
-2 -179 -72 -28 -67 -23 -74 48 -74 35 0 98 -3 140 -6 66 -6 77 -10 77 -25 0
-12 7 -19 20 -19 13 0 20 7 20 20 0 19 7 20 169 20 205 0 231 4 231 36 0 30
-19 74 -42 97 -11 11 -40 19 -80 23 -35 3 -82 12 -106 21 l-43 15 6 82 c4 44
11 99 16 121 14 63 11 78 -21 113 -16 18 -30 42 -30 53 0 16 7 19 53 19 31 0
61 -6 73 -15 29 -22 64 -19 64 5 0 11 6 23 14 26 21 8 31 61 15 80 -10 12 -25
15 -56 11 -36 -4 -45 -1 -58 19 -20 31 -20 32 18 36 27 3 32 7 35 33 2 17 8
35 13 41 11 13 1 93 -14 112 -12 15 -113 15 -144 0z"/>
</g>
</svg>
