<?xml version="1.0" standalone="no"?>
<!DOCTYPE svg PUBLIC "-//W3C//DTD SVG 20010904//EN"
 "http://www.w3.org/TR/2001/REC-SVG-20010904/DTD/svg10.dtd">
<svg version="1.0" xmlns="http://www.w3.org/2000/svg"
 width="925.786109pt" height="881.625920pt" viewBox="0 0 925.786109 881.625920"
 preserveAspectRatio="xMidYMid meet">
<metadata>
Created by potrace 1.16, written by Peter Selinger 2001-2019
</metadata>
<g transform="translate(-39.160210,919.964701) scale(0.100000,-0.100000)"
fill="#FEFEFE" stroke="none">
<path d="M7420 9185 c-14 -8 -32 -14 -40 -15 -8 0 -32 -9 -53 -20 -30 -16 -41
-18 -56 -8 -16 10 -46 3 -177 -40 -87 -29 -213 -73 -282 -98 -110 -40 -273
-78 -527 -123 -107 -20 -206 -54 -217 -76 -6 -11 -41 -60 -78 -110 -37 -49
-75 -105 -84 -122 -14 -28 -22 -33 -52 -33 -34 0 -71 -18 -196 -97 -20 -12
-124 -103 -229 -200 -244 -226 -274 -250 -506 -402 -485 -319 -508 -331 -622
-331 -77 0 -88 -7 -95 -62 -3 -25 -17 -48 -48 -79 -57 -57 -129 -183 -135
-235 -4 -28 2 -60 16 -98 31 -84 29 -186 -8 -317 -50 -175 -105 -315 -169
-423 -32 -54 -37 -71 -43 -151 -7 -107 -29 -156 -117 -266 -82 -102 -118 -133
-262 -231 -131 -89 -176 -115 -303 -172 -72 -32 -79 -39 -99 -82 -21 -48 -21
-75 -2 -237 7 -58 0 -68 -71 -101 -61 -28 -68 -37 -101 -149 -13 -45 -32 -88
-41 -94 -9 -7 -35 -13 -58 -13 -106 0 -245 -58 -355 -148 -186 -153 -236 -196
-248 -218 -8 -15 -56 -44 -129 -80 -93 -46 -129 -70 -183 -123 -120 -118 -149
-185 -115 -267 20 -48 8 -67 -62 -101 -32 -16 -65 -39 -75 -53 -10 -14 -44
-88 -76 -165 -92 -220 -109 -250 -166 -295 -28 -21 -82 -71 -121 -109 l-69
-71 -7 -70 c-5 -59 -12 -80 -42 -123 -19 -29 -47 -77 -60 -108 -26 -58 -48
-79 -132 -122 -27 -14 -65 -45 -84 -68 -19 -23 -73 -66 -120 -97 -47 -30 -121
-88 -165 -129 -43 -40 -98 -85 -122 -99 -57 -33 -57 -55 0 -85 54 -29 182
-176 232 -266 19 -34 52 -113 73 -176 21 -63 55 -146 76 -183 21 -38 57 -103
80 -144 22 -41 68 -111 101 -156 33 -44 70 -103 82 -131 11 -27 27 -55 34 -60
8 -7 142 -12 378 -15 l364 -3 16 28 c15 28 14 29 -16 55 -18 15 -35 42 -39 60
-4 18 -26 75 -50 125 -47 99 -91 239 -129 408 -27 119 -41 151 -85 193 -36 34
-39 65 -11 91 20 18 20 18 14 -11 -11 -59 62 -112 112 -80 20 14 77 118 113
209 6 15 14 27 18 27 11 -1 88 -160 116 -240 12 -36 43 -92 67 -125 24 -32 99
-151 167 -263 160 -266 191 -302 259 -302 17 0 48 -7 67 -15 20 -8 53 -15 73
-15 31 0 45 8 81 45 23 25 49 45 56 45 13 0 46 -76 63 -143 3 -16 12 -30 18
-33 6 -2 63 -7 126 -11 92 -7 115 -11 115 -23 0 -20 -74 -25 -140 -10 -27 7
-66 10 -85 8 -26 -2 -6 -9 83 -28 64 -13 117 -28 117 -32 0 -5 -43 -8 -95 -8
-57 0 -95 -4 -95 -10 0 -6 28 -10 63 -10 75 0 113 -17 109 -47 -2 -12 2 -24 8
-28 19 -12 10 -24 -22 -27 -28 -3 -25 -5 27 -16 33 -7 77 -17 97 -22 20 -6 54
-8 76 -4 37 6 40 4 60 -31 26 -43 28 -61 5 -73 -14 -8 -13 -11 8 -25 13 -8 46
-18 73 -22 27 -4 54 -9 60 -11 6 -2 20 2 31 10 20 15 20 15 1 29 -19 14 -19
15 11 30 33 18 53 8 53 -25 0 -15 9 -18 54 -18 87 0 117 9 114 34 -3 19 3 21
45 24 33 2 57 -2 74 -13 18 -12 28 -14 36 -6 8 8 6 11 -7 11 -10 0 -16 6 -13
13 8 22 88 8 152 -28 33 -18 78 -36 100 -40 108 -18 195 -61 329 -161 129 -98
184 -150 191 -185 8 -36 38 -46 157 -53 92 -5 98 -4 109 16 13 25 1 75 -37
152 -14 27 -22 51 -20 54 9 9 137 -10 146 -21 5 -7 21 -27 36 -44 29 -37 45
-40 93 -14 38 20 27 38 -13 20 -13 -6 -33 -9 -42 -5 -16 6 -14 10 11 26 38 25
49 25 83 0 25 -19 130 -44 175 -42 28 1 50 23 37 36 -16 16 -12 29 10 23 11
-3 86 -2 167 3 123 6 160 12 217 34 79 30 122 32 186 10 55 -19 183 -21 265
-4 121 25 603 -9 789 -56 33 -9 82 -28 110 -42 47 -25 60 -27 171 -27 153 0
167 4 199 60 38 65 55 71 114 41 27 -13 54 -32 61 -40 19 -23 65 -20 219 15
174 39 162 35 162 60 0 12 9 36 19 53 14 22 17 36 11 46 -24 38 2 80 50 80 27
0 40 15 40 47 0 8 9 26 20 40 11 14 20 36 20 48 0 27 17 35 74 35 53 0 65 -12
59 -61 -6 -42 8 -69 37 -69 34 0 139 61 175 103 56 64 152 203 175 255 48 107
53 112 84 89 11 -8 20 -30 23 -58 5 -55 -23 -104 -72 -124 -38 -17 -52 -32
-38 -46 11 -11 123 25 198 64 28 14 75 33 104 43 52 17 53 17 46 51 -8 44 7
63 50 63 32 0 61 20 48 33 -3 4 -22 7 -42 8 -53 1 -86 13 -86 29 0 21 116 24
181 5 69 -20 97 -19 125 4 28 23 19 39 -33 55 -25 9 -50 36 -108 119 -79 113
-205 234 -289 277 -66 33 -54 53 61 109 104 50 148 125 148 255 l0 71 55 0
c30 0 55 -2 55 -5 1 -3 5 -65 10 -139 5 -74 13 -138 19 -144 21 -21 31 7 31
86 1 136 25 384 39 401 8 9 28 16 46 16 32 0 32 1 38 56 4 35 17 75 37 111 17
30 36 82 42 114 6 33 21 74 34 92 58 80 77 130 82 212 3 70 1 86 -20 123 -28
53 -65 77 -102 68 -21 -5 -25 -10 -17 -24 5 -9 14 -45 21 -79 10 -48 10 -69 0
-98 -19 -59 -121 -203 -207 -293 -64 -67 -83 -82 -108 -82 -17 0 -50 -14 -74
-30 -61 -41 -91 -38 -151 15 -14 12 -32 25 -42 28 -23 8 -50 -15 -52 -44 -1
-22 -5 -24 -63 -27 -45 -2 -63 -7 -63 -17 0 -16 -56 -65 -74 -65 -8 0 -25 -9
-40 -21 -15 -11 -33 -18 -42 -15 -13 5 -13 9 2 30 15 24 15 31 -2 100 -15 66
-16 81 -4 123 14 49 18 159 10 272 l-4 63 62 57 c44 40 66 69 77 101 14 41 72
140 81 140 2 0 13 -6 24 -12 30 -19 52 0 67 58 16 62 42 84 102 84 75 0 107
27 135 113 11 34 39 9 50 -44 7 -33 34 -45 55 -24 13 12 13 20 3 48 -18 49
-16 147 3 147 23 0 35 -34 35 -97 0 -88 10 -134 28 -131 12 3 14 32 13 194 -2
204 3 234 45 252 21 10 25 8 41 -26 23 -48 61 -51 83 -7 14 28 16 67 9 185 -3
61 13 294 22 312 5 9 21 23 36 30 16 7 34 26 42 42 12 25 12 36 -2 80 -23 73
-35 160 -47 329 -6 81 -16 163 -24 181 -27 65 -158 247 -173 242 -8 -4 -17 -6
-19 -6 -10 0 -2 -33 18 -71 15 -29 22 -64 24 -108 1 -36 12 -106 24 -156 25
-101 23 -140 -12 -229 -20 -51 -29 -61 -58 -71 -53 -18 -84 -80 -85 -173 -2
-79 -18 -113 -68 -142 -23 -13 -28 -13 -45 3 -22 20 -55 22 -69 5 -6 -7 -15
-26 -20 -43 -13 -40 -34 -38 -55 5 -19 40 -17 42 -49 -77 -17 -65 -37 -107
-93 -195 -40 -62 -91 -146 -115 -185 -33 -58 -53 -80 -99 -109 -31 -20 -84
-58 -117 -84 -85 -67 -98 -72 -153 -64 -61 9 -77 17 -91 51 -7 17 -36 43 -71
65 -33 21 -63 44 -66 52 -6 17 94 196 160 286 92 124 112 237 77 435 -25 142
-45 390 -36 460 3 28 22 101 41 162 44 143 75 168 162 132 33 -13 35 -13 55
14 84 108 117 132 257 184 36 14 81 33 100 43 19 10 56 25 82 34 66 24 123 89
144 165 15 51 25 66 78 112 54 48 65 54 105 54 43 0 47 3 94 60 67 84 106 167
116 251 5 38 19 102 31 142 21 71 21 76 6 140 -15 63 -43 232 -71 422 -7 47
-24 123 -37 170 -14 47 -31 126 -37 175 -14 103 -34 150 -92 218 -49 57 -89
65 -89 18 0 -17 5 -33 10 -36 24 -15 42 -74 52 -164 13 -126 13 -130 -13 -157
-19 -21 -20 -26 -9 -53 9 -23 10 -42 1 -78 -6 -26 -15 -108 -20 -181 -9 -126
-9 -136 11 -173 18 -35 20 -50 13 -122 -9 -104 -27 -157 -61 -182 -15 -11 -66
-49 -113 -84 -69 -52 -92 -64 -119 -62 -37 2 -53 -5 -127 -61 -45 -34 -55 -46
-55 -71 0 -34 -50 -88 -111 -121 l-36 -19 -58 27 c-69 31 -100 33 -140 6 -38
-25 -69 -25 -110 0 -29 18 -85 103 -85 129 0 7 18 42 40 79 22 37 43 73 48 81
13 23 49 -3 56 -43 6 -31 21 -46 47 -46 5 0 14 12 19 26 9 24 14 26 47 21 38
-7 73 12 73 38 0 21 40 65 59 65 10 0 35 -11 55 -25 20 -14 42 -25 47 -25 6 0
31 17 55 39 34 29 55 40 91 44 56 6 89 38 98 95 3 20 11 55 17 77 33 119 27
208 -21 310 -49 105 -170 216 -215 199 -21 -8 -20 -21 4 -69 33 -67 72 -175
77 -213 6 -50 -23 -93 -81 -120 -32 -15 -48 -30 -52 -48 -9 -34 -39 -44 -139
-44 -82 0 -84 1 -105 30 -14 19 -30 30 -46 30 -13 0 -33 9 -43 19 -16 16 -18
26 -11 51 15 53 26 60 99 60 80 0 96 12 140 98 16 31 41 72 55 91 27 37 32 73
16 115 -14 37 -25 32 -44 -19 -18 -45 -75 -105 -101 -105 -8 0 -26 -11 -41
-25 -33 -31 -42 -31 -85 -2 -23 15 -35 32 -37 52 -2 16 -15 42 -28 58 -17 20
-24 41 -24 71 0 31 -6 48 -21 62 -12 10 -39 55 -60 98 -35 71 -37 82 -25 100
7 12 25 25 39 30 33 12 48 -1 84 -65 25 -48 63 -68 63 -34 0 26 42 55 81 55
32 0 44 -8 99 -67 35 -37 75 -86 90 -110 32 -50 40 -42 40 41 0 75 -23 145
-93 279 -58 109 -77 135 -77 104 0 -29 -22 -37 -58 -22 -19 8 -63 15 -97 15
-54 0 -68 4 -94 26 -30 25 -34 25 -153 22 -141 -3 -152 1 -206 82 l-30 45 31
3 c42 5 50 12 96 95 40 73 85 122 176 192 28 21 70 58 95 81 28 26 56 44 75
46 22 2 37 14 57 44 27 40 29 41 72 37 34 -4 53 0 78 15 33 20 185 72 211 72
7 0 32 -20 54 -45 l40 -45 72 0 c68 0 71 1 71 23 0 46 33 62 129 62 97 0 144
-18 205 -80 27 -27 44 -35 71 -35 43 0 101 -23 133 -53 13 -12 42 -55 64 -94
41 -75 61 -89 72 -50 12 46 5 86 -28 153 -69 137 -186 253 -316 312 -269 123
-292 129 -413 108 -43 -8 -55 -5 -120 25 -68 32 -78 34 -177 33 -121 -1 -165
-17 -182 -65 -18 -53 -48 -27 -48 43 0 55 -33 100 -104 142 -82 48 -143 135
-182 258 -10 32 -28 68 -41 80 -22 20 -28 21 -86 11 -47 -8 -68 -7 -87 2 -14
7 -59 15 -100 17 -58 4 -101 16 -192 52 -64 25 -118 46 -120 46 -1 -1 -14 -7
-28 -15z m307 -353 c45 -4 88 -13 95 -20 7 -7 21 -31 33 -54 19 -40 24 -43 87
-59 37 -9 78 -14 92 -12 20 4 32 -2 52 -26 15 -18 52 -49 83 -70 69 -48 105
-86 98 -104 -3 -8 -34 -22 -69 -31 -122 -33 -254 -79 -318 -111 -36 -18 -77
-35 -93 -39 -21 -5 -33 -19 -51 -59 -13 -28 -41 -72 -63 -97 -22 -25 -65 -81
-95 -125 -73 -107 -103 -127 -184 -121 -35 3 -80 14 -103 25 -23 12 -59 21
-84 21 -62 0 -83 21 -99 99 -12 62 -12 65 15 112 26 47 26 50 12 91 -38 110 5
207 99 221 52 8 73 30 86 91 13 62 47 137 89 194 30 41 32 42 55 27 23 -15 26
-14 72 25 41 36 52 41 78 35 17 -4 68 -10 113 -13z m-5124 -6729 c2 -5 7 -20
11 -35 5 -23 2 -27 -25 -37 -32 -11 -32 -11 -24 -63 4 -29 10 -89 14 -133 4
-56 13 -92 30 -121 19 -33 21 -45 12 -62 -17 -31 -13 -82 9 -131 11 -24 18
-47 14 -50 -9 -10 -43 42 -55 84 -6 22 -26 74 -45 115 -22 49 -34 92 -34 120
0 25 -7 76 -15 115 -22 101 -4 174 48 195 28 11 55 12 60 3z"/>
</g>
</svg>
