<?xml version="1.0" encoding="UTF-8"?>
 "http://www.w3.org/TR/2001/REC-SVG-20010904/DTD/svg10.dtd">
<svg version="1.0" xmlns="http://www.w3.org/2000/svg"
 width="50" height="50" viewBox="0 0 100.000000 96.000000"
 preserveAspectRatio="xMidYMid meet">
<metadata>
Created by potrace 1.16, written by Peter Selinger 2001-2019
</metadata>
<g transform="translate(0.000000,96.000000) scale(0.100000,-0.100000)"
fill="#FEFEFE" stroke="#000000" stroke-width="2" stroke-linecap="round" stroke-linejoin="round">
<path d="M643 921 c-28 -9 -73 -35 -100 -57 -26 -22 -68 -54 -93 -69 -57 -37
-70 -52 -70 -86 0 -44 -35 -113 -64 -129 -15 -8 -34 -29 -41 -47 -8 -18 -19
-33 -25 -33 -21 0 -92 -65 -114 -104 -11 -21 -27 -49 -34 -61 -7 -13 -28 -37
-47 -54 -19 -17 -35 -37 -35 -44 0 -8 16 -43 36 -79 l36 -65 59 -2 c36 -1 59
2 59 8 0 19 31 12 62 -14 21 -18 41 -25 72 -25 29 0 52 -7 71 -22 26 -20 31
-21 104 -9 42 6 122 10 179 9 89 -3 105 -1 116 14 7 10 19 18 27 19 8 0 32 10
54 22 38 21 40 25 42 74 1 29 9 66 18 82 20 40 19 87 -2 100 -12 7 -14 13 -7
18 29 20 23 182 -6 191 -7 3 -5 9 5 16 23 16 29 89 13 151 -10 39 -18 51 -35
53 -20 3 -23 -1 -24 -30 l-1 -33 -14 33 c-8 17 -21 32 -30 32 -8 0 -12 5 -9
10 3 6 24 10 45 10 21 0 42 -4 45 -10 3 -5 15 -10 26 -10 17 0 20 6 17 37 -3
43 -29 61 -91 65 -25 2 -40 10 -48 24 -20 37 -107 44 -196 15z m262 -408 c3
-10 1 -19 -4 -21 -6 -2 -11 -10 -11 -18 0 -8 -7 -14 -15 -14 -8 0 -15 -8 -16
-17 0 -10 -5 -3 -11 16 -8 31 -7 37 14 53 29 22 34 22 43 1z m3 -203 c-7 -11
-18 -20 -25 -20 -17 0 -16 5 3 24 22 23 37 20 22 -4z"/>
</g>
</svg>
