<?xml version="1.0" standalone="no"?>
<!DOCTYPE svg PUBLIC "-//W3C//DTD SVG 20010904//EN"
 "http://www.w3.org/TR/2001/REC-SVG-20010904/DTD/svg10.dtd">
<svg version="1.0" xmlns="http://www.w3.org/2000/svg"
 width="653.833391pt" height="927.473941pt" viewBox="0 0 653.833391 927.473941"
 preserveAspectRatio="xMidYMid meet">
<metadata>
Created by potrace 1.16, written by Peter Selinger 2001-2019
</metadata>
<g transform="translate(-52.166609,977.454724) scale(0.100000,-0.100000)"
fill="#FEFEFE" stroke="none">
<path d="M3595 9772 c-22 -2 -44 -8 -49 -13 -6 -5 -25 -9 -43 -9 -18 0 -33 -4
-33 -10 0 -5 -20 -10 -44 -10 -25 0 -48 -4 -51 -10 -3 -5 -28 -10 -54 -10 -26
0 -53 -6 -59 -12 -10 -10 -17 -10 -32 0 -23 14 -136 16 -145 3 -3 -6 -26 -13
-50 -17 -25 -3 -48 -10 -51 -15 -3 -5 -16 -9 -30 -9 -13 0 -24 -4 -24 -10 0
-5 -11 -10 -24 -10 -14 0 -28 -4 -31 -10 -3 -5 -19 -10 -35 -10 -16 0 -31 -4
-34 -9 -4 -5 -29 -12 -56 -16 -28 -4 -50 -11 -50 -16 0 -5 -9 -9 -20 -9 -11 0
-35 -9 -55 -20 -20 -11 -46 -20 -60 -20 -13 0 -26 -4 -29 -9 -3 -4 -23 -11
-44 -15 -21 -3 -47 -15 -57 -26 -12 -13 -31 -20 -56 -20 -21 0 -41 -4 -44 -10
-3 -5 -16 -10 -29 -10 -12 0 -41 -16 -63 -35 -23 -19 -46 -35 -51 -35 -5 0
-16 -7 -23 -16 -7 -9 -22 -20 -34 -25 -48 -23 -72 -41 -141 -110 -43 -43 -76
-84 -79 -101 -4 -15 -11 -30 -16 -33 -5 -4 -9 -17 -9 -31 0 -13 -4 -24 -8 -24
-5 0 -15 -16 -22 -35 -8 -20 -20 -41 -27 -47 -7 -6 -13 -19 -13 -29 0 -11 -5
-29 -12 -42 -6 -12 -15 -30 -20 -39 -4 -10 -8 -38 -8 -62 0 -25 -4 -48 -10
-51 -13 -8 -13 -152 0 -160 6 -3 10 -19 10 -36 0 -16 4 -37 9 -47 17 -32 41
-90 41 -99 0 -6 9 -18 20 -28 11 -10 20 -23 20 -30 0 -6 16 -26 35 -45 19 -19
35 -38 35 -43 0 -5 8 -17 18 -26 19 -18 38 -46 51 -76 5 -12 16 -27 25 -34 9
-7 16 -19 16 -25 0 -15 112 -126 128 -126 7 0 12 -9 12 -20 0 -13 -13 -26 -42
-39 -24 -11 -59 -36 -78 -56 -61 -64 -122 -82 -154 -46 -9 10 -35 21 -56 25
-23 4 -40 12 -40 19 0 7 -13 26 -30 42 -25 24 -41 30 -90 33 -33 2 -63 8 -66
13 -3 5 -23 9 -44 9 -21 0 -42 5 -45 10 -3 6 -19 10 -35 10 -16 0 -32 -4 -35
-10 -3 -5 -24 -10 -45 -10 -21 0 -41 -4 -44 -9 -3 -4 -23 -11 -44 -15 -21 -3
-47 -15 -57 -26 -10 -11 -23 -20 -29 -20 -7 0 -18 -9 -26 -20 -8 -11 -19 -20
-25 -20 -15 0 -125 -113 -125 -128 0 -7 -4 -12 -10 -12 -5 0 -10 -6 -10 -13 0
-8 -9 -22 -20 -32 -11 -10 -23 -36 -26 -57 -4 -21 -11 -41 -15 -44 -5 -3 -9
-18 -9 -34 0 -16 -4 -32 -10 -35 -6 -3 -10 -52 -10 -110 0 -58 -4 -107 -10
-110 -5 -3 -10 -37 -10 -75 0 -38 -5 -72 -11 -75 -6 -4 -8 -13 -5 -21 3 -7 1
-16 -4 -19 -6 -4 -10 -15 -10 -26 0 -10 -5 -28 -10 -39 -6 -11 -15 -29 -20
-40 -6 -11 -10 -28 -10 -38 0 -10 -16 -33 -35 -52 -19 -19 -35 -40 -35 -47 0
-7 -4 -13 -10 -13 -5 0 -10 -9 -10 -20 0 -11 -9 -35 -20 -55 -11 -19 -20 -38
-21 -43 0 -7 -16 -44 -49 -117 -24 -52 -31 -88 -30 -152 1 -28 -4 -54 -10 -58
-14 -8 -14 -222 1 -230 6 -4 8 -13 5 -21 -3 -7 -1 -16 4 -19 6 -4 10 -16 10
-29 0 -13 9 -31 20 -41 11 -10 20 -22 20 -26 0 -14 33 -49 46 -49 6 0 17 -7
24 -15 19 -23 110 -62 175 -76 75 -15 333 -23 348 -11 7 5 32 12 57 16 41 6
48 4 70 -21 39 -44 50 -69 38 -81 -8 -8 -12 -71 -12 -177 l-1 -166 33 -28 c23
-21 32 -37 32 -60 0 -17 -4 -31 -10 -31 -5 0 -10 -9 -10 -20 0 -11 -4 -20 -10
-20 -19 0 -11 -76 10 -95 11 -10 20 -24 20 -32 0 -7 5 -13 12 -13 15 0 98 -80
98 -95 0 -6 18 -18 40 -28 46 -19 60 -46 60 -112 0 -24 5 -47 10 -50 6 -3 10
-26 10 -51 0 -24 5 -44 10 -44 6 0 10 -15 10 -34 0 -19 5 -38 10 -41 5 -3 10
-19 10 -35 0 -16 5 -32 10 -35 6 -3 10 -16 10 -29 0 -46 118 -129 202 -143 35
-5 64 -23 39 -23 -15 0 -14 -36 1 -60 10 -16 10 -24 0 -40 -14 -24 -16 -120
-2 -120 6 0 10 -11 10 -24 0 -14 5 -28 11 -31 6 -4 8 -14 5 -22 -4 -8 10 -30
34 -53 33 -33 40 -46 40 -79 0 -22 5 -43 11 -46 6 -4 8 -13 5 -20 -2 -7 4 -22
15 -33 13 -15 19 -36 19 -72 0 -27 5 -50 10 -50 6 0 10 -20 10 -45 0 -25 5
-45 10 -45 6 0 10 -18 10 -39 0 -22 -4 -43 -10 -46 -5 -3 -10 -42 -10 -86 0
-75 -1 -79 -22 -80 -13 0 -36 -9 -53 -20 -16 -10 -37 -21 -45 -25 -48 -19 -68
-31 -97 -58 -18 -16 -33 -34 -33 -39 0 -11 -21 -32 -41 -39 -9 -4 -21 -24 -26
-45 -7 -31 -13 -39 -36 -41 -15 -2 -27 -8 -27 -13 0 -5 -8 -9 -18 -9 -22 0
-79 -27 -87 -41 -4 -5 -52 -9 -108 -9 -91 0 -104 -2 -117 -20 -8 -11 -19 -20
-25 -20 -15 0 -55 -43 -55 -58 0 -7 -9 -12 -20 -12 -13 0 -20 -7 -20 -19 0
-10 -7 -21 -15 -25 -8 -3 -15 -16 -15 -30 0 -14 -5 -28 -10 -31 -6 -3 -10 -28
-10 -55 0 -27 -5 -52 -10 -55 -14 -9 -13 -52 2 -57 16 -6 3 -37 -19 -45 -26
-9 -93 -74 -103 -99 -5 -12 -23 -29 -41 -38 -35 -18 -124 -22 -134 -6 -3 6
-24 10 -45 10 -21 0 -42 4 -45 10 -14 23 -137 8 -165 -20 -9 -9 -44 -30 -67
-40 -13 -5 -23 -16 -23 -23 0 -7 -11 -24 -25 -37 -14 -13 -25 -28 -25 -32 0
-12 -26 -38 -38 -38 -31 0 -68 -149 -42 -165 5 -3 10 -17 10 -30 0 -13 11 -32
25 -43 22 -17 25 -28 25 -81 0 -34 4 -61 10 -61 6 0 10 -13 10 -29 0 -16 7
-42 15 -57 21 -41 19 -67 -10 -94 -14 -13 -25 -29 -25 -37 0 -7 -4 -13 -10
-13 -5 0 -10 -24 -10 -54 0 -30 -4 -58 -10 -61 -13 -8 -13 -92 0 -100 6 -3 10
-17 10 -31 0 -13 5 -24 10 -24 6 0 10 -9 10 -20 0 -11 3 -20 8 -20 4 0 15 -19
25 -42 10 -24 24 -55 30 -71 7 -15 15 -27 19 -27 5 0 8 -9 8 -20 0 -11 4 -20
9 -20 5 0 12 -8 15 -17 8 -22 29 -58 47 -80 21 -26 39 -61 39 -75 0 -6 16 -45
37 -86 20 -40 32 -77 27 -80 -20 -15 -34 -54 -34 -97 l0 -45 -167 -2 -168 -3
-3 -109 c-1 -60 1 -113 6 -118 7 -7 612 -8 4735 -8 l1797 0 0 120 0 120 -310
0 c-300 0 -310 1 -310 19 0 11 -4 23 -10 26 -5 3 -10 26 -10 51 0 24 -4 44
-10 44 -17 0 -13 171 5 190 20 22 75 130 75 147 0 7 9 29 20 48 11 20 18 40
15 45 -3 5 -1 11 5 15 5 3 10 14 10 24 0 21 22 71 33 71 4 0 7 15 7 34 0 19 4
38 10 41 5 3 10 17 10 30 0 13 5 27 10 30 6 4 10 21 10 38 0 50 11 121 21 131
5 6 9 45 9 88 0 45 4 78 10 78 6 0 10 86 10 239 0 149 -4 242 -10 246 -5 3
-10 33 -10 65 0 32 -4 62 -10 65 -5 3 -10 24 -10 45 0 21 -4 41 -9 44 -5 3 -7
14 -4 24 2 10 -5 35 -16 56 -12 20 -21 43 -21 51 0 9 -4 24 -10 35 -5 11 -14
29 -20 40 -5 11 -10 28 -10 38 0 10 -11 29 -25 42 -21 19 -25 33 -25 77 0 47
-6 68 -32 107 -22 34 -93 106 -109 111 -10 4 -19 12 -19 20 0 7 -17 27 -37 44
-67 56 -95 71 -132 71 -17 0 -33 4 -36 10 -3 5 -21 10 -40 10 -19 0 -37 -5
-40 -10 -3 -6 -28 -10 -55 -10 -27 0 -51 -4 -54 -9 -3 -5 -20 -11 -38 -14 -28
-4 -39 1 -70 31 -21 20 -38 40 -38 45 0 5 -20 29 -45 54 -25 24 -45 48 -45 53
0 4 -25 32 -55 61 -30 30 -55 59 -55 65 0 6 -9 19 -20 29 -21 19 -26 50 -10
60 6 3 10 17 10 31 0 13 5 24 10 24 6 0 10 6 10 13 0 8 11 24 25 37 14 13 25
31 25 41 0 19 41 102 53 107 4 2 7 19 7 37 0 19 4 36 9 39 4 3 11 28 13 55 7
75 19 84 98 76 36 -4 69 -11 74 -16 6 -5 31 -9 57 -9 26 0 51 -4 54 -10 3 -5
19 -10 35 -10 16 0 32 -4 35 -10 4 -6 67 -10 155 -10 82 0 151 -4 154 -9 3 -4
24 -11 46 -15 22 -3 40 -10 40 -14 0 -10 50 -32 71 -32 10 0 21 -5 24 -10 3
-6 34 -10 69 -10 78 0 106 23 106 88 0 23 -4 42 -10 42 -17 0 -11 26 10 45 11
10 20 24 20 32 0 7 4 13 9 13 5 0 12 13 16 30 4 16 11 32 16 35 13 9 11 77 -3
108 -9 17 -21 27 -35 27 -13 0 -23 6 -23 14 0 7 -7 19 -15 26 -8 7 -15 18 -14
24 0 7 2 6 6 -1 2 -7 15 -13 28 -13 13 0 27 -4 30 -10 3 -5 19 -10 35 -10 33
0 78 47 87 92 3 15 10 31 14 34 5 3 9 16 9 30 0 15 6 24 16 24 9 0 18 8 21 18
2 10 19 24 36 31 48 21 67 41 67 72 0 21 -7 31 -27 41 -15 7 -33 23 -39 36
-15 31 -55 72 -69 72 -16 0 -69 59 -84 95 -7 17 -17 38 -22 47 -5 10 -9 28 -9
40 0 47 -43 107 -158 218 -129 125 -146 140 -160 140 -5 0 -15 7 -22 15 -17
20 -93 55 -119 55 -12 0 -21 5 -21 10 0 6 -25 10 -55 10 -30 0 -55 5 -55 10 0
6 -8 10 -18 10 -10 0 -41 11 -68 25 -27 14 -57 25 -66 25 -9 0 -20 5 -23 10
-3 6 -22 10 -41 10 -19 0 -34 5 -34 10 0 6 -9 10 -20 10 -11 0 -20 -4 -20 -10
0 -5 -8 -10 -18 -10 -21 0 -139 -56 -147 -70 -3 -5 -22 -17 -41 -26 -34 -16
-37 -16 -82 7 -26 13 -48 27 -50 32 -8 17 -92 -6 -92 -25 0 -5 -6 -8 -14 -8
-7 0 -20 -7 -27 -16 -11 -13 -26 -15 -85 -9 -60 5 -79 3 -116 -14 -25 -11 -51
-27 -58 -36 -7 -8 -17 -15 -22 -15 -20 0 -58 58 -58 89 0 11 -4 22 -10 26 -5
3 -7 12 -4 19 3 8 1 17 -5 21 -6 3 -11 19 -11 34 0 15 -7 41 -15 57 -14 30
-68 87 -79 85 -3 -1 -7 2 -7 7 -1 4 16 16 37 27 22 11 48 28 59 38 11 10 32
26 48 35 15 9 27 20 27 24 0 4 22 8 48 8 36 0 54 -5 67 -20 16 -17 31 -20 116
-20 54 0 101 4 104 10 9 15 79 12 111 -5 39 -20 169 -20 208 0 15 8 54 15 86
15 39 0 62 5 70 15 19 22 77 48 95 42 8 -4 17 -2 20 3 4 6 21 10 40 10 19 0
37 5 40 10 3 6 17 10 31 10 13 0 24 5 24 10 0 6 11 10 23 10 13 0 32 9 42 20
10 11 23 20 29 20 7 0 32 20 56 45 24 24 56 47 72 50 15 4 28 11 28 16 0 5 6
9 13 9 8 0 22 9 32 20 10 11 23 20 30 20 18 0 78 67 71 79 -4 6 7 24 24 41 24
23 30 38 30 70 0 22 -4 40 -10 40 -5 0 -10 6 -10 14 0 14 -83 102 -116 123
-10 7 -61 33 -111 58 -51 25 -104 57 -117 70 -14 14 -29 25 -34 25 -5 0 -17 9
-27 20 -25 28 -179 100 -213 100 -12 0 -24 5 -27 10 -3 6 -33 10 -66 10 -33 0
-59 4 -59 10 0 6 -20 10 -44 10 -25 0 -48 5 -51 10 -3 6 -19 10 -35 10 -16 0
-31 4 -34 8 -3 5 -43 12 -88 15 -67 5 -95 12 -142 36 -32 17 -66 31 -76 31
-10 0 -20 4 -22 9 -1 5 -52 13 -113 18 l-110 8 -3 30 c-2 17 -8 34 -13 39 -5
6 -9 23 -9 39 0 19 -9 38 -26 54 -25 23 -25 25 -9 43 14 15 15 23 6 33 -6 8
-8 17 -4 21 4 3 -6 20 -22 36 -27 29 -33 30 -112 30 -49 0 -83 -4 -83 -10 0
-5 -15 -10 -34 -10 -19 0 -38 -4 -41 -10 -3 -5 -24 -10 -45 -10 -21 0 -42 -4
-45 -10 -3 -5 -21 -10 -40 -10 -19 0 -37 5 -40 10 -3 6 -17 10 -29 10 -13 0
-30 7 -37 16 -7 9 -24 20 -36 25 -13 5 -26 17 -30 26 -3 10 -47 60 -97 111
l-91 92 -65 0 c-39 0 -71 -5 -78 -12 -9 -9 -46 -12 -124 -11 -122 3 -170 -11
-218 -62 -14 -14 -41 -33 -60 -41 -19 -9 -43 -20 -52 -25 -10 -5 -20 -9 -22
-9 -6 0 -17 61 -16 90 1 33 -17 67 -54 108 -27 29 -31 41 -34 105 -3 62 -15
110 -32 127 -11 11 -30 51 -30 63 0 26 -29 72 -69 111 -32 31 -42 49 -46 85
-8 58 -22 89 -58 123 -26 25 -27 29 -12 35 10 3 26 1 36 -5 10 -7 48 -12 84
-12 37 0 65 -4 65 -10 0 -5 15 -10 33 -10 21 0 41 -8 51 -19 13 -14 38 -21 97
-26 43 -4 82 -11 85 -16 3 -5 16 -9 29 -9 13 0 27 -4 30 -10 3 -5 16 -10 29
-10 12 0 43 -10 67 -22 25 -13 62 -29 82 -37 20 -8 37 -18 37 -23 0 -4 6 -8
13 -8 8 0 22 -9 32 -20 10 -11 22 -20 28 -20 17 0 82 -34 98 -52 13 -14 32
-18 93 -18 44 0 76 4 76 10 0 6 7 10 16 10 27 0 43 32 44 87 0 28 5 55 10 58
6 3 19 25 30 49 10 23 26 49 35 56 10 8 15 30 15 64 0 64 -27 96 -81 96 -26 0
-43 8 -62 28 -27 28 -36 62 -17 62 6 0 10 6 10 13 0 8 9 22 20 32 11 10 20 24
20 32 0 19 126 18 163 -2 23 -11 32 -12 48 -2 10 6 19 17 19 24 0 7 5 13 10
13 6 0 10 9 10 20 0 11 6 29 12 40 10 16 10 24 0 40 -16 26 -15 30 3 30 9 0
26 11 39 25 13 14 28 25 33 25 17 0 73 66 73 86 0 12 -36 55 -90 108 -49 48
-90 94 -90 101 0 7 -7 15 -15 19 -8 3 -15 16 -15 30 0 14 -4 28 -10 31 -5 3
-10 17 -10 31 0 13 -4 24 -10 24 -5 0 -10 9 -10 20 0 11 -3 20 -8 20 -4 0 -13
15 -21 33 -14 34 -278 307 -296 307 -6 0 -26 16 -45 35 -19 19 -38 35 -43 35
-5 0 -21 13 -36 29 -16 17 -40 33 -55 37 -14 3 -29 10 -32 15 -3 5 -20 9 -39
9 -18 0 -35 3 -37 8 -1 4 -23 18 -48 31 -41 22 -57 24 -185 25 -77 1 -158 0
-180 -2z m1914 -6586 c60 -60 74 -93 45 -103 -14 -5 -104 85 -104 103 0 8 -4
14 -10 14 -5 0 -10 11 -10 25 0 14 4 25 8 25 4 0 36 -29 71 -64z m-3099 -468
c0 -7 -14 -27 -32 -45 -32 -33 -61 -42 -73 -23 -3 6 -17 10 -31 10 -32 0 -33
35 -1 45 76 27 137 32 137 13z m3563 -106 c15 -15 27 -33 27 -38 0 -6 9 -19
20 -29 11 -10 20 -22 20 -27 0 -5 16 -26 35 -46 19 -20 35 -41 35 -46 0 -5 8
-16 18 -25 24 -21 52 -83 52 -114 0 -14 5 -29 10 -32 6 -3 10 -21 10 -40 0
-19 5 -37 10 -40 6 -3 10 -24 10 -45 0 -21 5 -42 10 -45 6 -3 10 -28 10 -55 0
-27 5 -52 10 -55 15 -10 13 -454 -2 -488 -15 -31 -21 -33 -38 -12 -7 8 -18 15
-24 15 -7 0 -25 14 -41 30 -16 17 -33 30 -38 30 -32 0 -117 141 -117 193 0 14
-4 29 -10 32 -5 3 -10 26 -10 50 0 24 5 47 10 50 23 14 3 155 -22 155 -5 0 -8
9 -8 20 0 11 -4 20 -10 20 -5 0 -10 13 -10 28 0 36 -26 89 -51 105 -10 6 -19
18 -19 25 0 7 -15 28 -33 45 -19 18 -36 40 -40 50 -3 9 -12 17 -19 17 -7 0
-21 17 -31 38 -10 20 -26 51 -36 67 -11 17 -20 37 -20 46 -1 20 94 119 114
119 8 0 15 4 15 9 0 11 33 17 96 20 32 1 46 -5 67 -27z m-4373 -676 c0 -14 -4
-28 -10 -31 -5 -3 -10 -17 -10 -31 0 -13 -4 -24 -10 -24 -5 0 -12 -27 -16 -60
-4 -33 -11 -60 -15 -60 -5 0 -9 -25 -9 -55 0 -30 -4 -55 -9 -55 -5 0 -11 -12
-13 -27 -4 -35 -27 -40 -55 -13 -12 11 -26 20 -31 20 -5 0 -17 9 -27 20 -10
11 -22 20 -26 20 -5 0 -27 8 -49 17 -42 19 -53 46 -22 57 39 14 70 39 161 130
53 53 102 96 109 96 6 0 12 5 12 10 0 6 5 10 10 10 6 0 10 -11 10 -24z"/>
</g>
</svg>
