<?xml version="1.0" encoding="utf-8"?>
<!-- Generator: Adobe Illustrator 24.1.0, SVG Export Plug-In . SVG Version: 6.00 Build 0)  -->
<svg version="1.1" id="Livello_1" xmlns="http://www.w3.org/2000/svg" xmlns:xlink="http://www.w3.org/1999/xlink" x="0px" y="0px"
	 viewBox="0 0 460 428" style="enable-background:new 0 0 460 428;" width="50" height="50" xml:space="preserve">
<style type="text/css">
	.st0{fill:#FEFEFE;}
</style>
<g>
	<g>
		<path class="st0" d="M221.7,416.9c-5.8,0-10.6-1.5-14.7-3.8c-0.6,0.3-1.3,0.6-2,0.7c-2.6,0.6-4.9,0.9-6.9,0.9
			c-12.5,0-16-11-17.5-15.7c-1.5-4.8-3.7-9.4-6-14.3c-1.3-2.8-2.7-5.7-3.9-8.7c-1.8-4.4-1.6-8.6-1.4-12.1c0.1-1.2,0.1-2.3,0.1-3.3
			c0-0.6-0.1-2.1-0.2-2.6c-0.1-0.1-0.2-0.1-0.4-0.2c-4.2-2.1-6.9-5.7-9.2-8.6l-0.7-0.9c-0.1-0.2-0.3-0.4-0.5-0.6
			c-1.1-1.3-3-3.7-3.5-6.7c-6.3-1.4-11.9-4.1-17-6.5c-1.7-0.8-3.2-1.5-4.8-2.2c-10-4.5-16.2-12.4-20.5-19.2
			c-0.4,0.3-2.5,1.6-2.5,1.6c-1.2,0.8-2.7,1.2-4.1,1.2c-1.8,0-3.7-0.7-5.1-2l-1.2-1.1c-0.9,0.1-1.9,0.3-3.1,0.3c-0.3,0-0.6,0-0.9,0
			c-0.6,0.1-1.6,0.3-2.7,0.3c-1.3,0-2.6-0.3-3.8-0.8c-1.6,0.8-3.1,1.2-4.4,1.6c-0.3,0.1-0.6,0.2-0.8,0.2c-2.6,1.3-5.1,1.5-6.9,1.5
			c-0.4,0-0.9,0-1.4,0c-0.3,0-0.7,0-1,0c0,0-0.3,0-0.4,0c-2.1,0-4.2-0.9-5.6-2.5c-0.8-0.8-1.3-1.8-1.6-2.9c-0.2,0-0.4,0.1-0.6,0.2
			c-1.2,0.3-2.5,0.5-4,0.5c-0.7,0-1.4,0-2.2-0.1c-0.5,0-1.1-0.1-1.7-0.1c-2.8,0-5.3-1.5-6.6-4c-0.2-0.4-0.4-0.8-0.5-1.2
			c-0.2,0-0.4,0-0.6,0c-1.1,0-2.2,0.1-3.3,0.3c-0.9,0.2-1.9,0.3-3,0.3c-1.2,0-2.4-0.1-3.5-0.2c-0.6-0.1-1.2-0.1-1.9-0.2
			c-2.8-0.1-5.2-1.8-6.4-4.3c-0.4-0.9-0.7-1.9-0.7-2.9c-0.1,0-0.2,0-0.4,0s-0.4,0-0.6,0.1c-0.6,0.1-1.2,0.2-1.8,0.2
			c-3.3,0-6.5-1.7-8.6-4.7c-1.4-1.9-1.7-4.3-1.1-6.4c-0.5-0.2-1-0.4-1.6-0.6c-0.9-0.3-1.8-0.7-2.8-1c-2.4-0.9-4.2-2.9-4.8-5.4
			c-0.6-2.5,0.2-5.1,2-7c0.2-0.2,0.4-0.4,0.7-0.6c-0.1-0.1-0.1-0.2-0.2-0.4c-1.4-3.1-0.5-6.6,2-8.8c0.6-0.5,1.3-0.9,2-1.3
			c0.1-0.6,0.2-1.2,0.4-1.8c0.8-2.3,2.4-4.1,4.7-5.1c0.6-0.3,1.6-1.2,2.5-2.1c2.4-2.3,5.7-5.4,11.1-6.2c3.6-0.5,7.3-1.1,10.8-1.8
			c8.4-1.4,17-2.9,26-3.2c-1.6-1.6-2.4-3.9-2.1-6.2c0.3-2.4,1.8-4.5,3.9-5.7c3.8-2,7.7-3,11.6-3c8.2,0,15.1,4.3,19.2,11.3
			c1.2-1.1,2.4-2.1,3.5-3.3c12-11.8,26.2-17.8,42.5-17.8c1.9,0,3.9,0.1,5.9,0.3c0.1,0,0.3,0,0.4,0c0.3-1.1,0.5-2.4,0.7-3.7
			c0.8-4.8,1.7-10.8,6.3-15.8c3.4-3.7,4.7-8.7,6.3-14.5c0.6-2.4,1.3-4.8,2.2-7.3v-0.1c0.2-0.9,0.7-2.8,2.2-4.5
			c1.1-1.2,1.3-2,1.3-2.1s-0.3-0.8-1.6-1.9c-0.2-0.1-0.3-0.2-0.5-0.4c-1.3-1-4.3-3.3-4.4-7.6c-0.1-3.8,2.1-6.4,3.5-7.7
			c0-0.5,0-1.6-0.4-3.4c-2.8-13.6-10.7-22.8-24.6-29c-5.3-2.3-9.2-3.4-12.7-3.4c-2.9,0-5.4,0.7-8.1,2.2c-5.4,3.1-6.1,6.3-6.1,9.3
			c0.2,7.4-0.4,13.6-2,19.3c-1.4,5.2-4.8,7.9-7.6,9.6c-1.7,1-3.4,1.6-5.2,1.6c-1.8,0-5.2-0.6-7.8-4.2c-2.2-3.2-2-6-1.4-7.8
			c0.5-1.6,1.5-3,2.8-4c-0.2-1.4-0.8-3.4-1.7-4.4c-0.2-0.2-0.9-0.7-1.4-1.1c-0.9-0.7-2.1-1.6-3.4-2.8c-2.1,0.7-4,1.1-5.8,1.4
			c-1.2,0.2-2.2,0.4-3.1,0.7c-0.5,1.1-1.1,2-1.5,2.5l-0.1,0.1c-5.1,7.4-4.8,15.7-3.4,26.1c0.9-0.3,1.9-0.4,2.7-0.4
			c2.1,0,5.1,0.8,7.7,4.4c4.2,5.9,3.6,12.7-1.6,16.9c-2.9,2.3-6.2,3.5-9.7,3.5c-2.2,0-4.5-0.5-6.7-1.4
			c-10.2-4.3-14.4-13.1-17.8-20.1c-0.5-0.9-0.9-1.9-1.4-2.8c-10.4-20.7-10.8-42.9-1.3-66c1.9-4.6,4.5-8.6,7-12.4
			c1-1.5,1.9-3,2.8-4.4c1-1.7,3.4-4.5,8.4-4.9c9.2-0.7,16.6-4.1,22.6-10.4c2.4-2.6,5.3-4.3,7.8-5.8l1-0.6c5.6-3.5,9.3-7.2,11.5-11.7
			c3-5.9,8-9.4,14.9-10.6c6.1-1,10.4-4.1,13.5-9.9l0.2-0.3c0.8-1.5,2.3-4.4,5.6-5.7c2.3-0.9,4.6-2.3,7-3.7c5.6-3.2,12-6.9,20.3-7
			h0.3c5.4,0,8.6,2.3,10.3,4.2c2.6,2.9,3.6,7,3.1,12c-0.6,5.5-2.9,9.9-4.9,13.8c-1.4,2.8-2.7,5.3-3.2,7.7c-0.5,2.8-0.6,5.1-0.1,7.3
			c2.5,11.6,7.7,21.7,15.9,30.9c0.2,0.2,0.9,0.5,1.5,0.7c1.8,0.8,4.3,1.9,6.5,4.3c0.8,0.9,1.5,1.8,2.2,2.8c0.7-0.3,1.4-0.5,2.2-0.7
			c0.4-0.1,0.8-0.1,1.2-0.2c-0.2-8.6,1.5-17.8,7.8-26.7c1.9-2.7,1.4-8.6,1.2-11.5c-0.5-6.5,0.9-12.5,4.5-18.2c1-1.6,1.7-3.3,2-4.8
			c2.8-13.4,13.7-18.7,21-22.2c1.8-0.8,3.6-1.3,5.3-1.3c5.1,0,8.1,3.4,9.6,5.1c0.2,0.2,0.5,0.5,0.6,0.6c2.2,1.9,3.3,4.4,3.3,7.1
			c0,4.3-2.9,7.1-4.4,8.4c0.1,0.6,0.3,1.4,0.5,1.9c1.9,6.8,2.2,13.8,1,21.8c-0.6,4,0.9,8.7,2.5,13.6c0.5,1.5,0.9,3,1.4,4.4
			c2,7,4.8,16.1,8.5,24.7c0.6,1.3,3.1,3.4,5,4.9l0.7,0.5c5.2,4.2,5.9,9.8,6.3,13.4c0,0.4,0.1,0.8,0.1,1.2c0.2,1.4,0.1,2.9-0.3,4.2
			c1.4,0.5,2.7,1,3.8,1.5c0.9,0.4,1.8,0.8,2.4,1c0.9,0.3,2,0.5,3.1,0.8c5,1.1,11.9,2.7,16,9c1.5,2.3,3.8,4.4,6.2,6.6
			c4.3,3.9,9.7,8.8,11.9,16.5c0.2,0.6,0.6,1.7,0.5,3.1c-0.2,4.7,2.3,8.2,6.3,13.6c2.5,3.4,5.1,6.9,7,11.1c0.3,0.8,0.7,1.6,1,2.3
			c3.2,7.1,7.5,16.8,1.3,28c-2.6,4.7-0.9,7.1-0.3,8.1c0.6,0.9,2.2,1.3,4.6,2c13.7,3.6,21.8,12.6,28,21c1.8,2.5,3.5,5.1,5.1,7.7
			c3.6,5.7,6.9,11,11.6,13.7c9,5.1,12.4,12.6,15.5,19.2c1.3,2.9,2.8,4.3,5.4,5l0.4,0.1c3,0.9,8.9,2.6,11.7,8.7
			c1.1,0.4,2.5,1,3.8,2.1c1.9,1.5,3.5,3.2,5,4.7c2.9,3,4.5,4.6,7.3,5.1c3.1,0.5,5.5,2.9,6.1,5.9s-0.7,6.1-3.3,7.8
			c-0.1,0-0.1,0.1-0.2,0.1c0.1,0.5,0.2,1.1,0.3,1.6c0.2,3-1.3,5.9-4,7.3c-0.9,0.4-1.8,0.8-2.7,1c-0.1,0.4-0.3,0.8-0.6,1.2
			c-1.2,2-3.2,3.4-5.5,3.7c-1.5,0.2-3,0.3-4.5,0.3c-5.5,0-11-1.4-16.8-4.3c-1.7-0.8-6.8-3.4-7.5-9.3c-0.3-3-2.1-4.3-7-7.2
			c-1.6-1-3.3-2-4.9-3.2c-0.1,0.1-0.2,0.2-0.3,0.3c-0.1,0.1-0.4,0.4-0.7,0.7c1.3,3.2,1,6.9-0.7,10.4c-2.3,4.6-6.8,8-11.5,8.8
			l-1.1,0.2c-2.4,0.4-5.1,0.9-8,0.9c-1.8,0-3.5-0.2-5.1-0.5c-4-0.9-6.5-4.7-5.8-8.7c0.4-1.9,1.8-6.4,7.8-7.4c0.1,0,0.2-0.1,0.2-0.1
			c0-0.2,0-0.3,0-0.6c0.1-1.7-0.1-3.6-0.2-5.6c-0.4-4.7-0.8-10.1,1.4-15.6c0.4-1.1,0.9-2.2,1.4-3.2c0.9-2,1.6-3.7,1.9-5.3
			c0.1-0.3,0.1-0.5,0.1-0.6c-6.4-6.7-13.9-12.3-23.3-17.3c0,0.1,0,0.1,0.1,0.2c2.5,6.9,1.5,13.7-0.1,20c-0.5,2.2-1.3,4.2-2,6.1
			c-1,2.8-1.9,5.3-1.9,7.6c0.1,4.9-2.6,8.5-5,10.9c1.9,1.9,3.7,5,3.5,9.9c-0.5,8.7-7.4,10-9.5,10.2c-0.1,0-0.2,0-0.2,0
			c-0.5,0.3-1.5,2-2.1,3c-0.5,0.9-1.1,1.9-1.8,2.9c-0.7,0.9-1.4,1.7-1.9,2.3c-0.1,0.1-0.1,0.2-0.2,0.2c0.1,2-0.5,4-1.8,5.6
			c-1.6,2.1-4.2,3.2-7.1,3.2c-1.2,0-2.3-0.2-3.4-0.6c-1.2-0.4-2.3-1-3.2-1.7c-2,1.3-4.5,2.3-7.7,2.3c-0.8,0-1.6-0.1-2.4-0.2
			c-3.7-0.6-5.7-2.5-6.7-4c-1.3-2-1.8-4.4-1.4-6.9c-1.6-0.9-3-2.1-4.1-3.6c-0.3-0.4-0.6-0.8-0.9-1.3c-2.6-0.4-4.8-2.1-5.8-4.5
			c-0.9-2.2-2.3-4.3-3.8-6.6c-1-1.5-2-3-3-4.7c-1.3-2.2-1.8-4.7-1.6-7.4c-1.6-0.8-2.9-2-4-3.6c-0.4-0.6-3.1-5.4,0.3-10
			c-0.5-0.8-1-1.5-1.4-2.3c-3.9,9.6-10,18.7-18,27.3c-12.3,13-26.8,19.9-42.1,19.9c-1,0-1.9,0-2.9-0.1c2.9,5.3,8.2,8.1,12.9,9.5
			c2.5,0.8,7.2,2.2,9.9,6.9c0,0,0,0,0.1,0c0.6-0.1,1.2-0.1,1.8-0.1c5.5,0,9.2,2.8,11.8,5.3c0.7,0.7,1.4,1.3,2.1,2
			c5,4.8,8.4,7.8,13.2,8.3c6.7,0.6,9.8,5.8,11.5,8.6c0.4,0.7,0.8,1.4,1.2,1.8c1.6,2,2,4.7,1.2,7.1c-0.8,2.3-2.7,4.1-5.1,4.8
			c-0.7,0.2-1.8,0.6-3.2,0.6c-0.9,0-1.8-0.1-2.6-0.4c-0.7-0.2-1.4-0.5-2.1-0.7c-2.3-0.8-4.3-1.5-6.1-1.6c0.4,0.7,0.9,1.4,1.3,2.1
			c1.4,2.5,1.3,5.5-0.2,7.9c-1.4,2.1-3.8,3.4-6.3,3.4c-0.3,0-0.6,0-0.8,0c-5.7-0.6-10.9-2-15.9-3.6c-0.1,0.6-0.2,1.2-0.4,1.8
			c-1,2.7-3.5,4.6-6.4,4.8C223.5,416.8,222.6,416.9,221.7,416.9z M230.7,126c-0.1,1.3-0.4,2.5-0.9,3.6c3.9-2.3,8-3.4,11.5-4.3
			c1.4-0.4,2.8-0.8,4.1-1.2c-1-3.5-0.3-6.5,0.7-8.7c-0.2-0.5-0.7-1.3-1-1.9c-0.3-0.5-0.6-1.1-0.9-1.6c-0.1-0.2-0.2-0.4-0.3-0.6
			c-1,1.2-2.2,2.1-3.4,2.7c0.5,2.4,0.1,4.9-1.2,7c-1.4,2.3-3.7,3.9-6.3,4.5C232.4,125.7,231.6,125.9,230.7,126z"/>
		<path d="M251.1,17.6c2.4,0,3.6,2.5,5.2,3.8c2,1.7-0.3,3.6-1.5,4.5c-3.2,2.8-2.3,6.3-1.5,9.3c1.7,6.3,1.8,12.3,0.9,18.8
			c-1,7.2,2.1,14.2,4.1,21.2c2.5,8.6,5.3,17.3,8.8,25.5c1.4,3.3,4.9,5.9,7.9,8.4c3.3,2.6,3.2,6.3,3.7,9.7c0.2,1.4-0.6,3.7-3,4
			c-3.4,0.4-2.6,2.9-2.3,5c0.2,1.4,1,1.9,1.8,1.9c0.7,0,1.5-0.3,2.1-0.5c1-0.4,1.9-0.5,2.8-0.5c3.6,0,6.7,2.3,9.9,3.2
			c5.1,1.5,11.7,1.8,14.8,6.6c5,7.8,14.7,11.7,17.3,21.4c0,0.2,0.2,0.3,0.1,0.5c-0.4,11.9,9.8,18.4,13.9,28
			c3.1,7.3,7.6,14.8,2.7,23.8c-2.6,4.7-3.6,10.6,0.1,16c2.2,3.2,5.8,4.1,8.8,4.9c10.6,2.8,17.5,9.5,23.8,18.2
			c6,8.1,10.2,18.4,19,23.4c6.9,3.9,9.5,9.6,12.4,15.8c2.1,4.5,5.1,7.6,10.1,9.1c3,0.9,6.6,1.8,7.8,5.9c0.7,2.3,3.8,2.3,5.6,3.7
			c4.9,3.8,7.8,10,15.6,11.3c-0.8,0.5-1.7,0.7-2.5,0.7c-1.4,0-2.8-0.5-3.9-0.5s-2,0.4-2.5,2.2c-1.4,4.8,5.3,2.5,5.6,6.3
			c-0.7,0.4-1.3,0.5-1.9,0.5c-2.5,0-4.5-2.3-6.9-2.6c-1-0.1-2-0.4-2.9-0.4c-0.8,0-1.5,0.3-1.8,1.3c-0.7,2.1,1.3,2.9,3.1,3.6
			c1.4,0.5,3.3,0.8,4.1,2.8c-1.2,0.2-2.3,0.2-3.4,0.2c-4.8,0-9.2-1.4-13.5-3.5c-1.4-0.7-3.2-1.7-3.4-3.4c-1.1-9.5-10-11.5-15.8-16.4
			c-0.9-0.7-1.9-1-3-1c-2,0-4.3,1.1-6,2.8c-2.5,2.4-4.5,4.6-2.5,8.6c1.6,3.2-2.2,8.5-6.4,9.2c-2.6,0.4-5.2,1-7.9,1
			c-1.2,0-2.3-0.1-3.5-0.4c0.3-1.8,2.1-1.2,3.1-1.8c3-1.6,4.8-2.7,5-7.5c0.3-6.2-1.7-12.8,0.6-18.7c1.3-3.3,3-6.3,3.7-9.8
			c0.5-2.6,0.3-4.9-1.7-6.9c-10.2-10.8-22.5-18.3-36.7-24.4c0.9,5.2-1,9.9,0.8,14.8c1.9,5.1,0.9,10.4-0.4,15.6s-4.2,9.9-4,15.7
			c0.1,3-2.5,5.2-4.8,7.2c-4.4,3.6-4.1,5.7,0.8,8c2,1,2.5,2.8,2.4,5c-0.1,1.9-0.5,3-2.7,3.2c-5.5,0.5-7,5.5-9.6,9.1
			c-1.5,2.1-4.3,3.7-3.5,7.2c0.2,0.7-0.6,1-1.4,1c-0.3,0-0.7-0.1-1-0.2c-1.5-0.5-2.1-1.8-1.8-3.1c0.4-1.7,1.3-3.4,2.8-4.6
			c3-2.2,0.8-4.6,0.2-6.9c-0.2-0.7-0.4-1.5-1.1-1.5c-0.1,0-0.2,0-0.4,0.1c-1.1,0.4-0.4,1.7-0.6,2.6c1.4,1,0.9,2.5,0.9,3.9
			c-0.6,0.3-1.1,0.4-1.4,0.4c-1.4,0-0.1-2.5-1-2.9c-2.3,2.3-2.1,6-4.3,8.5c-1.9,2.1-3.8,3.9-6.6,3.9c-0.4,0-0.8,0-1.2-0.1
			c-1.3-0.2-2.2-0.8-1.9-2.3c0.2-0.7,0.4-0.9,0.7-0.9c0.4,0,0.9,0.4,1.4,0.4c0.1,0,0.2,0,0.3,0c3.3,0,3-2.6,3-4.8c0-1.6-0.5-2-1.2-2
			s-1.6,0.5-2.3,0.6c-0.5,0.1-0.9,0.1-1.4,0.1c-4.3,0-8-3.5-6.9-7.5c0.5-1.8,1.2-3.5-0.9-4c-0.3-0.1-0.6-0.1-0.8-0.1
			c-1.7,0-2.3,1.7-2.4,3.5c0,0.3-0.3,0.6-0.7,1.2c-1.9-4.5-5-8.1-7.3-12.1c-1.3-2.2-0.5-5.2,0.5-7.7c0.4-1,1.3-2.2,0.4-3.2
			c-0.4-0.4-0.8-0.6-1.3-0.6c-0.6,0-1.3,0.3-1.9,0.6c-0.7,0.3-1.4,0.7-2,0.7c-0.5,0-1-0.2-1.5-1c-0.9-1.4,0.5-2.1,1.3-2.8
			c2.3-1.9,1.4-3.8,0.1-5.6c-8.5-12-7.4-24.2-1-36.5c1.1-2.1,1.6-3-1.3-3.4c-3.1-0.4-4-4.3-7.1-5.1c-0.7-0.2-1.4-0.7-2.1-0.7
			c-0.2,0-0.4,0-0.6,0.2c-1,0.6-0.6,1.8-0.4,2.7c5.7,25.4-3.3,47.5-19.8,65.1c-9.5,10-22,17.5-36.6,17.5c-3.3,0-6.7-0.4-10.1-1.2
			c-0.8-0.2-1.6-0.1-2.4-0.1c0.2,14,9.4,22.1,20.4,25.4c2.4,0.7,4.5,1.5,5.6,3.5c1.5,2.7,3.5,3.8,6.2,3.8c0.4,0,0.8,0,1.2-0.1
			c0.3,0,0.7-0.1,1-0.1c2.7,0,4.6,1.3,6.7,3.3c5.7,5.3,11,11.4,19.7,12.2c4,0.4,5.2,4.7,7.5,7.6c-0.5,0.1-0.9,0.3-1.3,0.3
			c-0.1,0-0.1,0-0.2,0c-3.6-1.2-6.9-2.7-10.7-2.7c-1,0-2,0.1-3,0.3c-0.4,0.1-0.8,0.1-1.2,0.1c-3.6,0-6.5-3.5-9.5-5.6
			c-2.9-2-5.8-3.8-9.3-4.5c-1-0.2-2-0.9-2.9-0.9c-0.4,0-0.8,0.2-1.1,0.6c-0.9,1.3,0.2,3.1,0.9,4.6c2.7,6,8.1,8.6,13.5,11
			c3.7,1.6,5.6,4.3,7.6,7.8c-7.8-0.9-14.8-3.3-21.7-5.6c-6-2-8.1-8.4-12.4-12.4c-0.9-0.8-1-2.6-2.6-2.8c-0.5-0.1-1-0.1-1.6-0.1
			c-0.5,0-1,0.1-1.3,0.3c-1.1,0.6-0.4,1.8,0,2.6c2.2,4.6,3.7,9.5,9,12.3c2.6,1.4,3.7,5.9,6.4,8.7c-0.7,0.1-1.5,0.1-2.2,0.1
			c-11.7,0-18.4-7.9-24.8-16.7c-2.8,7.4,1.3,10.8,6.5,13.9c-2,0.5-3.8,0.7-5.3,0.7c-5.3,0-8-2.9-10.4-10.5
			c-2.6-8.2-6.8-15.7-10.1-23.6c-1.7-4.1-0.6-8.5-0.8-12.8c-0.2-3.9-0.4-7.1-4.7-9.2c-2.9-1.5-5.2-4.6-7.3-7.4
			c-1.7-2.2-5.1-5.3,0.9-6.8c0.3-0.1,0.7-0.8,0.7-1.2c-0.2-1.2-1.2-1.3-2-1.3c-0.1,0-0.2,0-0.3,0c-0.2,0-0.4,0-0.7,0
			c-10.1,0-18.5-5.1-27.3-9.1c-8.4-3.7-13.7-10.5-18.2-18c-1.4-2.3-2.7-3.1-4.1-3.1c-1.2,0-2.6,0.7-4,1.6c-1.3,0.8-2.5,1.6-3.8,2.4
			c-0.4-0.4-0.8-0.8-1.3-1.2c-1-1.7-2.3-2.1-3.7-2.1c-1.4,0-3,0.5-4.4,0.5c-0.3,0-0.6,0-0.8-0.1c-0.1,0-0.2,0-0.3,0
			c-0.8,0-1.6,0.4-2.4,0.4c-0.7,0-1.4-0.3-2.1-1.3c-0.2-0.3-0.5-0.4-0.9-0.4c-1,0-2.5,0.7-3.5,1.3c-1.6,1-3.6,1.3-5.4,1.9
			c-0.3-0.2-0.7-0.3-1-0.3c0.4,0,0.7,0.1,1,0.3c-1.2,0.7-2.5,0.9-3.9,0.9c-0.8,0-1.6,0-2.4,0c-0.1,0-0.3,0-0.4,0
			c0.2-1.7,1.4-1.9,2.6-2c0.2,0.4,0.4,0.6,0.7,0.8l0,0l0,0c-0.3-0.1-0.5-0.4-0.7-0.8c1-0.2,1.9-0.5,1.9-1.8c0-1.2-0.9-1-1.7-1.2
			c-2.2-0.5-4.3-0.8-6.4-0.8s-4.1,0.3-6.2,0.9c-0.6,0.2-1.3,0.2-2,0.2c-1.2,0-2.5-0.2-3.9-0.2c1.3-1.9,3.7-3.2-0.4-4.2
			c-2.5-0.6-4.9-1-7.4-1c-1.5,0-3,0.1-4.6,0.4c-0.5,0.1-1.1,0.1-1.6,0.1c-1.5,0-3.2-0.3-5-0.4c0.8-1,1.5-1.1,2.1-1.1
			c0.2,0,0.4,0,0.5,0c0.2,0,0.3,0,0.5,0c0.1,0,0.3,0,0.4,0c0.2,0,0.3,0,0.5,0c0.5,0,1-0.1,1.1-0.9c0.2-1.3-0.8-1.5-1.8-1.8
			c-3.7-1.1-7.1-3.3-11.1-3.3c-0.7,0-1.3,0.1-2,0.2c-0.1,0-0.2,0-0.3,0c-0.9,0-1.9-0.7-2.5-1.5c1-1.5,4.3,0.1,3.8-2.2
			c-0.4-1.9-0.6-4.5-3.6-5.3c-3.1-0.8-6-2.1-9.3-3.2c0.7-0.7,1.6-0.9,2.5-0.9c0.8,0,1.7,0.1,2.5,0.1c1.2,0,2.3-0.3,2.8-2.1
			c1.7-5.1-4.5-3.6-5.8-6.5c0.7-0.5,1.4-0.7,2.1-0.7c0.5,0,0.9,0,1.3,0c0.1,0,0.2,0,0.3,0c1.3-0.1,2.2-0.4,2.3-2
			c0.1-1.6-2.5-3.6-0.7-4.4c4.4-1.9,6.4-7,11.7-7.7c12.8-1.8,25.4-4.9,38.4-4.9c0.8,0,1.5,0,2.3,0c0.6,0,1.2,0,1.8,0
			c3.1,0,6.1-0.5,7.5-4.6c1.7-5,0.8-6.9-4.4-7.2c-0.4,0-0.8,0-1.3,0c-0.7,0-1.5,0-2.2,0c-0.4-0.3-0.7-0.6-1.1-1
			c2.7-1.4,5.5-2.1,8.1-2.1c7.9,0,14.5,6.3,15.5,16.5c4.6-3.5,8.8-6.8,12.6-10.7c10.3-10.5,22.6-15.7,36.8-15.7
			c1.7,0,3.5,0.1,5.2,0.2c0.9,0.1,1.7,0.1,2.4,0.1c2.6,0,4.6-0.8,5.7-5c1.5-5.7,1.1-12.3,5.5-17.1c6.3-7,7.1-16.2,10-24.5
			c0.2-0.6,0.2-1.3,0.6-1.8c4.7-5.1,4.4-10.2-0.9-14.8c-1.8-1.5-3.8-2.2-0.5-5c2.4-2.1,2-6.3,1.3-9.9c-3.5-16.7-13.6-27.6-29-34.3
			c-5.3-2.3-10.5-4-15.7-4c-3.9,0-7.8,0.9-11.8,3.2c-6.1,3.5-10,8.5-9.8,16c0.1,5.8-0.2,11.6-1.7,17.2c-0.7,2.5-2.3,3.9-4.3,5.1
			c-0.5,0.3-0.9,0.4-1.3,0.4c-0.6,0-1.2-0.4-1.6-1c-1.2-1.7,0.4-1.5,1.3-2.1c2.9-2.1,1.5-10.4-1.8-14.5c-2.5-3-7.5-3.9-7.2-10
			c-4.8,5.4-11.1,4.2-16.3,6.5c-1.4,0.6-3.5,0-2.7,2.7c0.2,0.6-0.5,1.5-1,2.2c-7.4,10.8-5.9,22.7-4.2,34.6c0.3,1.8,1.5,3.7,2.7,5.2
			c0.7,1,1.6,1.5,2.4,1.5s1.7-0.4,2.6-1.4c0.6-0.6,0.9-2.5,1.9-2.5c0.4,0,0.9,0.3,1.6,1.3c1.6,2.2,2.1,4.8-0.2,6.7
			c-1.5,1.2-3.2,1.9-5,1.9c-1.2,0-2.5-0.3-3.8-0.8c-8.7-3.7-11.7-11.9-15.4-19.4c-9.9-19.7-9.3-39.8-1.1-59.8
			c2.3-5.6,6.1-10.6,9.3-15.8c0.5-0.9,1.5-1.2,2.6-1.3c10.8-0.8,19.9-4.8,27.5-12.8c2-2.1,4.7-3.6,7.3-5.2c6-3.7,11.1-8.3,14.3-14.7
			c1.9-3.8,5.1-5.8,9.4-6.5c8.5-1.4,14.8-6.1,18.9-13.7c0.6-1,1.2-2.3,2.1-2.7c8.2-3.4,15-10,24.6-10.2c0.1,0,0.1,0,0.2,0
			c5.1,0,6.5,3.1,5.9,7.8c-0.9,7.8-6.5,13.5-8,21c-0.7,3.5-0.8,6.8-0.1,10.3c2.8,13,8.8,24.4,17.7,34.3c2.2,2.5,5.7,2.5,7.9,5
			c2.7,3,4.4,6.5,6.5,9.8c0.6,1,1.4,1.8,2.4,1.8c0.3,0,0.5-0.1,0.8-0.2c1.5-0.6,0.6-1.8,0.3-2.9c-0.6-1.7-0.4-3.7,1.6-4.1
			c0.2,0,0.3,0,0.4,0c1.5,0,1.6,1.7,2.1,3c1.8,4.9,6.9,7.5,8.8,12.5c0.7,2,1.8,3.9,2.2,6s-0.2,4-2.6,4.7c-1.2,0.3-3.1,0-2.4,2.1
			c0.5,1.5,0.5,3.9,3.1,3.9l0,0c0,0,0,0,0.1,0c4.5,0,4.4,2.3,2.6,5.5c-0.8,1.5-1.5,3.3,0.3,4.5c0.4,0.2,0.7,0.3,1.1,0.3
			c1.2,0,1.9-1.4,2.4-2.3c4.7-9.4,14.9-8.7,22.7-12.2c3.4-1.5,5.3-2.6,3-6.4c-1.1-1.7-1.5-3.4-0.4-5.6c1.8-3.6-0.5-6.7-2.1-9.7
			c-1.6-3.1-3.4-6.1-5.9-8.6c-0.9-0.9-2-1.7-3.3-1.7c-0.2,0-0.5,0-0.7,0.1c-2,0.5-1.6,2.3-1.7,3.7c-0.1,0.8,0,1.7-0.2,2.5
			c-0.4,1.5-1.1,3-2.6,3c-0.2,0-0.5,0-0.7-0.1c-2.4-0.6-1.8-2.4-0.6-3.8c0.8-0.9,1-1.7,0.1-2.5c-0.5-0.5-1.2-0.7-1.8-0.7
			c-0.5,0-1.1,0.2-1.5,0.4c-3.2,2.1-5.2,5-4.9,9c0.1,0.9,0.4,2.2,1.2,2.2c0.1,0,0.1,0,0.2,0c0.5-0.1,0.9-0.2,1.3-0.2
			c2.2,0,2.9,1.8,3.4,3.8c0.3,1.3-0.7,2.4-1.8,2.7s-2.2,0.5-3.3,0.5c-1.5,0-3-0.4-4.1-1.9c-2.7-3.5-5.3-7.3-6.1-11.8
			c-1.9-11.4-1.9-22.4,5.3-32.6c3.2-4.5,3-10.8,2.5-16.4c-0.4-5,0.7-9.4,3.4-13.6c1.4-2.2,2.5-4.8,3-7.3c1.9-9.4,9.2-13.3,16.9-17
			C249.8,17.8,250.5,17.6,251.1,17.6 M316.9,302c2.3-4.6,3.5-8.5,1.6-12.8c-0.4-0.8-0.6-1.8-1.7-1.8c-0.1,0-0.2,0-0.3,0
			c-1,0.2-1.1,1.1-1.3,1.9C314.5,293.4,314.9,297.4,316.9,302 M287.9,295.5c1.1-2.6,1.1-4.8-0.4-7.1
			C286,291.6,286,291.6,287.9,295.5 M78,307.3c0.2,0.1,0.4,0.1,0.6,0.1c0,0,0,0,0.1,0c0,0,0,0-0.1,0C78.4,307.4,78.2,307.3,78,307.3
			L78,307.3L78,307.3 M289.7,325.9c6.1-4.1,7.1-10.1,2.3-16.5C292.4,315.6,291.5,320.4,289.7,325.9 M300.1,335.3
			c0.9,0,1.5-0.9,1.9-1.9c2-4.6,1.7-8.9-1.4-13c-1,1.7-1.9,3.2-2.8,4.7c-0.4,0.7-1.6,1.6,0,2.2c3,1.1,2.1,3.1,1.4,5.2
			c-0.3,0.9-0.7,2.2,0.3,2.6C299.7,335.2,299.9,335.3,300.1,335.3 M251.1,2.6L251.1,2.6c-2.9,0-5.8,0.7-8.6,2
			C234.4,8.5,221,15,217.4,32c-0.1,0.5-0.4,1.4-1.1,2.4c-4.4,7-6.2,14.7-5.6,22.7c0.4,4.4,0.2,6.1,0,6.8c-4.4,6.2-6.8,12.6-8,18.8
			c-0.9-0.5-1.7-0.8-2.3-1.1c-6.7-7.9-11.1-16.5-13.2-26.4c-0.2-0.8-0.3-2,0.1-4.3c0.3-1.4,1.3-3.5,2.5-5.7
			c2.2-4.2,4.9-9.5,5.7-16.4c1.1-9-2.1-14.7-4.9-17.8c-2.7-3.1-7.7-6.7-15.9-6.7c-0.1,0-0.3,0-0.4,0c-10.3,0.1-17.8,4.5-23.9,8.1
			c-2.2,1.3-4.3,2.5-6.1,3.2c-5.8,2.4-8.3,7.1-9.4,9.1l-0.1,0.2c-2.1,3.7-4.4,5.5-8.2,6.1c-11.7,1.9-17.5,9-20.4,14.6
			c-1.6,3.2-4.4,6-8.8,8.7c-0.3,0.2-0.6,0.4-0.9,0.6c-2.8,1.7-6.2,3.8-9.3,7.1c-4.7,5-10.4,7.6-17.7,8.1c-6.1,0.5-11.3,3.6-14.3,8.5
			c-0.8,1.3-1.7,2.7-2.7,4.2c-2.6,4-5.5,8.4-7.6,13.7c-10.3,25.3-9.8,49.6,1.6,72.2c0.5,0.9,0.9,1.8,1.3,2.7
			c3.7,7.7,8.8,18.3,21.7,23.7c3.2,1.3,6.4,2,9.6,2c5.2,0,10.2-1.8,14.4-5.2c8.2-6.6,9.5-18,3-27.1c-3.1-4.3-6.7-6.2-9.7-7
			c-0.4-5.8,0.1-10.5,2.9-14.5l0.1-0.1c0-0.1,0.1-0.1,0.1-0.2c0.3-0.1,0.6-0.1,1-0.2c-0.2,0.5-0.4,1-0.5,1.4
			c-0.9,2.8-1.8,8.4,2.4,14.4c3.3,4.7,8.4,7.4,13.9,7.4c3.2,0,6.3-0.9,9.2-2.7c2.1-1.3,8.6-5.3,11-14.1c1.7-6.4,2.4-13.3,2.2-21.4
			c0-0.8,0-1.3,2.3-2.6c1.5-0.9,2.8-1.2,4.3-1.2c2.4,0,5.4,0.9,9.7,2.7c11.6,5.1,17.8,12.3,20.2,23.2c-2.7,3.8-3.3,7.6-3.2,10.3
			c0.1,4,1.6,7.5,4.4,10.6c-0.7,1.5-1.1,2.8-1.3,3.6c-0.9,2.6-1.5,5-2.2,7.4c-1.4,5-2.4,9-4.6,11.4c-5.1,5.6-6.8,11.9-7.7,16.8l0,0
			c-17.2,0-32.3,6-45,17.7c-5.3-4.9-12.2-7.8-19.9-7.8c-5.2,0-10.3,1.3-15.1,3.9c-4.3,2.3-7.2,6.5-7.8,11.4c0,0.1,0,0.2,0,0.2
			c-6.1,0.6-12,1.7-17.7,2.7c-3.7,0.6-7.1,1.2-10.6,1.7c-7.8,1.1-12.6,5.7-15.2,8.2c-0.3,0.3-0.7,0.7-1,1c-3.8,1.8-6.6,4.9-8,8.8
			c-0.1,0.1-0.2,0.1-0.2,0.2c-3.9,3.3-5.8,8.2-5.3,13.1c-2,3.3-2.6,7.2-1.8,11.1c1.1,4.8,4.5,8.7,9,10.6c0.4,2,1.3,3.9,2.5,5.6
			c3,4.1,7.4,6.9,12.2,7.6c2.6,4.2,7.1,6.9,12,7.1c0.4,0,0.9,0.1,1.5,0.1c1.2,0.1,2.6,0.3,4.2,0.3c1,0,2-0.1,3-0.2
			c2.8,3,6.8,4.8,11,4.8c0.3,0,0.8,0,1.3,0.1c0.7,0,1.6,0.1,2.6,0.1c0.3,0,0.6,0,0.9,0c2.8,3,6.8,4.7,10.9,4.7c0.1,0,0.2,0,0.3,0
			h0.1c0.3,0,0.5,0,0.8,0c0.5,0,1,0,1.6,0c1.4,0,5.3,0,9.6-1.9c0.1,0,0.2,0,0.2-0.1c0.8-0.2,1.7-0.5,2.7-0.9
			c1.1,0.2,2.2,0.3,3.4,0.3c1.3,0,2.4-0.1,3.3-0.3c0.1,0,0.2,0,0.3,0c0.2,0,0.4,0,0.6,0c2.6,1.9,5.7,2.8,8.8,2.8
			c1.4,0,2.8-0.2,4.2-0.6c4.6,6.1,10.9,12.3,19.8,16.3c1.5,0.7,3,1.4,4.6,2.2c4.4,2.1,9.2,4.4,14.5,6c1.2,2.4,2.7,4.2,3.5,5.2
			c0.1,0.1,0.2,0.3,0.3,0.4c0.2,0.3,0.4,0.6,0.6,0.8c2,2.6,4.5,5.9,8.2,8.6c0,0.4,0,0.8-0.1,1.3c-0.2,3.7-0.5,9.4,2,15.3
			c1.3,3.1,2.7,6.1,4,8.9c2.2,4.6,4.2,9,5.6,13.4c2,6.3,4.4,10.6,7.7,14c3.1,3.2,8.5,6.9,17,6.9c2.5,0,5.2-0.3,8.3-1
			c4.4,1.9,9.4,3.2,15.3,3.2c1.1,0,2.2,0,3.3-0.1c4-0.3,7.6-2.2,10.2-5.1c3.5,0.9,7.3,1.7,11.2,2.1c0.6,0.1,1.1,0.1,1.7,0.1
			c5,0,9.8-2.5,12.6-6.8c0.8-1.2,1.4-2.6,1.8-4c0.5,0.1,1.1,0.1,1.6,0.1c2.6,0,4.6-0.6,5.5-1c4.6-1.4,8.3-4.9,9.9-9.4
			c1.7-4.8,0.8-10.1-2.3-14.2c-0.1-0.2-0.5-0.7-0.7-1.1c-2-3.3-6.8-11.2-17.2-12.2c-2.3-0.2-4.4-2.1-8.7-6.2c-0.7-0.7-1.4-1.4-2.2-2
			c-3.1-2.9-7.9-6.7-15.1-7.2c-1.8-1.9-3.7-3.2-5.5-4.2c10.6-3.5,20.6-10,29.5-19.4c3.8-4.1,7.2-8.3,10.2-12.6c0,0,0.1,0,0.1,0.1
			c0.4,2.9,1.4,5.3,2.4,7.2c1.1,1.9,2.2,3.6,3.3,5.2c1.4,2,2.5,3.8,3.2,5.3c1.6,3.7,4.5,6.6,8.1,8.1c0.6,0.7,1.3,1.4,2,2.1
			c0.3,2.7,1.2,5.2,2.7,7.4c1.5,2.2,5,6.1,11.7,7.2c1.2,0.2,2.5,0.3,3.7,0.3c2.9,0,5.4-0.5,7.5-1.4c0.3,0.1,0.6,0.2,1,0.4
			c1.9,0.6,3.8,0.9,5.8,0.9c5.2,0,9.9-2.2,13-6c1.7-2.1,2.8-4.6,3.2-7.2c0.3-0.4,0.7-0.8,1-1.3c0.9-1.2,1.6-2.4,2.1-3.4l0,0
			c6.1-1.7,12.2-6.8,12.8-16.6c0.2-3.6-0.4-7-1.7-9.9c1.9-3,3.4-6.9,3.3-11.6c0-0.9,0.7-3,1.4-4.9c0.7-2,1.6-4.3,2.2-6.9
			c0.6-2.5,1.2-5,1.5-7.6c2.1,1.6,4.1,3.3,6,5.1c-0.1,0.2-0.2,0.5-0.3,0.7c-0.5,1-1,2.2-1.5,3.5c-2.8,7.1-2.2,13.9-1.9,18.9
			c0,0.2,0,0.4,0,0.5c-4.6,2.7-7,7.2-7.8,11.2c-1.5,8,3.6,15.7,11.5,17.4c2.1,0.5,4.4,0.7,6.7,0.7c3.6,0,6.7-0.6,9.3-1
			c0.4-0.1,0.7-0.1,1.1-0.2c7.1-1.2,13.6-6.1,16.9-12.8c0,0,0-0.1,0.1-0.1c1.2,4,4.2,8.5,10.9,11.9c6.9,3.4,13.5,5.1,20.1,5.1
			c1.8,0,3.7-0.1,5.5-0.4c4.2-0.6,7.8-2.9,10.2-6.3c0.3-0.1,0.6-0.3,0.9-0.4c4.8-2.5,7.8-7.2,8.1-12.5c2.8-3.4,4-8,3.1-12.5
			c-1.2-6.1-6.1-10.8-12.2-11.8c-0.1,0-0.1,0-0.1,0c-0.5-0.2-2-1.8-3-2.8c-1.5-1.6-3.4-3.6-5.8-5.5c-1.1-0.8-2.1-1.5-3-2
			c-4.5-7-11.8-9.2-14.9-10.1l-0.4-0.1c-0.1,0-0.2-0.1-0.2-0.1c-0.1-0.1-0.3-0.4-0.5-0.9c-3.4-7.2-7.5-16.2-18.6-22.6
			c-3.1-1.8-6-6.3-9-11.2c-1.7-2.6-3.4-5.4-5.4-8.1c-6.4-8.7-15.8-19.3-31.4-23.6c7.5-14.2,2-26.6-1.4-34.1c-0.3-0.7-0.7-1.5-1-2.2
			c-2.2-5.1-5.2-9.1-7.8-12.7c-3.4-4.6-4.9-6.8-4.8-8.9c0.1-1.9-0.2-3.8-0.8-5.6c-2.8-9.7-9.3-15.5-14-19.8c-2.1-1.9-4-3.6-5-5.1
			c-5.8-8.9-15.1-11-20.6-12.2c-1-0.2-1.9-0.4-2.6-0.6c-0.1,0-0.3-0.1-0.6-0.2c0-0.1,0-0.2,0-0.3c0-0.3-0.1-0.7-0.1-1
			c-0.4-4-1.4-12.2-9-18.4l-0.7-0.5c-1-0.8-2.4-2-3.1-2.6c-3.4-8.1-6-16.6-7.9-23.2c-0.5-1.6-1-3.1-1.4-4.6
			c-1.2-3.9-2.5-7.9-2.2-10.2c1.2-8.3,1-15.5-0.7-22.7c1.9-2.4,3.7-6,3.7-10.5c0-4.7-2-9.2-5.6-12.5c-0.1-0.1-0.1-0.1-0.2-0.2
			C264.5,8.2,259.7,2.6,251.1,2.6L251.1,2.6z M169.5,167.1L169.5,167.1L169.5,167.1L169.5,167.1z M330.1,291.7L330.1,291.7
			L330.1,291.7L330.1,291.7z"/>
	</g>
</g>
</svg>
