<?xml version="1.0" encoding="utf-8"?>
<!-- Generator: Adobe Illustrator 24.1.0, SVG Export Plug-In . SVG Version: 6.00 Build 0)  -->
<svg version="1.1" id="Livello_1" xmlns="http://www.w3.org/2000/svg" xmlns:xlink="http://www.w3.org/1999/xlink" x="0px" y="0px"
	 viewBox="0 0 460 320" style="enable-background:new 0 0 460 320;" width="50" height="50" xml:space="preserve">
<style type="text/css">
	.st0{fill:#FEFEFE;}
</style>
<g>
	<path class="st0" d="M251.3,307c-8.4,0-19.1-4.5-23.2-13.1c-1.4-2.9-1.6-5.6-1.2-7.9c-0.4,0-0.8,0.1-1.2,0.1
		c-1.9,0.2-3.8,0.3-5.5,0.6c-2,0.3-4.1,0.7-6.2,1.1c-0.3,0.1-0.6,0.1-0.9,0.2c0.4,2,0.4,4.1-0.1,6.2c-0.9,4.7-4.6,7.8-9.5,8.3
		c-0.4,0-0.7,0-1,0c-4.3,0-7.8-2.6-9.2-6.9c-1-2.9-1.5-3.5-5.1-3.5h-0.1c-2.7,0-5.5,0.3-8.5,0.6c-1.7,0.2-3.5,0.3-5.3,0.5
		c-1.1,0.1-2.2,0.1-3.3,0.1c-7,0-14-1.6-21.5-4.8c-6.1-2.7-12.6-4.6-19.5-6.6c-2-0.6-4-1.2-6-1.8c0,0-0.1,0-0.2,0
		c-0.7,0-1.9,0.3-3,0.6c-0.9,0.2-2,0.5-3.1,0.7c-4.7,0.8-8.5,1.2-12.1,1.2c-7.1,0-13.4-1.6-19-4.8c-0.1,0-0.4,0-0.9,0
		c-0.3,0-0.6,0-0.9,0c-0.4,0-0.8,0-1.2,0c-2.1,0-4.8-0.2-7.5-1.6c-4.1-2.1-8.5-2.5-14-2.5c-1.4,0-2.8,0-4.3,0.1h-2
		c-0.2,0-0.5,0-0.7,0c-9.2,0-17.4-2.6-25.4-5.1c-2.4-0.8-4.7-1.5-7-2.1c-2.5-0.7-7.6-2.1-9.4-7.1c-1.9-5.1,1.1-9.7,2.9-12.4
		c3.1-4.8,6.9-10.3,11.5-14.9c5.2-5.1,10.9-8.6,17.5-10.5c0.2-0.5,0.4-1.4,0.4-1.9c-0.5-15.7,8-26,15.4-33.3
		c0.7-0.7,1.5-1.6,2.2-2.5c-2.9,0.4-5.8,1.7-7.4,3.4c-4.4,4.6-7.1,9.9-8.2,16.3v0.1c-0.1,0.5-0.1,0.9-0.2,1.3
		c-1.8,7.8-7.5,13.2-13.9,13.2c-0.9,0-1.8-0.1-2.7-0.3c-7.2-1.9-10.1-11.1-8.7-18.7c1.6-8.4,6.3-14.7,9.9-18.8
		c1.1-1.9,2.9-4.7,6-6.6c1.3-1.6,2.6-3,4.1-4.1c1.1-1.7,2.8-3.3,5.5-4.4c8.3-6.2,17.9-9.2,25.6-11.6c5.6-1.8,7.8-3.3,8.9-6
		c1-2.4,2.8-4.4,5-5.3c-1-2.2-2-2.5-2.5-2.7c-2.4-0.8-9.7-3.3-12.9-11.5c-1.4-3.6-1.5-7.4-0.3-10.7c0.7-1.9,2.8-7.6,9.3-8.6
		c0.6-0.1,1.2-0.1,1.8-0.1c2.4,0,6.9,0.8,10.2,6.4c0.7,1.2,1.3,2.3,2,3.5c0.6-2.3,2-4.2,4.2-5.5c0.5-0.3,0.9-0.5,1.4-0.7
		c-1.2-1.6-2.6-3-4.3-4.2c-6-4.4-9.8-10.9-11.4-19.3c-0.6-3.3-2.2-5.6-5.4-7.6c-1.8-1.1-3.2-2.3-4.5-3.6c-3.8-4-4-9.8-0.4-13.8
		c1.8-2,4.3-3.2,6.9-3.2c4,0,6.5,2.6,7.5,3.6c0.7,0.7,1.4,1.4,2.1,2.1c5.7,5.9,12.3,12.7,15.1,22.5c1.3,4.4,4.3,7.9,9.5,11
		c0.5-0.9,0.9-1.9,1.4-2.8l0.4-0.8c1.1-3.5,3.3-6,6.2-7.2c1.2-1.6,2.3-3.1,3.3-4.6c0,0,0.4-0.6,0.5-0.7c-0.3-1.6-0.4-3.1-0.2-4.5
		c-5.6-1.5-9.5-5.7-9.7-11c-0.2-5.1,3-11,12.3-12c0.5-0.1,1.1-0.1,1.6-0.1c4.1,0,7.1,1.7,9.4,3c0.2,0.1,0.4,0.2,0.6,0.3
		c0.4-0.3,1.1-0.8,1.5-1.1c10.9-12.2,23.6-22,37.8-29.1c3.8-1.9,7.6-2.8,11.4-2.8c1.9,0,3.8,0.2,5.6,0.7c0.2,0.1,0.5,0.1,0.7,0.1
		c1.2,0,2.8-0.6,4.6-1.9c4.8-3.2,10.2-5.5,16.6-6.8c1.3-4.8,5.1-7.9,10.1-8.2c0.3,0,0.5,0,0.8,0c3.1,0,5.9,1.2,7.8,3.5
		c0.5,0.6,1,1.3,1.3,2.1c1.2,0.2,2.4,0.3,3.4,0.3c0.9,0,1.6-0.1,2.2-0.4c5.5-2.3,11-3.5,16.6-3.5c7,0,14,1.9,20.9,5.6
		c3.4,1,6,3.4,7.2,6.6c2.1,2.8,4.8,4.7,7.9,5.5c0.8,0.2,1.6,0.4,2.4,0.6c7.2,1.7,15.3,3.6,21.5,10.6c9.3,1.2,15.3,7,18,17.3
		c2.3,1.6,3.9,3.9,4.6,6.8c6.8,15.5,12.5,32.5,8.6,51.3c-0.4,2.2-0.2,4.6,0.3,7.5c0.2,1.3,0.4,2.6,0.6,4c1.3-0.9,2.7-1.7,4.2-2.4
		c1.6-0.7,3.8-1.5,6.4-1.5c1.3,0,2.6,0.2,3.8,0.6c7.5,2.4,8.4,8.1,8.4,10.5c0,1.9-0.6,8.4-8.8,10.5c-0.3,0.1-0.7,0.2-1.1,0.3
		c0.1,0.5,0.2,0.9,0.2,1.2c0.4,2.2,0.5,4.4,0.4,6.5c0.6-0.1,1.2-0.1,1.7-0.1c0.1,0,0.3,0,0.5,0c9.6,0.3,11.1,10.2,11.6,13.5l0.1,0.8
		c1,6.4-1,11.9-2.9,16.6c-0.3,0.6-0.6,1.2-0.9,1.8c0.1,0.1,0.2,0.2,0.2,0.3c2.1,2.5,2.6,2.9,3.4,2.9h0.1c6.6-0.2,13.1-1.6,20.3-3.1
		c4.2-0.9,8-1.4,11.7-1.4c3,0,6,0.3,8.8,0.9c4.5,1,8.1,2.8,11.1,5.6c8.1,7.8,3.5,14.7,1.8,16.6c-2.2,2.7-5.3,4.2-8.6,4.2
		c-2.8,0-5.5-1-8-3.1c-1-0.8-2.1-1.5-3.2-2c-0.2,0.6-0.5,1.2-0.9,1.9c-0.9,1.7-2,3.3-2.9,4.7c-0.6,0.9-1.3,1.9-1.7,2.7h0.1
		c0.3,0,0.7,0,1,0h0.1c6.6,0.1,11.3,2.1,14,6c1.5,2.1,2.2,4.5,2.2,7.3c2.3-0.9,5-1.7,7.9-2.1c0.8-0.1,1.6-0.1,2.3-0.1
		c5.6,0,10,2.9,11.8,7.7c2,5.2,0.2,9.7-5.2,13.6l-0.3,0.2c-0.9,0.6-1.6,1.2-2.2,1.6c0.6,0.6,1.3,1.3,2.2,2.2l0.4,0.4
		c0.7,0.7,1.6,1.5,2.4,2.4c3.6,4,3.6,7.6,3,9.9s-2.4,5.5-7.5,7.3c-0.1,0-0.1,0-0.2,0.1c-0.2,2.5-1.5,7-8,8.6
		c-4.5,1.2-8.9,1.7-13.1,1.7c-5.5,0-10.9-1-15.9-3c-3.5-1.4-7.5-2.2-12.5-2.5c-2.2,7.7-10,10.2-12.8,11.1
		c-11.6,3.7-25.2,7.7-39.6,7.7c-3.9,0-7.8-0.3-11.5-0.9c-3.4-0.5-7-0.8-11.4-0.8c-3.5,0-7,0.1-10.7,0.3c-2,0.1-4.1,0.2-6.2,0.2
		c-0.4,0.9-0.9,1.8-1.5,2.6c-3,3.6-8.1,4.1-10.2,4.2c-0.3,0-0.5,0-0.8,0c-7.1,0-13.8-2.2-19.8-6.4c0,2.8-1.2,6.5-6.6,9.3
		C257.8,306.3,254.7,307,251.3,307z M337.8,157c0,0.4-0.1,0.7-0.2,1c0.5-0.1,0.9-0.2,1.3-0.5c1.8-0.9,3.7-2.2,4.9-4.7
		c-1.4,0.5-2.7,0.7-4,0.7c-0.6,0-1.3-0.1-1.9-0.2C338.2,155.1,337.9,156.3,337.8,157z M326.4,142.2c0.6,0,1.1,0,1.7,0.1
		c0.2,0,0.4,0.1,0.6,0.1c0-0.1,0-0.3,0-0.4c0-0.1,0-0.3,0-0.4c-0.2,0-0.4,0-0.5,0c-0.9,0-1.8-0.1-2.6-0.4c0,0.3,0.1,0.7,0.1,1
		C325.9,142.2,326.1,142.2,326.4,142.2z"/>
	<path d="M230.1,17.5c2.1,0,2.8,1.4,2.4,3.6c-0.2,0.8,0.5,1.2,1.1,1.3c3,0.4,6,1.1,9,1.1c1.7,0,3.4-0.3,5.1-1
		c4.6-2,9.2-2.9,13.6-2.9c6.2,0,12.2,1.8,18.2,5.2c1.7,0.3,2.8,1.2,3.2,2.9c3.1,4.8,7.6,8.2,12.9,9.5c7.9,2,16,3.2,21.3,10.4
		c0.3,0.5,1.1,0.8,1.7,0.8c9.7,0.4,12.8,7,14.2,15.2c2.2,0.5,3.6,1.7,4,4c6.7,15.1,11.9,30.5,8.4,47.5c-0.7,3.5-0.3,6.9,0.3,10.3
		c0.9,5.1,1.4,10.2,0.2,15.3c0.2,1.8-0.2,3.2-1.8,4.1c-1.5,1-2.9,1.5-4,1.5c-2.1,0-3.4-1.6-3.7-4.9c-0.3-3.2-0.1-6.5,0-9.8
		c0-3,0.7-6.2-3.6-7.1c-0.6-0.1-0.6-1.5-1.4-1.5c-0.2,0-0.4,0.1-0.6,0.2c-1,0.6-0.7,1.8-0.7,2.7c0,1.8,0,3.7,0,5.5
		c0,1.2,0,2.7-1.4,2.9c-0.1,0-0.2,0-0.3,0c-1.4,0-2-1.5-2.2-2.6c-0.5-3.1-0.6-6.3-1-9.4c-0.2-1.3-0.1-3.3-1.8-3.3
		c-0.1,0-0.2,0-0.3,0c-1.6,0.2-2.1,2.1-2.7,3.7c-3.1,8.2-2.6,16.5-1.6,25c0.2,1.4,0.5,3.7-1.3,3.9c-0.1,0-0.2,0-0.3,0
		c-1.9,0-1.8-2.3-2-3.8c-0.8-6.7,1.1-13.6-1.1-20.3c-0.4-1.4-0.4-3.3-1.9-3.6c-0.1,0-0.3,0-0.4,0c-1.2,0-1.6,1.6-2.2,2.6
		c-0.5,0.9-1.1,1.3-1.7,1.3s-1.2-0.5-1.7-1.3c-0.7-1.2-1.2-1.6-1.6-1.6c-0.7,0-1,1.3-1.4,2.3c-1.2,3.3,0.3,6.6-0.4,9.9
		c-0.4,2.1-0.2,5.2-2.7,5.2l0,0c-2.9,0-3.5-3-3.5-5.7c0-1.8,0.2-3.7,0.2-5.5c0-1.1,0.6-2.5-0.9-3c-0.2-0.1-0.5-0.1-0.7-0.1
		c-1.1,0-1.9,0.9-2.7,1.8c-4.5,5.4-1.1,16.2,5.9,18c3.5,0.9,5.9,2.4,7.8,5.5c2.1,3.4,7.7,5.9,14.8,7.1c0.6-2.4,1-4.8,1.7-7.2
		c0.5-2,1.8-3.2,3.7-3.2c0.2,0,0.4,0,0.7,0c2.7,0.4,3.1,2.7,3.5,4.8c0.1,0.5-0.1,1-0.2,1.5c-0.2,2.6-2.9,6-0.5,7.6
		c2,1.3,4.4,2,6.8,2c1.9,0,3.9-0.4,5.7-1.3c7.4-3.7,10.5-10.4,10.3-18.4c-0.2-6.4,2.3-10.9,8.1-13.5c1.1-0.5,2.2-0.9,3.3-0.9
		c0.5,0,1,0.1,1.5,0.2c1.7,0.5,3.2,1.4,3.2,3.3c0,2-1.4,2.8-3.2,3.2c-7.6,2-7.8,2.4-6.3,10.2c1.2,6.1-1.1,11-4.8,15.6
		c-2,2.5-3.7,5-3.8,8.4c0,3.1,1.2,5.1,3.9,6.3c0.7,0.3,1.3,0.4,1.9,0.4c1.8,0,3.3-1.3,4.7-2.6c2.2-2.1,2.6-4.8,2.8-7.7
		c0.2-3.4,0.7-7.9,4.8-7.9c0.1,0,0.1,0,0.2,0c3.7,0.1,4,4.8,4.5,8c0.7,4.3-0.7,8.4-2.4,12.5c-0.9,2.3-4.3,4.9-2,7
		c3.4,3.2,5.6,8.3,11.6,8.3c0.1,0,0.2,0,0.4,0c7.4-0.3,14.5-1.7,21.7-3.3c3.4-0.7,6.7-1.2,10.1-1.2c2.4,0,4.8,0.2,7.2,0.8
		c2.8,0.6,5.4,1.7,7.5,3.7c1.9,1.8,3.4,3.8,1.3,6.4c-0.9,1.1-1.8,1.5-2.8,1.5c-1.2,0-2.3-0.6-3.4-1.4c-5.2-4.1-10.8-5.4-16.5-5.4
		c-4.1,0-8.3,0.7-12.5,1.5c-1.9,0.4-3.7,1.3-5.2,2.7c-2.4,2.2-3.5,4.9-2.7,8c0.5,2,2.2,3.1,4,3.2c0.2,0,0.5,0,0.7,0
		c3,0,5.9-0.7,7.4-3.7c1.3-2.6,2.7-5.2,4.6-7.4c0.8-1,1.8-2.1,3-2.1c0.5,0,1,0.2,1.5,0.6c2,1.4,1.2,3.4,0.4,4.9
		c-1.4,2.6-3.3,4.9-4.7,7.5c-3.5,6.3-0.8,10.8,6.4,10.9c0,0,0,0,0.1,0c0.5,0,0.9,0,1.4,0c0,0,0,0,0.1,0c8,0.1,10.5,3.6,7.7,11.1
		c-0.7,1.9-1.9,4-0.1,5.5c0.6,0.5,1.2,0.7,1.8,0.7c1.2,0,2.6-0.8,3.7-1.5c3.7-2.3,7.6-4.1,12-4.7c0.5-0.1,0.9-0.1,1.4-0.1
		c2.1,0,4,0.7,4.8,2.9c1,2.5-1.2,3.8-2.9,5c-8.8,6.3-8.9,7.4-0.9,15.2c0.8,0.8,1.7,1.6,2.5,2.5c2.1,2.4,1.9,4-1.3,5.1
		c-3.1,1.1-6.2,1.6-9.5,1.6c-0.1,0-0.2,0-0.3,0c-0.1,0-0.2,0-0.4,0c-1.7,0-3.4,0.1-5,1c-1,0.5-1.7,1.1-1.3,2.3c0.2,0.8,0.9,1,1.5,1
		c0.2,0,0.4,0,0.6,0c2-0.2,3.9-0.5,5.9-0.7c0.4,0,0.9-0.1,1.3-0.1c0.9,0,1.7,0.2,1.9,1.4c0.2,1.3-1.3,1.8-2.4,2.1
		c-3.8,1-7.5,1.5-11.3,1.5c-4.4,0-8.9-0.8-13.2-2.5c-6-2.3-12.2-3-18.6-3.1c-0.1,0-0.3,0-0.4,0c-2.1,0-3.2,0.5-3.2,3.1
		c0.1,5.4-4,7.2-8.2,8.5c-12.2,3.9-24.5,7.3-37.3,7.3c-3.4,0-6.9-0.2-10.3-0.8c-4.2-0.6-8.3-0.8-12.5-0.8c-6.1,0-12.3,0.4-18.4,0.6
		c-0.1,0-0.1,0-0.2,0c-0.6,0-1.3-0.1-2.1-0.1c-2,0-3.8,0.5-3.2,4.3c0.2,1.6-2.9,2.4-4.9,2.5c-0.2,0-0.4,0-0.6,0
		c-5.8,0-11.1-1.9-15.7-5.2c-3.6-2.6-7.2-3.6-10.8-3.6c-4.3,0-8.6,1.4-12.9,2.9c-0.9,0.3-2,0.9-2,2c0,1.4,1.3,1.7,2.4,2.2
		c1.4,0.6,2.8,0.8,4.2,0.8c1.2,0,2.5-0.1,3.7-0.3c0.4,0,0.8-0.1,1.2-0.1c1.2,0,2.2,0.3,2.6,1.6c0.6,1.8-1,2.7-2.3,3.3
		c-1.7,0.8-3.6,1.2-5.7,1.2c-6.4,0-13.9-3.7-16.4-8.9c-1.6-3.5,0.2-6,2.1-8.6c0.9-1.2,3.7-1.4,2.5-3.5c-0.6-1.1-1.9-1.5-3.2-1.5
		c-0.6,0-1.3,0.1-1.9,0.2c-5.1,1.2-10.2,1.2-15.3,1.9c-4.6,0.7-9.1,1.8-13.8,2.4c-3.4,0.5-3.4,1.9-1.5,4.1c1.8,2.1,2.3,4.4,1.8,6.9
		c-0.3,1.5-1.4,2.2-2.8,2.3c-0.1,0-0.2,0-0.3,0c-1.1,0-1.7-0.5-2.1-1.8c-2-6-5.5-8.6-12.2-8.6c-0.1,0-0.1,0-0.2,0
		c-4.7,0-9.5,0.7-14.2,1.1c-0.9,0.1-1.8,0.1-2.7,0.1c-6.4,0-12.4-1.6-18.5-4.2c-8.5-3.7-17.5-6-26.4-8.7c-0.8-0.2-1.6-0.3-2.4-0.3
		c-2.5,0-5,1-7.4,1.4c-3.6,0.7-7.2,1.1-10.8,1.1c-5.3,0-10.5-1-15.4-3.9c-1.4-0.8-3-1-4.5-1c-0.7,0-1.4,0-2.1,0
		c-1.4,0-2.8-0.1-4.1-0.8c-5.6-2.9-11.5-3.3-17.4-3.3c-2.1,0-4.2,0.1-6.3,0.1c-0.2,0-0.4,0-0.6,0c-10.6,0-20.4-4.1-30.4-6.9
		c-5.5-1.6-5.7-3-2.3-8.2c6.4-9.8,13.2-19.2,25.5-22.6c3.8-1,5.2-6.3,5.1-9.1c-0.3-11.8,5.5-20.2,13.2-27.7c2.9-2.8,5-6.2,8.2-8.8
		c2.7-2.3-0.4-4.1-2.3-5.1s-4.3-1.5-6.8-1.5c-5.4,0-11.3,2.2-14.8,5.8c-5.6,5.7-8.9,12.5-10.2,20.3c-0.1,0.3-0.1,0.7-0.2,1
		c-1,4.2-3.9,7.4-6.6,7.4c-0.3,0-0.5,0-0.8-0.1c-2.6-0.7-4-5.8-3.2-10c1.2-6.3,4.5-11.2,8.6-15.8c1.2-2.2,2.5-4.2,5-5.1
		c1.3-2,2.8-3.7,4.9-4.9c0.4-1.7,1.7-2.4,3.2-2.8c7.2-5.7,15.7-8.5,24.3-11.2c5.8-1.8,11.2-4.2,13.6-10.5c0.2-0.4,0.5-1,0.9-1.1
		c3.1-1.3,6.1-3,5-6.8c-1.2-4.3-3.3-8.3-8-9.9c-3.8-1.3-6.8-3.2-8.4-7.2c-0.7-1.8-0.9-3.6-0.2-5.3c0.6-1.7,1.4-3.5,3.5-3.8
		c0.2,0,0.4-0.1,0.6-0.1c1.8,0,2.9,1.3,3.8,2.7c1.9,3.1,3.5,6.4,5.2,9.6c2,3.7,6,5.7,10,5.7c2.3,0,4.5-0.7,6.4-2
		c2.3-1.6,1.1-2.6-0.4-3.8c-2-1.5-4-3-5.1-5.3c-0.6-1.1-1-2.8,0.4-3.6c0.4-0.2,0.7-0.3,1-0.3c0.9,0,1.3,1.1,1.6,2.1
		c0.2,0.6,0.8,1,1.4,1.4c1.4,0.9,3,2.5,4.5,2.5c0.5,0,1-0.2,1.5-0.6c1.8-1.5,0.6-4.1-0.4-6.3c-2.9-6.3-6.2-12-11.9-16.2
		c-4.9-3.6-7.4-8.8-8.4-14.6c-1-5.6-4.1-9.6-8.8-12.6c-1.1-0.7-2.2-1.5-3.1-2.5c-1-1-1.3-2.4-0.2-3.6c0.5-0.5,0.9-0.7,1.3-0.7
		c0.8,0,1.5,0.8,2.1,1.3C90.1,75.9,96.7,82,99.3,91c2,7.1,6.9,11.9,13.2,15.5c2,1.1,3.5,1.7,4.8,1.7c2.1,0,3.7-1.6,5.4-4.9
		c0.7-1.5,1.4-2.9,2.1-4.4c0.5-1.9,1.5-3.3,3.7-3.3c1.7-2.4,3.5-4.7,5.1-7.1c1.1-1.7,2.5-3.5,1.8-5.6c-0.9-2.8-0.2-4.7,2.3-6.2
		c3-1.7,1.3-2.8-0.6-3.4c-2-0.6-4.2-1-6.3-1.3c-2.8-0.3-5.3-1.8-5.4-4.2c-0.1-3,2.9-4,5.6-4.3c0.3,0,0.5,0,0.8,0c3,0,5.3,2,7.9,3.2
		c0.7,0.2,1.3,0.3,2,0.3c2.7,0,4.8-1.6,6.9-3.3c10.2-11.5,22.2-20.9,36-27.8c2.6-1.3,5.2-2,8.1-2c1.3,0,2.5,0.1,3.9,0.5
		c0.8,0.2,1.7,0.3,2.5,0.3c3.1,0,6.2-1.4,8.8-3.1c4.7-3.2,9.9-5,15.4-6c2.3-0.4,3.8-1.4,4-3.8c0.2-2.3,1.3-3.8,3.6-4
		C229.9,17.5,230,17.5,230.1,17.5 M230.1,2.5L230.1,2.5c-0.4,0-0.8,0-1.2,0c-6.5,0.4-12,3.9-15,9.3c-5.7,1.6-10.8,3.9-15.4,7
		c-0.3,0.2-0.5,0.3-0.7,0.4c-2-0.4-4.1-0.6-6.1-0.6c-5,0-10,1.2-14.8,3.6C163,29.1,150.5,38.5,139.5,50c-2.3-0.9-5.2-1.7-8.6-1.7
		c-0.8,0-1.7,0-2.5,0.1c-13.5,1.6-19.2,11-18.9,19.8c0.2,6.2,3.4,11.5,8.4,14.9c-1.8,1.1-3.4,2.6-4.8,4.3c-0.1-0.3-0.2-0.5-0.3-0.8
		c-3.3-11.7-10.8-19.4-16.9-25.7c-0.7-0.7-1.3-1.4-2-2.1c-3.8-4-8.1-6-12.9-6l0,0c-4.7,0-9.1,2-12.4,5.6c-6.2,6.9-6,17.2,0.5,24
		c1.7,1.7,3.6,3.3,5.9,4.7c1.8,1.2,1.9,1.9,2.1,2.7c0.7,4,2,7.7,3.6,11.1c-0.5,0-0.9,0.1-1.4,0.2c-4.9,0.8-11.5,3.8-15.2,13.4
		c-1.9,5.2-1.8,10.8,0.3,16.2c2.2,5.4,5.8,9.7,10.9,12.8c-0.2,0.4-0.3,0.7-0.5,1.1c-0.3,0.2-1.3,0.8-4.2,1.7
		c-8.1,2.6-18.1,5.7-27.2,12.3c-3.3,1.5-5.5,3.6-7.1,5.7c-1.4,1.1-2.6,2.4-3.8,3.8c-3.6,2.5-5.7,5.6-7.1,7.8
		c-4.1,4.8-9.3,12-11.1,21.8c-1.9,9.9,1.7,21.6,10.8,26.1c-6.4,5.5-11.3,12.3-15.7,19.1C7.3,246,2.5,253.4,5.8,262
		c3.2,8.6,11.7,10.9,14.4,11.7c2.2,0.6,4.4,1.3,6.8,2.1c8.1,2.6,17.3,5.4,27.6,5.4c0.3,0,0.6,0,0.9,0c0.7,0,1.3,0,2,0
		c1.4,0,2.8-0.1,4.1-0.1c4.4,0,7.8,0.3,10.6,1.7c4.2,2.2,8.3,2.4,10.9,2.4c0.3,0,0.7,0,1,0c6.3,3.3,13.2,4.8,21,4.8
		c4.1,0,8.4-0.4,13.5-1.4c1.4-0.2,2.6-0.6,3.6-0.8c0.2-0.1,0.5-0.1,0.8-0.2c1.5,0.5,3.1,0.9,4.6,1.3c6.7,1.9,12.9,3.8,18.6,6.3
		c8.4,3.7,16.4,5.5,24.5,5.5c1.3,0,2.5,0,3.8-0.1c1.9-0.1,3.7-0.3,5.5-0.5c2.3-0.2,4.5-0.4,6.5-0.5c2.8,6.5,8.7,10.4,15.7,10.4
		c0.5,0,1.1,0,1.7-0.1c8.2-0.7,14.6-6.3,16.2-14.2c0.1-0.3,0.1-0.5,0.1-0.8c0.3,0.7,0.6,1.5,0.9,2.3c2.6,5.4,7.2,10,13.3,13.2
		c5.2,2.7,11.1,4.2,16.7,4.2c4.5,0,8.7-0.9,12.4-2.8c3-1.5,5.3-3.3,6.9-5.3c5.1,2.2,10.5,3.3,16.1,3.3c0.3,0,0.6,0,1,0
		c3.1-0.1,10.7-0.9,15.7-6.8l0.1-0.1c0.7,0,1.5-0.1,2.2-0.1c3.6-0.2,7.1-0.3,10.4-0.3c4,0,7.3,0.2,10.3,0.7c4.1,0.6,8.4,1,12.6,1
		c15.5,0,29.8-4.2,41.9-8.1c3.3-1.1,7.2-2.6,10.8-5.5c1.7-1.4,3.1-3,4.2-4.7c2,0.3,3.8,0.8,5.4,1.4c5.9,2.3,12.2,3.5,18.7,3.5
		c4.8,0,9.9-0.7,15-2c1.5-0.4,3.9-1.1,6.3-2.7c3-2,5.2-4.7,6.4-7.9c5.7-3.2,7.8-8,8.5-10.8c0.8-3.3,1.4-9.6-4.1-16.1
		c0.5-0.6,1-1.2,1.5-1.9c3.6-5,4.4-11.1,2.1-16.9c-3-7.7-10.2-12.5-18.8-12.5c-1.1,0-2.1,0.1-3.3,0.2c-0.6,0.1-1.1,0.1-1.6,0.2
		c-0.3-0.5-0.5-1-0.8-1.4c3.4-1,6.6-3.1,9-6.1c4.3-5.2,5.6-11.6,3.6-17.7c-1.4-4.3-4.1-7.3-6-9.1c-3.9-3.7-8.8-6.3-14.7-7.6
		c-3.4-0.7-6.8-1.1-10.4-1.1c-4.2,0-8.6,0.5-13.3,1.5c-4.5,1-8.5,1.8-12.4,2.4c1.3-4.4,2-9.2,1.2-14.6c0-0.2-0.1-0.5-0.1-0.7
		c-0.3-2.1-0.8-5.3-2.3-8.6c-1.8-3.9-4.5-6.9-7.9-8.8c4.2-3.8,5.9-8.9,5.8-13.4c0-6.4-3.6-14.3-13.5-17.6c-2-0.6-4-1-6.1-1
		c-1.4,0-2.8,0.2-4,0.4c3.9-20.3-2-38.1-9-54.4c-1-3.3-2.7-6.2-5.1-8.5c-1.1-3.4-2.7-7.1-5.4-10.4c-2.9-3.6-7.8-7.9-15.5-9.6
		c-7.5-7.2-16.6-9.3-23.5-11c-0.8-0.2-1.5-0.4-2.3-0.6c-1.2-0.3-2.2-1-3.2-2.1c-2.1-4.6-6-8.1-10.8-9.7c-7.8-4.1-15.9-6.2-23.9-6.2
		c-6.1,0-12.2,1.2-18.2,3.6C239.9,4.5,235.2,2.5,230.1,2.5L230.1,2.5z"/>
</g>
</svg>
