<?xml version="1.0" encoding="utf-8"?>
<!-- Generator: Adobe Illustrator 24.1.0, SVG Export Plug-In . SVG Version: 6.00 Build 0)  -->
<svg version="1.1" id="Livello_1" xmlns="http://www.w3.org/2000/svg" xmlns:xlink="http://www.w3.org/1999/xlink" x="0px" y="0px"
	 viewBox="0 0 474 486.2" style="enable-background:new 0 0 474 486.2;" width="50" height="50" xml:space="preserve">
<style type="text/css">

		.Stile_x0020_grafica{fill:#FEFEFE;stroke:#000000;stroke-width:15;stroke-linecap:round;stroke-linejoin:round;stroke-miterlimit:10;}
	.st0{fill:#FEFEFE;}
</style>
<g>
	<path class="st0" d="M250.8,466.5c-7.4,0-14.9-0.1-22.1-0.3l-0.4,0c-11.1-0.2-21.9-1.8-32-3.5c-13.3-2.2-24.7-5-34.9-8.5
		c-9.2-3.1-21.1-7.7-32.2-15c-9.1-6-15.6-12.4-20.3-20c-1-1.6-1.8-3.2-2.4-4.9c-1.6,0.9-3.5,1.8-5.9,1.8c-2,0-5-0.6-7.6-3.7
		c-0.2-0.1-0.5-0.4-0.8-0.6c-0.6-0.4-1.4-1-2.2-1.6l-0.2-0.2c-3-2.5-3.9-5.1-3.9-7.4c-0.2-0.1-0.4-0.3-0.7-0.4
		c-1.8-1.1-3-2.8-3.5-4.8s-0.1-4.1,1.1-5.8c2.3-3.5,5.3-4.2,7.4-4.2c1.4,0,2.7,0.3,4,1c0.1,0.1,0.6,0.2,0.9,0.3
		c1.1,0.3,2.6,0.8,4.1,1.8c2-2.5,4.7-4.4,7.8-5.6c0-0.2,0.2-0.6,0.2-0.7c0,0,0,0,0,0c-1.5-0.9-3-1.7-4.4-2.4
		c-4.1-2.1-6.4-5.8-6.3-10.3c0-0.7,0-1.4,0-2.1c-0.1-3.3-0.2-7.8,2.5-12.1c-1-3.1,0.1-5.7,0.8-6.9c1.4-2.4,3.9-3.8,6.5-3.8
		c0.9,0,1.9,0.2,2.8,0.5c2.4,1,4.3,2.6,5.7,4.5c1.1-0.9,2.6-1.6,4.1-1.8c0.1,0,0.2,0,0.3,0c1-1.9,2.8-3.7,5.9-4.4
		c2.3-0.5,4.6-0.8,6.9-0.8c0.3,0,0.7,0,1,0c-1.7-1.1-3.3-2.5-4.7-4.3c-5-6-3.6-12.6-2.9-15.5c0.3-1.5,0.9-2.7,1.3-3.6
		c0.1-0.2,0.2-0.3,0.2-0.5c0.8-4.7,3.2-8.3,7.3-11.1c-0.8-3.7,0.9-7.4,4.3-9.2c1.1-0.6,2.4-0.9,3.7-0.9c2.7,0,5.2,1.4,6.9,3.7
		l0.3,0.3c3.7,5.1,3.8,9.9,0.1,14.5c-0.9,1.1-1.8,2.7-2.7,4.2l-0.2,0.3c0.8,0.6,1.9,0.9,3,0.9c1.2,0,2.3-0.4,3.2-1
		c1.9-1.4,3.8-2.1,5.9-2.1c0.5-1.3,1.3-2.4,2.3-3.3c0.6-0.5,1.2-0.9,1.9-1.1c0.1-2.1,0.8-3.9,1.8-5.5c-0.6-0.4-1.2-0.9-1.8-1.5
		c-2-2-3-4.8-2.9-7.8c0.1-3.1,0.4-6,0.8-8.9c0.1-1.2,0.3-2.3,0.4-3.5c0.2-1.7,0.8-3.3,1.8-4.8c-2-4.2-0.5-8.3,2.4-10.5
		c0.5-0.4,1.1-0.7,1.7-1c-0.6-3.3-1.9-4.5-3-5.2c-3-1.9-4.7-4.6-5.1-8c-0.3-3.6-1.4-7.3-3.2-11.4c-1.5-1.1-2.6-2.7-3-4.5
		c0-0.1,0-0.2,0-0.2c-2.1-2.1-3-4.8-2.7-8.1c0.2-2.6-0.2-3.2-0.2-3.2c0,0,0,0,0,0c0,0-0.2-0.2-0.7-0.4c-2.5-1-4.4-2.4-5.9-3.6
		c-0.9-0.7-2-1.5-2.5-1.7c-2.6-0.6-4.9-2.5-6-4.9c-0.8-1.9-1-4-0.4-6c-1.5-0.6-3.6-0.9-6.7-1.2c-0.1,0-0.2,0-0.3,0
		c-0.1,0-0.7,0-0.7,0c-1.8,0-3.3-0.2-4.8-0.7c-1.5,1.5-3.6,2.7-6.5,2.7c-0.8,0-1.6-0.1-2.4-0.3c-1.1,0.4-2.2,0.6-3.3,0.6
		c-6.2,0-8.9-5.4-10-7.4c-2.5-5-6.1-9.3-9.6-13.3l-0.2-0.2c-4-4.5-4-8.5-2.9-11.5c-2.7-2.8-4.7-5.9-6-9.3c-0.7-1.9-2.4-3.7-4.4-5.8
		c-1-1-2.1-2.1-3.1-3.3c-0.1-0.1-0.2-0.2-0.3-0.2c-0.3-0.3-0.6-0.5-0.9-0.8l-0.2-0.1c-4.6-4.3-3.9-8.5-3.1-10.7
		c1.3-3.3,4.2-5.4,7.9-5.6c0.2-0.3,0.5-0.7,0.8-1c-0.7-1.3-1.3-2.5-1.8-3.7c-1.1-2.5-1.9-4.1-3-4.9c-1-0.7-2-1.4-2.9-2.1
		c-0.4-0.3-0.8-0.6-1.2-0.8c-1.9-0.7-3.3-1.9-4.3-3.6c-1.1-2-1.3-4.3-0.6-6.5c1.1-3.5,4.4-5.8,8.2-5.8c0.8,0,1.5,0.1,2.3,0.3
		l0.8,0.2c1.7,0.4,3.7,0.8,5.7,1.6c0.8,0.3,1.6,0.6,2.5,0.9c1.3,0.4,2.6,0.9,3.9,1.5c0-0.3,0.1-0.5,0.1-0.8c0-0.2,0-0.4,0.1-0.5
		c-0.3-2.3,0.4-4.7,1.9-6.5c1.6-1.9,4-2.9,6.5-2.9c0.6,0,1.2,0.1,1.8,0.2c1-1.3,2.3-2.3,4-3c2-0.8,3.5-2.1,4.5-3.7
		c1-1.6,2.3-2.8,3.3-3.5c4.2-3.2,3.8-4.4,2.7-6.8c-0.2-0.4-0.4-0.8-0.6-1.4c-0.6-1.2-1.9-3.9-0.8-7.2c0.7-2.2,2.3-3.9,4.5-4.9
		c1.1-0.5,2.3-0.8,3.6-0.8c0.7,0,2.2,0.1,3.8,1c0.2-0.3,0.5-0.5,0.8-0.7c-0.1-0.1-0.2-0.3-0.2-0.4c-1.6-3-1.4-5.6-0.8-7.2
		c0.7-2.2,2.3-4,4.5-5c1.2-0.6,2.5-0.8,3.7-0.8c2.6,0,6,1.4,7.6,5.1c0,0,0.1,0,0.1,0.1c3.8,2.7,5.4,6.4,6.5,9.3
		c0.1,0.2,0.1,0.4,0.2,0.6c0.1,0,0.1,0,0.2,0c0.3-0.1,0.6-0.1,1.9-1.4c0.5-0.4,0.9-0.9,1.4-1.3c0.8-0.8,1.8-1.7,2.8-2.6
		c-0.2-3,0.5-6.4,3.7-9c-0.6-1.2-1-2.5-0.9-3.9c0.1-2.5,1.5-4.8,3.6-6c0.7-0.5,2.1-1.4,4.1-1.7c-1.6-3.3-2.1-7.3-1.6-12.1
		c0.1-1.3,0.2-2.7,0.3-4c0.4-4.5,3.9-7.8,8.5-7.8c0.2,0,0.4,0,0.6,0c2.2,0.1,4.2,1.1,5.6,2.7c1.4,1.6,2.1,3.6,2,6
		c0,1.5,1,3.3,2.2,4.2c0.6-0.1,1.1-0.1,1.7-0.1c2.7,0,6.3,0.8,9.6,3.9c1.2,0.2,2.4,0.8,3.4,1.7c1.6,1.4,2.8,2.8,3.6,4.3
		c0.1,0,0.3,0,0.4,0c2.4,0,4.7,1,6.4,2.8c0,0,0.1,0.1,0.1,0.1c0.2-0.3,0.4-0.6,0.7-0.8c1.6-1.7,3.8-2.7,6.1-2.7c2.4,0,4.2,1,5.5,1.9
		c0.6-0.7,1.3-1.4,2.1-2.1c-0.5-1.5-0.6-3-0.4-4.4c0.7-3.9,4.2-6.7,8.2-6.7c1.1,0,2.2,0.2,3.2,0.7c0.2,0,0.3,0.1,0.5,0.1
		c1.6,0.2,4.5,0.7,7.1,3c0.7,0.6,1.5,1.2,2.3,1.7c-0.2-3,1-5.8,3.6-8.5c0.1-0.1,0.2-0.2,0.3-0.3l0.6-0.8c1-1.3,1.9-2.6,2.7-3.9
		c2.3-3.6,6-5.7,10.2-5.7c0.4,0,0.9,0,1.3,0.1c1.4-1,3-1.5,4.7-1.5c2.9,0,5.5,1.5,7.1,4.2c1.3,2.2,1.8,4.6,1.5,6.9
		c3.8,0.9,7.1,3.4,9.3,7.4c0.6,1.1,1.2,2.3,1.8,3.4c0.9,1.8,1.8,3.5,2.8,5c1.9,2.9,2.5,6.3,1.9,9.8c1,0,2,0.2,2.9,0.6
		c1.4-2.9,4.2-4.8,7.5-4.8c0.1,0,0.2,0,0.3,0c2.4,0.1,4.7,1.2,6.2,3c1.4,1.6,2.1,3.8,2,6c0.2,0,0.4,0,0.6,0c1.4,0,2.8,0.4,4,1.1
		c3.1,1.9,4.9,5,5.1,8.4c0.1,0.3,0.4,0.8,0.7,1.2c0.2,0.3,0.4,0.6,0.6,0.9c5.7,2.5,8.6,7.2,10.8,10.7c0.6,1,1.2,2,1.8,2.7
		c1.1,1.6,1.6,3.1,1.8,4.6c0.6,0.8,1.1,1.9,1.5,3.1c0,0,0.1,0.1,0.1,0.1c0.4,0.6,0.8,1.3,1.2,2.1c1.4,0.5,2.6,1.1,3.7,1.8
		c1-1.2,2.5-2.1,4.1-2.6c0.8-0.2,1.6-0.3,2.4-0.3c1.8,0,4.4,0.5,6.7,3.1c3.7,4.2,5.7,8.9,7.5,13.1c0.3,0.8,0.6,1.5,1,2.3
		c0.3,0.6,0.6,1.3,0.8,2c2,4.8,3.3,7.2,5.7,8c2.4,0.8,4.4,2.5,5.4,4.7c0.2,0.5,0.5,1,0.8,1.6c1.6,3.2,4,7.9,3.1,13.5
		c2.5-3.3,5.5-6,8.9-8c2.3-1.4,4.7-1.4,5.4-1.4c0.1,0,0.1,0,0.2,0c0.9-0.4,2-0.6,3-0.6c0.8,0,1.7,0.1,2.5,0.4c2.5,0.9,4.3,3,4.8,5.6
		c0.4,1.9,0.7,6.5-4.1,9.6c-2.6,2.4-3.7,4.3-4,6.8l-0.1,0.9c-0.2,2.2-0.5,4.9-1.7,7.7c2.7,0.3,4.4,1.6,5.4,2.7c2.5,2.8,2,6,1.8,7.4
		c0,0-0.1,0.9-0.2,1.3c-0.1,0.9-0.3,2.3-0.2,2.7c1.8,4.7-0.1,9.6-4.6,11.8c-1.9,0.9-3.8,2.3-5.7,3.8c-1.5,1.1-3,2.2-4.7,3.3
		c-1.3,0.8-2.8,1.8-4.8,2.5c-0.4,2.7-2,5.2-4.6,6.8c-4.5,2.8-7.8,5.6-10.3,8.6c-1.9,2.3-4.2,3.8-6.1,4.9c-0.9,0.6-1.8,1.1-2.3,1.6
		c-1.8,1.6-4,2.6-6.3,2.8c-0.4,1.8-1.1,3.5-2.1,5.3c-0.1,0.4-0.1,1.3-0.1,1.9c0,0.7,0,1.6,0,2.5c0,0.1,0,0.3,0,0.4
		c0,0.6,0,1.3-0.2,2.2c-0.8,5.2-4.3,7.9-7.8,8.4c-0.1,1.6,0,2.7,0.4,3.6c2,4.1,0.6,8.7-3.3,11.4c-0.4,0.3-0.9,0.7-1.3,1.8
		c-0.9,2.5-2.5,4.7-4.8,6.7c-0.5,0.4-1,0.9-1.5,1.3c-2.5,2.2-4.7,4.1-5.9,6.3c-1.5,2.8-4.1,4.6-7,4.8c-1.8,3.4-4.3,5.7-6.4,7.6
		c0.5,0.6,0.9,1.3,1.3,2.1c0.4-1.3,1-2.5,1.9-3.6c2-2.5,4.8-3.8,8-3.8c1.2,0,2.4,0.2,3.7,0.6c4.1,1.2,7.3,4,8.9,7.8
		c1.5,3.7,1.3,8-0.8,11.7c-0.1,0.2,0,1.3,0,2c0,0.9,0,1.9,0,3c0,0.4,0,0.8,0,1.2c1.7,1.9,2.4,4.3,2.1,6.9c1.2-0.7,2.6-1.1,4-1.1
		c0.7,0,1.4,0.1,2.2,0.3c0.7,0.2,1.4,0.5,2.1,0.8c-1.7-1.9-3.8-5.6-1.2-11.4l0.1-0.2c0.5-1.1,1-2.2,1.5-3.1c0.7-1.3,1.2-2.4,1.5-3.4
		c1.2-4,4.1-6.6,8.3-7.2c1.3-0.2,2.8-0.6,4.4-1.1c0.1,0,0.2-0.1,0.3-0.1c1.4-2.6,4-4.3,7.1-4.3c0.3,0,0.7,0,0.9,0.1
		c2.7,0.3,5.2,2,6.4,4.5c2.6,5.1-0.4,11.8-3.6,14.5c-1,0.8-2,1.6-2.9,2.3c3.3,1.8,7.1,4.6,9.6,9.4c1.9,3.6,2,7.2,0.5,10.7
		c2.1,0.3,5.2,1.6,6.9,6c0.6,1.3,0.9,2.5,1.2,3.6c0.3,0.9,0.6,2,0.8,2.3c0.4,0.5,0.7,1,0.8,1.3c1.4,2,3.7,5.3,3,9.4
		c-0.5,2.9-2.2,4.9-4.1,6.4c5.1,2.8,8.6,7.9,9.4,14c0.3,2.1,0.2,4-0.3,5.8c4,4.7,2.8,9.2,0.8,13c0.1,0.6,0.2,1.4,0.1,2.3
		c-0.2,9.5-3.4,17.8-9.6,24.7c-7,8-16,14.4-28.2,20.2c-8.6,4.1-18.2,7.7-29.3,10.8c-9.5,2.7-19.5,4.8-29.6,6.3
		c-7.3,1-15.2,2.1-23.1,2.5C266.6,466.3,259.2,466.5,250.8,466.5z M144.2,350c0,0,0.1-0.1,0.1-0.1c-0.1,0-0.2-0.1-0.4-0.1
		C144.1,349.8,144.2,349.9,144.2,350z M346.5,333.1C346.5,333.1,346.5,333.1,346.5,333.1C346.5,333.1,346.5,333.1,346.5,333.1z
		 M181.1,289.7c3.3,0.9,5.8,2.8,7.6,4.4c-1.5-2.2-3.3-3.5-5.8-4c-0.6-0.1-1.2-0.3-1.8-0.5C181.1,289.6,181.1,289.7,181.1,289.7z"/>
	<path d="M263.2,37.2c0.2,0,0.4,0.1,0.6,0.5c0.6,0.9,0.9,2.3-0.2,3.2c-0.5,0.4-1.2,0.9-1.9,0.9c0,0-0.1,0-0.1,0c-0.1,0-0.3,0-0.4,0
		c-2.5,0-3.9,1.9-5.4,3.5c-0.9,1-1.8,2.2-0.7,3.6c0.6,0.8,1.2,1.1,1.9,1.1c0.5,0,1.1-0.1,1.7-0.4c3.1-1.1,6.5-1.6,9.8-1.7
		c0.1,0,0.2,0,0.3,0c2.5,0,4.4,1.7,5.6,3.9c1.6,2.9,3,6,4.9,8.8c1.8,2.8,0.8,7-2,9.9c-3.3,3.5-7.3,5.3-11.7,6.9
		c-3.7,1.4-7.1,3.7-8.8,7.6c-0.3,0.7-0.6,1.4-0.4,2.1c0.7,3.2,0.6,6.6,2.9,9.7c0.7-1.6,1.5-3,3-3c0.3,0,0.7,0.1,1.1,0.2
		c0.3-1.6-1-2.6-1.7-3.7c-1.9-2.9-1.6-4.7,1-6.8c1.7-1.4,3.8-2.2,5.9-2.5c1.9-0.2,3.4-0.5,4-2.6c0.1-0.4,0.4-0.8,0.8-0.8
		c0,0,0.1,0,0.1,0c0.6,0.1,0.5,0.6,0.5,1.1c-0.1,2.1,0.4,4.4-2.8,5.1c-1.3,0.3-2.4,1.7-1.8,3.8c1.5,6.2,2.7,7.5,8.7,8.6
		c0.4,0.1,0.8,0.2,1.2,0.2c0.5,0,0.9-0.1,1.2-0.6c0.4-0.7-0.4-1.4-0.9-1.8c-1.4-1.3-2-2.8-1.7-4.6c0.4-2.7-1.4-4.8-1.9-7.3
		c-0.2-1-0.6-2,0.3-2.4c3.4-1.7,5.5-5.6,9.8-5.7c0.4,0,0.8-0.1,1.2-0.1c0.4,0,0.7,0.1,0.9,0.6c0.4,0.9,0,1.6-0.7,2.1
		c-0.6,0.5-1.4,1-1.8,1.6c-1.8,2.4-0.7,8.9,1.8,10.7c0.2,0.1,0.4,0.2,0.6,0.2c0.1,0,0.3-0.1,0.4-0.2c1.3-2.1,3.5-2,5.6-2.3
		c5.6-0.9,7.4-4.9,3.9-10c-1.4-2-0.9-4-0.7-6c0.1-0.4,0.3-0.9,0.8-0.9c0,0,0,0,0,0c0.7,0,1,0.5,0.9,1.1c-0.2,1.6,0.6,3,0.8,4.6
		c0.1,0.9,0.4,1.7,1.1,2.1c3,1.8,3.1,5,3.9,7.8c0.4,1.7-0.6,3.3-1.4,4.9c-1.2,2.1,1.1,7.3,3.4,8c0.2,0.1,0.4,0.1,0.6,0.1
		c1.1,0,1.2-1.2,0.9-1.7c-1.7-3.1-0.9-6.3-0.8-9.5c0-2.4,0.3-4.8-0.7-7.2c-0.1-0.3-0.2-0.9,0.4-1.3c0.9,0.6,1.5,1.4,1.5,2.4
		c0,2.9,2.1,4.8,3.1,7.2c0.1,0.4,0.6,0.8,1,0.9c6.1,1.6,8,7.2,11.2,11.6c0.8,1.1,0.2,2.3-0.2,3.4c-0.3,0.9-0.6,1.7-0.8,2.6
		c-0.1,0.9,0.1,1.5,1,1.6c0,0,0.1,0,0.1,0c0.9,0,0.2-1,0.6-1.3c0.6-0.5-0.8-1.6,0.5-1.7c0.1,0,0.1,0,0.2,0c0.9,0,0.6,1,0.9,1.5
		c0.8,1.6,2.1,2.9,2.3,4.9c0.1,0.8,1.1,1.2,1.9,1.3c3.9,0.3,5.9,3.6,8.8,5.5c5.3,3.5,5.3,9.8,8.3,14.5c1.3,2.1,1.7,4.2,0.4,6.6
		c-0.6,1.2,0.6,2.5,0.7,3.8c0.3,3.6,0,7.3,1.1,10.8c0.3,1.1,0.4,2.5-0.6,3.7c-1.1,1.3-0.4,2.5,0.7,3.6c0.4,0.4,0.7,0.6,1,0.6
		c0.7,0,1.1-0.9,1.7-1.2c5.1-2.4,4.1-7.1,4.4-11.3c0-0.5-0.4-1.1-0.2-1.6c0.8-2.2,0.5-3.8-2.3-4.2c-0.8-0.1-1.3-0.7-1.2-1.6
		c0.2-3.8-2.5-6.7-3.4-10.2c-0.8-2.7-1.8-5.3-2.2-8c-0.1-0.9-0.5-1.5-1.1-2.1c-2-2.5-1.3-5.8-2.6-8.5c-0.1-0.3,0.1-0.7,0.5-0.8
		c0.1,0,0.2-0.1,0.3-0.1c0.4,0,0.8,0.3,1.1,0.6c3.5,3.9,5.1,8.7,7.2,13.4c2.4,5.3,4.3,11.8,11,14.1c0.4,0.1,0.9,0.5,1.1,0.8
		c1.8,3.8,4.3,7.6,2.9,11.9c-0.9,2.8-1.3,5.5-1.2,8.3c0,1.1,0.1,2-1.3,2.6c-1.4,0.6-1.2,2.1,0.2,2.7c1.4,0.6,1.5,1.7,0.9,2.6
		c-1.1,1.4-1.6,3.1-2.5,4.5c-0.3,0.4-1,0.6-0.4,1.3c0.3,0.3,0.6,0.4,0.9,0.4c0.2,0,0.4-0.1,0.6-0.2c0.7-0.4,1.3-1,1.9-1.5
		c0.4-0.3,0.9-0.4,1.3-0.4c1.1,0,2.1,0.7,1.8,1.5c-1.2,3.7,1.6,6.3,2.3,9.5c0.5,2.2,0.5,4-0.6,5.9c-0.3,0.5-1.3,0.9-0.6,1.5
		c0.4,0.4,0.9,0.8,1.5,0.8c0.2,0,0.5,0,0.7-0.2c2-0.9,4-1.8,5.8-2.9c0.7-0.4,2.1-1.4,1.4-2c-1.1-1-0.1-3.3-2.7-3.3c0,0,0,0-0.1,0
		c0,0-0.1,0-0.1,0c-2.5,0-3.4-1.9-2.2-4.3c1.2-2.4-0.2-4-1.3-5.7c-0.9-1.3-1.3-2.2,0-3.7c2.2-2.6,3.5-5.9,5.1-8.9
		c2.1-4.1,5.1-7.7,9.2-10.1c0.5-0.3,1.1-0.3,1.7-0.3c0.3,0,0.6,0,1,0c0.8,0,1.5-0.1,2.2-0.6c0.3,1.5-0.8,1.7-1.5,2.3
		c-3.6,3.2-6.2,6.7-6.8,11.9c-0.3,2.8-0.4,5.8-2.2,8.5c-2.1,3.1,1.8,8.5,5.7,8.5c0.1,0,0.3,0,0.4,0c0.3,0,0.5,0,0.7,0
		c1.2,0,1.1,0.5,0.9,1.8c-0.3,2.5-0.9,5.1,0,7.6c0.5,1.2,0,2-1,2.5c-4,2-7.3,5-11.1,7.4c-1.3,0.8-2.5,1.6-3.9,2
		c-2.7,0.8-4.7,2-4.3,5.3c0.1,1-0.5,1.6-1.2,2c-4.5,2.8-8.7,6-12.1,10.2c-2,2.5-5.3,3.5-7.7,5.7c-0.5,0.4-1.2,0.8-2,0.8
		c-0.5,0-1-0.1-1.5-0.5c-0.1-0.1-0.3-0.1-0.5-0.1c-1.4,0-4.2,2-4.2,3.3c0,2.4-0.6,4.5-1.8,6.6c-1.3,2.3-0.8,5-0.9,7.5
		c0,0.6,0,1.3-0.1,1.9c-0.2,1-0.6,2.1-1.7,2.1c0,0,0,0,0,0c-0.8,0-1-1.1-1.1-1.9c-0.2-1.5-1.5-2.6-1.3-4.3c-0.9,2.2-1.1,4.6-3.2,6.2
		c-0.3,0.2-0.3,1-0.3,1.5c0,4.3-1.2,8.6,0.8,12.7c0.4,0.9,0,1.5-0.8,2.1c-1.9,1.3-3.2,3.2-4,5.4c-0.5,1.5-1.6,2.7-2.7,3.7
		c-3.3,3-6.9,5.7-9,9.8c-0.2,0.4-0.6,0.8-1.1,0.8c-0.1,0-0.1,0-0.2,0c-0.4-0.1-0.8-0.1-1.1-0.1c-2.5,0-3.6,2.1-4.6,4
		c-1.6,3.1-4.4,5.1-6.8,7.5c-0.5,0.5-1.4,0.7-1.4,1.5c-0.3,4.8-2.8,9-3.7,13.6c-0.2,1.1-0.2,2.2-0.1,3.3c3.2-0.7,5.5-3.9,5.3-7.5
		c0-0.9-0.7-2.1,0.2-2.5c0.1-0.1,0.3-0.1,0.4-0.1c0.9,0,0.9,1.4,1.5,2c1.9,1.9,1.9,4.3,1,6.6c-0.7,1.7-0.6,3.5,1.1,4.1
		c1.3,0.5,1.3,2.8,2.7,2.8c0.3,0,0.6-0.1,0.9-0.3c3-1.5,6.1-3.2,7.3-6.6c0.4-1.2,0.9-1.8,2.1-2.2c1.5-0.5,2.3-1.8,1.9-3.5
		c-0.2-0.7-0.3-1.5-1.2-1.7c-0.1,0-0.2,0-0.3,0c-0.8,0-0.5,0.8-0.6,1.3c0,0.4-0.3,0.6-0.6,0.6c-0.1,0-0.1,0-0.2,0
		c-0.3-0.1-0.6-0.5-0.7-0.8c-0.5-1.3-0.3-2.5,0.5-3.6c0.6-0.8,1.4-1,2.2-1c0.6,0,1.1,0.1,1.7,0.3c3.9,1.1,5.6,5.1,3.7,8.6
		c-1.5,2.6-0.8,5.4-1,8c-0.1,1.6,0,3.2-0.3,4.8c-0.4,2.1-1.9,2.1-3.2,2.9c-3.3,2-4.7,7-3.3,10.6c0.3,0.7,0.6,0.9,0.9,0.9
		c0.3,0,0.5-0.2,0.8-0.4c1.4-1.2,2.6-2.6,4.3-3.4c1-0.5,0.3-1.3,0.3-2c0-2.6,0.1-5.1,1.8-7.2c0.7,0.5,1,1,0.6,1.9
		c-0.5,1.3,0,2.6,0.7,3.6c2.8,4,2.3,8.8-1.4,12.2c-0.9,0.9-2.3,1.7-1.3,3.4c0.6,1,1.2,1.8,2.4,2c0.1,0,0.2,0,0.3,0
		c1.2,0,1.1-1.2,1.5-1.9c0.8-1.3,1.7-2.6,2.7-3.8c0.4-0.5,0.9-1,1.8-1.1c3.8-0.2,4.9-1.4,4.8-5.2c0-0.8-0.5-1.6,0.1-2.5
		c1.8,0.5,2.2,1.9,2.1,3.5c-0.1,2,0,3.9,0.7,5.9c0.7,2.1-0.8,3.5-2.5,4.6c-0.9,0.6-2.3,0.9-2.3,2.3c0,0.4,0.7,0.9,1.2,1
		c0.3,0.1,0.7,0.2,1,0.2c1,0,1.9-0.5,2.7-1.3c0.3-0.3,0.6-0.7,0.6-1.1c0.3-3.9,3.2-5.5,6.1-6.9c2.3-1.1,4.7-2,6.2-4.1
		c2.2-3.2,2.7-5.9-0.6-8.6c-2.3-1.9-3.3-4.7-5.4-6.8c-1.2-1.1-0.3-2.6,0.2-3.7c1.1-2.5,2.6-4.8,3.3-7.4c0.3-1.1,0.9-1.7,2.2-1.9
		c2.4-0.4,4.7-1.2,7.1-1.8c1.5-0.4,2.6-1.3,3-2.9c0.1-0.4,0.2-0.7,0.6-0.7c0,0,0.1,0,0.1,0c0.2,0,0.5,0.2,0.6,0.4
		c0.7,1.3-0.6,4.4-1.8,5.4c-2.2,1.9-4.7,3.4-7,5.1c-2.4,1.7-1,6.5,2.1,7.9c4,1.7,7.7,3.7,9.8,7.8c0.9,1.8,0.9,3.1,0,4.8
		c-1.9,3.5-4.5,6.6-6.1,10.3c-1,2.2-0.5,3.5,1.3,4.8c3.5,2.6,3.6,6.9,4.8,10.7c0.3,0.9-1.2,1.4-2.1,1.9c0.4,0.2,0.9,0.4,1.3,0.6
		c0,0,0.1,0,0.1,0c0.6,0,1.2-0.4,1.2-0.8c0.2-2.6,1.8-4.2,3.8-5.5c3.7-2.5,1.2-5.7,1.1-8.7c0-0.3-0.2-0.7-0.4-1
		c-0.4-0.9-0.6-1.9,0.5-2.3c0.1-0.1,0.3-0.1,0.4-0.1c0.7,0,1,1,1.2,1.5c1,2.5,1.2,5.3,2.9,7.5c0.2,0.3,0.3,0.7,0.5,1
		c3.3,4.3,2.2,4.8-1.9,7.5c-4.2,2.8-4.5,3.3-3.7,7.1c0.3,1.5,0.8,2.2,2.6,2.3c5.6,0.4,9.6,4.4,10.3,9.8c0.3,2.5-0.3,4.5-2.4,6
		c-1.1,0.7-1.1,1.3-0.3,2.1c0.4-0.1,0.8-0.2,1.2-0.4c0.1-0.1,0.2-0.2,0.3-0.2c0,0,0.1,0,0.2,0c3.7,2.6,4.1,3.6,1.8,7.4
		c-1.1,1.8-0.3,3.3-0.3,4.9c-0.2,7.6-2.7,14.3-7.7,20c-7.2,8.1-16,13.8-25.8,18.4c-9.1,4.3-18.5,7.6-28.2,10.4
		c-9.4,2.7-19,4.7-28.6,6c-7.4,1.1-14.9,2-22.5,2.5c-7.3,0.4-14.7,0.6-22,0.6c-7.4,0-14.9-0.2-22.3-0.3c-10.4-0.2-20.7-1.7-30.9-3.4
		c-11.4-1.9-22.7-4.4-33.7-8.2c-10.6-3.7-21-7.9-30.5-14.2c-7.2-4.8-13.5-10.3-18.1-17.7c-1.8-2.9-2.9-6.1-3-9.5
		c0-1.3-0.5-1.6-1.2-1.6c-0.3,0-0.6,0.1-0.9,0.1c-2.7,0.7-5,2.1-7.4,3.4c-0.8,0.5-1.5,0.8-2.3,0.8c-0.7,0-1.3-0.3-2-1.1
		c-1-1.1-2.5-1.9-3.6-2.9c-1-0.9-2.3-1.6-1.1-3.5c0.7-1-0.5-2.6-1.7-3.4c-1-0.6-2-1.2-3.1-1.9c0.4-0.5,0.7-0.9,1.1-0.9
		c0.2,0,0.4,0.1,0.6,0.2c2.2,1.1,4.8,1,6.3,3.9c0.6,1.2,1.6,1.7,2.6,1.7c1.4,0,2.9-1,3.7-2.8c1.7-3.9,4.8-5.9,8.9-6.7
		c0.7-0.1,1.6,0.2,1.6-1c-0.2-2.8,1.3-5.3,1.1-8.1c-0.1-1.5-0.7-2.5-2-3.3c-2.3-1.3-4.6-2.6-6.9-3.8c-1.5-0.7-2.2-1.8-2.2-3.4
		c0.1-4.3-0.9-8.8,3-12.3c0.9-0.8,0.6-2.3-0.1-3.3c-0.4-0.6-1-1.1-0.6-1.9c2.5,1,3.7,3.5,3,5.8c-0.8,2.3-0.7,4.6-0.6,7
		c0.2,3.8,2.8,5.9,6.2,5.9c0,0,0,0,0.1,0c0,0,0.1,0,0.1,0c3.2,0,5.6,1.3,7.5,3.6c0.6,0.7,1.2,1.4,2,1.4c0.2,0,0.5-0.1,0.7-0.2
		c1.1-0.5,1.7-1.6,1.6-2.9c-0.2-1.8-0.2-3.7-2.2-4.6c-3.4-1.6-3.6-5-4.2-8.1c-0.2-1.2-0.7-2.2-0.9-3.4c-0.1-0.4-0.4-1.2,0.5-1.3
		c0.1,0,0.1,0,0.2,0c0.5,0,0.8,0.4,1,0.9c1.5,3.9,2,4.2,6,4.2c0.1,0,0.1,0,0.2,0c0,0,0.1,0,0.1,0c2.2,0,4.2,0.1,6.1,1.6
		c0.4,0.3,0.9,0.5,1.3,0.5c0.9,0,1.9-0.5,2.8-0.9c1.5-0.7,0.1-1.6-0.1-2.3c-0.2-0.7,0.1-1,0.2-1.5c0.4-2.4-1.5-4.6-3.9-4.8
		c-2.2-0.2-4.5-0.5-6.7-0.8c-0.5-0.1-1.2,0.1-1.2-0.7c0-0.5,0.6-0.6,1-0.7c1.7-0.4,3.4-0.6,5.1-0.6c1.1,0,2.1,0.1,3.2,0.2
		c1.7,0.3,2.7,1.6,3.7,2.9c1.5,2.2,3.2,3.3,5,3.3c1.5,0,3-0.8,4.6-2.3c1.5-1.5,3-3,4.4-4.5c1-1.1,2.5-2.4,1.9-4
		c-0.8-1.8-2.4-2.9-4.4-3.7c-5.6-2.4-12-3.4-16.3-8.5c-2.4-2.8-2-5.9-1.3-9c0.3-1.5,1.4-2.8,1.6-4.3c0.4-2.9,1.8-4.8,4.3-6.4
		c2.5-1.6,4.6-3.8,3.1-7.4c-0.2-0.4-0.2-1,0.3-1.2c0.1-0.1,0.2-0.1,0.3-0.1c0.3,0,0.6,0.3,0.9,0.6c1.3,1.8,2.7,3.2,0.6,5.7
		c-1.3,1.7-2.5,3.7-3.6,5.6c-2.4,4.1-2.2,5.9,1.3,8.9c2.3,2.1,5.3,3.1,8.3,3.1c2.6,0,5.3-0.8,7.6-2.5c0.6-0.4,1.2-0.7,1.7-0.7
		c0.6,0,1.2,0.4,1.6,1.4c0.8,2.2,2.4,3.1,4.8,3.1c-1-2.2-2.1-4.2,0.3-6.1c0.9-0.8,0.1-2.1,0.2-3.4c1.5,0.3,2.1,1,2.3,2.5
		c0.3,2.2,2.8,3.8,5.1,3.8c0.7,0,1.4-0.2,2-0.6c0.5-0.3,0.7-0.9,0.4-1.4c-0.3-0.5-0.7-1.1-1.1-1.2c-5.3-1.2-3.9-5.5-4.1-8.9
		c-0.1-1.8,0.6-3.6,2.8-4.1c0.9-0.2,1.7-1,2.5-1.6c2.5-1.6,2.5-4.5-0.2-5.8c-1.2-0.6-2.3-1.5-3.8-1.5c-0.4,0-0.8,0.1-1.2,0.2
		c-0.2,0.1-0.4,0.1-0.6,0.1c-1.2,0-2.5-1-2.4-3c0.1-4,0.7-8,1.1-11.9c0.1-0.6,0.3-1,0.6-1.5c1.7-2.1,2.4-4.3,0.7-6.8
		c-0.3-0.5-0.7-1.3-0.1-1.7c0.2-0.1,0.3-0.2,0.4-0.2c0.4,0,0.6,0.7,1,1c3.8,2.1,3.2,5.4,2.3,8.7c-0.6,2.5,1,4.3,1.6,6.4
		c0.3,0.9,1.1,1.2,1.9,1.2c0,0,0,0,0,0c0,0,0,0,0.1,0c3.4,0,5.6,2.2,7.9,4.2c1.1,1,1.7,2.3,1.4,4.3c-0.5,3.1-0.5,6.3-2.5,9.1
		c-0.5,0.7-0.4,1.6,0.1,2.3c1,1.5,1.8,3.2,3,4.5c0.6,0.6,1.5,1,2.6,1c0.2,0,0.4,0,0.6,0c3.1-0.4,5.5-2.1,8.1-3.6
		c1.9-1.1,1.7-2.4,0.7-3.9c-0.6-0.9-1.3-1.8-1.9-2.6c-0.5-0.7-1.2-1.7-0.7-2.2c1.5-1.8,0.3-3.6,0.5-5.4c0.4-0.8,1.2-0.6,1.8-0.7
		c-2.3-1.9-2.8-4-1.5-6.3c0.3-0.4,0.8-0.9,1.1-0.9c0.2,0,0.3,0.1,0.3,0.5c-0.1,3.9,3.7,3.3,5.5,5c2.1,2,3.5,4.2,4.7,6.7
		c0.5,1-0.6,1.6-0.7,2.5c-0.3,1.7-0.7,3.2,1.3,4.2c1,0.5,1.9,0.7,2.9,0.7c1.2,0,2.3-0.4,3.1-1.4c1.3-1.5,0.1-3.8-1.1-4.6
		c-3.3-2.2-3.9-5.8-5.6-8.9c-1.9-3.6-4.2-7.3-9.2-7.4c-2,0-3.1-1.5-4-3.1c-2.5-4.2-6.1-6.8-10.9-7.9c-2.1-0.4-3.3-1.8-4.4-3.6
		c-1.1-1.7-2.1-3.7-4.2-4.6c-1.2-0.5-1.3-1.4-1.5-2.7c-0.6-4.4-2.5-8.4-6.5-10.8c-0.9-0.5-1.4-1-1.5-2.3c-0.5-4.9-1.9-9.5-3.9-14
		c-0.4-0.9-0.4-1.3,0.4-1.7c2.7-1.5,2-3.8,1.7-6.6c-1.9,1.9-1.7,4.8-4.5,5.5c-0.3-1.5-1-2.8-2.1-3.9c-0.6-0.5-0.6-1.2-0.5-2.1
		c0.4-4.8-0.3-9.1-5.5-11.2c-3.4-1.4-5.7-4.7-9.5-5.6c-0.8-0.2-1.2-0.9-0.7-1.8c0.2-0.4,0.5-0.5,0.7-0.5c0.3,0,0.7,0.2,1,0.3
		c2.5,1.2,5,1.9,7.8,1.9c0.5,0,1,0,1.6-0.1c0.2,0,0.5,0,0.7,0c3.1,0,5.9,2,9.5,2.4c-1.1-0.8-1.6-1.4-2.3-1.8
		c-1.7-0.9-3.3-1.8-4.2-3.6c-0.2-0.4-0.7-0.8-1.2-0.8c-0.2,0-0.5,0.1-0.7,0.3c-1,1-2.7,1.5-4.4,1.5c-2.5,0-5.3-1.1-6.5-3.1
		c-3.6-5.7-9.3-6.5-15.2-7.1c-0.4,0-0.8,0-1.2,0c-0.2,0-0.3,0-0.5,0c-1.7,0-3.4-0.1-4.4-2.2c-0.2-0.5-0.7-0.7-1.2-0.7
		c-0.4,0-0.8,0.1-1.2,0.3c-0.8,0.4-1.3,1-1.7,1.7c-0.7,1.4-1.4,2.9-2.7,2.9c-0.5,0-1.2-0.2-2-0.8c-0.1-0.1-0.3-0.1-0.6-0.1
		c-0.3,0-0.6,0.1-0.7,0.2c-1,0.7-1.7,1-2.4,1c-1.5,0-2.4-1.5-3.3-3.3c-2.8-5.5-6.6-10.3-10.7-14.9c-1.3-1.4-2.8-2.9-0.8-5.4
		c0.9-1.1,1.1-3.4-0.7-4.9c-2.7-2.3-4.9-5-6.1-8.4c-1.8-4.7-5.8-7.7-8.9-11.4c-0.5-0.6-1.1-1-1.6-1.5c-0.8-0.7-1.8-1.6-1.4-2.7
		c0.3-0.7,0.9-0.8,1.5-0.8c0.3,0,0.6,0,1,0c0.1,0,0.1,0,0.2,0c2.8-0.1,3.7-2.8,5.3-4.3c3-3,2.8-3.3,0.4-7.5
		c-2.2-3.9-3.2-8.4-7.1-11.3c-1.7-1.2-3.4-2.4-5.1-3.6c-0.5-0.3-1.5-0.1-1.2-1.1c0.2-0.5,0.6-0.6,1.1-0.6c0.2,0,0.4,0,0.6,0.1
		c1.9,0.4,3.7,0.8,5.5,1.5c3.8,1.5,8.1,2.5,11.2,5.2c3.3,2.9,6.2,6.3,7.9,10.4c0.8,1.8,2.1,3.2,3.1,4.8c0.2,0.3,0.7,0.8,1,0.8
		c0,0,0,0,0.1,0c0.3-0.1,0.6-0.1,0.8-0.1c1.9,0,2.4,2.5,4.2,2.8c0.8,0.1,1.3,1,0.7,2c-1.6,2.4-2.9,4.9-1.4,7.9
		c0.3,0.6-0.3,0.9-0.9,1.1c-2,0.7-2,2-1.1,3.6c1.2-1.9,3.8-2.6,3.8-5.6c0-1.2,1.8-1.2,3-1.2c4.3-0.2,5.4-2.2,3.1-5.9
		c-1-1.6-2-2.9-4.1-2.9c-0.2,0-0.4,0-0.6,0c-0.1,0-0.2,0-0.4,0c-2.1,0-3.3-1.9-3.2-3.7c0.2-4.4-2.7-7.1-5-10.2
		c-2.6-3.4-4.4-7.3-5.5-11.4c-0.4-1.5,0.3-3.1,0-4.8c-0.1-0.6,0.4-0.9,0.9-0.9c0.4,0,1,0.2,1.4,0.5c0.5,0.5,0.9,1.2,1.2,1.8
		c0.9,2.2,2.3,3.6,5,3.8c0-2.4-0.8-4.8-0.3-7.2c0.2-1,0.1-1.8,1.4-2.3c3.3-1.4,6.1-3.6,8-6.7c0.4-0.6,1-1.1,1.5-1.5
		c7.1-5.5,7.5-10.2,4.9-15.9c-0.1-0.2-0.2-0.3-0.2-0.5c-0.2-1.1-1.7-2.4-0.3-3.1c0.2-0.1,0.3-0.1,0.4-0.1c0.8,0,0.7,1.7,1.5,2.3
		c0.3,0.3,0.5,0.8,0.8,1.1c5,5.1,5.4,11,1.3,17.1c-0.2,0.4-0.6,0.8-0.6,1.2c0.3,4.6-3.1,6.4-6.2,8.3c-2.4,1.4-3.8,6-2.3,8.7
		c0.5,1,0.8,1.8,0.7,2.8c-0.2,2.5,2.1,3.5,3.3,5.1c0.1,0.2,0.3,0.3,0.4,0.3c0.4,0,0.7-0.6,0.6-1.1c-0.1-0.7-0.4-1.4-0.4-2.1
		c-0.1-1,0-1.7,1-1.7c0.2,0,0.5,0,0.9,0.1c0.5,0.1,0.9,0.2,1.3,0.2c2,0,3.1-1.5,3.2-4.1c0.1-2.4,0.9-4.8,1.3-7.1
		c0.9-5.7,3.5-11.1,2.8-17.1c-0.1-1.2-0.2-2.1-1.3-2.9c-1.2-0.9-2.2-2.5-1.4-3.8c1.1-2,0.9-4,1.2-6.1c0.4-2.6,2.2-3.6,4.6-3.9
		c2.3-0.2,2.5-1.2,1.3-3.1c-1.1-1.8-2-3.6-3-5.5c-0.4-0.7-0.6-1.4,0.3-1.9c0.2-0.1,0.4-0.1,0.5-0.1c0.6,0,0.8,0.6,1,1.2
		c0.3,1.3,1.4,1.9,2.4,2.5c2,1.5,3,3.5,3.8,5.8c0.4,1.1,0.4,1.8-0.3,2.7c-1.4,2-0.4,5.3,1.9,6.1c0.2,0.1,0.3,0.1,0.5,0.1
		c0.9,0,1.9-0.6,2.4-1.3c1.3-1.4,2.9-1.9,4.5-2.3c2.3-0.5,3.8-1.7,5.5-3.3c1.8-1.8,3.6-3.7,5.7-5.2c1.2-0.9,1.5-1.4,1.1-2.8
		c-1-3.4-0.2-4.8,3.2-5.9c0.7-0.2,1.4-0.4,2.1-0.7c2.5-1.2,2.7-3.2,0.5-4.9c-1-0.8-2.2-1.6-3.4-2.5c0.5-0.3,0.8-0.6,1.1-0.6
		c0,0,0,0,0,0c2.4,0.1,8.8,5.5,9.4,7.8c0.2,0.9,0.2,1.8,0.6,2.6c0.5,1,1.4,2,2.4,2c0,0,0,0,0,0c0.8,0,1.4-1.1,1.3-2.2
		c-0.1-0.7,0.3-1.3,0.7-1.7c1.5-1.4,1.1-2.6-0.1-4c-1.2-1.4-1.6-3-0.2-4.7c1,0,1.1,1.6,2,1.6c0.2,0,0.3,0,0.5-0.1
		c0.9-0.5,1.4-1.4,1.4-2.5c0.1-1.4-0.9-2.1-2-2.7c-0.6-0.4-1.3-0.6-2-0.9c-7.6-2.8-9.9-6.2-9.1-14.2c0.1-1.4,0.2-2.7,0.4-4.1
		c0.1-0.7,0.5-0.9,1-0.9c0,0,0.1,0,0.1,0c0.7,0,0.5,0.5,0.5,1c-0.1,4.9,3.1,9.9,7.5,11.7c0.5,0.2,1,0.4,1.5,0.4c0.1,0,0.2,0,0.3,0
		c0.7-0.2,1.4-0.3,2.1-0.3c2.8,0,4.8,1.7,6.3,4.3c0.2,0.4,0.4,1.1,0.9,1.1c0,0,0.1,0,0.1,0c0.7-0.1,0.3-1.1,0.8-1.6
		c2.6,2.3,2.8,3.5,1.2,6.4c-1,1.9-0.4,3.3,1.5,4.3c2.2,1.1,4.9,0.9,6.5,3.3c0.7-2,0.7-2-0.3-3.4c-0.6-0.8-1.3-1.5-1.4-2.6
		c-0.1-0.8,0.2-1.2,0.8-1.6c0.2-0.1,0.4-0.2,0.7-0.2c0.3,0,0.6,0.1,0.8,0.4c2,2.2,5,3.8,4.1,7.8c-0.5,2.2,0.5,4.5,0,7
		c-0.3,1.5,1.9,3,3.5,4.3c0.1-0.6,0.3-1,0.2-1.1c-2.4-3.2-0.2-5.8,1.1-8.4c0.4-0.8,0.5-1.5,0.6-2.3c0.3-1.4,1-2.3,2.4-2.3
		c0.2,0,0.3,0,0.5,0c0.4,0.1,0.8,0.3,1.2,0.3c0.3,0,0.5-0.1,0.7-0.5c0.4-0.8-0.1-1.6-0.5-2.3c-0.1-0.2-0.3-0.5-0.5-0.6
		c-0.8-0.6-2.5-1.4-1.6-2.4c0.2-0.2,0.5-0.3,0.7-0.3c0.8,0,1.7,1.1,2.4,1.6c1.3,1,2.3,2.3,3.4,3.6c1.4,1.6,1.5,3.2,0.2,4.9
		c-2.5,3.2-1.6,5.5,1.8,7.5c0.9,0.5,1.7,0.8,2.3,0.8c1.1,0,1.8-0.8,2.5-2c1.3-2.3,0-3.7-1.8-5.1c-3.8-3-3.5-7.6,0-11.5
		c2.1-2.4,4.4-4,7.6-4c0.1,0,0.2,0,0.4,0c0.3,0,0.6,0.1,1,0.1c0.3,0,0.7-0.1,0.9-0.7c0.4-1,0-1.8-0.6-2.5c-1.2-1.3-2.8-1.9-4.4-2.5
		c-0.5-0.2-0.9-0.2-0.8-0.8c0.1-0.4,0.5-0.6,0.8-0.6c0.1,0,0.2,0,0.3,0.1c1.8,0.9,3.9,0.3,5.6,1.8c1.3,1.1,2.7,2.1,4.2,3
		c1.9,1.2,1.1,3.4,1.2,5.3c-0.1,0.2-0.2,0.3-0.2,0.5c0.1-0.2,0.2-0.3,0.2-0.5c0,0.6,0,1.2,0.1,1.8c0,0,0.1,0,0.1,0
		c1.2,0,1.5-1,2-1.9c0.2-0.4,0.2-1,0.7-1c0.1,0,0.2,0,0.3,0c0.5,0.2,0.8,0.7,0.8,1.3c-0.1,1.1,0.2,2.3-0.8,4.2
		c2.4-1.7,4.7-2.1,7.1-2.1c2.4,0,4.8,0.5,7.2,0.5c0.2,0,0.4,0,0.6,0c3.4-0.1,7-3.1,7.6-6.4c0.2-1.1-0.5-1.7-1.1-2.3
		c-0.3-0.4-0.6-0.5-1-0.5c-0.3,0-0.6,0.1-0.9,0.2c-1.3,0.5-2.7,0.8-4.1,0.8c-3.4,0-6.7-1.8-8.6-5.8c-1.3-2.7,0.9-3.9,1.9-5.3
		c1.2-1.7,2.5-3.4,3.6-5.1c0.9-1.5,2.3-2.2,3.8-2.2c0.2,0,0.5,0,0.8,0.1c0.4,0.1,0.8,0.1,1.3,0.1c0.9,0,1.8-0.2,2.7-0.6
		C262.4,37.9,262.8,37.2,263.2,37.2 M263.2,22.2C263.2,22.2,263.2,22.2,263.2,22.2C263.2,22.2,263.2,22.2,263.2,22.2
		c-1.8,0-4.1,0.3-6.6,1.5c-6.5,0.2-12.3,3.5-15.9,9.2c-0.6,1-1.5,2.2-2.4,3.4l-0.3,0.4c-0.8,0.8-1.4,1.6-2,2.5c-1.7-0.6-3.1-0.8-4-1
		c-1.6-0.6-3.4-0.9-5.2-0.9c0,0,0,0,0,0c-7.1,0-13.2,4.7-15.2,11.3c-0.1,0-0.2,0-0.2,0c-2.6,0-5,0.6-7.2,1.7
		c-0.7-0.3-1.5-0.6-2.3-0.7c-0.9-1-1.8-2-2.9-3c-1.4-1.2-3-2.1-4.6-2.7c-3.4-2.8-7-3.9-9.9-4.4c-0.6-3.6-2.2-6.2-3.7-7.8
		c-2.7-3.1-6.6-4.9-10.7-5.2c-0.3,0-0.7,0-1,0c-8.4,0-15.3,6.3-16,14.7c-0.1,1.3-0.2,2.6-0.3,3.9c-0.3,3.1-0.2,6,0.1,8.7
		c-3.7,2.6-6.1,6.9-6.3,11.5c0,0.8,0,1.7,0.1,2.5c-0.5,0.8-0.9,1.6-1.3,2.4c-0.4-0.4-0.8-0.7-1.2-1.1c-2.9-4.7-7.8-7.6-13.5-7.6
		c-2.4,0-4.7,0.5-6.9,1.6c-4.1,1.9-7.1,5.3-8.5,9.5c-0.2,0.7-0.5,1.7-0.6,2.8c-0.9,0.2-1.7,0.6-2.5,0.9c-4,1.9-7,5.2-8.4,9.4
		c-1.3,4-1,8,0.8,12.1c-1.4,1.1-3.2,2.8-4.8,5.3c-0.1,0.2-0.3,0.4-1,0.7c-1.1,0.5-2.6,1.2-4,2.3c-4.3,0.3-8.3,2.3-11.1,5.5
		c-0.7,0.8-1.3,1.7-1.8,2.6c-1.8-0.6-3.5-1-4.9-1.3l-0.8-0.2c-1.3-0.3-2.7-0.5-4-0.5c-7.1,0-13.2,4.4-15.4,11
		c-1.4,4.2-1,8.6,1.2,12.4c1,1.8,3.2,4.7,7.2,6.6c0.2,0.1,0.3,0.2,0.5,0.4c0.6,0.5,1.3,0.9,1.9,1.3c-2.4,1.8-4.3,4.2-5.4,7.2
		c-0.9,2.5-3.4,11.1,4.9,18.9l0.1,0.1c0.4,0.4,0.7,0.7,1,0.9c1.1,1.2,2.1,2.3,3,3.2c1,1,2.5,2.6,2.8,3.2c1.2,3.1,2.8,6.1,5,8.8
		c-0.4,4.1,0.7,9.1,5.4,14.4l0.1,0.2c3.2,3.6,6.4,7.5,8.6,11.7c0.9,1.7,1.9,3.5,3.4,5.3c3.4,4,8.1,6.2,13.2,6.2
		c1.2,0,2.5-0.1,3.7-0.4c0.7,0.1,1.3,0.1,2,0.1c2.9,0,5.7-0.8,8.3-2.2c1,0.1,2,0.2,3,0.2l0.3,0c0.2,0.9,0.5,1.8,0.9,2.7
		c1.9,4.3,5.6,7.5,10,8.9c0.3,0.2,0.6,0.4,0.8,0.6c1,0.7,2.2,1.7,3.8,2.6c0.1,4.7,1.7,8.1,3.6,10.5c0.8,2.1,2,3.9,3.5,5.5
		c1.1,2.7,1.7,5.2,1.9,7.6c0.3,3.3,1.6,7.7,5.6,11.4c-2.2,3.4-3,7.6-2.2,11.8c-0.6,1.5-1,3.1-1.2,4.8c-0.1,1.1-0.2,2.3-0.4,3.4
		c-0.2,1.6-0.4,3.1-0.5,4.8c-2.9-2.6-6.6-4.1-10.6-4.1c-2.4,0-4.9,0.6-7.1,1.7c-4.8,2.4-7.9,7.1-8.5,12.3c-3.6,3.3-5.9,7.5-7,12.3
		c-0.5,1.1-1.2,2.7-1.7,4.8c-0.6,2.6-2.1,9.4,1.1,16.5c-1.3,0.7-2.4,1.5-3.4,2.4c-1.2-0.8-2.5-1.5-3.8-2c-1.8-0.7-3.7-1.1-5.6-1.1
		c-5.2,0-10.2,2.7-13,7.5c-1.5,2.5-2.4,5.9-2.1,9.4c-2.4,5.3-2.2,10.4-2.2,13.4c0,0.6,0,1.3,0,1.7c-0.1,3.1,0.6,6.1,1.9,8.7
		c-0.2,0-0.4,0-0.6,0c-2.6,0-9,0.7-13.6,7.5c-2.3,3.4-3.1,7.6-2.2,11.7c0.7,3,2.3,5.8,4.6,7.8c0.9,3.2,2.8,6.2,6.1,8.9l0.1,0.1
		c1.1,0.9,2.1,1.6,2.8,2.1c0,0,0,0,0,0c3.4,3.6,7.9,5.5,12.7,5.5c0.7,0,1.5,0,2.1-0.1c5.2,8.3,12.5,15.5,22.4,22
		c11.8,7.8,24.3,12.6,33.9,15.8c10.6,3.6,22.4,6.5,36.1,8.8c10.3,1.7,21.5,3.4,33.1,3.6l0.4,0c7.3,0.1,14.8,0.3,22.2,0.3
		c8.5,0,16-0.2,22.9-0.6c8.2-0.5,16.2-1.5,23.7-2.6c10.5-1.5,20.8-3.7,30.6-6.5c11.5-3.3,21.5-7,30.5-11.3
		c13.1-6.3,22.8-13.3,30.6-22c7.3-8.2,11.2-18.4,11.5-29.5c0-0.3,0-0.6,0-0.9c1.3-3,2.5-7.3,1.1-12.4c-0.4-1.5-1-2.8-1.6-4
		c0.1-1.6,0.1-3.2-0.1-4.8c-0.7-5.6-3.1-10.5-6.5-14.3c0.5-1.1,0.9-2.4,1.1-3.8c1.2-6.7-2.1-12-4-14.7c-0.2-0.3-0.4-0.6-0.6-0.9
		c-0.1-0.2-0.2-0.5-0.2-0.8c-0.3-1.1-0.7-2.6-1.4-4.2l0,0c-1.3-3.3-3.2-5.8-5.3-7.5c0.1-3.4-0.7-6.8-2.4-10.1
		c-1.4-2.6-3-4.8-4.8-6.6c3.6-5.5,5-13.1,1.7-19.5c-2.4-4.7-7.1-7.9-12.2-8.5c-0.6-0.1-1.2-0.1-1.8-0.1c-4.6,0-8.8,2-11.7,5.3
		c-0.5,0.1-0.9,0.2-1.2,0.3c-4.6,0.7-8.5,2.9-11.2,6.3c-0.1-0.3-0.3-0.7-0.4-1c-1.9-4.6-5.3-8.3-9.7-10.6c0.8-0.9,2-1.9,3.1-2.8
		c0.5-0.5,1-0.9,1.5-1.4c2.9-2.6,5.1-5.6,6.5-8.8c4.9-4,7.1-10.1,5.9-16c3.5-2.6,6-6.7,6.7-11.6c0.2-1.4,0.2-2.5,0.3-3.2l0-0.2
		c0.1-1.1,0.1-2.1,0-2.9c0.1-0.3,0.3-0.6,0.4-0.9c2-0.8,3.8-1.9,5.4-3.4c0.2-0.2,0.8-0.5,1.3-0.8c2.1-1.3,5.2-3.2,7.9-6.5
		c2-2.4,4.7-4.7,8.5-7.1c3.1-1.9,5.4-4.6,6.8-7.7c1-0.6,1.9-1.1,2.6-1.6c1.9-1.2,3.6-2.5,5.1-3.6c1.7-1.3,3.4-2.5,4.7-3.1
		c7.4-3.7,10.9-11.7,8.8-19.5c0-0.2,0.1-0.4,0.1-0.6c0.1-0.4,0.1-0.9,0.2-1.3l0-0.1c0.7-5.3-0.5-9.8-3.6-13.3
		c-0.5-0.6-1.3-1.4-2.2-2.1c0.1-1,0.2-1.9,0.3-2.7c0-0.3,0.1-0.6,0.1-0.8c0-0.2,0.1-0.6,1.3-1.8c6.5-4.7,7.8-11.7,6.7-17
		c-1-5.1-4.7-9.4-9.6-11.1c-1.6-0.6-3.4-0.9-5.1-0.9c-1.5,0-3,0.2-4.4,0.7c-3,0.2-5.6,0.9-8,2.4c-0.1,0-0.2,0.1-0.2,0.1
		c-0.4-1-0.9-1.8-1.2-2.6c-0.2-0.5-0.5-0.9-0.7-1.4c-1.8-3.8-5.1-6.8-9.1-8.3c-0.6-0.9-1.4-2.8-1.9-4.1c-0.3-0.7-0.6-1.4-0.9-2.1
		c-0.3-0.7-0.6-1.5-0.9-2.2c-1.9-4.5-4.3-10-8.8-15.1c-4.4-4.9-9.6-5.6-12.3-5.6c-1.5,0-3,0.2-4.5,0.6c-0.4,0.1-0.7,0.2-1.1,0.4
		c-0.1-0.1-0.1-0.2-0.2-0.4c-0.6-2.6-1.7-4.7-2.9-6.3c-0.4-0.6-0.9-1.4-1.5-2.3c-2.1-3.5-5.4-8.7-11.3-12.2c-1-4.7-3.9-8.8-8.2-11.4
		c-0.7-0.4-1.4-0.8-2.1-1.1c-0.6-1.6-1.5-3.1-2.6-4.4c-2.9-3.4-7.1-5.5-11.7-5.6c-0.2,0-0.4,0-0.5,0c-1.6,0-3.1,0.2-4.5,0.6
		c-0.4-0.9-0.9-1.9-1.5-2.8c-0.8-1.2-1.6-2.8-2.5-4.4c-0.6-1.2-1.2-2.3-1.9-3.6c-2.2-3.9-5.2-6.9-8.7-8.9c-0.4-1.9-1.1-3.8-2.2-5.5
		C273.8,25.1,268.8,22.2,263.2,22.2L263.2,22.2L263.2,22.2z"/>
</g>
</svg>
