<?xml version="1.0" encoding="utf-8"?>
<!-- Generator: Adobe Illustrator 24.1.0, SVG Export Plug-In . SVG Version: 6.00 Build 0)  -->
<svg version="1.1" id="Livello_1" xmlns="http://www.w3.org/2000/svg" xmlns:xlink="http://www.w3.org/1999/xlink" x="0px" y="0px"
	 viewBox="0 0 474 470.4" style="enable-background:new 0 0 474 470.4;" width="50" height="50" xml:space="preserve">
<style type="text/css">
	.st0{fill:#FEFEFE;}
</style>
<g id="xdXAYI_1_">
	<g>
		<path class="st0" d="M256.9,454.4c-0.9,0-1.9-0.2-2.8-0.5c-2-0.8-3.6-2.4-4.3-4.5c-1.1-3.2-1.2-6.4-0.5-9.4
			c-1.3,0.7-2.9,1.3-4.9,1.3c-0.6,0-1.3-0.1-1.9-0.2c-4-0.7-6.7-4.5-6.1-8.4c1.6-11.1,7.6-16.1,12.4-18.4c1-0.5,1.9-1.5,3.2-2.8
			c1.3-1.4,2.7-2.9,4.7-4.3c1.6-1.1,4-2.6,7.4-2.6c0.9,0,1.7,0.1,2.6,0.3c0.2,0,0.4,0.1,0.6,0.1l-0.1,0c0.5,0.1,0.9,0.2,1.4,0.3
			c0.5-0.9,1.3-1.7,2.3-2.5c2-1.4,2.6-3.9,3.4-8.2c0.3-1.3,0.5-2.6,0.9-3.9l0.1-0.4c1.3-4.9,2-8.1,0.3-10.6
			c-0.3-0.4-0.5-0.9-0.8-1.3c0,0,0-0.1-0.1-0.1c-6.8-4.2-9.2-11-10.9-16c-1.6-4.5-3.3-9.6-6.1-13.6c-0.3-0.5-1.2-1.2-2-1.8
			c-1.8-1.4-4.2-3.4-5.8-6.5c-2.4-4.7-7.1-8-12.1-11.4c-0.6-0.4-1.2-0.8-1.8-1.3c-3.8-2.7-7.2-4.4-10.4-5.4
			c-6.3-1.9-10.7-6-13.1-12.1c-2.1-5.4-2.3-10.6-2.4-15.2c0-1.5-0.1-2.8-0.2-4.2c-0.5-6.5-1.9-12.8-3.3-18.7
			c-0.9-3.7-1.1-7.2-1.4-10.5c-0.1-1.3-0.2-2.5-0.3-3.8c-0.2-1.7-0.3-3.3-0.4-4.8c-0.1-1.7-0.2-3.4-0.4-5c-1.9,0.6-3.9,1.1-6.1,1.2
			c-0.2,0-0.3,0-0.5,0c-1.1,0-2.2-0.2-3.2-0.7c0,1.6,0.1,3.3,0.5,4.9c1.6,7,1.1,14.6-1.4,23.6c-1.9,6.7-1.6,13.9-1.3,21.5
			c0.1,2,0.2,4.1,0.2,6.1c0,1.9,0.4,4,1.2,6.9c1.8,6.4-1.4,11.8-3.3,15.1c-1.5,2.6-3.3,4.8-5,6.9l-0.9,1.1c-1.4,1.8-3.7,4.3-7.1,5.3
			c1.8,3.5,2.1,7,2.3,9.7c0.1,1.5,0.2,2.9,0.5,3.8c1.9,4.9,0.2,10-4.4,13.7c-0.3,0.4-0.7,2.3-0.9,3.4c-0.2,1.2-0.5,2.5-0.9,3.9
			c-0.5,1.9-0.3,4.2-0.1,6.8c0.2,2.4,0.4,5.2,0.2,8.1c0,0,0,0.1,0,0.2c0,0.8,0,2.2-0.5,3.8c-0.6,2-0.8,4,3.2,7.8
			c0.5,0.5,0.9,1,1.3,1.4c0.7-0.1,1.3-0.2,2-0.2c4.5,0,8.3,3,9.6,7.5c0,0,0.1,0.1,0.4,0.4c4.3,3.4,6.2,8.1,5.3,12.8
			c-0.9,4.9-4.7,8.7-10.1,10.2c-2.4,0.7-4.7,1.7-7.1,2.8c-2.3,1.1-4.8,1.6-7.7,1.6c-2.4,0-4.5-0.4-6.5-0.7l-0.1,0
			c-1-0.2-2.1-0.3-3.4-0.3c-2.3,0-4.8,0.3-7.4,0.6c-0.8,0.1-1.6,0.2-2.4,0.3c-1.9,0.2-3.5,0.3-4.9,0.3c-3.6,0-6.9-0.6-9.9-1.9
			c-0.2-0.1-1-0.1-1.6-0.2c-0.6-0.1-1.3-0.1-1.9-0.2c-4.5-0.7-8.3-2.5-11.3-5.4c-1.4,0.5-3,0.8-4.6,0.8c-1.1,0-2.3-0.1-3.7-0.4
			c0,0-0.1,0-0.1,0c-1.1,0.5-2.2,0.8-3.4,0.8c-1.3,0-2.6-0.3-3.8-1c-2.4-1.4-3.8-4.1-3.7-6.9c0.3-4.3,1.8-7.7,4.7-10.6
			c2.4-2.4,3.8-4,4.5-5.9c1.6-4.6,6.1-7.8,11.1-7.8c1.1,0,2.2,0.2,3.3,0.5c1-1.2,2.4-2,3.8-2.5c0.2-0.1,0.4-0.2,0.6-0.2
			c0.4-0.2,1-0.4,1.6-0.6v-3.2c0-0.1,0-0.2,0-0.3c0.2-4.1-0.5-8.2-1.5-13.2c-1.5-7.3-0.6-14.1,2.5-20.2c3.3-6.3,4.3-10.7,3.6-15.1
			c0-0.2,0-0.3-0.1-0.5c-2.8-7.7-2.3-15-1.7-22.1l0.1-0.9c0.2-2.5-0.2-5.4-0.7-8.5c-0.5-3.4-1.1-7.3-0.9-11.4l0-0.6
			c0.5-9.1,1-19.4,7.6-28.6c0.1-0.1,0.2-0.8,0.1-3c-0.3-6,1.6-10.3,5.8-13c-0.7-6,1.7-10.2,4.1-12.7c0-0.4-0.1-1-0.2-1.4
			c-0.1-0.4-0.1-0.8-0.2-1.2c-2.2,2.4-4.6,4.5-6.8,6.3c-0.9,0.8-1.8,1.5-2.7,2.3c-1.8,1.6-4.1,2.4-6.4,2.4c-2.6,0-4.7-1-6-1.8
			l-0.3-0.2c-1.8-1.2-4.5-2.9-6.1-5.9c0,0,0,0-0.1,0c-0.4,0-0.8,0-1.2,0l-0.4,0c-0.2,0-0.3,0-0.5,0c-4.9,0-9.5-1.9-12.8-5.3
			c-3.3-3.4-5.1-7.8-5.1-12.6c0-0.7,0-1.5,0-2.2c0-1.6,0.1-3.2,0-4.6c-0.3-3.9,0.9-7.4,3.5-10.4c2.9-3.4,3.5-7.1,2.1-12
			c-1.1-3.8-1.5-7.6-1.1-11.6c0.5-5.2,0.1-10.6-0.4-16.2c-0.2-2.3-0.4-4.7-0.5-7c-0.2-3.4-0.6-6.8-1.1-10.4
			c-0.6-4.6-1.2-9.3-1.3-14.2c0-2.4-0.8-4.8-2-6.9c-4.8-7.9-6-15.4-3.6-23c0-0.2,0-0.4,0-0.6c-0.3-6.3,2.2-11.9,7.1-16.2
			c0.3-0.3,0.9-0.9,1-1.5c0.3-4.6,0.9-9.3,1.8-14c0.4-1.8,0.3-3.9,0.1-6.3c-0.1-2.1-0.2-4.5,0-7c-6.2-9.3-6.9-20.5-2.1-31.5
			c2.8-6.4,9.6-11.3,18.2-13c3.6-0.7,7.6-1.4,11.7-1.4c3.1,0,5.9,0.4,8.7,1.1c1.8,0.5,5.1,1.4,7.9,5.2c0.3,0.4,0.7,0.6,0.8,0.6
			c0,0,0,0,0,0c6.9,0,10.4,4.6,11.9,6.5c0.7,0.9,3.2,2.1,6,2.1c1,0,1.6-0.2,1.9-0.3c1.8-0.6,4.2-1.3,7-1.3c4.1,0,7.8,1.6,10.8,4.5
			c0.2,0.2,0.6,0.6,2.3,0.6c1,0,2.2-0.1,3.3-0.3c0.8-0.1,1.7-0.3,2.7-0.5c1.1-0.2,2.3-0.5,3.6-0.6c1.7-0.2,3.2-0.3,4.7-0.3
			c5.4,0,9.9,1.7,13.5,4.9c1.4,1.2,2.7,1.8,4.6,1.8c1.6,0,3.6-0.4,6.3-1.2c4.7-1.5,9.7-2.2,15.3-2.2c4.2,0,8.2,0.4,12,0.8
			c13.6,1.5,24.5,8.3,34.1,14.2l1.4,0.9c4,2.5,7.2,4.5,11,4.9c8.3,0.8,12.8,7.3,15.8,11.6c3.7,5.4,6.7,9.3,11.3,10.9
			c4.5,1.7,6.8,5.2,8.2,7.5l0.2,0.3c1.9,3.1,4.2,4.7,7.5,5.3c3,0.5,5.3,1.8,7,2.8c0.8,0.5,1.8,1,2.2,1.1c2.9,0.5,5.3,2.2,6.8,4.9
			c1.6,2.8,1.7,6.3,0.5,9.3c0,4-0.5,7.9-0.9,11.6c-0.7,6-1.4,11.6,0,16.8l1.3,4.7c3.1,11.3,6.3,23,9.5,34.5c0.2,0.7,0.6,1.7,1.1,2.7
			c0.8,1.6,1.6,3.4,2.2,5.7c1.7,6.8-1.5,10.7-4.5,12.7c-1.4,0.9-2.1,1.6-2.4,2.1c-2,4.3-6.1,6.8-11,6.8c0,0,0,0,0,0
			c-0.5,0-1.1,0-1.6-0.1c-0.4,0-0.8-0.1-1.1-0.1c-3.5,0-6.1,2.5-10,7.3c-3.9,4.9-6.2,9.5-7.1,14.4c-0.6,2.9-1.7,5.4-2.7,7.6
			c-0.9,1.9-1.7,3.7-1.8,5c-0.2,3.9-1,15.7-15.1,17.6c-0.6,0.1-1.8,0.6-2.9,1.1c-1.5,0.6-3.2,1.4-5.2,1.9c-1.6,0.4-3.2,0.6-4.8,0.6
			c-5.9,0-10.5-2.6-14.1-4.8c-1-0.6-1.8-1.1-2.7-1.5c-3.2-1.7-5.7-4.9-6.7-8.7c-1.6-6.6-1.6-12.6,0.1-18.2c0.6-2.1,2.2-3.9,4.3-4.8
			c0.9-0.4,1.9-0.6,2.9-0.6c1.2,0,2.4,0.3,3.5,0.9l1.2,0.6c1.4,0.8,2.6,2,3.3,3.4l0,0.1c0.3,0.6,1,1.9,1.3,3.6
			c0.3,2,0.8,3.6,5.6,5.3c1-0.3,2-0.6,2.9-0.8c0.3-0.1,0.7-0.2,1-0.2c0.4-0.1,0.7-0.2,1.1-0.2c0.1-0.2,0.1-0.3,0.1-0.4
			c-1-3.9-0.3-7.3,0.3-9.8c0.1-0.5,0.2-1.1,0.3-1.6c0-0.1,0-0.2,0-0.2c-0.1,0-0.1,0-0.2,0c-1.2-0.2-2.3-0.4-3.3-0.7
			c-1.2-0.3-2.3-0.5-3.1-0.5c0,0-0.4,0-0.4,0c-5.6,0-8.3-4.3-9.2-5.7c-5.3-8.5-7-18.3-5.3-30.1c0.6-4.1,2.8-5.7,5.1-7.5l0.4-0.3
			c1.3-1,2.9-1.5,4.5-1.5c1.6,0,3.2,0.5,4.6,1.5c0.7,0.6,1.4,1.3,1.8,2c0.1-0.7,0.2-1.4,0.2-2c0.3-5.4,4.5-9.2,10-9.2l0.6,0
			c0.9,0,1.8,0,2.7,0c1,0,2,0,2.9,0c0.9,0,1.8,0,2.7,0c0.2,0,0.4,0,0.6,0c1.3,0,1.5-0.2,1.6-0.3c2.3-2,5.2-3.1,8.3-3.1
			c0.9,0,1.9,0.1,2.9,0.3c-0.1-0.4-0.2-0.8-0.3-1.2c-2-1.2-4-3.5-5-8c-0.2-0.8-0.4-1.6-0.6-2.4c-0.6-2.6-1.3-5.6-1.6-8.7
			c-0.2-2.9-1-5.2-2.5-7.1c-3.5-4.6-5.1-9.3-5-14.1c-6.8-3.4-8.7-9.7-9.3-12c-0.2-0.8-0.4-1.3-0.5-1.5c-2.4-0.2-4.3-1.2-5.5-1.9
			c-0.2-0.1-0.3-0.2-0.5-0.3c-1.5,0.3-3.2,0.9-4.2,2.2c-5.3,7.2-12.5,8.1-17.5,8.1c-0.5,0-1,0-1.5,0c-1.5,0-2.8-0.2-4.1-0.3
			c-1.3-0.1-2.6-0.2-3.7-0.2c-0.7,0-1.3,0-1.8,0.1c-2.6,0.4-5.3,1.4-8.1,2.4c-1.7,0.6-3.4,1.2-5.2,1.8c-0.4,0.5-0.8,1.7-1.4,3.5
			c-1.7,5.6-5.1,9.2-7.6,11.4c-1.3,1.2-2.6,2.6-3.9,4l-0.8,0.9c-0.5,0.6-0.9,2.1-1.2,3.8c0,0.1,0,0.1,0,0.2c0.9-0.2,1.8-0.2,2.8-0.2
			c1.8,0,3.5,0.3,5,0.5c1,0.2,1.9,0.3,2.5,0.3c2.9,0.1,5.4,1.4,7,3.7c2.5,3.7,1.1,7.6,0.6,8.9c-2.7,7.4-7.1,12.8-13.1,16.3
			c-2,5.4-2.6,8-1.1,10.7c1.1,1.9,1.4,4,1.1,6c4.2,3.6,7.7,9.3,7.5,13.7c-0.1,3.9-2.3,6.3-3.3,7.4c-0.1,0.1-0.2,0.2-0.2,0.2
			c-0.7,1-1.4,2.1-2.1,3.4c-1.4,2.5-3,5.2-5.4,7.6c0.3,3.2,1.1,6.5,1.9,10c0.2,0.7,0.3,1.3,0.5,2c1.8,7.6,0.9,15.4-2.9,23.8
			c-2,4.4-1.8,7.8,0.6,11.3c2.9,4.4,3.2,9.1,3.1,13.4c13.2,4.7,23.8,14.1,30.7,27.4c2.4,4.6,4.8,7.9,8.1,10.9
			c5.6,5.1,7.6,11.8,8.7,17.7c0.9,4.6,2.2,9.2,5.5,12.4c0.7,0.7,1.5,1.5,2.2,2.2c2.7,2.7,5,5.1,7.8,6.6c3.4,1.8,5,4.7,6.1,6.6
			c0.2,0.3,0.4,0.6,0.6,0.9c3.9,6.3,5.6,13,5.3,21.2c-0.2,5.2,2.2,10.7,4.8,15.9c0.9,1.9,1.6,3.6,2.3,5.4c0.7,1.9,1.3,3.5,2.1,4.8
			c5.1,1.6,10.6,5.1,12.4,12.5c0,0,0,0.1,0.1,0.1c1.2,2.3,1,5.1-0.4,7.3c-1.4,2.2-3.8,3.5-6.4,3.5c0,0-0.3,0-0.3,0
			c-1.6,0-3.3,0.2-5.1,0.3c-2,0.2-4.1,0.4-6.2,0.4c-1.2,0-2.3-0.1-3.4-0.2c-0.6-0.1-1.3-0.1-2-0.2c-3.5-0.4-7.9-0.8-12-3
			c-0.7-0.4-1.3-0.5-2.1-0.5c-0.8,0-1.7,0.1-2.9,0.5c-1.3,0.3-2.9,0.7-4.7,0.7c-1.7,0-3.2-0.3-4.6-1c-0.5-0.2-0.7-0.2-0.9-0.2
			c-1.2,0-3.4,1.5-4.5,2.1c-3.5,2.3-7.7,4.8-13.2,5.6c-0.9,0.1-1.9,0.4-2.8,0.9c-2.1,1-5.3,2.2-9.3,2.2c-0.5,0-1.1,0-1.6-0.1l-0.1,0
			c-1,0-2.8,0.9-4.4,1.8l-0.7,0.3C259.2,454.1,258.1,454.4,256.9,454.4z"/>
		<path d="M135.1,23.5c2.2,0,4.4,0.2,6.7,0.9c1.6,0.4,2.7,0.8,3.8,2.4c1.5,2.1,4.1,3.7,6.8,3.7c0,0,0,0,0,0c0,0,0,0,0,0
			c2.9,0,4.4,1.6,5.9,3.6c2.5,3.2,7.5,5,12,5c1.5,0,3-0.2,4.3-0.6c1.5-0.5,3.1-0.9,4.6-0.9c1.9,0,3.8,0.6,5.5,2.3
			c2.1,2.1,4.8,2.7,7.6,2.7c1.4,0,2.8-0.2,4.2-0.3c2.1-0.3,4.2-0.8,6.3-1.1c1.2-0.2,2.5-0.3,3.7-0.3c3.1,0,6,0.7,8.5,3
			c3,2.7,6.3,3.7,9.7,3.7c2.9,0,5.8-0.7,8.5-1.6c4.4-1.4,8.7-1.9,13-1.9c3.7,0,7.4,0.4,11.2,0.8c11.6,1.3,21.3,7.2,31,13.1
			c4.9,3,9.5,6.3,15.7,6.9c4.9,0.5,7.8,4.8,10.4,8.5c4,5.7,8,11.1,14.8,13.6c2.2,0.8,3.4,2.9,4.6,4.8c3,4.7,7,7.7,12.5,8.7
			c3.4,0.6,5.8,3.3,9.3,3.9c1.4,0.2,2.3,2.2,1.6,4c-0.2,0.4-0.6,0.8-0.6,1.1c0.4,10.7-3.6,21.3-0.6,32.1
			c3.6,13.1,7.1,26.2,10.8,39.2c0.8,2.8,2.5,5.2,3.2,8.2c0.6,2.2,0.3,3.4-1.4,4.6c-2.1,1.4-4,2.9-5,5.2c-0.8,1.8-2.6,2.5-4.1,2.5
			c-0.3,0-0.5,0-0.7,0c-0.7-0.1-1.4-0.1-2-0.1c-7.3,0-11.8,5-15.8,10.1c-4.1,5.1-7.3,10.8-8.6,17.6c-0.9,4.6-4.3,8.7-4.6,13.6
			c-0.4,5.8-1.9,9.7-8.6,10.6c-2.9,0.4-5.8,2.3-9,3.1c-1.1,0.3-2.1,0.4-3,0.4c-5.1,0-9.1-3.2-13.4-5.4c-1.4-0.7-2.4-2.3-2.8-3.8
			c-1.1-4.7-1.4-9.5,0-14.3c0.4,0.2,0.8,0.4,1.2,0.6c0.2,0.5,0.6,1,0.6,1.5c0.9,6.7,5.5,9.7,11.3,11.7c0.6,0.2,1.1,0.3,1.6,0.3
			c0.7,0,1.4-0.1,2.1-0.4c1.2-0.4,2.5-0.7,3.7-1c0.4-0.1,0.8-0.1,1.2-0.1c0.4,0,0.7,0,1.1,0c1,0,1.9-0.1,2.4-1.1
			c1.2-2.7,2.9-5.3,2-8.5c-0.8-2.8,0.3-5.5,0.8-8.2c0.9-4.9-1.4-8.2-6.4-9c-2.5-0.4-4.9-1.3-7.5-1.3c-0.1,0-0.2,0-0.3,0
			c0,0-0.1,0-0.1,0c-1.4,0-2.2-1.1-2.8-2.2c-4.9-7.8-5.5-16.3-4.3-25.1c0.2-1.1,0.2-1.1,2.5-2.8c-1.7,4.2-0.9,7.7,1.9,10.8
			c1.7,2,2.2,4.6,3.9,6.8c3.1,3.8,7.4,3.6,11.3,4.8c0.2,0.1,0.4,0.1,0.6,0.1c0.8,0,1.5-0.6,2-1.1c4.3-5.1,7.9-10.6,7.9-17.7
			c0-1.6-0.6-3.8-2.2-3.8c0,0,0,0-0.1,0c0,0-0.1,0-0.1,0c-0.6,0-1.4-0.2-2.2-0.2c-1,0-2,0.3-2.5,1.9c-0.6,1.8-2.7,2.9-3.8,4.6
			c-1.5,2.2-1.6,4.1-0.6,6.3c0.7,1.8,1.3,3.6,1,5.9c-3.2-4-6.3-7.5-4.9-13.3c0.8-3.5,1.8-7,2-10.7c0.1-1.6,1-2.2,2.5-2.2
			c0,0,0,0,0,0c0.2,0,0.4,0,0.6,0c1.9,0,3.8-0.1,5.6-0.1c0.8,0,1.6,0,2.4,0c0.3,0,0.6,0,0.8,0c2.4,0,4.7-0.4,6.6-2.2
			c1-0.9,2.2-1.2,3.3-1.2c0.9,0,1.8,0.2,2.8,0.5c1,0.3,1.9,0.4,2.7,0.4c3.5,0,5.5-2.5,5.1-6.8c-0.2-2-0.6-4-1.2-6
			c-0.3-1.2-0.2-2.8-2.5-2.8c-1.2,0-1.8-2-2.1-3.4c-0.7-3.3-1.7-6.6-2-10.1c-0.3-4-1.5-7.8-4-11c-2.5-3.3-4-6.8-3.4-11
			c0.3-2.3-1-4.1-3-4.8c-3.9-1.4-5.6-4.2-6.8-7.9c-1-3.4-2.4-6.5-6.9-6.9c-2.2-0.2-3.9-2.2-6.5-2.2c-0.2,0-0.4,0-0.6,0
			c-4.1,0.5-7.7,2.3-9.9,5.3c-3.1,4.2-7.1,5-11.5,5c-0.4,0-0.9,0-1.3,0c-2.7-0.1-5.4-0.5-8.1-0.5c-1,0-2.1,0.1-3.1,0.2
			c-5.1,0.9-9.7,3.1-14.6,4.5c-3.6,1.1-5,5-6,8.3c-1,3.4-3,5.8-5.5,8.1c-1.8,1.7-3.5,3.5-5.2,5.3c-3.6,3.8-2.5,9.4-5.2,13.6
			c-0.1,0.2,0.1,0.8,0.3,0.8c3.4,0.9,3,3.6,2.9,6.2c0,0.6,0.2,1,0.9,1.1c0,0,0.1,0,0.1,0c0.7,0,1.3-0.3,1.5-0.9
			c1.6-3.5,3.9-4.4,6.5-4.4c2.4,0,4.9,0.8,7.3,0.8c1.6,0,1.1,1.6,0.7,2.5c-1.9,5.3-5,9.7-10,12.5c-1.1,0.6-2.1,1.1-2.5,2.3
			c-2.2,6-4.7,12-1.2,18.4c0.9,1.6-0.4,2.7-1,3.8c-1.1,1.9-0.4,2.4,1.4,2.8c2.7,0.5,7.5,6.6,7.4,9.3c-0.1,1.6-1.4,2.4-2.1,3.5
			c-2.8,3.9-4.4,8.6-8.4,11.7c-1.1,0.9-0.6,2-0.6,3c0.2,5,1.6,9.7,2.7,14.5c1.6,6.7,0.3,12.9-2.5,19c-2.9,6.4-2.9,12.5,1.2,18.6
			c2,2.9,1.9,6.5,1.8,10c-0.1,3.1,0.9,4.9,4,5.9c12.6,4.1,21.7,12.8,27.6,24.1c2.7,5.1,5.6,9.2,9.7,13c3.9,3.5,5.4,8.4,6.4,13.7
			c1.2,5.9,2.9,11.8,7.6,16.3c3.7,3.6,7,7.5,11.6,10c1.9,1.1,2.8,3.1,3.9,4.9c3.3,5.2,4.4,10.6,4.1,16.9c-0.3,6.8,2.5,13.4,5.6,19.5
			c1.9,3.8,2.8,8.1,5.3,11.7c0.5,0.8,0.9,1.6,2,1.9c4.5,1.1,8.1,3.1,9,8.2c0,0.3,0.3,0.5,0.5,1.1c-0.1,0-0.2,0-0.3,0
			c-3.9,0-7.7,0.7-11.3,0.7c-0.9,0-1.7,0-2.5-0.1c-3.7-0.5-7.9-0.5-11.3-2.3c-1.9-1-3.8-1.4-5.7-1.4c-1.6,0-3.2,0.3-4.8,0.7
			c-0.9,0.2-1.9,0.5-2.8,0.5c-0.6,0-1.1-0.1-1.6-0.3c-1.4-0.6-2.7-0.9-4-0.9c-3.1,0-5.9,1.6-8.6,3.4c-3.2,2.1-6.3,3.9-10.2,4.5
			c-1.7,0.2-3.3,0.7-4.9,1.5c-1.9,0.9-3.9,1.5-6.1,1.5c-0.3,0-0.6,0-1,0c-0.3,0-0.5,0-0.8,0c-3,0-5.8,1.5-8.5,2.9
			c-1.3-3.8,0-7.5,3-9.7c2.7-1.9,5.4-3.9,7.7-6.2c2.2-2.2,5.6-2.1,7.8-4.9c-1.7,0-3.3-0.1-4.8-0.1c-1.8,0-3.6,0.2-5.4,1
			c-3.3,1.5-7.2,2-10.9,2.2c-2.9,0.2-5.2,0.8-7.1,3c-0.7,0.8-1.5,1.6-2.8,1.6c-0.2,0-0.4,0-0.6-0.1c0.8-5.6,3.2-10.3,8.2-12.7
			c3.8-1.8,5.7-5.5,9-7.8c1.1-0.8,2-1.2,3-1.2c0.3,0,0.6,0,1,0.1c0.2,0,0.4,0.1,0.6,0.2c2.2,0.4,4.4,1.2,6.6,1.2c0,0,0,0,0.1,0
			c3.1,0,1.5-3.6,3-4.7c5.5-4.1,5.7-10.6,7.1-16.2c1.4-5.4,3.1-11.5-0.6-17.1c-0.8-1.2-1.3-2.6-2.6-3.3c-5-2.7-6.7-7.6-8.3-12.4
			c-1.8-5.4-3.7-10.7-7-15.4c-2-2.9-5.6-4.4-7.3-7.6c-3.6-7-10.2-11.1-16.2-15.3c-3.6-2.6-7.9-5.1-12.6-6.5
			c-3.6-1.1-6.5-3.3-8.2-7.7c-2.2-5.8-1.7-11.5-2.1-17.3c-0.5-6.8-1.9-13.4-3.5-19.9c-1.1-4.4-1.1-8.9-1.5-13.3
			c-0.6-6-0.4-12-2.6-17.7c-0.4-0.9-0.6-1.3-1.1-1.3c-0.3,0-0.7,0.2-1.3,0.5c-3.1,1.5-6.2,3.1-9.8,3.3c3.3-2.5,6.9-4.5,9.2-8
			c0.5-0.8,1.6-1.3,0.8-2.4c-0.5-0.8-1.1-2-1.9-2c-0.1,0-0.2,0-0.3,0.1c-0.8,0.3-1.6,0.4-2.4,0.4c-1.6,0-3.2-0.4-4.8-0.5
			c-0.2,0-0.3,0-0.5,0c-4.1,0-5.6,3-7,5.7c-3.2,6.3-4.7,12.9-3,20.2c1.5,6.6,0.5,13.4-1.3,20c-2.8,9.8-1.6,19.8-1.4,29.7
			c0.1,3,0.7,5.9,1.5,8.8c0.9,3.3-1,6.6-2.6,9.3c-1.5,2.5-3.5,4.9-5.3,7.2c-1,1.3-2.2,2.5-3.8,2.9c-3.1,0.7-3.9,3.4-5.3,5.6
			c-0.6,0.9-0.7,2.3-0.1,3.1c3.7,4.2,1.9,9.8,3.7,14.5c0.7,1.8-0.1,3.6-2.1,5.2c-3.4,2.7-3.2,7.3-4.3,11.1
			c-1.6,5.4,0.3,10.9-0.2,16.3c-0.1,0.9,0.1,1.8-0.2,2.6c-2,6.5,0.7,11.3,5.2,15.5c1.5,1.4,1.8,3.6,3.6,4.8c0.6,0.4,0.9,0.6,1.3,0.6
			c0.4,0,0.7-0.2,1.2-0.9c0.7-0.9,1.5-1.3,2.3-1.3c1.1,0,2,0.8,2.5,2.2c0.5,1.8,1.5,3,2.9,4.1c1.7,1.4,3.1,3.3,2.6,5.5
			c-0.4,2.3-2.5,3.8-4.7,4.4c-2.9,0.8-5.6,2-8.3,3.3c-1.4,0.7-2.9,0.9-4.4,0.9c-1.8,0-3.6-0.3-5.4-0.6c-1.5-0.3-3.1-0.4-4.6-0.4
			c-3.6,0-7.1,0.6-10.7,1c-1.4,0.2-2.7,0.3-4.1,0.3c-2.3,0-4.6-0.3-6.9-1.3c-1.6-0.7-3.5-0.7-5.3-1c-4.5-0.7-7.8-3-9.8-7.2
			c-0.4-0.8-0.8-1.4-1.4-1.4c-0.3,0-0.7,0.3-1.1,1c-1.2,2.3-2.9,2.9-4.8,2.9c-0.8,0-1.6-0.1-2.4-0.3c-0.7-0.1-1.3-0.2-1.9-0.2
			c-0.9,0-1.8,0.2-2.9,0.9c0.2-2.6,0.9-4.2,2.5-5.7c2.6-2.5,5.1-5.2,6.3-8.8c0.6-1.7,2.3-2.7,4.1-2.7c1,0,2,0.3,2.8,0.9
			c0.9,0.7,1.7,1.7,2.7,2.2c0.5,0.3,1,0.4,1.4,0.4c1.3,0,2.2-1,2.3-2.6c0-1.2-1.4-2.8,0.4-3.4c1.2-0.4,2.5-1.1,3.8-1.1
			c0.8,0,1.5,0.2,2.3,0.9c0.1,0.7-0.1,1.5,1.2,1.9c0-4.3,0-8.6,0-12.8c0.2-5.1-0.6-10-1.6-15c-1-5.2-0.7-10.4,1.8-15.3
			c3.2-6.2,5.5-12.6,4.3-19.7c-0.1-0.3,0-0.7-0.1-1c-2.8-6.8-2.1-13.6-1.5-20.7c0.5-6.6-1.9-13.3-1.6-20.1
			c0.4-8.8,0.8-17.6,6.3-25.1c1.6-2.2,1.6-5,1.5-7.8c-0.2-2.9,0.2-5.4,3.4-6.8c2.5-1.1,2.8-3.7,2.4-6.1c-0.5-3,0.2-5.4,2.4-7.5
			c3-2.8,1.3-6.5,1.3-9.8c0-3.9-0.3-7.7,1.7-11.2c1.9-3.2,0.2-6.1-0.5-9.4c-3.2,2.1-6,4.5-8.6,7c-0.6,0.6-1,1.4-1.2,2.2
			c-1.4,7.9-7.9,11.9-13.3,16.7c-0.4,0.4-1,0.5-1.5,0.5c-0.7,0-1.4-0.3-1.9-0.6c-1.5-1-3.4-2.1-4-3.6c-1.4-3.3-3.9-3.7-6.6-3.7
			c-0.6,0-1.2,0-1.8,0c-0.1,0-0.2,0-0.3,0c-5.8,0-10.5-4.5-10.4-10.3c0-2.5,0.2-4.9,0-7.4c-0.1-2,0.5-3.5,1.7-5
			c4.8-5.6,5.6-12.1,3.6-19c-0.9-2.9-1.1-5.7-0.8-8.8c0.8-8.1-0.4-16.3-0.9-24.4c-0.4-8.1-2.2-16.1-2.4-24.3
			c-0.1-3.6-1.1-7.4-3.1-10.7c-3.3-5.3-4.9-10.9-2.8-17.1c0.3-0.9,0.2-1.9,0.2-2.9c-0.2-4.2,1.5-7.5,4.6-10.2
			c2.1-1.8,3.4-4.1,3.5-6.6c0.3-4.4,0.9-8.7,1.7-13c1-5-0.3-9.8,0.3-14.7c0.1-1.3-0.3-2.8-1.1-4c-5.3-7.9-5.1-16.6-1.6-24.6
			c2-4.6,7.5-7.6,12.8-8.7C128.2,24.1,131.7,23.5,135.1,23.5 M276.4,62.2c-2.5-4.2-8.3-7.8-15.1-9.9c-0.4-0.4-0.9-0.7-1.3-0.7
			c-0.2,0-0.4,0.1-0.6,0.3c-0.3,0.5,0.5,0.9,1.2,1.1C264.2,58.5,270.1,60,276.4,62.2 M308.3,74.4c-2.1-3.4-5.2-4.2-8.4-4.5
			c-0.2,0-0.3,0-0.5,0c-0.9,0-1.9,0.3-2,1.4c-0.2,1.4,1.1,1.7,2.2,1.7C302.4,73,305.2,73.3,308.3,74.4 M234.4,91.4
			c2.6,0,5.4-1.8,6.3-4.7c0.8-2.5,0.1-3.4-2.6-3.5c-1.9,0.3-3.8,0.4-5.6,1c-3.1,1-3.5,4.1-1,6.1C232.3,91.1,233.3,91.4,234.4,91.4
			 M246.8,107.8c0.5,0,1.1-0.3,1.5-0.6c3.8-2.6,7.8-4.7,12.1-6.5c2.5-1,4.1-3.3,4.9-5.8c-0.2-1.8-1.1-3.1-2-4.5
			c-1.2-2-2.7-3.1-4.1-3.1c-1.2,0-2.4,0.7-3.6,2.2c-3.8,4.7-5.1,11.1-9.7,15.4c-0.6,0.5-0.8,1.9,0.1,2.7
			C246.2,107.7,246.5,107.8,246.8,107.8 M255.2,114.6c0.6,0,1.3-0.3,1.9-0.5c5.4-2,10.7-4.2,15.8-7c2.2,0.4,4.4,0.9,6.6,1.1
			c1.3,0.2,2.7,0.4,3.9,0.4c2.4,0,4.7-0.7,6.4-3.4c-0.2,0-0.5,0-0.7,0c-2,0-3.9,0.8-5.7,0.8c-0.6,0-1.2-0.1-1.9-0.3
			c-1.4-0.5-2.8-0.8-4.1-0.8c-2.1,0-4.1,0.6-6.1,1.5c0,0,0,0,0,0c-5.3,0.6-9.9,3.5-15.1,4.4c-0.1,0-0.2,0.1-0.3,0.1
			c-1.1,0.6-2.6,1.3-2,2.8C254.2,114.4,254.7,114.6,255.2,114.6 M327.9,115.2c0.2,0,0.6-0.4,0.6-0.5c-0.1-2.3-2-3-3.5-4.2
			c0,0-0.1,0-0.1,0c-0.1,0-0.4,0.1-0.8,0.1C324.7,112.9,325.8,114.5,327.9,115.2C327.9,115.2,327.9,115.2,327.9,115.2 M238,135.9
			c0.7,0,1-0.9,1.3-1.5c0.8-1.2,1.6-2.5,2.2-3.9c1.2-2.5,3.7-3.8,5.2-6c0.4-0.6,1.2-1.6,0.3-2.3c-0.6-0.4-1.3-1-2.1-1
			c-0.3,0-0.5,0.1-0.8,0.3c-3.9,3.1-6.2,7.3-7.4,12.2c-0.1,0.8,0,1.7,0.7,2C237.7,135.9,237.9,135.9,238,135.9 M161.3,143.2
			c0.1,0,0.2,0,0.4-0.1c0.9-0.4,0.3-1.3,0.4-1.8c-0.1-4.7-2.1-8.6-4.4-12.4c-0.4-0.7-0.9-1.2-1.6-1.2c-0.1,0-0.3,0-0.4,0.1
			c-0.9,0.2-0.8,1.1-0.8,1.9c0.2,4.7,1.5,9,5,12.4C160.3,142.5,160.7,143.2,161.3,143.2 M155.2,144.2c0.2,0,0.5-0.1,0.7-0.2
			c0.8-0.5,0.5-1.5,0.3-2.4c-0.9-3.3-2.4-6.3-4.5-10.2c-0.6,4.7-1.3,8.5,1.7,11.7C154,143.6,154.6,144.2,155.2,144.2 M129,146.5
			c4.3-3.1,5.1-7.4,5.4-11.8c0.1-1.1,0.2-2.6-1.3-2.9c-0.2,0-0.4-0.1-0.6-0.1c-1.1,0-2,0.8-2.4,2C129,137.7,127.9,141.8,129,146.5
			 M133,164.3c1.4-3.1,2.1-5.4,1.4-7.9C133.1,158.6,131.8,160.7,133,164.3 M136,204c5-4.4,10-8.7,15-13.1c0.5-0.4,1-1.4,0.4-1.6
			c-3.6-1.3-3.9-6.2-7.8-7.1c-1.4-0.3-2.2-1.6-2.3-2.8c-0.2-1.5,1.3-1.8,2.4-2.1c1.6-0.5,3.2-1.1,4.8-1.1c1.2,0,2.4,0.3,3.7,1.1
			c1.5,0.9,3.2,1.8,5.1,1.8c0.9,0,1.8-0.2,2.8-0.7c2.2-1.2,2.4-3.3,2.8-5.4c1-4.8-0.2-6.7-5-7.3c-2.6-0.3-5.1-0.3-7.7-0.6
			c-0.4-0.1-0.9-0.1-1.3-0.1c-3.6,0-6.2,2.1-8.1,5c-3.5,5.4-5,11.6-5.2,18c-0.1,3,0,6-0.7,8.9C134.4,199.3,134.6,201.5,136,204
			 M154.1,316.3c3.3-5.1,5.5-22.1,1.1-29C151,296.2,147.4,309.9,154.1,316.3 M135.1,8.5C135.1,8.5,135.1,8.5,135.1,8.5
			c-4.7,0-9.1,0.7-13.1,1.5c-11,2.2-19.8,8.7-23.6,17.3c-5.6,12.6-5.1,25.4,1.3,36.5c0,2,0.1,3.8,0.1,5.4c0.1,1.7,0.2,3.5,0,4.4
			c-0.8,4.2-1.4,8.4-1.8,12.6c-5.6,5.5-8.5,12.6-8.3,20.2c-2.5,9.2-0.9,18.5,4.8,27.8c0.5,0.9,0.9,2,0.9,3.1
			c0.1,5.3,0.7,10.3,1.4,15c0.5,3.4,0.9,6.7,1,9.8c0.1,2.5,0.3,4.9,0.5,7.2c0.4,5.3,0.8,10.4,0.4,14.9c-0.5,5,0,9.7,1.4,14.5
			c0.9,3.2,0.2,4.1-0.6,5c-3.9,4.5-5.7,10-5.3,15.8c0.1,1,0,2.4,0,3.9c0,0.8,0,1.5,0,2.3c-0.1,6.8,2.5,13.2,7.2,18
			c4.4,4.5,10.2,7.1,16.5,7.5c2.1,2.3,4.3,3.7,5.8,4.7l0.3,0.2c3.1,2,6.5,3,10.1,3c0.1,0,0.1,0,0.2,0c-1.1,2.8-1.6,6.1-1.4,10.2
			c0,0,0,0.1,0,0.1c-6.7,10.5-7.3,21.6-7.7,30.7l0,0.6c-0.2,4.8,0.4,9.1,1,12.9c0.4,2.6,0.8,5.1,0.6,6.7l-0.1,0.9
			c-0.6,7-1.2,15.5,1.8,24.5c0.4,2.6-0.5,5.6-2.9,10.3c-3.9,7.5-5,16.2-3.2,25.1c0.8,3.9,1.3,7.2,1.4,10.2c-0.2,0.1-0.4,0.3-0.7,0.4
			c-0.4,0-0.8,0-1.2,0c-8.2,0-15.6,5.1-18.2,12.8c-0.2,0.4-1.1,1.5-2.7,3c-4.2,4.2-6.5,9.3-6.9,15.5c-0.3,5.6,2.5,11,7.3,13.8
			c2.4,1.4,5,2.1,7.6,2.1c1.4,0,2.8-0.2,4.2-0.6c1.1,0.1,2.1,0.2,3,0.2c0.9,0,1.8-0.1,2.7-0.2c3.5,2.4,7.5,4,12.1,4.7
			c0.9,0.1,1.6,0.2,2.2,0.3c0.1,0,0.3,0,0.4,0c3.7,1.4,7.6,2.1,11.9,2.1c1.8,0,3.6-0.1,5.8-0.4c0.8-0.1,1.6-0.2,2.5-0.3
			c2.4-0.3,4.6-0.6,6.5-0.6c0.8,0,1.5,0.1,2.1,0.2l0.1,0c2.1,0.4,4.7,0.8,7.7,0.8c3.9,0,7.6-0.8,10.9-2.3c2.1-1,4.1-1.9,5.9-2.4
			c8.1-2.2,14-8.4,15.5-16c1.3-6.9-1.2-13.9-6.7-19c-2.7-6.1-8.4-10.2-15-10.6c0,0-0.1-0.1-0.1-0.1c0.6-2.3,0.6-4.2,0.6-5.2
			c0.3-3.4,0-6.5-0.2-9c-0.1-1.4-0.3-3.5-0.2-4.1c0.5-1.7,0.8-3.3,1-4.6c0-0.2,0.1-0.4,0.1-0.6c5.7-5.6,7.6-13.2,4.9-20.3
			c-0.1-0.4-0.1-1.3-0.2-1.9c-0.1-1.6-0.3-3.5-0.7-5.6c2-1.7,3.3-3.3,4-4.1c0.3-0.4,0.6-0.7,0.9-1.1c1.8-2.2,3.8-4.8,5.6-7.8
			c2.2-3.7,6.7-11.4,4.1-20.8c-0.6-2.3-0.9-3.9-0.9-5.1c0-2.1-0.1-4.2-0.2-6.2c-0.3-7.2-0.5-13.4,1-19c0.9,4,1.6,8,1.9,12.1
			c0.1,1.2,0.1,2.5,0.2,3.8c0.2,4.9,0.4,11,2.9,17.7c3.2,8.3,9.4,14.1,17.9,16.6c2.4,0.7,5.1,2.2,8.2,4.3c0.6,0.4,1.2,0.9,1.8,1.3
			c4.4,3.1,8.1,5.7,9.7,8.8c2.3,4.4,5.5,7.1,7.7,8.8c0.3,0.2,0.6,0.5,0.9,0.7c1.9,2.9,3.2,6.6,4.9,11.4c1.9,5.4,4.6,13.3,12.3,18.8
			c-0.1,1.1-0.7,3.3-1.1,4.8l-0.1,0.4c-0.4,1.5-0.7,3-1,4.3c-0.3,1.3-0.6,3.1-1,4c0,0-0.1,0-0.1,0.1c-0.6-0.1-1.2-0.1-1.8-0.1
			c-6.1,0-10.4,3-11.7,4c-2.6,1.8-4.4,3.8-5.8,5.3c-0.4,0.5-1,1-1.3,1.3c-8.8,4.4-14.6,12.9-16.2,23.9c-1.2,8,4.2,15.4,12.2,16.9
			c0.2,0,0.5,0.1,0.7,0.1c0.2,1.1,0.5,2.2,0.9,3.3c1.4,4.1,4.6,7.3,8.6,9c1.8,0.7,3.7,1.1,5.6,1.1c2.3,0,4.7-0.5,6.8-1.6l0.7-0.4
			c0.6-0.3,1.3-0.7,1.8-0.9c0.3,0,0.6,0,1,0c5.5,0,9.7-1.7,12.4-2.9c0.3-0.1,0.5-0.2,0.8-0.2c6.6-1,11.7-3.8,16.2-6.7
			c0.3-0.2,0.5-0.3,0.7-0.5c1.7,0.5,3.4,0.7,5.2,0.7c2.5,0,4.8-0.5,6.6-0.9c0.2-0.1,0.4-0.1,0.5-0.1c5.1,2.5,10.1,3,13.9,3.4
			c0.6,0.1,1.2,0.1,1.8,0.2c1.4,0.2,2.8,0.3,4.3,0.3c2.5,0,4.9-0.2,7-0.4c1.6-0.2,3.1-0.3,4.4-0.3l0.1,0c0,0,0.1,0,0.1,0
			c5.2,0,10-2.7,12.7-7c2.6-4.2,3-9.5,1-14c-1.4-5.1-5-11.9-14-15.9c-0.2-0.5-0.4-1-0.6-1.5c-0.7-1.8-1.5-3.9-2.6-6.1
			c-2-4.1-4.1-8.7-4-12.2c0.4-9.7-1.7-18-6.4-25.5c-0.1-0.2-0.3-0.5-0.4-0.7c-1.3-2.3-3.8-6.6-9-9.4c-1.8-1-3.7-3-6-5.3
			c-0.8-0.8-1.5-1.5-2.3-2.3c-1.5-1.4-2.4-3.9-3.4-8.5c-1.3-6.7-3.8-15.2-11-21.8c-2.6-2.4-4.6-5-6.5-8.8c-6.9-13.3-17.2-23.3-30-29
			c-0.4-3.7-1.4-8.2-4.2-12.4c-0.7-1.1-1.1-1.6,0-4.1c4.5-10,5.6-19.3,3.4-28.6c-0.2-0.7-0.3-1.4-0.5-2c-0.5-2.1-1-4.1-1.3-6
			c1.7-2.2,2.9-4.4,4-6.2c0.5-0.9,1-1.8,1.5-2.5c1.4-1.5,4.9-5.6,5.1-12.1c0.2-6.2-3.1-11.7-5.9-15.3c-0.5-0.7-1.1-1.3-1.6-1.9
			c-0.3-2.6-1.1-4.7-2-6.2c0.1-0.5,0.3-1.4,0.6-2.4c6.3-4.3,11-10.6,13.9-18.7c2.7-7.3,0.7-12.6-1.5-15.7c-2.2-3.3-5.5-5.5-9.3-6.5
			c2.4-2.7,5-6.4,6.6-11.4c0.7-0.2,1.4-0.5,2-0.7c2.6-0.9,4.9-1.8,6.9-2.1c0,0,0.2,0,0.6,0c0.8,0,1.9,0.1,3,0.2
			c1.4,0.1,2.9,0.3,4.6,0.3c0.6,0,1.2,0,1.8,0c9.3,0,16.7-3.1,22-9.2c1.9,4.8,4.7,8.6,8.3,11.4c0.7,4.9,2.8,9.7,6.2,14.3
			c0.4,0.5,0.9,1.4,1,3.2c0.3,3.8,1.1,7,1.8,9.9c0.2,0.8,0.4,1.5,0.5,2.3c0.2,0.7,0.3,1.4,0.5,2c-0.7,0.3-1.3,0.7-1.9,1.1
			c-0.6,0-1.3,0-2,0c-1,0-2,0-3,0c-0.9,0-1.7,0-2.6,0l-0.5,0c0,0-0.1,0-0.1,0c0,0,0,0,0,0c0,0,0,0,0,0c-6.3,0-11.7,3-14.8,7.8
			c-0.6-0.1-1.2-0.1-1.9-0.1c-3.2,0-6.4,1-9.1,3.1l-0.4,0.3c-2.8,2.1-6.9,5.3-8,12.4c-1.7,11.7-0.4,21.8,4,30.7
			c-0.5,0.1-0.9,0.3-1.4,0.5c-4.1,1.7-7.3,5.2-8.5,9.5c-2.1,6.9-2.1,14.1-0.2,22.1c1.4,5.9,5.4,11,10.5,13.6
			c0.7,0.4,1.5,0.8,2.4,1.3c4,2.3,10,5.8,17.9,5.8c2.2,0,4.4-0.3,6.6-0.8c2.5-0.6,4.6-1.5,6.3-2.2c0.5-0.2,1.1-0.5,1.5-0.6
			c7.6-1.1,19.8-5.8,21.1-24.2c0.2-0.5,0.7-1.7,1.1-2.6c1.1-2.4,2.5-5.5,3.2-9.3c0.7-3.6,2.5-7.2,5.7-11.2c2.5-3.1,3.6-4.2,4.2-4.5
			c0,0,0.1,0,0.1,0c0.8,0.1,1.7,0.2,2.5,0.2c7.3,0,13.8-3.8,17.2-10c0.1-0.1,0.2-0.1,0.3-0.2c3.3-2.2,10.7-8.6,7.6-20.7
			c-0.7-2.9-1.8-5.3-2.6-7c-0.3-0.6-0.6-1.3-0.7-1.6c-3.2-11.4-6.4-23.1-9.5-34.4l-1.3-4.7c-1-3.8-0.5-8.5,0.2-13.9
			c0.4-3.4,0.9-7.2,1-11.2c1.5-4.8,1-9.9-1.4-14.3c-2.4-4.3-6.4-7.4-11.1-8.4c-0.2-0.1-0.5-0.3-0.7-0.4c-2.1-1.2-5.2-3-9.5-3.7
			c-0.7-0.1-1.3-0.2-2.4-1.9l-0.2-0.3c-1.6-2.6-5.1-8.1-12-10.6c-2.3-0.8-4.3-3.3-7.6-8.1l-0.1-0.1c-3.3-4.8-9.4-13.6-21.2-14.8
			c-1.9-0.2-4.2-1.6-7.8-3.8c-0.5-0.3-1-0.6-1.5-0.9c-9.8-6-21.9-13.6-37.2-15.3c-4-0.5-8.3-0.9-12.8-0.9c-6.4,0-12.1,0.8-17.6,2.6
			c-2,0.7-3.2,0.8-3.8,0.9c-5-4.4-11.1-6.7-18.3-6.7c-1.8,0-3.6,0.1-5.7,0.4c-1.5,0.2-2.8,0.5-4,0.7c-0.8,0.2-1.6,0.3-2.2,0.4
			c-0.3,0-0.7,0.1-1.2,0.1c-4.1-3.3-8.9-5-14.2-5c-3.6,0-6.8,0.8-8.9,1.5c-0.3,0-0.6-0.1-0.8-0.1c-2.1-2.5-6.4-7.1-13.7-8.3
			c-3.9-4-8.3-5.3-10.1-5.8C142.4,8.9,138.9,8.5,135.1,8.5L135.1,8.5z M144.5,138.1L144.5,138.1L144.5,138.1L144.5,138.1z"/>
	</g>
</g>
</svg>
