<?xml version="1.0" encoding="utf-8"?>
<!-- Generator: Adobe Illustrator 24.1.0, SVG Export Plug-In . SVG Version: 6.00 Build 0)  -->
<svg version="1.1" id="Livello_1" xmlns="http://www.w3.org/2000/svg" xmlns:xlink="http://www.w3.org/1999/xlink" x="0px" y="0px"
	 viewBox="0 0 474 374.4" style="enable-background:new 0 0 474 374.4;" width="50" height="50" xml:space="preserve">
<style type="text/css">

		.Stile_x0020_grafica{fill:#FEFEFE;stroke:#000000;stroke-width:15;stroke-linecap:round;stroke-linejoin:round;stroke-miterlimit:10;}
	.st0{fill:#FEFEFE;}
</style>
<g>
	<path class="st0" d="M348.8,358.4c-3.2,0-6.2-1.7-8-4.4c-0.5,0.2-1.1,0.4-1.6,0.7c-2.8,1.4-5.8,2-9.1,2c-0.4,0-0.7,0-1.1,0l-0.1,0
		c-1.2,0-2.2-0.2-3.1-0.5c-1.6,1.2-3.5,1.8-5.7,1.8c-1.7,0-3.5-0.4-5-1.2c-4.3-2.2-7.6-6-9.3-10.7c-1.1-2.9-1.8-8.7,5.1-14
		c1.1-2,2.9-3.7,5-4.9c-0.9-1.1-1.6-2.3-2.1-3.5c-1.2-2.7-3.6-5-6.3-7.5c-1.9-1.8-3.8-3.6-5.6-5.8c-1-1.2-2.2-2.4-3.4-3.7
		c-2.1-2.2-4.5-4.7-6.5-7.7c1.2,3.7,1.1,7.6-0.5,11.4c1.4,3.6,1.4,7.2,1.1,10.1c0,0.1,0.1,0.2,0.1,0.3c0.3,0.6,0.8,1.5,1.1,2.6
		c1.7,5.1,2.9,6.2,4.8,6.8c4.9,1.4,7.7,6.3,6.4,10.9c-1.1,3.8-4.8,6.4-9.1,6.5l-0.2,0c-5.5,0-9.8-2.4-12.8-4.8
		c-1.3,0.7-2.8,1.1-4.4,1.1c-1.5,0-3-0.3-4.3-1c-1.7-0.8-3.5-1.7-5.2-2.9c-1,0.4-2.1,0.6-3.2,0.6c-2.9,0-4.9-1.4-5.9-2.1
		c0,0-0.1-0.1-0.1-0.1c-1.5-0.7-2.8-1.6-4.1-2.6c-1.5,0.9-3.2,1.5-5,1.5c-2.2,0-4.3-0.7-5.8-2c-0.1,0-0.1-0.1-0.2-0.1
		c-1-0.5-3-1.6-4.5-3.7c-0.3,0-1.4,0.3-1.8,0.3c-0.8,0.2-1.7,0.3-2.5,0.4c-2.3,0.4-4.3,0.7-5.8,1.4c-1.4,0.6-2.8,0.9-4.4,0.9
		c-1.9,0-3.8-0.5-5.8-1.3c-0.2-0.1-0.3-0.1-0.3-0.1c-0.2,0-0.4,0.1-0.7,0.2c-1.9,0.7-3.5,1.1-5,1.1c-1.9,0-8.2-0.7-9.8-9.2
		c-1.4-7.5,3.5-15.1,11.4-17.7c2.1-0.7,4.1-1,6.2-1.1c-0.4-5.5,0.6-10.8,3.2-15.6c-2.3-3.2-4-6.5-5.6-9.7c-0.9-1.7-1.7-3.4-2.6-4.9
		c-0.4-0.7-0.7-1.3-1.1-2c-0.7-1.3-1.4-2.6-2.2-3.7c-2.2-3.4-3.9-8.9,0.7-15.5c0.3-0.4,0.6-0.9,0.9-1.3c1.7-2.5,3.7-5.4,6.5-8
		c-1.3-4.2-1-8.2-0.7-11.4c0.1-0.7,0.1-1.3,0.2-2c0-0.5,0.1-1.1,0.2-1.6c0-0.1,0-0.2,0.1-0.4c-0.3-2.5,0.2-4.9,1.3-6.9
		c-1-0.4-2-1-3-1.8c-0.4,1.1-0.8,2.2-1.3,3.4c-0.4,0.9-0.6,2.5-0.9,4.1c-0.2,1.1-0.3,2.2-0.6,3.3c-0.7,3.4-2.5,6.2-5,7.7
		c-0.1,0.3-0.1,0.7-0.2,1c-0.1,0.4-0.1,0.8-0.2,1.2c-0.5,2.8-1.1,5.7-1.9,9.2c-0.3,1.3-0.6,2.6-0.8,3.9c-0.6,2.9-1.2,6-2.1,9
		c-1,3.6-2.3,7.5-4.4,11.3c-0.4,0.7-0.7,1.7-0.7,2.6c-0.2,2.4-0.7,4.5-1.1,6.4c-0.3,1.1-0.5,2.1-0.6,2.9c-0.4,2.5-1.3,4.5-2.1,6
		c-0.3,0.6-0.7,1.4-0.8,1.8c0.1,2.2-0.8,4.4-2.3,6c-1.6,1.7-4,2.7-6.4,2.7c-0.5,0-0.9,0-1.4-0.1c-4.5-0.7-7.6-4.4-7.6-8.9
		c0-0.8,0-1.7-0.1-2.5c-0.1-2.4-0.2-5.1,0.3-7.9c0.1-0.8,0-1.9-0.1-3.1c-0.1-0.6-0.1-1.2-0.2-1.9c-0.6-7.9-0.6-15.9,0-23.7
		c0.1-0.6,0.1-1.2,0.1-1.8c0.2-2.7,0.4-5.8,1.4-9c0.5-1.6,1-3.1,1.6-4.7c0.7-2.1,1.4-4,2-6c0.1-0.3,0.2-0.7,0.3-1
		c0.2-0.6,0.5-1.5,0.5-1.9c-1.2-4,0.6-7.1,1.2-8.2l0.1-0.2c0.6-1.5,1.1-3.1,1.7-4.8c0.3-0.8,0.5-1.6,0.8-2.4
		c-1-5.8,0.5-11.6,4.5-17.3c0.4-0.6,0.7-1.4,1-2.8c1.3-5.9,3-13.2,7.6-19.8c0.9-1.3,1.5-3.3,2.1-5.4c0-0.3,0-0.6,0.1-0.9
		c-0.3-0.4-0.7-0.8-1-1.2c-1.1-1.5-2.3-3.1-3.5-4.7c-3.5-4.5-7.4-9.5-9.7-16c-1.5-4.2-0.4-7.7,0.3-9.8c0.1-0.4,0.3-0.9,0.3-1.1
		c0.3-3.3,2.6-5.7,5.3-6.9c-0.5-0.7-0.9-1.6-1.3-2.6c-2.3-6.3-2.1-12.4-1.7-18c-0.9-0.4-1.7-0.9-2.3-1.2c-0.2-0.1-0.4-0.2-0.6-0.3
		c-0.4-0.2-1.7-0.4-2.7-0.5c-1.3-0.2-2.8-0.3-4.4-0.8c-0.4-0.1-0.9-0.2-1.3-0.4c-0.9-0.3-1.8-0.5-2.7-0.7l-0.7-0.1
		c-5.7-1.2-11.6-2.5-17.4-4c-6.9-1.8-13.7-4.5-21-8.1c-5.8-2.9-10.9-6.5-15.8-10c-0.9-0.7-1.9-1.3-2.8-2
		c-6.4-4.5-11.7-9.1-16.2-14.2c-0.4-0.4-0.7-0.8-1.1-1.2c-3.2-3.6-6.9-7.8-8.7-13.6c-0.1-0.4-0.2-0.8-0.4-1.2
		c-1.3-4.1-3.5-10.8,0.8-17.3c1.9-8.8,9.6-11.9,13.8-13.6c0.6-0.2,1.2-0.5,1.7-0.7c3.9-1.7,8-2.6,12.1-2.6c4.2,0,8.4,0.9,12.3,2.7
		c0.6,0.3,1.2,0.5,1.9,0.8c1.2,0.5,2.7,1,4.1,1.8c7.3,3.8,10.5,10.6,12.6,15.1c3,6.3-0.7,11.9-2,13.7c-1.8,2.7-4.7,4.2-7.8,4.2
		c-1.8,0-3.5-0.5-5.1-1.5c-2.1-1.3-3.5-3.3-4-5.6c-0.2-0.9-0.2-1.8-0.1-2.7c-2.9-0.4-5.4-2.3-6.5-4.9c-0.6-0.1-1.3-0.2-2.1-0.4
		c-0.2,0.1-0.4,0.2-0.7,0.3c0.5,0.7,0.8,1.3,1,1.7c1.9,1.3,3.3,3.1,3.7,5.3c0.1,0.4,0.1,0.7,0.1,1.1c0.9,0.9,1.6,1.9,2.1,3.1
		c0.3,0.7,0.6,1.4,0.7,2.2c1.1,1,1.8,2,2.3,2.7c1.9,1,3.1,2.3,4,3.3c1.2,0.3,2.3,0.8,3.2,1.6c0.3,0,0.5,0,0.8,0
		c4.6,0.5,6.9,2.8,7.9,4.7c1.1,0.5,2.3,1.4,3.4,2.5c0.8,0.2,1.8,0.4,2.8,0.9c5.7,2.5,11.4,3.9,17,3.9c1.9,0,3.6,0.4,5,1.2
		c4,2.1,8.9,2.7,14,3.2c0.2,0,0.4,0,0.5,0.1c-0.1-0.3-0.1-0.7-0.1-1c-0.6-6.8,3.6-10.7,6-12.9c-0.9-2.5-1.6-6.5,0.8-10.7
		c0-0.1,0-0.2,0-0.2c-1.4-7.9,1.8-14.1,9.7-18.4c1.6-0.9,3.3-2.4,5.1-3.9c0.6-0.5,1.2-1,1.8-1.5c3.3-2.8,7.5-4.4,11.9-4.6
		c1.4-0.1,2.9-0.2,4.4-0.3c2.4-0.2,4.9-0.4,7.4-0.4c3,0,5.7,0.3,8.3,0.9c2.1,0.5,4.6,1.1,7.1,2c0.2,0.1,0.5,0.1,1.2,0.1
		c0.8,0,1.8-0.1,3-0.4c2.3-0.5,4.8-1.4,7.4-2.5c2-0.8,4-1.6,6.2-2.2c1.5-0.5,3.1-0.7,4.7-0.7c7.9,0,15.5,5.9,17.6,13.6
		c0.1,0.4,0.2,0.8,0.4,1.2c0.7,2.1,1.8,5.4,0.9,9.3c-1.4,6-5.6,7.8-7.3,8.3c-0.9,0.3-1.8,0.4-2.6,0.4c-0.7,0-2.2-0.1-3.8-0.9
		c-0.4,0.2-0.8,0.4-1.2,0.5c-1.2,1.1-2.6,1.6-3.7,1.9c-1.2,0.8-2.5,1.2-3.3,1.5c-0.9,1-2.2,2.2-4,3.2c0.4,1.3,0.6,2.5,0.7,3.3l0,0.2
		c0,0.3,0.2,0.9,0.4,1.4c0.6,1.7,1.4,4.1,1.1,7.1c0,0.5-0.1,1-0.2,1.5c1.7,1.9,3.2,4,4.3,6.6c0.8,0,1.6,0.1,2.3,0.1
		c0.7,0,1.3,0.1,1.8,0.1c0.4,0,0.5,0,0.5,0c1-0.2,2.1-0.4,3.2-0.7c4.5-0.9,7.4-1.5,9.2-3.6c0.8-0.9,1.6-1.7,2.3-2.3
		c0.8-0.8,1.7-1.7,1.9-2.2c1.5-3.5,4.9-5.8,8.7-5.8c1.8,0,3.7,0.5,5.3,1.6c4.6,3,6,8.6,3.3,13.1c-0.2,0.3-0.4,0.6-0.5,0.9
		c0.1,0,0.1,0,0.2,0c0.6,0,1.6-0.4,2.6-0.8c1.6-0.6,3.6-1.3,6-1.6l0.1,0c0.6-0.1,1.5-0.3,2.6-0.3c3.1,0,5.8,1.6,7.4,4.2
		c0.7,1.2,1.9,3.9,0.9,7.1c1.8,1.1,3.2,2.9,3.8,5.1c0.1,0.5,0.3,1.3,0.3,2.1c3.4,0.8,6,3.8,6.2,7.5c0,0.8,0,1.6-0.2,2.3
		c0.4,0.3,0.7,0.7,1,1.2c0.2,0,0.4,0.1,0.6,0.1c0.8,0.2,1.7,0.4,2.1,0.4c0.9-0.2,1.6-0.2,2.4-0.2c4.7,0,8.5,3.4,8.9,8
		c0.4,3.6-1.3,6.9-4.2,8.7c-0.4,1.7-1.2,3.4-2.6,4.7c2.8,2,4.4,5.8,3.6,9.2c0,0,0,0,0,0c0.5,0.8,0.9,1.8,1,2.7
		c0.3,1.7,0.2,4.1-1.8,6.5c-0.1,1.2-0.6,2.4-1.3,3.5c0.2,2-0.3,3.6-0.6,4.4c-0.4,0.9-1.4,2.6-3.4,3.9c0,1.1-0.2,2.4-0.6,3.7
		c-0.4,1.1-0.3,1.8,0,2.5c1.6,4,0.7,6.8-0.4,8.6c0.5,0.7,1,1.6,1.2,2.5c1.2,4.1-0.9,7.3-1.8,8.5c-0.3,0.4-0.5,0.9-0.8,1.4
		c2.2,3.7,1.4,6.8,0.3,8.9c-0.7,1.4-1.8,2.5-3.1,3.2c0.1,0.4,0.2,0.8,0.4,1.3l0.1,0.2c1.4,3.6,1,6.8-1.1,9.5c-1.3,1.7-2.7,2.6-4,3.2
		c0.2,3-0.6,5.2-1.7,6.9c-0.1,0.9-0.3,1.8-0.5,2.5c2.8,1.1,6.1,3.1,8.3,6.6c0.1,0.2,0.3,0.5,0.5,0.7c1.2,1.8,3.8,5.8,3,10.6
		c1.4-0.5,2.5-0.6,3.2-0.6c0.9,0,1.8,0.1,2.8,0.4c4.8,1.4,7.6,6,7,11.1c-0.3,2.1,0.7,4.1,2.5,7.5c0.8,1.5,1.6,3,2.3,4.8
		c0.7,1.7,2,3.3,3.4,5.2c1.3,1.7,2.8,3.6,4.1,5.9c3.3,5.8,4.7,11.2,4.5,16.9c-0.3,7.8-5.8,9.7-7.5,10.1c-0.8,0.2-1.6,0.3-2.4,0.3
		c0,0,0,0,0,0c-3.6,0-6.9-1.9-9-5.3c-2-3.2-3.8-5.2-5.7-6.2c3,3.5,5.5,7.9,6.6,13.4c0.5,2.6,1.2,4.8,2.2,6.8c1.2,2.3,1.5,4.7,1.1,7
		c5.6,5.6,6.1,15.1,3.9,20.8c-1,2.7-3.1,4.8-5.7,6c-1,4-3.2,9.4-10.1,11.5c-0.1,0-0.1,0.1-0.2,0.1c-0.6,0.4-1.5,0.9-2.7,1.4
		C351,358.2,349.9,358.4,348.8,358.4z"/>
	<path d="M122.9,23.5c3.1,0,6.2,0.6,9.3,2c1.9,0.8,3.8,1.4,5.6,2.4c4.8,2.5,7.2,7.1,9.3,11.6c1,2.2-0.1,4.4-1.4,6.3
		c-0.4,0.6-1,0.9-1.6,0.9c-0.4,0-0.7-0.1-1.1-0.3c-1-0.6-0.7-1.5-0.1-2.4c0.4-0.7,0.8-1.4,1.1-2.2c0.3-1-0.6-2.3-1-2.3
		c0,0-0.1,0-0.1,0c-0.6,0.3-1,0.5-1.3,0.5c-1.1,0-0.8-1.6-1.1-2.4c-0.7-1.5-1.2-2.3-1.9-2.3c-0.5,0-1.1,0.4-1.8,1.2
		c-0.3,0.3-0.6,0.4-0.8,0.4c-0.3,0-0.6-0.3-0.6-0.7c-0.3-4.9-4.5-3.6-7.2-4.6c-0.6-0.2-1.1-0.3-1.7-0.3c-1.8,0-3.6,1-5.2,1.9
		c-1.1,0.7-2.3,0.5-3.3,0.8c-2.3,0.7-2.9,2.9-4.4,4.3c-0.6,0.6,0.7,0.8,0.9,0.9c1.4,0.2,3,0.1,2.2,2.4c0,0.1,0,0.3,0,0.4
		c0.1,0,0.1,0,0.2,0c3.4,0,3.1,4.1,5.6,5.1c1.4,0.6,0.5,1.5-0.1,2.1c-1.5,1.6-0.7,2.1,1,2.3c2.5,0.4,3.9,3.5,2.4,5.9
		c0.3-0.1,0.5-0.1,0.8-0.1c2.9,0,3.1,3.6,5.5,4.4c2.3,0.8,2.9,4.1,5.8,4.1c0.1,0,0.3,0,0.4,0c0.5,1.6,1.3,1.9,2.3,1.9
		c0.7,0,1.4-0.2,2.2-0.2c0.1,0,0.3,0,0.4,0c0.9,0.1,3,0.3,1.8,2.6c-0.4,0.8,0.1,1.2,0.8,1.2c0.1,0,0.2,0,0.4,0
		c0.3-0.1,0.5-0.1,0.8-0.1c1.4,0,2.5,0.8,3.4,2c1.1,1.5,3.1,1.2,4.6,1.9c6.3,2.8,13,4.5,20,4.6c0.5,0,1.1,0.1,1.6,0.3
		c5.2,2.8,11,3.5,16.8,4.1c2.3,0.3,4.5,1.2,6.8,1.2c0.3,0,0.6,0,0.9-0.1c0,0,0.1,0,0.1,0c0.3,0,0.7,0.1,1.1,0.1c0.4,0,0.8-0.2,1-1
		c0.4-1.6,2.4-2.8,0.8-4.7c-1.1-1.3-1.8-2.8-2-4.6c-0.3-3.8,2.6-5.7,4.8-7.8c1.9-1.9,2.3-3.3,1.3-5.6c-0.9-2-1.6-4,0.1-6.3
		c0.8-1.1,0.7-3.2,0.4-4.7c-0.9-5.2,1.6-8.1,5.9-10.5c3-1.6,5.5-4.1,8.1-6.3c2.1-1.8,4.8-2.7,7.3-2.8c3.8-0.2,7.7-0.7,11.5-0.7
		c2.2,0,4.4,0.2,6.5,0.7c2.1,0.5,4.3,1.1,6.3,1.8c1.2,0.4,2.4,0.6,3.7,0.6c1.5,0,3-0.2,4.5-0.5c5-1,9.5-3.4,14.3-4.9
		c0.8-0.3,1.7-0.4,2.5-0.4c4.6,0,9.1,3.5,10.3,8.1c0.6,2.2,1.8,4.4,1.2,6.9c-0.3,1.3-0.9,2.4-2.1,2.8c-0.2,0.1-0.4,0.1-0.6,0.1
		c-1.1,0-1.3-1.3-1.6-2.3c-0.2-0.5-0.2-1.1-0.3-1.6c-0.2-0.5-0.3-1.1-0.7-1.4c-0.4-0.3-0.9-0.8-1.4-0.8c-0.1,0-0.3,0-0.4,0.1
		c-0.5,0.3-1.5,0.3-1.4,1.4c0.2,1.3-0.8,2.2-1,3.5c-0.1,0.9-0.4,1.2-0.7,1.2c-0.6,0-1.4-0.8-2-1c-0.4,1,0.1,2.8-1.4,2.8
		c-0.3,0-0.6-0.1-1-0.2c-1,2.2-3.8,1.4-5.1,3.1c-1.3,1.6-2.8,2.9-5.2,3.1c-2.2,0.1-3.7,5.1-2.1,6.5c1.3,1.1,1.4,2.5,1.5,3.9
		c0.3,2.4,1.7,4.5,1.5,7.1c-0.1,1.8-0.6,3-2.6,3c3.7,3.1,7,6.3,8.1,11c0.3,1.3,0,2.7,1.5,2.7c0.4,0,0.9-0.1,1.5-0.3
		c0.8-0.2,1.7-0.3,2.6-0.3c1.5,0,3.1,0.2,4.6,0.2c0.7,0,1.5-0.1,2.2-0.2c5.8-1.3,12.1-1.7,16.4-6.7c1.8-2.1,4.2-3.7,5.4-6.5
		c0.3-0.8,1-1.3,1.8-1.3c0.4,0,0.8,0.1,1.2,0.4c1,0.6,1.6,1.7,0.9,2.8c-1.7,2.8-2.7,6-5.2,8.5c-1.1,1.1-2.2,1.6-3.5,2.2
		c-0.5,0.2-1.1,0-1.1,0.8c-0.1,0.8,0.6,0.7,1,1.1c0.4,0.3,0.8,0.4,1.2,0.4c0.3,0,0.6,0,0.9,0c0.1,0,0.2,0,0.3,0
		c1,0.1,1.9,0.1,2.8,0.1c3.5,0,6.9-0.5,10.3-0.8c3-0.3,5.8-2.1,9-2.4c0.6-0.1,1.2-0.3,1.7-0.3c0.4,0,0.7,0.1,1,0.5
		c0.6,1-0.3,1.9-1,2.6c-2.2,2.3-5.2,3.1-7.8,4.7c-0.3,0.2-0.6,0.4-0.9,0.6c2.4,1.5,4.9,1.7,7.5,1.7c1,0,2,0,3,0c0.2,0,0.3,0,0.5,0
		c0,0,0,0,0,0c0.4,0,0.8-0.1,1.2-0.1c0.6,0,1.2,0.1,1.4,0.9c0.3,1.1-1,1.8-1.7,2.2c-1,0.6-1.7,1.3-2.3,2c2.1,2.2,4.5,3.4,7.4,3.4
		c0.5,0,1.1,0,1.6-0.1c0.2,0,0.3-0.1,0.5-0.1c0.4,0,0.7,0.1,0.7,0.7c0,0.9-0.4,1.4-1.2,1.5c-0.9,0.2-2.2,0.4-2,1.3
		c0.4,1.3,1.2,2.8,2.2,3.6c1.3,1,4.5-0.2,3.4,3.3c0.3,0.1,0.5,0.1,0.8,0.1c0,0,0,0,0,0c0,0,0,0,0.1,0c2.7,0,5.2,1.3,7.9,1.3
		c0.5,0,1,0,1.5-0.1c0.3-0.1,0.6-0.1,0.9-0.1c0.7,0,1.4,0.3,1.5,1.2c0.1,1.3-0.8,1.9-2,2.2c-2.2,0.4-4.4,0.8-6.7,0.8
		c-0.6,0-1.2,0-1.9-0.1c0.7,1.6,2.2,1.2,3.3,1.6c1.2,0.4,3.3,0.3,3.2,1.7c-0.1,1.4-1.3,1.6-2.6,1.6c-0.3,0-0.7,0-1,0
		c-0.3,0-0.6,0-1,0c-0.5,0-1.1,0-1.8,0c0.8,1.7,2.1,3.1,1.2,5.2c-0.2,0.5,1.1,2,2,2.5c1.4,0.9,1.8,2.6,3.4,3.4
		c0.6,0.3,1.4,2.1-0.7,2.2c-1.7,0.1-0.2,1-0.4,1.4c1.8,0.3,1,2.5,2.4,3.2c0.8,0.4,0.1,0.9-0.3,1.3c-0.3,0.4-0.6,0.8-1.1,0.8
		c-0.2,0-0.4-0.1-0.7-0.3c-1.1-0.8-2.4-1.5-3.8-2.4c0.8,1.7,0.2,4,2.8,4c0.1,0,0.2,0,0.4,0c0,0,0,0,0,0c0.4,0,1,0.8,1.2,1.3
		c0.1,0.3-0.6,1.1-1.1,1.1c-2.4,0.3-1.8,1.5-0.9,2.8c1.2,1.6,0.7,2.7-1.3,2.9c-3.2,0.4-4,2.1-2.4,5.1c0.3,0.7,0.3,1.4,0,2.1
		c-0.9,2.6-0.9,5.1,0.1,7.7c0.3,0.7,1,2.3-1.1,2.4c-0.6,0-0.5,0.6-0.2,1c0.6,1-0.1,2.3-0.5,2.6c-3,2.2-0.8,2.6,1,3.3
		c1.9,0.8,1.9,1.4,0.7,3.3c-1.2,1.7-2,3.7-3.3,5.4c-0.7,0.9,0.7,2,1.5,2.9c0.6,0.8,1.4,1.7,1,2.6c-0.2,0.3-0.5,0.4-0.8,0.4
		c-0.4,0-1-0.2-1.4-0.5c-0.2-0.1-0.3-0.2-0.4-0.2c-0.3,0-0.4,0.4-0.6,0.8c-1.8,3.3-1,6.6,0.1,9.9c0.3,1,0.8,1.8,0.1,2.7
		c-0.3,0.4-0.7,0.8-1,0.8c-0.3,0-0.5-0.2-0.8-0.6c-0.1-0.1-0.2-0.2-0.3-0.2c-0.2,0-0.3,0.2-0.4,0.3c-0.9,2.2-4.1,3.2-3.3,6.5
		c0.4,1.6,0.6,3.5-1.3,4.7c-0.1,0.1-0.3,0.3-0.2,0.5c0.6,2.6-0.9,4.7-1.3,7.1c-0.4,2.6,1.1,3.4,2.9,4c2.9,0.9,5.8,2,7.4,4.6
		c1.4,2.3,3.7,4.8,1.6,8c-0.4,0.6-0.1,1.3,0.2,2.1c0.9,2.3,1.5,4.7,0.9,7.2c-0.1,0.2,0,0.5,0.1,0.8c0.4-0.2,0.7-0.3,1-0.3
		c1,0,1.4,0.9,1.5,1.9c0.2,1.7,0.3,3.4-1.1,5.1c0.2,0.1,0.5,0.1,0.7,0.1c1.7,0,2.5-1.4,3-2.4c1-2,2.5-3.7,3.1-5.9
		c0.2-0.8,0.7-2.2,2-2.2c0.2,0,0.4,0,0.6,0.1c1.4,0.4,1.9,1.7,1.7,3c-0.8,6.2,3.1,10.8,5.3,16c1.9,4.5,5.5,7.7,7.8,11.9
		c2.3,4.1,3.7,8.3,3.5,13c0,1.4-0.4,2.7-1.7,3.1c-0.2,0.1-0.4,0.1-0.7,0.1c-1.1,0-2-0.6-2.7-1.8c-2.7-4.3-5.9-8.2-10.8-9.8
		c-5.2-1.8-10.6-3.1-15.9-4.5c-0.3-0.1-0.6-0.1-0.9-0.1c-0.8,0-1.3,0.4-1.3,1.8c-0.1,4.4,2.4,7.4,5.4,9.8c5.1,4.1,9.4,8.8,10.7,15.4
		c0.6,3.1,1.5,6,2.9,8.8c0.7,1.4,0.6,2.7-0.1,3.8c-1.2,2-0.2,3.2,1.3,4.1c4.5,2.6,4.9,10.2,3.6,13.9c-0.6,1.5-2.3,2.3-3.7,2.3
		c-1.7,0.1-1.5,0.9-1.7,2c-0.7,3.6-1.2,7.4-5.7,8.7c-1.1,0.3-2,1.2-3.1,1.6c-0.2,0.1-0.4,0.1-0.7,0.1c-0.7,0-1.3-0.4-1.7-1.1
		c-0.6-1,0.5-1.2,0.9-1.6c1-1,2.1-1.9,3.9-3.5c-0.1,0-0.3,0-0.4,0c-5.9,0-10.8,0.9-15.5,3.2c-1.9,0.9-3.8,1.3-5.8,1.3
		c-0.3,0-0.5,0-0.8,0c-0.9,0-1.7,0-2.1-0.9c-0.3-0.8,0.3-1.3,0.8-1.9c0.4-0.5,1.4-0.8,1-1.6c-0.4-0.9-1.3-1.1-2.3-1.2
		c-2,0-4-0.3-6-0.5c-0.3,0-0.5,0-0.8,0c-0.7,0-1.3,0.2-1.6,0.9c-0.4,0.9,0.4,1.7,0.8,2.5c0.2,0.5,0.7,0.9,1.2,1.2
		c0.9,0.5,1.9,1.3,1.2,2.3c-0.3,0.5-0.9,0.7-1.4,0.7c-0.6,0-1.2-0.2-1.6-0.4c-2.7-1.4-4.7-3.8-5.7-6.6c-0.9-2.5,0.9-4.3,2.8-5.8
		c0.7-0.6,1.3-0.9,1.6-1.9c0.7-1.7,3.7-3.4,5.9-3.4c0.4,0,0.8,0.1,1.1,0.2c0.5,0.2,1,0.3,1.5,0.3c1.2,0,2-0.7,2.3-1.5
		c0.7-1.7,0.3-3.6-1.6-4.8c-2.5-1.6-4.8-3.5-6-6.2c-2.9-6.4-8.8-9.9-12.9-15c-4.2-5.2-10.3-9.2-11.9-16.4c-0.4-1.7-0.1-3.4-0.6-5.1
		c-0.3-1-0.5-1.3-0.9-1.3c-0.3,0-0.6,0.1-1.2,0.3c-6,2-8.9,6.6-10.8,12.2c-0.3,0.9,0.1,1.9,0.6,2.6c3,4,3,7.9,0.2,11.9
		c-0.9,1.3,0.5,1.6,0.8,2.3c1.3,2.7,1.3,5.5,1,8.3c-0.2,2.2,1.1,3.5,1.7,5.3c1.8,5.2,3.9,9.9,9.8,11.6c0.6,0.2,1.5,0.9,1.3,1.6
		c-0.2,0.7-1.1,1.1-1.9,1.1c0,0-0.1,0-0.1,0c-4,0-7.1-2.1-9.8-4.6c-3.7-3.3-7-7-10.5-10.5c-0.5-0.5-0.9-1.1-1.5-1.1
		c-0.2,0-0.5,0.1-0.8,0.3c-1,0.7-0.7,1.6-0.3,2.7c1.2,3,3.1,5.3,5.9,7c0.5,0.3,2,0.3,1.4,1.5c-0.3,0.7-0.9,0.9-1.6,0.9
		c-0.4,0-0.8-0.1-1.2-0.3c-2.4-1.1-4.8-2.4-6.6-4.5c-2.4-2.8-4.8-5.6-6.1-9.1c-0.4-1.2-1-1.5-1.7-1.5c-0.7,0-1.4,0.3-2,0.3
		c-0.1,0-0.2,0-0.3,0c0,0-0.1,0-0.1,0c-0.5,0-0.5,0.7-0.4,1.1c1.2,2.5,1.6,5.4,4.4,7.1c1,0.6,3.2,1.7,1.9,3.3
		c-0.2,0.3-0.5,0.4-0.7,0.4c-0.8,0-1.8-1-2.6-1.4c-3-1.4-5-3.7-6.5-6.6c-0.7-1.4-1.4-2.8-2.9-2.8c-0.5,0-1,0.1-1.7,0.4
		c-0.4,0.2-0.8,0.2-1.3,0.2c-0.8,0-1.7-0.2-2.6-0.2c0.3,2,2,2.8,3.1,4.1c0.5,0.6,1.2,1.3,0.8,2c-0.3,0.5-0.9,0.7-1.4,0.7
		c-0.4,0-0.9-0.1-1.1-0.3c-1.1-1-2.8-1.2-3.5-2.6c-1.2-2.4-3-3.1-4.8-3.1c-1.4,0-2.9,0.4-4.2,0.6c-3.4,0.6-6.9,0.9-10.1,2.4
		c-0.4,0.2-0.8,0.2-1.2,0.2c-0.9,0-1.8-0.3-2.7-0.7c-1.1-0.5-2.3-0.7-3.4-0.7c-1.2,0-2.3,0.2-3.5,0.7c-0.9,0.4-1.7,0.6-2.3,0.6
		c-1.3,0-2-0.9-2.4-3.1c-0.7-4.1,2.4-8,6.3-9.2c1.5-0.5,2.9-0.7,4.3-0.7c1.6,0,3.1,0.3,4.8,0.7c0.4,0.1,0.9,0.2,1.3,0.2
		c2.3,0,4.5-1.4,6.9-1.5c1.1,0,2.4-2.2,3.1-3.6c1-2,0.6-4.3-0.3-6.3c-0.5-1-0.9-2-1.1-3.2c-4.2,2-4,5.6-3.5,9.8
		c0.1,1.1,0.5,2-0.7,2.4c-0.3,0.1-0.5,0.1-0.7,0.1c-1,0-1.6-0.9-1.9-1.8c-1.6-5.8-1.3-11.5,1.6-16.8c1.4-2.5,1.5-4.6-0.1-6.8
		c-3.5-4.6-5.5-9.9-8.4-14.8c-1.2-2-2.3-4.1-3.5-6c-1.9-2.9-0.8-5.2,0.6-7.2c2.6-3.7,4.9-7.7,9-10c1.1-0.6,1.5-1.8,0.6-3.2
		c-2.7-4.1-1.7-8.8-1.4-13.2c0.1-1.1,0.4-2.2,0.2-3.2c-0.3-2,0.6-3.6,2.1-4.1c2.4-0.9,3.5-3.2,5.6-4.1c2.1-1,0.7-2.8,0.6-4
		c-0.1-0.6-0.2-0.9-0.5-0.9c-0.4,0-1,0.7-1.5,0.7c0,0,0,0-0.1,0c-0.6-0.1-1.2-0.1-1.9-0.1c-1.2,0-2.5,0.1-3.7,0.1
		c-1.9,0-3.8-0.3-5.5-1.7c-1.5-1.3-2.8-2.8-4-4.4c-0.5-0.8-1.1-1.4-1.8-2c-0.3-0.3-0.6-0.4-0.8-0.4c-0.3,0-0.6,0.3-1,1
		c-2.2,3.9-3.3,8.2-5,12.3c-1.1,2.6-1.3,5.9-1.9,8.9c-0.3,1.3-0.9,2.5-1.7,2.9c-3.2,1.4-3.3,4.7-3.7,7.2c-0.6,3-1.2,6-1.9,8.9
		c-0.9,4.2-1.7,8.4-2.8,12.5c-0.9,3.3-2,6.6-3.7,9.6c-1,1.7-1.6,3.8-1.7,5.8c-0.2,3-1.3,5.8-1.7,8.7c-0.5,3.2-3,5.7-2.9,9.1
		c0,0.5-0.6,1-1.2,1c-0.1,0-0.2,0-0.2,0c-0.9-0.1-1.2-0.7-1.2-1.5c0-3.1-0.4-6.2,0.1-9.1c0.4-2.4-0.1-4.7-0.2-6.9
		c-0.6-7.5-0.6-15,0-22.5c0.3-3.1,0.3-6.1,1.2-9.1c1.2-3.6,2.5-7.1,3.6-10.8c0.7-2.3,1.7-4.7,0.9-7.2c-0.4-1.3,0.5-2.2,1-3.2
		c1.1-2.7,1.9-5.5,2.9-8.2c0.4-1.1,0.4-2.1,0.2-3.3c-0.8-4.3,0.7-8.2,3.2-11.6c1.2-1.7,1.8-3.5,2.3-5.6c1.3-6,2.8-11.9,6.4-17.1
		c1.8-2.6,2.7-5.8,3.4-8.9c0.1-0.3-0.1-0.6,0-0.8c2.4-3.3-0.9-4.5-2.3-6.6c-4.3-6.1-9.7-11.5-12.3-18.8c-1-2.8,0.7-5.1,1-7.6
		c0.1-0.5,1.2-1.2,1.8-1.2c0,0,0,0,0,0c0.5,0,1.1,0.8,1.3,1.6c1,3,2.3,5.7,4.1,8.3c1.2,1.7,2.9,2.4,4.6,2.4c2.5,0,5-1.6,5.7-4
		c0.3-1,0.8-1.6,1.4-1.6c0.4,0,0.8,0.1,1.3,0.4c0.4,0.3,0.8,0.4,1.1,0.4c1.2,0,1.2-2.1,2.3-2.5c1.1-0.5,0.1-1.5-0.3-1.9
		c-1.3-1.6-2.9-2.8-5-2.8c-0.1,0-0.2,0-0.3,0c-0.3,0-0.5,0-0.7,0c-5.5,0-8.8-3.3-11.1-8c-0.7-1.5-2-2.5-2.6-4.2
		c-2.3-6.2-1.4-12.6-1-18.9c0.1-1.6-0.5-2.7-1.9-2.7c0,0,0,0-0.1,0c0,0-0.1,0-0.1,0c-1.9,0-3.3-1-4.8-1.9c-2.7-1.5-5.9-1.2-8.8-2
		c-1.4-0.4-2.9-0.8-4.4-1.2c-5.9-1.3-11.9-2.5-17.7-4.1c-6.8-1.8-13.3-4.4-19.6-7.6c-6.3-3.2-12-7.4-17.7-11.4
		c-5.4-3.7-10.5-8-14.9-13c-3.2-3.7-6.8-7.2-8.3-12.1c-1.4-4.5-3.4-9,0.4-13.3c0.6-7,6.9-8.4,11.5-10.4
		C116.7,24.2,119.8,23.5,122.9,23.5 M122.9,8.5C122.9,8.5,122.9,8.5,122.9,8.5c-5.2,0-10.3,1.1-15.1,3.2c-0.5,0.2-1,0.4-1.5,0.6
		c-2.7,1.1-6.5,2.6-10,5.5c-4,3.2-6.7,7.3-8,12.1c-5.3,9.1-2.4,18.4-1,22.6c0.1,0.4,0.2,0.7,0.3,1.1C89.9,61,94.5,66.2,97.9,70
		c0.3,0.4,0.7,0.8,1,1.2c4.9,5.5,10.6,10.6,17.5,15.4c0.9,0.7,1.9,1.3,2.8,2c5.2,3.6,10.5,7.4,16.8,10.5c7.7,3.8,15,6.7,22.4,8.7
		c6,1.6,12,2.9,17.8,4.1l0.7,0.1c0.6,0.1,1.4,0.3,2.2,0.6c0.5,0.1,0.9,0.3,1.4,0.4c1.5,0.4,3,0.7,4.2,0.8c0,4,0.3,8.4,1.7,13
		c-1.8,2.1-3.1,4.8-3.6,7.8c0,0.1-0.1,0.2-0.1,0.3c-0.8,2.4-2.5,8-0.2,14.6c2.7,7.6,7.1,13.1,10.9,18.1c0.8,1,1.6,2.1,2.3,3
		c-0.1,0.2-0.1,0.3-0.2,0.4c-5.4,7.8-7.4,16.2-8.8,22.4c-0.1,0.3-0.1,0.5-0.1,0.6c-5.5,7.9-6.3,15.1-5.8,20.5
		c-0.1,0.3-0.2,0.5-0.3,0.8c-0.5,1.4-0.9,2.8-1.3,3.9c-2.1,3.8-2.9,7.6-2.3,11.4c-0.1,0.3-0.2,0.6-0.3,1c-0.6,1.8-1.2,3.7-1.9,5.7
		c-0.5,1.5-1.1,3.1-1.6,4.8c-1.3,4.1-1.6,7.8-1.8,10.8c0,0.6-0.1,1.1-0.1,1.7c-0.7,8.3-0.7,16.7,0,25c0.1,0.7,0.1,1.4,0.2,2.1
		c0.1,0.5,0.1,1,0.1,1.4c-0.6,3.5-0.4,6.6-0.3,9.1c0,0.8,0.1,1.6,0.1,2.2c0,8.3,5.9,15.1,14,16.4c0.8,0.1,1.7,0.2,2.5,0.2
		c4.4,0,8.7-1.8,11.8-5c2.5-2.6,4-6,4.4-9.5c0-0.1,0.1-0.1,0.1-0.2c0.9-1.8,2.2-4.5,2.7-8.2c0.1-0.5,0.3-1.4,0.5-2.2
		c0.5-2,1.1-4.5,1.3-7.5c0.1-0.2,0.3-0.5,0.4-0.7c0.3,0.6,0.6,1.1,1,1.7c0.8,1.4,1.6,2.9,2.4,4.6c1.1,2.2,2.3,4.6,3.8,7
		c-1,2.8-1.7,5.6-2,8.5c-0.4,0.1-0.7,0.2-1.1,0.3c-11.4,3.7-18.4,15-16.4,26.2c2.1,11.4,10.5,15.4,17.2,15.4c1.8,0,3.7-0.3,5.6-0.8
		c2.1,0.7,4.2,1,6.3,1c2.7,0,5.2-0.6,7.6-1.6c0.6-0.3,2.4-0.6,3.8-0.8c0.2,0,0.4-0.1,0.5-0.1c1.3,1,2.4,1.7,3.2,2.1
		c2.8,2.1,6.3,3.2,9.9,3.2c1.4,0,2.8-0.2,4.1-0.5c0.4,0.2,0.8,0.4,1.2,0.7c1.6,1.1,5,3.2,9.9,3.2c0.6,0,1.3,0,1.9-0.1
		c1.1,0.6,2.2,1.2,3.3,1.7c2.3,1.1,4.9,1.7,7.5,1.7c1.1,0,2.2-0.1,3.2-0.3c3.5,2.1,8.2,4,14,4l0.3,0c1.9,0,3.7-0.3,5.4-0.9
		c2.5,4.1,6.1,7.4,10.4,9.6c1.8,0.9,4.8,2,8.4,2c2.4,0,4.8-0.5,6.9-1.5c0.5,0.1,1.1,0.1,1.6,0.1l0.1,0c0.5,0,0.9,0,1.4,0
		c3.1,0,6.1-0.5,9-1.4c2.8,2,6.2,3.1,9.7,3.1c2,0,4-0.4,5.9-1.1c1.5-0.5,2.7-1.2,3.5-1.7c5.2-1.8,9.3-5.3,11.9-10.2
		c0.6-1.1,1-2.2,1.4-3.2c2.8-2.1,5-4.9,6.3-8.2c3-7.8,2.2-18.4-3.3-26c-0.1-2-0.5-3.9-1.2-5.8c0.8-0.1,1.6-0.2,2.4-0.4
		c5.9-1.4,12.9-6.7,13.2-17.1c0.2-7-1.5-13.9-5.4-20.9c-1.5-2.7-3.3-5-4.7-6.8c-1-1.3-2.1-2.7-2.4-3.5c-0.8-2-1.8-3.8-2.6-5.4
		c-0.6-1.1-1.4-2.7-1.6-3.4c0.9-8.7-4.1-16.4-12.3-18.9c-0.4-0.1-0.8-0.2-1.3-0.3c-1-3.2-2.6-5.6-3.5-7.1c-0.1-0.2-0.2-0.4-0.4-0.5
		c-1.6-2.6-3.6-4.6-5.6-6.1c0.1-0.5,0.3-1.1,0.4-1.7c0.9-0.8,1.8-1.7,2.7-2.9c1.8-2.4,4.3-7,3.1-13.3c0.5-0.6,0.9-1.3,1.2-1.9
		c1.1-2,2.8-6.4,1.4-11.8c2.3-4.2,2.7-8.5,1.4-12.8c-0.1-0.2-0.1-0.4-0.2-0.6c0.7-2.5,0.9-5.8-0.3-9.6c0.1-0.4,0.2-0.7,0.3-1.1
		c1.3-1.4,2.4-3,3.2-4.8c0.8-1.8,1.2-3.8,1.3-5.7c0.3-0.7,0.5-1.4,0.7-2.1c2.7-4.3,2.6-8.5,2.2-10.9c-0.2-0.9-0.4-1.8-0.7-2.7
		c0.1-3-0.6-5.9-2-8.5c3.6-3.4,5.5-8.3,5-13.7c-0.8-8.3-7.2-14.3-15.4-14.8c-1-3.9-3.4-7.1-6.6-9.2c-0.6-1.8-1.6-3.5-2.8-4.9
		c-0.1-4.1-1.8-7.1-2.3-8.1c-2.9-4.9-8.1-7.8-13.8-7.8c-1,0-2,0.1-2.7,0.2c-1.1-4.1-3.7-7.8-7.6-10.3c-2.8-1.8-6-2.8-9.3-2.8
		c-6.4,0-12.2,3.6-15.1,9.4c-0.2,0.2-0.5,0.5-0.7,0.7c-0.7,0.7-1.7,1.6-2.6,2.7c-0.8,0.4-3.4,0.9-5.1,1.3c-0.6,0.1-1.2,0.2-1.9,0.4
		c-0.3-0.5-0.7-1-1-1.5c0-3.5-0.8-6.3-1.4-8.1c0.6-0.3,1.2-0.5,1.7-0.8c1-0.3,2.1-0.8,3-1.3c1,0.2,1.9,0.3,2.8,0.3
		c1.6,0,3.1-0.2,4.7-0.7c6.3-1.8,11-7,12.6-13.9c1.4-6-0.3-10.8-1.1-13.3c-0.1-0.3-0.2-0.6-0.2-0.7c-3-11.1-13.4-19.2-24.8-19.2
		c-2.4,0-4.7,0.4-6.9,1c-2.5,0.8-4.7,1.7-6.7,2.4c-2.4,0.9-4.4,1.7-6.1,2.1c-0.5,0.1-0.9,0.2-1.1,0.2c-2.5-0.8-4.9-1.4-7-1.9
		c-3.1-0.7-6.4-1.1-10-1.1c-2.9,0-5.6,0.2-8.1,0.4c-1.5,0.1-2.8,0.2-4.1,0.3c-6,0.3-11.8,2.5-16.4,6.4c-0.6,0.5-1.2,1.1-1.9,1.6
		c-1.4,1.2-2.9,2.5-3.8,3c-12.8,7-14.4,17.3-13.8,24c-1.1,2.6-1.7,5.8-1.2,9.5c-1.6,1.9-3.4,4.5-4.4,7.8c-1.6-0.3-3.1-0.8-4.3-1.4
		c-2.5-1.3-5.3-2-8.4-2.1c-4.6-0.1-9.4-1.2-14.1-3.3c-0.8-0.3-1.5-0.6-2.2-0.8c-0.6-0.5-1.2-0.9-1.8-1.3c-0.5-0.6-1-1.3-1.7-1.9
		c1.1-1,2.2-2.2,3-3.5c6-9,4.7-16.4,2.5-21c-2.4-5.1-6.4-13.5-15.9-18.5c-1.9-1-3.6-1.6-4.9-2.1c-0.6-0.2-1.2-0.4-1.5-0.6
		C133.4,9.6,128.2,8.5,122.9,8.5L122.9,8.5z M301.7,323c-0.2-0.5-0.5-1.2-0.9-2.4c-0.1-0.3-0.2-0.6-0.3-0.9c0.6,0.6,1.2,1.1,1.8,1.7
		c1.6,1.5,3,2.9,3.9,4.1C304.9,324.5,303.4,323.6,301.7,323L301.7,323z"/>
</g>
</svg>
