<?xml version="1.0" encoding="utf-8"?>
<!-- Generator: Adobe Illustrator 24.1.0, SVG Export Plug-In . SVG Version: 6.00 Build 0)  -->
<svg version="1.1" id="Livello_1" xmlns="http://www.w3.org/2000/svg" xmlns:xlink="http://www.w3.org/1999/xlink" x="0px" y="0px"
	 viewBox="0 0 474 324.2" style="enable-background:new 0 0 474 324.2;" width="50" height="50" xml:space="preserve">
<style type="text/css">

		.Stile_x0020_grafica{fill:#FEFEFE;stroke:#000000;stroke-width:15;stroke-linecap:round;stroke-linejoin:round;stroke-miterlimit:10;}
	.st0{fill:#FEFEFE;}
</style>
<g id="EThIdu_1_">
	<g>
		<path class="st0" d="M260.8,310.1c-0.3,0-0.6,0-1,0c-8.5-0.2-17.6-0.8-27.9-2.1c-2.3-0.3-4.5-0.5-6.9-0.7
			c-3.3-0.3-6.7-0.6-10.2-1.1c-5.6-0.8-10.7-2.4-15.7-3.9c-1.3-0.4-2.7-0.8-4-1.2c-5.7-1.7-11.5-3.5-17-5.3
			c-2.5-0.8-4.9-1.6-7.4-2.4c-13.8-4.4-24.6-12.1-32.2-23.1c-3.5-5-2.9-11.2-1.2-15.3c1.8-4.3,4.3-10.2,9.3-14.6
			c5.3-4.7,11.5-5.9,16.9-7.1c0.7-0.1,1.3-0.3,2-0.4c2.2-0.5,4.4-0.8,6.5-1.1c0-0.7,0.2-1.3,0.4-2c1.1-3.5,3.9-4.9,5-5.5l0.1,0
			c2-1,4.1-1.5,6.4-1.5l0.3,0c1.1,0,2.1,0,3.2,0c-8.4-4.8-17.1-10.8-24.8-18.6c-2.5-2.5-4.2-5.1-5.3-7.7c-0.2-0.4-0.5-0.8-2.9-1.8
			c-1.2-0.5-3.6-1.5-5.5-3.7c-2-2.5-5.3-4-9.1-5.8c-1-0.4-1.9-0.9-2.9-1.4c-1.1-0.5-1.9-1.2-2.6-1.8c-1.6,0.5-3.1,0.8-4.6,0.8
			c-4.5,0-8-2.2-10.3-3.8c-1.7-1.2-3.6-2.6-5.6-3.6c-3.5-1.7-6-4.6-6.9-7.9c-0.1-0.2-0.5-0.9-0.8-1.4c-0.6-1-1.4-2.2-2.1-3.7
			c-0.3-0.6-2.1-1.5-3.8-2.2c-0.9-0.4-1.9-0.8-2.9-1.4c-0.2-0.1-0.6-0.3-0.9-0.4c-0.8-0.3-1.9-0.8-3-1.4c-1.5-0.9-2.9-1.8-4.3-2.7
			c-2.7-1.7-5.2-3.3-7.7-4.4c-6-2.5-10.9-6.1-15.6-9.5c-3.1-2.2-6-4.3-9-6c-2-1.1-3.5-2.4-5-3.5c-1.5-1.2-2.7-2.2-3.7-2.4
			c-2.7-0.7-4.3-2.5-4.9-3.3c-1.6-1.8-3.5-3.5-5.5-5.2c-2.4-2.2-5-4.4-7.3-7.1c-2-2.4-3.1-4.9-4.1-7.2c-0.5-1.2-1-2.3-1.5-3.1
			c-2.7-4.3-3.6-8.7-4.5-12.6c-0.6-2.6-1.1-5.1-2.1-7c-1.3-2.4-1.7-4.8-2.1-6.7c-0.2-1-0.4-2.1-0.6-2.5c-1.9-3.6-0.8-8.5,2.5-10.8
			c1.4-1,3-1.5,4.7-1.5c3.1,0,5.9,1.7,7.4,4.6c0.7,1.4,1.8,2.6,3.3,3.6c2.2,1.6,3.5,3.9,3.8,6.5c0.1,1,0.3,2,0.6,2.9
			c0.2-0.3,0.3-0.7,0.5-1c1.3-2.3,3.8-3.7,6.5-3.7c0.1,0,0.1,0,0.2,0c2.7,0.1,5.2,1.6,6.5,4c1.1,2.1,2.7,4.3,5,6.8
			c2.1,2.3,3.5,5.4,3.9,8.6c0.4,3.4,1.9,6.2,5.2,9.5c1,1,1.9,2,2.7,2.9c0.7-0.2,1.3-0.2,2-0.2c2.1,0,3.6,0.8,4.2,1.1
			c3.3,1.6,5.7,4.1,7.2,7.2c0.4,1,0.9,1.4,1.2,1.7c0.4-0.1,0.7-0.1,1.1-0.1c1.7,0,3.5,0.6,4.9,1.8c0.4,0.4,0.9,0.7,1.3,1.1
			c0.5-0.1,1-0.1,1.6-0.1c4.6,0,7,3.4,7.8,4.5l0.1,0.1c0.3,0.4,0.8,0.9,1.3,1.5c1.3,1.4,3.1,3.4,4.3,6.2c3.7,0.5,6.6,2.1,8.8,3.6
			c3.2-2.5,6.4-4.3,9.2-5.8c3.5-1.8,5.3-5.1,6.3-7.6c0.9-2.4,2.5-6,6-8.9c0.2-0.1,0.5-0.4,0.7-1.4c0.6-3.7,2.4-6.3,3.8-8.3
			c0.5-0.8,1-1.5,1.3-2.1c0.5-1,0.5-1.6,0.5-2.1c-0.5-8.7,2.5-15.9,8.9-21.5c1.2-1,2.3-2.4,3.6-4c0.7-0.9,1.5-1.8,2.3-2.7
			c1.5-1.7,3.5-2.5,5.6-2.5c0.6,0,1.2,0.1,1.8,0.2c0.6-0.7,1-1.3,1.3-2c2.1-4.5,6-7.4,10.9-7.9c0.2,0,0.5,0,0.7,0c3.2,0,6,2,7.1,5
			c1,2.8,0.2,5.8-1.8,7.8c0,0.1,0,0.8,0,0.8c-0.1,1.4-0.3,2.8-0.7,4.1c0.2,0.1,0.4,0.1,0.5,0.2c1.3-1.7,2.8-2.7,3.7-3.3
			c0.1-0.1,0.2-0.2,0.4-0.2c0.2-0.3,0.4-0.6,0.6-0.9c1.7-2.2,3.9-5.3,7.6-6.9c6.6-2.8,11.5-8.1,16.7-13.7c5.6-6,12.2-10,20.1-12.2
			c2.3-0.6,4.9-2.1,7.6-3.7c1.1-0.6,2.1-1.2,3.2-1.8c0.5-0.3,0.9-0.5,1.4-0.8c1.5-0.9,3.2-1.9,5.2-2.6l0,0c0.9-0.5,2.6-1.4,5-1.4
			c0.4,0,0.8,0,1.2,0.1c1.5-0.7,2.9-1.1,4-1.4c0.7-0.2,1.6-0.5,1.9-0.6c0.8-0.6,2.7-2.1,5.6-2.1c2.7,0,5.2,1.3,6.8,3.7
			c0.6,0.9,1,1.8,1.3,2.8c0.3-0.2,0.6-0.4,0.9-0.5l0.7-0.4c3-1.6,6.4-3.5,10.9-5.1c0.8-0.3,1.7-0.5,2.6-0.5c2.2,0,4.4,1,5.8,2.8
			c0.2,0.2,0.4,0.5,0.5,0.8c2-2.4,4.4-3.6,7.2-3.6c0,0,0,0,0.1,0c1.3-0.7,2.7-1.1,4.2-1.1c0.9,0,1.8,0.1,2.8,0.4
			c1.3-0.2,2.4-0.2,3.1-0.2l0.5,0c1.5-0.8,3.1-1.3,4.8-1.3c2.3,0,4.5,0.8,6.7,2.3c0.8,0.6,1.5,1.1,2.1,1.7c0.2,0.1,0.4,0.3,0.6,0.5
			c1.2-0.6,2.6-1,4-1c1.2,0,2.3,0.2,3.3,0.7c1.5-0.8,2.9-1.2,3.9-1.5c0.2-0.1,0.4-0.1,0.6-0.2c1.1-1.3,3.5-3.8,7.4-3.8
			c0.6,0,1.4,0.1,2.4,0.4c1.5-0.5,3.1-0.7,4.8-0.7c0.2,0,0.5,0,0.8,0c0.7-0.2,1.6-0.4,2.8-0.4c0.6,0,1.1,0,1.7,0.1
			c1.3-1,3.3-2.2,6.1-2.2c0.6,0,1.3,0.1,2,0.2c1.1-0.6,2.5-1,4.1-1c0.2,0,0.3,0,0.5,0c1.3-0.8,2.9-1.4,4.9-1.4
			c1.4,0,3.4,0.3,5.4,1.7c0.3,0,0.6,0,0.8,0c3.6,0,6.1,2.1,7.1,2.9c0.7,0.6,1.1,0.8,1.3,0.9c0.3,0,0.7,0,1,0c3.2,0,6.4,1.4,8.7,3.7
			c0.8,0.8,2,1.7,3.2,2.6c2.6,1.9,5.9,4.3,8.2,8.2c1.7,2.9,1.3,6.5-1,9c-1.5,1.6-3.4,2.4-5.5,2.4c-1.2,0-2.3-0.3-3.4-0.8
			c-2.1-1.1-4.6-1.9-8-2.6c-1.5-0.3-2.9-0.7-4.1-1.1c-1.7-0.5-3.2-1-4.5-1c0,0-0.2,0-0.2,0c-0.9,0-1.6-0.1-2.2-0.2
			c-1,0.4-2.1,0.6-3.2,0.6c-0.4,0-0.7,0-1.1-0.1c-1.2,0.7-2.6,1.1-4.3,1.1c-0.4,0-0.7,0-1.1-0.1c-1.1,0.4-2.3,0.6-3.6,0.6
			c0,0,0,0,0,0c-1.4,0.8-2.9,1.2-4.3,1.2c-1.1,0-2.2-0.2-3.2-0.7c-0.3,0-0.8,0.2-1.8,0.6c-1.3,0.6-2.7,0.8-4.1,0.8
			c-1.1,0-2-0.1-2.8-0.3c-1.1,0.6-2.4,1-3.7,1c0.2,0.1,0.4,0.3,0.6,0.4c2,1.4,4.1,2.9,6.2,4.7c1.8,1.5,4.1,2.8,6.5,4.1
			c2.8,1.5,5.9,3.2,8.7,5.6c1.7,1.4,3.6,2.8,6.1,4.2c2.8,1.6,4.3,4.9,3.6,8.1c0,0.1,0,0.1,0,0.2c0.1,0.1,0.6,0.6,0.6,0.6
			c0.8,0.8,1.7,1.5,2.6,2.2c2.4,2,4.9,4.2,7.2,6.9c2.5,3,2.3,7.4-0.4,10.2l-0.7,0.7c-1.4,1.4-3.3,2.2-5.3,2.2c-0.3,0-0.7,0-1-0.1
			c-1.3-0.2-2.5-0.5-3.7-0.8c-1.2,1.3-2.8,2.2-4.9,2.9c-1.3,0.4-2.2,0.8-2.7,1.2c-2.1,1.4-4.5,2.2-7,2.2c-1.3,0-2.7-0.2-3.9-0.6
			c-0.5-0.1-0.9-0.2-1.2-0.2c-0.2,0-0.5,0-1,0.4c-3.4,2.4-6.9,2.8-9.4,3.1c-0.9,0.1-1.8,0.2-2.4,0.4c-0.6,0.2-1.1,0.3-1.7,0.5
			c-0.2,0.1-0.5,0.1-0.7,0.2c-1.3,1.3-2.8,1.9-3.9,2.2c-0.9,7.2-5.9,12.7-8.1,14.9c-2.6,2.5-3.8,5.7-5.2,9.8
			c-0.2,0.6-0.4,1.2-0.6,1.7l-0.2,0.5c-0.6,1.8-1.2,3.3-1.3,4.5c-0.2,4.8-3.4,7.6-5,9c-1.2,1-2.2,2.5-3.2,4.1
			c-3,4.5-8.6,7.4-14.8,7.4c-3.8,0-7.3-1.1-10.1-3.1c-2.1-1.5-3.7-3.2-5.1-4.7c-1.2-1.3-2.3-2.4-3.4-3.1c-0.5-0.3-0.9-0.4-1-0.4
			c-0.4,0-0.7,0-1.1,0c-5.1,0-9.3-2.3-12.6-6.7c-0.9,0.4-2.3,0.9-4,0.9c-0.1,0-0.3,0-0.5,0c-0.2,0-0.3,0-0.5,0
			c-3.2,0-6,1.7-10.3,4.6c-1.6,1.1-3.3,2.2-5.1,3.2c-1.5,0.8-2.9,1.3-4.2,1.5c0.8,0.9,1.6,1.8,2.3,2.8c0.3,0.1,0.7,0.3,1.1,0.4
			c1.2,0.4,2.6,1,4.2,1.9c4.8,3.1,10.2,5.4,15.8,7.8c3.2,1.4,6.5,2.8,9.7,4.4c1.9,0.9,4.1,1.7,6.4,2.6c2,0.7,4,1.5,6.1,2.4
			c2.5,1.1,5,2.3,7.4,3.5c3.6,1.8,7.1,3.4,10.6,4.8c0.5,0.2,1.1,0.4,1.6,0.6c3.8,1.4,8,3,11.9,5.8c1.4,1,2.9,2,4.5,3.1
			c4.4,3,9,6.1,13,10.4c3.6,0.4,5.8,2.7,6.9,3.7c0.1,0.1,0.2,0.2,0.3,0.3c3.1,1.9,5.6,3.4,8.2,3.5c2,0,3.6,0.6,4.7,1
			c0.2,0.1,0.3,0.1,0.5,0.2l0.6,0.2c0.3,0.1,0.8,0.2,1.1,0.3c1.5-0.9,3.2-1.3,5.2-1.3c0.8,0,1.6,0.1,2.2,0.1c0.2,0,0.4,0.1,0.6,0.1
			l1.1,0c1.3,0,2.1-0.1,2.4-0.2c1.7-1.5,3.8-2.3,6-2.3c2.6,0,4.6,1.2,5.5,1.7l0.1,0.1c1.8,0.8,4,1.1,7.1,1.1c1.3,0,2.7-0.1,4.1-0.1
			l0.6,0c0.1,0,0.2,0,0.4-0.1c0.7-0.1,1.6-0.3,2.7-0.3c0.3,0,0.7,0,1,0c0,0,0,0,0,0c0.5,0,1.5-0.3,2.4-0.6c1.8-0.6,4-1.3,6.7-1.4
			c0.2,0,0.4,0,0.6,0c1.2,0,2.3,0.1,3.3,0.2c0.8,0.1,1.5,0.1,2.1,0.1c0.5,0,0.9,0,1.1-0.1c0.3-0.1,0.7-0.2,1-0.3
			c0.2-0.1,0.5-0.1,0.7-0.2c1.7-2.6,4.6-4.1,7.9-4.1c0.8,0,1.7,0.1,2.5,0.3c1.4,0.3,2.8,0.5,4.3,0.5c4.4,0,9-1.5,12.4-4
			c1.3-1,2.9-1.5,4.5-1.5c1.7,0,3.3,0.6,4.7,1.7c2.7,2.1,3.5,5.8,2.1,8.9c-1.8,3.9-4.7,7-8.5,8.9c-10,5.2-18.5,8.8-27,11.5
			c-4.1,1.3-8.8,2.7-14.1,2.9c-5.7,3.9-11.9,4.1-17,4.3l-3.4,0.1c-4.4,0.2-8.5,0.3-12.3,1.2c-1.8,0.4-3.6,0.6-5.5,0.6
			c-0.1,0-0.3,0-0.4,0c4,10.5,4.4,20.9,1.2,30.9c-3.3,10.1-11.2,16.2-17,19.9c-9.3,6-19.6,9.3-28.6,11.9
			c-12.3,3.6-26.9,7.2-42.7,7.2c-1.6,0-3.2,0-4.7-0.1c-0.5,0-1.1,0-1.6,0c-2.4,0-4.9,0.2-7.5,0.4
			C266.8,309.8,263.9,310.1,260.8,310.1z M224.1,250.5c2.1,0.4,4.3,0.8,6.4,1.3c3.9,0.8,8.2,1.3,13.2,1.3c5.1,0,10.1-0.4,15.5-0.8
			l1.9-0.2c6.2-0.5,12-1,16.8-3.5c0.2-0.1,0.4-0.2,0.5-0.3c-0.3-0.2-0.7-0.5-1-0.8c-0.2-0.2-1-0.7-3.1-1c-4.5-0.5-8.5-1.9-12-3.1
			c-0.4-0.2-1.6-0.2-2.4-0.2h-0.3c-0.8,0-1.6,0-2.4-0.1c-4.5-0.3-8.8-1-12.9-1.7c-3.4-0.6-6.5-1.1-9.7-1.4c-1.5-0.1-3.1-0.3-4.6-0.5
			c-0.1,2.6-1.1,5.2-3.1,7.7C226.2,248.4,225.2,249.5,224.1,250.5z M321.6,66.7c0.7,0.2,1.3,0.4,1.9,0.6c-0.3-0.3-0.6-0.6-0.9-0.8
			C322.3,66.6,321.9,66.7,321.6,66.7z"/>
		<path d="M377,23.5c0.6,0,1.2,0.3,2,1.1c0.6,0.6,1.3,1.1,2.2,1.1c0.4,0,0.8-0.1,1.3-0.3c0.2-0.1,0.5-0.2,0.7-0.2
			c0.9,0,1.7,0.6,2.4,1.2c1.7,1.4,3.5,2.6,5.8,2.6c0.2,0,0.5,0,0.7,0c0.1,0,0.3,0,0.4,0c1.3,0,2.6,0.7,3.4,1.5
			c3.3,3.3,7.8,5.2,10.3,9.3c-3.2-1.6-6.6-2.6-10-3.3c-3.3-0.7-6.5-2.2-10-2.2c0,0-0.1,0-0.1,0c0,0,0,0,0,0c-1,0-2-0.4-3-0.4
			c-0.6,0-1.3,0.2-2,0.7c-0.1,0.1-0.3,0.1-0.4,0.1c-0.8,0-2-1-2.8-1.9c-0.8,1.1-1.4,3-2.6,3c-0.5,0-1.2-0.4-2-1.3
			c-0.1-0.1-0.3-0.1-0.5-0.1c-0.2,1.7-1,2-2.1,2c-0.6,0-1.2-0.1-1.8-0.1c-0.8,0-1.5,0.2-1.9,1c-0.1,0.1-0.4,0.3-0.7,0.3
			c0,0-0.1,0-0.1,0c-0.9-0.5-1.9-0.6-2.9-0.6c-1.8,0-3.5,0.6-4.9,1.2c-0.4,0.2-0.8,0.2-1.2,0.2c-1.3,0-2.7-0.7-4-0.7
			c-0.8,0-1.5,0.3-2.3,1.2c-0.1,0.2-0.3,0.2-0.4,0.2c-0.6,0-1.3-0.8-2-1.5c-0.5,2-1.4,2.6-2.9,2.6c-0.5,0-1.1-0.1-1.7-0.2
			c-0.4-0.1-0.7-0.1-1.1-0.1c-2,0-4.1,0.9-6,1.6c-1.1,0.4-0.2,1.6,0.3,2.5c3.7,6.1,10.3,8.9,15.4,13.3c4.7,4.1,10.7,5.9,15.3,9.8
			c2.2,1.9,4.7,3.5,7.2,5c-0.5,0-1,0.1-1.5,0.1c-2.3,0-4.7-0.6-7.4-1.7c2.3,3,3.7,5.6,7.1,6.3c1.7,0.4,3.3,1.9,4.7,3.2
			c3.1,2.7,6.4,5.2,9.1,8.3c-0.3,0.2-0.5,0.5-0.8,0.7c-4.1-0.6-7.5-3-11.7-4.6c0.5,1.5,0.7,2.8,1.3,3.6c1.5,2.1,0.1,2.8-1.5,3.3
			c-1.7,0.5-3.2,1.1-4.7,2.1c-0.9,0.6-1.8,0.9-2.8,0.9c-0.5,0-1.1-0.1-1.6-0.3c-1.2-0.4-2.3-0.6-3.5-0.6c-1.9,0-3.6,0.5-5.3,1.7
			c-2.9,2-6.5,1.5-9.7,2.5c-1.9,0.6-3.9,0.7-5.4,2.4c-0.4,0.4-1.2,0.5-1.9,0.6c-2.7,0.6-4.1,1.6-4.2,5.1c-0.1,4.3-3,8.5-5.9,11.3
			c-4.4,4.2-5.8,9.3-7.7,14.4c-0.8,2.3-1.8,4.7-1.9,7.2c-0.1,1.7-1.4,2.8-2.5,3.8c-1.8,1.6-3.2,3.6-4.5,5.6c-1.7,2.6-5.1,4-8.5,4
			c-2.1,0-4.2-0.5-5.7-1.7c-3.3-2.4-5.4-5.9-8.9-8c-1.6-1-3.2-1.5-4.9-1.5c-0.2,0-0.3,0-0.5,0c-0.2,0-0.4,0-0.6,0
			c-3.1,0-5.2-1.6-6.9-4.1c-1.7-2.5-2.6-3.6-4.1-3.6c-0.9,0-2.1,0.4-3.9,1.1c-0.6,0.2-1.2,0.7-1.8,0.7c0,0,0,0-0.1,0
			c-0.3,0-0.6,0-0.9,0c-7.6,0-12.9,5.3-19,8.7c-1.3,0.7-2.5,0.8-3.8,0.8c-0.3,0-0.7,0-1,0c-1.2,0-2.3-0.2-3.4-0.5
			c-0.6-0.1-1.2-0.2-1.8-0.2c-0.9,0-1.7,0.2-2,0.7c-0.7,1.3-0.6,3.1,0.2,4.7c1.9,4,5.3,6.8,7.9,10.2c1.7,2.2,4.6,2.3,6.8,3.7
			c8.3,5.2,17.5,8.4,26.2,12.6c4.1,2,8.6,3.2,12.8,5.1c6.2,2.7,12,6,18.4,8.4c4,1.5,8.3,2.9,11.8,5.5c6.1,4.4,12.8,8.1,17.6,14
			c0.4,0.5,1.1,1.2,1.5,1.2c0,0,0.1,0,0.1,0c0.5-0.2,1-0.3,1.4-0.3c1.8,0,2.7,1.9,4.2,2.8c3.8,2.4,7.6,4.7,12.3,4.7
			c1.1,0,2.2,0.6,3.3,0.9c1.4,0.4,2.7,0.8,4.1,0.8c1.1,0,2.2-0.3,3.3-1.1c0.4-0.3,0.9-0.3,1.4-0.3c0.9,0,1.9,0.2,2.8,0.2
			c0.4,0,0.7,0,1.1,0c2.6,0,5.2-0.1,7.4-2.1c0.3-0.3,0.6-0.4,1-0.4c0.9,0,1.7,0.8,2.5,1.1c3.3,1.4,6.8,1.8,10.3,1.8
			c1.7,0,3.3-0.1,5-0.1c0.9,0,1.9-0.3,2.8-0.3c0.1,0,0.2,0,0.3,0c0.2,0,0.5,0,0.7,0c3.2,0,6.1-2,9.3-2c0.1,0,0.3,0,0.4,0
			c1.8,0,3.6,0.3,5.5,0.3c1.1,0,2.2-0.1,3.3-0.4c2.2-0.7,4.5-1,5.7-3.3c0.4-0.7,1-0.9,1.8-0.9c0.3,0,0.6,0,0.9,0.1
			c1.9,0.4,3.9,0.7,6,0.7c6,0,12.1-1.9,16.9-5.5c-1.1,2.4-2.9,4.2-5.1,5.4c-8.3,4.3-16.8,8.1-25.8,11c-4.5,1.4-8.8,2.6-13.4,2.6
			c-0.6,0-1.4,0.3-1.9,0.7c-4.5,3.5-10,3.4-15.2,3.6c-5.3,0.2-10.6,0.3-15.8,1.5c-1.3,0.3-2.5,0.4-3.8,0.4c-3.4,0-6.8-0.9-10.2-1.4
			c-0.7-0.1-1.4-0.3-2.3-0.3c-0.5,0-1,0.1-1.6,0.3c2.3,3,4.2,6,5.7,9.3c4.1,9.2,5.1,18.7,2,28.3c-2.3,7.1-7.8,11.9-13.9,15.9
			c-8.2,5.3-17.4,8.3-26.6,11c-13.3,3.9-26.8,6.9-40.7,6.9c-1.4,0-2.9,0-4.4-0.1c-0.7,0-1.3,0-2,0c-5.5,0-10.9,0.9-16.3,0.9
			c-0.3,0-0.5,0-0.8,0c-9.1-0.2-18.1-0.9-27.1-2.1c-5.6-0.7-11.3-1-16.9-1.8c-6.4-1-12.5-3.1-18.7-4.9c-8.1-2.4-16.2-5.1-24.2-7.6
			c-11.6-3.7-21.3-10.1-28.3-20.2c-1.7-2.5-1.4-5.8-0.4-8.1c1.8-4.2,3.7-8.7,7.3-11.8c4.4-3.8,10.1-4.6,15.5-5.8
			c5.8-1.3,11.8-1.5,17.8-1.7c0.7,0,1.4,0,2,0c2.7,0,5.4,0.2,8.1,0.2c1.5,0,2.9,0,4.4-0.2c1.2-0.1,2.2-0.4,3.2-1.7
			c-3.2-1.2-6.4-1.7-9.5-2.3c-2.4-0.5-4.9-0.1-7.2-1.6c-0.4-0.3-1-0.4-1.6-0.4c-0.9,0-1.8,0.2-2.7,0.3c-0.5,0-1,0.6-1.4,0.6
			c-0.2,0-0.3-0.1-0.4-0.3c-0.5-1.1,0.5-1.5,1.3-1.9c0.9-0.5,1.9-0.7,2.9-0.7c0,0,0.1,0,0.1,0c8.1,0.2,16.1,0,24.2,0.5
			c4.3,0.3,8.7,1.3,12.3,4.3c2.8,2.4,3,4.5,0.8,7.5c-3.5,4.5-8.1,7-13.7,7.5c-4,0.4-7.9,1.7-12.1,2.3c2.6,0.8,5.2,1.8,7.9,2.3
			c8.5,1.6,17.2,2.6,25.6,4.4c4.9,1.1,9.9,1.4,14.8,1.4c5.8,0,11.5-0.5,17.3-1c6.9-0.6,14-1,20.4-4.3c2.7-1.4,5.8-2.3,6.1-6.3
			c0.3-4-2.9-5.1-5.1-7c-2-1.7-4.6-2.5-7.2-2.8c-3.6-0.4-6.9-1.6-10.3-2.7c-1.6-0.6-3.3-0.6-4.9-0.6c-0.1,0-0.2,0-0.3,0
			c-0.7,0-1.3,0-2,0c-7.5-0.5-14.9-2.4-22.3-3.1c-12.1-1.1-23.3-5.4-33.9-10.7c-12.2-6.1-23.9-12.9-33.6-22.9
			c-1.6-1.6-3-3.4-3.8-5.4c-1.4-3.3-4.1-4.7-7-5.8c-0.9-0.4-1.9-0.8-2.4-1.5c-3.8-4.7-9.3-6.6-14.4-9.2c-1.5-0.7-2-2.6-3.6-3.5
			c-0.4-0.3-0.7-0.4-1-0.4c-0.2,0-0.5,0.1-0.9,0.3c-1.9,1.2-3.5,1.8-5.1,1.8c-1.9,0-3.7-0.8-5.9-2.4c-2.1-1.5-4.3-3-6.6-4.2
			c-1.5-0.8-2.7-2-3.1-3.3c-0.7-2.3-2.3-3.9-3.3-6c-1.9-4.3-6.4-5.3-10.2-7.2c-1.1-0.6-2.4-1-3.6-1.6c-4.3-2.5-8.3-5.5-12.9-7.5
			c-8.9-3.8-15.7-10.6-23.9-15.2c-3.7-2.1-6.3-5.7-10.5-6.7c-0.4-0.1-0.7-0.6-1.1-1c-3.9-4.4-8.9-7.7-12.6-12.2
			c-2.2-2.6-3.1-6.4-5-9.4c-3.7-5.9-3.2-13.1-6.3-19.1c-1.5-3-1.2-6.4-2.8-9.3c-0.1-0.3,0-0.9,0.2-1.1c0.1-0.1,0.3-0.1,0.4-0.1
			c0.3,0,0.6,0.3,0.8,0.6c1.3,2.5,3.2,4.5,5.5,6.2c0.4,0.3,0.7,0.6,0.7,1.2c0.5,5,2.7,9.2,5.9,12.9c3.1,3.5,5.3,7.5,7.9,11.3
			c0.4,0.6,0.9,1.2,1.6,1.2c0,0,0.1,0,0.1,0c0.9-0.1,1.1-1.2,1-1.9c-0.3-4.3-0.7-8.6-2.1-12.7c0.3-1.9-0.5-4,0.6-5.9
			c1.6,3.1,3.7,5.7,6,8.3c1.1,1.2,1.8,2.8,2,4.4c0.7,5.6,3.3,9.8,7.3,13.9c2.6,2.6,4.9,5.5,7.7,8c0.7,0.6,1.4,1.3,2.6,1.5
			c0.1-1.1,0.4-2.2-0.4-3.2c-0.3-0.3-0.8-0.7-0.2-1.2c0.1-0.1,0.3-0.2,0.4-0.2c0.3,0,0.6,0.2,0.9,0.3c1.6,0.8,2.9,1.9,3.6,3.6
			c1.3,2.8,3.3,4.9,6.3,6c0.6,0.5,1.1,1.3,1.8,1.6c0.2,0.1,0.3,0.1,0.4,0.1c0.5,0,0-0.7,0.1-1c0.2-0.2,0.4-0.4,0.6-0.6
			c2.6,2.2,5.2,4.6,7.3,7.3c0.9-0.8,0.3-1.2,0.2-1.6c-0.3-0.9-1.4-1.9-0.6-2.6c0.3-0.2,0.5-0.3,0.8-0.3c0.7,0,1.3,0.9,1.7,1.5
			c1.6,2.2,3.8,3.8,4.9,6.6c0.7,1.8,3,4,5.1,4.1c3.2,0.1,5.6,1.9,7.7,3.5c1.1,0.8,2.1,1.1,2.9,1.1c1.1,0,2.1-0.5,2.9-1.3
			c2.9-2.6,6.1-4.5,9.5-6.3c4.7-2.4,8-6.6,9.9-11.7c0.8-2.2,1.9-4.2,3.7-5.7c1.9-1.5,3-3.6,3.3-5.9c0.6-3.4,3.2-5.6,4.5-8.6
			c0.8-1.9,1.2-3.7,1.1-5.6c-0.4-6.2,1.6-11.3,6.3-15.5c2.4-2.1,4.2-4.7,6.6-7.4c-0.2,2.9-1,5.2-2.7,7.2c-2.4,2.9-2.5,6.2-1.1,9.6
			c0.1,0.3,0.2,0.6,0.5,0.6c0.1,0,0.1,0,0.2,0c0.5-0.1,0.8-0.5,1-1c0.9-2.2,1-4.7,1.5-7c0.8-3.7,2.7-6.6,5.4-9.1
			c2-1.9,3.9-3.9,5.1-6.6c0.9-1.9,2.4-3.3,4.8-3.5c-2.2,1.4-2.2,3.5-2.3,5.7c-0.2,3.1-1.6,6-3.6,8.4c-1.6,2-1.7,4.2-2,6.5
			c-0.1,1.1,0.1,1.7,0.7,1.7c0.3,0,0.7-0.2,1.3-0.5c1.7-1.2,3.4-2.4,5.1-3.7c0.7-0.6,1.4-0.8,2.1-0.8c0.7,0,1.4,0.3,2.2,0.9
			c1.6,1.1,2.7,1.7,3.6,1.7c1.3,0,2.1-1.2,3.2-3.9c0.8-2.1,3.1-2.5,4.3-4.1c1.7-2.1,3.3-4.8,5.5-5.8c8-3.4,13.7-9.4,19.3-15.5
			c4.6-5,9.9-8.2,16.5-10c4.4-1.2,8.3-3.9,12.4-6.1c1.9-1,3.7-2.3,5.8-3c0.7-0.3,1.5-0.9,2.3-0.9c0.5,0,0.9,0.2,1.4,1
			c0,0.1,0.2,0.1,0.3,0.1c0.2,0,0.4,0,0.5-0.1c2.6-2.7,6.7-2.2,9.6-4.4c0.3-0.2,0.7-0.6,1.1-0.6c0.2,0,0.4,0.1,0.7,0.4
			c0.5,0.7-0.4,0.9-0.7,1.3c-1.3,1.8-3,3.2-4.9,4.5c-1,0.7-2.1,1.3-1.9,2.9c0.3,3.4,0.3,3.7,3,3.7c0.3,0,0.7,0,1.2,0
			c4.8,0,8.8-2.1,12.9-4.1c0.3-0.2,0.7-0.5,0.7-0.8c0.1-1.8,0-1.8,1.6-2.7c3.2-1.7,6.3-3.5,10.5-5c-1.6,2.6-2.6,4.5-3.9,6.3
			c-0.7,1-1,2-0.4,3c0.5,0.8,1.3,1,2.2,1c0.2,0,0.4,0,0.6,0c5.9-0.3,9.7-3.9,12.9-8.5c0.5-0.8,1.1-1.9,2.2-1.9c0.3,0,0.6,0.1,1,0.3
			c0.2,0.1,0.4,0.2,0.6,0.2c0.5,0,0.9-0.2,1.2-0.6c0.4-0.6,0.9-0.8,1.3-0.8c0.4,0,0.9,0.2,1.3,0.5c0.3,0.2,0.8,0.5,1.1,0.5
			c0.1,0,0.1,0,0.1,0c1-0.7,2.1-0.7,3.2-0.7c0.2,0,0.4,0,0.6,0c1.2,0,2.3-0.1,3.3-0.8c0.5-0.3,1-0.5,1.4-0.5c0.8,0,1.6,0.4,2.3,0.9
			c1.8,1.3,3.3,3,5.5,3.8c0.8,0.3,1.7,0.7,2.4,0.7c0.7,0,1.4-0.3,2.1-1.3c0.2-0.3,0.6-0.6,1.1-0.6c0.2,0,0.3,0,0.5,0.1
			c0.8,0.5,1.8,0.7,2.8,0.7c1.4,0,2.7-0.4,3.4-0.9c2-1.3,4.6-1.1,6.4-2.9c0.5-0.5,1.3-1.9,2.3-1.9c0.5,0,1.1,0.4,1.6,1.4
			c0.1,0.1,0.3,0.2,0.4,0.2c0,0,0,0,0,0c1.5-1.5,3.2-2,5.2-2c0.3,0,0.7,0,1,0c0,0,0.1,0,0.1,0c0.8,0,1.6-0.4,2.4-0.4
			c0.5,0,1,0.1,1.5,0.5c0.2,0.2,0.6,0.2,0.9,0.2c0.7,0,1.5-0.3,2.1-0.7c1.1-0.7,2-2.1,3.2-2.1c0.6,0,1.3,0.4,2.1,1.3
			c0.1,0.2,0.3,0.2,0.4,0.2c0.5,0,1-0.6,1.4-1c0.7-0.6,1.4-1.4,2.2-1.4c0.5,0,1,0.3,1.6,1c0.2,0.3,0.4,0.4,0.5,0.4
			c0.4,0,0.4-0.9,0.6-1.1C375.3,24.4,376.1,23.5,377,23.5 M278.4,58.7c-0.8,0-1.6-0.1-2.5-0.3c-1-0.2-2.1-0.3-3.1-0.3
			c-1.2,0-2.4,0.1-3.7,0.5c-4.9,1.2-9.4,3.3-13.9,5.5c-0.3,0.1-0.7,0.5-1,0.5c-0.3,0-0.4-0.2-0.3-1c0.6-0.3,0.8-1,0.4-1.3
			c-0.1-0.1-0.3-0.1-0.4-0.1c-0.4,0-0.9,0.5-1.3,0.7c-3,0.1-0.9,3.2-2.6,4.1c5.2-0.8,10.1-2.5,15.2-3.3c2.9-0.5,5.8-0.9,8.6-0.9
			c2.8,0,5.5,0.4,8.2,1.4c5.1,2,11.1,2.3,14.6,7.4c0.4,0.6,1.3,1,2,1.1c2.8,0.3,5.5,0.8,8.3,0.8c1.2,0,2.3-0.1,3.5-0.3
			c0.9-0.2,1.8-0.3,2.7-0.3c3.5,0,6.9,1.3,10.2,2.5c1.4,0.5,3.6,0.9,5.7,0.9c2.1,0,4.1-0.3,5.1-1.2c0.1-0.1,0.2-0.3,0.3-0.5
			c0.9-1.9-0.2-7.9-2-9.2c-2-1.5-3.4-3.5-5.4-5c-1.2-0.9-2.2-2.2-3.5-2.2c-0.6,0-1.3,0.3-2.1,1.1c-0.1,0.1-0.3,0.1-0.5,0.1
			c-0.2,0-0.5,0-0.7,0c-0.1,0-0.1,0-0.2,0c-2.2,0.2-4.4,0.5-6.6,0.5c-1.4,0-2.8-0.1-4.3-0.3c-2.7-0.5-5.1-0.2-7.1-2.6
			c-0.4-0.5-1.1-0.7-1.7-0.7c-1,0-1.9,0.5-2.3,1c-1,1.3,1.7,1,1.8,2.4c-0.6,0-1.3,0.1-1.9,0.1c-0.3,0-0.7,0-0.9-0.2
			c-3.8-2-8.2-1.7-12.2-3c-0.3-0.1-0.7-0.5-1.1-0.5c-0.2,0-0.5,0.1-0.8,0.6C281.6,58.1,280.1,58.7,278.4,58.7 M200.9,85.8
			c-0.7,0-1.5-0.3-2.4-1.1c0,0-0.1,0-0.2,0c-0.3,0-0.8,0.2-0.9,0.3c-0.4,1.6-2.3,1.9-3.1,3.1c1.5,0.7,3,1.1,4.4,1.1
			c3.7,0,6.9-2.4,7.3-6.1C204.2,83.7,202.8,85.8,200.9,85.8 M147.1,151.3c0.6-0.3,1.1-0.4,1.6-1.1c2.7-4.6,6.4-8.3,11.1-11
			c1.7-1,3.4-2.1,5.1-3.2c1.2-0.7,1.9-1.7,1.8-3.1c-0.3-3.2,1.6-5.1,3.7-7.1c2.6-2.5,6.8-3.4,7.7-7.5
			C165.5,121.5,148.3,139.7,147.1,151.3 M452,206.8L452,206.8 M377,8.5C377,8.5,377,8.5,377,8.5c-2.6,0-4.9,0.6-6.7,1.4
			c-1.4,0.1-2.7,0.4-3.8,0.8c-0.4,0-0.7,0-1,0c0,0,0,0,0,0c-3.3,0-6,0.9-8,2.1c-1.3,0-2.4,0.2-3.3,0.4c0,0,0,0,0,0
			c-1.7,0-3.4,0.2-5,0.5c-0.7-0.1-1.5-0.2-2.2-0.2c-4.3,0-8.1,1.6-11.5,4.7c-0.3,0.1-0.7,0.2-1.1,0.4c-0.9-0.2-1.8-0.2-2.8-0.2
			c-0.8,0-1.6,0.1-2.4,0.2c-3.4-2.4-7.1-3.6-11-3.6c-2.3,0-4.5,0.4-6.5,1.3c-0.5,0-1,0-1.5,0.1c-1-0.2-2.1-0.3-3.1-0.3
			c-2.1,0-4.2,0.4-6.1,1.2c-1.5,0.2-3.3,0.6-5.2,1.5c-2-1-4.3-1.5-6.5-1.5c-1.7,0-3.5,0.3-5.1,0.9c-2.8,1-5.2,2.1-7.4,3.2
			C273.7,18.5,270,17,266,17c-3.3,0-6.4,1-9.2,2.9c-0.1,0-0.3,0.1-0.4,0.1c-0.9,0.2-2,0.6-3.2,1c-3.8,0-6.7,1.4-8.1,2.1
			c-2.4,0.9-4.4,2.1-5.9,3c-0.4,0.2-0.8,0.5-1.2,0.7c-1.2,0.6-2.3,1.3-3.4,1.9c-2.2,1.3-4.4,2.6-5.8,2.9c-9.3,2.5-17,7.2-23.6,14.3
			c-4.7,5-9.1,9.8-14.2,11.9c-0.5,0.2-0.9,0.4-1.3,0.6c-2.6-4.8-7.7-7.9-13.2-7.9c-0.5,0-1,0-1.5,0.1c-6.6,0.6-12.3,4.3-15.7,9.8
			c-3.3,0.6-6.4,2.2-8.7,4.9c-0.9,1-1.7,2-2.4,2.9c-1.1,1.3-2.1,2.5-2.8,3.1c-7.9,6.9-11.8,16.1-11.5,26.6c-0.1,0.2-0.3,0.4-0.4,0.6
			c-1.3,2-3.5,5.1-4.6,9.4c-2.9,2.8-5.1,6.3-6.7,10.7c-0.4,1-1.2,2.8-2.7,3.6c-1.9,1-4.1,2.1-6.2,3.5c-1-0.5-2.2-0.9-3.4-1.3
			c-1.3-2-2.7-3.6-3.7-4.6c-0.3-0.3-0.6-0.7-0.7-0.8l0,0c-4.1-5.8-9.1-7.4-12.9-7.7c-1.7-1.2-3.6-2-5.6-2.5
			c-2.2-3.5-5.3-6.4-9.2-8.3c-0.9-0.5-3.3-1.7-6.5-1.9c-0.1-0.2-0.3-0.3-0.4-0.5c-2.6-2.7-3-4-3.1-5.2c-0.6-4.7-2.6-9.2-5.8-12.7
			c-1.8-2-3.1-3.7-3.9-5.3c-2.5-4.8-7.5-7.8-12.9-8c-0.1,0-0.2,0-0.3,0c-1.1,0-2.2,0.1-3.3,0.4c-1-1.4-2.3-2.6-3.7-3.7
			c-0.6-0.5-0.9-0.8-1-1.1c-2.8-5.3-8.2-8.5-14-8.5c-3.2,0-6.3,1-8.9,2.8c-6.3,4.4-8.5,13-5.2,19.9c0.1,0.3,0.1,0.7,0.2,1
			c0.4,2.1,1,5.3,2.8,8.7c0.5,1,1,3.1,1.4,5.2c0.9,4.3,2.1,9.6,5.4,14.9c0.2,0.3,0.7,1.4,1,2.1c1.1,2.4,2.5,5.8,5.2,9
			c2.7,3.2,5.5,5.7,8,7.9c1.8,1.6,3.5,3,4.7,4.4c0.9,1.1,3.5,4.2,8.1,5.5c0.4,0.3,1,0.8,1.5,1.2c1.6,1.3,3.5,2.8,6,4.2
			c2.7,1.5,5.4,3.5,8.3,5.6c4.8,3.5,10.3,7.5,17.1,10.3c1.9,0.8,4.2,2.3,6.6,3.8c1.4,0.9,2.9,1.9,4.5,2.8c1.6,0.9,3,1.5,3.9,1.9
			c0.2,0.1,0.3,0.1,0.5,0.2c1.2,0.6,2.3,1.1,3.2,1.5c0.3,0.1,0.6,0.3,0.9,0.4c0.6,1.1,1.2,2,1.7,2.7c0.1,0.1,0.1,0.2,0.2,0.3
			c1.7,4.9,5.5,9,10.4,11.5c1.5,0.8,3.2,1.9,4.6,3c1.8,1.3,7.3,5.2,14.6,5.2c1,0,2-0.1,3-0.2c0.3,0.2,0.6,0.3,0.9,0.5
			c1,0.5,2,1,3,1.4c2.8,1.3,5.4,2.5,6.4,3.7c2.6,3.3,5.8,4.9,8.4,5.9c1.4,2.7,3.4,5.3,5.8,7.8c4,4.1,8.3,7.8,12.6,11
			c-1.5,1.3-2.7,2.9-3.6,4.6c-0.8,0.1-1.6,0.3-2.4,0.5c-0.6,0.1-1.2,0.3-1.9,0.4c-5.7,1.2-13.5,2.8-20.3,8.8
			c-6.3,5.5-9.3,12.6-11.3,17.3c-3.2,7.6-2.4,16.2,1.9,22.5c8.6,12.3,20.7,21.1,36.1,26c2.5,0.8,4.9,1.6,7.4,2.4
			c5.6,1.8,11.4,3.7,17.2,5.4c1.3,0.4,2.6,0.8,3.9,1.2c5.2,1.6,10.7,3.2,16.8,4.1c3.7,0.5,7.2,0.9,10.6,1.2c2.3,0.2,4.6,0.4,6.7,0.7
			c10.5,1.3,19.9,2,28.7,2.2c0.4,0,0.7,0,1.1,0c3.4,0,6.6-0.3,9.5-0.5c2.5-0.2,4.8-0.4,6.9-0.4c0.5,0,0.9,0,1.3,0
			c1.7,0.1,3.4,0.1,5.1,0.1c16.9,0,32.8-4,44.8-7.5c9.4-2.7,20.4-6.2,30.5-12.8c6.7-4.3,16-11.5,20-23.9c2.8-8.8,3.3-17.8,1.4-26.9
			c2.6-0.4,5.6-0.5,8.8-0.6c0.7,0,1.4-0.1,2.1-0.1c0.4,0,0.9,0,1.3,0c5-0.2,12.1-0.4,19.1-4.4c5.3-0.5,9.9-1.8,14-3.1
			c8.8-2.8,17.8-6.6,28.2-12c5.1-2.6,9.2-6.9,11.6-12c1-2,1.6-4.3,1.6-6.7c0-8.3-6.7-15-15-15c0,0,0,0,0,0c0,0,0,0,0,0c0,0,0,0,0,0
			c-0.1,0-0.1,0-0.2,0c0,0,0,0,0,0c0,0,0,0,0,0c-3.3,0-6.4,1.2-8.8,3c-2.1,1.6-5,2.5-7.8,2.5c-0.9,0-1.8-0.1-2.6-0.3
			c-1.4-0.3-2.8-0.5-4.2-0.5c-4.5,0-8.7,1.7-11.8,4.6c-0.2,0-0.3,0-0.5,0c-1.1-0.1-2.4-0.2-3.9-0.2c-0.3,0-0.5,0-0.8,0
			c-3.8,0.1-6.8,1.1-8.8,1.8c-0.2,0.1-0.5,0.2-0.7,0.2c-0.1,0-0.3,0-0.4,0c-1.7,0-3.1,0.2-3.9,0.4l-0.1,0c-1.4,0.1-2.6,0.1-3.8,0.1
			c-1.8,0-3-0.1-3.9-0.4c-1.6-0.9-4.7-2.5-8.9-2.5c-3.1,0-6.1,0.9-8.7,2.5l-0.2,0l-0.2,0c-0.1,0-0.1,0-0.2,0c-0.7-0.1-1.8-0.2-3-0.2
			c-2.1,0-4,0.3-5.6,0.8c-1.4-0.5-3.6-1.2-6.3-1.2c-0.6,0-2.4-1.1-3.7-1.9c-1.3-1.3-4-3.7-8-4.9c-4.1-4.1-8.6-7.1-12.6-9.8
			c-1.5-1-2.9-2-4.2-2.9c-4.7-3.4-9.7-5.3-13.7-6.8c-0.5-0.2-1-0.4-1.6-0.6c-3.2-1.2-6.5-2.8-10-4.5c-2.4-1.2-5-2.4-7.6-3.6
			c-2.3-1-4.6-1.9-6.6-2.6c-2.1-0.8-4-1.5-5.6-2.2c-3.4-1.7-6.8-3.1-10-4.5c-4.1-1.8-8-3.5-11.6-5.4c1.9-1.3,3.9-2.4,4.8-2.4
			c0,0,0.1,0,0.1,0c0.3,0,0.6,0,0.9,0c0.5,0,1,0,1.5-0.1c5,4.5,10.4,5.7,14.1,5.9c0.4,0.4,0.8,0.8,1.2,1.2c1.6,1.6,3.5,3.7,6.1,5.6
			c4.1,2.9,9.1,4.5,14.5,4.5c8.7,0,16.8-4.1,21.1-10.8c0.4-0.6,1.4-2.1,1.9-2.6c1.9-1.7,7.1-6.3,7.5-14.1c0.1-0.5,0.5-1.6,0.8-2.4
			l0.2-0.5c0.2-0.6,0.4-1.2,0.6-1.8c1.3-3.6,2.1-5.7,3.3-6.9c3-2.8,7.5-8.1,9.5-15.1c0.3-0.2,0.6-0.4,0.9-0.6
			c0.3-0.1,0.6-0.2,0.9-0.3c0.3,0,0.8-0.1,1.2-0.2c2.5-0.3,6.4-0.8,10.5-3c1.4,0.3,2.7,0.4,4.1,0.4c4,0,7.8-1.2,11.1-3.4
			c0.1,0,0.4-0.2,1-0.3c1.6-0.5,3.1-1.2,4.3-1.9c0.3,0.1,0.6,0.1,0.9,0.1c0.7,0.1,1.4,0.1,2.1,0.1c3.9,0,7.7-1.5,10.6-4.3l0.4-0.4
			l0.4-0.4c5.6-5.5,6-14.4,0.9-20.4c-2.7-3.2-5.6-5.6-8.1-7.8c-0.1-0.1-0.3-0.2-0.4-0.4c-0.5-4.7-3.2-9-7.5-11.4
			c-2.1-1.2-3.6-2.3-5-3.4c-1.9-1.6-3.9-3-5.8-4.1c0.3-0.1,0.5-0.2,0.8-0.3c0.8-0.1,1.7-0.2,2.4-0.4c0.1,0,0.1,0,0.2,0
			c1.7,0,3.8-0.3,5.8-1.1c1.1,0,2.3-0.2,3.4-0.5c0.5,0,1,0.1,1.6,0.1c0,0,0.1,0,0.1,0c0.5,0.1,1.6,0.4,2.4,0.6
			c1.3,0.4,2.9,0.9,4.7,1.2c2.8,0.6,4.7,1.2,6.1,1.9c2.2,1.1,4.5,1.7,6.8,1.7c4.1,0,8-1.6,10.9-4.7c4.6-4.9,5.4-12.2,1.9-17.9
			c-3.1-5.2-7.2-8.2-10.2-10.4c-0.9-0.7-1.9-1.4-2.3-1.8c-3.4-3.4-7.9-5.5-12.6-5.9c-1.8-1.3-5.1-3.4-9.7-3.7
			C381.5,8.8,378.8,8.5,377,8.5L377,8.5z"/>
	</g>
</g>
</svg>
