<svg id="Livello_1" data-name="Livello 1" xmlns="http://www.w3.org/2000/svg" viewBox="0 0 25.81893 49.93999"><path d="M18.311,10.241a2.048,2.048,0,0,1-.5427.06144H17.543a3.37962,3.37962,0,0,0-.41983.34815,3.73717,3.73717,0,0,1-.83964.62461.96239.96239,0,0,1-.44031.1024h-.13311v.07168a1.5051,1.5051,0,0,0-.07168.29695,5.24164,5.24164,0,0,1,.768-.35839,2.78534,2.78534,0,0,1,.81917-.12288,3.81952,3.81952,0,0,1,1.495.34815c-.05119-.22527-.11263-.4403-.18431-.686S18.37241,10.48678,18.311,10.241Z" style="fill:none"/><path d="M22.57065,25.12942s-.36863-2.59062-.33791-2.693.29695-.29695.33791-.3379V19.07781c.22527-.39934.55293.1024.83964-.66557.56318-.88061-.727-2.04792-1.34139-2.35511V12.21728a14.23257,14.23257,0,0,0-.83964-1.50523l-.16384-.83964-.3379-.17408c-.24575-.63485.3891-.95228,0-1.50522V7.83473l-.83965-.16384-.18431-.67581c-.66558-.67582-2.04793-.84989-2.519-1.6793-.28671-.48126-.11263-.77821-.3379-1.34139a7.99728,7.99728,0,0,0-2.04792-2.85685c-.18432-.16383,0-.06143-.33791-.16383a1.35164,1.35164,0,0,1-.50174.33791A23.87856,23.87856,0,0,1,14.13321,5.152C12.628,6.50358,11.50163,8.12143,9.62778,9.1454c0,.3379,0,.71677.16384.83964l1.35162-.16383c.30719.13311.37887.4403.58366.4403s.215-.07167.41982-.27647a3.31769,3.31769,0,0,1,1.20828.18432c-.297,1.30043-1.751,3.96272-.512,5.02764-.0512,2.34487-3.36883,1.44379-4.7,2.51894L7.6413,17.89a1.024,1.024,0,0,0,.33791.66557c-.24575.78845-1.33115,1.11612-1.84313,1.6793-.74749,0-1.36187-.07168-1.6793-.50174a1.84313,1.84313,0,0,0-1.34139.52222c0,.39934,0,.471.16384.67581a.5017.5017,0,0,0,.24575.07168c.28671,0,.46078-.30719.71677-.30719a.4607.4607,0,0,1,.215.06144l.33791.67581H6.945v.16384h.16383c-.12287.75773-.52222.96252-.83965,1.51546-1.21851,0-1.63833-.30719-2.68277-.33791.07167.512,0,.4403.3379.67581-.13311.65534-.37886.68606-.64509.68606H3.18707a.61439.61439,0,0,0-.60414.31742v.50175a4.99683,4.99683,0,0,1-1.51546,2.181,1.62812,1.62812,0,0,0,.33791,1.024,2.50872,2.50872,0,0,0,1.50522-1.024c1.11612.16384.91133.727,1.51546,1.024l2.34487-.17407c.41983.18431.40959.65533,1.17756.83965a.35828.35828,0,0,0,.20479.05119,1.60759,1.60759,0,0,0,1.10588-.727c.89084.07168,2.36535.95229,3.53266.95229a1.78183,1.78183,0,0,0,.66558-.11264l.16383-.33791,2.04792-.67581v.17407h.17407v1.024L14.4916,30.35162c-.39935.56318-.46079,1.21851-.83965,1.84313l-.32767.16383c-.28671.5427-.256,1.11612-.512,1.67929-.4915,1.12636-1.32091,2.41655-1.84313,3.53267v.50174c-.15359.28671-.65533.57342-.83965.83965v.32767c-.24575.36862-.75773.66557-1.024,1.024s-.256.74749-.50174,1.17755l-.3379.16384c-.22527.53246.256,1.024.16383,1.34139s-.768.83964-1.024,1.17755c-.78845,1.12636-.84989,2.59062-2.181,3.18452v.67581h.43007a2.81583,2.81583,0,0,0,2.04792-.50174c.26623-.28671.27647-.91132.66557-1.17755l1.6793-.67582c0-.56318,0-.727-.33791-1.024.06144-.35838,0-.31743.17407-.50174.34815-.31743,1.11612-.215,1.50523-.50174,2.30391,0,.8294-1.58714,1.67929-2.85685l1.34139-1.17756c.27647-.37886.256-.768.512-1.16731.08192-.13312.43006-.34815.50174-.512l.16383-1.024a6.01054,6.01054,0,0,1,1.51547-1.17755c.22527-.17407.15359-.43006.32766-.66558l1.024-.83965.16384-.83964c.23551-.35839.75773-.471,1.024-.83965h.50174a3.22552,3.22552,0,0,1,0,1.84313c-.09216.22527-.29695.28671-.33791.67581v4.7c-.0512.14336-.45054.52222-.50174.66558v1.34139H18.9663l-.16383.33791c.16383.50174.32767,1.024.50174,1.51546a9.66631,9.66631,0,0,1-.50174,3.18452c.07168.62461.30719.61437.50174,1.024.43006.91132.64509,1.12635,1.18779,1.12635.30719,0,.71678-.06144,1.33115-.11264.14336-.18431,0,0,.16384-.17407,0-1.26971-.57342-1.25947-.83965-2.181,0-.08192-.26623,0-.16384-.32767s.55294-.16383.83965-.33791a4.09572,4.09572,0,0,0,1.024-1.51546V41.41039c.0512-.15359.45055-.53246.50174-.67581V38.38971l.67582-.512.3379-1.84313.32767-.50174V32.3381a9.32821,9.32821,0,0,0-.83965-5.86729C23.51269,25.89739,22.80616,25.88715,22.57065,25.12942ZM17.18461,12.289a1.52577,1.52577,0,0,0-.512.08192c-.48126.15359-1.16731.70653-1.64857.70653a.41969.41969,0,0,1-.19456,0h-.3379a5.01726,5.01726,0,0,1,.3379-2.181l.17408-.50174h.83964c.40959-.2048.86013-.82941,1.34139-1.024A1.08525,1.08525,0,0,1,17.6454,9.299h.12287a.66553.66553,0,0,0,.41982-.1024,1.65889,1.65889,0,0,1,1.024.33791,13.60862,13.60862,0,0,1,.67581,3.52242C18.93559,13.00573,18.10618,12.289,17.18461,12.289Z" style="fill:#fefefe"/><path d="M24.74144,25.89739a2.71354,2.71354,0,0,0-.90108-.81917c-.19456-.12287-.26623-.17407-.28671-.215-.11264-.74749-.215-1.55642-.27647-2.04792a1.024,1.024,0,0,0,.29695-.727V19.73315a1.6179,1.6179,0,0,0,.73725-.87037,1.925,1.925,0,0,0,.17407-1.454,3.88074,3.88074,0,0,0-1.41306-1.89433V12.21728a1.14716,1.14716,0,0,0,0-.31743,6.57339,6.57339,0,0,0-.63486-1.20827l-.20479-.33791-.0512-.26623-.08192-.41983a1.0239,1.0239,0,0,0-.3379-.52221,1.63837,1.63837,0,0,0,0-1.20828V7.83473a1.024,1.024,0,0,0-.81917-1.024h-.2048a1.08533,1.08533,0,0,0-.26623-.471,4.75113,4.75113,0,0,0-1.44378-.91132,2.45746,2.45746,0,0,1-.92156-.57342,1.06841,1.06841,0,0,0-.06144-.26623A3.14364,3.14364,0,0,0,17.84,3.657,8.99054,8.99054,0,0,0,15.4746.32909a1.024,1.024,0,0,0-.56318-.31742H14.809a1.08512,1.08512,0,0,0-.31743,0,1.024,1.024,0,0,0-.74749.32766L13.54955.452a1.024,1.024,0,0,0-.57342,1.024,22.52775,22.52775,0,0,1,.17408,3.27667c-.41983.39935-.81917.80893-1.198,1.198A12.41047,12.41047,0,0,1,9.126,8.28527a1.024,1.024,0,0,0-.52222.95228,1.10569,1.10569,0,0,1,0,.18432,1.56666,1.56666,0,0,0,.65534,1.4745,1.02393,1.02393,0,0,0,.52222.14335h.13311l.89085-.11263a1.26969,1.26969,0,0,0,.91132.39934h.1536c-.46079,1.35163-.96253,3.07188-.1536,4.21872-.14335.22527-.5427.36863-1.68953.5427a5.76488,5.76488,0,0,0-2.39607.74749l-.34815.12288a1.024,1.024,0,0,0-.67581,1.21851,1.39681,1.39681,0,0,0,.1024.36863l-.41983.297a6.46148,6.46148,0,0,0-.57342.39934c-.36862,0-.471-.07168-.4915-.09216a.96251.96251,0,0,0-.80893-.39934h0a2.46773,2.46773,0,0,0-1.62809.512l-.23551.12287a1.024,1.024,0,0,0-.49151.942v.14335a1.68955,1.68955,0,0,0,.38911,1.10588.82934.82934,0,0,0,.28671.24575l.24575.11263-.17407.1536a1.08537,1.08537,0,0,0-.24576.83964v.26623a1.58718,1.58718,0,0,0-.90108.71678,1.02393,1.02393,0,0,0-.15359.5427v.27647A3.88085,3.88085,0,0,1,.48381,26.266a1.024,1.024,0,0,0-.48126.942,2.48827,2.48827,0,0,0,.36863,1.26971l.13311.12288a1.024,1.024,0,0,0,.90109.5427H1.559a3.072,3.072,0,0,0,1.55642-.77821,2.17092,2.17092,0,0,0,.83965.70653,1.024,1.024,0,0,0,.43006.1024h.07168l1.925-.13312a2.30388,2.30388,0,0,0,1.17755.74749,1.44376,1.44376,0,0,0,.55294.11264,2.42676,2.42676,0,0,0,1.495-.61438c.215.06144.46079.1536.6963.24575a7.33131,7.33131,0,0,0,2.478.60414,3.184,3.184,0,0,0,.63486-.06144,4.93522,4.93522,0,0,0-.37887.89085c-.06144.16383-.11263.31743-.17407.45054h0a1.024,1.024,0,0,0-.45054.44031,4.09564,4.09564,0,0,0-.36863,1.14683,3.78907,3.78907,0,0,1-.16383.5939c-.24575.5427-.5939,1.16731-.92157,1.77145s-.65533,1.16731-.92156,1.74073a1.024,1.024,0,0,0-.09216.43007v.11263l-.08191.07168a2.97978,2.97978,0,0,0-.57342.56318,1.10593,1.10593,0,0,0-.18432.53246l-.16383.14335a4.09581,4.09581,0,0,0-.65533.66558,3.0718,3.0718,0,0,0-.40959.90108.77846.77846,0,0,0,0,.11264h0a1.02394,1.02394,0,0,0-.48126.512,1.97628,1.97628,0,0,0,0,1.53594l-.24575.24574a3.27672,3.27672,0,0,0-.5427.58366,8.19118,8.19118,0,0,0-.73725,1.41307c-.32767.75773-.5427,1.20827-1.024,1.4233a1.024,1.024,0,0,0-.60414.93181v.67581a1.024,1.024,0,0,0,1.024,1.024h.43006a3.66577,3.66577,0,0,0,2.82614-.81917,2.37569,2.37569,0,0,0,.471-.84989l.07167-.17407.83965-.33791.60414-.24575a1.024,1.024,0,0,0,.64509-1.024,3.65577,3.65577,0,0,0-.08191-.75773,3.17474,3.17474,0,0,0,.686-.19455,2.39609,2.39609,0,0,0,1.59738-.62461,2.21176,2.21176,0,0,0,.50174-1.77146,2.048,2.048,0,0,1,.07168-.79868l.58365-.50175.63486-.55294a1.402,1.402,0,0,0,.16383-.18431,2.88759,2.88759,0,0,0,.40959-.89084,1.95668,1.95668,0,0,1,.09215-.26623h0a1.75093,1.75093,0,0,0,.58366-.6963.92168.92168,0,0,0,.06144-.22527l.08192-.45054V37.335a3.73662,3.73662,0,0,1,.57341-.39934l.5939-.39935a1.5462,1.5462,0,0,0,.55294-.84988l.32767-.27647.16383-.13312v4.09584h0a2.10946,2.10946,0,0,0-.45054.67582,1.157,1.157,0,0,0-.0512.32766v.58366a.86007.86007,0,0,0-.22527.30719l-.17407.32766a1.024,1.024,0,0,0-.0512.78846l.33791,1.024.13311.43006a11.26373,11.26373,0,0,1-.39934,2.44726,1.07519,1.07519,0,0,0-.12288.62462A2.10932,2.10932,0,0,0,18.27,48.11733l.07168.1024c.45054.942.91132,1.71,2.11959,1.71a7.78257,7.78257,0,0,0,.79869,0l.61438-.07168a1.02393,1.02393,0,0,0,.71677-.37886h0a1.024,1.024,0,0,0,.38911-.82941,3.16407,3.16407,0,0,0-.62462-1.94553h0a4.73073,4.73073,0,0,0,1.42331-2.04792,1.15735,1.15735,0,0,0,0-.32767V41.73806h0a2.1093,2.1093,0,0,0,.45054-.67581,1.15742,1.15742,0,0,0,.0512-.32767V38.90169l.19455-.15359h.07168a1.024,1.024,0,0,0,.3891-.63486l.24575-1.36187.0512-.27647.22527-.32767a1.02385,1.02385,0,0,0,.16383-.56317V32.51218A10.37269,10.37269,0,0,0,24.74144,25.89739Zm0,6.44071v3.19476l-.32766.50174-.33791,1.84313-.67582.512v2.34487c-.05119.14336-.45054.52222-.50174.67582V44.257a4.09584,4.09584,0,0,1-1.024,1.51547c-.28671.17407-.73725,0-.83964.3379s.12287.24576.16383.32767c.26623.92157.80893.91133.83965,2.181-.18432.15359,0,0-.16384.17407-.61437.0512-1.024.11264-1.33114.11264-.5427,0-.75774-.215-1.1878-1.12636-.19455-.3891-.43006-.37886-.50174-1.024a9.66627,9.66627,0,0,0,.50174-3.18452c-.17407-.512-.33791-1.024-.50174-1.51546l.16383-.33791h.33791V40.39667c.0512-.14335.45054-.52222.50174-.66557v-4.7c0-.38911.24575-.45054.33791-.67582a3.22549,3.22549,0,0,0,0-1.84312h-.4915c-.256.36862-.77821.48126-1.024.83964l-.16384.83965-1.024.83965c-.17407.23551-.1024.4915-.32767.66557a6.01093,6.01093,0,0,0-1.51546,1.17756l-.16383,1.024c-.07168.16383-.41982.37886-.50174.512-.256.39934-.23551.78845-.512,1.16732l-1.32091,1.15707c-.84989,1.26971.62461,2.81589-1.6793,2.85685-.3891.28671-1.15707.18431-1.50522.50174-.15359.18431-.11264.14336-.17407.50174.29694.27647.31742.44031.3379,1.024l-1.67929.67582c-.38911.26623-.39935.89084-.66558,1.17755a2.81588,2.81588,0,0,1-2.04792.50175h-.471v-.67582c1.33115-.5939,1.39259-2.04792,2.181-3.18452.23551-.3379.89084-.74749,1.024-1.17755s-.38911-.80893-.16384-1.34139l.33791-.16383c.24575-.43007.22527-.79869.50174-1.17756s.75773-.6451,1.024-1.024v-.32767c.18431-.26623.68606-.55294.83965-.83965V37.5603c.52222-1.11612,1.35163-2.4063,1.84313-3.53266.256-.56318.22527-1.1366.512-1.6793l.32767-.16383c.37886-.62462.4403-1.28.83964-1.84313l1.35163-1.17755v-1.024h-.17407v-.17408l-2.04792.67582-.16384.3379a1.78154,1.78154,0,0,1-.66557.11264c-1.16732,0-2.64182-.88061-3.53267-.95228a1.60762,1.60762,0,0,1-1.13659.71677.35836.35836,0,0,1-.20479-.0512c-.74749-.20479-.74749-.6451-1.1878-.82941l-2.34487.17407c-.60413-.28671-.39934-.84988-1.51546-1.024a2.50872,2.50872,0,0,1-1.50522,1.024,1.62812,1.62812,0,0,1-.33791-1.024,4.99683,4.99683,0,0,0,1.51546-2.181V24.5048a.61439.61439,0,0,1,.60414-.31742h.09216c.26623,0,.512,0,.64509-.68606-.31743-.23551-.26623-.16383-.3379-.67581,1.024,0,1.46426.31743,2.68277.33791.31743-.55294.71677-.75773.83965-1.51546H6.945v-.215H4.764l-.33791-.67581a.4607.4607,0,0,0-.215-.06144c-.256,0-.43006.30719-.71677.30719a.5017.5017,0,0,1-.24575-.07168c-.13312-.20479-.13312-.27647-.13312-.67581a1.84312,1.84312,0,0,1,1.34139-.50174c.31743.43006.93181.50174,1.6793.50174.512-.56318,1.59738-.89085,1.84313-1.6793a1.024,1.024,0,0,1-.33791-.66557l.50174-.17407c1.33115-1.07516,4.64878-.17408,4.7-2.51895-1.239-1.024.215-3.72721.512-5.02764a3.31751,3.31751,0,0,0-1.17755-.17408c-.2048.2048-.32767.27647-.41983.27647s-.27647-.30719-.58366-.4403l-1.35162.16383c-.2048-.12287-.14336-.50174-.16384-.83964,1.87385-1.024,3.00021-2.67254,4.53615-4.02417a23.8797,23.8797,0,0,0-.17407-3.86033,1.35169,1.35169,0,0,0,.471-.33791c.32766.1024.15359,0,.3379.16383a7.99716,7.99716,0,0,1,2.04792,2.85685c.22527.56318.0512.86013.33791,1.34139.4915.82941,1.85337,1.024,2.51894,1.6793l.16384.67581.83964.16384v.3379c.38911.55294-.24575.87037,0,1.50522l.33791.17408.16384.83965a14.23272,14.23272,0,0,1,.80892,1.5257v3.86033c.61438.33791,1.90457,1.4745,1.34139,2.35511-.28671.768-.61437.26623-.83964.66557V22.119s-.32767.30718-.33791.3379.33791,2.693.33791,2.693c.256.75773.96252.768,1.34138,1.34139a9.32817,9.32817,0,0,1,.83965,5.84681Z"/><path d="M18.18809,9.1454a.66558.66558,0,0,1-.41982.10239h-.12288a1.08538,1.08538,0,0,0-.46078.07168c-.48126.17407-.9318.79869-1.34139,1.024h-.83965l-.17407.50174a5.01746,5.01746,0,0,0-.33791,2.181h.33791a.41991.41991,0,0,0,.19455,0c.48127,0,1.16732-.55294,1.64858-.70654a1.52577,1.52577,0,0,1,.512-.08191c.92156,0,1.751.71677,2.68278.74749a13.60871,13.60871,0,0,0-.67582-3.52243A1.6588,1.6588,0,0,0,18.18809,9.1454Zm-1.024,2.04792a2.785,2.785,0,0,0-.81917.12287,5.24267,5.24267,0,0,0-.768.35839,1.50527,1.50527,0,0,1,.07168-.297V11.306h.13312a.96249.96249,0,0,0,.4403-.10239,3.7378,3.7378,0,0,0,.83965-.62462,3.37952,3.37952,0,0,1,.41982-.34815h.22527a2.048,2.048,0,0,0,.5427-.06143c.06144.24575.13311.48126.18431.686s.13312.46078.18432.68605a3.81937,3.81937,0,0,0-1.43355-.27647Z"/></svg>