<?xml version="1.0" encoding="utf-8"?>
<!-- Generator: Adobe Illustrator 24.1.0, SVG Export Plug-In . SVG Version: 6.00 Build 0)  -->
<svg version="1.1" id="Livello_1" xmlns="http://www.w3.org/2000/svg" xmlns:xlink="http://www.w3.org/1999/xlink" x="0px" y="0px"
	 viewBox="0 0 474 269.1" style="enable-background:new 0 0 474 269.1;" width="50" height="50" xml:space="preserve">
<style type="text/css">

		.Stile_x0020_grafica{fill:#FEFEFE;stroke:#000000;stroke-width:15;stroke-linecap:round;stroke-linejoin:round;stroke-miterlimit:10;}
	.st0{fill:#FEFEFE;}
</style>
<g>
	<path class="st0" d="M359.3,114.7c0.1,0,0.1,0,0.2,0c0,0,0.1-0.1,0.1-0.1C359.6,114.6,359.4,114.6,359.3,114.7z"/>
	<g>
		<path class="st0" d="M219.2,250.9c-5.5,0-10.3-2.8-13.3-7.8c-2.5,1.6-5,2-7,2c-3,0-6.1-1-9.4-3c-4.5-2.7-5.3-6.4-5.1-9.1
			c0.1-1,0.2-1.9,0.6-2.7c-3.3-0.7-6.3-1.6-9.1-2.5c-9.8-3.2-16.1-11.3-20.5-17.9c-2.6-3.9-6.3-6.1-10.6-8.8
			c-1.1-0.7-2.3-1.4-3.4-2.1l-0.6-0.4c-1.6-1-3.5-2.2-5.2-3.9c-2.4-2.4-3.8-2.7-5-2.7l-0.2,0c-0.3,0-0.6,0-0.9,0
			c-3.1,0-5.6-1-7.4-2.9c-0.4-0.4-0.7-0.8-1.1-1.4c-6.5,3.6-13.2,6.3-20.3,8.2c-0.9,0.2-2.1,1.2-3.5,2.2c-1.5,1.1-3.3,2.5-5.5,3.5
			c-3.1,1.5-6.1,2.3-9,2.3c-2.9,0-5.8-0.7-8.6-2.2c-0.6,0.1-2.1,1-3.1,1.5c-0.4,0.2-0.8,0.5-1.2,0.7c-2.6,1.4-5.7,2.2-8.7,2.2
			c-10.6,0-19.6-8.2-19.9-18c-0.1-0.2-0.4-0.6-0.5-0.9c-0.4-0.7-0.9-1.5-1.4-2.5c-0.1-0.2-0.5-0.7-0.8-1c-0.6-0.8-1.4-1.9-2.2-3.2
			c-0.2,0-0.3,0-0.5,0c-1.9,0-3.9-0.5-5.8-1.4c-2.8-1.3-4.5-4.1-4.8-7.7c-0.2-3,0.8-5,1.9-6.2c1.6-4.8,4.7-7.5,9.2-7.8
			c0.3,0,0.7,0,1,0c0.1,0,0.2,0,0.3,0c-0.3-1.8-0.1-3.8,1.1-5.8c0.3-0.5,0.6-1.5,0.8-2.6c0.7-2.7,1.7-6.5,5-9.6
			c4.3-4,14.1-5.7,18.4-5.7c2.1,0,3.8,0.3,5.3,0.9c5.1,2.1,8.9,3.1,12.5,3.1l0.7,0c0.3,0,0.6,0,0.9,0c1.7,0,3.3,0.3,4.6,0.9
			c-1.6-4.3-1.5-9.3,0.2-13.7c1.4-3.5,3.3-5.9,5.6-7.7c-0.7-0.6-1.4-1.3-2-2c-4.4-5-7.5-15.9-1.4-22.5c1.2-1.4,2.5-2.6,3.7-3.8
			c1.4-1.3,2.6-2.6,3.8-3.9c2.6-3,6.1-4.6,10-4.6c2.2,0,4.1,0.5,5.6,0.9c3.7,1.1,7.2,1.6,10.7,1.6c3.5,0,6.8-0.5,10.2-1.6
			c1.9-0.6,3.6-0.6,4.8-0.6c0.3,0,0.5,0,0.8,0c0.6,0,1.2-0.1,1.8-0.1c0.7,0,1.4,0,2,0.1c0.5,0,1,0,1.4,0c0.5,0,0.7,0,0.9,0
			c1.6-1.4,3.8-2.1,6.2-2.1c1.2,0,2.9,0.2,4.7,1.1c0.9,0.5,1.7,0.7,2.9,0.7c1.6,0,3.5-0.4,5.5-0.8c2.3-0.5,4.9-1,7.6-1.1
			c0.4,0,0.8,0,1.2,0c7,0,13.1,1.8,19,4.1c0.1-0.7,0.2-1.4,0.4-2.1c-1.5-0.5-2.8-0.9-3.8-0.9c-0.1,0-0.2,0-0.2,0c-0.2,0-0.5,0-0.7,0
			c-4.5,0-8.6-2.7-11.2-7.5c-2.4-4.4-3.8-11.4-0.2-17c0.1-0.2,0.1-0.9,0.1-1.4c0.1-9.4,6.1-15.7,15.7-16.3c4.5-0.3,9.2-0.7,13.5-1.8
			c0.3-0.3,0.8-0.9,1.2-1.3c0.7-0.8,1.6-1.8,2.6-2.7c0.2-0.2,0.3-0.3,0.5-0.5c1.5-1.4,4-3.7,7.8-3.7c2.1,0,5.5,0.7,7.8,4.7
			c1.5-0.6,3.1-1.2,4.6-1.7c4.6-1.7,8.9-3.3,12.8-5.6c2.2-1.3,4.6-1.6,6.2-1.6c1.4,0,3.5,0.2,5.6,1.2c0.3,0.2,0.5,0.2,0.5,0.2
			c0.8,0,2.6-1.1,4-1.9c3.9-2.3,8-3.2,11.3-3.8c1.7-0.3,3.3-0.7,4.5-1.1c3.8-1.4,7.5-1.4,10.4-1.5c3,0,4.7-0.1,6-0.9
			c2-1.3,4.5-2,7.1-2c2.1,0,4.1,0.5,5.8,1.3c1.5-0.5,2.8-0.7,3.9-0.7c3.5,0,6.3,1.6,8.1,2.6c0.4,0.2,1,0.6,1.3,0.7
			c0.6,0.1,1.1,0.3,1.4,0.4c0.8-0.1,1.6-0.1,2.4-0.1c9.2,0,16.1,4.9,21.7,8.9c1,0.7,2,1.4,3,2.1c5.2,3.5,7.3,8.7,9,12.8
			c0.8,1.9,1.5,3.7,2.3,4.9c0.6,0.9,1,1.8,1.2,2.6c2.8,3.8,3.7,8,2.8,12.2c0.3,0.8,0.5,1.6,0.7,2.4c0.1-0.1,0.1-0.3,0.2-0.4
			c2.6-8.2,12.7-8.4,17-8.5c0.1,0,0.3,0,0.4,0c4.6,0,8.3,1.7,11.3,3.1c1.9,0.9,3.6,1.7,4.8,1.7c0.2,0,0.3,0,0.5,0
			c0.6-0.1,1.3-0.2,2-0.2c3.7,0,6.3,1.8,7.8,2.9c0.2,0.2,0.5,0.4,0.7,0.5c0.4,0.1,0.8,0.3,1.1,0.4c0.1,0,0.2,0.1,0.3,0.1
			c0.1,0,0.2,0,0.3,0c2.3,0,4.4,0.4,6.2,1.2c1.9-1.5,3.9-2.2,4.9-2.5c1.4-0.5,2.9-0.8,4.7-0.8c1,0,1.9,0.1,2.7,0.2l0.7,0.1
			c7.9,0.6,14.9,5.1,18.6,11.9c3.7,6.7,3.7,14.9,0,21.7c-3,5.6-6.9,6.8-9.5,6.8l0,0c-0.5,0-1,0-1.5-0.1c-0.3,0.1-1.2,0.4-1.8,0.6
			c-1.7,0.7-3.9,1.5-6.6,1.7c-0.3,0.6-0.6,1.1-0.9,1.6c-1.6,2.7-2.4,4.4-2.3,6c1.3,13.7-8.3,20.8-13.5,24.7l-0.7,0.5
			c-3.6,2.7-7.3,5.5-11.3,8c4,1.8,8.9,4.1,12.2,9.1c0.8,1.2,1.7,2.5,2.7,3.8c3.7,5.1,8.3,11.4,8.7,19.9c3.5,0.7,6,2.8,7.4,6.3
			c1.2,3,2.6,7.6,0.4,12.2c-2.3,4.7-7.1,6.5-10.5,7.5c-0.6,0.2-1.2,0.4-1.9,0.6c-2.6,0.8-5.4,1.7-8,1.7c-1.3,0-2.5-0.2-3.6-0.6
			c-0.3-0.1-0.4-0.1-0.5-0.1c-0.8,0-2.2,0.6-3.5,1.1c-2.4,1-5.5,2.2-9.2,2.2c-0.7,0-1.3,0-2-0.1c-0.2,0-0.6,0.1-0.9,0.2
			c-1.2,0.3-2.9,0.7-4.9,0.7c-2.3,0-4.6-0.6-6.7-1.6c-0.7-0.3-1.4-0.7-2.1-1.2c-0.4,1-1,2-1.7,2.9c-3,3.4-8.1,4.1-9.8,4.1
			c-0.1,0-0.2,0-0.3,0c-0.4,0.2-1.1,0.8-1.6,1.1c-2.2,1.6-5.4,4-10.1,4.2c-0.2,0.1-0.6,0.1-0.8,0.2c-1.3,0.4-3.1,0.9-5.2,0.9
			c-0.3,0-0.5,0-0.8,0c-0.2,0-0.4,0-0.6,0c-1.6,0-3.5,0.4-6.1,3.1c-4.4,4.5-10,6.9-16.1,6.9c-0.3,0-0.6,0-0.9,0c-0.5,0-1,0-1.5-0.1
			c-1.2-0.1-2.3-0.1-3.4-0.1c-3.3,0-5.1,0.5-6.6,1.8c-1.7,1.5-4,2.3-6.7,2.3c-0.5,0-1,0-1.6-0.1c-0.2,0-0.4,0-0.7,0
			c-0.4,0-0.8,0-1.3,0c-0.5,0-1,0-1.4,0c-0.2,0-0.3,0-0.5,0c-2.3,1.9-5.1,2.1-6.2,2.1c-2,0-3.9-0.6-5.4-1.7
			c-0.3-0.2-1.4-0.3-2.4-0.4c0,2.4-1,5.4-4.1,8.6c-4.4,4.6-9.7,7-15.2,7c-5.5,0-10.6-2.4-14.9-6.9c0,0,0,0-0.1,0.1
			c-4.5,3.5-10.2,7.1-17.4,7.1c-0.6,0-1.3,0-1.9-0.1c-0.4,0-0.8-0.1-1.2-0.1c-1.4,0-2.7,0.2-4.1,0.8
			C223.1,250.6,221.1,250.9,219.2,250.9z M187.2,149.6c0.9,0,1.8-0.2,2.6-0.6c-0.7,0.1-1.4,0.2-1.9,0.4c-0.3,0.1-0.5,0.2-0.8,0.3
			C187.1,149.6,187.1,149.6,187.2,149.6z M229.2,98.7c1,0.9,2.2,1.2,4.6,1.5c-0.1-0.9-0.2-1.8-0.3-2.7
			C232.1,97.8,230.7,98.2,229.2,98.7z M287.9,62.2c0.9,0.3,1.8,0.5,2.6,0.7c8.6,1.7,19,5.3,24.3,17.7c0.1-0.4,0.3-0.8,0.4-1.3
			c1.9-5.5,1.2-9.4-2.6-14.4c-1.8-2.4-5-3.7-9.3-4.9l0,0c0,0-0.1,0-0.2,0c-0.7,0-1.8,0.2-3,0.5c-1.8,0.4-4,0.9-6.4,0.9
			c-1.1,0-2.2-0.1-3.2-0.3c0,0,0,0,0,0c-1,0.3-2.3,0.6-3.6,0.9C287.2,62,287.5,62.1,287.9,62.2z"/>
		<path d="M298.4,20.7c1.4,0,2.9,0.4,3.9,1.7c0.5,0.5,1.1,0.9,1.7,0.9c0.2,0,0.4-0.1,0.5-0.2c1.3-1.3,2.5-1.7,3.7-1.7
			c2.8,0,5.2,2.7,7.9,3.2c0.8,0.1,1.6,0.6,2.5,0.6c0.1,0,0.2,0,0.3,0c0.9-0.1,1.7-0.2,2.6-0.2c8.2,0,14.2,5.5,20.5,9.8
			c5.4,3.6,5.8,10.7,9.3,15.8c0.3,0.5,0.2,1.4,0.6,1.8c2.4,2.7,3.2,5.5,1.7,8.9c2.4,5.2,2.4,11,3.7,16.5c0.1,0.5,0.1,1.1-0.2,1.4
			c-3.2,4.2-0.8,9.9-3.7,14.1c-2.8,3.9-0.5,9.6-5.1,13c-1.1,0.8-3,3.4-2.1,5.2c0.9,1.9,3,2.4,5.1,2.4c0.3,0,0.6,0,0.9,0
			c0.7,0,1.5-0.1,2.3-0.1c1.3,0,2.5,0.3,3.6,1.6c0.4,0.5,1.1,0.8,1.9,0.8c0.8,0,1.8-0.3,2.5-0.9c0.2-0.2,0.5-0.3,0.7-0.5
			c-0.2-0.2-0.4-0.3-0.7-0.5c-0.3-0.6-0.9-0.7-1.6-0.7c-0.6,0-1.2,0.1-1.7,0.1c-1,0-1.9-0.3-1.8-2.2c0-2.3-0.7-5.3,0.5-6.7
			c1.4-1.7,1.6-3.8,2.9-5.5c1.1-1.5,2.8-3.8,0.7-6.9c-4.2-6.3-2.7-12.8,1.4-18.9c2.6-2.4,5.6-4.3,6.8-8.1c1-3,6.9-3.2,10-3.3
			c0.1,0,0.2,0,0.3,0c5.9,0,10.3,4.8,16.1,4.8c0.6,0,1.2-0.1,1.8-0.2c0.2,0,0.4-0.1,0.6-0.1c2.2,0,3.8,2.2,5.9,2.9
			c1.1,0.4,2.2,1,3.5,1c0.1,0,0.1,0,0.2,0c0.2,0,0.4,0,0.6,0c3.7,0,5.6,1.5,5.9,5.9c0.3,3.6,7.3,8,12.4,8c0.7,0,1.3-0.1,1.9-0.2
			c1.2-0.4,1.5-1.2,1.4-2.3c-0.1-1.1-0.9-1.6-1.9-1.6c-0.1,0-0.2,0-0.3,0c-0.2,0-0.4,0-0.7,0c-4.4,0-6.3-4-8.5-6.7
			c-2.2-2.6,1.2-4.3,3.4-5.1c0.6-0.2,1.4-0.3,2.1-0.3c0.9,0,1.9,0.1,2.9,0.2C438.5,69.3,445,81,439.6,91c-0.6,1.2-1.7,2.8-2.9,2.8
			c-0.1,0-0.2,0-0.2,0c-0.4-0.1-0.8-0.1-1.2-0.1c-3.2,0-5.9,2.4-9.1,2.4c-0.3,0-0.7,0-1-0.1c-0.2,0-0.5-0.1-0.7-0.1
			c-1.4,0-2.5,0.7-3.1,1.9c-2.1,4.6-5.7,8.5-5.2,14.1c0.8,8.4-4,13.1-10.5,18c-6.1,4.6-12,9-18.9,12.4c-1.2,0.6-2.6,0.4-3.8,1.3
			c1.1,3.7,4.9,3.8,7.5,5.3c4.7,2.7,10.5,4,13.7,8.7c4.5,6.8,10.8,12.8,10.2,22c-0.2,3,1.7,4.4,4.6,4.7c1.4,0.1,2.6-0.2,3.4,1.9
			c2.1,5.2,1.2,7.8-5.2,9.6c-2.5,0.7-5.8,2-7.8,2c-0.3,0-0.6,0-0.9-0.1c-1.1-0.4-2.2-0.6-3.3-0.6c-4.5,0-8.3,3.4-12.7,3.4
			c-0.4,0-0.8,0-1.3-0.1c-0.2,0-0.5-0.1-0.7-0.1c-1.9,0-3.7,0.9-5.8,0.9c-1,0-2.1-0.2-3.3-0.8c-6.6-3.4-8.6-7.1-4.7-13.4
			c-1.8-0.4-3-0.7-3.9-0.7c-1.7,0-1.8,1.2-1.6,4.8c0.3,4.2-2.8,7.5-2.3,11.8c0.2,1.7-3.5,2.6-4.5,2.6c0,0-0.1,0-0.1,0
			c-0.2,0-0.3,0-0.5,0c-4.8,0-7,5.3-11.9,5.3c-1.5,0-3.7,1.1-5.7,1.1c-0.1,0-0.2,0-0.3,0c-0.4,0-0.7,0-1.1,0c-4.6,0-8.2,2-11.5,5.4
			c-2.9,3-6.4,4.7-10.7,4.7c-0.2,0-0.4,0-0.6,0c-1.7-0.1-3.5-0.2-5.2-0.2c-4.1,0-8.1,0.6-11.6,3.7c-0.4,0.3-1,0.4-1.7,0.4
			c-0.7,0-1.5-0.1-2.2-0.1c-0.2,0-0.3,0-0.5,0c-0.3,0-0.5,0-0.8,0c-0.8,0-1.5-0.1-2.3-0.1c-1.5,0-3.1,0.2-4.3,1.7
			c-0.3,0.3-0.9,0.5-1.5,0.5c-0.3,0-0.7-0.1-0.8-0.2c-4-3-9.1-1-13.5-3.4c-1.2-0.7-2.7-0.9-4.2-0.9c-2.2,0-4.6,0.4-7.2,0.9
			c2.9,2.3,4.2,4.7,7.4,5.7c3.8,1.2,3.9,3.7,1.1,6.6c-3,3.1-6.4,4.7-9.8,4.7c-3.3,0-6.7-1.5-9.6-4.7c-1.8-1.9-3.3-2.8-5-2.8
			c-1.5,0-3,0.8-5,2.3c-3.6,2.8-7.7,5.5-12.8,5.5c-0.4,0-0.8,0-1.3-0.1c-0.6-0.1-1.3-0.1-1.9-0.1c-2.2,0-4.4,0.4-6.7,1.2
			c-1.1,0.4-2.2,0.6-3.2,0.6c-3,0-5.7-1.7-7.5-5.3c0.7-0.2,1.2-0.5,1.8-0.5c7.7-0.3,8.3-0.8,9.8-7.5c0.3-1.2,0.6-2.9-0.6-3.8
			c-0.3-0.3-0.7-0.4-1-0.4c-0.8,0-1.6,0.6-2.5,0.9c-4,1.4-7.1,4.9-11.7,4.9c-0.1,0-0.2,0-0.2,0c0,0,0,0-0.1,0c-1.3,0-2.1,1.2-2.6,2
			c-1.7,2.7-3.7,3.8-5.8,3.8c-1.7,0-3.6-0.7-5.5-1.9c-1-0.6-1.6-1.1-1.5-2.2c0.1-0.9,0.6-1.5,1.5-1.7c3.8-1,6.8-4.1,11-4.1
			c0.4,0,0.8,0,1.2,0.1c0.1,0,0.3,0,0.4,0c1.8,0,2.6-1.8,4.4-3.9c-3.6,0-6.8,0-9.8,0c-1.9,0-3.7,0-5.5,0c-0.2,0-0.3,0-0.5,0
			c-5.7,0-11.2-1.5-16.4-3.2c-7.4-2.4-12.6-9-16.6-14.9c-4.3-6.5-10.4-9.3-16.2-13.1c-1.6-1-3.3-2-4.7-3.4
			c-2.9-2.8-6.1-4.8-10.2-4.8c-0.2,0-0.3,0-0.5,0c-0.2,0-0.4,0-0.6,0c-1.4,0-2.5-0.3-2.4-2.2c0.1-1.6-0.4-3.1,2-3.8
			c1.6-0.5,5.8-1.1,2.2-4.7c-0.5-0.4-0.8-0.7-1.2-0.7c-0.4,0-0.7,0.2-1.3,0.6c-9.1,6.8-19,12-30.1,15c-3.9,1-6.6,4.4-10.3,6.2
			c-2,1-3.9,1.5-5.8,1.5c-1.7,0-3.4-0.4-5.2-1.4c-1.1-0.6-2.2-0.8-3.3-0.8c-2.9,0-5.5,1.7-8,3.1c-1.6,0.9-3.4,1.3-5.2,1.3
			c-6.1,0-12.4-4.7-12.4-10.9c0-2.6-1.7-4.2-2.6-6.1c-1.2-2.6-4.2-4.4-3.9-8.1c0-0.1-0.7-2.4-2.2-2.4c-0.5,0-1,0.2-1.7,0.8
			c-0.7,0.7-1.6,1-2.5,1c-0.9,0-1.8-0.3-2.6-0.6c-0.4-0.2-0.7-2-0.4-2.2c2-1.3,0.9-5,4.1-5.2c0.1,0,0.3,0,0.4,0
			c0.7,0,1.5,0.1,2.2,0.1c0.8,0,1.5-0.1,2.2-0.7c1.2-0.7,2.2-1,3.4-1c1.1,0,2.3,0.3,3.8,0.9c3,1.3,3.4,4,5.3,5.6
			c0.7,0.6,1.5,1.1,2.2,1.1c0.4,0,0.8-0.2,1.3-0.5c1.1-0.9,2.6-1.6,2.7-3.3c0.2-1.8-1.6-1.7-2.3-2.4c-3-3-7.5-0.6-10.4-3.3
			c-0.9-2-3.2-4.7-2.5-5.7c2.1-3.4,1.6-7.8,4.7-10.7c1.9-1.8,9-3.6,13.2-3.6c1,0,1.9,0.1,2.4,0.3c4.9,2.1,10,3.7,15.4,3.7
			c0.1,0,0.2,0,0.3,0c0.5,0,0.9,0,1.3,0c1.6,0,2.9,0.3,3.7,3c0.8,2.3,2.6,3.2,4.7,3.2c1.4,0,2.9-0.4,4.2-0.9
			c1.2-0.5,2.2-1.2,3.6-1.3c11-0.8,11-0.8,18.4-8.9c-0.6-1-1.6-1.3-2.4-1.3c-0.8,0-1.6,0.3-1.9,0.6c-1.8,1.5-3.7,1.8-5.6,1.8
			c-1.1,0-2.3-0.1-3.4-0.1c-0.5,0-1,0-1.4,0.1c-0.3,0-0.7,0.1-1,0.1c-7,0-9.2-8.2-7-13.7c2.6-6.5,8.2-7.2,13.9-7.9
			c0.2,0,0.4,0,0.6,0c0.1,0,0.2,0,0.3,0c0.9,0,1.7-0.1,2.3-1.4c-5.1-2.3-10.8-3.5-14.9-8.1c-2.4-2.8-4.2-9.4-1.4-12.5
			c2.5-2.7,5.2-5.1,7.6-7.8c1.3-1.5,2.8-2,4.4-2c1.2,0,2.3,0.3,3.4,0.6c4.3,1.3,8.6,1.9,12.8,1.9c4.2,0,8.3-0.6,12.5-2
			c1.2-0.4,2.6-0.2,3.9-0.3c0.4,0,0.8,0,1.2,0c1.2,0,2.3,0.1,3.5,0.1c2,0,4-0.3,5.7-1.8c0.3-0.2,0.8-0.4,1.3-0.4
			c0.4,0,0.8,0.1,1.1,0.2c2.1,1.2,4.3,1.5,6.4,1.5c4.5,0,8.9-1.7,13.3-1.9c0.3,0,0.7,0,1,0c7.7,0,14.3,2.7,21.1,5.6
			c1.1,0.5,2.2,0.6,3.3,0.6c1.2,0,2.4-0.1,3.8-0.1c-1.8-5-3.5-9.8,1.6-14c1.7-1.3,1.3-3.5-1.2-3.5c-0.1,0-0.2,0-0.3,0
			c-0.2,0-0.5,0-0.7,0c-4.1,0-7.7-2.4-11.9-2.4c-0.2,0-0.5,0-0.7,0c-0.1,0-0.1,0-0.2,0c-4.4,0-7.9-8.8-5.1-13
			c1.3-1.9,1.3-3.6,1.3-5.5c0.1-5.5,3.2-8.5,8.7-8.8c5.2-0.4,10.6-0.8,15.6-2.2c2.4-0.7,4.1-3.6,6.2-5.5c1.1-1,2.2-2.3,3.2-2.3
			c0.8,0,1.5,0.8,2.1,3.1c0.4,1.4,1.4,2.7,3.3,2.7c0.7,0,1.5-0.2,2.4-0.6c7-2.9,14.4-4.9,21-8.8c0.6-0.4,1.5-0.5,2.4-0.5
			c0.9,0,1.8,0.2,2.5,0.5c1.3,0.6,2.5,0.8,3.7,0.8c2.9,0,5.4-1.5,7.9-3c4.6-2.7,10-2.7,14.5-4.4c6-2.2,12.4,0.5,18-3.2
			C296.2,21,297.3,20.7,298.4,20.7 M293.7,53.9c-1,0-1.9-0.1-2.9-0.4c-0.1,0-0.2,0-0.3,0c-1.1,0-3.8,1.2-5.8,1.2c-0.1,0-0.2,0-0.2,0
			c-0.3,0-0.6,0-0.9,0c-4.5,0-8.1,2-11.2,5.2c-4.2,4.3-8.3,8.8-14.1,11c-0.8,0.3-2.2,0.3-1.7,1.8c0.2,0.6,0.5,0.7,0.8,0.7
			c0.5,0,1.1-0.4,1.6-0.4c5.9-0.4,11-4.5,17.2-4.5c0.7,0,1.5,0.1,2.2,0.2c0.6-0.1,1.2-0.2,1.8-0.2c3,0,5.8,1.3,8.8,1.9
			c8.8,1.8,15.8,5.1,19.3,14.3c1.2,3,1.8,5.8,1.6,8.9c-0.1,2.1,1.3,3.2,2.5,4c0.3,0.2,0.6,0.3,0.8,0.3c1,0,1.4-1.5,2.1-2.1
			c4.1-3.7,5.2-8.6,7-13.8c3-8.5,1.3-15-3.7-21.4c-3.3-4.3-8.3-6.1-13.1-7.6c-0.8-0.2-1.6-0.3-2.4-0.3
			C300.1,52.5,296.9,53.9,293.7,53.9 M244.3,109.9c-1.6-5.6-3.9-10.5-3.2-16.1c0.3-2.7-0.5-3.6-3.5-3.9c-0.6-0.1-1.1-0.1-1.7-0.1
			c-4.3,0-8.2,1.4-12,2.8c-6.1,2.2-5.5,4-1.7,9.4C228,110.3,237.3,106.2,244.3,109.9 M279.5,107.9c0.1,0,0.2,0,0.2,0
			c0.4-0.1,0.8-0.4,1-0.5c-0.3-1-0.6-1.6-1.1-1.6c-0.1,0-0.2,0-0.3,0c-0.4,0.1-0.9,0.6-0.8,1C278.4,107.4,278.8,107.9,279.5,107.9
			 M263.3,113.7c-0.8,0-1.5,0-2.3-0.1c-0.6,0-1.4-0.2-2.2-0.2c-0.9,0-1.8,0.3-2,1.6c-0.6,2.8,2.4,3.6,3.7,5.3
			c0.6,0.9,1.4,1.3,2.2,1.3c0.6,0,1.1-0.2,1.7-0.7c3.6-3.3,7.8-5.6,11.9-8c0.8-0.5,1.4-1.3,2.3-2.1c-0.6-0.9-1.3-1.4-2-1.4
			c-0.5,0-0.9,0.2-1.3,0.5C271.7,112.9,267.6,113.7,263.3,113.7 M155.6,121.6c0.6,0,1-0.5,0.9-1.2c-0.1-0.4-0.5-0.7-0.7-0.9
			c-1,0-1.4,0.5-1.3,1.2c0.1,0.3,0.6,0.8,0.9,0.9C155.5,121.6,155.6,121.6,155.6,121.6 M379,143.5c0.8,0,1.6-0.1,1.9-1.5
			c-0.2-0.6-0.7-1.1-1.7-1.1c-0.2,0-0.5,0-0.7,0c-0.8,0-1.5,0.1-1.7,1c-0.3,1.3,0.7,1.6,1.8,1.6C378.7,143.5,378.9,143.5,379,143.5
			 M195.5,141.5c-1.2,0-2.4,0-3.6,0c-2.1,0-4.1,0.1-6.3,0.8c-4.6,1.4-8.4,4.4-13.3,5.1c-2.8,0.4-6.2,1.6-8.2,5.7
			c2.4,0,4.7-0.3,6.7-0.3c1.3,0,2.4,0.1,3.4,0.6c2.9,1.3,6.1,2.3,8.9,3.2c1.4,0.4,2.7,0.6,4.1,0.6c6.7,0,12.9-5.1,12.6-13.2
			c0-1.2,0-2.6-1.4-2.6c-0.1,0-0.1,0-0.2,0C197.3,141.4,196.4,141.5,195.5,141.5 M370,143C370,143,370,143,370,143
			c-1.2,0-2.5,0-3.7,0c-9.2,0-18.5,0-27.7,0.1c-1.6,0-3.1,0-3.5,2c-0.1,0-0.2,0-0.3,0c-4,0-5.3,3.7-7.8,5.8c-2.2,1.8-2.4,3,0.9,4.4
			c1.9,0.8,3.4,1.5,5.1,1.5c1.2,0,2.4-0.3,3.8-1.2c1.8-1.1,4.6-2.3,7.1-2.4c6.9-0.4,12-4.5,17.6-7.7c0.1,0,0.2,0,0.3,0
			c1.4,0,2.8,0,4.2,0c1.3,0,2.6,0,4,0c0,0,0.1,0,0.1,0c0.4,0,0.8,0,1.2,0c0.8,0,1.4-0.2,1.4-1.3c0-1.1-0.6-1.3-1.4-1.3
			C370.9,142.9,370.4,143,370,143 M378.2,176.4c1.3,0,1.7-1.9,2.5-2.6c1.1-0.9,2.3-1.2,3.4-1.2c1.1,0,2.2,0.2,3.2,0.4
			c2.2,0.3,1,2.4,1.2,3.7c0.4,2,1.9,3,3.5,3.8c0.2,0.1,0.5,0.2,0.8,0.2c0.5,0,1.1-0.2,1.4-0.8c0.9-1.7,0-2.8-1.3-3.8
			c-0.3-0.3-0.3-0.9-0.4-1.4c-1.3-6.1-3.5-7.9-9.5-7.9c0,0-0.1,0-0.1,0c-0.8,0-1.6,0-2.4,0c-0.5,0-1,0-1.5,0.1
			c-2.4,0.3-3.7,1.8-4.3,4.1c-0.5,2.3,0.7,4,2.3,5.1C377.5,176.3,377.9,176.4,378.2,176.4 M143.7,171c0.8,0,1.1-0.6,1.1-1.2
			c0-0.6-0.3-1.3-1.1-1.3c-0.8,0-1.2,0.6-1.2,1.3C142.4,170.4,142.8,171,143.7,171C143.6,171,143.7,171,143.7,171 M364.8,174.9
			c1.5,0,2.5-0.7,2.5-2.3c0-0.8-0.2-1.8-1-1.8c-0.1,0-0.1,0-0.2,0c-1.5,0.3-2.5,1.4-3,2.8C362.9,174.6,363.9,174.9,364.8,174.9
			 M298.4,5.7C298.4,5.7,298.4,5.7,298.4,5.7C298.4,5.7,298.4,5.7,298.4,5.7c-3.8,0-7.5,1-10.6,2.9c-0.6,0.1-1.7,0.1-2.6,0.1
			c-3.3,0-7.9,0.1-12.9,1.9c-0.7,0.3-2.1,0.5-3.4,0.8c-3.6,0.7-8.6,1.8-13.6,4.7c-0.2,0.1-0.4,0.2-0.5,0.3c-1.9-0.5-3.8-0.8-5.8-0.8
			c-3.6,0-7.1,0.9-9.9,2.6c-3.3,1.9-7.3,3.4-11.5,4.9c-4.1-3.2-8.6-3.4-9.9-3.4c-6.8,0-11.1,4.1-12.9,5.8c-0.1,0.1-0.2,0.2-0.4,0.4
			c-1.1,1-2,1.9-2.7,2.8c-3.1,0.6-6.6,0.9-10,1.1C178.4,30.7,169.4,40,169,52.9c-2.7,5.4-3,12-0.9,18.3c-1.9,0.2-3.7,0.6-5.3,0.9
			c-1.4,0.3-2.9,0.6-3.8,0.6c-2.3-1.2-5-1.8-7.7-1.8c-3,0-5.9,0.7-8.5,2.1c-0.6,0-1.3,0-2.1,0c-0.8,0-1.6,0-2.3,0.1
			c-0.1,0-0.2,0-0.4,0c-1.4,0-4.1,0-7.1,1c-2.7,0.8-5.2,1.3-7.9,1.3c-2.8,0-5.6-0.4-8.6-1.3c-1.8-0.5-4.5-1.2-7.7-1.2
			c-6.1,0-11.7,2.5-15.7,7.2c-0.9,1.1-2.1,2.2-3.4,3.4c-1.2,1.2-2.6,2.6-4,4.1c-8,8.7-5.9,21.6-1,29.5c-1,1.5-1.9,3.2-2.6,5.1
			c-1,2.5-1.6,5.2-1.8,7.9c-2.1-0.3-4.4-1.1-7.4-2.3c-2.4-1-5.1-1.5-8.2-1.5c-4,0-16.8,1.4-23.5,7.7c-4.9,4.6-6.4,10.2-7.1,13.2
			c-0.1,0.3-0.2,0.8-0.3,1.1c-0.4,0.7-0.9,1.7-1.2,2.8c-3.6,1.3-7.9,4.3-10.4,10.6c-2,2.9-3,6.6-2.7,10.4c0.5,6.2,3.9,11.4,9.1,13.9
			c1.7,0.8,3.4,1.4,5.2,1.7c0.2,0.2,0.4,0.5,0.5,0.7c0.1,0.1,0.2,0.2,0.2,0.3c0.4,0.7,0.7,1.4,1.1,1.9c0.8,6.3,4,12.2,9.1,16.5
			c5.1,4.3,11.5,6.6,18.1,6.6c4.3,0,8.6-1.1,12.3-3.1c0.3-0.2,0.7-0.4,1-0.6c2.8,1,5.6,1.5,8.4,1.5c4.1,0,8.1-1,12.3-3
			c2.8-1.4,5-3,6.7-4.2c0.5-0.4,1.1-0.8,1.5-1.1c5.6-1.5,11.1-3.6,16.5-6.2c2.3,1.5,5.5,2.7,9.8,2.7c0.1,0,0.2,0,0.3,0
			c0.1,0.1,0.3,0.3,0.6,0.5c2.3,2.3,4.7,3.8,6.4,4.9l0.6,0.4c1.2,0.8,2.4,1.5,3.6,2.2c4.2,2.6,6.7,4.1,8.2,6.5
			c4.7,7.1,12.3,16.9,24.4,20.9c1.1,0.4,2.3,0.8,3.5,1.1c0.5,3.7,2.5,8.8,8.6,12.5c4.5,2.7,8.9,4.1,13.3,4.1c1.3,0,2.9-0.1,4.7-0.5
			c4.2,4.1,9.7,6.4,15.7,6.4c2.9,0,5.7-0.5,8.5-1.6c0.5-0.2,1-0.3,1.5-0.3c0.2,0,0.4,0,0.5,0c0.9,0.1,1.7,0.1,2.6,0.1
			c7.1,0,12.9-2.6,17-5.2c4.7,3.2,9.9,4.9,15.3,4.9c7.5,0,14.8-3.3,20.6-9.3c1.5-1.5,2.6-3,3.5-4.5c1,0.2,2,0.3,3,0.3
			c3,0,5.9-0.7,8.4-2.1c0.4,0,0.8,0,1.2,0c0,0,0.1,0,0.1,0c0.5,0,1.2,0.1,2,0.1c5.5,0,9.2-2.1,11.4-4c0.3,0,0.8-0.1,1.8-0.1
			c0.9,0,2,0,3.1,0.1c0.5,0,1.1,0,1.6,0.1c0.4,0,0.8,0,1.2,0c8.2,0,15.7-3.2,21.5-9.2c0.4-0.4,0.7-0.6,0.8-0.8c0.4,0,0.8,0,1.3,0
			c3.1,0,5.7-0.7,7.2-1.1c0,0,0,0,0,0c6.3-0.5,10.6-3.5,13.1-5.4c3.3-0.4,8-1.8,11.6-5c2.1,0.6,4.2,1,6.5,1c2.7,0,4.9-0.5,6.4-0.8
			c0.5,0,1,0,1.4,0c5.2,0,9.3-1.7,12-2.8c0.2-0.1,0.5-0.2,0.7-0.3c1.3,0.3,2.7,0.5,4.1,0.5c3.7,0,7.2-1.1,10.2-2
			c0.6-0.2,1.1-0.4,1.7-0.5c2.8-0.8,11.2-3.2,15.2-11.4c3.9-8.1,0.9-15.7-0.2-18.3c-1.1-2.6-3.2-6.4-7.5-8.9
			c-1.7-8.1-6.1-14.2-9.6-18.9c-0.9-1.2-1.8-2.4-2.5-3.5c-1.4-2.2-3.1-4-4.8-5.5c0.7-0.5,1.4-1,2.1-1.6l0.7-0.5
			c3.8-2.9,8.2-6.4,11.5-11.3c3.9-5.8,5.6-12.3,5.1-19.4c0.1-0.2,0.3-0.6,0.5-0.9c1.9-0.5,3.4-1.1,4.5-1.5c0.2,0,0.4,0,0.6,0
			c3.9,0,11.1-1.4,16.1-10.7c4.9-9.1,4.9-19.9,0-28.9c-4.9-9.1-14.2-14.9-24.6-15.8c-0.2,0-0.4,0-0.6-0.1c-0.9-0.1-2.1-0.2-3.4-0.2
			c-2.6,0-5,0.4-7.2,1.2c-1.2,0.4-2.3,0.9-3.3,1.4c-1.2-0.3-2.4-0.4-3.7-0.5c-2.1-1.5-6-4-11.7-4c-0.7,0-1.4,0-2.1,0.1
			c-0.5-0.2-1.3-0.6-1.9-0.9c-3.3-1.5-8.2-3.8-14.5-3.8c-0.2,0-0.4,0-0.6,0c-2.5,0.1-5.5,0.2-8.6,0.9c-1.2,0.3-2.3,0.6-3.3,0.9
			c-0.5-1.1-1.2-2.3-1.9-3.4c-0.4-1.1-1-2.2-1.8-3.4c-0.4-0.5-1-2.2-1.5-3.4c-1.8-4.5-4.6-11.4-11.7-16.2c-0.9-0.6-1.9-1.3-2.9-2
			c-6.1-4.4-14.4-10.3-26-10.3c-0.5,0-0.9,0-1.4,0c0,0,0,0,0,0c-2.2-1.3-6.3-3.6-11.8-3.6c-1,0-2.2,0.1-3.5,0.3
			C302.7,6,300.6,5.7,298.4,5.7L298.4,5.7L298.4,5.7z M372,157.9L372,157.9L372,157.9L372,157.9z"/>
	</g>
</g>
</svg>
