<?xml version="1.0" encoding="utf-8"?>
<!-- Generator: Adobe Illustrator 24.1.0, SVG Export Plug-In . SVG Version: 6.00 Build 0)  -->
<svg version="1.1" id="Livello_1" xmlns="http://www.w3.org/2000/svg" xmlns:xlink="http://www.w3.org/1999/xlink" x="0px" y="0px"
	 viewBox="0 0 474 412.2" style="enable-background:new 0 0 474 412.2;" width="50" height="50" xml:space="preserve">
<style type="text/css">

		.Stile_x0020_grafica{fill:#FEFEFE;stroke:#000000;stroke-width:15;stroke-linecap:round;stroke-linejoin:round;stroke-miterlimit:10;}
	.st0{fill:#FEFEFE;}
</style>
<g>
	<path class="st0" d="M244.5,401.9c-1.8,0-3.6-0.3-5.5-0.8c-1.2-0.3-2.6-0.5-4.2-0.5c-2,0-4.1,0.2-5.7,0.5c-1.8,0.3-3.5,0.3-5,0.3
		c-1.4,0-2.7,0-3.6,0.2c-0.7,0.2-1.4,0.2-2.2,0.2c-4,0-6.6-2.4-7.7-3.5l-0.1-0.1c-1.2-1.1-1.7-1.1-2-1.1c-0.3,0-0.6,0-1,0.1
		c-2.8,0.6-5.7,0.8-8.3,0.9c-0.6,0-1.1,0.1-1.7,0.1c-0.4,0-0.9,0-1.3,0c-5,0-7.8-2.1-9.3-4c-0.8-1-1.8-1.2-6-1.2c-0.8,0-1.5,0-2.3,0
		c-2.8-0.1-7-0.2-10.9-4.8c-1.8-2.1-4.3-4-6.9-6c-0.6-0.5-1.2-0.9-1.8-1.4c-0.2,0-0.4,0-0.5,0c-3.6,0-5.8-1.8-6.8-2.9
		c-2.7-3-2.4-6.7-2.3-7.9c0.7-7.8,3.1-14.8,7.4-21.1c2.6-3.9,4.4-8.5,6.3-13.3c0.7-1.8,1.4-3.6,2.2-5.4c1.9-4.5,4.8-7.3,7.8-9.6
		c0.3-3.9,0.6-7.9,0.9-12.1c-5.6-3.9-9.3-9.1-12.6-13.8c-0.6-0.8-1.2-1.7-1.8-2.5c-2.2-3-3.8-6.1-5.4-9.2c-0.6-1.2-1.2-2.4-1.9-3.5
		c-2.7-4.9-4.2-10-4.3-15.4l0-0.7c-0.1-5.8-0.3-11.9,0.6-18.1c-2.7-2.6-4.6-5.7-5.6-9c-0.4-1.6-1.7-3.2-3.2-5.1
		c-0.7-0.9-1.5-1.9-2.2-3c-2.1,0-4.9-0.8-7.1-4.3c-4.2-4.3-6.5-9.3-8.5-13.9c-3.9-1.7-5.7-5.6-6.4-7.1l-0.1-0.3
		c-4.8-10.5-7.3-19.6-7.8-28.8c-0.4-7.3,0.1-14.4,0.5-21.4c0.4-6.7,0.8-13.1,0.5-19.5l0-0.2c-0.2-4.8-0.5-10.3,1-15.9
		c1.9-6.8,4.9-12.7,7.8-18.5l0.2-0.3c5.8-11.3,12.6-21.6,19.1-31c2.3-3.3,5-5.6,7.5-7.7c1.2-1.1,2.4-2,3.4-3
		c5.1-5.3,10.8-9.8,16.2-14.1c1.1-0.8,2.1-1.7,3.2-2.5c2.5-2,5.1-3.8,7.6-5.6c2.8-2,5.4-3.8,7.8-5.8c2.5-2.1,5.3-2.7,6.9-3
		c0.2,0,0.4-0.1,0.6-0.1c1.8-0.4,3.6-0.9,5.4-1.3c6.3-1.5,12.7-3.1,19.8-3.3c0.7,0,1.8-0.4,3.4-1.2c3.4-1.7,6.9-2.7,9.9-3.5
		c1.6-0.5,3.2-0.9,4.6-1.4c2-0.7,4.1-1.1,6.1-1.1c4.4,0,7.9,1.6,10.8,3c0.4,0.2,0.7,0.3,1.1,0.5c3.5,1.6,6.6,3.5,9.5,5.4
		c0.8,0.5,1.6,1,2.4,1.5c2.5,1.5,4.2,3.6,5.1,6.1c0.8-4,3.2-7.4,6.5-9.3c3.1-1.8,5.6-3.3,8.8-3.3c4.7,0,7.4,3,10.2,6.1l0.3,0.3
		c1,1.1,2.5,2.2,4,3.4c1.4,1,2.8,2.1,4.2,3.4c1.1,1.1,2.6,2,4.2,3.1c2.6,1.7,5.5,3.5,8,6.4c0.3,0.3,1.6,0.9,2.4,1.4
		c1,0.5,2.1,1,3.2,1.7c6.4,4,10.5,9.6,14.1,14.9c0.6,0.9,1.1,1.7,1.4,2.4c0.2,0.4,0.5,1,0.7,1.2c2.5,3,3.6,6.8,3.1,10.8
		c-0.2,1.8,0.7,3.7,2.3,6.7c0.5,1.1,1.1,2.1,1.6,3.3c0.7,1,1.8,3,1.6,5.6c-0.2,1.7,0.4,3.7,0.9,6c0.6,2.5,1.3,5.2,1.4,8.4
		c0,1.1,0.3,2.1,0.8,3c2.2,4.4,2.9,8.8,3.6,12.8c0.4,2.1,0.7,4.1,1.2,5.9c2,6.9,2.3,13.5,2.4,20.3c0,1.9,0,3.7,0,5.6
		c0,3.2,0,6.3,0.2,9.2c0.5,5.3-1.1,9.7-2.4,13.3c-0.5,1.5-1,3-1.3,4.3c-0.7,3.2-1.6,6.5-2.3,9.2c-1.4,5.1-3.3,9.5-5.9,13.3
		c-0.1,0.5-0.2,1-0.4,1.6c-3.5,10.5-7.2,18.2-12,24.9c-0.9,1.3-1.8,2.7-2.8,4.2c-2.7,4.3-5.7,9.2-11.2,12.9
		c-0.9,0.6-1.9,2.3-2.9,3.9c-0.7,1.2-1.5,2.5-2.5,3.8c-0.2,0.3-0.4,0.6-0.7,0.9c-1.2,1.7-2.7,3.9-5.3,5.6c-1.6,1-2.2,2.8-3.3,6.8
		c-0.1,0.5-0.3,1.1-0.4,1.6c-0.8,2.8-1.8,6.1-3.8,9.4c-0.4,0.6-0.5,1.3-0.5,2.1c0,0.3,0,0.6,0.1,0.9c0.1,2.1,0.3,4.8-0.4,7.7
		c4,5.2,8.2,11.4,10.2,19.3l0.2,0.7c1.2,4.4,2.6,9.8,0.1,15.9c-0.6,1.5-0.7,2.3-0.7,2.8c0.3,5.9,0.6,11.9,1,17.8
		c0.1,1.9,0.2,3.8,0.4,5.7c0.1,0.5,0.3,1.5,0.2,2.6c-0.1,1.9,0.2,2.1,0.8,2.5c4.5,3.1,7.2,7.6,7.4,12.7c0.1,0.2,0.2,0.5,0.3,0.7
		c0.4,0.9,0.9,2.2,1.2,3.6c0,0.2,0.2,0.6,0.4,1c0.7,1.8,2.2,5.5,0.8,9.8c0.4,0.9,0.7,2.1,0.8,3.5l0,0.2c0.5,8.6-6.6,10-8.1,10.2
		c-1.2,0.2-2.2,0.6-3.1,1.3c-2.5,2.1-5.4,2.3-7.1,2.4c-0.2,0-0.5,0-0.7,0.1c-2.9,0.5-6.1,1-9.1,1c-0.9,0-1.8-0.1-2.7-0.2
		c-1.3-0.2-2.7-0.2-4.2-0.3c-2.5-0.1-5.4-0.2-8.3-0.9c-0.3-0.1-0.6-0.1-1-0.1c-0.7,0-1.5,0.1-2.5,0.4c-1.7,0.4-3.4,0.6-5.4,0.6
		c-1.1,0-2.1-0.1-2.9-0.1c-0.8,0-1.5-0.1-2.1-0.1l-0.1,0c-3.9,0-8.2,0.8-13.4,2.4C248.1,401.6,246.3,401.9,244.5,401.9z M228.7,97.1
		c1.7,0.1,3.4,0.5,4.9,1.4c0.8-0.8,1.7-1.6,2.6-2.3c1.3-1,3.5-2.1,5.8-2.1c0.3,0,0.6,0,0.9,0.1c0.3-0.2,0.7-0.5,1.1-0.7l0.3-0.1
		c1.1-0.6,2.8-1.4,5-1.5c0.9-0.7,1.9-1.2,3-1.5c-4.6-0.8-8.5-3.1-11.4-6.7c-2.6-0.4-4.6-1.1-6.2-1.9c-0.1,1.2-0.3,2.5-0.7,3.9
		c-0.9,3.2-3.6,5.3-6.7,5.5c-0.1,1.2,0,2.2,0.2,3C227.9,95.2,228.2,96.1,228.7,97.1z M260.7,88.2c1,0,1.9,0.2,2.8,0.5
		c1.6-0.9,3.1-1.1,4.1-1.1c1.2,0,2.6,0.2,4.1,1c0.5-0.8,0.9-1.6,1.2-2.4c0.3-1.4-2.4-5.8-4.9-7.6c-1.4,0.9-3.5,2.1-6.4,2.2
		c0.7,2,0.5,4.2-0.6,6c-0.3,0.5-0.7,1-1.1,1.4C260.3,88.2,260.5,88.2,260.7,88.2z M226.7,68.5c0.9,0.4,1.6,0.9,2.4,1.4
		c0.1-1.9,1-3.7,2.4-5.1c0.3-0.3,0.6-0.5,0.9-0.7c0.3-1.4,0.8-2.7,1.5-3.9c-1.3,0.4-2.5,1.7-4.7,4c-0.8,0.8-1.6,1.7-2.4,2.5
		C226.8,67.3,226.8,67.9,226.7,68.5z M232.3,43.9c1.1,0.1,2.1,0.2,3,0.2c3.1,0,5.9,2,7,4.9c0.3,0.9,0.5,1.8,0.5,2.7
		c2.6-2.2,5.6-4.6,9.3-6.2c0-0.1,0.1-0.1,0.1-0.2c-0.6-1.2-0.9-2.6-0.9-4.2c0-0.1,0-0.3-0.1-0.4c-0.1-0.6-0.2-1.4-0.2-2.3
		c-0.4-0.2-1-0.5-1.8-0.8c-1.5-0.7-3-1-4.5-1c-3.7,0-6.6,2-8.4,3.7c-1,1-2.1,1.9-3.1,2.8c-0.4,0.3-0.7,0.7-1.1,1
		C232.3,43.9,232.3,43.9,232.3,43.9z"/>
	<path d="M239.3,20.7c3.1,0,5.8,1.5,8.8,2.8c3.9,1.8,7.4,4.2,11,6.5c1.5,0.9,2.4,2.3,2.3,4.1c-0.2,2.4-0.4,4.7-0.6,7.1
		c-0.1,0.7-0.1,1.6-0.8,1.6c0,0-0.1,0-0.1,0c-0.7-0.1-0.9-1-0.9-1.8c0-0.9-0.3-1.9-0.2-2.7c0.2-4.6-3.2-6.3-6.3-7.6
		c-2.5-1.1-5-1.6-7.5-1.6c-5,0-9.7,2.2-13.5,5.7c-3.3,3.1-7.2,5.9-10.1,9.9c-2,2.8-6.1,4.7-9.6,5.7c-3,0.8-5.5,2.2-7.1,4.4
		c-2.5,3.6-5.4,7.3-4.3,12.2c0.3,1.2,0.4,2.5,0.1,3.7c-0.3,1.2-0.1,2.2,0.9,2.6c0.3,0.1,0.6,0.2,0.9,0.2c0.8,0,1.6-0.5,2.1-1.2
		c0.4-0.5,0.8-1.1,0.8-1.7c-0.2-4.4,3.1-6.8,5.6-9.6c1.3-1.3,2.7-2.5,3.8-4c1.3-1.8,4.1-1,5.9-2.8c2.3-2.3,5-2.9,7.8-2.9
		c2.4,0,4.9,0.4,7.3,0.4c-0.4,0.3-0.8,0.7-1.2,1c-6.3,0.6-9.3,5.9-13.3,9.6c-1.1,1-1.6,2.6-1.5,4.2c0,0.6,0.2,1.4-0.1,1.8
		c-2.8,4.3,0.1,5.2,3.4,6.6c4.8,2.1,5.7,4.4,4.4,8.9c-1.2-0.2-1.2-1.5-1.3-2.2c-0.3-2-1.5-2.4-3-2.4c-0.2,0-0.4,0-0.6,0
		c-2.2,0.1-2.1,2.5-2,3.2c0.7,4.6-0.9,9.1,0.3,13.7c0.7,2.6,1.8,4.8,3.1,6.9c0.7,1.1,1.7,1.7,3,1.7c0.3,0,0.6,0,1-0.1
		c0.3-0.1,0.5-0.1,0.8-0.1c0.7,0,1.4,0.2,2.1,0.7c1.1,0.8,2.3,1.2,3.5,1.2c1.7,0,3.3-0.8,4.7-2.3c0.7-0.7,1.4-1.4,2.2-2.1
		c0.3-0.2,1-0.5,1.2-0.5c0.1,0,0.1,0,0.1,0c0.7,0.9,1.4,1.2,1.9,1.2c1.4,0,2.3-2.2,3.4-2.7c0.9-0.4,1.6-0.8,2.2-0.8
		c0.7,0,1.1,0.5,1.6,2.1c0.9-1.2,1.4-2.1,2-2.9c0.5-0.7,1.4-1.1,2.1-1.1c0.4,0,0.8,0.1,0.9,0.4c0.6,0.9,1.1,1.2,1.6,1.2
		c0.8,0,1.3-1.2,1.6-1.8c0.4-1.1,0.9-1.5,1.4-1.5c0.5,0,0.9,0.4,1.5,1c0.7,0.8,1.3,1.2,1.9,1.2c0.7,0,1.3-0.5,1.9-1.5
		c0.5-0.9,1.1-1.3,1.6-1.3c0.5,0,1.1,0.4,1.6,1.2c0.8,1.2,1.9,1.7,2.9,1.7c0.9,0,1.7-0.4,2.4-1c2.3-2.3,4.2-5,5.4-8.2
		c2.3-6-4.1-14.2-8.1-16.8c-1.2-0.8-2.5-1.2-3.8-1.2c-1.3,0-2.6,0.4-3.8,1.1c-1.1,0.7-2,1.2-3.1,1.2c-0.4,0-0.9-0.1-1.3-0.2
		c-0.2-0.1-0.5-0.1-0.8-0.1c-2.4,0-6.5,2.4-7.4,4c-0.3,0.6,0.1,0.9,0.2,1.3c0.6,1.6,1.3,3.1,2.6,4.8c-3.6-0.5-6.1-2.2-7.9-4.6
		c-1.1-1.4-1.9-2-3.6-2.2c-5.1-0.5-6.4-1.8-6.4-6c1.2,0.1,0.9,2,2.1,2c0.1,0,0.2,0,0.3,0c0.1,0,0.1,0,0.2,0c0.5,0,0.2-1,0.9-1
		c0.1,0,0.2,0,0.3,0c1,0.3,1.7,0.4,2.3,0.4c1.6,0,2.2-1.2,3.2-4.6c-1.7,2.6-4.3,1.8-5.7,3.4c-1.4-4.2-0.4-7.3,3.2-9.9
		c4.4-3.2,8.1-7.4,13.5-9.2c0.4-0.1,1-0.6,1.1-1c1.1-3.2,3.7-5.3,6-7.7c0.6,0.6-0.1,2.1,1.4,2.1c0,0,0,0,0,0c1.3,0,0.7-1.2,1.2-1.7
		c0.6-0.7,0.8-1.7,1.5-2.3c0.7-0.7,1.5-2,2.3-2c0.2,0,0.3,0.1,0.5,0.2c1.4,1.3-1.5,1.4-1.4,2.9c2.9-0.4,5.9-0.8,8.5-2.4
		c1.3-0.3,1.8-1.5,3-2.4c0.1,0,0.1,0,0.2,0.1c0,0.8,0,1.3,0,1.8c-0.5,0.6-1,1.1-1.5,1.7h0c-0.7,0.4-1.4,0.8-2.1,1.2
		c0.3,0.1,0.7,0.2,1,0.4c0.4,0.3,0.8,0.7,1.2,1c-0.4,0.3-0.8,0.6-1.2,0.9c0,0,0,0,0,0c-0.5,0-1-0.1-1.5-0.1c-0.5,0-1,0.1-1.5,0.7
		c0.5,0.4,1,0.6,1.4,0.6c0.6,0,1.1-0.3,1.6-0.8c0.5,0.2,1,0.2,1.4,0.2c1.4,0,2.4-0.9,3.1-2.5c0.6-0.3,1.2-0.6,1.8-0.6
		c0.4,0,0.8,0.1,1.2,0.5c-0.8,0.6-1.7,1.2-2.3,1.9c-0.4,0.4-1.3,1-0.5,1.8c0.2,0.2,0.4,0.3,0.6,0.3c0.4,0,0.7-0.5,1.1-0.8
		c1.3-0.7,1.7-1.9,1.8-3.2c1.9,4.6,3.5,9.4,9.1,11.2c0,0.1,0,0.2,0,0.3c-0.4,0.2-0.8,0.2-1.3,0.2c-0.9,0-1.7-0.3-2.5-0.3
		c-0.6,0-1.2,0.2-1.7,0.7c3.2,1.6,6.1,3.7,9,5.7c0.5,0.4,0.9,1.4,1.5,1.4c0.2,0,0.3-0.1,0.5-0.3c0.7-0.7,1.2-2,0.8-3.1
		c-0.4-0.9-0.8-2-1.5-2.7c-7.2-6.2-11.7-14.3-16.5-22.3c-0.6-1-1.4-1.9-2.5-1.9c-0.2,0-0.5,0-0.7,0.1c-1.4,0.5-3.2,1.1-3.1,3.3
		c0.1,1.4,0.3,2.9-0.1,4.3c-3.7-2.8-3.4-9.7,0.5-12.1c2.5-1.5,3.8-2.3,5-2.3c1.4,0,2.5,1.2,5,3.9c2.5,2.8,5.9,4.7,8.6,7.2
		c3.7,3.4,8.4,5.2,11.7,8.9c1.8,2,4.8,3,7.2,4.5c5.1,3.2,8.6,7.9,11.9,12.8c0.9,1.3,1.5,2.9,2.5,4.2c1.2,1.5,1.7,3.2,1.5,5.1
		c-0.7,5.6,2.7,9.8,4.7,14.6c0.2,0.5,0.7,0.9,0.7,1.3c-0.5,5.3,2.2,10.1,2.4,15.3c0.1,2.2,0.6,4.2,1.5,6.2
		c2.7,5.5,2.7,11.7,4.4,17.4c1.8,6.1,2,12.2,2.1,18.4c0.1,5.1-0.2,10.2,0.3,15.2c0.5,5.6-2.4,10.2-3.6,15.3
		c-0.7,2.9-1.4,5.9-2.2,8.9c-1.2,4.3-2.9,8.3-5.4,11.9c-0.6,0.8-0.4,1.8-0.7,2.6c-2.7,8.1-5.9,15.8-11,22.8
		c-3.8,5.3-6.2,11.4-12,15.3c-3.3,2.2-4.9,6.3-7.3,9.5c-1.2,1.7-2.3,3.6-4,4.6c-4.7,3-5.6,8-6.9,12.7c-0.7,2.7-1.5,5.2-3,7.6
		c-1.1,1.9-1.7,4.1-1.5,6.4c0.2,2.7,0.6,5.5-0.8,8.2c-0.6,1.1,0.4,2.5,1.2,3.5c4.3,5.4,8,10.9,9.8,17.7c1.1,4,2.3,7.9,0.6,11.9
		c-0.8,1.9-1.3,4-1.2,6c0.3,8,0.9,15.9,1.4,23.9c0,0.5,0.2,1,0.2,1.5c-0.2,3.7,0.7,6.8,4.1,9.1c2.3,1.6,4.1,3.9,4.2,7.1
		c0,1.7,1.3,3.4,1.7,5.2c0.6,2.7,2.8,5.1,0.7,8.3c-1,1.4,1,3.2,1.1,4.9c0.1,1.4,0.2,2.3-1.6,2.5c-2.5,0.3-4.7,1.3-6.8,2.9
		c-1,0.8-2.9,0.6-4.4,0.9c-2.5,0.5-5.3,0.9-7.8,0.9c-0.6,0-1.2,0-1.8-0.1c-3.9-0.5-8-0.2-11.8-1c-0.9-0.2-1.7-0.3-2.6-0.3
		c-1.5,0-3,0.3-4.4,0.6c-1.2,0.3-2.4,0.4-3.5,0.4c-1.7,0-3.4-0.2-5.1-0.2c-0.1,0-0.1,0-0.2,0c-5.3,0-10.5,1.2-15.6,2.7
		c-1.1,0.3-2.2,0.5-3.3,0.5c-1.1,0-2.3-0.2-3.6-0.5c-2-0.5-4.1-0.8-6.2-0.8c-2.2,0-4.5,0.2-6.7,0.5c-3.1,0.4-6.3-0.1-9.3,0.6
		c-0.2,0-0.3,0.1-0.5,0.1c-1.1,0-1.9-0.9-2.7-1.6c-2.1-2-4.4-3.1-7.1-3.1c-0.8,0-1.7,0.1-2.6,0.3c-2.8,0.6-5.9,0.7-8.8,0.9
		c-0.3,0-0.6,0-0.8,0c-1.3,0-2.7-0.3-3.5-1.2c-3.7-4.5-9-3.8-13.8-3.9c-2.3-0.1-3.6-0.1-5.4-2.1c-3-3.5-7-6.2-10.6-9.1
		c-0.9-0.7-1.9-1-3.1-1c-0.2,0-0.5,0-0.7,0c-0.2,0-0.4,0-0.5,0c-1.5,0-1.7-0.9-1.6-2.6c0.6-6.4,2.5-12.3,6.1-17.6
		c4.1-6.1,6.3-13.2,9.1-20c1.4-3.4,3.8-5.4,6.6-7.4c0.8-0.5,1.5-0.8,1.6-2c0.4-5.9,0.9-11.8,1.4-17.7c0.1-1.1,0-1.7-1.2-2.3
		c-6.7-3.7-10.6-10.1-14.8-16c-2.7-3.7-4.6-7.9-6.8-11.9c-2.1-3.7-3.3-7.7-3.4-11.9c-0.1-6.1-0.3-12.1,0.6-18.2
		c0.3-2,0.2-3.7-1.6-5.2c-1.9-1.6-3.5-3.8-4.3-6.3c-1.5-5.4-6.2-8.7-8.3-13.7c-0.5-1.1-1.2-2.1-1.8-3.2c-0.3-0.5-0.3-1.4-0.8-1.4
		c-0.1,0-0.2,0-0.4,0.1c-0.6,0.3-1.7,0.9-1,2.1c0.4,0.7,1.4,1.7,0.2,2.3c-0.1,0.1-0.3,0.1-0.4,0.1c-0.7,0-1-1.2-1.5-1.7
		c-4.3-4.1-6.2-9.5-8.4-14.7c-0.3-0.6-0.1-1.1-1-1.1c-0.1,0-0.3,0-0.5,0c-0.1,0-0.2,0-0.3,0c-2.1,0-3-2.3-3.7-3.9
		c-3.8-8.3-6.6-16.9-7.1-26.1c-0.7-13.6,1.7-27.2,1.1-40.8c-0.2-4.6-0.5-9.2,0.8-13.7c1.7-6.1,4.6-11.8,7.4-17.4
		c5.4-10.5,11.8-20.4,18.6-30.1c2.7-3.9,6.8-6.4,10.1-9.8c5.8-5.9,12.3-10.9,18.7-16c5.1-4.1,10.6-7.4,15.6-11.6
		c1.3-1.1,2.8-1.2,4.3-1.6c7.8-1.8,15.5-4.2,23.7-4.4c2.3,0,4.5-1,6.7-2.1c4.3-2.2,9.1-2.9,13.6-4.5C237,20.9,238.1,20.7,239.3,20.7
		 M250.6,66.3c-0.2,0-0.4-0.1-0.7-0.2c0,0-0.1,0-0.2,0c-0.4,0-1.2,0.7-0.7,1.6c0,0,0,0,0,0v0c0,0,0,0,0,0.1c-0.2,0-0.4,0-0.6,0
		c-1.5,0-1.4,0.2-0.4,2.1c0.3-0.7,0.6-1.4,0.9-2.1c0,0,0.1,0,0.1,0l0,0c0,0,0-0.1,0-0.1c0.2,0,0.4-0.1,0.6-0.1
		c0.2,0,0.4,0.1,0.6,0.4c0.3,0.6,0.6,0.7,0.8,0.7c0.6,0,1.1-1.4,1.8-1.4c0.1,0,0.2,0,0.4,0.1c0,0,0,0,0,0c0.2,0,0.5-0.8,0-1.4
		c-0.3-0.3-0.5-0.4-0.8-0.4C251.9,65.7,251.2,66.3,250.6,66.3 M175,187.5c2-5.3,4.7-9.3,7.7-13.2c0.7-0.9,1.2-1.9,1.5-3
		c0.7-2-0.2-3.8-1.2-5.4c-0.2-0.3-0.3-0.4-0.5-0.4c-0.5,0-1,0.8-1.5,0.8c0,0,0,0,0,0c0-0.3-0.1-0.6-0.1-0.9
		c-0.2-2.1-0.2-2.7-1.1-2.7c-0.5,0-1.2,0.2-2.2,0.4c-0.1,0-0.1,0-0.1,0c-0.5,0-0.1-1-0.2-1.4c0.5-0.8,0.9-1.8,0.3-2.6
		c-0.1-0.1-0.1-0.1-0.2-0.1c-0.3,0-0.7,0.4-0.8,0.8c-2.4,0.4-2.7,2.7-3.7,4.4c-0.8,0.7-0.7,1.5-0.5,2.4c-0.9-0.1-0.9-1-1.1-1.6
		c-0.6-2.1-1.5-4.2-1.4-6.5c0-0.9-0.3-2.4-1.6-2.4c-0.1,0-0.1,0-0.2,0c-1.5,0.2-0.4,1.5-0.5,2.2c-0.1,1.6,0.1,3.3-0.1,4.9
		C166.5,172,171.3,179.1,175,187.5 M270.9,201.1c-0.4-2.6,1.3-5.1,0.7-7.7c-0.7-3.1,0.8-4.5,3.3-5.4c1.3-0.5,2.3-1.5,3.3-2.4
		c0.7-0.5,1.6-0.7,1.8-1.8c1.5-0.2,2.2-1.2,2.5-2.8c-0.9,0.6-1.7,1.2-2.6,1.9c-0.8,0.7-1.6,1.3-2.4,2c-0.1,0-0.2,0-0.3,0
		c-1.6,0-1.6,2.1-3,2.4c-0.2,0-0.4-0.1-0.6-0.1c-1.5,0-2.6,1.4-4.2,1.4c-0.1,0-0.1,0-0.2,0c-4.1-0.3-7.2-4.3-6.3-8.4
		c0.2-1.1,0.7-2.2-0.5-3.1c-0.3-0.2-0.7-0.8-1.1-0.8c-0.1,0-0.3,0.1-0.4,0.2c-1,1.1-2.7,1.7-2.6,3.6c0.2,1.9-0.3,3.4-2.3,4.1
		c3.4,3,6.7,5.8,10.7,7.6c0.8,0.4,1.3,0.9,1.2,1.9C267.8,196.8,269,199,270.9,201.1 M286.8,186.8c-2.9,1.8-4.6,3.9-5.4,6.1
		c-0.9,2.4-2.1,5.2,1.1,7.4c2.5,1.7,2.1,4.8-0.4,6.7c-3.2,2.3-3.6,4.6-1.4,7.8c0.2,0.2,0.4,0.5,0.4,0.8c-0.5,3.1,2,6,0.5,9.2
		c-0.2,0.5-0.1,1.4,0.2,1.8c1.7,1.9,0.8,3.8,0.1,5.7c-0.5,1.3-0.6,2.6-0.7,3.9c0,1.5-0.2,2.8-1.1,4.3c-1.4,2.2-1.6,5.1-0.9,7.6
		c1,3.8,1.9,7.7,1.2,11.5c-0.6,3.4,0.1,6.5,0.6,9.6c0.6,3.5,0.6,7.1,1.3,10.6c0.3,1.4-0.4,2.8,1.2,3.5c1.5-4.8-0.1-9.8,1.5-14.4
		c2.2-6.7,3.3-13.5,2.7-20.7c-0.1-1.8,0.4-3.7,0.2-5.5c-0.2-1.4,2.3-2.6,0.2-3.9c1.4-2.9,3-5.7,4.3-8.7c0.8-1.8,3-3.3,1.6-5.8
		c-1.6,0.8-2.3,2.4-3.5,3.9c-0.1-2.1,0.1-3.7,0.3-5.3c0.7-5.1,4.4-8.8,6.2-13.3c1.8-4.7,4.9-8.9,4.7-14.5c-3.3,1.2-3.3,1.2-3.2,2
		c0.3,6-2.1,10.8-6.6,14.9c3.1-5.4,0.2-10.7,0.5-16.4c-1.8,2.2-1.7,5-3.6,6.9c-0.1-2.8,0.3-5.5-0.5-7.8
		C287.2,192.1,286,190,286.8,186.8 M283.1,42.3L283.1,42.3 M283.1,42.3C283.1,42.3,283.1,42.3,283.1,42.3
		C283.1,42.3,283.1,42.3,283.1,42.3 M239.3,5.7C239.3,5.7,239.3,5.7,239.3,5.7c-2.9,0-5.8,0.5-8.6,1.5c-1.2,0.4-2.6,0.8-4.1,1.2
		c-3.3,0.9-7.3,2-11.4,4.1c-0.4,0.2-0.7,0.3-0.9,0.4c-7.6,0.2-14.5,2-20.6,3.5c-1.8,0.5-3.6,0.9-5.3,1.3c-0.1,0-0.3,0.1-0.4,0.1
		c-2,0.4-6.2,1.3-10.2,4.6c-2.2,1.8-4.7,3.6-7.3,5.4c-2.6,1.8-5.3,3.7-8,5.9c-1,0.8-2.1,1.7-3.1,2.5c-5.6,4.5-11.5,9.1-17,14.8
		c-0.7,0.7-1.8,1.6-2.9,2.6c-2.7,2.3-6,5.1-8.8,9.2c-6.3,9.2-13.6,20.1-19.6,31.9l-0.2,0.3c-3,5.8-6.3,12.4-8.4,19.9
		c-1.9,6.8-1.6,13.1-1.3,18.2l0,0.2c0.3,5.9-0.1,12.1-0.5,18.6c-0.5,7.1-0.9,14.5-0.5,22.2c0.5,10.2,3.2,20.2,8.5,31.6l0.1,0.3
		c2.1,4.5,4.6,7.4,7.3,9.3c1.9,4.4,4.4,9.1,8.5,13.4c2.7,3.8,6,5.6,8.7,6.4c0.2,0.3,0.4,0.5,0.6,0.7c0.7,0.9,1.7,2.2,1.9,2.7
		c1,3.4,2.6,6.5,4.9,9.4c-0.5,5.5-0.4,10.9-0.2,15.7l0,0.7c0.2,6.6,1.9,12.9,5.3,18.9c0.6,1,1.2,2.2,1.8,3.3c1.6,3.1,3.5,6.6,6,10.1
		c0.6,0.8,1.2,1.6,1.7,2.4c2.9,4,6.2,8.8,10.9,12.9c-0.1,1.7-0.3,3.4-0.4,5c-2.8,2.5-5.5,5.8-7.4,10.4c-0.8,1.9-1.5,3.8-2.2,5.5
		c-1.8,4.5-3.4,8.7-5.6,11.9c-4.9,7.4-7.8,15.6-8.6,24.6c-0.5,5.5,0.9,10.1,4.2,13.7c2.6,2.9,6.2,4.7,10.1,5.2
		c2.3,1.8,4.5,3.4,5.7,4.9c6.1,7.1,13,7.3,16.3,7.4l0.1,0c0.8,0,1.6,0,2.5,0c0.5,0,1.1,0,1.7,0c2.5,2.4,6.9,5.1,13.6,5.1
		c0.6,0,1.2,0,1.8-0.1c0.5,0,1.1-0.1,1.6-0.1c2.2-0.1,4.6-0.3,7.2-0.7c2.1,1.8,6,4.3,11.5,4.3c1.3,0,2.5-0.1,3.8-0.4
		c0.4,0,1.3-0.1,2.1-0.1c1.6,0,3.7,0,6-0.3c1.4-0.2,3.1-0.4,4.7-0.4c0.9,0,1.7,0.1,2.2,0.2c2.6,0.7,5.1,1.1,7.5,1.1
		c2.6,0,5.1-0.4,7.7-1.2c4.5-1.4,8.1-2.1,11.3-2.1l0.1,0c0.4,0,1,0,1.7,0.1c1,0.1,2.1,0.1,3.4,0.1c2.6,0,4.9-0.3,7.2-0.8
		c0.3-0.1,0.5-0.1,0.6-0.1c3.3,0.7,6.4,0.8,9.1,0.9c1.3,0.1,2.6,0.1,3.6,0.2c1.1,0.1,2.3,0.2,3.6,0.2c3.5,0,6.9-0.5,10.1-1.1
		c0.1,0,0.2,0,0.2,0c2-0.1,6.7-0.5,11-3.8c7.6-1.2,14.9-7.2,14.2-18l0-0.1c-0.1-1.2-0.3-2.3-0.5-3.3c1-5.7-0.9-10.4-1.6-12.4
		c0-0.1-0.1-0.2-0.1-0.3c-0.4-1.7-1-3.1-1.4-4c-0.7-6-3.5-11.3-8.2-15.2c-0.1-0.7-0.1-1.2-0.2-1.7c-0.1-1.8-0.2-3.5-0.3-5.3
		c-0.4-5.6-0.7-11.4-1-17c0-0.1,0.1-0.2,0.1-0.3c3.4-8.4,1.5-15.8,0.2-20.7l-0.2-0.7c-2.1-7.8-5.8-14.1-9.6-19.3
		c0.2-2.4,0.1-4.4,0-6c1.9-3.5,3-6.9,3.9-10.2c0.2-0.6,0.3-1.1,0.5-1.7c0.2-0.9,0.6-2.2,0.9-2.9c3.4-2.4,5.4-5.3,6.6-7.1
		c0.2-0.3,0.4-0.5,0.5-0.8c1.2-1.6,2.1-3.1,2.9-4.4c0.4-0.6,0.9-1.5,1.2-1.9c6.5-4.5,10-10.2,12.8-14.8c0.9-1.4,1.7-2.7,2.4-3.8
		c6.8-9.5,10.6-19.4,13.1-26.9c0.1-0.4,0.2-0.7,0.3-1c2.6-4.2,4.6-8.9,6.1-14.3c0.8-2.8,1.7-6.2,2.4-9.6c0.2-0.8,0.6-2.1,1.1-3.4
		c1.4-4,3.4-9.6,2.8-16.5c-0.2-2.6-0.2-5.4-0.2-8.5c0-1.9,0-3.8,0-5.8c-0.1-7-0.5-14.5-2.7-22.2c-0.4-1.4-0.7-3.2-1-5.1
		c-0.7-4.2-1.6-9.4-4.3-14.8c-0.1-4-1-7.3-1.7-10c-0.3-1.2-0.7-2.9-0.7-3.5c0.2-2.5,0-6.1-2.4-9.9c-0.5-1.1-1.1-2.2-1.6-3.1
		c-0.5-1-1.2-2.3-1.4-3c0.5-5.6-1.1-11.1-4.5-15.4c-0.1-0.1-0.1-0.3-0.2-0.4c-0.4-0.8-1-1.9-1.8-3.1c-3.9-5.8-8.7-12.3-16.4-17.1
		c-1.4-0.9-2.7-1.5-3.8-2.1c-0.3-0.1-0.7-0.3-0.9-0.5c-3-3.2-6.2-5.2-8.8-6.9c-1.3-0.9-2.6-1.7-3.2-2.3c-1.6-1.5-3.3-2.7-4.7-3.8
		c-1.2-0.9-2.4-1.8-3-2.5l-0.3-0.3c-3.3-3.6-7.8-8.5-15.8-8.5c-5.2,0-9,2.2-12.6,4.3c-1.5,0.9-2.8,1.9-4,3.1c-0.7-0.4-1.4-0.9-2-1.3
		c-3-1.9-6.4-4.1-10.5-6c-0.3-0.2-0.7-0.3-1-0.5C249.9,7.8,245.3,5.7,239.3,5.7L239.3,5.7z"/>
</g>
</svg>
