<?xml version="1.0" encoding="utf-8"?>
<!-- Generator: Adobe Illustrator 24.1.0, SVG Export Plug-In . SVG Version: 6.00 Build 0)  -->
<svg version="1.1" id="Livello_1" xmlns="http://www.w3.org/2000/svg" xmlns:xlink="http://www.w3.org/1999/xlink" x="0px" y="0px"
	 viewBox="0 0 474 507.4" style="enable-background:new 0 0 474 507.4;" width="50" height="50" xml:space="preserve">
<style type="text/css">
	.Stile_x0020_grafica{fill:none;}
	.st0{fill:#FFFFFF;}
</style>
<g id="d6UamK_1_">
	<g>
		<path class="st0" d="M191,488.2c-9.3,0-14.5-6.3-17.4-9.9c-3.3-0.7-6.6-1.4-9.5-1.4c-1.3,0-2.4,0.1-3.4,0.3
			c-1.4,0.3-2.9,0.6-4.3,0.9c-2.6,0.5-5,1-7.4,1.6c-2.4,0.7-4.9,1-7.6,1c-4.3,0-8.4-0.9-12-1.7c-2.4-0.5-4.6-1-6.7-1.2
			c-2.8-0.3-5.4-1.7-7.2-3.9c-1.1-1.4-1.8-3.1-2.1-4.8c-4.2-2.2-5.3-5.8-5.3-8.6c0-0.6,0-1.3,0.1-1.9c-0.4-0.6-0.9-1.1-1.2-1.6
			c-0.4-0.5-0.7-0.9-1.1-1.4c-3.9-4.7-3.3-11.2-0.9-16.3c-1.4-2.8-1.6-6.1-0.5-10c0.2-0.8,0.4-1.5,0.6-2.3c0.5-2.1,1.1-4.4,2.2-6.8
			c-1.4-1-2.8-2-4.1-2.9c-1-0.7-1.9-1.4-2.9-2.1c-0.8-0.4-2.1-1.2-3.2-2.8c-2.2-3.2-5.3-6-8.7-8.9c-4.1-3.5-8.7-7.6-12-13
			c-0.2-0.3-0.8-0.9-1.3-1.5c-2-2-4.9-5-5.5-10l-0.1-0.6c-0.1-1.1-0.3-2.6-0.2-4.3c-0.2-0.5-1-1.5-1.5-2.2c-0.2-0.3-0.4-0.6-0.6-0.8
			c-5.2-6.8-4.3-15.1,2.3-21.2c1.4-1.3,3.2-2,5.1-2c0.6,0,1.2,0.1,1.8,0.2c2.5,0.6,4.4,2.4,5.3,4.8c1.4,4.1,2.9,7.4,5.3,9.8
			c0.3,0.3,0.6,0.5,1.5,0.5c0.1,0,0.1,0,0.2,0c-0.4-6,1.6-11.1,3.2-15.3c0.5-1.2,0.9-2.3,1.2-3.4c1.6-4.8,5.6-9.7,10.9-13.3
			c-1.7-1.9-2.9-4.3-3.6-7.1c-2.2-9.5,2.5-19.9,11.1-25.7c-2.7-1.9-6.7-6.2-4.1-14.4c2.9-8.9,10.8-11.9,14.2-13.2
			c3.5-1.3,6.9-2.2,10.3-3.2c2.8-0.7,5.4-1.5,7.9-2.3c0.2-0.2,0.6-0.6,0.9-0.9c0.7-0.8,1.6-1.7,2.6-2.5c-0.1-0.4-0.1-0.9-0.1-1.4
			c-0.6-7.8,0.7-15.7,4.1-25c1.8-5,5.5-8,8.4-10.4c0.6-0.5,1.2-1,1.8-1.5c1.9-1.6,4.1-3.4,6.9-4.8c0.2-2.7,1.2-5.3,3.1-7.7
			c-0.5-0.2-1-0.4-1.5-0.7c-0.6-0.2-2.5-0.6-4.1-0.6c-0.2,0-0.3,0-0.4,0c-1.1,0.3-2.3,0.5-3.5,0.5c-5,0-11.6-2.8-14.4-8.1
			c-1.9-3.5-3.5-7.3-5.3-12.2c-3.2-8.9-1.3-17.1,0.3-24.3c0.2-0.7,0.3-1.5,0.5-2.2c0.8-3.5,2.8-6,4.1-7.6c0.2-0.3,0.4-0.5,0.6-0.8
			c2.5-3.2,5.1-6.2,7.8-9.3c-5.3-9.3-7.5-20-6.4-31.8c0.9-10.7,4.3-21,10.4-31.6c4.7-8.2,9.8-14.5,15.9-19.4c6.2-5,13.1-8,19.7-11
			c1.4-0.6,2.9-1.3,4.3-1.9c3.7-1.7,6.1-3.6,8-6.4c5.8-8.4,14.9-13.4,27-14.9c1.4-0.2,2.9-0.3,4.4-0.3c5.5,0,10.7,1.2,14.1,2.2
			c0.9,0.3,1.8,0.4,2.7,0.4c1.6,0,3.3-0.4,5-1.3c5.6-2.9,11.6-4.9,17.7-6c4-0.7,7.9-1.1,11.8-1.1c13.4,0,25.6,4.5,36.2,13.2
			c5.2,4.3,8.8,10.4,11.3,18.7c2.2,7.4,6.1,12.8,12.7,17.6c15.4,11.1,22.3,27.3,19.7,47c-1.1,8.7-4.1,17.1-9.1,25.5
			c-0.6,0.9-0.5,2.8-0.4,5c0,1,0.1,2,0.1,3c0,10.7-3.6,19.3-10.6,25.9c0.5,5.2-1.4,8.5-3.9,10.5c1.4,5.3,1.2,10.9-0.4,16.8
			c-1.4,5-3.7,9.9-6.9,14.9c-1,1.6-3.6,5.5-8.2,7.9c0.1,2.8-0.3,5.3-0.7,7.5c-0.1,0.7-0.3,1.5-0.4,2.2c-0.3,2.4-1.3,4.4-2.6,6.1
			c4.5,3.5,7.3,7.9,9.3,11.4c4.5,3.9,6,9,7.1,12.9c0.5,1.6,0.9,3.1,1.5,4.3c3.7,7.4,4.4,14.8,2,21.4c-2.6,7.3-7.3,8.8-10.8,8.8
			c-1,0-2-0.1-2.9-0.4c-0.2,0-0.7-0.1-1-0.1c4.6,3.7,7.3,8.8,8.1,15.1c4.6,1.8,8.9,3.9,13.1,6.1c3.4,1.7,6.6,3.3,9.9,4.7
			c6,2.5,8,8.4,8.9,10.9c0.8,2.4,2.1,3.8,6.4,4.7c-0.7-2.7-1-5.2-1.3-7.6l0-0.2c-0.3-2.6,0.8-5.2,2.8-6.8c1.3-1.1,3-1.6,4.6-1.6
			c0.9,0,1.8,0.2,2.6,0.5c8,3,12.8,11.2,11.7,20c-1.3,10.4-8.1,16.4-13.1,20.7c-2.9,2.5-5.6,5.5-7.8,8.7c-3.4,4.9-7.8,8-11.7,10.7
			c-1.5,1.1-2.9,2.1-4.2,3.1l-1.9,1.6c-6.5,5.3-12.7,10.2-17,16.7c-0.2,0.5,0.1,2.7,0.2,3.8c0.7,5.3,1.6,10.8,2.4,16.1
			c0.3,1.8,0.6,3.6,0.9,5.4c3.5,5.4,3.7,11.4,0.7,17.8l-0.5,1c-1.7,3.6-3.7,8.1-8.3,11.4c-2.1,4.9-6.6,6.8-8.9,7.7
			c-0.5,0.2-1.3,0.5-1.5,0.7c-1.8,1.4-4,2.1-6.3,2.1c0,0,0,0,0,0c-3.1,0-5.8-1.2-7.5-2.3c-1.3,0.9-2.6,1.2-3.2,1.4c0,0,0,0,0,0
			c0,0,0,0,0.1,0c-0.8,0.3-1.6,0.4-2.4,0.4c-2.6,0-5.1-1.4-6.5-3.7c-8.1,0.9-16.4,2.1-24.3,4c-6.6,1.6-13.2,2.3-19.4,2.7
			c-0.9,2.6-2.9,4.6-5.4,5.6c-1,0.4-2,0.6-3,0.6c-3.8,0-6.9-2.7-7.6-6.4c0,0-0.2,0-0.2,0c-0.7,0.1-1.6,0.2-2.4,0.3
			c-0.1,0.8-0.3,1.6-0.7,2.4c-1,2.2-2.9,3.8-5.4,4.6c-0.9,0.3-1.8,0.4-2.7,0.4c-2.8,0-6.6-1.3-8.7-7.2c0-0.1-0.1-0.2-0.1-0.3
			c-0.1-0.2-0.2-0.3-0.3-0.3c0,0-0.1,0-0.1,0c-0.3,0-1,0.1-2,0.4c-0.6,0.2-1.2,0.3-1.7,0.4c0.3,1.7,0,3.4-0.8,4.9
			c-1.2,2.2-3.4,3.6-5.9,3.8c-0.5,0-0.9,0.1-1.4,0.1c-3.7,0-6.5-1.4-8.5-2.9c-1.4,1.8-3.5,3-6,3L191,488.2z M116.9,374.3
			c0,0.2,0.1,0.5,0.2,1.1l0.3,1.3c0.7,2.7,1.3,5,2.4,6.7c0.2,0.2,0.3,0.5,0.5,0.7c1.3-1.6,2.9-3,4.8-4.2c0.2-0.2,0.4-0.3,0.4-0.3
			c0-0.1,0.1-0.4,0-1c-0.3-4.3-0.9-12.4,6.3-17.6c0,0,0.1,0,0.1-0.1c0-0.2,0-0.5,0-1.1c-3,1.3-6,3.4-9.2,5.6
			c-0.7,0.5-1.9,1.3-2.4,1.8C120.3,369.9,119.1,372.2,116.9,374.3z M314.5,374.3c0.7,1,1.6,2.2,2.3,3.6c1.8-3.2,3.9-5.6,5.7-7.4
			c1.1-1.1,2.2-2.1,3.2-3c3.1-2.8,4.3-4,4.5-6c0.4-3.6-0.4-8.1-6.2-9l-3.7-0.5c-3-0.4-6.2-0.8-9.3-1.3c0.7,0.9,1.3,1.9,1.8,2.9
			C317.1,361.2,315.6,368.9,314.5,374.3C314.5,374.2,314.5,374.3,314.5,374.3z"/>
		<path d="M285.6,30.6c11.4,0,22,3.7,31.4,11.5c4.6,3.8,7.2,9.4,8.9,15c2.7,9.1,7.8,16,15.6,21.6c13.5,9.7,18.8,23.3,16.7,39.9
			c-1.1,8.2-4,15.6-8.1,22.7c-2.2,3.7-1.3,7.9-1.3,11.8c0,9-3,16.5-10.2,22.1c-1.2,0.9-0.8,1.8-0.6,3c0.6,2.7,0.7,5.1-2.5,6.5
			c-1.9,0.8-2.5,2.3-1.5,4.9c1.8,4.8,1.6,9.9,0.2,14.8c-1.3,4.6-3.4,8.9-6,12.8c-2,3.1-4.5,5.8-8.5,6.3c-1.7,0.2-2.1,1.1-1.6,2.5
			c1.4,4,0.1,7.9-0.4,11.8c-0.3,2.5-2.2,3.9-4.4,3.9c-0.4,0-0.8,0-1.2-0.1c-2.7-0.6-4.5-2.4-3.6-5.8c0.6-2.3,0.3-4.7,0.4-7.1
			c0-0.7,0.3-1.6-0.8-1.8c-0.1,0-0.2,0-0.3,0c-0.7,0-1.2,0.5-1.4,1.2c-0.9,3.3-2.4,6.5-2.4,9.8c0,2,1.9,4.2,3.5,5.9
			c1.8,1.9,4,3.8,6.4,4.9c5.8,2.5,8.9,7.3,11.8,12.5c0.1,0.1,0.1,0.3,0.2,0.3c5.3,3.8,5.1,10.4,7.7,15.5c2.2,4.5,3.6,10,1.7,15.5
			c-0.7,2-1.6,3.9-3.7,3.9c-0.3,0-0.7,0-1.1-0.1c-2.9-0.8-7.4,0.3-7.4-4.9c0-7.2-2.9-13.2-6.5-19.2c-3.3-5.5-8.1-8.5-14.2-9.9
			c-3.6,4.6-0.1,7.8,3,10.5c4.5,4,7.7,8.6,8.3,14.6c0.6,5.1,1.9,10.2,0.6,15.3c-0.5,1.9-0.3,2.6,1.6,3.2c8.3,2.4,12.5,8,12.4,16.8
			c0,0.7-0.2,1.3,0.9,1.7c9.3,2.9,17.5,8.2,26.5,12c2.8,1.2,3.9,4,4.7,6.4c2.2,6.3,7,8.8,13,9.8c0.3,0.1,0.6,0.1,0.9,0.1
			c4.2,0,8.3-4.9,7.1-9c-0.7-2.4-1-4.8-1.3-7.3c5,1.9,7.5,7.1,6.8,12c-0.9,7.3-5.6,11.6-10.6,16c-3.4,2.9-6.4,6.3-9,10
			c-3.8,5.4-9.5,8.3-14.5,12.3c-7.4,6-15.1,11.8-20.4,19.9c-1.8,2.6-1.4,5.9-1,8.8c1,7.6,2.3,15.1,3.4,22.6c0.1,0.4,0.1,0.8,0.3,1.1
			c2.8,3.7,2.9,7.2,0.9,11.6c-1.8,3.8-3.2,7.5-6.9,9.9c-0.6,0.4-1.4,1-1.5,1.6c-1,4.4-5.6,4.3-8.4,6.5c-0.5,0.4-1.1,0.6-1.8,0.6
			c-1.8,0-3.9-1.2-4.6-1.9c-1.3-1.1-2.3-1.6-3.2-1.6c-1.5,0-2.6,1.1-3.9,2.5c-0.2,0.2-0.7,0.3-1.2,0.4c-0.7-1.8,2.1-2.6,1-4.5
			c-11.2,1.2-22.4,2.4-33.5,5.1c-6,1.5-12.3,2.1-18.5,2.5c-3.2,0.2-6.2-0.2-6.1,4.3c0,0.7-0.3,1.5-1.2,1.7c-0.1,0.1-0.2,0.1-0.3,0.1
			c-0.1,0-0.2-0.1-0.2-0.4c-0.3-4.6-1.3-6.2-5.1-6.2c-0.9,0-2,0.1-3.3,0.3c-1,0.1-2,0.3-3,0.3c-1.1,0-2.2-0.2-3.5-0.7
			c-0.6-0.3-1.1-0.4-1.5-0.4c-1.6,0-1.6,2-1.9,3.8c-0.3,1.7,2.1,3.9-0.2,4.6c-0.1,0-0.3,0.1-0.4,0.1c-1.3,0-1.5-2.5-2.2-3.6
			c-1.9-3.1-4.2-4.2-7-4.2c-1.3,0-2.7,0.3-4.2,0.7c-0.6,0.2-1.2,0.2-1.8,0.2c-1.6,0-3.2-0.5-4.9-0.5c-0.5,0-1,0-1.5,0.2
			c-1.7,0.4-2.4,0.8-1.2,2.3c1.5,1.9,1.2,4.3,2.4,6.6c-0.2,0-0.5,0-0.7,0c-4.3,0-6-3.9-8.8-5.8c-1.6-1.1-2.8-2.3-4.8-2.4
			c-1-0.1-2.2-0.6-3.2-0.6c-0.6,0-1,0.2-1.3,0.7c-0.8,1.6,0.6,3.5,1.9,4.9c0.9,0.9,1.7,1.8,1.7,3.4c0,0-0.1,0-0.1,0
			c-5.5,0-8.7-3.6-11.7-7.3c-1.1-1.4-2.2-2-3.9-2.4c-3.7-0.8-7.5-1.6-11.3-1.6c-1.7,0-3.4,0.2-5,0.5c-4,0.9-8.1,1.5-12,2.6
			c-1.9,0.5-3.8,0.7-5.6,0.7c-6.1,0-12-2.3-18-2.9c-1.6-0.2-2.7-1.5-2.6-2.8c0.1-1,1.4-1.1,2.6-1.1c0.2,0,0.4,0,0.5,0
			c2.2,0,4.5,0.2,6.8,0.2c1.7,0,3.4-0.1,5.2-0.4c-0.9-1-1.7-1.3-2.6-1.3c-0.1,0-0.2,0-0.3,0c-0.7,0-1.4,0.1-2.1,0.1
			c-3.8,0-7.6-0.5-11.3-1.6c-1.9-0.5-4-0.8-4.1-3.1c-0.1-2.4,2.7-0.8,3.7-1.9c-3.4-1.6-5.5-4.9-7.6-7.5c-2-2.4-1.1-7,1.2-10.2
			c0.8-1.1,1.1-2.5,0-3.4c-2.1-1.7-1.7-3.7-1.1-5.8c1.1-3.8,1.6-7.9,4.2-11.2c1.1-1.4,1.1-2.6-0.7-3.7c-3.8-2.5-7.4-5.1-11.1-7.7
			c-0.3-0.2-0.7-0.3-0.9-0.6c-5.7-8.3-15.2-13-20.5-21.6c-1.8-2.9-5.3-4.6-5.8-8.5c-0.1-1.1-0.3-2.2-0.2-3.3
			c0.4-3.5-1.8-5.8-3.7-8.3c-2.8-3.7-2.3-7.7,1.4-11.2c1.6,4.7,3.5,9.1,7.1,12.6c2.1,2.1,4.5,2.7,6.8,2.7c1.4,0,2.8-0.2,4.1-0.6
			c2.1-0.5,3.9-4,3.6-7.1c-0.6-5.9,2.3-11.1,4-16.2c1.3-4,5.4-8,9.6-10.5c3.1-1.8,6.4-3.3,9.9-5c-2.3-1.8-4.3-3-7.1-3.4
			c-2.5-0.3-4.3-2.7-4.9-5.5c-1.7-7.5,3.3-16.4,11.5-19.7c7.7-3.1,13.4-8.1,15.9-16.2c-2.1-0.3-3.6-0.4-4.8-0.4
			c-3.1,0-4.2,1.1-7.5,4.8c-1.2,1.4-2.7,2.3-4.3,2.3c-0.8,0-1.6-0.2-2.4-0.7c-2.5-1.4-2.5-3.6-1.7-6.2c1.6-4.9,5.7-6.9,9.8-8.5
			c6-2.3,12.4-3.4,18.5-5.6c2.3-0.8,3.8-3.7,6-5c3.2-1.9,2-4.8,1.9-7.3c-0.5-7.6,1.1-14.9,3.6-21.9c1.4-3.9,5.1-6.2,8.1-8.9
			c3.1-2.8,6.5-4.9,10.9-5c-2.3-4.3-1.9-6.8,1.5-9.9c2.2-2.1,1.2-7.9-1.6-9c-1.3-0.5-2.6-0.9-3.8-1.6c-1.5-0.8-4.9-1.4-7.5-1.4
			c-1,0-1.8,0.1-2.4,0.3c-0.5,0.1-1,0.2-1.6,0.2c-2.8,0-6.5-1.7-7.8-4.2c-1.9-3.6-3.5-7.4-4.8-11.2c-2.7-7.6-0.6-15,1.1-22.4
			c0.5-2.2,2.1-3.7,3.3-5.3c3.5-4.5,7.3-8.6,11.2-13.2c-6.7-9.2-9.3-20-8.3-31.8c0.9-10.3,4.3-19.6,9.4-28.6
			c3.8-6.6,8.3-12.6,14.1-17.3c6.6-5.4,14.7-8.4,22.4-11.9c4.5-2,8.1-4.6,11.1-8.9c5.1-7.3,13.1-10.6,21.8-11.7
			c1.2-0.1,2.3-0.2,3.5-0.2c4.1,0,8.2,0.8,12.2,1.9c1.6,0.4,3.2,0.6,4.7,0.6c2.9,0,5.7-0.8,8.4-2.1c5-2.5,10.2-4.3,15.6-5.3
			C278.7,30.9,282.2,30.6,285.6,30.6 M126.2,320.3c1.1,0,2-0.8,2.6-2c1.1-2.1,2.4-4.2,3.8-6.6c-3.7,0.1-6.4,1.1-8.7,3.8
			c-0.9,1.1-2,1.8-1.8,3.2c0.3,1.6,2.1,1,3.1,1.4C125.6,320.2,125.9,320.3,126.2,320.3 M354.7,348.5c0.5,0,0.9-0.2,0.6-1.1
			c-1.1-3.6-2.2-7.6-6-9c-5.5-2-11.2-3.5-17.9-4.4c3.9,6.2,9.8,8.1,14.7,11.5c2.2,1.5,4.9,2.5,7.6,2.9
			C354,348.4,354.4,348.5,354.7,348.5 M315.2,397.8c1.9-4.8,5-8.7,6.7-13.1c1.4-3.7,3.4-6.4,6.1-9.1c3.9-4,9.2-6.8,9.9-13.5
			c1-9.1-3.8-15.9-12.6-17.2c-6.6-0.9-13.1-1.8-19.6-2.9c-4.2-0.7-8.3-2-12.3-3c-1.8,5.2,0.6,7.8,4.9,9.9c3.4,1.7,6.3,4.5,8.1,8
			c2.8,5.4,1.8,10.9,0.6,16.4c-0.3,1.3-0.7,2.2,0.3,3.7c2,3,4.8,6,4.4,10C311.3,391.1,312.5,394.4,315.2,397.8 M111.6,351
			c5.8,0,8.9-4.1,12.6-7c0.9-0.7,2.3-1.7,1.5-3c-0.3-0.5-0.8-0.7-1.2-0.7c-0.7,0-1.5,0.4-2.2,0.6c-5.2,1.6-8.1,5.8-11.2,10.1
			C111.3,351,111.4,351,111.6,351 M123.4,399.2c-0.7-6.2,1.4-10.1,5.7-13c3-1.9,4.1-4.4,3.9-8.1c-0.3-3.9-0.5-8.3,3.2-11
			c3.3-2.4,3.4-5.5,3-9c-0.3-2.5-0.7-5.1-1-7.4c-7.8,0.3-13.8,4.4-19.8,8.6c-2.7,1.9-5.6,3.9-5.6,7.9c0,0.6-0.6,1.3-1.2,1.8
			c-2.5,2.4-2.6,5.3-1.8,8.3c0.9,3.5,1.6,7.1,3.6,10.2C116.1,391.6,118.2,396.2,123.4,399.2 M326.4,403.1c4.4-2.5,6.9-6.9,10.6-10.1
			c7.2-6.1,15.5-11,21.5-18.5c0.8-0.4,2.1-0.4,2.1-2c-1.2,0.2-2.3,0.1-3.1,1C345.2,377.6,327.9,394.1,326.4,403.1 M107.4,386.9
			c-1.4-3.6-0.3-7.6-2.8-11.2c-1.8,2.5-3.2,4.8-2.1,7.3C103.4,384.8,104.9,386.6,107.4,386.9 M285.6,15.6L285.6,15.6
			c-4.3,0-8.7,0.4-13.1,1.2c-6.8,1.2-13.4,3.5-19.7,6.7c-0.9,0.5-1.4,0.5-1.6,0.5c-0.2,0-0.5,0-0.8-0.1c-3.8-1-9.7-2.4-16.1-2.4
			c-1.8,0-3.6,0.1-5.3,0.3c-17.8,2.2-27.4,11-32.3,18c-1,1.4-2.1,2.5-5,3.8c-1.4,0.6-2.7,1.2-4.2,1.9c-6.8,3-14.5,6.4-21.4,12
			C159.3,63,153.6,70,148.4,79c-6.6,11.6-10.3,22.9-11.3,34.7c-1,11.2,0.7,21.8,5,31.3c-1.6,1.9-3.2,3.8-4.8,5.8
			c-0.2,0.2-0.3,0.4-0.5,0.6c-1.6,1.9-4.5,5.5-5.6,10.8c-0.2,0.7-0.3,1.4-0.5,2.2c-1.8,7.8-3.9,17.6,0,28.5
			c1.9,5.2,3.7,9.4,5.7,13.2c3.6,6.6,10.2,10.4,16.4,11.6c-0.3,0.2-0.5,0.4-0.8,0.7c-0.4,0.4-1,0.8-1.6,1.3
			c-3.3,2.7-8.3,6.8-10.7,13.7c-3.4,9.4-4.9,17.7-4.6,25.8c-1.8,0.6-3.6,1.1-5.6,1.6c-3.5,1-7.2,1.9-11,3.4
			c-4,1.5-14.7,5.6-18.7,17.9c-2.1,6.4-1.3,11.7,0.8,15.9c-7,7.7-10.3,18.3-7.9,28.2c0.3,1.3,0.7,2.5,1.2,3.7
			c-3.3,3.2-6.5,7.4-8.3,12.7c-0.2,0.7-0.6,1.6-0.9,2.5c-1.9-1.8-4.2-3.2-6.9-3.8c-1.2-0.3-2.4-0.4-3.6-0.4c-3.7,0-7.4,1.4-10.2,4
			c-9.3,8.6-10.6,21.5-3.1,31.3c0.2,0.3,0.4,0.5,0.6,0.8c0.1,1.2,0.2,2.3,0.3,3c0,0.1,0,0.3,0.1,0.4c0.9,7.6,5.4,12.2,7.6,14.4
			c0.2,0.2,0.4,0.4,0.6,0.6c3.9,6.2,8.9,10.5,13.2,14.3c3.1,2.7,5.8,5,7.4,7.4c1.9,2.7,4.1,4.2,5.5,5c0.7,0.5,1.4,1,2.1,1.5
			c-0.2,0.7-0.4,1.4-0.5,2.1c-0.2,0.8-0.4,1.5-0.5,2.1c-1.4,4.8-1.2,8.7-0.3,11.9c-2.5,7.5-1.5,15.5,3.2,21.2
			c0.2,0.2,0.3,0.4,0.5,0.6c0.1,3,1.2,8.6,6.4,12.7c0.6,1.7,1.5,3.3,2.7,4.7c3,3.8,7.5,6.2,12.3,6.7c1.7,0.2,3.7,0.6,5.9,1.1
			c4,0.9,8.5,1.8,13.6,1.8c3.3,0,6.5-0.4,9.5-1.2c2.1-0.6,4.4-1,6.9-1.5c1.4-0.3,2.9-0.6,4.5-0.9c0.5-0.1,1.1-0.2,1.8-0.2
			c1.6,0,3.4,0.3,5.4,0.7c3.8,4.3,10.6,10.6,21.5,10.6l0.3,0c2.4,0,4.6-0.6,6.6-1.6c2.2,0.9,4.8,1.5,7.8,1.5c0.7,0,1.4,0,2.1-0.1
			c3.7-0.3,7.1-2,9.5-4.7c3.6,2.6,7.4,3,9.4,3c1.7,0,3.4-0.3,5-0.8c2.1-0.7,4-1.7,5.6-3c2.4,1.6,5.3,2.5,8.4,2.5
			c2,0,3.9-0.4,5.7-1.1c3-1.1,5.5-3,7.3-5.4c5.2-0.5,11-1.2,16.6-2.6c6.4-1.6,12.9-2.6,19.6-3.4c2.6,2.1,5.9,3.3,9.4,3.3
			c1.4,0,2.8-0.2,4.3-0.6c0.3-0.1,0.7-0.2,1.1-0.3c2.3,0.9,4.9,1.5,7.6,1.5c3.7,0,7.2-1.1,10.2-3.1c0.2-0.1,0.3-0.1,0.5-0.2
			c2.5-1.1,8.5-3.5,12-9.8c5-4.3,7.4-9.5,9.1-13.1c0.1-0.3,0.3-0.6,0.4-0.9c4.6-9.9,2.8-17.9-0.3-23.6c-0.2-1.3-0.4-2.7-0.6-4
			c-0.9-5.5-1.7-10.7-2.4-15.9c0-0.1,0-0.3-0.1-0.5c3.6-4.7,8.7-8.8,14.1-13.1c0.6-0.5,1.3-1,1.9-1.6c1.1-0.9,2.4-1.8,3.8-2.8
			c4.2-2.9,9.3-6.6,13.5-12.5c1.9-2.7,4.1-5.2,6.6-7.3c5.6-4.9,14-12.2,15.7-25.5c1.5-12.3-5.3-23.8-16.5-27.9
			c-1.7-0.6-3.5-0.9-5.2-0.9c-3.3,0-6.6,1.1-9.3,3.2c-0.9,0.7-1.8,1.6-2.5,2.5c-1.7-1.7-4-3.3-6.7-4.5c-3-1.3-6.1-2.8-9.4-4.5
			c-3.2-1.6-6.5-3.3-9.9-4.8c-0.4-1.5-0.9-2.9-1.5-4.2c3.2-1.9,6.5-5.3,8.6-11.2c3.1-8.6,2.3-18-2.4-27.3c-0.3-0.5-0.7-1.9-1-3
			c-1.2-4-3-10.3-8.4-15.5c-1.5-2.5-3.3-5.4-5.9-8.3c0.4-1.1,0.6-2.3,0.8-3.5c0.1-0.5,0.2-1.2,0.3-1.9c0.2-1.3,0.5-2.9,0.7-4.6
			c2.7-2.1,5-4.7,7.2-8c3.7-5.7,6.2-11.2,7.8-17c1.6-5.7,2-11.3,1.3-16.6c1.8-2.4,3.1-5.6,3.4-9.8c5.5-6.2,10.5-15.4,10.5-28.8
			c0-1.2,0-2.4-0.1-3.4c0-0.6-0.1-1.3-0.1-1.9c5.2-9,8.3-18,9.5-27.4c2.9-22.6-5-41.3-22.8-54c-5.3-3.8-8.2-7.8-9.9-13.6
			c-2.9-9.8-7.3-17.1-13.7-22.3C314.6,20.6,300.8,15.6,285.6,15.6L285.6,15.6z M322.9,359.9c0,0,0-0.1,0-0.1c0,0,0.1,0,0.1,0
			C322.9,359.8,322.9,359.8,322.9,359.9C322.9,359.9,322.9,359.9,322.9,359.9L322.9,359.9z"/>
	</g>
</g>
</svg>
