<?xml version="1.0" encoding="utf-8"?>
<!-- Generator: Adobe Illustrator 24.1.0, SVG Export Plug-In . SVG Version: 6.00 Build 0)  -->
<svg version="1.1" id="Livello_1" xmlns="http://www.w3.org/2000/svg" xmlns:xlink="http://www.w3.org/1999/xlink" x="0px" y="0px"
	 viewBox="0 0 474 542.3" style="enable-background:new 0 0 474 542.3;" width="50" height="50" xml:space="preserve">
<style type="text/css">

		.Stile_x0020_grafica_x0020_2{fill:#FFFFFF;stroke:#000000;stroke-width:15;stroke-linecap:round;stroke-linejoin:round;stroke-miterlimit:10;}
	.st0{fill:#FEFEFE;}
	.st1{fill:#FFFFFF;}
</style>
<g>
	<path class="st0" d="M296.1,264.8c-0.3-0.2-0.7-0.4-1-0.6C295.3,264.5,295.7,264.7,296.1,264.8z"/>
	<g>
		<path class="st1" d="M254.4,526.1c-4,0-7.7-1-11.2-2.8c-1.3-0.7-3.3-0.9-5.7-1.1c-2.5-0.2-5.3-0.4-8.2-1.3
			c-9.2-2.8-17.5-7-24.7-12.4c-2-1.5-4.2-2.8-6.6-4.2c-3.3-1.9-6.7-3.9-9.9-6.7c-6.7-5.6-12-12.3-16.2-20.7
			c-0.6,0.5-1.2,1.1-1.8,1.6c-1.5,1.4-3,2.8-4.7,4.1c-4.6,3.8-9.4,5.3-13.7,6.6c-1.1,0.3-2.2,0.7-3.2,1c-7.7,2.7-15.5,3.1-22.6,3.1
			l-0.3,0c-16.7,0-29.8-7.2-40-22.1c-1.8-2.6-4-5.2-6.3-7.9c-4-4.7-8.1-9.5-11-15.6c-7.6-15.8-7.2-31.8,1-47.5l0.5-2.2
			c0.2-1,0.7-2,1.3-2.8c1.3-1.8,2.6-3.8,3.9-5.9c2.9-4.7,6.1-10,11.5-14.1c0.2-0.2,0.4-0.5,0.7-0.7c7-7.1,22-11.3,32.5-11.3
			c5.2,0,9.5,1,12.7,2.9c2.3,1.4,4.8,3.3,7,5.2l6.3,5.4c0.5,0.5,1,1,1.4,1.6c0.6,0.9,1.3,1.9,2,2.9c2.5,3.5,5.7,7.9,6.7,13.9
			c1,5.8-0.5,10.6-4.7,14.1c-2.7,2.3-5.4,2.7-7.2,2.7c-3.6,0-6.3-1.8-7.9-3l-0.5-0.3c-4.4-2.9-8.8-6-13-8.9
			c-1.6-1.1-3.1-2.2-4.7-3.3c-0.3-0.2-0.5-0.3-0.7-0.4c-0.2,0.1-0.4,0.4-0.8,0.7c-5.4,6.2-6.2,19.5-1.4,26.4
			c3.4,4.9,7.7,6.3,13.6,8.2c2.1,0.7,4.2,1.4,6.5,2.3c8-5.9,16.7-10.6,25-15.2l0.9-0.5c0.4-9.5,6-15.8,10.6-20.9
			c1.3-1.5,2.6-2.9,3.6-4.3c2.8-3.6,5.6-7.5,8.2-11.2c2.4-3.4,4.9-6.9,7.5-10.3c3-3.9,6.2-7.1,9.4-10.3l0.2-0.2
			c0.8-0.8,1.4-1.6,1.3-3.6c-1.3,0.4-2.7,0.7-4.1,0.7c-3.7,0-6.6-1.6-8.6-2.7c-0.6-0.3-1.2-0.7-1.6-0.8c-0.7-0.3-1.6-0.6-2.5-0.9
			c-4.2-1.3-11.6-3.7-14.2-11.5c-6.2-4.1-8.4-10.5-10.2-15.3c-1.1-3.2-2.1-6-3.8-7.5l-0.6-0.5c-0.3-0.3-0.6-0.6-0.9-0.8
			c-1.7,0.9-3.5,1.3-5.3,1.3c-5.5,0-8.8-4-10.3-6l-0.2-0.3c-5.3-6.6-1.2-12.9,0.4-15.2l0.3-0.5c1.1-1.6,2.3-2.9,3.3-4
			c0.4-0.4,0.9-0.9,1.2-1.3c-0.3-0.7-1.3-1.8-1.9-2.6c-0.5-0.6-1-1.3-1.5-1.9c-4.9-6.6-4.9-12.5-4-16.3c0.9-4,3.8-9.7,12.1-13.9
			c8.2-4.1,16.9-8.2,26.7-12.5c-0.1-0.2-0.1-0.4-0.2-0.5c-1.5-5.2-1.7-5.2-3.7-5.2l-0.3,0c-7,0-12.7-4.3-16.1-6.8
			c-1.1-0.8-1.6-0.9-1.6-0.9c0,0-0.4,0.1-1.3,0.7c-4.5,3.2-9.1,5.8-12.6,7.6c-6.6,3.5-10.4,8.8-13.2,18.3c-0.7,2.5-1.3,5.1-1.8,7.9
			c-1.7,8.5-3.7,18.1-11.1,26.1c-2.8,3-5.6,4.8-8.5,5.6c-0.7,0.2-1.4,0.3-2.1,0.3c-6.2,0-8-5.9-8.8-8.2c-0.1-0.3-0.2-0.7-0.3-0.9
			c-2.1-5.5-1.4-10.5-0.8-14.5c0.1-0.8,0.2-1.6,0.3-2.5c0.1-1.1-0.2-2.1-1-3c-1.1-1.2-2.8-2-4.5-2c-0.5,0-1.1,0.1-1.6,0.2
			c-2.2,0.6-3.4,1-4.1,1.3c0,0.8,0.1,2.2,0.4,4.6c0.3,1,1,3,0.5,5.5c-2.8,12.9-11,14.3-14.4,14.3c0,0-0.1,0-0.1,0
			c-7.1-0.1-12.5-8.2-12.5-15.4c0-1.4-0.2-2.8-1.4-4.9c-3-5.6-2.9-12.6,0.4-19.3c1.3-2.6,3-4.9,4.9-6.9c-3.3-0.1-5.4-1.6-6.6-2.8
			c-1.7-1.8-2.6-4.2-2.6-6.8l0-0.4c0-2.4,0.2-9.8,7.5-13c2.5-1.1,4.2-3,5.7-6.7c2.5-6.1,7.3-9.7,12.9-9.7c3.1,0,9.1,1.2,14.2,9.4
			c0.4,0.6,1.4,1.3,2.6,2.1c1.5,1,3.2,2.2,4.9,4c6.1-2.2,9.9-5,12.4-8.9c0.5-0.8,1-2,1.5-3.3c1-2.7,2.3-6,5.2-9.2
			c6.1-6.7,13.5-9.4,20-11.7c2-0.7,4-1.4,5.8-2.2c1.4-0.6,2.7-0.9,4-0.9c3.4,0,5.4,1.8,6.2,2.6c5.2,3.3,9.5,4.8,13.5,4.8
			c1.8,0,3.5-0.3,5.3-0.9c0.8-0.3,1.6-0.4,2.4-0.4c1.5,0,2.9,0.4,4.2,1.3c0.4,0.3,0.8,0.6,1.2,1c0.3,0.1,0.5,0.2,0.7,0.3
			c0.2,0.1,1.1,0.1,1.8,0.2c0.6,0,1.3,0.1,2.1,0.2c0.3-13.1,1.8-26.6,10.1-38.6c0.9-1.3,1-3.3,1.1-6.4c0.1-2.8,0.3-6,1.3-9.4
			c2.6-8.2,2.1-17.1,1.3-25.6c-0.6-6.1,1-12,2.5-17.1c0.2-0.8,0.4-1.6,0.6-2.4c0.7-2.6,1.3-5.1,1.8-7.6c1.9-11,9.7-18.1,20-18.1
			c2.8,0,5.8,0.5,8.7,1.6c0.1-0.1,0.1-0.1,0.2-0.2c0.5-1,1.2-1.9,2.2-2.6c9.4-7.2,16.2-16.9,22.8-27c4.1-6.3,10.4-15.9,21.7-19.1
			c1.6-0.4,3.3-0.7,4.9-0.7c6.9,0,12.4,3.9,16,6.9c0.6,0.5,1.2,0.9,1.5,1c3.1-1.8,5.9-2.7,8.8-2.7c3.5,0,6.7,1.3,9.5,3.8
			c2.8-1.3,5.5-2,8.3-2c3.3,0,6.4,1,9.1,2.8c1-0.5,2.2-1.2,3.7-1.6c1.6-0.4,3.2-0.7,4.9-0.7c10.3,0,19.1,8.6,19.4,18.9
			c0.4,0.5,1.2,1.2,1.8,1.8c1.2,1.1,2.6,2.4,3.8,4c2.7,3.6,4.8,7.3,6.9,10.8c1.6,2.7,3.1,5.3,4.7,7.6c0.8,1.1,1.4,2.2,1.9,3.2
			c0.7,1.3,1.1,2.1,1.6,2.4c9.1,6.5,15.7,17.2,16.4,26.6c0.3,4.4,1.4,8.8,2.6,13.4c1.1,4.3,2.2,8.8,2.7,13.6
			c0.5,4.2,1.5,8.4,2.6,12.9c1,4,1.9,8,2.6,12.3c1.1,7.6,4.8,14.3,8.7,21.3c0.8,1.4,1.6,2.8,2.3,4.3c3.2,6,2.8,13.2-1.1,18.7
			c-1.5,2-1.7,4.5-1.7,9.3c0.1,8.7-2.6,16.5-5.1,24.1c-0.4,1.1-0.8,2.2-1.1,3.4c-4.8,14.5-11.3,28.2-17.6,41.6l-1.1,2.3
			c-2.9,6-7.9,10.6-12.3,14.7c-1.7,1.5-3.2,3-4.7,4.4c-7.7,8-16.2,15.1-24.4,21.9c-9.3,7.8-18.1,15.2-25.9,23.8
			c-2.8,3.1-5.7,6-8.5,8.9c-0.1,0.2-0.3,0.3-0.4,0.5c1.9-0.3,3.9-0.4,5.9-0.4c4.4,0,8.5,0.7,12,2c3.1,1.2,6.4,1.7,11,1.7
			c1.7,0,3.5-0.1,5.3-0.1c1.9-0.1,3.8-0.1,5.8-0.1c0.9,0,1.8,0,2.7,0.1c6.6,0.3,12.9,3,18.3,7.8c5.2,4.8,7,12.3,8.5,18.3l0.2,1
			c0.9,3.6,2.2,7.3,3.6,11.1c2.6,7.1,5.2,14.4,5.5,22.9c0.6,19-4.2,33.9-14.7,45.6c-1.5,1.7-3,3.5-4.5,5.2
			c-5.1,5.9-10.3,12.1-17.1,17.3c-8.2,6.3-17.3,11.4-27.8,15.4c-7,2.7-14.3,4.4-21.2,6.1c-6,1.4-11.7,2.8-17.2,4.7
			c-1.2,0.4-2.5,0.9-3.8,1.4c-6,2.2-12.2,4.5-18.4,5.3c-2,0.3-4.4,1.1-6.8,1.9C264,524.6,259.4,526.1,254.4,526.1z M287.7,267.2
			c-0.6,0.7-1.2,1.3-1.8,1.9c-2,2-3.8,3.9-5.1,5.9c2-2,4.3-3.8,7.1-5.2c0.5-0.2,0.9-0.5,1.3-0.8
			C288.7,268.4,288.2,267.8,287.7,267.2z M321.6,192.6c1.6,0,3.3,0.2,5,0.7c-0.3-2.7-0.1-5.8,2.5-8.5c1.4-1.5,1.5-2.7,1.3-6
			c0-0.9-0.1-1.7-0.1-2.5c0-0.3,0-0.7,0.1-1c1-6.4-0.3-12.9-3.9-19.8c-2.9-5.6-4.5-11.1-5.9-16.4c-2.4,3.3-3.9,7.1-4.5,11.6
			c-0.3,2-0.2,4.3-0.1,6.8c0.2,5,0.5,11.2-2.7,17.3l-0.9,1.8c-2.9,5.6-5.5,10.6-5.8,16c0.8-0.1,1.6-0.1,2.5-0.1
			c1.6,0,3.1,0.1,4.5,0.2c1.2,0.1,2.4,0.2,3.5,0.2c0.7,0,1.4,0,1.9-0.1C319.7,192.7,320.6,192.6,321.6,192.6z"/>
		<path d="M284.9,29.4c4.3,0,8,2.5,11.1,5.1c2.2,1.8,4.5,2.9,6.6,2.9c1,0,2-0.3,2.9-0.8c2-1.3,3.9-2,5.5-2c1.9,0,3.7,0.9,5.4,2.9
			c1.1,1.3,2.1,1.7,3.1,1.7c1.2,0,2.3-0.6,3.8-1.4c1.8-0.9,3.6-1.5,5.5-1.5c2,0,4,0.7,5.8,2.2c1,0.9,2,1.2,2.9,1.2
			c2.2,0,4.2-1.9,6.2-2.4c0.9-0.3,1.9-0.4,2.8-0.4c6.1,0,11.9,5.5,11.9,11.9c0,4.5,4.7,6.5,7.2,9.8c4.3,5.8,7.4,12.3,11.4,18.2
			c1.7,2.5,2.5,5.4,5.3,7.4c7.2,5.2,12.7,13.9,13.3,21.1c0.7,9.5,4.3,18,5.3,27.2c1,8.6,3.9,17,5.2,25.5c1.6,10.6,7,19.1,11.9,28.1
			c1.7,3.1,1.9,7.3-0.6,10.8c-2.9,4.1-3.1,8.6-3.1,13.7c0.1,8.7-3.2,16.9-5.9,25.1c-4.9,14.8-11.7,28.9-18.3,43
			c-3.2,6.7-10.2,11.5-15.5,17.1c-15.8,16.4-35,28.9-50.4,45.8c-6.9,7.6-14.6,14.6-21.2,22.6c-0.5,0.6-0.7,1.6-1.1,2.7
			c1.4,0.3,2.7,0.4,3.9,0.4c3.2,0,6.2-0.9,9.4-2.1c3.5-1.4,7.6-2.1,11.4-2.1c3.4,0,6.7,0.5,9.4,1.5c4.6,1.7,9.2,2.1,13.7,2.1
			c3.7,0,7.4-0.3,11.1-0.3c0.8,0,1.6,0,2.4,0c5.9,0.2,10.5,3.1,13.5,5.9c3.8,3.5,5.2,10.1,6.5,15.6c2.6,10.9,8.5,20.9,8.9,32.5
			c0.5,15-2.5,28.9-12.8,40.4c-6.6,7.4-12.5,15.3-20.6,21.5c-8,6.2-16.7,10.8-25.9,14.4c-12.4,4.8-25.8,6.4-38.2,10.8
			c-6.8,2.4-14.1,5.4-20.7,6.3c-6.4,0.9-12.7,4.6-19.3,4.6c-2.5,0-5.1-0.5-7.7-1.9c-4.6-2.5-10.1-1.4-15.2-3
			c-8.3-2.5-15.8-6.3-22.4-11.2c-5.2-3.9-11.2-6.4-16.2-10.6c-8.6-7.2-14-16-18-26.7c-5.5,3.2-9.7,7.9-14.3,11.7
			c-4.5,3.7-9.6,4.5-14.5,6.3c-6.5,2.3-13.3,2.7-20.2,2.7c-0.1,0-0.2,0-0.2,0c-14.9,0-25.5-6.7-33.9-18.8
			c-5.3-7.7-12.6-14-16.7-22.5c-6.7-14-6.1-28,1.3-41.6c0.1-0.3,0.2-0.6,0.2-1c0.2-0.7,0.3-1.4,0.5-2.2h0
			c4.8-6.3,7.7-14.1,14.4-18.9c0.4-0.3,0.6-0.7,0.9-1c5.1-5.1,17.7-9.1,27.2-9.1c3.6,0,6.7,0.6,8.9,1.8c1.8,1.1,4,2.7,5.9,4.4
			c2.1,1.8,4.2,3.6,6.3,5.5c2.9,4.5,6.7,8.3,7.7,14c0.6,3.1,0,5.2-2.2,7.1c-0.8,0.7-1.6,1-2.3,1c-1.5,0-2.9-1.1-4.2-2
			c-5.9-4-11.8-8.1-17.6-12.1c-1.8-1.2-3.5-1.8-5.1-1.8c-2.2,0-4.3,1.2-6.3,3.4c-7.9,9-8.6,26-2,35.6c6.4,9.3,15.5,9.9,23.9,13.4
			c0.5,0.2,1.5,0.5,2.7,0.5c1.1,0,2.4-0.2,3.4-1c8.5-6.3,17.8-11.3,27.1-16.4c1.1-0.6,2.9-1.2,2.7-2.7c-1.1-10.9,6.9-16.5,12.6-23.9
			c5.4-7,10.4-14.5,15.8-21.6c2.7-3.5,5.8-6.6,8.9-9.6c4-3.9,3.9-8.4,3-12.8c-0.5-2.5-1.8-5.3-4.4-5.3c-0.9,0-2.1,0.4-3.4,1.3
			c-1.2,0.8-2.3,1.1-3.3,1.1c-2.7,0-5.1-2.1-7.5-3c-5.3-2.1-12.1-2.6-12.9-10.4c-10.4-4.3-8.3-16.7-15.4-23.4
			c-2.2-2-3.9-3.8-6.2-3.8c-1,0-2,0.3-3.3,1c-0.9,0.5-1.6,0.7-2.3,0.7c-2.1,0-3.5-1.9-4.7-3.5c-2-2.5-0.5-4.4,1.2-6.9
			c1.9-2.9,5.3-4.8,5.8-8.2c0.6-4.2-2.6-7-5-10.2c-5.4-7.2-3.4-14.5,5.5-19c9.1-4.6,18.3-8.8,27.6-12.9c3.1-1.4,4.6-3.2,3.5-6.4
			c-2-6-2.7-13.1-11.7-13.1c-0.1,0-0.1,0-0.2,0c0,0-0.1,0-0.1,0c-4.4,0-8.4-2.9-11.6-5.3c-2.2-1.7-4.2-2.4-6.1-2.4
			c-2,0-3.8,0.8-5.7,2.1c-3.7,2.7-7.6,4.9-11.7,7.1c-9.1,4.8-13.8,12.1-16.9,22.8c-2.9,10.2-3,22.2-11.2,31c-1.6,1.7-3.3,3-5,3.5
			c0,0-0.1,0-0.1,0c-0.9,0-1.5-2.8-2.1-4.3c-1.8-4.5-0.5-8.8,0-13.4c0.9-7.4-5.7-13.4-13-13.4c-1.2,0-2.4,0.2-3.5,0.5
			c-9.6,2.6-10.5,4-9.1,14.4c0.1,0.9,0.7,1.8,0.5,2.6c-0.9,4.1-2.9,8.4-7.1,8.4c0,0,0,0-0.1,0c-2.2,0-5-4-5-7.8c0-3-0.7-5.6-2.3-8.5
			c-4.3-7.8,3-20.4,11.9-21.7c2.8-0.4,6.4-8.2,4.9-10.4c-0.5-0.7-1.1-0.9-1.6-0.9c-0.5,0-1,0.2-1.3,0.5c-2,2.1-4.3,2.5-6.6,2.5
			c-1.8,0-3.6-0.3-5.4-0.3c0,0,0,0-0.1,0c-0.7,0-1.7,0.2-2.6,0.2c-1.2,0-2.2-0.3-2.2-2c0.1-2.2-0.1-5.3,3-6.6
			c4.8-2.1,7.6-5.8,9.6-10.7c1.4-3.3,3.5-5.1,5.9-5.1c2.5,0,5.4,1.9,7.9,5.9c2.6,4.1,7.4,4.9,9.5,9.1c0.2,0.5,1.4,1,3,1
			c0.7,0,1.5-0.1,2.4-0.4c7.4-2.5,13.6-6,17.7-12.5c2.2-3.6,2.6-7.8,5.9-11.4c6.5-7.1,15.2-8.6,23.2-12.1c0.4-0.2,0.8-0.3,1-0.3
			c0.8,0,1,0.7,1.8,1.2c5.6,3.6,11.5,6.2,17.9,6.2c2.5,0,5.1-0.4,7.7-1.3c0.1,0.9-0.4,2.1,0.8,2.6c0.2,0.1,0.4,0.1,0.7,0.1
			c0.5,0,1-0.3,1.3-1c2.8,1.4,6,0.6,9,1.8c0.6,0.2,1.3,0.4,2.1,0.4c1.8,0,3.6-1,3.6-4.8c0.2-13.3,0.9-26.6,8.9-38.1
			c3.6-5.3,1.6-11.9,3.4-17.8c3-9.3,2.5-18.9,1.6-28.6c-0.5-5.5,1.4-11.4,2.9-16.9c0.7-2.7,1.4-5.4,1.9-8.2
			c1.3-7.7,6.2-11.9,12.6-11.9c2.2,0,4.6,0.5,7.1,1.5c0.9,0.4,2,0.7,3,0.7c1.2,0,2.4-0.5,3.2-2.2c1.7-0.1,2.5-1.1,2.4-2.8
			c10.3-7.8,17.5-18.2,24.6-28.9c4.2-6.5,9.1-13.6,17.5-15.9C283,29.5,283.9,29.4,284.9,29.4 M301,201.7c0.6,0,1.5-0.2,2.7-0.7
			c1.7-0.7,3.4-0.9,5.2-0.9c2.6,0,5.3,0.4,8,0.4c1.1,0,2.1-0.1,3.2-0.2c0.4-0.1,0.9-0.1,1.5-0.1c3.1,0,7.4,1.5,8.3,6.2
			c0.2,1.1-0.2,2.7,1.2,2.7c0.2,0,0.3,0,0.6-0.1c1.1-0.2,2.6-1.3,2.9-2.4c0.6-1.8,0.4-4,0.8-5.9c0.8-3.8-2.8-8.7-0.9-10.7
			c4.5-4.7,3.3-9.7,3.3-13.6c1.4-9.6-1.3-17.7-4.7-24.3c-3.4-6.5-4.8-13.3-6.7-20c-0.8-2.7-2.1-4.3-3.8-4.3c-0.8,0-1.8,0.4-2.8,1.3
			c-6.3,5.4-9.9,12.2-11.2,20.6c-1.1,7.3,1.5,14.9-2,21.8c-4.3,8.3-8.9,16.2-7.3,26.2C299.7,200.3,299.6,201.7,301,201.7
			 M297.3,264.3c-0.7,0-1.5-0.1-2.2-0.1c-2-2.1-3.7-4.3-4-7.3c-0.2-1.9-1-2.7-1.8-2.7c-0.7,0-1.5,0.5-2,1.4
			c-3.5,6.3-10,10.3-13.4,16.4c-3.6,6.5-1.2,14.8-5.5,21.3c-0.8,1.2,0.4,1.9,1.6,1.9c0.3,0,0.6,0,0.9-0.1c2.1-0.7,3.4-2.5,5.1-3.9
			c5.6-4.5,8.9-11.5,15.4-14.7c4.3-2.2,6.4-5.5,7.8-9.8c6.9-3.3,7.4-7.2,2-15.7c-3.9,2.4-4.3,6.1-2.7,9.7
			C299.7,263.7,298.8,264.3,297.3,264.3 M239.6,324.5c2.5,0,3.9-0.8,5.1-2.3c0,0,0,0,0,0c0.1,0,0.2,0,0.2,0c3.7,0,1.7-3.9,3.4-5.4
			c0.5-0.4-0.2-1.6-1.1-1.6c-0.1,0-0.2,0-0.2,0c-1.7,0.5-3.8,0.8-4.2,3.2c-2.4,1.2-2.1,3.7-3.7,6.1
			C239.3,324.5,239.5,324.5,239.6,324.5 M221.5,345c0.1,0,0.3,0,0.4,0c1.5-0.2,3.9,0.4,3.3-2.6c-0.2-1.1,0.7-2.8-1.5-3
			c-1.4,0.8-3.5,0.8-3.8,3C219.8,343.7,219.9,345,221.5,345 M281.3,442.9c0.2,0,0.3,0,0.5-0.1c1.2-1,2-2.6,2.4-4.1
			c0.2-0.8-0.5-1-1.2-1c-0.2,0-0.4,0-0.6,0c-2.4,0-2.7,2.1-3,3.5C279.2,441.9,280.5,442.9,281.3,442.9 M284.9,14.4
			C284.9,14.4,284.9,14.4,284.9,14.4C284.9,14.4,284.9,14.4,284.9,14.4c-2.3,0-4.7,0.3-6.9,0.9c-14.1,3.9-21.5,15.3-26,22.2
			c-6.3,9.6-12.6,18.7-21.1,25.2c-0.1,0.1-0.2,0.2-0.4,0.3c-2.1-0.4-4.2-0.6-6.2-0.6c-13.9,0-24.9,9.8-27.4,24.3
			c-0.4,2.2-0.9,4.4-1.6,6.9c-0.2,0.8-0.4,1.5-0.6,2.3c-1.5,5.5-3.4,12.4-2.7,19.8c0.9,9.6,1,16.4-0.9,22.6
			c-1.4,4.3-1.5,8.2-1.7,11.4c0,1-0.1,2.3-0.2,3c-7,10.4-9.6,21.3-10.6,32.2c-1-0.2-2-0.3-3.1-0.3c-1.6,0-3.2,0.3-4.8,0.8
			c-1,0.3-2,0.5-2.9,0.5c-2.4,0-5.3-1.1-9-3.3c-3.9-3.4-7.9-4.1-10.8-4.1c-2.3,0-4.7,0.5-6.9,1.5c-1.6,0.7-3.4,1.4-5.4,2
			c-7,2.5-15.7,5.6-23.1,13.7c-3.8,4.2-5.5,8.6-6.7,11.5c-0.3,0.7-0.7,1.7-0.9,2c-0.8,1.3-2,2.7-4.6,4.1c-0.7-0.6-1.4-1-2-1.4
			c-0.3-0.2-0.6-0.4-0.9-0.6c-7-10.6-15.6-12.2-20.1-12.2c-8.7,0-16.1,5.4-19.8,14.3c-1,2.3-1.5,2.6-1.7,2.6
			c-5.4,2.3-11.9,7.7-12.1,19.7l0,0.3c-0.1,4.7,1.6,9,4.7,12.3c0.2,0.2,0.4,0.4,0.6,0.6c-0.1,0.2-0.2,0.4-0.3,0.5
			c-4.4,8.9-4.5,18.5-0.3,26.2c0.5,0.9,0.5,1.1,0.5,1.3c0,4.8,1.5,9.6,4.2,13.7c3.8,5.8,9.6,9.1,15.7,9.1l0.2,0
			c6.1,0,13.1-2.8,17.7-10c0.1,0.4,0.3,0.8,0.4,1.3c0.1,0.2,0.1,0.4,0.2,0.5c0.3,1,0.8,2.4,1.4,3.8c2.8,6,8.2,9.6,14.5,9.6
			c1.4,0,2.8-0.2,4.1-0.6c4.3-1.2,8.3-3.7,12-7.7c5.2-5.6,8.1-11.7,10-17.6c0.7,4.2,2.5,8.3,5.3,12.1c-0.4,0.5-0.8,1.1-1.2,1.6
			l-0.3,0.4c-1.1,1.7-2.8,4.3-3.7,7.8c-1.4,5.7-0.1,11.5,3.7,16.2l0.2,0.3c1.9,2.4,7,8.8,16.2,8.8c0.8,0,1.6-0.1,2.5-0.2
			c0.4,0.9,0.7,1.9,1,2.8c1.7,4.8,4.3,12.2,11.1,17.6c1.6,3.5,4,6.4,7.2,8.8c3.8,2.9,7.9,4.1,10.8,5.1c0.7,0.2,1.4,0.5,2,0.7
			c0.2,0.1,0.5,0.3,0.8,0.4c0.7,0.4,1.5,0.9,2.5,1.3c-1,1.2-2,2.4-3,3.7c-2.7,3.5-5.2,7.1-7.7,10.5c-2.8,3.9-5.4,7.5-8.1,11
			c-0.9,1.2-2.1,2.5-3.3,3.9c-0.8,0.9-1.7,1.9-2.6,3c-0.1-0.4-0.1-0.8-0.2-1.2c-1.4-7.7-5.2-13.1-8-17c-0.7-0.9-1.3-1.8-1.8-2.6
			c-0.8-1.2-1.7-2.3-2.8-3.2l-6.3-5.4c-2.5-2.2-5.4-4.3-8.1-5.9c-4.4-2.6-10-4-16.6-4c-12.1,0-29,4.6-37.8,13.5
			c-0.2,0.2-0.4,0.4-0.5,0.6c-6.1,4.9-9.7,10.8-12.7,15.6c-1.2,2-2.3,3.8-3.5,5.3c-1.3,1.7-2.2,3.6-2.6,5.7l-0.3,1.3
			c-8.8,17.4-9,35.8-0.6,53.3c3.4,7,8,12.5,12.1,17.3c2.2,2.5,4.2,4.9,5.8,7.3c11.5,16.8,27.1,25.3,46.2,25.3l0.3,0
			c7.8,0,16.3-0.5,25-3.5c0.9-0.3,1.9-0.6,2.9-0.9c4.4-1.3,10.4-3.1,16.1-7.8c3.7,5.6,8.1,10.4,13.3,14.8c3.7,3.1,7.6,5.4,10.9,7.4
			c2.2,1.3,4.3,2.5,5.9,3.8c7.9,6,17.1,10.5,27.1,13.6c3.7,1.1,7.1,1.4,9.8,1.6c1,0.1,2.4,0.2,3,0.3c4.5,2.4,9.4,3.6,14.5,3.6
			c6.2,0,11.6-1.8,15.9-3.2c2.1-0.7,4.1-1.4,5.5-1.6c6.9-1,13.8-3.5,19.9-5.7c1.2-0.5,2.5-0.9,3.7-1.3c5.1-1.8,10.6-3.1,16.4-4.5
			c7.2-1.7,14.7-3.5,22.2-6.4c11.1-4.3,20.8-9.7,29.7-16.5c7.4-5.7,12.9-12.1,18.2-18.4c1.5-1.8,2.9-3.4,4.4-5.1
			c11.8-13.3,17.2-29.9,16.6-50.9c-0.3-9.7-3.3-17.9-6-25.2c-1.3-3.6-2.6-7.1-3.3-10.3l-0.2-1c-1.6-6.7-3.8-15.8-10.7-22.1
			c-6.6-6.1-14.6-9.5-23-9.8c-1,0-2-0.1-3-0.1c-2.1,0-4.1,0.1-6,0.1c-1.8,0.1-3.4,0.1-5,0.1c-3.7,0-6.2-0.4-8.4-1.2
			c-1.2-0.5-2.5-0.9-3.9-1.2c7-7.3,14.8-13.8,23-20.7c8.3-7,17-14.2,24.9-22.5c1.3-1.3,2.7-2.7,4.3-4.1c4.9-4.5,10.5-9.6,14-17
			l1.1-2.3c6.4-13.5,13-27.5,17.9-42.4c0.4-1.1,0.7-2.2,1.1-3.3c2.6-7.8,5.6-16.6,5.5-26.5c0-1,0-4.1,0.3-4.9
			c5.6-7.9,6.2-18,1.6-26.6c-0.8-1.5-1.6-2.9-2.4-4.4c-3.7-6.7-6.9-12.5-7.9-18.8c-0.7-4.5-1.7-8.8-2.7-12.9c-1-4.3-2-8.3-2.4-12
			c-0.6-5.3-1.8-10-2.9-14.6c-1.1-4.3-2.1-8.3-2.4-12.1c-0.8-11.3-8.1-23.6-18.5-31.5c-0.1-0.2-0.2-0.4-0.3-0.6
			c-0.5-1-1.3-2.4-2.3-3.9c-1.5-2.2-2.9-4.6-4.4-7.2c-2.2-3.7-4.4-7.6-7.4-11.5c-1.5-2-3.2-3.6-4.5-4.8c-2-12.8-13.4-22.9-26.6-22.9
			c-2.3,0-4.7,0.3-6.9,1c-0.5,0.1-0.9,0.3-1.4,0.4c-3-1.3-6.1-2-9.4-2c-2.4,0-4.8,0.4-7.1,1c-3.9-2.3-7.7-2.9-10.6-2.9
			c-2.6,0-5.3,0.5-7.9,1.5C299.5,18.3,293,14.4,284.9,14.4L284.9,14.4L284.9,14.4z M316.3,185.5c0.7-1.6,1.6-3.4,2.7-5.3
			c0.3-0.6,0.6-1.2,0.9-1.8c1.7-3.3,2.7-6.6,3.1-9.7c0.2,1.9,0.2,3.8-0.1,5.6c-0.1,0.7-0.2,1.4-0.2,2.1c0,1.1,0,2,0.1,2.9
			c0,0.4,0,0.9,0,1.3c-1.3,1.5-2.2,3.1-2.8,4.7c-0.9,0.1-1.7,0.1-2.5,0.3c0,0-0.2,0-0.6,0C316.7,185.5,316.5,185.5,316.3,185.5
			L316.3,185.5z M134.2,259.9c0-0.1,0-0.1,0.1-0.2c2.5-8.6,5.4-11.6,9.5-13.7c2.9-1.5,6.6-3.5,10.4-6c1.7,1.2,3.7,2.4,6,3.5
			c-4.9,2.3-9.6,4.6-14.1,6.8C141,252.8,137,256.1,134.2,259.9L134.2,259.9z M133.7,425.3c-1.1-0.4-2.1-0.7-3-1
			c-5.9-1.9-8-2.8-9.8-5.3c-1.9-2.7-2.3-7.8-1.4-12c3.8,2.6,7.7,5.3,11.6,8c0.1,0.1,0.3,0.2,0.4,0.3c1.9,1.3,5.8,4,11.3,4.3
			C139.8,421.3,136.7,423.2,133.7,425.3L133.7,425.3z"/>
	</g>
</g>
</svg>
