<?xml version="1.0" encoding="utf-8"?>
<!-- Generator: Adobe Illustrator 24.1.0, SVG Export Plug-In . SVG Version: 6.00 Build 0)  -->
<svg version="1.1" id="Livello_1" xmlns="http://www.w3.org/2000/svg" xmlns:xlink="http://www.w3.org/1999/xlink" x="0px" y="0px"
	 viewBox="0 0 412 589" style="enable-background:new 0 0 412 589;" width="50" height="50" xml:space="preserve">
<style type="text/css">
	.st0{fill:#FEFEFE;}
</style>
<g>
	<g>
		<path class="st0" d="M123.3,577.7c-0.4,0-0.8,0-1.2,0c-4.7-0.1-9-1.3-12.8-2.3c-3.4-0.9-6.5-1.8-9.4-1.8c-0.1,0-0.3,0-0.4,0
			c-0.3,0-0.5,0-0.8,0c-5.4,0-10-1.7-14-3.2c-3.2-1.2-5.9-2.2-8.5-2.2h-0.1c-4.5,0-9.5-3-10.4-9.7c-1-7.1-0.8-14.3,0.6-21.7
			c-1.3-5-1.1-9.7-0.9-13.9c0.2-3.3,0.3-6.5-0.3-9.1c-0.4-1.7-1.2-3.5-2.1-5.4c-1.2-2.8-2.6-6-3.3-9.6c-1.2-6.5-1.3-13.5-0.2-22
			c0.3-2.2-0.4-2.8-0.8-3.2c-11.5-10.4-12.7-24-13.7-36l-0.1-0.6c-0.5-5.3-2.3-9.5-5.7-13c-4.4-4.5-9.1-10.3-10.7-18.2
			c-0.5-2.5-0.9-5.1-1.2-7.5c-0.7-5.2-2.3-9.7-5-14.2c-3.7-6.2-6.1-12.9-8.5-19.3c-0.4-1-0.7-2-1.1-3c-1.6-4.3-0.7-9.3,2.4-13.8
			c4-5.7,10.7-9.4,17-9.4c0.7,0,1.3,0,2,0.1c0.2,0,0.4,0,0.6,0c0.1,0,0.2,0,0.2,0c0.1-0.1,0.2-0.2,0.4-0.5c1.1-1.5,4.6-6.3,10.4-6.3
			c3.3,0,6.4,1.5,9.1,4.5c0.2,0,0.5,0.1,1,0.1c2.7,0,5.2,0.4,7.4,0.8c0.5,0.1,1.1,0.2,1.6,0.3c10.2,1.6,15.9,8.5,20.3,14.3
			c-1.1-4.8-1.7-9.6-2.3-14.4c-0.3-2.8-0.7-5.5-1.1-8.1c-0.7-4.4-2.4-7.8-5.4-10.6c-1.9-1.8-3.3-3.9-4.3-6.5
			c-2.8-7.3-6.2-15.8-10.5-23.4c-3-5.4-4.5-11.5-4.6-18.4c0-0.2,0-0.3,0-0.5c-1.2-0.2-2.4-0.6-3.5-1.2c-1.8-1.1-3.1-3-3.5-5.1
			c-0.4-2.4-0.3-4.6-0.2-6.6c0.1-1.8,0.1-3.3-0.2-4.2c-0.4-0.9-0.6-1.9-0.6-2.9v-4.3c0.1-14.6,0.2-29.8,1.9-44.7
			c1.4-12.6,5.6-25.2,13.6-40.8c1.1-2.2,2.1-4.6,3.1-7.2c1.6-4.2,3.3-8.6,6.2-12.9c3.8-5.7,8.6-12.2,14.8-17.8
			c-0.4-5.2,0.7-10.6,3.4-16.3c6.5-13.7,16.2-22.8,28.8-27c-0.6-8.6,2.6-17.5,9.2-25.3c6.4-7.5,15.2-13.3,24.4-15.9
			c5.1-1.4,11-2.9,17.3-3.5c2-6.2,7.2-9.7,10.9-12.3l0.6-0.4c8.4-5.8,18.2-9.1,31-10.4c5.2-0.5,11.7-1.2,18-1.2
			c7.4,0,13.8,0.9,19.7,2.8c19.1,6.1,33.5,17.1,42.6,32.6c1.2,2,3.4,5.7,3.5,10.5c7.3,4.1,12.7,10.1,16.3,18
			c12.7,3.3,23.3,10.7,30.7,21.4c9.4,13.5,10.9,28.1,4.3,42l-0.5,1.1c-1.4,3.1-3.1,6.8-6.3,9.9c2.1,7.6,1.5,14.2-1.8,20.2
			c1.5,6.9,0.4,13.2-0.6,18.9c-0.4,2.1-0.7,4.2-0.9,6.1c-0.6,5.4-3.8,9.2-6.3,12.1c-0.9,1.1-1.8,2.1-2.4,3
			c-2.2,3.4-2.2,7.7-1.7,12.9c0.1,0.1,0.3,0.2,0.4,0.3c0.9,0.8,2.1,1.7,3.2,2.9c3.2,3.7,5.9,7.9,8,13c3.4,8.2,6.8,11.9,12.2,13.4
			c1.2,0.4,2.5,0.5,3.8,0.5c5.9,0,11.3-4,14.1-10.3c0.9-2,1.6-4,2-5.9c0.5-1.8,0-3.8-1.4-5.5c-1.3-1.7-3.2-2.7-5.1-2.7
			c-0.2,0-0.5,0-0.7,0.1c-0.9,0.1-1.6,0.2-2.5,3.1l0,0c0,0,0,0,0.1,0c2.6,1.3,4.2,4,4.2,6.9c-0.1,2.9-1.9,5.5-4.6,6.7
			c-2,0.8-4,1.3-6.1,1.3c-6.2,0-11.6-4.1-13.6-10.3c-1.9-6-0.9-12.9,2.8-19.1c3.7-6.2,9.5-10.4,15.8-11.5c2.6-0.5,5.2-0.7,7.7-0.7
			c18.5,0,31.4,12.9,33,33c1.5,19-13.6,39.6-33,45.1c-6.9,1.9-13.7,2.9-20.3,2.9l0,0c-6.4,0-12.7-0.9-18.9-2.7
			c-4.2-1.2-8.2-3.3-12.1-6.1c-0.3,3.8-0.9,7.6-2.3,11.2c-0.7,2-0.6,2.8,1,4.4c6.7,6.9,12.1,14.9,16.5,24.2l0,0c2,0,4.1-0.4,6.4-0.8
			c2.7-0.5,5.7-1,8.9-1c0.3,0,0.6,0,0.9,0c3.7,0.1,14.9,0.4,21.2,11.1c4.3,7.3,1.2,12.9-1,15.6c-1.4,1.8-3.6,2.8-5.8,2.8
			c-0.6,0-1.2-0.1-1.8-0.2c-2.8-0.7-5-2.9-5.6-5.8c-0.5-2.3-1-2.5-1.5-2.7c-0.2-0.1-0.4-0.1-0.7-0.1c-0.9,0-2.2,0.4-3.7,0.8
			l-0.6,0.2c-1.7,0.5-3.4,0.9-5.2,1.3c0.1,0.7,0.1,1.3,0,2c0.2,0.2,0.4,0.3,0.6,0.4c1.8,1,3.1,2.6,3.7,4.6c0.5,2,0.3,4.1-0.8,5.8
			c-0.1,0.2-0.3,0.4-0.4,0.6c0.4,1.3,0.5,2.8,0.4,4.4c0,0.4-0.1,0.7-0.2,1.1c0,1.5-0.2,2.8-0.6,3.9c1.9,3.5,3,5.6,5,6.8
			c2.1,1.2,3.4,3.4,3.7,5.8c0.2,1.8-0.3,3.5-1.3,4.9c0.5,1.5,0.8,3,1,4.7c0.3,2.6-0.7,5.2-2.8,6.8c-0.1,0.1-0.2,0.1-0.3,0.2
			c0.1,0.8,0.3,1.6,0.5,2.5c0.6,3.4,1.3,6.9,1.4,10.5c0.3,6.8-2,13.3-6.3,17.8c-3.7,3.9-8.8,6-14.3,6c-2.2,0-4.5-0.3-6.8-1h-0.1
			c-2.7,1.5-5.4,2.5-8.2,3c0.2,0.1,0.4,0.3,0.6,0.4c6.4,4.7,10.9,11.1,12.8,18.1c2.1,7.9,4.7,14,8.1,19c4.8,7.3,1.9,11.3,1,12.6
			c-1.7,2.5-4.4,3.9-7.3,3.9c-2.4,0-4.2-1-5.2-1.5c-0.1,0-0.1-0.1-0.2-0.1s-0.1,0-0.2,0c-0.3,1.1-0.8,2.1-1.6,3
			c-0.7,0.9-1.6,1.6-2.6,2.1c-0.6,0.3-2,1-3.9,1c-0.7,0-1.4-0.1-2-0.3c-3.6-0.9-7.5-1.1-11.7-1.3c-6.6-0.3-14.1-0.7-21.2-4.2
			c-4-2-8.1-3-13.5-3.4c-4.5-0.3-7.3-3.1-8.8-4.6c-0.2-0.2-0.4-0.4-0.6-0.6c-1.8-0.5-3.3-1.6-4.3-3.2c-0.8-1.2-2.4-3.7-0.7-12.2
			c0.2-1.1,0.4-2.3,0.5-3.6c0.4-3.4,1-7.5,3-11.4c-1.2-3-1.3-6.4-0.5-10.1c0.2-0.9,0.2-2.3,0.1-3.7c-0.1-2.4-0.2-5.4,0.7-8.6
			c-1.4-2-2.6-4-3.7-5.9c-1.3-2.2-2.5-4.2-3.8-5.9c-3-3.6-4.8-8.2-5.3-13.3c-0.7-6.8-1.3-11.5-4.6-15.2c-3.3-3.7-4.3-7.9-4.6-11.6
			c-1.1,0-2.3-0.1-3.4-0.4c-0.5-0.1-1.1-0.2-1.6-0.2c0.8,4.3,0.2,9.3-4.6,14.2c-0.1,0.1-0.1,0.1-0.2,0.2c0.3,0.1,0.6,0.1,0.8,0.2
			c6.3,1.3,12,5.1,15.5,10.5c3.2,5,4.3,10.7,3.1,16.2c-1.7,7.8-7.4,12.6-14.9,12.6c-1.1,0-2.3-0.1-3.4-0.3c-3.3-0.6-5.8-3.3-6.1-6.6
			c-0.3-3.1,1-7,5.4-8.7c-1.7-2.1-4.4-3.3-9-3.9c-10.2-1.3-18-5.5-23.2-12.5c-1.1-1.5-2.1-3.1-2.9-4.7c-0.3,1.5-0.7,2.9-1.1,4.2
			c-0.1,0.4-0.2,0.8-0.3,1.1c-1.6,5.8-2.2,8.8-0.5,11.9c1.4,2.6,1.6,5,1.7,6.7v0.5c0.1,1.2,0.3,4.9-2.3,7.8L192,416
			c0.6,8.1-0.7,15.6-2,22.3c-0.7,3.6-1.3,6.9-1.6,10.3c-0.2,2.2-1.2,5.5-4.8,8c-1,0.7-2,1.5-3.1,2.2c-1.4,1-2.7,1.9-4.1,2.9
			c-3.4,2.5-7.2,3.8-11.2,3.8c-1.8,0-3.7-0.3-5.6-0.8c-0.5-0.1-1.1-0.2-1.7-0.2c-1.1,0-2.4,0.2-4,0.7c-2.9,0.9-6.1,1.4-9.4,1.4
			c-11.9,0-24.3-6.1-30.8-15.2c0,0,0,0-0.1-0.1c-5.7-2.1-8.6-6.3-10.4-10.1c1.3,4.8,2.3,9.8,2.9,15c0.5,4.9,3.2,9.4,6.3,14.3
			c1.4,2.2,2.5,4.6,3.5,6.6c0.9,2,1.8,3.8,2.8,5.2c2.3,3.3,3.6,6.9,4.7,10c1.5,4,2.4,6.6,4.5,8.2c4.5,3.6,4.6,8.7,4.6,11.4
			c0,0.5,0,1.3,0.1,1.6c1,4.4,1.6,4.6,2.4,5c4.6,2,6.3,6.2,7.1,8c0.9,2.2,1.9,3.9,3.3,5.2c5,5.1,8.1,11.3,9.2,18.4
			c0.4,2.3,1.9,4.4,3.9,7c1.1,0.8,3,2.5,3.5,5.3c0.4,2.2-0.1,4.6-1.5,6.5c-1.9,2.8-4.9,4.4-8.1,4.5c-1.8,2.2-4.5,3.4-7.7,3.4
			c-1,0-1.8-0.1-2.4-0.2c-0.9-0.1-1.8-0.2-2.8-0.2c-2.2,0-4.6,0.3-7.1,0.7C129.6,577.3,126.6,577.7,123.3,577.7z"/>
		<path d="M232.3,17.4c5.9,0,11.7,0.6,17.4,2.4c16.1,5.2,29.6,14.3,38.4,29.3c1.6,2.7,3.1,5.7,2.3,9.1c-0.3,1.4,0.1,2.2,1.6,2.9
			c7.9,3.6,13.2,9.6,16.4,17.6c0.6,1.5,1.5,1.8,2.7,2c11.7,2.7,21.3,9.1,27.9,18.8c7.3,10.5,9.5,22.3,3.7,34.5
			c-1.7,3.6-3.2,7.5-6.7,10c-1.9,1.4-1.5,3.2-1,4.9c1.9,5.9,2,11.5-1.4,16.9c-0.6,1-0.7,2.1-0.4,3.2c2.2,8-0.6,15.8-1.4,23.6
			c-0.5,4.7-5,7.9-7.6,11.9c-3.8,6.1-3.4,12.9-2.7,19.5c0.2,2,3.5,3.7,5.3,5.6c2.9,3.2,5,6.8,6.7,10.9c3.3,7.9,7.8,15.1,17.1,17.7
			c1.9,0.5,3.9,0.8,5.8,0.8c8.8,0,16.9-5.5,21-14.8c1-2.3,1.8-4.7,2.4-7.1c2.2-8.7-5-17.5-13.8-17.5c-0.6,0-1.2,0-1.8,0.1
			c-4.8,0.7-7.3,3.7-8.7,8.4c-1.3,4.3-0.1,7,3.9,9c-1.1,0.5-2.1,0.7-3.1,0.7c-3,0-5.4-1.9-6.5-5.1c-2.7-8.2,3.9-19.3,12.7-20.9
			c2.2-0.4,4.3-0.6,6.3-0.6c14.9,0,24.3,10.7,25.5,26c1.2,15.2-11.7,32.8-27.5,37.3c-6.2,1.7-12.2,2.6-18.3,2.6
			c-5.6,0-11.2-0.8-16.8-2.4c-5.9-1.7-10.7-5.3-14.9-9.6c-0.4-0.4-0.7-1.6-1.4-1.6c-0.3,0-0.6,0.2-1.1,0.7c-0.1,0-0.2,0-0.3,0
			c-0.2,0-0.4,0-0.5,0.1c-0.7-1.6,0.3-3.8-2.1-4.9c-1.1,2.2-1.5,4.3-1.4,6.9c0.3,6.1,0.3,12.5-1.9,18.2c-1.9,5.2-0.6,9,2.6,12.3
			c6.8,7.1,12,15.2,16,24.1c1,2.2,2.6,2.2,4.4,2.3c0.5,0,1,0.1,1.5,0.1c5.2,0,10.2-1.7,15.3-1.7c0.2,0,0.4,0,0.7,0
			c6.2,0.2,11.6,1.8,15,7.5c1.2,2,1.9,4.3-0.3,7c-0.8-4-2.5-6.7-5.9-8.1c-1.2-0.5-2.4-0.7-3.6-0.7c-2.1,0-4.2,0.6-6.2,1.2
			c-5.3,1.5-10.7,2.6-16.1,3.4c-0.1,1.5,1.2,1.3,1.6,1.9c1.4,1.8,4.8,1.8,3.6,6c-0.6,1.9,2.2,4.9,4.7,6.3c-1,1.7-2.6,1.1-4.1,1.6
			c1.5,2.1,3.3,4,3.1,6.6c-0.6,1.1,0.4,2.5-0.9,3.4c-0.7-0.3-1.5-0.7-3.4-1.5c4.7,6.1,5.9,13.1,12.1,16.8c-0.6,0.6-1.2,0.7-1.8,0.7
			c-0.4,0-0.8-0.1-1.1-0.1c-0.5,0-0.9,0.1-1.3,0.5c2.2,2.2,3.5,5,4,8.6c-1.1-0.4-2-1.3-2.9-1.3c-0.3,0-0.6,0.1-0.9,0.3
			c-1.1,0.9-0.1,2,0,3.1c0.5,5.8,2.3,11.6,2.5,17.3c0.3,8-4.4,16-13.1,16c-1.5,0-3-0.2-4.7-0.7c-0.7-0.2-1.5-0.3-2.3-0.3
			c-1.2,0-2.4,0.3-3.4,0.9c-3.3,1.8-6.6,2.7-9.9,2.7c-3.8,0-7.6-1.2-11.5-3.3c2.8,2.6,1.8,6.8,4.6,9.5c2.6,2.5,5.1,5,8.1,7.2
			c4.5,3.4,8.4,8.2,10,14c2,7.5,4.7,14.7,9,21.2c0.8,1.3,2,3,1.1,4.2c-0.4,0.5-0.8,0.7-1.2,0.7c-0.9,0-2-0.8-2.9-1.1
			c-1.1-0.4-2.2-0.5-3.4-0.5c-2,0-3.9,0.4-5.8,0.9c-3.4,0.8,0.3,3.3-1,5c0,0-0.4,0.2-0.7,0.2h-0.1c-10.4-2.7-21.7-0.1-31.5-5
			c-5.3-2.6-10.6-3.8-16.3-4.2c-3.4-0.3-4.5-4.2-7.9-4.9c-0.7-0.1-0.2-4.4,0.2-6.7c1.1-5.3,0.7-10.9,4.4-15.4
			c0.6-0.8,0.2-1.6-0.3-2.3c-1.6-2.2-1.6-4.8-1-7.2c1-4.5-0.8-9.1,1.3-13.5c0.7-1.4-0.3-3-1.2-4.3c-3.1-4.1-5-8.9-8.4-12.9
			c-2.1-2.6-3.3-5.9-3.6-9.2c-0.7-7-1.5-13.8-6.5-19.4c-3.3-3.8-2.8-8.6-2.7-13.2c0.1-1.5-0.2-2.3-1.1-2.3c-0.4,0-0.9,0.1-1.5,0.4
			c-1.4,0.7-2.9,0.9-4.5,0.9c-0.9,0-1.7-0.1-2.6-0.2c-2.3-0.4-4.6-0.5-6.9-0.5c-1.6,0-3.2,0-4.8,0c-0.9,0-1.8,0-2.7,0
			c2.8,5.4,7.2,10.8,1.5,16.7c-0.9,1-1.9,1.6-3.1,1.6c-0.7,0-1.4-0.2-2.1-0.7c5.4-5.4,4.4-9.1-3.5-13.6
			c-5.9,10.2-0.2,22.9,13.3,25.6c8.7,1.8,14.5,10.1,12.8,17.7c-1,4.4-3.6,6.8-7.5,6.8c-0.7,0-1.3-0.1-2.1-0.2c-0.1-1,0.7-1,1.3-1.2
			c4.5-1.7,6-5.8,3.5-9.9c-3.4-5.6-9.2-7.4-15-8.2c-19.9-2.6-25.3-17.9-22.6-34.7c0.2-1.1,0.3-2.2,0.5-3.3c1.3-1.4-0.4-2.3-0.9-2.3
			h-0.1c-1.7,0.4-0.5,1.9-0.8,3c-1.6,6-5,10.8-9.5,15c-1.1,1-2.4,2-1.6,3.9c1.7,4.1,0.2,8.2-0.8,12c-1.7,6-3,11.7,0.2,17.5
			c0.7,1.3,0.7,2.7,0.8,4.1c0.1,1.5-0.1,2.3-0.9,2.3c-0.6,0-1.5-0.6-2.9-1.7c3.8,13.9-1.1,26.1-2.3,38.6c-0.1,1.2-0.8,2-1.8,2.7
			c-2.4,1.7-4.8,3.4-7.1,5.1c-2.1,1.6-4.4,2.4-6.8,2.4c-1.1,0-2.3-0.2-3.5-0.5c-1.2-0.4-2.5-0.5-3.7-0.5c-2.1,0-4.2,0.4-6.2,1.1
			c-2.3,0.7-4.7,1-7.2,1c-9.3,0-19.4-4.7-24.7-12.1c-0.7-1-1.7-2.2-2.8-2.5c-5.7-1.7-7.1-6.6-9-11.2c-1.1-2.7-2.2-5.4-3.2-8.2
			c-0.6-1.7-1.7-3.2-3.2-3.7c-9-2.8-13.1-10.3-17.7-17.4c-1.9-3-3.6-6.3-7.2-8.6c1,5.3,3,9.8,5.2,14.2c7.7,15,14.9,30.2,16.8,47.3
			c0.7,6.6,4,12.1,7.5,17.6c2.5,3.9,3.9,8.5,6.4,12.1c4.4,6.3,4.3,14.7,10.8,19.8c2.6,2,1.4,5.8,2,8.7c1,4.4,2.3,8.3,6.8,10.2
			c1.7,0.7,2.4,2.4,3,3.9c1.2,2.9,2.7,5.5,4.8,7.7c3.9,4,6.3,8.8,7.1,14.4c0.7,4.4,3.3,7.9,6,11.2c0.5,0.7,2.1,0.9,1.2,2.2
			c-0.5,0.8-1.3,1.4-2.4,1.4c-0.2,0-0.3,0-0.5-0.1c-1.1-0.2-2.2-0.6-3.3-0.7c-0.1,0-0.1,0-0.2,0c-0.8,0-2.1,0.3-1.7,1
			c1.4,2.7-0.3,3.2-1.6,3.2c-0.6,0-1.1-0.1-1.2-0.1c-1.3-0.2-2.7-0.3-4-0.3c-5.5,0-10.8,1.4-16.3,1.4c-0.3,0-0.6,0-0.9,0
			c-7.7-0.2-14.9-4.1-22.4-4.1c-0.2,0-0.4,0-0.6,0c-0.2,0-0.4,0-0.5,0c-8.1,0-14.6-5.4-22.5-5.4h-0.1l0,0c-1.6,0-2.7-1-3-3.2
			c-0.9-6.9-0.6-13.7,0.7-20.4c0.1-0.3,0.2-0.6,0.1-0.8c-2.8-8,0.5-16.4-1.6-24.3c-1.3-5-4.3-9.3-5.2-14.5c-1.2-6.6-1-13.2-0.1-19.6
			c0.5-4.3-0.7-7.4-3.2-9.7c-9.6-8.6-10.5-20.1-11.5-31.7c-0.6-6.6-3-12.6-7.8-17.6c-4-4.1-7.5-8.6-8.7-14.5c-0.5-2.3-0.8-4.7-1.1-7
			c-0.8-6.1-2.7-11.5-5.9-17c-3.9-6.5-6.3-13.9-9-21.1c-2-5.4,5.5-13.1,12.4-13.1c0.4,0,0.7,0,1.1,0.1c0.5,0.1,1.1,0.1,1.5,0.1
			c3,0,5-1.2,6.7-3.6c1.4-2,2.8-3.2,4.4-3.2c1.2,0,2.5,0.7,3.9,2.4c1.4,1.6,3.8,2.2,6.2,2.2c2.6,0,5.2,0.6,7.8,1
			c8.4,1.3,12.6,7.6,17.2,13.5c3.6,4.7,8.1,8.3,14,10.6c0.5-4.4,0.9-8.4-0.6-12.5c-3.3-9.2-3.6-18.9-5.1-28.4
			c-1-5.9-3.4-10.8-7.7-14.9c-1.2-1.1-1.9-2.3-2.5-3.8c-3.2-8.3-6.6-16.5-10.9-24.4c-2.6-4.6-3.6-9.6-3.6-14.9
			c-0.1-5.4-2.4-10.1-3.5-15.2c-0.3,0.1-0.7,0.1-1,0.2c-0.7,2.4-1.3,4.8-2,7.2c-0.2,0-0.4-0.1-0.5-0.2l0,0c-0.7-4.1,0.7-8.4-1-12.4
			c0.1-16.1,0-32.2,1.8-48.2c1.5-13.5,6.7-26.1,12.9-38.2c3.2-6.3,4.8-13.4,8.8-19.4c4.2-6.3,8.7-12.3,14.5-17.1
			c1.2-1.1,2.1-1.8,1.8-3.7c-0.9-4.9,0.3-9.6,2.5-14.2c5.7-11.9,14.2-20.6,27.3-24c2.2-0.6,2.9-2.2,2.6-4.1
			c-3.1-16.3,12.7-31.8,27.8-36.1c6.5-1.8,13-3.3,19.8-3.4l0,0c0.3,0,0.7,0.1,1,0.1c0.6,0,1-0.2,1-1.2c-0.2-6.5,4.7-9.5,9.1-12.6
			c8.3-5.7,17.8-8.1,27.6-9.1C220.8,18,226.6,17.4,232.3,17.4 M284.5,251.7c0.1,0,0.2,0,0.3,0c1.3-0.2,1.4-1.5,1.3-2.7
			c-0.1-1,0.1-2.4-1.2-2.4c-0.1,0-0.2,0-0.3,0c-1.7,0.2-0.7,1.8-1,2.7C284,250.1,283,251.7,284.5,251.7 M290.2,261
			c3.1-4.7,3.4-10.1,1-12.6C290.3,252.5,289.9,256.4,290.2,261 M293.3,272.9c-1.8-2.9-0.2-6-1.3-9c-2.7,2.7-2.2,6.1-3.5,8.9
			c-0.4,1,0.2,1.9,1,2.5c2.8,2.3,5.6,4.5,8.8,7.1c0-5.9,0.4-11.2-0.1-16.4c-0.5-5.2,1.2-10.5-0.7-15.9
			C292.5,257.2,294.2,265.1,293.3,272.9 M287.5,272.4c0.8-6.8,0.7-13.3-0.9-20.3c-1.4,1.3-2.6,2.1-2.8,3.9c-0.3,2.5-0.7,5-1.1,7.4
			C281.7,269.3,281.7,269.3,287.5,272.4 M305.5,288.3c1.3,0,1.3-2.6,1.4-4c0.2-4.8,0.1-9.7,0.1-14.5c-1.2,0.5-0.7,2.8-2.5,2.9
			c0-5.6-0.1-11.2-0.1-16.8c0-1.7-0.1-3.4-2-3.4l0,0c-1.7,0-1.2,1.9-1.2,3c-0.2,5.4-0.3,10.9-0.2,16.3c0,2.2-0.8,4.7,0.9,6.8
			c-0.3,1.5-0.6,3-0.7,4.5c-0.2,2.9,2.2,4.6,4.1,5.1C305.3,288.3,305.4,288.3,305.5,288.3 M278.4,259.2c0.2,0,0.5,0,0.8-0.1v0.1l0,0
			l0,0c-1.7,1.8-1.6,4.1-1.3,6.3c0.1,0.9,0.7,1.9,1.7,1.9c0.3,0,0.6-0.1,1-0.3c1.2-0.8,0.1-6.8-1.3-7.9l0.1-0.1c0,0,0,0-0.1,0
			c1-1.7,2.6-3.3,1.2-5.6c-1.7,0.8-2.3,2.4-2.8,3.9C277.2,258.4,277.4,259.2,278.4,259.2 M244.2,347.1c-2.7-2.8-5.6-5.3-3.7-9.4
			c0.4-0.9-0.5-1.5-1.3-1.8c-0.1,0-0.2-0.1-0.3-0.1c-0.6,0-0.8,0.7-1.1,1.2C235,341.8,237.9,346.9,244.2,347.1 M232.3,2.4L232.3,2.4
			c-6.7,0-13.4,0.7-18.7,1.3c-14,1.4-25.3,5.3-34.6,11.7l-0.5,0.4c-3.1,2.1-8.3,5.7-11.7,11.5c-5.2,0.8-10,2-14.3,3.2
			c-10.6,3-20.8,9.6-28.1,18.3c-6.5,7.7-10.2,16.3-10.9,25C101.4,79.3,92,89,85.4,102.7c-2.7,5.6-4.1,11-4.2,16.3
			c-5.6,5.5-9.9,11.5-13.5,16.8c-3.3,5-5.3,10-7,14.4c-0.9,2.4-1.8,4.6-2.7,6.5c-10.9,21.3-13.5,35-14.4,43.4
			c-1.7,15.4-1.8,30.7-1.9,45.5v4.3c0,1.7,0.3,3.5,0.9,5.1c0,0.5,0,1.2,0,1.8c-0.1,2.1-0.2,4.9,0.3,8.1c0.7,4.3,3.2,8,6.9,10.3
			c0.1,0,0.1,0.1,0.2,0.1c0.6,6.3,2.4,12.1,5.3,17.3c4,7.3,7.3,15.4,10,22.5c1.4,3.7,3.5,6.8,6.2,9.3c1.8,1.6,2.7,3.5,3.2,6.3
			c0.1,0.8,0.2,1.5,0.3,2.3c-2.6-1.2-5.5-2.1-8.8-2.7c-0.5-0.1-1-0.2-1.5-0.3c-1.9-0.3-4.1-0.7-6.5-0.9c-4.5-3.7-9-4.6-12.3-4.6
			c-5.4,0-10.1,2.2-14.2,6.6c-8.6,0.2-17.4,5.1-22.7,12.7c-4.5,6.5-5.7,14-3.2,20.7c0.4,1,0.7,2,1.1,2.9c2.4,6.5,5,13.8,9.1,20.6
			c2.2,3.6,3.4,7.1,4,11.3c0.3,2.5,0.7,5.2,1.3,7.9c2,10,7.8,17,12.6,22c2.2,2.3,3.3,4.9,3.7,8.5l0.1,0.6
			c1.1,12.1,2.4,27.1,14.5,39.2c-1,8.6-0.8,15.8,0.5,22.7c0.9,4.5,2.5,8.3,3.8,11.3c0.7,1.6,1.4,3.2,1.7,4.3
			c0.4,1.5,0.3,4.1,0.1,6.8c-0.2,4.2-0.5,9.1,0.7,14.6c-1.2,7.6-1.3,15.1-0.3,22.4c1.3,9.5,8.6,16.2,17.9,16.2h0.1l0,0
			c1.3,0,3.6,0.9,5.9,1.7c4.4,1.6,9.8,3.6,16.6,3.6c0.3,0,0.7,0,1,0c0.1,0,0.1,0,0.2,0c1.8,0,4.5,0.7,7.4,1.5
			c4.2,1.1,8.9,2.4,14.5,2.6c0.5,0,0.9,0,1.4,0c3.7,0,7.1-0.5,10.1-0.9c2.3-0.3,4.4-0.6,6.2-0.6c0.6,0,1.2,0,1.7,0.1
			s1.8,0.3,3.6,0.3c4.4,0,8.3-1.4,11.3-3.9c4.2-1,8-3.6,10.6-7.3s3.5-8,2.7-12.3c-0.5-2.6-1.9-6.2-5.6-9.2c-0.8-1-1.7-2.3-1.8-2.8
			c-1.4-8.7-5.1-16.3-11.2-22.5c-0.4-0.4-1-1.1-1.7-2.8c-0.8-2-3.1-7.6-9-11c0-0.1,0-0.2-0.1-0.3c0-0.2,0-0.4,0-0.6
			c-0.1-3.1-0.2-11.4-7.5-17.2c-0.5-0.4-1.6-3.3-2.1-4.9c-1.2-3.4-2.7-7.6-5.6-11.8c-0.6-0.9-1.4-2.5-2.1-4.1
			c-1.1-2.3-2.3-4.8-4-7.5c-0.1-0.1-0.1-0.2-0.2-0.3c7.5,5,16.7,7.9,25.9,7.9c4.1,0,8-0.6,11.7-1.7c0.9-0.3,1.4-0.4,1.6-0.4
			c2.4,0.7,4.9,1,7.3,1c5.6,0,10.9-1.8,15.6-5.3c1.3-0.9,2.6-1.9,3.9-2.8c1-0.7,2.1-1.5,3.1-2.2c6.2-4.4,7.6-10.3,7.9-13.4
			c0.3-3,0.9-6.2,1.5-9.6c1.2-6.2,2.5-13.5,2.3-21.4c1.8-3,2.6-6.6,2.3-10.7c0-0.1,0-0.3,0-0.4c-0.1-1.2-0.2-3.1-0.8-5.3
			c4.2,2.7,9.6,5,16.4,6.2c-0.6,2-0.8,4.1-0.6,6.3c0.7,6.7,5.7,12.1,12.2,13.3c1.6,0.3,3.2,0.4,4.8,0.4c7.5,0,14-3.4,18.1-9.2
			c0.4,0.6,0.7,1.2,1.1,1.9c-0.4,2.9-0.3,5.4-0.2,7.4c0,0.7,0.1,1.5,0,1.9c-1,4.3-0.8,8-0.2,11.1c-1.6,4.1-2.1,8-2.5,11
			c-0.1,1.2-0.3,2.3-0.5,3.1c-2.1,10.2-0.2,14.8,1.8,17.9c1.6,2.4,3.8,4.3,6.4,5.5c2.1,2,6.3,5.7,12.9,6.2c4.4,0.3,7.7,1.2,10.8,2.7
			c8.5,4.2,17.2,4.7,24.2,5c3.8,0.2,7.4,0.4,10.1,1.1c1.3,0.3,2.6,0.5,4,0.5c2.5,0,4.9-0.6,7.2-1.7c1.5-0.7,2.9-1.7,4.1-3
			c0.8,0.1,1.6,0.2,2.4,0.2c5.4,0,10.3-2.6,13.5-7c3.3-4.6,4-10.5,1.9-16c-0.9-2.3-2-4-2.7-5.1c-2.9-4.4-5.2-9.8-7.1-16.9
			c-1-3.9-2.7-7.6-5-11c7.4-0.1,14.2-3.1,19.2-8.4c5.7-6,8.8-14.5,8.4-23.3c-0.2-3.7-0.8-7.2-1.3-10.4c2-3,2.9-6.6,2.5-10.2
			c-0.1-1-0.3-2-0.5-3c0.7-2,1-4.2,0.8-6.4c-0.4-4.8-3.1-9.1-7.3-11.5c-0.2-0.2-0.6-0.8-0.9-1.4c0.1-0.7,0.2-1.4,0.2-2.1
			c0.1-0.4,0.1-0.8,0.1-1.2c0.1-1.3,0.1-2.5-0.1-3.7c0.3-0.8,0.6-1.6,0.7-2.4c1.1,0.6,2.4,1.1,3.7,1.4c1.2,0.3,2.4,0.4,3.6,0.4
			c4.5,0,8.8-2,11.6-5.5c5.8-7.2,6.4-16,1.6-24.1c-5.6-9.5-14.8-14.4-27.5-14.8c-0.4,0-0.7,0-1.1,0c-3.9,0-7.2,0.6-10.2,1.1
			c-0.3,0-0.6,0.1-0.8,0.1c-4-7.4-8.6-14-14.1-19.9v-0.1c1.5,0.6,3,1.1,4.5,1.6c6.9,2,14,3,21,3c7.3,0,14.8-1.1,22.3-3.2
			c22.6-6.4,40.2-30.6,38.4-52.9c-1.9-23.8-18.1-39.9-40.5-39.9c-2.9,0-5.9,0.3-9,0.8c-8.5,1.5-16.1,7-20.9,15.1
			c-1.1,1.9-2.1,3.8-2.8,5.8l-0.1-0.1c-0.1-2.3,0.1-4.1,0.8-5.2c0.3-0.4,1.1-1.3,1.7-2.1c2.9-3.4,7.3-8.5,8.1-16.3
			c0.2-1.7,0.5-3.6,0.9-5.6c1-5.4,2.1-11.9,1-19.1c2.6-5.9,3.3-12.4,2.1-19.2c2.4-3.1,3.9-6.4,5-8.8c0.2-0.4,0.3-0.7,0.5-1.1
			c7.6-16.2,5.9-33.8-4.9-49.4c-7.8-11.2-18.7-19.3-31.7-23.4C316,61,311.1,55.5,305,51.4c-0.9-4.5-2.9-7.9-4.1-9.8
			c-10.1-17.2-25.8-29.3-46.7-36C247.6,3.5,240.5,2.4,232.3,2.4L232.3,2.4L232.3,2.4z"/>
	</g>
	<g>
		<path class="st0" d="M341.1,363.4c-3.3,0-6.4-2.3-7.2-5.6l-0.3-1.3c-1-3.9,1.3-8,5.2-9.1c0.7-0.2,1.4-0.3,2-0.3
			c3.2,0,6.2,2.1,7.2,5.3l0.1,0.2c0.2,0.5,0.4,1.4,0.6,2.5c0.4,3.9-2.2,7.5-6.1,8.2C342,363.3,341.5,363.4,341.1,363.4z"/>
		<path d="M340.8,354.6c0.1,0.4,0.3,0.8,0.3,1.2C341,355.4,340.9,355,340.8,354.6 M340.8,339.6c-1.4,0-2.7,0.2-4.1,0.6
			c-7.8,2.2-12.5,10.3-10.4,18.2l0.3,1.2c1.7,6.7,7.8,11.2,14.5,11.2c0.9,0,1.8-0.1,2.7-0.3c7.7-1.4,13.1-8.6,12.2-16.4
			c-0.2-1.8-0.6-3.2-0.9-3.9v-0.1C353.1,343.8,347.2,339.6,340.8,339.6L340.8,339.6z"/>
	</g>
</g>
</svg>
