<?xml version="1.0" encoding="utf-8"?>
<!-- Generator: Adobe Illustrator 24.1.0, SVG Export Plug-In . SVG Version: 6.00 Build 0)  -->
<svg version="1.1" id="Livello_1" xmlns="http://www.w3.org/2000/svg" xmlns:xlink="http://www.w3.org/1999/xlink" x="0px" y="0px"
	 viewBox="0 0 474 627.9" style="enable-background:new 0 0 474 627.9;" width="50" height="50" xml:space="preserve">
<style type="text/css">
	.st0{fill:#FEFEFE;}
</style>
<g>
	<path class="st0" d="M192.1,615.7c-5.7,0-14-0.5-22.3-4.9c-8.1,2-16.4,3-24.9,3c-9,0-18.6-1.1-28.3-3.4c-0.2,0-0.3-0.1-0.5-0.1
		c-0.6,0.1-1.2,0.2-1.8,0.2c-0.6,0-1.1-0.1-1.7-0.2c-2.2-0.5-4-1.9-5-3.9c-0.4-0.2-1.2-0.4-1.8-0.6c-0.8-0.3-1.8-0.5-2.7-0.9
		c-0.1,0-0.6-0.2-0.9-0.2c-1.9-0.4-5-1.2-7.5-3.9c-0.6-0.7-0.9-0.8-1.8-0.8c-1.1,0-2.5,0.2-3.9,0.5c-3.9,0.7-7.8,1.1-11.4,1.1
		c-10.8,0-20.7-3.1-29.4-9.3c-3.3-2.4-8.4-7.8-4.7-17c3.6-9.1,10.5-15.7,20.3-19.7c1.5-5.2,5-9.6,10-12.3
		c0.2-14.1,6.8-25.2,19.5-32.2c7.3-4,15.1-6.1,23.3-6.1c2.6,0,5.2,0.2,7.8,0.6c1.1-3.2,3.1-5.6,4.5-7.4c0.3-0.4,0.7-0.8,1-1.2
		c0.4-0.5,0.8-0.9,1.1-1.3c0-1.5,0.2-2.8,0.4-3.9c0.1-0.6,0.2-1.6,0.2-1.9c-3.8-6.7-5.6-16.3-4.3-25.6c-4,1.6-8.5,2.5-13.2,2.5
		c-6.3,0-12.4-1.6-17.7-4.7c-6.8-3.9-10.7-11.2-10.4-19.4c0.2-7.9,5-14.5,12.5-17.3c1.5-0.5,3.3-1.1,5.4-1.1c4.4,0,8,2.5,10.1,6.7
		c0.9,1.8,1,3.9,0.2,5.8s-2.2,3.4-4,4.2c-1.9,0.8-3.6,1-4.9,1c-0.3,0.5-0.2,0.7-0.2,1c0.1,0,0.4,0.1,0.7,0.1
		c0.6,0.1,1.1,0.1,1.7,0.1c5.7,0,10.3-4.7,11.6-11.6c0.9-4.6,0.7-9.7-0.6-15.9c-2.2-11-3.9-22.8,0.7-34.9c0.2-0.4,0.3-0.9,0.5-1.3
		c-0.2,0.1-0.3,0.2-0.5,0.3c-1.6,0.9-3.1,2.3-3.7,6.1c-2.9,18.4-14.2,31.8-33.6,40c-6.8,2.8-13.8,4.3-20.8,4.3
		c-6.3,0-12.7-1.2-18.9-3.5c-1.1-0.4-2.1-0.6-3.1-0.6c-2,0-4.1,0.9-6.5,2.7c0.3,0.3,0.8,0.7,1.4,1.1c1.8,1,3.2,2.7,3.7,4.6
		s0.2,4.1-0.8,5.9c-1.1,1.8-3.3,4-7.4,4.3c-0.6,0.2-1.2,0.2-1.8,0.2c-1.3,0-2.5-0.3-3.7-1c-6.5-3.7-10.4-9.2-11-15.6
		c-0.7-7.3,2.9-14.7,10.2-20.8c5.5-4.7,12.3-7,20.3-7c0.9,0,1.8,0,2.8,0.1l1,0.1c1.9,0.1,4.1,0.2,6.4,0.8c1.4,0.4,2.8,0.5,4.1,0.5
		c5.3,0,9.8-3,15.6-10.3c4.5-5.7,5.7-9.8,4.5-15.3c-2.7-11.4,5.7-20.5,9.3-24.4c3.7-4,7.8-8,12.9-10.9c-2.2-7.2-3.8-14-4.7-20.6
		c-3-21.8,1.8-40.5,14.3-55.5c0-0.2,0-0.3-0.1-0.5c-0.1-0.7-0.2-1.5-0.2-2.4c-0.4-11.6,2.8-20.8,9.8-28c7.4-7.7,16.6-11.4,28-11.4
		c2.3,0,4.7,0.1,7.3,0.5c0.6-1.9,1.6-3.7,2.9-5.3c-0.1-1.9,0.5-5.1,4.2-7.6c1.7-1.2,3.8-1.8,5.9-1.8c0.6,0,1.2,0,1.8,0.1
		c0.9-1.7,2-3.3,3.2-4.7c-5.7-2.2-9.4-7-9.8-12.7c-15.2-8.3-11.8-23.3-10.5-29c2.1-9.3,7.4-14.7,12.5-18c-0.2-1.4,0-2.8,0.6-4.1
		c0.8-1.7,2.1-3.7,4.3-5.4c-0.3-0.9-0.4-1.9-0.3-3c0.1-0.9,0.3-1.9,0.8-3c-2.2-0.5-4.1-2-5.1-4.1c-1.5-3.2-0.6-7,2.2-9.1
		c3.5-2.6,7.6-4.1,11.8-4.1c0.6,0,1.3,0,1.9,0.1c0.7-2.2,2.2-4.6,4.5-7.6l0.3-0.3c3.1-4,6.5-4.8,8.8-4.8c1.9,0,4.5,0.6,7.1,3
		c0.7-0.4,1.5-0.9,2.6-1.1c0-1.8,0.6-3.6,1.6-5c1-1.5,2.5-2.7,4.3-3.5c-0.6-1.2-1-2.2-1.3-2.9c-1.2-2.9-3.5-10.4-0.4-16.5
		c0.3-0.5,0.5-1,0.7-1.5c2.4-4.9,5.4-10.9,12.6-15.1c4.1-2.4,9.7-5.1,16.4-5.1c1.4,0,2.9,0.1,4.4,0.4c0.5-1.2,1.4-2.4,2.7-3.6
		c1.6-2.7,4.3-4.2,7.3-4.2c1.2,0,2.2,0.2,3.1,0.6c-0.1-1.3,0.1-2.6,0.6-3.9c1.4-3.6,4.8-5.8,7.8-6.7c0.9-2.4,2.3-3.8,3.8-4.8
		c0.1-1.2,0.5-2.4,1.2-3.5c1.4-2,3.6-3.3,6-3.3c0.3,0,0.6,0,0.9,0c1.1,0,3.3,0,5.7,0.9c2.9-7.3,8.7-10,13.9-10c3,0,6.1,0.8,9.4,2.5
		c0.4,0,0.9-0.1,1.4-0.1c6.6,0,12.2,4.5,13.5,10.7c1.2,0.7,2.8,1.9,4.1,3.7c0.5-0.1,1.1-0.1,1.6-0.1c3.1,0,6,1.6,7.8,4.2
		c1.6,2.6,2,5.8,1,8.6c0.1,0.3,0.3,0.5,0.4,0.8c0.2,0.5,0.5,1,0.7,1.6c2.1,0.5,4,1.7,5.3,3.4c2.7,3.5,2.2,7.5,1.6,10.2
		c1.9,2,3,4.7,3.1,7.4c0,0.2,0,0.4,0,0.5c3.8,0.7,5.8,3.5,6.6,4.6c2.7,2,3.3,4.5,3.5,6c0,0,0,0.1,0,0.1c0.8-0.1,1.6-0.1,2.4-0.1
		c8.7,0,15.2,4.7,19.3,8.3c0.8,0.7,1.6,1.3,2.4,2c4.4,3.7,9.4,7.9,12.5,14.2c4.2,8.5,4.6,17.3,1.4,25.5c-0.8,4.2-2.9,6.2-4.9,7.1
		c3.2,1.5,6,3.6,8.6,5.8c1.8,1.5,2.7,3.7,2.6,6c2.1,3.1,2.5,6.7,2.7,8.3c0.4,3.3-1.5,6.6-4.6,7.8c-0.9,0.4-1.9,0.6-2.9,0.6
		c-2.3,0-4.4-1-5.9-2.9c-0.3-0.4-0.6-0.7-0.7-0.8c0.8,3.8,2.7,7.4,4.7,11.3c2,3.9,4.1,7.9,5.5,12.5c0.9,3,2.5,8.6-1.3,14.6
		c-0.9,1.4-1.6,3.2-2.4,5.2c-1.1,2.7-2.3,5.8-4.4,8.7c0.2,0.3,0.3,0.7,0.5,1c1.7,3.3,3.2,6.4,5.1,8.1c0.8,0.7,1.6,1.3,2.3,2
		c6,5.1,12.7,10.8,14.9,20.5c14.6,8.4,16.9,20.2,16.2,28.7c0,0.5,0.2,0.9,2.5,2.9c0.4,0.3,0.8,0.7,1.1,1
		c17.2,15.6,26.4,35.2,27.4,58.4c0.7,16.7-3.8,31.4-13.5,43.7l-0.7,0.9c-4.6,6-9.9,12.7-18.6,15.9c0,0.1-0.1,0.2-0.1,0.2
		c-1.8,3.2-4.3,7.1-8,10.1c10.4,1.5,18.4,6,24.5,13.8c5.2,6.7,7.6,18.9,2.4,26.9c-1.4,2.2-3.8,3.4-6.3,3.4c-0.7,0-1.4-0.1-2-0.3
		c-3.2-0.9-5.4-3.8-5.4-7.1c-0.1-4.2-0.2-5.9-1.3-7.3c-1.8-2.3-7.9-4.9-13.2-4.9c-0.4,0-0.7,0-1,0c-2.2,13.1-9.6,22.9-16.6,30.8
		c-3.1,3.5-6.2,7.3-8.1,11.5c-1.8,4.1-1.2,5.2,1.1,7.2c2.1,1.8,3.2,3.9,3.4,6.3c0.2,2.3-0.6,4.4-2.2,6.3c-0.1,0.2-0.3,0.4-0.5,0.6
		c0,0-1.5,1.7-1.5,1.7c-1.4,1.7-3.5,2.6-5.7,2.6c-0.6,0-1.2-0.1-1.8-0.2c-2.8-0.7-4.9-2.9-5.5-5.7c-0.1-0.4-0.1-0.7-0.2-1.1
		c-8-7.5-9.8-19.2-4.9-30.5c-0.6,0.1-1.2,0.1-1.8,0.1c-2.1,0-4.2-0.3-6.2-0.9c-0.1,0-0.2-0.1-0.4-0.1c-0.6,0-1.5,0.3-2.5,0.6
		c1.8,9.1,2.5,18.5,2.2,28c-0.5,14.6-3.4,26.3-9.2,36.8l-0.5,0.9c-1.9,3.4-3.5,6.3-3.4,7.6c0,0.7,0.7,2.6,5,7.5
		c3.6,4.1,2.7,8.1,1.8,10.1c-1.2,2.8-4,4.5-6.9,4.5c-1,0-1.9-0.2-2.9-0.6c-4.4-1.9-8-4.4-10.8-7.7c5.5,13.3,5.3,26.8-0.8,40.2
		c-1.2,2.7-3.9,4.4-6.8,4.4c-0.2,0-0.3,0-0.5,0c-3.1-0.2-5.8-2.4-6.7-5.4c-1.3-4.6-0.8-8-0.2-10.8c0.7-2.9,0.7-5.9,0.1-9
		c-0.3-1.7-2-3.7-3.7-5.7c-0.5-0.6-0.9-1.1-1.3-1.6c-1-1.2-2.1-2.4-3.4-3.7c-0.4,1-0.8,1.9-1.4,2.9c-2,3.8-4.9,6.4-7.2,8.4
		c-0.7,0.7-1.5,1.3-2.1,1.9l-0.9,0.9c-2.3,2.2-3.6,3.6-4.4,5.7c-1,2.6-3.3,4.5-6,4.9c-0.3,0-0.7,0.1-1,0.1c-2.4,0-4.6-1.1-6.1-3.1
		c-0.2,0.8-0.4,1.6-0.6,2.4l-0.3,0.9c-0.4,1.3-0.8,2.7-0.7,3.2c2.1,6.2-2.4,10.3-3.8,11.7l-0.2,0.2c-8,7.4-17.8,9.6-27.2,11.3
		c-4.5,0.8-8.9,1.2-13.1,1.2c-5.1,0-10-0.6-14.8-1.7c-5.8,6.4-13.9,10.2-23.4,10.9C199.4,615.4,195.8,615.7,192.1,615.7z M285,558.6
		c0.2,0.5,0.5,1,0.7,1.5c0.1,0.3,0.3,0.7,0.4,1c0.6-2.1,1.8-4.2,3.4-5.7c7.6-7.2,7-16.2,4.5-23.4c-2.4,2.3-5,4.1-7.3,5.5
		c0,0,0,0,0,0.1c-0.4,5.5-0.6,10.6-0.2,16C286.6,555.4,286,557.2,285,558.6z M327.8,520.5c0.1,0.2,0.1,0.4,0.2,0.6
		c1.4,4.5,3.5,8.8,5.9,13.3c-0.8-2.9-1.2-6-1.3-9.4c-0.1-2.4-0.1-5,0.2-7.8C331.2,519.2,329.4,520.1,327.8,520.5z"/>
	<path d="M295.7,20.3c1.9,0,4.1,0.7,6.5,2c0.5,0.3,0.6,1,1.3,1c0.2,0,0.4,0,0.7-0.1c0.7-0.3,1.4-0.4,2.1-0.4c3.1,0,5.9,2.2,6.3,5.4
		c0.2,2.1,1.2,3.2,2.7,3.9c1.5,0.7,2.7,1.6,3.2,3.3c0.6,2.1,1.4,3.1,2.8,3.1c0.8,0,1.6-0.3,2.7-1c0.6-0.4,1.2-0.5,1.6-0.5
		c1.6,0,2.1,2,1.6,3.1c-2.1,4.5,3,7.4,1.9,11.5c-0.1,0.5,0.5,0.8,1,0.8c0.1,0,0.3,0,0.4-0.1c1-0.3,1.8-0.4,2.4-0.4
		c3.4,0,2.3,4,1.8,5.9c-0.6,2.5-0.7,3.7,1.5,5c1.7,1,2.3,3.6,1.1,4.4c-3,2.1-0.8,3.3,0.1,5c0.8,1.5,1.8,2.1,2.9,2.1
		c0.7,0,1.4-0.2,2.2-0.5c0.4-0.2,0.8-0.3,1.2-0.3c1.8,0,2.2,2.3,3.6,3.1c1.9,1.1-0.3,1.7-0.7,2.6c-0.6,1.6-1.1,4.6-0.2,5.3
		c0.9,0.7,2.3,1.1,3.7,1.1c0.7,0,1.4-0.1,2-0.3c2-0.7,4-1,5.8-1c5.5,0,10.2,2.8,14.4,6.5c4.8,4.1,10.2,7.9,13.1,13.8
		c3.1,6.4,3.8,13,1,19.8c-0.4,0.9-0.2,2.8-1.4,2.8c-0.4,0-0.9-0.2-1.6-0.7c-0.7-0.7-1.3-1.4-2-2c0.4-3.7-1.8-5.5-4.8-6.7
		c-0.7-0.6-1.4-1-2-1c-0.6,0-1.2,0.4-1.6,1.3c-0.2,0.5,0.3,0.6,0.9,0.6c0.3,0,0.6,0,0.8-0.1c4.9,3.8,5.6,6.3,2.9,10.6
		c-2.2,2.3-4.9,4.3-6.6,7.4c2.5-0.3,4.7-2,7.2-2c0.8,0,1.6,0.2,2.5,0.6c-1.8,1.4-3.3,2.5-6,4.6c1.6-0.4,3.1-0.6,4.5-0.6
		c5.2,0,9.1,2.6,13.1,6.1c-2.3,0-3.8,0-5.2,0c0.4,1.6,1.8,2,3,2.3c3.3,0.7,4.5,3,5,7.2c-2.2-2.8-4.4-3.8-6.9-3.8c0,0-0.1,0-0.1,0
		c-5.6,0.1-8,3.8-7,8.9c1.8,9,7.9,16,10.4,24.6c0.9,3.1,1.4,5.6-0.4,8.4c-3,4.7-3.9,10.5-7.6,14.8c-0.8,0.9-1.4,3.1-0.9,4
		c2.6,4.8,4.7,10.4,8.7,13.8c6.7,5.9,14,10.8,15.2,20.5c0.2,1.5,1.4,1.8,2.5,2.5c8.7,4.8,13.9,11.8,13.2,22.1c-0.4,5,3.3,7.5,6.1,10
		c15.8,14.3,24.1,32.1,24.9,53.1c0.6,14.1-2.8,27.2-11.9,38.8c-5,6.5-9.6,12.8-18,15c-1.4,0.4-1.5,1.9-2.1,3
		c-2.3,4.2-5.1,8-9.5,10.2c-4.7,2.3-0.8,5.7-1.1,8.6c-0.2,1.8,0.8,2.1,1.9,2.1c0.6,0,1.2-0.1,1.7-0.1c0.1,0,0.1,0,0.2,0
		c9.6,0.4,17.8,3.5,23.9,11.3c3.8,4.9,5.1,13.6,2,18.3c-0.1-4.3-0.1-8.2-2.9-11.8c-3.6-4.6-12.1-7.8-19.1-7.8c-2.6,0-5,0.4-6.9,1.4
		c-1.3,0.7-1.2,1.8-1.3,2.8c-1.4,11.6-7.6,20.7-15.1,29.1c-3.6,4.1-7.1,8.4-9.3,13.5c-2.9,6.5-2.2,11.4,3.1,15.9
		c1.5,1.3,0.5,1.6,0,2.4c-0.1,0.1-0.1,0.1-0.2,0.2c-0.5,0.6-0.9,1.1-1.4,1.7c-0.3-1.5,0-2.9-1.5-4.2c-8.2-6.8-6.9-17.1-3.4-24.1
		c3.4-6.9,8.7-12.6,12-19.6c2.1-4.5,3.2-9.2,3.2-14.1c0-2.1-0.3-3.4-2.7-3.4c-0.1,0-0.3,0-0.4,0c-0.2,0-0.4,0-0.6,0
		c-3.3,0-6.3-1.4-9.3-2.7c-1.5,4.7-1.3,8.8,1.1,13.3c2.1,4,1.4,9-1.9,12.4c-2.9,3.1-6.7,4.9-10.7,4.9c-1.3,0-2.7-0.2-4-0.6
		c-0.9-0.3-1.7-0.4-2.6-0.4c-3.7,0-6.9,2.3-10.6,2.4c-2,0.1-0.5,2-0.2,3c2.3,10,3.3,20.2,2.9,30.5c-0.4,11.7-2.4,22.8-8.3,33.4
		c-5.8,10.5-7.8,13.3,2,24.5c0.5,0.6,1,1.2,0.6,2.1c-8.5-3.6-12.7-10.2-13.1-21.2c-0.2-6.8,0.4-13.5,4.3-19.5
		c1.1-1.7,1.7-3.4-0.2-5.1c-5.5-4.8-8.9-10.8-9.1-18.8c-3.5,3-2.8,6.3-2.6,9.5c0.4,7.2,0,14.2-4.7,20.2c-0.6,0.8-0.9,2.2-1.8,2.2
		c-0.2,0-0.4-0.1-0.7-0.2c-1.4-0.8,0.2-1.9,0.7-2.7c2.6-4.5,1.4-9.4,1.1-14.2c-5.6,8.3-9.3,17-6.1,27.2c2.1,6.8,5.4,13,8.9,19.2
		c7,12.6,8.4,25.6,2,39.9c-0.8-2.9-0.6-4.9-0.1-7c1-4.1,1-8.2,0.2-12.2c-0.8-4.2-4-7.5-6.5-10.6c-3.7-4.7-8.9-8.3-12.3-14.2
		c-1.8,5.2-2.6,10.1-4.9,14.5c-1.9,3.6-5.2,5.7-7.9,8.4c-2.7,2.7-5.5,5.1-7.1,9.4c-2.2-3-0.2-5.2,0.2-7.3c0.2-0.9,0.7-1.8,1.4-2.4
		c14.5-13.8,7.7-31.9-0.1-44.5c-0.5-0.8-1-1.5-1.6-2.4c-0.3,0.5-0.8,0.9-0.7,1.3c1.8,8.8-4.3,12.7-10.3,16.4
		c-2.3,1.4-2.5,3.1-2.7,5.4c-0.3,5.5-0.6,11-0.2,17c-1.2-2.5-2.5-4.6-4-4.6c-1,0-2.1,0.9-3.4,3.3c2.8,2.9,5.5,6.1,7.1,10.1
		c1.6,4.1,1.8,8.3,0.5,12.5c-0.8,2.8-1.9,5.6-0.9,8.6c0.6,1.7-0.8,2.9-2,4c-6.6,6.1-14.9,7.9-23.3,9.4c-4,0.7-7.9,1.1-11.9,1.1
		c-4.7,0-9.3-0.5-14-1.7c-0.6-0.2-1.2-0.2-1.7-0.2c-1.6,0-2.9,0.7-4.3,2.3c-4.9,5.6-11.5,8.3-18.8,8.9c-3.4,0.3-6.8,0.5-10.2,0.5
		c-6.9,0-13.8-1-20.1-4.8c-0.5-0.3-0.9-0.4-1.4-0.4c-0.4,0-0.8,0.1-1.2,0.2c-8.1,2.1-16.3,3.1-24.4,3.1c-8.9,0-17.7-1.2-26.6-3.2
		c-0.7-0.7-1.3-1-2-1c-0.6,0-1.3,0.3-2,0.9c-1.6-3.6-5.3-3.8-8.3-5c-1.9-0.8-4.2-0.7-5.6-2.2c-2.3-2.5-4.7-3.2-7.4-3.2
		c-1.7,0-3.4,0.3-5.3,0.6c-3.4,0.6-6.8,1-10.1,1c-8.8,0-17.3-2.4-25.1-7.9c-3.3-2.4-3.4-4.9-2.1-8.1c3.2-8,9.2-12.9,17-15.9
		c1.9-0.7,2.9-1.4,3.3-3.7c0.9-4.3,3.9-7.5,8-9.3c2-0.9,2.6-1.7,2.5-4.1c-0.4-12.2,5-21.6,15.6-27.5c6.3-3.5,12.9-5.1,19.7-5.1
		c3.5,0,7,0.4,10.5,1.3c0.8,0.2,1.4,0.3,1.9,0.3c1.3,0,1.9-0.7,1.8-2.7c-0.1-4.2,2.7-6.9,5-9.9c0.9-1.2,3.8-1.2,3.1-3
		c-1.5-4.1,1.6-8-0.8-12.2c-5.6-9.7-6.5-31.3,8.5-40c1.7-1,1.2-1.7,0.6-2.8c-1.8-3.6-3.5-7.3-5.3-11.1c-1.2,1.5-1.1,3.3-1.3,5
		c-2.4,14.3-14.4,21.9-26.5,21.9c-4.8,0-9.7-1.2-13.9-3.7c-4.8-2.8-6.8-7.7-6.7-12.7c0.1-4.7,2.7-8.7,7.6-10.4
		c1-0.4,1.9-0.6,2.8-0.6c1.3,0,2.4,0.6,3.3,2.5c-2,0.9-4.4-0.2-6.2,1.5c-2.5,2.5-3.9,5.2-3.2,8.8c0.7,3.8,3.2,5.5,6.9,6.1
		c1,0.1,1.9,0.2,2.8,0.2c9.2,0,17-7.1,19-17.8c1.2-6.3,0.7-12.5-0.6-18.8c-2-10.2-3.6-20.4,0.4-30.7c1.8-4.5,4-8.5,7.6-11.6
		c0.6-0.6,1.9-0.8,1.4-2c-0.3-0.8-1-0.9-1.8-0.9c-0.2,0-0.5,0-0.7,0c-6,0.2-11.9,1.2-17.2,4.3c-4.4,2.6-6.6,6.5-7.4,11.4
		c-2.7,17.4-13.7,27.8-29.1,34.2c-5.9,2.5-11.9,3.7-17.9,3.7c-5.4,0-10.8-1-16.2-3.1c-2-0.8-3.9-1.1-5.8-1.1
		c-4.7,0-8.8,2.2-12.5,5.4c-3.9,3.4-1.8,9.4,3.9,12.5c-0.7,1.1-2,0.4-2.9,0.9c-10.3-5.8-9.3-16.1,0.3-24.2c4.5-3.8,9.8-5.2,15.4-5.2
		c0.8,0,1.5,0,2.3,0.1c2,0.1,4.1,0.2,6.1,0.6c2.1,0.5,4,0.7,5.9,0.7c9.1,0,15.6-5.7,21.5-13.1c5.1-6.4,7.9-12.9,5.9-21.7
		c-1.6-6.8,3-12.6,7.5-17.6c4.3-4.6,8.9-9,14.9-11.3c2.3-0.9,1.3-1.7,0.9-3c-2.6-7.6-4.6-15.4-5.7-23.3
		c-2.6-18.5,0.7-35.7,13.2-50.3c2-2.3,1-4.8,0.9-7.2c-0.3-8.5,1.6-16.3,7.7-22.6c6.6-6.8,14.3-9.1,22.6-9.1c3.3,0,6.7,0.4,10.1,1
		c1.2,0.2,2.4,0.7,4.3,1.2c-1.3-5.2-0.1-9.4,4.3-12.3c0.4-0.3,0.8-1.2,0.6-1.5c-0.3-0.7-3.2-0.6-0.8-2.2c0.5-0.3,1.1-0.5,1.7-0.5
		c0.8,0,1.6,0.3,2.2,0.9c1.1,1,0.6,2.3-0.2,3.4c-0.3,0.4-0.6,0.7-1,1c-1.5,1.3-2.5,2.8-1.4,4.9c0.6,1.2,1.5,1.7,2.6,1.7
		c0.1,0,0.3,0,0.4,0c2.3-0.3,3.7-1.7,4.3-3.8c0.2-0.6,0.3-1.3,0.2-1.9c-1.6-9.4,3-15.2,11.8-19.3c-4.3-1.9-7.2-4.6-11-6
		c-3.1-1.1-5.3-3.5-5.3-7c0-2.8-1.5-4.2-3.7-5.4c-9.1-4.9-8.8-12.6-6.9-20.9c1.8-8,6.7-12.6,13.7-15.8c1.7-0.8,2.9-2.7,4.3-4.2
		c-0.6-0.4-1.2-0.5-1.9-0.5c-0.8,0-1.6,0.2-2.3,0.2c-0.4,0-0.8-0.1-1.2-0.2c1.1-2.5,3.2-3.6,5.7-4.2c1.4-0.3,3-0.2,3.3-2
		c0.3-1.7-1.4-1.9-2.3-2.6c-1.6-1.3-3.5-2.2-0.3-3.9c1.4-0.7,3.6-1.1,2.9-3.5c-0.7-2.4-2.2-4.2-4.4-5.2c-0.9-0.4-1.8-0.7-3-0.7
		c-0.7,0-1.4,0.1-2.3,0.3c2.2-1.7,4.9-2.6,7.2-2.6c1.6,0,3,0.4,4.1,1.1c2.3,1.6,4.5,3.5,6.8,5.1c0.5,0.3,0.8,1.2,1.4,1.2
		c0.2,0,0.5-0.1,0.8-0.4c0.9-0.9,1.7-1.8,0.6-3.2c-0.6-0.7-0.8-1.7-1.3-2.5c-4.5-6.2-4.4-6.1,0.3-12.2c1-1.3,1.9-1.9,2.8-1.9
		c0.8,0,1.7,0.5,2.5,1.6c1.2,1.5,2.6,2.1,3.9,2.1c1.2,0,2.4-0.4,3.6-1c0.5-0.2,1.1-1,1.5-1c0,0,0,0,0.1,0c0.9,0.2,1.7,0.3,2.4,0.3
		c3.8,0,4.1-2.9,3.3-6.8c-0.3-1.4,0.5-2.3,2.1-2.6c1.4-0.3,2.9-0.6,4.3-0.6c1.9,0,3.5,0.6,4.6,2.6c1.5,2.8,3.4,2.7,6.3,3
		c-1.8-4-2.3-7.8-7.1-9.5c-4.9-1.8-9.4-13.2-6.8-18.2c2.5-4.9,4.6-10.1,10.4-13.5c4.3-2.5,8.3-4.1,12.6-4.1c1.4,0,2.8,0.2,4.3,0.5
		c0.9,0.2,1.9,0.4,2.6,0.9c1,0.7,1.9,1.2,2.9,1.2c0.6,0,1.2-0.2,1.8-0.6c2-1.4,0.5-3-0.2-4.1c-1.5-2.4,1.2-2.8,1.8-4.2
		c0.3-0.7,0.7-1,1.1-1c0.5,0,1.2,0.5,1.9,0.9c1.5,0.9,3.6,0.6,4.7,2.6c1.7-1.1,0.3-3.5,2.7-4.1c2.7-0.7,4-2.4,1.7-5.6
		c-1.4-1.9,1-3.7,3.2-4.1c0.1,0,0.1,0,0.2,0c0.6,0,1.3,0.5,1.8,0.5c0.1,0,0.2,0,0.2,0c2.8-1.1,0.4-5.8,3.9-6.3
		c3.7-0.5,3.5-2.6,2.5-5.3c0.2,0,0.5,0,0.7,0c2.4,0,4.4,0.4,5.8,2.3c0.6,0.7,1.1,1.6,1.9,1.6c0.3,0,0.7-0.1,1.1-0.4
		c1.2-0.9,2.6-1.5,2.9-3.4C288.7,23.4,291.5,20.3,295.7,20.3 M237.4,85.5c0.5,0,1.1-0.2,1.6-0.4c0.6-0.3,1.3-1,0.7-1.9
		c-0.5-0.7-1.3-1.2-2-1.8c-0.1-3.8,5.1-5.6,3.6-10.3c-0.5-1.5-1.1-2.2-1.8-2.2c-0.4,0-0.8,0.2-1.2,0.6c-1.8,1.4-3.5,2.5-4.7,5.2
		c-2.7,6-3.1,6.9,3,8.1c0.8,0.9-1.2,2.1,0.2,2.7C237,85.4,237.2,85.5,237.4,85.5 M386,145.4c0.4,0,0.8-0.1,1.2-0.2c0,0,0,0.1,0,0.1
		c0,0,0,0,0,0l0,0c0,0,0.1-0.1,0.1-0.1c0,0,0,0-0.1,0c0.2-1.1-0.1-1.8-1.1-1.8c-0.2,0-0.4,0-0.7,0.1c-0.3,0.1-0.9,0.7-0.8,0.9
		C385,145.1,385.5,145.4,386,145.4 M141.9,427.1c3.4-7.8,1.1-14.5-0.9-21.3C140.3,412.8,140.4,419.8,141.9,427.1 M305.8,493.3
		c0.6,0,0.9-0.6,1.2-1.3c0.8-2.8,1.8-5.6,2.8-9.1c-2.2,0.7-3.8,1.5-5.4,1.6c-2.1,0.2-2.8,0.9-2.4,2.9c0.5,2.3,0.9,4.7,3.4,5.8
		C305.6,493.3,305.7,493.3,305.8,493.3 M295.7,5.3C295.7,5.3,295.7,5.3,295.7,5.3c-6.1,0-13.2,2.6-17.9,9.2c-0.5,0-1.1,0-1.7,0
		c-0.4,0-0.8,0-1.2,0c-4.9,0.1-9.3,2.6-12,6.6c-0.7,1.1-1.3,2.2-1.7,3.4c-0.9,0.9-1.8,1.9-2.5,3.1c-4,1.9-7.1,4.9-8.9,8.7
		c-4.2,0.7-7.8,3.1-10.3,6.6c-0.2,0.2-0.4,0.4-0.6,0.6c-0.3,0-0.5,0-0.8,0c-8.5,0-15.2,3.3-20.2,6.1c-9.1,5.3-13,13.1-15.5,18.2
		c-0.2,0.5-0.5,1-0.7,1.4c-3.7,7.3-2.4,15.2-0.7,20.4c-0.5,0.6-0.9,1.1-1.4,1.8c-0.1,0.2-0.2,0.3-0.3,0.5c-1.8-0.5-3.5-0.7-4.7-0.7
		c-3.3,0-9.5,1-14.7,7.7l-0.3,0.3c-1.2,1.5-2.3,3.1-3.4,4.7c-4.8,0.6-9.5,2.4-13.4,5.5c-5.6,4.3-7.5,11.9-4.5,18.3
		c0.8,1.7,1.9,3.2,3.2,4.5c-1.1,1.4-2.1,3-2.9,4.7c-0.5,1.1-0.8,2.2-1.1,3.3c-6.5,5.2-10.6,11.9-12.5,20.3c-1.1,5-2.2,11.6-0.7,18.4
		c1.1,5,4.1,11.7,11.6,16.9c0.7,2.6,1.8,5,3.4,7.1c-0.6,0.3-1.3,0.7-1.9,1.1c-5.2,3.5-6.9,7.9-7.4,11.3c-0.9,0-1.9-0.1-2.8-0.1
		c-13.4,0-24.7,4.6-33.4,13.7c-8.3,8.6-12.3,19.9-11.9,33.4c0,0.1,0,0.2,0,0.3c-12.5,16.2-17.2,36-14,58.8
		c0.7,5.3,1.9,10.7,3.4,16.4c-3.7,2.8-6.9,6-9.7,9c-4,4.3-14.7,15.9-11.1,31.2c0.6,2.5,0.7,4.4-3,9c-5.2,6.5-7.9,7.4-9.7,7.4
		c-0.7,0-1.5-0.1-2.3-0.3c-3-0.7-5.6-0.9-7.7-1c-0.3,0-0.6,0-1-0.1c-1.1-0.1-2.2-0.1-3.2-0.1c-9.8,0-18.2,3-25.1,8.8
		c-9,7.7-13.7,17.6-12.8,27.3c0.8,8.9,6.1,16.5,14.8,21.4c2.3,1.3,4.8,1.9,7.4,1.9c1,0,2-0.1,2.9-0.3c7.6-0.7,11.4-5.6,12.7-7.8
		c1.6-2.6,2.3-5.6,2.2-8.7c5.2,1.4,10.4,2.1,15.6,2.1c6.2,0,12.4-1,18.6-3c-0.8,2.4-1.2,5-1.3,7.6c-0.3,11.1,5,20.9,14.2,26.2
		c6.4,3.7,13.8,5.7,21.4,5.7c1.9,0,3.7-0.1,5.5-0.3c0.4,6.2,1.9,12.2,4.3,17.3c-0.1,0.4-0.1,0.9-0.2,1.4c-0.2,0.3-0.5,0.6-0.7,0.9
		c-0.8,1.1-1.9,2.4-3,4.1c-1.2-0.1-2.3-0.1-3.5-0.1c-9.5,0-18.6,2.4-27,7C76,512,67.9,524.1,66.6,539c-3.8,2.9-6.8,6.6-8.7,10.9
		c-10.2,4.9-17.4,12.5-21.4,22.5c-4,10.1-1.3,19.7,7.4,25.9c10,7.1,21.3,10.7,33.8,10.7c4.1,0,8.4-0.4,12.8-1.2
		c0.3-0.1,0.6-0.1,0.9-0.2c3.6,2.9,7.3,3.8,9.3,4.3c0.1,0,0.2,0,0.3,0.1c0.8,0.3,1.5,0.5,2.1,0.7c2.1,2.4,4.9,4.1,8,4.8
		c1.1,0.3,2.2,0.4,3.3,0.4c0.5,0,0.9,0,1.4-0.1c10,2.3,19.8,3.4,29.1,3.4c8.1,0,16.2-0.9,24-2.6c8.8,4,17.3,4.5,23.2,4.5
		c3.9,0,7.8-0.3,11.3-0.5c9.8-0.8,18.5-4.3,25.2-10.3c4,0.7,8.2,1,12.4,1c4.7,0,9.5-0.4,14.4-1.3c7.7-1.3,20.7-3.6,31-13.2l0.2-0.2
		c5-4.6,6.6-9.3,6.8-13.2c0.6,0,1.1-0.1,1.7-0.1c5.5-0.8,10.1-4.5,12-9.7c0.2-0.6,0.9-1.3,2.6-2.9c0.3-0.3,0.6-0.6,1-0.9
		c0.4-0.4,1.1-1,1.7-1.6c1.4-1.2,3-2.6,4.6-4.4c0.1,0.1,0.2,0.3,0.2,0.4c0.3,1.9,0.3,3.7-0.1,5.4c-0.8,3.5-1.6,8.4,0.2,14.6
		c1.7,6,7.1,10.4,13.4,10.8c0.4,0,0.7,0,1.1,0c5.9,0,11.3-3.4,13.7-8.9c4.1-9.2,5.9-18.5,5.3-27.7c0.8,0.1,1.5,0.2,2.3,0.2
		c5.8,0,11.2-3.3,13.7-8.9c1-2.3,3.8-10.3-3-18.1c-1.2-1.3-2-2.3-2.5-3c0.5-1,1.2-2.3,1.9-3.5l0.5-0.9c5.4-9.8,8.5-20.5,9.7-33.1
		c1.7,4.7,5.5,8.3,10.4,9.5c1.2,0.3,2.5,0.5,3.7,0.5c4.3,0,8.5-1.9,11.4-5.2l0.7-0.8l0.7-0.8c0,0,0.1-0.1,0.1-0.1
		c0.2-0.3,0.4-0.5,0.6-0.8c3.5-4.2,4.1-8.6,3.8-11.5c-0.2-2.8-1.2-6.8-4.9-10.4c1.5-3.1,4.1-6.2,6.6-9c6.1-6.9,13-15.8,16.7-27.4
		c0.9,0.3,1.7,0.7,2.3,1c0.1,0.8,0.1,2,0.1,2.9l0,0.1c0.1,6.6,4.6,12.3,10.9,14.1c1.4,0.4,2.7,0.6,4.1,0.6c5,0,9.8-2.5,12.6-6.9
		c7.1-10.9,4.1-26.7-2.8-35.6c-4.7-6-10.4-10.5-17.2-13.3c0.1-0.1,0.1-0.2,0.2-0.3c9.2-4.2,14.7-11.3,19.4-17.3l0.7-0.9
		c10.7-13.8,15.8-30.1,15-48.6c-1-25.3-11.1-46.7-29.9-63.6c-0.3-0.3-0.7-0.6-1.1-0.9c0-12.7-6.1-23.5-17.4-31
		c-3.4-10.3-10.8-16.6-16.5-21.4c-0.8-0.6-1.5-1.3-2.3-1.9c-0.5-0.5-1.3-1.7-2-3.1c1.1-2.2,2-4.3,2.7-6.1c0.6-1.6,1.3-3.1,1.8-3.9
		c5.6-8.8,3.2-17.1,2.2-20.7c-1.3-4.4-3.1-8.3-4.9-11.8c6.2-2.6,9.9-9,9-15.6c-0.5-3.8-1.5-7-2.8-9.5c-0.5-3.6-2.2-7-5.1-9.5
		c-0.7-0.6-1.5-1.3-2.3-1.9c0.4-1,0.7-2,1-3.2c3.8-10,3.2-20.7-1.8-30.9c-3.8-7.8-9.7-12.7-14.5-16.7c-0.8-0.6-1.5-1.3-2.3-1.9
		c-7-6.1-14.1-9.3-21.5-10c-0.9-1.4-2-2.7-3.2-3.8c-1.7-2.1-3.5-3.7-5.3-4.7c-0.5-1.6-1.1-3.1-2-4.5c0.3-3.7-0.2-8.4-3.6-12.8
		c-1.2-1.6-2.7-2.9-4.3-3.9c0.1-3.4-0.8-6.9-2.7-9.9c-2.8-4.4-7.4-7.1-12.5-7.6c-0.3-0.3-0.6-0.5-0.9-0.8c-3-8-10.7-13.5-19.7-13.6
		C303,6.1,299.3,5.3,295.7,5.3L295.7,5.3L295.7,5.3z M108.6,417.3c0.8-0.8,1.5-1.7,2.3-2.5c0.2,0.8,0.3,1.6,0.5,2.4
		c0.1,0.4,0.1,0.8,0.2,1.1C110.6,417.9,109.6,417.5,108.6,417.3L108.6,417.3z"/>
</g>
</svg>
