<?xml version="1.0" encoding="utf-8"?>
<!-- Generator: Adobe Illustrator 24.1.0, SVG Export Plug-In . SVG Version: 6.00 Build 0)  -->
<svg version="1.1" id="Livello_1" xmlns="http://www.w3.org/2000/svg" xmlns:xlink="http://www.w3.org/1999/xlink" x="0px" y="0px"
	 viewBox="0 0 227 457.6" style="enable-background:new 0 0 227 457.6;" width="50" height="50" xml:space="preserve">
<style type="text/css">
	.st0{fill:#FEFEFE;}
</style>
<g id="ZiA7mP_1_">
	<g>
		<g>
			<path class="st0" d="M140.8,445.3c-2.3,0-4.6-0.1-6.8-0.3c-3.5-0.3-7.1-0.5-10.6-0.7c-10.3-0.6-21-1.2-31.5-3.7
				c-1-0.2-2-0.4-3.1-0.6c-3.4-0.7-7.3-1.4-11.2-3.4c-0.5-0.1-1.9-0.2-2.8-0.2c-0.6,0-1.3,0-1.9,0c-11.4-0.5-22.8-1.7-33.8-2.8
				c-2.3-0.2-4.6-0.5-6.9-0.7c-7.6-0.8-14.9-6.4-18.3-14c-3.3-7.3-2.4-15.3,2.4-21.8c5.2-7.2,12.2-11.1,19-14.3
				c5.4-2.5,11.1-4.3,17.6-5.6c-4.6-4-8-9.3-9.8-15.7c-2.7-9.1,1.1-18.2,8.8-22.9c-0.9-1.9-0.9-4-0.1-6c2-4.8,6.2-7.8,11.1-7.8
				c3,0,5.9,1.1,8.5,3.2c1.9,1.6,3.5,3.7,4.5,6c0.3-1.5,0.6-3.1,0.8-4.6c-1.3-1.4-2.6-2.9-3.9-4.6c-2.4-3.1-4.2-6.7-5.5-11.4
				c-2.2-7.7-4.7-15.4-7-22.6c-3.1-9.2-4.3-18.7-5.4-27.5c-1.4-11.7-1.3-23.5-1.2-34.8c0-3.6,0-7.4,0-11.1c0-6.5-0.7-13-1.3-19.8
				c-0.2-2.1-0.4-4.3-0.6-6.4c-0.6-7-0.7-14.6-0.1-24c0.2-3.3,0.5-6.5,0.7-9.7c0.4-5,0.8-9.8,0.9-14.6c0.1-2.9-0.1-5.8-0.3-9
				c-0.3-4.1-0.5-8.3-0.2-12.7c0.1-1.7,0.2-3.4,0.3-5c0.3-4.5,0.5-9.2,1.2-13.9c0.3-1.9,0.9-3.6,1.3-4.9c0.2-0.7,0.6-1.7,0.6-2.1
				c-2.1-9,2.5-15.6,5.9-20.3l0.2-0.3c0.3-0.4,0.6-0.9,1-1.3c0.3-0.3,0.6-0.8,0.8-1.1C66.5,64,71.7,57.2,79.6,52
				c0.5-0.3,1.2-1.1,1.9-1.8c0.4-0.4,0.7-0.8,1.1-1.2c2.4-2.4,5.5-3.8,8.6-3.8c0.6,0,1.2,0.1,1.8,0.2c5.8-3.9,12.2-7.1,19.4-9.6
				c1.1-0.4,2.3-0.8,3.4-1.2c3.7-1.2,7.2-2.4,10.1-4.1c2.9-1.7,5.7-4,8.6-6.4c1.3-1.1,2.7-2.2,4.1-3.3c0.7-0.5,1.4-1.1,2.1-1.7
				c1.4-1.1,2.8-2.3,4.4-3.4c6.1-4.3,13.2-6.4,21-6.4c3.3,0,6.9,0.4,10.5,1.2c10.6,2.3,19.9,6.9,27.4,13.8c6.6,6,8.4,13.7,9.6,20.5
				c0.9,4.9,1.3,10.1,1.4,15.6c0,6.7-3.4,11.8-5.9,15.1c-5.6,7.3-12.5,13-20.5,17.2c-3.3,1.7-6.6,3-9.9,3.9c2.5,4.1,2.6,9,0.1,13.4
				c1.1,2.7,1.9,5.8,2.6,9.5v0.2c0.1,0.3,0.1,0.6,0.2,0.9c2.2,1.1,3.9,3.1,4.5,5.5c0.2,0.7,1.1,1.9,2,3c1.7,2.2,4.1,5.3,4.8,9.6
				c4.5,5.7,3.4,12.2,2.7,16.2c-0.2,1.1-0.4,2.1-0.4,3c-0.1,2-0.1,4-0.1,6.2c0,2.4,0.1,4.9-0.1,7.4l-0.1,1.3
				c-0.4,6.3-0.9,14.2-6.7,20.9c0,0.6,0.2,2,0.3,2.5c0.4,2.1,0,3.7-0.1,4.6v0.2c0,0.2-0.1,0.5-0.1,0.7c0.3,1.5,0.4,3,0.5,4.2
				c0,0.7,0.1,1.9,0.2,2.2c0.5,0.7,0.8,1.3,1,1.9c2.4,2.6,4,6.5,4.2,10.1c0.2,3.2-0.8,6.1-2.8,8.2l0,0c0.2,0.6,0.6,1.6,1,2.3
				c0.3,0.7,0.6,1.3,0.9,1.9c3.6,8.5,5.5,17.3,7.4,25.8l0.3,1.5c2,8.8,3.4,16.8,4.5,24.3c0.3,1.7,0.6,3.5,0.9,5.3
				c1.2,6.9,2.5,14.1,1.1,21.9c-1.1,6.3-1.9,12.6-2.2,18.9c-0.2,3-0.4,5.9-0.6,8.9c-0.6,7.8-1.1,15.1-0.9,22.5
				c0.1,3.4-0.1,6.7-0.4,9.8c-0.2,3.1-0.4,6-0.3,8.9c0.2,4.5,0.6,9.3,1.5,15.6c0.4,2.8,0,5.3-0.7,7.7c0.8,1,1.5,2.1,2.1,3
				c0.8,1.2,1.6,2.4,2.2,2.8c3.2,2.1,5.7,5.1,7.6,9c1.1,2.3,1.2,4.9,0.3,7.2c-1,2.4-2.9,4.2-5.7,5.2c-2,0.8-4,1.4-6,2
				c-0.7,0.2-2,0.6-2.1,0.7c-4.4,3.6-9.5,4.4-13.3,5c-1.1,0.2-2.2,0.3-3.1,0.5c-7.6,1.7-15.9,3.4-24.3,4.6
				C155.1,444.4,148.1,445.3,140.8,445.3z"/>
			<path d="M165.8,16.9c2.9,0,5.9,0.4,9,1c9,1.9,17,5.7,23.9,12c4.9,4.4,6.2,10.3,7.3,16.3c0.8,4.7,1.2,9.6,1.2,14.4
				c0,3.9-1.9,7.3-4.3,10.5c-4.9,6.3-11,11.5-18,15.1c-5.5,2.9-11.5,4.6-17.9,4.7l0,0c-0.3,0-0.8-0.2-1.2-0.2
				c-0.4,0-0.7,0.2-0.7,0.9c-0.1,1.1,0.7,1.3,1.8,1.4c1.9,0.1,2.9,1,3.1,3.1c0.1,1.3,0.6,2.6,1.5,3.7c1.9,2.2,1.8,4.8,0.5,7
				c-1.3,2.1-1.2,4-0.4,6c1.1,2.7,1.8,5.5,2.3,8.3c0.5,2.6,1,5.4,4.1,6.3c0.3,0.1,0.6,0.3,0.6,0.6c1.2,5.1,7,8.1,6.8,13.9
				c0,0.1,0,0.2,0.1,0.3c5.1,4.5,2.2,10.3,1.9,15.4c-0.3,4.5,0.1,9.1-0.2,13.6c-0.4,6.3-0.5,12.7-5.1,17.9c-2.3,2.6-1.8,5.6-1.3,8.6
				c0.2,0.9-0.1,1.7-0.2,2.5c-0.1,0.5-0.7,1.2-0.5,1.5c1.4,3.4,0.1,7.5,2.3,10.7c0.5,0.7,0.4,1.6,1.2,2.3c2.2,1.9,3.8,6.8,2,8.6
				c-4.2,4.4-1.2,8.5,0.3,12.3c3.5,8.4,5.4,17.2,7.3,26c1.7,7.9,3.3,15.8,4.4,23.8c1.2,8.2,3.5,16.5,2,24.9
				c-1.2,6.6-1.9,13.2-2.3,19.8c-0.6,10.7-1.8,21.3-1.5,32c0.2,6.3-0.9,12.5-0.7,18.8c0.2,5.5,0.8,10.9,1.6,16.3
				c0.4,2.6-0.5,4.9-1.4,7.2c-0.2,0.6-1,1.2-0.1,1.8c3.7,2.5,4.8,7.2,8.6,9.7c2.2,1.4,3.8,3.6,4.9,6c0.6,1.4-0.4,1.8-1.2,2.1
				c-2.5,0.9-5.1,1.7-7.6,2.5c-0.6,0.2-1.3,0.2-1.6,0.5c-3.9,4-9.3,3.8-14.2,4.8c-7.9,1.8-15.8,3.4-23.8,4.5
				c-6.4,0.9-12.8,1.6-19.2,1.6c-2.1,0-4.1-0.1-6.2-0.2c-13.7-1.1-27.6-1.1-41-4.2c-4.2-1-8.6-1.4-12.7-3.4c-2.2-1.1-5.1-0.8-7.6-1
				c-13.5-0.6-26.9-2.2-40.3-3.5c-8.9-0.9-18.5-13.3-10.7-24c4.1-5.7,10-9,16.1-11.9c8.9-4.2,18.5-5.9,28.3-6.5
				c1.9-0.1,4.2-3.7,3.5-5.4c-0.2-0.6-0.8-0.4-1.2-0.5c-9.4-2.6-15.9-8.3-18.7-17.8c-2-7,1.6-13.6,8.5-15.8c1-0.3,2-0.7,3-1.1
				c2.5-1.2,3.5-3.5,2.5-5.7c-0.6-1.4-1.4-2-2.7-2c-0.7,0-1.7,0.2-2.8,0.6c0.8-2.1,2.4-3.1,4.2-3.1c1.2,0,2.5,0.5,3.7,1.5
				c4.9,4.1,4.4,13.1-1.1,16.5c-1.9,1.2-3.4,2.7-3.1,4.7c0.3,2.4,2.7,3.1,4.8,3.5c2.9,0.5,5.9,0.6,8.9,1c0.1,0,0.2,0,0.3,0
				c0.9,0,0.9-0.8,1.1-1.4c2.6-9.8,5.6-19.4,6.9-29.5c0.2-1.3-0.1-2.4-1.1-3.4c-1.6-1.6-3.2-3.4-4.6-5.2c-2-2.6-3.3-5.6-4.2-8.8
				c-2.2-7.7-4.6-15.3-7.1-22.9c-2.8-8.5-4-17.2-5-26.1c-1.8-15-1.1-30.1-1.2-45.1c-0.1-9-1.2-17.9-2-26.8
				c-0.7-7.6-0.5-15.2-0.1-22.9c0.5-8.2,1.4-16.3,1.6-24.5c0.2-7.1-1.1-14.2-0.6-21.3c0.4-6.1,0.6-12.3,1.5-18.4
				c0.5-3.2,2.7-6.1,1.9-9.7c-1.4-5.9,1.8-10.3,5-14.7c1-1.4,2.3-2.8,2.8-4.4c2-7.1,6.4-12.3,12.5-16.4c1.6-1,2.8-2.6,4.2-4
				c0.9-0.9,2.1-1.6,3.2-1.6c0.4,0,0.9,0.1,1.2,0.3c0.6,0.3,1.1,0.5,1.5,0.5c1.1,0,1.7-0.9,2.7-1.5c5.7-3.9,11.8-6.9,18.3-9.2
				c5-1.8,10.2-3.2,14.7-5.8c4.9-2.8,9.1-6.8,13.6-10.3c2.1-1.6,4-3.4,6.1-4.9C154.3,18.3,159.9,16.9,165.8,16.9 M165.8,1.9
				c-9.4,0-17.9,2.6-25.3,7.8c-1.9,1.3-3.5,2.6-4.9,3.8c-0.7,0.6-1.3,1.1-1.9,1.6c-1.5,1.2-2.9,2.3-4.3,3.5
				c-2.7,2.2-5.2,4.3-7.6,5.7c-2.2,1.3-5.4,2.3-8.7,3.5c-1.2,0.4-2.3,0.8-3.5,1.2c-6.8,2.4-13.2,5.4-18.9,9c-5,0.1-10,2.2-13.7,6
				c-0.4,0.4-0.8,0.9-1.3,1.3c-0.3,0.3-0.7,0.7-0.9,0.9C66,52.1,60,59.8,57,69.1c-0.3,0.4-0.7,0.9-1.1,1.5l-0.2,0.3
				c-3.5,5-9.2,13.1-7.5,24.3c-0.6,1.6-1.3,3.7-1.7,6.4c-0.7,5-1,9.8-1.3,14.5c-0.1,1.6-0.2,3.3-0.3,4.9c-0.3,4.9,0,9.6,0.2,13.7
				c0.2,2.9,0.4,5.7,0.3,8.3c-0.1,4.6-0.5,9.3-0.9,14.2c-0.3,3.2-0.5,6.5-0.7,9.9c-0.6,9.7-0.5,17.7,0.1,25.1
				c0.2,2.2,0.4,4.3,0.6,6.4c0.7,6.7,1.3,13,1.3,19.1c0,3.6,0,7.4,0,11c-0.1,11.6-0.1,23.5,1.3,35.7c1.1,9.2,2.4,19.1,5.7,29
				c2.3,7.1,4.8,14.7,6.9,22.3c0.2,0.7,0.4,1.3,0.6,2c-7,0.8-13,5.4-15.8,12.3c-0.7,1.8-1.1,3.7-1.1,5.6
				c-7.6,6.9-10.9,17.6-7.8,28.2c1,3.3,2.3,6.4,3.9,9.3c-2.6,0.9-5.2,1.9-7.7,3.1c-7.3,3.4-15.6,8.1-21.9,16.6
				c-6.4,8.8-7.5,19.5-3.1,29.3c4.5,10.1,14.1,17.4,24.4,18.4c2.3,0.2,4.6,0.5,6.9,0.7c11.1,1.2,22.6,2.4,34.2,2.9
				c0.7,0,1.4,0,2.1,0.1c0.3,0,0.6,0,0.9,0c4.3,1.9,8.4,2.7,11.8,3.4c1,0.2,2,0.4,2.8,0.6c11.2,2.6,22.2,3.2,32.8,3.9
				c3.6,0.2,7,0.4,10.4,0.7c2.4,0.2,4.8,0.3,7.4,0.3c7.8,0,15.1-0.9,21.3-1.8c8.7-1.2,17.1-3,24.9-4.7c0.7-0.1,1.6-0.3,2.6-0.4
				c3.9-0.6,10-1.5,15.7-5.6c0.3-0.1,0.5-0.2,0.8-0.2c2-0.6,4.2-1.3,6.4-2.1c6-2.3,8.8-6.4,10-9.4c1.7-4.3,1.6-9-0.5-13.2
				c-2.3-4.9-5.5-8.8-9.5-11.6c-0.2-0.3-0.5-0.8-0.8-1.1c-0.1-0.2-0.2-0.3-0.3-0.5c0.3-2.1,0.4-4.5,0-7c-0.8-6-1.3-10.5-1.4-14.8
				c-0.1-2.5,0.1-5.2,0.3-8.1c0.2-3.3,0.5-6.8,0.4-10.5c-0.2-7,0.3-14.2,0.9-21.7c0.2-2.9,0.4-6,0.6-9c0.4-6,1.1-12.1,2.1-18
				c1.6-9.1,0.2-17.3-1.1-24.5c-0.3-1.8-0.6-3.5-0.8-5.1c-1.1-7.7-2.6-15.9-4.6-24.9l-0.3-1.5c-1.9-8.8-4-17.9-7.8-27
				c-0.1-0.2-0.2-0.4-0.3-0.6c1.3-2.8,2-6,1.8-9.4c-0.3-5-2.2-9.9-5.3-13.8c0-0.1-0.1-0.1-0.1-0.2c0-0.1,0-0.2,0-0.3
				c-0.1-1-0.1-2.3-0.3-3.7c0.2-1.2,0.5-3.3,0.2-5.9c5.5-7.9,6-16.6,6.4-22.5c0-0.4,0.1-0.9,0.1-1.3c0.2-2.9,0.1-5.6,0.1-8
				c0-2,0-3.9,0.1-5.6c0-0.4,0.2-1.3,0.3-2.1c0.7-4.1,2.2-12.7-3.1-20.7c-1.3-5.1-4.1-8.7-5.8-11c-0.3-0.4-0.7-0.9-0.9-1.2
				c-0.9-2.8-2.5-5.3-4.7-7.2c-0.4-2.1-0.9-4-1.5-5.7c1.1-3,1.4-6,1.1-9.1c1.4-0.6,2.7-1.2,4.1-1.9c8.9-4.6,16.6-11.1,22.9-19.2
				c1.9-2.4,7.6-9.7,7.5-19.8c0-5.9-0.5-11.6-1.5-16.9c-1-5.8-2.9-16.6-11.9-24.8c-8.5-7.8-18.9-13-30.9-15.6
				C173.7,2.3,169.6,1.9,165.8,1.9L165.8,1.9z"/>
		</g>
	</g>
</g>
</svg>
