<?xml version="1.0" encoding="utf-8"?>
<!-- Generator: Adobe Illustrator 24.1.0, SVG Export Plug-In . SVG Version: 6.00 Build 0)  -->
<svg version="1.1" id="Livello_1" xmlns="http://www.w3.org/2000/svg" xmlns:xlink="http://www.w3.org/1999/xlink" x="0px" y="0px"
	 viewBox="0 0 474 399.7" style="enable-background:new 0 0 474 399.7;" width="50" height="50" xml:space="preserve">
<style type="text/css">
	.st0{fill:#FFFFFF;}
</style>
<g>
	<path class="st0" d="M438.7,387.5c-5,0-9.1-1.9-12.5-3.5c-0.8-0.4-1.6-0.8-2.4-1.1c-9.5-3.9-18.3-8.9-24.8-12.9
		c-6.7-4-13.7-6-21.3-6c-6.7,0-13.8,1.5-21.7,4.6c-1.9,0.7-3.1,1.3-3.7,1.9c-4.1,5-9.4,7.5-14,9.7c-2,1-3.9,1.9-5.5,2.9
		c-2,1.2-4.3,1.9-6.6,1.9c-4.1,0-8.2-2-11-5.3c-3.4-4.1-3.3-9.1,0.3-15.1c0.5-0.9,1.1-1.6,1.5-2.2c0,0,0,0,0,0
		c-0.8-1.8-1-3.8-0.6-5.7c0.9-4.4,4.7-7.2,5.8-7.9c1.1-0.7,1.8-2.2,3-4.5c0.6-1.3,1.3-2.6,2.1-4c-3.8-5.9-2.1-12.4-1.1-16.2
		c0.2-0.7,0.3-1.3,0.5-2c0.1-0.5-0.2-1.2-0.8-2.6c-10.1,3.6-20.3,5.1-30.3,6.6c-5,0.7-9.7,1.4-14.3,2.3c-3.2,0.6-6.5,1.5-9.9,2.5
		c-3.1,0.9-6.3,1.8-9.5,2.5c-0.9,0.2-1.9,0.4-2.8,0.7c-1.8,0.4-3.8,0.9-5.9,1.3c0.8,2.1,1.1,4.2,0.8,6.3c0.4,2.4,1,4.5,1.7,6.3
		l0.2,0.5c1.6,3.9,4.1,10,0.9,16.4c0.3,2.9-0.2,5.5-1.6,7.8c-2.8,4.6-7.9,5.4-11,6c-0.5,0.1-1,0.2-1.5,0.3c-2.6,0.6-5.3,1.1-7.9,1.6
		c-5.4,1.1-10.9,2.2-16.3,3.4c-1,0.2-2.1,0.3-3.2,0.3c-2.7,0-5.3-0.7-7.3-1.9c-2.2-1.3-4.6-1.9-7.8-1.9c-2.3,0-4.8,0.3-7.5,0.6
		c-2,0.2-4.1,0.5-6.3,0.6c-1.6,0.1-3.2,0.2-4.7,0.3c-3.8,0.3-7.7,0.6-11.7,0.6c-5.8,0-14.6-0.6-23.4-5.4c-0.4-0.2-1.2-0.5-1.9-0.8
		c-2.2-0.8-5.3-1.8-8-4.6c-0.2,0-0.4,0-0.6,0c-0.5,0-1,0-1.5,0c-2.3-0.2-4.6-0.4-6.9-0.6c-6.1-0.5-11.9-1-17.6-1c-0.5,0-1.1,0-1.6,0
		l-0.5,0c-7.1,0-12.6-2.8-17.3-5.2c-1-0.5-2.1-1.1-3.1-1.6c0,0-0.4-0.2-0.5-0.2c-1.6,0.3-3.2,0.5-4.8,0.5c-5.6,0-10.4-1.9-14.6-3.7
		c-0.7-0.3-1.4-0.6-2.1-0.8c-6-2.4-13.2-4.9-20.6-5.9l-0.1,0c-1.1,0-4.5-0.2-6.9-3.2c-2-2.6-5.1-3.5-10-4.8
		c-2.7-0.7-5.6-1.5-8.4-2.8c-1.9-0.9-7-3.1-6.5-10.6c0.2-3.2,1.4-5.8,2.3-7.7c0.3-0.6,0.7-1.4,0.8-1.9c-3.4-8.6-0.6-15.9,1.6-21.7
		c0.6-1.7,1.3-3.3,1.7-4.8c1.4-5.2,3.8-9.5,6.1-13.6c1.1-2.1,2.2-4.1,3.1-6.1c-2.7-6.4-0.8-12.3,0.6-16.4c0.5-1.5,1-2.9,1.1-4.1
		c0.6-4.3,0.8-8.3,0.6-12.4c-0.3-5.7,1.7-11.1,3.7-16.1c0.2-0.5,0.3-0.8,0.3-1c0-0.1-0.1-0.1-0.2-0.2c-6.6-6.8-8.4-15.2-10-22.6
		c-0.3-1.6-0.7-3.1-1-4.6c-0.4-1.5-0.9-3-1.4-4.6c-0.5-1.6-1.1-3.2-1.6-4.9c-1.6-6-0.5-11.5,0.5-16.3c0.1-0.7,0.3-1.3,0.4-2
		c1.2-6.5,1.1-13,0.7-18.6c-0.4-7.2,0.6-17.3,14.7-21c3.7-1,7.8-3,12.5-6.1c1.3-0.9,2.6-1.6,3.8-2.3c1.8-1,3.5-2,4.8-3.2
		c1.6-1.3,1.9-2.7,2.6-6.5l0.1-0.8C63,99.6,71.1,91.2,83.4,88.9c0.8-0.2,1.7-0.8,3.3-1.9c0.5-0.4,1.1-0.8,1.6-1.2
		c2.3-1.6,4.5-3.6,6.8-5.7c4.3-4,9.2-8.4,16-11.1c2.3-0.9,5.3-4.2,6.3-5.3c3.5-3.9,8.1-7.9,13.1-11.8c6.4-4.9,13.3-7.3,19.9-9.6
		c1.9-0.7,3.7-1.3,5.5-2c1.9-0.7,4.1-2.4,6.5-4.1c1.8-1.3,3.6-2.7,5.6-3.9c1.1-0.7,2.5-1.5,4.4-2.1c0.6-0.9,1.4-1.6,2.3-2.2l0.2-0.2
		c0.4-0.3,1-0.6,1.7-1c9.2-4.1,18.7-5.2,27.9-6.3c2.5-0.3,4.9-0.6,7.2-0.9c0.8-0.1,1.9-0.4,3-0.8c1.9-0.6,4.3-1.3,7-1.5
		c1.5-0.9,3.3-1.6,5.5-1.6c3.3,0,5.8,1.6,8.2,3.5c0,0,2.4-0.4,2.4-0.4c6-1,12.2-2,18.8-2c0,0,0.1,0,0.1,0c3.9,0,6.5,1.8,7.9,2.8
		c0.1,0.1,0.3,0.2,0.4,0.3c0.9,0.2,2,0.3,3.1,0.4c3.4,0.3,7.6,0.6,11.8,3.1c1.6,0.9,3.4,1.8,5.2,2.7c5.6,2.7,11.9,5.8,16.7,12.5
		c2.9,4.1,7.7,6.8,13.7,9.9c4.3,2.2,7.8,5.5,9.9,7.9c1.4,1.5,2.8,3,4.2,4.4c5.9,6.3,12.1,12.7,15.9,20.8l0.3,0.6
		c4.5,9.5,9.1,19.3,13.1,29.4c1,2.5,2.5,5.1,4.1,7.8c1.9,3.2,3.8,6.4,5.3,10.2c0.5,1.3,1.2,2.7,1.9,4.2c1.8,3.6,3.8,7.6,4.1,12.3
		c0.1,1.5,0.3,3,0.4,4.5c0.7,6.7,1.5,14.2-1.3,22c-0.5,1.4-0.4,3.4-0.3,5.6c0.1,2,0.2,4.2-0.1,6.6c-0.3,2.3,0.8,5,2,8
		c0.7,1.8,1.5,3.9,2.2,6.1c2.4,1.2,6.9,3.8,7.3,9.5c0.2,2.1,1.5,4.2,3.1,6.9c1.1,1.8,2.3,3.7,3.3,5.9c6.5,4.3,7.1,11.8,7.3,14.8
		l0,0.4c0,0.3,0,0.6,0.1,0.9c6.6,6.5,8.8,14.9,6.9,25.4c-1,5.4-1.1,8.2,0.5,10.6c2,3,1.9,6.6,1.2,9.1c-0.7,2.6-0.2,5.6,0.5,9.2
		c0.8,4.4,1.7,9.5,0.4,15.1c-0.2,0.8,1.6,2.3,3.7,4c0.7,0.6,1.5,1.3,2.3,1.9c0.4,0.4,0.9,0.8,1.3,1.1c3.1,2.8,6.7,5.9,9,10.2
		c2.3,4.2,4.6,5.2,7.2,5.4c7.4,0.5,12.4,4.4,16.5,7.6c1.5,1.2,2.9,2.3,4.3,3.1c0.6,0.4,1.1,0.8,1.5,1.1c3.1,1.9,9.3,6.3,6.9,14.5
		c-1.5,4.9-5.3,7.5-11.5,7.8c-0.3,0-0.6,0-0.8,0c-0.8,0.2-1.5,0.3-2.3,0.4c1.5,1.2,2.9,2.5,4.2,4.3c0.1,0.2,0.3,0.4,0.5,0.6
		c1.4,1.6,4.9,5.7,2.8,11.4c-2.2,5.8-7.9,6.5-9.8,6.7c-0.2,0-0.5,0-0.7,0.1C441.6,387.4,440.2,387.5,438.7,387.5z"/>
	<path d="M227.3,23.2c1,0,2.2,0.8,4.5,2.6c1,0.8,2,1,3,1c0.6,0,1.3-0.1,2-0.2c6.6-1.1,13.2-2.3,20-2.3c0,0,0.1,0,0.1,0
		c2.8,0,4.1,2.3,6.5,2.8c4.3,0.9,8.9,0.2,13.1,2.7c6.8,3.9,14.6,5.9,19.5,13c4,5.7,10.2,9,16.3,12.2c2.9,1.5,5.7,3.9,7.9,6.3
		c6.8,7.4,14.7,14.6,18.8,23.4c4.6,9.7,9.2,19.5,13.1,29.6c2.4,6.3,6.9,11.7,9.4,18c1.9,4.8,5.2,9.5,5.6,14.4
		c0.6,7.7,2.3,15.7-0.5,23.4c-1.7,4.6-0.2,9.3-0.8,14c-0.7,6.3,3,11.6,4.5,17.4c0.5,1.9,1.5,3.2,3.2,4c1.6,0.8,3.5,1.7,3.7,3.6
		c0.5,6.4,5.4,10.8,7.5,16.4c0.2,0.6,0.3,1.1,1,1.4c4.2,1.9,4.9,5.8,5.2,9.8c0.1,2,0.2,4.1,1.7,5.5c5.8,5.4,6.8,11.9,5.4,19.4
		c-1,5.4-1.8,11,1.6,16.1c0.5,0.7,0.5,2,0.2,2.9c-2.4,8.3,2.8,16.2,0.8,24.6c-1.5,6.4,4.6,9.9,8.3,13.2c3.2,2.9,6.8,5.8,8.8,9.4
		c3,5.5,7.1,8.8,13.2,9.2c7.4,0.5,11.8,6.2,17.5,9.6c0.3,0.2,0.4,0.5,0.7,0.7c2.5,1.4,5.2,3,4.2,6.3c-0.9,3.1-4.4,2.1-6.7,2.6
		c-3.6,0.8-7.4,0.9-11.1,1.3c-1.5,0.2-3.2,0-3.7,1.7c-0.6,1.7,0.4,3.1,1.5,4.4c3,3.6,7.9,5.1,10.7,9.1c1.1,1.6,3.1,3,2.4,4.9
		c-0.8,2-3.3,1.6-5.1,2.1c-0.9,0.2-1.8,0.3-2.7,0.3c-4.4,0-8.2-2.4-12-4c-8.3-3.4-16.1-7.8-23.8-12.4c-8.2-4.9-16.6-7-25.1-7
		c-8.1,0-16.2,1.9-24.4,5.1c-2.5,1-5,1.9-6.8,4.1c-4.7,5.6-11.9,7.3-17.8,11c-0.8,0.5-1.7,0.7-2.6,0.7c-2,0-4-1.1-5.2-2.6
		c-1.5-1.8-0.3-4.3,1-6.5c1.6-2.7,4.8-5,2.1-9c-1-1.4,0.8-3.5,2.3-4.4c5-3.2,5.5-9.4,9.3-13.4c0.8-0.8,1-2.5,0.1-3.2
		c-5.3-4.4-2.8-9.9-1.7-14.8c1.2-5.6-3.6-9.2-3.6-14.2c-0.9,0.1-1.8,0.3-2.8,0.4c-0.4,1.5-1.8,1.7-3,2.1
		c-14.5,5.5-29.9,6.1-44.9,9.1c-6.6,1.3-13,3.6-19.5,5c-4.3,0.9-8.7,2.3-13.4,2.3c-2.4,0-4.9-0.4-7.5-1.3c2.1,3.5,3.7,5.9,5.2,8.4
		c1.4,1.8,2.4,3.7,1.8,6c0.5,3.2,1.2,6.3,2.4,9.3c1.6,4,3.5,8.1,0.2,12.3c-0.1,0.1-0.2,0.3-0.1,0.5c2.3,7.3-3.3,7-7.6,7.9
		c-8.1,1.7-16.2,3.3-24.3,5.1c-0.5,0.1-1.1,0.2-1.6,0.2c-1.4,0-2.7-0.3-3.5-0.9c-3.8-2.2-7.7-2.9-11.6-2.9c-4.7,0-9.5,1-14.2,1.3
		c-5.3,0.3-10.7,0.9-16,0.9c-6.7,0-13.3-0.9-19.8-4.5c-3-1.7-6.7-1.7-9-5.1c-0.7-1.1-2.1-1.2-3.6-1.2c-0.5,0-1,0-1.6,0
		c-0.3,0-0.6,0-0.9,0c-8.3-0.6-16.7-1.6-25-1.6c-0.6,0-1.2,0-1.8,0c-0.1,0-0.2,0-0.4,0c-6.7,0-11.7-3.5-17.2-6.1
		c-1.1-0.5-2.3-1.1-3.4-1.1c-0.2,0-0.5,0-0.7,0.1c-1.5,0.4-2.9,0.6-4.4,0.6c-4.9,0-9.4-2.2-13.9-4c-7.3-2.9-14.7-5.4-22.5-6.3
		c-0.6-0.1-1.6,0-1.9-0.3c-5.4-6.9-14.2-6.6-21.3-9.8c-1.7-0.8-2.2-1-2.1-3.3c0.3-4.4,4.7-7.9,2.8-12.5c-3.4-8.1,1.4-14.8,3.4-22.1
		c1.9-7,6.3-12.8,9.1-19.3c0.5-1,1.6-2.3,0.9-3.1c-4.6-6.5,0.2-12.5,1.1-18.7c0.7-4.6,0.9-9.1,0.7-13.8c-0.2-4.3,1.5-8.9,3.2-13
		c1.5-3.6,1.4-6.3-1.4-9.2c-6.4-6.6-7.1-15.5-9.2-23.7c-0.8-3.3-2.2-6.4-3.1-9.7c-1.4-5,0.1-10,1-15c1.3-6.8,1.3-13.5,0.8-20.4
		c-0.5-7.4,1.4-11.2,9.1-13.3c5.2-1.4,10.3-4.1,14.8-7.1c3-2,6.3-3.6,9.3-6c4.1-3.4,4.6-7.6,5.3-11.8c1.6-9.6,7-15.7,16.6-17.5
		c3.2-0.6,5.3-2.5,7.8-4.3c7.3-5,12.6-12.6,21.3-16c3.2-1.3,6.3-4.1,9.1-7.2c3.5-3.8,7.8-7.5,12.1-10.9c7.2-5.5,15.5-7.5,23.6-10.6
		c4.6-1.8,8.7-5.8,13.3-8.5c1.7-1,2.9-1.7,4.5-1.7c0.4,0,0.8,0,1.3,0.1c0.2,0,0.5,0.1,0.7,0.1c1.2,0,2.6-0.5,3.8-0.7
		c-0.3-2.2-2.3-1.5-3.6-2.2c0.5-0.3,0.8-0.5,1.1-0.7c10.5-4.7,21.9-5.1,33.1-6.7c3.4-0.5,6.5-2.3,9.9-2.3c0.3,0,0.6,0,0.9,0
		c0,0,0.1,0,0.1,0c0.1,0,0.3,0,0.4-0.1C225.6,23.8,226.4,23.2,227.3,23.2 M227.3,8.2C227.3,8.2,227.3,8.2,227.3,8.2
		c-3.1,0-5.7,0.8-7.7,1.8c-2.8,0.4-5.1,1.1-7,1.7c-0.6,0.2-1.5,0.5-1.8,0.5c-2.2,0.3-4.6,0.6-7,0.9c-9.3,1.1-19.8,2.3-30,6.9
		c-1.3,0.6-2.3,1.2-2.8,1.5l-0.1,0.1c-1.1,0.7-2,1.4-2.9,2.3c-1.6,0.7-2.8,1.4-3.7,2c-2.3,1.4-4.4,2.9-6.2,4.3
		c-1.7,1.2-3.7,2.7-4.7,3.1c-1.7,0.7-3.4,1.3-5.3,1.9c-6.8,2.4-14.6,5.1-22,10.8c-5.4,4.1-10.3,8.5-14.1,12.7
		c-2.3,2.5-3.3,3.2-3.6,3.4c-8,3.2-13.6,8.3-18.2,12.5c-2.1,2-4.1,3.8-6,5.1c-0.6,0.4-1.2,0.9-1.8,1.3c-0.3,0.2-0.7,0.5-1,0.8
		c-15,3.1-25.1,13.8-27.8,29.5l-0.1,0.8c-0.1,0.8-0.3,1.7-0.4,2.4c-0.9,0.6-2,1.3-3.4,2.1c-1.3,0.7-2.7,1.6-4.2,2.6
		c-3.9,2.6-7.3,4.3-10.2,5.1c-9.9,2.6-21.5,9.6-20.3,28.7c0.3,5.1,0.5,11-0.6,16.7c-0.1,0.6-0.3,1.3-0.4,1.9
		c-1,5.1-2.5,12.1-0.4,19.8c0.5,2,1.2,3.8,1.7,5.4c0.5,1.5,1,2.8,1.3,4c0.3,1.4,0.7,2.8,1,4.4c1.5,6.8,3.3,15.1,9,22.6
		c-1.8,4.8-3.2,10.1-3,16c0.2,3.6,0,7.1-0.6,11c-0.1,0.5-0.5,1.8-0.8,2.8c-1.3,3.8-3.5,10.6-1.6,18.2c-0.5,1-1.1,2-1.6,3
		c-2.4,4.3-5.1,9.2-6.7,15.2c-0.3,1.2-0.9,2.6-1.5,4.1C8.5,303.7,5.3,312,8,322c-1.1,2.3-2.4,5.5-2.6,9.5c-0.4,5.8,1.2,13.6,10.9,18
		c3.4,1.5,6.7,2.4,9.6,3.2c2.5,0.7,5.5,1.5,6.1,2.2c2,2.6,5.8,5.7,12.2,6c6.5,0.9,13,3.2,18.5,5.4c0.7,0.3,1.3,0.5,2,0.8
		c4.6,1.9,10.3,4.2,17.4,4.2c1.2,0,2.4-0.1,3.6-0.2c0.4,0.2,0.8,0.4,1.3,0.7c5,2.6,11.8,6.1,20.8,6.1c0.2,0,0.4,0,0.6,0
		c0.5,0,1,0,1.5,0c5.4,0,11,0.5,16.9,1c2.2,0.2,4.4,0.4,6.7,0.6c3.2,2.5,6.4,3.6,8.5,4.3c0.3,0.1,0.8,0.3,1,0.3
		c10.2,5.6,20.2,6.2,26.8,6.2c4.3,0,8.3-0.3,12.3-0.6c1.6-0.1,3.1-0.2,4.6-0.3c2.4-0.1,4.6-0.4,6.7-0.7c2.4-0.3,4.7-0.6,6.6-0.6
		c2.3,0,3.2,0.4,4,0.8c3.2,1.9,7.2,2.9,11.1,2.9c1.6,0,3.3-0.2,4.8-0.5c5.4-1.2,10.9-2.3,16.3-3.4c2.6-0.5,5.3-1.1,7.9-1.6
		c0.3-0.1,0.7-0.1,1.2-0.2c3.7-0.6,11.5-1.9,16.1-9.4c1.4-2.3,2.8-5.8,2.8-10.3c3.4-8.7,0.1-16.7-1.5-20.6l-0.2-0.5
		c-0.5-1.1-0.8-2.4-1.1-3.8c0,0,0-0.1,0-0.1c0.7-0.2,1.3-0.3,2-0.5c3.5-0.8,6.8-1.7,10-2.6c3.3-0.9,6.4-1.8,9.3-2.4
		c4.5-0.9,9.1-1.6,14-2.3c6.9-1,13.9-2,20.9-3.7c-0.2,3.1,0,6.7,1.3,10.3c-0.1,0.3-0.3,0.6-0.4,0.9c-0.3,0.7-0.7,1.5-1,2
		c-2.5,1.8-7,5.8-8.4,12.2c-0.4,2-0.5,4-0.2,5.9c-6.9,11.7-2.7,19.8,0.5,23.6c4.2,5,10.4,8,16.7,8c3.8,0,7.4-1.1,10.6-3
		c1.3-0.8,3-1.6,4.8-2.5c4.8-2.3,10.8-5.1,15.9-10.9c0.4-0.2,1-0.4,1.3-0.5c7-2.7,13.3-4.1,19-4.1c6.2,0,11.9,1.6,17.5,4.9
		c6.8,4,15.8,9.2,25.8,13.3c0.6,0.3,1.4,0.6,2.1,1c3.8,1.8,9,4.2,15.6,4.2c1.9,0,3.8-0.2,5.7-0.6c0.1,0,0.1,0,0.2,0
		c10.1-1.1,14.3-6.9,16-11.5c1.7-4.6,1.4-9.5-0.8-14c-0.1-0.2-0.2-0.3-0.3-0.5c4-2.3,6.9-6,8.3-10.5c1.9-6.5,0.5-13-4-18.1
		c-1.9-2.2-4-3.6-5.7-4.6c-0.6-0.5-1.3-1-2.1-1.5c-1-0.6-2.2-1.5-3.5-2.5c-4.3-3.4-10.9-8.4-20.6-9.1c0,0-0.1,0-0.1,0
		c-0.2-0.2-0.5-0.6-1-1.5c-3-5.4-7.2-9.1-10.6-12.2c-0.4-0.4-0.8-0.7-1.2-1.1c-0.9-0.8-1.8-1.5-2.5-2.2c-0.2-0.1-0.3-0.3-0.5-0.4
		c0.6-5.5-0.3-10.5-1-14.2c-0.4-2.1-0.9-4.9-0.6-5.7c1.5-5.2,0.7-10.9-2.1-15.2c-0.2-1.1,0.4-4.1,0.6-5.2c2.2-11.9-0.2-22-7-30
		c-0.3-2.7-0.8-5.9-2.1-9.1c-1.5-3.5-3.7-6.4-6.5-8.7c-1-1.9-2-3.5-2.8-5c-0.7-1.2-1.8-3-2-3.7c-0.4-4.1-2.2-9.6-8.5-13.8
		c-0.5-1.4-1-2.7-1.5-3.9c-0.6-1.5-1.5-3.7-1.5-4.4c0.3-3,0.2-5.7,0.1-7.8c-0.1-1-0.1-2.4-0.1-2.9c3.3-9.3,2.4-18,1.6-25.1
		c-0.2-1.5-0.3-3-0.4-4.3c-0.5-6.2-2.9-11.1-4.9-15.1c-0.7-1.3-1.3-2.6-1.7-3.6c-1.7-4.4-3.9-8.1-5.8-11.3c-1.4-2.4-2.8-4.7-3.6-6.7
		c-4-10.3-8.7-20.3-13.3-29.9l-0.3-0.7c-4.3-9.2-11.2-16.4-17.3-22.8c-1.4-1.5-2.8-2.9-4.1-4.3c-2.6-2.8-6.7-6.8-12-9.5
		c-5.1-2.7-9.1-4.9-11-7.6c-5.8-8.3-13.8-12.1-19.5-14.9c-1.7-0.8-3.4-1.6-4.7-2.4c-5.7-3.3-11.2-3.8-14.9-4.1
		c-0.4,0-0.8-0.1-1.1-0.1c-2.1-1.4-5.9-3.3-11-3.3l-0.1,0c-7,0-13.3,1-19.5,2C234.7,9.6,231.4,8.2,227.3,8.2L227.3,8.2z"/>
</g>
</svg>
