<?xml version="1.0" encoding="UTF-8"?>
<svg version="1.1" xmlns="http://www.w3.org/2000/svg" width="100" height="100">
<path d="M0 0 C2.3125 -0.25 2.3125 -0.25 5 0 C6.625 1.6875 6.625 1.6875 8 4 C8.474375 4.78375 8.94875 5.5675 9.4375 6.375 C9.953125 7.24125 10.46875 8.1075 11 9 C11.680625 9.825 12.36125 10.65 13.0625 11.5 C16.32688149 16.22772492 16.37353608 22.44425423 17 28 C18.33804688 27.96519531 18.33804688 27.96519531 19.703125 27.9296875 C20.87359375 27.91164063 22.0440625 27.89359375 23.25 27.875 C24.41015625 27.85179688 25.5703125 27.82859375 26.765625 27.8046875 C29.82786046 27.9896051 31.44202751 28.39176977 34 30 C33.6875 31.9375 33.6875 31.9375 33 34 C32.01 34.33 31.02 34.66 30 35 C29.38125 35.680625 28.7625 36.36125 28.125 37.0625 C26 39 26 39 23.25 39.25 C22.5075 39.1675 21.765 39.085 21 39 C20.80083984 39.93972656 20.80083984 39.93972656 20.59765625 40.8984375 C20.42105469 41.71570312 20.24445313 42.53296875 20.0625 43.375 C19.88847656 44.18710937 19.71445313 44.99921875 19.53515625 45.8359375 C19 48 19 48 18 50 C17.34 50 16.68 50 16 50 C15.50898981 55.64661714 16.75583543 59.49804838 19.02734375 64.66796875 C19.90653377 66.77590626 20.51374624 68.77346963 21 71 C23.31 71.66 25.62 72.32 28 73 C28 76.63 28 80.26 28 84 C22.94504798 86.02198081 21.03452746 86.09625834 15.8125 85.5625 C11.25207983 84.86885162 11.25207983 84.86885162 7 86 C3.40122243 86.2412158 -0.20653788 86.18519881 -3.8125 86.1875 C-4.81087891 86.19974609 -5.80925781 86.21199219 -6.83789062 86.22460938 C-8.28905273 86.22750977 -8.28905273 86.22750977 -9.76953125 86.23046875 C-10.65229736 86.23457764 -11.53506348 86.23868652 -12.44458008 86.24291992 C-15 86 -15 86 -20 84 C-20 80.37 -20 76.74 -20 73 C-16.535 72.505 -16.535 72.505 -13 72 C-12.896875 71.319375 -12.79375 70.63875 -12.6875 69.9375 C-12 67 -12 67 -10.55859375 63.80078125 C-8.91351916 60.03545422 -8.11446773 56.29675747 -7.375 52.25 C-6.07174888 45.21524664 -6.07174888 45.21524664 -5 42 C-5.78375 41.649375 -6.5675 41.29875 -7.375 40.9375 C-10.16558377 38.87778341 -10.96572938 37.57480521 -11.734375 34.22265625 C-12.18647115 30.4396752 -12.0793393 26.67441405 -11.984375 22.87109375 C-11.99775218 20.41303691 -12.25214386 18.43363661 -12.8125 16.0625 C-13 13 -13 13 -11 10.4375 C-10.01 9.633125 -9.02 8.82875 -8 8 C-6.74662796 6.94147991 -5.49668915 5.87888287 -4.25 4.8125 C-3.65703125 4.32394531 -3.0640625 3.83539063 -2.453125 3.33203125 C-0.87220817 2.0420309 -0.87220817 2.0420309 0 0 Z M-1 12 C-2.485 13.98 -2.485 13.98 -4 16 C-2.68 16 -1.36 16 0 16 C0.33 15.34 0.66 14.68 1 14 C0.34 13.34 -0.32 12.68 -1 12 Z " fill="#FEFEFE" stroke="#000000" stroke-width="2" stroke-linecap="round" stroke-linejoin="round" transform="translate(45,10)"/>
<path d="M0 0 C2.3125 -0.25 2.3125 -0.25 5 0 C7.42082645 2.42082645 8.40269644 4.65510004 9 8 C7.68 8 6.36 8 5 8 C5 6.35 5 4.7 5 3 C3.35 2.67 1.7 2.34 0 2 C0 1.34 0 0.68 0 0 Z " fill="#FEFEFE" stroke="#000000" stroke-width="2" stroke-linecap="round" stroke-linejoin="round" transform="translate(45,10)"/>
<path d="M0 0 C2 1 2 1 2 1 Z " fill="#FFFFFF" transform="translate(72,53)"/>
</svg>
