<?xml version="1.0" encoding="UTF-8"?>
<svg version="1.1" xmlns="http://www.w3.org/2000/svg" width="422" height="517">
<style type="text/css">
	.st0{fill:#FEFEFE;stroke:#000000;stroke-width:12;stroke-linecap:round;stroke-linejoin:round;stroke-miterlimit:10;}
</style>

<path d="M0 0 C6.4994963 2.64306579 10.17171461 6.96523351 13.61328125 12.94921875 C15.14490054 15.21428953 16.8077333 16.40109474 19 18 C19.4640625 19.175625 19.4640625 19.175625 19.9375 20.375 C20.85353448 23.1907408 20.85353448 23.1907408 23.4375 25.1875 C26.87633733 28.96183365 28.20024688 32.98114112 29 38 C28.58608617 41.02640891 28.31931956 41.72906219 25.9375 43.75 C25.298125 44.1625 24.65875 44.575 24 45 C24.67170806 48.8063457 25.72746564 52.35206816 27 56 C28.32 55.67 29.64 55.34 31 55 C31.66 55.99 32.32 56.98 33 58 C34.1446875 57.6596875 34.1446875 57.6596875 35.3125 57.3125 C36.6428125 57.1578125 36.6428125 57.1578125 38 57 C39 58 40 59 41 60 C43.42938689 59.64767793 43.42938689 59.64767793 46 59 C47.67654729 59.27942455 49.34608154 59.60828247 51 60 C51.99 60 52.98 60 54 60 C55.34061543 60.30271961 56.67405895 60.63837971 58 61 C58.639375 61.0825 59.27875 61.165 59.9375 61.25 C64.57332118 62.93575316 66.89910036 66.79820073 69 71 C70.32848691 72.00642948 71.66150329 73.00692179 73 74 C73.33 74.99 73.66 75.98 74 77 C75.01320312 77.12955078 75.01320312 77.12955078 76.046875 77.26171875 C83.42367067 78.42367067 83.42367067 78.42367067 86.625 81.625 C87.07875 82.40875 87.5325 83.1925 88 84 C89.5159375 83.4121875 89.5159375 83.4121875 91.0625 82.8125 C94.33372144 81.88543319 95.17782379 82.05123736 98.6875 83.0625 C102.20903472 85.12226559 103.75368148 86.63052222 106 90 C106.4228125 90.61230469 106.845625 91.22460938 107.28125 91.85546875 C110.12505896 96.12944908 111.7664526 99.97092214 113 105 C113.33386719 105.7321875 113.66773438 106.464375 114.01171875 107.21875 C115.25922961 110.72953154 115.4556991 114.12667825 115.625 117.8125 C115.66367188 118.50537109 115.70234375 119.19824219 115.7421875 119.91210938 C115.83573568 121.60767015 115.91892364 123.30379712 116 125 C116.7425 125.2475 117.485 125.495 118.25 125.75 C121.23764149 127.10801886 122.70259574 128.69816059 125 131 C127.56996914 132.42999919 127.56996914 132.42999919 130.375 133.4375 C131.29023438 133.80746094 132.20546875 134.17742187 133.1484375 134.55859375 C136.99550056 135.15409803 138.55564179 133.78281922 142 132 C145.58989798 131.1215578 149.22543054 130.57253424 152.875 130 C154.39951782 129.74246948 154.39951782 129.74246948 155.95483398 129.47973633 C160.58101489 128.69867385 165.20727666 127.96139985 169.85546875 127.32421875 C178.0950779 126.31461624 178.0950779 126.31461624 184.875 121.9375 C187.30716517 118.32003915 187.85694773 114.47897588 188.5390625 110.23828125 C189 108 189 108 190.5 105.5 C193.71652493 103.57008504 196.72049783 103.10452838 200.3984375 102.5078125 C202.90350605 102.01883516 205.02443463 101.28970133 207.375 100.3125 C211.72376335 98.73794775 211.72376335 98.73794775 215 100 C216.921875 101.41015625 216.921875 101.41015625 218.75 103.0625 C219.36359375 103.61035156 219.9771875 104.15820312 220.609375 104.72265625 C221.06828125 105.14417969 221.5271875 105.56570312 222 106 C223.0725 105.4225 224.145 104.845 225.25 104.25 C228.79839114 102.43792125 232.3002643 101.28913834 236.125 100.1875 C241.2895929 98.56508095 243.42084748 96.82153046 246.52734375 92.51953125 C248.39750077 90.58984669 249.61746442 90.44250079 252.25 90.0625 C258.49139932 89.06261309 262.67899181 85.45373541 267 81 C268.73752363 78.46579524 270.23388526 75.89379671 271.70703125 73.19921875 C274.49984904 68.44889725 279.01970667 66.05707768 284 64 C287.46581934 65.15527311 287.67870505 65.63086226 289.25 68.75 C290.37061905 71.19972536 290.98974484 72.79489685 291.125 75.5 C287.96072428 82.53172383 283.79616727 86.34368355 277.1875 90.25 C270.90946838 93.97219852 267.25239153 98.10113263 263.1015625 104.1796875 C260.05442202 108.26897267 256.36889679 111.37681461 252 114 C251.34 114 250.68 114 250 114 C250 115.32 250 116.64 250 118 C250.9075 118.45375 251.815 118.9075 252.75 119.375 C254.49578701 120.24789351 256.23510513 121.14094282 257.90917969 122.14453125 C261.95328324 123.79919482 266.15250764 122.00312054 270.25 121 C271.16652344 120.80277344 272.08304687 120.60554688 273.02734375 120.40234375 C278.77898723 119.03212341 282.83722856 117.12799962 287.37768555 113.32299805 C289.66834804 111.45496192 291.02317875 110.77101375 294 111 C297.38084998 112.75686091 300.11976991 114.89971239 302.5 117.875 C303.30227655 121.28467532 302.97505005 123.64826547 302 127 C298.51213309 129.68297455 295.38496552 130.1289971 291.125 130.4375 C283.11167214 131.06035956 277.43473882 135.21819145 270.98046875 139.73046875 C267.13752212 142.19389608 263.39209564 142.27280791 258.9375 142.6875 C249.47235029 143.73399129 240.89567538 146.72458773 232 150 C229.54264814 150.89858389 227.08412623 151.7937647 224.625 152.6875 C223.51511719 153.09484375 222.40523438 153.5021875 221.26171875 153.921875 C218.00604731 154.99800113 214.79120558 155.73489664 211.4375 156.4375 C206.10916008 157.69743771 204.16662126 159.42599151 201 164 C198.4516111 166.46969755 195.71812565 168.71999329 193 171 C191.5459375 172.23363281 191.5459375 172.23363281 190.0625 173.4921875 C175.25747668 186 175.25747668 186 172 186 C172.31453125 186.66644531 172.6290625 187.33289063 172.953125 188.01953125 C175.19646825 192.8508277 177.29525668 197.66036165 179.0625 202.6875 C180.481045 206.70289754 182.07594757 210.47443654 184.08984375 214.2265625 C185 216 185 216 186.125 219.1875 C191.38838391 227.08257587 203.32287964 228.76195311 212 231 C211.566875 230.11248047 211.566875 230.11248047 211.125 229.20703125 C207.00491887 220.43755301 207.00491887 220.43755301 208 217 C209.64846933 215.07532437 211.39670733 213.36004276 213.26171875 211.64453125 C215.12319918 209.99953347 215.12319918 209.99953347 216.625 207.625 C218.59653909 205.29499925 219.98224414 205.26824497 223 205 C227.60453281 204.63456089 230.00521634 204.53186651 234.1875 206.5 C237.15784225 209.14030422 238.80434525 211.62057535 240.765625 215.02734375 C242.50271214 217.80338491 244.59066728 219.79718152 247 222 C245.69063102 224.92090003 244.24380538 226.75619462 242 229 C241.67 229.99 241.34 230.98 241 232 C241.94875 232.268125 242.8975 232.53625 243.875 232.8125 C247 234 247 234 249 237 C249.5625 240.375 249.5625 240.375 249 244 C247.46875 245.25 247.46875 245.25 245.5625 246.375 C243.13526882 247.8460492 242.17417056 248.46901517 241.27734375 251.203125 C240.85447796 254.89575586 240.81363678 257.44091034 242 261 C242.1490798 263.76371005 242.23109829 266.4856242 242.25 269.25 C242.2809375 270.35794922 242.2809375 270.35794922 242.3125 271.48828125 C242.35708945 277.80883646 240.81001794 282.10397129 237.4375 287.5 C235.81540648 290.07998952 235.81540648 290.07998952 235 293.625 C234.0674246 296.77244198 233.62919448 298.13765391 231 300 C230.34 300 229.68 300 229 300 C229.45375 300.825 229.9075 301.65 230.375 302.5 C232.14623699 306.31497198 233.09763762 309.91828604 234 314 C234.268125 314.928125 234.53625 315.85625 234.8125 316.8125 C234.9053125 317.8953125 234.9053125 317.8953125 235 319 C234 320 233 321 232 322 C232.16801608 325.19230558 232.84737648 326.79286808 234.75 329.375 C235.1625 330.24125 235.575 331.1075 236 332 C235.27603275 333.71119531 234.54117268 335.41982258 233.71875 337.0859375 C232.35970936 340.70512181 233.33452997 344.31239539 234 348 C234.22686726 349.42813109 234.45197033 350.856543 234.67578125 352.28515625 C234.92801963 353.83620966 235.18194278 355.38698996 235.4375 356.9375 C235.55947754 357.69595215 235.68145508 358.4544043 235.80712891 359.23583984 C236.47220768 363.55844806 236.47220768 363.55844806 239 367 C239.721875 366.62875 240.44375 366.2575 241.1875 365.875 C244.71227181 364.77840433 245.78209056 365.31059755 249 367 C254.69267588 370.12588899 257.66130759 373.21105748 260.5 379.125 C260.665 380.07375 260.83 381.0225 261 382 C260.01439389 383.34400833 259.01241685 384.67607028 258 386 C258 387.32 258 388.64 258 390 C258 394.29177584 257.64678055 394.92973456 255 398 C254.855625 398.804375 254.71125 399.60875 254.5625 400.4375 C253.83640513 403.74526554 252.13785086 405.40866563 250 408 C248.15993604 411.59250583 247.88322634 413.20296957 249 417 C249.42110246 422.47433199 248.89516565 427.28158125 246 432 C244.27734375 433.37109375 244.27734375 433.37109375 242.375 434.5625 C239.40667685 436.45488512 239.05544074 436.8574381 237.6875 440.375 C238.05435607 444.63053039 239.39624788 445.76842316 242.32421875 448.703125 C244.93352023 452.27951024 245.90556526 456.49270832 246.91064453 460.7578125 C247.45433775 462.96403573 247.45433775 462.96403573 249 466 C252.42121513 467.96296646 252.42121513 467.96296646 256 469 C256.763125 469.391875 257.52625 469.78375 258.3125 470.1875 C262.56197052 471.47222365 266.62046239 471.84194665 271 471 C272.78696919 469.62382832 274.05919826 468.14179953 275.49609375 466.41015625 C278.33113759 463.75184242 281.22830258 464 285 464 C288.63195496 466.42130331 289.11078474 468.11929096 290.6875 472.125 C291.12449219 473.22070312 291.56148438 474.31640625 292.01171875 475.4453125 C292.33785156 476.28835938 292.66398437 477.13140625 293 478 C295.31 477.01 297.62 476.02 300 475 C313.66173838 485.56218213 313.66173838 485.56218213 316.1015625 493.0390625 C317.22448996 495.48997373 318.51384914 496.22914075 320.75 497.6875 C322.578125 499.0546875 322.578125 499.0546875 324 501 C324.66386234 505.72198855 324.55149506 510.26842307 324 515 C322.11240629 516.88759371 318.82730335 516.12552191 316.32044983 516.12584114 C315.61047863 516.12729458 314.90050744 516.12874802 314.16902196 516.13024551 C311.75987725 516.13393159 309.35079478 516.13040711 306.94165039 516.12698364 C305.20908354 516.12813443 303.47651693 516.12972167 301.74395084 516.13171089 C296.95947325 516.13591 292.17501543 516.13381091 287.39053774 516.13072467 C282.2398391 516.12847314 277.08914399 516.13194894 271.93844604 516.13470459 C261.83894135 516.13916394 251.73944406 516.13818509 241.63993907 516.13529195 C233.43583156 516.13303856 225.23172614 516.13272511 217.02761841 516.13381577 C215.27977715 516.13404561 215.27977715 516.13404561 213.49662596 516.13428011 C211.12989322 516.13459982 208.76316049 516.13492403 206.39642775 516.1352527 C184.17508502 516.13810797 161.95374641 516.13481972 139.73240435 516.12945233 C120.6428899 516.12498425 101.55338153 516.12576017 82.46386719 516.13037109 C60.32499688 516.13571602 38.18613019 516.13783328 16.04725933 516.13475883 C13.68896675 516.13444026 11.33067417 516.13412589 8.97238159 516.13381577 C7.81189098 516.13366149 6.65140037 516.13350721 5.45574337 516.13334826 C-2.74368783 516.13248286 -10.94311676 516.13394648 -19.14254761 516.13629532 C-29.12747604 516.13909261 -39.11239661 516.13835656 -49.09732413 516.13301457 C-54.19708041 516.1303766 -59.29682355 516.12937411 -64.39657974 516.13266373 C-69.05719987 516.13562473 -73.71779457 516.13403718 -78.37841237 516.12868617 C-80.0721977 516.12756114 -81.76598514 516.12815505 -83.45976913 516.13056196 C-85.74669406 516.13356461 -88.03352972 516.13052288 -90.32044983 516.12584114 C-91.59538835 516.12567879 -92.87032686 516.12551644 -94.18389988 516.12534916 C-97 516 -97 516 -98 515 C-98.16796875 513.109375 -98.16796875 513.109375 -98.1875 510.75 C-98.20167969 509.98171875 -98.21585937 509.2134375 -98.23046875 508.421875 C-97.76654934 503.5467897 -95.56056513 500.07008038 -92.625 496.25 C-92.03976563 495.47140625 -91.45453125 494.6928125 -90.8515625 493.890625 C-87.89679266 490.87351825 -84.70883269 490.88547702 -80.62890625 490.7890625 C-79.80712891 490.76070313 -78.98535156 490.73234375 -78.13867188 490.703125 C-76.42534608 490.65116667 -74.71177071 490.60685802 -72.99804688 490.5703125 C-66.95470359 490.34315473 -63.39046206 489.46231964 -59.05078125 484.9921875 C-58.47714844 484.29351562 -57.90351562 483.59484375 -57.3125 482.875 C-54.19032761 479.09516381 -54.19032761 479.09516381 -52 478 C-53.45718969 473.53541881 -54.94002885 469.11035659 -56.6875 464.75 C-57.89616569 461.29666945 -58.46147896 459.54524424 -58 456 C-54.01157544 450.5251487 -49.01938818 446.60125561 -42.828125 443.96875 C-40.73645563 442.86034401 -39.59784686 441.60092602 -38.0625 439.8125 C-35.63215419 437.15699953 -34.07968497 436.62002017 -30.5 436.375 C-29.33791016 436.32666016 -29.33791016 436.32666016 -28.15234375 436.27734375 C-25.70270643 436.13138667 -25.70270643 436.13138667 -23.0625 433.9375 C-18.06827718 430.77788964 -12.96868539 431.37524037 -7.30859375 432.56640625 C-6.01115234 432.87384766 -6.01115234 432.87384766 -4.6875 433.1875 C-1.41389099 433.90472263 -0.34516429 434.12756071 2.875 432.9375 C5.0700531 431.06569363 5.0700531 431.06569363 6.6875 428.6875 C10.10490262 424.71592398 14.45607035 422.52344185 19 420 C18.71125 419.27554687 18.4225 418.55109375 18.125 417.8046875 C14.94873438 409.53316245 14.94873438 409.53316245 15.3125 405.75 C15.28211592 402.93470708 15.28211592 402.93470708 13.328125 401.33203125 C10.18362075 398.876065 6.98588198 396.5985145 3.57421875 394.52734375 C-4.14114193 389.45724959 -5.97589537 382.56351959 -8 374 C-8.55497483 370.8359227 -9.03009808 367.67469462 -9.46484375 364.4921875 C-9.87785922 361.7534209 -9.87785922 361.7534209 -12.125 359.0625 C-16.89235013 351.27582812 -13.74279123 340.65984465 -11.8125 332.2890625 C-11.31081304 330.2581951 -10.79323383 328.23108829 -10.25 326.2109375 C-8.89095703 320.72380149 -9.16052726 317.65308536 -11.25390625 312.43359375 C-12.8048261 307.37483424 -13.260426 300.66829805 -10.96484375 295.80859375 C-10.64644531 295.21175781 -10.32804687 294.61492187 -10 294 C-10.31902577 290.65022937 -10.59179639 289.40820361 -13 287 C-13.12375 285.948125 -13.2475 284.89625 -13.375 283.8125 C-14.08358602 279.49012526 -15.06641381 276.29924565 -18 273 C-19.96965729 271.87752664 -19.96965729 271.87752664 -22.125 271 C-25.85536198 269.36882696 -25.85536198 269.36882696 -27.25 265.8125 C-27.4975 264.554375 -27.745 263.29625 -28 262 C-29.47589064 258.29776586 -31.10387551 254.63977214 -33.01586914 251.14111328 C-34.04680309 248.89817338 -34.43046359 247.06955021 -34.74609375 244.62890625 C-34.86146484 243.80712891 -34.97683594 242.98535156 -35.09570312 242.13867188 C-35.32299126 240.4255687 -35.54696737 238.71202274 -35.76757812 236.99804688 C-36.77956379 229.85823638 -39.3417203 225.78523113 -43.75 220.125 C-53.96921501 205.90451146 -56.56290597 192.65685466 -58.63037109 175.48925781 C-58.94477822 172.87657152 -58.94477822 172.87657152 -60 170 C-60.85119007 154.91612009 -60.31931004 135.43403123 -53.375 121.8125 C-51.6626602 118.30998678 -51.58792008 115.29154952 -51.3125 111.44140625 C-50.87342566 108.01113796 -49.35743592 105.16735048 -48 102 C-47.38662582 98.67516799 -47.16254769 95.37409596 -47 92 C-46.94714844 91.08605469 -46.89429688 90.17210938 -46.83984375 89.23046875 C-46.66357755 83.7508891 -47.24608068 79.50727539 -49.203125 74.40234375 C-50.47935146 70.55489634 -50.98101551 66.60257892 -51.5703125 62.6015625 C-51.94691409 59.89691472 -51.94691409 59.89691472 -53 57 C-53.1283059 53.08667005 -53.21790561 49.85346362 -52.25 46.0625 C-51.9222911 42.04806599 -53.23592934 39.60628292 -54.9921875 36.05078125 C-56 34 -56 34 -57 31 C-55.87851944 28.7244032 -54.73024562 26.69047338 -53.375 24.5625 C-53.03082031 23.98951172 -52.68664063 23.41652344 -52.33203125 22.82617188 C-48.16407716 16.14360342 -42.87277395 13.26496444 -36 10 C-34.64167518 9.3247315 -33.28488725 8.64636228 -31.9296875 7.96484375 C-23.8046875 3.90234375 -23.8046875 3.90234375 -21.83959961 2.93286133 C-20.17835042 2.09044153 -18.55309663 1.1779377 -16.93359375 0.2578125 C-11.4040308 -2.11305204 -5.77750797 -1.14772044 0 0 Z " class="st0" transform="translate(98,1)"/>
<path d="M0 0 C0.33 0 0.66 0 1 0 C1 44.22 1 88.44 1 134 C-1.20137868 130.69793198 -1.24950917 129.72432826 -1.24723816 125.88943481 C-1.25143265 124.83235321 -1.25562714 123.77527161 -1.25994873 122.68615723 C-1.25432922 121.52660522 -1.24870972 120.36705322 -1.24291992 119.17236328 C-1.24481827 117.95100677 -1.24671661 116.72965027 -1.24867249 115.47128296 C-1.2517458 112.11990043 -1.24586248 108.76876381 -1.23571944 105.41741037 C-1.22693686 101.90969398 -1.22869646 98.40198174 -1.2290802 94.89425659 C-1.22814336 89.0012591 -1.21945823 83.10831307 -1.20581055 77.21533203 C-1.1900994 70.40629342 -1.18481195 63.59731124 -1.1855461 56.78825581 C-1.18622231 49.5369848 -1.17927504 42.28573549 -1.1700995 35.03447104 C-1.16797033 32.94686011 -1.1672586 30.85925269 -1.16686058 28.77164078 C-1.16566689 24.87654893 -1.15594411 20.9815037 -1.14526367 17.08642578 C-1.14571686 15.93092224 -1.14617004 14.7754187 -1.14663696 13.5848999 C-1.14237198 12.52217865 -1.13810699 11.4594574 -1.13371277 10.36453247 C-1.13203692 9.44387056 -1.13036108 8.52320866 -1.12863445 7.5746479 C-0.99804953 4.96096088 -0.57888183 2.54883178 0 0 Z " class="st0" transform="translate(228,0)"/>
</svg>
