<?xml version="1.0" encoding="UTF-8"?>
<svg version="1.1" xmlns="http://www.w3.org/2000/svg" width="477" height="458">
<style type="text/css">
	.st0{fill:#FEFEFE;stroke:#000000;stroke-width:15;stroke-linecap:round;stroke-linejoin:round;stroke-miterlimit:10;}
</style>

<path d="M0 0 C1.95703125 0.1796875 1.95703125 0.1796875 4 1 C5.01171875 2.8203125 5.01171875 2.8203125 5.6875 5.125 C5.9246875 5.93066406 6.161875 6.73632812 6.40625 7.56640625 C7.17391737 10.71283239 7.65746029 13.78012668 8 17 C8.7425 17.28875 9.485 17.5775 10.25 17.875 C13 19 13 19 14.62890625 20.00390625 C18.20473572 21.50610809 21.84944213 21.69437935 25.6875 22.0625 C33.87671077 22.87671077 33.87671077 22.87671077 35 24 C36.299375 24.103125 37.59875 24.20625 38.9375 24.3125 C45.31039214 24.96300255 51.39416819 26.88830486 56.41015625 30.953125 C60.06289729 33.84005759 64.11784289 35.46400197 68.35546875 37.33984375 C71.4541713 39.28511492 71.92702689 40.59008023 73 44 C74.79932579 45.06716704 74.79932579 45.06716704 77 46 C82.99809018 49.62384615 84.623358 53.90215844 86.44140625 60.5859375 C87.77774146 68.75346878 84.76744794 76.39773883 82 84 C83.09699219 83.69191406 84.19398438 83.38382812 85.32421875 83.06640625 C90.44246232 81.78656345 95.56489604 81.35980543 100.8125 80.9375 C102.6734467 80.78316515 104.53414118 80.62574954 106.39453125 80.46484375 C107.61426636 80.36610962 107.61426636 80.36610962 108.85864258 80.26538086 C111.18187635 80.0489013 111.18187635 80.0489013 114 79 C115.89073978 79 117.78213422 79.00104502 119.671875 79.0625 C122.16679923 79.05242686 122.16679923 79.05242686 125.24609375 78.4296875 C129.54116389 77.93805616 133.09274692 78.3430695 137.3125 79.125 C138.05798096 79.25898193 138.80346191 79.39296387 139.5715332 79.53100586 C144.83937838 80.56558755 149.2941108 82.19426556 153.9765625 84.87109375 C156.17550003 86.18707687 156.17550003 86.18707687 159.5625 87.125 C160.366875 87.41375 161.17125 87.7025 162 88 C162.33 88.99 162.66 89.98 163 91 C164.2065625 91.4640625 164.2065625 91.4640625 165.4375 91.9375 C168.52687989 93.21846239 168.60554892 94.11813443 170 97 C170.62003906 97.14179687 171.24007813 97.28359375 171.87890625 97.4296875 C174.46704416 98.12557725 175.20939401 98.99696037 176.875 101.0625 C177.64457031 102.01189453 177.64457031 102.01189453 178.4296875 102.98046875 C178.94789063 103.64691406 179.46609375 104.31335938 180 105 C180.49757813 105.63550781 180.99515625 106.27101563 181.5078125 106.92578125 C186.68318167 113.68627658 191.39329277 120.53824851 195.0703125 128.2265625 C196.39718543 130.75765624 198.16399185 132.81974032 200 135 C202.71182244 138.86229256 204.97112486 142.73936221 207 147 C208.58467728 146.71572583 210.1677057 146.42225182 211.75 146.125 C212.63171875 145.96257812 213.5134375 145.80015625 214.421875 145.6328125 C216.8983517 145.02495004 218.82867086 144.32828487 221 143 C221.4640625 141.9790625 221.4640625 141.9790625 221.9375 140.9375 C222.288125 140.298125 222.63875 139.65875 223 139 C224.11375 138.7834375 224.11375 138.7834375 225.25 138.5625 C228.4784038 137.90214468 229.79817401 136.42654836 232.19140625 134.26953125 C235.07681458 132.24413663 238.24760564 131.53526524 241.6328125 130.67578125 C243.94512772 130.01566486 245.85915235 129.0749214 248 128 C250.625 127.75 250.625 127.75 253 128 C253.66 128.66 254.32 129.32 255 130 C254.88718696 134.85096056 253.11486052 137.63419481 250.2578125 141.33203125 C248.85238452 143.11117985 248.85238452 143.11117985 247.5 145.75 C246 148 246 148 243.75 149.3125 C239.64601013 151.83085742 237.00866179 155.28095974 234 159 C233.2265625 159.93714844 232.453125 160.87429687 231.65625 161.83984375 C227.26988576 167.3726441 224.27952856 171.93027671 222.68359375 178.8203125 C221.93307662 181.21338999 221.01234729 182.43243476 219.3125 184.25 C216.6916389 186.8360633 216.6916389 186.8360633 216.6875 190.375 C216.790625 191.24125 216.89375 192.1075 217 193 C218.216875 193.0825 219.43375 193.165 220.6875 193.25 C225.9896195 193.82048121 230.84075573 195.38667345 235.88671875 197.0625 C238.9208758 197.97617339 241.86694708 198.54906585 245 199 C245.2475 198.443125 245.495 197.88625 245.75 197.3125 C247.78914922 193.54007394 249.46970617 190.54653351 253.625 189.0625 C254.800625 189.0315625 254.800625 189.0315625 256 189 C258 191 258 191 258.1953125 193.6015625 C258.16050781 195.09816406 258.16050781 195.09816406 258.125 196.625 C258.10695313 197.62789062 258.08890625 198.63078125 258.0703125 199.6640625 C258.04710937 200.43492187 258.02390625 201.20578125 258 202 C258.62648438 202.26554688 259.25296875 202.53109375 259.8984375 202.8046875 C260.71570313 203.15789062 261.53296875 203.51109375 262.375 203.875 C263.18710937 204.22304687 263.99921875 204.57109375 264.8359375 204.9296875 C267 206 267 206 269 208 C268.86328125 210.01953125 268.86328125 210.01953125 268 212 C266.29296875 213.01171875 266.29296875 213.01171875 264.1875 213.6875 C263.15689453 214.03361328 263.15689453 214.03361328 262.10546875 214.38671875 C260 215 260 215 257.85546875 215.32421875 C255.83767978 215.84131721 255.83767978 215.84131721 254.8828125 217.8203125 C253.11390652 223.14557083 253.11390652 223.14557083 254.125 228.625 C255 232 255 232 254.06640625 233.70703125 C253.13658882 234.87391261 252.19483108 236.03136578 251.2421875 237.1796875 C249.13243891 240.27133166 249.29303154 243.30780262 249 247 C248.62875 248.093125 248.2575 249.18625 247.875 250.3125 C246.68787185 253.05426732 246.68787185 253.05426732 248 256 C247.38125 256.680625 246.7625 257.36125 246.125 258.0625 C243.12447158 262.21028929 242.88746327 265.95085222 243 271 C243.30351876 272.61451574 243.65594011 274.22080475 244.0625 275.8125 C244.72890924 278.4596256 245.0278773 279.83671869 244.5625 282.5625 C242.55794731 285.6896022 240.15647754 288.33961504 237.67578125 291.09765625 C233.1121086 296.27832893 230.79282418 302.65362458 229.5625 309.3984375 C228.89654277 312.47848969 227.82888913 315.21377719 226.625 318.125 C225.99464844 319.67574219 225.99464844 319.67574219 225.3515625 321.2578125 C224 324 224 324 222.38671875 325.59375 C220.55603284 327.45022022 220.51463706 328.81896907 220.1875 331.375 C219.22953144 336.37414686 217.00655222 337.87488927 213 341 C209.24181762 346.34125236 207.74198733 352.83589139 206.02734375 359.046875 C205.01864434 361.94640638 204.15591303 363.82315577 202 366 C198.3125 366.25 198.3125 366.25 195 366 C195 366.99 195 367.98 195 369 C206.09009518 367.03308948 206.09009518 367.03308948 216 362 C219.9199843 367.87997645 221.75233165 373.91770551 221 381 C219.94604543 384.51774449 218.62957179 387.37042821 216 390 C213.875 389.625 213.875 389.625 212 389 C211.89042969 388.30132812 211.78085937 387.60265625 211.66796875 386.8828125 C211.43013672 385.51769531 211.43013672 385.51769531 211.1875 384.125 C211.03667969 383.22007812 210.88585937 382.31515625 210.73046875 381.3828125 C210.16948699 378.65587522 210.16948699 378.65587522 207 377 C207.33 378.65 207.66 380.3 208 382 C204.25 383.125 204.25 383.125 202 382 C201.67 382.99 201.34 383.98 201 385 C200.34 385 199.68 385 199 385 C199.54021679 386.46673385 200.10818035 387.92326617 200.6875 389.375 C201.00074219 390.18710937 201.31398438 390.99921875 201.63671875 391.8359375 C203.43846498 394.69601604 204.77135393 395.08333545 208 396 C211.53258597 396.70733492 215.07285924 397.3248264 218.625 397.92578125 C222.58589235 399.18648194 224.26360205 400.93737667 227 404 C229.01633305 405.13306157 229.01633305 405.13306157 231 405 C232.58333333 403.58333333 232.58333333 403.58333333 234 402 C234.99 402 235.98 402 237 402 C237.185625 401.236875 237.37125 400.47375 237.5625 399.6875 C239.62093421 395.83912299 241.90787613 395.24844457 246 394 C248.73046875 394.4296875 248.73046875 394.4296875 251 395 C250.36771484 396.03060547 250.36771484 396.03060547 249.72265625 397.08203125 C248.90087891 398.43361328 248.90087891 398.43361328 248.0625 399.8125 C247.51722656 400.70582031 246.97195313 401.59914063 246.41015625 402.51953125 C244.88990422 405.00703562 244.88990422 405.00703562 244 408 C249.30073952 405.74624139 252.19090517 404.19682544 255 399 C257.078125 398.35546875 257.078125 398.35546875 259 398 C259.16435547 397.07767578 259.16435547 397.07767578 259.33203125 396.13671875 C259.49058594 395.32847656 259.64914062 394.52023437 259.8125 393.6875 C259.96332031 392.88699219 260.11414063 392.08648437 260.26953125 391.26171875 C261.09044438 388.71996098 262.10404104 387.81696067 264 386 C264.74386068 383.69011685 265.42190703 381.35684056 266 379 C267.32 379 268.64 379 270 379 C270.33 380.65 270.66 382.3 271 384 C271.66 383.67 272.32 383.34 273 383 C273.46898963 380.1840151 273.46898963 380.1840151 273.625 376.9375 C273.69976562 375.83277344 273.77453125 374.72804688 273.8515625 373.58984375 C273.90054687 372.73519531 273.94953125 371.88054687 274 371 C277 371 277 371 279 372 C278.85820312 370.89140625 278.71640625 369.7828125 278.5703125 368.640625 C278.42022294 367.17725183 278.27187639 365.71369916 278.125 364.25 C278.02703125 363.52039063 277.9290625 362.79078125 277.828125 362.0390625 C277.6328125 359.890625 277.6328125 359.890625 278 356 C280.9296875 353.59765625 280.9296875 353.59765625 284 352 C286.04476986 348.29385464 284.10681007 344.841282 283 341 C283.020625 339.824375 283.04125 338.64875 283.0625 337.4375 C283.24567278 333.93030379 283.24567278 333.93030379 281.4375 330.875 C279.81226803 327.62453606 279.90455304 326.38592697 281 323 C281.99 323 282.98 323 284 323 C284.04898437 322.22914063 284.09796875 321.45828125 284.1484375 320.6640625 C284.22320312 319.66117187 284.29796875 318.65828125 284.375 317.625 C284.44460938 316.62726563 284.51421875 315.62953125 284.5859375 314.6015625 C285 312 285 312 287 310 C288.9375 310.125 288.9375 310.125 291 311 C293.63601752 314.0296628 295.10518716 317.24053196 296.625 320.9375 C297.05039062 321.95714844 297.47578125 322.97679687 297.9140625 324.02734375 C298.89564689 326.71434275 299.49197713 329.19463478 300 332 C300.45670348 333.69371747 300.93605374 335.38148584 301.4375 337.0625 C301.80681641 338.31740234 301.80681641 338.31740234 302.18359375 339.59765625 C302.91404185 341.96728951 302.91404185 341.96728951 304.02294922 343.890625 C305.05776374 346.12470732 305.3175214 347.7079398 305.44921875 350.15234375 C305.49240234 350.92900391 305.53558594 351.70566406 305.58007812 352.50585938 C305.63325195 353.70952148 305.63325195 353.70952148 305.6875 354.9375 C305.75807617 356.13536133 305.75807617 356.13536133 305.83007812 357.35742188 C306.0374901 361.46145874 305.92286659 364.9775746 305 369 C304.86416831 370.33309846 304.74629835 371.66807884 304.640625 373.00390625 C303.75171803 383.67897725 302.07432706 392.8885094 296 402 C295.29187186 404.32108669 294.61975848 406.65377147 294 409 C293.34 409 292.68 409 292 409 C291.34 410.65 290.68 412.3 290 414 C289.34 414 288.68 414 288 414 C287.773125 414.886875 287.54625 415.77375 287.3125 416.6875 C285.59732428 421.01627681 283.17992375 423.94306727 278.9375 426 C276.80149361 426.92427614 276.80149361 426.92427614 275.3125 429.25 C270.95347955 434.43369999 264.77224637 437.56785351 259 441 C254.77174223 443.71679869 254.77174223 443.71679869 251 447 C248.79296875 447.59765625 248.79296875 447.59765625 246.1875 448.0625 C245.33542969 448.21847656 244.48335938 448.37445313 243.60546875 448.53515625 C242.74566406 448.68855469 241.88585937 448.84195312 241 449 C239.78957031 449.27263672 239.78957031 449.27263672 238.5546875 449.55078125 C235.64118444 450.06309448 232.89474432 450.13247723 229.9375 450.125 C228.40416016 450.12886719 228.40416016 450.12886719 226.83984375 450.1328125 C224.36521802 450.01708035 222.36349772 449.68040086 220 449 C219.071875 448.855625 218.14375 448.71125 217.1875 448.5625 C210.5705774 447.39480778 204.83478906 445.17866067 198.875 442.1875 C198.18535156 441.85685547 197.49570312 441.52621094 196.78515625 441.18554688 C192.45342706 439.02796475 189.18364476 436.74728615 186 433 C186 432.34 186 431.68 186 431 C185.43410156 430.81695312 184.86820312 430.63390625 184.28515625 430.4453125 C180.93776415 428.32815852 179.37089741 425.22665689 177.4375 421.875 C177.05142578 421.235625 176.66535156 420.59625 176.26757812 419.9375 C174.30051799 416.59986474 172.69670943 413.35324185 171.41015625 409.6953125 C170.09595621 406.2514531 169.45351289 405.39678188 167 403 C166.4453125 400.6953125 166.4453125 400.6953125 166.125 398.125 C165.3106371 393.25298544 163.65548496 391.35909428 160 388 C160.35546875 385.8671875 160.35546875 385.8671875 161 384 C159.686298 384.6433848 158.37407102 385.28978215 157.0625 385.9375 C156.33160156 386.29714844 155.60070312 386.65679687 154.84765625 387.02734375 C153.03750973 387.86371827 153.03750973 387.86371827 152 389 C149.77722138 389.24346865 147.55575073 389.38327516 145.32421875 389.5234375 C142.91003676 389.82795454 142.91003676 389.82795454 141.14453125 391.54296875 C137.3081319 394.14948415 132.77866388 392.98451678 128.3125 392.71484375 C124.26355845 393.0633965 123.74846189 394.21298253 121 397 C118.08203125 397.13671875 118.08203125 397.13671875 114.8125 396.6875 C110.63482272 396.19518113 107.1350146 395.97859392 103 396.75 C100.85546875 397.07421875 100.85546875 397.07421875 99 397 C96.3125 394.5625 96.3125 394.5625 94 392 C90.95817107 391.74994614 90.95817107 391.74994614 88 392 C85.875 391.0625 85.875 391.0625 84 390 C83.319375 389.855625 82.63875 389.71125 81.9375 389.5625 C80 389 80 389 78.5625 387.375 C77.7890625 386.694375 77.7890625 386.694375 77 386 C74.34533951 386.23043864 74.34533951 386.23043864 72 387 C72.433125 388.2684375 72.433125 388.2684375 72.875 389.5625 C73.24625 390.696875 73.6175 391.83125 74 393 C74.61875 394.60875 74.61875 394.60875 75.25 396.25 C76.24286777 401.21433884 75.2652391 405.16289359 74 410 C74.86625 409.9175 75.7325 409.835 76.625 409.75 C81.58909861 410.11771101 84.54989826 412.54989826 88 416 C90.5 416.33333333 90.5 416.33333333 93 416 C93.66 415.34 94.32 414.68 95 414 C97.97588812 413.80023653 100.8382114 413.7219186 103.8125 413.75 C104.62009766 413.74226563 105.42769531 413.73453125 106.25976562 413.7265625 C111.70027747 413.74438563 115.97061019 413.97061019 120 418 C122.77903643 418.06175637 125.50075548 417.86652591 128.2734375 417.6796875 C131 418 131 418 132.86328125 420.0546875 C134.96763484 422.41515056 134.96763484 422.41515056 138.64453125 421.953125 C140.03743631 421.74107475 141.42697435 421.50586808 142.8125 421.25 C152.97310063 419.57087727 161.26133711 419.28674754 170.1875 425.0625 C173.41260993 427.9936082 175.3600041 431.6968192 177.41015625 435.5 C178.94803063 438.13493689 178.94803063 438.13493689 181.4453125 440.35546875 C184.4243811 443.43930582 186.01794949 446.46590276 187.8125 450.3125 C188.12380859 450.95767578 188.43511719 451.60285156 188.75585938 452.26757812 C189.51323712 453.84059344 190.25796058 455.41969126 191 457 C188.28997484 458.35501258 186.18303705 458.12410559 183.1472683 458.12304783 C181.89274719 458.12503888 180.63822608 458.12702993 179.34568918 458.12908131 C177.94061348 458.12622789 176.53553798 458.12328229 175.13046265 458.12025452 C173.64793302 458.12069021 172.16540346 458.12156509 170.68287432 458.12284368 C166.59421826 458.12508894 162.50558819 458.12106693 158.41693544 458.11606562 C154.0133848 458.11176175 149.60983572 458.1132075 145.20628357 458.1139679 C137.57192002 458.11449317 129.93756499 458.111346 122.30320358 458.10573006 C111.26509183 458.09761554 100.22698421 458.09499989 89.18886979 458.09374207 C71.28183533 458.09155147 53.37480542 458.08489118 35.46777344 458.07543945 C18.06901065 458.06626553 0.67024909 458.0591846 -16.72851562 458.05493164 C-17.80032159 458.05466892 -18.87212756 458.05440619 -19.97641249 458.05413551 C-25.35315279 458.05283051 -30.72989311 458.05156679 -36.10663342 458.05032361 C-80.73775877 458.03995076 -125.36887915 458.02233223 -170 458 C-170.33 457.34 -170.66 456.68 -171 456 C-166.64788583 446.15873282 -160.59631423 436.97513218 -150.8203125 431.859375 C-145.44829494 429.85224756 -139.69608372 429.26130887 -134.04296875 428.47265625 C-130.55548576 427.93095478 -127.35022269 427.09077018 -124 426 C-123.89042969 425.45214844 -123.78085938 424.90429688 -123.66796875 424.33984375 C-123.32496992 422.6248496 -122.98112666 420.91002424 -122.63671875 419.1953125 C-122.17510907 416.8787682 -121.72025321 414.56087478 -121.26953125 412.2421875 C-121.14231689 411.59258057 -121.01510254 410.94297363 -120.8840332 410.27368164 C-120.5146342 408.38723399 -120.14788726 406.5002676 -119.78125 404.61328125 C-119 401 -119 401 -117.96875 397.55859375 C-116.71023453 392.93557925 -116.25770493 388.3652278 -115.7890625 383.609375 C-115.39477579 380.0200063 -115.04221123 378.06331685 -113 375 C-111.68 375 -110.36 375 -109 375 C-109.38671875 374.2265625 -109.7734375 373.453125 -110.171875 372.65625 C-111.25546903 370.48906194 -112.33741247 368.32104803 -113.41796875 366.15234375 C-114.30343846 364.38796337 -115.19583911 362.62687497 -116.11328125 360.87890625 C-117.12660556 358.93982887 -118.07356293 356.98214442 -119 355 C-119.43570313 354.0821875 -119.87140625 353.164375 -120.3203125 352.21875 C-125.87228637 339.40162175 -125.96414477 327.01743231 -123.03125 313.53222656 C-121.87260445 308.68640363 -121.87260445 308.68640363 -123 304 C-123.99 303.34 -124.98 302.68 -126 302 C-127.0625 299.7578125 -127.0625 299.7578125 -128 297.125 C-129.27188153 293.57433072 -130.65742829 290.95103189 -133 288 C-139.94183027 277.35256638 -139.27642415 264.33409413 -138.6875 252.125 C-138.63916016 250.85914063 -138.59082031 249.59328125 -138.54101562 248.2890625 C-138.2992549 242.4623229 -137.99791546 236.74739281 -137 231 C-136.05513435 225.39672694 -135.31205667 219.78169087 -134.59765625 214.14453125 C-134 211 -134 211 -132 208 C-129 209 -129 209 -128.05078125 210.84765625 C-127.02539062 213.92382812 -127.02539062 213.92382812 -126 217 C-126.0714624 216.21995605 -126.1429248 215.43991211 -126.21655273 214.63623047 C-127.08280878 204.11859595 -127.11531929 193.67091952 -127.0625 183.125 C-127.05747018 181.3580742 -127.05290992 179.591147 -127.04882812 177.82421875 C-127.0379509 173.54944374 -127.02076977 169.27473792 -127 165 C-125.68 164.67 -124.36 164.34 -123 164 C-118.15644336 169.1203313 -115.76449652 174.52317957 -113 181 C-113.33 175.39 -113.66 169.78 -114 164 C-110.29847322 163.07461831 -109.36541838 162.91825838 -106 164 C-105.896875 163.154375 -105.79375 162.30875 -105.6875 161.4375 C-104.93003912 157.6501956 -103.52695074 154.54252572 -102 151 C-101.22370842 148.3574184 -100.6098184 145.68525078 -100 143 C-98.35881846 136.0217478 -96.7826633 130.62533182 -92.125 125.0625 C-89.8984555 122.37076673 -87.92516968 119.87528281 -86.125 116.875 C-83.39719055 113.18443427 -80.10124478 110.75839741 -76.4375 108.02734375 C-73.87864194 105.89906276 -72.02323076 103.63232971 -70 101 C-68.6696875 99.7315625 -68.6696875 99.7315625 -67.3125 98.4375 C-64.90564093 95.90054044 -64.77334116 95.19003228 -64 92 C-62.77741 90.48784922 -61.55106328 88.97766509 -60.2734375 87.51171875 C-57.51986603 84.24290844 -55.94079637 81.12905075 -55 77 C-68.45547526 73.46044152 -68.45547526 73.46044152 -82 75 C-85.26212108 75.06885744 -88.51134107 74.99749258 -91.7734375 74.9375 C-94.66974642 74.99360284 -97.19198168 75.32691696 -100 76 C-100.495 77.485 -100.495 77.485 -101 79 C-102.96875 80.578125 -102.96875 80.578125 -105.5 82.25 C-108.96304596 84.59322911 -112.33688999 86.97898499 -115.625 89.5625 C-116.3571875 90.13742188 -117.089375 90.71234375 -117.84375 91.3046875 C-118.5553125 91.86414063 -119.266875 92.42359375 -120 93 C-133.86598813 103.81340119 -133.86598813 103.81340119 -142 103 C-143 102 -143 102 -143.4375 99.1875 C-143.33423778 90.85768063 -137.37726454 82.94329239 -132 77 C-129.38716154 73.37574019 -127.29569719 69.64655818 -125.25 65.6875 C-119.44761453 54.98435288 -111.34311095 46.71344044 -99.5 43.1875 C-98.6646875 42.97480469 -97.829375 42.76210938 -96.96875 42.54296875 C-95.01346244 42.17801604 -95.01346244 42.17801604 -94 41 C-91.40570605 40.89743489 -88.84430506 40.85970011 -86.25 40.875 C-85.48445801 40.8762085 -84.71891602 40.87741699 -83.93017578 40.87866211 C-78.16801962 40.91766858 -72.48410623 41.32145897 -66.74609375 41.8515625 C-64.32486197 41.98243989 -62.30974026 41.86881641 -59.9375 41.4375 C-57 41 -57 41 -55.30078125 41.87109375 C-52.09153329 43.44575022 -48.73677439 43.97905692 -45.25 44.625 C-44.55261719 44.7590625 -43.85523437 44.893125 -43.13671875 45.03125 C-41.42548068 45.35943264 -39.71286829 45.68043502 -38 46 C-38 44.02 -38 42.04 -38 40 C-35.9540713 38.90396677 -34.14194351 38.03339847 -31.875 37.5 C-29.77320517 37.10722935 -29.77320517 37.10722935 -28 35 C-27.94713679 32.98538079 -27.94713679 32.98538079 -29 31 C-31.22918367 29.2805455 -31.22918367 29.2805455 -33.9375 27.875 C-38.85760518 25.14239482 -38.85760518 25.14239482 -41 23 C-40.8125 21 -40.8125 21 -40 19 C-37.02361353 17.01574235 -36.26100056 16.72787063 -32.90234375 16.55078125 C-32.10481689 16.50687256 -31.30729004 16.46296387 -30.4855957 16.41772461 C-29.64472412 16.38300049 -28.80385254 16.34827637 -27.9375 16.3125 C-27.08438232 16.2719751 -26.23126465 16.2314502 -25.35229492 16.18969727 C-19.46334438 15.95131228 -13.84175161 16.13810222 -8 17 C-7.97421875 16.37351562 -7.9484375 15.74703125 -7.921875 15.1015625 C-7.86515625 14.28429688 -7.8084375 13.46703125 -7.75 12.625 C-7.70359375 11.81289062 -7.6571875 11.00078125 -7.609375 10.1640625 C-7 8 -7 8 -5.02734375 6.87109375 C-4.35832031 6.58363281 -3.68929687 6.29617187 -3 6 C-1.78130071 3.49552484 -1.78130071 3.49552484 -1 1 C-0.67 0.67 -0.34 0.34 0 0 Z M25 52 C26.18173843 57.02238831 29.17843162 58.8962488 33.22265625 61.66796875 C35 63 35 63 36 65 C36.06996014 66.70702735 36.08440154 68.41668003 36.0625 70.125 C36.05347656 71.03507812 36.04445312 71.94515625 36.03515625 72.8828125 C36.02355469 73.58148438 36.01195312 74.28015625 36 75 C39.77686717 73.24069008 42.26668556 71.18886684 45 68 C45.38749213 64.09445121 45.38749213 64.09445121 43.4375 61.8125 C40.3293354 59.50130068 37.81247372 59.29326721 34 59 C33.938125 58.21625 33.87625 57.4325 33.8125 56.625 C33.26711667 53.78948376 33.26711667 53.78948376 30.625 52.6875 C27.96857 51.8733203 27.96857 51.8733203 25 52 Z M73 91 C72.47212891 92.21236328 72.47212891 92.21236328 71.93359375 93.44921875 C68.78989481 100.25372637 66.47854254 104.2106638 60 108 C58.97248159 108.97170259 57.9701687 109.97103319 57 111 C56.34 111.66 55.68 112.32 55 113 C55.49628906 113.556875 55.99257812 114.11375 56.50390625 114.6875 C57.92555382 116.2844931 59.34328296 117.88497998 60.7578125 119.48828125 C62.16810037 121.0680985 63.59793024 122.63089598 65.0546875 124.16796875 C65.67601562 124.83441406 66.29734375 125.50085938 66.9375 126.1875 C67.50339844 126.77917969 68.06929687 127.37085938 68.65234375 127.98046875 C70.41283855 130.6186595 70.57830268 132.87015472 71 136 C71.58818518 138.13548313 72.2146107 140.26073039 72.875 142.375 C73.23207031 143.5196875 73.58914062 144.664375 73.95703125 145.84375 C74.74938779 148.24159301 75.59721971 150.54606977 76.5625 152.875 C78.94116764 158.9767996 79.80396287 165.58489177 81 172 C81.5036086 174.57399953 82.01540595 177.14565582 82.54296875 179.71484375 C82.86131435 181.30657175 83.153659 182.9036277 83.42578125 184.50390625 C83.64814453 185.70853516 83.64814453 185.70853516 83.875 186.9375 C83.99617188 187.64777344 84.11734375 188.35804688 84.2421875 189.08984375 C85.33382297 191.84144037 86.3808628 192.59065474 89 194 C91.81305084 194.66013025 94.62737155 194.96712657 97.5 195.25 C98.25925781 195.34023437 99.01851563 195.43046875 99.80078125 195.5234375 C103.50111584 195.92522514 106.43070637 195.92794185 110 195 C111.33801278 195.31402341 112.67117374 195.64913014 114 196 C120.72540415 196.05205421 126.84508329 194.86534508 133.25 192.875 C138.8238679 191.15048838 142.34049326 190.93216854 148 192 C148.99 191.34 149.98 190.68 151 190 C154.26910377 188.94723777 157.56489192 188.02670273 160.87109375 187.09765625 C163.82916957 186.05992928 165.6076158 184.96270987 168 183 C169.64797236 182.28837557 171.31165408 181.60968047 173 181 C172.51275015 176.24477699 172.51275015 176.24477699 170.875 171.8125 C170 170 170 170 170.375 167.75 C170.58125 167.1725 170.7875 166.595 171 166 C171.66 166 172.32 166 173 166 C172.67 164.68 172.34 163.36 172 162 C172.99 161.34 173.98 160.68 175 160 C174.81494589 158.02731298 174.81494589 158.02731298 174 156 C172.18796289 155.00037324 172.18796289 155.00037324 169.9375 154.5 C158.30928276 150.9819088 158.30928276 150.9819088 155.578125 146.84765625 C152.72618051 140.82145847 152.72618051 140.82145847 154 137 C156.97 138.98 159.94 140.96 163 143 C164.31637656 140.15266661 164.31637656 140.15266661 163.1796875 138.0625 C160.45949764 133.57776929 160.45949764 133.57776929 156.25 130.625 C154 129 154 129 153.46484375 126.60546875 C153.21245162 124.06377333 153.05269125 121.5531307 153 119 C148.96515421 117.6550514 145.04392154 117.67361399 140.8125 117.4765625 C137.7754303 116.96194791 136.84499282 116.39592817 135 114 C135.66 113.54625 136.32 113.0925 137 112.625 C137.99 111.820625 137.99 111.820625 139 111 C139 110.34 139 109.68 139 109 C137.3377131 107.20947376 137.3377131 107.20947376 135 106 C132.54937514 106.068573 132.54937514 106.068573 130.0625 106.8125 C126.59265373 107.69739124 123.58748953 108.12193614 120 108 C120.66 105.69 121.32 103.38 122 101 C121.30132812 101.02320312 120.60265625 101.04640625 119.8828125 101.0703125 C118.97273438 101.08835937 118.06265625 101.10640625 117.125 101.125 C115.76761719 101.15980469 115.76761719 101.15980469 114.3828125 101.1953125 C112 101 112 101 110 99 C107.46493189 98.79451868 107.46493189 98.79451868 104.625 98.9375 C99.37009652 99.10038784 99.37009652 99.10038784 96.83984375 98.4140625 C93.79252342 97.72825368 91.65910443 99.58558275 89 101 C88.01 101 87.02 101 86 101 C85.608125 100.071875 85.21625 99.14375 84.8125 98.1875 C82.82520108 94.69259501 81.6108674 93.63348763 78 92 C76.3384845 91.64187276 74.67212291 91.30478495 73 91 Z M-47 123 C-52.28440708 125.59373946 -52.28440708 125.59373946 -56 130 C-56.845625 130.33 -57.69125 130.66 -58.5625 131 C-59.366875 131.33 -60.17125 131.66 -61 132 C-61.33 132.99 -61.66 133.98 -62 135 C-63.70703125 135.95703125 -63.70703125 135.95703125 -65.8125 136.8125 C-69.95770166 138.75486559 -71.91528047 140.83056094 -74 145 C-74 146.32 -74 147.64 -74 149 C-75.4615219 150.16257424 -76.92689238 151.32089426 -78.41796875 152.4453125 C-80.87623637 154.86109154 -81.75252739 157.78244497 -83.0078125 160.94140625 C-84.37983611 163.78808517 -86.52981945 165.0720542 -89 167 C-90.87909475 169.89423788 -92.45344631 172.91774564 -94 176 C-94.40017334 176.61270752 -94.80034668 177.22541504 -95.21264648 177.85668945 C-96.26637173 180.00751266 -96.26637173 180.00751266 -95.18896484 182.18237305 C-94.70121582 182.95105713 -94.2134668 183.71974121 -93.7109375 184.51171875 C-93.18113281 185.35154297 -92.65132813 186.19136719 -92.10546875 187.05664062 C-91.53441406 187.92482422 -90.96335937 188.79300781 -90.375 189.6875 C-89.82714844 190.56728516 -89.27929688 191.44707031 -88.71484375 192.35351562 C-86.07723985 196.99753268 -86.07723985 196.99753268 -81.80712891 199.75708008 C-81.21077637 199.83724365 -80.61442383 199.91740723 -80 200 C-79.64808594 199.5153125 -79.29617187 199.030625 -78.93359375 198.53125 C-75.19366301 193.45353725 -71.18372509 188.71405644 -67 184 C-64.50691555 181.13501898 -62.18824179 178.30508153 -60.1875 175.0625 C-58.2345 172.32830001 -56.77167638 170.9551454 -54.1875 168.9375 C-48.85801924 164.45953403 -45.42143002 158.48450751 -43 152 C-43.27441612 149.07008024 -44.06832937 146.79501188 -45 144 C-44.24579241 142.29483502 -43.48961221 140.59045299 -42.71484375 138.89453125 C-41.04693829 134.47412608 -41.63610422 130.89319873 -43.375 126.625 C-44.73593741 123.91323658 -44.73593741 123.91323658 -47 123 Z M-112 189 C-110.24270182 199.09290335 -108.09412484 207.70880046 -102.86450195 216.56762695 C-99.76241561 221.97746091 -98.60790408 226.98102272 -97.66796875 233.171875 C-96.94878158 236.21685458 -96.238543 236.96870868 -94 239 C-93.97188384 224.40595736 -93.97188384 224.40595736 -99 211 C-99.65634633 209.73456428 -100.30205371 208.4635588 -100.9375 207.1875 C-101.43056641 206.23037109 -101.43056641 206.23037109 -101.93359375 205.25390625 C-103.73584014 201.44476277 -105.17828134 197.48364102 -106.65625 193.5390625 C-108.13744158 190.74029935 -109.06369896 190.03268214 -112 189 Z M-47 223 C-50.70552952 225.88286741 -50.70552952 225.88286741 -52.33203125 230.11328125 C-52.3145776 232.07856214 -52.16596091 234.04166127 -52 236 C-51.01 236 -50.02 236 -49 236 C-46.3346765 232.8016118 -45.0602752 230.81371525 -44.75 226.625 C-44.8325 225.75875 -44.915 224.8925 -45 224 C-45.66 223.67 -46.32 223.34 -47 223 Z M217.375 226.5 C216.59125 227.325 215.8075 228.15 215 229 C215.33 229.66 215.66 230.32 216 231 C219.05763218 229.21168225 219.05763218 229.21168225 222 227 C222 226.01 222 225.02 222 224 C219.63721264 223.77011494 219.63721264 223.77011494 217.375 226.5 Z M-125 238 C-125.38049243 246.79360282 -124.23842665 255.32216755 -123 264 C-122.90203125 264.94488281 -122.8040625 265.88976562 -122.703125 266.86328125 C-121.70667404 274.30107592 -117.66903991 279.28856978 -113 285 C-111.515 284.505 -111.515 284.505 -110 284 C-109.51835546 274.47414138 -109.58192934 267.7066746 -115.5 260.0625 C-119.67485361 254.32207629 -121.45887566 247.90457727 -122.5078125 240.96875 C-122.67023438 240.3190625 -122.83265625 239.669375 -123 239 C-123.66 238.67 -124.32 238.34 -125 238 Z M147.18359375 241.91015625 C143.03371079 243.98138585 138.49266434 244.92760996 134 246 C133.40929986 247.94603274 133.40929986 247.94603274 133 250 C134.17456501 251.37862274 134.17456501 251.37862274 137.4375 251.4375 C141 252 141 252 143 254 C145.97121534 254.22873769 145.97121534 254.22873769 149 253 C152.19737932 248.55919538 153.70728146 244.27860069 155 239 C151.53243697 239 150.07379977 240.16360164 147.18359375 241.91015625 Z M168 239 C167.34 240.98 166.68 242.96 166 245 C167.32 244.34 168.64 243.68 170 243 C170 241.68 170 240.36 170 239 C169.34 239 168.68 239 168 239 Z M-53 242 C-56.50323187 248.69602804 -56.50323187 248.69602804 -56 256 C-56.495 256.804375 -56.99 257.60875 -57.5 258.4375 C-59.42201467 261.72094173 -58.92067252 263.40100742 -58 267 C-56.35 266.67 -54.7 266.34 -53 266 C-52.26002633 263.30381735 -51.83574801 260.78603442 -51.68359375 257.99609375 C-51.64169922 257.25552734 -51.59980469 256.51496094 -51.55664062 255.75195312 C-51.51732422 254.98818359 -51.47800781 254.22441406 -51.4375 253.4375 C-51.37272461 252.28604492 -51.37272461 252.28604492 -51.30664062 251.11132812 C-51.13962146 248.07051892 -51 245.04590822 -51 242 C-51.66 242 -52.32 242 -53 242 Z M137 260 C136.34 260.66 135.68 261.32 135 262 C135.99 262 136.98 262 138 262 C137.67 261.34 137.34 260.68 137 260 Z M185 275 C184.56171875 275.37511719 184.1234375 275.75023437 183.671875 276.13671875 C176.1542392 282.20277853 167.69002609 285.17716887 158.5625 288.0625 C154.2597265 289.43309626 151.43168087 291.01111666 148 294 C147.01 293.67 146.02 293.34 145 293 C145.33 294.32 145.66 295.64 146 297 C147.093125 297.2475 148.18625 297.495 149.3125 297.75 C153 299 153 299 154.375 300.96875 C156.54092687 303.67615859 158.35288147 303.96538387 161.6875 304.75 C162.68136719 304.99234375 163.67523438 305.2346875 164.69921875 305.484375 C165.45847656 305.65453125 166.21773438 305.8246875 167 306 C167.598125 305.0925 168.19625 304.185 168.8125 303.25 C171 300 171 300 172.5625 298.1875 C174.01498966 295.97718965 174.45605113 294.40460135 175.125 291.875 C177.02034266 285.6504047 181.50139555 281.51746652 186 277 C185.505 276.01 185.505 276.01 185 275 Z M-53 281 C-53.66 282.32 -54.32 283.64 -55 285 C-53.515 285.99 -53.515 285.99 -52 287 C-51.34 285.68 -50.68 284.36 -50 283 C-50.99 282.34 -51.98 281.68 -53 281 Z M-93 298 C-94.42830361 306.28416093 -94.60816065 311.69693655 -89.703125 318.69921875 C-89.14109375 319.45847656 -88.5790625 320.21773438 -88 321 C-87.02916251 322.53382315 -86.06969565 324.07493903 -85.125 325.625 C-84.42375 326.73875 -83.7225 327.8525 -83 329 C-82.01 328.67 -81.02 328.34 -80 328 C-78.87833297 317.28184838 -81.11081321 309.88165975 -87 301 C-89.62351888 298.53120547 -89.62351888 298.53120547 -93 298 Z M86.5 307.375 C83.48924021 308.77285276 81.73027327 309.23805525 78.5625 309.6875 C72.80842019 310.82864524 70.43272373 314.54858768 67 319 C65.33333333 320.66666667 63.66666667 322.33333333 62 324 C59.82155068 326.80919458 59.82155068 326.80919458 59.5625 329.875 C59 333 59 333 57.375 335.625 C55.78645049 337.86835413 55.78645049 337.86835413 56.125 340.25 C56.558125 341.11625 56.558125 341.11625 57 342 C60.35016222 343.11672074 61.41324846 342.8290066 64.75 342 C69.2218872 341.04634106 72.4741389 341.06361494 77 342 C85.31745322 343.596098 85.31745322 343.596098 93.75 344 C98.06085462 343.89974757 101.88021678 344.80439858 106 346 C115.37556641 348.76420371 115.37556641 348.76420371 125 348 C126.19625 347.855625 127.3925 347.71125 128.625 347.5625 C131.79800572 347.03366571 134.19335781 346.55924566 137 345 C138.82619087 342.48635244 138.82619087 342.48635244 140 340 C139.13375 339.0409375 139.13375 339.0409375 138.25 338.0625 C136.3412202 335.46443861 135.22959221 333.42272118 134 330.5 C131.46148992 324.53400745 127.67143958 320.44899008 123 316 C122.13375 315.154375 121.2675 314.30875 120.375 313.4375 C112.96386557 307.50484946 95.42860657 302.46426639 86.5 307.375 Z " class="st0" transform="translate(171,0)"/>
<path d="M0 0 C2 1 2 1 2 1 Z " class="st0" transform="translate(115,264)"/>
<path d="" class="st0" transform="translate(0,0)"/>
</svg>
