<?xml version="1.0" encoding="utf-8"?>
<!-- Generator: Adobe Illustrator 24.1.0, SVG Export Plug-In . SVG Version: 6.00 Build 0)  -->
<svg version="1.1" id="Livello_1" xmlns="http://www.w3.org/2000/svg" xmlns:xlink="http://www.w3.org/1999/xlink" x="0px" y="0px"
	 viewBox="0 0 450 682.3" style="enable-background:new 0 0 450 682.3;" width="50" height="50" xml:space="preserve">
<style type="text/css">
	.st0{fill:#FEFEFE;}
</style>
<g>
	<path class="st0" d="M240.8,665.5c-2.9,0-5.8-0.1-8.2-0.3c-8-0.4-16.5-0.8-25.1-0.8c-0.9,0-1.9,0-2.8,0h-0.5
		c-5.2,0-10.1-0.8-14.9-1.5c-3.9-0.6-7.6-1.2-11.2-1.3c-6.5-0.2-12.9-0.9-19.2-1.5c-4.1-0.4-8.3-0.9-12.4-1.1
		c-11.2-0.8-22.3-3.2-33.1-7.1c-4.1-1.5-8.5-2.8-12.9-2.8c-1.7,0-3.4,0.2-5,0.6c-1.6,0.4-3.4,0.6-5.1,0.6c-5.4,0-10.3-1.8-14.6-3.4
		c-0.8-0.3-1.6-0.6-2.4-0.9c-7.2-2.6-14.4-5.5-21.3-8.3c-3.2-1.3-6.3-2.6-9.5-3.8c-5.1-2-6.8-5.3-7.3-7.7c-1.2-5.3,2.5-9.2,4.1-10.8
		c5.3-5.5,11.3-9.6,17.1-13.6c-4.2-1.6-9.3-3.6-13-8.7c0,0-0.1-0.1-0.2-0.2c-0.7-0.8-1.9-2.1-2.5-4h-0.1c-1.5,0.4-2.8,0.6-4,0.6
		c-6.7,0-9.7-5.3-10.7-7.1c-2.1-3.8-3.9-7.7-5.5-11.5c-2.3-5.2-4.5-10.1-7.5-14.4c-1-1.4-2.6-4.3-2.1-7.7
		c1.6-10.9,18.1-29.2,29.4-32.7c0.7-0.2,1.5-0.3,2.2-0.3c2,0,3.9,0.8,5.4,2.3c0.1,0.1,0.1,0.1,0.2,0.2c0.1-0.5,0.1-1,0.2-1.5
		c0.3-2.1,0.5-4.2,0.8-6.3c1.6-12.8,4-26.1,14-37.1c4-4.4,5.4-9.9,6.8-16.2c1.9-8.8,4.2-17.5,6.4-26c1-3.9,2.1-7.9,3.1-11.9
		c0.3-1.3,0.6-2.6,0.9-4c0.3-1.3,0.5-2.7,0.9-4.1c0.1-0.4,0.1-0.7,0.2-1.1c0.4-2.2,1-5.6,3.8-8.2c2.1-1.9,2.2-2.6-0.1-8.6
		c-0.6-1.6-1.2-3.2-1.7-4.9c-0.1-0.2-0.1-0.5-0.2-0.7c-0.6-0.2-1.2-0.4-1.7-0.7c-2.2-1.2-3.7-3.1-4.4-5.4c-1-3.6,0.7-6.4,1.4-7.6
		c0.2-0.8,0.3-2,0.5-3.2c0.2-2.2,0.5-5,1.7-7.9c-1.2-3.9-0.8-7.5,0.1-10.5c-1.2-1.1-2-2.6-2.3-4.2c-1.2-7-0.2-13.4,1.4-19.2
		c-1.5-1.2-2.6-3.1-2.8-5.1c-0.4-4.1,0-7.7,0.9-10.9c-1.2-0.7-2.2-1.7-2.9-2.9c-0.7-1-3.6-6.6,2.3-12c0.4-0.3,0.7-0.7,1-1
		c0.5-0.6,1.2-1.2,1.9-1.9c0.9-0.8,2.9-2.6,3.1-3.3c0,0,0-0.2-0.2-0.6c-2.1-5.7,0.3-11.4,5.5-13.7c0.3-0.1,0.6-0.2,0.9-0.3
		c0.4-1.8,0.9-3.6,1.4-5.3c0.9-3.1,1.7-6,2.2-8.9c-0.1-0.2-0.2-0.5-0.3-0.8c-0.3-0.9-0.8-2.1-1-3.7c-0.9-6.5,1.1-12.1,2.8-16.5
		c0.5-1.5,1.1-2.8,1.4-4.1c0.3-0.9,0.5-1.9,0.7-2.9c0.5-2.4,1.1-5.2,2.4-8c0.4-0.9,1-1.7,1.8-2.4c-0.3-1.5-0.5-2.9-0.7-4.4
		c-0.3-2.1-0.6-4.2-1.1-6.1c-1.5-6.7,0.5-13.6,5.4-18.4c0.3-0.3,0.6-0.6,0.9-1c-1-1.4-1.6-3.1-1.5-4.9c0.3-5.5,2.4-9.9,4.3-13.9
		c0.2-0.4,0.4-0.9,0.6-1.3c-0.2-0.2-0.5-0.3-0.7-0.5c-1.9-1.4-3.1-3.4-3.4-5.7c-0.5-3.9,1.6-6.7,2.9-8.4c0.2-0.2,0.3-0.4,0.5-0.6
		c0.3-0.6,0.6-1.2,0.9-1.8c1.3-2.5,2.9-5.6,5.6-8.3c0-2.5,0.8-5,2.6-7.2c0.4-0.5,0.9-1.1,1.3-1.6c0.3-0.3,0.6-0.7,0.8-1
		c-0.7-2.2-0.5-4.6,0.6-6.6c0.6-1.1,1.4-1.9,2.2-2.5c0.2-0.7,0.5-1.4,0.9-2c-2.6-3.1-3.6-6.7-4.3-9.3c-0.2-0.6-0.3-1.2-0.5-1.8
		c-3.5-11.4-2.6-22,2.7-31.3c3-5.2,7.2-8.9,10.9-12c0.7-0.6,1.3-1.1,2-1.7s1.4-1.1,2.1-1.5c0.2-1.7,0.9-3.2,2-4.4
		c-0.8-2.7-0.1-5.7,2-7.7c0.3-0.3,0.7-0.6,1.1-0.8c0.3-1.7,1-3.3,2.2-4.6c1.7-1.9,3.9-2.9,6.4-2.9c0.1,0,0.2,0,0.3,0
		c0.5-1.6,1.5-3,2.9-4c2.1-1.5,4.5-3.1,7.2-4.4c-0.4-0.8-0.7-1.7-1-2.7c-0.9-3,0.3-6.2,2.8-8.1c1.3-1,2.9-1.4,4.4-1.4
		c1.4,0,2.9,0.4,4.1,1.2c0.3,0.2,0.4,0.2,0.8,0.2c0.5,0,1.2-0.1,2-0.2c0.7-0.1,1.5-0.2,2.4-0.3c0.5,0,0.9-0.1,1.4-0.1
		c3.2,0,6.1,0.9,8.5,2.5c0.1-0.7,0.2-1.3,0.4-2c0.8-2.9,3.2-5.1,6.2-5.5c0.4-0.1,0.7-0.1,1.1-0.1c2.2,0,4.2,0.9,5.7,2.6
		c0.9-1.7,2.2-2.9,3.4-3.7c1.6-1.1,3.4-1.6,5.3-1.6c0.4,0,0.9,0,1.3,0.1c0.4-2,1.7-3.8,3.5-4.9c1.2-0.7,2.5-1.1,3.8-1.1
		c0.4,0,0.7,0,1,0.1c0.6-1.5,1.8-2.9,3.3-3.7c1.1-0.6,2.4-1,3.7-1c1.8,0,3.6,0.6,5,1.9c0.2,0.2,0.5,0.4,0.6,0.5
		c1,0.8,3.7,2.8,3.9,6.7c0,0.3,0,0.4,0.1,0.5c0.3,0.5,2.2,1.4,3.4,1.9c0.9,0.4,1.8,0.9,2.8,1.4c1.6,0.9,3.6,1.7,5.7,2.5
		c1.1,0.4,2.2,0.9,3.3,1.3c1.9,0.8,3.4,1.8,4.6,3c0.5-0.1,1-0.1,1.5-0.1c0.9,0,1.8,0.2,2.7,0.5c0.4,0.1,0.7,0.3,1,0.4
		c0.9-0.6,2-1,3.2-1.2c0.3,0,0.6-0.1,1-0.1c1.9,0,3.8,0.7,5.2,2.1c3.7,3.6,4.6,7.8,5.2,10.6c0.2,0.8,0.4,1.6,0.5,2.1
		c0.1,0.3,0.2,0.5,0.3,0.8c6.4,2.5,6.8,7.3,6.6,9.3c-0.1,1.3,0.1,1.8,4.1,4.5c1.4,0.9,3,2,4.5,3.3c6.1,5.4,8.6,11.6,9.5,17.4
		c2.4,0.4,5.4,1.8,7.2,6l0.1,0.1c6,12.6,6.7,24.7,2.1,35.8c-0.6,1.4-0.8,1.9,1,4.4c2.5,3.3,9,12.1,3.7,23.1c0.1,0.4,0.4,1.2,1.2,1.9
		c5.2,5.4,7.7,11.9,9.9,17.6l0.2,0.5c2.2,5.7,2.2,11.5,0,16.8c-0.9,2.3-0.2,4.7,1.3,8.8c0.7,2,1.5,4.3,2,6.8
		c0.1,0.1,0.2,0.3,0.2,0.4c2.7,4.6,2.6,8.2,1.4,10.9c2.6,5.9,3.9,11.9,5.1,17.7c0.6,2.9,1.2,5.7,2,8.4c0.8,2.9,2.5,5.7,4.4,8.7
		c1.8,3,3.9,6.3,5.3,10.3c0,0.1,0.1,0.2,0.1,0.3c0.6,1.4,2.5,5.8-0.7,10.7c-1.2,1.9-3.3,3.2-5.6,3.4c-0.2,0-0.5,0-0.7,0
		c-0.7,0-1.3-0.1-2-0.3c1.8,5.2,3.8,10.3,6.2,15.1c0,0.1,0.1,0.2,0.1,0.2c0.5,0.9,1.9,3.5,1.3,6.5c4.2,4.8,6.1,10.3,7.9,15.4
		c1.1,3.1,2.1,6,3.6,8.4c0.6,1,2.4,4.1,1.3,7.8c-0.4,1.2-1,2.2-1.8,3.1c2.4,2.1,3.8,4.7,4.8,6.5c0.5,1,1.1,2.1,1.5,2.5l0.2,0.2
		c7.1,6.4,2.2,12.6,1.6,13.3c-0.2,0.3-0.5,0.5-0.7,0.8c2.3,3.1,2.1,6.7,0.6,9.3c-0.1,0.1-0.1,0.2-0.2,0.4
		c10.4,14.9,17.8,27.2,24,39.7c2.7,5.5,5.3,11.2,7.7,16.6c5.3,11.8,10.3,22.9,17.3,33.1c0.3,0.4,0.6,0.8,0.8,1.2
		c0.9,1.4,2,3,2.7,3.5c9.7,7.2,11,18,11.7,23.8c4.1,9.3,3.5,18.6,3,26.9c-0.2,3.4-0.4,6.7-0.3,9.8c0.4,11.6,2.6,22.3,6.4,32l0,0
		c3.2,5,1.6,8.8,0.3,10.6c-0.7,0.9-0.8,2.4-1.1,4.8c-0.3,2.4-0.6,5-1.6,7.8l-0.2,0.6c-1.9,4.9-3.6,9.2-3,13.4c0.3,2.5,0,6.2-3.9,9.9
		c-2.8,2.7-6.4,4.7-10.3,5.7c4.4,3.5,8.7,7.1,12.7,11.1c2.5,2.5,6.4,6.2,5.6,11.5s-5.5,7.6-9.2,9.5c-11.6,5.8-25.3,12.2-40.5,14.5
		c-5.9,0.9-11.9,1.6-17.7,2.2l-1.9,0.2c-13.7,1.6-27.2,3.3-40.4,6.4c-9.9,2.3-19.7,2.6-27.9,2.6c-3.1,0-6.3-0.1-9.3-0.1
		s-6.1-0.1-9.1-0.1c-3.3,0-6.2,0.1-8.8,0.2c-4.2,0.2-8.2,0.9-12.3,2.2C253.3,664.7,247.7,665.5,240.8,665.5z M382.3,540
		c0.6,1.2,1.1,2.4,1.6,3.5s0.9,2.1,1.4,3c0.8-0.6,1.5-1,2.3-1.3c0.1-0.2,0.7-2.5,0.7-2.5c0.6-2.3,2.3-4.1,4.4-5
		c-0.1-2.1-0.4-3.8-1.3-5.4c-4.5-7.9-5.4-17.2-2.6-26.1c5-16,2.2-29.9-8.9-43.9c-2.8-3.6-5.9-6.9-9.1-10.5c-1.9-2.1-3.9-4.3-5.8-6.5
		c-0.4-0.5-0.8-1-1.2-1.4c0.4,2.1,0.9,4,1.9,5.6c2.2,3.5,2,7.7-0.4,10.9c-0.4,0.5-0.8,0.9-1.3,1.3c0.5,4,0.9,8.2,1.2,12.3
		c0.3,5.4,1.7,9.8,4.3,13.6c2.2,3.2,3.5,7,4,11.2c0.2,1.3,0.6,4.8-1.8,7.8c0,0,0,0,0,0.1c2.5,4.8,3.1,9.5,1.9,14
		c2,1.8,3.5,3.8,4.8,5.6c0.8,1.1,1.7,2.2,2.4,3C384.1,532.8,384.1,536.9,382.3,540z"/>
	<path d="M224.2,19.8c1.1,1,2,1.4,2,1.8c0.2,6.5,5.9,7.8,10.1,10.1c3,1.7,6.4,2.8,9.7,4.2c2.2,0.9,3,1.9,3.3,3.9
		c0.1,0.5-0.3,1.1-0.1,1.5c0.9,2.5,2.8,5.4,4.9,5.4c0.1,0,0.3,0,0.4,0c3.2-0.6,0.3-3.4,0.2-5.2c0-0.6,0.2-1.2,0.3-2
		c2.9,1.1,2.7,4.4,4.8,5.8c1.9-1.4,1.7-3.9,3-6.2c3,2.9,2.8,6.7,3.9,9.9c0.7,2,1.1,3.9,3.5,4.8c0.8,0.3,3,0.7,2.9,2.1
		c-0.6,8.1,6.9,10.2,11.1,14c8.3,7.4,8,16.1,6.5,25.4c-0.1,0.7-0.3,1.3-0.4,1.9c0,0.3,0.1,0.6,0.2,0.8c5.7-0.5,6.4-4.6,5.6-9
		c0.3,0,0.5-0.1,0.8-0.1c1.6,0,1.9,1.2,2.3,2c4.6,9.6,6.2,19.6,2,29.7c-1.9,4.5-1,7.8,1.9,11.7c3.3,4.4,6,9.3,2.8,15.7
		c-1.5,2.9-0.2,7.1,2.7,10.1c4.2,4.4,6.4,10.1,8.5,15.6c1.4,3.5,1.7,7.3,0.1,11.2c-3,7.3,1.7,13.6,3,20.4c0.5,2.6,4.4,5,0.5,8
		c-0.3,0.2,0,1.3,0.3,1.9c4.6,8.6,5.4,18.3,8,27.5c2,7.2,7.4,12.5,9.8,19.4c0.5,1.4,1.4,2.5,0.2,4.4c-4.3-4.5-6.3-10.6-11.7-14.5
		c-0.4,4.3,1.4,7.4,2.1,10.6c-0.4,0.4-0.8,0.6-1,0.6c-0.9,0-1.4-1.5-2.2-1.5c-0.2,0-0.3,0.1-0.5,0.2c-0.8,2.3,0.9,4,1.6,6
		c2.8,8.3,5.5,16.5,9.5,24.3c0.7,1.3,1.8,2.5-1.1,3.1c-1.7,0.4,0.1,2,0.6,2.4c8.4,6.4,8.7,17.2,13.7,25.5c0.6,1,1,1.9-0.2,2.5
		c-0.2,0.1-0.4,0.1-0.6,0.1c-0.8,0-1.2-0.9-1.7-1.5c-2.3-3.1-5-5.6-9.6-6.2c0.8,4.6,4.9,6.2,7,9.3c1.1,1.7,4.4,2.6,2.3,5.7
		c-0.1,0.2,0.2,1.1,0.4,1.1c5.6,1.3,6.1,7.1,9.4,10.4c0.9,0.8,2.5,1.9,1.3,3.3c-0.3,0.3-0.5,0.4-0.8,0.4c-0.8,0-1.6-1.2-2.6-1.2
		c-0.1,0-0.1,0-0.2,0c-1.1-1.1-1.8-2.8-3.6-2.8c-0.6,0-1.2,0.2-2,0.6c4.3,1.2,0.9,5.3,3.5,7.2c0.7,2.1,2,3.8,3.8,5.1
		c0.7,0.5,1.4,1.2,0.9,2.1c-0.3,0.5-0.6,0.7-0.9,0.7c-0.5,0-1.1-0.4-1.6-0.7c-2.3-1.1-3.9-3.1-5.4-5.1c-0.4-0.6-1-1.1-1.6-1.1
		c-0.3,0-0.6,0.1-0.9,0.4c-0.8,0.7-0.1,1.5,0.3,2.2c2.1,3,3.7,6.3,7,8.3c0.8,0.5,1.6,1.2,2.2,2c9,12.9,17.4,26,24.5,40.3
		c8.4,16.9,14.8,34.9,25.5,50.6c1.6,2.3,3.1,4.9,5.3,6.6c6.4,4.7,7.9,11.5,8.7,18.7c0,0.3-0.1,0.7,0.1,1c5.6,11.4,2.1,23.3,2.5,35
		c0.4,11.9,2.6,23.7,7.1,34.9c0.4,1.1,1.7,2.1,1,3.2c-3.1,4.3-1.8,9.7-3.6,14.3c-2.2,5.7-4.6,11.4-3.7,17.8c0.2,1.4-0.7,2.6-1.7,3.5
		c-3,2.9-7.2,4.4-11.2,4.4c-5.1,0-10.1-2.3-12.8-6.9c-2.6-4.4-5.1-8.8-7.9-13.2c-4.3-6.7-4.9-14-1.3-21.3c0.4-0.9,0.4-2.8,1.6-2.8
		c0.4,0,1,0.3,1.8,0.9c0.2,0.2,0.4,0.3,0.6,0.3c0.5,0,0.5-1.1,0.6-1.6c0.7-2.4,1.3-4.7,1.9-7.1c2.7,0.6,1.7,3.3,4.1,5.3
		c0.1-7.8,1.9-14.7-1.8-21.3c-3.7-6.5-4-13.8-2-20.2c6-19.1,1.8-35.7-10.2-50.8c-4.7-6-10.1-11.5-15.1-17.3
		c-2.3-2.6-4.3-5.5-5.5-8.8c-0.9-2.3-2.2-4.5-3.5-6.6c-0.8-1.2-2.1-2.9-3.4-2.9c-0.2,0-0.5,0.1-0.7,0.2c-2.1,1.1,0.2,3.1,0.6,4.7
		c0.3,1.3,2.7,2.5,1.2,3.8c-0.3,0.3-0.6,0.4-0.9,0.4c-1.1,0-1.8-2-3.6-2c-0.1,0-0.2,0-0.2,0c0.2,2,0.2,4,0.5,6
		c1,6.2,0.7,12.7,4.2,18.3c0.4,0.7,0.6,1.6,0,2.3c-0.2,0.1-0.4,0.1-0.6,0.1c-1,0-1.7-1.3-2.9-1.3c-0.2,0-0.3,0-0.5,0.1
		c1.2,6.5,2,13.1,2.4,19.7c0.4,6.2,2,12.1,5.5,17.3c1.6,2.4,2.5,5.1,2.8,7.9c0.2,1.3,0.2,2.6-1.3,2.8c-4.1,0.5-3.6,2-1.6,4.7
		c3.2,4.5,5,9.3,1.7,14.7c-0.9,1.5,0.8,2.3,1.9,3c3.7,2.5,5.6,6.5,8.6,9.6c0.5,0.5,1.2,1.3,0.3,2.1c-0.3,0.3-0.5,0.4-0.8,0.4
		c-0.5,0-0.9-0.5-1.3-0.8c-1.3-1.1-3.3-3-4.6-3c-0.4,0-0.8,0.2-1,0.6c-1.8,2.7,2.4,2.9,4,4.3c4.7,4.3,5.4,11,9.4,15.7
		c-3.2,6.2,0.7,11.4,2.2,17c0.2,0.7,0.1,2.2-0.5,2.2c0,0,0,0-0.1,0c-0.6-0.1-1.1-0.1-1.5-0.1c-3.7,0-0.2,2.9-0.1,4.2
		c0,2.2,2.5,4.2-0.2,6.8c-1,0.9,1.2,2.8,2.7,3.9c13.7,10.5,28.4,19.7,40.9,31.8c5,4.9,4.5,5.7-1.8,8.8
		c-12.2,6.1-24.6,11.8-38.2,13.8c-6.4,1-12.9,1.7-19.3,2.4c-13.8,1.6-27.6,3.3-41.2,6.5c-8.6,2-17.4,2.4-26.2,2.4
		c-6.1,0-12.3-0.2-18.4-0.2c-3.1,0-6.1,0-9.1,0.2c-4.8,0.2-9.5,1.1-14.2,2.5c-5.1,1.6-10.3,2-15.5,2c-2.6,0-5.2-0.1-7.8-0.2
		c-8.5-0.5-17-0.8-25.5-0.8c-0.9,0-1.9,0-2.8,0c-0.2,0-0.3,0-0.5,0c-8.7,0-17.1-2.5-25.8-2.8c-10.5-0.4-20.8-1.9-31.2-2.7
		c-10.5-0.8-21-3-31.1-6.7c-5.1-1.8-10.1-3.3-15.5-3.3c-2.2,0-4.5,0.2-6.8,0.8c-1.1,0.3-2.2,0.4-3.4,0.4c-4.9,0-9.8-2.2-14.5-3.9
		c-10.3-3.7-20.4-8-30.6-12c-4.5-1.8-2.6-4.2-0.5-6.3c6.5-6.8,14.6-11.5,22.2-16.8c3.2-2.3,5.4-4.7,6.4-8.4c0.7-3,1.5-6.1,4.5-8
		c2.3-1.5-1.4-3.3,0.4-5.7c3.2-4.1,4.2-9.6,7-14.1c5.2-8.2,3.1-17.7,4.5-27.3c-2.8,1.6-2.3,4-2.9,5.8c-0.7,2,0.8,4.2-0.8,7.3
		c-2.5-5.3-3.4-10-2.1-14.7c1.6-6.1,3.4-12.1,3.7-18.4c0.1-1.3,0.4-2.8,1.2-3.7c5.8-7.4,3.8-16.6,5.6-24.8c0.6-2.6-1.8-4.7-1.6-7.9
		c0.3-4.1,1.2-8.1,1.8-12.3c-3.6,4.8-6.7,9.9-8.1,15.5c-2.8,10.9-6.5,21.7-6.1,33.2c0,0.5,0.1,1-0.1,1.5
		c-3.9,10.8-1.2,22.3-3.4,33.4c-1.5,7.6-0.8,15.6-1.8,23.3c-0.8,5.8-5.2,10.6-6.2,16.6c-0.2,1.1-1.9,2.5-3.2,2.5
		c-0.2,0-0.5,0-0.7-0.2c-5.2-2.7-11.6-3.3-15.5-8.5c-0.6-0.8-1.6-1.6-1.6-2.5c0-4.4-1.8-5.5-4.1-5.5c-1.6,0-3.4,0.6-5,1
		c-0.8,0.2-1.5,0.3-2.1,0.3c-1.9,0-2.9-1-4.1-3.2c-4.8-8.7-7.6-18.4-13.4-26.5c-0.4-0.6-0.9-1.5-0.8-2.3c1.2-8,15.6-24,24.2-26.6
		c-1.3,4-5.4,6-5.8,10.1c-0.4,3.9-1.4,7.7-1.7,11.8c3.8-3.6,4.6-9.6,10.7-13.1c-3.1,9.2-2.1,17.6-2.2,26.2C46,551,51.7,545.4,53,538
		c1.5-8.8,2.4-17.7,3.5-26.6c1.5-11.9,3.6-23.7,12.1-32.9c5.2-5.7,7-12.4,8.6-19.7c2.7-12.6,6.3-25,9.5-37.5
		c0.7-2.7,1.1-5.5,1.8-8.2c0.5-1.9,0.5-4.5,1.8-5.6c7.6-7.1,2.3-14,0.3-21.1c-0.8-2.7-1.8-5.4-1.4-8.5c-0.6,0.1-1.2,0.1-1.4,0.4
		c-0.7,0.7-1.1,2.3-2.1,2.3c-0.2,0-0.4-0.1-0.7-0.2c-1.7-0.9,0-2.3,0.4-3.4c1.6-4.3,0.3-9.4,3.4-13.3c0.1-0.1,0.2-0.4,0.2-0.4
		c-4.9-7.9,3-13.6,3.3-20.6c0.3-4.9,0.9-9.8,2.4-16.1c-6.8,5.9-4.6,14.1-8.8,20.4c-2.1-12.8,4.2-23,7.4-34.4
		c-5,1.9-5.5,6.6-8.7,10.5c-0.8-7.9,2.6-13.4,5.7-19.3c-0.1,0-0.3,0-0.4,0c-2.6,0-3.4,2.4-5.2,2.7c-0.6,0.1-1.2,0.3-1.7,0.3
		c-0.6,0-1.1-0.2-1.5-0.7c-0.6-0.9,0.2-1.8,1-2.6c1-0.9,1.8-1.9,2.8-2.8c3.6-3.2,7-6.4,4.9-12.1c-0.5-1.3-0.6-3.4,1.5-4.2
		c2.2,1,0.5,5,2.3,5c0.1,0,0.2,0,0.3,0c2.9-0.6,1.4-4.3,1.8-6.6c1.2-6.3,3.5-12.3,4.5-18.7c0.5-2.9-0.9-4.5-1.3-6.7
		c-0.9-6.4,2.4-11.8,4-17.5c0.9-3.2,1.2-6.7,2.7-9.9c2.4,1,1.9,3.4,2.6,5.3c1.7-1.6,2.1-3.6,1.6-5.1c-2.1-5.8-2.3-11.9-3.7-17.8
		c-0.9-4,0.1-8.3,3.3-11.5c3.6-3.6,5.9-7.9,6.3-13.1c-0.1,0-0.2,0-0.3,0c-1.7,0-2.3,2.5-3.8,2.5c-0.2,0-0.4,0-0.7-0.1
		c0.5-8.9,8.6-15.7,7-25.1c-0.3,0-0.6,0-0.8,0c-0.1,0-0.2,0-0.3,0.1c-1.5,0.7-2.2,3.5-3.7,3.5c-0.3,0-0.7-0.1-1-0.4
		c-1.5-1.1,1.1-3.3,2-5c2.1-3.8,3.6-8,7.7-10.2c1.4-0.7,0.7-1.5,0.2-2.4c-0.7-1.3-0.3-2.6,0.6-3.7c2.2-2.8,5.3-5.1,3.4-9.5
		c-0.4-1,0.9-1.1,1.7-1.2c0.1,0,0.1,0,0.2,0c0.3,0,0.6,0,0.8,0c0.5,0,0.8-0.1,0.7-0.9c-0.2-1.2-1.4-2.8,0.2-3.5
		c0.3-0.1,0.5-0.2,0.7-0.2c1.4,0,1.8,2.1,3,2.9c1.2-5.8,1.4-6.1-3.1-8.9c-3.9-2.5-4.3-6.5-5.4-10.3c-2.7-8.7-2.6-17.2,2-25.4
		c2.8-4.9,7.2-8.2,11.3-11.8c0.4-0.3,0.8-0.6,1.3-0.6c0.3,0,0.6,0.1,0.9,0.5c0.3,0.4,0.1,1.4-0.2,1.8c-3.5,4.2-4.9,9-5.5,14.5
		c-0.7,6.4-0.9,7.2,5.8,10.1c0.5-4.1-3.4-7.6-1.8-11.9c2.4,0.8,1.8,3.6,4.1,4.9c-0.1-8.8,1.1-17.2,0.1-25.6c0.4-0.1,0.8-0.1,1.2-0.2
		c1.1,2.9,2.1,5.9,3.3,8.8c0.6,1.4,1.4,2.6,2.3,2.6c0.6,0,1.2-0.6,1.9-2c0.2-0.5,0.5-0.7,0.8-0.7c0.6,0,1.4,0.8,2.1,0.8
		c0.4,0,0.8-0.3,1.1-1.3c0.7-2.3,1.4-4.8,2.2-7.2c0.8-0.3,1.1-1,0.6-1.4s-0.9-0.6-1.4-0.6c-0.7,0-1.4,0.4-2.1,1
		c-1.9,0.6-3.3,1-4.4,1c-2.6,0-3.6-2.1-5.8-8.1c2.6,1.1,4.9,3.2,7.4,3.2c1.1,0,2.2-0.4,3.4-1.4c-2.1-1.7-4.4-3.3-6.5-5.1
		c-0.7-0.6-1.5-1.6-0.6-2.6c0.3-0.3,0.5-0.4,0.8-0.4c0.5,0,1,0.5,1.4,0.8c1.5,1.2,3.1,2,4.6,2c1.2,0,2.5-0.5,3.9-1.5
		c0.7-0.5,1.5-0.6,2.3-0.6s1.7,0.1,2.5,0.1c0.4,0,0.7,0,1-0.1c0.1,0,0.3,0,0.5,0c0.7,0,1.5,0.2,2.2,0.2c1,0,1.8-0.4,1.7-2.3
		c-0.1-2.8-1.3-4.9-4.2-4.9c-0.2,0-0.5,0-0.7,0c-2.4,0.3-4.8,1.1-7.4,1.1c-0.1,0-0.2,0-0.3,0c3.7-2.6,7.4-5.2,12.1-5.2
		c0.8,0,1.6,0.1,2.4,0.2c0.8,0.1,1.3,0.3,1.7,0.3c0.5,0,0.6-0.4,0.2-2.1c-0.7-2.5,2.8-0.5,3.6-2.2c-3.6-1.5-8.9,0.2-10.8-6.4
		c1.8,1.2,3.4,1.5,5,1.5c1.7,0,3.3-0.4,4.9-0.5c0.3,0,0.5,0,0.8,0c2.7,0,5,1.1,6.5,3.4c2.2,3.3,5.8,3.3,9.1,4.3
		c0.3,0.1,0.5,0.1,0.7,0.1c1.2,0,1.7-1.1,2.4-1.9c1.2-1.3,0.1-2.1-0.5-3c-1.6-2.3-2.9-4.7-2-8.1c2.5,4.2,7.2,4.8,10.7,7.2
		c0.6,0.4,1.1,1.1,1.8,1.1c0.2,0,0.5-0.1,0.7-0.3c0.9-0.7,0.5-1.8,0-2.7c-0.3-0.6-0.7-1.2-0.8-1.8c-0.5-2.1-0.9-4.7,1-5.9
		c0.4-0.3,0.8-0.4,1.1-0.4c1.4,0,2.5,1.6,3.3,2.6c1.2,1.4,2.6,1.8,4.9,2.1c-3-3.7,1.7-5.9,0.3-10.5c4.7,4.8,7.2,10.2,13.6,11.4
		C223.7,31.9,225.3,25.9,224.2,19.8 M224.2,4.8c-2.5,0-5,0.6-7.3,1.9c-1.4,0.8-2.7,1.8-3.8,3c-1.6,0.3-3.1,0.9-4.5,1.8
		c-1.8,1.1-3.3,2.5-4.5,4.1c-2.1,0.5-4.1,1.3-5.9,2.5c-0.2,0.1-0.5,0.3-0.7,0.5c-1.4-0.4-2.8-0.6-4.2-0.6c-0.7,0-1.4,0-2.1,0.1
		c-3.8,0.5-7.2,2.5-9.6,5.4c-1.4-0.3-2.9-0.4-4.5-0.4c-0.6,0-1.3,0-1.9,0.1c-1,0.1-1.9,0.2-2.6,0.3c-2-0.9-4.1-1.3-6.2-1.3
		c-3.1,0-6.2,1-8.8,2.9c-4.2,3.1-6.5,8.1-6.1,13.3c-1,0.6-1.9,1.3-2.7,1.9c-1.3,0.9-2.5,2.1-3.4,3.3c-2.8,0.9-5.4,2.5-7.4,4.7
		c-1.4,1.6-2.5,3.4-3.2,5.4c-2.9,2.9-4.4,6.9-4.3,10.9c-0.3,0.5-0.5,1-0.7,1.6c-0.2,0.1-0.4,0.3-0.5,0.4c-0.6,0.5-1.3,1.1-1.9,1.6
		c-4,3.4-9,7.7-12.6,14c-6.4,11.2-7.5,23.7-3.3,37.2c0.1,0.4,0.3,0.9,0.4,1.5c0.5,1.9,1.2,4.5,2.5,7.2c-0.2,0.3-0.4,0.6-0.5,0.9
		c-1.4,2.5-2.1,5.3-2,8.1c0,0.1-0.1,0.1-0.1,0.2c-2.1,2.6-3.4,5.6-3.9,8.6c-2.4,2.9-3.9,5.9-5,8c-0.2,0.4-0.4,0.8-0.6,1.1
		c0,0,0,0-0.1,0.1c-1.6,2.1-5.4,7-4.4,14c0.3,2.5,1.2,4.7,2.6,6.7c-1.6,3.6-3.2,8-3.4,13.2c-0.1,1.3,0,2.6,0.3,3.8
		c-4.9,6.4-6.7,14.6-4.9,22.5c0.4,1.7,0.7,3.6,1,5.6c0.1,0.4,0.1,0.8,0.2,1.3c-0.2,0.4-0.4,0.8-0.6,1.2c-1.7,3.6-2.4,7-3,9.6
		c-0.2,0.9-0.4,1.8-0.6,2.4c-0.3,1-0.8,2.3-1.3,3.6c-1.9,5-4.4,11.8-3.2,20.2c0.2,1.6,0.6,2.9,0.9,4c-0.4,2-1,4.1-1.6,6.4
		c-0.2,0.7-0.4,1.4-0.6,2.1c-6,3.8-9.1,10.7-8.2,17.8c-0.9,0.8-1.6,1.5-2.1,2.1c-0.3,0.3-0.6,0.6-0.7,0.7
		c-7.4,6.9-7.1,15.8-3.5,21.5c0.3,0.5,0.7,1.1,1.1,1.5c-0.4,2.8-0.5,5.8-0.2,9.1c0.2,2.2,1,4.3,2.1,6.2c-1.2,5.6-1.7,11.8-0.6,18.5
		c0.3,1.6,0.8,3.2,1.6,4.6c-0.4,2.6-0.5,5.5,0.1,8.6c-0.9,2.9-1.1,5.5-1.3,7.5c0,0.4-0.1,0.9-0.1,1.3c-2.1,4-2.6,8.1-1.5,12.1
		s3.6,7.3,7.1,9.6c0.4,1,0.7,2,1.1,2.9c0.2,0.5,0.5,1.2,0.7,1.8c-3.5,4-4.3,8.7-4.7,11.1c0,0.2-0.1,0.5-0.1,0.7
		c-0.4,1.5-0.7,3-0.9,4.4c-0.3,1.3-0.5,2.6-0.8,3.6c-1,3.9-2.1,7.9-3.1,11.8c-2.3,8.5-4.7,17.4-6.5,26.4c-1.3,6.3-2.4,9.9-4.9,12.7
		c-11.2,12.2-14.1,27-15.8,40c-1.2,0.1-2.4,0.3-3.6,0.6c-9,2.8-17.4,11-21.6,15.6c-5.2,5.8-11.7,14.5-13,23.1
		c-0.7,4.5,0.5,9.1,3.4,13.1c2.6,3.6,4.6,8.2,6.7,13c1.7,3.9,3.5,8,5.8,12.1c5,9,12.1,10.9,17.2,10.9c0.1,0,0.1,0,0.2,0
		c0.3,0.4,0.6,0.7,0.8,0.9c1.4,1.9,3,3.5,4.6,4.8c-2.9,2.2-5.7,4.7-8.4,7.5c-5.3,5.6-7.3,11.5-6,17.6c0.8,3.4,3.3,9.6,11.8,13
		c3.1,1.2,6.4,2.6,9.5,3.8c7,2.8,14.2,5.8,21.6,8.4c0.8,0.3,1.5,0.6,2.3,0.8c4.7,1.7,10.5,3.9,17.2,3.9c2.4,0,4.7-0.3,6.9-0.8
		c1.1-0.3,2.1-0.4,3.3-0.4c2.7,0,5.7,0.7,10.4,2.4c11.4,4.1,23.2,6.7,35.1,7.5c4,0.3,7.9,0.7,12.1,1.1c6.4,0.7,12.9,1.3,19.7,1.6
		c3.2,0.1,6.6,0.6,10.3,1.2c4.8,0.7,10.2,1.6,16,1.6c0.2,0,0.4,0,0.6,0c0.9,0,1.8,0,2.7,0c8.4,0,16.8,0.4,24.7,0.8
		c2.5,0.1,5.5,0.3,8.6,0.3c7.7,0,14-0.8,19.9-2.7c3.5-1.1,6.9-1.7,10.5-1.9c2.5-0.1,5.2-0.2,8.4-0.2c2.9,0,5.9,0,8.9,0.1
		c3.1,0.1,6.3,0.1,9.4,0.1c8.7,0,19-0.3,29.7-2.8c12.8-3,26-4.7,39.5-6.2l1.8-0.2c5.9-0.7,11.9-1.4,18-2.3
		c16.2-2.4,30.5-9.1,42.7-15.2c4.1-2.1,11.8-5.9,13.2-15c1.4-9.1-4.8-15.1-7.7-18c-1.5-1.4-3-2.8-4.5-4.2c0.7-0.6,1.4-1.2,2.1-1.8
		c6.4-6.2,6.6-12.9,6.1-16.4c-0.3-2.3,1-5.7,2.5-9.6l0.3-0.6c1.4-3.7,1.8-7.2,2.1-9.7c0.1-0.7,0.2-1.5,0.3-2
		c1.7-2.7,4.7-9.5-0.2-17.7c-3.4-8.7-5.3-18.4-5.7-28.8c-0.1-2.8,0.1-5.8,0.3-9.1c0.5-8.4,1.2-18.7-3.1-29.3
		c-0.8-6.7-2.9-19-14.2-27.6c-0.3-0.4-0.9-1.3-1.4-1.9c-0.3-0.4-0.6-0.9-0.9-1.3c-6.6-9.6-11.5-20.4-16.6-31.9
		c-2.5-5.5-5.1-11.2-7.9-16.9c-5.9-11.9-12.9-23.6-22.3-37.4c0.6-2.6,0.5-5.3-0.2-7.9c3-5.8,2.8-13.6-4.1-20.1
		c-0.2-0.3-0.4-0.7-0.6-1c-0.6-1.1-1.4-2.5-2.4-4c0.9-3.2,1.3-8.1-2.1-13.7c-1-1.7-2-4.3-2.9-7c-1.6-4.5-3.6-10.1-7.4-15.3
		c-0.1-2.3-0.8-4.9-2.4-7.7l-0.1-0.1c-1-2-1.9-4.1-2.8-6.2c1.8-1.1,3.3-2.6,4.5-4.4c2.4-3.8,4.7-9.9,1.3-17.8v-0.1
		c-1.7-4.6-3.9-8.2-5.9-11.5c-1.6-2.6-3-4.9-3.5-6.7c-0.7-2.5-1.3-5.1-1.9-8c-1.1-5.1-2.3-10.7-4.5-16.4c0.8-3.8,0.5-8.4-2.5-13.7
		c-0.6-2.4-1.3-4.5-2-6.5c-0.4-1.2-1.1-3-1.2-3.9c2.8-7,2.7-14.5-0.1-21.9l-0.2-0.5c-2.1-5.4-4.7-12-9.6-18
		c1.4-4.7,1.4-9.5,0.2-14.2c-1.2-4.6-3.5-8.4-5.6-11.3c4.6-12.5,3.6-25.9-3-39.8l0,0c-1.9-4.4-4.8-7-7.5-8.5
		c-1.6-5.8-4.8-11.9-11-17.4c-1.9-1.7-3.8-2.9-5.3-4c-0.3-0.2-0.6-0.4-0.9-0.6c-0.4-3.4-1.9-8.6-7.7-12.2c-0.7-3.3-2.2-8.9-7.2-13.7
		c-2.8-2.7-6.6-4.2-10.4-4.2c-0.6,0-1.3,0-1.9,0.1c-0.9,0.1-1.8,0.3-2.6,0.6c-0.7-0.2-1.5-0.3-2.2-0.3c-1.2-0.9-2.6-1.6-4.2-2.3
		c-1.2-0.5-2.3-1-3.5-1.4c-1.8-0.7-3.6-1.4-4.8-2.1c-1.1-0.6-2.1-1.1-3-1.5c-1-3.2-3.1-6-6.2-8.4c-0.1-0.1-0.1-0.1-0.2-0.2
		C231.3,6.1,227.8,4.8,224.2,4.8L224.2,4.8z M379.9,507c1.1-2.7,1.4-5.8,1-9.2c-0.7-5.3-2.4-10.2-5.3-14.4c-1.8-2.7-2.8-5.9-3-9.9
		c-0.2-3.1-0.5-6.1-0.8-9.1c0.7,0.9,1.4,1.7,2.1,2.6c9.5,12,11.9,23.4,7.6,37c-0.5,1.5-0.9,3.1-1.2,4.6
		C380.3,508,380.1,507.5,379.9,507L379.9,507z"/>
</g>
</svg>
