<?xml version="1.0" encoding="utf-8"?>
<!-- Generator: Adobe Illustrator 24.1.0, SVG Export Plug-In . SVG Version: 6.00 Build 0)  -->
<svg version="1.1" id="Livello_1" xmlns="http://www.w3.org/2000/svg" xmlns:xlink="http://www.w3.org/1999/xlink" x="0px" y="0px"
	 viewBox="0 0 221.8 371.5" style="enable-background:new 0 0 221.8 371.5;" width="50" height="50" xml:space="preserve">
<style type="text/css">

		.Stile_x0020_grafica{fill:#FEFEFE;stroke:#000000;stroke-width:15;stroke-linecap:round;stroke-linejoin:round;stroke-miterlimit:10;}
	.st0{fill:#FEFEFE;}
</style>
<g>
	<path class="st0" d="M96.2,357c-2.8,0-5.4-0.2-7.9-0.4l-1.2-0.1c-1.4-0.1-2.7-0.2-4.1-0.3c-9.6-0.6-20.4-1.4-30.6-7
		c-1.6-0.9-3.5-1.4-5-1.4c-0.4,0-0.7,0-1,0.1c-2.2,0.4-4.3,0.6-6.4,0.6c-7.9,0-15.3-3-22-9c-3.1-2.8-4.5-5.8-4.2-9.1
		c0-0.4,0.1-0.9,0.2-1.4c-2.9-2.2-4.3-4.9-4.3-8c0-3.6,2-6.6,5.9-8.9c0-0.9,0.1-1.8,0.4-2.8c1.1-3.7,4.1-6.2,9-7.6
		c0.5-0.1,0.8-0.3,1-0.3c0.2-0.8,0.3-2.7,0.3-3.8c0.3-10.5,2.3-20.7,4.2-30.6c0.4-1.9,0.7-3.7,1.1-5.6c0.5-2.6,0.5-3.9,0.1-5.2
		c-3.4-11.2-0.5-21.6,2.1-30.8l0.6-2.2c0.3-1.1,0.4-1.9,0.2-2.9c-1.8-9.7-1.1-19.1-0.2-26.2c0.2-1.4,0.3-2.8,0.5-4.2
		c0.5-5.1,1.1-10.3,2.6-15.5c0.7-2.3,1.1-4.9,1.6-7.6c0.9-5.5,2-11.6,5.5-17.3c-3.6-1-6.1-3.7-7.4-8.2l-0.1-0.5
		c-1.8-5.7-0.6-12.5,3.1-18.2c3.7-5.7,9-9.3,14.8-9.9c0.5-0.1,0.9-0.1,1.4-0.1c4.3,0,8.2,2.1,11.4,5.1c0.6-1.4,1.2-2.6,1.6-3.4
		c0.6-1.2,1.2-2.6,1.8-4.1c1.8-4.7,4.1-10.5,10.3-14.3l1-0.6c7.3-4.5,15.5-9.5,26-9.5c0.5,0,1,0,1.6,0c-2.7-13.5,0.3-24.6,9.2-33.1
		l0.1-0.1c2-1.9,4.7-4.5,8.6-5.8c0-0.8,0.1-1.5,0.1-2.2c0.1-1.7,0.2-3.1-0.1-4.2c-2.1-7.3-0.3-12.1,1.6-14.8
		c1.8-2.6,5.3-5.9,12.2-6.9c0,0,0,0,0-0.1c0.3-0.4,0.7-0.8,1-1.2c6.7-6.9,13.3-8.4,17.6-8.4c4.8,0,12,1.8,18.7,10.2
		c6.8,8.6,11.2,17,13.6,25.9c0.7,2.6,0.8,5,0.2,7c1.1,1.5,1.7,3.6,1.7,6.1c0,1.7,0.1,3.4,0.2,5.2c0.3,7.5,0.7,16-3.6,23.6
		c-4.4,7.8-3.8,15.9-3.1,25.4c0.1,1,0.2,2,0.2,3.1c0.5,7.4-1.4,14.1-3,19.1c-0.8,2.3-1.1,4.4-1,6.6c0,0.2,0,0.3,0,0.5
		c0,0.9,0,1.8-0.1,2.8c0,2.3-0.1,4.6-0.3,7.1c0,0.2,0.1,0.9,0.1,1.4c0.3,2.7,0.9,7.6-3.1,12c-0.1,0.1-0.3,0.3-0.4,0.4
		c0,0,0,0.1,0,0.1c0,0.4,0.1,1,0.2,1.2c0.2,0.5,0.3,1,0.4,1.5c0.3,1.4,0.1,2.7-0.1,3.8c2.4,4.2,2.8,8.5,3.2,12.1l0.1,1
		c0.1,0.6,0.1,1.1,0.1,1.7c0,0.2,0,0.4,0,0.5c0.2,0.5,0.4,0.9,0.5,1.4c0,0.1,0.1,0.3,0.1,0.4c0.2,0.5,0.4,1.1,0.6,1.9
		c0.7,0.6,1.3,1.3,1.7,2.1c0.6,1,1.3,2.2,2.2,3.3c2.2,3.2,4.9,7.1,5.6,12.4c0.4,3.5,1.3,7,2.3,10.7c1.6,6.3,3.2,12.8,3,20.1
		c-0.2,5,0.3,6.7,2.1,7.8c3.2,1.9,5.4,5.7,6.5,11.2c0.4,2,2.1,12-1.9,17.5c-1.4,2-3.7,3.1-6,3.1c-1,0-2-0.2-3-0.6
		c-1.7-0.7-5.5-3-5.5-8.7c-0.1-0.4-0.2-0.7-0.3-1c-2.2-0.5-4-1.7-5.4-3.6c-0.1,0-0.2,0-0.4,0c-1.3,0-2.5-0.3-3.6-0.9
		c-1.8-1-3-2.6-3.6-4.6c-0.1-0.4-0.2-0.7-0.3-0.9c0.4,2.3-0.3,4.6-1.9,6.3c-1.4,1.6-3.4,2.4-5.5,2.4c-0.7,0-1.3-0.1-2-0.3
		c-3-0.8-10.1-3.8-9.7-13.5c0.3-8,4.5-11.2,8.1-12.5c0.2-0.1,0.6-0.2,0.8-2.1c0.2-2.4,0.2-4.9,0.3-7.5c0-0.8,0-1.6,0-2.4
		c-1.4-0.8-2.6-1.7-3.8-2.6c-1.5,2.4-3.4,3.5-5,4c0.1,1.4,0.3,2.6,0.7,3.6c2.5,5.5,0.5,13.9-6,17c-0.4,0.2-0.6,0.4-0.6,0.4
		c-0.3,0.5-0.2,2.6-0.1,3.8c0,1.1,0.1,2.4,0,3.7c0,0.6,0,1.2-0.1,1.8c-0.1,3.3-0.2,7.3-2.3,11.1c-1.4,2.6-1.4,5.5-1.1,10.1
		c0.1,1.9,0.2,3.9,0.1,6.1c0.2,0.2,0.4,0.4,0.6,0.6l0.2,0.2c2.4,2.3,4.9,4.6,7.3,6.8c5.4,5,11.1,10.1,16,16
		c4.7,5.5,10.9,8.1,19.1,11.2c0.4,0.2,1,0.3,1.5,0.5c3.4,1.1,12.3,4,10.8,12.4c-0.7,3.8-3.8,8.2-10.3,8.2c-1.1,0-2.1-0.1-3-0.2
		c-0.4,0-1-0.1-1.3-0.1c-1.5,0.2-2.9,0.4-4.4,0.4c-2.9,0-5.6-0.4-8.1-1.1c0.3,1.3,0.3,2.8-0.1,4.4c-1.2,4.2-5,5.6-6.2,6.1
		c-0.1,0.1-0.3,0.1-0.4,0.2c-1.1,0.4-2.8,1.2-5.1,1.2c-0.1,0-0.3,0-0.3,0c-0.7,0-1.3,0-2,0c-3.3,0-6.7,0.2-10.3,0.5
		c-3.7,0.3-7.5,0.6-11.4,0.6c-3,0-5.8-0.2-8.4-0.5c-0.3,0-0.6-0.1-1-0.1c-0.9,0-1.9,0.1-3,0.2c-1.3,0.1-2.7,0.2-4.3,0.2
		c-3.6,0-6.7-0.8-9.3-2.3c-0.8-0.5-1.8-0.7-2.6-0.7c-0.3,0-0.4,0-0.5,0C107.5,356.5,100.7,357,96.2,357z"/>
	<path d="M160.2,16.3c4.5,0,8.9,2.4,12.8,7.3c5.5,7,9.9,14.5,12.3,23.2c0.7,2.6,0.5,4.5-2,4.5c-0.3,0-0.5,0-0.9-0.1
		c-0.2,0-0.3,0-0.5,0c-2.5,0-4.1,2.5-6.5,2.5c-0.3,0-0.5,0-0.8-0.1c-0.1,0-0.1,0-0.2,0c-0.7,0-1.1,1-0.8,1.8
		c0.4,1.3,1.3,2.2,2.5,2.2c0.1,0,0.3,0,0.4,0c2.5-0.4,4.9-0.9,7.3-1.6c0.6-0.2,1.1-0.3,1.5-0.3c1.2,0,1.6,0.8,1.6,2.4
		c0,8.5,1.7,17.8-2.5,25.1c-6.1,10.8-4.6,21.6-3.8,32.6c0.4,5.6-0.9,11-2.7,16.1c-1,3.1-1.5,6.1-1.4,9.2c0,0,0,0,0,0c0,0,0,0,0,0
		c-0.1,3.1,0,6.3-0.3,9.4c-0.3,3,1.5,6.3-1,9c-0.6-0.2-1.1-0.3-1.6-0.3c-1.2,0-2.3,0.5-3.2,1.4c3.1,2.1,2,5.7,3.1,8.4c0,0,0,0,0,0
		c0,0,0,0,0,0c0.3,1.7-2.6,3.4,0,5.1c2.4,3.3,2.6,7.3,3,11.2c0.2,1.6,0,3.3,0.9,4.7c0.3,1.1,1.2,2.6,0.7,3.3
		c-1.6,2.4-0.9,2.9,0.2,2.9c0.6,0,1.3-0.1,1.9-0.1c0.1,0,0.2,0,0.3,0c2.4,4.3,6.3,8,6.9,13.1c1.2,9.9,5.5,19.2,5.2,29.6
		c-0.1,4.8-0.1,10.9,5.8,14.5c3.5,2.1,4.7,14.7,2.4,17.8c-1.7-0.7-0.6-2.3-1.1-3.4c-1.2-2.8-1.2-6.2-5.5-6.6
		c-2.3-0.2-2.4-2.8-3.1-4.6c0.3-1.2,0-2.5-1.2-2.8c-0.2,0-0.4-0.1-0.6-0.1c-2,0-1.5,3-3.2,3.5c-1.3-4.9-3.7-7.3-6.8-7.3
		c-2,0-4.4,1-7.1,3.1c-2.2,1.7-2,3.8-1,6.5c-3.7-1-4.3-3.4-4.2-5.9c0.1-2.3,0.5-4.7,3.1-5.7c4-1.5,5.3-4.8,5.7-8.5
		c0.4-4.5,0.2-9,0.4-13.5c0.1-2-1.2-2.3-2.6-3c-8.2-4.1-10.9-11-7.4-19.5c0.9-2.2,1-3.4-1.3-4.2c-2.3-0.8-3.5-3-3.9-4.9
		c-1.1-5.4-4.8-9.2-7.2-13.8c-0.6-1.1-1-1.6-1.7-1.6c-0.4,0-1,0.2-1.7,0.7c-4.9,3.2-6,7.3-2.8,12.1c2.2,3.3,4.2,6.6,7.5,9.2
		c4.7,3.6,6.4,16,3.4,21.1c-0.5,0.9-1,1.2-1.5,1.2c-0.9,0-1.8-0.9-2.7-1.2c-0.6-0.2-1.2-0.6-1.8-0.6c-0.3,0-0.6,0.1-0.9,0.4
		c-0.7,0.7-0.1,1.5,0.1,2.3c0.7,4.3,0,8.6,1.9,12.9c1,2.2,0.1,5.9-2.4,7.1c-6.6,3.2-4.8,9.3-5,14.3c-0.2,3.4,0.1,7-1.4,9.7
		c-3.7,6.7-1.5,13.6-2,20.5c-0.2,2.4,1.6,4,3.1,5.5c7.7,7.4,16,14.2,22.9,22.3c6.1,7.2,14,10.3,22.2,13.4c2.9,1.1,8,2.2,7.5,4.5
		c-0.3,1.6-1.5,2-2.9,2c-1.3,0-2.9-0.3-4.3-0.3c-0.3,0-0.7,0-1,0.1c-1.1,0.2-2.3,0.3-3.4,0.3c-4.3,0-8.4-1.3-12.5-3.1
		c-7.4-3-15.1-5.2-22.6-7.7c-0.8-0.3-1.5-0.4-2-0.4c-1.6,0-2.1,1.2-1.7,3.7c1.1,6.5,4.2,9.4,10.6,9.4c0.2,0,0.5,0,0.7,0
		c0.4,0,0.9,0,1.3,0c3.9,0,7.3,0.7,10,4.4c1.6,2.2,1,2.8-0.9,3.5c-0.9,0.3-1.8,0.9-2.8,0.9c0,0-0.1,0-0.1,0c-0.8,0-1.5,0-2.3,0
		c-7.2,0-14.4,1.1-21.7,1.1c-2.5,0-4.9-0.1-7.4-0.5c-0.7-0.1-1.3-0.1-2-0.1c-2.4,0-4.9,0.4-7.2,0.4c-1.9,0-3.8-0.3-5.5-1.3
		c-2.1-1.3-4.4-1.8-6.5-1.8c-1.7,0-3.3,0.4-4.4,1.1c-4.5,2.9-9.4,3.7-14.1,3.7c-2.9,0-5.7-0.3-8.5-0.5c-10.6-0.8-21.7-0.8-31.6-6.4
		c-2.4-1.3-5.5-2.4-8.6-2.4c-0.8,0-1.6,0.1-2.4,0.2c-1.7,0.3-3.4,0.5-5,0.5c-6.4,0-11.9-2.6-17-7.1c-2.1-1.9-2.5-3.4,0.1-5
		c1-0.6,2-1.1,3.6-2c-2.6-1.1-4.9-1.9-6.9-3.1c-3.5-2-3.4-3.7,0.1-5.6c0.9-0.5,1.8-0.7,2.8-1.1c0.9-0.4,1.7-0.8,2.7-1.2
		c-3.2-3.6-3.1-5.6,1.7-6.9c6.4-1.8,6.6-5.7,6.8-11.2c0.3-11.8,2.9-23.4,5.1-35c0.6-3,0.9-5.7-0.1-8.8c-3-9.9,0.1-19.4,2.7-28.8
		c0.6-2.1,0.7-4,0.3-6.3c-1.5-7.9-1.1-15.8-0.2-23.9c0.7-6.2,1.1-12.6,2.8-18.5c2.5-8.5,1.9-17.9,7.8-25.4c2-2.6,4.2-4.9,5.3-8.2
		c1.7-5,1.1-9.5-2.8-13.4c-2.4,2.5-2.7,5.9-3.9,8.9c-0.7,1.8-1.2,3.9-3.6,3.9c-0.1,0-0.2,0-0.2,0c-2.3-0.1-2.6-2-3.2-3.8
		c-2.3-7.3,4-17.6,11.5-18.4c0.2,0,0.4,0,0.6,0c4.1,0,9,4.9,10.8,10.4c0.9,2.8,0.1,5.9,2,8.9c2.1-2.6,3.9-4.9,5.7-7.3
		c0.8-1,1.2-2.1,0.4-3.2c-2.7-4-1.2-7.6,0.7-11.2c2.8-5.3,3.6-12,9.3-15.5c7.2-4.4,14.3-9,23.1-9c0.5,0,1,0,1.6,0c0.3,0,0.5,0,0.8,0
		c0.4,0,0.8,0,1.2,0c7.2-0.5,7.3-0.6,5.7-7.6c-2.4-10.4-1.4-19.8,6.7-27.7c2.2-2.1,4.3-4.2,7.6-4.5c2.6-0.2,3.8-2,3.6-3.9
		c-0.5-3.8,0.7-7.5-0.4-11.3c-2.1-7.3,0.9-11.6,8.4-12.4c2.4-0.3,3.4-2,4.7-3.3C151.9,18.3,156.1,16.3,160.2,16.3 M167.4,127.7
		c1-2.4,1.4-4.2,0.2-6c-0.2-0.2-0.4-0.3-0.6-0.3c-0.4,0-0.8,0.2-1,0.7C164.8,124.1,164.8,125.9,167.4,127.7 M55.8,169.6
		c0.8,0,1.6-1.2,1.6-2.5c0-1.3,0.5-2.9-1.4-2.9c-0.1,0-0.3,0-0.5,0c-1.5,1.6-1.7,3.8-0.3,5.1C55.4,169.5,55.6,169.6,55.8,169.6
		 M52.5,183.3C52.5,183.3,52.5,183.3,52.5,183.3c0.2,2.3-0.2,4.5-1.8,6.2c-0.2,3.4-0.4,6.9-0.7,10.6c2.3-0.8,1-3.1,2.5-3.8
		c0,0,0,0,0,0c1.2-4.2,2.5-8.5,1.1-12.9c1.1-0.7,0.9-1.9,0.9-3c0,0,0,0,0,0c-1.2-2.5,3.5-6.7-0.6-7.4c-0.1,0-0.2,0-0.2,0
		c-2.1,0-0.4,4.9-1.1,7.3c0,0,0,0,0,0C51,181.3,52.2,182.3,52.5,183.3 M114.9,198.2c0.1,0,0.2,0,0.2,0c0.9-0.1,1.4-0.6,1.4-1.6
		c-0.2-0.8-0.6-1.3-1.3-1.3c-0.1,0-0.2,0-0.3,0c-0.9,0.1-1.4,0.8-1.4,1.7C113.5,197.8,114.1,198.2,114.9,198.2 M135.9,206.6
		c0.6,0,1.1-0.8,1.5-1.4c1-0.4,0.9-1.2,0.4-1.9c-0.4-0.4-0.8-0.7-1.2-0.7c-0.3,0-0.7,0.2-1,0.7c-1.4,0.9-1.4,2.1-0.3,3
		C135.5,206.5,135.7,206.6,135.9,206.6 M168.5,206.8C168.5,206.8,168.6,206.8,168.5,206.8c0.9-0.1,1.1-1,1.3-1.7
		c0-0.6-0.3-0.8-0.7-0.8c-0.1,0-0.1,0-0.2,0c-0.9,0.2-1.4,0.7-1.2,1.7C167.8,206.3,168.3,206.8,168.5,206.8 M172.4,218
		c0.7-1.3,0.3-2.5,0-3.7c0.1-1.9-0.6-3.1-2.5-3.6c-0.9,1.7-0.6,3.2,0.5,4.6C170.7,216.5,170.7,217.9,172.4,218 M135,214.4
		c1.2-0.1,1.6-0.9,1.7-2c0-0.7-0.3-1.3-1.1-1.3c-0.1,0-0.1,0-0.2,0c-1.1,0-1.7,0.6-1.8,1.6C133.5,213.6,134,214.3,135,214.4
		 M74.4,313.8c0.8,0,1.6-0.3,1.4-1.4c-0.2-1.6-2.1-1.1-3.2-1.4c-0.4-0.1-0.7-0.2-1.1-0.2c-0.5,0-1,0.2-1.1,1.2
		c0.3,1.7,1.8,1.6,3,1.8C73.7,313.7,74,313.8,74.4,313.8 M85.3,317.4c0.2,0,0.3,0,0.5,0c0.5-0.1,0.9-0.1,1.4-0.1
		c4.5,0,6.5,3.4,8.5,6.9c-0.3,2.7,3.2,5.8-0.8,8.2c-2,1.2-2,1.2,0.5,3c0.7,0.8,1.4,1.2,2.1,1.2c0.8,0,1.7-0.5,2.6-1.2
		c3.1-2.5,6.6-3.5,10.3-3.5c1,0,2.1,0.1,3.2,0.2c0.5,0.1,0.9,0.1,1.3,0.1c2.9,0,5.2-1.4,5.6-4.8c0.4-3.7-3.4-3.9-5.6-5.2
		c-0.3-0.2-0.7-0.3-1.2-0.3c-0.4,0-0.9,0-1.3,0c-0.1,0-0.3,0-0.4,0c-3.3-0.3-6.1-1.5-7.7-4.6c-0.6-1.1-1.1-2.2-2.3-2.4
		c-4.9-0.9-9.8-1.9-14.9-1.9c-1.9,0-3.7,0.1-5.7,0.5C82.2,315.8,83.5,317.4,85.3,317.4 M160.2,1.3C160.2,1.3,160.2,1.3,160.2,1.3
		c-5.7,0-14.1,1.8-22.5,10.2c-7.9,1.8-12.2,6.1-14.6,9.6c-2.7,4-5.3,10.8-2.7,20.6c-2.9,1.7-5,3.8-6.5,5.2l-0.1,0.1
		c-8.8,8.5-13,19.1-12.4,31.6c-9.3,1.6-16.8,6.2-23.1,10l-1,0.6c-7.9,4.8-11.1,12.1-13.1,17.2c-2.5-1-5.2-1.6-8.1-1.6
		c-0.8,0-1.5,0-2.3,0.1c-8,0.9-15.3,5.7-20.2,13.3c-4.9,7.6-6.4,16.8-3.9,24.6c0,0.1,0.1,0.2,0.1,0.3c1.2,3.9,3,6.8,5,8.8
		c-1.8,4.7-2.5,9.3-3.2,13.3c-0.4,2.5-0.8,4.8-1.4,6.7c-1.7,5.9-2.4,11.7-2.9,16.9c-0.1,1.4-0.3,2.8-0.4,4.1
		c-0.9,7.6-1.7,17.6,0.3,28.2c-0.2,0.7-0.4,1.3-0.6,2c-2.7,9.6-6,21.5-2.1,34.8c0,0.2-0.1,0.7-0.3,1.9c-0.3,1.9-0.7,3.7-1.1,5.6
		c-1.9,9.8-3.8,19.8-4.3,30.5c-6.3,2.9-9,7.5-10,11.1c-0.1,0.2-0.1,0.4-0.2,0.7c-5.4,4.5-6.4,9.9-6.4,13c0,2.6,0.6,6.9,4,11
		c0.1,3.8,1.6,8.6,6.7,13.3c8.1,7.3,17.2,11,27,11c2.5,0,5-0.2,7.5-0.7c0.2,0,0.7,0.2,1.2,0.5c11.6,6.4,23.3,7.2,33.7,7.9
		c1.4,0.1,2.7,0.2,4,0.3l1.2,0.1c2.5,0.2,5.4,0.4,8.5,0.4c7.2,0,13.4-1.4,19-4.2c3.4,1.7,7.2,2.5,11.5,2.5c1.8,0,3.5-0.1,4.9-0.3
		c0.9-0.1,1.8-0.2,2.3-0.2c0.1,0,0.1,0,0.1,0c2.9,0.4,6,0.6,9.3,0.6c4.2,0,8.1-0.3,12-0.6c3.4-0.3,6.7-0.5,9.7-0.5
		c0.6,0,1.2,0,1.8,0c0.2,0,0.4,0,0.6,0c3.7,0,6.6-1.2,8-1.8l0.2-0.1c5.6-2.2,8.5-5.8,9.9-8.9c0.6,0,1.2,0,1.8,0
		c1.5,0,3.1-0.1,4.6-0.3c0.1,0,0.1,0,0.2,0c1,0.1,2.3,0.3,3.8,0.3c9,0,16.1-5.8,17.7-14.3c1-5.7-0.8-13.5-9.2-18.1
		c-2.4-1.3-4.8-2.1-6.6-2.7c-0.5-0.2-1-0.3-1.2-0.4c-7.6-2.8-12.5-4.8-16-9c-5.3-6.2-11.1-11.5-16.7-16.7c-2-1.8-3.9-3.5-5.7-5.3
		c0-1.1-0.1-2.2-0.1-3.3c-0.1-2.6-0.3-5.2,0.2-6.1c0.9-1.6,1.5-3.1,1.9-4.7c2.1,1.5,4.6,2.7,7.3,3.5c1.3,0.3,2.6,0.5,3.9,0.5
		c3.4,0,6.7-1.2,9.4-3.3c0.8,0.3,1.5,0.5,2.3,0.7c0.7,0.6,1.5,1.2,2.2,1.6c1.4,5.8,5.5,9.6,9.5,11.3c1.9,0.8,4,1.2,6,1.2
		c4.7,0,9.2-2.2,12.1-6.1c5.6-7.7,4.2-18.9,3.2-23.4c-1.4-6.9-4.2-12-8.5-15.1c0-0.8,0-1.7,0-2.1c0.3-8.4-1.6-15.7-3.2-22.1
		c-0.9-3.5-1.7-6.8-2.1-9.8c-0.9-7.1-4.5-12.3-6.9-15.7c-0.7-1-1.4-2-1.7-2.6c-0.5-0.9-1-1.7-1.7-2.5c-0.1-0.2-0.1-0.4-0.2-0.6
		l0-0.1c-0.1-0.2-0.2-0.5-0.2-0.7c0-0.4-0.1-0.8-0.1-1.3l-0.1-0.9c-0.3-3.3-0.8-7.9-2.9-12.6c0.1-1.1,0-2.2-0.2-3.4
		c4-6.2,3.2-12.6,2.9-15.3c0-0.1,0-0.3-0.1-0.4c0.2-2.5,0.2-4.9,0.3-7c0-0.8,0-1.7,0.1-2.5c0-0.4,0-0.7,0-1.1c0-1.3,0.2-2.5,0.6-3.9
		c1.9-5.6,4-13.2,3.4-22c-0.1-1-0.1-2.1-0.2-3.1c-0.7-9.8-1-15.5,2.1-21.1c5.3-9.5,4.9-19.5,4.6-27.6c-0.1-1.8-0.2-3.4-0.2-4.9
		c0-2.6-0.5-5.1-1.4-7.3c0.2-2.3,0-4.8-0.8-7.8c-2.7-9.9-7.6-19.2-15-28.6C178.1,5.9,169.4,1.3,160.2,1.3L160.2,1.3L160.2,1.3z"/>
</g>
</svg>
