<?xml version="1.0" encoding="utf-8"?>
<!-- Generator: Adobe Illustrator 24.1.0, SVG Export Plug-In . SVG Version: 6.00 Build 0)  -->
<svg version="1.1" id="Livello_1" xmlns="http://www.w3.org/2000/svg" xmlns:xlink="http://www.w3.org/1999/xlink" x="0px" y="0px"
	 viewBox="0 0 274.7 353.3" style="enable-background:new 0 0 274.7 353.3;" width="50" height="50" xml:space="preserve">
<style type="text/css">

		.Stile_x0020_grafica{fill:#FEFEFE;stroke:#000000;stroke-width:15;stroke-linecap:round;stroke-linejoin:round;stroke-miterlimit:10;}
	.st0{fill:#FEFEFE;}
</style>
<g>
	<path class="st0" d="M86.1,108.2c0-0.1,0.1-0.2,0.1-0.2C86.2,108,86.1,108.1,86.1,108.2z"/>
	<path class="st0" d="M153.4,210.9c0-0.2,0.1-0.4,0.1-0.5C153.4,210.5,153.4,210.7,153.4,210.9z"/>
	<g>
		<path class="st0" d="M73.7,343.7c-3.2,0-6.4-0.3-9.5-0.8c-10.1-1.6-15.1-4.8-14.3-17.4c0.3-4.1-0.9-4.7-2-5.4
			c-5.6-3.3-7.6-9.3-5.2-15.3c0-0.1,0.1-0.2,0.1-0.2c-0.1-0.5-1.3-2.3-1.9-3.2c-3.6-5.2-7-12.4-0.5-21.9c2.3-3.3,2.5-5.2,2.2-7.1
			c-0.8-4.8,0-9.7,2.2-14.2c1.6-3.3,2.7-7,3.8-10.9c1.3-4.6,2.7-9.3,5.1-14c2.9-5.7,4.4-12,6-18.7c0.7-3,1.4-6.1,2.3-9.1
			c0-0.1-0.1-0.4-0.3-0.9c-2.4-7.1-0.9-14,4.1-19.1c-1.5-3.3-2.7-6.6-3.5-9.7c-2.3-9-0.7-16.3,4.7-21.7c0-0.1,0.1-0.3,0.1-0.5
			c0.8-3.8,1.9-8.1,4.5-12.3c-3.6-3.9-4.1-10.1-0.9-16.3c0.6-1.1,0.8-2.2,0.1-5c-1.3-5.9-2.4-11.9-3.5-17.7
			c-0.8-0.1-1.5-0.3-2.2-0.7c-0.6-0.3-1.1-0.4-1.7-0.4c-1.8,0-4.1,1.2-6.6,2.4c-1.2,0.6-2.3,1.2-3.6,1.7c-1.4,0.6-2.9,1.2-4.4,1.8
			c-4.7,1.9-9.2,3.7-13,6.4c-2.8,2-5.7,2-7,2c0,0-0.7,0-0.7,0c-1,0.4-2,0.5-3,0.5c-2.8,0-5.4-1.4-6.9-3.7c-2.5-3.8-1-8-0.3-9.6
			c0.2-0.4,0.4-0.9,0.6-1.3c-4.1-0.1-8.5-3-8.7-9.2c-0.2-6.5,3.6-11.8,9.3-12.8c0.5-0.1,1.3-0.4,2.1-0.7c1.8-0.6,4.2-1.5,7.1-1.6
			c0.2-1.5,0.7-2.7,1-3.7c0.2-0.5,0.4-1.3,0.5-1.6c-0.1-2.8,1-5.5,2.9-7.4c1.9-2,4.6-3,7.5-3c1.2,0,2.4,0.2,3.7,0.6
			c0.6,0.2,1.2,0.3,1.8,0.3c2.2,0,4.7-1.4,7.6-3c1.3-0.7,2.7-1.5,4.2-2.2c0,0,0-0.1,0.1-0.1c2.9-5,6.3-8.1,10.4-9.5
			C72,46.1,75.2,42.8,79,39c3.1-3.1,6.2-6.4,10.4-9c1.9-1.2,4.5-2.9,8.3-2.9c1,0,2,0.1,3.1,0.3c1.5,0.3,2.7,0.5,3.5,0.5
			c0.4,0,0.5,0,0.5,0c0.2-0.1,1-0.7,3.3-3.8c5.8-8,14.4-12.4,24.4-12.4c0.6,0,1.2,0,1.9,0.1c0.1,0,0.2,0,0.3,0
			c1.5,0,3.2-0.6,5.2-1.3l0.3-0.1c1.5-0.5,3-0.8,4.4-0.8c5.8,0,8.8,3.9,10.2,5.8c0.2,0.2,0.4,0.5,0.5,0.7c3,2.1,5.9,6.1,3.2,13.5
			l-0.1,0.4c-1,2.9-2.4,5.4-3.9,7.5c0.2,0.4,0.4,0.7,0.6,1.1c0.9,2.3,0.7,4.4,0.6,5.7c0,0.2,0,0.3,0,0.5c0,0.4,0,0.8-0.1,1.1
			c-0.1,0.4-0.1,0.7-0.2,1.1c8.2,0.2,15.1,3.6,20,9.8c3.3,4.2,8.2,5.7,11.4,5.7c0.2,0,0.3,0,0.5,0c0.6,0,1.2,0,1.8,0
			c11.7,0,19.8,5.7,26.9,10.7l1,0.7c0.5,0.3,0.9,0.6,1.2,0.8c0.9-2.6,3.2-5.5,8.2-7.8c0.5-0.2,0.9-0.4,1.2-0.5c1-0.6,2.1-0.9,3.2-1
			c0.4,0,0.7,0,1.1,0c0.2,0,0.5,0,0.7,0c1.1-0.6,2.2-0.9,3.5-1l0.2,0c0.4,0,1-0.1,1.7-0.1c2.5,0,4.8,0.9,6.5,2.5
			c1.2-0.3,2.5-0.4,3.8-0.4c2.6,0,5.2,0.5,7.9,1.6c2.3,1,4,3,4.5,5.5c0.5,2.5-0.3,5-2.1,6.8c-1.3,1.2-2.6,2.3-3.8,3.3
			c-0.4,0.3-0.8,0.7-1.2,1c2.8,1.1,4.9,2.8,6.3,3.9c2.6,2,3.5,5.5,2.3,8.6c-1.1,2.9-3.9,4.7-6.9,4.8c-0.3,0.2-0.7,0.4-1,0.7
			c-1.8,1.3-4.8,3.4-9.1,3.4l-0.6,0c-1.6,0-3.5,0.3-5.4,0.7c-2.4,0.4-5.2,0.9-8.2,0.9c-1.3,0-2.7-0.1-3.9-0.3c-0.1,0-0.2,0-0.2,0
			c0.2,2.5-0.8,5-2.8,6.6c-1.4,1.1-3,1.7-4.7,1.7c-0.9,0-1.9-0.2-2.8-0.5c-7.3-2.9-9.7-7.1-10.5-10.2c-0.8,0.1-1.5,0.3-2.2,0.4
			c-2,0.5-3.9,0.7-5.8,0.7c-5.8,0-11-2.2-15.4-6.2c-2,0.5-4,0.7-5.9,0.7c-3.8,0-7.3-0.9-10.4-2.7c-2.4,4.3-3.3,6.9-2.1,10.4
			c2.2,6,1,11.8,0,16.5c-0.4,1.8-0.7,3.5-0.9,5l0,0.5c-0.5,5-0.6,7.5,1.2,9.8c3.8,4.9,4.5,11.7,1.8,17.8c9,10.9,10.5,23.7,11.3,35.9
			c0.1,0.9,0.1,1.7,0.2,2.5c0.2,3.1,0.5,6.7,0.2,10.5c-1,10.8-8.5,16.8-13.9,21.2c-0.4,0.4-0.9,0.7-1.3,1.1c-2.4,2-5.4,3-8.7,3
			c-4.8,0-10.3-2.3-14.7-6.1c-1.2-1-2.1-2.4-2.4-4l-0.1-0.3c-0.2-0.9-0.7-2.6-0.4-4.6c-0.5-1.3-0.5-2.6-0.4-3.6
			c-0.4-0.7-0.7-1.5-0.9-2.3c-0.4,1.3-0.8,2.6-1.2,3.8c-0.5,1.7-1.1,3.4-1.6,5.1c-0.6,2.2-1.4,4.2-2.2,6.2c-1.9,5-3.5,9.4-2.4,13.6
			c0.6,2.2,0.5,4.2-0.1,6c-1.2,3.3-0.3,5.1,4.1,10.7c0.9,1.2,1.8,2.4,2.7,3.7c2.9,4.1,6.4,9.8,7.4,16.7c0,0,0,0,0,0
			c4.9,0.8,8.7,3.4,11.5,5.6c1.7,1.3,2.5,1.4,2.7,1.4c0.4,0,0.9-0.3,1.2-0.5c2.1-1.4,4.2-2.7,6.4-3.8c2.1-1,4.3-1.6,6.6-1.6
			c5.7,0,10.6,3.2,12.8,8.2c7.4-2,14.3-5.5,21.6-9.3l1.2-0.6c2.1-1.1,4.7-2.2,7.4-2.2c2.6,0,5,1,6.7,2.9c2.8,2.9,2.9,6.8,2.7,9.8
			c-0.2,2.7,0.2,5.6,0.6,8.8c0.4,3,0.8,6.2,0.8,9.6c3.4,3.2,3.8,7.5,4,9.6c0,0.4,0.1,1,0.1,1.3c1.3,2.5,1.4,5.4,0.2,7.9
			c-1.4,3.1-4.6,5.3-8.6,6.2c-11.2,2.3-22.3,3.5-33,3.5c-1.5,0-3,0-4.5-0.1c-8-0.2-16.1-0.7-23.9-1.1c-11.7-0.6-23.8-1.3-35.6-1.3
			c-0.8,0-1.5,0-2.3,0c-1.3,1.7-3.3,3-5.2,3.5c-2.8,0.8-5.6,1.6-8.3,2.5C96.3,340.4,85.5,343.7,73.7,343.7z M91.7,230
			c0.6,0,1.3,0.1,2,0.2c-0.4-0.8-0.7-1.6-1.1-2.4C92.3,228.7,92,229.4,91.7,230z M140.8,184c-0.9,0.8-1.6,1.6-2.1,2.3
			c-0.6,1-0.6,1.3-0.6,1.7c0.4,3.6,0.3,7.1-0.1,10.4c2.3-3.4,5.6-5.8,8.5-7.5c-0.1-0.1-0.2-0.2-0.3-0.3
			C144.5,188.7,142.5,186.6,140.8,184z"/>
		<path d="M144.5,17.1c3.3,0,4.1,3.6,6.3,5.1c2.1,1.4,1.1,3.4,0.4,5.4c-1.1,3.2-3,5.8-4.9,8.4c-1.4,1-0.8,2.6-1.1,3.9
			c-1,1.2-1.9,2.6-0.3,3.7c0.1,0.1,0.3,0.1,0.4,0.1c0.6,0,1-0.9,1.1-1.6h0c0.4-0.2,1-0.9,1.3-0.9c0.1,0,0.2,0.1,0.2,0.2
			c0.4,1,0.1,2.2,0.1,3.4c-0.7,4.7-2.9,8.5-7.6,11.2c1,0.5,1.8,0.7,2.5,0.7c1.5,0,2.7-0.9,3.8-1.2c2.7-0.6,5.3-1,7.8-1
			c5.7,0,10.8,1.9,14.8,7c4.6,5.8,11.5,8.6,17.3,8.6c0.3,0,0.6,0,0.9,0c0.5,0,1,0,1.4,0c9.8,0,16.4,5,23.6,10
			c2.1,1.5,4.2,2.7,6.4,2.7c1.4,0,2.8-0.5,4.4-1.7c0.6-0.5,1.7-0.8,1.7-1.6c-0.4-4.6,3.6-5,6.3-6.5c0.2,0,0.3,0,0.5,0
			c0.6,0,1.1,0.1,1.7,0.1c1,0,1.9-0.2,2.7-1c0.5,0,1.1-0.1,1.6-0.1c0.7,0,1.3,0.2,1.7,1c-1.8,2.8-5.7,4.3-5.5,8.8
			c4.5-3.8,8.6-7.7,14.1-7.7c1.6,0,3.2,0.3,5,1.1c-3.2,3.1-7.2,5.3-9.4,9.4c-0.2,0.4-0.8,0.7-1,1.1c-0.8,1.9-3.5,3.8-2.5,5.5
			c0.4,0.7,1.2,1,2.2,1c1.2,0,2.6-0.4,3.8-0.7c0.6-0.1,1.2-0.2,1.7-0.2c2.7,0,4.9,1.6,7.1,3.3c-0.1,0-0.3,0-0.4,0
			c-3.8,0-5.8,4.1-9.6,4.1c0,0-0.1,0-0.1,0c-0.2,0-0.3,0-0.5,0c-4.6,0-9,1.6-13.6,1.6c-0.9,0-1.8-0.1-2.8-0.2
			c-1.1-0.2-2.1-0.3-3.1-0.3c-5,0-6.7,2.7-5.8,8.4c-3.4-1.3-6.1-2.9-6.1-6.8c0-3.1-1.4-4.4-3.9-4.4c-0.4,0-0.8,0-1.2,0.1
			c-2,0.3-4,0.5-5.9,1c-1.4,0.3-2.8,0.5-4.1,0.5c-4.1,0-7.8-1.6-10.9-4.9c-1.1-1.2-2.1-1.7-3.3-1.7c-0.6,0-1.2,0.1-1.9,0.3
			c-1.7,0.5-3.5,0.7-5.2,0.7c-3.2,0-6.2-0.9-8.9-3.3c-1-0.9-2-1.3-2.9-1.3c-1.2,0-2.3,0.8-3.2,2.4c-3.4,6.2-7.4,11.9-4.4,19.9
			c2.1,5.8-0.7,12.2-1.3,18.3c-0.5,5.5-1.1,10.7,2.7,15.6c2.3,3,2.4,7,0.8,10.5c-1.2,2.6-1.1,4.8,0.7,6.9c8,9.3,9.4,20.7,10.1,32.2
			c0.2,3.9,0.8,7.8,0.4,11.9c-0.8,8.4-7.2,12.8-12.5,17.1c-1.1,0.9-2.5,1.3-4,1.3c-3.2,0-7-1.9-9.9-4.3c-0.3-1.1-0.7-2.2,0.1-3.2
			c1.3-1.3-1.3-1.7-0.8-2.9c0.1-0.1,0.2-0.2,0.3-0.3c0.9,0.1,1.8,0.2,2.6,0.2c2.6,0,5-0.7,7-2.9c1.4-1.5,2.9-3,0.8-5
			c-0.9-0.5-1.5-1.5-2.4-1.5c-0.5,0-1.1,0.3-1.9,1.1c-1.9,1.9-4.9,2.7-7.5,4c-0.3-8.3,6.4-11.2,11.9-14.4c3.8-2.3,2.7-3.3,0.8-5.7
			c-4.6-5.9-11.5-10.6-10.9-19.9c-2.6,5.9-8.6,8-11.7,12.9c-1.3,2.1-2,4.1-1.7,6.5c1.2,10.2-2.8,19.4-5.7,28.9
			c-2.3,7.7-7,15.2-4.6,23.9c0.1,0.5,0.2,1.1,0.1,1.5c-3.4,9.3,3.2,14.8,7.7,21.2c2.8,4,5.4,8.4,6.1,13.5c0.5,3.4,2.1,5.8,5.9,6.3
			c3.2,0.4,5.8,2.1,8.4,4.1c2.3,1.8,4.8,3,7.4,3c1.7,0,3.5-0.5,5.4-1.8c1.8-1.2,3.7-2.3,5.6-3.3c1.1-0.5,2.2-0.8,3.3-0.8
			c2.9,0,5.6,1.8,6.3,4.9c0.6,3,2.3,3.8,4.1,3.8c0.8,0,1.6-0.1,2.4-0.3c9.3-2.2,17.7-6.6,26.1-10.9c1.7-0.9,3-1.4,4-1.4
			c1.6,0,2.2,1.4,2,4.7c-0.4,7.1,2,14,1.3,21.1c-0.1,0.9-0.1,1.8,0.8,2.2c4.6,1.9,2.5,6.7,4.2,9.9c0.9,1.7-1.1,2.9-3.2,3.4
			c-10.4,2.2-20.9,3.4-31.4,3.4c-1.4,0-2.9,0-4.3-0.1c-19.9-0.6-39.8-2.4-59.8-2.4c-1.4,0-2.7,0-4.1,0c0,0-0.1,0-0.1,0
			c-0.5,0-1.1,0-1.6,0c-1.4,0-2.4,0.3-2.3,2.7c0,0.4-0.8,1-1.4,1.2c-13,3.6-25.8,8.7-39.4,8.7c-2.7,0-5.5-0.2-8.3-0.7
			c-7.6-1.2-8.5-2-8-9.5c0.3-5.2-0.9-9.5-5.6-12.3c-2.3-1.4-3.1-3.5-2.1-6c1.7-4.2-0.5-7.4-2.7-10.5c-3.4-4.9-4-8.3-0.5-13.4
			c2.6-3.9,4.2-7.7,3.4-12.5c-0.5-3.3,0.1-6.7,1.5-9.8c3.9-8,4.8-17,8.8-24.8c4.8-9.3,6.1-19.5,8.9-29.3c0.5-1.9,0.2-3.6-0.4-5.3
			c-1.8-5.2-0.2-9.7,3.9-12.9c2.2-1.7,2.1-2.5,1-4.7c-1.8-3.4-3.2-7-4.2-10.6c-1.4-5.3-1.4-10.6,3-14.9c1.1-1.1,1.5-2.4,1.9-4
			c0.8-4.1,1.9-8,4.6-11.4c1.5-1.9,3.6-4.3-0.8-6.7c-3.1-1.6-2.4-5.7-0.9-8.6c1.8-3.4,1.6-6.5,0.8-10.1c-1.8-8.1-3.2-16.3-4.7-24.5
			c0-5.9,0-5.9-4.9-6.4c2.8,4.7,2.8,4.7-0.2,7.3c-1.7-0.8-3.3-1.1-4.9-1.1c-4.8,0-9.1,3-13.2,4.7c-6.3,2.7-13,4.9-18.7,8.9
			c-0.8,0.6-1.7,0.6-2.7,0.6c-0.2,0-0.5,0-0.7,0c-0.8,0-1.6,0-2.4,0.4c-0.3,0.1-0.5,0.2-0.7,0.2c-1.1,0-0.8-1.7-0.3-2.8
			c1.7-3.7,5.1-5.5,8.2-7.5c1.1-0.7,2.8-1.1,2.4-2.7c-0.5-1.6-2.3-1.7-3.8-1.7c-0.8,0-1.6,0-2.4,0c-0.9,0-1.8,0-2.7,0
			c-1.7,0-3.4,0-5.1-0.2c-0.1,0-0.1,0-0.2,0c-0.7,0-1.7,0.5-2.6,0.5c-0.8,0-1.4-0.4-1.5-1.9c-0.1-2.2,0.9-4.8,3.1-5.2
			c2.8-0.5,5.2-2.1,8.3-2.1c0.3,0,0.5,0,0.8,0c0.3,0,0.7,0,1,0c2.7,0,5.1-1.2,5.1-5.3c0-2.5,1.7-4.9,1.7-7.7c0-2,1.3-2.9,2.9-2.9
			c0.5,0,1,0.1,1.4,0.2c1.4,0.4,2.8,0.6,4,0.6c6,0,10.9-4.2,16.3-6.4c1.2-0.5,1.6-1.6,2.2-2.6c1.5-2.7,3.5-5.2,6.3-6.2
			c9.9-3.4,14.7-13,23.1-18.3c1.5-1,2.7-1.7,4.3-1.7c0.4,0,0.9,0.1,1.4,0.2c2,0.5,3.7,0.7,5.1,0.7c4.2,0,6.3-2.1,9.9-7
			c4.4-6.2,10.8-9.3,18.3-9.3c0.5,0,1,0,1.5,0c0.2,0,0.5,0,0.7,0c2.9,0,5.5-0.9,7.9-1.8C143.2,17.2,143.9,17.1,144.5,17.1
			 M98.8,41.4c-0.1,0-0.2,0-0.2,0c-0.2,0-0.3,0-0.5,0c-6.8,0-10.5,5.4-15.6,9.1c2.9,1,4.5,1.6,5.7,1.6c1.4,0,2.4-0.7,4.6-2.3
			c2.1-1.6,4.1-3.3,6.8-4c1.3-0.4,3.3-1,2.8-2.8c-0.3-1.3-1.3-1.5-2.4-1.5C99.6,41.4,99.2,41.4,98.8,41.4 M99.1,52.8
			c-0.1,0-0.2,0-0.2,0c-2.1,0-3.7,0.8-4.1,3.1c0.5,0.2,1,0.3,1.4,0.3c1.2,0,2.2-0.6,3.1-1.5c0.2,0,0.3,0,0.5,0c2.2,0,4-0.9,5.4-2.7
			c-0.7-0.9-1.4-1.2-2.2-1.2c-0.9,0-1.8,0.5-2.8,0.9c0,0,0,0,0,0C99.8,52.1,99.4,52.4,99.1,52.8 M94.7,132c4.3-5.6,4.1-7.9-0.5-12.4
			c-1.7-1.6-3.1-3.4-4.7-5.1c-0.4-1.1-0.9-2.2-2.1-2.8c0.3-1.5-0.4-2.7-1.2-3.8c-0.3-0.8-0.8-1.9-1.5-1.9c-0.2,0-0.4,0.1-0.7,0.3
			c-1.3,1.2,0.3,2.5,1,3.7c0.2,0.8,0,1.7,1.2,1.8c-0.3,1.8,1,2.8,2,4C90.4,121.3,92.5,126.6,94.7,132 M85.5,238
			c0.8,0,1.7-0.1,2.8-0.3c0.8-0.1,1.5-0.2,2.2-0.2c3.6,0,6.2,1.8,8.1,5.1c0.8,1.4,1.8,2.8,2.7,4.1c0.8,1.8,1.5,3.6,2.3,5.3
			c1.4-2.5,0.9-4.4-0.3-6.3c0.1-2,0.4-4,0.2-5.9c-0.2-3.4,0.7-6.9-1.5-10.1c-4.1-6.1-5-12.6-2-19.3c1-2.2,0.8-4.1-0.2-6.1
			c-0.4-0.8-0.9-1.5-1.5-1.5c-0.4,0-0.8,0.3-1.2,1.3c-2,4.6-5.8,7.6-9.4,10.7c-0.9,0.8-2.4,1.5-1.9,2.7c2,5.3-1.1,9.2-3,13.6
			C80.8,235.8,81.6,238,85.5,238 M144.5,2.1C144.5,2.1,144.5,2.1,144.5,2.1c-2.2,0-4.5,0.4-6.8,1.2l-0.3,0.1
			c-0.9,0.3-2.3,0.8-2.8,0.9c-0.7,0-1.4-0.1-2.2-0.1c-12.4,0-23.2,5.5-30.4,15.5c-0.1,0.1-0.1,0.2-0.2,0.3c-1.4-0.3-2.7-0.4-4.1-0.4
			c-6,0-10.1,2.6-12.4,4.1c-4.8,3.1-8.5,6.8-11.7,10.1c-3.1,3.1-5.7,5.8-8.2,6.7c-5.2,1.8-9.7,5.5-13.2,11c-0.9,0.5-1.7,0.9-2.5,1.4
			c-1.3,0.7-3.1,1.7-4,2c-1.8-0.5-3.7-0.8-5.5-0.8c-5,0-9.5,1.9-12.9,5.3c-3,3-4.7,7-5,11.3c-1.5,0.4-2.8,0.9-3.7,1.2
			c-0.3,0.1-0.8,0.3-1,0.4C8.3,73.8,1.9,82.4,2.3,92.5c0.2,5.7,2.9,10.6,7.1,13.5c-0.3,3.7,0.5,7.3,2.5,10.4
			c2.9,4.5,7.8,7.1,13.2,7.1c1.4,0,2.8-0.2,4.1-0.5c1.9,0,6.5-0.2,10.9-3.4c3-2.1,7.1-3.8,11.4-5.5c1.5-0.6,3-1.2,4.5-1.9
			c1.5-0.6,2.8-1.3,4-1.9c0.3-0.1,0.6-0.3,1-0.5c0.7,3.9,1.5,7.9,2.4,11.8c0.1,0.3,0.1,0.5,0.1,0.7c-1.3,2.7-2.6,6.6-2.6,11
			c0,3,0.7,5.7,1.8,8.2c-1.3,3-2.2,6-2.8,8.9c-4.6,5.4-8.4,14.2-5.1,27.2c0.6,2.2,1.3,4.4,2.2,6.7c-4,6.2-5.1,13.8-3,21.3
			c-0.7,2.5-1.2,4.9-1.8,7.3c-1.5,6.2-2.9,12.1-5.4,17c-2.7,5.3-4.2,10.6-5.6,15.3c-1,3.6-2,7-3.3,9.7c-2.9,5.9-3.8,12.3-2.9,18.6
			c-0.1,0.2-0.3,0.8-1,1.7c-6.8,9.9-6.6,20.1,0.5,30.3c-1.6,7.5,1.3,15.1,7.7,19.7c-0.3,4.2-0.6,11.5,4.6,17.5
			c4.8,5.6,11.5,6.7,16,7.4c3.5,0.6,7.1,0.9,10.7,0.9c12.9,0,24.3-3.5,35.3-6.8c2.8-0.9,5.5-1.7,8.2-2.4c2.2-0.6,4.4-1.7,6.3-3.3
			c11.3,0,23,0.7,34.4,1.3c7.9,0.4,16,0.9,24.1,1.1c1.6,0,3.2,0.1,4.7,0.1c11.2,0,22.8-1.2,34.5-3.7c6.4-1.3,11.5-5.1,13.9-10.4
			c1.9-4.2,2-8.8,0.3-13c-0.2-1.8-0.4-4.7-1.8-7.9c-0.6-1.4-1.3-2.7-2.2-3.9c-0.1-2.8-0.5-5.4-0.8-7.8c-0.4-2.8-0.7-5.3-0.6-7.3
			c0.1-2.4,0.6-9.8-4.7-15.4c-3.2-3.4-7.5-5.2-12.2-5.2c-4.3,0-8.1,1.6-10.8,3l-1.2,0.6c-5.2,2.7-10.2,5.2-15.2,7.1
			c-3.9-4.2-9.6-6.8-15.8-6.8c-3.4,0-6.9,0.8-9.9,2.3c-1.4,0.7-2.8,1.5-4.2,2.3c-2.2-1.6-4.8-3.2-7.9-4.3c-1.8-6.2-4.9-11.2-7.6-15
			c-1-1.4-2.1-2.8-3-3.9c-0.9-1.2-2.2-2.9-2.8-3.9c1.1-3.2,1.2-6.7,0.2-10.2c-0.3-1.2,0-2.9,0.8-5.2c5.6,4.3,12.2,6.8,18.3,6.8
			c5.1,0,9.7-1.6,13.4-4.7c0.4-0.3,0.8-0.7,1.3-1c5.7-4.6,15.3-12.3,16.7-26.3c0.4-4.5,0.1-8.4-0.1-11.8c-0.1-0.8-0.1-1.6-0.2-2.4
			c-0.7-11.7-2.2-25-10.4-36.9c1.8-7.4,0.3-15-4.1-20.9c-0.1-0.9,0.1-3.2,0.2-4.7l0-0.5c0.1-1.1,0.4-2.6,0.7-4.1
			c1-4.9,2.3-11.4,0.3-18.6c1.5,0.3,3.1,0.4,4.7,0.4c1.2,0,2.5-0.1,3.8-0.2c5.1,3.8,11.1,5.8,17.5,5.8c1.3,0,2.5-0.1,3.8-0.2
			c0.8,1.2,1.8,2.3,2.9,3.4c3,2.9,6.5,4.4,9.1,5.5c1.8,0.7,3.6,1,5.5,1c3.4,0,6.7-1.1,9.4-3.3c1.6-1.3,2.9-2.9,3.8-4.6
			c3-0.1,5.7-0.6,7.9-1c1.6-0.3,3.2-0.6,4.1-0.6l0.1,0c0.2,0,0.4,0,0.5,0c6.1,0,10.4-2.7,12.8-4.3c5-0.9,9.3-4.4,11.2-9.3
			c2.2-5.7,0.8-12.1-3.6-16.3c2.3-3.3,3.2-7.5,2.4-11.5c-1-4.9-4.4-9.1-9-11c-3.5-1.4-7.1-2.2-10.7-2.2c-0.6,0-1.2,0-1.8,0.1
			c-2.5-1.4-5.4-2.2-8.5-2.2c-1.1,0-1.9,0.1-2.4,0.1c-1.6,0.1-3.1,0.4-4.6,1c-0.2,0-0.5,0-0.7,0c-2.2,0.2-4.3,0.8-6.2,1.9
			c-0.2,0.1-0.4,0.2-0.6,0.3c-1.7,0.7-4.4,1.9-7,4.3c-7-4.7-15.5-9.4-27.3-9.4c-0.7,0-1.4,0-2.2,0.1c0,0-0.1,0-0.1,0
			c-1.3,0-3.9-0.8-5.5-2.9c-4.8-6-10.9-10-18.1-11.7c-0.1-0.7-0.2-1.4-0.4-2.1c1-1.8,1.9-3.8,2.7-5.9l0.1-0.3
			c0.6-1.6,1.5-4.2,1.5-7.6c0.1-5.5-2.3-10.4-6.5-13.9C158.8,8.4,153.8,2.1,144.5,2.1L144.5,2.1z"/>
	</g>
</g>
</svg>
