<?xml version="1.0" encoding="utf-8"?>
<!-- Generator: Adobe Illustrator 24.1.0, SVG Export Plug-In . SVG Version: 6.00 Build 0)  -->
<svg version="1.1" id="Livello_1" xmlns="http://www.w3.org/2000/svg" xmlns:xlink="http://www.w3.org/1999/xlink" x="0px" y="0px"
	 viewBox="0 0 245.5 357.3" style="enable-background:new 0 0 245.5 357.3;" width="50" height="50" xml:space="preserve">
<style type="text/css">

		.Stile_x0020_grafica{fill:#FEFEFE;stroke:#000000;stroke-width:15;stroke-linecap:round;stroke-linejoin:round;stroke-miterlimit:10;}
	.st0{fill:none;}
	.st1{fill:#FEFEFE;}
</style>
<g>
	<path class="st0" d="M60.7,228.4c-0.2,0.8,0.6,0.9,1.3,1c0.8-0.1,1.1-0.7,1.1-1.4c0-0.8-0.6-1.2-1.2-1
		C61.3,227.2,60.8,227.8,60.7,228.4z"/>
	<path class="st0" d="M52.7,272.2c-2.4,3.1-5.4,4.6-7.9,6.8c-1.3,1.2-1.9,3.1-0.8,4.6c1.6,2.1,2.4-0.4,3.5-1c1.2-0.7,2.4-1,3.7-1.3
		c5.6-1.4,5.7-1.8,2.8-6.6C53.7,274.1,53.4,273.5,52.7,272.2z"/>
	<path class="st0" d="M61.6,270.5c-0.7,0-1.2,0.5-1.3,1.3c-0.1,1,0.3,1.6,1.3,1.7c1-0.1,1.6-0.6,1.6-1.5
		C63.2,271.1,62.6,270.4,61.6,270.5z"/>
	<path class="st0" d="M61.5,210.8c0.8-4.4,2.1-8.8-0.5-13c0,0,0,0,0,0l0,0c0,0,0,0,0,0c0,0,0.2-0.2,0.2-0.2l-0.2,0.2
		c-1.3-3.2-3-2.5-3.6,0.1c-0.7,2.8-0.7,5.9,1.6,8.4c0,0,0,0,0,0c-2.8,1.6-2.4,4-0.9,5.8C59.2,213.4,60.9,212.6,61.5,210.8z"/>
	<path class="st0" d="M99.2,60.5c1.2-0.4,2.7-1.1,2.1-2.5c-0.6-1.2-1.9,0-2.9,0.3c-0.5-0.6-0.5-1.2,0.1-1.8c2-0.7,4.1-1.4,7.4-2.6
		c-3.8-0.5-6.3-1.3-8.6,0.5c-2,1.2-6.3,1.3-5.6,3.6C92.3,60.4,96,61.6,99.2,60.5z"/>
	<path class="st0" d="M98.7,70.6c0-0.3-0.5-0.8-0.9-0.8c-0.7-0.1-1.3,0.2-1.1,1c0.1,0.3,0.7,0.5,1.2,0.8
		C98.3,71.2,98.7,70.8,98.7,70.6z"/>
	<path class="st0" d="M59.9,191.5c2.2,1.3,3.6,1.2,5-0.6C63.1,190,61.8,190.4,59.9,191.5z"/>
	<path class="st0" d="M103.5,49.7c1.1,0.3,2.4,0.7,2.6-1.1c0.2-1.3,0-2.7-1-3.7c-1.2-1.2-2.1,0.2-2.8,0.9c-1.2,1.2-3.1,1.9-3.8,3.9
		C100.4,51.2,101.9,49.3,103.5,49.7z"/>
	<path class="st0" d="M63.1,179.7c-1.1-0.4-2.3-0.2-1.9,1.2c0.6,1.9,0.2,4.5,2.8,5.4c2.1,0.1,1.5-1.7,1.9-2.8
		C66.7,180.9,64.8,180.3,63.1,179.7z"/>
	<path class="st0" d="M134.7,235.5c-0.7-0.9-2.4-1-2.3-0.6c1.1,2.6-2.1,5.2-0.6,7c3.7,4.5,5.5,12.2,12.9,9.9c2,0,2.9,0.1,3.7,0
		c1.5-0.2,3.7,1.2,4.2-1.1c0.4-1.7-0.1-3.8-1.8-4.8c-3.6-2.2-6.1-5.6-9.3-8.2c-0.7-0.6-1.7-2.5-2.7-1.1
		C136.4,239.7,135.8,236.8,134.7,235.5z"/>
	<path class="st0" d="M127,235c0.2,0.4,0.4,0.9,0.8,1.1c0.3,0.1,0.7-0.2,1.5-0.5c-0.7-0.5-1-0.8-1.4-0.9
		C127.6,234.6,127.3,234.9,127,235z"/>
	<path class="st0" d="M97.1,209.6c-2.6,2.3-5.3,3.9-8.3,4.9c-1.2,0.4-2.3,0.9-3,2.3c-5.5,10.5-11.3,20.9-16.6,31.6
		c-2.2,4.4-3.8,9.2-3.7,14.2c0,2.3,0.8,6.4,3.8,4.4c5.2-3.4,11.7-5,15.2-11.4c4.4-8,6-8.1,14.4-4.6c2.3,1,3.2,0.9,3.7-1.6
		c1.1-5.9,1.1-12.1,3.5-17.8c0.1-0.3,0-0.7-0.2-1C101.8,224.3,101.2,216.5,97.1,209.6z"/>
	<path class="st0" d="M112.3,41.1c-0.1-1.9-1.1-3.4-2.9-4.1c-1.3,0-2.2,0.6-2.2,1.7c-0.1,2.2,1.8,2.9,3.5,3.7
		C111.6,42.7,112.3,41.9,112.3,41.1z"/>
	<path class="st0" d="M111.5,244c0.5-0.8-0.4-2-1.7-1.6c-1.3,0.4-0.8,1.6-0.7,2.5c-0.7,1.7-2,3.5-0.4,5.3c0.7,0.7,1.8,0.2,2.5-0.7
		C116.6,248,110.3,245.9,111.5,244z"/>
	<path class="st0" d="M114.8,36.2c-0.3,0-0.9,0.5-0.9,0.9c-0.1,0.7,0.4,1.2,1.3,1.3c0.2-0.3,0.7-0.6,0.7-0.9
		C116,36.8,115.5,36.2,114.8,36.2z"/>
	<polygon class="st1" points="136.4,27.7 136.4,27.7 136.4,27.7 	"/>
	<g>
		<path class="st1" d="M135.5,346.6c-3.9,0-7.4-0.7-10.8-1.3c-1.9-0.4-3.7-0.7-5.4-0.9l-0.8-0.1c-3.3-0.4-6.4-0.7-9.4-0.7l-0.8,0
			c-4.8,0-11.8-0.4-17.9-3.8c-17.1-9.3-36.3-12.5-56.2-15.1c-4.9-0.7-9.7-1.7-14.3-2.7l-1-0.2c-1.3-0.3-5.1-1.1-7-4.9
			c-2-3.8-0.4-7.4,0.1-8.6c1.7-4,4.2-7.5,7.7-10.7c1.8-1.6,3.6-3.3,5.4-4.9c2.6-2.4,5.4-4.9,8.1-7.4c-1.8-6.2,0.1-12.3,5.4-17
			c2.7-2.4,3.5-5.9,4.5-11.5c0.3-1.5,0.6-3,0.9-4.5l0.1-0.6c0.6-2.8,1.6-7,6.1-10.4c0.4-0.3,0.8-0.8,1.1-1.4
			c-1.2-0.6-2.2-1.5-2.9-2.5c-1.4-1.9-1.7-3.9-1.5-5.7c-0.6-0.5-1.1-1.2-1.6-1.9c-1.2-1.8-3.1-5.9,0.1-10.7c-0.3-0.3-0.6-0.6-0.9-1
			c-1.4-1.8-1.9-4.1-1.5-6.2l0.9-4c0-0.2,0.1-0.3,0.1-0.5l1.6-5.6c-0.3-0.3-0.6-0.6-0.8-0.8c-1.9-2.2-2.6-5.1-2-8.5
			c0.3-2.2,1.6-4,3.4-5.1c-1.3-1.5-2.1-3.5-2.2-5.8c-0.1-2.8,0.8-5.4,2.7-7.3c0.2-0.2,0.5-0.5,0.7-0.7c-0.5-1.4-0.7-3-0.5-4.6
			c0.3-2.3,1.6-4.9,4.2-6.4c0.5-2.4,1.5-4.3,3-5.7c0.1-0.6,0.2-1.2,0.4-1.9c0.8-2.4,2.7-4.4,5.2-5.4c0.3-0.1,0.6-0.2,0.9-0.3
			c0.6-0.9,1.2-1.5,1.5-1.8c2-1.8,4.4-2.9,7-3c0.8-1,1.6-1.8,2.5-2.4c-0.2-3.1,1.3-5.5,1.8-6.2c1.7-2.4,4-3.8,6.7-4.2
			c0.1-0.2,0.2-0.5,0.3-0.7c0.3-0.7,0.5-1.3,0.6-1.7c1-4.1,0.6-7.5-1.3-11.4c-5.3-10.4-4-21.3,3.8-31.6c0,0,0.1-0.1,0.1-0.1
			c-2.3-2.9-2.2-6.4-2.1-7.7c0.1-1.7,0.3-3.2,0.7-4.7c-1.6-0.7-3-1.9-4-3.4c-1.5-2.2-2-5-1.4-7.6c0.3-1.6,0.4-1.9-3.9-5
			c-1.3-0.9-2.6-1.9-3.9-3.1c-0.6-0.6-1.1-0.7-1.5-0.7c-0.6,0-1.3,0.2-2,0.6c-1.2,0.7-1.8,1.3-1.7,3c0.3,1.3,1,4.7-1.4,7.9
			c-1.5,2-3.8,3.3-6.5,3.5c-0.3,0-0.5,0-0.8,0c-4.1,0-7.2-2.3-9.2-7l-0.1-0.2c-2-4.5-1.7-10,0.9-15.2c2.9-5.9,8-10.2,13.5-11.5
			c1.8-0.4,3.6-0.6,5.4-0.6c5.4,0,10.3,1.9,15.2,5.8c1.4,1.1,2.6,2.3,3.8,3.5c0.5,0.5,1,0.9,1.4,1.4c1.4-4,4.1-6.6,7-8.5
			c-1.4-3.5-0.6-7-0.3-8.4c2.7-11.2,9.9-17.9,19.2-17.9c4.8,0,9.7,1.8,14.5,5.3c2-1.6,4.2-1.8,5.4-1.8c2.4,0,4.8,0.9,7.1,2.8
			c0.3,0.2,0.5,0.5,0.8,0.7c0.2,0.2,0.4,0.5,0.6,0.7c0.5,0.5,0.8,1.1,1.2,1.7c0.7,1.3,0.9,2.5,1,3.6c0.9,1.2,1.4,2.7,1.4,4.2
			c0,0.4,0,0.8-0.1,1.1c1.4,1.1,2.3,2.6,2.7,4.2c0.1,0.2,0.3,0.3,0.4,0.5c0.1,0,0.1,0,0.2,0c3.1,0,5.8,1.6,7.6,4.3
			c0.7,1.1,1.1,2.2,1.2,3.4c2.9,1,4.9,2.7,6.1,5.1c1.2,2.4,1.2,5.2,0.1,7.7c-1.4,3.3-4.5,5.4-8,5.4c-0.1,0-0.3,0-0.4,0
			c-0.4,1.7-1.3,3.2-2.7,4.3c0,0-1.1,0.9-1.1,0.9c0.4,3.5,0.2,7.2-1.2,10.4c0.1,0.5,0.2,1,0.2,1.4c1.3,0.2,2.6,0.4,3.9,0.6
			c1,0.1,2,0.3,3.1,0.5c6.2,1,12.4,3.9,17.2,8c6.1,5.3,9.3,12.1,8.9,19.3c-0.1,2.2,0.7,3.3,1.5,4c0.5,0.4,0.9,0.9,1.4,1.4
			c0.9-4.5,2.9-8.5,5.8-12c0.2-0.3,0.6-1.5,0.9-2.3l0.3-0.9c3-8.1,8.4-15.1,15.4-20.3c1.2-0.9,1.4-1,0.4-4.5
			c-1.6-5.4-1.1-9.8,1.4-13.1c1.6-2.1,4.7-4.7,10.6-4.7c0.4,0,0.8,0,1.2,0c2.7,0.1,5,1.7,6.3,4.1c0.9,1.8,1.1,4,0.4,5.9
			c0.6,0.3,1.2,0.7,1.9,1.3c3.4,2.7,5.2,5.9,5.5,9.3c0.3,3.4-0.9,6.7-3.7,9.8c-1.2,1.5-1.2,7.5,0.4,9.4c3.1,3.7,4.3,7.4,3.7,11
			c-0.5,3.1-2.3,5.7-5.2,7.8c-0.1,0.3-0.3,0.7-0.5,1.1c-4,7-5.5,15.1-6.6,22.7c-1.8,11.8-8.2,21.6-18.7,28.5
			c0.2,0.8,0.5,1.7,0.6,2.6c0.1,0.7,0.1,1.5,0,2.2c-0.8,5.2-4.7,7.6-8.2,7.6c0,0,0,0,0,0c-1,0-1.8-0.2-2.5-0.4c-0.1,0-0.2,0-0.3,0
			c-2.1-0.2-4.1-1.3-5.4-3c-3.8-5.1-8.2-8.9-13.4-11.6c-4.9-2.5-9.1-5.8-13.1-9.7c-1.4,2.6-2.2,4.4-2,6.2c0.2,3.6-1.3,6.3-2.2,8.1
			c-0.2,0.4-0.5,1-0.6,1.2c-1,2.9-0.5,6.3,0.1,10.2c0.4,2.5,0.8,5.1,0.9,8c0.2,10.3-2.6,18.5-8.5,25c-0.7,0.8-1.5,1.7-2.1,2.7
			c-0.6,0.9-0.7,1.4-0.7,1.5c0.1,0.1,0.3,0.3,0.7,0.6c3.1,2.2,6,4.5,8.8,6.7c4.1,3.3,8.1,6.4,12.3,9c3.8,2.3,5.1,6,6,8.4
			c0.2,0.6,0.6,1.5,0.7,1.8c1.9,2.4,3,4.9,4,7.2c0.4,0.9,0.7,1.7,1.1,2.4c0.5,1,1,1.6,1.9,2.1c5.4,3,9,8.5,9.5,14.6
			c0.5,6.4-2.3,12.6-7.4,16.5c0,0-0.4,0.3-0.5,0.4c1.4,2.5,1.2,5.6-0.5,8c3.1-0.1,6.3-0.2,9.4-0.2c0.4,0,0.7,0,1.1-0.1
			c0.7,0,1.5-0.1,2.4-0.1c8.5,0,11,5.5,11.7,7.8c1.1,3.6,1.3,10.6-8.7,16.2c-0.9,0.5-1.8,1-2.7,1.5c1.2,0.8,2.5,1.9,3.3,3.6
			c1.1,2.2,1.3,4.7,0.5,7.1c-0.1,0.4-0.2,0.8-0.3,1.2c-0.8,3-2.4,9.2-9.5,11.5l-0.4,0.1C181,343,172,346,161.9,346
			c-2.7,0-5.3-0.2-7.9-0.6c-1.2-0.2-2.6-0.3-4-0.3c-2.5,0-5.3,0.3-8.7,1C139.5,346.4,137.6,346.6,135.5,346.6z M163.8,291.5
			c-0.2,0.2-0.3,0.3-0.5,0.5c1,0,1.9-0.1,2.9-0.1C165.4,291.8,164.6,291.7,163.8,291.5z M91.9,221.4c-2,3.8-4.1,7.7-6,11.4
			c-3.3,6.2-6.8,12.6-9.9,19c-0.7,1.4-1.3,2.7-1.7,4c1.7-1.1,2.9-2.1,3.7-3.7c2.3-4.3,5.8-10.7,13.6-10.7c1.5,0,3,0.3,4.6,0.7
			c0.4-3.1,0.9-6.6,1.9-10.1c-1.6-3.2-2.7-6.3-3.7-9.5c-0.2-0.6-0.4-1.3-0.6-1.9C93.1,220.9,92.5,221.1,91.9,221.4z"/>
		<path d="M111.8,17.8c3.1,0,6.7,1.3,10.3,4.1c1.6,1.2,3,2.6,4.4,4c0.7,0.7,1.2,1,1.7,1c0.5,0,0.9-0.6,1.2-1.9
			c0.4-1.9,0.9-3.7,2.3-3.7c0.6,0,1.4,0.3,2.5,1.2c0.2,0.2,0.4,0.4,0.5,0.6c0.7,1.4-1.1,4,1.6,4.6c-2.2,0.6-2.5,2.2-2,4.1
			c0.6,2.1,1.9,2.9,3.7,2.9c0.4,0,0.7,0,1.1-0.1c0.1,1.1-0.2,2.4,1.3,2.9c1.4,1,0.6,4.1,3.1,4.1c0.2,0,0.3,0,0.5,0
			c0.2,0.1,0.3,0.1,0.5,0.1c0.8,0,1.6-0.7,2.5-0.7c0.4,0,0.8,0.2,1.2,0.8c-0.6,0.5-1.2,1.1-1.8,1.6c-0.9,0.7-2,1.4-1.6,2.8
			c0.4,1.4,1.7,1.2,2.9,1.3c1.6,0.1,3.3,0.1,4.9,0.5c1.4,0.4,3.2,1.1,2.5,3c-0.3,0.6-0.7,0.9-1.1,0.9c-0.7,0-1.6-0.6-2.3-0.8
			c-1.1-0.4-2.5-1-3.6-1c-0.7,0-1.4,0.2-1.9,0.9c-1.5,1.9-1.9,4.6,0.1,6.8c-0.4,0.3-0.7,0.6-1.1,0.9c-0.5-0.2-1-0.2-1.4-0.2
			c-1.6,0-2.5,1-2.1,3c1.1,4.5,1.2,8.9-0.3,11.2c-0.4,1.3-3.2,2.6-0.1,4c-1.7,2.6-2,5.2,1.6,6.2c3.8,1.1,7.8,1.5,11.7,2.1
			c9,1.5,20.4,8.8,19.8,19.5c-0.2,3.7,0.9,7.2,3.8,9.9c4.1,3.8,6.4,8.8,8.8,13.8c0.5,1,0.6,2.5,2,2.5c0,0,0,0,0,0
			c1.7,0,1.9-1.7,2.4-2.9c0.9-2.2,0.5-4.6,0.2-6.9c-0.6-6.5,0.1-12.6,4.5-17.8c1.2-1.5,1.8-3.5,2.5-5.4c2.6-6.9,7-12.6,12.8-16.9
			c5-3.7,4.5-7.8,3.1-12.7c-1.6-5.6-0.1-8.2,4.7-8.2c0.3,0,0.5,0,0.8,0c-1.3,2.1-5.3,3.9-0.9,6.8c1.4,1.5,3.6,1.5,5.2,2.8
			c3.2,2.6,3.8,5,0.9,8.3c-3.8,4.3-3.5,14.6,0.3,19.2c3.1,3.7,2.8,6.2-1.2,8.5c-1.3,0.7-1.2,1.9-1.7,2.8c-4.5,7.9-6.2,16.4-7.5,25.3
			c-1.6,10.8-7.8,19-17.4,24.6c-3.8,2.2-1.1,5.8-0.6,8.8c-0.1,0.9-0.4,1.2-0.8,1.2c-0.5,0-1.2-0.5-1.7-0.5c-0.2,0-0.3,0-0.4,0.2
			c-4.3-5.8-9.5-10.4-16-13.7c-7.3-3.8-12.9-9.7-18.8-16.7c-1.5,7.7-7.8,12.6-7.3,20.3c0.1,2.3-1.7,4.2-2.4,6.4
			c-2.4,7.1,0.4,13.8,0.6,20.7c0.2,7.5-1.4,14.1-6.5,19.8c-1,1.1-1.9,2.3-2.8,3.5c-3.2,4.6-2.7,9.3,1.8,12.5
			c7.3,5.2,13.8,11.3,21.5,16c2.7,1.7,2.7,5.8,4.8,8.5c1.9,2.4,2.9,5.5,4.3,8.3c1.1,2.3,2.7,4,5,5.3c7.1,3.9,7.5,13.7,1.1,18.7
			c-3.2,2.5-6.8,4.9-2.5,9.9c-3.9-2.2-8.1-2-11.9-3c-0.9-0.2-1.6-0.3-2.3-0.3c-1.3,0-2.4,0.4-3.4,1.6c-2.7,3.2-6.1,4.9-10.2,5.6
			c-0.9,0.1-2.1,0.5-1.9,1.9c0.2,0.9,0.7,1.1,1.3,1.1c0.4,0,0.8-0.1,1.1-0.2c0.9-0.3,1.7-0.4,2.5-0.4c2.6,0,4.3,1.6,5.5,4.3
			c0.7,1.7,1.9,2,3.1,2c0.6,0,1.3-0.1,1.9-0.1c10-0.3,20-0.7,29.9-0.8c1,0,2.2-0.1,3.4-0.1c2,0,3.9,0.4,4.5,2.4
			c1,3.4-2.2,5.9-5.2,7.6c-5,2.8-10,5.8-15.3,9c2.4,2.6,5.8,2.4,8.4,3.9c1.7,1,5.4,1,4.6,3.5c-0.9,2.8-1.1,6.7-5,8
			c-8.5,2.8-17,5.5-25.9,5.5c-2.2,0-4.4-0.2-6.7-0.5c-1.7-0.3-3.5-0.4-5.2-0.4c-3.4,0-6.8,0.5-10.2,1.2c-1.5,0.3-2.9,0.4-4.4,0.4
			c-5.2,0-10.2-1.6-15.3-2.1c-3.7-0.4-7.3-0.8-11-0.8c-0.1,0-0.2,0-0.3,0c-0.2,0-0.3,0-0.5,0c-5,0-10.1-0.5-14.3-2.8
			c-18.4-10.1-38.5-13.3-58.8-16c-5-0.7-9.8-1.8-14.7-2.8c-2.3-0.5-2.5-1.2-1.6-3.3c1.3-3.2,3.3-5.7,5.8-8
			c4.9-4.5,9.8-9.1,14.7-13.5c1.7-1.5,2.4-2.7,1.4-5.1c-1.7-4-0.9-7.5,2.7-10.7c5.9-5.2,6.1-13,7.8-20c0.6-2.6,0.9-4.8,3.4-6.6
			c3.5-2.6,4.6-6.9,5.8-10.8c0.5-1.5,0-3.7-2-3.7c-0.3,0-0.7,0.1-1.1,0.2c-0.9,0.3-1.5,0.4-2,0.4c-1.8,0-1.2-1.6-0.6-3.5
			c0.6-1.7,2.1-3.1,1.2-5.2c-0.2-0.1-0.4-0.2-0.6-0.2c-1.1,0-1.8,2.1-2.8,2.1c-0.3,0-0.7-0.2-1.2-0.9c-1.1-1.7,0.4-3,1.7-4.1
			c2.3-2.3,2.2-5.3,2.2-8.2c0-1,0.1-2.3-1.2-2.3c0,0,0,0,0,0c-1.4,0-1.8,1.2-1.8,2.4c-0.6,0-1.3,0-1.9,0c0.3-1.3,0.6-2.7,0.9-4
			c1-3.6,2.1-7.2,3.1-10.8c1.1-1.1,1.3-2.4,0.1-3.3c-0.2-0.2-0.4-0.2-0.6-0.2c-0.7,0-1.2,0.8-1.5,1.5l0,0c0,0,0,0,0,0
			c-2.2,0-2.4-1.4-2.1-3.1c5.5-0.8,4-6.2,5.9-9.4c0.5-0.9-0.2-1.6-1.2-1.6c-0.2,0-0.3,0-0.5,0.1c-0.4,0.1-0.9,0.2-1.3,0.2
			c-0.9,0-1.6-0.4-1.7-1.7c-0.1-1.4,0.8-2.4,2.2-2.4c0.1,0,0.3,0,0.4,0c0.4,0,0.7,0.1,1,0.1c1.4,0,1.4-0.7,0.7-2.4
			c-0.7-1.8,2.2-1.7,2.6-3.3c-0.2-0.3-0.5-0.7-0.8-1c-1-0.9-3.5,0.1-3.2-2.2c0.2-1.2,1.1-1.3,2.1-1.3c0.4,0,0.7,0,1.1,0
			c0,0,0.1,0,0.1,0c2.7,0,0.8-1.2,0.5-2c0.2-1.8-0.3-4,2.1-4.9c0.9,0.4,1.7,0.7,2.2,0.7c0.8,0,0.9-0.7-0.2-2.7
			c-0.7-1.2-1.3-2.6,0.4-3.4c0.3-0.1,0.5-0.2,0.7-0.2c0.9,0,1.4,1,1.8,1.9c0.4,0.9,0.9,1.6,1.7,1.6c0.3,0,0.6-0.1,0.9-0.3
			c1.2-0.8,0.6-2.1-0.1-3.1c-0.7-1.1-1.8-2.2-0.5-3.5c0.7-0.7,1.6-1,2.5-1c0.6,0,1.1,0.1,1.7,0.5c0.6,0.3,1,0.5,1.4,0.5
			c0.6,0,0.9-0.5,1.3-1.7c0.6-2.3,1.8-3.6,3.6-3.6c0.8,0,1.7,0.3,2.8,0.8c0.6,0.3,1.4,0.6,2.1,0.6c0.6,0,1.2-0.2,1.6-0.8
			c1-1.6-0.9-2.2-1.7-3c-0.6-0.6-1.3-1.1-1.9-1.6c-1-1-1.9-2-0.9-3.4c0.5-0.8,1.1-1.1,1.7-1.1c0.7,0,1.4,0.4,2.1,0.9
			c0.8,0.6,1.6,1.1,3.5,2.4c-2.1-4.8,0.5-7.9,1.4-11.3c1.5-5.9,0.9-11.1-1.9-16.6c-4.2-8.4-2.4-16.4,3.1-23.7c1-1.3,1.9-2.7,2.9-4h0
			c2.9-0.7,3.1-3.1,3.4-5.3c0.3-2.1,3.4-5.2,1-6c-0.3-0.1-0.6-0.2-0.8-0.2c-2,0-1.5,3.7-2.7,5.3c-0.9,0.3-1.4,1.6-2.4,1.6
			c-0.3,0-0.6-0.1-0.9-0.3c-1.1-0.8-1.1-2-1-3.2c0.2-4.3,2.5-7.8,4.4-11.5c0.6-1.1,2.2-2.2,0.6-3.4c-1.4-1-3.2-2-4.9-2.2
			c-0.1,0-0.2,0-0.2,0c-1.5,0-1.4,1.8-1.5,3c-0.1,0.9,0.2,2.4-1.1,2.4c-0.1,0-0.3,0-0.4,0c-1.3-0.2-1.9-1.6-1.7-2.7
			c1.9-8.6-5.5-11.1-10-15.3c-1.9-1.7-4.2-2.6-6.5-2.6c-1.8,0-3.8,0.5-5.6,1.5c-4,2.2-5.8,5.7-5.6,10.3c0.1,1.1,1.1,3-1,3.2
			c-0.1,0-0.1,0-0.2,0c-1.3,0-2-1.5-2.5-2.7C50,53,55.4,43.9,61.8,42.4c1.3-0.3,2.5-0.4,3.7-0.4c3.9,0,7.3,1.6,10.4,4.1
			c2.3,1.9,4.3,4.2,6.6,6c1.2,1,2.3,3.1,3.7,3.1c0.3,0,0.6-0.1,0.9-0.3c2-1.4,4.7-2.4,5.4-5.8c1.2-5.9,6.8-7.6,11.7-9.5
			c1.8-1.7,1.2-5,4-6c0.1,0,0.2,0,0.3,0c1.4,0,2.9,0.6,4.4,0.6c1,0,2-0.3,2.8-1.5c1.6-2.4,0.9-5.1-0.2-7.6c-0.6-1.4-1.4-2-2.2-2
			c-0.8,0-1.6,0.5-2.3,1.5c-1.6,2.1-2.6,4.6-3.9,6.9c-1.3,1.4-2.6,2.7-3.9,4.1c-4-0.1-4-2.7-3.3-5.5
			C101.8,22.1,106.2,17.8,111.8,17.8 M115.2,38.4c0.2-0.3,0.7-0.6,0.7-0.9c0.1-0.7-0.4-1.2-1.1-1.2c0,0,0,0,0,0
			c-0.3,0-0.9,0.5-0.9,0.9C113.8,37.8,114.2,38.3,115.2,38.4 M111.1,42.4c0.7,0,1.2-0.7,1.1-1.4c-0.1-1.9-1.1-3.4-2.9-4.1
			c0,0-0.1,0-0.1,0c-1.3,0-2,0.7-2.1,1.7c-0.1,2.2,1.8,2.9,3.5,3.7C110.8,42.4,111,42.4,111.1,42.4 M100.1,50.3c1.1,0,2-0.7,3-0.7
			c0.1,0,0.3,0,0.4,0.1c0.4,0.1,0.9,0.2,1.4,0.2c0.6,0,1.1-0.3,1.3-1.3c0.2-1.3,0-2.7-1-3.7c-0.3-0.3-0.7-0.5-1-0.5
			c-0.7,0-1.3,0.9-1.8,1.4c-1.2,1.2-3.1,1.9-3.8,3.9C99.1,50.1,99.6,50.3,100.1,50.3 M96.7,60.9c0.8,0,1.7-0.1,2.5-0.4
			c1.2-0.4,2.7-1.1,2.1-2.5c-0.2-0.4-0.4-0.5-0.8-0.5c-0.7,0-1.5,0.6-2.2,0.9c-0.5-0.6-0.5-1.2,0.1-1.8c2-0.7,4.1-1.4,7.4-2.6
			c-2-0.3-3.7-0.6-5.1-0.6c-1.3,0-2.4,0.3-3.5,1.1c-2,1.2-6.3,1.3-5.6,3.6C92.1,59.8,94.3,60.9,96.7,60.9 M97.9,71.6
			c0.3-0.4,0.8-0.7,0.8-1c0-0.3-0.5-0.8-0.9-0.8c-0.1,0-0.1,0-0.2,0c-0.6,0-1.1,0.3-0.9,1C96.8,71.1,97.4,71.3,97.9,71.6
			 M64.1,186.3c2,0,1.4-1.8,1.7-2.8c0.8-2.5-1.1-3.1-2.8-3.8c-0.3-0.1-0.6-0.2-0.9-0.2c-0.7,0-1.3,0.4-1,1.4
			c0.6,1.9,0.2,4.5,2.8,5.4C64.1,186.3,64.1,186.3,64.1,186.3 M62.5,192.4c0.9,0,1.7-0.5,2.4-1.5c-0.7-0.3-1.3-0.5-1.9-0.5
			c-1,0-1.9,0.4-3,1.1C60.9,192.1,61.8,192.4,62.5,192.4 M59.4,212.7c0.9,0,1.7-0.8,2.1-2c0.8-4.4,2.1-8.8-0.5-13c0,0,0,0,0,0l0,0
			c0,0,0,0,0,0c0,0,0.2-0.2,0.2-0.2l-0.2,0.2c-0.6-1.5-1.3-2.1-1.9-2.1c-0.7,0-1.3,0.9-1.7,2.3c-0.7,2.8-0.7,5.9,1.6,8.4
			c0,0,0,0,0,0c-2.8,1.6-2.4,4-0.9,5.8C58.5,212.5,59,212.7,59.4,212.7 M67.8,267.5c0.4,0,0.9-0.2,1.5-0.5c5.2-3.4,11.7-5,15.2-11.4
			c2.6-4.8,4.3-6.8,7-6.8c1.8,0,4.1,0.8,7.4,2.2c0.9,0.4,1.5,0.6,2,0.6c0.9,0,1.4-0.6,1.7-2.2c1.1-5.9,1.1-12.1,3.5-17.8
			c0.1-0.3,0-0.7-0.2-1c-4.1-6.3-4.7-14.1-8.9-21.1c-2.6,2.3-5.3,3.9-8.3,4.9c-1.2,0.4-2.3,0.9-3,2.3c-5.5,10.5-11.3,20.9-16.6,31.6
			c-2.2,4.4-3.8,9.2-3.7,14.2C65.5,264.5,66,267.5,67.8,267.5 M62,229.3c0.8-0.1,1.1-0.7,1.1-1.4c0-0.6-0.4-1-0.8-1
			c-0.1,0-0.3,0-0.4,0.1c-0.5,0.2-1,0.8-1.1,1.4C60.6,229.2,61.3,229.3,62,229.3 M127.9,236.1c0.3,0,0.7-0.3,1.3-0.5
			c-0.7-0.5-1-0.8-1.4-0.9c0,0-0.1,0-0.1,0c-0.2,0-0.5,0.2-0.8,0.3c0.2,0.4,0.4,0.9,0.8,1.1C127.8,236.1,127.8,236.1,127.9,236.1
			 M142.2,252.1c0.8,0,1.6-0.1,2.5-0.4c1.3,0,2.1,0,2.7,0c0.4,0,0.7,0,1,0c0.1,0,0.2,0,0.3,0c0.7,0,1.6,0.3,2.3,0.3
			c0.7,0,1.4-0.3,1.6-1.3c0.4-1.7-0.1-3.8-1.8-4.8c-3.6-2.2-6.1-5.6-9.3-8.2c-0.6-0.5-1.2-1.6-1.9-1.6c-0.3,0-0.5,0.1-0.8,0.5
			c-0.8,1.1-1.4,1.5-1.9,1.5c-1,0-1.5-1.6-2.2-2.5c-0.5-0.6-1.4-0.8-1.9-0.8c-0.3,0-0.4,0.1-0.4,0.2c1.1,2.6-2.1,5.2-0.6,7
			C135,245.8,136.8,252.1,142.2,252.1 M109.5,250.5c0.6,0,1.3-0.4,1.7-1c5.4-1.5-0.9-3.6,0.3-5.5c0.4-0.7-0.2-1.7-1.2-1.7
			c-0.2,0-0.3,0-0.5,0.1c-1.3,0.4-0.8,1.6-0.7,2.5c-0.7,1.7-2,3.5-0.4,5.3C109,250.4,109.3,250.5,109.5,250.5 M61.6,273.5
			c1-0.1,1.6-0.6,1.6-1.5c0-0.9-0.6-1.5-1.5-1.5c0,0-0.1,0-0.1,0c-0.7,0-1.2,0.5-1.3,1.3C60.2,272.7,60.6,273.3,61.6,273.5
			 M45.2,284.4c0.9,0,1.6-1.4,2.3-1.8c1.2-0.7,2.4-1,3.7-1.3c5.6-1.4,5.7-1.8,2.8-6.6c-0.3-0.6-0.6-1.2-1.3-2.4
			c-2.4,3.1-5.4,4.6-7.9,6.8c-1.3,1.2-1.9,3.1-0.8,4.6C44.5,284.2,44.9,284.4,45.2,284.4 M111.8,2.8C111.8,2.8,111.8,2.8,111.8,2.8
			c-10.1,0-22.3,6.2-26.5,23.6c-0.6,2.5-0.8,4.9-0.7,7.2c0,0-0.1,0.1-0.1,0.1c-5.9-4.5-12.3-6.8-19-6.8c-2.3,0-4.7,0.3-7.1,0.8
			c-7.7,1.8-14.6,7.6-18.5,15.5c-3.6,7.2-3.9,15.1-1,21.6L39,65c4.4,9.9,12,11.4,16.1,11.4c0.5,0,0.9,0,1.4-0.1
			c4.9-0.4,9.1-2.7,11.9-6.5c0.4-0.5,0.7-1,1-1.5c0.5,2.1,1.3,4.2,2.5,6c0.6,0.9,1.3,1.8,2.1,2.6c0,0.3,0,0.7-0.1,1
			c-0.1,2.9,0.2,5.4,0.9,7.5c-7.1,11.5-7.8,24-1.9,35.7c0.8,1.7,1.2,3,1,4.5c-2.6,1.3-4.9,3.2-6.7,5.8c-1.2,1.8-2.2,3.9-2.7,6.1
			c-2.8,0.8-5.3,2.3-7.5,4.3c-0.4,0.3-0.7,0.7-1.1,1.1c-4.1,2-7.1,5.3-8.5,9.5c-0.1,0.3-0.2,0.5-0.2,0.8c-1.1,1.3-2,2.9-2.7,4.9
			c-2.9,2.7-4.6,6.3-5,9.7c-0.2,1.2-0.2,2.3-0.1,3.5c-2,3-3,6.6-2.9,10.4c0.1,1.5,0.3,3,0.7,4.3c-0.9,1.5-1.5,3.3-1.8,5.1
			c-0.8,5.3,0.3,9.3,2,12.1l-0.6,1.9c-0.1,0.3-0.2,0.7-0.3,1l-0.1,0.6l-0.7,3.4c-0.7,3.3-0.3,6.6,1.1,9.6c-1.3,4.7-0.6,9.8,2.2,14.1
			c0.1,0.2,0.3,0.5,0.5,0.7c0.2,1.7,0.7,3.5,1.7,5.3c-2.9,3.8-3.8,7.7-4.3,10.1l-0.1,0.5c-0.4,1.7-0.7,3.3-1,4.8
			c-0.6,2.9-1.2,6.5-2.1,7.3c-6.1,5.4-9.1,12.5-8.5,19.8c-1.7,1.6-3.4,3.2-5.1,4.7c-1.8,1.6-3.5,3.3-5.3,4.9
			c-4.3,3.9-7.4,8.3-9.5,13.4c-2.2,5.4-2.2,10.4,0.2,15c1.6,3.1,5,7.2,12,8.7l1,0.2c4.8,1.1,9.7,2.2,15,2.9
			c19.9,2.6,37.6,5.5,53.6,14.3c7.7,4.2,16,4.7,21.5,4.7l0.6,0l0.2,0c2.6,0,5.5,0.3,8.6,0.7l0.8,0.1c1.4,0.2,3.1,0.5,4.8,0.8
			c3.6,0.7,7.6,1.4,12.2,1.4c2.5,0,5-0.2,7.4-0.7c2.8-0.6,5.2-0.9,7.2-0.9c1,0,1.9,0.1,2.8,0.2c3,0.5,6,0.7,9.1,0.7
			c11.2,0,21.3-3.3,30.2-6.2l0.4-0.1c11-3.6,13.6-13.5,14.4-16.7c0.1-0.3,0.2-0.7,0.2-0.8c1.2-3.6,1.2-7.5-0.1-11
			c1.5-1.1,2.7-2.4,3.8-3.7c4.4-5.2,5.8-11.9,4-18.3c-1.9-6.4-7.8-13.2-18.9-13.2c-0.8,0-1.5,0-2.2,0.1c3.7-5.1,5.5-11.3,5-17.7
			c-0.7-8.4-5.3-15.8-12.5-20.1c-0.2-0.4-0.4-0.9-0.6-1.4c-1-2.2-2.3-5.1-4.4-8c-0.1-0.2-0.1-0.4-0.2-0.5c-1-2.8-3.1-8.6-9.2-12.3
			c-3.8-2.4-7.6-5.3-11.5-8.5c-1.2-1-2.5-2-3.7-3c6-7.6,8.7-16.7,8.5-27.9c-0.1-3.3-0.5-6.3-0.9-8.9c-0.4-2.6-0.8-5.1-0.5-6.4
			c0.1-0.1,0.1-0.2,0.2-0.3c0.6-1,1.4-2.6,2.1-4.6c1.7,1.1,3.4,2.2,5.3,3.1c4.2,2.2,7.7,5.2,10.8,9.4c2.5,3.3,6.2,5.5,10.4,6
			c1.1,0.3,2.4,0.5,3.8,0.5c8,0,14.5-5.8,15.6-14c0.1-0.9,0.2-1.7,0.1-2.6c9.9-7.8,16-18.3,17.9-30.7c1.3-8.4,2.7-14.7,5.7-20
			c4.5-3.8,6.1-8.1,6.7-11.4c0.7-3.9,0.4-9.9-4.7-16.4c-0.1-0.5-0.1-1.1-0.1-1.6c4.2-5.4,4.8-10.6,4.5-14.2c-0.4-5-2.8-9.5-7-13.4
			c-0.1-2-0.7-4-1.6-5.8c-2.4-4.7-7.2-7.8-12.5-8.1c-0.6,0-1.1,0-1.6,0c-9.4,0-14.4,4.8-16.6,7.7c-2.6,3.5-5.1,9.4-2.9,18.3
			c-6.1,5.1-10.9,11.6-14.1,18.8c-1.9-3.6-4.6-6.9-8-9.8c-5.6-4.8-13.1-8.3-20.4-9.6c0.1-0.8,0.1-1.5,0.1-2.4
			c0.5-0.5,0.9-1.1,1.3-1.6c4.5-1.4,8.3-4.7,10.2-9.3c1.9-4.6,1.8-9.7-0.3-14c-1.1-2.2-3.1-4.9-6.5-7c-0.3-0.7-0.7-1.4-1.1-2.1
			c-2.2-3.4-5.4-5.8-9-7c-0.2-0.4-0.5-0.7-0.7-1c-0.2-1.7-0.8-3.4-1.6-4.9c-0.3-1.4-0.7-2.9-1.5-4.5c-0.6-1.2-1.4-2.3-2.3-3.3
			c-0.2-0.2-0.4-0.5-0.7-0.7c-0.5-0.5-1-1-1.6-1.4c-3.7-2.9-7.7-4.4-11.8-4.4c-0.8,0-2.6,0.1-4.9,0.8C122,4.3,116.8,2.8,111.8,2.8
			L111.8,2.8L111.8,2.8z"/>
	</g>
</g>
</svg>
