<?xml version="1.0" encoding="utf-8"?>
<!-- Generator: Adobe Illustrator 24.1.0, SVG Export Plug-In . SVG Version: 6.00 Build 0)  -->
<svg version="1.1" id="Livello_1" xmlns="http://www.w3.org/2000/svg" xmlns:xlink="http://www.w3.org/1999/xlink" x="0px" y="0px"
	 viewBox="0 0 167.4 238.9" style="enable-background:new 0 0 167.4 238.9;" width="50" height="50" xml:space="preserve">
<style type="text/css">

		.Stile_x0020_grafica{fill:#FEFEFE;stroke:#000000;stroke-width:15;stroke-linecap:round;stroke-linejoin:round;stroke-miterlimit:10;}
	.st0{fill:#FEFEFE;}
</style>
<g>
	<path class="st0" d="M64,229.1c-2.1,0-6.1-0.7-9.1-5.1c-1.1-1.7-2.2-1.9-7.4-2.1l-1,0c-11.1-0.3-15.5-4.9-15.2-16
		c0.1-5.3-1.7-7.2-4.7-8.5c-5.4-2.4-9-6.7-11.4-10.1c-0.8-1.1-1.3-2.5-1.4-3.8l0-0.6c-0.2-0.7-0.4-1.3-0.6-1.8
		c-0.1-0.2-0.1-0.5-0.2-0.7c-0.8-0.8-1.4-1.7-1.8-2.7c-1.7-4.5-0.4-9.2,3.4-11.9c0.9-0.6,1.7-1.2,2.6-1.8c6.9-5,14.7-10.6,24.9-12
		c-0.6-2.7-1.6-3.4-3.7-4c-9.3-3-16.4-8.2-21.1-15.4c-2.9-4.5-3.6-9.9-1.8-14.5c1.5-3.8,4.5-6.6,8.3-7.9c-1.7-4.4-2.2-9.2-1.4-14.5
		c0.9-6.2,2-13.2,4.4-20.4c1.4-4,0.7-9.3,0.1-14.8c-0.3-2.1-0.5-4.2-0.7-6.3c-0.5-6.5-0.8-13-1.1-19.4c-0.1-1.9-0.2-3.9-0.3-5.8
		c-0.1-1.8,0.2-3.6,0.7-5.3c0.1-0.2,0.1-0.5,0.2-0.7c0.6-2.1,2-7.6,8.1-9c0.7-0.2,1.4-0.2,2.1-0.2c4.9,0,7.4,3.7,8.2,4.9
		c0,0,0.1,0.1,0.1,0.1c0.8,0.8,1.5,1.7,1.9,2.8c0.2,0.6,0.5,1.2,0.7,1.8c0.1,0.4,0.3,0.7,0.4,1l0.3-0.1c0.9-0.3,1.8-0.5,2.7-0.5
		c0.2,0,0.3,0,0.5,0c0-0.9-0.1-1.6-0.4-2.3c-0.3-0.8-0.4-1.7-0.4-2.5c0-7.6,5.2-9.7,8.3-9.7c4,0,6.5,2.9,7.3,3.8
		c2.9,3.4,6.9,8.6,7,15.3c0,1.8,0.6,3.1,2,4.7c7,7.7,5.5,17.1,5,20.1c-0.1,0.4-0.2,0.9-0.3,1.3c0.6,1.6,1.7,4.2,1.3,7.5
		c-0.2,1.1-0.6,2.2-1.2,3.1c-0.1,0.3-0.3,0.6-0.4,0.9c3.2,1.5,5.5,4.1,6.7,7.5c0.3,1,1.3,1.8,3.8,3.3c1,0.6,2.1,1.2,3.1,1.8
		c6.4,3.7,13.1,7.5,18.6,13.6c5.9,6.6,10.4,14.3,13.4,22.9c0.4,1.1,0.8,2.1,1.2,3.2c1.6,4.2,3.4,8.9,3.4,14.6c0,4.9-1,9.3-1.9,13.5
		c-0.5,2.3-1,4.4-1.3,6.5c8.3,3.8,18.5,9.2,27,17.9l0.5,0.5c1.8,1.8,5.4,5.4,4.8,11.3c0.1,0.4,0.3,0.8,0.4,1.3c0.8,2.7,0,5.5-2,7.4
		l-1.3,1.2c-1.4,1.4-3.3,2.1-5.2,2.1c-0.1,0-0.2,0-0.3,0c-1.1-0.1-2.2-0.4-3.2-0.9c-0.6,0.4-1.1,0.7-1.7,1.1c0.3,0.3,0.7,0.7,1,1
		c4.8,4.8,4.8,9,3.9,11.7c-0.9,2.7-3.2,6.1-9.7,7.2c-10.1,1.7-19.2,3.2-28.7,4.1c-3.3,0.3-6.8,0.8-10.1,1.2
		c-7.2,0.9-14.6,1.8-22.2,1.8c-1.2,0-2.4,0-3.6-0.1c-0.2,0.2-0.3,0.4-0.5,0.6c-0.2,0.3-0.4,0.6-0.6,0.8
		C71.4,227,67.8,229.1,64,229.1z"/>
	<path d="M58,16.5c0.4,0,0.9,0.4,1.7,1.2c2.7,3,5,6.5,5.1,10.5c0.1,4,1.5,6.9,4,9.6c3.7,4.1,4,8.9,3.2,13.9
		c-2.1,3.2,1.3,5.8,0.9,8.9c-0.6,0.2-0.9,0.6-0.7,1.2c-1.3,3-5,2.5-6.9,4.6c-0.6,0.7-1.8,1-1.6,2.2c0.2,1.1,1.3,0.8,2,1
		c2.3,0.8,4.6,1.8,7.1,2.1c2.4,0.3,4.6,1.3,5.4,3.8c1.2,3.6,4,5.5,7.1,7.3c7,4.1,14.4,7.8,19.9,14c5.3,5.9,9.2,12.8,11.9,20.3
		c1.7,5,4.2,9.8,4.2,15.3c0,7.2-2.7,14-3.3,21.1c-0.3,2.9,0.7,4,2.7,4.9c9.8,4.3,19,9.4,26.6,17.2c2,2.1,3.8,3.5,3,6.6
		c-0.2,0.9,0.5,2.2,0.9,3.3c-0.4,0.4-0.9,0.8-1.3,1.2c-1.1-1.3-2.1-1.9-3.3-1.9c-1,0-2.1,0.5-3.4,1.4c-2.6,2-5.6,3.6-8.5,5.1
		c-2,1.1-2.5,1.7-0.4,3.4c2.2,1.7,4.1,3.9,6,5.9c3.3,3.3,2.9,5.5-1.8,6.3c-9.3,1.6-18.7,3.2-28.1,4.1c-10.5,1-21,3-31.6,3
		c-1.4,0-2.8,0-4.2-0.1c-0.1,0-0.3,0-0.4,0c-3.3,0-4.6,2.4-6.2,4.5c-1.3,1.7-2.8,2.8-4.2,2.8c-1,0-2.1-0.6-3-1.9
		c-3.7-5.4-9-5.2-14.4-5.3c-7-0.2-8.1-1.4-7.9-8.3c0.2-7.1-2.4-12.5-9.1-15.5c-3.6-1.6-6.1-4.5-8.4-7.6c0-0.6-0.1-1.2-0.1-1.8
		c-1-2-1-4.6-2.9-6.2c-0.5-1.2-0.4-2.3,0.7-3.1c8.1-5.7,16-12.2,26.5-12.8c4.4-0.2,4.7-2.6,4.3-6c-0.6-6-2.6-10.4-9.2-12.4
		c-6.8-2.2-13-6-17.1-12.3c-3.1-4.8-1.5-10.3,3.2-11.4c0.5-0.1,1.1-0.3,1.7-0.3c0.6,0,1.1,0.2,1.5,0.8c0.7,1-0.5,1.9-1.1,2.5
		c-4,3.8-2,6.8,1.3,9.6c1,0.9,2.1,1.6,3.3,2.2c3.1,1.5,6.2,2.9,9.3,4.3c0.3-0.6,0.6-1,0.5-1.1c-4.2-7.7-5.5-16.6-10.6-24
		c-2.9-4.2-3.7-9-2.9-14.3c1-6.5,1.9-12.7,4.1-19.1c2.5-7.5,0.4-16-0.2-24.1c-0.6-8.3-1-16.7-1.4-25c0-0.8,0.1-1.7,0.3-2.5
		c0.6-1.8,0.8-4.3,2.9-4.8c0.1,0,0.3,0,0.4,0c1.5,0,2,2.2,3.2,3c0.7,1.8,1.4,3.7,2.2,5.5c1,2.1,2.2,3.4,3.9,3.4c0.9,0,1.9-0.4,3-1.2
		c0.7-0.3,1.3-0.5,2-0.8c1,0.7,2,1.1,3,1.1c0.9,0,1.7-0.3,2.6-0.9c0.1,0,0.2-0.1,0.3-0.2c2-3.9,2.8-7.9,1.3-12.2
		C57.3,17.3,57.5,16.5,58,16.5 M58.7,157.3c1.8,0,2.5-1.2,2-3.5c-0.8-1.4,0.9-5-2.3-5.2c0,0,0,0-0.1,0c-1.7,0-2,3-2.1,5
		c-0.1,1.7,0.1,3.6,2.4,3.7C58.6,157.3,58.6,157.3,58.7,157.3 M69.5,156.2c0.2,0,0.5,0,0.8-0.1c1.3-0.5,3.9,0.4,4-1.5
		c0.1-2-2.1-3.2-4.1-3.6c-0.2-0.1-0.5-0.1-0.7-0.1c-1.5,0-1.8,1.4-2,2.7C67.3,155.3,68,156.2,69.5,156.2 M58,1.5
		C53,1.5,47.9,4,44.9,8.8C41.6,6.6,38.3,6,35.7,6c-1.3,0-2.5,0.1-3.8,0.4C27.1,7.5,23,10.6,20.5,15c-1.3,2.3-1.9,4.5-2.3,5.8
		c0,0.1-0.1,0.2-0.1,0.3c-0.9,2.5-1.2,5.3-1.1,8c0.1,1.9,0.2,3.9,0.3,5.8c0.3,6.4,0.6,13,1.1,19.6c0.2,2.3,0.4,4.5,0.7,6.7
		c0.5,4.5,1.1,9.1,0.3,11.5c-2.6,7.8-3.7,15.2-4.7,21.7c-0.6,4.1-0.6,8.1,0.1,11.9c-2.9,2.3-5.1,5.3-6.5,8.9
		c-2.7,6.8-1.7,14.8,2.5,21.3c3.5,5.4,8.2,9.9,13.9,13.4c-4.5,2.4-8.5,5.3-12.1,7.9c-0.8,0.6-1.7,1.2-2.5,1.8
		c-6.6,4.6-9,12.9-6.1,20.7c0.5,1.3,1.2,2.6,2,3.7c0,0.1,0.1,0.3,0.1,0.4c0.3,2.6,1.2,5.1,2.7,7.3c3,4.2,7.3,9.4,14.4,12.6
		c0.1,0,0.2,0.1,0.2,0.1c0,0.3,0.1,0.7,0.1,1.4c-0.1,3.7-0.2,11.4,5.4,17.3c5.7,6,13.4,6.2,17.1,6.3l1.1,0c0.7,0,1.6,0,2.4,0.1
		c3.6,4.5,8.8,7.1,14.4,7.1c5.6,0,10.9-2.6,15-7.3c8,0,15.7-1,23.1-1.9c3.4-0.4,6.7-0.8,9.9-1.1c9.7-0.9,19.4-2.5,29.2-4.2
		c10.7-1.8,14.4-8.5,15.6-12.3c0.7-2.2,1.3-5.6,0.2-9.5c1.2-0.7,2.4-1.5,3.4-2.5l0.6-0.6l0.6-0.6c4-3.9,5.5-9.6,3.9-14.9
		c0-0.1,0-0.1-0.1-0.2c0.2-8.4-5.1-13.7-7.1-15.6c-0.1-0.1-0.3-0.3-0.4-0.4c-7.6-7.7-16.2-13-23.9-16.9c0-0.2,0.1-0.4,0.1-0.7
		c1-4.4,2.1-9.4,2.1-15.1c0-7.1-2.2-12.7-3.9-17.3c-0.4-1-0.8-2-1.1-2.9c-3.3-9.6-8.3-18.1-14.9-25.4c-6.3-7-13.8-11.3-20.4-15.1
		c-1-0.6-2.1-1.2-3.1-1.8c-0.5-0.3-0.8-0.5-1-0.6c-1-2.4-2.5-4.5-4.2-6.3c0-0.1,0-0.2,0-0.3c0.5-3.7-0.2-6.8-0.9-9.1
		c1.5-10.4-0.8-19.1-7-25.9c0,0-0.1-0.1-0.1-0.1c-0.2-9-5.1-15.6-8.8-19.8C67.3,3.7,62.9,1.5,58,1.5L58,1.5z"/>
</g>
</svg>
