<?xml version="1.0" standalone="no"?>
<!DOCTYPE svg PUBLIC "-//W3C//DTD SVG 20010904//EN"
 "http://www.w3.org/TR/2001/REC-SVG-20010904/DTD/svg10.dtd">
<svg version="1.0" xmlns="http://www.w3.org/2000/svg"
 width="529.121319pt" height="850.000000pt" viewBox="0 0 529.121319 850.000000"
 preserveAspectRatio="xMidYMid meet">
<metadata>
Created by potrace 1.16, written by Peter Selinger 2001-2019
</metadata>
<g transform="translate(-250.878681,890.000000) scale(0.100000,-0.100000)"
fill="#FEFEFE" stroke="none">
<path d="M4450 8700 l-195 -199 -53 0 -52 -1 -375 -375 -375 -375 0 -54 c0
-53 -1 -55 -50 -96 l-50 -42 0 -108 0 -108 50 -42 c49 -41 50 -42 50 -100 0
-58 1 -59 50 -100 l50 -42 0 -208 0 -208 -50 -42 -50 -42 0 -358 0 -358 50
-42 50 -42 0 -158 0 -158 50 -42 50 -42 0 -105 0 -105 74 -74 74 -74 202 0
c120 0 209 -4 221 -10 12 -7 19 -21 19 -38 0 -22 -10 -35 -45 -60 l-45 -32 0
-159 0 -159 -50 -42 -50 -42 0 -108 0 -108 -50 -42 -50 -42 0 -208 0 -208 -50
-42 -50 -42 0 -308 0 -308 -50 -42 -50 -42 0 -108 0 -108 -50 -42 c-49 -41
-50 -42 -50 -100 0 -58 -1 -59 -50 -100 l-50 -42 0 -108 0 -108 -50 -42 c-49
-41 -50 -42 -50 -100 0 -58 -1 -59 -50 -100 -50 -42 -50 -42 -50 -101 0 -59 0
-60 45 -91 35 -25 45 -38 45 -60 0 -17 -7 -31 -19 -38 -12 -6 -132 -10 -321
-10 l-302 0 -74 -74 -74 -74 0 -306 0 -306 -45 -32 c-55 -39 -61 -75 -17 -103
15 -10 68 -60 118 -112 l91 -93 155 0 156 0 42 -50 42 -50 259 0 259 0 32 -45
c22 -30 39 -45 54 -45 22 0 54 24 54 40 0 16 32 40 54 40 15 0 32 -15 54 -45
l32 -45 459 0 459 0 42 50 42 50 108 0 108 0 42 50 42 50 508 0 508 0 42 -50
42 -50 158 0 158 0 42 50 42 50 155 0 155 0 74 74 74 74 0 255 0 255 50 42 50
42 0 105 0 105 -74 74 -74 74 -256 0 -256 0 -32 45 c-41 58 -65 59 -108 5 -35
-44 -72 -53 -90 -21 -5 11 -10 44 -10 74 0 54 1 56 50 97 l50 42 0 106 0 105
-100 97 -100 97 0 105 0 106 -50 42 c-49 41 -50 42 -50 100 0 58 -1 59 -50
100 -49 41 -50 42 -50 100 0 58 -1 59 -50 100 l-50 42 0 108 0 108 -50 42 -50
42 0 108 0 108 50 42 50 42 0 209 c0 196 1 210 20 229 15 15 33 20 76 20 l56
0 74 74 74 74 0 55 c0 54 1 56 50 97 l50 42 0 108 0 108 50 42 50 42 0 209 c0
196 1 210 20 229 19 19 33 20 279 20 l259 0 42 50 c42 50 42 50 101 50 79 0
99 19 99 96 l0 56 74 74 74 74 55 0 c54 0 56 1 97 50 42 50 42 50 101 50 90 0
99 13 99 150 0 137 -9 150 -99 150 -59 0 -59 0 -101 50 l-42 50 -158 0 -158 0
-42 50 c-41 49 -42 50 -100 50 -58 0 -59 -1 -100 -50 l-42 -50 -359 0 c-435 0
-399 -13 -399 147 l0 106 -100 97 -100 97 0 255 0 256 -50 42 -50 42 0 108 0
108 -50 42 -50 42 0 106 0 105 -100 97 -100 97 0 52 0 53 -200 198 -200 198 0
105 0 105 -50 42 c-49 41 -50 43 -50 97 l0 55 -74 74 -74 74 -154 -1 -153 0
-195 -199z m334 -419 c25 -28 12 -57 -35 -81 -25 -13 -44 -32 -53 -54 -10 -24
-24 -37 -49 -45 -19 -7 -38 -19 -41 -27 -3 -9 -6 -154 -6 -324 l0 -308 -50
-42 c-50 -42 -50 -42 -50 -101 0 -90 -13 -99 -145 -99 l-106 0 -124 125 -125
124 0 56 c0 42 5 60 20 75 15 15 33 20 75 20 l56 0 124 125 125 124 0 55 c0
52 2 56 43 90 24 19 49 47 57 61 7 14 31 33 52 42 27 12 41 26 49 51 8 24 21
38 45 48 22 9 41 28 54 53 27 54 55 64 84 32z"/>
</g>
</svg>
