<?xml version="1.0" encoding="utf-8"?>
<!-- Generator: Adobe Illustrator 24.1.0, SVG Export Plug-In . SVG Version: 6.00 Build 0)  -->
<svg version="1.1" id="Livello_1" xmlns="http://www.w3.org/2000/svg" xmlns:xlink="http://www.w3.org/1999/xlink" x="0px" y="0px"
	 viewBox="0 0 437 746.5" style="enable-background:new 0 0 437 746.5;" width="50" height="50" xml:space="preserve">
<style type="text/css">
	.st0{fill:#FEFEFE;}
</style>
<g>
	<path class="st0" d="M258.3,730.6c-4.1,0-8.5-0.2-13-0.5c-9.9-0.7-22.8-2.4-34.9-9.8c-0.2-0.1-0.3-0.2-0.7-0.2c-0.1,0-0.1,0-0.2,0
		c-12.2,0.7-24.7,1.4-37.2,1.4c-17.8,0-32.5-1.4-46.3-4.5c-7.1-1.6-14.6-2.8-21.8-3.9c-6.3-1-12.7-2-19.1-3.3
		c-3-0.6-11-2.2-13.2-9.2c-2.3-7.1,3.6-13.4,5.8-15.8c4.3-4.6,10-9.9,18.3-13c-1.5-6.3-1.5-12.8-0.2-19.4c1.5-7.2,6.1-10.4,9.8-11.8
		c12.1-4.8,19-15.5,18.6-28.8c-0.2-6.2,3.5-10.1,5.7-12.5l0.3-0.3c0.5-0.5,1-1.1,1.5-1.6c2.7-3,5.8-6.3,9.7-8.8
		c4.8-3.1,6.7-8.1,9.1-14.4c1.4-3.7,2.9-7.5,5-11.2c2.1-3.6,4-6.5,5.9-9.2c5.2-7.3,4.3-11.1,0.7-15.9c-3.5-4.6-4.6-9.3-5.7-13.6
		c-0.5-2.2-1.1-4.3-1.8-6c-0.9-1.9-2.4-6.9,2.6-12.4c0.5-0.5,0.9-1.1,1.4-1.6c-1.9,0.6-3.8,1.2-5.8,1.5c-3,0.5-6,1-8.9,1.5
		c-9.4,1.7-19.1,3.4-29.2,3.4c-1.9,0-3.8-0.1-5.6-0.2C102,510,94.9,504.6,90,496c-5-8.8-6.1-18-2.9-24.5c1.3-2.7,2.5-5.4,3.8-8.4
		c4.2-9.7,8.9-20.7,19.3-28.1c2.9-2,5.8-4.2,8.6-6.2c2.9-2.1,5.8-4.2,8.7-6.3c-0.8-1.4-1.2-3-1-4.7c0.1-0.5,0.1-1,0.2-1.5
		c-2.6-0.3-4.9-2-6-4.4c-1.7-3.9-2.4-7.5-2.1-10.7c-2.1-0.5-4.2-1.3-6.4-2.3c-3-1.4-4.7-4.5-4.2-7.8c0.4-3.2,2.9-5.8,6.1-6.4
		c1.9-0.3,3.6-0.4,5-0.4c0.3,0,0.7,0,1.1,0c0.2-0.7,0.2-1.8,0.1-3.6c0-0.6,0-1.2,0-1.8c-0.1-6.2,1.8-11.3,5.4-15
		c3.4-3.4,7.9-5.2,13.3-5.2c0.7,0,1.5,0,2.3,0.1c0.5-7.6,1.4-15.2,2.1-22.6c0.4-3.7,0.8-7.3,1.1-11c0.1-1.4,0.7-4,2.8-6.1
		c-2.6-2.8-3.4-5.9-2.4-9.3c0.2-0.8,0.3-1.1-2.1-4.2c-0.6-0.8-1.2-1.6-1.9-2.5l-0.6-0.8c-3.3-4.8-8-11.5-6.6-20
		c-4.4-3.1-7.2-7.3-9.6-11c-2.3-3.4-4.2-6.4-6.9-7.7c-0.6-0.3-1.2-0.6-1.8-0.9c-0.2-0.1-0.3-0.2-0.5-0.3c-5,4.8-11.1,7.3-17.7,7.3
		c-3.8,0-7.7-0.8-11.7-2.5c-2.7-1.1-4.6-3.8-4.6-6.8c-0.1-3,1.6-5.7,4.3-7c2.7-1.3,5.4-1.6,7.3-1.8c0.3,0,0.7-0.1,1-0.1
		c0.7-1.6,1.3-3.6,1.9-5.6c0.1-0.5,0.3-1.1,0.4-1.6c8.1-28.1,8.2-51.1,0.4-72.3c-1.7-4.6-3.2-9.4-4.5-14c-3.1-10.4-6.1-20.3-11.9-28
		l-0.5-0.7c-5.3-7-10.7-14.2-18-18.5C52.7,105.7,45.8,98,40.8,88C38,82.5,39,76.8,43.5,72c1.4-1.5,3.4-2.4,5.5-2.4
		c0.9,0,1.9,0.2,2.8,0.5c2.9,1.1,4.7,3.9,4.7,7c0,2.3,0,3.1,4.4,3.9c0.9,0.2,1.8,0.4,2.7,0.5c2.8,0.6,5.4,1.1,7.7,1.1
		c0.8,0,1.5-0.1,2.2-0.2c1-1.1,1.5-4.7,0.7-5.8c-3.3-4-6.2-8.2-8.9-12.4C61.5,58.6,58,53.3,53.5,49c-3.9-3.8-7-5.3-10.5-5.3
		c-0.7,0-1.4,0.1-2.1,0.2c-0.4,0.1-0.9,0.2-1.4,0.3c-1.3,0.3-3,0.7-4.9,0.8c1.8,2,2.4,4.9,1.4,7.4c-1.1,3-3.9,5-7.1,5
		c-0.1,0-0.1,0-0.2,0c-4.8-0.1-11.7-0.9-15.4-6.2c-4-5.6-1.7-12.7-0.9-15C16.5,23.9,27,16.3,40,16.3c1.4,0,2.8,0.1,4.2,0.3
		c0.3,0,0.7,0.1,1,0.1c1.1,0,2.3-0.1,3.7-0.3c1.7-0.2,3.6-0.4,5.6-0.4c0.6,0,1.2,0,1.8,0.1c12.6,0.9,22.4,6.5,31.9,12
		c3.8,2.2,7.3,4.2,11,6c3.1,1.5,5.2,2.4,7.4,2.4c10.6,0.2,18.8,6.9,21.7,17.9c3.4,12.4,10.1,23.3,17.3,34.7c1.6,2.6,3.3,5.2,4.9,7.9
		c9.1,15.1,22.5,26.7,36.6,38.3c8.9,7.3,11.2,17.3,7,29.7c-0.7,2.1-2.9,7.2-7.7,8.9c-6.1,2.3-7.2,5.9-8.6,15.8
		c-0.2,1.7-0.5,3.4-0.8,5.1c-2.9,16-3.6,32.4-2.4,50.1c0.6,8,3.6,15.7,6.9,22.9c8.8-7.2,18.7-8.5,27.5-9c2.1-0.2,7.3-6,7.9-10.2
		c0.3-2,0.1-4.3-0.2-6.8c-0.3-3.1-0.6-6.6,0-10.1c1.1-6.3,1.2-11.5,0.3-16.8c-2.9-17.4-6.2-37.1-17.1-53.2
		c-2.3-3.4-2.8-7.7-1.4-12.1c1.9-5.7,6.6-10.5,12.3-12.5c11.1-3.9,18.3-11.6,24.9-26.4c4.5-10.1,6.9-20.8,9.3-32.2
		c2.2-10.1,4.5-20.6,8.5-30.7c0-0.3,0-1-0.1-1.5c-0.1-1.8-0.3-4.5,0.7-7.6c2.8-8.3,9.1-11.5,13.6-13.8c1.3-0.7,2.5-1.3,3.6-2
		c9.5-6.1,19.7-9.5,28.5-12.2c2.5-0.8,5.1-1.2,7.7-1.2c12.9,0,23.3,9.5,23.5,21.6c0.1,3-1.7,5.8-4.5,7c-1,0.4-2,0.6-3,0.6
		c-1.9,0-3.7-0.7-5.2-2.1c-1.7-1.6-3.6-2.5-5.6-2.5c-3,0-5.5,2.1-6.7,5.7c-3.6,10.7-3.9,22.3-3.8,31.2c0.4,0.2,1.2,0.3,2.3,0.4h0.1
		c1.6,0,2.7,0,2.8-5.4c0.1-3.3,2.3-6.1,5.4-7c0.7-0.2,1.4-0.3,2.1-0.3c2.5,0,4.9,1.2,6.3,3.4c5.8,9,5.7,17.6-0.4,25.5
		c-2.8,3.7-6,6.7-9.1,9.7c-4.3,4.2-8.4,8.1-10.8,13.2c-6.8,14.7-10.3,27.4-11,40.1c-0.6,12.3,3,23.8,6.9,36c1.2,3.9,2.5,8,3.6,12
		c0.9,3.1,3.5,5.2,7.6,8.4c1.2,0.9,2.4,1.8,3.5,2.8c1.5-0.8,3.4-1.6,5.7-1.7c0.1,0,0.2,0,0.3,0c2.4,0,4.7,1.2,6.1,3.2
		c1.5,2.1,1.8,4.8,0.8,7.1c-4.1,10.1-11.5,12.2-17,12.2c-0.9,0-1.8-0.1-2.7-0.2c-1.3-0.1-2.5-0.2-3.8-0.2c-13.2,0-25.1,8-30.4,20.4
		c0,0.1-0.1,0.2-0.1,0.4c-0.2,0.8-0.5,2-1.2,3.3c-1.1,2.1-2.3,3.9-3.5,5.7c-3.9,5.7-4.2,7-2.5,9.9c0.8,1.4,1.2,2.7,1.2,4
		c0.6-0.1,1.3-0.2,1.9-0.2c4.9,0,8.9,2.8,11.8,8.2c2.2,4.1,2.8,8,1.6,11.5c-0.2,0.6-0.4,1.2-0.8,1.8c4.6,0.2,8.4,2.8,10,7.1
		c0.6,1.7,1.5,5.1-0.7,8.5c0.3,0.5,0.5,1.1,0.7,1.8c1.1,3.6-0.2,6.7-1.7,8.8c0.4,0.8,0.8,1.7,1.1,2.7c3.2,10.7,6.3,26.6-2.5,42.3
		c4.8-1.2,9.8-1.8,15.1-1.8c12.1,0,24,3.2,34,6.4c0.8,0.2,2.2,0.3,2.6,0.3c24.5,0.6,27.6,23.2,28.6,30.7c0.7,5.1,0.2,17.7-19.8,24.8
		c-7.3,2.6-13.7,7.6-20.4,12.9l-1.4,1.1c-8.9,7-18.3,11.3-28.8,13c-3.5,0.6-5.4,1.9-5.9,4c-0.6,2.9,3.4,4.4,3.6,4.5
		c12,4.6,16.8,13.7,13.7,26.3c-0.3,1.2-0.4,3.3,1.8,7.2c4.2,7.5,0.5,14.6-1.7,18.8c-0.7,1.3-1.3,2.5-1.6,3.4c0,0-0.3,0.8-0.3,1
		c9,10.8,12.7,23.4,16.3,35.5c0.4,1.3,0.8,2.6,1.2,3.9c1.3,4.4,2.9,8.7,4.5,13.3c1.1,3.1,2.3,6.3,3.4,9.5c9.5-3.6,17.7-5.3,25.9-5.3
		c0.9,0,1.8,0,2.7,0.1h0.2c0.2,0,0.4,0,0.7,0c0.4,0,0.7,0,1.1,0c1.4,0,5.5,0,8.5,3.3c1.3,1.5,2.8,4.1,2.4,8.2
		c-0.1,0.9-0.3,1.8-0.6,2.6c3.4,0.5,6.9,1.3,10.5,3.2c8.3,4.5,13.5,11.5,14.5,19.6c1,8-2.3,16.1-9,22.2c-2.9,2.6-5.8,3.2-7.8,3.2
		c-1.6,0-3.3-0.4-4.9-1.1c-1.9-0.8-3.4-2.5-4.1-4.4c-0.2,3.4-2.4,5.5-3.3,6.3c-1.8,1.5-4.2,2.3-7,2.3c-0.5,0-0.9,0-1.3-0.1
		c-1-0.1-1.9-0.1-2.7-0.1c-1.5,0-2.2,0.2-2.5,0.3c-0.2,0.4-0.6,1.7-0.7,4.8c0,1.5,0.1,2.8,0.3,4c1-0.3,2-0.5,3.1-0.5
		c2.2,0,4.3,0.7,6.2,1.9c3.2,2.2,4.1,4.9,4.4,6.8c0.4,3.7-1.6,6.3-2.7,7.5c0,0.6,0.4,1.7,1.4,3.7c0.2,0.5,0.5,1.1,0.7,1.6
		c6.2,14,18.2,20.3,34.4,25.5c3.3,1.1,6.8,2.1,10.8,3.2c2.1,0.6,4.3,1.3,6.7,2c3.2,1,5.4,3.9,5.4,7.3c0,3.3-2.3,6.3-5.5,7.2
		c-10,2.8-19,3.5-27.6,4.2c-4.9,0.4-9.6,0.8-14.1,1.5c-9.2,1.5-19,2.2-30,2.2l0,0c-11.5,0-22.6-0.8-34-1.6c-0.6,0-1.3-0.1-2-0.1
		c-4.9,0-10,1.3-15.3,2.7c-1.7,0.4-3.4,0.9-5.1,1.3C280.1,729.4,269.8,730.6,258.3,730.6z"/>
	<path d="M307,17.3c8.6,0,15.8,6,16,14.3c-3.2-3.1-7-4.5-10.7-4.5c-5.9,0-11.5,3.8-13.8,10.8c-3.7,10.9-4.4,22.6-4.2,34.1
		c0.1,5.5,5.1,7.3,9.6,7.4c0.1,0,0.2,0,0.3,0c6.5,0,10.1-3.9,10.3-12.7c4.6,7.1,3.6,12.1,0,16.8c-6.5,8.4-16,14-20.7,24.3
		c-6.4,13.7-10.9,27.6-11.6,42.9c-0.9,17.9,6.2,33.8,10.8,50.4c2.3,8.2,10.4,11.5,15.9,17c0.5,0.5,1.1,0.7,1.7,0.7
		c2.1,0,4.5-2.6,6.9-2.7c-2.1,5.1-5.3,7.5-10,7.5c-0.6,0-1.2,0-1.9-0.1c-1.6-0.2-3.1-0.3-4.7-0.3c-16.1,0-30.8,9.7-37.4,25.1
		c-0.4,1-0.5,2.1-1,3c-3.7,7.2-11.6,13.2-5.8,22.9c0.6,1.1-0.9,3.4-1.4,5.1c-0.8-0.2-1.3-0.2-1.7-0.2c-2.6,0,0.3,2.7,0,3.8
		c1.3,1.2,2.6,1.6,4,1.6c1.8,0,3.6-0.9,5.4-1.8c1.3-0.7,2.4-1,3.4-1c2.3,0,3.8,1.7,5.2,4.3c2,3.6,2,6.7-2,8.6
		c-2.2,1-3.9,1.4-2.2,4.3c1.3,2.2,1.8,5.6,4.7,5.6c0.3,0,0.6,0,0.9-0.1c1.8-0.3,3.9-1.1,5.6-1.1c1.5,0,2.8,0.5,3.5,2.3
		c1.4,3.6-5.1,2.9-6,6.9c2.6,1.2,9.3,0.9,3.7,7.1c-1.8,2,0.8,4.8,1.5,7.2c3.7,12.6,4.8,25.3-2.2,37.2c-2.1,3.5-6.1,5.4-6.4,10.5
		c-0.1,3,0.1,4.6,1.6,4.6c0.6,0,1.5-0.3,2.7-0.9c8-4,16.1-5.5,24-5.5c10.6,0,21.2,2.7,31.7,6c1.5,0.5,3.1,0.6,4.7,0.6
		c12.7,0.3,19,7.5,21.3,24.2c1,7.1-4.4,13-14.9,16.7c-9.1,3.2-16.6,9.4-23.9,15.2c-7.8,6.1-16,9.9-25.4,11.5
		c-6.2,1.1-10.8,4.3-12,9.9c-1.2,6,2.8,10.9,8.3,13c8.7,3.3,11.2,8.6,9.1,17.5c-1,4.2,0.1,8.3,2.5,12.7c3.1,5.5-2.1,10.9-3.8,16.1
		c-1.1,3.1-1.9,4.9,0.3,7.3c9.5,10.8,12.8,24.4,16.8,37.7c2.6,8.7,6.1,17.1,8.8,25.7c0.8,2.7,1.8,3.7,3.4,3.7c0.9,0,2-0.3,3.3-0.9
		c8.1-3.3,16.5-5.6,25.4-5.6c0.8,0,1.5,0,2.3,0.1c0.2,0,0.3,0,0.5,0c0.6,0,1.2,0,1.8,0c2,0,3.8,0.3,3.5,3.2
		c-0.3,2.5-2.3,3.2-4.6,3.2c-0.6,0-1.2-0.1-1.8-0.1c-1.5-0.2-2.9-0.8-4.5-0.8c-0.9,0-1.8,0.2-2.9,0.7c1.1,4.9,5,5.8,9.1,6.6
		c6.1,1.2,12.6,0.6,18.4,3.7c13.2,7.1,13.8,20.7,4,29.7c-0.8,0.7-1.7,1.2-2.7,1.2c-0.6,0-1.2-0.1-1.9-0.4c-0.4-2.9,3.6-5.1,1.7-8.9
		c-2.4,1.3-4.4,2.2-5.8,2.2c-2.2,0-2.9-2.1-1-7.5c1.1-3.2-1.9-2.9-4-3c-0.1,0-0.3,0-0.4,0c-5.8,0-11.4,2.8-17.9,9.3
		c5.3,0.8,9.6,2.6,12.1,7.3c0.6,1.2,1.5,2.4,0.2,3.5c-0.5,0.4-1.4,0.6-2.2,0.6c-0.2,0-0.4,0-0.7,0c-1.2-0.1-2.3-0.2-3.3-0.2
		c-7.8,0-10.4,3.3-10.6,12.4c-0.1,4,0.5,7.9,2.5,11.4c0.8,1.5,1.5,3.4,2.8,3.4c0.7,0,1.5-0.5,2.6-1.9c0.8-1,1.9-1.7,3-1.7
		c0.6,0,1.3,0.2,1.9,0.6c2.7,1.8-0.1,3-0.8,4.4c-2.1,4.4,0.2,8.1,1.9,11.9c7.5,17,22.5,24.3,38.9,29.6c5.2,1.7,10.4,3.1,17.7,5.3
		c-14.9,4.2-28.1,3.4-40.9,5.5c-9.6,1.6-19.2,2.1-28.8,2.1c-11.2,0-22.3-0.8-33.5-1.6c-0.9-0.1-1.7-0.1-2.6-0.1
		c-7.5,0-14.7,2.4-22.1,4.1c-9.8,2.3-19.8,3.2-30,3.2c-4.1,0-8.3-0.2-12.4-0.4c-11.2-0.8-21.8-2.8-31.5-8.7
		c-1.4-0.9-2.9-1.3-4.6-1.3c-0.2,0-0.4,0-0.6,0c-12.3,0.7-24.6,1.4-36.8,1.4c-14.9,0-29.9-1-44.7-4.3c-13.6-3-27.5-4.5-41.1-7.3
		c-9.3-1.9-10-5.5-3.4-12.6c6-6.4,12.7-11.5,22.3-12.9c-3.2-7.5-4-15.2-2.4-23.1c0.6-2.9,2-5.1,5.2-6.4c15.1-5.9,23.9-19.6,23.4-36
		c-0.1-3.3,2-5.4,4-7.4c3.1-3.3,6-6.9,9.7-9.2c10.4-6.7,11-18.8,16.6-28.1c1.8-2.9,3.6-5.9,5.6-8.6c6.3-8.9,7-16.4,0.6-24.8
		c-4.2-5.6-4-12.3-6.7-18.2c-0.7-1.4,0.2-2.9,1.4-4.2c5.7-6.3,8.3-14.1,12.1-23.6c-8.5,4.3-15.2,9.7-23.3,11
		c-12.3,2-24.5,4.9-36.9,4.9c-1.7,0-3.4-0.1-5.1-0.2c-9.9-0.7-20.3-19.2-15.8-28.1c5.9-11.8,9.3-25.6,20.7-33.7
		c11.4-8,22.2-16.9,34.6-23.4c1.6-0.8,3.8-1.2,3-3.8c-0.7-2.1-2.3-2.8-4.2-2.8c-0.3,0-0.6,0-0.9,0c-4.9,0.5-7.9,4.7-13.1,7.4
		c1.1-10.3,8.9-11.2,15.9-13.6c-5.4-2-9.3-3.1-12.3-3.1c-4.4,0-7,2.2-10,6.9c-3.2-7.2-1.4-11.4,5.7-13.7c3.4-1.1,6.8-0.6,10.2-0.9
		c4.2-0.4,7.8-1.5,4.1-6.7c-1.9-2.7,1.1-6.1-0.8-8.2c-1.8-2-4.4-3.9-7.2-3.9c-0.4,0-0.8,0-1.2,0.1c-3.2,0.6-3.5,3.9-3.8,7
		c-0.7,7.8-4.2,12-10.2,12c-2.6,0-5.6-0.8-9-2.4c4.3-0.8,8.1,0.6,10.5-2.7c2.4-3.3,1.9-6.9,1.8-10.6c-0.1-7.8,3.9-12.6,11.2-12.6
		c0.7,0,1.5,0,2.3,0.1s1.5,0.1,2.1,0.1c4.2,0,5-2.2,5.3-6.7c0.8-11.3,2.2-22.5,3.3-33.8c0.2-1.7,1.1-2.1,2.6-2.3
		c6.7-1.2,5.4-4.3,1.3-7.3c-1.8-1.3-4.3-2.5-3.7-4.5c1.7-5.9-2.3-9.2-5-13.1c-4-5.8-8.4-11.5-4.8-19.2c0.2-0.4,0.2-1.4,0.1-1.4
		c-11.1-3.2-12.1-16.7-22-21.3c-2.3-1.1-4-2.3-6-2.3c-1.4,0-2.9,0.6-4.7,2.4c-3.5,3.4-7.7,5.3-12.5,5.3c-2.7,0-5.7-0.6-8.8-1.9
		c4.2-1.9,8.9-0.4,11-3.8c1.8-3,2.7-6.8,3.7-10.1c7.4-25.6,9.7-51.3,0.2-77c-5.5-14.9-8.1-31.5-17.5-43.9
		c-5.6-7.4-11.9-15.9-20.7-21.1c-7.7-4.6-13.5-11.5-17.6-19.7c-1.1-2.1-1.3-4.5,1.5-7.5c0,7.6,4.5,10.2,10.5,11.3
		c3.9,0.8,7.9,1.8,11.8,1.8c1.4,0,2.9-0.1,4.3-0.5c6.1-1.5,8.5-12.8,4.3-17.8c-7.6-9.1-12.7-19.9-21.3-28.2
		c-4.7-4.5-9.5-7.4-15.7-7.4c-1.1,0-2.1,0.1-3.3,0.3c-1.9,0.3-3.7,1-5.7,1c-1.1,0-2.2-0.2-3.4-0.8c-0.5-0.3-1-0.4-1.4-0.4
		c-2.1,0-3.6,2.4-4.4,4.4c-1.8,4.1,0.9,6.8,4.1,9.3c-9.6-0.2-12-3.3-9.4-11.3c3.1-9.4,10.9-14.8,20.5-14.8c1.1,0,2.2,0.1,3.3,0.2
		c0.7,0.1,1.3,0.1,2,0.1c3,0,6.1-0.7,9.3-0.7c0.4,0,0.9,0,1.3,0c15.5,1.1,27,11.1,40.2,17.2c3.4,1.6,6.5,3,10.4,3.1
		c7.7,0.2,12.6,4.9,14.6,12.4c4.5,16.5,14.3,30.2,23,44.6c9.8,16.3,23.9,28.4,38.2,40.2c7.4,6.1,7.4,13.4,4.6,21.4
		c-0.6,1.7-1.8,3.8-3.2,4.3c-12.8,4.8-12.2,15.9-14.2,26.7c-3.1,17.3-3.7,34.5-2.5,51.9c0.7,9.5,4.2,18.4,8.2,26.9
		c1,2.1,3.4,4.4,5.9,4.4c1,0,2.1-0.4,3-1.3c7.2-7.1,15.8-8.6,25.2-9.2c6.6-0.4,13.8-9.9,14.8-16.6c0.8-5.7-1.1-11.6-0.2-16.7
		c1.1-6.6,1.4-12.7,0.3-19.3c-3.3-19.7-6.8-39.1-18.3-56.2c-2.7-4.1,1.2-11.2,7.2-13.3c14.9-5.3,22.9-16.3,29.2-30.4
		c9.1-20.4,9.9-42.8,18-63.3c1.2-3.1-0.4-6,0.7-9.3c2.5-7.2,8.8-8.4,14.2-11.9c8.4-5.4,17.4-8.5,26.6-11.3
		C303.3,17.5,305.2,17.3,307,17.3 M307,2.3L307,2.3c-3.3,0-6.7,0.5-9.9,1.5c-9.3,2.8-20.1,6.4-30.4,13c-0.8,0.5-1.8,1-3,1.6
		c-5.1,2.6-13.5,6.9-17.3,18.1c-1.4,4.3-1.3,8-1.1,10.2c-3.8,10.2-6.1,20.4-8.3,30.3c-2.4,10.9-4.7,21.3-8.9,30.7
		c-5.8,12.9-11.5,19.2-20.6,22.4c-3.7,1.3-7.2,3.5-10,6.3c-1.9-2.7-4.2-5-6.4-6.8c-14.1-11.5-26.4-22.3-34.9-36.4
		c-1.6-2.7-3.3-5.4-4.9-8c-6.9-11-13.4-21.4-16.4-32.7C131.1,38.3,120,29.3,106.1,29c-0.7,0-2.6-0.9-4.3-1.7
		c-3.4-1.6-6.8-3.6-10.4-5.7c-9.7-5.6-20.8-12-35.1-13c-0.7-0.1-1.5-0.1-2.3-0.1c-2.5,0-4.7,0.3-6.4,0.5c-1.1,0.1-2.2,0.3-2.8,0.3
		c-0.1,0-0.2,0-0.2,0C42.9,9.1,41.2,9,39.5,9C23.2,9,9.9,18.6,4.8,34C2,42.6,2.6,49.9,6.7,55.7c6.4,9,17.7,9.2,21.4,9.3
		c0.1,0,0.2,0,0.3,0c6.4,0,12-4,14.1-10c0.4-1.2,0.7-2.4,0.8-3.6c0.8,0.2,2.2,0.9,4.5,3.1c2.7,2.6,5.1,5.8,7.5,9.2
		c-0.4-0.2-0.8-0.4-1.1-0.5c-1.8-0.7-3.7-1.1-5.5-1.1c-4.1,0-8,1.6-10.9,4.7c-6.6,7-8.1,16.2-4,24.5c5.7,11.3,13.5,20,23.3,25.9
		c6.1,3.6,11.1,10.2,15.9,16.6l0.5,0.7c5,6.6,7.8,15.8,10.7,25.6c1.4,4.7,2.9,9.6,4.7,14.5c7.3,19.6,7.1,41.1-0.5,67.7
		c-0.2,0.5-0.3,1.1-0.5,1.7c-0.1,0.3-0.2,0.6-0.3,0.9c-1.7,0.4-3.7,0.9-5.8,1.9c-5.4,2.5-8.8,8-8.7,13.9c0.1,6,3.7,11.3,9.2,13.6
		c4.9,2,9.8,3,14.5,3c6.6,0,12.7-1.9,18.1-5.5c0.8,1.1,1.8,2.6,2.5,3.7c2,3,4.5,6.8,8.1,10.2c0.1,9.2,5.1,16.5,8.2,21l0.6,0.8
		c0.7,1.1,1.5,2,2.1,2.9c0.1,0.1,0.2,0.2,0.3,0.4c-0.3,2.9,0.1,5.9,1.3,8.6c-0.8,1.8-1.2,3.6-1.4,5.3c-0.4,3.6-0.7,7.3-1.1,10.9
		c-0.6,5.3-1.1,10.7-1.6,16.1c-5.4,0.9-10.2,3.3-13.9,7.1c-3.3,3.4-7.2,9.3-7.5,18.7c-6.4,1.1-11.4,6.3-12.2,12.8
		c-0.9,6.5,2.6,12.8,8.5,15.6c0.8,0.4,1.5,0.7,2.3,1c0.4,2.7,1.3,5.5,2.5,8.3c0.9,2.1,2.3,3.8,3.9,5.3c-1.2,0.8-2.3,1.7-3.4,2.5
		c-2.9,2.1-5.7,4.2-8.5,6.2c-12.1,8.6-17.5,21.2-21.9,31.3c-1.2,2.8-2.4,5.5-3.6,8c-4.4,8.8-3.2,20.6,3.1,31.6
		c6.2,10.9,15.4,17.5,25.1,18.2c2,0.1,4,0.2,6.1,0.2c10.7,0,20.8-1.8,30.5-3.5c0.3-0.1,0.7-0.1,1-0.2c0,2.4,0.6,4.7,1.6,7
		c0.5,1,0.9,2.8,1.4,4.6c1.1,4.4,2.6,10.5,7,16.3c1.2,1.6,1.4,2.4,1.4,2.6c0,0.1-0.1,1.3-2.3,4.4c-2,2.8-4.1,6-6.3,9.7
		c-2.5,4.2-4.2,8.5-5.6,12.3c-2.2,5.8-3.6,9.1-6.2,10.8c-4.7,3-8.3,6.9-11.1,10.1c-0.5,0.5-1,1.1-1.4,1.6l-0.3,0.3
		c-2.6,2.8-8,8.5-7.7,17.8c0.3,10.1-4.7,18-13.9,21.6c-7.6,3-12.7,9.1-14.4,17.3c-1.1,5.5-1.4,11.1-0.8,16.5
		c-6.8,3.7-11.8,8.5-15.4,12.4c-2.7,3-11.1,12-7.5,23.2c2.4,7.4,8.7,12.2,18.9,14.2c6.6,1.3,13.1,2.4,19.4,3.4
		c7.4,1.2,14.5,2.3,21.4,3.8c14.4,3.2,29.6,4.7,48,4.7c12.2,0,24.2-0.7,36-1.3c13,7.4,26.3,9.2,36.6,9.9c4.6,0.3,9.1,0.5,13.5,0.5
		c12.1,0,23-1.2,33.4-3.6c1.8-0.4,3.5-0.9,5.2-1.3c5.1-1.3,9.5-2.4,13.5-2.4c0.5,0,1,0,1.4,0.1c11.1,0.8,22.9,1.7,34.6,1.7
		c11.4,0,21.6-0.8,31.2-2.3c4.2-0.7,8.7-1,13.5-1.4c8.6-0.7,18.4-1.4,29-4.4c6.4-1.8,10.9-7.6,11-14.3s-4.3-12.6-10.7-14.5
		c-2.5-0.7-4.7-1.4-6.8-2c-3.9-1.1-7.3-2.1-10.5-3.2c-17.1-5.5-25.4-11.5-29.8-21.4c-0.2-0.4-0.4-0.8-0.6-1.2c1.5-2.9,2.1-6,1.8-9.3
		c-0.3-2.5-1.4-6.9-5.7-10.7c1.2-0.6,2.3-1.3,3.3-2.1c0.2-0.1,0.3-0.3,0.5-0.4c2.3,0.9,4.6,1.3,7,1.3c3.3,0,8.2-0.9,12.8-5.1
		c8.5-7.8,12.7-18.2,11.4-28.7c-1.3-10.4-8-19.6-18.3-25.3c-2-1.1-4-1.9-6-2.5c-0.4-3.8-1.9-7.2-4.3-9.9c-3.5-3.8-8.2-5.8-14.1-5.8
		c-0.4,0-0.9,0-1.3,0c-0.1,0-0.3,0-0.4,0c-1,0-1.9-0.1-2.9-0.1c-6.9,0-13.8,1.1-21.2,3.3c-0.3-0.9-0.6-1.7-0.9-2.6
		c-1.6-4.5-3.1-8.7-4.4-12.9c-0.4-1.3-0.8-2.6-1.2-3.9c-3.3-11-6.9-23.4-14.8-34.4c2.5-4.9,7.6-14.9,1.5-25.8
		c-0.7-1.2-0.9-1.8-1-2.1c3-13-0.7-23.7-10.3-30.4c8.9-2.5,17.1-6.8,24.9-12.9l1.4-1.1c6.2-4.9,12.1-9.5,18.3-11.7
		c25.8-9.2,25.4-27.5,24.7-32.9c-1.6-11.4-5-20-10.4-26.1c-6.2-7.1-14.8-10.8-25.5-11c-0.4,0-0.7,0-0.8,0
		c-10.5-3.3-22.9-6.6-35.9-6.6c-1.2,0-2.3,0-3.4,0.1c3.9-15.7-0.3-29.8-1.9-35.2v-0.1c1.7-4.2,1.5-7.9,0.8-10.7
		c1.2-3.6,1.1-7.7-0.3-11.5c-1.6-4.2-4.5-7.5-8.2-9.6c0.1-3.3-0.7-7.3-3.1-11.8c-4.2-7.8-9.7-10.8-14.5-11.8
		c0.5-0.8,1.2-1.8,1.7-2.5c1.3-1.9,2.7-4,4-6.4c1-1.9,1.5-3.6,1.7-4.7c4.3-9.4,13.3-15.4,23.3-15.4c1,0,2,0.1,2.9,0.2
		c1.2,0.1,2.4,0.2,3.6,0.2c10.9,0,19.6-6.2,23.9-16.9c1.9-4.7,1.3-10.1-1.7-14.3c-2.8-4-7.4-6.3-12.2-6.3c-0.2,0-0.4,0-0.7,0
		c-1.5,0.1-2.9,0.3-4.1,0.6c-0.1-0.1-0.2-0.1-0.3-0.2c-1.7-1.3-4.7-3.6-5-4.4c-1.2-4.2-2.5-8.3-3.7-12.3
		c-3.6-11.5-7.1-22.4-6.5-33.4c0.6-11.8,3.7-23.3,10.3-37.3c1.8-3.8,5.2-7.1,9.2-10.9c3.1-3,6.7-6.4,9.8-10.5
		c8-10.4,8.3-22.6,0.7-34.2c-2.8-4.3-7.6-6.8-12.6-6.8c-1.4,0-2.7,0.2-4.1,0.6l0,0c0.6-3.5,1.3-6.6,2.3-9.6v-0.1
		c2.8,2.7,6.5,4.1,10.3,4.1c2,0,4.1-0.4,6-1.3c5.5-2.4,9.1-8,8.9-14C337.7,15,324,2.3,307,2.3L307,2.3z M184.3,256.8
		c-1.5-4-2.6-8.2-2.9-12.3c-1.2-17.1-0.4-32.9,2.3-48.3c0.3-1.9,0.6-3.7,0.8-5.4c1.3-8.9,1.7-9.1,3.8-9.8c4.2-1.6,7.1-4.5,9.1-7.4
		c6.5,13.1,9,28,11.4,42.5c0.7,4.5,0.7,8.9-0.3,14.3c-0.8,4.6-0.4,8.8-0.1,12.1c0.2,1.9,0.4,3.8,0.2,4.9c-0.3,1.1-1.6,3-2.6,4
		C198.8,252.1,191.4,253.3,184.3,256.8L184.3,256.8z M151.7,308.9L151.7,308.9L151.7,308.9L151.7,308.9z"/>
</g>
</svg>
