<?xml version="1.0" encoding="utf-8"?>
<!-- Generator: Adobe Illustrator 24.1.0, SVG Export Plug-In . SVG Version: 6.00 Build 0)  -->
<svg version="1.1" id="Livello_1" xmlns="http://www.w3.org/2000/svg" xmlns:xlink="http://www.w3.org/1999/xlink" x="0px" y="0px"
	 viewBox="0 0 474 405.9" style="enable-background:new 0 0 474 405.9;" width="50" height="50" xml:space="preserve">
<style type="text/css">

		.Stile_x0020_grafica{fill:#FEFEFE;stroke:#000000;stroke-width:15;stroke-linecap:round;stroke-linejoin:round;stroke-miterlimit:10;}
	.st0{fill:#FEFEFE;}
</style>
<g>
	<path class="st0" d="M179,394.4c-1.4,0-2.7,0-4-0.1c-1.2-0.1-2.4-0.1-3.6-0.2c-9.7-0.5-19.7-1.1-29.8-4.4
		c-3.4-1.1-7.2-1.7-11.1-2.4c-2.2-0.3-4.4-0.7-6.6-1.2c-6.2-1.2-12.5-1.4-19.6-1.5c-5.4-0.1-10.3-1.2-15.1-2.3
		c-1.4-0.3-2.8-0.6-4.3-0.9c-5.2-1.1-9.9-2.9-14.5-4.6c-3.4-1.3-6.6-2.5-9.8-3.4l-2.7-0.7c-2.8-0.8-5.5-1.5-8.2-2.1
		c-2.6-0.6-5.2-1.7-7.8-3.2c-2.5-1.4-5.4-2.4-8.5-3.4c-1.6-0.5-3.2-1-4.8-1.7c-2.6-1-5.6-2.3-8.3-4.7c-3.2-2.9-4-5.9-4-7.9
		c0-0.6,0-1.2,0.2-2c-0.8-1.4-1.2-2.9-1.3-4.6c0-1.5,0.1-2.8,0.6-4c-3.3-3-5.2-7-5.3-11.7l0-0.2c-0.5-6.6,3.8-9,5.7-9.8
		c1.2-0.5,2.4-0.7,3.7-0.7c2.4,0,4.8,0.9,6.9,2.6c4.2,3.4,7,7.5,8,12c0.1,0,0.1,0,0.2,0c0.4,0.1,0.8,0.2,1.2,0.3
		c1.5-1.3,3.4-2.1,5.6-2.2c0-0.9,0-1.9,0-2.8c0-2.4,0-4.9,0.2-7.5c0.7-7.5,4.6-14,11.8-20.1c4.6-3.8,9.7-5.6,15-6.9
		c-2.7-3.4-5-8.2-6.1-14.7c-0.7-4,0-8.1,2-12.3c-2-1.4-3.5-3.8-3.6-7.1c-0.2-1.6-0.2-3-0.1-4.1c0-0.4,0-0.7,0-1.1
		c0-1.9-0.2-2.1-0.6-2.5c-2.3-2.4-6.9-9.1-0.7-19.2c6.3-10.3,15.1-16,26.2-17c0.1-0.1,0.6-0.4,0.6-0.4c2.4-1.9,4.7-2.3,6.2-2.3
		c2.4,0,4.6,0.9,6.3,2.6c6.7,0.4,11.9,3.5,16.2,6.9c5.9-3,12.1-5.2,18.1-7.3c-0.6-1.1-1.1-2.3-1.3-3.7c-0.2-1.4-0.5-2.5-3-4.6
		c-9.1-7.4-11.3-22.6-4.8-32.8c-0.8-0.7-1.5-1.5-2.1-2.5c-3.1-5.1-1.3-12.4,2.2-16.1c3.1-3.2,6.5-5.5,10.3-6.8
		c3.3-1.2,6.6-1.8,9.8-1.8c7.8,0,14.4,3.6,18.7,10.2c2.7-3.7,6.2-7.4,10.7-10.4c4.8-3.3,9.8-5.5,14.7-7.6c0.9-0.4,1.7-0.8,2.5-1.1
		c1.6-6.6,6.1-10.9,9.6-14.1c0.5-0.5,1-0.9,1.5-1.4c2.9-2.8,6.5-4.7,10.9-5.8c1.5-0.4,3.1-0.6,4.6-0.6c5.1,0,9.4,2,12.5,3.5l0.5,0.2
		c1.2,0.6,2.2,1.1,3.1,1.3c0.5-0.5,1.1-1,1.8-1.4c-0.3-0.9-0.4-1.9-0.5-2.9c0-1.6,0-3.3,0-5c-1.6,1.7-3.9,2.7-6.2,2.7
		c-0.1,0-0.2,0-0.3,0c-2,0-8.7-0.8-9.4-11.1c-0.2-3-0.2-5.9-0.3-8.7c0-0.4,0-0.8,0-1.2c-3.3-1.3-5.7-4.1-6.4-7.7
		c-0.2-0.8-0.3-1.6-0.4-2.5c-1.2-1.4-1.9-3.1-1.9-5c-0.1-0.2-0.3-0.6-0.4-0.9c-0.8-1.7-2.1-4.6-1.6-8.2c-2.2-3.5-2.5-8-0.8-12.8
		l0.4-1c1.3-3.6,3-8.2,7-11.8c0.4-0.5,1-1.2,2-1.9c0.5-3.5,3.2-6.5,6.4-7.7c0.4-0.1,1.3-1.2,2-1.9c1.3-1.4,2.9-3.2,5.2-4.5
		c0.6-0.4,1.4-1,2.2-1.6c2.2-1.8,5.2-4.2,9.6-5.1c0.6-0.1,1.9-0.6,4.4-2.4c2.9-2,5.9-3.1,8.9-3.1c0.5,0,1,0,1.5,0.1
		c1.8-1.3,4-1.9,6.3-1.9c1.5,0,3,0.3,4.5,0.9c0,0,0.1,0,0.1,0c0.8-0.2,1.9-0.4,3.2-0.4c0.5,0,0.9,0,1.4-0.1c1,0,2-0.1,3-0.1
		c2.5,0,6.1,0.2,9.7,2.1c0.2,0,0.3,0,0.5,0c3.2,0,7.9,1.2,11.8,6.9c0.4,0.6,0.8,1.3,1.2,1.9c0.7,1,1.3,2.1,1.8,2.3
		c4,1.9,6.7,6.1,6.7,10.8c0,0.8,0.2,1.7,0.3,2.7c0.4,2.9,1,6.9-0.6,11.2c0,0.2,0.1,0.5,0.1,0.8c0,0.3,0.1,0.7,0.1,1
		c0.2,2.1,0.8,8.4-4.2,13.6c-0.9,1-2.1,2.5-2.3,4.4c-0.2,1.4-0.4,2.9-0.6,4.3c-0.6,4.1-1.1,8-0.6,11.5l0.3,1.8
		c0.7,4.9,1.4,9.6,3.2,13.6c2.1,0.4,3.9,1.6,5.2,3.3c0.3,0.4,0.6,0.8,0.8,1.3c1-0.3,2.1-0.5,3.3-0.5c0.6,0,1.1,0,1.7,0.1
		c4.4,0.6,7.7,4,8.5,8.5c4.9-1.6,10.4-2.4,16.5-2.4c1.7,0,3.5,0.1,5.5,0.2c8.4,0.5,15.7,2.2,22.2,5c7.9,3.5,14.7,8.2,19.9,14.1
		c0.3,0.4,0.7,0.8,1.1,1.1c0.3,0.3,0.7,0.7,1,1.1c2.8-1.9,5.8-3.8,8.8-5.7c9.5-5.8,19.1-8.8,28.8-8.9l0.2,0c8.1,0,14.8,3.6,19.7,6.7
		c7.8,5,11.2,12.4,13.8,19c4.7,11.7,4.7,24.2,0.1,36.2c-1.6,4.2-3.4,8.9-7,13.1c-2,2.3-2.9,5.4-2.9,9.8c0,0.3,0,0.6,0,1
		c0.1,2.3,0.3,6.5-2.8,10.4l0,0.1c-1.9,3-4.4,4.5-7.5,4.5c0,0,0,0,0,0c-1.5,0-3-0.4-4.3-1.2c-1.4-0.9-2.6-2-3.4-3.3
		c-0.2,0.2-0.4,0.3-0.7,0.5c-0.8,0.5-1.5,1.1-2.4,1.7c-1.2,0.9-2.4,1.8-3.7,2.7c-0.2,0.7-0.2,2.2-0.2,3.1l0,1.7
		c-0.1,2.8-0.1,5.5,0.3,7.8c0.5,2.8,0.3,5.7-0.6,8.3c-1.4,3.9-4.5,6.4-8.4,6.8c-0.3,0-0.7,0.1-1,0.1c-2.2,0-5.4-0.8-7.9-4.6
		l-0.1-0.1c-0.8-1.2-1.4-2.4-1.8-3.6c-1,0.4-2,0.7-3.1,0.8c-0.3,0-0.7,0-1,0c-1.7,0-7.3-0.6-9.2-7.7l0-0.1c-0.3-1.1-0.5-2.1-0.6-3.1
		c0-0.2-0.1-0.3-0.1-0.5c-0.1,0-0.2,0-0.3,0c0.2,3.5,0,6.9-0.2,10.1l-0.1,1.3c-0.1,1.7-0.6,3.1-1.3,4.2c1,1.1,1.9,2.5,2.5,4.4
		c0.4,1.4,1.5,4.6-0.1,8.2c0.1,0.4,0.3,0.8,0.4,1.3c2.1,8,2.1,15.4,0,22.7c-0.9,3.1-1.4,6.8-1.6,11.4c-0.1,2-0.3,3.8-0.8,5.4
		c1.7-0.7,2.8-1.2,3.4-2c1.8-2.5,4.6-3.9,7.7-3.9c2.2,0,4.4,0.8,6.2,2.3c3.8,3.1,4.7,8.1,2.3,12.5c-2.6,4.8-6.8,8.2-12.9,10.2
		c-1.2,0.4-2.5,0.8-3.7,1.1c1-0.2,2.2-0.3,3.3-0.3c1.6,0,3.1,0.2,4.5,0.7c2.9-3,6.8-4.7,11.1-4.7c2,0,4.2,0.4,6.4,1.1
		c0.3,0.1,0.5,0.1,0.8,0.2c1.2,0.3,2.9,0.7,4.7,1.8c6.1,3.7,8.8,9.9,7.2,16.8c0,0.1,0,0.2,0,0.3c0,0.5,0,1.1-0.1,1.6
		c-0.3,2.6-1.3,4.7-2.9,6.2c-0.1,1.3-0.2,2.6-0.3,3.9l-0.1,0.7c-0.4,4.6-4,7.9-8.7,7.9c-0.3,0-0.5,0-0.8,0c-4.2-0.4-7.5-3.2-8.6-7.3
		c-0.3-1.2-0.5-2.3-0.6-3.4c-2.2,1.4-4.6,2.2-7.2,2.2c-0.3,0-0.5,0-0.8,0c0.2,0.4,0.3,0.9,0.4,1.4c3.7,1.4,6.1,4.7,6.3,8.7
		c0.3,4.1-2.1,7.9-5.9,9.5c-2.5,1.1-5.3,2.1-8.7,2.4c-2.9,0.3-6.2,0.6-9.5,1.2c-1.8,5.4-5.8,7.3-9.6,8.4c-6.7,2-13.4,2.6-19.8,3.2
		c-0.9,0.1-1.8,0.2-2.7,0.3c-1.1,0.1-2.2,0.2-3.3,0.4c-2.7,0.3-5.5,0.7-8.6,0.7c-0.8,0-1.6,0-2.4-0.1c-4.2,2.6-8.8,3.1-12.2,3.4
		c-0.8,0.1-1.7,0.1-2.5,0.3c-4.4,0.6-8.7,0.6-12.9,0.7c-4.7,0.1-9.1,0.1-13.2,0.9c-2.6,0.5-5.2,1.2-7.9,1.9
		c-1.1,0.3-2.1,0.6-3.2,0.9c-5.1,1.3-10,1.7-14.8,2.1c-1,0.1-1.9,0.1-2.9,0.2l-1.1,0.1c-5.6,0.5-11.4,1-17.3,1
		c-2.5,0-4.9-0.1-7.2-0.3c-2.1-0.2-4.4-0.3-6.8-0.3c-4.7,0-9.4,0.3-13.4,0.7c-3.6,0.3-7.4,0.4-12.2,0.4c-2.4,0-4.8,0-7.2-0.1
		c-2.3,0-4.7-0.1-7-0.1c-1,0-1.9,0-2.9,0c-2,0-4,0.1-6.1,0.2C184.4,394.3,181.7,394.4,179,394.4z M380.2,320.3
		c0.2,1.1,0.4,2.1,0.6,3.1c2.2-1.5,4.7-3,7.9-4l0.5-0.1c0.4-0.1,0.8-0.2,1.2-0.3C387.1,319.7,383.7,320.2,380.2,320.3z M84.6,277.7
		c-0.1,0.6,0,1.1,0.2,1.6c0.4,0.8,1.3,1.3,1.9,1.5c0.4,0.1,0.8,0.3,1.3,0.4C86.7,280.1,85.6,278.9,84.6,277.7z M78.8,257.9
		c0.3,0.1,0.6,0.2,0.8,0.3c0.1,0,0.1,0.1,0.2,0.1c0.1-0.8,0.3-1.6,0.5-2.4c0.6-2.7,1.5-5.2,2.6-7.5c-1.3,0.8-2.6,1.2-3.6,1.3
		c-0.1,0.6-0.2,1.1-0.3,1.7c0,0.3,0,1.1,0,1.6C79.1,254.3,79.1,256,78.8,257.9z M87.6,239.3c0,0.7-0.2,1.5-0.4,2.4
		c1.9-2.5,4.1-4.7,6.4-6.7c-0.3,0-0.6,0-0.9-0.1C91.5,237,89.7,238.5,87.6,239.3z M409,196.8c3.7-0.8,7-3,11.2-7.3
		c1.8-1.8,3.2-4.2,4.8-6.7c0.6-1,1.2-2,1.9-3c3.1-4.7,4.4-8.1,4.6-11.5c0.3-7.4-2.4-12.9-8.7-17.2c-0.3-0.2-0.6-0.4-0.7-0.5
		c-1.8,0.6-3,1.5-3.9,2.8c-1.6,2.3-2.5,5.4-3.4,8.8l-0.2,0.8c-0.6,2.2-0.9,4.5-1.3,7c-0.4,2.7-0.9,5.5-1.6,8.3
		c-0.9,3.6-1.3,7.4-1.8,11.5c-0.2,2.2-0.5,4.4-0.8,6.7C409,196.5,409,196.8,409,196.8z M342.1,154.9c4.5-0.1,8.9-1.3,13.5-2.9
		c-0.4-0.5-0.9-1-1.4-1.4c-2.4,3.2-5.8,3.5-7.2,3.5c-0.2,0-0.4,0-0.6,0c-1.7-0.1-6.4-0.9-8.2-6.5c0,0,0,0-0.1,0c0,0,0,0.1,0,0.1
		c0.7,2.1,1.5,4.3,2,6.9C340.4,154.6,341.7,154.8,342.1,154.9z"/>
	<path d="M263.3,20.2c0.7,0,1.4,0.2,2.1,0.5c0.7,0.3,1.3,0.5,2,0.5c1.4,0,2.7-0.5,4-0.6c1.4,0,2.8-0.1,4.2-0.1
		c2.3,0,4.5,0.3,6.7,1.4c0.9,0.5,1.8,0.7,2.8,0.7c0.2,0,0.4,0,0.5,0c0.1,0,0.2,0,0.3,0c2.6,0,4.4,1.8,5.7,3.7
		c1.7,2.5,2.9,5.3,5.9,6.7c1.5,0.7,2.4,2.4,2.5,4.1c0.1,3.9,1.7,7.7,0,11.7c-0.6,1.3-0.2,3.1,0,4.7c0.3,2.8,0,5.4-2.1,7.6
		c-2.4,2.5-4.1,5.5-4.4,8.8c-0.7,5.9-2.1,11.8-1.1,17.7c1,6.6,1.8,13.2,5,19.2c0.6,1.2,1.1,2.5,2.6,2.5c0.3,0,0.7-0.1,1.1-0.2
		c0.2,0,0.3-0.1,0.5-0.1c1.2,0,1.5,1.6,1.2,2.6c-0.9,3.3,1.7,4.2,3.5,5.5c0.4,0.3,0.7,0.4,1,0.4c0.9,0,1.6-0.8,2-1.8
		c0.6-1.6,1.7-2.4,3.2-2.4c0.2,0,0.4,0,0.6,0c1.3,0.2,2.1,1.2,2.3,2.6c0.2,2-0.7,3.2-2.5,3.7c-1.6,0.5-2.9,1.4-2.4,3
		c0.4,1.4,1.7,2,3.2,2c0.2,0,0.5,0,0.7,0c3-0.3,5.8-1.3,8.5-2.4c5.3-2.1,10.8-2.8,16.4-2.8c1.7,0,3.4,0.1,5.1,0.2
		c6.8,0.4,13.4,1.7,19.7,4.4c6.6,2.9,12.5,6.8,17.4,12.2c1.9,2.1,4.1,3.9,5.1,6.7c0.2,0.5,0.4,0.7,0.7,0.7c0.4,0,0.8-0.5,1.2-0.7
		c4.5-3,8.9-6,13.4-8.8c7.6-4.7,15.9-7.7,24.9-7.8c0,0,0.1,0,0.1,0c5.8,0,10.8,2.5,15.7,5.6c5.8,3.7,8.6,9.5,10.9,15.4
		c4,10.1,4,20.6,0,30.7c-1.5,3.8-2.9,7.6-5.7,10.9c-3.5,4.1-4.7,9.3-4.7,14.7c0,2.3,0.5,4.7-1.2,6.7c-0.5,0.6-0.9,1.7-1.6,1.7
		c-0.1,0-0.3,0-0.5-0.1c-0.9-0.5-1.6-1.8-1-3.2c0.9-1.9,0.9-4,0.6-6.1c-0.1-0.7-0.3-1.5-1-1.6c-0.1,0-0.1,0-0.2,0
		c-0.7,0-0.9,0.8-1,1.3c-0.4,1.9-2.4,2.3-3.5,2.7c-2.6,0.9-4.1,2.9-6.1,4.3c-2.1,1.4-4,3.1-6.2,4.5c-3.3,2.1-3.3,5.9-3.3,9.4
		c-0.1,3.6-0.2,7.1,0.4,10.7c0.3,1.5,0.2,3-0.3,4.4c-0.3,1-0.9,1.7-2.1,1.9c-0.1,0-0.1,0-0.2,0c-0.9,0-1.2-0.7-1.7-1.4
		c-2-3.1-2-6.5-1.5-9.8c0.3-2.4,0.3-4.6-0.4-6.8c-0.4-1.1-0.2-2.9-2-3c0,0-0.1,0-0.1,0c-2,0-3.6,0.8-4.6,2.7
		c-0.7,1.4-1.2,2.9-1.1,4.5c0.1,1.2,0.1,2.5,0,3.7c-0.1,1.3-0.6,2.4-2.2,2.5c-0.1,0-0.2,0-0.3,0c-1.4,0-1.7-1.3-1.9-2.2
		c-0.6-2.1-0.7-4.3-1.5-6.4c-0.9-2.3-1.8-3.2-3.8-3.2c-0.4,0-0.9,0-1.4,0.1c-2.1,0.3-4.3,0.7-6.5,0.7c-0.6,0-1.1,0-1.6-0.1
		c-0.3,0-0.6-0.1-0.8-0.1c-1.9,0-1.3,1.2-1,2.5c1.3,5.2,0.8,10.4,0.5,15.7c-0.1,1.8-2.1,2.2-2.5,4c-0.4,1.6-0.4,2.5,0.9,3.7
		c1.2,1.1,2.7,1.9,3.2,3.7c0.4,1.4,0.7,2.5-0.3,3.9c-1.2,1.7,0.1,3.6,0.6,5.3c1.6,6.3,1.9,12.4,0.1,18.7c-1.2,4.3-1.7,8.7-1.9,13.2
		c-0.1,2.2-0.5,4.4-1.5,6.4c-0.4,0.8-1.2,1.4-2.1,1.4c-0.1,0-0.2,0-0.3,0c-1.1-0.2-1.4-1.2-1.5-2.3c-0.1-1.4,0.8-3.5-1.2-3.8
		c-0.1,0-0.2,0-0.3,0c-1.5,0-1.4,2.1-2.2,3.2c-1.2,1.6-1.3,3.6-1.7,5.4c-0.7,3,0.1,4,3.2,4.9c2.1,0.5,4.1,0.9,6.2,0.9
		c2.4,0,4.8-0.5,7.1-1.6c3.7-1.7,7.9-2.5,10.5-6.1c0.4-0.6,1-0.9,1.6-0.9c0.5,0,1,0.2,1.5,0.6c1,0.8,1.1,2,0.5,3.1
		c-1.9,3.5-5.1,5.5-8.7,6.7c-5.5,1.9-11.2,2.8-17,2.8c-1.2,0-2.5,0-3.7-0.1c-0.1,0-0.2,0-0.2,0c-1.1,0-1.3,0.5-1.3,1.6
		c-0.1,4.2,0.4,8.3,1.5,12.2c0.5,1.9-0.3,3.2-1.2,4.6c-0.3,0.5-0.8,0.9-1.4,0.9c-0.2,0-0.4,0-0.5-0.1c-1-0.5-1.5-1.4-1.7-2.6
		c-0.3-2.5,0.3-5,0.6-7.4c0.4-2.8,0-5.4-0.1-8.2c0-0.7-0.3-0.9-1-1c-4.3-1.2-8.8-1.9-12.9-3.8c-0.1,0-0.2-0.1-0.4-0.1
		c-0.3,0-0.7,0.1-1.1,0.2c-2.6,0.7-5.2,1-7.8,1c-0.5,0-1,0-1.5,0c-0.5,0-1,0-1.5,0c-1.6,0-3.2,0.2-4.5,1.6c-0.3,0.3-0.6,0.4-1,0.4
		c-0.6,0-1.3-0.2-2.1-0.3c1.2,1.9,1.5,3.9,3.7,4.8c1.4,0.6,2.8,1.4,3.6,2.9c0.7,1.4,0.6,2.6-0.6,3.9c3.4-1.6,5.5-4.8,5.1-7.8
		c-0.2-1.4-0.9-3,0.9-4c0.4-0.2,0.8-0.3,1.3-0.3c0.5,0,1,0.2,1.5,0.6c1.2,1.2,2.5,2.5,2.1,4.4c-0.9,4.1-3,7.5-6.7,9.6
		c-3,1.7-3.4,2.9-1.6,5.9c1.1-0.3,1.4-1.3,1.8-2.1c1.9-3.8,5.7-5.6,9.6-5.6c4,0,7.9,1.9,9.7,5.2c1.2,2.3,1.4,5.5,4.8,6
		c0.5,0.1,0.9,0.1,1.4,0.1c3.1,0,5.7-1.4,8.3-3c3.3-1.9,6.2-4.6,10-5.7c1.9-0.6,3.9-1.2,5.7-1.2c1.8,0,3.6,0.6,5.2,2.4
		c0.4,0.4,0.7,0.6,1.1,0.6c0.5,0,1-0.4,1.4-1.4c1.7-3.8,4.4-5.6,7.9-5.6c1.3,0,2.6,0.2,4.1,0.7c1.3,0.4,2.8,0.6,4,1.3
		c3.4,2,4.7,5,3.7,8.8c-0.2,0.9-0.1,1.8-0.2,2.7c-0.1,0.8-0.4,1.7-1.2,1.7c-0.1,0-0.2,0-0.2,0c-0.4-0.1-0.8-0.2-1-0.2
		c-1.1,0-0.5,1.1-0.5,2.1c0,2.4-0.2,4.9-0.4,7.3c-0.1,0.7-0.6,1-1.3,1c-0.1,0-0.1,0-0.2,0c-1-0.1-1.7-0.7-1.9-1.7
		c-0.6-2.4-0.5-4.7-0.5-7.2c0-2.3,1-4.8-1.2-6.8c-0.8-0.7-1.7-1.1-2.7-1.1c-0.9,0-1.9,0.4-2.7,1.1c-1.2,1.1-1.9,2.6-2.8,4
		c-1.3,2-3.2,3-5.2,3c-1.5,0-3-0.6-4.3-1.8c-0.9-0.8-1.7-1.3-2.5-1.3c-1,0-1.8,0.8-2.5,2.4c-0.6,1.5-0.9,3.2-1.2,4.8
		c-0.2,1.7-0.2,3.4,1.5,4.6c1.3,0.9,1.4,2.6,1.3,4.1c-0.2,1.6,0.5,2.3,2,2.5c0.8,0.1,1.6,0.2,2.4,0.5c1.2,0.4,1.6,1.3,1.6,2.2
		c0.1,0.9-0.4,1.8-1.4,2.2c-2,0.9-4.1,1.6-6.4,1.8c-4.4,0.4-8.8,0.9-13.2,1.9c-1.6,0.4-2.2,1.3-2.4,2.7c-0.5,3.3-1.5,4.3-5,5.3
		c-6.9,2-14,2.5-21.1,3.2c-3.7,0.4-7.4,1-11.1,1c-1.3,0-2.6-0.1-3.9-0.3c-0.1,0-0.1,0-0.2,0c-0.3,0-0.6,0.1-0.7,0.2
		c-3.8,3.4-8.6,3.1-13.2,3.7c-8.8,1.2-17.7,0-26.5,1.7c-3.9,0.7-7.8,1.9-11.6,2.9c-5.4,1.4-10.9,1.6-16.4,2.1
		c-5.9,0.5-11.8,1-17.8,1c-2.2,0-4.4-0.1-6.6-0.3c-2.5-0.2-4.9-0.3-7.4-0.3c-4.7,0-9.3,0.3-14,0.7c-3.9,0.3-7.7,0.4-11.5,0.4
		c-4.7,0-9.5-0.1-14.2-0.1c-1,0-2,0-3,0c-4.6,0.1-9.3,0.5-13.9,0.5c-1.2,0-2.3,0-3.5-0.1c-10.6-0.6-21.2-0.9-31.5-4.2
		c-6-1.9-12.4-2.5-18.6-3.7c-6.9-1.4-13.9-1.6-21-1.7c-6.1-0.1-12-1.9-17.9-3.1c-8.3-1.7-15.8-5.7-23.9-7.8c-3.7-1-7.4-2-11.2-2.9
		c-2.1-0.5-4-1.3-5.7-2.3c-4.5-2.6-9.6-3.8-14.4-5.6c-2.2-0.8-4.3-1.8-6-3.3c-1.9-1.7-2-3.3-0.1-5.1c0.9-0.8,0.9-1.3-0.3-1.7
		c-1.1-0.4-2.1-1.1-2.2-2.4c0-1.1,0.2-1.9,1.1-1.9c0.3,0,0.6,0.1,0.9,0.2c0.4,0.1,0.8,0.3,1.1,0.3c0.3,0,0.5-0.1,0.7-0.4
		c0.3-0.5,0.1-1.3-0.3-1.9c-1.3-1.7-2.4-3.6-4.2-4.8c-2.6-1.7-3.9-4.1-4-7.2c0-1.1-0.4-2.3,0.9-2.8c0.3-0.1,0.6-0.2,0.9-0.2
		c0.8,0,1.6,0.4,2.3,1c2.9,2.3,5.1,5.3,5.5,8.9c0.3,2.8,2.1,3.9,4.1,4.3c1.7,0.3,3.4,0.9,5.1,0.9c1.5,0,2.9-0.4,4.3-1.9
		c0.2-0.3,0.7-0.4,1.2-0.4c0.3,0,0.7,0.1,1.1,0.2c0.7,0.3,1.4,0.4,2,0.4c2.2,0,3.5-1.6,3.7-4.4c0.4-4.4,0-8.9,0.4-13.3
		c0.6-6.3,4.4-11.1,9.2-15c4.5-3.8,10.1-5.1,15.7-6.2c3.2-0.7,6.4-0.9,9.6-0.9c3.4,0,6.9,0.3,10.3,0.8c0.7,0.1,1.5,0.1,2.3,0.1
		c1.3,0,2.7-0.1,4.1-0.1c-0.2-1.3-0.9-2.4,0.2-3.6c0.7-0.8,1.3-1.1,2-1.1c0.5,0,1.1,0.2,1.6,0.5c0.6,0.4,1.3,0.6,1.8,0.6
		c0.8,0,1.5-0.4,2.1-1.2c0.8-1.2,0.4-4.6-0.5-5.3c-0.2-0.2-0.4-0.2-0.5-0.2c-0.4,0-0.7,0.4-1,0.5c-1.9,0.9-3.4,2.3-5.1,3.4
		c-2.9,1.9-5.8,2.6-8.7,2.6c-3.2,0-6.4-0.8-9.6-1.8c-8-2.5-11.5-9.1-12.7-16.7c-0.6-3.8,0.9-7.4,3-10.7c0.5-0.7,1.1-1,1.8-1
		c0.6,0,1.3,0.2,1.8,0.4c1.8,0.7,2.5,2.4,2.1,4.3c-0.3,1.5-0.6,3.1-1.1,4.5c-2.2,5.9,0.4,11.8,6.4,13.9c2.1,0.7,4.2,1.1,6.1,1.1
		c3.1,0,6-0.9,8.8-3c0.2-0.1,0.4-0.3,0.6-0.5c1.3-1.6,3.7-3.3,3.6-4.8c-0.1-1.5-3.2-1.3-5-2c-9.2-3.6-13-11.7-10.8-21.2
		c2.3-9.9,9.3-16.2,17.2-21.7c0.5-0.4,1.1-0.7,1.7-1.1c-1.2-1.2-2.2-2.3-3.8-2.3c-0.3,0-0.5,0-0.8,0.1c-0.1,0-0.2,0-0.3,0
		c-0.8,0-1.2-0.9-1.5-1.7c-1.5-3.1-4.7-3.2-7.5-3.4c-0.2,0-0.4,0-0.6,0c-2.4,0-4.9,0.6-5.8,3.6c-0.3,0.9-0.9,1.3-1.6,1.3
		c-0.3,0-0.5-0.1-0.8-0.2c-0.5-0.3-0.8-0.4-1.1-0.4c-0.8,0-1.1,0.8-1.4,1.5c-0.7,1.6-1.5,3.1-1.3,5c0.1,0.4,0.1,0.9,0,1.2
		c-0.5,1.1-0.4,2.9-1.9,2.9c-0.1,0-0.1,0-0.2,0c-1.4-0.1-1.5-1.8-1.4-3.1c0-1,0.1-2,0-3c0-0.6,0.4-1.5-0.5-1.7c-0.1,0-0.1,0-0.2,0
		c-0.5,0-0.8,0.6-1.2,1c-0.9,1.1-1.6,2.3-1.6,3.8c0.2,3.7-0.9,7.3-1.5,10.9c-0.4,2.4,0.4,5-0.4,7.5c-0.3,0.8-0.3,1.7-1.3,1.7
		c0,0-0.1,0-0.1,0c-1.3-0.1-0.9-1.1-1-1.9c-0.2-1.5-0.1-3-0.1-4.5c0-2.8-0.4-5.3-2.6-7.6c-2.9-3.1-1.9-6.8,0.2-10.1
		c4.9-7.9,11.7-12.8,21.1-13.5c1.6-0.1,2.7-1.1,3.9-2c0.6-0.5,1.1-0.7,1.6-0.7c0.5,0,1,0.3,1.4,0.8c1,1.4,2.4,1.7,3.9,1.8
		c6.1,0.1,10.7,3.5,15,7.3c0.6,0.6,1.1,0.9,1.6,0.9c0.4,0,0.7-0.1,1.2-0.4c7.6-4.3,15.8-7,24-9.9c4.8-1.7,10-2.5,15-3.7
		c4.9-1.1,5.9-2.7,4.6-7.8c-0.1-0.4-0.3-0.8-0.3-1.2c0-1.9-0.6-2.8-2.1-2.8c-0.4,0-0.9,0.1-1.5,0.2c-1.4,0.4-2.9,0.5-4.4,0.5
		c-1.6,0-3.2-0.2-4.8-0.4c-0.3,0-0.6-0.1-0.9-0.1c-1.5,0-2,0.6-1.9,2.4c0,0.6-0.1,1.2-0.1,1.7c0.2,1.5-1,1.9-2,2.1
		c-0.1,0-0.2,0-0.4,0c-0.8,0-1.4-0.7-1.5-1.6c-0.5-4-2.4-6.7-5.8-9.4c-6.5-5.3-7.3-16.7-3-23.1c2.6-4,6.4-5.9,11-6.8
		c2.8-0.5,5.7-0.9,7.5-3.8c1.1-1.7,0.4-5.3-1.6-5.6c-1.5-0.3-2.9-0.4-4.2-0.4c-3.1,0-5.6,1-7.5,4.8c-0.7,1.5-1.8,2.8-3.7,3
		c-0.2,0-0.5,0-0.7,0c-1.1,0-2.1-0.4-2.8-1.5c-1-1.7-0.4-5.4,1.2-7c2.1-2.2,4.5-3.9,7.4-4.9c2.5-0.9,4.9-1.3,7.3-1.3
		c5.1,0,9.7,2.2,12.8,7.5c2.7,4.6,2.4,9.7-3.2,12.4c-2.4,1.2-1.9,2.3-0.4,3.5c2,1.8,4.2,3.3,7,3.9c0.3,0.1,0.6,0.1,0.8,0.1
		c0.9,0,0.9-0.5,1-1.6c0.5-3.7,0.2-7.7,2-11.1c3.4-6.3,7.3-12.1,13.5-16.3c5.9-4,12.4-6.3,18.7-9.3c0.7-0.3,1.2-0.5,1.3-1.5
		c0.3-6.6,5.1-10.2,9.3-14.3c2.2-2.1,4.7-3.2,7.5-3.9c1-0.2,1.9-0.3,2.8-0.3c3.3,0,6.3,1.4,9.2,2.8c2.5,1.2,5,2.5,7.9,2.5
		c0,0,0.1,0,0.1,0c1.5,0,2.8-0.3,3.6-1.8c0.4-0.7,1.1-1.1,1.9-1.3c3.5-1.1,5.1-3.8,6.2-7.2c-0.9,0-1.1,1.2-1.8,1.2
		c-0.2,0-0.3-0.1-0.5-0.2c-1.1-0.7-1.7-1.6-1.7-2.9c-0.1-4.1,0.1-8.1,0.7-12.1c0.7-5.5,0.9-11.2-1.3-16.7c-1,1-0.9,2-0.9,3
		c0,2.9,0,5.8,0,8.8c0,1.1-0.5,2.1-1.3,2.1c0,0,0,0-0.1,0c-1,0-1.1-1.1-1.2-2.1c-0.1-2.5,0.4-4.9-0.5-7.3c1-1.2,0.6-2.5,0-4.4
		c-0.7,1.9-0.4,3.2-0.5,4.4c-0.4,0.8-1,1.6-1.9,1.6c-0.1,0-0.2,0-0.4,0c-1.1-0.3-1.2-1.4-1.2-2.5c0-0.5-0.1-1-0.1-1.5
		c0-0.8-0.2-1.5-1.1-1.7c-0.2,0-0.3-0.1-0.4-0.1c-0.6,0-1.1,0.4-1.5,0.9c-1.1,1.2-1.2,2.7-1.1,4.2c0.2,3.2,0.5,6.4,0.6,9.6
		c0.1,1.7-0.1,4.2-1.9,4.2c0,0,0,0,0,0c-1.6,0-1.8-2.5-1.9-4.1c-0.3-3.8-0.2-7.7-0.3-11.5c0-2.3-0.5-4.5-1.8-6.8
		c-0.6,1.1-1.1,2.1-2.2,2.1c-0.1,0-0.3,0-0.5-0.1c-1.1-0.3-1.9-1.1-2.1-2.3c-0.2-1-0.4-2.1-0.5-3.2c-0.1-1.1,0.5-2.5-1.4-2.6
		c-0.1,0-0.3-0.2-0.3-0.3c0.2-3.1-3-5.6-1.8-9c0.4-1.2,0.3-2.2-0.9-3.5c-1.7-1.8-1.4-4.5-0.5-6.8c1.3-3.6,2.4-7.3,5.5-9.9
		c0.5-0.4,0.8-1.1,1.4-1.4c1.7-1.1,3.7-1.8,2.9-4.5c-0.2-0.8,0.8-1.8,1.5-2.1c3.7-1.4,5.3-5.2,8.4-7c3.2-1.9,5.4-5,9.4-5.8
		c2.5-0.5,5-2,7.3-3.6c1.4-1,2.9-1.7,4.6-1.7c0.6,0,1.2,0.1,1.9,0.3c0.5,0.2,0.9,0.3,1.3,0.3c0.6,0,1.1-0.2,1.4-0.7
		C261,20.8,262.1,20.2,263.3,20.2 M286.7,104.1c0.1,0,0.2,0,0.3,0c0.6-0.2,1-0.7,1.2-1.4c0.4-1.5,0.6-3.1,0.5-4.7
		c-0.2-4.3-1.8-8.4-1.6-12.7c0-0.4-0.2-0.8-0.6-0.9c-2.2,5.3-1.9,10.8-1.7,16.3c0,0.8,0.5,1.5,0.8,2.3
		C285.8,103.5,286.1,104.1,286.7,104.1 M253.8,111.3c1.7-7.2,4.3-14.3,0.2-21.7c-1.3,0.5-1.8,1.4-2.1,2.2c-0.7,2.3-0.6,4.8-0.6,7.1
		C251.4,103.1,252.2,107.3,253.8,111.3 M280.1,101.2c0.2-1.1,0.4-2.2,0.6-3.3c1-2.4,0.2-4.8,0.3-7.3c-0.7,1.1-0.9,2.4-0.8,3.7
		C280.1,96.6,279.3,98.8,280.1,101.2 M263.6,105.1c1.3,0,0.9-1.7,1.3-2.5c0.2-0.4,0.3-0.8,0.4-1.2c0.5-3.2,0.7-6.4-0.4-9.5
		c-0.2-0.6-0.4-1.1-1.2-1.1c0,0,0,0,0,0c-0.9,0-0.7,0.8-0.9,1.3c-0.8,2-0.9,4-0.6,6.1c0,1.4-0.2,2.9,0.1,4.2c0.2,0.9,0,2.6,1.2,2.7
		C263.5,105.1,263.6,105.1,263.6,105.1 M208.9,140.8c1-0.1,2-0.1,3-0.1c1,0,1.9,0,2.9,0c2.4,0,4.8-0.2,7.1-1.2
		c1.2-0.6,2.2-2.7,1.6-3.8c-1.1-2-4.8-3.3-7.7-3.3c-1,0-1.9,0.2-2.6,0.5C209.7,134.4,208.6,137.1,208.9,140.8 M341.7,162.4
		c8.1,0,15.5-3,23-5.7c0.6-0.2,0.9-0.5,0.7-1.3c-1.2-5.3-4.4-9.2-8.8-12.3c-0.3-0.2-0.6-0.2-1-0.2c-0.1,0-0.3,0-0.4,0
		c-0.3,0-0.5,0.1-0.8,0.1c-0.9,0-1.7-0.3-2.2-1.2c-0.3-0.5-0.7-0.6-1-0.6c-0.4,0-0.8,0.1-1.2,0.2c-0.7,0.1-0.9,0.8-1,1.5
		c-0.1,1.6-0.2,3.8-2.1,3.8c0,0-0.1,0-0.1,0c-1.9-0.1-1.8-2.4-1.9-4c-0.1-1.8-0.7-3.3-2.7-3.3c-0.1,0-0.1,0-0.2,0
		c-4,0.2-7.8,1.4-11,3.8c-1.1,0.8-1.7,1.8-1.2,3.6c1.1,3.9,3,7.5,3.2,11.6c0.1,1.9,1.3,2.9,3.1,3.3c1.8,0.3,3.6,0.6,5.4,0.9
		C341.6,162.4,341.7,162.4,341.7,162.4 M405.8,204.8c0.9,0,1.9-0.1,3.2-0.4c0.1,0,0.2,0,0.2-0.1c6.8-1,11.8-4.9,16.5-9.7
		c3.1-3.2,5.1-7.1,7.5-10.8c3-4.7,5.5-9.6,5.8-15.3c0.4-10.1-3.6-18-12-23.7c-1.5-1-3.1-1.9-4.9-1.9c-0.6,0-1.1,0.1-1.7,0.3
		c-3.4,1-6.2,2.8-8.3,5.7c-2.6,3.6-3.6,7.9-4.7,12.1c-1.3,5-1.6,10.4-2.9,15.4c-1.7,6.4-1.8,13-2.8,19.5c0,0.8,0,1.7,0,2.5
		C401.6,203,402.6,204.8,405.8,204.8 M218.4,154.3c0.7,0,1-0.5,1-1.3c0-2-1.9-3.8-4-3.9c0,0-0.1,0-0.1,0c-0.9,0-1.5,0.4-1.6,1.4
		c-0.2,1.7,2.3,3.8,4.5,3.9C218.3,154.3,218.3,154.3,218.4,154.3 M211,155.3c0.3,0,0.5-0.1,0.8-0.3c0.5-0.5,0.1-0.7-0.2-1
		c-1.4-1-1.9-2.8-3.1-4.1c-1,2.1,0.1,4.9,2.1,5.4C210.7,155.3,210.9,155.3,211,155.3 M181.2,167.6c-0.1,0-0.1,0-0.2,0
		c-1.6-0.1-1.2-1.9-1.3-3.1c0-0.1-0.1-0.3-0.3-0.5c-4.5,4.4-6.6,9.7-6.3,16.2c2.9-0.9,5-2.1,6.5-4.5c1.6-2.5,3.7-4.7,5.9-6.6
		c4.3-3.7,8.7-7.2,13.7-9.7c1.3-0.7,3.5-0.9,3.8-1.9c0.4-1.2-1.5-2.5-2.2-3.8c-0.2-0.4-0.2-0.8-0.4-1.2c-0.3-0.6-0.6-0.9-1.1-0.9
		c-0.3,0-0.5,0.1-0.9,0.3c-3.6,1.9-7.2,3.9-10.9,5.6c-3,1.5-5,3.5-5.1,7.1C182.4,165.6,182.8,167.6,181.2,167.6 M389.4,191.9
		c-0.2,0-0.5,0-0.8-0.1c-0.1,0-0.2,0-0.3,0c-0.4,0-0.5,0.4-0.7,0.8c-1.8,5-4.3,9.6-7.6,13.7c-1.8,2.3-0.4,2.4,1.3,2.6
		c0.7,0.1,1.4,0.1,2.1,0.1c4.4,0,7.9-1.8,9.5-5.2c3.2-6.7,4.9-13.9,5.9-21.1c0.9-6.5,1-13,0.3-19.6c-0.3-2.7-2.4-4.9-5-4.9
		c-0.2,0-0.3,0-0.5,0c-1,0.1-1.8,0.2-1.6,1.8c0.3,2.1,0.1,4.2,0.1,6c0.5,8-2.1,15.5-1.2,23.3c0,0.1,0,0.2,0,0.2
		C390.7,190.5,390.7,191.9,389.4,191.9 M206.6,175.3c-0.1,0-0.3,0-0.4,0c-1.5-0.3-0.5-1.7-1-2.5c-0.1-0.1-0.1-0.3-0.1-0.5
		c-0.2-0.5,0.2-1.3-0.5-1.3c0,0-0.1,0-0.1,0c-0.7,0.1-1.2,0.6-1.3,1.4c0,0.9-0.2,1.8,0.3,2.7c0.7,1.2,0.7,2.6,0.5,3.9
		c-0.2,1.4-0.5,3.1-2.1,3.1c-0.1,0-0.2,0-0.3,0c-1.8-0.3-2.1-2.1-1.9-3.8c0-0.2,0.2-0.3,0.2-0.4c0.2-1.8,0.6-4.3-0.5-5
		c-0.6-0.4-1.2-0.5-1.9-0.5c-1.2,0-2.5,0.5-3.8,1.1c-4,1.9-7.1,4.6-8.8,8.5c-1.2,2.7-2.4,5.1-4.9,6.9c-1.2,0.8-1.8,2.3-0.6,3.6
		c3.4,3.6,7.4,6.6,12,8.6c0.4,0.2,0.8,0.4,1.2,0.4c0.4,0,0.8-0.2,1.2-0.7c1.9-2.4,4.6-4,6.4-6.6c0.3-0.4,1.1-0.7,0.9-1.4
		c-0.2-0.6-0.8-0.8-1.4-0.8c-0.1,0-0.2,0-0.2,0c-0.1,0-0.2,0-0.3,0c-3.1,0-5.4-1.8-7.5-3.7c-2.1-1.8-3.1-4-2.8-6.8
		c0.1-0.9,0.2-1.8,1.1-2.1c0.4-0.1,0.7-0.2,1.1-0.2c0.6,0,1.1,0.2,1.7,0.6c1.3,0.9,1.7,2.4,2.4,3.7c1.3,2.2,3.9,3.7,6.4,3.7
		c0.8,0,1.6-0.2,2.3-0.5c1.2-0.6,3.2-1.1,2.9-3c-0.7-3.7,0.7-6.8,2.6-9.8c0,0,0,0,0,0c0.9-1.2,1.7-2.4,2.7-3.5
		c0.5-0.6,1.1-1.1,0.5-1.9c-0.4-0.6-1.1-0.7-1.7-0.7c-0.2,0-0.4,0-0.6,0c-1,0.1-1.1,0.8-1.2,1.6c-0.1,1.5-0.1,3-0.2,4.5
		C208.1,174.4,207.6,175.3,206.6,175.3 M365.2,187.3c2.4-3.8,2-10.3-0.9-13.6C364.3,178.4,363.9,182.8,365.2,187.3 M360.6,183.7
		c0-2.7,1-5.5-0.6-7.7c-0.5-0.7-1.1-0.9-1.8-0.9c-1.2,0-2.5,0.7-3.8,0.8c-0.6,0-1.1,0.4-1.8,0.6
		C355.3,178.9,357.8,181.1,360.6,183.7 M154.8,195.2c3.4,0,6.4-1.7,9.6-3c0.4-0.2,0.7-0.4,0.3-0.9c-1.7-2-1.1-4.7-2-7
		c-0.4-0.9-0.6-1.4-1.5-1.5c-4.7-0.5-8.7-2.9-12.6-5.2c-1.4-0.8-2.5-1.3-3.5-1.3c-1.1,0-2.1,0.5-3.4,1.6c-2.5,2.1-3.4,5.9-2.3,8.2
		C142.4,192.6,148,194.8,154.8,195.2C154.8,195.2,154.8,195.2,154.8,195.2 M341.3,200.8c0.8-4.6-0.4-9-1.1-13.4
		c-0.3-2.1-1.2-3.4-3.1-4.2c-1.6-0.6-3.1-1.2-4.8-1.9c-0.3,2.2-0.5,4.3-0.9,6.3c-0.2,0.9-0.2,1.4,0.5,1.9
		C335.7,192.6,339.4,195.9,341.3,200.8 M353.3,205.4c0.4,0,0.8-0.1,1.1-0.2c1.7-0.7,2.1-2.6,3.1-3.9c0.6-0.8-0.7-1.4-1.1-2
		c-3.4-4.5-7.8-8-12.2-11.7c0.5,5.2,1.6,10,3.8,14.5C348.7,203.8,351.2,205.4,353.3,205.4 M165,214.6c0.3,0,0.6-0.1,1-0.2
		c2.5-0.8,5-1.4,7.5-2.1c1.7-0.5,3.3-1.2,5-1.9c-1.8-2.3-2.6-3.2-3.2-3.2c-0.5,0-0.9,0.5-1.6,1.5c-0.5-0.3-0.8-0.7-1.1-1.3
		c-0.8-2-1.7-4.1-2.7-6c-0.3-0.5-0.6-1.8-1.3-1.8c-0.1,0-0.2,0-0.4,0.1c-1.5,0.8-3.8,0.2-4.5,2.2c-1.2,3.5-1.6,7.2-0.5,10.9
		C163.4,213.8,163.9,214.6,165,214.6 M325.3,210.8C325.3,210.8,325.2,210.8,325.3,210.8c-1,0-1.2-0.8-1.1-1.6c0-0.7,0-1.5,0-2.4
		c-1,0.5-1,1.1-1,1.6c0,3,0.6,5.9-0.2,8.9c-0.1,0.5,0.1,0.7,0.3,0.7c0.2,0,0.4-0.1,0.5-0.2c1.7-1.7,3.5-3.4,5.5-4.8
		c0.3-0.2,0-0.6,0-0.9c0.6-3.3-1.8-5.8-2.1-8.9c0-0.1-0.2-0.2-0.3-0.3c-1,2-0.2,4.1-0.2,6.2C326.6,210.1,326.2,210.8,325.3,210.8
		 M262.2,220.4C262.1,220.4,262.1,220.4,262.2,220.4L262.2,220.4C262.1,220.4,262.1,220.4,262.2,220.4c-1.5,0.4-3,0.4-3.4,2.3
		c-0.1,0.4-0.5,1,0.2,1.2c0.1,0,0.3,0.1,0.4,0.1c0.3,0,0.6-0.1,0.8-0.6C260.6,222.3,261.8,221.6,262.2,220.4
		C262.1,220.4,262.1,220.4,262.2,220.4L262.2,220.4C262.1,220.4,262.2,220.4,262.2,220.4C262.2,220.4,262.2,220.4,262.2,220.4
		c0.1,0,0.2,0,0.3,0c0.5,0,0.8-0.4,1.2-0.7c0.8-1.1,2.2-0.5,3.1-1.3c0.1,0,0.2,0,0.3,0c1.2,0,2.2,0.4,2.5,1.6
		c0.3,1.3-0.1,2.4-1.2,3.3c-1.2,0.9-2.4,1.8-3.5,2.7c-0.6,0.5-0.5,1-0.2,1.7c0.2,0.4,0.4,0.5,0.6,0.5c0.3,0,0.5-0.2,0.8-0.3
		c0.4-0.1,0.8-0.1,1.2-0.2c0.3-0.1,0.5-0.1,0.8-0.1c2,0,4.6,1.6,5,3.3c0.2,0.9-0.1,1.6-0.9,2.2c-2,1.5-1.9,2.3,0.3,3.2
		c3.9,1.7,6.2,4.6,7.5,8.6c0.8-0.4,1.5-0.9,2.3-1.3c3.9-1.9,7.9-3.9,12.3-3.9c0.6,0,1.2,0,1.8,0.1c0.3,0,0.7,0.1,1,0.1
		c2.2,0,3.2-1.3,4.1-3.2c0.6-1.2,0.4-1.7-0.6-2.2c-2.6-1.2-5.2-2.3-7.5-4.2c-0.2,1.3-0.5,2.5-2,2.5c0,0-0.1,0-0.1,0
		c-1.4,0-1.6-1.1-1.8-2.3c-0.2-1.4-0.8-2.6-1-4c-0.2-1.3-1.2-2.1-2.5-2.1c-0.3,0-0.5,0-0.8,0.1c-1.4,0.3-1.1,1.5-1.1,2.4
		c0.1,2-0.2,3.9,0.4,5.9c0.4,1.6-0.1,3.3-1.6,4.4c-0.4,0.3-0.9,0.5-1.4,0.5c-0.4,0-0.8-0.1-1.2-0.4c-1.5-1.1-1.2-2.6-1.2-4
		c0-0.2,0-0.5,0.1-0.7c0.7-3.1-0.1-6.1-1.3-8.9c-0.5-1.2-1.5-1.6-2.5-1.7c-2.8-0.1-4.6-1.2-5.3-3.9c-0.4-1.5-1.3-1.9-2.5-1.9
		c-0.4,0-0.9-0.1-1.3-0.1c-0.9,0-1.6,0.2-1.9,1.6c-0.7,0.4-1.1,1-1.4,1.7C262.6,219.5,262,219.6,262.2,220.4 M343.6,224.3
		c1.4-2.2,3.2-4.1,4.8-6.4c-0.5-0.1-1-0.1-1.4-0.1c-1.7,0-2.7,0.6-2.7,2.8C344.3,221.8,343.9,223,343.6,224.3 M180.7,222
		c-0.2,0-0.3,0-0.5-0.1c-0.5-0.1-1-0.2-1.5-0.2c-2.1,0-3.4,1.3-4.5,3.3c-0.4,0.6-0.9,1-1.4,1c-0.4,0-0.8-0.3-1.1-0.9
		c-0.9-2-2.5-2.4-4.2-2.4c-0.3,0-0.6,0-1,0c-5.7,0.4-11.3,1.6-16.6,3.4c-8.4,2.9-16.6,6.6-24.9,9.9c-4,1.6-4,1.6-2.3,5.5
		c0.6,1.3,1.1,2.6,1.4,4c0.7,2.7,1.5,5.3,2.7,7.9c1.7,3.9,4.7,6.8,7.2,10.2c1.4,2,3.8,3,5.8,3c0.8,0,1.5-0.2,2.1-0.5
		c-3.5-1.2-6.7-2.8-8.7-6c-3.7-6-3-12,0.8-17.6c3-4.3,7.6-5.8,12.7-5.8c0.2,0,0.5,0,0.8,0c1.3,0,2.6,0.4,3.6,1.3
		c2.3,2,3.6,5.5,2.4,7.8c-1.6,3.2-4.6,4.9-8,5.4c-0.7,0.1-1.3,0.2-2,0.2c-1.9,0-3.6-0.6-4.6-2.7c0.1-2.4,1.3-3.5,3.5-3.5
		c0.2,0,0.3,0,0.5,0c0.1,0,0.3,0,0.5,0c0.4,0,0.8,0,1.1,0c0.2,0,0.4,0,0.6,0c0.1,0,0.2,0,0.3,0c1.3,0,2.4-0.9,2.4-1.9
		c0-1.3-1.1-1.8-2.3-1.8c-0.3,0-0.5,0-0.7,0.1c-3,0.6-5.3,2.3-6.3,5.5c-0.9,0.4-0.9,1.2-1,2.1c-0.4,3.4,0.8,6,3.7,7.7
		c1.7,1,3.5,1.8,5.6,1.8c1,0,2-0.2,3.2-0.6c-0.9-0.3-1.3-0.5-1.8-0.6c-1.3-0.4-2.2-1.1-2.4-2.5c-0.2-1.4,0.8-2.1,1.7-2.8
		c0.9-0.7,1.9-1,2.8-1c1,0,2,0.3,3.1,0.7c0.4,0.2,0.8,0.3,1.1,0.3c0.5,0,0.7-0.4,0.3-1.5c-0.3-0.9,0-2,1.1-2.2
		c3.4-0.9,2.9-3,2.1-5.5c-0.2-0.8,0-1.7,0-2.5c-0.1-1.5,0.6-2.6,2.1-3c0.3-0.1,0.6-0.1,0.8-0.1c1.1,0,2,0.7,2.7,1.8
		c0.9,1.4,0.8,3.2,1.5,4.6c0.3,0.7,0.6,1.8,1.3,1.8c0.2,0,0.4-0.1,0.6-0.2c0.7-0.4,1.2-0.6,1.7-0.6c0.7,0,1.4,0.4,2,1.1
		c0.2,0.2,0.5,0.7,0.9,0.7c0.2,0,0.3-0.1,0.5-0.2c0.6-0.5,0.9-1.1,0.9-2c-0.1-0.6-0.3-0.7-0.7-0.7c-0.2,0-0.4,0-0.6,0c0,0,0,0,0,0
		c-1.7,0-2.6-1-3.6-2.3c-2.6-3.3,0.3-10.4,4.6-11.7c0.3-0.1,0.5-0.1,0.7-0.1c0.5,0,0.9,0.2,1.3,0.6c0.6,0.6,1,1.3,0.4,2.2
		c-0.6,1-1.1,2-1.6,3c-1.8,0.5-3.4,1-1.7,3.8c0.4-2.7,2.2-3.1,4-3.6c0.2,0,0.4-0.1,0.6-0.2c0.1-2.6,1.2-4.7,3.7-5.2
		c1.5-0.4,2-1.2,2.4-2.3c0.9-2.5,2.3-4.3,4.9-4.3c0.5,0,1,0.1,1.5,0.2c0.1,0,0.2,0,0.3,0c0.6,0,1.3-0.4,1.5-1
		c0.3-0.7-0.4-1.1-0.9-1.6c-1.3-1.1-2.4-1.7-3.5-1.7c-1.1,0-2.2,0.5-3.7,1.5C182.2,221.4,181.5,222,180.7,222 M250.5,228.8
		c0.3-1.8,0.8-2.9,1.9-3.8c1.3-1,0.9-2.4,0.1-3.3c-0.4-0.5-1.2-1-2-1c-0.3,0-0.5,0.1-0.8,0.2c-1.2,0.6-1.2,1.9-0.9,3.1
		C249.3,225.5,249.8,226.9,250.5,228.8 M370.3,234.4c-0.4-4.1,0.4-8.1-1.7-12.1c-2.5,2.7-4.7,5.4-7.7,7.9
		C364.4,231.2,367.1,233,370.3,234.4 M259.4,231.9c-0.7-1.6-0.4-3-1.7-4.1C257.7,229.4,257,230.9,259.4,231.9 M248,247.5
		c0.2,0,0.4,0,0.5,0c2-0.1,4.1-0.3,4.3-3.4c0.3-2.8,0.4-5.6,0.4-8.4c0-0.6-0.2-1-0.7-1.5c-1.3-1.2-2-2.8-2-5.3
		c-0.8,2.3-0.9,4.8-2.8,5.1c-3.2,0.4-4.4,3-6.3,4.7c-2.2,1.9-1.8,5.6,0.5,7C243.8,246.8,245.8,247.5,248,247.5 M258.1,243.4
		c2.5-2,2.7-3.9,0.5-6.5c-0.2-0.3-0.3-0.6-0.6-0.8c-0.1,0-0.1-0.1-0.1-0.1c-0.2,0-0.3,0.2-0.3,0.4
		C258,238.7,257.2,241.1,258.1,243.4 M314.9,241c0.7,0,1.2-0.3,1.4-1.2c0.1-0.4,0.1-0.9-0.4-1c-0.1,0-0.2,0-0.3,0
		c-1.2,0-1,1.3-1.7,2C314.3,240.9,314.6,241,314.9,241 M355.8,263.9c0.4,0,0.8-0.4,1.2-0.7c5.5-3.4,7.8-8.9,9.6-14.8
		c0.1-0.3,0.1-0.7,0-0.9c-0.5-1.5-4.3-4.1-6.2-4.1c-0.1,0-0.1,0-0.2,0c-2.2,0.2-1.9,2.3-2.5,3.7c-0.1,0.2-0.1,0.5-0.3,0.7
		c-0.5,0.7-0.9,1.2-1.4,1.2c-0.4,0-0.8-0.3-1.3-1c-0.8-1.2-0.9-2.7-1.5-3.8c-0.4-0.8-0.9-2-1.8-2c-0.3,0-0.7,0.2-1.1,0.5
		c-2.5,2.1-4.9,4.4-6.6,7.5c1.3,0.6,2.7,0.2,3.9,0.8c1.2,0.6,2.4,1.4,3.6,1.9c4,1.6,4.9,6.2,4.3,9.5c-0.1,0.6-0.5,1.2,0,1.5
		C355.5,263.8,355.7,263.9,355.8,263.9 M270.3,246.9c0.1,0,0.2,0,0.2,0c0.2,0,0.4,0,0.6,0c0.8,0,1.7,0.2,2.4,1.2c0-1,0.1-1.4,0-1.8
		c-0.4-1.8-0.9-2.6-1.6-2.6c-0.5,0-1.2,0.4-2.1,1.2c-0.5,0.4-0.8,0.7-0.7,1.3C269.3,246.7,269.8,246.9,270.3,246.9 M111,246.2
		c-0.3,0-0.7-0.1-1-0.1c-0.4,0-0.9,0.1-1.2,0.7c-0.4,0.8-0.7,1.6-0.8,2.5c-0.2,1.9-0.5,3.9-0.9,5.8c-0.1,0.7-0.6,1.5-1.4,1.5
		c0,0-0.1,0-0.1,0c-1-0.1-0.7-1.1-0.8-1.8c-0.1-1.1,0-2.3,0-3.4c-0.2-0.1-0.4-0.1-0.6-0.2c-1.7,2.4-3.7,4.7-4.9,7.3
		c-1.7,3.5-1.8,10.2,3,13.1c0.7,0.4,1.2,0.7,1.7,0.7c0.6,0,1-0.5,1.5-1.5c1.2-2.7,2.9-4.9,6-5.8c0.3-0.1,0.6-0.1,0.9-0.1
		c0.9,0,1.5,0.5,2.1,1.3c0.8,1.1,0.7,1.9-0.1,2.8c-0.7,0.7-1.3,1.5-1.8,2.3c-0.8,1.2-0.7,2,0.9,2.5c0.4,0.1,0.8,0.2,1.2,0.2
		c0.8,0,1.4-0.4,2-1.1c1.2-1.5,1.1-3.1,0.5-4.9c-0.4-1.4,0.1-2.8,1.6-3.2c0.2-0.1,0.4-0.1,0.6-0.1c1.2,0,1.9,1.1,2.1,2.3
		c0.4,1.7,0,3.2-1,4.7c-0.9,1.3-0.8,2.7,0.6,3.4c0.3,0.1,0.5,0.2,0.7,0.2c0.9,0,1.4-0.9,1.9-1.7c2.1-2.8-0.1-8.7-4-10
		c-1.9-0.6-3.8-1.1-5.7-1.4c-1-0.1-1.9-0.4-2.5-1.3c-1.3-2-0.1-4.3,2.9-4.9c1.5-0.3,3-0.3,4.7-0.4c-1.2-1.7-0.9-3.7-1.7-5.5
		c-0.4,1.1-0.7,2-1.1,2.9c-0.2,0.5-0.6,0.8-1.2,0.8c-0.1,0-0.2,0-0.2,0c-0.7-0.1-1.2-0.3-1.4-1.2c-0.4-1.7-0.9-3.3-1.3-5
		c-0.1-0.5,0.1-1.6-0.3-1.6c0,0-0.1,0-0.1,0C111.5,246.2,111.3,246.2,111,246.2 M284.6,256.2c0.3,0,0.6-0.1,0.9-0.5
		c1.6-1.8,3.6-3.1,5.1-5.4c-3.2,0-5.7,0.8-7.4,3.3c-0.4,0.5-1.3,1.3-0.2,1.8C283.4,255.5,283.9,256.2,284.6,256.2 M312.2,251.7
		c-0.6,0-1.3-0.1-1.9-0.2c-0.1,1.3-0.2,2.6-0.6,3.9c-0.3,1-0.5,2-1.7,2c0,0-0.1,0-0.1,0c-1.2-0.1-1.8-1.1-2-2.2
		c-0.2-1-0.2-2-0.3-3.1c-0.8,1.7-2.1,3-3.5,4.1c-3.1,2.6-6.3,5.1-9.3,7.7c-3.2,2.7-7.5,4.7-7.2,10c0,0.5-0.3,0.9-0.3,1.4
		c-0.1,0.9,0.1,1.9,0.8,2.5c1,0.9,2.2,1.7,3.3,2.5c0.6,0.5,1.1,0.7,1.6,0.7c0.6,0,1.2-0.3,1.8-1.1c0.9-1.1,1.6-2.9,3.4-2.9
		c0.1,0,0.2,0,0.4,0c0.3,0,0.7,0.1,1,0.1c2,0,3.5-0.8,4.8-2.6c0.6-0.8,1.3-1.3,2.1-1.3c0.5,0,1,0.1,1.5,0.4c1.5,0.7,2.8,1.4,2.8,3.3
		c0,1.6-0.2,3.1-2.1,3.7c-1,0.3-2.6,0.8-2.7,1.4c-0.5,2.2,2.4,2.3,2.9,4.1c0.1,0.5,0.4,0.7,0.7,0.7c0.2,0,0.4-0.1,0.7-0.2
		c2-1,4.3-6.5,3.4-8.4c-1-2-1.7-4.2-3.1-6.1c-2.3-3.3-1.8-8.9,0.7-12c1.6-1.9,5-3.3,7.9-3.3c0.8,0,1.6,0.1,2.3,0.4
		c1.8,0.7,2.9,2,3,3.9c0.1,1.5-1,3.2-2.4,3.4c-1.4,0.3-1.5,1.1-1.6,1.9c-0.1,1.4-0.4,2.8-0.5,4.2c-0.1,0.7,0.2,1.7-0.8,1.8
		c-0.1,0-0.1,0-0.2,0c-0.9,0-1.2-1-1.3-1.7c-0.3-1.6-0.3-3.3-0.4-5c-1,0.5-0.9,1.3-0.9,2c-0.3,2.9,0.7,5.3,2.2,7.7
		c2.3,3.9,2.9,8,1.5,12.3c-0.9,2.6-2.8,4.6-4.6,6.7c0.6,0.4,1.2,0.5,1.7,0.5c0.7,0,1.3-0.3,2-0.9c0.9-0.8,2-1.4,3.2-1.4
		c0.3,0,0.7,0,1.1,0.2c0.2,0.1,0.4,0.1,0.6,0.1c0.6,0,0.9-0.4,1.3-1.1c0.6-1.1,0.8-2.2,0.9-3.3c0-4.3,0.1-8.6,0.5-12.9
		c0.5-4.3,1.1-8.7,1.3-13.1c0.1-2.6,1.2-4.9,1.4-7.5c0.1-1.8-1.3-1.9-2.1-2.8c-0.2-0.3-0.4-0.4-0.6-0.4c-0.4,0-0.8,0.6-1.1,0.9
		c-0.3,0.2-0.5,0.3-0.6,0.3c-0.6,0-0.9-0.9-1.6-0.9c-0.1,0.5,0,1.3-0.3,1.5c-0.6,0.4-0.4,1.7-1.3,1.7c-0.1,0-0.1,0-0.2,0
		c-1-0.2-1.3-1.1-1.3-2.1c0-0.2,0-0.5,0-0.7c0-0.9-0.2-1.5-1-1.5c-0.2,0-0.5,0-0.8,0.1C314.7,251.4,313.5,251.7,312.2,251.7
		 M337.1,297.3c0.6,0,1.2,0,1.9,0c-8.2-4.7-7.1-20.2,2.6-26.8c-0.7-1.2-2.1-2.1-1.1-3.9c0.7-1.2,1.6-1.4,2.6-1.4
		c0.4,0,0.9,0,1.3,0.1c0.1,0,0.1,0,0.2,0c1.1,0,2-0.4,2.9-0.7c1-0.4,1.4-1.2,1.2-2.2c-0.7-2.9-1.6-5.1-4.6-5.1c-0.2,0-0.4,0-0.6,0
		c-0.5,0-1,0.1-1.5,0.1c-0.4,0-0.8,0-1.3-0.1c-0.3,0-0.5-0.1-0.7-0.1c-1.6,0-2.3,1.1-2.7,2.7c-0.9,3.7-2.1,7.3-2.9,11
		c-1.6,7.3-3.3,14.6-3,22.2c0.2,4.2,0,4.2,4.1,4.2C336.1,297.3,336.6,297.3,337.1,297.3 M360.9,274.9
		C360.9,274.9,360.9,274.9,360.9,274.9c-1,0-1-1.2-1.2-2c-0.2-0.7,0.3-2-0.8-2c0,0,0,0,0,0c-0.9,0-1.8,0.7-2.2,1.7
		c-2.1,5.8-0.5,11.7-0.6,17.8c9.8-8.1,17.5-16.8,15.8-30.5c-1.1,1.5-2.2,2.7-3.6,3.6c-3.4,2.3-7,4.4-6.4,9.4
		C362.1,273.7,361.8,274.9,360.9,274.9 M347.9,294.9c3.3,0,4.9-2.1,5.4-4.9c0.6-3.5-0.3-7,0.3-10.5c0.3-2.1-1.5-3.9-3.4-3.9
		c-0.4,0-0.8,0.1-1.1,0.3c-6,2.8-8.7,12.3-3.8,17.4c0.8,0.9,1.7,1.6,2.6,1.6C347.8,294.9,347.8,294.9,347.9,294.9 M60.3,331.6
		c0.4,0,0.8-0.4,1.1-0.7c1-1.2,1.7-2.8,2.9-3.5c2.9-1.7,5.9-3,9.1-3c1.6,0,3.3,0.3,5,1.1c0.4,0.2,0.8,0.3,1.2,0.3
		c1.1,0,2-0.6,3.1-0.8c0.5-0.1,0.5-0.6,0.4-1c-0.1-0.6-0.4-0.9-0.9-1c-0.6-0.2-1.3-0.3-1.9-0.4c-2.9-0.5-4.3-1.8-4.2-3.9
		c0.1-2,1.8-3.2,4.7-3.2c1.4,0,2.8,0,4.1,0c1.8,0,3.5,0.1,4.9,0.3c0.3,0,0.6,0,0.8,0c5,0,8-2.2,10.2-5.8c0.4-0.7,1.1-1.6-0.5-1.7
		c-5.3-0.6-10.6-0.9-15.9-1.8c-1-0.2-2-0.2-3-0.2c-4.9,0-9.3,1.8-13.7,3.7c-3.6,1.5-6.5,4.4-7.6,8.4c-1,3.9-1.5,7.9-0.7,12
		c0.1,0.5,0.2,1.1,0.5,1.3C60,331.6,60.1,331.6,60.3,331.6 M356.9,337.9c1,0,1.9-0.1,2.5-0.9c0.3-0.3,0-1.3-0.3-1.9
		c-0.7-1.3-2.9-2.1-4.8-2.1c-1,0-1.9,0.2-2.5,0.7c-1.1,0.9-1,1.8,0.1,2.7c1.3,1.2,3,1.3,4.6,1.4
		C356.6,337.9,356.7,337.9,356.9,337.9 M386.4,341.1c0.4,0,0.8-0.2,1.3-0.6c1.5-1.3,2.4-3,2.6-4.4c0.1-1.9,0.1-1.9-0.5-1.9
		c-0.1,0-0.1,0-0.2,0c-2.4,0-4.9,2.8-4.4,5.3C385.3,340.6,385.7,341.1,386.4,341.1 M262.1,220.4L262.1,220.4
		C262.1,220.4,262.1,220.4,262.1,220.4 M263.3,5.2C263.3,5.2,263.3,5.2,263.3,5.2c-2.8,0-5.6,0.6-8,1.8c-4.5,0.1-8.8,1.5-13,4.5
		c-1.1,0.8-1.7,1.1-2,1.2c-6.1,1.3-10.1,4.6-12.5,6.6c-0.4,0.4-1,0.8-1.3,1c-3.3,1.9-5.5,4.3-6.9,5.9c-0.2,0.2-0.3,0.4-0.5,0.6
		c-2.3,1.1-4.4,2.7-6,4.7c-1.4,1.6-2.4,3.5-3,5.4c-0.3,0.3-0.5,0.5-0.7,0.8c-5.2,4.8-7.2,10.5-8.6,14.4c-0.1,0.3-0.2,0.6-0.3,0.9
		c-2.3,6.1-2.1,12.1,0.2,17.2c0.1,4.1,1.4,7.3,2.2,9.2c0.3,2.2,1.1,4.3,2.2,6.1c0.1,0.3,0.1,0.7,0.2,1c0.9,4.2,3.1,7.9,6.3,10.5
		c0,2,0.1,4,0.2,6.2c0.1,1,0.2,2.8,0.7,4.9c-0.4,0.1-0.8,0.2-1.1,0.3c-5.7,1.4-10.4,3.9-14.3,7.7c-0.5,0.4-0.9,0.9-1.4,1.3
		c-3.2,3-8,7.5-10.6,14.1c-4.8,2.1-10.1,4.5-15.3,8c-2.5,1.7-4.6,3.5-6.6,5.4c-5.2-4.2-11.6-6.5-18.6-6.5c-4,0-8.1,0.7-12.3,2.2
		c-4.9,1.7-9.4,4.6-13.2,8.7c-6.2,6.4-7.7,17.1-3.5,24.6c-2,5.1-2.8,10.9-2.2,16.7c0.9,7.7,4.1,14.6,9.2,19.5
		c-2.1,0.8-4.3,1.7-6.4,2.6c-3.9-2.6-8.5-4.7-14-5.5c-2.7-1.9-5.9-2.9-9.4-2.9c-2.4,0-6,0.6-9.7,3c-12.4,1.8-22.6,8.7-29.7,20.3
		c-7.8,12.7-3.1,22.2,0.2,26.5c0,1.2-0.1,2.9,0.1,4.8c0.1,3.2,1,6,2.4,8.2c-1.2,4-1.4,8-0.8,11.9c0.6,3.4,1.4,6.5,2.5,9.2
		c-3,1.3-6,3.1-8.8,5.4c-8.1,6.8-12.9,14.5-14.3,23.1c-1-1.1-2.1-2.1-3.3-3c-4.4-3.5-8.7-4.2-11.6-4.2c-2.2,0-4.4,0.4-6.4,1.2
		C8,312.7,2.3,318.4,3,327.8l0,0c0.2,5.1,1.8,9.8,4.7,13.6c0,0.6-0.1,1.3,0,1.9c0.1,2,0.5,4,1.1,5.7c0,0.3,0,0.6,0,0.8
		c0.1,3.5,1.3,8.7,6.5,13.4c3.6,3.2,7.6,5,10.6,6.1c1.8,0.7,3.5,1.2,5.1,1.8c2.8,0.9,5.3,1.8,7.1,2.8c3.3,1.9,6.6,3.2,9.8,4
		c2.6,0.6,5.2,1.3,8,2.1c0.9,0.2,1.8,0.5,2.7,0.7c2.9,0.8,5.9,1.9,9.1,3.1c4.6,1.8,9.9,3.7,15.7,4.9c1.3,0.3,2.7,0.6,4.1,0.9
		c4.9,1.1,10.5,2.4,16.7,2.5c6.7,0.1,12.7,0.2,18.2,1.4c2.4,0.5,4.7,0.9,6.9,1.2c3.7,0.6,7.2,1.2,10,2.1c11,3.6,21.5,4.2,31.7,4.7
		c1.2,0.1,2.4,0.1,3.5,0.2c1.4,0.1,2.9,0.1,4.4,0.1c2.9,0,5.7-0.1,8.3-0.3c2-0.1,4-0.2,5.8-0.2c0.9,0,1.9,0,2.8,0
		c2.3,0,4.5,0,6.9,0.1c2.4,0,4.9,0.1,7.3,0.1c5,0,9-0.1,12.8-0.5c3.8-0.3,8.3-0.6,12.7-0.6c2.2,0,4.2,0.1,6.2,0.2
		c2.5,0.2,5.1,0.3,7.8,0.3c6.2,0,12.2-0.5,18-1l1-0.1c0.9-0.1,1.9-0.2,2.8-0.2c4.9-0.4,10.4-0.8,16.1-2.3c1.1-0.3,2.2-0.6,3.3-0.9
		c2.6-0.7,5.1-1.4,7.3-1.8c3.5-0.7,7.6-0.7,11.9-0.8c4.4-0.1,8.9-0.1,13.8-0.8c0.6-0.1,1.4-0.1,2.1-0.2c3.3-0.3,8.3-0.7,13.4-3.3
		c0.2,0,0.4,0,0.6,0c3.5,0,6.7-0.4,9.5-0.8c1.1-0.1,2.1-0.3,3.1-0.4c0.9-0.1,1.8-0.2,2.6-0.3c6.5-0.6,13.8-1.3,21.2-3.5
		c5.8-1.7,9.9-4.6,12.6-8.8c1.8-0.2,3.5-0.4,5.2-0.5c4.4-0.4,8-1.7,10.9-3c4.8-2.1,8.3-6.1,9.7-10.9c1,0.2,2,0.4,3,0.5
		c0.5,0,1,0.1,1.4,0.1c8.6,0,15.5-6.4,16.2-14.8l0.1-0.7c0-0.5,0.1-1.1,0.1-1.6c1.6-2.3,2.7-5.2,3.1-8.3c0.1-0.7,0.1-1.3,0.1-1.8
		c1.9-9.7-2.1-18.9-10.8-24.1c-2.8-1.7-5.4-2.3-6.8-2.7c-0.1,0-0.3-0.1-0.4-0.1c-1-0.3-1.9-0.6-2.9-0.8c2.1-6.7,0-14-5.6-18.6
		c-3.1-2.5-7-3.9-11-3.9c-0.6,0-1.2,0-1.8,0.1c0.1-0.5,0.2-1,0.4-1.5c2.4-8.4,2.5-16.9,0.2-26c0.7-3,0.6-6.2-0.3-9.5
		c0.6,0.1,1.2,0.1,1.8,0.1c0,0,0,0,0,0c4.4,6.5,10.5,7.5,13.8,7.5c0.6,0,1.2,0,1.8-0.1c6.8-0.7,12.3-5.1,14.7-11.8
		c1.4-3.9,1.7-8.1,0.9-12.2c-0.3-1.5-0.3-3.6-0.2-5.8c2.2,1.2,4.7,1.8,7.2,1.8c3.2,0,9.2-1,13.6-7.7c4.6-6,4.3-12.3,4.2-15.1
		c0-0.2,0-0.4,0-0.7c0-1.7,0.2-3.8,1-4.8c4.5-5.2,6.6-10.7,8.3-15.2l0-0.1c5.3-13.8,5.3-28.2-0.1-41.7c-3.3-8.2-7.6-16.6-16.8-22.5
		c-5.8-3.7-13.7-7.9-23.7-7.9l-0.2,0c-11.1,0.1-22.1,3.4-32.7,10c-1.2,0.8-2.5,1.6-3.7,2.3c-5.6-5.5-12.3-10-20.1-13.4
		c-7.4-3.2-15.5-5.1-24.8-5.7c-2.1-0.1-4.1-0.2-6-0.2c-4.3,0-8.4,0.4-12.2,1.1c-2.7-3.8-6.8-6.4-11.7-7.1c-0.9-0.1-1.9-0.2-2.8-0.2
		c0,0,0,0-0.1,0c-1-0.9-2.2-1.7-3.4-2.4c-0.7-2.6-1.2-5.6-1.7-8.9c-0.1-0.6-0.2-1.2-0.3-1.8c-0.4-2.4,0.1-5.6,0.6-9.2
		c0.2-1.4,0.4-2.7,0.6-4.2c0.1-0.1,0.1-0.2,0.3-0.3c5-5.1,7.1-11.7,6.3-19.6c0-0.1,0-0.2,0-0.3c1.5-5.4,0.8-10.1,0.4-13.1
		c-0.1-0.6-0.2-1.5-0.2-1.8c-0.1-6.8-3.7-13.1-9.4-16.5c-0.1-0.2-0.2-0.3-0.3-0.5c-0.4-0.6-0.9-1.4-1.4-2.2
		c-5.6-8-12.5-9.8-16.8-10.1c-4.4-1.9-8.6-2.1-11.4-2.1c-1.2,0-2.4,0.1-3.4,0.1c-0.4,0-0.8,0-1.3,0.1c-1,0-1.8,0.1-2.6,0.2
		C266.7,5.5,265,5.2,263.3,5.2L263.3,5.2z M266.3,95.9L266.3,95.9L266.3,95.9L266.3,95.9z M419.6,177.3c0.4-2.1,0.8-4.2,1.1-6.1
		c0.4-2.3,0.7-4.5,1.2-6.3l0.2-0.8c0.2-0.9,0.5-1.7,0.7-2.5c1,1.8,1.4,3.8,1.3,6.4c-0.1,1.9-1.1,4.3-3.4,7.8
		C420.2,176.3,419.9,176.8,419.6,177.3L419.6,177.3z M151.8,201.2C151.8,201.2,151.8,201.2,151.8,201.2L151.8,201.2L151.8,201.2z"/>
</g>
</svg>
