<?xml version="1.0" encoding="utf-8"?>
<!-- Generator: Adobe Illustrator 24.1.0, SVG Export Plug-In . SVG Version: 6.00 Build 0)  -->
<svg version="1.1" id="Livello_1" xmlns="http://www.w3.org/2000/svg" xmlns:xlink="http://www.w3.org/1999/xlink" x="0px" y="0px"
	 viewBox="0 0 474 285.6" style="enable-background:new 0 0 474 285.6;" width="50" height="50" xml:space="preserve">
<style type="text/css">

		.Stile_x0020_grafica_x0020_2{fill:#FFFFFF;stroke:#000000;stroke-width:15;stroke-linecap:round;stroke-linejoin:round;stroke-miterlimit:10;}
	.st0{fill:#FFFFFF;}
</style>
<g>
	<path class="st0" d="M346.7,260.6c-1.4,0-2.8-0.4-4.1-1.1c-3.6-2-5.2-6.2-3.9-10.2c0-0.2,0-0.3,0-0.5c0.1-1.3,0.3-4.2,2-6.7
		c-1.3-1.6-2.1-3.6-2.2-5.9c-0.2-4,2.4-8.3,7.9-8.9c0.1,0,0.3-0.1,0.4-0.1c0.5-0.1,1.2-0.3,1.5-0.5c3.4-3.1,8-3.4,9.9-3.4
		c0.6,0,1.3,0,1.9,0.1c0-0.1,0.1-0.2,0.1-0.3c-0.2-1-0.4-2.2-0.1-3.6c0.3-1.8,0.5-2.9,0.2-3.4c-0.6-1.6-1-3.3-1.3-4.7
		c-0.2-1.2-0.6-2.4-1.2-4.2c-0.2-0.4-0.3-0.9-0.4-1.4c0,0,0-0.1,0-0.1c-0.1-0.2-0.3-0.4-0.4-0.5c-0.5-0.6-1.2-1.4-1.8-2.4
		c-1.7-0.9-2.8-2.1-3.6-3.1c-2.3-0.5-3.9-1.5-5-2.7c-1.6-0.4-3.1-1.3-4.3-2.5c-3.1-0.1-5.3-1-7-2.2c-0.6-0.1-1.1-0.1-1.5-0.1
		c-0.4,0-0.6,0-0.6,0c-1.8,1-3.7,1.5-5.6,1.5c-2.1,0-4-0.6-5.7-1.7c-0.3,0-0.6,0-0.9,0c-0.7,0-1.4,0-2.1,0c-0.6,0-1.1,0-1.7,0
		c-1.7,0-2.1,0.2-2.5,0.5c-0.1,0.1-0.3,0.2-0.4,0.4c-1.1,0.9-2.8,2.3-5.2,3c-0.4,0.5-0.8,0.9-1.2,1.1c-0.7,4.4-4.1,6.8-5.4,7.7
		c-0.2,0.1-0.3,0.2-0.5,0.4c-2.1,1.8-4.2,2.2-5.7,2.2c-4.4,0-7.8-3.3-8.2-8c-0.1-1.4,0-2.7,0.5-3.9c0-0.2-0.1-0.3-0.1-0.5
		c-0.1-0.8-0.1-1.6,0-2.3c-0.3,0.5-0.6,1.1-1,1.5c-1.4,1.6-3.5,2.6-5.7,2.6c0,0-0.1,0-0.1,0c-0.2,0-0.3,0-0.5,0
		c-3.3,1.2-6.5,1.8-9.5,2.3c-0.7,0.1-1.7,0.4-2.6,0.7c-1.9,0.5-4.2,1.2-6.8,1.3c-1.3,0.6-2.7,0.9-4.1,0.9c-0.1,0-0.2,0-0.3,0
		c-1,0.6-2.1,0.9-3.2,1.1c-1.3,1-3,1.5-4.7,1.5c-0.2,0-0.4,0-0.5,0c-1.1,0.6-2.4,1-4.1,1.2c-2.1,1.1-4.2,1.5-5.8,1.8
		c-0.6,0.1-1.5,0.3-1.8,0.4c-1.8,1.1-3.8,1.8-6,2c-0.7,0.6-1.5,1.1-2.4,1.4c-0.1,0.2-0.2,0.3-0.4,0.5c-1.6,1.8-3.8,2.8-6.3,2.8
		c-0.3,0-0.6,0-0.9,0c-0.2,0.1-0.4,0.2-0.5,0.3c-1.5,1.7-3.6,2.7-5.7,2.7c-0.3,0.1-0.6,0.3-0.9,0.4c-0.3,0.5-0.7,0.9-1.1,1.3
		c-0.3,0.3-0.5,0.5-0.8,0.8c-1,0.8-2.1,1.2-3.3,1.5c-0.3,0.2-0.6,0.4-0.9,0.6c-0.8,0.4-1.6,0.7-2.5,0.9c-0.1,0.1-0.7,0.3-0.9,0.5
		c-0.3,1.2-0.9,2.4-1.8,3.3c-1.3,1.4-3,2.3-4.9,2.5h0c-1.1,0.9-2.6,1.8-4.9,2c-0.9,0.1-1.8,0.1-2.7,0.2c-2.4,0.2-4.5,0.3-6.3,0.8
		c-0.4,0.5-0.8,0.9-1.3,1.3c-0.9,0.7-1.9,1.3-3,1.5c-0.2,0.3-0.4,0.5-0.6,0.8c-1.6,1.7-3.8,2.7-6.2,2.7c-0.1,0-0.3,0-0.4,0
		c-1.3,0.9-3.4,2-6,2c-2.1,0-3.8-0.7-5.1-1.5c-0.2,0-0.3,0-0.5,0c-0.3,0-0.5,0-0.8,0l-0.3,0c-1.7-0.2-4.7-0.4-7.4-2.2
		c-0.1,0-0.2,0-0.3,0c-1.8,0-3.4-0.5-4.8-1.5c-0.6,0-1.2-0.1-1.7-0.2c-0.7,0.6-1.5,1.2-2.6,1.7c-0.6,0.3-1.2,0.5-1.8,0.7
		c-1.1,1-2.7,1.9-4.7,2.6l-0.3,0.1c-0.7,0.2-1.3,0.4-1.9,0.5c-2,1.8-4.2,2.1-5.5,2.1c-0.9,0-1.7-0.1-2.6-0.4c-0.7-0.2-2.6-1-4-2.8
		c-1.3,0.5-2.8,0.8-4.2,0.8c-1.6,0-3.2-0.3-4.9-1c-0.4,0.4-0.9,0.7-1.4,1c-1.4,0.8-3,1.2-4.5,1.2c-2.3,0-4.4-0.9-6.1-2.5
		c0,0-0.4-0.4-0.5-0.5c-3.1-1.8-5.7-5.6-3.8-11c0-0.4,0-1.3-0.1-1.9l0-0.6c-0.1-1.1-0.1-2.1-0.1-3c0-0.7,0-1.7-0.1-2
		c-0.7-2.2-0.3-4.7,1-6.7c-0.1-0.4-0.2-0.9-0.2-1.3c-0.1-0.1-0.3-0.3-0.4-0.4c-0.4,0.2-0.7,0.4-1.1,0.6c-0.5,0.2-1.1,0.4-1.7,0.5
		c-0.1,0.2-0.1,0.3-0.2,0.5c-0.1,0.4-0.3,0.7-0.5,1c-0.1,1.7-0.7,3.5-1.9,4.8c0,0.1-0.1,0.1-0.1,0.2c-0.1,0.4-0.1,0.8-0.3,1.2
		l-0.4,1.4c-0.4,1.2-1,2.3-1.9,3.1c0.1,1.4-0.2,2.7-0.8,3.9c-0.1,0.6-0.2,1.5-0.6,2.6c0,0.5,0,1-0.1,1.5c-0.4,2.8-2.2,5.2-5,6.6
		c-1.1,0.5-2.3,0.8-3.5,0.8c-2.5,0-4.8-1.1-6.3-3.1c0,0-0.1-0.1-0.1-0.1c-2.4-0.9-4.3-2.8-5-5.4c-0.5-1.6-0.5-3.3-0.1-4.9
		c-1.2-1.7-2.1-3.9-1.9-6.3c0.1-1.5,0.7-2.9,1.6-4c0.7-2.3,1.7-3.8,2.9-4.9c0.2-1.3,0.8-2.5,1.6-3.5c0.3-0.4,0.7-0.8,1.2-1.1
		c0.4-0.9,0.9-1.7,1.6-2.5c0.8-0.8,1.9-1.8,3.5-2.5c0.9-1.5,2-2.5,3.1-3.1c1.4-2.4,3.1-3.8,4.9-4.6c1.7-2.5,3.9-5,7.4-6.6l0,0
		c2-1.7,4.1-2.1,5.6-2.1c1.4,0,4.6,0.4,7,3.8c1.3,0.7,2.1,1.6,2.5,2l0,0c1.2,1,1.9,2.1,2.3,2.9c0.5,0.5,0.9,1,1.2,1.6
		c0.2,0.3,0.3,0.6,0.4,0.8c0.8,0.4,1.6,0.9,2.2,1.6c0.2,0.2,0.4,0.5,0.6,0.7c0.1,0.1,0.1,0.1,0.2,0.2c0.2-0.2,0.4-0.3,0.6-0.5
		c0.8-0.7,2.7-2.3,5.7-2.3c2.3,0,4.6,1,6.2,3c2.3,0.6,4.2,1.7,5.7,3.3c0.6,0.2,1.3,0.4,1.8,0.7c0.3,0,0.7-0.1,1-0.1
		c1.1-0.6,2.4-0.9,3.6-0.9c0.5,0,0.9,0,1.4,0.1c1.8,0.3,3.4,1.3,4.5,2.8c1.2,0.4,2.4,1.1,3.6,2.2c0,0,0.8-0.1,0.8-0.1
		c0.1,0,0.3,0,0.4,0c0.5,0,1,0.1,1.5,0.2c1.4,0.3,2.7,1,3.7,1.9c0.3-0.1,0.7-0.1,1-0.1c0,0,1.9,0,2,0c1.2,0,2.5,0.3,3.6,0.9
		c1.8-1.4,3.8-1.8,4.7-2l0.3-0.1c0.5-0.1,1-0.2,1.4-0.2c0.2,0,0.5,0,0.7,0c0.4,0,0.9,0,1.3,0.1c0.6-0.2,1.1-0.3,1.6-0.4
		c1.1-0.9,2.5-1.5,4-1.6c2.4-2.2,5.1-2.6,6.4-2.8l0.3-0.1c0.4-0.1,0.9-0.1,1.3-0.1c0.1,0,0.2,0,0.3,0c1-0.8,2.4-1.7,4.4-2.3
		c0.7-0.2,1.4-0.3,2-0.3c0.1,0,0.3,0,0.4,0c0.2,0,0.5,0,0.7,0c0.1,0,0.3,0,0.4,0c0.4-0.1,0.8-0.1,1.2-0.1c0.9-0.6,1.9-1.1,3-1.3
		c0.4-0.1,0.9-0.1,1.3-0.1c0.1,0,0.3,0,0.4,0c0,0,0,0,0,0c2-1.2,4-1.5,5.2-1.6c1-0.9,2.2-1.7,3.5-2.1c1.8-2.4,4.5-3.4,6.7-3.4
		c0.2,0,0.5,0,0.7,0c0.7-0.4,1.4-0.6,2-0.9c0.1-0.1,0.1-0.2,0.2-0.2c0.6-0.9,1.4-2,2.6-3.2c1.1-1,2.6-1.7,4.1-1.9
		c0.5-1.4,1.4-2.6,2.5-3.5c0.9-0.7,1.8-1.2,2.9-1.5c0.4-0.4,0.9-0.8,1.3-1.1c0.1-0.2,0.3-0.5,0.5-0.8c0.6-1,1.4-2.4,2.7-3.7
		c0.3-0.6,0.7-2.5,0.8-3.4c1.1-6.3,5.4-8.8,9.2-8.9c0.2,0,0.3-0.1,0.5-0.1c0.6-0.1,1.4-0.3,2.3-0.4c0.2-1.4,0.5-3.1,1.3-5
		c1.1-2.5,3.4-4.2,6.2-4.5c0.2,0,0.5,0,0.7,0c0.2,0,0.3,0,0.5,0c0.2,0,0.3,0,0.5,0c0.4,0,0.7,0.1,1.1,0.1c0.5-0.3,1-0.6,1.6-0.9
		c0.4-0.5,0.9-1.1,1.5-1.7c0-0.8,0-1.5,0-2.1l0-0.8c-0.8-1.3-1.4-2.8-1.6-4.5c-0.1-1-0.2-1.9-0.2-2.6c0-0.6-0.1-1.3-0.1-1.7
		c-0.7-1-1.2-2.2-1.4-3.4c-0.2-0.6-0.3-1.2-0.4-1.7c-0.5,0.1-1,0.1-1.5,0.1c-3.3,0-6.2-1.4-8.7-4.2c-0.2,0-0.5,0-0.7,0
		c-0.9,0-1.7-0.1-2.6-0.4c-1.8-0.6-3.2-1.3-4.5-2c-0.4-0.2-0.8-0.4-1.2-0.6c-1.9-0.9-3.4-2.7-4-4.7c-0.1-0.2-0.3-0.4-0.5-0.6
		c-0.1-0.1-0.1-0.2-0.2-0.3c-0.2,0.1-0.3,0.3-0.5,0.4c-0.4,0.9-0.9,1.8-1.6,2.7c-0.3,1.2-0.9,2.6-1.9,3.9c-0.6,3.9-2.7,6.8-6,8.3
		c-0.4,0.8-0.9,1.5-1.5,2.2l-0.1,0.1c-1.3,1.3-3,3-5.4,4.3c-0.5,1.1-1.1,1.9-1.6,2.5c-1.6,1.7-3.9,2.7-6.3,2.7c-0.1,0-0.3,0-0.4,0
		c-1,0.5-2.2,0.8-3.3,0.9c0,0-0.8,0-0.8,0c-0.7,0-1.5-0.1-2.2-0.3c-0.5,0.1-1,0.1-1.6,0.1c-1.1,0-2.3-0.2-3.3-0.7
		c-0.2,0-0.4,0-0.6,0c-2.4,0-4.7-1-6.5-2.8c-1.8-1.9-2.6-4.4-2.4-6.8c0.2-1.4,0.7-2.8,1.5-3.9c-1.4-0.1-3.3-0.5-5.2-1.6
		c-1.8-0.1-3.3-0.7-4.3-1.2c-0.1,0-0.2,0-0.2,0c-1,0-2-0.2-3-0.6c-0.6,1.4-1.5,2.7-2.8,3.7c-0.2,0.5-0.4,0.9-0.7,1.4l-1.6,2.5
		c-0.6,0.9-1.4,1.7-2.3,2.3c-1.2,1.1-2.7,1.8-4.4,1.9l-0.4,0c-0.2,0-0.4,0-0.6,0c-0.8,0.9-1.8,1.7-2.9,2.2c-0.8,0.9-2.3,2.5-4.6,3.5
		c-0.9,0.9-2.4,2.1-4.5,2.6c-1,0.7-1.9,1.1-2.6,1.4c-1.3,1.1-3,1.8-4.9,1.8c0,0-0.3,0-0.3,0c-1.3,1.1-3.1,1.8-4.8,1.8
		c-0.1,0-0.4,0-0.4,0c-0.3,0-0.6,0-0.8,0c-0.3,0-0.6-0.1-0.9-0.2c-0.7,0.1-1.3,0.2-2,0.2c-1.5,0-2.9-0.4-4.1-1.1c-0.2,0-0.3,0-0.5,0
		c-0.2,0-0.3,0-0.5,0c-0.2,0-0.5,0-0.8,0.1c-2.2,1.1-4.8,2.2-8,2.2c-0.9,0-1.8-0.1-2.7-0.3c-1.8-0.1-3.5-0.8-4.9-2.1
		c-0.6-0.6-0.9-0.6-1.2-0.6c-0.1,0-0.2,0-0.3,0c-0.4,0-0.7,0.1-1,0.1c-2.6,0-5.1-1.1-6.8-3.1c-0.3-0.3-0.6-0.7-0.8-1.1
		c-0.6-0.1-1.2-0.2-1.8-0.5c-0.2-0.1-0.6-0.1-1-0.1c-0.6,0-1.3,0.1-2.1,0.1c-0.6,0.1-1.3,0.1-2.1,0.1c-0.6,0-1.2,0-1.8,0
		c-0.4,0-0.9,0-1.3,0c-0.3,0-0.7,0-0.9,0.1c-0.3,0.9-0.7,1.7-1.3,2.4c0.4,2,0,3.8-0.3,4.9c-1.1,3.4-4.3,5.7-7.9,5.7
		c-0.1,0-0.4,0-0.5,0c-3.1-0.2-5.9-1.8-7.7-4.4c-0.3,0.1-0.5,0.1-0.8,0.1c-2,1-4.1,1.2-5.3,1.2c-2.4,0-4.4-0.7-6.1-1.9
		c-1.9-0.3-3.7-1.1-5.1-2.4c-0.4-0.1-0.8-0.3-1.1-0.5c-0.2,0-0.5,0-0.7,0c-2.6,0-5.2-1-7.3-2.8c-0.2,1.1-0.6,2.1-1.2,3
		c-1.6,2.5-4.2,3.9-7.1,3.9c-0.6,0-1.1-0.1-1.4-0.1c-0.3,0-0.8,0-1.2-0.1c-2.4-0.3-4-1.2-5.2-2.2c-0.1,0-0.2-0.1-0.2-0.1
		c-2.6-1.3-4.6-3.4-5.6-5.8c-1.1-0.8-2.1-1.8-2.7-3.1c-0.6-1.1-0.9-2.3-0.9-3.5c-0.8-1.2-1.5-2.7-1.5-4.7c0-0.6,0.1-1.5,0.3-2.4
		c-0.2-2.5,0.5-4.6,0.9-5.8c0.1-0.2,0.1-0.4,0.2-0.5c0.1-1.5,0.7-3.5,2.6-5.3c0.3-0.8,0.7-1.9,1.4-3.1c0.6-2.2,1.8-3.8,3.4-4.9
		c0.7-1.6,1.2-3.4,1.6-5.4c-0.7-1.5-0.9-3.1-0.6-4.7c0.2-1.4,0.8-2.7,1.7-3.8c0,0,0-0.1,0-0.1c-0.9-3.1,0-6.4,2.4-9
		c1.3-2.9,4-5.2,8.3-5.2c0.2,0,0.6,0,0.6,0c0.5,0,1,0,1.5,0.1c0.3,0,0.5,0,0.8,0c0.9-0.7,1.9-1.2,2.7-1.5c2-2.1,4.9-3.3,8-3.3
		c0.3,0,0.6,0,0.8,0c0.1,0,0.2,0,0.2,0c0.9,0,2.1-0.5,3.6-1.3c0.4-0.2,0.9-0.4,1.2-0.5c2-1.6,4.1-1.9,5.4-1.9c2.7,0,4.5,1.2,5.4,1.8
		l0.2,0.1c1,0.6,1.9,1.3,2.5,1.8c1.2,0,2.3,0.3,3.3,0.9c1,0.5,1.8,1.2,2.5,2c0.2,0.2,0.4,0.4,0.6,0.5c0.1,0.1,0.1,0.1,0.2,0.2
		c0.8,0.3,1.5,0.8,2,1.4c0,0,0.1,0.1,0.1,0.1c0.4-0.1,0.7-0.1,1.1-0.1c0.4,0,0.8,0,1.2,0.1c0.4,0,0.7,0,1.1,0.1
		c1-0.3,2.1-0.5,3.2-0.5c0.5,0,1.1,0,1.7,0.1c0.4,0.1,1,0.1,1.4,0.1c0.1,0,0.2,0,0.2,0c1.7-1.1,3.7-1.7,5.6-1.7c0.5,0,1,0,1.5,0.1
		c1.2-0.5,2.3-0.7,3-0.9c0,0,0.1,0,0.1,0c1.4-0.7,2.9-1,4.4-1c1.9,0,3.8,0.6,5.6,1.7l0.8,0.5c1,0.7,2.4,1.5,3,1.6
		c2.1,0,4,0.6,5.6,1.6c1.1,0.1,2.5,0.4,4,1.3c2,0.3,3.7,1.2,5.1,2.5c0.2,0,0.4,0,0.6,0c3,0,5.2,1,6.7,2.1c1.8,0.1,4.5,0.5,7.1,2.2
		c1.1-0.4,2.2-0.5,2.9-0.5c0.1,0,0.1,0,0.2,0c0-0.2,0.1-0.4,0.1-0.6c0.1-0.3,0.1-0.5,0.2-0.8c-1-3.5-0.7-6.3,0.2-8.4
		c-0.1-1.7,0.2-3.6,1.4-5.8c0.1-0.6,0.2-1.2,0.4-1.8c0-0.1-0.1-0.1-0.1-0.2c-0.9-1.1-1.5-2.5-1.6-4l0-0.1c0-0.2-0.1-0.4-0.1-0.6
		c-1.5-0.7-2.5-1.6-3.1-2.5c-0.7-0.9-1.7-2.5-1.9-4.8c-0.5-1-0.7-1.8-0.9-2.5c0,0,0,0,0,0c-1.6-1.7-2.4-3.9-2.3-6.1
		c-1.1-2-1.4-4.4-0.8-6.6c0.5-1.8,1.5-3.3,3-4.5c0.9-1.9,2.2-3.2,3.1-3.9c0.9-2.1,2.8-3.9,5.8-4.5c1.3-1.2,2.9-2.1,4.7-2.6
		c3-2.7,6.8-2.9,8.2-3c0,0,1,0,1.2,0c1.2-1,2.7-1.7,4.5-2c1.3-0.2,2.4-0.2,3.3-0.2c1.3-1,2.9-1.5,4.6-1.5c0.1,0,0.2,0,0.3,0
		c0.4,0,1-0.2,1.7-0.3c1.3-0.3,2.9-0.6,4.7-0.6c0.2,0,0.5,0,0.7,0c0.6,0,1.3,0.1,1.9,0.1c0.9,0.1,1.8,0.1,2.6,0.1
		c0.7,0,1.3-0.1,1.8-0.2c0.6-0.1,1.2-0.2,1.8-0.2c0.7,0,1.4,0.1,2,0.3c0.6-0.2,1.4-0.3,2.2-0.3c1.1,0,2.1,0.2,3.1,0.6
		c0.1,0,0.7-0.1,0.7-0.1c0.7,0,1.5-0.1,2.4-0.1c0.6,0,1.2,0,1.7,0.1c0.3-0.2,0.7-0.3,1-0.4c1.1-0.5,2.2-0.8,3.4-0.8
		c0.6,0,1.2,0.1,1.8,0.2c0.1,0,0.4-0.1,0.8-0.2c0.9-0.3,1.8-0.4,2.7-0.4c1,0,1.8,0.2,2.6,0.4c1-0.8,2.3-1.5,4-1.9c0,0,0,0,0,0
		c2.6-1.7,5.6-2.6,8.9-2.6c0.4,0,0.9,0,1.3,0c2.2-1.5,4.7-2.3,7.4-2.3c1.4,0,2.7,0.2,4,0.7c0.2,0.1,0.5,0.2,0.7,0.2
		c0.6-0.2,1.3-0.2,2-0.2c1.3,0,2.5,0.3,3.6,0.9c0.2-0.1,0.3-0.1,0.5-0.1c2.7-1.9,5.4-2,6.8-2l0.2,0c0.2,0,0.4,0,0.6,0
		c2.4,0,4.7,1,6.2,2.7c0.6,0,1.1,0.1,1.4,0.1l0.1,0c1.2,0.1,2.3,0.5,3.2,1c2.2-1.9,4.5-2.3,5.8-2.3c1.5,0,3,0.4,4.3,1.2l0.2,0.1
		c1.1,0.5,2,1.1,2.7,1.8c0.4,0,0.7-0.1,1.1-0.1c1.7,0,3.3,0.4,4.8,1.2c1.2-1.2,2.8-2.1,4.6-2.7c0.6-0.2,1.7-0.6,3.2-0.6
		c2.5,0,4.9,1.2,6.5,3.2c1.2,1.5,1.8,3.4,1.8,5.2c0.8,0.6,1.6,1.3,2.2,2.1c0.9-0.4,1.9-0.7,2.9-0.9c1.8-1.6,3.8-2.2,5.1-2.5
		c1.2-0.9,2.7-1.5,4.2-1.5c0.1,0,0.2,0,0.4,0c2.5,0,4.8,1.2,6.2,3.3c0.2,0.3,0.4,0.6,0.6,0.8c0.1,0.1,0.1,0.2,0.2,0.3
		c2.5,2.9,2.7,5.6,2.3,7.4c1.1,1,1.9,2.4,2.3,4c0.8,3.1-0.1,6.1-2.1,8.3c0.2,0.4,0.3,0.9,0.4,1.4c1.3,0.2,2.5,0.8,3.5,1.5
		c2.4,1.8,4.4,5.3,2.6,9.7c2.7,0.9,6.1,3.2,6.6,8.8c0,0.2,0,0.3,0,0.5c0.4,0.4,0.7,0.7,0.9,1c1.6,0.6,3.9,2,4.9,5.2
		c0.3,0.2,0.6,0.5,0.9,0.9c0.5,0.2,0.9,0.5,1.4,0.9c1.2-0.7,2.7-1.1,4.2-1.1c1.9,0,3.8,0.7,5.4,1.9c2.1,0.3,5,0.9,7.1,3.7
		c2.4,3.1,2,6.6,1.7,8.3c-0.1,0.6,0.4,1.9,1,3.2c0.1,0.3,0.2,0.6,0.4,0.9c1.1,0.6,2.5,1.5,3.6,3c0,0,0.1,0.1,0.1,0.1
		c0.7,0.6,2.1,1.6,3.2,3.3c0.4,0.2,0.7,0.5,1,0.8c1.3,0.1,2.5,0.5,3.5,1.1c4.4,0.6,7.5,4,7.6,8.5c0,0.7-0.1,1.4-0.2,2.1
		c0.3,0.3,0.6,0.6,0.9,0.9c1.9,1,3.4,2.5,4.3,4.3c0.4,0.3,0.8,0.7,1.2,1.1c1.6,1.7,2.3,4,2.1,6.4c0,0.2,0,0.4-0.1,0.6
		c1.2,1.2,2,2.8,2.2,4.5c0,0,0.1,0,0.1,0c0.3,0,0.6,0,0.9,0c1.6-1.2,3.6-1.9,5.8-1.9c0.3,0,0.7,0,1,0c0.2,0,0.5,0,0.7,0
		c1.6,0.1,5,0.2,7.9,2.5c1.7,0.3,3.8,0.9,5.5,2.9c2.4,2.8,2.1,6.1,2,7.6c-0.1,0.7-0.2,1.4-0.5,2c0.8,1.2,1.4,2.7,1.5,4.6
		c0,0.1,0,0.1,0,0.2c0.8,1.3,1.1,2.5,1.3,3.2c0.6,1.3,1,2.4,1.3,3.4c0.1,0.2,0.1,0.4,0.2,0.6c2.3,1.5,3.8,3.8,4,6.4
		c0.7,1.1,1.2,2.3,1.4,3.6c0.5,0.7,1,1.5,1.4,2.4c3.2,1.8,5.1,4.2,6.1,6.5c1.9,1.1,3.8,2.5,5.3,4.5c2,0.8,3.7,2.4,4.9,4.8l0.1,0.2
		c2.3,4.1,2.5,8.2,2.4,11.8c0,2.3-0.3,4.5-0.5,6.4c-0.2,1.9-0.5,3.7-0.4,5.2c0,0.2,0.1,0.4,0.1,0.6c0.3,1.3,0.9,3.6,0.3,6.2
		c0,0.1,0,0.3,0,0.4c0,1,0,2.6-0.5,4.4c0.6,4.8-1.9,8.2-3.1,10l-0.4,0.5c-2.3,3.3-5.6,4.2-7.4,4.6c-1.5,1.4-3.4,2.2-5.6,2.2
		c-0.6,0-1.2-0.1-1.7-0.1c-0.1,0-0.3,0.1-0.4,0.1c-1.1,1-2.5,1.8-4.4,2.2c-1.4,1.2-3.1,1.9-4.9,2c-1.1,0.5-2.2,0.7-3.4,0.7
		c-0.7,0-1.3-0.1-2-0.2c-0.2,0-0.6,0-0.9,0c-1.7,0-4.5-0.1-7.3-1.7c-0.9-0.5-3.6-2-4.5-5.4c-0.4-1.5-0.3-3.1,0.1-4.5
		c-0.6,0.2-1.3,0.2-2,0.2c-2.2,0-4.3-0.9-5.8-2.5c-1.6-1.7-2.4-4-2.3-6.5c0.1-2.9,1.3-5.1,2.9-6.5c0.3-1.3,0.8-2.2,1.2-2.9
		c0.6-0.9,1.6-2.2,3.5-3.1c1.7-2.8,4.6-4.1,7.2-4.1c1.1,0,2.3,0.2,3.4,0.7c2.5,0.1,4.3,1.1,5.7,2.2c0.3-1.2,0.8-2.3,1.5-3.3
		c0-0.1,0-0.2,0-0.3c-0.9-1.2-1.4-2.8-1.6-4.7c-0.1-0.2-0.3-0.4-0.4-0.6c-1.3-1.2-2.2-2.4-2.8-3.5c-1.2-1.1-1.9-2.2-2.4-3
		c-0.1-0.1-0.2-0.2-0.2-0.4c-0.4-0.6-0.7-1.2-0.9-1.9c-0.3-0.6-0.5-1.2-0.6-1.8c-0.6-1-0.9-2-1.2-3c-0.6-0.3-1.2-0.7-1.7-1.2
		c-1.5-1-2.6-2.5-3.1-4.2c-0.3-0.3-0.6-0.7-0.8-1.1c-1.4-0.6-2.8-1.7-4-3.6c-0.4-0.6-0.7-1.2-0.9-1.7c-0.1-0.1-0.1-0.2-0.2-0.3
		c-0.2,0-0.4,0.1-0.6,0.1c-0.3,0-0.6,0-0.8,0c-0.3,0-0.6,0-0.9-0.1c-0.2,0-0.3,0-0.5,0c-1.9,0.9-3.7,1.2-4.8,1.3
		c-0.2,0-0.4,0.1-0.6,0.1c-0.5,0.1-1.1,0.1-1.6,0.2c0.4,0.3,0.8,0.6,1.2,1c1.4,1.5,2.2,3.5,2.1,5.6c0,0.3,0,0.5-0.1,0.7
		c-0.1,0.9-0.3,1.8-0.6,2.6c0,0.1,0,0.2,0,0.3c0,1.4-0.4,2.7-1.1,3.9c0.2,1,0.2,1.9,0.1,2.6c0.4,1.3,0.4,2.6,0.1,3.9
		c-0.2,0.9-0.6,1.8-1.1,2.6c0.3,0.5,0.5,1,0.7,1.5c1.5,1.1,2.7,2.6,3.4,4.3c1,2.3,1,5,0.1,7.5c0.1,1.6-0.1,3-0.2,4.3
		c0,0.5-0.1,0.9-0.1,1.4c0,0.3,0,0.8,0,1.3c0.1,1.9,0.2,4.9-1.2,7.9c0,1.3-0.3,2.8-1.2,4.4c0,0.2,0,0.3,0,0.5c0,1.3-0.3,2.6-0.9,3.7
		c0.1,1.2-0.1,2.4-0.6,3.7c0.2,1.9,0.1,4.8-2.1,7.3c-1.2,1.4-3.5,3.2-7.4,3.2c-0.4,0-0.8,0-1.3,0c-0.1,0-0.6,0.1-1,0.2
		c-1.1,0.3-2.6,0.6-4.4,0.6c-0.7,0-1.5-0.1-2.2-0.2c-0.4,0.1-0.8,0.1-1.2,0.1c-1,0-2-0.1-3-0.4c-1.5,1.4-3.6,2.1-5.5,2.1
		c-0.9,0-1.8-0.2-2.6-0.5c-0.2,0-0.4,0-0.5,0c-0.6,0.1-1.3,0.1-2.1,0.1l-0.4,0c-1.2,0-2.2-0.2-3-0.4c-1.2,0.7-2.5,1-3.9,1
		c-0.1,0-0.1,0-0.2,0C349.9,260.2,348.3,260.6,346.7,260.6z M296.6,160.5c1.7,0.4,3.2,1.3,4.4,2.5c0.8-1.8,1.9-3.1,2.7-4.1
		c0.2-0.3,0.4-0.5,0.6-0.8c-0.3-1.7-0.1-3.5,0.6-5.1c0.8-1.6,2.1-2.9,3.8-3.7c0.3-0.9,0.8-1.9,1.5-2.9c0-1.1,0.2-2.2,0.6-3.2
		c0.9-2,2.5-3.5,4.5-4.1c0,0,0.1,0,0.1,0c0-0.1,0.1-0.2,0.1-0.4c0.5-2.6,1.9-5.1,4-7.1c0.1-1.2,0.4-2.3,0.9-3.3
		c-0.1-1.1-0.1-2.3,0.3-3.8c0.1-0.5,0.1-1.5,0-2.4c0-0.5,0-1,0-1.4l0-0.5l-1.1,0c-0.5,0-1.1,0-1.6,0c-0.2,0-0.4,0-0.6,0
		c-0.2,0-0.4,0-0.6,0c-0.5,5.2-5,6.9-5.6,7.1c-0.3,0.1-0.7,0.2-1,0.4c-1.3,0.5-3,1.1-4.9,1.5c-0.2,0.1-0.7,0.3-1,0.4
		c-0.7,0.3-1.6,0.7-2.6,1c-1,0.8-2.2,1.3-3.5,1.6c-1.5,1.7-3.7,2.7-6.1,2.7c-0.5,0-1,0-1.5-0.1c0.5,1.2,0.8,2.8,0.7,4.7l0,0.1
		c0,0.2,0,0.4,0,0.6c2,3.2,2,6.5,2,8.5c1.3,2,1.8,4.5,1.5,7.1c0,0.1,0,0.2,0,0.3c0,0.2,0.1,0.5,0.1,0.8
		C295.9,158,296.4,159.4,296.6,160.5z M154.8,145.7L154.8,145.7z M42.5,138.1c0.5,0.7,0.9,1.4,1.1,2.2c0.3-1.1,0.6-2.2,0.9-3.2
		c0.2-0.7,0.4-1.5,0.6-2.2l0.1-0.6c0.1-0.6,0.3-1.1,0.4-1.7c0,0,0,0,0,0c-0.1,0.2-0.2,0.4-0.3,0.6c-0.7,1.3-1.6,2.3-2.8,3
		c0,0.6-0.1,1.1-0.2,1.7C42.4,138,42.5,138,42.5,138.1z M104.1,126.9c1.2,0,4.4,0,7.3,2.1c0.5,0.3,1.3,0.7,2.2,1.1
		c0.5,0.2,0.9,0.4,1.5,0.7c1.2-0.4,2.7-0.7,4.3-0.7c0.4,0,0.8,0,1.2,0.1c1-0.5,2.1-0.7,3.2-0.7c0.3,0,0.5,0,0.8,0c0.1,0,0.2,0,0.3,0
		c0.1,0,0.2,0,0.3,0c0,0,0.1,0,0.1,0c0.4-0.1,0.8-0.1,1.1-0.1c0.9,0,1.8,0.2,2.7,0.5c0.4-0.1,1-0.3,1.4-0.5c0.6-0.2,1.3-0.5,2.1-0.7
		c0.9-0.3,1.7-0.5,2.5-0.6c0.7-0.2,1.9-0.4,2.1-0.6c1.4-1,2.8-1.5,3.8-1.9c0.2-0.1,0.5-0.2,0.7-0.3c0.3-0.2,0.6-0.5,1.1-0.8
		c-1.6-0.3-3.1-1.1-4.2-2.2c-0.1,0-0.3,0-0.4-0.1c-1.1,0.3-2,0.4-2.4,0.4c-0.4,0-0.8,0-1.2-0.1c-1.7-0.3-3.6-1.1-5.1-2.8
		c-2.4-0.4-4.2-1.4-5.4-2.5c-0.5-0.1-1-0.2-1.4-0.2c-0.8-0.1-1.5-0.3-2.2-0.4c-0.7,0.3-1.4,0.4-2.2,0.5c-0.1,0-0.3,0-0.4,0
		c-0.1,0-0.2,0-0.2,0c-0.1,0-0.2,0-0.2,0c-0.7,0-1.4-0.1-2-0.3c-0.6,0.2-1.3,0.3-1.9,0.3c-0.1,0-0.1,0-0.2,0c-0.1,0-0.2,0-0.3,0
		c-1,0-2-0.2-2.9-0.6c-0.3,0-0.6,0-1,0c-0.9,0.8-1.9,1.3-3,1.6c-0.6,0.2-1.3,0.3-1.9,0.3c-0.2,0-0.5,0-0.7,0c-0.4,0.3-1,0.6-1.6,1
		c-0.5,1.4-1.3,2.7-2.3,3.7c-0.1,1-0.4,1.9-0.8,2.6c1.2,0.1,2.1,0.4,2.7,0.6c0.5,0.1,0.9,0.3,1.4,0.6
		C102.5,127,103.8,126.9,104.1,126.9z M70.1,125.2c-0.1,0.8-0.4,1.6-0.8,2.5c1.6-1.2,3.2-2.1,4.6-2.7c0.2-0.3,0.4-0.7,0.6-1
		c-0.7-0.2-1.5-0.6-2.3-1.1c-0.2,0.1-0.3,0.2-0.5,0.3C71.3,123.9,70.7,124.6,70.1,125.2z M123.4,113.8L123.4,113.8z M186.7,106.4
		c1.6-0.6,3.5-1.1,5.7-1.4c0.2-0.1,0.5-0.2,0.8-0.3c1.3-0.5,3.2-1.1,5.5-1.1c0.9,0,1.9,0.1,2.7,0.3c0.5-0.1,1.1-0.1,1.6-0.1
		c0.3,0,0.7,0,1,0c0.2-0.1,0.5-0.2,0.7-0.3c0.1-0.7,0.2-1.4,0.5-2.1c-0.4-1.8-0.3-3.7,0.3-5.4c-0.6-1.9-0.6-3.8-0.2-5.6
		c-0.5-0.8-1-1.8-1.3-3c-1.6-0.4-3-1.2-4.3-2.3c-0.3,0.6-0.6,1-0.8,1.3l-0.1,0.2c-0.1,0.1-0.2,0.2-0.2,0.4c-0.4,0.6-0.8,1.2-1.4,1.8
		c-1.1,1.7-2.4,2.9-3.9,3.7c-0.2,1.7-1,3.2-2.2,4.4c-0.3,0.5-0.6,0.9-1,1.3c0,0.5-0.1,1.1-0.2,1.7c-0.2,1.2-0.7,4.2-3.1,6.5
		C186.8,106.3,186.8,106.4,186.7,106.4z"/>
	<path d="M260,30.6c0.3,0,0.6,0.1,0.7,0.4c0.2,0.4-0.3,0.6-0.5,0.9c-1.3,1.6-1.3,3-0.1,4.6c0.3,0.4,0.6,0.9,1.1,0.9c0,0,0,0,0,0
		c0.6,0,0.7-0.6,0.8-1.1c0.2-0.4,0.3-1.2,0.7-1.2c0.1,0,0.2,0,0.3,0.1c0.4,0.3,0.7,0.4,1,0.4c0.6,0,0.6-0.9,0.8-1.5
		c0.2-0.6,0.6-0.8,1.1-0.8c0.3,0,0.6,0.1,0.9,0.1c0.7,0.1,1,0.6,0.9,1.3c-0.1,1.1,0.2,1.7,0.9,1.7c0.3,0,0.7-0.1,1.2-0.3
		c0.5-0.2,1-0.6,1.6-0.6c0.1,0,0.2,0,0.3,0c0.2,0,0.4,0.1,0.6,0.1c0.9,0,1.4-0.5,2-1.2c0.4-0.5,0.9-1,1.4-1.5c0.3-0.4,0.6-0.7,1-0.7
		c0.2,0,0.3,0.1,0.5,0.2c0.9,0.5,2.1,0.8,2.3,2c0.2,1-1,0.7-1.5,0.9c-0.6,0.3-0.9,0.6-0.9,1.3c0,0.5,0,1,0.5,1.3
		c0.3,0.2,0.7,0.3,1.3,0.3c1.5,0,3.5-0.7,4-1.6c0.5-0.8,1.2-1.3,2-1.3c0.5,0,1,0.2,1.5,0.5c0.5,0.4,1.4,0.9,1.2,1.7
		c-0.2,0.9-1.1,0.7-1.8,0.8c-0.1,0-0.1,0.2-0.2,0.2c0.3,1.5,1.1,1.8,2,1.8c0.7,0,1.4-0.2,2-0.2c0.1,0,0.2,0,0.2,0c0.1,0,0.2,0,0.3,0
		c0.9,0,1.5-0.4,1.4-1.5c0-0.8,0.3-1.3,1.1-1.3c0.1,0,0.2,0,0.3,0c0.1,0,0.2,0,0.3,0c0.7,0,1.1-0.4,1.1-1.2
		c-0.1-1.6,0.9-2.3,2.3-2.7c0.3-0.1,0.6-0.3,0.9-0.3c0.2,0,0.3,0.1,0.5,0.3c0.4,0.5,0.4,1.1,0.1,1.6c-0.3,0.6-0.9,1-1.3,1.6
		c-0.3,0.4-1,0.7-0.7,1.4c0.5,1.3-0.3,2.3-0.8,3.4c0.9,0.1,1.7,0.4,2.5,0.4c0.8,0,1.6-0.3,2.2-1.4c0.2-0.3,0.4-0.4,0.7-0.4
		c0.6,0,1.4,0.6,1.6,1.5c0.2,1.7,0.4,3.4,0.9,5.1c0.2,0.5-0.1,1.2,0.5,1.5c0.1,0.1,0.3,0.1,0.4,0.1c0.5,0,0.8-0.5,1.2-0.8
		c0.6-0.6,1.2-1.3,2-1.3c0.3,0,0.6,0.1,1,0.3c0.1,0.1,0.2,0.1,0.3,0.1c0.3,0,0.6-0.4,0.7-0.7c0.4-2.8,2.6-2.9,4.6-3.2
		c0.7-0.1,1.5-0.1,1.7-1.1c0,0,0.1-0.1,0.1-0.1c1.2-1.8,3.9-0.5,5-2.5c0.5,0.7,0.8,1.3,1.2,1.8c0.9,1,1,1.5-0.6,1.6
		c-1.4,0.1-2.9,0.4-4.2,1.1c-1.4,0.7-2.7,1.6-4.3,2.2c-1.3,0.5-2,2.8-2.6,4.5c-0.2,0.6,2.1,1.6,3.4,1.6c0.2,0,0.5,0,0.6-0.1
		c2.8-1.8,6-2.4,9.2-3c0.3,0,0.6-0.2,0.8-0.2c0.3,0,0.5,0.1,0.7,0.6c0.2,0.8-0.2,1.5-1,1.7c-0.6,0.2-1.2,0.3-1.7,0.3
		c-0.1,0-0.2,0-0.2,0c-0.3,0-0.6,0-0.8,0c-1.7,0-3.1,0.5-4.2,2c-0.5,0.6-1.3,0.5-2.1,0.7c1.2,0.6,1.1,1.5,1,2.4
		c-0.2,1.4,0.2,2.1,1.2,2.1c0.3,0,0.6-0.1,1-0.2c1.2-0.4,2.4-0.4,3.6-0.5c0.2,0,0.3,0,0.5,0c0.5,0,1,0.2,1.1,0.9
		c0.1,0.9-0.3,1.5-1.1,1.6c-0.9,0.1-1.7,0.3-1.5,1.4c0.1,1.2-0.3,2.7,1.1,3.3c1,0.5,2.1,0.7,3.2,0.7c0.9,0,1.9-0.2,2.8-0.5
		c0.5-0.2,0.9-0.6,1.4-0.6c0.2,0,0.3,0,0.5,0.2c0.7,0.5-0.2,1.2-0.1,1.9c0,0.2-0.2,0.3-0.2,0.5c-0.2,1.8-1,3.9-0.1,5.2
		c1,1.4,2.7,2.7,4.5,3.1c1.7,0.3,2,1,2.1,2.6c0.1,1.6-0.2,3.5,1.4,4.5c1.5,1,2.2,3,4.3,3.3c0.5,0.1,0.5,0.8,0.6,1.3
		c0.3,2.1,3,2.5,3.4,4.5c0,0,0.1,0,0.1,0c0,0,0,0,0,0c0.2-0.1,0.4-0.2,0.6-0.2c0.7,0,0.9,0.8,1.2,1.3c0.5,0.7,1,1.7,1.7,1.7
		c0.4,0,0.8-0.3,1.3-1c0.1-0.1,0.3-0.2,0.5-0.2c0.2,0,0.3,0.1,0.3,0.4c0,1,0.4,1.4,1.2,1.4c0.1,0,0.2,0,0.3,0c1-0.1,1.6-0.6,1.8-1.7
		c0.1-0.8,0.5-1.2,1-1.2c0.3,0,0.7,0.2,1.1,0.6c0.8,0.7,1.6,1.1,2.6,1.2c3,0.4,3.5,0.7,3.2,3.7c-0.5,3.8,1.7,6.8,2.6,10.2
		c0.1,0.4,0.5,0.5,0.9,0.6c1,0.6,2.4,1,3,1.9c1,1.5,3.3,2,3.3,4.2c0,0.1,0.4,0.3,0.6,0.3c1.3,0.2,2,1.2,2.6,2.2
		c0.4,0.6,0.8,1.1,1.3,1.1c0.3,0,0.6-0.1,1-0.5c0.2-0.2,0.5-0.4,0.8-0.4c0.2,0,0.4,0.1,0.5,0.3c0.5,0.7,1,0.7,1.7,0.7
		c0.1,0,0.3,0,0.4,0c0,0,0,0,0,0c0.8,0,1.5,0.2,1.5,1.2c0,0.9-0.6,1-1.3,1.1c-1.7,0.3-2.2,1.4-1.3,2.9c0.8,1.3,1.8,2.5,3.5,2.8
		c0.7,0.1,1.5,0.4,1.7,1.2c0.2,0.8,0.8,1.1,1.6,1.3c1,0.2,1.9,0.9,1.7,2.1c-0.2,1.2,0,1.7,0.9,1.7c0.2,0,0.3,0,0.6,0
		c0.1,0,0.2,0,0.2,0c0.5,0,0.7,0.2,0.7,0.8c0,0.5-0.2,1-0.7,1c-0.1,0-0.1,0-0.2,0c-0.2-0.1-0.4-0.1-0.6-0.1c-0.5,0-0.7,0.2-0.8,0.9
		c0,0.9,0,1.8,1.2,2c0.8,0.1,1,0.4,0.8,1.2c-0.4,1.2,0,1.6,0.9,1.6c0.2,0,0.4,0,0.6-0.1c0.2,0.1,0.3,0.2,0.5,0.2
		c0.1,0,0.2,0,0.3-0.1c0.1,0.8,0.3,1.7,0.2,2.6c-0.2,1-0.8,2.2,0.9,2.5c1.4,0.3,0.9,1.8,1.7,2.3c0,0,0.1,0,0.2,0
		c0.2,0,0.5-0.1,0.7-0.2c1.3-0.4,2.6-0.6,3.9-0.6c0.5,0,0.9,0,1.4,0.1c0.4,0,0.8,0.1,1.2,0.1c1,0,1.9-0.3,2.6-1.4
		c0.3-0.5,1-0.7,1.6-0.7c0.1,0,0.2,0,0.3,0c1.9,0.2,4-0.2,5.3,1.7c0.4,0.6,1.1,0.6,1.8,0.7c2.2,0.1,2.3,0.3,2.1,2.6
		c-0.5,0.3-0.6,0.8-0.5,1.4c-0.6,0.2-0.6,0.7-0.4,1.2c-1.1,1.2-0.6,2.1,0.4,2.9c0.8,0.6,1.5,1.2,1.6,2.3c-0.5,0.9-0.7,2,0.1,2.5
		c1.4,0.9,1.2,2.3,1.8,3.4c1.3,2.4,1.1,5.6,4,7.1c0.6,0.3,1.4,1,0.4,1.7c-1.4,1-0.8,1.6,0.4,1.9c1.2,0.3,1.8,1,1.5,2.3
		c-0.1,0.7,0,1.4,0.6,1.8c1,0.6,1.4,1.5,1.5,2.6c0.1,0.6,0.2,1.3,1,1.6c2.5,0.9,4.6,2.3,5.3,5.1c0.2,0.7,0.6,1.1,1.3,1.5
		c1.8,0.9,3.6,1.9,4.7,3.7c0.6,1,1.2,1.9,2.6,2c0.8,0,1.2,0.9,1.6,1.7c1.4,2.5,1.5,5.3,1.5,8.1c0,4.1-1.1,8.1-0.9,12.2
		c0.1,1.7,1,3.2,0.6,4.9c-0.4,1.7,0.3,3.5-0.8,5.1c-0.2,0.3-0.1,1,0,1.4c0.8,2.5-0.7,4.1-2,5.9c-1.7,2.4-5.1,1.2-6.5,3.6
		c0,0.1-0.2,0.1-0.4,0.1c-0.3,0-0.7-0.1-1-0.1c-0.2,0-0.4-0.1-0.7-0.1c-1.2,0-2.4,0.6-3.7,0.6c-0.2,0-0.5,0-0.7-0.1c0,0,0,0,0,0
		c-0.2,0-0.5,0.2-0.5,0.4c-0.2,1.6-1.2,1.7-2.5,1.7c-0.7,0-1.4,0.4-1.9,1.1c-0.2,0.4-0.6,0.7-0.9,0.7c-0.1,0-0.3-0.1-0.4-0.2
		c-0.3-0.3-0.6-0.5-0.8-0.5c-0.3,0-0.5,0.3-0.7,0.7c-0.2,0.3-0.5,0.7-0.9,0.7c0,0-0.1,0-0.1,0c-2.1-0.6-4.3,0.1-6.3-1
		c-0.5-0.3-1.3-0.6-1-1.2c1-1.7,0.1-3.7,1.2-5.3c0.8-1.2,0.2-2.2-1.4-2.5c-0.6-1.2-1.2-2.4-1.8-3.6c-0.3-0.8-1-1.1-1.6-1.1
		c-0.5,0-0.9,0.2-1,0.5c-0.8,2-2.8,1.1-3.9,2.2c-0.2,0.2-0.4,0.3-0.6,0.3c-0.4,0-0.6-0.5-0.6-1.1c0-0.8,0.3-1.5,1-1.5
		c0.2,0,0.3,0,0.5,0.1c0.3,0.1,0.5,0.1,0.7,0.1c0.7,0,0.8-0.6,0.8-1.4c0-0.5-0.1-1-0.2-1.5c-0.4-1.3,0.1-2,1.4-2.2
		c1-0.1,1.8-0.6,1.9-1.7c0.2-1,0.5-1.4,1.1-1.4c0.3,0,0.7,0.1,1.2,0.4c0.3,0.2,0.6,0.4,0.9,0.4c0,0,0.1,0,0.1,0
		c0.3-0.1,0.6-0.1,0.8-0.1c1.8,0,2.4,1.9,3.3,3c1,1.3,2.8,2.5,4.4,2.5c0.2,0,0.5,0,0.7-0.1c0.6-0.1,1.1-0.4,1.5-1
		c1.5-2.1,2.9-4.2,3.3-6.9c0.2-1.2,0.7-2.3,1.7-3.2c0.6-0.5,0.8-1.3,0.5-2c-0.3-1.1-0.5-2.2,0-3.4c0.3-0.8-0.1-1.5-0.9-1.7
		c-1-0.2-1-0.8-1-1.6c0-1.2,0.2-2.6-1.2-3.3c0.1-0.8-0.2-1.3-1-1.6c0,0,0,0,0,0v0c-0.9-0.7-1.9-1.3-1.6-2.7c0-0.2-0.2-0.5-0.4-0.6
		c-1.4-0.4-2-1.7-2.8-2.7c0.1-0.3,0-0.6-0.3-0.8c0.2-0.4,0.2-0.9-0.1-1.2c-1.1-1.2-1.4-2.9-1.6-4.4c-0.4-1.9-1.4-2.7-3.1-2.7
		c-0.1,0-0.2,0-0.3,0c0,0-0.1,0-0.1,0l0,0c-0.1-0.5-0.4-0.7-0.8-0.7c0,0-0.1,0-0.1,0c-0.1-1.1,1-2.9-1.2-2.9c-0.1,0-0.2,0-0.3,0
		c-0.4-1.4-0.7-3-2.6-3c-0.1,0-0.2,0-0.3,0c0,0,0,0-0.1,0c-0.5,0-0.8-0.5-1.1-0.8c-0.6-0.9-1-2-1.6-2.8c-1-1.2-2-2.6-3.5-3.3
		c-0.3-0.2-0.6-0.2-0.9-0.2c-1,0-1.9,0.8-2.9,0.9c-0.1-0.1-0.3-0.1-0.4-0.1c-0.1,0-0.2,0-0.3,0.1c-0.5-0.5-1-1-1.6-1
		c-0.3,0-0.6,0.1-0.8,0.5c-1.3,1.8-3.2,1.7-4.9,2c-0.2,0-0.4,0.1-0.6,0.1c-0.7,0-1.2-0.3-1.5-1.1c-0.2-0.5-0.5-0.7-0.9-0.7
		c-0.3,0-0.6,0.1-1,0.1c-0.3,0-0.5,0-0.8,0c-1.7,0-3.3-0.5-5-0.5c0,0-0.1,0-0.1,0c-0.4,0-1,0.1-1.5,0.1c-0.7,0-1.3-0.1-1.6-0.6
		c-1.1-1.5-2.4-1.8-3.8-1.8c-0.4,0-0.9,0-1.3,0.1c0,0,0,0,0,0c-0.2,0-0.3-0.1-0.5-0.2c-2.4-1.4-5.1-1.8-7.7-2.6
		c-0.5-0.2-0.9-0.3-1.1-0.8c-0.5-1.4-2.5-1.9-2.3-3.8c0-0.2-0.5-0.5-0.9-0.6c-0.8-0.2-1.6-0.3-2.3-0.3c-0.8,0-1.6,0.1-2.3,0.6
		c-0.3,0.2-0.6,0.4-1,0.4c-0.1,0-0.3,0-0.4-0.1c-0.3-0.1-0.5-0.2-0.6-0.2c-0.6,0-0.9,0.5-1.4,1.1c-0.9,1.1-0.2,2.5-1.2,3.6
		c-1.9,2-1.5,4.7,0.8,6.1c1.2,0.7,2.3,1.4,3.2,2.5c0.8,1.1,1.7,2.1,3.2,2.1c0.2,0,0.3,0,0.5,0c0,0,0.1,0,0.1,0
		c0.6,0,0.7,0.7,0.9,1.1c0.3,0.8,0.7,1.2,1.2,1.2c0.3,0,0.7-0.1,1-0.4c0.4-0.3,0.8-0.4,1.1-0.4c0.5,0,0.9,0.3,1.3,0.9
		c0.2,0.3,0.5,0.7,0.9,0.7c0.2,0,0.5-0.1,0.7-0.5c0.3-0.5,0.6-0.7,0.8-0.7c0.4,0,0.7,0.7,0.7,1.1c0.1,1.9,1.5,2.1,2.8,2.4
		c1.3,0.3,2.6,0.6,3.9,0.6c0.4,0,0.7,0,1.1-0.1c0.1,0,0.1,0,0.1,0c0.7,0,1.3,0.6,1.9,0.6c0.3,0,0.5-0.1,0.8-0.4
		c0.1,0.1,0.2,0.1,0.3,0.1c0.1,0,0.3-0.1,0.4-0.2c0.3,0.1,0.6,0.2,0.9,0.2c0.6,0,1.3-0.2,1.9-0.2c0.4,0,0.8,0.1,1.2,0.3l0,0.1
		c0,0,0.1,0,0.1,0l0,0c0.3,1,0,2.3,1.2,2.8c0,0,0,0,0,0c0,0,0,0,0,0c0.5,1.1,1.8,0.6,2.5,1.2c-0.2,0.2-0.3,0.4-0.1,0.6
		c-0.9,0.8-2.4,1.4-0.7,2.8c0.1,0.1,0.1,0.4,0,0.5c-1.9,1.4-1.6,3.1-1,5.1c0.3,0.9-1,2.2,0.2,3.4c0.3,0.3,0,0.6-0.3,0.7
		c-1.9,0.6-1.5,2.2-1.8,3.6c-0.4,1.7,0,2.7,1.5,3.5c0.7,0.4,0.7,1.4,0.8,2.2c0.1,0.7,0.3,1.3,1.1,1.5c2.2,0.6,2.9,2.5,1.8,4.5
		c-0.1,0.3-0.3,0.6-0.3,0.9c0.4,2.1,0,4.2-0.1,6.2c-0.2,2.7,0.8,5.6-1.4,7.9c-0.3,0.3-0.3,0.6,0,1c0.7,0.7,0.2,1.3-0.2,2
		c-0.7,1-1.4,2.1-0.7,3.4c0,0.1-0.1,0.2-0.1,0.3c0,0,0.1,0.1,0.1,0.1c-1,1-2,2-1,3.7c0.4,0.6-0.1,1.3-0.3,1.9
		c-0.2,0.5-0.3,1.1-0.2,1.6c0.4,2.3,0,3.1-1.9,3.1c-0.2,0-0.5,0-0.8,0c-0.1,0-0.3,0-0.4,0c-1.8,0-3.6,0.8-5.4,0.8
		c-0.7,0-1.4-0.1-2.1-0.4c0,0,0,0,0,0c0,0-0.1,0-0.1,0c-0.4,0.2-0.8,0.3-1.2,0.3c-0.6,0-1.2-0.2-1.8-0.5c-0.7-0.3-1.3-0.4-2-0.4
		c-0.8,0-1.6,0.1-2.3,0.3c-1.1,0.2-1.7,0.9-1.8,2c0,0.1-0.4,0.3-0.5,0.3c0,0,0,0-0.1,0c-0.7-0.4-1.5-0.5-2.3-0.5c-1,0-2,0.2-3,0.2
		c-0.1,0-0.1,0-0.2,0c-1.3,0-2.8-0.6-4.1-0.6c-0.9,0-1.9,0.3-2.7,1.1c-0.1,0.1-0.2,0.1-0.3,0.1c-0.1,0-0.3,0-0.4-0.1
		c-0.4-0.2-0.9-0.3-1.2-0.3c-0.8,0-1.4,0.4-2,1.1c-0.3,0.3-0.6,0.6-1,0.6c-0.2,0-0.3,0-0.5-0.1c-0.6-0.3-0.5-0.9-0.3-1.3
		c0.8-2.1-0.3-5,2.4-6.3c0.1-0.1,0.3-0.3,0.3-0.4c0.1-1.9,1.4-2.4,2.9-2.8c0.9-0.2,1.5-1.4,0.8-1.8c-1.2-0.6-1.6-2.3-3.2-2.3
		c-0.2,0-0.5,0-0.8,0.1c-0.1,0-0.3,0.1-0.4,0.1c-1,0-1.7-1.2-1.8-2.3c-0.1-1.2,1.1-0.9,1.9-1.1c1.9-0.5,3.9-0.9,5.4-2.3
		c1.1-1,3-1.6,4.9-1.6c1.6,0,3.1,0.4,4,1.2c0.7,0.7,1.5,1,2.3,1c1.3,0,2.4-0.8,2.8-2.3c0.2-0.8,0.2-1.6,1.1-1.9
		c0.5-0.2,0.8-0.6,0.7-1.2c-0.1-0.6-0.5-0.7-1.1-0.8c-1.1-0.2-1.3-0.7-0.4-1.4c1-0.8,0.6-1.8,0.4-2.7c-0.2-0.6-0.7-1.1-0.6-1.7
		c0.5-2.6,0.9-5.1-0.2-7.7c-0.4-1-0.6-2.2-0.8-3.2c-0.3-1.9-0.9-3.6-1.6-5.4c-0.2-0.5-0.3-1.1-0.5-1.6c-0.7-2.2-3-3.4-3.4-5.8
		c-0.1-0.4-0.5-0.8-0.9-0.8c0,0,0,0,0,0c0,0-0.1,0-0.1,0c-1.7,0-2.4-1.3-3.2-2.4c-0.6-0.8-1.3-1.3-2.4-1.5c-1.2-0.2-2.7-0.2-2.8-2.2
		c0-0.5-0.7-0.7-1.3-0.7c-0.2,0-0.3,0-0.5,0c-0.2,0-0.4,0.1-0.6,0.1c-0.9,0-1.6-0.5-2-1.3c-0.6-1.2-1.6-1.3-2.7-1.5
		c-0.4-0.1-0.7-0.1-1.1-0.1c-0.2,0-0.5,0-0.7,0c-1.4,0-2.7-0.1-3.5-1.7c-0.1-0.2-0.4-0.2-0.7-0.3c-1.5-0.1-3.1-0.3-4.6-0.3
		c-1.4,0-2.8,0.2-4.1,0.9c-0.7,0.4-1.4,0.6-2.1,0.6c-0.9,0-1.7-0.4-2.4-1.2c-0.4-0.5-0.8-0.7-1.3-0.7c-0.1,0-0.2,0-0.3,0
		c-0.9,0.1-1.7,0.2-2.6,0.2c-1.3,0-2.5-0.1-3.8-0.1c-2.3,0-4.6,0.3-6.8,1.8c-1.2,0.9-2.6,2.5-4.5,2.5c-0.3,0-0.6,0-0.9-0.1
		c0,0,0,0,0,0c-0.2,0-0.6,0.4-0.6,0.6c-0.2,1.6-1.7,2.2-2.5,3.2c-0.5,0.7-1.4,1.3-1.3,2.2c0.3,2.7-2,3.4-3.5,4.7
		c-0.3,0.2-0.5,0.3-0.7,0.3c-0.4,0-0.7-0.4-0.7-1.1c-0.1-0.8,0.2-1.4,1-1.8c1.2-0.6,1.2-1.5,0.1-2.2c-0.6-0.4-1.1-0.8-0.6-1.4
		c1.5-1.9,1.3-4.5,2.6-6.5c0.6-0.9,0.1-1.8,0.6-2.5c0.9-1.2,1.4-2.4,1.1-3.9c-0.1-0.6-0.1-1.2,0.5-1.4c1.8-0.8,2-2.3,1.9-4
		c0,0,0-0.1,0-0.1c2.9-1.8,3.4-5.1,4.4-7.8c0.9-2.6,3-4.2,4.1-6.6c0.5-1.2,1.3-2,0.4-3.2c-0.5-0.6-0.4-1.2,0.2-1.2
		c0.1,0,0.2,0,0.3,0c0.3,0.1,0.5,0.1,0.7,0.1c1.3,0,1.5-1.1,1.9-2.2c0.6-1.6,0.9-3.5,2.7-4.4c0.9-0.4,0.9-1.2,0.1-1.9
		c0.2-0.5,0.2-1,0-1.5c2.9-1,4.5-2.9,5.2-6c0.4-1.9,1.9-3.6,3.6-4.8c0.8-0.5,1.1-1.1,0.7-2c-0.5-1.2-0.4-2.2,0.9-3
		c0.9-0.5,1.3-1.4,0.2-2.3c-0.8-0.6-0.5-1.4-0.4-2.2c0.4-1.8,0.2-3.7,0.2-5.6c0-1.7,0.1-3.6-1.1-5.2c-0.3-0.4,0-1.1,0.3-1.6
		c0.3-0.5,0.7-0.9,0.2-1.5c-0.3-0.3-0.6-0.5-1-0.5c-0.2,0-0.4,0.1-0.7,0.1c-1.7,0.6-3.4,0.7-5.2,0.7c-0.4,0-0.8,0-1.2,0
		c-0.7,0-1.4,0-2.2,0.1c0,0-0.1,0-0.1,0c0,0,0,0,0,0c-0.9-0.7-1.9-0.8-2.9-0.8c-0.7,0-1.5,0.1-2.3,0.1c-0.2-0.1-0.4-0.2-0.6-0.2
		c-0.2,0-0.3,0-0.5,0.1c-0.2-0.1-0.3-0.1-0.4-0.1c-0.3,0-0.5,0.2-0.4,0.6c0,0-0.1,0-0.1,0c-0.3,0-0.4,0.2-0.5,0.4
		c0,0.4,0.2,0.6,0.6,0.6c0,0,0,0,0.1,0c0,0.2,0,0.3,0.2,0.3c0,0,0.1,0,0.1,0c-0.2,0.2-0.2,0.5-0.5,0.5c-0.1,0-0.1,0-0.2-0.1
		c-0.5-0.3-0.9-0.4-1.2-0.4c-0.7,0-0.5,0.9-0.2,1.8c0.2,0.8,0.6,1.6,0.8,2.5c0.2,0.8,0.4,1.9-0.4,2.2c-1.6,0.6-3.2,1.2-4.9,1.5
		c-2.2,0.4-4,2-6.3,2.1c0,0-0.1,0.1-0.1,0.1c-0.2,0.8-0.7,0.9-1.3,0.9c-0.2,0-0.4,0-0.6,0c-0.2,0-0.5,0-0.7,0c-1,0-1.8,0.3-2,1.7
		c-0.1,0.5-0.4,0.9-0.8,0.9c-0.3,0-0.5-0.2-0.7-0.6c-0.5-1.1-1.1-1.4-1.9-1.4c-0.4,0-0.9,0.1-1.4,0.3c-0.1,0-0.3,0.1-0.4,0.1
		c-0.4,0-0.9-0.2-1.3-0.2c-0.1,0-0.2,0-0.3,0c-1.5,0.6-2.8,1.5-4.2,2.3c-0.1,0,0,0.4,0,0.5c0.4,2.7,1.1,5.5,0.7,8.3
		c0,0.2,0.1,0.3,0.3,0.4c1.3,0.4,1,1.6,1,2.5c0,1.4-0.2,3,0.6,4c1.7,2,1.3,4.1,1.4,6.3c0,0.8-0.3,1.7,0.5,2.2c1.1,0.7,1.2,1.8,1,2.8
		c-0.3,1.6,0.4,3,0.1,4.6c-0.1,0.7,0.3,1.2,0.9,1.5c0.9,0.5,1,1.2,1.2,2.1c0.6,3.1,0.7,5,3.7,5c0.3,0,0.7,0,1-0.1c0.1,0,0.2,0,0.3,0
		c0.9,0,1.3,0.5,1.4,1.4c0,0,0,0.1,0,0.1c-0.8,0.2-1.5,0.5-1.9,1.3c-0.4,1,1,1.2,0.9,2c-0.2,0.1-0.5,0.2-0.7,0.2
		c-0.5,0-0.9-0.3-1.3-0.6c-0.3-0.2-0.5-0.3-0.7-0.3c-0.4,0-0.6,0.5-0.8,1c-0.3,0.7-0.6,1.3-1.3,1.8c-1,0.7-1.3,1.7-0.8,2.8
		c0.7,1.6-0.3,2.2-1.6,2.7c-0.5,0.2-1.3,0-1.3,0.7c0.2,3-1.7,4.3-3.9,5.5c-0.1,0.1-0.1,0.4-0.2,0.7c-0.3,0.7-0.6,1.4-0.4,2.2
		c-0.5,0-1-0.1-1.5-0.1c-0.2,0-0.5,0-0.7,0.1c-2.9,1.3-6,1.9-9.1,2.4c-3,0.5-5.9,1.9-9,1.9c-0.4,0-0.8,0-1.2-0.1c0,0,0,0-0.1,0
		c-0.3,0-0.6,0.2-0.8,0.4c-0.5,0.4-1,0.6-1.5,0.6c-0.3,0-0.7-0.1-1.1-0.2c-0.3-0.1-0.5-0.2-0.8-0.2c-0.6,0-1.1,0.3-1.5,0.8
		c-0.4,0.4-0.8,0.7-1.2,0.7c-0.3,0-0.7-0.2-1-0.5c-0.4-0.4-0.7-0.5-0.9-0.5c-0.4,0-0.6,0.4-0.7,1.2c-0.1,0.7-0.5,1.3-1,1.3
		c-0.1,0-0.2,0-0.3-0.1c-0.5-0.4-1-0.6-1.4-0.6c-0.8,0-1.5,0.8-2.2,1.4c-0.4,0.4-1,0.5-1.5,0.5c-0.1,0-0.3,0-0.4,0
		c-0.1,0-0.3,0-0.4,0c-0.4,0-0.7,0.1-1,0.3c-2.6,2-6.2,1.4-9,3.1c-0.9,0.6-2.2,1-3.6,1c-0.4,0-0.7,0-1.1-0.1c-0.1,0-0.1,0-0.2,0
		c-0.6,0-1.2,0.4-1.4,1c-0.3,0.7-0.8,1.1-1.4,1.1c-0.3,0-0.5-0.1-0.9-0.2c-0.2-0.1-0.4-0.1-0.6-0.1c-0.6,0-1.1,0.3-1,1
		c0.2,1.4-0.2,1.9-0.9,1.9c-0.4,0-0.9-0.1-1.4-0.3c-0.1,0-0.2-0.1-0.4-0.1c-0.3,0-0.6,0.1-0.9,0.2c-1.5,1-3.3,1.6-4.5,3.1
		c-0.1-0.1-0.2-0.1-0.3-0.1c-0.1,0-0.2,0-0.4,0.1c-0.2-0.2-0.4-0.2-0.6-0.2c-0.4,0-0.7,0.3-1.1,0.5c-0.7,0.3-1.3,0.7-2.1,0.7
		c-0.1,0-0.1,0-0.2,0c-0.1,0-0.2,0-0.3,0c-1.7,0-2.3,1-2.2,2.7c0,0-0.1,0-0.1,0c-0.1,0-0.2,0.1-0.1,0.3c-0.5-0.3-1-0.4-1.3-0.4
		c-0.9,0-1.5,0.7-1.9,1.8c0,0-0.1,0-0.1,0c-1.5,0.1-2.6,1.1-3.9,1.6c-2.3,0.9-3.3,2.1-3,4.4c0,0-0.1,0-0.1,0c-0.1,0-0.1,0.1-0.1,0.2
		c-1.6,0.2-3.2,0.3-4.2,1.8c-0.1,0.2-0.4,0.2-0.7,0.2c-4,0.4-8.1,0.4-12,1.7c-1.4,0.5-2.3,0.8-2.4,2.3c-0.1,0-0.2,0-0.2,0
		c-0.5,0-0.9,0.2-1.4,0.2c-0.1,0-0.2,0-0.3,0c-0.2,0-0.4,0-0.5,0c-1,0-1.8,0.5-1.7,1.9c0.1,0.9-0.3,1.3-0.9,1.3
		c-0.2,0-0.4,0-0.6-0.1c-0.4-0.1-0.7-0.2-1.1-0.2c-0.9,0-1.6,0.4-2.4,1.1c-1,0.8-1.7,1.2-2.4,1.2c-0.8,0-1.6-0.6-2.5-1.9
		c-0.4-0.6-0.8-1-1.3-1c-0.3,0-0.7,0.3-1,0.9c-0.2,0.3-0.4,0.5-0.8,0.5c0,0-0.1,0-0.1,0c-2.1-0.2-4.3-0.3-5.5-2.3
		c-0.4-0.6-0.8-0.9-1.1-0.9c-0.3,0-0.7,0.2-1.1,0.5c-0.4,0.3-0.7,0.5-1,0.5c-0.5,0-0.8-0.4-1.2-1c-0.3-0.5-0.7-1-1.2-1
		c-0.1,0-0.3,0-0.4,0.1c-0.5,0.2-1,0.3-1.5,0.3c-0.5,0-1.1-0.2-1.6-0.7c-0.1-0.1-0.2-0.1-0.4-0.1c-0.4,0-0.9,0.2-1.4,0.2
		c-0.4,0-0.7,0.2-1.2,0.2c-0.1,0-0.3,0-0.4-0.1c-0.4-0.2-0.7-0.2-1-0.2c-0.7,0-1.1,0.5-1,1.7c0.1,0.8-0.7,1.1-1.3,1.4
		c-0.1,0.1-0.2,0.1-0.4,0.1c-0.2,0-0.4-0.2-0.5-0.5c-0.1-0.4-0.2-0.8-0.6-0.8c-0.1,0-0.1,0-0.2,0c-0.6,0.1-1.1,0.6-1,1.2
		c0,2-1.4,2.4-2.9,2.9c-1.4,0.5-3.1,0.1-4.1,1.6c-0.2,0.3-0.5,0.6-0.8,0.6c-0.1,0-0.1,0-0.2,0c-0.6-0.2-0.4-0.8-0.6-1.2
		c-0.5-1.6,1.2-2.3,1.5-3.6c0.4-2,1.3-3.6,3.3-4.5c0.7-0.3,1.1-0.9,0.8-1.7c-0.4-1.2-0.3-2,1.1-2.4c0.3-0.1,0.5-0.4,0.4-0.7
		c-0.1-0.2-0.2-0.2-0.3-0.2c-0.1,0-0.3,0.1-0.5,0.2c-0.3,0.1-0.6,0.3-0.9,0.3c-0.2,0-0.3-0.1-0.5-0.3c-0.5-0.7-1.1-0.8-1.8-0.8
		c-0.2,0-0.5,0-0.7,0c0,0-0.1,0-0.1,0c-0.8,0-1.6-0.3-2-1c-0.5-0.9-1.2-1.2-1.8-1.2c-0.7,0-1.5,0.3-2.2,0.4
		c-1.5,0.3-1.5,1.2-1.2,2.3c0,0.1-0.1,0.4-0.2,0.5c-1.6,1.9-1.7,4.2-1.4,6.5c-0.3,0.2-0.4,0.4-0.4,0.7c-0.8,0.7-1,1.6-0.9,2.6
		c0,0.5,0,1.1-0.5,1.3c-0.5,0.2-1.1,0.3-1.6,0.3c-0.9,0-1.8-0.3-2.7-0.7c-1.2-0.6-0.9-1.7-0.6-2.6c0.7-2.6-0.1-5.3,0.5-7.9
		c0.2-0.7-0.3-1.3-1.1-1.6c-0.1,0-0.2-0.1-0.4-0.1c-0.4,0-0.8,0.3-1,0.7c-0.2,0.5-0.6,0.7-1.1,0.8c-1.4,0.4-2.3,1.1-1.1,2.6
		c0.3,0.4,0.4,0.9,0.1,1.2c-1.3,1.7,0.1,4.4-2.2,5.8c-0.4,0.3-0.1,0.8,0.1,1.2c0.3,0.6,0.1,1.1-0.4,1.4c-0.3,0.2-0.6,0.3-0.8,0.3
		c-0.3,0-0.6-0.1-0.8-0.4c-0.6-0.6-1.1-1.2-1.8-1.5c-1-0.5-1-1.2-0.7-2.1c0.7-1.8,0.4-3.7,0.3-5.6c-0.2-2.2,0.2-4.4-0.4-6.5
		c-0.1-0.2,0.1-0.6,0.3-0.8c1.5-1.5,1.3-3.5,0.9-5.2c-0.5-1.6-0.1-3.8-1.8-4.8c-1.9-1.1-2.6-3.2-3.9-4.7c-0.4-0.4-0.6-1.1-1.2-1.1
		c0,0-0.1,0-0.1,0c-0.8,0.1-0.8,0.8-0.9,1.4c-0.1,1-0.5,1.6-1.5,1.6c-0.1,0-0.2,0-0.3,0c-0.1,0-0.2,0-0.4,0c-0.8,0-1.5,0.3-1.9,1.2
		c0,0-0.1,0-0.1,0c-0.1,0-0.1,0-0.2,0c-1.8,0-3.2,0.9-4.7,1.7c-1.9,1-1.5,1.8-0.8,3c-0.2,0.1-0.3,0.3-0.2,0.5
		c-0.9,0.4-1.3,1.1-1,2.1c-0.2,0.5-0.2,0.9,0,1.4c-0.4,0.4-0.8,0.6-1.3,1c-1.1,0.8-1.7,1.9-0.8,3.2c-0.1,0.5-0.3,1-0.4,1.4
		c-2.8,1.2-2.8,1.2-2.4,4.1c0.1,0.6,0.1,1.2,0.2,1.8c-0.2,0-0.3,0.2-0.2,0.4c-0.7,0.4-0.4,1.1-0.5,1.7c-0.1,0.6-0.1,1.3-0.6,1.7
		c-0.9,0.7-1.5,1.2-0.3,2.3c0.5,0.4-0.2,1-0.7,1.2c-0.1,0-0.2,0.1-0.3,0.1c-0.3,0-0.5-0.2-0.5-0.5c0.5-2-0.5-2.2-1.7-2.2
		c-0.3,0-0.6,0-0.9,0c-0.2,0-0.3,0-0.5,0c-0.3,0-0.6-0.1-0.8-0.5c-0.2-0.5-0.1-1.1,0.2-1.6c1.6-2.4,1.6-2.9-0.7-4.8
		c-0.8-0.7-1.5-2-1.1-2.3c1.7-0.9,0.5-4.1,3.1-4.1c0.1,0,0.2,0,0.4,0c0,0,0,0,0,0c0.2,0,0.5-0.5,0.6-0.8c0.5-0.9,0.6-1.9,0.2-3.1
		c0.6,0.1,0.5,1,1,1c0.1,0,0.2,0,0.3-0.1c0.7-0.3,0.9-0.8,0.8-1.5c0-0.1-0.1-0.2-0.1-0.4c-0.1-2.3,0.7-3.3,2.9-3.4
		c1,0,1.4-0.6,1.6-1.4c0.2-0.8,0.3-1.7,1.2-1.9c1.2-0.2,1.7-1.2,2.2-2.1c0.6-1.4,1.4-2.3,3-2.4c0.5,0,0.7-0.3,0.9-0.8
		c1.3-2.3,2.7-4.4,5.3-5.6c0.5-0.2,1.1-0.4,1.4-0.8c0.4-0.4,0.8-0.6,1.1-0.6c0.5,0,0.9,0.5,1.2,1.1c0.3,0.6,0.4,1.5,1.2,1.5
		c0,0,0,0,0,0c0,0,0,0,0,0c1.2,0,1.6,0.9,2.3,1.4c0.8,0.6,0.6,1.9,1.7,2.3c0,0.2,0,0.3,0.1,0.3c0,0,0.1,0,0.1,0
		c0.9,1.6,1,3.9,3.5,3.9c0.1,0,0.2,0,0.3,0c0,0.3,0.1,0.4,0.4,0.5c0.2,1.5,1.2,2.2,2.5,2.6c0.6,0.2,1.2,0.2,1.3,1.1
		c0.1,2,2.3,2.2,3.1,3.6c0.1,0.1,0.2,0.2,0.3,0.2c0.2,0,0.4-0.1,0.5-0.3c0.6-1.3,1.8-1.8,2.8-2.5c0.7-0.4,0.4-1.1,0.1-1.7
		c-0.5-1-0.3-1.8,0.5-2.5c0.3-0.2,0.7-0.6,1-0.6c0.3,0,0.5,0.3,0.5,1c0.1,1.1,0.9,1.5,1.9,1.5c0,0,0,0,0,0c0,0,0,0,0.1,0
		c2.3,0,4.1,0.7,4.9,3.1c0.1,0.4,0.5,0.6,0.8,0.6c0.1,0,0.3,0,0.4-0.1c0.3-0.1,0.6-0.1,0.8-0.1c0.8,0,1.5,0.4,2,1.3
		c0.3,0.5,0.7,0.9,1.1,0.9c0.3,0,0.6-0.2,1-0.6c0.4-0.5,0.9-0.6,1.4-0.6c0.2,0,0.4,0,0.6,0.1c0.3,0.1,0.5,0.1,0.8,0.1
		c0.8,0,1.5-0.3,2.1-1.1c0.4,1.4,1.4,2.1,2.5,2.2c1.3,0.1,2.1,0.8,2.7,1.7c0.6,0.9,1.3,1.3,2.3,1.3c0.1,0,0.2,0,0.4,0
		c1-0.1,2-0.1,2.9-0.2c0,0,0,0,0,0c0.4,1,0,2.8,1.4,2.9c0.5,0,1,0,1.5,0c1.2,0,2.4-0.1,3.5-0.9c0.6,0,1.2,0,1.8,0
		c0.9,0.8,1.9,1,2.9,1c0.9,0,1.8-0.2,2.7-0.2c0.4,0,0.7,0,1.1,0.1c0,0,0,0,0,0c0.2,0,0.5-0.2,0.6-0.4c0.5-1.6,1.9-1.7,3.2-2
		c0.1,0.1,0.1,0.1,0.2,0.1c0.1,0,0.1,0,0.2-0.1c0.5,0.4,1,0.6,1.6,0.6c0.4,0,0.8-0.1,1.1-0.4c1.4-1.2,3.8-0.1,4.8-2.1
		c0,0,0.1-0.1,0.3-0.1c0.1,0,0.2,0,0.3,0c0.4,0.2,0.8,0.3,1.2,0.3c1.2,0,2-1,2.6-2.2c0.8-0.8,1.9-0.8,3-1c0.5,0.2,0.9,0.3,1.3,0.3
		c2.2,0,3.5-2.3,5.4-2.8c0.2,0.1,0.4,0.1,0.6,0.1c0.2,0,0.4,0,0.5-0.2c0.2,0.1,0.4,0.1,0.5,0.1c0.5,0,1-0.2,1.5-0.2
		c0.1,0,0.3,0,0.4,0.1c0.3,0.1,0.7,0.2,1,0.2c1.1,0,1.9-0.7,2.5-1.6c0.2,0.1,0.3,0.2,0.5,0.2c0.2,0,0.4-0.1,0.5-0.2
		c0.3,0.1,0.7,0.2,1.1,0.2c0.4,0,0.9-0.1,1.2-0.5c1-1.1,2.3-1.3,3.7-1.4c1.4-0.1,2.6-0.5,3.6-1.7c0.5-0.6,1.1-0.9,1.8-0.9
		c0.1,0,0.2,0,0.3,0c0.2,0,0.3,0,0.4,0c0.9,0,1.5-0.4,1.7-1.5c0.2-0.8,0.4-1.4,1-1.4c0.3,0,0.6,0.1,1,0.4c0.3,0.2,0.7,0.3,1,0.3
		c0.2,0,0.4-0.1,0.6-0.2c1-1.3,2.6-1.6,3.9-2.3c2-0.9,2.6-3.1,4-4.4c0.1,0,0.2,0,0.4,0c0.4,0.5,0.8,0.7,1.2,0.7
		c0.6,0,1.1-0.5,1.5-1.1c0.4-0.6,0.6-1.2,1.6-1.2c0,0,0,0,0,0c0.1,0,0.2,0,0.3,0c2,0,2.1-0.3,1.3-2.4c-0.1-0.3-0.5-0.7-0.1-1
		c0.1-0.1,0.2-0.1,0.4-0.1c0.3,0,0.5,0.3,0.7,0.6c0.3,0.4,0.6,0.7,1,0.7c0.2,0,0.3,0,0.5-0.1c0.7-0.3,0.9-0.9,0.8-1.7
		c-0.1-0.6-0.1-1.2,0.4-1.5c2.2-1.3,2.7-3.8,4.4-5.5c1.8-1.9,2.4-4.7,2.8-7.3c0.3-1.4,0.8-2.7,2.2-2.7c1.1,0,2.3-0.5,3.2-0.5
		c0.2,0,0.4,0,0.5,0.1c0.4,0.1,0.7,0.2,1,0.2c1.5,0,2.2-1.3,3.3-1.9c0.8-0.4,1-1,1.2-1.9c0.6-1.9,0.5-4,1.3-5.9
		c0.1,0.1,0.2,0.2,0.2,0.2c0.1,0,0.2-0.1,0.2-0.2c0.2,0.4,0.4,0.5,0.7,0.5c0.1,0,0.2,0,0.4-0.1c0.3,0.2,0.7,0.3,1,0.3
		c0.4,0,0.8-0.1,1.2-0.3c0.5,0.1,0.9,0.2,1.2,0.2c1,0,1.3-0.5,1.4-1.9c1.1-0.1,1.9-0.9,2.5-1.6c1.1-1.3,2-2.6,3.6-3.2
		c0.6-0.2,1.1-0.7,0.6-1.5c-0.8-1.4-0.7-2.9-0.6-4.5c0-1.5,0.2-3.2-1-4.5c-0.4-0.4-0.5-1-0.6-1.5c-0.3-2.7,0.1-5.5-1.7-7.9
		c-0.1-0.2,0-0.5-0.1-0.7c-1.1-2.2,0.9-5.6-2.5-7.1c-0.3-0.1-0.4-0.7-0.5-1.2c-0.1-0.5-0.2-1-0.8-1c0,0,0,0,0,0
		c-0.5,0-0.7,0.4-0.8,0.9c-0.2,0.7-0.5,1-1,1c-0.2,0-0.5-0.1-0.8-0.3c-0.3-0.1-0.5-0.2-0.8-0.2c-0.2,0-0.4,0-0.6,0.1
		c-0.5,0.2-0.9,0.3-1.4,0.3c-1.2,0-2.2-0.8-3.1-1.8c-1.1-1.3-2.7-2.1-3.7-3.5c-0.1-0.1,0-0.2,0-0.4c0.3-0.7,0-1-0.7-1.1
		c-0.1,0-0.1,0-0.2,0c-0.7,0-1,0.3-0.9,1.1c0,0.6-0.2,1.5-0.7,1.5c-0.1,0-0.1,0-0.2,0c-1.7-0.6-3.2-1.5-4.8-2.2c0,0-0.1-0.1-0.1-0.2
		c-0.5-2.1-2.4-3.4-3.3-5.2c-0.2-0.4-0.4-0.4-0.8-0.5c-1.5-0.4-2.8-1.2-3.7-2.5c-0.3-0.4-0.4-1-0.9-1c-0.1,0-0.1,0-0.2,0
		c-0.6,0.1-0.6,0.7-0.7,1.2c-0.1,0.4-0.2,0.8-0.5,0.8c-0.1,0-0.3,0-0.5-0.2c-0.4-0.2-0.7-0.3-0.9-0.3c-0.7,0-0.9,0.7-0.8,1.6
		c0.1,1.5-0.4,2.2-1.9,2.2c-0.6,0-1.2,0.5-1,1.1c0.6,1.8-0.6,2.7-1.7,3.7c-0.2,0.2-0.5,0.6-0.4,0.8c0.6,1.4-0.4,2.2-1.2,3
		c-0.5,0.5-0.6,1.2-0.6,1.9c-0.1,2.4-1.1,3.4-3.5,3.6c-1,0.1-1.8,0.3-2.1,1.4c0,0-0.1,0-0.1,0c-0.3,0-0.5,0.1-0.5,0.4
		c0,0.4,0.3,0.6,0.7,0.6c0,0.3,0,0.6,0,0.9c-1.5,1.5-3,3.1-5.2,3.4c-1.3,0.2-1.7,0.7-1.6,1.9c0.1,1.3-0.3,1.9-1.2,1.9
		c-0.3,0-0.7-0.1-1.1-0.2c-0.4-0.1-0.7-0.2-1-0.2c-0.7,0-1.4,0.4-1.8,1.2c-0.2,0-0.4,0-0.7,0c-0.2-0.3-0.4-0.6-0.6-0.9
		c-0.4-0.7-0.9-1.2-1.3-1.2c-0.3,0-0.7,0.4-1,1.3c-0.2,0.4-0.5,0.6-0.8,0.6c-0.3,0-0.6-0.2-0.8-0.5c-0.3-0.8-0.7-1.1-1.1-1.1
		c-0.3,0-0.7,0.2-1.2,0.7c-0.2,0.2-0.5,0.3-0.8,0.3c-0.4,0-0.7-0.2-1-0.5c-0.5-0.5-0.5-1.1,0.1-1.5c3-2,0.9-5.3,2-7.8
		c0.1-0.2-0.3-0.7-0.5-0.9c-1.3-1.3-2.7-2.1-4.5-2.6c-2-0.5-4.5,0.3-5.8-2.1c-0.1-0.1-0.3-0.2-0.5-0.2c-0.1,0-0.3,0-0.3,0.1
		c-0.4,0.2-0.8,0.3-1.2,0.3c-1.5,0-2.8-1.4-4.3-1.4c-0.3,0-0.6,0-0.9,0.2c-0.9-1.2-2.3-1-3.6-1.1c-0.6-0.1-1.2-0.3-1.7-0.7
		c-0.3-0.3-0.5-0.9-0.9-0.9c-0.1,0-0.2,0-0.3,0.1c-0.6,0.3-0.6,1-0.6,1.7c0,0.9-0.2,1.6-1.2,1.7c-1.4,0.1-1.8,1-1.6,2.2
		c0.2,1.2-0.1,1.9-1.4,2.3c-1.4,0.4-1.9,1.6-1.5,2.9c-0.5,0.8-1,1.7-1.6,2.5c0,0,0,0,0,0c-0.5,0-0.8,0.3-0.9,0.7c-0.2,0-0.3,0-0.5,0
		c-0.4-0.2-0.8-0.2-1.2-0.2c-1,0-1.9,0.4-2.9,0.5c-1.1,0.2-1.2,1.2-1.4,2.1c0,0.2-0.3,0.4-0.5,0.5c-2.1,0.6-2.7,3.3-5.2,3.7
		c-0.8,0.1-1.3,1.9-2.5,1.9c-0.3,0-0.7-0.1-1.1-0.4c0,0,0,0,0,0c0,0-0.1,0-0.1,0.1c-0.6,2.1-2.8,2.1-4.2,3.1c-0.1,0,0,0.2-0.1,0.3
		c-0.2,0-0.4,0-0.7,0c-0.1,0-0.3,0-0.4,0c-0.7-0.1-1.3-0.1-1.7-0.1c-1.1,0-1.4,0.4-2.4,1.9c-0.1-0.1-0.1-0.2-0.2-0.2
		c-0.1,0-0.1,0.1-0.2,0.2c-0.2-0.5-0.4-0.9-0.5-1.4c-0.1-0.8-0.3-1.5-1.2-1.5c0,0-0.1,0-0.1,0c-1.1,0.1-0.7,0.9-0.6,1.5
		c0.1,0.6-0.2,1-0.7,1.2c-0.2,0.1-0.5,0.2-0.7,0.2c-0.3,0-0.5-0.1-0.6-0.3c-0.5-0.9-1.1-1.2-1.8-1.2c-0.7,0-1.5,0.3-2.3,0.4
		c-0.2-0.1-0.4-0.2-0.6-0.2c-0.2,0-0.4,0.1-0.6,0.2c-0.9,0.1-1.9,0-2.7,0.4c-1.7,1-3.5,1.8-5.4,1.8c-0.5,0-1-0.1-1.6-0.2
		c-0.1-0.1-0.3-0.2-0.4-0.2c-0.1,0-0.2,0-0.3,0.1c-1.8-1.8-3.9-2.8-6.4-2.8c-0.4,0-0.7,0-1.1,0.1c-0.1,0-0.2,0-0.2,0
		c-1.2,0-1.7-1.1-1.5-2.3c0.2-1.3-0.5-1.6-1.6-2c-0.3-0.1-0.5-0.1-0.8-0.1c-0.8,0-1.6,0.3-2.3,0.3c-0.2,0-0.4,0-0.7-0.1
		c-1.2-0.4-2.4-0.6-3.6-0.6c-0.9,0-1.9,0.1-2.8,0.2c-0.5,0-0.9,0.1-1.4,0.1c-1,0-2.1-0.1-3.1-0.1c-1.8,0-3.5,0.2-5.3,1.3
		c-1.5,1-3.2,1.2-2.8,4c-0.7-0.7-1.5-1.5-2.1-1.5c-0.2,0-0.4,0.2-0.5,0.6c-0.3,1.7-0.9,3.8,0.4,5.5c0.7,0.8,0.9,1.6,0.6,2.5
		c-0.1,0.4-0.4,0.5-0.8,0.5c0,0-0.1,0-0.1,0c-1.1-0.1-1.8-0.8-2.2-1.7c-0.1-0.3-0.3-0.6-0.3-0.9c-0.1-1.7-1-2.2-2.4-2.2
		c-0.1,0-0.2,0-0.3,0c-0.2,0-0.3,0-0.5,0c-1,0-1.8-0.2-1.8-1.6c0-0.5-0.3-0.8-0.8-0.8c-0.1,0-0.2,0-0.3,0c-0.6,0.1-1.1,0.7-0.8,1.2
		c0.7,1.3,0.3,1.7-0.5,1.7c-0.2,0-0.4,0-0.7-0.1c-0.1,0-0.1,0-0.2,0c-0.6,0-0.8,0.4-1.2,0.7c-0.5,0.4-1.3,0.5-2.1,0.5
		c-0.9,0-1.7-0.2-1.9-0.7c-0.4-0.9-1-1.2-1.7-1.2c-0.2,0-0.3,0-0.5,0c-0.2,0-0.4,0-0.6,0c-0.5,0-1-0.1-1.4-0.6c-0.5-0.7-0.5-2-1.3-2
		c-0.3,0-0.6,0.1-1.2,0.5c0,0,0,0,0,0c-0.1,0-0.3-0.1-0.4-0.2c-0.6-0.6-1.3-0.8-2-0.8c-0.5,0-1,0.1-1.5,0.1c-0.1,0-0.2,0-0.3,0
		c-2,0-4.4-2.3-4.1-4.1c0.4-2.3,1.2-4.5,1.8-6.7c0.5-2.1,1.2-4.3,1-6.5c-0.1-1.4-0.1-2.7,0.2-4c0.2-1.2,0.4-2.3-0.1-3.4
		c-0.4-0.7-0.1-1.3,0.6-1.6c0.6-0.3,1.3-0.7,1.1-1.5c-0.2-0.8-1.1-0.7-1.7-0.9c-0.2-0.1-0.4-0.1-0.5-0.1c-0.3,0-0.6,0.1-0.9,0.2
		c-2.2,0.8-4.4,1.8-6.9,2c-3.1,0.1-3.3,0.4-2.9,3.6c0.2,1.5-0.1,2.1-1.8,2.2c-1.7,0-2.3,1-1.8,2.5c0.3,0.9-0.1,0.9-0.7,1.1
		c-2.2,0.6-3.1,1.9-2.8,4.2c-0.2,0.6-0.2,1.3-0.1,2c-0.6,0.2-1.6,0.1-1.5,1c0.3,1.3,0.4,2.6,0.5,3.9c0,0.5,0.5,0.9,1,0.9
		c0,0,0.1,0,0.1,0c0.1,0,0.2,0,0.3,0c1.5,0,1.1,1.2,0.8,2c-0.3,0.9-0.4,1.4,0.7,1.6c1.1,0.2,1.4,1,1.5,2c0.1,0.6-0.1,1.3,0.6,1.6
		c0,0,0,0,0,0c0,0.2,0.1,0.4,0.1,0.5c0.3,0.5,1.2,0.7,0.6,1.5c-0.2,0.4-0.5,0.4-0.8,0.4c-0.3,0-0.6-0.1-0.9-0.1c-0.3,0-0.6,0-0.9,0
		c-1.2-0.1-1.7-0.7-1.1-1.9c0.2-0.3,0.6-0.5,0.2-1c-0.7,0.2-0.8,1.4-1.6,1.4c-0.1,0-0.3,0-0.5-0.1c-1.2-0.6-2.2-1.6-2.3-3.1
		c0-0.1,0-0.1,0-0.2c0-1-0.3-1.8-1.6-1.8c-1.2,0-1.5-0.9-0.9-1.8c0.7-1,0.2-1.6-0.6-2.1c-1.1-0.8-2-1.5-0.5-2.7
		c0.5-0.3-0.1-0.3-0.1-0.4c-1.2-2.3,0.6-4.4,0.7-6.6c0-0.2,0.4-0.4,0.6-0.6c1.8-1.4,1.4-4,3.1-5.4c0,0,0-0.1,0-0.2
		c0-0.9,0.1-1.7,1.3-1.9c0.5-0.1,0.7-0.6,1-1.1c1.9-3.6,2.8-7.5,3.4-11.5c0.1-0.5-0.2-0.8-0.5-1.1c-0.7-0.7-0.7-1.3,0.2-1.8
		c1.4-0.6,1.6-1.6,1.2-3c-0.3-1,0-2.2-0.4-3.3c-0.3-0.8,0.2-1.5,0.8-2.1c0.4-0.4,1-0.8,1-1.3c0.1-1.2,0.8-1.4,1.6-1.4
		c0.2,0,0.3,0,0.5,0c0.9,0,1.8,0.1,2.8,0.1c1.5,0,3-0.3,4.3-1.6c0.4-0.4,1.1-0.5,1.7-0.6c0.4-0.1,0.9-0.2,1.1-0.6c0.7-1.4,2-2,3.3-2
		c0.1,0,0.2,0,0.3,0c0.3,0,0.5,0,0.8,0c2.6,0,4.8-0.9,7-2c0.7-0.3,1.6-0.1,2-0.7c0.4-0.7,0.8-0.9,1.2-0.9c0.6,0,1.1,0.5,1.8,0.9
		c1.7,1,3,2.9,5.1,2.9c0.3,0,0.6,0,1-0.1c0,0,0.1,0,0.1,0c0,0,0,0,0,0c0.2,0.6,0.4,1.1,1.1,1.2c0,0,0.1,0.1,0.1,0.1c0,0,0,0,0,0
		c0.4,1.2,1.3,1.6,2.4,1.7c0,0.3,0.1,0.4,0.4,0.4c0,0,0,0,0.1,0c0.2,0.7,0.1,1.8,1.1,1.9c0.9,0.1,1.8,0.3,2.7,0.3
		c0.7,0,1.5-0.1,2.2-0.5c0.2,0.1,0.4,0.2,0.6,0.2c0.2,0,0.3,0,0.5-0.1c0.5,0.6,1,0.9,1.5,0.9c0.5,0,0.9-0.2,1.4-0.7
		c0.5-0.5,1-0.6,1.6-0.6c0.2,0,0.4,0,0.6,0c0.8,0.1,1.6,0.2,2.4,0.2c1.4,0,2.8-0.3,4.2-1.1c0.5-0.3,1-0.5,1.6-0.5
		c0.4,0,0.8,0.1,1.2,0.3c0.4,0.2,0.9,0.4,1.3,0.4c0.3,0,0.6-0.1,0.8-0.3c1.2-1.5,3-1,4.3-1.8c0.5-0.3,1-0.4,1.4-0.4
		c0.6,0,1.1,0.2,1.7,0.6c2.4,1.5,4.7,3.2,7.6,3.2c1.4,0,2.4,0.5,2.8,1.9c0.1,0.4,0.3,0.7,0.6,0.7c0.2,0,0.3-0.1,0.6-0.4
		c0.4-0.5,0.8-0.7,1.1-0.7c0.4,0,0.8,0.3,1.3,0.8c0.3,0.3,0.6,0.5,1.1,0.5c0.1,0,0.2,0,0.3,0c0.2,0,0.4,0,0.6,0
		c1.1,0,1.8,0.6,2.1,1.7c0.2,0.6,0.6,0.7,1.1,0.7c1.3,0,2.6,0.1,3.9,0.1c1.2,0,2.3,0.2,2.9,1.5c0.2,0.5,0.6,0.5,1,0.5
		c0.1,0,0.1,0,0.2,0c0.1,0,0.2,0,0.3,0c2,0.2,4.1,0,5.9,1.7c1.2,1.1,3.3,0.3,4.8,1.3c0,0,0,0,0,0c0.1,0,0.3-0.2,0.4-0.3
		c0.4-0.5,0.8-0.8,1.1-0.8c0.5,0,0.9,0.4,1.3,1c0.2,0.3,0.5,0.7,0.8,0.7c0.1,0,0.3-0.1,0.4-0.4c0.5-0.8,0.9-1.1,1.4-1.1
		c0.6,0,1.2,0.5,1.9,0.9c0.4,0.3,1,0.5,1.6,0.5c0.5,0,0.9-0.2,0.8-0.8c-0.2-1.8-0.3-3.6,0.3-5.3c0.1-0.3-0.4-0.8-0.6-1.1
		c-0.4-0.5-0.4-1.1,0.1-1.5c1-0.6,0.7-1.1,0.4-2.1c-0.7-2.2-2.3-4.6,0.6-6.6c0.2-0.1,0.3-0.5,0.3-0.6c-1.9-1.7-0.7-3.1,0.5-4.5
		c0.1-0.1,0.2-0.4,0.1-0.5c-0.5-1.2,0.1-1.8,1-2.5c0.2-0.2,0.5-0.6,0.5-0.7c-1-1.5-0.1-4-2.6-4.7c0-0.3-0.1-0.5-0.4-0.6
		c-0.1-0.7-0.3-1.4-0.1-2c0.2-1,0.8-2.1-0.7-2.6c-1-0.4-1-1.9-2.3-2c-1.4,0-2.2-0.5-1.9-2.1c0.1-0.4-0.2-0.9-0.4-1.2
		c-1.1-1.5-0.9-3.7-2.5-5c-0.3-0.2-0.4-0.8-0.2-1.2c0.6-1.2,0.2-2-0.6-2.9c-1.1-1.1-0.7-2.2,0.8-2.6c0.7-0.2,0.9-0.6,1-1.3
		c0.1-2.3,3.1-2.7,3.3-5c0-0.1,0.7-0.1,1-0.2c0.8-0.4,1.9-0.2,2.5-1.1c0.7-1.2,1.9-1.5,3.1-1.8c0.6-0.1,1.1-0.2,1.4-0.7
		c1-1.5,2.5-1.7,4-1.7c2-0.1,4.1,0,5.7-1.8c0.2-0.3,0.7-0.4,1-0.4c2.2-0.4,4.7,0.5,6.5-1.6c0,0,0,0,0.1,0c0,0,0.1,0,0.1,0
		c0,0,0.1,0,0.1,0c2.2,0,4.2-0.9,6.4-0.9c0.1,0,0.2,0,0.4,0c1.6,0.1,3.2,0.2,4.8,0.2c1.2,0,2.4-0.1,3.6-0.4c0,0,0,0,0,0
		c0.1,0,0.2,0.1,0.3,0.1c0.5,0.3,0.9,0.5,1.4,0.5c0.6,0,1.2-0.2,1.8-0.3c0.3-0.1,0.5-0.3,0.8-0.3c0.1,0,0.2,0,0.2,0.1
		c0.5,0.6,1.1,0.8,1.6,0.8c0.7,0,1.4-0.3,2.1-0.3c0.7,0,1.4-0.1,2.2-0.1c0.6,0,1.2,0,1.7,0.1c0.3,0.1,0.6,0.1,0.9,0.1
		c1,0,1.8-0.4,2.6-1.1c0,0,0,0,0,0c0.3,0,0.6-0.1,0.9-0.4c0.6,0.2,1.1,0.3,1.7,0.3c1.1,0,2.2-0.3,3.2-0.6c0.2-0.1,0.3-0.1,0.5-0.1
		c1,0,1.6,1,2.3,1c0.1,0,0.1,0,0.2,0c1.7-0.4,4,0.5,4.8-2.1c0.2-0.5,0.9-0.6,1.4-0.7c0.6-0.2,1.3-0.4,1.8-0.8c1.5-1.1,3.2-1.5,5-1.5
		c0.8,0,1.6,0.1,2.5,0.2c0.4,0.1,0.7,0.2,0.9,0.2c0.3,0,0.6-0.1,0.8-0.4c1.1-1.4,2.7-2.2,4.4-2.2c0.6,0,1.1,0.1,1.7,0.3
		c1.1,0.4,2.1,1,3.2,1c0.5,0,1.1-0.2,1.7-0.6c0.1,0,0.1-0.1,0.2-0.1c0.3,0,0.5,0.4,0.8,0.5c1,0.4,2.6,1.2,3.1,1.2
		c0.1,0,0.1,0,0.2-0.1c1.1-1.4,2.9-0.9,4-1.9c1-0.9,2.1-0.9,3.3-0.9C259.7,30.6,259.9,30.6,260,30.6 M189.1,85.9
		c-0.2,0-0.5,0-0.7-0.1c0,0,0,0,0,0c-0.2,0-0.5,0.6-0.8,1c-0.2,0.4-0.3,0.8-0.8,1c-1,0.3-1.4,0.8-1.5,1.4c0,0.1,0,0.1,0,0.2
		c0,0,0,0,0,0c0,0.5,0.3,1.1,0.6,1.7c0,0-0.1,0.1-0.1,0.1c0,0,0,0,0,0c0,0.1,0.1,0.2,0.1,0.3c-0.6,0.3-1,0.7-1.1,1.4
		c0,0-0.1,0-0.1,0c-0.1,0-0.1,0.1-0.1,0.2c-2.2,1.2-1.7,3.6-2,5.4c-0.2,1.4-0.5,2.4-1.7,3c-1.2,0.5-1.6,1.6-1.5,2.5
		c0.3,1.8-0.5,2.6-2,3.2c-0.9,0.4-1.4,1.2-0.3,1.8c1.6,0.9,0.6,1.2-0.2,1.7c-0.9,0.5-1.3,1.2-0.4,2c1.8,1.7,4,2.4,6.3,2.4
		c0.5,0,1,0,1.5-0.1c3-0.4,5.8-2.1,8.9-2.4c1.8-0.2,3.6-1.4,5.4-1.4c0.7,0,1.4,0.2,2.1,0.6c0.1,0,0.1,0.1,0.2,0.1
		c0.3,0,0.6-0.1,0.8-0.2c0.4-0.2,0.8-0.2,1.2-0.2c0.5,0,1,0.1,1.5,0.3c0.5,0.2,1,0.4,1.4,0.4c0.6,0,1-0.3,1.4-1.2
		c0.1-0.4,0.5-0.4,0.9-0.4c0.2,0,0.3,0,0.5,0c0.1,0,0.1,0,0.2,0c1.4,0,2.4-0.6,3.1-1.9c0.6-1.2,1.9-2.3,0.4-3.7
		c-0.3-0.3-0.2-0.9,0.1-1.2c0.8-1,0.5-2.1,0.2-3.2c-0.2-0.7-0.2-1.5,0-2.2c0.5-1.4,0.5-2.8,0.1-4.2c-0.4-1.3-0.3-2.3,0.7-3.2
		c0.5-0.4,0.5-0.7,0.1-1.5c-0.9-1.9-2.8-3.2-2.6-5.9c0.2-2.1-1.1-3.2-3.1-3.2c-0.2,0-0.3,0-0.5,0c-0.2,0-0.3,0-0.5,0
		c-1.6,0-2.6-0.8-3.3-2.3c-0.9-1.8-3.7-0.2-4.5-2.3c0-0.1-0.3-0.1-0.6-0.1c-0.2,0-0.4,0-0.5,0.1c-1,0.9-2.3,1.1-3.3,1.8
		c-0.6,0.4-1.5,1.1-1.3,1.7c0.6,1.6-0.6,2.4-1.2,3.5c-0.2,0-0.4,0.2-0.4,0.3c0,0.1,0,0.1,0,0.2C191,83.9,190.7,85.9,189.1,85.9
		 M60.5,98.1c-0.1,0-0.3-0.1-0.4-0.3c-0.5-0.9-1.1-1.1-1.8-1.1c-0.6,0-1.3,0.2-1.9,0.3c-0.7,0.1-1.2,0.3-1.6,0.6
		c-0.2,0.1-0.3,0.2-0.4,0.3c-0.1,0.1-0.2,0.3-0.3,0.4c-0.3,0.5-0.4,1.2-0.2,2.2h0c-0.2,0.1-0.3,0.3-0.5,0.4
		c-1.1-0.4-1.8-0.6-2.3-0.6c-0.8,0-1.3,0.6-2.4,2c-0.2,0.2-0.4,0.3-0.6,0.3c-0.1,0-0.3,0-0.4-0.1c-0.6-0.2-0.2-1.1-1.1-1.3
		c-0.1,0.8-0.6,1.4-1.3,1.8c-3,1.8-2.6,4.8-2.7,7.6c0,0.6,0.5,0.8,1,0.9c0.4,0.1,0.9,0.2,1.2,0.5c1.1,0.9,2.5,1.4,3.8,1.4
		c1.1,0,2.1-0.3,3.1-1c1.8-1.2,3.9-2.1,5.7-3.5c1.3-1,3.5-1.2,4.8-2.6c0.1-0.1,0.3-0.1,0.5-0.1c0.1,0,0.1,0,0.2,0c0.1,0,0.2,0,0.3,0
		c0.8,0,1.5-0.4,2.2-1c1.2-1,2.4-1.9,4-1.9c0.3,0,0.6,0,1,0.1c0.2,0,0.4,0.1,0.5,0.1c0.4,0,0.8-0.1,1-0.5c0.4-1.1,1.2-1.4,2.1-1.8
		c1-0.5,1.1-2,0.2-2.6c-3.4-2.1-4.3-2.6-6.7-2.6c-0.7,0-1.5,0-2.5,0.1c-1.4,0.1-3,0-4,1.4C60.9,98,60.7,98.1,60.5,98.1 M113.1,109.7
		C113.1,109.6,113.1,109.6,113.1,109.7c-0.1-0.1-0.2-0.2-0.2-0.2c-0.1,0-0.1,0-0.2,0.1c0,0,0,0-0.1,0.1c-0.6-0.6-1.2-0.7-1.8-0.7
		c-0.7,0-1.4,0.2-2.1,0.2c-0.3,0-0.5,0-0.8-0.1c-0.4-0.1-0.8-0.2-1.1-0.2c-1.4,0-2.3,0.9-3,2.2c-0.1-0.1-0.3-0.1-0.4-0.1
		c-0.1,0-0.3,0-0.4,0.1c-0.2-0.3-0.3-0.4-0.5-0.4c-0.2,0-0.5,0.1-0.7,0.2c-2.1,0.4-3.4,2.5-5.7,2.7c-0.7,0.1-1.4,0.8-1.4,2
		c0,1-0.3,2.3-1.4,2.8c-1.5,0.6-1.7,1.6-1.5,2.9c0.1,0.6,0.1,1.5-0.5,1.6c-2.6,0.2-2.1,2-1.9,3.6c0.1,1.2-0.1,2.1-1.4,2.1
		c-0.1,0-0.2,0-0.3,0c0,0,0,0-0.1,0c-0.4,0-1.1,0.2-0.7,0.6c1.3,1.1,0.3,1.8-0.3,2.6c-0.7,1-1.1,2.2-0.2,3.1
		c0.6,0.5,1.2,0.9,1.8,0.9c0.5,0,1.1-0.2,1.7-0.8c0.7-0.6,1.4-1,2.3-1c0.6,0,1.2,0.2,1.8,0.6c0.3,0.2,0.6,0.3,1,0.3
		c0.3,0,0.7-0.1,0.9-0.5c0.5-0.8,1.1-1.1,1.7-1.1c0.5,0,1,0.1,1.5,0.3l0,0l0,0l0,0c0,0,0,0,0,0l0,0c0.5,0.8,1.1,1,1.7,1
		c0.6,0,1.3-0.2,1.9-0.2c0,0,0,0,0,0c0.1,0,0.1,0,0.2,0c0.4,0,0.9,0,1.3,0c1.1,0,2.1,0.1,3,0.7c2,1.4,4.2,2,6.2,3.3
		c0.4,0.2,0.7,0.3,1.1,0.3c0.3,0,0.6-0.1,0.9-0.2c1.3-0.4,2.7-0.9,4-0.9c0.3,0,0.7,0,1,0.1c0.5,0.1,1,0.2,1.4,0.2c0.8,0,1.4-0.3,2-1
		c0.1,0.1,0.3,0.1,0.4,0.2c0,0,0.1,0,0.1,0c0,0,0,0,0,0c0.1,0,0.2,0,0.3,0c0.1,0,0.2-0.1,0.3-0.1c0.1,0.2,0.3,0.3,0.4,0.3
		c0.1,0,0.3-0.1,0.4-0.3c0.1,0.1,0.2,0.1,0.3,0.1c0,0,0,0,0.1,0c0.1,0,0.1,0,0.2,0c0.1,0,0.1-0.1,0.2-0.1c0.8,0.4,1.6,0.6,2.4,0.6
		c2.1,0,4-1.1,5.8-1.6c2.2-0.7,4.7-0.8,6.9-2.3c1.2-0.9,3.1-1.1,4.5-2.2c0.8-0.7,1.7-1.4,2.9-1.4c0.5,0,1.2-0.4,1.1-0.8
		c-0.5-2,0.4-2.5,2.1-3.3c1.8-0.9,0.9-5.7-1-6.5c-1.8-0.8-4-0.7-5.7-2c0,0-0.1-0.1-0.2-0.1c-0.1,0-0.2,0-0.3,0c-0.2,0-0.3,0-0.4,0
		c-0.9,0-1.4-0.5-1.6-1.6c-0.1-0.8-0.6-1.4-1.2-1.4c-0.3,0-0.5,0.1-0.9,0.3c-0.4,0.3-0.8,0.5-1.2,0.5c-0.6,0-1.1-0.4-1.5-0.9
		c-0.4-0.4-0.7-0.6-1-0.6c-0.3,0-0.6,0.2-0.8,0.8c-0.2,0.4-0.3,0.9-0.8,0.9c0,0-0.1,0-0.1,0c-0.6-0.1-0.7-0.7-0.8-1.1
		c-0.2-1.1-0.8-1.6-1.9-1.6c-0.1,0-0.2,0-0.3,0c-0.3,0-0.5,0-0.8,0c-1.5,0-2.9-0.4-3.8-1.8c-0.2-0.3-0.6-0.5-0.9-0.5
		c-2.7-0.3-5.3-1-8.1-1.1c0,0,0,0-0.1,0c-0.5,0-0.9,0.1-1.2,0.6c0,0,0-0.1-0.1-0.1c-0.1-0.1-0.1-0.1-0.2-0.1c-0.1,0-0.1,0-0.2,0.1
		c0,0,0,0.1-0.1,0.1c-0.6-0.7-1.2-1-1.8-1C114.6,108.7,113.8,109.1,113.1,109.7 M68.4,116.4c-0.2,0-0.3,0-0.5,0c0,0,0,0-0.1,0
		c-1.2,0-2,0.6-2.2,1.9c-0.1,1-0.7,1.8-1.5,2.2c-1.2,0.7-1.6,1.6-1.4,2.9c0.1,0.9-0.4,1.5-1.2,1.9c-1.9,1.2-2.3,2.9-1.1,5
		c-0.1,0.2-0.4,0.4-0.4,0.6c-0.2,1.3-0.3,2.5-1.8,3.3c-0.9,0.5-1.4,2.1-0.6,3.3c0.3,0.5,0.7,1,0.7,1.6c0,0.8,0.4,1.2,1,1.2
		c0.2,0,0.4,0,0.6-0.1c1-0.2,2-0.4,3-0.4c0.9,0,1.8,0.2,2.7,0.6c0.2,0.1,0.4,0.2,0.6,0.2c0.5,0,0.9-0.4,1.3-0.8
		c1.9-1.8,3.7-3.7,5.5-5.5c1.9-1.9,4.1-2.5,6.4-3.3c0.3-0.1,0.8-0.3,0.8-0.3c-0.5-2,0.9-2.9,2.3-3.7c0.1-0.1,0.2-0.5,0.2-0.7
		c-0.1-1.1,0.2-1.6,1.2-1.6c0.1,0,0.2,0,0.3,0c0,0,0.1,0,0.1,0c0.6,0,1-0.5,0.5-1c-1.6-1.5-1.3-3.5-1.4-5.2
		c-0.1-1.3-0.1-1.8-0.8-1.8c-0.3,0-0.6,0.1-1.1,0.2c-0.3,0.1-0.7,0.2-0.9,0.2c-0.4,0-0.8-0.2-1-0.8c-0.3-0.6-0.5-0.9-0.8-0.9
		c-0.3,0-0.6,0.3-0.9,0.9c-0.3,0.6-0.6,0.8-0.9,0.8c-0.3,0-0.7-0.3-1-1c-0.4-0.8-1-1.2-1.8-1.2c-0.3,0-0.5,0-0.8,0.1
		c-1.6,0.4-3.4-0.3-4.6,1.4C68.7,116.4,68.5,116.4,68.4,116.4 M379.6,147c0.1,0,0.2,0,0.3-0.1c0.5-0.4,1.1-0.5,1.7-0.5
		c0.1,0,0.3,0,0.4,0c0.2,0,0.4,0,0.6,0c1-0.1,1.9-0.4,2.4-1.3c-1-1.7-0.5-3.8-2.3-5.3c-1.3-1.1-2-1.6-3-1.6c-0.6,0-1.2,0.2-2,0.6
		c-0.5,0.3-0.6,0.5-0.5,1c0.3,0.8,0.2,1.5-0.2,2.3c-0.3,0.7,1.3,4.3,2,4.7C379.2,146.9,379.4,147,379.6,147 M260,15.6
		c-0.3,0-0.7,0-1,0l0,0c-1.4,0-4.4,0.1-7.7,1.5c-1.1-0.2-2.2-0.3-3.1-0.3c-0.5,0-0.9,0-1.4,0.1c-1.7-0.5-3.5-0.7-5.3-0.7
		c-3.3,0-6.5,0.8-9.4,2.3c-4,0.1-7.9,1.2-11.3,3.2c-0.9,0.3-1.8,0.6-2.6,1c-0.3,0-0.6,0-1,0c-1.3,0-2.7,0.2-4,0.5
		c-0.5,0-0.9-0.1-1.4-0.1c-2,0-4,0.4-5.9,1.2c-0.1,0-0.2,0-0.3,0c-0.8,0-1.5,0-2.1,0.1c-1.3-0.4-2.7-0.6-4.1-0.6
		c-0.8,0-1.6,0.1-2.3,0.2c-0.6-0.1-1.3-0.1-2-0.1c-1.1,0-2.3,0.1-3.3,0.4c-0.1,0-0.1,0-0.3,0c-0.5,0-1.3,0-2.1-0.1
		c-0.7,0-1.4-0.1-2.1-0.1c-0.3,0-0.7,0-1,0c-2.6,0-4.8,0.4-6.2,0.7c-0.2,0-0.4,0.1-0.6,0.1c-2.3,0-4.6,0.6-6.6,1.6
		c-0.7,0.1-1.5,0.1-2.4,0.3c-2.2,0.4-4.1,1.1-5.6,2c-4.6,0.4-8,1.9-10.5,3.7c-1.8,0.7-3.3,1.5-4.5,2.4c-3.9,1.2-6.6,3.8-8.3,6.7
		c-1.2,1.2-2.2,2.5-3,3.8c-2,2-3.5,4.4-4.3,7.2c-1,3.5-0.7,7.1,0.6,10.4c0.3,2.9,1.3,5.6,3,8c0.1,0.3,0.2,0.6,0.3,0.8
		c0.4,2.7,1.6,5.3,3.3,7.5c0.5,0.7,1.3,1.5,2.3,2.3c0.1,0.4,0.3,0.8,0.4,1.2c-0.8,1.9-1.1,3.8-1.1,5.6c-0.2,0.7-0.4,1.3-0.5,2
		c-1.9-1.1-4.3-2-7.2-2.3c-1.5-1-3.3-1.7-5.1-2.2c-1.5-0.8-3-1.2-4.3-1.5c-1.9-0.9-4-1.5-6.2-1.8c-0.3-0.2-0.6-0.3-0.8-0.5
		c-0.3-0.2-0.6-0.4-0.9-0.6c-3-1.9-6.2-2.8-9.6-2.8c-2.3,0-4.5,0.4-6.7,1.3c-0.5,0.1-1.1,0.3-1.8,0.5c-0.2,0-0.4,0-0.5,0
		c-2.5,0-4.9,0.5-7.1,1.5c-0.6-0.1-1.2-0.1-1.7-0.1c-1.3,0-2.6,0.1-3.8,0.4c-0.1,0-0.2,0-0.4,0c0,0-0.1-0.1-0.1-0.1
		c-1.3-1.4-2.8-2.6-4.4-3.4c-1.2-0.6-2.4-1-3.7-1.3c-0.4-0.3-0.9-0.6-1.5-1c-1.3-0.9-4.6-3.1-9.5-3.1c0,0,0,0,0,0
		c-3.2,0-6.3,1-8.9,2.8c-0.3,0.1-0.7,0.3-1,0.5c-0.4,0.2-0.7,0.3-0.9,0.4c-0.1,0-0.3,0-0.4,0c-4.5,0-8.7,1.6-12.1,4.4
		c-0.2,0.1-0.4,0.2-0.6,0.3c-0.1,0-0.1,0-0.2,0l-0.1,0c-0.2,0-0.5,0-0.7,0c-6.6,0-12,3.4-14.7,8.6c-2.7,3.4-4,7.4-3.8,11.5
		c-0.6,1.3-1,2.7-1.3,4.1c-0.3,2.1-0.2,4.2,0.3,6.3c-0.1,0.2-0.1,0.4-0.2,0.6c-1.8,1.8-3.1,4-4,6.4c-0.4,0.7-0.7,1.4-0.9,2
		c-2.3,2.7-3.2,5.5-3.5,7.7c-0.5,1.4-1.3,4-1.3,7.3c-0.2,1-0.3,2.1-0.3,3.2c0,2,0.4,4.5,1.8,7.1c0.3,1.5,0.8,3,1.5,4.5
		c0.9,1.7,2,3.2,3.3,4.4c1.7,3.1,4.4,5.7,7.7,7.5c2.4,1.8,5.2,3,8.4,3.4c0.6,0.1,1.2,0.1,1.6,0.1c0.6,0.1,1.2,0.1,2,0.1
		c4.3,0,8.4-1.7,11.4-4.8c0.9,0.2,1.9,0.4,2.8,0.5c1.7,1.2,3.6,2,5.6,2.5c2.6,1.4,5.6,2.2,8.8,2.2c1.3,0,2.6-0.1,3.9-0.4
		c2.7,2,5.9,3.2,9.4,3.4c0.3,0,0.6,0,1,0c6.9,0,12.9-4.4,15.1-10.9c0.2-0.7,0.4-1.4,0.6-2.2c0.2,0,0.5,0,0.7-0.1c0.1,0,0.2,0,0.3,0
		c2.9,2.8,6.7,4.5,10.7,4.7c2.2,1.5,4.7,2.4,7.3,2.6c1.2,0.2,2.4,0.3,3.6,0.3c3.6,0,6.7-0.9,9.1-1.9c1.5,0.5,3.1,0.7,4.8,0.7
		c0.7,0,1.3,0,2-0.1c0,0,0.1,0,0.1,0c0.5,0.1,1,0.1,1.5,0.1c0,0,0.1,0,0.1,0c0.2,0,0.4,0,0.6,0c2.6,0,5.2-0.7,7.4-2
		c2.4-0.4,4.7-1.3,6.6-2.7c0.6-0.3,1.2-0.6,1.7-0.9c1.8-0.6,3.8-1.6,5.7-3.2c2.3-1.2,3.9-2.7,5-3.8c0.5-0.3,1.1-0.7,1.6-1.1
		c2.5-0.5,4.8-1.6,6.7-3.2c1.6-1.1,3-2.6,4-4.3l1.6-2.5c0.1-0.1,0.2-0.3,0.3-0.4c0.1,0,0.3,0.1,0.4,0.1c0.1,3.9,1.7,7.7,4.5,10.6
		c3,3.1,7,4.9,11.2,5.1c1.5,0.4,3,0.7,4.6,0.7c0.4,0,0.8,0,1.2,0c0.8,0.1,1.7,0.2,2.6,0.2c0.1,0,0.2,0,0.3,0l0.3,0l0.3,0
		c1.7,0,3.3-0.3,4.8-0.9c4-0.3,7.7-2,10.5-5c0.5-0.5,1.1-1.3,1.7-2.2c2.3-1.5,4-3.3,5.2-4.5l0.1-0.1c0.6-0.6,1.1-1.2,1.5-1.8
		c3-1.9,5.4-4.7,6.8-8.2c0.1,0,0.2,0.1,0.3,0.1c1.4,0.7,3.3,1.7,5.6,2.5c0.8,0.3,1.6,0.5,2.5,0.6c2.6,2.2,5.2,3.3,7.6,3.9
		c0.1,0.1,0.1,0.2,0.2,0.3c0,0.8,0.1,1.8,0.2,3c0.1,0.6,0.2,1.2,0.3,1.8c-4.5,1.1-8.3,4.3-10.2,8.6c-0.2,0.5-0.4,0.9-0.5,1.3
		c-5.9,1.4-11.7,6.1-13.2,14.7c0,0.3-0.1,0.6-0.2,1c-0.8,1-1.5,2-2,2.8c-1.2,0.5-2.3,1.2-3.3,2c-1.2,0.9-2.1,2-3,3.1
		c-1.5,0.6-2.8,1.5-4.1,2.6c-0.9,0.8-1.7,1.7-2.3,2.4c-3.3,0.4-6.7,1.9-9.4,4.6c-0.7,0.4-1.4,0.8-2,1.2c-1.4,0.3-2.7,0.7-4,1.3
		c-0.4,0-0.8,0.1-1.2,0.2c-1.4,0.3-2.7,0.7-4,1.3c0,0-0.1,0-0.1,0c-0.1,0-0.2,0-0.3,0c-1.4,0-2.7,0.2-4.1,0.6
		c-2,0.6-3.6,1.4-4.9,2.2c-0.1,0-0.2,0-0.3,0.1l-0.2,0c-1.5,0.2-5,0.8-8.5,3.2c-1.2,0.3-2.3,0.8-3.4,1.4c-0.1,0-0.1,0-0.2,0
		c-0.4,0-0.8,0-1.3,0.1c-0.9,0.1-1.8,0.2-2.8,0.4l-0.2,0c-1.4,0.3-2.6,0.7-3.8,1.2c-0.9-0.2-1.9-0.3-2.8-0.3c-0.1,0-0.3,0-0.4,0
		l-0.4,0c-0.9-0.5-1.8-0.9-2.8-1.2c-1.1-0.4-2.3-0.6-3.4-0.7c-0.5-0.3-1.1-0.6-1.6-0.9c-2.1-2-4.7-3.4-7.6-3.9
		c-0.9-0.2-1.8-0.3-2.8-0.3c-1.2,0-2.4,0.1-3.6,0.4c-1.4-1-2.9-1.8-4.5-2.5c-2.7-2.5-6.3-4-10.3-4c-1.7,0-3.4,0.3-5,0.8
		c-0.7-1.2-1.8-2.6-3.3-3.9c-0.8-0.8-1.7-1.5-2.6-2.2c-3.1-3.6-7.4-5.6-12.1-5.6c0,0,0,0,0,0c-3.4,0-6.7,1.1-9.5,3.1
		c-3.9,1.9-6.6,4.6-8.7,7.4c-2,1.3-3.8,3-5.2,5c-0.9,0.7-1.8,1.5-2.6,2.5c-1.8,1-3.1,2.3-4.1,3.4c-0.7,0.8-1.4,1.7-2,2.8
		c-0.3,0.3-0.6,0.6-0.9,1c-1.2,1.4-2,2.9-2.6,4.6c-1.2,1.4-2.2,3.2-2.9,5.3c-1.2,2-2,4.3-2.2,6.7c-0.3,3.2,0.4,6.1,1.6,8.6
		c-0.1,1.8,0.2,3.6,0.7,5.4c1.2,4.2,4,7.5,7.6,9.4c2.9,2.9,6.8,4.6,11,4.6c2.3,0,4.7-0.5,6.8-1.6c2.7-1.3,5-3.2,6.6-5.6
		c1.1,1.4,2.4,2.6,3.9,3.6c3.1,3,7.1,4.6,11.3,4.6c2.4,0,4.8-0.5,7-1.6c1.3,0.3,2.5,0.4,3.8,0.4c0.7,0,1.5,0,2.2-0.1
		c1.2,0.8,2.4,1.4,3.6,1.7c1.6,0.5,3.2,0.8,4.9,0.8c3.1,0,6.1-0.9,8.7-2.6c0.3-0.1,0.7-0.2,1.1-0.3l0.2-0.1c2.4-0.8,4.4-1.8,6-3
		c0.5-0.2,1-0.4,1.4-0.7c0.1-0.1,0.2-0.1,0.3-0.2c1.2,0.4,2.4,0.7,3.7,0.9c3.6,1.8,7.1,2.1,8.9,2.2l0.3,0c2.6,1.2,5.1,1.6,7.1,1.6
		c2.9,0,5.6-0.7,8.2-2.1c3.6-0.4,6.9-2,9.4-4.5c1.2-0.6,2.4-1.3,3.4-2.2c0.1,0,0.1-0.1,0.2-0.1c1-0.1,2.1-0.2,3.2-0.3
		c1-0.1,1.9-0.1,2.9-0.2c3.1-0.3,5.5-1.3,7.3-2.5c2.5-0.7,4.8-2,6.7-3.8c1-0.9,1.8-2,2.5-3.1c0.6-0.3,1.2-0.6,1.8-0.9
		c1.7-0.5,3.3-1.4,4.8-2.5c0.5-0.4,0.9-0.8,1.4-1.2c2.1-0.5,4.1-1.4,5.9-2.7c3.5-0.4,6.9-2,9.4-4.5c0.2-0.1,0.4-0.2,0.6-0.4
		c2.1-0.4,4.1-1.2,6-2.1c0.1,0,0.2,0,0.4-0.1c1.5-0.3,3.9-0.7,6.4-1.9c1.4-0.2,2.6-0.6,3.7-1c2.2-0.2,4.3-0.8,6.2-1.8
		c0.8-0.2,1.6-0.4,2.4-0.8c1.5-0.1,2.9-0.5,4.3-1c2.9-0.3,5.3-1,7.2-1.5c0.6-0.2,1.4-0.4,1.7-0.5c2.7-0.4,5.7-1,8.8-2
		c2.3,6.1,8,10.4,14.7,10.4c3.7,0,7.4-1.4,10.3-3.8c0,0,0.1-0.1,0.1-0.1c4-2.8,6.3-6,7.5-9c1.5-0.7,2.7-1.6,3.6-2.2
		c0.2,0,0.5,0,0.7,0c0.4,0,0.8,0,1.3,0c2.4,1.1,5,1.7,7.7,1.7c2.1,0,4.1-0.4,6.2-1.1c1.6,0.8,3.4,1.3,5.5,1.6c1,0.7,2.2,1.3,3.4,1.8
		c1.3,1.1,2.9,2,4.8,2.7c0.8,0.7,1.5,1.4,2.4,2c0.3,0.4,0.6,0.8,0.8,1.1c0.1,0.1,0.1,0.3,0.2,0.5c0.5,1.3,0.7,2.2,0.9,2.9
		c0.2,1.1,0.5,2.4,0.9,3.7c-2.9,0.7-5.5,1.9-7.8,3.5c-9.5,1.3-14.2,9.4-13.8,16.7c0.1,2,0.6,4,1.3,5.8c-0.5,1.6-0.9,3.5-1.1,5.6
		c-1.8,7.1,1.2,14.5,7.8,18.1c2.4,1.3,5,2,7.7,2c2.2,0,4.4-0.5,6.5-1.4c1-0.1,2.1-0.3,3-0.7c0.6,0.1,1.2,0.1,1.9,0.1
		c0.2,0,0.4,0,0.6,0c0.7,0,1.4,0,1.9-0.1c1.1,0.3,2.2,0.4,3.4,0.4c2.6,0,5-0.6,7.1-1.7c0.4,0,0.9,0,1.3,0c0.3,0,0.7,0,1,0
		c0.8,0.1,1.6,0.1,2.4,0.1c2.6,0,4.7-0.5,6-0.8c0.2,0,0.4,0,0.6,0c7.1,0,11.3-3.6,13.1-5.8c2.6-3.1,3.9-6.8,3.9-11.2
		c0.1-0.5,0.2-1,0.3-1.4c1,2.7,3.2,6.1,7.6,8.6l0,0c4.5,2.6,8.8,2.7,10.9,2.7c0,0,0.1,0,0.1,0c1,0.2,2,0.3,2.9,0.3
		c1.8,0,3.6-0.3,5.2-0.9c2.3-0.3,4.4-1.2,6.3-2.4c1.3-0.4,2.5-0.9,3.5-1.6c3.3,0,6.4-1.1,9-3c2.7-0.9,6.8-2.7,9.9-7.1
		c0.1-0.1,0.2-0.3,0.3-0.4c1.5-2.1,5-6.9,4.7-13.8c0.4-2,0.4-3.7,0.4-4.8c0.6-3.7-0.1-6.7-0.5-8.3c0-0.9,0.2-2.1,0.3-3.4
		c0.3-2.2,0.6-4.6,0.6-7.4c0-3.2,0-9.3-3.4-15.4l0,0c-1.9-3.6-4.4-5.9-6.8-7.2c-1.5-1.6-3-2.9-4.4-3.9c-1.3-2.2-3.2-4.4-6-6.4
		c0-0.1-0.1-0.1-0.1-0.2c-0.3-1.1-0.7-2.2-1.3-3.2c-0.7-3.2-2.3-6-4.7-8.2c-0.2-0.7-0.5-1.4-0.9-2.2c-0.3-0.9-0.6-1.8-1-2.7
		c-0.2-1.1-0.5-2.3-1-3.6c0-0.1,0-0.3,0-0.4c0.2-2.2,0.7-8-3.7-13.2c-2.6-3-5.6-4.4-8.2-5.1c-4.4-2.7-8.8-2.9-10.7-3
		c-0.1,0-0.2,0-0.4,0c-0.5,0-1.1-0.1-1.6-0.1c-0.6,0-1.1,0-1.7,0.1c-0.6-2.7-1.8-5.2-3.7-7.3c-0.3-0.4-0.7-0.7-1-1
		c-0.9-1.4-2-2.6-3.3-3.7c-0.7-7.1-5.7-12.7-12.6-14.2c-0.7-0.3-1.5-0.6-2.2-0.8c-0.8-0.9-1.7-1.8-2.8-2.7c-0.8-1-1.7-1.8-2.6-2.4
		c0.2-2.8,0-7.7-3.4-12.2c-3.1-4-7.2-5.5-10.2-6.2c-2.5-1.5-5.4-2.3-8.3-2.3c-0.5,0-1.1,0-1.6,0.1c-1.1-1.5-2.3-2.7-3.7-3.7
		c-0.9-3.7-2.8-6.8-5.5-9c-0.2-4.1-2-8-5.2-10.9c0.6-2.5,0.6-5.2-0.1-7.9c-0.4-1.6-1.1-3.2-1.9-4.5c-0.2-2.8-1.1-6.2-3.9-9.5
		c-0.2-0.3-0.4-0.6-0.6-0.9c-2.8-4.1-7.4-6.5-12.4-6.5c-0.2,0-0.5,0-0.7,0c-2.5,0.1-4.9,0.9-6.9,2.1c-0.5,0.2-1.1,0.3-1.6,0.5
		c-0.4-0.7-0.8-1.4-1.4-2.1c-3-3.9-7.5-6.2-12.4-6.2c-2.6,0-4.6,0.6-5.7,1c-1.1,0.4-2.2,0.8-3.3,1.4c-0.8-0.2-1.5-0.3-2.3-0.3
		c-0.6-0.3-1.2-0.7-1.8-1c-2.4-1.3-5.1-2-7.8-2c-1.6,0-4.1,0.3-6.8,1.5c-0.2,0-0.3-0.1-0.5-0.1C266.8,16.7,263.5,15.6,260,15.6
		L260,15.6z M343.3,70.5L343.3,70.5L343.3,70.5L343.3,70.5z M96.7,117.9C96.7,117.9,96.7,117.9,96.7,117.9L96.7,117.9L96.7,117.9z
		 M396.7,129.9C396.7,129.9,396.7,129.9,396.7,129.9L396.7,129.9L396.7,129.9z M305,137.2c0.3-0.1,0.6-0.2,0.9-0.4
		c-0.8,1-1.5,2.1-2,3.3c-0.5,1.2-0.9,2.5-1.1,3.8c-0.8,0.6-1.5,1.2-2.1,1.9c-0.1-1.6-0.4-3.5-1.1-5.6c0.8-0.5,1.6-1,2.3-1.6
		C303,138.3,304,137.8,305,137.2L305,137.2z M401.6,194.1c0.1-0.2,0.1-0.3,0.1-0.5c1,1.7,2.4,3.2,4,4.4c0,0,0.1,0.1,0.1,0.1
		c0.1,0.2,0.2,0.5,0.3,0.8c0.2,0.7,0.4,1.3,0.7,2c0.4,1.2,1,2.3,1.7,3.3l0.1,0.2c0.2,0.3,0.4,0.6,0.7,1c-2.5,0.3-4.8,1.2-6.8,2.5
		c-0.6-1.2-1.3-2.3-2.1-3.3c0.4-1.9,0.4-3.8,0-5.7c0-0.2,0-0.5,0-0.7C401.1,196.8,401.4,195.5,401.6,194.1L401.6,194.1z M152.2,230
		C152.2,230,152.2,230,152.2,230L152.2,230L152.2,230z M379.5,252.5L379.5,252.5L379.5,252.5L379.5,252.5z"/>
</g>
</svg>
