<?xml version="1.0" encoding="utf-8"?>
<!-- Generator: Adobe Illustrator 24.1.0, SVG Export Plug-In . SVG Version: 6.00 Build 0)  -->
<svg version="1.1" id="Livello_1" xmlns="http://www.w3.org/2000/svg" xmlns:xlink="http://www.w3.org/1999/xlink" x="0px" y="0px"
	 viewBox="0 0 474 251.2" style="enable-background:new 0 0 474 251.2;" width="50" height="50" xml:space="preserve">
<style type="text/css">

		.Stile_x0020_grafica{fill:#FEFEFE;stroke:#000000;stroke-width:15;stroke-linecap:round;stroke-linejoin:round;stroke-miterlimit:10;}
	.st0{fill:#FEFEFE;}
</style>
<g>
	<path class="st0" d="M84.4,234.1c-0.8,0-1.5-0.1-2.1-0.2c-0.6-0.1-1.1-0.2-1.7-0.3C77,233,72.1,232.2,68,228
		c-1.1-1.1-2.6-2.1-4.1-2.7c-4.1-1.6-6.8-4.3-9-6.4l-0.6-0.6c-3.1-3.1-6.8-5.6-10.4-8.1c-2.6-1.8-4.1-4.1-5.2-5.8
		c-0.4-0.6-0.7-1.1-1-1.5l-0.3-0.3c-0.3-0.3-0.7-0.8-0.8-0.9c-3.2-2.3-5.7-5.1-7.5-8.5c0-0.1-0.1-0.2-0.1-0.2
		c-6.3-4.9-4.3-12-3.7-14.4c0.1-0.5,0.3-1.1,0.3-1.4c0.6-4.4,3.2-6.9,4.6-8.3c0.1-0.1,0.2-0.2,0.3-0.3c-0.2-1.1-1-2.4-2.2-4.3
		c-1.1-1.8-2.4-3.8-3.4-6.2c-0.1-0.1-0.3-0.2-0.4-0.4c-0.5-0.5-1.1-1-1.8-1.7c-0.8-0.9-2.9-3.3-2.6-7c0-0.5,0.1-0.9,0.2-1.4
		c-0.1-0.9,0-1.7,0.1-2.4c0.6-3.5,3.1-5.4,4.5-6.4c0,0,0,0,0,0c0.8-1.7,2.4-4.8,6.2-6.4c1-0.4,1.8-2,3-4.5l0.3-0.6
		c2-4.2,4.9-9.6,9.7-13.5c1.3-1,2.5-2.5,3.7-4.1c1.5-1.8,3.2-3.9,5.4-5.8c0.1-0.3,0.4-0.9,0.6-1.3c0.7-1.8,1.7-4.2,3.8-6.4
		c0.1-0.2,0.2-0.3,0.3-0.5c0.5-0.8,1.3-2.1,2.5-3.3c0.4-2,1.2-3.6,1.7-4.6l0.2-0.4c2.3-4.5,5.6-5.9,8-6.2c1.6-1.3,3.5-1.9,5.3-1.9
		c1.7,0,3.4,0.5,5.1,1.6c0.6,0.3,1.9,1.1,2.9,2.5c1.6,2.2,4.3,2.7,8.9,3.5c0.8,0.1,1.6,0.3,2.4,0.4c3.2,0.6,5.8,2,7.9,3.1
		c1.2,0.6,2.2,1.2,3,1.5c1.5,0.5,3,0.9,4.4,1.4c1.3,0.4,2.7,0.8,4,1.2c1,0.3,2.1,0.6,3.1,0.9c2.8,0.8,5.9,1.6,8.9,3.1
		c0.3,0,0.7,0,1,0c1.1,0,2.2,0.2,3.2,0.5c-0.8-6.3,2.3-11.4,4-14c-1.8-4.9-1.8-9.6,0.2-13.8l0.2-0.5c1.2-2.5,2.2-4.8,3-7.1
		c0.6-1.7,2.3-5.9,6.3-7.8c2.1-1,3.4-3.2,5.4-6.7c0.5-1,1.1-1.9,1.6-2.9c4.4-7.3,10.8-10.9,16.5-13.4c5.4-2.4,10.3-3.6,15.3-3.6
		c0.5,0,0.9,0,1.4,0c4.5-3.3,9.7-5,15.7-5c1.5,0,3.1,0.1,4.7,0.3c0.5,0.1,1,0.1,1.6,0.1c0.9,0,1.8-0.1,2.8-0.1
		c0.8-0.1,1.6-0.1,2.4-0.1c0.5,0,1,0,1.5,0c6,0,11.6,1.3,16.8,3.7c2.1-1,4.5-1.5,7-1.5c2.7,0,5.1,0.6,7.2,1.1l0.9,0.2
		c0.9,0.2,1.8,0.4,2.8,0.8c1.3-0.7,2.9-1.3,4.7-1.5l1.2-0.2c2.7-0.4,5.4-0.9,8.5-0.9l0.4,0c3.1,0,6.4-0.7,10-1.5
		c2.2-0.5,4.4-1,6.8-1.4c1.9-0.3,3.9-0.8,6-1.2c3.9-0.9,7.9-1.8,12.4-2c0.3,0,0.5,0,0.8,0c0.3,0,1.5,0,1.5,0c0.1,0,0.2,0,0.3,0
		c1.6-1.8,3.9-2.9,6.3-2.9c2.9,0,5.8,1.6,7.6,4.2c0.3,0.4,0.6,0.9,0.8,1.3c1.3,0.6,2.4,1.5,3.3,2.6c0.6,0.9,1.9,2.9,1.9,5.5
		c0.2,0.3,0.5,0.6,0.7,0.9c5.1,6.4,9,11.4,12.6,16.2c3.2,4.3,7.3,8.3,11.6,12.4c5.4,5.1,4.9,10.7,3.8,14.9c-1.3,5-3.2,9.5-5.1,13.8
		c-1.5,3.4-2.9,6.6-3.9,9.9c0.8,0.6,1.5,1.1,2.3,1.7c4.1,3,8,5.8,12.2,8.3l0.1,0.1c0.3,0.2,0.6,0.4,0.9,0.5c0.3,0,0.6,0,0.9,0
		c2.5,0,4.4,1,5.6,1.5c0.2,0.1,0.3,0.2,0.5,0.2c4.6,1.8,9.1,3.5,14,3.8c0.8,0,1.6,0.1,2.3,0.1c2.6,0,4.8-0.3,6.9-1
		c0,0,0.1-0.1,0.1-0.1c0.2-0.2,0.5-0.4,0.7-0.6c0.1-0.1,0.2-0.2,0.4-0.3c1.2-1,3.6-3.2,7.3-3.2c0.9,0,2.1,0.1,3.5,0.7
		c0.5-0.1,1-0.1,1.5-0.1c2.7,0,6.4,1.2,8.8,6.7l0.4,1c1.1,2.5,2.4,5.4,3,8.8c0.1,0.4,1.2,1.7,1.8,2.3c0.7,0.8,1.5,1.7,2.2,2.7
		c1.9,2.5,4.2,4.8,6.6,7.3c2.5,2.6,5.2,5.3,7.6,8.4c3.5,4.6,6.7,8.7,10.3,12.3c1.1,1.1,1.8,2.3,2.3,3.5c3.1,0.9,5.4,2.7,7,4
		c0.4,0.3,0.7,0.6,1.1,0.9c2.5,1.8,3.8,4.8,3.7,8.3c-0.2,3.5-1.9,8-5.5,10.2l-0.6,0.3c-0.5,0.3-1.2,0.7-1.5,0.9
		c-1.7,4-4.5,7.2-8.3,9.4c-0.1,0.1-0.3,0.5-0.7,1.4c-2.4,6-7.6,8.5-11,10.1c-0.6,0.3-1.2,0.6-1.8,0.9c-4,2.1-8,4.5-11.9,6.7
		c-1.2,0.7-2.3,1.4-3.5,2c-4.8,2.8-9.7,4.5-14.5,6.2c-1.9,0.7-3.6,1.3-5.4,2c-2.5,1-5,1.7-7.4,2.4c-2.6,0.8-5.1,1.5-7.3,2.5
		c-0.6,0.3-2,1-3.9,1c0,0,0,0,0,0c-3.1,0-5.8-1.7-7.1-4.5c-1.6-3.3-1.2-7.9,3-11.1l1.3-0.9c1.5-1.1,3.1-2.3,4.7-3.4
		c1.5-1.1,3-2.2,4.4-3.5c2.8-2.4,6.3-3,8.5-3.4c1.4-0.3,2.7-1,4.4-2.6c2.8-2.7,5.8-5.2,8.9-7.2c2.2-1.5,3.7-3.8,5.2-8l0.1-0.2
		c0.5-1.4,1.5-4.2,4.2-6.1c1.4-2.9,3.4-5.3,5.9-6.9c-0.7-1-1.4-1.9-2-2.8c-1.2-1.8-2.2-3.3-3.4-4.3c-0.3-0.1-0.7-0.2-1-0.2
		c-0.2-0.1-0.5-0.1-0.7-0.2c-0.1,0-0.2,0-0.3,0c-1.3,0-2.7-0.3-3.8-0.9c0,0.9-0.1,1.8-0.1,2.5c-0.1,1.1-0.2,2.1-0.1,2.8
		c0.3,3.5-0.7,6.7-2.7,9c-1.4,1.6-3.3,2.6-5.4,3.1c-1.6,1.8-4,3.5-7.8,4.4c-1.6,0.4-3.4,1.1-5.2,1.9c-2,0.9-4.3,1.9-6.8,2.5
		c-0.6,0.2-1.5,0.4-2.5,0.4c-0.2,0-0.4,0-0.6,0c-2,2-4.7,3-8.1,3c-0.3,0-0.6,0-0.9,0c-0.2,0-0.6,0-0.7,0c0,0-0.1,0-0.1,0
		c0,0,0,0-0.1,0c-2.9,2-5.9,2.9-8.4,3.7c-1.5,0.5-3,0.9-4,1.5c-1,0.6-2.6,1.4-4.7,1.4c-2.3,0-4.4-0.9-6-2.6
		c-2.8-2.9-3.6-7.9,0.2-11.9c0.5-0.6,1-1.1,1.5-1.6c2.7-2.9,5.7-6.2,10.5-8.5c0.8-0.4,2-1.4,3.1-2.3c1.2-1,2.7-2.2,4.3-3.2
		c0.4-0.2,0.7-0.4,1.1-0.7c0.9-0.5,1.7-1,2-1.4c2.9-3.6,6.9-3.7,8.7-3.8c0,0,0.1,0,0.1,0c0.1-0.1,0.2-0.1,0.4-0.1
		c1.6-1,3.1-1.6,4.6-2c0.1-0.2,0.2-0.4,0.3-0.6c0.6-1.1,1-2.4,1.5-3.8c0.6-1.6,1.2-3.4,2.1-5.3c-0.1-0.3-0.2-0.5-0.2-0.8
		c-0.5-1.8-0.8-3.6-1-5.3c-1.8,1.2-4,1.8-6.1,1.8c-1.3,0-2.5-0.2-3.7-0.6c-1.9,0.7-4.2,1-6.1,1c0,0-0.1,0-0.1,0
		c-1.2,0.8-3.4,2.3-6.4,2.3c-1,0-2.3-0.2-3.7-0.7c-0.5,0.1-0.9,0.1-1.5,0.1c-0.4,0-0.8,0-1.1-0.1c-1,0.4-2.1,0.7-3.2,0.7
		c-2.4,0-4.8-1.1-6.4-3c0,0-0.1-0.1-0.1-0.1c-1.4,5-4.1,9.3-8.1,13c-0.3,0.3-0.9,1.1-1.4,1.8c-0.4,0.6-0.9,1.3-1.5,2
		c-2.9,3.7-6.5,6-9.7,8.1l-1,0.6c-0.4,0.3-0.9,0.7-1.5,1.1c-1.4,1.2-3.1,2.6-5.5,3.6c-0.6,0.3-2,0.9-3.9,0.9c-2.8,0-5.3-1.4-6.8-3.8
		c-1.7-2.7-2-6.9,1.3-10.2c1.8-2.1,3.2-4.4,4.2-7.5c0.1-0.2,0.1-0.5,0.2-0.8c0.4-1.6,1.2-4.8,3.6-7.2c0.4-1.1,1-2,1.4-2.6
		c0.3-0.4,0.7-0.9,1.1-1.5c0,0,0,0,0-0.1c-0.3-0.1-0.6-0.1-0.9-0.1c-1,0.1-1.8,0.1-2.5,0.1c-0.2,0-0.5,0-0.8,0
		c-2.8,2.3-5.7,3.9-8.3,5.2c-2.1,1.1-4.2,2.4-6.5,3.8c-2.5,1.6-5.1,3.2-7.9,4.6c-7.7,3.9-15.4,6.1-21.4,7.7
		c-0.4,0.1-1.4,0.4-2.5,0.4c-3.6,0-6.6-2.2-7.8-5.6c-1.1-3.2-0.3-7.4,3.8-9.7c0,0-1.3,0-1.3,0c-0.7,0-1.6,0-2.6-0.1
		c-0.5,1.9-1,3.9-1,5.6c0.1,4.1-0.2,7.9-0.8,11.5c0,0.2,0.1,0.4,0.1,0.6c0.3,1.3,0.6,3.1,0.3,5.4c-0.5,5.6-4.4,7.9-7.6,8.2
		c-0.3,0-0.6,0-0.8,0c-3.4,0-7.1-2.1-8.2-6.7c-1.5,1.3-3.3,2-5.4,2c-3.1,0-5.7-1.6-7.2-4.1c-1,0.5-2.2,0.8-3.4,0.8c0,0-0.1,0-0.1,0
		c-2.5,0-4.7-1.3-6.1-3.3c-1.5-2.2-2.1-4.3-2.3-6.3c-0.8,0.8-1.6,1.6-2.6,2.3c-0.1,0.2-0.3,0.4-0.5,0.6c-0.3,0.4-0.7,0.9-1.1,1.5
		c-1.9,2.5-4.2,3.7-7,3.7c-0.4,0-0.8,0-1.3-0.1c-1,1.6-2.4,2.7-3.8,3.4c-1,0.4-2,0.6-3,0.6c-1.5,0-3-0.5-4.3-1.3
		c-0.5,0.8-1.2,1.5-2,2.1c-1.4,1.1-3.1,1.6-4.9,1.6c-3.3,0-5.3-1.9-6-2.5c-0.8-0.7-1.6-1.4-2.5-2.1c-0.7-0.6-1.4-1.1-2.1-1.8
		c-0.4,0-0.7,0.1-1.1,0.1c-0.1,0-0.8,0-1.1,0c-1.4,0-3.2-0.1-5.2-0.6c-1.2-0.3-2.4-0.7-3.5-1c4.3,5.9,0.2,10.7-0.3,11.2
		c-1.6,1.8-3.8,2.8-6.2,2.8c-2.7,0-4.7-1.3-5.4-1.9l0,0c-7.2-4.5-12.3-9.3-16.1-15.2l-0.9-1.4c-2.2-3.4-4.4-6.9-6.3-10.7
		c-0.8-1.4-1.1-2.7-1.2-3.9c-0.2,0-0.4,0-0.7,0c-1.5,0-3.6-0.4-5.6-2c-0.7,0.1-1.5,0.2-2.2,0.2c-2,0-3.8-0.4-5.2-0.7
		c-0.7-0.2-1.4-0.3-1.8-0.3c0,0,0,0,0,0c-0.5,0-1,0.1-1.7,0.2c-1,0.1-2.2,0.3-3.6,0.3c-1.4,0-2.7-0.2-4-0.5c-1.8,3.1-4.8,5-8.3,5.3
		c-0.4,0.9-0.8,1.6-1.3,2.3c0.6,1.2,0.8,2.4,0.8,3.4c0.7,0.9,1.8,2.3,2.4,4c2.3,1.1,4.7,3.4,5.6,8c0.2,0.4,0.8,1.2,1.2,1.7
		c0.5,0.7,1.1,1.5,1.7,2.4c0.2,0.2,0.5,0.5,0.8,0.7c1.3,1.1,3.3,2.9,4.6,5.8c2.3,1.7,3.8,3.8,5,5.4c0.7,0.9,1.4,1.8,1.9,2.3
		c4.1,3.5,3.8,8.4,1.4,11.5c-1.6,2-3.9,3.1-6.5,3.1c-2,0-3.5-0.7-4.4-1.2c-2-1.1-4.3-2-6.8-2.9c-5.5-2.1-11.7-4.5-16.8-10
		c-0.5-0.5-1.6-1.2-2.7-1.8c-1.2-0.7-2.6-1.5-4-2.6c-3.3-2.6-5.7-6-7.3-10.3c-0.3-0.8-1.1-1.9-2-3c-0.7-0.9-1.4-1.8-2.1-2.8
		c0,0.4,0,0.8,0,1.2c0,2.7-1,4.9-2.7,6.7c1.6,1.6,2.8,3.6,3.4,5.8c2.5,2.1,3.6,4.9,4.1,6.4c0.1,0.3,0.3,0.8,0.4,0.9l0.5,0.9
		c1.5,2.7,2.7,4.7,4.5,6c3.4,2.5,5.8,6.1,7.9,9.3c0.7,1.1,1.5,1.8,2.4,2.3c2.1,1.1,3.4,2.6,4.2,3.6c0.1,0.1,0.2,0.3,0.4,0.4
		c0.2,0.3,0.5,0.6,0.7,0.8c1.6,0.6,3,1.6,4,3c1.4,1.9,2,4.4,1.5,6.8C91.7,231.4,88.4,234.1,84.4,234.1z M53.6,151.6
		c0.7,1.3,1.2,2.6,1.6,3.6c0,0.1,0,0.1,0.1,0.2c0.5-2,1.8-4,4.3-5.9c0.1-0.1,0.2-0.2,0.3-0.3l0.7-0.8c2.6-2.8,5.1-5.4,6.8-8.3
		c0.6-1.1,1.2-2.2,1.8-3.5c1-2.2,2.2-4.5,3.8-6.8c0-0.3,0-0.5,0-0.8c-0.6,0.4-1.2,0.9-1.9,1.2c-1.2,3-3.6,5.2-7,6.2
		c-0.1,0.1-0.2,0.2-0.4,0.4c-1.3,1.7-2.8,3-4,4.1c-1.2,1.1-2.2,2-2.8,2.9c-0.8,1.2-1.7,2.1-2.6,2.8
		C54.3,148.4,54.1,150.1,53.6,151.6z M79.4,119.3c-0.1,0.5-0.3,1-0.5,1.6c0.7-0.2,1.6-0.4,2.5-0.5c0.5-0.3,1-0.5,1.4-0.7
		c-0.7-0.5-1.3-1-1.9-1.7C80.4,118.5,79.9,119,79.4,119.3z M299,86.9c0.7,0.4,1.3,0.9,1.8,1.5c1.7-1.6,3.8-2.5,6.2-2.5
		c1.6,0,3.8,0.4,6,2.2c0.4-0.2,0.7-0.4,1.1-0.5c1.6-4.1,3.5-8.2,5.7-12.3c-0.2-0.2-0.4-0.3-0.5-0.5c-1.1-1.2-2.3-3.2-2.4-6.3
		c-1.4-0.8-4.5-2.6-5.9-6.2c-1.4-0.8-2.5-2-3.5-3.5c-2.3-0.7-4.2-2.2-5.3-4.3c-0.7-0.4-1.3-0.9-1.9-1.5c-0.3,0-0.6,0-0.9,0
		c-0.5,0-1.1,0-1.5-0.1c-1.6,0.9-3.5,1.3-5.5,1.3c-1.1,0-2.2-0.1-3.4-0.4c-1.6-0.4-3-1.1-4.1-1.7c-0.1,0-0.2,0-0.3,0
		c-2.3,0-4.1-0.7-5.4-1.2c-0.1,0-0.2,0.1-0.3,0.1c1.7,2.9,2.7,5.8,3.6,8.5c0.1,0.3,0.2,0.5,0.3,0.8c10.3,4.3,16.3,13.5,16.1,25.2
		C299,85.9,299,86.5,299,86.9z"/>
	<path d="M306.6,24.6c0.5,0,1,0.4,1.4,1c1,1.5,1.3,3.8,3.9,3.9c0.3,0,0.8,0.9,0.7,1.2c-0.7,2.6,1.1,3.9,2.4,5.6
		c4.2,5.2,8.4,10.5,12.4,15.9c3.6,4.9,8.1,9.2,12.5,13.4c2.4,2.3,2.6,4.3,1.7,7.6c-2.3,9-7.5,16.9-9.6,25.9
		c-0.4,1.7-0.5,2.9,1.2,4.1c5.7,4,11.3,8.3,17.2,11.9c1.3,0.8,2.8,1.7,4.6,1.7c0.3,0,0.6,0,0.9-0.1c0.1,0,0.2,0,0.3,0
		c1,0,2.2,0.8,3.3,1.2c5.3,2.1,10.4,4,16.4,4.3c0.9,0.1,1.8,0.1,2.7,0.1c3.4,0,6.6-0.4,9.8-1.6c1-0.4,1.7-1.1,2.5-1.7
		c1-0.8,1.9-1.9,3-1.9c0.6,0,1.3,0.4,2,1.3c0.2,0.2,0.4,0.3,0.6,0.3c0.3,0,0.5-0.1,0.8-0.3c0.6-0.5,1.1-0.7,1.6-0.7
		c1,0,1.5,1.2,2,2.2c1.1,2.6,2.4,5.2,2.9,8.1c0.6,3.4,3.5,5.5,5.4,8.1c4.2,5.7,9.9,10.1,14.2,15.8c3.5,4.5,6.9,9,11,13.1
		c0.9,0.9,1.2,2.4,1.5,3.7c0.2,1,1,1.4,1.7,1.4c0,0,0.1,0,0.1,0c0.2,0,0.3,0,0.5,0c3.2,0,5.2,2.3,7.5,3.9c1.3,1,0.3,5.1-1.3,6
		c-2,1.2-4.1,2.3-5,4.6c-1.1,2.7-2.8,4.7-5.4,6.2c-1.8,1.1-2.9,2.9-3.7,5c-1.6,4.1-5.9,5.3-9.3,7.1c-5.3,2.8-10.4,5.9-15.6,8.9
		c-6,3.5-12.5,5.2-18.8,7.7c-5,1.9-10.3,2.8-15.1,5.1c-0.2,0.1-0.5,0.3-0.7,0.3c-0.2,0-0.3-0.1-0.4-0.3c-0.4-0.8,0.1-1.3,0.7-1.7
		c1.9-1.4,3.8-2.8,5.8-4.2c1.7-1.2,3.4-2.5,5-3.9c1.2-1.1,3.2-1.4,4.9-1.7c3.3-0.6,5.9-2.3,8.3-4.6c2.4-2.3,5.1-4.5,7.9-6.4
		c4.2-2.9,6.4-7.1,8.1-11.6c0.5-1.3,0.8-2.6,2.3-3.2c0.9-0.4,1.2-1.4,1.6-2.2c1.3-2.8,3.3-4.7,6.3-5.5c1.5-0.4,2.8-1.2,4.5-1.9
		c-0.9-1.1-2.2-1.9-1.9-3.4c0-0.1-0.1-0.4-0.2-0.5c-4.5-3.4-6.2-9.3-10.7-12.5c-1.4-1-3.3-1.1-5-1.6c-0.1,0-0.2,0-0.3,0
		c-0.2,0-0.5,0.1-0.7,0.1c0,0,0,0-0.1,0c-0.6,0-1.1-0.6-1-0.9c1.8-2.7-3.7-2.7-2-5.1c0.9-1.4-0.1-1.9-0.8-2c-0.9-0.2-1.8-0.2-2.5-1
		c-0.2-0.2-0.4-0.3-0.5-0.3c-0.3,0-0.5,0.3-0.7,0.8c-1.7,4.6-3.8,9-3.8,14.1c0,2.3-0.4,4.6-0.2,7c0.1,1.6-0.2,4.2-3.2,4.2
		c-0.9,0-2,0.5-2.6,1.5c-1,1.7-2.8,2.4-4.4,2.8c-4.3,1-8.1,3.4-12.3,4.5c-0.3,0.1-0.6,0.2-1,0.2c-2,0.1-3.8-0.2-5.3,2
		c-0.6,0.9-1.8,1-3,1c-0.5,0-1,0-1.5,0c-0.6,0-1.1,0-1.6,0.1c-0.1,0-0.2,0-0.3,0c-0.2,0-0.4,0-0.7,0c-0.3,0-0.5,0-0.7,0.2
		c-3.7,3.5-9,3.5-13.2,6c-0.3,0.2-0.6,0.4-0.9,0.4c-0.2,0-0.4-0.1-0.7-0.3c-0.6-0.6-0.1-1.1,0.3-1.5c3-3.1,5.5-6.4,9.7-8.4
		c2.9-1.4,5.3-4.1,8.2-5.9c1.8-1.1,3.6-2,5-3.8c1.2-1.6,4-0.3,5.8-1.5c0,0,0.1,0,0.1,0c0.1,0,0.2,0,0.3,0c0,0,0.1,0,0.1,0
		c2.1-1.7,4.5-2.2,7.1-2.3c0.7,0,2.3-1.2,1.2-2.8c-0.2-0.4,0-0.7,0.2-1.1c1.8-3.5,2.4-7.4,4.5-10.7c0.8-1.4-0.2-3.2-0.6-4.6
		c-1-3.5-1.1-6.8,0.5-9.9c0.7-1.3,0.7-1.7-0.7-2.1c-0.4-0.1-0.6-0.8-0.9-1.3c-0.9,0.7-1.6,1.6-2.8,1.6c-0.4,0-0.9-0.1-1.6-0.4
		c-0.4-0.2-1.2-0.4-2.1-0.4c-1.2,0-2.7,0.4-3.7,1.9c-0.5,0.8-1.8,1.7-3.2,1.7c-0.6,0-1.3-0.2-2-0.6c-0.5-0.3-0.9-0.4-1.4-0.4
		c-0.6,0-1.3,0.2-2.1,0.5c-1.2,0.5-2.9,0.9-4.4,0.9c-0.2,0-0.4,0-0.7,0c-0.2,0-0.3,0-0.5,0c-1.3,0-2.1,0.5-3.1,1.2
		c-0.8,0.6-1.5,1.1-2.3,1.1c-0.6,0-1.2-0.2-1.8-0.8c-0.4-0.4-0.9-0.6-1.3-0.6c-0.4,0-0.8,0.2-1.3,0.4c-0.2,0.2-0.6,0.4-0.8,0.4
		c0,0-0.1,0-0.1,0c-0.8-0.6-1.4-1-2.1-1c-0.7,0-1.3,0.4-1.9,1.5c0,0.1-0.1,0.1-0.2,0.1c-0.3,0-0.9-0.4-0.8-0.8
		c0.5-2.7-1.9-3.1-3.1-3.1c-0.3,0-0.5,0-0.7,0c-0.3,0.1-0.6,0.1-0.9,0.1c-1.8,0-3.2-1.1-4.8-1.6c-0.8-0.3-1.6-0.6-2.4-0.6
		c-0.1,0-0.2,0-0.3,0c0.5,7-1.3,13-6.6,17.8c-1.4,1.3-2.4,3.1-3.6,4.6c-2.4,3-5.7,5-8.9,7.1c-2,1.3-3.6,3.2-5.9,4.1
		c-0.3,0.1-0.6,0.3-0.9,0.3c-0.2,0-0.3-0.1-0.5-0.3c-0.3-0.5,0.2-0.7,0.5-1c2.7-3,4.5-6.3,5.9-10.2c0.7-2.1,0.7-5.1,3.7-6.1
		c1.3-0.4-0.3-1.5,0.3-2.2c1-1.2,1.8-2.5,2.7-3.6c0.8-1,1.9-2,2.2-3.3c0.6-2.9,0-4-2.8-4.9c-2.5-0.9-5-2-7.6-2c-0.2,0-0.5,0-0.7,0
		c-2.3,0.2-4.9-0.4-6.8,1.3c-2.3,2-4.8,3.5-7.5,4.8c-5,2.5-9.4,6-14.4,8.5c-6.4,3.2-13,5.3-19.9,7.1c-0.2,0.1-0.4,0.1-0.7,0.1
		c-0.3,0-0.5-0.1-0.7-0.5c-0.2-0.7,0.5-0.8,0.9-1c3.5-1.7,7-3.6,10.6-5.2c6.1-2.6,11.1-6.6,15.6-11.4c1.6-1.6,2-4.2,4.4-5.4
		c-0.2,0-0.4,0-0.6,0c-1,0-2.1-0.5-3.1-0.5c-0.5,0-1,0.1-1.5,0.4c-0.3-0.2-0.7-0.3-1-0.5c-0.3-0.1-0.6-0.1-0.9-0.1
		c-1.6,0-3.1,0.9-4.7,0.9c-0.2,0-0.5,0-0.7-0.1c0,0,0,0-0.1,0c-0.6,0-0.1,1.7-0.9,1.7c0,0,0,0,0,0c-0.1,0-0.2,0-0.3,0
		c-3.8,0-5.3,3.7-8.3,5c-2.5,1.1-5.2,1.5-7.8,1.5c-0.9,0-1.9-0.1-2.8-0.1c-0.7-0.1-1.4-0.1-2.1-0.1c-0.4,0-0.9,0-1.3,0
		c-2,0-4-0.1-5.9-1.2c-0.2-0.1-0.4-0.2-0.7-0.2c-0.5,0-1,0.3-1.1,0.7c-0.3,2.1-1.6,3.8-2.1,5.6c-0.7,2.6-1.5,5.4-1.4,8.3
		c0.1,3.5-0.1,7-0.7,10.5c-0.3,1.9,0.8,3.8,0.5,5.8c-0.1,0.7,0,1.6-0.8,1.7c0,0-0.1,0-0.1,0c-0.9,0-0.9-1-1-1.7
		c-1.3-6.5-2-13-1.7-19.7c0-0.4,0.1-0.9,0-1.3c-0.3-0.7-0.1-1.9-0.9-2.1c-0.1,0-0.2,0-0.3,0c-0.9,0-1,1.2-1.2,1.8
		c-0.7,1.8-3.1,2.7-2.7,5c-0.2,0-0.3-0.1-0.5-0.1c-1.2,0-2,1.1-3,1.6c-1.3,0.6-1.9,1.5-1.8,3c0.2,2.5,0.1,5,0,7.5
		c0,0.4,0.3,1.1-0.6,1.1c-0.6,0-0.8-0.5-0.9-1.1c0-2.6-0.7-5.1-1.1-7.6c-0.4-2.8-2.7-2.9-4.4-4c-0.1-0.1-0.3-0.1-0.4-0.1
		c-0.5,0-0.9,0.5-1.1,1.3c-0.5,2.2-1.5,4.3-1.7,6.6c-0.1,0.5-0.6,1-1.1,1.5c-1.8-2.6-0.9-5.5-1.2-8.2c-0.3,0.1-0.5,0.1-0.8,0.1
		c-2.4,0-5.3-2.2-5.3-4.2c0-0.6,0.2-1.6-0.5-1.6c-0.1,0-0.2,0-0.4,0.1c-0.2,0.1-0.4,0.1-0.6,0.1c-0.6,0-1.2-0.2-1.8-0.2
		c-0.7,0-1.2,0.3-1.3,1.5c-0.2,2.9-1.2,5-3.7,6.6c-1.2,0.8-1.9,2.2-2.9,3.3c-0.3,0.4-0.7,1-1.2,1c-0.1,0-0.3,0-0.4-0.1
		c-0.8-0.5-0.6-1.5-0.2-2.1c1.7-2.3,0.1-5,2-7.6c-2.5,0.4-2.8,2-3.6,3.1c-0.5,0.7-0.7,1.5-1.4,2.1c-0.4,0.3-0.7,0.6-1.1,0.6
		c-0.1,0-0.3,0-0.4-0.1c-0.7-0.3-0.6-0.9-0.3-1.5c0.7-2-0.6-3.8-0.4-5.8c0.1-0.6-0.4-0.9-0.9-0.9c0,0-0.1,0-0.1,0
		c-1,0.1-0.7,0.9-0.7,1.6c0,4.4,0,8.7,0,13.1c0,0.5,0.2,1.1-0.5,1.4c-0.8-1.5-1.1-3.1-1.4-4.7c0.3-2.5-1-4.8-0.3-7.5
		c-1.2,0.4-2.2,0.8-3.2,1.1c0.7,1.6,2.5,2.5,2.7,4.3c-0.9,0.3-1.7,0.4-2.5,0.4c-2.4,0-4.5-1.1-6.6-2.2c-2-1-3.7-2.6-5.6-4.4
		c-0.9,1.8-0.5,3.2,0.4,4.6c1.9,3,3.4,6.3,5.6,9.1c0.3,0.4,0.9,1,0.2,1.5c-0.1,0.1-0.2,0.1-0.3,0.1c-0.4,0-0.7-0.4-1-0.6
		c-3-2.7-6.5-5-8.8-8.2c-2.7-3.8-6.2-7.2-7-12.2c-0.1-0.6-0.2-1.9-1.2-1.9c-0.1,0-0.2,0-0.3,0c-1.1,0.2-1.4,1.3-1.5,2.4
		c-0.3,4.4,1.5,7.1,5.2,8.9c1.6,0.8,2.8,2.7,4,4.2c0.4,0.5-0.4,1-1,1c0,0,0,0,0,0c-1.5-0.1-3,0-4.3-0.4c-2.3-0.6-4.5-1.4-6.7-2.2
		c-0.6-0.2-1.3-0.5-1.6-1.2c-1.1-2.4-3.2-3.9-4.7-6c-1.1-1.6-2.4-3-1.3-5.3c1.4-2.9,1-4.2-1.5-4.2c-0.5,0-1.1,0.1-1.8,0.2
		c-0.1,0-0.2,0-0.4,0c-0.2,0-0.3,0-0.5,0c-1,0-2.2,0.1-0.6,2c0.3,0.4,0.3,0.9-0.1,1.1c-1.8,0.7-1.5,2.6-1.2,3.4
		c1,2.9-1.2,6.3,1.6,8.9c0.5,0.4,0.7,1.2,0.9,1.8c1.3,4.3,3,8.3,6,11.7c0.6,0.6,1.3,1.4,0.6,2.3c-0.2,0.2-0.4,0.3-0.6,0.3
		c-0.5,0-1-0.5-1.4-0.7c-5.4-3.4-10.2-7.4-13.7-12.9c-2.4-3.8-4.9-7.5-6.8-11.5c-0.1-0.3-0.5-0.8-0.4-0.9c1.5-2.2,0.8-5.1,2.4-7.4
		c-0.6,0-1.3,0.1-1.9,0.1c-1.3,0-2.7-0.1-4-0.1c-1.4,0-2.8,0.1-4.2,0.4c-0.2,0-0.4,0.1-0.5,0.1c-0.4,0-0.7-0.2-1.1-0.5
		c-1.2-1.1-2.5-1.6-4-1.6c-0.5,0-1,0.1-1.5,0.1c-0.5,0.1-0.9,0.1-1.3,0.1c-2.3,0-4.5-1-6.7-1.1c-0.1,0-0.2,0-0.4,0
		c-1.7,0-3.4,0.4-5.2,0.4c-1.1,0-2.2-0.2-3.4-0.8c-0.2-0.1-0.4-0.1-0.7-0.1c-1.1,0-2.8,0.5-4.1,0.6c-1.1,0.1-1.4,1.1-1.7,2
		c-0.5,1.9-1.7,3.1-3.5,3.1c-0.1,0-0.3,0-0.4,0c-0.2,0-0.4,0-0.7,0c-2.7,0-3.9,1.9-4.5,4c-0.5,1.7-1.4,2.1-2.8,2.5
		c-0.5,0.1-1.7,0.1-1.3,0.7c1.2,1.4,0.3,3.4,1.6,4.7c0.4,0.4,1.2,1.1,1.1,1.3c-1.4,3.7,4,5,3,8.7c-0.2,0.8,1.2,1.7,2.5,1.8
		c1.9,0.2,2.4,1.2,2.8,3c0.5,2.6,2.6,4.5,3.9,6.7c1.4,2.3,4.6,3.3,5,6.4c0.1,0.5,0.8,1.1,1.4,1.5c3.1,2,4.5,5.5,7.2,7.9
		c0.3,0.3,0.9,0.7,0.5,1.3c-0.2,0.2-0.4,0.3-0.6,0.3c-0.3,0-0.6-0.2-0.9-0.3c-7.2-3.9-15.7-5.1-21.6-11.4c-2.1-2.3-5.1-3.3-7.6-5.2
		c-2.4-1.9-3.9-4.3-4.9-7c-1.3-3.5-4.2-5.7-5.8-8.9c-1.3-2.6-2.4-5.4-3.7-8c-1.6-3.2,0.8-3.7,2.3-5.3c3.1-3.3,6.3-6.5,8.6-10.6
		c2.2-3.9,3.6-8.2,6.7-11.6c0.4-0.4,0.2-0.9,0-1.4c-0.5-1.9-0.1-2.8,1.4-2.8c0.3,0,0.6,0,1,0.1c0.3,0.1,0.8,0.2,1.1,0.2
		c0.1,0,0.1,0,0.1,0c0.8-1.2,1.4-1.7,2.1-1.7c1.4,0,2.4,2.1,3.6,2.5c1.6,0.7,3.1,1.4,4.9,1.4c0,0,0.1,0,0.1,0c0.2,0,0.3,0,0.5,0
		c4.7,0,9.3,1,13.9,1c0.5,0,1,0,1.4,0c0.2-2.8,0.4-5.4,0.7-8.1c0.1-0.6,0.4-1.3-0.3-1.6c-1.9-0.8-3.8-1.5-5.6-2.8
		c-1-0.7-2.6-0.5-4-0.6c-0.5,0-0.9-0.1-1.4-0.1c-1,0-1.8,0.3-2.2,1.7c-0.1,0.3-0.3,0.6-0.7,0.6c-0.1,0-0.2,0-0.3,0
		c-0.6-0.2-0.4-0.7-0.4-1.1c0-1.2,0-2.5,0-4c-1.9,1.2-1.3,2.8-1.5,4.1c-0.1,0.6,0.1,1.3-0.7,1.3c0,0,0,0-0.1,0
		c-0.6,0-1.4-0.1-1.4-0.9c-0.1-3-2-5.1-3.4-7.6c-0.6,0.6-1,1.3-1.6,1.3c-0.4,0-1-0.4-1.7-1.4c-1.8-2.4-5.6-2.8-8.7-3.6
		c-0.1,0-0.2,0-0.3,0c-1,0-1,1.4-1.1,2.3c-0.1,1.1,0,2.4-1.2,2.4c-0.3,0-0.6-0.1-1.1-0.2c-0.1,0-0.2-0.1-0.3-0.1
		c-0.5,0-0.7,0.5-0.6,1.1c0.2,4.2-2.6,8.6-6.4,10c-1.1,0.4-1.7,1-1.8,2.2c-0.1,1.6-0.8,2.4-2.4,2.8c-1.6,0.4-2.9,1.5-4,3
		c-2.2,2.8-5.4,4.7-7.3,7.8c-0.6,1-2.1,1.1-3.3,1.3c-1.4,0.3-1.9,1.2-1.1,2.4c0.6,1,0.4,1.9,0.5,2.9c0.4,2.5-0.2,4.1-3.2,4.7
		c1.9,0.4,2.1,1.9,2.9,2.9c1.5,1.9,1.9,4.2,3,6.1c0.5,0.9,1.5,2,0.8,3.3c-0.2,0.4,0,0.7,0.3,0.9c3.6,2.4,3.5,6.3,3.5,9.9
		c0,2.5-2.8,2.9-4.7,3.7c-0.6,0.3-1.3,0.2-1.7,0.8c0.6,0.9,3,1,1.3,2.9c-0.2,0.2-0.2,0.4,0,0.4c2.7,0.1,2.8,2.9,4.3,4.2
		c1.6,1.3,2.3,3.6,1.6,5.6c3.9,0.1,4,3.7,5.4,6c2,3.4,3.7,6.7,7.1,9.3c2.4,1.8,4.3,4.7,6.1,7.5c1.3,2,3,3.6,5.1,4.8
		c1.1,0.6,1.8,1.6,2.6,2.5c0.9,1,1.5,2.6,3.2,2.7c0.8,0.1,1.4,0.5,1.2,1.3c-0.1,0.5-0.4,0.6-0.8,0.6c-0.2,0-0.5,0-0.7-0.1
		c-3.6-0.7-7.4-0.8-10.3-3.7c-1.9-1.9-4.3-3.5-6.8-4.4c-3-1.2-4.9-3.3-7-5.4c-3.5-3.4-7.5-6.2-11.4-9c-2.2-1.5-3.1-4-4.8-6
		c-0.8-0.9-1.5-1.8-2.5-2.5c-2.2-1.6-4-3.5-5.3-5.9c-0.4-0.7-0.6-1.6-1.2-2c-4.5-2.6-1.9-6.2-1.5-9.6c0.4-2.7,2.7-3.8,4-5.7
		c0.8-1.1,1-2.1,1-3.4c0-5.7-4.7-9.2-6.3-14.2c-0.5-1.5-2.2-2.5-3.3-3.8c-0.6-0.7-1.2-1.3-0.2-2.1c0.2-0.1,0.5-0.5,0.5-0.5
		c-2.3-2.8,0.9-3.1,1.9-4.3c1.2-1.5,1.6-3.8,3.4-4.6c4-1.7,5.6-5.5,7.2-8.8c2-4.2,4.3-8.2,7.7-11c3.6-3,5.8-7.1,9.3-10.1
		c2.5-2.1,2.4-5.7,4.8-8c1.5-1.4,1.9-3.8,4.1-4.6c0.7-0.3,0.9-1.1,0.7-1.8c-0.3-1.7,0.5-3,1.2-4.4c0.6-1.3,1.4-2.1,2.6-2.1
		c0.4,0,0.8,0.1,1.2,0.2c0.3,0.1,0.6,0.2,0.8,0.2c0.5,0,0.9-0.3,1.1-1.1c0.2-0.8,0.5-1.1,0.9-1.1c0.3,0,0.7,0.2,1.1,0.4
		c0.3,0.2,0.6,0.3,0.8,0.6c4,5.3,10.1,5.7,15.9,6.8c3.7,0.7,6.6,3.2,10.1,4.4c2.8,0.9,5.7,1.7,8.4,2.6c3.7,1.2,7.5,1.9,11,3.6
		c0.9,0.5,1.9,0.8,2.9,0.8c0.2,0,0.5,0,0.8-0.1c0.2,0,0.4-0.1,0.6-0.1c0.9,0,1.7,0.3,2.4,0.9c1.2,0.9,2.4,1.3,3.6,1.3
		c1.1,0,2.3-0.4,3.4-1.1c0.3-0.2,0.5-0.5,0.8-0.6c2.7-0.7,3.4-1.8,2-4c-3.3-5.2-1.3-9.6,1.6-13.8c1.4-2,1.4-3.6,0.6-5.7
		c-1.1-2.8-1.5-5.8-0.2-8.5c1.3-2.8,2.6-5.5,3.6-8.5c0.4-1.2,1.3-2.8,2.3-3.3c5.4-2.6,7.5-7.9,10.2-12.5c3.2-5.3,7.9-8.1,13.2-10.5
		c3.9-1.8,7.9-2.9,12.2-2.9c0.8,0,1.7,0,2.5,0.1c0.1,0,0.3,0,0.4,0c0.7,0,1.3-0.2,1.8-0.7c3.7-3.2,7.9-4.5,12.4-4.5
		c1.2,0,2.5,0.1,3.7,0.3c0.9,0.1,1.8,0.2,2.7,0.2c1.8,0,3.7-0.2,5.5-0.3c0.4,0,0.8,0,1.2,0c5.6,0,10.9,1.3,15.8,4.2
		c0.4,0.3,0.9,0.7,1.4,0.7c0.2,0,0.5-0.1,0.7-0.3c1.9-1.8,3.9-2.3,6-2.3c2.1,0,4.3,0.6,6.4,1.1c2.3,0.5,4.6,1.3,6.5,4.1
		c-0.1-3.3,1.1-4.3,3.8-4.8c2.9-0.4,5.6-1,8.5-1c0.1,0,0.1,0,0.2,0c0.1,0,0.1,0,0.2,0c6.1,0,11.9-2,17.9-3c5.9-0.9,11.5-3,17.5-3.1
		c0.2,0,0.4,0,0.6,0c0.5,0,1,0,1.5,0c2.1,0,4.4-0.2,5.9-2.5C306.1,24.7,306.4,24.6,306.6,24.6 M274.7,44.5c-0.5,0-0.9-0.1-1.4-0.5
		c-0.9,1.4-2,1.9-3.1,1.9c-1.1,0-2.3-0.4-3.5-0.8c-1-0.3-1.6-0.5-2-0.5c-0.8,0-0.9,0.6-0.9,2c0.1,1.6-0.5,3.2,1.5,3.2
		c0.1,0,0.1,0,0.2,0c0.1,0,0.2,0,0.3,0c2.3,0,4,1.4,5.3,3.1c2.8,3.5,3.8,7.9,5.4,12c0.2,0.6,0.1,1.3,1.2,1.6
		c8.9,2.7,13.9,9.7,13.8,19c0,3.1-0.1,5.7,3.1,7.6c2.4,1.4,3.3,4.2,3.9,7c0.2,0.8,0.5,1.6,1.2,1.9c0.1,0.1,0.3,0.1,0.4,0.1
		c0.6,0,0.7-0.7,1.1-1.1c1.7-1.8,3.2-3.7,4.2-6c0.5-1,1.1-1.5,1.7-1.5c0.6,0,1.2,0.4,1.8,1.1c1,1.1,2.3,1.7,2.9,3.3
		c0.2,0.6,0.7,0.9,1.2,0.9c0.4,0,0.9-0.2,1.3-0.7c0.7-0.8,1.8-1.1,2-2.5c0.1-0.7,0.6-0.9,1.2-0.9c0.4,0,0.8,0.2,1.1,0.4
		c0.5,0.5,0.9,0.9,1.4,0.9c0.3,0,0.6-0.1,0.9-0.4c1-0.8,0.6-1.8,0.2-2.7c-0.3-0.8-0.3-1.4,0-2.2c1.7-4.5,3.8-8.9,6.2-13.1
		c0.5-0.9,0.1-2.1,1.2-2.9c0.7-0.5,1.9-1.4,1.2-2.8c-0.6-1.1-1.5-1.8-2.8-1.8c-0.1,0-0.2,0-0.4,0c-0.2,0-0.3,0-0.5,0
		c-1.2,0-1.6-0.6-1.5-2.1c0.2-2.2-0.7-4.1-2.7-5.4c-1.6-1.1-3.9-1.6-3.8-4.4c0-0.8-0.7-2-1.7-2c-2-0.1-2.5-1.6-3-3
		c-0.3-0.8-0.6-1.5-1.4-1.5c-0.1,0-0.2,0-0.2,0c-0.3,0-0.6,0.1-0.8,0.1c-1.4,0-2.2-0.7-2.3-2.3c-0.1-0.6-0.5-0.5-0.9-0.7
		c-1.4-0.5-2.4-1.1-2.8-2.9c-0.2-1.3-1-2-1.9-2c-0.7,0-1.4,0.3-2,1c-0.5,0.5-0.9,0.7-1.3,0.7c-0.5,0-1-0.3-1.5-0.8
		c-0.4-0.3-0.7-0.6-1.1-0.6c-0.3,0-0.5,0.2-0.8,0.6c-1,1.5-2.2,2-3.7,2c-0.6,0-1.2-0.1-1.8-0.2c-1.6-0.4-3.4-2.1-4.4-2.1
		c-0.1,0-0.2,0-0.2,0c-0.4,0.1-0.8,0.2-1.2,0.2c-2,0-3.6-1.5-5.6-1.5c-0.3,0-0.7,0-1,0.1C277,43.6,275.9,44.5,274.7,44.5
		 M351.6,132.4c2.2,0,4.5-1.4,6.7-2c0.5-0.1,0.5-0.6,0.2-1c-0.2-0.2-0.3-0.7-0.5-0.7c-0.1,0-0.2,0-0.3,0.2c-0.4,0.3-0.7,0.5-0.9,0.5
		c-0.5,0-0.9-0.6-1.3-1c-0.4-0.5-0.9-0.7-1.6-0.7c-2.9-0.2-5.2-2.4-8.3-2.6c-1.1-0.1-2.2-0.6-3.4-0.6c-0.4,0-0.7,0.1-1.1,0.2
		c-0.4,0.1-0.7,0.2-1.1,0.2c-1.1,0-1.7-0.8-2.4-1.9c-0.5-1-1.2-1.8-2.1-1.8c-0.4,0-0.9,0.1-1.4,0.5c-0.3,0.2-0.6,0.3-0.8,0.3
		c-0.5,0-0.7-0.7-0.8-1.4c-0.3-2.2-3-2-3.4-3.7c-1.6,0.3-2.9,0.2-3.2,1.7c-0.2,1.3,1,1.2,1.6,1.8c1.6,1.5,4.6,1.9,4.8,4.2
		c0.2,2.3,1.3,2.6,2.8,2.6c1.1,0,2.1,0.5,2.8,1c3.4,2.4,7.7,1.8,11.3,3.8C350.2,132.2,350.9,132.4,351.6,132.4 M300.8,120.1
		c0,0,0.1,0,0.1,0c0.2,0,0.4,0,0.6,0c1.2,0,2.5,0.5,3.8,0.5c0.7,0,1.4-0.1,2.1-0.6c-1.5-1.6-2.9-2.4-4.2-2.4c-0.7,0-1.5,0.3-2.1,0.8
		c-0.4,0.3-0.9,0.6-0.8,1.2C300.2,120,300.5,120.1,300.8,120.1 M114.1,132.4c0.7-0.6,1.5-1.4,2.1-1.4c0.2,0,0.4,0.1,0.6,0.4
		c0.3,0.5,0.6,0.7,0.9,0.7c0.5,0,1-0.6,1.4-0.6c0.1,0,0.1,0,0.2,0c0.5,0.2,1,0.3,1.4,0.3c2.1,0,3.6-1.9,5.6-2.1
		c-1.9-0.1-3.3-0.4-4.6-2.1c-0.4-0.5-1.2-1.1-2.1-1.1c-0.7,0-1.3,0.3-1.9,1.2c-0.3,0.4-0.5,0.6-0.7,0.6c-0.4,0-0.7-0.4-0.9-0.9
		c-0.3-0.6,0.2-1.3-0.8-2.3C115.3,127.8,113.6,129.6,114.1,132.4 M263.6,142.2c-0.8,0-1-0.7-1.3-1.3c-0.1-0.3-0.6-0.9-0.7-0.9
		c0,0,0,0,0,0c-2.5,1.5-5.7,1.8-8,3.8c1.4,0.1,2.8,0.2,4.1,0.2c2.1,0,4.2-0.3,6.3-1.3c1.8-0.6,3.3-1.6,4.2-3.3
		c-1-0.2-1.8-0.3-2.4-0.3c-1.6,0-1.8,0.8-1.9,3.1C263.7,142.2,263.6,142.2,263.6,142.2 M306.6,9.6C306.6,9.6,306.6,9.6,306.6,9.6
		c-3.3,0-6.5,1-9.1,2.9c-5.2,0.2-9.8,1.2-13.9,2.2c-2,0.5-3.8,0.9-5.5,1.1c-2.6,0.4-5,0.9-7.3,1.4c-3.1,0.7-6,1.4-8.3,1.4l-0.1,0
		l-0.3,0c-3.7,0-6.9,0.5-9.7,1c-0.4,0.1-0.8,0.1-1.2,0.2c-1.4,0.2-2.7,0.6-4,1c-0.2-0.1-0.5-0.1-0.6-0.1c-0.3-0.1-0.6-0.1-0.8-0.2
		c-2.3-0.5-5.4-1.2-8.9-1.2c-2.4,0-4.6,0.3-6.8,1c-5.3-2.1-11-3.1-17-3.1c-0.6,0-1.1,0-1.7,0c-1,0-1.9,0.1-2.7,0.1
		c-0.9,0.1-1.7,0.1-2.3,0.1c-0.4,0-0.6,0-0.6,0c-2-0.3-3.9-0.4-5.7-0.4c-6.5,0-12.6,1.7-17.9,5c-5.7,0.1-11.4,1.5-17.5,4.2
		c-6.4,2.9-14.4,7.3-19.9,16.4c-0.7,1.1-1.3,2.2-1.8,3.1c-0.7,1.2-1.7,3.1-2.3,3.7c-4.5,2.2-8.2,6.6-9.9,12.1
		c-0.6,1.9-1.6,3.9-2.7,6.3L128,68c-2.3,4.9-2.8,10.4-1.5,15.9c-0.9,1.6-1.7,3.5-2.4,5.6c-1.7-0.6-3.3-1-4.7-1.4
		c-1-0.3-2-0.6-2.9-0.8c-1.4-0.4-2.7-0.8-4.1-1.2c-1.5-0.4-2.9-0.9-4.3-1.3c-0.3-0.1-1.1-0.6-1.8-0.9c-2.4-1.3-5.6-3-10-3.9
		c-0.8-0.2-1.7-0.3-2.5-0.5c-1.4-0.3-3.5-0.6-4.4-1c-1.9-2.4-4-3.6-4.8-4.1c-2.8-1.7-5.8-2.6-8.9-2.6c-3.1,0-5.9,0.9-8.4,2.4
		c-4.9,1.3-9.1,4.8-11.7,9.9l-0.2,0.3c-0.5,0.9-1.2,2.4-1.8,4.4c-0.9,1.1-1.5,2.1-1.9,2.8c-2.6,2.9-3.9,5.9-4.7,7.8
		c-2,1.9-3.6,3.9-4.9,5.5c-1,1.3-2,2.4-2.7,3c-6,4.9-9.4,11.2-11.7,16.1l-0.3,0.6c-0.2,0.4-0.5,1-0.7,1.5c-4,2.2-6.3,5.4-7.6,7.6
		c-3.3,2.7-5.3,6.1-6,10.1c-0.1,0.8-0.2,1.8-0.2,3c-0.1,0.4-0.1,0.8-0.2,1.3c-0.3,3.2,0.2,7.9,4.4,12.6l0,0c0.5,0.6,1,1.1,1.5,1.5
		c0.9,2,1.9,3.7,2.8,5.1c-1.4,2.1-2.7,4.8-3.2,8.3c0,0.2-0.1,0.4-0.2,0.6c-0.6,2.1-1.5,5.5-1,9.8c0.6,4.4,2.6,8.3,5.9,11.3
		c2.1,3.7,5,6.9,8.5,9.5c0,0,0.1,0.1,0.1,0.1l0.2,0.3c0.1,0.2,0.3,0.5,0.5,0.8c1.3,2,3.4,5.3,7.3,7.9c3.3,2.3,6.8,4.7,9.4,7.3
		c0.2,0.2,0.4,0.4,0.6,0.6c2.4,2.4,6,6,11.6,8.1c0.7,0.3,1.2,0.6,1.5,0.9c5.8,6,12.7,7.1,16.8,7.7c0.5,0.1,1,0.2,1.5,0.2
		c0.8,0.2,2,0.4,3.5,0.4c7.6,0,13.9-5.1,15.5-12.5c1-4.5,0-9.2-2.8-12.8c-1.4-1.9-3.3-3.5-5.4-4.6c-0.5-0.6-1.3-1.5-2.3-2.4
		c1.4,0.6,2.8,1.1,4.1,1.6c2.2,0.9,4.3,1.7,5.9,2.5c1,0.5,3.9,2.1,8,2.1c4.8,0,9.3-2.2,12.3-6c5.3-6.7,4.3-16-2.2-21.7
		c-0.2-0.3-0.7-0.8-1-1.3c-1.2-1.6-2.7-3.7-5-5.7c-1.9-3.4-4.3-5.5-5.6-6.7c-0.5-0.8-1-1.4-1.4-2c-0.1-0.1-0.1-0.2-0.2-0.3
		c-1.2-4.3-3.4-7.5-6.2-9.6c1.1-0.7,2.2-1.5,3.2-2.4c0.3,0,0.6,0,0.9,0c1.8,0,3.4-0.2,4.5-0.4c0.1,0,0.3,0,0.4-0.1
		c0.2,0,0.3,0.1,0.5,0.1c1.6,0.4,4,0.9,6.9,0.9c0.1,0,0.2,0,0.2,0c0.8,0.4,1.6,0.8,2.5,1c0.1,0.2,0.2,0.4,0.3,0.7
		c2.1,4.2,4.5,8,6.6,11.3l0.9,1.4c4.4,6.8,10.2,12.4,18.2,17.4c1.3,0.9,4.7,3.1,9.6,3.1c4.5,0,8.7-1.9,11.8-5.2
		c1.6-1.8,2.9-4.1,3.6-6.6c0.5,0.4,1,0.8,1.4,1.2c4,3.7,8.2,4.5,11,4.5c3.1,0,6.1-0.9,8.7-2.6c0.8,0.1,1.7,0.2,2.5,0.2
		c2,0,4.1-0.4,6-1.3c1.6-0.7,3.1-1.7,4.3-2.8c2-0.3,4.4-1,6.8-2.8c2.7,2.7,6.5,4.3,10.4,4.4c0.1,0,0.1,0,0.2,0c0.3,0,0.6,0,0.8,0
		c2.7,2.1,6,3.3,9.7,3.3c0.7,0,1.4,0,2.1-0.1c3.2,3.3,7.5,4.9,11.4,4.9c0.5,0,1,0,1.5-0.1c6.4-0.6,13.5-5.5,14.4-14.8
		c0-0.4,0.1-0.7,0.1-1.1c0.5,0.1,1.1,0.1,1.7,0.1c1.9,0,3.4-0.3,4.4-0.6c6.3-1.6,14.6-4.1,22.9-8.3c1.7-0.9,3.4-1.8,4.9-2.8
		c-3,5-3,11.2,0.2,16.3c2.9,4.6,7.8,7.3,13.1,7.3c3.4,0,5.9-1.1,7-1.6c3.3-1.4,5.6-3.4,7.2-4.7c0.3-0.2,0.6-0.5,0.8-0.7l0.9-0.6
		c3.5-2.2,7.8-5,11.5-9.7c0.7-0.9,1.3-1.7,1.8-2.4c0.2-0.3,0.4-0.6,0.6-0.8c2.6-2.4,4.7-5,6.4-7.9c0.9,0.2,1.9,0.3,2.8,0.3
		c1.5,0,2.9-0.2,4.2-0.6c0,0,0.1,0,0.1,0c0.2,0,0.4,0,0.6,0c1.5,0.4,3,0.6,4.5,0.6c3,0,6-0.8,8.8-2.4c1.3-0.1,2.7-0.3,4-0.7
		c0.5,0.1,1.1,0.2,1.6,0.3c-0.1,0.2-0.1,0.4-0.2,0.6c-0.5,0.2-1,0.4-1.4,0.7c-5,0.4-9.1,2.4-12,5.8c-0.2,0.1-0.4,0.2-0.6,0.4
		c-0.4,0.2-0.8,0.5-1.2,0.7c-2,1.3-3.7,2.6-5.1,3.7c-0.6,0.5-1.4,1.2-1.8,1.4c-6,2.9-9.8,7-12.6,10.1c-0.4,0.5-0.9,0.9-1.3,1.4
		c-6.3,6.5-6.4,16.1-0.2,22.4c3,3.1,7.1,4.8,11.4,4.8c4.4,0,7.5-1.8,8.5-2.4c0.3-0.2,1.6-0.6,2.4-0.8c2.2-0.7,5.2-1.6,8.3-3.4
		c4.7-0.1,8.2-1.4,10.8-3.2c0.8-0.1,1.5-0.3,2-0.4c3.1-0.8,5.7-2,7.9-2.9c0.8-0.3,1.6-0.7,2.3-1c-0.7,0.6-1.4,1.2-2,1.9
		c-0.4,0.4-0.6,0.6-0.8,0.7c-2.8,0.5-7.6,1.4-11.8,5.1c-1.3,1.1-2.5,2.1-3.8,3c-1.7,1.2-3.2,2.3-4.8,3.5l-1.3,0.9
		c-6.6,4.8-8.8,13.2-5.3,20.4c2.6,5.4,7.9,8.8,13.9,8.8c3.5,0,6-1.2,7.1-1.7c1.7-0.7,3.9-1.4,6.2-2c2.4-0.7,5.2-1.5,8-2.6
		c1.6-0.6,3.3-1.2,5.1-1.9c4.8-1.7,10.3-3.6,15.8-6.8c1.2-0.7,2.3-1.4,3.5-2c4-2.3,7.8-4.6,11.6-6.6c0.4-0.2,0.9-0.4,1.4-0.7
		c3.8-1.8,10.7-5.1,14.3-13.2c3.5-2.5,6.2-5.6,8.2-9.3l0.1-0.1c6.4-3.8,8.9-10.9,9.1-16.3c0.3-6-2.2-11.4-6.8-14.7
		c-0.2-0.1-0.5-0.4-0.8-0.7c-1.4-1.1-3.5-2.8-6.5-4.2c-0.6-0.9-1.4-1.9-2.3-2.8c-3.3-3.3-6.3-7.2-9.7-11.5c-2.7-3.5-5.6-6.5-8.2-9.1
		c-2.2-2.3-4.3-4.4-5.9-6.5c-1-1.3-1.9-2.3-2.6-3.2c-0.1-0.1-0.3-0.3-0.4-0.5c-0.8-3.4-2.1-6.3-3.1-8.7c-0.1-0.3-0.3-0.6-0.4-1
		c-4.4-10.1-12.5-11.2-15.7-11.2c0,0,0,0,0,0c-0.2,0-0.4,0-0.6,0c-1.7-0.5-3.2-0.6-4.3-0.6c-6.3,0-10.4,3.4-12.1,4.9
		c-1,0.2-2,0.3-3.3,0.3c-0.6,0-1.2,0-1.8-0.1c-3.4-0.2-6.8-1.3-11.5-3.2c-0.1,0-0.1-0.1-0.2-0.1c-1.4-0.7-4.1-2-7.7-2.2
		c-2.8-1.8-5.6-3.7-8.5-5.8c0.6-1.3,1.2-2.7,1.8-4.1c1.9-4.4,4.1-9.4,5.6-15c2.2-8.9,0.2-16.4-6-22.2c-4.2-4-7.9-7.5-10.8-11.4
		c-3.5-4.7-7.2-9.5-12.1-15.6c-0.5-2.4-1.5-4.8-3.1-6.9c-1.1-1.5-2.4-2.7-3.9-3.7C317.1,12.4,312,9.6,306.6,9.6L306.6,9.6z
		 M297.1,61.2c0.2,0,0.4-0.1,0.5-0.1c1.4,1.6,3.1,2.9,5.1,3.9c0.7,0.9,1.5,1.6,2.3,2.3c1.1,1.9,2.6,3.8,4.9,5.6
		c0.3,1.1,0.7,2.1,1.1,3c-0.5,0.9-0.9,1.8-1.3,2.7c-0.9-0.2-1.8-0.2-2.8-0.2c-0.4,0-0.7,0-1.1,0C304.7,71.7,301.7,65.8,297.1,61.2
		L297.1,61.2z"/>
</g>
</svg>
