<?xml version="1.0" encoding="utf-8"?>
<!-- Generator: Adobe Illustrator 24.1.0, SVG Export Plug-In . SVG Version: 6.00 Build 0)  -->
<svg version="1.1" id="Livello_1" xmlns="http://www.w3.org/2000/svg" xmlns:xlink="http://www.w3.org/1999/xlink" x="0px" y="0px"
	 viewBox="0 0 474 324.2" style="enable-background:new 0 0 474 324.2;" width="50" height="50" xml:space="preserve">
<style type="text/css">

		.Stile_x0020_grafica{fill:#FEFEFE;stroke:#000000;stroke-width:15;stroke-linecap:round;stroke-linejoin:round;stroke-miterlimit:10;}
	.st0{fill:#FEFEFE;}
</style>
<g>
	<path class="st0" d="M204.4,311.2c-2.5,0-4.5-0.7-6-1.3c-0.4-0.1-1-0.4-1.2-0.4c-0.4-0.1-0.9-0.2-1.3-0.3c-0.2,0-0.5-0.1-0.7-0.2
		c-1.4,0.3-2.9,0.4-4.3,0.4c-2.3,0-4.6-0.4-7-1.2c-0.3-0.1-0.7-0.2-1.1-0.2c-1.4,0-3.2,0.5-5.1,1.1c-0.4,0.1-0.9,0.2-1.3,0.4
		c-1.6,0.5-3.3,0.7-4.9,0.7c-3.9,0-7.5-1.4-10.8-4.2c-0.4-0.4-1.1-0.8-3.5-0.8c-0.8,0-1.7,0-2.6,0.1c-2.1,0.1-4.5,0.2-7,0.2
		c-0.9,0-1.9,0-2.8,0c-5.3-0.2-8.5-4-9.9-5.6c-0.4-0.4-0.5-0.4-0.6-0.5c-2.2-0.5-4.2-1.1-6.3-1.7c-1-0.3-2-0.6-3-0.9
		c-4.3-0.7-6.4-3.7-7-6.3c-0.1-0.2-0.2-0.5-0.3-0.7c-0.8-1.7-2.6-5.8-0.7-10.3c-0.1-0.1-0.1-0.3-0.2-0.4c-0.1-0.3-0.2-0.5-0.4-0.8
		c-4.4-8.5-1-13.5,0.6-15.5c0.1-0.2,0.2-0.8,0.2-1.7c0.5-6.6,3.8-11.3,6.7-14.7c0.5-0.5,1.3-1.5,1.6-2.1c1.9-4.5,5.7-7,10.2-7
		c0.8,0,1.7,0.1,2.6,0.3c0.4,0.1,0.8,0.1,1.2,0.1c0.5,0,1.3-0.1,2.3-0.5c-2.2-3.5-3.4-7.1-4.4-10.3c-0.5-1.5-0.9-2.9-1.4-4.1
		c-3-7.5-2.5-14.8-2-21.3c0.1-1.9,0.2-3.6,0.3-5.3c0.1-4.8,2.8-8.1,4.6-10.2l0.5-0.6c0.9-1.1,1.8-2.4,2.8-3.7c1.9-2.7,4.1-5.7,7-8.3
		c1.3-1.2,2.6-2,3.6-2.7c0.3-0.2,0.7-0.4,1-0.6c3.1-2.2,6.3-2.8,8.6-3.2c0.3,0,0.6-0.1,0.8-0.1c0.6-1.1,1.3-2,2-2.9
		c0.7-1,1.4-2,1.6-2.5c0.1-0.3,0.2-0.6,0.3-0.9c1.1-7.7,5.6-13.1,9.2-17.6c1.2-1.4,2.2-2.8,3.2-4.1c0.4-0.6,0.8-1.1,1.1-1.4
		c0.1-0.1,0.1-0.1,0.2-0.2c1.9-3.2,4.5-5.7,7.8-7.4c1-1.9,2.5-3.4,4.4-4.6c1.6-3.9,4.9-6.8,9.4-7.9c3.7-0.9,5.5-2.8,6.7-6.9
		c2.2-7.4,6-14.2,11.3-20.1c1.4-1.5,2.8-2.6,4-3.5c0.5-0.4,1-0.8,1.4-1.1c2.6-2.3,3.9-4.5,4.3-7.5c1.2-8.3,6.2-14.3,11.1-19.6
		c1.3-1.4,2.7-2.6,3.9-3.7c1.5-1.3,2.8-2.4,3.6-3.6c1.7-2.6,1.2-3.5,0.7-4.4c-2.4-4-1.3-7.8,0.5-10c1.6-1.9,3.9-3,6.3-3
		c1.3,0,2.5,0.3,3.7,0.9c1.7-3.5,4.3-6.5,7.5-8.9l0.3-0.2c1.2-0.9,2.3-1.7,2.8-2.5c2.4-3.6,5.6-4.2,7.3-4.2c1.4,0,2.8,0.4,4,1.1
		c1.1-0.7,2.5-1.1,3.9-1.1c0,0,0.1,0,0.1,0c3,0.1,5.7,1.9,6.8,4.7c0.5,1.2,0.7,2.3,0.9,3.3c1.3-5.8,5.5-7.9,8.7-7.9
		c0.4,0,0.9,0,1.3,0.1c1.6,0.3,4,1.1,5.7,3.6c0,0,0,0,0.1,0c1.4-1.2,3.1-1.8,4.9-1.8c0.4,0,0.8,0,1.1,0.1c4.3,0.7,7.5,3.7,8.2,7.8
		c0.5,2.8,1.1,6.4,0.7,10.4c2.5,0.3,4.9,1.1,7.2,2.3c5.3,2.9,5.8,7.7,4.6,10.9c-0.7,1.8-1.9,3.3-3.5,4.3c-0.1,2-0.4,4.1-1.1,6.3
		c-0.9,2.8-3.4,4.8-6.2,5.1c0,0.4,0,0.8,0.1,1.1c0.4,5.2-0.6,9.9-3,14.1c-0.2,0.3-0.2,0.5-0.1,0.9c1.6,7-0.5,13.1-2.6,17.7
		c-1.5,3.3-2.1,6.4-2.1,9.7c0,6.1-0.2,12.2-0.5,18c-0.1,2-0.4,3.7-0.8,5.3c-0.1,0.6-0.2,1.1-0.3,1.7c-0.7,4.8-4.4,7.1-7.7,7.2
		c0,2.3-0.1,4.9-0.8,7.6c0,0.1,0,0.3-0.1,0.4c-0.7,5-3.1,7.2-5.3,8.1c0,0.5-0.1,1-0.2,1.5c1.7-0.2,3.4-0.3,5.1-0.3
		c4.3,0,8.2,0.7,11.8,2.2c0.8,0.3,1.6,0.7,2.4,1c2.4,1,4.7,2,7,2.6c3.9,1.1,5.7,4.2,6.6,5.6c0.1,0.2,0.2,0.3,0.3,0.5
		c0.5,0.6,1.1,1.3,1.8,2c1.9,2.1,4.1,4.5,5.7,7.8c1.6,3.3,2.2,7,1.7,11.1c-0.2,1.4-0.4,2.8-0.2,3.5c1.2,7.4-2.2,12.9-4.7,16.9
		l-0.2,0.3c-3.8,6.1-9,10.2-16,12.5c0.4,0.2,0.8,0.3,1.3,0.5c0.1,0,0.4,0,0.8,0c0.4,0,0.8,0,1.1,0c0.5,0,1,0,1.5,0l0.3,0
		c2,0,6.8,0.1,11,4.4c2.5,2.6,4.7,4.3,6.9,5.5c6,3.1,6.4,9,6.5,11.5c0,0.4,0.1,0.9,0.1,1.1c0.8,4.5-0.5,8.4-1.5,11.2
		c-0.1,0.3-0.2,0.6-0.3,0.9c0.7,0.7,1.3,1.5,1.8,2.1c0.1,0.2,0.3,0.4,0.5,0.6c1.8,0.6,4.3,2.2,5.3,6c0.2,0.4,0.3,0.8,0.4,1.1
		c2.2,1.7,3.5,4.4,3.4,7.4c-0.1,3.9-2.6,7.5-6.1,8.9l-1.3,0.5c-1.9,0.8-3.9,1.6-6,2.3c-0.8,0.3-1.8,0.8-2.9,1.4
		c-2.6,1.4-6.1,3.3-10.7,3.5c-1,0-2.1,0.1-3.3,0.2c-1.6,0.2-3.3,0.3-5.2,0.3c0,0,0,0,0,0c-2.9,0-5.5-0.4-7.9-1.3
		c-0.4,0.1-0.8,0.3-1.2,0.5l-0.4,0.2c-1.9,0.8-3.8,1.2-5.8,1.2c-0.7,0-1.3,0-2.1-0.1c-0.7-0.1-1.3-0.1-1.8-0.1
		c-1.8,0-3.3,0.3-4.8,1.1c-4.1,2.1-8.6,3.2-12.5,3.9l-1.3,0.2c-4.2,0.8-8.3,1.5-12,2.7c-1.2,0.4-2.3,0.6-3.5,0.6
		c-1.7,0-3.2-0.4-4.8-1.2c-3.9,2-7.9,2.2-11.1,2.3c-0.6,0-1.3,0.1-1.9,0.1c-3.7,0.3-7.3,0.8-10.9,1.7c-2.5,0.6-5.1,0.9-7.7,0.9
		c-2.1,0-4.3-0.2-6.4-0.6c-2.7-0.5-5.5-0.8-8.7-0.8c-2.2,0-4.5,0.1-7.2,0.4c-0.7,0.1-1.4,0.1-1.9,0.1c0,0-0.7,0-0.7,0
		c-0.1,0-0.2,0-0.3,0c-0.1,0-0.3,0-0.4,0C209,310.8,206.4,311.2,204.4,311.2z"/>
	<path d="M285.9,26.8c1,2.4,0.3,4.2-0.1,5.6c-0.8,3.1,1.2,4.5,2.8,6.2c0.5,0.5,1,0.7,1.5,0.7c0.9,0,1.9-0.7,2.7-1.1
		c3.9-1.9,7.3-4.2,8.2-8.9c0.1-0.7,0.5-2.3,1.5-2.3c0,0,0.1,0,0.1,0c1.1,0.2,1.1,1.7,1.3,2.8c0.8,5-1.2,9.1-4.4,12.7
		c-0.4,0.4-1,0.6-1,1.6c0.8-0.4,1.5-0.8,2.2-1.2c0.7,1.7-1.2,2.5-1.2,4.3c3.5-3.3,8.4-3.4,11.8-6.6c2.2-2.1,3.4-4.4,3.1-7.5
		c-0.1-1.4,0-2.7,0-4.3c1.3,0.2,1.8,1,1.9,1.6c1,5.7,1.7,11.3-2.7,16.1c-0.7,0.8-1.5,1.6-2.4,2.2c-2.8,2.2-2.8,2.2-2.3,6.3
		c1.9-2.4,3.8-4.4,6.3-5.9c2.4-1.4,4.7-2.2,7.1-2.2c1.9,0,3.8,0.5,5.7,1.6c0.8,0.4,1.5,0.8,1.2,1.7c-0.1,0.4-0.4,0.5-0.6,0.5
		c-0.3,0-0.8-0.2-1.1-0.4c-0.4-0.1-0.6-0.2-0.9-0.2c-0.7,0-0.9,0.6-1,1.6c-0.4,3.1-0.1,6.3-1.1,9.3c0,0,0,0,0,0
		c-1.1,0-0.8-0.8-0.9-1.3c-0.1-1.6,0-3.3,0-4.9c0-1-0.1-1.9-1.1-2.4c-0.4-0.2-0.7-0.3-1.1-0.3c-0.6,0-1.2,0.3-1.8,0.7
		c-2.4,1.8-4.2,4.2-5.6,6.7c-2.1,3.9-3.6,8.2-2.7,13.2c1.1-3.5,2.1-6.7,3.1-9.9c0.5-1.7,1.6-3.1,2.9-4.1c0.7-0.6,1.4-0.9,2.1-0.9
		c0.8,0,1.7,0.4,2.5,1.5c-3.6,0.5-4.2,3.1-4.2,6c0,1.6,0,3.3,0.2,4.9c0.3,3.4-0.3,6.8-2,9.7c-1.2,2.1-1.4,4.2-0.9,6.4
		c1.1,4.6-0.3,9-2.1,13c-1.9,4.2-2.8,8.3-2.8,12.8c0,5.9-0.2,11.7-0.5,17.6c-0.1,2-0.6,4-1,6c-0.1,0.4-0.1,0.9-0.5,0.9
		c-0.1,0-0.2,0-0.4-0.1c-0.5-0.2-0.7-0.6-0.6-1.2c0.8-7.1,0.5-14.3,0.4-21.4c0-1.6-0.4-3.2-0.6-5.4c-2.5,4-0.6,8.2-1.9,12.3
		c-1-1.6,0.1-3.6-2.1-4.3c0.2,1.9,0.4,3.6,0.5,5.4c0.4,5.4-1.4,10.6-2.2,15.8c-0.6,4.1,0,8.3-0.9,12.3c-0.3,1.3-0.2,3.4-1.4,3.4
		c0,0,0,0-0.1,0c-1.2-0.1-0.6-2.2-0.4-3.4c0.3-2.3-0.1-4.5-0.3-7.2c-1.5,1.8-2.8,3.3-4.1,4.9c-0.2,0.2-0.4,0.6-0.3,0.6
		c2.1,1.5-0.3,4.1,1.3,5.8c0.9,0.9-0.1,2.2-0.1,3.4c0,2.3-0.4,4.7-0.9,6.9c-0.4,1.5-2.5,2.9-3.5,4.6c-0.5,0.9-0.8,1.9-1.4,3
		c3.3-0.3,6.1-1.9,9.2-2.4c3-0.5,6-0.9,9-0.9c3,0,6,0.4,9,1.6c3.4,1.4,6.7,2.9,10.2,3.9c1.4,0.4,2,2.4,3,3.6c2.2,2.8,5,5.2,6.6,8.4
		c1.1,2.2,1.3,4.5,1,6.8c-0.2,1.9-0.5,3.8-0.2,5.7c0.8,4.7-1.6,8.3-3.9,12c-4,6.4-9.9,9.4-17.1,10.6c-2.6,0.4-4.9,1.3-6.4,3.7
		c-1.2,1.9-3.6,2.5-5.6,3.6c0.2,1.1,1.2,1,1.8,1.1c3.2,0.1,5.7,1.5,8.1,3.4c0.4,0.3,0.7,0.4,1.2,0.4c0.2,0,0.3,0,0.5,0
		c0.4-0.1,0.9-0.1,1.3-0.1c1.6,0,3.2,0.4,4.8,1.2c1.1,0.5,2.4,0.6,3.8,0.6c0.9,0,1.7,0,2.6,0c0.1,0,0.1,0,0.2,0
		c2.2,0,3.9,0.3,5.7,2.1c2.6,2.7,5.5,5.2,8.9,6.9c2.9,1.5,2.2,4.7,2.7,7.3c0.6,3.6-1.1,6.8-2,10.1c-0.5,1.8-0.2,4,1.6,5.3
		c2,1.5,2.9,4.3,5.7,5c0.7,0.2,0.6,1.2,0.9,1.8c0.7,1.5,0.8,3.3,2.7,4.2c1.3,0.6,0.7,3-0.8,3.6c-2.3,0.9-4.6,1.9-6.9,2.7
		c-3.8,1.3-7,4.4-11.3,4.5c-2.8,0.1-5.5,0.6-8.2,0.6c-2,0-4-0.3-5.9-1.1c-0.6-0.3-1.2-0.4-1.8-0.4c-1.6,0-3.2,0.7-4.7,1.4
		c-1,0.4-1.9,0.6-2.9,0.6c-0.4,0-0.8,0-1.3-0.1c-0.9-0.1-1.7-0.1-2.6-0.1c-2.8,0-5.5,0.5-8.3,2c-3.1,1.6-6.9,2.5-10.5,3.2
		c-4.8,0.9-9.6,1.7-14.2,3.2c-0.4,0.1-0.8,0.2-1.2,0.2c-0.7,0-1.2-0.2-1.9-0.6c-1-0.6-1.9-0.9-2.9-0.9c-1,0-1.9,0.3-3.1,1
		c-3.1,1.8-7,1.6-10.5,1.8c-4.1,0.3-8.2,0.9-12.1,1.9c-2,0.5-4,0.7-6,0.7c-1.7,0-3.4-0.2-5-0.5c-3.4-0.6-6.7-0.9-10.1-0.9
		c-2.6,0-5.3,0.2-7.9,0.4c-0.4,0-0.8,0-1.2,0c-0.2,0-0.3,0-0.5,0c-0.5,0-0.9,0-1.4,0.1c-1.1,0.1-2.6,0-3.2,0.6
		c-1.2,1.3-2.4,1.8-3.6,1.8c-1.9,0-3.8-1.1-5.7-1.5c-1.2-0.2-2.4-0.6-3.6-0.6c-0.3,0-0.7,0-1,0.1c-1.1,0.3-2.1,0.4-3.2,0.4
		c-1.6,0-3.1-0.3-4.7-0.8c-1.1-0.4-2.3-0.5-3.4-0.5c-2.9,0-5.7,1-8.4,1.7c-1,0.3-1.9,0.4-2.8,0.4c-2.2,0-4.1-0.8-6-2.4
		c-2.5-2.1-5.4-2.5-8.3-2.5c-1,0-2,0-2.9,0.1c-2.2,0.1-4.4,0.2-6.6,0.2c-0.8,0-1.7,0-2.5,0c-1.9-0.1-3.2-1.5-4.4-2.9
		c-1.2-1.5-2.7-2.5-4.6-2.9c-3.1-0.7-6.2-1.7-9.4-2.6c-0.5-0.1-1.2,0-1.3-0.6c-0.5-2.4-2.9-4.7-0.9-7.4c0.9-1.2,0.7-2.5,0-3.8
		c-0.5-0.9-0.9-1.9-1.3-2.8c-1.3-2.5-2.2-4.9,0-7.6c1.1-1.4,1.5-3.7,1.6-5.6c0.3-4.2,2.4-7.4,4.9-10.4c1.1-1.3,2.1-2.5,2.7-4
		c0.7-1.7,1.8-2.5,3.3-2.5c0.3,0,0.7,0,1.1,0.1c0.9,0.2,1.8,0.3,2.7,0.3c2.3,0,4.5-0.6,6.7-1.9c1.6-0.9,3.5-1.3,5.2-2
		c1.6-0.7,1.6-1.6,0.9-2.8c-0.4-0.7-0.7-1.6-1.4-2.2c-4.9-4.4-5.7-10.8-7.9-16.4c-3.1-7.7-1.4-15.7-1.2-23.6
		c0.1-2.4,1.9-4.4,3.4-6.2c3.1-3.7,5.5-8,9.1-11.3c1.2-1.1,2.6-1.8,3.9-2.7c2.9-2.1,6.3-1.6,9.3-2.8c0.4-0.2,1,0,1.1-0.4
		c1.1-3.6,4.4-6,5.4-9.7c0.1-0.4,0.3-0.8,0.4-1.2c1-7.9,6.9-12.9,11.1-18.9c0.5-0.7,1.2-1.3,1.6-2c1.2-2.2,2.9-3.8,5.2-4.8
		c1.2-0.6,2.2-1.2,2.7-2.6c0.4-1,1.2-1.8,2.3-2.3c1.2-0.5,2-1.6,2.4-2.9c0.7-2.2,2.4-3.4,4.4-3.9c6.5-1.6,10.2-5.7,12.1-12
		c1.9-6.5,5.2-12.2,9.7-17.2c1.4-1.6,3.2-2.6,4.7-3.9c3.7-3.2,6.1-7,6.8-12.1c0.9-6.3,5-11.1,9.2-15.7c2.6-2.8,6-4.9,8.1-8.2
		c2.6-4,3.5-8,0.9-12.4c-0.3-0.5-0.5-1-0.1-1.4c0.2-0.2,0.3-0.3,0.5-0.3c0.3,0,0.6,0.3,0.8,0.5c2.2,2,4.1,4.3,4.2,7.3
		c0.1,1.9,0.7,3.3,1.9,4.6c1.6-3.2,1.1-6.7,1.6-10c0.8-5,3.1-8.9,7.1-11.8c1.8-1.3,3.6-2.6,4.9-4.5c0.3-0.4,0.6-0.8,1-0.8
		c0.1,0,0.3,0,0.4,0.2c0.5,0.4,0.3,1.1,0.1,1.7c-0.5,1.2-0.9,2.5-1.7,3.4c-4.7,5-3.3,11-3.1,17.3c3.2-3.3,6.2-6,10-7.6
		c1.4-0.6,0.3-1.6,0-2.4C282.3,35,283.9,31.2,285.9,26.8 M304.2,61.4c1-1.6,1.3-3.5,1.3-6.1C303.9,57.5,303.9,59.4,304.2,61.4
		 M259.8,63c1.1-2.1,1.9-3.8,2.7-5.5c0.2-0.4,0.4-1.1-0.3-1.3c-0.2-0.1-0.5-0.1-0.7-0.1c-0.4,0-0.8,0.1-0.9,0.5
		C260.5,58.6,258.4,60.2,259.8,63 M253.8,70.7c1.3-1.6,2.5-2.9,3.6-4.3c0.3-0.4,0.9-1,0.1-1.5c-0.3-0.2-0.6-0.3-0.8-0.3
		c-0.3,0-0.6,0.2-0.9,0.6C254.6,66.7,253.5,68.2,253.8,70.7 M285.9,11.8c-1.3,0-2.7,0.2-3.9,0.5c-1.3-0.3-2.6-0.5-4-0.5
		c-2.5,0-8.7,0.7-13.2,7.1c-0.3,0.3-0.9,0.7-1.3,1l-0.3,0.2c-2.6,1.9-4.8,4.1-6.6,6.5c0,0-0.1,0-0.1,0c-4.7,0-9.1,2.1-12.1,5.8
		c-3.6,4.5-4.5,10.4-2.5,15.8c-0.4,0.4-1,0.9-1.4,1.3c-1.3,1.1-2.9,2.5-4.4,4.2c-4.2,4.6-11.3,12.3-13,23.6c-0.1,1-0.3,1.7-1.8,3
		c-0.2,0.2-0.6,0.5-1,0.8c-1.4,1-3.2,2.4-5.1,4.5c-6.1,6.8-10.4,14.5-12.9,23c-0.2,0.8-0.5,1.3-0.6,1.4c-0.1,0-0.3,0.2-0.8,0.3
		c-5.9,1.5-10.7,5.2-13.5,10.2c-1.5,1.2-2.8,2.5-3.8,4c-3.5,2.2-6.4,5.1-8.6,8.6c-0.3,0.4-0.8,1-1.3,1.7c-0.8,1.1-1.8,2.4-2.9,3.7
		c-3.9,4.7-9,11.1-10.7,20.4c-0.2,0.3-0.4,0.6-0.6,0.9c-0.1,0.2-0.2,0.3-0.3,0.5c-2.6,0.6-6,1.6-9.3,4c-0.2,0.1-0.4,0.2-0.6,0.4
		c-1.2,0.7-3,1.8-4.8,3.5c-3.4,3.2-5.8,6.5-7.9,9.4c-0.9,1.2-1.7,2.4-2.5,3.4c-0.1,0.2-0.3,0.3-0.4,0.5c-2,2.4-6.2,7.4-6.4,14.8
		c0,1.5-0.2,3.2-0.3,5c-0.5,6.9-1.1,15.5,2.6,24.6c0.4,1,0.8,2.2,1.2,3.6c0.1,0.4,0.3,0.9,0.4,1.3c-5.2,1.4-9.4,5.1-11.9,10.4
		c-0.1,0.1-0.3,0.4-0.6,0.8c-3.3,3.9-7.6,9.9-8.4,18.5c-2.9,4.7-4.7,11.4-0.8,20.1c-0.4,1.9-0.5,3.9-0.2,5.8
		c0.4,3.2,1.5,5.6,2.1,6.9c0,0,0,0,0,0.1c1.3,4.6,5.2,9.9,12.5,11.2c0.9,0.2,1.7,0.5,2.6,0.7c1.4,0.4,2.9,0.9,4.5,1.3
		c2.4,2.5,7,6.5,14,6.8c1,0,2,0.1,3.1,0.1c2.6,0,5.1-0.1,7.3-0.2c0.8,0,1.6-0.1,2.2-0.1c4.3,3.3,9.2,4.9,14.3,4.9
		c2.3,0,4.6-0.3,6.9-1c0.4-0.1,0.9-0.3,1.3-0.4c0.8-0.2,2-0.6,2.7-0.7c2.8,0.8,5.6,1.2,8.5,1.2c1.3,0,2.7-0.1,4-0.3
		c0.1,0,0.3,0.1,0.4,0.1c0.2,0.1,0.3,0.1,0.5,0.2c1.8,0.6,4.8,1.7,8.5,1.7c3.4,0,6.6-0.9,9.5-2.5c0.5,0,1.1,0,1.8-0.1
		c2.5-0.2,4.6-0.3,6.5-0.3c2.7,0,5,0.2,7.2,0.6c2.6,0.5,5.2,0.7,7.8,0.7c3.2,0,6.4-0.4,9.5-1.1c3.2-0.8,6.5-1.3,9.7-1.5
		c0.5,0,1.1-0.1,1.7-0.1c2.8-0.1,6.8-0.3,11-1.8c1.5,0.4,3,0.6,4.6,0.6c1.9,0,3.8-0.3,5.7-0.9c3.3-1.1,7.1-1.8,11.1-2.5l1.3-0.2
		c4.4-0.8,9.6-2,14.6-4.6c0.4-0.2,0.7-0.3,1.4-0.3c0.3,0,0.7,0,1,0.1c1,0.1,1.9,0.2,2.8,0.2c2.7,0,5.3-0.4,7.7-1.4
		c2.4,0.6,4.9,0.9,7.6,0.9c2.2,0,4.2-0.2,5.9-0.4c1-0.1,2-0.2,2.7-0.2c6.4-0.2,11-2.7,14.1-4.4c0.6-0.3,1.5-0.8,1.8-0.9
		c2.3-0.8,4.5-1.7,6.4-2.5c0.4-0.2,0.9-0.4,1.3-0.5c6.3-2.6,10.5-8.7,10.8-15.6c0.2-4.5-1.5-8.8-4.5-11.9c-1.3-3.9-3.6-6.3-5.8-7.9
		c0.8-3,1.3-6.6,0.6-10.8c0-0.2,0-0.3,0-0.5c-0.1-1.5-0.3-4.1-1.3-7c-1.7-4.7-4.9-8.4-9.3-10.7c-1.5-0.8-3.1-2.1-5-4
		c-1-1.1-2.1-2-3.2-2.8c1.5-1.7,2.9-3.5,4.2-5.6l0.2-0.3c2.7-4.4,7.3-11.7,5.8-21.6c0-0.4,0.1-1.2,0.2-1.8l0-0.1
		c0.7-5.5-0.1-10.7-2.4-15.3c-2.1-4.2-4.8-7.2-6.8-9.5c-0.4-0.5-0.9-1-1.2-1.4c-1.2-2-4.3-7.1-11-9c-1.8-0.5-3.9-1.4-6.1-2.3
		c-0.8-0.4-1.7-0.7-2.5-1c-2.3-0.9-4.7-1.6-7.1-2.1c0.1-0.5,0.2-0.9,0.2-1.4l0-0.1c0.2-1.1,0.4-2.2,0.5-3.3c3.9-2.1,7.2-6.1,8-11.7
		c0.1-0.4,0.2-0.9,0.3-1.3c0.3-1.7,0.8-3.9,0.9-6.4c0.3-5.8,0.5-12,0.5-18.4c0-2.3,0.4-4.3,1.5-6.6c2.1-4.8,4.7-11.8,3.5-20.1
		c1.7-3.7,2.7-7.7,2.9-11.9c2.6-1.8,4.7-4.5,5.7-7.7c0.6-1.7,0.9-3.3,1.1-4.8c1.5-1.5,2.6-3.4,3.4-5.5c2.4-6.5,0.9-15.2-8-20
		c-1.1-0.6-2.2-1.1-3.4-1.6c-0.2-2.3-0.5-4.3-0.8-5.9c-1.2-7.2-7-12.7-14.4-13.9c-0.8-0.1-1.5-0.2-2.3-0.2c-1.3,0-2.5,0.2-3.7,0.5
		c-1.7-1-3.7-1.8-5.8-2.1c-0.8-0.1-1.6-0.2-2.4-0.2c-2.8,0-5.7,0.8-8.3,2.3c-2.3-1.6-5.1-2.5-8-2.5C286.1,11.8,286,11.8,285.9,11.8
		L285.9,11.8z"/>
</g>
</svg>
