<?xml version="1.0" encoding="utf-8"?>
<!-- Generator: Adobe Illustrator 24.1.0, SVG Export Plug-In . SVG Version: 6.00 Build 0)  -->
<svg version="1.1" id="Livello_1" xmlns="http://www.w3.org/2000/svg" xmlns:xlink="http://www.w3.org/1999/xlink" x="0px" y="0px"
	 viewBox="0 0 474 487.4" style="enable-background:new 0 0 474 487.4;" width="50" height="50" xml:space="preserve">
<style type="text/css">

		.Stile_x0020_grafica{fill:#FEFEFE;stroke:#000000;stroke-width:15;stroke-linecap:round;stroke-linejoin:round;stroke-miterlimit:10;}
	.st0{fill:#FEFEFE;}
</style>
<g>
	<path class="st0" d="M85.8,461.4c-2.9,0-5.5-1.1-7.5-3c-1.5-1.5-3.2-4.2-3.1-8.8c0-1.6,0.2-3.2,0.3-4.7c0.2-1.7,0.3-3.4,0.2-4.5
		c-0.6-5,0.8-9.3,1.9-12.7c0.5-1.5,1-3,1.1-4.1c-1.6,0.7-3.3,1.3-5.1,1.8c-0.3,0.3-0.6,0.8-0.9,1.1c-1.3,1.8-3.4,4.4-6.8,6
		c-0.2,0.1-0.7,0.4-1.1,0.6c-1.4,0.8-3.2,2-5.8,2.6c-1.1,0.3-1.8,0.7-2,0.9c-6.4,9.4-14.5,11.4-20.1,11.4c-2.8,0-5.7-0.5-8.7-1.4
		c-0.1,0-0.1,0-0.2,0c-1.1-0.2-3.3-0.6-5.2-2.3c-0.1-0.1-0.2-0.1-0.2-0.2c-1.2-0.9-4.7-3.7-4.5-8.9c0.2-5,3.8-8.6,8.5-8.6
		c0.4,0,0.8,0,1.2,0.1c1.8-0.7,3.6-2,5.7-3.5c1.1-0.8,2.2-1.6,3.4-2.4c0.5-1.7,1.6-4,4.3-5.8c2.1-1.4,4.2-2.4,6.1-3.2
		c2.2-1,4.2-1.9,5-3c3-4.4,7.2-6.9,10.5-8.9c2.1-1.3,4.1-2.5,5.2-3.8c0.4-0.5,0.9-1,1.3-1.4c3.2-3.5,3.5-4.3,3.2-5.5
		c-1-2.9-0.4-5.8,1.6-8.6l0.1-0.1c2.6-3.9,2.2-9,1.8-14.9l0-0.4c-0.2-3.1-0.5-6.2-0.8-9.2c-0.5-5.7-1.1-11.5-1.2-17.4
		c-0.2-7.8-1.9-15.7-3.8-23.9c-0.4-1.8-0.8-3.5-1.2-5.3c-0.6-2.9-1.4-5.7-2.2-8.7c-2.2-8.1-4.5-16.4-3.8-25.9
		c0.1-1.2-1.2-2.6-4.3-5.5l-0.3-0.2c-4.2-3.8-6.4-8.1-6.5-12.8c-0.1-4.8,1.9-9.3,6.1-13.6c0.4-0.4,1.3-1.3,1.6-1.8
		c0-0.1,0-0.4-0.1-0.7c-1.4-5.6,0.1-11.7,4-16.8c4.2-5.4,10.4-8.6,16.6-8.6c0.3,0,0.6,0,1,0c0.1,0,0.2,0,0.3,0
		c1.9,0,2.9-0.9,5.9-4.4c0.7-0.8,1.5-1.7,2.3-2.6c10.3-10.9,18.4-21.5,24.7-32.4c4.1-7.1,9.7-16.1,17.7-23.9
		c-0.4-5.4,1.4-10.5,5.6-15.6c2.2-2.7,3.7-6.4,5.3-10.5c0.4-1.1,0.8-2.5,1.1-4c0.9-4.2,2.2-10,7.5-14.5c0.2-0.3,0.4-1,0.6-1.5
		c1.1-2.7,3.1-7.8,9-10.1c0.3-0.1,0.6-0.3,0.9-0.4c1.6-0.8,3.3-1.5,5.3-1.6c0.2-0.4,0.4-0.9,0.7-1.4c4.6-7.9,11.4-13,19.6-14.8
		c8.9-1.9,15.4-5,20.5-9.6c1.3-1.2,2.7-1.8,3.9-2.2c0.4-3.5,2.4-8.1,10-9.6c6.3-1.3,10.4-3.3,13.2-6.5c2.3-3.7,5.4-4.5,7.7-4.5
		c0.5,0,1,0,1.5,0.1c0.2,0,0.3,0,0.5,0c1.3,0,3-0.7,4.9-1.4l0.5-0.2c2.8-1.1,4.2-1.1,4.7-1.1c2.8,0,5.4,1.5,6.7,4
		c0.4,0.4,1.9,0.8,2.8,1.1c1.7,0.5,3.7,1.1,5.8,2.2c0.9,0.5,1.9,1,2.9,1.5c2.5,1.2,5.4,2.6,8.2,4.9c4.7,3.9,7.6,8.5,8.8,13.9
		c0.1,0.4,0.1,0.6,1.3,1.2c3.6,1.7,6.7,4,9.4,6c2.5,1.8,4.8,3.5,7.2,4.6c6.6,2.9,11.2,7.4,14,13.7c1.3,0.2,2.8,0.4,4.4,1
		c1.8,0.7,3.5,1.5,5,2.5c-1.9-3.3-4.5-6.2-7.5-9.4c-0.9-1-1.7-1.9-2.6-2.9c-2.3-2.6-4.5-5.2-6.6-7.7c-3.8-4.5-7.3-8.7-11.2-12.7
		c-3.8-3.9-4.1-7.5-3.6-9.8c1-5,5.5-6.9,7.2-7.6l0.2-0.1c5.9-2.5,10.3-7.4,15-13c3.9-4.6,7.9-5.2,11.7-5.2c0.3,0,1.5,0,1.5,0
		c1.1,0,2.2,0,3.3,0c4.9,0,8.8-0.4,12.2-2.3l0.2-0.1c1.3-0.7,3.7-2.1,6.8-2.1c2.6,0,6.3,0.9,9.6,5.2c0.9,1,5.2,2.2,7.3,2.8l0.2,0.1
		c1.8,0.5,3.4,1.2,4.7,1.8c1.2,0.5,2.6,1.2,3.2,1.2c0.1,0,0.1,0,0.2,0c0.7-0.2,1.5-0.3,2.2-0.3c4,0,7.4,2.5,8.7,6.3
		c2.5,7.7,8.8,12.6,16.1,18.3l0.1,0.1l0.1,0c3.8,2.5,4.6,5.8,4.5,8.1c-0.1,5.5,2.1,10.5,4.7,16.4c1.1,2.5,2.2,5,3.2,7.7
		c0.4,0.3,0.9,0.5,1.4,0.9c1.6,1.2,2.7,3,3,5c0.3,2-0.3,4-1.6,5.6c-0.9,1.1-0.8,2.3-0.3,6.1c0.2,1.7,0.5,3.5,0.5,5.5
		c1.5,1.2,2.5,2.9,2.8,4.8c0,0.1,0,0.2,0,0.3c0.8,1.2,1.2,2.7,1.2,4.2c0,2.4-1.2,4.7-3.2,6c1,2.5,1,5.1-0.1,7.4
		c-1.8,3.6-5.1,4.7-7.5,5.1c-1.1,1.6-2.9,2.8-5,3.1c-0.4,0.1-0.8,0.1-1.1,0.1c-3.5,0-6.7-2.5-7.4-6.1c0,0,0-0.1,0-0.1
		c-0.4-0.1-0.8-0.3-1.2-0.4c-0.8-0.3-1.6-0.5-2.5-0.9c-2.9-1.2-5.9-2.5-8.8-3.6c-5.5-2.2-11.1-4.5-16.7-7.2
		c-0.4-0.1-1.7-0.2-2.6-0.2c-2-0.1-4.5-0.1-7.2-1c0,0.1,0,0.1,0,0.2c4.1,5,4.2,10.7,4.4,14.6c0,1,0.1,1.9,0.1,2.6
		c0.3,3.1,1.2,6.3,2.2,9.6c1,3.4,2,7,2.5,10.9c0.2,1.8,1.4,3.8,2.7,6.2c1.8,3.2,4.1,7.3,4.6,12.4c0,0.2,0.1,0.4,0.1,0.6
		c0.3,1.5,0.9,4.2-0.2,6.9c0.4,0.4,0.7,0.7,1.1,1.1c5.9,6.2,8.8,13.6,8.3,21.4c-0.2,3.1,1.3,5.5,4.6,9.4c2.1,2.6,3.5,5.3,4.7,7.7
		c0.3,0.6,0.6,1.2,0.9,1.8c4.9,9.1,0,16.5-2.7,20.4c-0.2,0.3-0.4,0.6-0.6,0.9c4.9,6.3,9.8,12.8,13.4,20.7c4.1,9.1,3.8,22.5-3.2,31.7
		c13.4,2,21.5,9.8,24.7,23.9c1.1,4.6,4.3,7.8,8.4,11.7l0.3,0.3c6.7,6.4,8.9,14.8,10.7,21.5c2.2,8.3,2.1,17.1-0.4,26.4
		c-3.2,12-9.3,21.3-18.2,27.7c-10.7,7.7-23.1,13.8-40.1,19.7c-10.9,3.8-22.5,5.6-35.5,5.6c-5,0-10-0.3-15.5-0.8l-0.3,0
		c-3.5-0.3-6.8-0.7-10-0.7c-2.7,0-5,0.2-7.3,0.7c-2.5,0.5-5.1,0.8-7.7,0.8c-5,0-10.1-1-15-2.9c-1.6-0.6-3.3-0.9-5.6-0.9
		c-2.2,0-4.6,0.3-6.9,0.5c-1.3,0.1-2.5,0.3-3.8,0.5c-4.2,0.5-8.6,1.1-13.1,1.1c-3.6,0-6.8-0.4-9.9-1.1c0,0,0,0,0,0
		c-4,1.7-8.3,2.5-12.6,2.5c-7.4,0-14.2-2.3-21-4.9c-0.6-0.2-0.8-0.2-1-0.3c-1.2-0.1-2.5-0.1-3.8-0.1c-6,0-12,0.7-18.4,1.4
		c-5,0.6-10.2,1.2-15.4,1.4c-1.5,0.1-3.1,0.2-4.6,0.2c-3.8,0.2-7.8,0.4-11.8,0.4c-3.3,0-7-0.1-11-0.7c0.9,2.5,0.3,4.8-0.2,6
		c-1.7,4.4-6.1,7.1-11.9,7.3c-0.2,0-0.3,0-0.5,0c-11.7,0-18.1-8.7-21.2-12.9c-2.1-2.8-3.4-4.6-5.5-5.6l-0.3-0.1
		c-1.7-0.8-4.8-2.4-6.8-5.7c-2.1-0.4-4.7-0.8-7.4-1.9c-0.2,1-0.3,2.1-0.4,3.2c-0.1,0.6-0.1,1.1-0.2,1.7c-0.6,4.7-1.8,8.9-3,13.1
		c-0.4,1.4-0.8,2.8-1.2,4.2c-2,7.4-7.3,10.1-11.7,10.1c-1.3,0-2.5-0.2-3.8-0.6c-0.1,0-0.2,0.1-0.4,0.1
		C89.2,461.1,87.4,461.4,85.8,461.4z"/>
	<path d="M358.5,33.5c1.1,0,2.3,0.5,3.6,2.2c2.3,3,7.4,4.4,11.5,5.5c3.3,0.9,6.4,3.3,10,3.3c0.6,0,1.3-0.1,2-0.2
		c0.1,0,0.3-0.1,0.4-0.1c0.5,0,1.2,0.2,1.5,1.1c3.2,9.9,11.1,16,18.8,22.1c0.8,0.6,1.6,0.8,1.6,2c-0.3,10.5,5.8,19.1,8.9,28.6
		c0.4,1.1,2.2,1.8,3.3,2.6c-5.2,6.6,0.4,14-2.1,20.5c-0.5,1.2,2,1.2,3.5,1.6c-1.5,0.9-2.7,1.5-3.8,2.2c0.3,1.2,0.8,1.5,1.4,1.5
		c0.7,0,1.7-0.4,2.6-0.4c0.3,0,0.6,0,1,0.2c-5.2,1.9-5.4,4.6-2.8,8.5c1.4,2.2-0.9,2.7-2.9,2.9c-0.1,0-0.1,0-0.2,0
		c-0.6,0-1.3-0.2-2-0.2c-1,0-1.8,0.4-1.6,2.3c-0.9-4.6-5-4.9-8-6.1c-8.4-3.6-16.9-6.7-25.2-10.7c-3.7-1.8-8.4,0-12.3-2.3
		c-1.5-0.8-3.5-2.4-5.1-2.4c-0.6,0-1.1,0.2-1.5,0.7c-1.6,1.9-1.5,5.5-1.6,8.4c-0.1,1.9,0.1,4.4,1.2,5.6c3.8,4.1,2.9,9.4,3.3,13.9
		c0.8,7.2,3.8,13.7,4.7,20.7c0.9,6.8,6.6,11.4,7.2,18.2c0.1,1.5,0.9,3.4,0.3,4.3c-2.9,4.3,0.4,6.2,2.8,8.8c4.2,4.4,6.6,9.7,6.3,15.8
		c-0.4,6.1,2.8,10.4,6.3,14.7c2.1,2.5,3.3,5.4,4.8,8.2c3.3,6.2-1.1,10.5-3.8,15c-1.6,2.7-1.4,4.1,0.4,6.4
		c4.9,6.3,9.8,12.7,13.2,20.1c3.6,7.9,2.4,20.3-4.6,26.5c-1.9,1.7-2.1,3.5-1.3,5.4c0.8,1.8,1.5,3.6,4.5,3.7
		c12.6,0.5,19.6,6.1,22.5,18.5c1.6,7,6.2,11.3,10.8,15.8c5.1,4.9,6.9,11.6,8.6,18c2,7.4,1.7,14.9-0.4,22.5
		c-2.6,9.7-7.4,17.8-15.4,23.6c-11.6,8.4-24.6,14-38.2,18.7c-10.9,3.8-22,5.2-33.1,5.2c-4.9,0-9.9-0.3-14.8-0.8
		c-3.8-0.4-7.4-0.7-11-0.7c-2.9,0-5.8,0.2-8.9,0.9c-2,0.4-4.1,0.6-6.2,0.6c-4.1,0-8.3-0.8-12.2-2.4c-2.7-1.1-5.5-1.4-8.3-1.4
		c-2.6,0-5.3,0.3-7.8,0.6c-5.4,0.6-10.7,1.5-16,1.5c-2.7,0-5.5-0.2-8.2-0.9c-0.6-0.1-1.2-0.2-1.8-0.2c-1,0-1.9,0.2-2.7,0.5
		c-3.4,1.4-6.6,2-9.8,2c-6.3,0-12.3-2.1-18.3-4.4c-1.1-0.4-2.1-0.7-3.2-0.7c-1.4-0.1-2.8-0.1-4.2-0.1c-11.4,0-22.7,2.3-34.1,2.8
		c-5.3,0.2-10.7,0.7-16,0.7c-7.8,0-15.5-0.9-22.8-4.5c-3.8-1.8-7.5-3.9-11.1-7.2c1.5,8.5,8.1,12.7,12.8,18.1c1.1,1.2,3.7,1.8,3,3.7
		c-0.7,1.7-2.9,2.4-5,2.4c-0.1,0-0.2,0-0.4,0c-7.1,0-11.4-4.8-15.1-9.8c-2.3-3.2-4.5-6-8.2-7.9c-1.7-0.8-3.7-1.8-4.5-4.1
		c-0.5-1.5-2.2-2-4-2.3c-4.8-0.8-9.6-1.8-13.1-6c-3.2,4.8-3.6,10.2-4.3,15.3c-0.7,5.6-2.6,10.9-4.1,16.3c-0.7,2.7-2.2,4.5-4.4,4.5
		c-0.8,0-1.7-0.2-2.7-0.7c-0.5-0.2-0.9-0.3-1.3-0.3c-1.1,0-1.9,0.7-2.8,1.1c-1,0.4-1.8,0.6-2.6,0.6c-2,0-3.1-1.4-3.1-4.2
		c0.1-3.4,0.8-7.2,0.5-10.2c-0.8-6.5,3.6-11.8,3.1-17.5c-0.4-4.7,0.4-8.4,2.5-12.2c-0.8-0.4-1.5-0.5-2.2-0.5c-1.3,0-2.3,0.7-3.3,1.8
		c-3.2,3.9-7.3,6-12.2,7.3c-3.6,1-4.6,5.7-8.3,7.4c-1.8,0.8-3.2,2.2-5.5,2.8c-2.3,0.5-4.9,1.7-6.5,4c-3.7,5.4-8.3,8.1-13.9,8.1
		c-2.1,0-4.2-0.4-6.5-1.1c-0.9-0.3-2.1-0.3-2.7-0.8c-0.9-0.8-2.2-1.5-2.1-3.1c0-1.1,0.5-1.4,1.1-1.4c0.6,0,1.2,0.3,1.6,0.3
		c0,0,0.1,0,0.1,0c5.6-1.4,9.4-5.5,14.2-8.2c2.1-1.2,0.6-3.4,2.9-5c4.3-2.9,9.9-3.7,13-8.2c3.9-5.6,11-7.3,15.2-12.1
		c3.2-3.7,8-7.8,5.9-14.2c-0.3-0.9,0.4-1.5,0.8-2.2c4.1-6.2,3.5-13.2,3-20c-0.6-8.8-1.8-17.5-2-26.3c-0.3-10.4-3-20.5-5.1-30.6
		c-2.3-10.7-6.8-21-5.8-32.4c0.4-5.2-3.4-8.6-7-11.9c-5.4-5-5.4-10.2-0.1-15.5c2.7-2.7,4.6-4.8,3.4-9.6c-1.9-7.5,5.6-16,13.3-16
		c0.2,0,0.4,0,0.6,0c0.2,0,0.5,0,0.7,0c6.9,0,9.9-5.3,13.6-9.3c9.8-10.3,18.7-21.5,25.8-33.9c5-8.7,10.5-16.8,17.9-23.6
		c1-0.9,1.2-1.7,1-3.2c-0.8-4.4,0.9-8.1,3.8-11.6c3-3.7,4.7-8.1,6.5-12.6c2-5.2,1.5-11.4,6.6-15.7c3.1-2.5,2.4-8.3,7.3-10.2
		c1.2-0.5,3-1.5,3.7-1.5c0.1,0,0.1,0,0.2,0c0.8,0.3,1.5,0.4,2.1,0.4c3,0,3.3-3.2,4.7-5.5c3.3-5.7,8.3-9.8,14.7-11.2
		c8.9-2,17.1-5.2,23.9-11.3c1-0.9,2.1-0.7,3.2-1.1c2-0.8,3.8-1.4,3.2-4.3c-0.6-3,0.7-4,4-4.7c6.6-1.3,13.1-3.7,17.7-9.2
		c0.6-0.7,0.7-1.6,1.7-1.6c0.1,0,0.2,0,0.3,0c0.6,0.1,1.2,0.1,1.7,0.1c2.9,0,5.5-1.1,8.1-2.1c0.6-0.2,1.6-0.6,2-0.6
		c0.1,0,0.1,0,0.1,0c2.5,4.6,7.7,4.2,11.6,6.3c3.3,1.9,6.8,3,10,5.6c3.4,2.8,5.4,5.8,6.3,9.8c0.7,3.2,2.7,5.1,5.5,6.3
		c6,2.8,10.7,8,16.8,10.6c5.5,2.4,8.9,6,10.9,11.8c1,3,5.2,2,7.8,3c6.9,2.7,10.8,7.8,13.5,14.2c1,2.4,1.6,3.4,2.7,3.4
		c0.8,0,1.9-0.6,3.5-1.6c1.8-1.1,3.7-2.3,5.9-3c3-0.9,3.9-2.4,1.5-5.1c-3.9-4.3-8.9-8.1-11.2-13.1c-3-6.7-7.9-11.4-12.5-16.6
		c-6.1-6.9-11.6-14.2-18-20.7c-3.5-3.5-0.6-4.6,1.4-5.4c7.5-3.2,12.8-9.1,17.8-15c1.9-2.2,3.3-2.6,5.9-2.6c0.3,0,0.5,0,0.8,0
		c1.3,0,2.7,0,4,0c5.4,0,10.8-0.4,15.9-3.3C356.1,34.2,357.2,33.5,358.5,33.5 M147,189.2c2.5-1.7,5.4-2.3,8.1-2.7
		c2.5-0.3,3.3-1.2,3.7-3.6c0.5-3.2,1.5-6.3,2.4-10C155,177.5,152,184.2,147,189.2 M127.3,211.1c5-0.5,7-2.5,6.9-5.8
		C132.3,206.8,129.7,209,127.3,211.1 M111,271.1c-0.7-5.8,0.4-11.3,1.2-16.7c0.2-1.4,1.1-3.6-0.4-3.8c-0.7-0.1-1.4-0.1-2.2-0.1
		c-1.9,0-4,0.4-5.3,1.3c-1.4,1-1.9,4.4-0.6,6.5C106.2,262.5,108.6,266.8,111,271.1 M104.7,354.9c3.9-7.1,6.4-13.4,8.9-19.8
		c3.5-8.9,3.6-15.9-3.9-21.6c-1.4-1-3.2-2-3.7-4.1c-0.2-0.7-1.4-1.6-2.1-1.6c0,0-0.1,0-0.1,0c-1.2,0.3-1.3,1.7-1.2,2.9
		c0.1,3.2,0.8,6.6,0.8,9.7C103.3,331.6,104.6,342.7,104.7,354.9 M413.3,139.6c0,0.2,0.1,0.5,0.1,0.8
		C413.4,140.1,413.3,139.8,413.3,139.6 M358.5,18.5L358.5,18.5c-5.1,0-8.9,2.1-10.5,3.1l-0.2,0.1c-1.7,1-4.1,1.3-8.6,1.3
		c-1.1,0-2.1,0-3.2,0l-0.6,0c-0.4,0-0.7,0-1.1,0c-5,0-11.5,0.9-17.4,7.9c-4.1,4.8-7.8,9-12.2,10.9l-0.2,0.1
		C298,44.6,294.1,49,293,54.9c-0.1,0.6-0.2,1.2-0.3,2c-1.7-2.4-3.8-4.6-6.3-6.6c-3.5-2.9-7-4.6-9.8-5.9c-1-0.5-1.8-0.9-2.5-1.2
		c-2.8-1.6-5.4-2.3-7.3-2.9c0,0-0.1,0-0.1,0c-2.8-3.3-7-5.3-11.6-5.3c-0.8,0-3.4,0-7.4,1.6l-0.5,0.2c-0.7,0.3-1.7,0.7-2.3,0.9
		c-0.6-0.1-1.3-0.1-1.9-0.1c-2.6,0-9.1,0.7-13.6,7.4c-1.2,1.2-3.4,2.6-8.7,3.7c-3.2,0.6-7.8,1.9-11.5,6c-1.1,1.2-2.5,3.1-3.5,5.7
		c-0.8,0.5-1.6,1.1-2.4,1.8c-4.1,3.7-9.6,6.2-17.1,7.9c-9.6,2.1-17.9,8.1-23.5,16.8c-1.5,0.5-2.7,1-3.7,1.5
		c-0.2,0.1-0.4,0.2-0.6,0.3c-8.8,3.5-11.8,10.9-13.1,14.2c-6,5.9-7.6,13-8.5,17.3c-0.2,1.1-0.5,2.3-0.7,2.8l0,0.1
		c-1.4,3.6-2.6,6.7-4.1,8.5c-4.5,5.5-6.9,11.3-7.3,17.3c-7.4,7.8-12.8,16.3-16.7,23.2c-6,10.4-13.7,20.5-23.6,31c-1,1-1.8,2-2.6,2.9
		c-0.5,0.5-1.1,1.2-1.5,1.7c-8.5,0-16.9,4.3-22.4,11.4c-4.6,5.9-6.7,12.9-6,19.8c-6.2,6.8-7.4,13.4-7.2,17.9
		c0.1,4.6,1.8,11.6,8.9,18.1l0.3,0.2c0.5,0.5,1.2,1.1,1.8,1.6c-0.4,9.8,2,18.5,4.1,26.2c0.8,2.9,1.6,5.6,2.1,8.3
		c0.4,1.8,0.8,3.6,1.2,5.4c1.8,7.9,3.4,15.4,3.6,22.5c0.2,6.2,0.7,12.2,1.3,18c0.3,3.1,0.6,6.1,0.8,9.1l0,0.4
		c0.3,4.3,0.6,8.3-0.5,10.2c-3.3,4.6-3.8,9-3.3,12.4c-0.3,0.3-0.6,0.7-0.9,1c-0.5,0.5-1,1-1.4,1.6c-0.5,0.5-2.3,1.6-3.5,2.3
		c-3.6,2.2-8.5,5.2-12.3,10.4c-0.6,0.3-1.6,0.8-2.3,1.1c-2.1,0.9-4.6,2.1-7.2,3.8c-2.7,1.8-4.7,4.2-6.1,7c-0.6,0.4-1.2,0.8-1.8,1.2
		c-1,0.7-2.1,1.5-2.9,2c-8.6,0.2-15.3,6.9-15.6,15.8c-0.2,4.1,1,10.1,7.3,15.1l0.1,0.1c3.3,2.8,6.8,3.6,8.5,3.9
		c3.6,1.1,7.1,1.6,10.5,1.6c9.8,0,18.6-4.6,25-12.9c2.7-0.8,4.8-1.9,6.2-2.8c0,0.4,0.1,0.8,0.1,1.2c0,0.6-0.1,2-0.2,3
		c-0.2,1.6-0.3,3.4-0.4,5.3c-0.1,7.1,2.8,11.6,5.3,14.2c3.3,3.4,7.9,5.3,12.8,5.3c2,0,4-0.3,6-0.9c1.1,0.2,2.3,0.3,3.4,0.3
		c9,0,16.4-6.1,18.9-15.6c0.4-1.3,0.7-2.7,1.2-4.1c0.8-2.7,1.6-5.7,2.3-8.8c2,1.6,3.9,2.5,5,3.1l0.2,0.1c0.6,0.3,2,2.2,2.8,3.3
		c3.2,4.4,11.7,16,27.2,16c0.2,0,0.5,0,0.7,0c8.8-0.2,15.9-4.8,18.7-12.1c0.1-0.1,0.1-0.3,0.2-0.6c1.4,0.1,2.7,0.1,3.9,0.1
		c4.2,0,8.2-0.2,12.2-0.4c1.5-0.1,3-0.2,4.5-0.2c5.5-0.2,10.8-0.9,15.9-1.5c6.1-0.7,11.9-1.4,17.5-1.4c0.9,0,1.7,0,2.6,0.1
		c7.1,2.7,14.7,5.2,23.2,5.2c4.5,0,9-0.7,13.2-2.2c3,0.5,6,0.8,9.3,0.8c5,0,9.6-0.6,14.1-1.2c1.2-0.2,2.5-0.3,3.7-0.5
		c2.1-0.2,4.3-0.5,6.1-0.5c1.3,0,2.2,0.1,2.9,0.4c5.8,2.3,11.7,3.4,17.7,3.4c3.2,0,6.3-0.3,9.3-1c1.8-0.4,3.6-0.6,5.7-0.6
		c2.8,0,5.8,0.3,9.2,0.6l0.3,0c5.7,0.6,11.1,0.8,16.3,0.8c13.8,0,26.3-2,38-6c17.8-6.1,30.7-12.5,42.1-20.7
		c10.4-7.5,17.5-18.2,21.1-31.9c2.8-10.5,2.9-20.7,0.4-30.2c-1.9-7.2-4.5-17-12.7-24.9l-0.3-0.3c-3.8-3.7-5.8-5.7-6.3-8
		c-3.1-13.3-10.3-22.5-21.1-27c3.6-10.1,2.9-21.6-0.9-30c-3.1-6.9-7-12.6-11.1-18c3.1-5.4,6.2-14.2,0.7-24.5
		c-0.3-0.6-0.6-1.1-0.9-1.7c-1.3-2.6-3-5.9-5.7-9.1c-2.2-2.7-2.8-3.7-2.9-4.1l0,0c0,0,0,0,0-0.1c0.6-9.2-2.5-17.9-8.8-25.3
		c0.2-2.7-0.3-4.9-0.5-6.1c0-0.1,0-0.1,0-0.2c-0.7-6.5-3.4-11.4-5.5-15c-0.6-1.1-1.6-2.9-1.8-3.5c-0.6-4.4-1.7-8.4-2.7-11.9
		c-0.9-3.1-1.7-5.9-1.9-8.3c0-0.5-0.1-1.3-0.1-2.1c0-1.2-0.1-2.6-0.2-4.3c4,1.8,8.1,3.4,12,5c3,1.2,5.8,2.4,8.7,3.6
		c0.3,0.1,0.6,0.3,0.9,0.4c2.6,4.7,7.6,7.7,13.1,7.7c0.8,0,1.5-0.1,2.3-0.2c3.1-0.5,5.8-1.8,7.9-3.8c5.7-1.8,8.6-5.4,10.1-8.5
		c1.3-2.7,1.8-5.6,1.6-8.6c1.6-2.4,2.5-5.2,2.5-8.1c0-2.4-0.5-4.7-1.6-6.8c-0.5-2.1-1.4-4-2.6-5.7c-0.1-1.2-0.3-2.4-0.4-3.4
		c-0.1-0.6-0.2-1.3-0.2-1.8c1.8-2.9,2.6-6.4,2.1-9.8c-0.5-3.9-2.5-7.4-5.6-9.8c-0.8-2-1.7-4-2.5-5.9c-2.2-5-4.2-9.4-4-13.2
		c0.1-3.5-0.8-9.9-7.7-14.5c-7.2-5.7-11.8-9.4-13.5-14.6c-2.2-6.8-8.6-11.4-15.8-11.4c-0.6,0-1.3,0-1.9,0.1
		c-0.2-0.1-0.5-0.2-0.7-0.3c-1.5-0.7-3.5-1.6-5.8-2.2l-0.2-0.1c-1.3-0.4-3.3-0.9-4.4-1.3C367.8,19.4,361.7,18.5,358.5,18.5
		L358.5,18.5z M126.1,196.1C126.1,196.1,126.1,196.1,126.1,196.1L126.1,196.1L126.1,196.1z"/>
</g>
</svg>
