<?xml version="1.0" encoding="utf-8"?>
<!-- Generator: Adobe Illustrator 24.1.0, SVG Export Plug-In . SVG Version: 6.00 Build 0)  -->
<svg version="1.1" id="Livello_1" xmlns="http://www.w3.org/2000/svg" xmlns:xlink="http://www.w3.org/1999/xlink" x="0px" y="0px"
	 viewBox="0 0 340.2 488.9" style="enable-background:new 0 0 340.2 488.9;" width="50" height="50" xml:space="preserve">
<style type="text/css">
	.st0{fill:#FEFEFE;}
</style>
<g id="kf9fIo_1_">
	<g>
		<g>
			<path class="st0" d="M243.4,478.7c-2,0-4-0.1-5.9-0.1c-1.9-0.1-3.7-0.1-5.5-0.1h-0.4c-2.6,0-5.2-1.1-7-2.9
				c-0.4-0.4-0.5-0.4-1-0.4s-1.3,0.1-2.2,0.3c-1.1,0.2-2.3,0.4-3.6,0.4c-3.2,0-6.1-0.8-8.6-1.5c-1.1-0.3-2.1-0.6-3-0.8
				c-1.9-0.4-3.9-0.8-5.8-1.2c-4.9-1.1-9.5-2.1-14.2-2.5c-5.6-0.5-10.6-2.5-15-4.3c-2.1-0.9-4.2-1.7-6.1-2.3l-0.3-0.1
				c-1.3-0.4-2.4-0.7-3.2-0.8c-4.6-0.3-8.2-2.4-10.1-5.7c-0.5,0-1.2-0.1-1.7-0.1c-0.6,0-1.2,0-1.8-0.1c-5.3-0.3-10.3-1.3-15.1-2.2
				c-1.4-0.3-2.9-0.6-4.3-0.8c-8.6-1.6-11-7.7-10.3-13c0.4-2.9,2.4-12.5,12.6-12.8c2.9-0.1,5.7-1.5,8.9-3.2
				c-0.4-1.2-0.5-2.4-0.3-3.6c0.3-2,1.2-3.8,2.7-5.1c0-0.3,0-0.7-0.1-1c0-0.5-0.1-1.1-0.1-1.6c-0.1-2.1,0.4-3.9,0.7-5.1
				c0.1-0.2,0.1-0.4,0.2-0.6c-0.1-3.4,2-6.7,5.1-8.1c2.2-1,2.8-2.6,3.9-8c0.3-1.6,0.6-3.2,1.1-4.9c2.5-8.9,1-18.3-0.6-28.3
				c-0.2-1.3-0.4-2.6-0.6-3.8c-1-6.7-2.2-13.2-3.5-19.1c-1.8-8.6-3.6-17.9-3.3-27.7c0.1-2.2,0.3-4.3,0.5-6.3c0.2-2.1,0.5-4,0.5-5.8
				c0-1.5-0.1-3-0.2-4.6c-0.1-1-0.1-2.1-0.2-3.1c-0.4-8.6,0.9-16.7,2.2-24.3c0.4-2.2,0.5-4.8,0.5-7.4c0-1,0.1-2,0.1-3
				c-5.6-7-6-17.9-0.9-25.5c0.1-0.1,0.2-0.2,0.2-0.4v-0.1c-2.5-2.2-3.8-5.6-3.5-9.2c0.5-5.8,1.3-11.9,5-17.4
				c-0.8-1.9-1.4-3.9-1.8-5.9c-0.1,0.1-0.2,0.1-0.3,0.2c-2.8,2.3-6.2,4.1-10.5,5.7c-0.9,0.3-2.4,0.7-4,0.7c-2.8,0-5.4-1.2-7-3.3
				c-1-1.3-2.4-4-1.4-7.9c0.7-2.7,0.5-5.5-0.7-9.5s-1.2-7.9-1.1-11.2c0-0.6,0-1.3,0-1.9c0-6.5,0-13.1,0-20.2
				c0-5.2,0.8-10.1,1.5-14.8c-6.5-4.9-9.4-14.6-9.7-20.7l-0.1-1.9c-0.3-6.2-0.6-12-2.5-17.2c-1.5-4.1-2.8-9.3-1.7-15
				c-6.9-0.5-12.9-5-14.4-11.2l-0.1-0.2c-0.2-0.5-0.4-1.4-0.5-2.5c-0.9,0.1-1.8,0.2-2.7,0.2c-1.6,0-3.3-0.2-5-0.6
				c-3.4,2.7-7.4,4.1-11.8,4.1c-1.9,0-3.9-0.3-6-0.8c-4.2,3-9.1,4.5-14.4,4.5c-2.8,0-5.7-0.4-8.7-1.3c-0.2-0.1-0.4-0.1-0.6-0.1
				c-0.8,0-2,0.3-3.3,0.7c-0.9,0.3-1.9,0.6-2.9,0.8c-2.2,0.5-4.5,1.8-7,3.1c-0.3,0.2-0.6,0.3-0.9,0.5c-2.2,2.6-4.8,3-6.3,3
				c-1.6,0-4-0.5-6.2-2.7c-3.5-3.5-4.1-8-1.6-12.4c3.2-5.7,7.7-10,13.3-12.6c1.2-0.6,2.4-1.2,3.6-1.8c5.9-3,12.6-6.3,20.7-6.3
				c0.5,0,1,0,1.5,0c3.5-3.3,8.1-5,13.1-5c1.6,0,3.3,0.2,4.9,0.5c0,0,0.1-0.1,0.2-0.2c3.3-3.6,7-5.3,11.3-5.3c0.4,0,0.8,0,1.1,0
				c1,0.1,1.8,0.1,2.6,0.1c0.6,0,1.2,0,1.8-0.1c-1.2-2.7-1.4-6-0.2-9.3c2.3-6.8,7.6-11.2,14.5-12.1c0.6-0.1,1.2-0.1,1.8-0.1
				c6.9,0,10.7,5.2,12.7,8l-6,4.5l6-4.4c0.3,0.5,0.9,1.2,1.4,2.3c0.3-0.1,0.5-0.1,0.8-0.2c1.4-0.3,2.6-0.6,3.3-1
				c2.3-1.4,4.9-2.2,7.4-2.2c1.2,0,2.4,0.2,3.6,0.5c1.5-2.8,4.2-4.8,7.1-5.6c0.7-0.2,1.4-0.3,2.1-0.3c4.9,0,8.6,3.7,10,7.4
				c0.3,0.9,0.7,1.8,1.1,2.6c1.7,4,3.8,8.9,3,14.6v1.1c0,1.1,0,2,0,3c-0.2,9.3-3.7,14-12.1,15.8c-1.3,1.6-3.1,4.4-4,6.1
				c0.1,1,0.3,1.9,0.4,2.9c0.2,2,0.5,4,1,5.2c1.3,3,2,5.8,2.5,8.4c0.4,1.9,0.8,3.6,1.4,5c0.4,1.1,0.9,2.1,1.4,3.2
				c0.3,0.7,0.6,1.3,0.9,2c0.8,0.6,2.4,1.4,3.2,1.7h0.2c1.9,0,4.5,0.2,7,1.4c0.7,0.3,2.1,0.3,3.6,0.3c1.7,0,3.6,0,5.6,0.4l0.3,0.1
				c2.5,0.5,5.9,1.1,8.8,3.4c2.1,1.7,4.2,2.4,6.8,2.4c1.2,0,2.5-0.2,3.9-0.5c-0.1-1.9,0.1-3.7,0.4-5.2c0.1-0.5,0.3-1.6,0.3-2
				c-4.2-6.8-1.2-13.1,0.4-16.4c0.2-0.5,0.5-1,0.7-1.5c5.2-12.4,14.3-19.6,26.9-21.5c1.2-0.2,2.5-0.3,3.7-0.3c7.3,0,14.6,3.2,20,8.7
				c5.3,5.3,8.2,12.3,8.1,19.1c0,0.9,0.4,2.2,0.8,3.7c0.2,0.8,0.5,1.6,0.6,2.4c1.9,8-0.3,15-6.6,20.7c0.2,0.6,0.4,0.7,1.2,1
				c2.5,1,4.3,3,4.9,5.6c0.4,1.6,0.5,2.3,5.6,2.4c8.2,0.2,14.3,5.4,16.8,14.2c0.4,1.2,0.9,2.2,1.8,3.1c5.1,5.1,6.7,11.4,7.4,15.7
				c1,5.7,4,11,7.6,16.8c1.1,1.7,1.9,3.5,2.6,5l0.5,1.1c1.1,2.3,3.4,7.2,0.9,12.9c0,0.3,0.3,1.7,0.5,2.6c0.4,1.8,1,4,0.9,6.6
				c0,2.1,0.8,4.4,2.6,6.8c2.6,3.5,3.1,7.1,3.4,9.8c0.1,1,0.3,1.9,0.4,2.5c1.8,5.5,3.2,11.5,2.2,18c5.1,2.7,8.5,7.2,10.1,13.3
				c1.1,4.1,0.2,7.6-0.5,10.2c-0.2,0.9-0.4,1.7-0.5,2.3c0,0.5-0.1,1-0.2,1.5s-0.2,1.2-0.2,1.6c2.5,8.9-1.2,15.8-4.2,20.2
				c-2.7,4-6,4.8-8.2,4.8c-1,0-2.3-0.2-3.7-0.8c-1,0-1.9,0.1-2.8,0.1c-1.4,0-2.8,0-3.9,0.2c-0.2,0.6-0.4,1.2-0.5,1.7
				c-0.2,0.6-0.3,1.2-0.5,1.7c-1,3.1-2.7,5.8-5.2,8.2c-2.5,2.4-5.6,3.7-8.7,3.7c-4.3,0-8.2-2.6-10.1-6.7c-1.4-3-3-6-4.7-9.1
				c1.5,6.1,3.2,12,5.2,17.4c0.5,1.5,1,2.9,1.6,4.4c3.4,9.4,6.9,19.2,8.5,29.4c1.3,8.7,5.8,15.9,10.4,23.6c2,3.2,4,6.5,5.9,10
				c2.9,5.6,5.7,11.2,8.3,16.8c1.1,2.3,2.2,4.5,3.3,6.8c0.9,1.4,1.4,3,1.3,4.6c-0.1,2.8,1.6,5,4.6,8.7c2.1,2.6,4.6,5.5,6.2,9.3
				c0.7,1.6,1.5,3.2,2.5,3.9c2.5,1.6,4.1,4.2,4.4,7.2c0.2,3-0.9,5.9-3.2,8c0.1,0.6,0.3,1.6,0.4,2.4c0,0.1,0.1,0.2,0.1,0.4
				c1.7,3.9,2.9,7.9,1.2,12.2c-1.8,4.5-5.9,6.6-9.6,8.1c-3.1,1.2-6.2,3-9.9,5.6c-6,4.2-12.7,6.3-19.9,6.3c-2.9,0-6-0.3-9-1
				c-0.8-0.2-1.8-0.3-2.9-0.3c-1.3-0.1-2.7-0.2-4.2-0.5c-0.3,0.2-0.6,0.5-0.8,0.7c-0.8,5.3-4.8,9.4-10.8,10.8
				C252.5,478.3,248.5,478.7,243.4,478.7z"/>
			<path d="M108,17.7c3.1,0,5,2.6,6.7,5c0.3,0.5,0.8,1,0.8,1.5c0.3,3.4,2.3,4.3,4.4,4.3c1,0,2.1-0.2,3-0.5c2.4-0.6,5-1,7.3-2.4
				c1.2-0.7,2.4-1.1,3.5-1.1c1.5,0,3,0.6,4.2,1.9c0.8,0.8,1.7,1.2,2.6,1.2c0.4,0,0.9-0.1,1.3-0.2c1.4-0.5,1.5-2,1.8-3.3
				c0.1-0.3,0.1-0.7,0-1.1c-0.4-2.1,1.2-3.5,2.6-3.8c0.1,0,0.2,0,0.3,0c1.1,0,2.5,1.2,3,2.6c1.8,4.7,4.5,9.1,3.5,13.9
				c0,1.9,0,3.2,0,4.5c-0.1,6.3-1.6,8-7.8,8.9c-0.1,0-0.2,0-0.4,0c-1.6,0.4-8.5,11-8.2,12.6c0.8,3.9,0.7,8.2,2.2,11.6
				c1.9,4.3,2.1,9,3.8,13.2c0.8,2,1.8,4.1,2.6,6.1c0.9,2.2,6.7,5.5,9.5,5.5l0,0c0.1,0,0.3,0,0.4,0c1.3,0,2.6,0.1,3.7,0.6
				c3.6,1.8,7.5,0.7,11.2,1.4c2.1,0.4,4.3,0.8,5.9,2c3.7,2.9,7.5,4,11.4,4c3.3,0,6.7-0.8,10.1-2c1.9-0.7,2.8-1.7,1.9-3.7
				s-0.7-4.1-0.3-6c0.5-2.6,0.8-4.9-0.7-7.4c-2.5-3.9,0.3-7.7,1.7-11c3.9-9.3,10.4-15.4,21.1-17c0.9-0.1,1.8-0.2,2.6-0.2
				c10.9,0,20.8,9.9,20.6,20.2c0,2.8,1,5.3,1.6,7.9c1.5,6.3-0.8,10.6-5.5,14.4c-1.5,1.2-1.7,2.8-1.3,5c0.6,4,2.6,6.2,6.1,7.5
				c0.1,0,0.3,0.1,0.3,0.2c1.6,6.9,6.5,8.1,12.7,8.3c5.3,0.1,8.4,3.8,9.8,8.8c0.7,2.5,1.9,4.5,3.7,6.3c3.2,3.2,4.6,7.3,5.3,11.6
				c1.2,7.2,4.8,13.4,8.6,19.5c1,1.7,1.8,3.5,2.7,5.3c1,2.1,1.9,4.2,0.8,6.7c-1.8,4.1,0.9,7.9,0.8,12c-0.1,4.2,1.6,8.1,4.1,11.4
				c2.2,3,1.7,6.8,2.8,10.1c1.8,5.5,3.1,11.1,1.5,17c-0.8,2.8,1.5,4,3.2,4.7c4.3,1.8,6.5,4.9,7.7,9.2c0.9,3.5-0.9,6.5-1.2,9.8
				c-0.2,1.9-0.6,3.9-0.1,5.7c1.5,5.4-0.2,9.9-3.1,14.2c-0.6,0.9-1.2,1.5-2,1.5c-0.4,0-0.9-0.2-1.4-0.6c-0.2-0.1-0.4-0.4-0.6-0.4
				l0,0c-4.4,0.6-9.2-0.4-13.1,1.6c-2,1-2.7,4.8-3.5,7.5c-0.6,2-1.7,3.6-3.2,5c-1.1,1.1-2.4,1.6-3.5,1.6c-1.3,0-2.5-0.7-3.3-2.3
				c-5.1-11.1-12.8-20.9-15.5-33.1c-1.2-5.5-2.8-11-2.9-16.7c0-1.5-0.4-2-1.1-2c-0.4,0-1,0.2-1.6,0.5c-3.6,1.7-5.8,4.7-4.9,9.1
				c0.9,4.5,0.6,9,1.1,13.5c0.9,7.9,3.9,15.2,5.7,22.9c1.6,6.7,3.5,13.4,5.8,19.8c3.8,10.7,8,21.4,9.7,32.4
				c2.1,14.1,10.9,24.2,17.1,36c4.2,7.9,7.9,16,11.9,24.1c0.1,0.1,0.2,0.2,0.2,0.3c-0.4,9.3,8.2,13.9,11.4,21.3
				c1.2,2.6,2.6,5.4,5.4,7.2c1.2,0.8,1.2,2.4,0.1,3.4c-3.5,3.1-2.3,6.7-1.5,10.4c0,0.1,0.1,0.2,0.1,0.3c2.8,6.1,2.2,8.2-4.1,10.8
				c-4.1,1.7-7.8,3.9-11.4,6.4c-4.9,3.4-10.1,4.9-15.6,4.9c-2.4,0-4.9-0.3-7.4-0.9c-2.9-0.6-5.8-0.4-8.7-1.2
				c-0.2-0.1-0.4-0.1-0.6-0.1c-2.8,0-7.4,4.3-7.6,6.8c-0.2,3.3-3,4.7-5.1,5.2c-3.7,0.9-7.5,1.1-11.2,1.1c-3.8,0-7.6-0.2-11.4-0.2
				c-0.2,0-0.3,0-0.5,0l0,0c-0.5,0-1.2-0.3-1.6-0.7c-1.9-2-4.1-2.7-6.4-2.7c-1.2,0-2.4,0.2-3.7,0.4c-0.7,0.1-1.4,0.2-2.1,0.2
				c-3.4,0-6.7-1.5-10.1-2.2c-6.9-1.4-13.7-3.2-20.8-3.9c-6.9-0.6-13-4.3-19.6-6.4c-1.7-0.5-3.4-1.1-5.2-1.2c-1.6-0.1-3.4-0.7-4-1.9
				c-2.1-4.4-5.9-3.7-9.6-3.9c-6.2-0.3-12.3-1.8-18.4-2.9c-2.4-0.4-4.6-1.4-4.2-4.6c0.5-4.1,2.2-6.2,5.3-6.2c5.2-0.1,9.5-2.6,14-5.1
				c3.5-2,5.1-3.9,2.1-7.4c-0.5-0.5-0.5-1.1,0.1-1.5c3.2-2.2,2.3-5.5,2.2-8.5c-0.1-2,1-3.7,0.9-5.6c0-0.3,0.3-0.7,0.6-0.9
				c7.9-3.4,7.5-11.4,9.3-17.8c3.3-11.8,0.8-23.6-1-35.3c-1-6.5-2.2-13.1-3.6-19.5c-1.8-8.6-3.4-17.1-3.1-25.9c0.1-4.1,1-8.2,1-12.4
				c0-2.7-0.3-5.4-0.4-8.1c-0.3-7.7,0.8-15.1,2.1-22.7c0.8-4.3,0.5-8.8,0.9-13.2c0.1-1.4-0.8-2.1-1.6-3c-3.7-4.5-3.9-12-0.7-16.9
				c0.6-0.9,1.2-1.3,2-1.8s1.3-1.4,0.6-2.1c-1.7-1.7-1.3-4.5-3.4-6.1c-0.9-0.7-1.4-1.9-1.3-3.2c0.4-5.1,1-10.2,4.3-14.5
				c1.4-1.9,1.2-4.2,0.3-6.1c-1.6-3.6-2-7.3-1.6-11.1c0.2-2.1-0.5-2.6-1.8-2.6c-0.4,0-0.9,0.1-1.4,0.1c-3.6,0.5-6.3,2.4-9,4.6
				c-2.5,2-5.4,3.4-8.4,4.5c-0.4,0.2-0.9,0.3-1.4,0.3c-0.8,0-1.5-0.4-1.1-1.8c1.3-4.7,0.6-9.1-0.7-13.6c-1.1-3.6-0.8-7.3-0.8-11
				c0-6.7,0-13.4,0-20.1c0-5.6,1-11,1.9-16.5c0.2-1.5,0.3-2.5-1.6-3.3c-5.1-2.2-8.2-10.4-8.5-16.1c-0.4-7.1-0.6-14.3-3-21.2
				c-1.7-4.6-2.6-9.2-0.5-14.1c0.8-1.8-0.9-3.5-1.5-5.2c-0.4-1.2-0.9-1.6-1.5-1.6c-0.8,0-1.8,0.7-2.7,0.9c-0.5,0.1-0.9,0.1-1.4,0.1
				c-3.8,0-7.5-2.3-8.3-5.6c-0.3-1.1-1.1-2.9,0.7-3.3c0.6-0.1,1.3-0.3,1.9-0.3c1,0,1.9,0.4,2.2,1.7s0.9,2.1,2,2.1
				c0.2,0,0.5,0,0.7-0.1c1.4-0.3,2.1-1.4,2.3-2.8c0.6-4.1-1.5-7.4-3.3-10.6c-0.4-0.7-1.6-1-2.9-1c-1.7,0-3.6,0.5-4.6,1.6
				c-2.9,3-6.1,4.5-9.7,4.5c-1.5,0-3.1-0.3-4.8-0.8c-0.4-0.1-0.7-0.2-1.1-0.2c-1.1,0-2.1,0.5-2.9,1.2c-2.5,2.4-5.2,3.3-8,3.3
				c-1.8,0-3.6-0.4-5.5-1c-0.6-0.2-1.1-0.3-1.6-0.3c-0.6,0-1.1,0.2-1.6,0.6c-3.6,3.1-7.5,4.4-11.6,4.4c-2.2,0-4.4-0.4-6.6-1
				c-0.9-0.3-1.8-0.4-2.7-0.4c-2.8,0-5.3,1.1-7.9,1.8c-4,0.9-7.5,3.2-11.2,5.1c-0.5,0.6-0.8,1.7-1.4,1.7c-0.2,0-0.5-0.1-0.9-0.5
				c-1.1-1.1-1.2-2.1-0.4-3.4c2.4-4.2,5.7-7.5,10-9.5c6.8-3.2,13.4-7.4,21.2-7.4c0.9,0,1.8,0.1,2.7,0.2c0.2,0,0.3,0,0.5,0
				c0.9,0,1.7-0.3,2.4-1.1c2.5-2.9,5.7-4.1,9-4.1c1.1,0,2.3,0.1,3.4,0.4c0.7,0.1,1.3,0.2,1.8,0.2c2.3,0,3.9-1.1,5.3-2.6
				c1.7-1.8,3.5-2.9,5.8-2.9c0.2,0,0.4,0,0.6,0c1.1,0.1,2.1,0.1,3.2,0.1c4.4,0,8.6-0.9,12.3-3.8c0.4-0.3,1-0.5,1.6-0.7
				c1.5-0.5,4-0.1,4.4-1.5c0.8-2.8,1.6-5.8,0.8-8.8c-0.2-0.9-0.8-1.3-1.3-1.3s-1.1,0.3-1.6,0.9c-0.6,0.8-1,1.8-1.2,2.9
				c-0.4,1.8-1.2,3.7-3,3.7c-0.3,0-0.7-0.1-1.1-0.2c-2.4-0.9-2.8-3.4-2-5.6c1.4-4,4.3-6.6,8.4-7.2C107.5,17.8,107.8,17.7,108,17.7
				 M108,2.7c-0.9,0-1.9,0.1-2.9,0.2C95.5,4.2,87.8,10.6,84.5,20c-0.5,1.5-0.8,2.9-1,4.4c-4.1,0.5-7.8,2.1-11.2,4.8
				c-0.8-0.1-1.6-0.1-2.5-0.1c-5.8,0-11.2,1.8-15.7,5c-9.3,0.3-16.8,4.1-22.9,7.1c-1.2,0.6-2.4,1.2-3.5,1.7
				C20.8,46.2,15,51.6,11,58.6C6.9,65.9,8,74.1,13.8,80c3.2,3.2,7.3,5,11.6,5c2.2,0,7-0.5,11-4.5c1.9-1,3.8-2,4.9-2.3
				c1.3-0.3,2.4-0.6,3.4-0.9c0.3-0.1,0.7-0.2,1-0.3c3.2,0.8,6.4,1.2,9.4,1.2c5.6,0,11-1.4,15.8-4.1c1.5,0.2,3.1,0.4,4.6,0.4
				c4.9,0,9.5-1.3,13.5-3.7c0.1,0,0.1,0,0.2,0c2.3,5.6,7.1,10,12.8,12.2c0.2,4.6,1.4,8.6,2.5,11.7c1.5,4.2,1.8,9.4,2.1,15
				c0,0.6,0.1,1.3,0.1,1.9c0.3,6.1,2.7,16.1,9.2,23.1c-0.5,3.8-1,7.8-1,11.9c0,7.2-0.1,13.8,0,20.3c0,0.6,0,1.2,0,1.8
				c-0.1,3.7-0.1,8.3,1.4,13.5c1,3.2,0.8,4.6,0.6,5.4c-1.4,5.1-0.4,10.4,2.7,14.4c3.1,4,7.8,6.3,12.9,6.3c1.8,0,3.6-0.3,5.4-0.8
				c-0.9,3.6-1.1,6.9-1.3,9.4c-0.3,3.8,0.5,7.4,2.1,10.5c-3.7,8.8-3,19.4,2,27.4c0,0.2,0,0.4,0,0.6c-0.1,2.4-0.1,4.6-0.4,6.3
				c-1.3,7.6-2.7,16.5-2.3,25.9c0,1.1,0.1,2.2,0.2,3.2c0.1,1.5,0.2,2.9,0.2,4.2c0,1.4-0.2,3.1-0.4,5c-0.2,2-0.5,4.4-0.6,6.9
				c-0.4,10.7,1.5,20.4,3.4,29.5c1.2,5.8,2.4,12.1,3.4,18.7c0.2,1.3,0.4,2.6,0.6,3.9c1.5,9.5,2.9,17.7,0.8,25
				c-0.6,2-0.9,3.8-1.3,5.5c-0.2,0.9-0.4,2.2-0.7,3.1c-5,2.6-8.2,7.8-8.5,13.4c-0.4,1.5-1,3.9-0.9,6.8c-1.3,2-2.2,4.2-2.5,6.6v0.1
				c-0.5,0.2-0.9,0.3-1.3,0.3c-8,0.2-18,5.4-19.8,19.3c-0.8,6.4,1.3,12.5,6,16.6c2.8,2.4,6.2,4,10.4,4.8c1.4,0.3,2.8,0.5,4.2,0.8
				c5.1,1,10.3,2,16.1,2.3c0,0,0,0,0.1,0c3.2,3.3,7.9,5.4,13.1,5.8c0.3,0.1,1.1,0.3,1.7,0.5l0.3,0.1c1.7,0.5,3.5,1.3,5.5,2.1
				c4.7,1.9,10.5,4.3,17.2,4.9c4.2,0.4,8.6,1.3,13.2,2.3c1.9,0.4,3.9,0.9,5.9,1.3c0.6,0.1,1.5,0.4,2.4,0.6c2.7,0.8,6.4,1.8,10.7,1.8
				c1.4,0,2.7-0.1,4-0.3c2.9,2,6.3,3.1,9.8,3.1h0.1h0.4c1.7,0,3.4,0,5.3,0.1c2,0.1,4,0.1,6.1,0.1c5.7,0,10.3-0.4,14.6-1.4
				c6.6-1.5,11.7-5.5,14.5-10.8c0.4,0,0.8,0.1,0.9,0.1c3.6,0.8,7.2,1.2,10.7,1.2c8.8,0,17-2.6,24.2-7.7c3.2-2.3,5.8-3.7,8.4-4.8
				c2.9-1.2,10.6-4.2,13.8-12.3c2.5-6.3,1-12.2-0.5-16c1.8-3.1,2.7-6.6,2.4-10.2c-0.4-5-2.9-9.4-7-12.4c-0.1-0.2-0.3-0.6-0.5-1.1
				c-2.1-4.7-5-8.2-7.3-11c-1-1.2-2.4-2.9-2.9-3.8c0.1-3-0.7-6-2.3-8.5c-1-2.1-2-4.2-3.1-6.3c-2.7-5.6-5.5-11.3-8.5-17
				c-2-3.7-4.1-7.1-6.1-10.5c-4.5-7.3-8.3-13.6-9.4-20.8c-1.4-9.4-4.3-18.2-7.4-26.8c4.9-0.1,9.7-2.1,13.5-5.8
				c3-2.9,5.2-6.1,6.6-9.7c1.6,0.5,3.2,0.7,4.8,0.7c2.7,0,9.6-0.8,14.5-8.1c2.6-3.8,4.3-7.5,5.3-11.3c1.2-4.5,1.3-9.1,0.2-13.7v-0.1
				c0.1-0.5,0.1-1.1,0.2-1.6c0-0.2,0.2-0.8,0.3-1.2c0.8-3,2-8,0.4-14c-1.9-7.2-5.6-12-9.6-15.2c0.1-6-1.3-11.5-2.9-16.4
				c-0.1-0.3-0.1-0.9-0.2-1.3c-0.4-3.1-1.1-8.2-4.8-13.2c-1-1.3-1.2-2.1-1.2-2.2c0.1-3.5-0.7-6.6-1.2-8.5c0-0.1,0-0.1,0-0.2
				c2.3-7.8-0.6-14.1-1.8-16.7c-0.2-0.3-0.3-0.7-0.5-1c-0.8-1.7-1.7-3.7-3-5.9c-3.3-5.3-5.8-9.7-6.6-14.1
				c-1.4-8.3-4.5-14.7-9.5-19.7c-3.5-11.8-12.2-19.1-23.5-19.5c-0.4-0.9-1-1.7-1.6-2.5c4.8-7.6,4.6-15.5,3.2-21.4
				c-0.2-1-0.5-1.9-0.7-2.7c-0.2-0.6-0.4-1.4-0.5-1.8c0-8.7-3.7-17.5-10.3-24.2c-6.8-6.9-16.1-10.9-25.3-10.9
				c-1.6,0-3.2,0.1-4.8,0.4c-15.2,2.3-26.5,11.2-32.7,26c-0.1,0.2-0.3,0.7-0.5,1.1c-1.4,2.9-4.7,9.7-2.7,17.5
				c-3.7-2.2-7.4-2.8-9.8-3.3l-0.3-0.1c-2.7-0.5-5.2-0.5-7-0.5c-0.4,0-0.9,0-1.3,0c-2.5-1.1-5-1.5-7-1.6c-0.3-0.8-0.7-1.5-1-2.3
				c-0.3-0.9-0.7-2.3-1-3.8c-0.6-2.7-1.3-6.1-2.9-9.6c-0.2-0.6-0.3-2.1-0.5-3.2c0-0.1,0-0.3-0.1-0.4c0.2-0.4,0.5-0.8,0.7-1.1
				c3.4-1.1,6.9-2.9,9.8-6.2c4.5-5.2,5.2-11.3,5.3-16c0-1,0-2,0-3.1c0-0.2,0-0.4,0-0.5c1-7.6-1.7-13.8-3.6-18.1
				c-0.4-0.8-0.7-1.6-1-2.3c-2.8-7.3-9.7-12.2-17-12.2c-1.3,0-2.6,0.2-3.9,0.5c-3.4,0.8-6.3,2.5-8.6,4.8c-0.1,0-0.2,0-0.3,0
				c-2.9,0-5.9,0.6-8.7,1.9C122.1,7.9,116.7,2.7,108,2.7L108,2.7z"/>
		</g>
	</g>
</g>
</svg>
