<?xml version="1.0" encoding="utf-8"?>
<!-- Generator: Adobe Illustrator 24.1.0, SVG Export Plug-In . SVG Version: 6.00 Build 0)  -->
<svg version="1.1" id="Livello_1" xmlns="http://www.w3.org/2000/svg" xmlns:xlink="http://www.w3.org/1999/xlink" x="0px" y="0px"
	 viewBox="0 60.3 372 369.0" style="enable-background:new 0 60.3 372 369.0;" width="50" height="50" xml:space="preserve">
<style type="text/css">
	.st0{fill:#FEFEFE;}
</style>
<g id="iOoagU_1_">
	<g>
		<path class="st0" d="M172.1,487.2c-6.2,0-12.4-0.5-18.3-1c-3.1-0.3-6.4-0.5-9.5-0.7c-4.8-0.3-8.9-2.3-12.3-4.3
			c-2.8-1.6-6-5-5.9-11.7c0.1-4.8,0.2-12,4-18.8c-1.1-2.8-1.1-5.9-0.1-9c-2.9-2.4-5.6-4.8-8.1-7.1c-2.4-2.2-5.4-3.5-9.5-4
			c-9-1.2-16.8-4.5-23.2-9.9c-1.6-1.3-3.8-2-7.3-2.2c-12-0.8-21.6-6.2-27.7-10.3l-0.1-0.1c-0.8-0.5-2.3-1.5-3.4-3.5
			c-1.8-3.3-5.1-4.5-10.6-6.5c-1.5-0.5-3.1-1.1-4.7-1.8c-8.3-3.4-15.1-7.5-20.6-12.5l-0.1-0.1c-3.6-3.2-4.8-6.7-3.7-10.6
			c0.7-2.4,2.9-6.6,9.7-7.3c8.4-0.8,16.6-3.6,25.1-6.6c0.5-7.2,1.8-14.6,3.9-22.1c5.2-19.2,6.4-37.2,3.7-55.1
			c-3.6-23.6,0-46.1,10.7-66.9c7-13.6,16.3-26.6,28.4-39.7c1.1-1.2,2.1-2.3,3.2-3.5c8.1-8.8,15.8-17.1,20.6-27.4
			c2.6-5.7,6.6-11,12.6-16.8c2.6-2.5,5.4-4.1,8.1-5.4c-0.7-3.1-0.9-6.1-1.1-8.9l-0.1-0.7c-0.1-0.1-0.2-0.2-0.3-0.3c-1-1-2.1-2-3.1-3
			c-3.1-3-6.3-6-9.2-9.7c-4.4-5.5-4.1-13.4-3.5-17.7c0.4-2.9,1.8-9.7,5.9-14.2c-0.9-4.6-0.8-9.6,0.3-14.5
			c1.1-4.5,4.7-12.5,16.8-15.1c0.9-0.2,1.7-0.4,2.6-0.5c0-1.8,0.5-3.5,1.5-5c1.7-2.6,4.6-4,8-4c0.7,0,1.4,0.1,2.1,0.2
			c-0.5-1.4-1-2.8-1.5-4.2c-0.7-1.9-2.4-6.4,0.4-10.5c2.8-4.1,7.5-4.1,9.3-4.2c0.3,0,0.6,0,0.8,0c10.8,0,14.1,5.4,15.7,13.5
			c0.5,2.6,1.7,5.3,2.9,8.2c0.6-0.1,1.2-0.1,1.8-0.1c1,0,2,0.1,3.1,0.3c0.9-0.2,2.4-0.8,3.8-1.5c-0.8-0.8-1.7-1.7-2.6-2.5l-0.3-0.3
			c-2.9-2.8-3.8-6.7-2.3-10.2c0.6-1.5,2.6-4.9,7.7-5.2c0.8-0.1,1.7-0.2,2.5-0.2c7,0,13.4,3.8,16.6,9.9c0.1,0.2,0.2,0.3,0.2,0.5
			c1.2-0.2,2.5-0.4,3.9-0.4c0.2,0,0.4,0,0.7,0c-0.9-5,2.1-7.8,3.5-8.8c1.6-1.1,3.4-1.7,5.2-1.7c1.6,0,4,0.5,6.4,2.6
			c2.1,1.9,3.7,3.1,5.4,3.9c0.6,0.3,1.3,0.7,2,1.3c1.4-0.7,3.1-1.3,5.1-1.3c2.1,0,6,0.7,9,5.3l1.9,2.9c4,6.2,8.2,12.6,11.9,19.2
			c1.9,3.3,2.2,7,0.9,10.2c-1,2.5-3.5,5.9-9.3,7.5c-1,0.3-2,0.5-3,0.6c0,0.2,0.1,0.4,0.1,0.5c6.6,2.8,11.5,7.3,14.2,13.2
			c2.7,5.9,3.1,13.1,1.1,20.5c12.5,6.8,21,18.1,25.3,33.7c0,0.2,0.1,0.3,0.2,0.5c0.4,1.3,1.2,3.3,0.9,5.7c0.4,0.2,0.8,0.3,1.1,0.4
			c0.3,0.1,0.7,0.3,1,0.4c0-0.4-0.1-0.9-0.1-1.3c-0.3-3.5-0.5-6.5-0.5-9.3c-3.8-2.3-6.3-6.3-7.4-11.9c-0.4-2-0.8-2.8-1.4-3.4
			c-3.2-3.1-4.6-7.6-3.8-11.9c0.9-4.5,4-8.2,8.3-9.9c-0.1-0.1-0.2-0.1-0.3-0.2c-4.8-2.8-6.9-6.8-8.2-10.5c-1.1-2.9-1.4-7.4,3.2-12.1
			c1.2-1.2,2.7-2.1,4.2-2.5c0-0.3-0.1-0.6-0.1-0.9v-0.2c-0.5-5.3,2.1-8.1,4.3-9.5c1.4-0.9,3.1-1.4,4.7-1.4c1.8,0,3.2,0.5,4.2,1
			c1.9-2.5,4.7-3.9,7.6-3.9c3.9,0,7.4,2.6,8.8,6.5c0.5,1.3,1,2.6,1.6,4c2.3,5.4,5.1,12.1,3.3,20.3c-0.4,1.9-0.1,4.6,0.3,6.9
			c0.4,2.7,1.1,5.4,1.9,8.2c1,3.9,2.1,8,2.5,12.4c3.3,1.1,6.1,2.9,8.3,4.4l0.7,0.4c3.2,2.1,5,5.3,4.8,8.7c-0.1,1.4-0.4,2.8-1.1,4.1
			c0.4,0.3,0.8,0.7,1.2,1.1c1.6,1.5,6.3,5.9,4.4,12.4c0.6,0.7,1.1,1.5,1.6,2.1l0.2,0.3c3.3,4.5,2.8,8.2,1.7,10.7
			c0.6,0.9,1.1,1.8,1.6,2.7c0.3,0.6,0.7,1.1,1,1.7c2.3,3.7,2.1,8.1-0.6,11.4c-0.4,0.4-0.8,0.9-1.2,1.2c0.1,0.3,0.1,0.6,0.2,0.9
			c1.1,4.7-0.3,7.7-1.6,9.4c-1,1.3-3.4,3.5-7.7,3.5c-0.4,0-0.7,0-1.1,0c0.9,7.5-1.7,13.9-3.9,19.1c-0.4,0.9-0.8,1.8-1.1,2.7
			c-5.1,13.1-13.5,24.5-25,33.7c-9.2,7.4-15.4,17.2-22.6,29.3c-2.4,4-5.2,7.6-7.9,11c-0.4,0.5-0.8,1-1.2,1.5
			c1.4,2.3,2.1,5.6,0.4,10.1c-2.4,6.5-2.5,12.6,0,16.6c4.6,7.6,4,13.9,2.8,19c-0.5,2.3-0.8,4.8-1.1,7.5c-0.1,1.1-0.2,2.3-0.4,3.4
			c-0.3,2.1-0.1,3.6,0.7,5.2c2.5,5.3,1.8,10.4,1.3,14.5c-0.1,0.8-0.2,1.6-0.3,2.4l-0.3,2.9c-0.8,8.3-1.6,16.8-1.1,24.6
			c0.8,12.2-0.4,24-1.5,35.4c-0.5,4.8-1,9.8-1.3,14.6c-0.2,3.5-0.6,7.3-2.1,11.1c0.3,0.2,0.6,0.5,0.9,0.7c4.3,3.7,7,5.8,10.7,5.8
			h0.6c4.4,0,7.9,1.3,10.4,3.9c3.5,3.8,3.6,8.8,3.3,12.3c-0.6,7.9-6.1,12.7-14.8,12.8c-8.1,0.1-16.3,0.2-24.2,0.4h-2.1h-0.5
			c-4,0-7.3-1.2-9.8-3.7c-0.4-0.2-1.8-0.2-2.8-0.3h-0.8c-4.9-0.2-9.8-0.8-14.5-1.4L239,479c-6.7-0.9-11.2-5.8-11.9-12.9
			c-0.1-0.7-0.1-1.4-0.1-2.1c-0.7,0.1-1.4,0.1-2.2,0.2c-1.4,0.1-2.8,0.3-4.2,0.3c-1.5,0.1-3,0.1-4.3,0.1c-6.4,0-11.7-1.1-16.6-3.4
			c-1.4-0.6-3.9-0.8-6.2-1h-0.2c-3.4-0.3-6.9-0.4-10.3-0.6c4.1,4.8,4.2,10.8,4.3,14.7v0.3c0.2,7.1-4.7,12-12.1,12.2
			C174.3,487.2,173.2,487.2,172.1,487.2z"/>
		<path d="M165.7,17.4c5.9,0,7.1,1.3,8.4,7.4c1,4.9,3.4,9.4,5.2,14.1c0.4,0.9,1.1,1.2,1.8,1.2c0.8,0,1.7-0.3,2.4-0.6
			c0.9-0.4,1.8-0.6,2.6-0.6c0.6,0,1.2,0.1,1.9,0.3c0.3,0.1,0.6,0.1,0.9,0.1c3.9,0,11.7-4.1,12.8-6.9c0.8-2-0.3-3.9-1.6-5.4
			c-1.5-1.7-3.2-3.4-4.9-5c-0.6-0.6-0.9-1.1-0.6-1.9c0.3-0.7,1-0.6,1.6-0.6c0.6-0.1,1.1-0.1,1.7-0.1c4.2,0,8,2.1,10,5.9
			c1.4,2.7,2.9,4.6,5.9,4.6c0.6,0,1.3-0.1,2-0.3c0.9-0.2,1.9-0.3,2.8-0.3c2.3,0,4.7,0.5,7,1.1c0.7,0.2,1.7,0.8,2.5,0.8
			c0.4,0,0.8-0.2,1.1-0.7c0.8-1.4,1.1-3.3,0-4.9c-1-1.3-1.8-2.6-2.3-4.1c-0.3-0.9-0.6-1.7,0.3-2.3c0.3-0.2,0.6-0.3,0.9-0.3
			c0.5,0,0.9,0.3,1.4,0.7c2.2,2,4.5,3.7,7.2,5.1c1.8,0.9,2.4,2.9,2.4,5c0,4.3,0.8,8.2,3.6,12c1.7,2.2,3.4,3.2,5.6,3.2
			c0.8,0,1.6-0.1,2.5-0.3c-2.8-4.1-5.4-8.2-8.3-12c-1.9-2.5-0.6-4.3,1.1-5.4c1-0.7,2.2-1.6,3.5-1.6c0.9,0,1.8,0.5,2.7,1.9
			c4.7,7.2,9.4,14.4,13.6,21.8c1.7,3,0.2,5.6-4,6.8c-1.3,0.4-2.7,0.5-4,0.5c-1.4,0-2.7-0.1-4.1-0.1c-1.1,0-2.3,0.1-3.4,0.3
			c1.7,3.8,3.4,7.6,3.6,11.8c0.1,1.5,1.5,1.8,2.6,2.2c14,5,15.7,17.5,11.2,29.2c-0.8,2-0.5,2.2,1.3,3c13.6,6,21.4,16.9,25.3,30.9
			c0.3,1.2,1,2.4,0.8,3.5c-1.3,5.8,2.9,6.9,6.8,8.5c3.6,1.5,7.1,3.1,10.3,7.1c0-6.1,0.3-11.1-0.1-16c-0.3-3.8-0.6-7.6-0.5-11.4
			c0-1.4-0.2-2.4-1.6-2.8c-3.9-1.1-5.2-4.1-5.9-7.7c-0.5-2.8-1.4-5.2-3.6-7.4c-3.1-3-1.8-7.9,2.1-9.5c0.4-0.2,0.8-0.2,1.1-0.2
			c1.1,0,2,0.8,2.8,1.6c0.7,0.7,1.3,1,1.7,1c0.7,0,1-0.9,1.3-2.2c1.2-6.8-0.2-10.3-6.3-13.7c-2.8-1.6-3.9-3.9-4.9-6.6
			c-0.7-1.8,0.4-3.1,1.5-4.2c0.4-0.4,0.7-0.5,1-0.5c0.8,0,1.5,1,2.1,1.4c3,2,5.9,4.2,9.9,4.8c-0.1-3.7-2.4-5.9-4.2-8.2
			c-1.6-2.1-2.3-4.2-2.5-6.7c-0.1-1-0.3-2,0.8-2.6c0.3-0.2,0.6-0.2,0.8-0.2c0.7,0,1.3,0.5,1.9,0.8c2,0.9,3.1,3.2,5.4,3.7
			c0.8-1.9,1.4-3.9,2.4-5.7c0.6-1.1,1.4-1.6,2.1-1.6s1.3,0.5,1.7,1.6c2.3,6.5,6.4,12.6,4.7,20.2c-0.7,3.1-0.3,6.5,0.3,9.8
			c1.2,7.3,4,14.3,4.5,21.8c0.2,2.4,1.4,3.8,3.7,4.4c3.2,0.7,5.8,2.6,8.5,4.3c1.9,1.2,2,2.8,0,4c-3.3,1.8-2,3.6-0.2,5.4
			c1.3,1.3,2.8,2.4,4.1,3.6c1.4,1.4,3,2.8,2.2,5c-0.4,1.1-1.2,1.3-2.1,1.3c-0.4,0-0.9,0-1.3,0s-0.9,0-1.2,0.2
			c-0.2,1.3,0.9,1.7,1.7,1.9c2.8,0.9,4.3,3.1,5.9,5.3c0.7,1,1.5,2.1,0.8,3.3c-0.4,0.7-1,0.9-1.7,0.9c-0.5,0-1.1-0.1-1.6-0.3
			c-0.6-0.1-1.1-0.3-1.7-0.5c-0.3,1.7,0.8,2.2,1.7,2.8c3.2,1.9,4.6,5.3,6.5,8.3c0.5,0.9,0.6,1.8-0.1,2.7c-0.5,0.6-1,0.8-1.5,0.8
			s-1-0.2-1.5-0.4c-1.3-0.6-2.6-1.2-4-1.9c-1,1.8,0.6,2.6,1.3,3.5c1.7,1.9,2.7,4.1,3.3,6.5c0.6,2.5-0.1,3.7-2.1,3.7
			c-0.4,0-0.9-0.1-1.4-0.2c-0.2,0-0.4-0.1-0.7-0.1c-3.2,0-7.4,3.8-6.8,6.8c1.7,7.4-1.7,13.7-4.2,20c-4.7,12.2-12.5,22.3-22.7,30.6
			c-10.6,8.5-17.5,19.9-24.4,31.4c-2.9,4.9-6.7,9.3-10.2,13.9c-1.5,1.9-2,3.6,0.3,5.3c1.5,1.2,1.4,2.6,0.7,4.5
			c-2.9,7.8-3.4,16.5,0.6,23.1c3,5,3,8.8,1.9,13.5c-0.9,3.9-1.1,7.8-1.6,11.7c-0.4,3.2-0.1,6.2,1.3,9.3c2,4.2,0.7,8.8,0.3,13.1
			c-0.9,9.5-2,19.3-1.3,28.6c1.1,16.6-1.7,32.7-2.9,49c-0.3,4.1-0.7,8.3-3.1,11.9c-0.8,1.1-0.5,2.1,0.5,2.9
			c6,4.5,10.9,10.8,19.6,10.8c0.1,0,0.2,0,0.3,0c0.1,0,0.2,0,0.3,0c5.2,0,6.6,2.5,6.2,8.2c-0.3,4-2.7,5.8-7.3,5.8
			c-8.8,0.1-17.6,0.3-26.4,0.5c-0.1,0-0.2,0-0.3,0c-1.7,0-3.3-0.3-4.5-1.5c-2.4-2.4-5.4-2.3-8.5-2.5c-4.9-0.2-9.8-0.9-14.6-1.5
			c-3.4-0.4-5-2.8-5.3-6.1c-0.1-1.5-0.1-3,0-4.4c0.1-4.1,0.2-4.8-2.8-4.8c-0.6,0-1.3,0-2.1,0.1c-3.2,0.1-6.4,0.5-9.5,0.7
			c-1.3,0.1-2.6,0.1-3.8,0.1c-4.6,0-9-0.6-13.4-2.7c-2.7-1.3-5.9-1.5-9-1.7c-6.5-0.5-13-0.7-19.5-1.1c-0.2,0-0.4,0-0.5,0
			c-1.7,0-1.9,0.7-1.2,2.5c0.7,1.7,1,3.5,1.2,5.4c0.1,1.3,0.5,2.5,1.5,3.2c4.4,3,4.4,7.6,4.5,12.1c0.1,2.9-1.4,4.4-4.8,4.5
			c-1,0-2,0-3.1,0c-9.2,0-18.3-1.1-27.4-1.6c-3.2-0.2-6.1-1.7-8.9-3.3c-1.9-1.1-2.3-3.2-2.2-5.2c0.1-5.4,0.3-10.7,3.2-15.5
			c0.9-1.5,1.7-3.4,0.5-5.5c-1-2-0.5-4.3,0.7-6.3c1.1-1.8,0.6-3.1-1-4.4c-3.4-2.8-6.8-5.7-10-8.7c-3.9-3.6-8.6-5.3-13.6-6
			c-7.3-1-13.8-3.5-19.3-8.2c-3.4-2.9-7.5-3.7-11.6-4c-9-0.6-16.7-4.2-24.1-9.1c-0.4-0.3-0.9-0.6-1.1-1c-4.2-7.4-12-8.7-18.9-11.5
			c-6.7-2.8-13-6.3-18.5-11.1c-0.9-0.8-2-1.7-1.6-3.1c0.4-1.5,1.8-1.8,3.2-1.9c10.1-1,19.6-4.5,29.1-7.7c1.9-0.6,2.6-1.7,2.7-3.7
			c0.4-7.7,1.8-15.3,3.8-22.7c5.2-19.2,6.8-38.5,3.8-58.2c-3.3-21.8-0.3-42.5,9.9-62.3c7.3-14.1,16.5-26.5,27.2-38.1
			c9.3-10.1,19.2-19.9,25.1-32.8c2.5-5.5,6.6-10.3,11-14.6c2.4-2.4,5.4-3.8,8.5-5.1c2.3-1,3.3-2.1,2.4-5.1
			c-1.1-3.4-1.3-7.2-1.6-10.9c-0.2-2.1-1-3.6-2.5-5c-4-4-8.2-7.6-11.8-12.1c-4.2-5.2-1.8-19,2.9-22.9c1.8-1.5,1.9-2.6,1.3-4.6
			c-1.1-4.1-1-8.4,0-12.4c1.3-5.6,5.7-8.3,11.1-9.5c1.6-0.3,3.1-0.6,4.7-0.9c3.2-0.6,6-1.2,4.1-5.8c-0.7-1.8,0.3-2.7,1.8-2.7
			c0.5,0,1,0.1,1.6,0.3c3.8,1.4,7.6,2.5,12.4,3.4c-2.3-6.4-4.3-12.2-6.4-17.9c-1.3-3.6-0.9-4.5,2.8-4.6
			C165.2,17.4,165.4,17.4,165.7,17.4 M81.7,351.6c4.2-3.4,9.1-5.6,12.7-9.7c6.4-7.1,13.1-14,19.1-21.4c4.6-5.7,8.6-11.9,12.4-18.2
			c4.5-7.5,8.6-15.1,14.2-21.8c2.3-2.8,5.2-5.1,6.5-8.7c1.6-4.6,4-8.6,7.7-12.3c4-4,8.6-7.2,12-11.9c1.4-1.9,1.5-4.5,3.3-6
			c5-4.2,2.3-9.7,2.7-14.7c0.1-0.9-0.5-2.6-1.9-2.8c-0.1,0-0.1,0-0.2,0c-1.1,0-1.7,1.2-2.4,1.9c-3.5,4.1-7,8.2-10.4,12.3
			c-10,12.1-20,24.2-29.9,36.4c-6.4,7.9-11.5,16.7-17.3,25.1c-7.8,11.3-15.8,22.4-21.8,34.8C85.8,340.2,83.1,345.6,81.7,351.6
			 M165.7,2.4c-0.3,0-0.6,0-1,0c-6.9,0.1-12.1,2.6-15.4,7.4c-2.6,3.8-3.4,8.1-2.4,13c-2.6,1.3-4.8,3.2-6.5,5.6
			c-0.6,0.9-1.2,1.9-1.6,2.9c-10.7,2.9-18.1,10.2-20.4,20.2c-1.1,4.7-1.4,9.6-0.9,14.2c-3.5,5.3-4.9,11.4-5.4,15.2
			c-0.8,5.4-1.1,15.7,5,23.4c3.2,4,6.8,7.4,9.9,10.4c0.5,0.4,0.9,0.9,1.4,1.3c0.1,0.7,0.1,1.4,0.2,2.2c-1.7,1.1-3.5,2.4-5.1,4.1
			c-6.7,6.5-11.2,12.6-14.2,19.1c-4.2,9.2-11.5,17.1-19.3,25.4c-1.1,1.2-2.2,2.3-3.2,3.5c-12.5,13.7-22.2,27.2-29.5,41.4
			C45.8,233.9,42,258,45.9,283.2c2.6,16.8,1.4,33.8-3.5,52c-1.7,6.2-2.9,12.4-3.6,18.5c-6.5,2.2-12.7,4-18.9,4.7
			c-12,1.2-15.4,10-16.2,12.7c-1.1,3.9-1.8,11.4,5.9,18.3l0.1,0.1c6.2,5.5,13.6,10,22.8,13.8c1.8,0.7,3.5,1.3,5,1.9
			c3,1.1,6,2.1,6.6,3.1c2,3.5,4.8,5.4,5.9,6.1h0.1c6.9,4.5,17.6,10.6,31.4,11.5c2.3,0.1,2.9,0.5,2.9,0.5c7.5,6.3,16.6,10.2,27,11.6
			c3.3,0.4,4.7,1.4,5.5,2.1c1.6,1.5,3.3,3,5,4.5c-0.1,1.8,0,3.5,0.3,5.3c-3.3,7.5-3.4,14.8-3.5,19.5c-0.2,11.3,6.7,16.6,9.6,18.3
			c4.2,2.5,9.3,5,15.7,5.4c3.1,0.2,6.1,0.4,9.4,0.7c6.1,0.5,12.4,1,18.9,1c1.2,0,2.4,0,3.5-0.1c11.5-0.3,19.6-8.7,19.4-19.9v-0.3
			c0-1.7-0.1-3.8-0.5-6.3c0.9,0.1,1.8,0.2,2.3,0.3c5.9,2.7,12.3,4.1,19.6,4.1c1.4,0,2.8,0,4.4-0.1c2.5,7.9,8.9,13.3,17.3,14.4
			l0.8,0.1c4.8,0.6,9.8,1.3,15.1,1.5h0.8l0,0c2.8,2.1,7,4,12.9,4c0.2,0,0.4,0,0.6,0h2c8-0.2,16.2-0.3,24.2-0.4
			c12.6-0.1,21.3-7.8,22.2-19.7c0.2-2.8,0.8-11.4-5.3-18c-2.7-2.9-7.6-6.3-15.9-6.3c-0.2,0-0.4,0-0.6,0H295c-0.7,0-1.7-0.6-3-1.6
			c0.7-3.2,0.9-6,1-7.9c0.3-4.7,0.8-9.4,1.3-14.3c1.2-11.7,2.4-23.8,1.6-36.6c-0.5-7.2,0.3-15,1-23.4c0.1-1,0.2-1.9,0.3-2.9
			c0.1-0.6,0.2-1.3,0.3-2.1c0.6-4.5,1.5-11.4-1.9-18.7c0-0.1-0.1-0.3,0-1.1c0.2-1.2,0.3-2.4,0.4-3.6c0.3-2.4,0.5-4.7,0.9-6.5
			c1.5-6.2,2.4-14.7-3.6-24.6c-1-1.6-1.2-5.4,0.6-10.1c1.7-4.5,1.8-8.3,1.1-11.4c2.4-3.1,4.8-6.3,7-10c6.8-11.4,12.6-20.7,20.8-27.3
			c12.5-10.1,21.7-22.4,27.3-36.8c0.3-0.9,0.7-1.7,1.1-2.6c1.7-4.2,3.9-9.4,4.5-15.5c2.8-1.1,5.3-2.8,7.2-5.2
			c1.7-2.1,4.2-6.5,3.6-12.8c3.7-5.6,3.8-12.8,0.1-18.7c-0.2-0.4-0.5-0.9-0.8-1.4c0.7-3.7,0.2-8.6-3.7-14c0.3-4-0.8-8.8-5.1-13.7
			c0.1-0.5,0.1-1.1,0.1-1.6c0.2-6-2.8-11.7-8.2-15.2l-0.6-0.4c-1.6-1-3.4-2.3-5.7-3.4c-0.6-3.2-1.4-6.2-2.1-9
			c-0.7-2.7-1.3-5.3-1.7-7.6c-0.4-2.7-0.5-3.7-0.4-4.1c2.4-10.5-1.2-18.8-3.7-24.8c-0.6-1.3-1.1-2.6-1.5-3.6
			c-2.5-7-8.7-11.5-15.8-11.5c-3.5,0-6.8,1.1-9.6,3c-0.7-0.1-1.4-0.1-2.2-0.1c-3,0-6,0.9-8.7,2.5c-2.3,1.4-7.1,5.2-7.9,12.4
			c-0.7,0.5-1.3,1.1-2,1.7c-5,5.1-6.2,10.3-6,14.3c-0.3-1-0.7-2-1.2-3c-1.3-2.8-3.3-6.1-6.4-9.2c2.5-2.3,3.8-4.8,4.5-6.5
			c2.2-5.4,1.8-11.5-1.3-16.8c-3.9-6.8-8.1-13.3-12.2-19.6c-0.6-1-1.3-2-1.9-2.9c-3.6-5.6-9.2-8.8-15.3-8.8c-1.6,0-3,0.2-4.3,0.5
			c-0.9-0.5-1.9-1.3-3.2-2.4c-4.2-3.8-8.5-4.5-11.4-4.5l0,0c-3.4,0-6.7,1.1-9.6,3.1c-1.3,0.9-2.6,2.1-3.6,3.5
			c-4.7-3.9-10.6-6.1-17-6.1c-1,0-2.1,0.1-3.2,0.2c-5.4,0.4-8.9,2.8-11.1,5.3c-0.6-0.7-1.2-1.4-2-2.1C175.9,2.4,168.7,2.4,165.7,2.4
			L165.7,2.4z M282.3,94.2c0.5-3.5,0.5-6.9,0.1-10.1c0.7,1.6,1.7,4,3.5,6.4c-1,1.3-1.9,2.8-2.6,4.4
			C282.9,94.6,282.6,94.4,282.3,94.2L282.3,94.2z"/>
	</g>
</g>
</svg>
