<?xml version="1.0" encoding="utf-8"?>
<!-- Generator: Adobe Illustrator 24.1.0, SVG Export Plug-In . SVG Version: 6.00 Build 0)  -->
<svg version="1.1" id="Livello_1" xmlns="http://www.w3.org/2000/svg" xmlns:xlink="http://www.w3.org/1999/xlink" x="0px" y="0px"
	 viewBox="0 0 383.2 410.8" style="enable-background:new 0 0 383.2 410.8;" width="50" height="50" xml:space="preserve">
<style type="text/css">
	.st0{fill:#FEFEFE;}
</style>
<g>
	<path class="st0" d="M187.5,399.2c-8.3,0-15.8-6.1-17.8-14.5c-0.8-3.3-0.1-7.8,3.3-10.2c1.4-1,1.7-2.8,1.9-7.4v-0.7
		c0.3-6.4,1-12.7,1.7-18.7c0.8-6.7,1.5-13.1,1.7-19.5c0.1-3.8-1.1-7.8-2.5-12c-0.6-1.9-1.2-3.8-1.7-5.8c-2.2-0.8-3.6-2-4.5-3.2
		c-1-1.2-2.1-3.1-2.3-5.8c-8.5-2.7-18.2-6.4-26.9-12.6c-5.4-3.9-9.2-8.7-12.9-13.3c-1.6-2-3.1-3.9-4.7-5.6
		c-9.6-10.6-16.2-22.8-19.7-36.2c-2.7-10.6-3.2-22.1-1.3-34.2c0.5-3.6,1.1-8.3,1-12.4c-0.4-9.4,2.1-17.6,4.4-25.5
		c0.5-1.6,0.9-3.2,1.4-4.8c0.1-0.5,0.3-1,0.4-1.5c-1.6-0.8-3-2.1-3.9-3.7c-8.5,12.4-21.4,19-37.5,19c-0.7,0-1.3,0-2,0h-0.3
		c-1.4,0-4.6,0-7.1-2.5c-4.8-4.6-9.5-9.3-14-13.9c-0.9-0.9-1.4-1.8-1.8-2.5c-2.5-1.2-4.5-3.4-5.5-6.1c-1.1-2.9-1-6.2,0.2-9.1
		c-1.6-0.2-3-0.5-4.4-0.7c-1.5-0.3-2.9-0.6-4.1-0.6c-0.6,0-1,0.1-1.5,0.2c-1,0.4-2.1,0.6-3.2,0.6c-4.8,0-9.5-3.9-10.9-9.1
		c-0.9-3.4-0.4-7.7,3.3-10.8c0-2.1,0.7-3.8,1.5-5c1.7-2.7,4.8-4.2,8.4-4.2c1,0,2.1,0.1,3.2,0.4c1.6,0.3,3.1,0.5,4.6,0.5
		c4.4,0,8.8-1.5,13.3-4.5c2.7-1.8,5.7-2.7,9-2.7c1.4,0,2.9,0.2,4.6,0.5c2,0.4,3.8,1.1,5.4,1.6c2,0.7,4,1.4,5.4,1.4
		c0.5,0,1-0.1,1.5-0.3c1.2-0.5,2.5-0.8,3.9-0.8c1.6,0,3.2,0.4,4.5,1.1s2.5,1,3.8,1c2.1,0,4.6-0.9,8.4-2.9c1.5-0.8,2.3-1.3,2.8-1.9
		c3-3.7,6.1-7.3,9.5-11.2c-0.2-11.7,5.8-20.4,11.1-28.2c2.4-3.5,2-4.5,1.6-5.3c-1.6-3.2-1.5-6.9,0.3-9.9c0.2-0.3,0-1.1-0.6-2.4
		c-2.2-5.2-1-8.7,0.4-10.8c0.7-1,1.8-2.3,3.8-3.3c0-2.1,0.6-4.2,1.6-6c1.9-3.3,5.5-5.7,9.5-6.4c2-0.3,4.2-1.2,6.5-2.1
		c3.1-1.2,6.6-2.6,10.7-3.1c2.7-0.3,5-0.5,7.2-0.5c13.4,0,22.7,5.9,28.4,18c1.4,3,1.8,6,2,8.4c0.1,0.8,0.2,1.6,0.3,2.3
		c0.4,2.4,0.6,4.7,0.7,6.9c0.3,5.6,0.6,7.9,3,9.8c3.6,2.9,7.5,8.6,5.6,19.2c-0.2,1.1-0.3,2.5-0.3,3.9c-0.1,1.7-0.2,3.5-0.5,5.5
		c6.9,3.8,12,9.8,14.7,17.5c0.6,1.6,2.2,2.8,5,4.7l0.1,0.1c1.8,1.3,3.7,2.6,5.5,3.9c2.3,1.6,4.4,3.1,6.6,4.6
		c3.7-0.8,7.2-0.9,10.2-0.9c1.3,0,2.6,0,3.9,0.1c1.2,0,2.4,0,3.6,0c3.2,0,6.5-0.2,9.6-1.3c0.3-0.1,0.6-0.2,0.9-0.3
		c1.7-2.3,4.5-3.9,7.2-3.9c1.2,0,2.3,0.3,3.4,0.8c0.3-0.1,0.6-0.2,0.9-0.4c1.4-0.6,3.3-1.4,5.5-1.6c0.4,0,0.6-0.1,0.8-0.2
		c-1.4-9.7-1.9-19.2-2.2-26.4c-0.2-5.3,1.6-12.1,11.4-13.7c6.2-1,12.4-1.8,18.4-2.6c9-1.1,17.5-2.2,25.9-4.1
		c1.4-0.3,2.6-0.5,3.8-0.5c5.1,0,10.7,3.1,11.3,11.7c1.1,15.9,2.9,32,4.4,45.6c0.2,1.8,0.4,3.5,0.7,5.3c0.5,3.6,1,7.3,1.2,11
		c7.1,3.3,13,8.9,17.7,16.5c1.5,2.4,2.1,5,2.3,6.7c0.3,2.8,0.5,7-2.4,10.2c-1.8,2.1-4.5,3.2-7.5,3.2l0,0c-1.6,0-3.3-0.3-5.4-1
		c-2.3-0.7-4.3-1.7-6-2.5c-2.2-1.1-3.9-1.9-5.5-2c-0.7,0-1.3-0.1-2-0.1c-0.7-0.1-1.4-0.1-1.9-0.1c-0.3,0-0.6,0-0.7,0.1
		c-8.4,2-16.4,5.4-24.8,8.9c-1.8,0.7-3.5,1.5-5.3,2.2c-4.1,1.7-8.1,3.6-12.3,5.5c-6.5,3-13.1,6.2-20.2,8.6
		c3.3,5.4,3.5,11.8,0.5,18.4c-5.2,11.6-5.8,24.4-6.5,37.8l-0.1,1.1c-0.3,6.9,0.8,14.9,3.5,23.6c1.1,3.5,2.3,7.1,3.6,10.6
		c3.4,9.6,6.8,19.6,7.9,30.4c0.3,3.7,1.1,7.5,1.9,11.4c0.9,4.3,1.8,8.7,2.2,13.3c1.5,17.1-8.2,29.2-15.9,38.9
		c-9.2,11.6-21.5,13.5-32.3,15.2c-1.7,0.3-3.4,0.5-5,0.8c-3.7,0.7-7.3,0.9-10.8,1.2c-2.4,0.2-4.7,0.3-6.9,0.6
		c-1.1,0.1-2.1,0.2-3,0.2c-5,0-7.8-2-9.4-4c-4,5.3-10.6,8-16.4,8.7C188.9,399.2,188.2,399.2,187.5,399.2z M212.9,320.3
		c-1.3,3.6-2.2,7.5-3.2,11.5c-0.3,1.3-0.6,2.6-1,3.9c-0.9,3.7-1.1,7.4-1.4,11.6v0.4c-0.2,4.7,0.4,9.6,1,14.8
		c0.3,2.4,0.6,4.7,0.8,7.2c5.3-8.3,12.4-14.1,17.7-18c11.7-8.6,16.9-19.1,16.4-33.1V318c-0.4-11.9-0.8-23.1-3.6-34.1
		c-0.5,1.3-0.8,2.7-1.1,4.1c-1.2,5.7-4,10.3-6.4,14.3c-1.1,1.8-2.1,3.5-2.9,5.2c-1.8,3.6-5,6.1-7.9,8.3c-1,0.8-2,1.5-2.7,2.2
		C216.8,319.7,214.5,320.2,212.9,320.3z M136.7,192.2c-1.1,4.2-1.9,8.4-2.2,12.7c-1.1,15.1,4.7,28.4,11.2,40.6l0.1,0.2
		c2.8,5.2,5.4,10.1,9.1,13c4.9,3.8,10.4,6.5,16.3,8.1c-0.7-2.1-1.5-4.2-2.1-6.5c-1.2-4.4-2.2-8.9-3.3-13.2
		c-3.2-13.2-6.2-25.6-11.5-37.4c-0.6-1.4-1.6-2.6-3.6-4.3c-1.1-0.9-2.2-1.9-3.2-2.8C143.9,199.4,140,196.2,136.7,192.2z M195,142.8
		c6,2.2,10.9,5.9,15.4,9.2c1.2,0.9,2.4,1.7,3.7,2.6c3.9,2.7,8.2,5.7,11.5,10c1.4,1.9,2.9,3.2,4.9,4.3c2-3.3,4.4-6,6.6-8.4
		c1.4-1.5,2.7-2.9,3.7-4.3c2.4-3.2,4.8-6.4,7.1-9.6c-1.8,0.6-3.5,1.1-5.3,1.7c-4,1.2-7.9,1.9-11.8,1.9c-7.7,0-14.9-2.5-21.3-7.3
		c-4.3-3.2-8.4-6.7-12.3-10.1c0.3,2.8-0.1,6.1-2.2,9.9C195.1,142.6,195.1,142.7,195,142.8z M277.5,141.1c-0.6,2.6-1.5,5.3-3.1,8
		c0.6,0,1.2-0.1,1.8-0.1c1.3-0.1,2.5-0.2,3.7-0.3c-0.3-1.9-0.5-3.8-0.7-5.8c0,0-0.1-1.3-0.1-1.9
		C278.7,141.1,278.1,141.1,277.5,141.1z"/>
	<path d="M158.3,18.5c9,0,16.6,3,21.6,13.7c1.3,2.8,1.2,5.9,1.7,8.9c1.3,7.2-0.8,15.4,6.3,21.2c3.6,3,3.7,7.8,2.9,12
		c-0.7,4.1-0.1,8.3-1.5,12.3c-0.7,1.8,0.4,3.1,2.5,4c6.5,2.8,10.9,7.7,13.2,14.4c1.4,4,4.7,6.2,7.9,8.5c4.1,2.8,8.1,5.8,12.2,8.5
		c1,0.7,2.1,1.6,3.4,1.6c0.2,0,0.5,0,0.7-0.1c3.4-0.9,6.8-1.1,10.3-1.1c2.5,0,5,0.1,7.5,0.1c4.1,0,8.2-0.3,12.2-1.7
		c1.7-0.6,3.5-0.3,4.1-2.5c0.2-0.5,1.1-1.2,1.4-1.2l0,0c1.1,0.7,2,0.9,3,0.9c2.6,0,4.9-1.9,7.5-2.2c4.6-0.5,8.2-3.6,7.6-8.2
		c-1.3-8.7-1.8-17.4-2.2-26.1c-0.1-3.7,1-5.3,5.2-6.1c14.9-2.5,29.9-3.5,44.7-6.7c0.8-0.2,1.5-0.3,2.2-0.3c2.1,0,3.6,1.1,3.9,4.8
		c1.1,15.3,2.7,30.7,4.5,46c0.7,6.1,1.7,12.1,2,18.2c0.1,1.8,0.8,2.6,2.7,3.4c6.9,2.8,12.1,7.9,16,14.3c0.7,1.1,1.1,2.4,1.2,3.7
		c0.4,3.5-0.3,5-2.5,5c-0.8,0-1.9-0.2-3.2-0.6c-4.5-1.4-8.3-4.6-13.4-4.9c-1.4-0.1-2.9-0.3-4.3-0.3c-0.8,0-1.6,0.1-2.5,0.3
		c-10.9,2.6-20.9,7.2-31.2,11.5c-11,4.5-21.3,10.4-32.7,14.1c-2.2,0.7-4.2,1.9-6.4,2.7c-2.6,1-2.5,2.6-0.7,4.1
		c5.4,4.2,6.4,9.6,3.8,15.5c-5.9,13.3-6.5,27.6-7.2,41.6c-0.4,8.6,1.2,17.6,3.9,26.2c4,13.1,9.8,25.7,11.1,39.5
		c0.8,8.4,3.4,16.4,4.1,24.7c1.2,13.6-6.3,23.5-14.3,33.6c-8.7,11-21,11.2-32.8,13.3c-5.7,1-11.6,1-17.3,1.7
		c-0.8,0.1-1.5,0.1-2.1,0.1c-4.2,0-5-2.3-2.9-7.2c3.9-9.4,11.1-16.2,19-21.9c13.5-9.9,20.1-22.6,19.5-39.4
		c-0.5-13.2-0.9-26.3-4.7-39.2c-2.5-8.5-3-17.5-4.4-26.3c-0.1-0.7,0.4-1.8-0.8-2c-0.2,0-0.4-0.1-0.6-0.1c-0.8,0-1.4,0.4-1.9,1.2
		c-1.5,2.4-3.1,4.7-4.6,7c-1.6,2.5,0.7,4.1,1.6,5.7c2.1,3.7,3.5,7.2,0.3,11c-2.6,3.1-3.8,6.9-4.6,10.8c-1.4,6.7-5.8,11.9-8.7,17.8
		c-1.4,2.9-5.8,5.4-8.9,8.1c-0.3,0.2-0.9,0.4-1.5,0.4c-0.4,0-0.7-0.1-0.8-0.2c-1.1-1.6-1.8-2.1-2.3-2.1c-1.1,0-1.2,2.4-1.7,3.6
		c-2.8,6.4-4.2,13.1-5.8,19.8c-1.1,4.6-1.3,8.9-1.6,13.4c-0.5,11,2.7,21.6,2.1,32.6c-0.3,4.9-3.8,10.5-13.4,11.7
		c-0.4,0-0.8,0.1-1.1,0.1c-4.7,0-9.3-3.7-10.5-8.7c-0.2-0.7-0.1-2,0.3-2.3c4.9-3.5,4.9-9,5.1-13.9c0.6-12.9,3-25.5,3.4-38.4
		c0.2-8.3-3.9-15.6-5.2-23.5c-0.2-1.1-1-1.2-1.9-1.2c-3.3,0-4.4-1.8-3.9-4.8c0.6-3-1.5-3.4-3.7-4c-9.3-2.9-18.4-6.3-26.4-12
		c-6.7-4.8-11-11.9-16.4-17.9c-8.6-9.5-14.7-20.5-17.9-33.1c-2.6-10.3-2.8-20.8-1.2-31.2c0.7-4.6,1.2-9.4,1.1-13.8
		c-0.4-9.9,3-18.8,5.5-28c1.1-3.8,3.3-8.2-2.9-10c-1.1-0.3-1.7-1.3-1.4-2.3c0.7-1.8,2.1-2.8,4.1-3c5.7-0.7,5.8-0.8,3.7-6.4
		c-0.8-2-0.4-3.6,0.5-5.2c1.6-3,1-6.2,0.8-9.3c-0.1-1.8-1-3.7-3.2-3.9c-0.1,0-0.3,0-0.4,0c-1.7,0-2.5,1.4-3.2,2.9
		c-3.5,7.3-8.3,13.9-12,21.2c-7.2,13.8-18.9,20.4-34.1,20.4c-0.6,0-1.2,0-1.7,0c-0.8,0-1.9,0.1-2.4-0.4c-4.7-4.5-9.3-9.1-13.8-13.7
		c-1.2-1.2-1.1-3.1-3.6-3.9c-2.3-0.7-3.3-4-1.6-6.7c0.6-1,1.4-1.9,2-2.8c1-1.7,2.2-3.6,1.2-5.6c-0.6-1.2-1.6-1.6-2.7-1.6
		c-0.9,0-1.9,0.3-2.7,0.5c-0.9,0.2-1.8,0.3-2.7,0.3c-3.7,0-7.3-1.4-11-1.4c-1.4,0-2.8,0.2-4.2,0.8c-0.2,0.1-0.3,0.1-0.5,0.1
		c-1.3,0-3.2-1.7-3.7-3.6c-0.7-2.3,0.9-3.3,2.6-3.9c1.4-0.5,2.3-0.9,1.5-2.7c-1.3-2.9,0-3.8,1.8-3.8c0.5,0,1.1,0.1,1.6,0.2
		c2.1,0.5,4.2,0.7,6.2,0.7c6.3,0,12-2.1,17.5-5.8c1.5-1,3-1.5,4.8-1.5c0.9,0,1.9,0.1,2.9,0.4c4.1,0.9,8.1,3.2,12.4,3.2
		c1.5,0,3-0.3,4.5-0.9c0.3-0.1,0.6-0.2,0.9-0.2c0.4,0,0.8,0.1,1,0.2c2.5,1.3,4.9,1.9,7.2,1.9c4.1,0,8-1.7,12-3.8
		c1.9-1.1,3.6-2.1,5-3.8c3.1-3.9,6.4-7.6,9.6-11.3c0.8-0.9,1.8-1.6,1.6-2.9c-0.9-10.1,4.4-17.8,9.7-25.6c2.7-3.9,4.5-8.1,2.1-12.9
		c-0.5-0.9-0.5-2,0.1-2.9c1.7-3.1,1.1-6-0.2-9c-1.2-2.8-0.8-4.9,2.8-4.9c0.1,0,0.1,0,0.2,0h0.1c2.8,0,2.8-2.1,2.2-3.7
		c-1.7-4.5,1.4-7.2,4.4-7.7c5.9-1,10.9-4.5,16.8-5.2C154.1,18.7,156.2,18.5,158.3,18.5 M232.4,177.6c1.5,0,2.6-0.9,3.4-2.6
		c2.5-5.6,7.5-9.4,11.1-14.2c5.8-7.7,11.4-15.5,17.2-23.3c0.7-1,1.2-2.2,0.5-3.2c-0.3-0.4-0.7-0.5-1-0.5c-0.7,0-1.5,0.5-2.2,0.7
		c-7,2.2-13.9,4.5-20.8,6.6c-3.2,1-6.4,1.5-9.5,1.5c-5.9,0-11.6-1.9-16.7-5.8c-6.9-5.2-13.3-11-19.9-16.6c-0.6-0.5-1.2-1-1.6-1.4
		l0,0c-1.1,0-1.5,0.4-1.8,1.1c-1.8,3.5-4.2,6.9-1.9,11c1.6,2.9,1,5.4-0.4,7.9c-1.2,2.2-1.4,4.7-3.2,6.7c-0.8,0.9-1.2,2.8,0.9,3
		c7.8,0.7,13.7,5.2,19.6,9.6c4.7,3.5,10.2,6.5,13.7,11.1c3,4,6.4,6.2,10.6,8C231.1,177.4,231.8,177.6,232.4,177.6 M69.9,137.7
		c0.9,0,1.9-0.5,3.2-1.2s2.5-1.5,3.7-2.4c1.7-1.3,1.9-2.7-0.3-3.8c-3.3-1.6-6.7-3.1-10.7-5c0.9,3.3,2.2,5.9,2.2,8.5
		C67.9,136.7,68.7,137.7,69.9,137.7 M260,160.6c0.5,0,1.1-0.3,1.6-0.6c6.8-3.9,14.6-3.1,21.9-4.3c3.3-0.5,5-1,4.4-4.7
		c-0.4-2.9-0.9-5.8-1.1-8.8c-0.5-7.3-0.6-9-5-9c-1.3,0-3,0.1-5.3,0.3c-0.1,0-0.3,0-0.4,0c-0.4,0-0.8-0.1-1-0.2
		c-0.9-0.5-1.6-0.8-2.2-0.8c-1.5,0-1.7,1.7-2,3.7c-0.6,3.9-1.7,7.7-4,10.8c-2.5,3.3-3.9,7.3-6.9,10.1c-0.8,0.7-1.3,1.8-0.8,2.7
		C259.3,160.5,259.6,160.6,260,160.6 M178,275.5c2.6,0,3.2-1.4,2.4-4.4c-1.1-4.4-3-8.4-4.1-12.8c-4.6-17.4-7.7-35.2-15.2-51.8
		c-1.3-2.8-3.1-4.8-5.5-6.8c-7.4-6.5-15.8-12.3-19-22.4c-0.3-0.9-0.5-1.5-1.5-1.6c-0.1,0-0.2,0-0.2,0c-1.2,0-1.4,1-1.7,1.9
		c-2.9,8.7-5.6,17.5-6.3,26.8c-1.2,16.3,4.6,30.7,12,44.7c3.1,5.7,6.2,11.7,11.3,15.6c7.7,6,16.8,9.7,26.6,10.8
		C177.3,275.4,177.7,275.5,178,275.5 M240.4,202.3c-1,0-2-0.2-3-0.2c-1.7,0-3.2,0.5-3.5,3.3c-0.9,8.3-1.5,16.7-2.1,24.8
		c0,2.1-0.1,3.9,0,5.8c0,0.9-0.5,2.1,0.9,2.5c0.2,0,0.3,0.1,0.4,0.1c0.9,0,1.3-0.9,1.6-1.7c1-2.4,2.1-4.8,3.1-7.2
		c3.3-7.7,7-15.3,6.8-23.9c0-1.6-0.3-3.9-1.7-3.9c-0.2,0-0.5,0.1-0.8,0.2C241.8,202.3,241.1,202.3,240.4,202.3 M210,307.6
		c1.4,0,1.2-1.4,1.5-2.2c0.4-1.3-0.2-1.7-1.2-1.7c-0.1,0-0.1,0-0.2,0c-1.3,0-1.2,1.1-1.2,2c0,0.7-0.3,1.8,0.8,1.9
		C209.8,307.6,209.9,307.6,210,307.6 M158.3,3.5L158.3,3.5c-2.5,0-5.2,0.2-8.1,0.5c-5.1,0.6-9.3,2.3-12.6,3.6
		c-1.9,0.8-3.7,1.5-4.9,1.7C126.4,10.4,121,14,118,19.4c-1,1.7-1.7,3.6-2.1,5.5c-1.2,1-2.2,2.1-3,3.4c-1.9,2.8-4.5,8.7-1.5,16.8
		c-1.2,3.7-1.3,7.7,0,11.5c0,0,0,0,0,0.1c-5,7.3-11.7,16.9-12.4,29.5c-2.6,3-5.1,5.9-7.5,8.9c-0.2,0.1-0.5,0.3-0.9,0.5
		c-3.3,1.8-4.5,2-4.7,2c0,0-0.1-0.1-0.3-0.1c-2.4-1.3-5.2-1.9-8-1.9c-2,0-4,0.3-5.8,1c-0.7-0.2-1.7-0.6-2.5-0.8
		c-1.8-0.6-3.9-1.3-6.2-1.9c-2.2-0.5-4.2-0.7-6.2-0.7c-4.8,0-9.2,1.4-13.2,4c-4.3,2.9-7.2,3.2-9.1,3.2c-1,0-2-0.1-3.1-0.3
		c-1.6-0.3-3.2-0.5-4.8-0.5c-6.2,0-11.5,2.8-14.7,7.6c-0.8,1.3-1.8,3.2-2.3,5.6c-3.8,4.5-5,10.4-3.4,16.2c2.4,8.5,10,14.6,18.2,14.6
		c1.6,0,3.2-0.2,4.7-0.7c0.1,1.8,0.5,3.7,1.2,5.4c1.4,3.8,4,7,7.3,9.1c0.5,0.7,1.1,1.4,1.8,2.1c4.5,4.6,9.3,9.3,14.1,14
		c4.7,4.5,10.4,4.6,12.3,4.6H66c0.7,0,1.5,0,2.2,0c10.4,0,19.7-2.4,27.7-7.1c0.6-0.4,1.2-0.7,1.8-1.1c-1.2,5.4-2.1,11.2-1.9,17.5
		c0.1,3.5-0.4,7.7-0.9,10.9c-2,13.1-1.5,25.6,1.5,37.2c3.7,14.6,10.9,27.9,21.4,39.4c1.4,1.6,2.9,3.4,4.4,5.3
		c3.8,4.8,8.2,10.3,14.4,14.7c8.1,5.8,16.9,9.5,25,12.3c0.8,2.1,1.9,3.7,2.8,4.7c0.8,1,2.1,2.4,4,3.5c0.3,1,0.6,2,0.9,2.9
		c1.2,3.8,2.2,7,2.1,9.5c-0.2,6.1-0.9,12.3-1.6,18.9c-0.7,6.2-1.4,12.6-1.7,19.3v0.7c0,0.8-0.1,1.9-0.2,2.7
		c-5.4,4.8-6.1,12-4.9,16.9c2.8,11.7,13.3,20.3,25.1,20.3c1,0,2-0.1,3-0.2c7.5-1,12.8-3.7,16.3-6.4c2.3,1,5.1,1.7,8.6,1.7
		c1.3,0,2.6-0.1,4-0.3c2-0.3,4.2-0.4,6.5-0.6c3.7-0.3,7.5-0.5,11.6-1.3c1.6-0.3,3.2-0.5,4.9-0.8c10.9-1.7,25.9-4,37-17.9
		c8.1-10.2,19.2-24.2,17.5-44.2c-0.4-5.1-1.4-9.7-2.3-14.2c-0.8-3.7-1.5-7.3-1.8-10.6c-1.1-11.8-4.7-22.2-8.2-32.2
		c-1.3-3.6-2.4-7-3.5-10.4c-2.4-7.9-3.5-14.9-3.2-21l0.1-1.1c0.6-12.7,1.2-24.8,5.8-35.1c2.6-5.8,3.3-11.6,2.2-17.1
		c4.8-2,9.4-4.1,13.8-6.2c4.1-1.9,8-3.8,11.9-5.4c1.8-0.7,3.6-1.5,5.4-2.2c7.9-3.3,15.4-6.5,23-8.4c0.3,0,0.6,0.1,0.9,0.1
		c0.6,0.1,1.3,0.1,2.1,0.2c0.5,0.2,1.8,0.8,2.7,1.2c1.9,0.9,4.3,2.1,7.1,3c2.8,0.9,5.3,1.3,7.6,1.3c5.2,0,9.8-2,13.1-5.7
		c3.6-4.1,5-9.5,4.2-16.1c-0.3-2.5-1.1-6.2-3.3-9.8c-4.6-7.4-10.3-13.2-17-17.2c-0.3-2.5-0.6-4.9-0.9-7.3c-0.2-1.8-0.5-3.5-0.7-5.2
		c-1.6-13.6-3.3-29.5-4.4-45.3C351.2,59,342,53.2,333.3,53.2c-1.7,0-3.5,0.2-5.4,0.6c-8.1,1.8-16.4,2.8-25.2,4
		c-6.1,0.8-12.4,1.6-18.7,2.6c-11.5,2-18.1,10-17.7,21.4c0.2,5.6,0.6,12.7,1.4,20.1c-0.8-0.1-1.5-0.2-2.3-0.2
		c-4.2,0-8.4,1.9-11.4,4.9c-1.5,0.4-3.4,0.6-6.3,0.6c-1.1,0-2.2,0-3.4,0c-1.3,0-2.7-0.1-4-0.1c-2.4,0-5.3,0.1-8.5,0.5
		c-1.3-0.9-2.6-1.8-4-2.8c-1.8-1.3-3.7-2.6-5.6-3.9l-0.1-0.1c-0.8-0.6-1.9-1.3-2.4-1.7c-2.8-7.5-7.4-13.7-13.6-18.2
		c0-0.4,0-0.9,0.1-1.3c0.1-1.2,0.1-2.3,0.2-2.9c1.1-6.4,1.6-18.2-8-26.2c-0.2-0.9-0.3-3.1-0.4-4.5c-0.1-2.3-0.3-5-0.8-7.9
		c-0.1-0.4-0.2-1.1-0.2-1.8c-0.3-2.6-0.7-6.6-2.7-10.8C186.5,11,174.7,3.5,158.3,3.5L158.3,3.5L158.3,3.5z M229.6,157.7l-0.1-0.1
		C229.6,157.6,229.6,157.6,229.6,157.7C229.7,157.6,229.7,157.6,229.6,157.7L229.6,157.7z M159.5,252.7L159.5,252.7
		c-2.5-1.9-4.8-6.3-7.1-10.6l-0.1-0.2c-5.6-10.5-10.7-22-10.4-34.4c0.3,0.2,0.6,0.5,0.8,0.7c1.1,0.9,2.1,1.8,3.1,2.7
		c1.3,1.2,1.6,1.6,1.7,1.8c5,11.1,8,23.2,11,36C158.9,250,159.2,251.3,159.5,252.7L159.5,252.7z M218.8,326.6c1.6-0.6,3.3-1.6,4.9-3
		c0.5-0.5,1.4-1.1,2.3-1.8c3-2.3,7.1-5.4,9.7-10.1c0.1,2.2,0.2,4.3,0.2,6.5v0.6c0.4,11.5-3.7,19.7-13.4,26.8
		c-2.3,1.7-4.9,3.7-7.6,6.1c-0.1-1.3-0.1-2.5,0-3.7v-0.3c0.2-3.8,0.4-7.1,1.1-10.1c0.3-1.3,0.7-2.7,1-4
		C217.6,331.1,218.2,328.8,218.8,326.6L218.8,326.6z"/>
</g>
</svg>
