<?xml version="1.0" encoding="utf-8"?>
<!-- Generator: Adobe Illustrator 24.1.0, SVG Export Plug-In . SVG Version: 6.00 Build 0)  -->
<svg version="1.1" id="Livello_1" xmlns="http://www.w3.org/2000/svg" xmlns:xlink="http://www.w3.org/1999/xlink" x="0px" y="0px"
	 viewBox="0 0 474 456.5" style="enable-background:new 0 0 474 456.5;" width="50" height="50" xml:space="preserve">
<style type="text/css">
	.st0{fill:#FEFEFE;}
</style>
<g id="_x35_B5M8X_1_">
	<g>
		<path class="st0" d="M247.4,442.8c-5.9,0-11.7-2.7-15.4-7.3c-3-3.7-4.2-8-3.3-12.1c0.3-1.3,0.7-2.5,1.3-3.6
			c-0.5-0.2-1.1-0.4-1.6-0.6c-1.2-0.4-2.2-1-3-1.4c-0.1-0.1-0.2-0.1-0.3-0.2c-3.3-0.2-5.2-2-6.1-3c-0.8-1-2-3-1.7-5.9
			c-4,2.5-8,3.2-11.1,3.2c-6.7,0-13.8-3.2-20-9.1c-8.1-7.6-11.4-17.9-9.1-28.2c1.6-7.4,6.1-13.9,12.3-18.5c-4.1-1.8-7.4-5.1-8.7-9
			c-3.8-11-3.1-20.8,1.9-29.4c-3.8-0.9-11.1-3.4-14.2-12c-1.1-3-1.8-5.8-2-8.6c-0.3,0.4-0.5,0.8-0.8,1.3c-3.5,5.8-4.6,12.3-2.9,17.5
			c7.5,22.3-2.1,48.5-21.3,58.4c-8,4.1-16.9,6.3-25.8,6.3c-17.9,0-34.1-8.6-44.5-23.6c-6.9-9.9-8-19.9-3.4-29.7
			c3.4-7.1,9.7-10.9,18.8-11l0.4,0c5,0,12,2,16.3,11.5c2.3,4.9,0.5,8.8-0.3,10.5l-0.2,0.3c-1.7,3.8-4.8,6.2-8.5,6.3
			c5.5,6,10.9,8.7,17.1,8.7c3.1,0,6.6-0.7,10.3-2.2c5.1-2,8.2-6.3,9.3-12.8c1.2-7.2,0.3-14.9-2.7-22.7c-1-2.5-1.6-4.9-2-7.3
			c-4,2.7-9.5,4.2-15.3,4.2c-5.6,0-10.9-1.4-14.7-4c-7.7-5.1-11.5-14.7-10.4-26.2c1.5-15.5,21.1-31.3,38.9-31.3
			c1.5,0,3.1,0.1,4.5,0.4c0.3,0.1,0.7,0.1,1,0.2c-0.5-1.1-0.8-2.3-0.9-3.6c-0.1-2,0.5-4.1,1.8-5.8c-1.1,0-2.4-0.2-3.8-0.5
			c-3.8-0.9-15.5-3.8-19.3-15.8c-2.5-7.8,1.8-21.2,11.2-27.4l0.8-0.5c3.9-2.6,8.3-5.5,13.7-6.9c0-1.5-0.5-2.9-1.5-4.5
			c-7.8-12-19.2-19.2-34.7-21.9c-0.1,0-0.1,0-0.2,0c-0.3,0-0.6,0.1-0.9,0.2c5.7,0.9,13.5,4.5,16.8,16.4c2.6,9.7-0.4,19.2-8.3,25.9
			c-5.5,4.6-12,6.6-17.8,8.3l-0.4,0.1c-1.3,0.4-2.7,0.6-4,0.6c-0.7,0-1.4-0.1-2-0.1c-0.6,2.7-1.5,5.3-2.7,7.8
			c-3.1,6.6-8.5,10.7-15.2,11.6c-2.2,0.3-4.3,0.4-6.4,0.4c-9.8,0-18.3-3-25.4-9c-5.1-4.3-7.8-9.4-8.3-15.4c-0.4-5,2.2-9.1,6.7-10.7
			c1-0.3,2.1-0.5,3.1-0.5c4,0,6.6,2.4,7.6,3.3l0.1,0.1c0.9,0.7,3.7,3,3.7,7.1c0,0.1,0,0.3,0,0.4c3.2,2,6.5,3,10.1,3c0,0,0.1,0,0.1,0
			c1.2-4.3-2.2-8.3-5.4-10.9c-2.2-1.8-4.5-3.4-7.1-5.1c-5-3.4-10.2-7-14.5-12.3c-11.6-14.4-16.1-30.1-13.6-48
			c1.8-12.9,8.6-24,19.8-32.3c8.9-6.6,20.3-11.1,32.2-12.9c4.5-0.7,8.9-1,13.2-1c14.4,0,27,3.8,38.5,11.5
			c8.2,5.5,15.7,11.9,22.1,17.4c0.3,0.2,0.6,0.5,0.8,0.8c1.4,0.6,2.6,1.3,3.7,1.9c0.6,0.4,1.5,0.9,2.1,1.1c5.6-4.3,7.4-7.6,6.9-12.1
			c-0.2-1.8-0.5-3.5-0.8-5.4c-1.2-7.4-2.5-15.8,0.9-24.7c0.2-0.4,0.3-0.9,0.4-1.3c0.4-1.4,1-3.2,2.1-5.1c1.7-2.9,3.3-6,5-9.3
			c3.6-7.1,7.3-14.4,13.3-20.6c6.7-6.9,14.8-14.5,25.1-17.4c4.1-1.2,8.1-3,12.4-4.9c7-3.2,14.3-6.4,22.9-7.2
			c2.4-0.2,4.7-0.4,7.1-0.6c5.4-0.4,11-0.9,16.4-1.6c0.9-0.1,1.9-0.2,2.8-0.2c4.1,0,7.9,1.2,11.5,3.5c1.9,1.2,2.5,1.3,2.7,1.3
			c0,0,0.1,0,0.3-0.1c1.3-0.6,2.6-0.9,4-0.9c0.8,0,1.6,0.1,2.4,0.4c2.7,0.8,5.5,1.4,8.5,2.1c8.6,1.8,18.4,3.9,26.3,12
			c3,3.1,6.7,6.7,10.7,9.6c8,5.8,12.1,13.7,15.4,21.5c0.9,2,2.3,4.1,4,5.7c7.8,7.5,9.9,16.6,11.6,26.1c0.1,0.6,0.2,1.2,0.3,1.8
			c0.7,3.7,1.4,7.7,0.9,12.2c1-0.9,1.8-2.4,2-4.1c0.4-3.8,1.4-7.7,2.9-12c3.1-8.7,10.6-14.1,19.5-14.1l0.3,0
			c8.1,0.1,14.3,4.9,18.4,14.4c3.4,7.9,3.4,16.7,0.1,24.8c-3.5,8.4-10.4,15.3-18.4,18.4c-2.6,1-5.2,1.5-7.6,1.5
			c-2.8,0-5.5-0.7-7.8-2c-2.6,1.3-5.3,2.2-7.9,2.7c-0.1,2.6-0.6,4.9-1,6.8c-0.2,0.9,0.3,1.7,0.5,2c0.7,0.9,1.7,1.6,2.8,1.7
			c2.2,0.3,4,0.4,5.5,0.4c2.9,0,5.1-0.4,7.2-1.4c6.3-2.9,12.7-4.4,19.1-4.4c7.6,0,15.1,2.1,22.4,6.2c5.3,3,9,7.3,11,12.7
			c1.9,5.2,1.6,10.2-0.6,14.3c4.7,2.4,8.2,6.4,9.1,11.1c2.5,12-1.7,20-12.6,24.2c-3.9,1.5-7.9,2.3-11.8,2.3c-3.2,0-6.2-0.5-9-1.5
			c-0.1,3.3-1.4,6.7-3.9,9.6c-3.7,4.4-9.3,7.3-14.7,7.7c-0.7,0-1.4,0.1-2.1,0.1c-6.9,0-15.2-2.8-15.5-16.3c0,0,0-0.1,0-0.1
			c-3.2,0.9-6.5,1.4-9.7,1.4c-2.1,0-4.3-0.2-6.5-0.6c-3.2,12.3,0.1,22.8,10.2,32c6.3,5.8,12.2,10.7,19.9,11.6
			c1.1,0.1,2.2,0.2,3.3,0.2c5.2,0,9.5-1.5,13.5-4.8c7.7-6.3,15.8-9.9,24.7-11c0.8-0.1,1.6-0.1,2.4-0.1c9.8,0,25,6.9,29.9,15.7
			c0.9,1.7,3.6,6.5,2,12.4c4.5,2.2,5.4,6.3,4.8,9.4c-0.3,1.7-1.9,7.1-9.2,7.4l-0.2,0c-0.3,0-0.7,0-1,0c-3.6,0-7-1.5-9.6-4.1
			c-2.8-2.8-4.3-6.6-4.3-10.4c0-1.7-0.1-2.6-2.9-3.6c-2.1-0.7-4.4-1.5-6.1-1.5c-1,0-1.3,0.2-1.7,0.7c-6,7.1-15.2,16.1-29.1,19.2
			c1,1.5,1.8,3.1,2.6,4.8c5.1,10.9,5.6,22.4,1.3,34c-3.2,8.6-12.6,14.9-22.5,14.9c-3.2,0-6.1-0.6-8.8-1.9
			c-8.8-4.2-10.6-10.8-10.6-15.6c0-0.6,0-1.5,0.1-2.5c-0.8,0.4-1.8,0.8-2.8,1.1c-2.9,0.9-5.8,1.4-8.7,1.4c-4.1,0-8.1-0.9-11.9-2.7
			c-0.7,4.6-1.7,9.1-2.7,13.4c-0.3,1.3-0.7,2.5-1.2,3.6c0,0,0,0,0,0c3.2,2.1,5.1,5.5,5.2,9.3c0,1.9-0.5,6.6-6.2,8.9
			c-2.3,1.5-5.2,3.4-8.9,3.6c-0.5,3.5,0,7,0.8,9.6c0.8,2.7,1.8,5.2,3.1,7.3c-0.8-5.4,0.6-9.9,4.1-13.4c4-3.9,8.2-4.7,11-4.7
			c1.4,0,2.8,0.2,4.2,0.6c7.1,1.9,12.4,6.2,15,12.3c2.8,6.4,2.1,14.4-1.7,21.3c-6.2,11.3-15.8,17.2-27.5,17.2c-4,0-8.4-0.7-13-2.1
			c-1.8-0.6-3.6-1.2-5.3-1.9c0.1,1.1,0,2.1-0.1,2.9c-0.4,2.5-2.5,10.5-14.3,10.5c-3.9,0-6.8-1.7-8.7-2.8c-0.3-0.2-0.5-0.3-0.8-0.4
			c-2.4-1.3-3.6-3-4.2-4.5c-0.3-0.1-0.7-0.3-1-0.4c-1.5,6.5-5,12.1-10.3,16.8c-1.4,1.2-2.9,2.1-4.4,2.8c0,0.5,0.1,1.1,0.1,1.6
			c0,2.9-1.7,5.6-4.4,6.8c-1,0.5-2.1,0.7-3.1,0.7c-1.4,0-2.8-0.4-4-1.2c-0.3,0.1-0.5,0.3-0.7,0.4C253.8,442,250.6,442.8,247.4,442.8
			z M207.8,377.2c-0.2,0.2-0.4,0.3-0.6,0.5c-1,0.9-1.7,2.2-2.5,4.4c-0.3,0.8-0.2,2.9,0.7,4.2c0.4,0.6,0.8,0.7,1.4,0.7
			c0.1,0,0.2,0,0.3,0c1.2-0.1,2.2-0.9,4.4-2.7c0.6-0.5,1.1-1,1.7-1.4c0.2-0.2,0.4-0.3,0.6-0.5c-2.1-1.4-4-3.1-5.8-5
			C208,377.3,207.9,377.3,207.8,377.2z M199.7,335.6c1.8,0,3.5,0.6,4.9,1.6c0.3-1.2,0.3-2.8,0.2-5.4l0-0.6c0-0.9,0-1.8,0-2.6
			c-0.4,0-0.7,0-1.1,0c-1.1,0-2.3-0.1-3.5-0.4c0,0,0,0,0,0c-2,3.4-2.9,5.7-3,7.7C198,335.7,198.8,335.6,199.7,335.6z M370.4,309.9
			c1.7,0,3.3,0.6,4.7,1.6c-1.6-7.2-6.6-12.1-16.4-15.9c-1.1-0.4-2.2-0.9-3.4-1.2c0.4,1.9,0.7,3.7,0.8,5.4c0.2,0,0.4,0,0.6,0
			c0.1,0,0.3,0,0.4,0c2.5,0,4.7,0.9,6.3,2.7c2.2,2.4,2.3,5.1,2.2,6.5c0.1,0.8,0.2,1.6,0.2,2.3c0.6-0.3,1.3-0.6,2-0.8
			C368.8,310,369.6,309.9,370.4,309.9z M120.3,279.6c-2,0-4.3,1.2-7,3.7c-4.1,3.8-3.5,5.3-2.9,6.8c0.6,1.5,2.6,3,4.1,3
			c1.1-6,5.9-7.6,8.8-7.6c0.2,0,0.5,0,0.7,0c1.8,0.1,3.5,0.8,4.9,1.8c0.4-0.9,0.7-1.8,1.1-2.6c-0.9-0.6-1.7-1.1-2.5-1.7
			c-1.7-1.2-3.3-2.3-4.8-2.9C121.9,279.7,121.1,279.6,120.3,279.6z M372.7,185.6c2.2,0,4.4,0.2,6.5,0.5c1.7,0.2,3.2,0.6,4.7,1.1
			c-0.1-3.8,0.9-7.5,3.7-11.6c-0.6,0.2-1.2,0.4-1.9,0.8c-9.3,5.6-18.4,8.3-27.8,8.3c-2.1,0-4.3-0.1-6.4-0.4c-0.1,0-0.2,0-0.3,0
			c-0.5,0-0.6,0.2-0.6,0.3c0,0,0,0,0,0c0.2,0.2,0.6,0.5,1.3,0.8c2.2,1.1,4.4,1.7,6.6,1.7c0.9,0,1.9-0.1,2.8-0.3
			C365.4,186,369.1,185.6,372.7,185.6z M49.3,154.6c0.9,8.1,4.7,14.4,12.2,20.5c0.6,0.5,1.2,1,1.8,1.5c0.4,0.3,0.8,0.6,1.2,0.9
			c-0.5-0.9-0.9-1.9-1.4-2.9c-3.4-8.1-2.3-18.4,3-27.4c4.4-7.5,10.8-13,17.9-15.5c-1.8-0.3-3.5-0.5-5.3-0.5
			c-6.3,0-12.5,2.1-19.1,6.5C53.8,141.4,50.4,147.1,49.3,154.6z"/>
		<path d="M260.2,21.9c2.6,0,5.1,0.8,7.5,2.3c2.1,1.4,4.4,2.5,6.8,2.5c1.1,0,2.3-0.2,3.5-0.8c0.2-0.1,0.5-0.2,0.7-0.2
			c0.1,0,0.1,0,0.2,0c10.8,3.3,22.9,3.2,31.6,12.1c3.6,3.7,7.4,7.4,11.6,10.4c6.5,4.7,9.9,11.2,12.9,18.3c1.3,3,3.4,5.9,5.7,8.2
			c6.3,6.1,8,13.9,9.4,22c0.8,4.8,2.1,9.4,0.7,14.4c-1.2,4.2,1.4,6.8,5.7,6.8c0.2,0,0.4,0,0.7,0c5.5-0.3,10.4-5.3,11.1-11.8
			c0.4-3.6,1.3-7,2.5-10.3c2-5.7,6.6-9.1,12.5-9.1c0.1,0,0.1,0,0.2,0c6.1,0.1,9.4,4.8,11.6,9.9c6.3,14.5-3.4,29-14.2,33.2
			c-1.6,0.6-3.3,1-4.9,1c-1.7,0-3.3-0.4-4.8-1.5c-1.1-0.7-1.9-1.1-2.8-1.1c-0.8,0-1.6,0.3-2.5,0.8c-3,1.7-6.2,2.8-9.6,2.9
			c-2.7,0.1-3.8,1.4-3.6,4.1c0.2,2.8-0.2,5.4-0.8,8.1c-1.4,5.9,3.3,12.1,9.7,12.9c2.1,0.3,4.3,0.5,6.4,0.5c3.5,0,7-0.5,10.4-2.1
			c5.3-2.5,10.7-3.7,15.9-3.7c6.3,0,12.5,1.8,18.7,5.3c3.6,2.1,6.3,4.9,7.7,8.8c2,5.5,0.1,10.1-5.3,12.3c-3,1.2-6.2,2-8.9,3.8
			c-3.7,2.5-5.1,6.3-4.5,10.4c0.5,3.5,2.3,6.7,6.2,7.8c0.8,0.2,1.6,0.3,2.5,0.3c3.7,0,7.9-1.6,9.7-4c2.4-3.1,1.1-5.1-4.5-6.9
			c-1.6,1.4,3.1,3.3-0.2,4.2c-0.3,0.1-0.6,0.1-0.8,0.1c-1.6,0-3-1.3-4-2.9c-2.1-3.8,0.1-8,4.4-8.4c0.4,0,0.7,0,1.1,0
			c5.8,0,11.4,3.4,12.2,7.6c1.8,8.5-0.4,12.8-8,15.7c-3.1,1.2-6.2,1.8-9.1,1.8c-9.4,0-17-6.1-19.5-16.5c-1.8-7.7,0.3-11.9,10.3-20.4
			c-4.3-1.7-8.5-3.2-12.6-3.2c-2.6,0-5.2,0.6-7.8,2.1c-7.6,4.6-15.4,7.3-24,7.3c-1.8,0-3.6-0.1-5.4-0.4c-0.4-0.1-0.8-0.1-1.3-0.1
			c-4.1,0-7.1,2.7-7.9,6.2c-1,4.6,1.5,7.3,5.2,9.2c3.2,1.6,6.5,2.5,10,2.5c1.4,0,2.9-0.2,4.4-0.5c3.2-0.7,6.5-1.1,9.8-1.1
			c1.8,0,3.6,0.1,5.4,0.4c10.9,1.6,15.9,10,17,19.6c0.5,4.7-5.8,10.2-11.6,10.6c-0.6,0-1.1,0.1-1.6,0.1c-5.8,0-7.9-2.4-8-9
			c-0.1-3.8,1-5.6,3.9-5.6c1,0,2.3,0.2,3.8,0.6c-1.7,1.9-4.5,3.4-2.7,6.4c0.5,0.9,1,2,2.3,2c0,0,0,0,0,0c1.3,0,2-0.9,2.3-1.9
			c1-3.2,0.8-6.4-1.1-9.3c-1.3-1.9-3.1-2.4-4.9-2.4c-0.7,0-1.4,0.1-2.1,0.2c-3.5,0.5-6.9,1.5-10.3,2.6c-2.8,0.9-5.6,1.3-8.4,1.3
			c-1.9,0-3.8-0.2-5.7-0.6c-0.9-0.2-1.7-0.3-2.4-0.3c-2.9,0-4.5,1.6-5.5,5.4c-4.3,15.9,0.4,29.1,12.2,39.9
			c6.9,6.3,14.1,12.4,24.1,13.5c1.4,0.2,2.8,0.2,4.1,0.2c6.8,0,12.8-2,18.3-6.5c6.1-5,12.8-8.4,20.8-9.3c0.5-0.1,1-0.1,1.5-0.1
			c7.7,0,20,5.8,23.3,11.8c1.2,2.2,2.2,4.7,1.1,7.5c-1.2,3.4,0.1,5.9,3.2,7.6c0.8,0.4,2,0.4,1.7,1.7c-0.3,1.5-1.6,1.2-2.6,1.3
			c-0.1,0-0.3,0-0.4,0c-3.3,0-6.5-3.1-6.4-7c0-5.7-2.9-8.9-7.9-10.6c-2.8-1-5.8-1.9-8.6-1.9c-2.7,0-5.3,0.9-7.4,3.4
			c-8.9,10.4-19.1,17.7-34,17.7c-1.2,0-2.3,0-3.6-0.1c4.2,5.4,7.6,9.6,9.9,14.5c4.4,9.3,4.5,18.8,1,28.2c-2.2,6-9.1,10-15.5,10
			c-2,0-3.9-0.4-5.6-1.2c-3.6-1.7-6.3-4.2-6.3-8.8c0-3.5,0.5-6.4,4.2-7.7c1.6,1.6-0.4,2.5-0.4,3.8c0,2.3,0.1,4.2,2.3,5.6
			c1,0.6,1.9,0.9,2.7,0.9c1.1,0,2.2-0.4,3.3-1.2c4.3-3,5.1-7.4,4.7-12.3c-1.1-13.7-9.9-20.9-21.5-25.6c-4.2-1.7-8.5-3-13-3
			c-1.2,0-2.4,0.1-3.6,0.3c5.9,16.5,5.1,21.2-4.1,22.5c1.7,3.4,5.5,5.6,9.2,5.6c1.1,0,2.2-0.2,3.2-0.6c1.6-0.6,2.3-1.8,2-3.6
			c-0.3-1.4,0.6-2.5,1.9-2.6c0,0,0.1,0,0.1,0c1.6,0,0.8,1.6,1,2.5c1,3.9-1.4,5.9-4.5,6.9c-2.2,0.7-4.3,1-6.4,1
			c-4.9,0-9.4-1.9-13.5-5.1c-4-3.2-4-8.6-0.5-12.4c1.1-1.2,1.2-1.8,0-2.9c-1.6-1.4-3.2-2.7-5.6-2.8c2.9,13.6,0.7,26.7-2.3,39.7
			c-0.8,3.5-3.2,6.6-4.9,9.9c-0.7,1.5-1.2,3,0.5,4.1c0.4,0.3,0.8,0.4,1.1,0.4c0.9,0,1.5-1,2.2-1.7c0.6-0.6,1.2-1.4,2.1-1.4
			c0.3,0,0.7,0.1,1.1,0.4c1.1,0.7,1.7,1.8,1.8,3.1c0,1.7-1.4,1.6-2.5,2.2c-2,1.3-3.9,2.6-5.8,2.6c-1.2,0-2.5-0.5-3.9-1.9
			c-8.6,14.8,1.9,35.1,11.5,40.3c1.9,1.1,4.1,1.6,6.2,1.6c3,0,6-1.1,8.4-3.2c4.2-3.7,5.4-7.7,3.7-12.2c-0.9-2.3-2.6-3.8-4.7-4.9
			c-0.8-0.4-1.7-0.8-2.6-0.8c-0.6,0-1.2,0.2-1.8,0.6c-1.5,1.1-1,2.7-1.2,4.3c-0.1,1,2.4,2.3,0,2.9c-0.3,0.1-0.5,0.1-0.8,0.1
			c-1.4,0-2.6-1.1-2.9-2.7c-0.5-2.8-0.4-5.4,1.8-7.6c1.7-1.7,3.6-2.6,5.7-2.6c0.7,0,1.5,0.1,2.3,0.3c11.8,3.1,13.4,14.2,8.7,22.7
			c-5,9-12,13.3-21,13.3c-3.3,0-7-0.6-10.8-1.8c-10.2-3.1-17.6-9.3-21.4-19.2c-0.6-1.6-1.2-2.2-1.8-2.2c-0.7,0-1.4,0.8-2.2,1.5
			c-2.8,2.6-4.1,6.1-5.6,9.5c-0.6,1.3-0.2,2.2,1.7,3c5.4,2.1,5.5,4.1,0.8,7.6c2.4,1.6,5.1,1.8,7.9,2.2c2.6,0.4,6.2,1.1,5.7,4.6
			c-0.5,3.3-3.7,4.1-6.9,4.1c0,0,0,0,0,0c-2.3,0-4.2-1.4-5.9-2.3c-2.3-1.2,1.1-1.7,1.2-3.2c-3.8-1-7.9-1.4-10.7-5
			c-0.4-0.5-0.9-0.7-1.5-0.7c-1.1,0-2.5,0.8-3.6,0.8c-1.3,0-0.7,1.8-0.7,2.7c-0.2,7.3-3.1,13.3-8.6,18.1c-2.4,2.1-5.2,2.5-8.1,2.7
			c-1.9,0.1-3.9,0-5.9,0.4c3.6,0.8,7.3,1.4,7.2,6.9c-1.3-1.1-2.5-1.6-3.6-1.6c-1.6,0-3.1,0.8-4.8,1.8c-1.7,1-3.5,1.4-5.4,1.4
			c-3.6,0-7.3-1.7-9.6-4.5c-3.2-4-2.3-8.3,2.2-10.7c2.7-1.4,5.5-1.6,8.3-1.6c1.2,0,2.5,0,3.7,0c0.1,0,0.1,0,0.2,0
			c6.1,0,6.8-0.6,7.7-6.6c0.6-4.4-1-8.2-3.2-11.7c-0.5-0.7-1.4-1.7-2.5-1.7c-0.2,0-0.4,0-0.6,0.1c-1.2,0.3-0.8,1.4-1,2.3
			c-1.1,8.8-6.7,12.8-13.6,12.8c-2.5,0-5.3-0.5-8-1.6c-1.4-0.5-2.7-1.4-4.1-2c-0.2-0.1-0.4-0.1-0.6-0.1c-0.2,0-0.5,0-0.7,0
			c-0.6,0-1.1-0.1-0.8-1.3c0.2-1.1,1.5-1.4,2.6-1.4c0,0,0.1,0,0.1,0c1.9,0,3.6,0.8,5.3,1.3c1.1,0.4,2.2,0.5,3.3,0.5
			c3.6,0,6.8-2.1,8.6-6.2c-1.2,0.5-2.3,0.6-3.4,0.6c-3,0-5.8-1.3-8.7-1.3c-0.8,0-1.6,0.1-2.4,0.3c-0.1,0-0.2,0-0.3,0
			c-0.7,0-1.6-0.5-1.6-1.6c-0.1-1.4,0.9-2.1,1.9-2.2c0.5,0,1,0,1.4,0c1.3,0,2.5,0.1,3.8,0.1c0.4,0,0.8,0,1.2,0c0.1,0,0.1,0,0.2,0
			c0.5,0,1.1,0.1,1.6,0.1c0.9,0,1.6-0.2,1.6-1.3c0-1.5-1.4-3.1-3.1-3.1c-0.3,0-0.5,0-0.8,0.1c-2,0.6-3.9,1.1-5.9,1.1
			c-0.7,0-1.5-0.1-2.2-0.2c-0.1,0-0.2,0-0.2,0c-0.5,0-0.8,0.3-1.2,0.8c-1.3,1.8-2.3,2.8-3.2,2.8c-1.1,0-2.2-1.3-3.5-3.9
			c-1.4,0-1.4,1.4-1.9,2.2c-3.5,4.7-7.6,6.6-11.9,6.6c-5.1,0-10.3-2.8-14.8-7c-13.8-13-7.2-33.3,10-38.9c3.9-1.3,6.5-2,5.7-7
			c-0.4-2.3,0.7-5.5,2.3-7.3c3.5-4,3.2-8.4,3.1-13c-0.2-4.8,0.3-9.4,2.5-13.8c-0.5-0.2-0.9-0.3-1.2-0.3c-1.2,0-1.8,0.9-2.5,1.4
			c-2.3,1.5-4.6,2.8-7.3,2.8c-0.7,0-1.4-0.1-2.1-0.2c-0.6-0.1-1.2-0.2-1.7-0.2c-2.5,0-4.7,1.4-6.1,3.8c-3,5.1-5.4,10.3-3.3,16.5
			c1.1,3.2,2.4,4.8,4.1,4.8c1.2,0,2.6-0.8,4.3-2.4c0.3-0.3,0.6-0.4,0.8-0.4c0.4,0,0.7,0.3,0.9,0.8c1.3,2.4,0.9,4.6-1.7,5.8
			c-0.8,0.4-1.7,0.5-2.6,0.5c-3.5,0-7.5-2.3-8.6-5.4c-3-8.7-3-17.2,2.5-25.1c1.9-2.7,4.2-4.5,7.6-5.5c7.5-2.1,11.5-15.2,6.8-21.3
			c-0.8-1-1.7-1.1-2.7-1.4c-3.5-1-6.7-2.6-8.2-6.1c-0.7-1.7-1.5-2.3-2.5-2.3c-0.8,0-1.7,0.4-2.6,1c-4.2,2.6-7.7,11-6.7,15.9
			c0.6,3.1,3.4,5.5,6.2,5.5c0.4,0,0.8,0,1.2-0.2c3.2-0.8,5.1-4.7,4.1-8c-0.3-0.9-0.3-1.9-1.5-2.1c-1.4-0.2-2.6-0.5-1.6-2.3
			c0.5-0.8,1.1-1.1,1.7-1.1c0.6,0,1.2,0.2,1.9,0.6c4.2,2.2,5.4,8.7,2.2,13.3c-2.1,3.1-5.1,5-8.6,5c-0.7,0-1.4-0.1-2.1-0.2
			c-4.4-0.9-8.3-2.6-10.1-7.5c-3.2-8.7-2.1-16.5,4.8-23.7c-17.5,2.8-29.9,23.2-24.6,38.8c6.5,19.3-1.8,41.2-17.6,49.3
			c-7,3.6-14.7,5.4-22.4,5.4c-14.5,0-28.8-6.6-38.3-20.3c-4.7-6.8-6.6-14.1-2.8-22.2c2.5-5.3,7.1-6.6,12.2-6.7c0.1,0,0.1,0,0.2,0
			c4.6,0,7.6,2.9,9.5,7.1c0.9,2,0.1,3.2-0.5,4.7c-0.4,0.9-1.1,1.8-2,1.8c-0.1,0-0.2,0-0.4-0.1c-1.7-0.5-0.4-1.6-0.3-2.5
			c0.5-2.9-1.6-4.4-3.9-4.6c-0.2,0-0.5,0-0.7,0c-2.9,0-5.4,1.4-6.2,4.7c-0.9,3.9,0.4,7.6,2.5,10.5c7.4,9.7,15.8,15.7,26.4,15.7
			c4,0,8.3-0.8,13-2.7c8.3-3.2,12.6-10.3,14-18.6c1.5-9,0.2-18-3.1-26.7c-4.4-11.3-0.8-21.6,5.2-32c-5.6-1.4-9.5-5.9-14.6-8.1
			c-1.9-0.8-3.8-1.2-5.5-1.2c-4.5,0-8.4,2.4-12.1,5.7c-4.5,4.1-7.2,8.7-4.8,15c1.7,4.4,6.5,7.8,11.2,7.8c0.4,0,0.9,0,1.3-0.1
			c3-0.4,5.7-1.7,5.9-5.4c0.1-1.1,0.2-2.1,1.5-2.1c0.1,0,0.1,0,0.2,0c1.2,0.1,1.9,1,2.1,2.2c0.6,3.2-1,5.3-3.4,7.1
			c-2.9,2.1-7.2,3.1-11.4,3.1c-3.9,0-7.8-0.9-10.6-2.7c-5.8-3.9-7.8-11.3-7.1-19.2c1.1-11.2,17.2-24.6,31.4-24.6
			c1.1,0,2.2,0.1,3.3,0.3c1.6,0.3,3.3,0.9,4.7,1.8c3.4,2.2,6.5,3.1,9.3,3.1c6.3,0,10.9-5,13.7-11.7c3.8-9,3.2-18.3-1.4-27
			c-3.1-5.9-9-9.2-15.5-9.2c-0.9,0-1.8,0.1-2.8,0.2c-4,0.6-4.6,3.9-4.8,6.9c-0.2,3.7,2.3,5.7,5.8,5.8c6,0.2,11.1,1.9,14.8,7.1
			c3.3,4.7,3,7.5-1.4,11.5c-2.4,2.2-5,3.2-7.8,3.2c-1.2,0-2.5-0.2-3.7-0.6c-0.9-0.3-2-1-2.1-2.3c-0.1-1.1,0.8-1.1,1.6-1.1
			c3.4-0.2,6.2-1.5,5.8-5.4c-0.3-3.9-3.2-5.8-6.8-6.3c-0.8-0.1-1.6-0.1-2.3-0.1c-0.9,0-1.7,0-2.6,0c-1.1,0-2.3-0.1-3.4-0.3
			c-6.2-1.5-11.9-4.3-13.9-10.8c-1.8-5.6,2.7-15.3,8.2-18.9c4.3-2.9,8.7-5.9,14-6.8c2.4-0.4,3.2-1.8,3.6-4c0.8-4.2-0.2-8-2.4-11.4
			c-9.4-14.5-23.1-22.3-39.7-25.2c-0.5-0.1-1-0.1-1.5-0.1c-2.8,0-5.4,1.3-7.4,3.2c-2.2,1.9-2.5,4.9-1.9,7.7c0.6,2.8,3.1,3.9,5.6,4.1
			c7.2,0.4,10.7,5,12.4,11.2c2,7.2-0.4,13.5-6,18.3c-4.4,3.7-10.1,5.3-15.5,6.9c-0.6,0.2-1.3,0.3-1.9,0.3c-3.2,0-5.9-2.4-8.9-4.9
			c0.8,6.3-0.1,11.7-2.6,16.9c-1.9,4.1-5,6.8-9.3,7.3c-1.8,0.2-3.7,0.3-5.5,0.3c-7.5,0-14.5-2.1-20.5-7.2c-3.1-2.6-5.3-5.9-5.7-10.2
			c-0.1-1.4,0.3-2.5,1.6-3c0.2-0.1,0.5-0.1,0.7-0.1c1,0,1.9,0.7,2.6,1.4c0.8,0.7,2.2,1.4,0.5,2.8c-1.5,1.3,0,2.3,0.8,2.9
			c5.2,4.3,11,6.7,17.6,6.7c1,0,1.9,0,2.9-0.1c2.4-0.2,3.2-2,4-3.9c2.8-7-0.2-14.2-7.3-20.1c-6.7-5.6-14.9-9.4-20.5-16.3
			c-10-12.3-14.2-26-12-42.3c3.3-23.9,26.4-36,45.7-38.8c4.1-0.6,8.1-0.9,12.1-0.9c12.1,0,23.6,3,34.3,10.2
			c7.6,5.1,14.5,10.9,21.4,16.9c0.7,0.6,1.3,1.4,2.1,1.7c3.2,1.2,6.3,4.1,9.7,4.1c1.2,0,2.5-0.4,3.8-1.4
			c6.1-4.7,11.2-10.3,10.2-19.2c-1-8.8-3.7-17.7-0.3-26.6c0.6-1.7,1-3.6,1.9-5.1c5.7-9.5,9.4-20.5,17.2-28.4
			c6.2-6.3,13.2-13,21.7-15.4c11.6-3.3,21.7-10.8,33.9-11.8c7.9-0.7,15.9-1.2,23.8-2.2C259,21.9,259.6,21.9,260.2,21.9 M375,125.1
			c6.9,0,13.2-10.2,10.2-17c-0.6-1.3-1.2-2.7-2.7-2.7c0,0,0,0-0.1,0c-1.7,0-1.8,1.7-2.2,3c-1.9,5.4-5,10.5-5.8,16.7
			C374.6,125.1,374.8,125.1,375,125.1 M72.7,199.4c0.5,0,1.2-0.5,1.8-1.5c1.8-2.7,4.4-4.2,7.6-4.8c0.3-0.1,0.6-0.1,0.8-0.1
			c1.3,0,2.5,0.6,3.1,1.9c0.7,1.7-0.9,1.9-2.1,2.3c-1.6,0.6-1.8,1.9-1.7,3.4c0.1,0.8,0.3,1.4,1.3,1.5c0.2,0,0.3,0,0.5,0
			c4.4,0,11.2-6.2,11.7-10.9c0.5-5.3-2.1-7.6-9.4-7.7c-8.4-0.1-13.4-4.7-16.4-11.9c-5.5-13,6.1-32.1,20.2-33.8
			c3.9-0.5,7.7-1.1,11.7-1.1c0.4,0,0.8,0,1.2,0c0.3,0,0.6,0.1,0.9,0.1c0.5,0,0.9-0.1,1.2-0.6c0.3-0.6,0.1-1.2-0.5-1.5
			c-3.8-2-6.2-5.7-10.2-7.5c-5.4-2.4-10.6-3.6-15.7-3.6c-8,0-15.8,2.8-23.2,7.7c-8.4,5.5-12.5,13.9-13.7,23.1
			c1,11.6,6.7,19.7,15,26.5c5.8,4.7,12.1,8.9,14.5,16.7C71.6,198.8,72.1,199.4,72.7,199.4 M215.5,274.9c0.2,0,0.4-0.1,0.5-0.3
			c1.4-1.9-0.4-3.4-0.7-5.1c0-0.2-0.4-0.3-0.7-0.7c-1.4,1.9-1.4,3.7-0.1,5.5C214.7,274.7,215.2,274.9,215.5,274.9 M248.6,357.3
			c1.1,0,2.2-0.2,3.3-0.7c8.6-3.4,11.8-9.3,12.9-21.4c-0.3-7-3.1-13.1-10-16.8c-1-0.5-1.8-0.8-2.7-0.8c-1,0-1.9,0.5-3,1.6
			c-4.4,4.9-4.6,5.6-0.7,10.9c7.4,9.8,6.9,13.6-2.7,20.2c-1.2,0.8-2.2,1.6-1.9,3.3c0.4,1.8,1.2,3.2,3,3.6
			C247.6,357.3,248.1,357.3,248.6,357.3 M269.8,375.9c0.8,0,1.4-0.9,2.1-1.2c1.6-0.6,3.1-1.2,4.6-1.9c1.1-0.5,2.3-1,2.2-2.4
			c0-1.9-0.9-3.1-2.4-3.1c-0.1,0-0.3,0-0.4,0c-3.1,0.4-5.6,2.1-7.2,4.8c-0.5,0.9-0.7,2.2,0.1,3.1
			C269.1,375.7,269.5,375.9,269.8,375.9 M206.8,394.6c0.3,0,0.7,0,1,0c4.4-0.4,7.1-3.4,10.1-5.8c3-2.4,6-4.5,10.2-4.5
			c0.6,0,1.2,0,1.9,0.1c-2-2.8-3.8-4.2-6.2-5.2c-3.9-1.5-7.3-3.7-10.2-6.8c-2.2-2.4-3.8-3.6-5.5-3.6c-1.7,0-3.4,1.2-5.9,3.4
			c-2.2,2-3.6,4.7-4.5,7.3C195.6,385,198.5,394.6,206.8,394.6 M279.3,394.3c0.1,0,0.2,0,0.3,0c1.1-0.1,1.5-1.1,1.5-2
			c0-2.8,1.7-5.1,2.1-8.4c-5.6,2.5-7.4,5.2-5.9,8.5C277.7,393.4,278.2,394.3,279.3,394.3 M222.6,391.4c2.8-1.1,6.5,0.4,8.7-3.3
			c-1.1-0.3-2.1-0.5-3.1-0.5C225.9,387.6,224,388.7,222.6,391.4 M260.2,6.9C260.2,6.9,260.2,6.9,260.2,6.9
			C260.2,6.9,260.2,6.9,260.2,6.9c-1.3,0-2.5,0.1-3.8,0.3c-5.2,0.7-10.4,1.1-16,1.6c-2.3,0.2-4.8,0.4-7.2,0.6
			c-9.8,0.9-18,4.6-25.3,7.8c-4,1.8-7.8,3.5-11.4,4.5c-12,3.4-21,11.8-28.4,19.3c-6.9,7-11,15.2-14.6,22.4c-1.6,3.1-3.1,6.1-4.7,8.8
			c-1.6,2.6-2.3,5.1-2.8,6.7c-0.1,0.3-0.2,0.7-0.3,0.9c-4,10.7-2.5,20.6-1.2,28.5c0.3,1.8,0.5,3.5,0.7,5.1c0.1,0.5,0.1,1.1-0.6,2
			c-0.1-0.1-0.3-0.1-0.4-0.2c-0.1-0.1-0.1-0.1-0.2-0.2c-6.6-5.7-14.3-12.2-22.8-18c-12.6-8.5-26.9-12.8-42.6-12.8
			c-4.6,0-9.4,0.4-14.2,1.1c-13.1,1.9-25.7,7-35.6,14.3c-12.8,9.5-20.7,22.4-22.8,37.3c-2.8,19.8,2.3,37.9,15.2,53.8
			c1.2,1.5,2.4,2.8,3.6,4c-6.5,3.1-10.3,9.9-9.7,17.5c0.4,5.5,2.7,13.6,10.9,20.5c8.5,7.1,18.6,10.7,30.2,10.7
			c2.4,0,4.8-0.2,7.3-0.5c9.3-1.2,16.8-6.8,21.1-15.8c0.6-1.2,1.1-2.4,1.5-3.7c0.8-0.1,1.7-0.3,2.5-0.6l0.4-0.1
			c3.3-1,6.9-2.1,10.7-3.7c-0.2,3.2,0.1,6.3,1,9.2c2.3,7.3,6.9,12.9,13.8,16.7c-18.1,4.6-34.7,20.6-36.3,36.8
			c-1,10.6,1.4,20,6.9,26.9c-15.2,0.7-21.8,9.8-24.3,15.3c-4,8.5-6.6,21.8,4,37.1c11.8,17,30.2,26.8,50.7,26.8
			c10,0,20.1-2.5,29.2-7.1c14.3-7.3,23.9-21.7,27-37.8c0.4,2.1,1,4.3,1.8,6.5c0.9,2.6,2.4,5.1,4.3,7.2c-3.9,4.7-6.7,10.2-8,16.2
			c-2.8,12.7,1.4,25.9,11.3,35.2c7.7,7.3,16.4,11.1,25.1,11.1c2.2,0,4.4-0.3,6.5-0.7c0.2,0.2,0.3,0.4,0.5,0.7c2,2.5,4.8,4.3,7.9,5.2
			c-0.4,5.5,1.4,11,5.2,15.7c5.1,6.3,13.1,10.1,21.2,10.1c3.5,0,7-0.7,10.2-2.1c1.2,0.3,2.4,0.4,3.6,0.4c2.1,0,4.2-0.4,6.2-1.4
			c4.5-2,7.6-6.1,8.5-10.8c0.7-0.5,1.3-1,2-1.6c3.4-3,6.2-6.4,8.4-10.1c2.4,1.4,6.4,3.3,11.6,3.3c10.7,0,17-5.2,19.9-11.1
			c4.4,1.2,8.7,1.7,12.8,1.7c14.5,0,26.6-7.5,34.1-21.1c4.9-8.9,5.7-19.3,2-27.9c-3.5-8.2-10.6-14.1-20-16.6c-1-0.3-2-0.5-2.9-0.6
			c0.4-1.8,0.5-3.3,0.4-4.1c-0.1-4.2-1.6-8.2-4.1-11.4c0.4-1.7,0.8-3.4,1.1-5.1c2,0.4,4,0.5,6.1,0.5c1.6,0,3.3-0.1,4.9-0.4
			c1.6,5.2,5.3,11.1,13.9,15.1c3.7,1.7,7.7,2.6,12,2.6c13.1,0,25.2-8.1,29.5-19.8c4.6-12.4,4.5-25.1-0.3-37
			c9.6-4,16.6-10.4,21.9-16.2c0.7,4.7,2.9,9.2,6.3,12.6c4.1,4.1,9.4,6.3,14.9,6.3c0.5,0,1,0,1.5-0.1c10.2-0.4,15.2-7.5,16.3-13.5
			c0.9-4.6-0.2-10.2-4.2-14.3c0-4.1-1.1-8.4-3.5-12.6c-6.4-11.5-24.4-19.6-36.5-19.6c-1.1,0-2.2,0.1-3.3,0.2
			c-10.3,1.2-19.7,5.4-28.5,12.6c-2.6,2.2-5.3,3.1-8.8,3.1c-0.8,0-1.6,0-2.4-0.1c-4.9-0.6-9.2-3.7-15.7-9.7
			c-6.2-5.7-9.1-11.6-8.9-18.4c0.1,0,0.1,0,0.2,0c1.1,0,2.3,0,3.4-0.1c0.8,2.7,2.1,5.5,4.4,8.1c4.2,4.7,10,7.1,17.4,7.1
			c0.8,0,1.7,0,2.5-0.1c7.5-0.5,15-4.3,20-10.3c1.5-1.8,2.7-3.7,3.6-5.6c1.2,0.1,2.3,0.2,3.5,0.2c4.8,0,9.7-0.9,14.6-2.8
			c10.1-3.9,21.4-12.8,17.3-32.7c-1-4.9-3.7-9.3-7.6-12.6c0.9-4.4,0.5-9.1-1.2-13.9c-2.6-7.1-7.5-12.7-14.4-16.7
			c-7.4-4.2-15-6.6-22.7-7.1c4.8-4.2,8.7-9.5,11.2-15.5c4.2-10,4.1-20.8-0.1-30.6C402,75.4,391.3,72,383.5,71.9l-0.3,0
			c-8.5,0-16,3.5-21.2,9.7c-2-5.9-5.1-12.1-10.9-17.6c-1-0.9-1.9-2.2-2.3-3.2c-3.7-8.7-8.5-17.7-17.9-24.6c-3.5-2.6-6.9-5.9-9.7-8.8
			c-9.5-9.8-20.9-12.2-30.1-14.1c-2.8-0.6-5.5-1.2-7.8-1.9c-1.5-0.5-3-0.7-4.6-0.7c-1.2,0-2.4,0.1-3.6,0.4
			C270.4,8.3,265.4,6.9,260.2,6.9L260.2,6.9L260.2,6.9z M121.6,188.3c0-1.1-0.1-2.1-0.2-3.2c0.7,0.7,1.3,1.5,1.9,2.2
			C122.7,187.7,122.2,188,121.6,188.3L121.6,188.3z M110.9,320.3c3.6,0,7.2-0.5,10.4-1.4c2.5,6.5,3.2,12.6,2.2,18.5
			c-1,5.7-3.5,6.7-4.6,7.1c-2.9,1.1-5.4,1.7-7.6,1.7c-1.1,0-2.4-0.1-3.9-0.7c0.9-1.2,1.6-2.5,2.2-3.9l0.1-0.3
			c1-2.2,3.9-8.8,0.3-16.7c-0.7-1.6-1.6-3.1-2.5-4.4C108.6,320.3,109.7,320.3,110.9,320.3L110.9,320.3z M172.1,323.4
			c-0.1-0.7-0.2-1.4-0.3-2.1c0.3,0.2,0.5,0.3,0.8,0.5C172.4,322.4,172.2,322.9,172.1,323.4L172.1,323.4z"/>
	</g>
</g>
</svg>
