<?xml version="1.0" encoding="utf-8"?>
<!-- Generator: Adobe Illustrator 24.1.0, SVG Export Plug-In . SVG Version: 6.00 Build 0)  -->
<svg version="1.1" id="Livello_1" xmlns="http://www.w3.org/2000/svg" xmlns:xlink="http://www.w3.org/1999/xlink" x="0px" y="0px"
	 viewBox="0 0 436 775" style="enable-background:new 0 0 436 775;" width="50" height="50" xml:space="preserve">
<style type="text/css">
	.st0{fill:#FEFEFE;}
</style>
<g>
	<path class="st0" d="M137.8,762.1c-9.3,0-17.5-2.3-25.1-7.1c-6-3.8-12.6-5.6-19.9-5.6c-1.3,0-2.7,0.1-4,0.2
		c-1.7,0.2-3.2,0.2-4.5,0.2c-5,0-9.2-1-12.8-3.2c-3.8-2.2-8.6-3-13.6-3.9c-5.3-0.9-11.2-1.9-16.9-4.7l0,0c-0.8-0.2-2.2-0.7-3.6-1.8
		c-6.9-3.3-6-9-5.6-10.7c1-4.2,4.6-7.1,9.6-7.9c0.2,0,0.6-0.1,1.3-1.1L43,716c2.1-3.1,4.7-7,9.4-9.6c1.1-0.6,2.2-1.8,3-3.2
		c1.7-3,4.3-6.6,9-8.5c-1-6.1,2.3-12.1,7.9-13.9c0.1,0,0.2-0.1,0.2-0.1c0.2-0.2,0.5-0.9,0.9-2c0.4-1,1-2.2,1.9-3.4
		c-5.8-1.7-10.7-4.8-14.3-9.2c-5.2-6.2-7.3-14.6-6-23.5c0-0.1,0-0.1,0-0.2c-1.7-0.3-3.5-0.7-5.4-1.6c-9.4-4.2-15.7-9.9-19.9-17.7
		c-10.6-19.9-15.1-41.5-13.2-64.2v-0.4c1.8-21.5,3.7-43.7,9.7-65.3c2.1-7.6,5.5-14.4,8.7-21c2.7-5.5,5.2-10.6,7-16
		c1.9-5.9,4.3-12.6,7.9-19c-0.3-0.3-0.6-0.7-0.9-1c-2.1-2.3-4.9-5.4-5.9-10c-5.4-4.9-7.1-11-8-17c-0.7-4.6-0.6-8.7-0.4-12.5l0.1-1.1
		c0.7-16.3,13.2-21.1,21.5-24.3c1.2-0.5,2.4-0.9,3.5-1.4c2-0.9,4.2-1.3,6.5-1.3c0.9,0,1.8,0.1,2.7,0.2c-0.9-1.8-1.4-4.2-0.6-7.6
		c0-0.1,0.1-0.2,0.1-0.3c0.3-1.5,0.6-2.9,0.9-4.4c0.4-1.8,0.8-3.5,1.1-5.1c-1.6-0.8-2.6-1.9-3.1-2.7c-1,2-2,4-2.9,6l-0.2,0.4
		c-1.5,3.1-4.5,9.7-11.5,9.7c-1.1,0-2.2-0.2-3.3-0.5c-1.2-0.4-2.3-1-3.2-1.7c-1.4,1.6-3.7,3.2-7,3.2c-1.3,0-2.6-0.3-3.8-0.8
		c-3.6-1.5-6.9-5.3-6-11.3c-1.3,1.6-3.7,3.9-7.6,3.9c-1.2,0-2.5-0.2-3.7-0.7c-2.5-1-8-4.3-5.7-13.2l0.1-0.4
		c1.4-5.5,3.9-10.1,6.8-14.2l-0.1-0.1c-2.7-1.9-5.4-5.6-3.4-12.3c0.1-0.2,0.1-0.3,0.2-0.5c0.4-3.5,3.1-6.8,6.4-8.1
		c0.1-0.4,0.1-0.9,0.2-1.3c0.7-6,4.3-9.8,10.3-11c2.9-0.6,3.8-1.2,4.5-2.3c2.7-4,7.5-6.5,12.3-6.5c1.2,0,2.3,0.1,3.5,0.4
		c0.4,0.1,0.8,0.1,1.1,0.1c0.4,0,1.1,0,2.2-2.2c1-2,2-3.9,3-5.8c3.6-6.8,7-13.1,8-20.1c0.6-4.1,2.5-7.6,4-10.4l0.4-0.7
		c0.6-1.2,0.5-1.5,0.4-2c-0.9-3.2-0.6-6.5,1.1-9.3c1.4-2.4,3.7-4.4,6.3-5.6c0.4-4.7,3-8.4,7.7-10.7c1-0.5,2.2-0.8,3.3-0.8H92
		c0.2-2.4,0.9-6.6,4.3-9.5c0.1-0.6,0.3-1.3,0.6-1.9c1-2.3,3-4,5.4-4.6c0.1-0.4,0.3-1,0.4-1.4c0.5-1.8,1.3-4.4,3-6.7
		c-0.7-3.5,0.2-6.1,1-7.5c1.1-2,2.7-3.5,4.7-4.6c-0.2-4.7,1.8-9.9,9.3-13.5c0.3-0.2,1.1-1.1,1.5-2.7c-3-0.8-6.4-2.8-9.5-7.1
		c-3.9-5.3-4.2-11.7-0.9-16.9c0.1-0.2,0.2-0.3,0.3-0.5c-4.5,0-8.7-1.8-11.9-4.9c-3.2-3.3-5-7.8-4.9-12.7c0.1-8.5,3-15.2,8.5-19.9
		c-1.6-8.4,1.4-16.4,8.6-22.6c0.3-0.2,0.6-0.5,0.8-0.7c-5.5-4.5-8.9-11-9.3-17.9c-0.4-7.4,2.8-14.1,8.6-18.2c1.4-1,4.1-2.9,7.5-2.9
		c2.9,0,5.5,1.3,7.4,3.5c2.4,2.8,2.3,5.7,2.1,7.1c-0.2,1.4-0.7,2.5-1.4,3.4c2.1,0.4,3.8,1.5,5.1,3.3c0.9,1.3,1.4,2.7,1.5,4
		c0.5,0.3,1.1,0.7,1.6,1c0.5-0.6,1-1.1,1.6-1.5c-0.3-9.1,2.9-16.6,9.6-22.5c4.4-3.9,11.4-9,21-9c1.6,0,3.2,0.2,4.9,0.4
		c-1-0.9-1.7-2-2.3-3.3c-1-2.4-1.9-7.1,3.4-11.7l0.1-0.1c2.5-2.2,5.4-3.2,9-3.2c0.8,0,1.6,0.1,2.3,0.1c0.4,0,0.8,0.1,1.2,0.1h0.2
		c0.1,0,0.3,0,0.4,0c1.2,0,2.3,0.3,3.4,0.8l6,3c1.2,0.6,2.2,1.5,2.9,2.7c0.7,0.5,1.3,1.1,1.8,1.9c2.5,3.7,3.3,7.4,3.3,10.7
		c0,0,0,0,0.1,0c9.2,0,18,7.4,19.8,16.5c0.6,0.4,1.1,0.9,1.5,1.4c1.2,1.4,1.7,2.9,1.9,4.3c0.9,0.1,1.7,0.2,2.6,0.5
		c3.6,0.1,6.7,2.3,7.8,5.7c0.2,0.5,0.3,1.1,0.4,1.7c0.8-0.3,1.6-0.6,2.5-0.8c0.1,0,0.2-0.1,0.3-0.1c0.8-0.2,2-0.6,3.5-0.6
		c3.6,0,6.7,2,8.3,5.4c1.1,2.4,1.3,5.4,0,8.1c6,4.5,9,10,8.9,16.4c5.2,0.9,11,3.8,13.2,8.7c3,0.5,5.6,1.6,7.8,2.5
		c1.5,0.6,3,1.2,4.2,1.5c0.6,0.1,1.1,0.3,1.6,0.5c0.8-10.9,8.1-23.1,17.4-28.2c2.8-1.5,5.8-2.3,9.2-2.3c0.1,0,0.1,0,0.2,0
		c-0.5-1.5-0.7-3.5-0.1-5.9c0.7-2.7,2.9-7.5,10.5-8.2c0.6-0.1,1.1-0.1,1.7-0.1c5.9,0,11,2.9,14,8c1.6,2.7,6.3,10.9,1.4,19.7
		c-0.2,0.4-0.4,0.7-0.6,1.1c4.5-1.2,9-3.2,13.6-5.4l0.4-0.2c2.2-1,4.4-2.1,6.5-3.1c2.6-1.2,5.3-2.5,8-3.8
		c-0.9-5.5-3.5-10.2-8.9-16.1c-2.5-2.8-3.5-6.2-3.9-8c0-0.1-0.1-0.3-0.1-0.4c-2.2-7.7,1.8-11.3,4.4-12.7c1.4-0.7,2.8-1.1,4.3-1.1
		c2.2,0,5.1,0.8,7.3,4.3c3.6,2.1,6.2,4.8,8.5,7.3c0.2,0.2,0.4,0.4,0.6,0.6c0.3-0.1,0.8-0.3,1.3-0.7c0.1-0.2,0.1-0.5,0.2-0.8
		c-1.8-2-2.7-4.1-3.3-5.6c-0.2-0.4-0.4-1-0.6-1.3c-3.2-2.6-4.1-7.8-2-11.4c1.6-2.6,4.4-4.2,7.5-4.2c1.4,0,2.7,0.3,4.2,0.9
		c0.8,0.4,1.7,0.8,2.5,1.2c1.2-4.9,5-7.2,8.5-7.2c1.3,0,3.1,0.3,5,1.6h0.1c1.1,0,2.2,0.2,3.1,0.5c0.6-0.1,1.2-0.2,1.8-0.2
		c4.4,0,8.9,3.3,8.9,9.6c0,5.4-0.4,11.3-4,17.2c-1.2,2-2.5,3.7-3.8,5.2c-2.6,3.2-3.6,4.6-3.4,6.4c0.2,1.9-0.1,5.5-4.4,8.7
		c-1.4,1.1-3.3,3-3,7.6c0.5,7-1.9,16.4-15.8,21.6c-11.1,4.2-20.9,10.8-31.2,17.7c-1.6,1.1-3.1,2.1-4.7,3.2c-0.1,0.1-0.3,0.2-0.4,0.3
		c-1.1,0.9-3,2.5-5.7,3c-1.6,0.3-1.8,0.3-2.6,5.7l-0.2,1c-2.4,14.8-4.3,30.6-6,49.8c-0.6,6.3-0.7,12.7-0.7,20.3
		c0,9.5-0.7,19.7-2.1,31.2v0.3c-0.1,1.3-0.5,4.2-2.7,6.7c3.4,23.7,2.6,47.3,1.9,68.3c-0.5,15.5-2.5,30.8-4.4,45.7
		c-1,7.6-1.9,15.4-2.7,23.1c-0.6,5.9-1.6,11.7-2.6,17.3c-0.4,2.2-0.8,4.5-1.2,6.7c-2.3,13.7-2.5,27.7-2.5,39.5c0,0.2,0,0.4,0,0.5
		c0.1,1.1,0.2,2.9-0.4,4.9c0.3,1.5,0.3,3.9-1.2,6.5c-1.6,2.8-3.8,3.9-5.5,4.4c1.5,13.3,0.4,26.2-3.4,38.6
		c-2.6,8.4-5.6,17.1-8.9,25.8c-0.1,0.2-0.1,0.4-0.2,0.7c-1.8,6.1-5.2,9.2-10.1,9.2c-0.4,0-0.8,0-1.3-0.1c-1.5,1.5-3,3.1-4.4,4.7
		c-0.6,0.6-0.9,1-1.1,1.3c2.7,5.2-0.5,9.8-1.5,11.3c-0.1,0.2-0.2,0.3-0.3,0.5c-2.8,5.4-6.4,10.4-11,15.3c1.7,3.9,2,9-1.7,15.1
		c-0.2,0.4-0.4,0.7-0.6,1.1c0.8,0.2,1.6,0.5,2.4,1c3.1,1.7,6,5.7,3.9,11.3v0.1c-0.1,0.5-0.3,0.9-0.4,1.4c1.9-1.5,4.3-2.9,7.4-3.4
		c0.7-0.1,1.4-0.3,2.3-0.5c1.8-0.4,4.1-1,6.6-1c1.5,0,3,0.2,4.4,0.6c7.1,1.9,11.9,5.2,14.7,10c2.2,3.8,2.9,8.3,2.2,13.6
		c6.9,1.3,12.3,5.8,16.3,13.5c0.2,0.4,0.5,0.8,0.7,1.2c1.1,2,2.5,4.5,3,7.6c5.6,4,6.6,10,6.7,13.9c3,2.7,4.3,6.2,5.1,8.6
		c0.4,1,1,2.6,1.3,2.9c3.7,2.2,6.3,6.8,6.6,11.6c0.2,3.1,1.9,5.3,6.8,8.6c4.4,3,7.4,6.9,10,10.4c1.6,2.2,3.2,4.2,4.8,5.8
		c2.5,2.2,4.7,4.6,6.9,6.8c1.4,1.4,2.7,2.7,4,4.1l0,0c4.5,3.4,4.2,7.5,3.7,9.6c-0.4,1.7-2.1,5.9-7.9,6.7c-1.6,0.4-3.1,0.9-4.7,1.3
		c-8,2.2-15.6,4.3-22.7,7.7c-5,2.5-10.5,2.8-15.4,3.2c-0.7,0.1-1.5,0.1-2.2,0.2c-1.8,2.8-4.7,4.4-8.3,4.4c-0.8,0-1.6-0.1-2.1-0.1
		l0,0c-0.3,0.1-0.5,0.1-0.8,0.2c-1.5,2.2-4.2,3.8-8.1,3.8c-0.8,0-1.6-0.1-2.3-0.2c-0.8-0.1-1.7-0.2-2.6-0.2c-2.9,0-6.1,0.7-9.4,1.4
		c-3.6,0.8-7.3,1.6-11.4,1.8c-0.2,0-0.4,0-0.6,0c-1.9,0-3.5-0.3-4.8-0.6c-0.5-0.1-1.2-0.3-1.5-0.3c-1.5,0.1-3.2,0.6-5.1,1.2
		c-1.9,0.6-4.1,1.2-6.4,1.5c-3.2,0.4-6.3,1.1-9.7,1.8c-6.3,1.3-12.8,2.6-19.7,2.6c-2.3,0-4.6-0.2-6.8-0.5c-0.5-0.1-1.2-0.2-1.7-0.2
		c-0.1,0-0.1,0-0.1,0c-0.1,0-0.2,0.1-0.4,0.3c-2.5,2.2-5.6,3.4-8.8,3.4c-3,0-5.8-1-8.1-3c-3.3,2.9-7.4,4.4-12.3,4.4
		c-0.2,0-0.4,0-0.6,0c-4.9-0.1-10.1-0.2-15.2-0.2c-6,0-11.3,0.2-16.1,0.5c-6.3,0.4-12.8,1.2-19.1,1.9c-2.3,0.3-4.7,0.6-7,0.8
		C142.2,762,140,762.1,137.8,762.1z M79.1,651.9c0.3,0.1,0.6,0.1,0.9,0.1c1.3,0,2.7-0.5,4.2-1.3c-0.2-1-0.3-2-0.2-3.3
		c0-0.2,0-0.4,0-0.6c0-0.2,0-0.3,0-0.5c0-0.8,0-2,0.2-3.3c-1.7,1.4-3.4,2.9-5,4.3l-0.9,0.8C78.1,649,78.5,651,79.1,651.9z
		 M101.8,604.6c2.1,0.2,4.2,0.5,6.2,0.9c-7.8-8.8-14.3-18.6-19.4-29.2c-7.5-15.6-6.8-30.6,2.1-44.5c1.3-2.1,1-9.5-0.3-11.7
		c-0.4,0-0.8,0-1.2,0c-6,0-9.9-3.4-12.7-6c-0.1,0.3-0.2,0.5-0.3,0.8c-0.9,2.6-1.7,5.1-2.3,7.6c-0.2,0.6-0.2,1-0.2,1.2l0,0
		c5.2,4.3,6.5,12.9,2.8,17.8c-1,1.2-2.2,2.2-3.5,2.8c6.3,7.3,8.9,20.2,5,28.3c-1.1,2.2-2.7,4.2-4.6,5.5c-3.6,2.5-5.4,5.9-6.4,10.6
		c0.6-0.6,1.3-1.1,2.1-1.7c0.2-0.2,0.4-0.4,0.6-0.7c1.6-1.7,4.5-4.9,9.5-4.9c2.5,0,5,0.9,7.3,2.5
		C91.7,587.8,100.1,593.7,101.8,604.6z M132.7,568.9c1.4,4.5,2.8,9.1,4.1,13.6c0.6-1.3,1.4-2.5,2.3-3.4c0.2-0.2,0.4-0.3,0.5-0.5
		C137,575.5,134.7,572.3,132.7,568.9z M150.4,553.1c-0.3,0.9-0.5,1.9-0.4,2.3c0.2,0.6,0.5,1.2,0.9,1.8c0.1-0.3,0.2-0.7,0.4-1
		c-0.1-0.6-0.2-1.2-0.3-1.7c0-0.3-0.1-0.6-0.1-0.8C150.6,553.5,150.5,553.3,150.4,553.1z M56.1,553.6c0.2-0.3,0.4-0.6,0.5-0.9
		c-0.1-0.1-0.1-0.2-0.2-0.3C56.3,552.8,56.2,553.2,56.1,553.6z M121.8,535.4c1.4,4.2,2.8,8.4,4.1,12.5c0.5,1.4,0.9,2.9,1.4,4.3
		c0-1.9,0.2-3.7,0.7-5.5c1.2-4.6,2.6-8.9,4.2-13C129,534.8,125.6,535.3,121.8,535.4z M113.6,492.3c-0.4,0.9-0.9,1.9-1.5,2.8
		c-2.2,3.1-2.3,6.1-0.5,10.3c1.5,3.4,2.5,6.7,3,9.7c0.1,0.5,0.2,0.8,0.2,1.1c0.1,0,0.1,0,0.2-0.1c1-0.2,2-0.3,3.1-0.3
		c0.3,0,0.7,0,1,0c2.3-3.7,6.3-12.1-1.1-18.1C116.1,496.1,114.6,494.3,113.6,492.3z M140.1,473.7c8.2,7.5,12.2,17.4,11.9,29.4
		c0.8-0.8,1.6-1.5,2.4-2.2c5.1-4.5,7.8-9.2,9.4-16.5c0.5-2.5,1.3-4.9,2.3-7.1l0.3-0.7c2.1-4.7,5.2-11.7,13.7-14.3
		c1.1-0.3,2.3-0.5,3.7-0.5c0.3,0,0.7,0,1,0c0.2-0.2,0.4-0.4,0.6-0.7c1.5-1.6,2.7-2.8,3.2-3.8c-0.1,0-0.2-0.1-0.3-0.1
		c-1-0.4-2-0.8-3.1-1.3l-0.2-0.1c-0.4-0.2-0.9-0.4-1.5-0.7c-5.2-3-9-8.9-9.3-14.7c-0.2-4.2,1.4-8,4.5-10.3c0-0.3,0-0.7,0-1
		c0-0.4,0-0.8,0-1.2c0-0.8,0.1-1.6,0.3-2.4c-0.9,0.4-1.8,0.7-2.8,0.7c-1.4,1.4-3.1,2-3.4,2.1c-1,0.3-2,0.5-3,0.5
		c-1.8,0-6-0.6-8.2-5.7c-1.5,2.6-3,5.1-4.5,7.6c-2.9,4.8-5.6,9.4-8,14.1c-1.4,2.8-4.4,6.4-10.5,7.8l-0.5,0.1c-1.1,0.3-2,0.5-2.7,0.7
		c1.9,1.9,3.4,4.1,4.8,6.1c0.3,0.5,0.7,1.1,1,1.8c3.6,5,1.8,9.7-0.9,12.1C140.3,473.5,140.2,473.6,140.1,473.7z M249.8,471.3
		c0.1-0.2,0.2-0.4,0.3-0.6c-0.5-0.4-1-0.8-1.4-1.2c-0.1,0.3-0.2,0.5-0.3,0.8C248.5,470.4,249.6,471.2,249.8,471.3z M258.6,419.1
		c0-0.3,0-0.6,0-0.9c0,0,0,0,0-0.1c-0.1,0.1-0.1,0.2-0.2,0.4C258.5,418.8,258.5,418.9,258.6,419.1z M184.5,417.8
		c0,0.2-0.1,0.3-0.1,0.5l0.2-0.1C184.5,418,184.5,417.9,184.5,417.8z M190.5,382.6c4.5,6.4,8,13.2,10.5,20.4
		c1.1,3.1,1.9,6.1,2.8,9.1c0.5,1.8,1,3.6,1.6,5.3c0-0.1,0-0.3,0-0.4c0.2-3.7,0.3-5.8-0.9-8.1c-7.8-14.4-7-20.1,2-30.5
		c-3-2.7-5.4-5.8-7.6-8.6c-0.4-0.5-0.8-1.1-1.2-1.6C196.8,373.3,194.4,378.2,190.5,382.6z M80.4,372.7c0.6,0.2,1.1,0.5,1.7,0.6
		c0.3,0.1,0.5,0.2,0.7,0.2c0.6-1.8,1.2-3.6,1.9-5.2C83.5,370.7,81.9,372,80.4,372.7z M149,196.4c6.3,8.5,13.4,14.2,21.7,17.4
		c0.3,0.1,0.6,0.2,1,0.3c-0.8-0.8-1.6-1.6-2.2-1.8c-9.2-4.6-14.4-12-18.8-18.9C150.2,194.5,149.6,195.4,149,196.4z"/>
	<path d="M183.1,22.1c1.1,0,2.3,0.2,3.5,0.2c0.2,0,0.4,0,0.5,0c2,1,4,2,6,3H193c0.3,1,1.1,1.6,2,2c3.6,5.2,1.5,10.2-0.9,15.1
		c-4.9,6.1-10.7,10.1-19.1,10.1c-0.1,0-0.2,0-0.3,0s-0.1,0-0.2,0c-6.6,0-9.5,4.1-8.8,10.3c0.2,1.9,1.5,1.8,2.5,2.6
		c0.6,0.5,1.1,0.7,1.5,0.7c0.7,0,1.3-0.6,1.8-1.1c7.8-6.6,15.7-12.9,26.2-12.9c1.3,0,2.7,0.1,4.1,0.3c0.2,0,0.4,0,0.6,0
		c1.6,0,2.2-1.1,1.9-2.7c-0.2-1.3-0.9-2.4-2.3-2.4c-0.2,0-0.5,0-0.8,0.1c-1.2,0.3-2.4,1.1-3.6,1.1c-0.1,0-0.1,0-0.2,0
		c-2.4-0.2-4.5-0.9-2.8-3.3c0.2-0.3,0.4-0.5,0.7-0.8c0.3,0.1,0.6,0.2,0.9,0.2c0.9,0,1.7-0.5,2.3-1c1.9-1.5,4-2.1,6-2.1
		c6,0,11.9,5.4,12.5,11.3c0.2,1.5-0.9,3.9,1.9,3.9c0.2,0,0.4,0,0.7,0c0,0,0,0,0.1,0c0.8,0,0.7,1.6,0.5,2.6c-0.5,2.6-0.8,5.2-1.3,8.6
		c2.4-2.2,4.7-4.1,7.5-4.1c0.8,0,1.7,0.2,2.6,0.5c0.1,0.1,0.3,0.1,0.4,0.1c0.2,0,0.4,0,0.7,0c0.4,0,0.8,0.1,1,0.6
		c0.4,1.2-0.4,1.8-1.2,2.4c-4.6,3.5-5.1,6.9-0.9,10.5c5.9,5.1,8,10.8,4.5,18.1c-0.6,1.3-0.9,3,0,3.7c0.3,0.2,0.5,0.3,0.7,0.3
		c0.9,0,1.7-1.1,2.5-1.6c2-1.4,4.1-2.7,5.3-4.9c1.5-2.8,2-5.1-1.7-6.6c-4.1-1.7-4.4-5.7-4.2-9.2c0.2-3.9,3.1-6,6.8-6.9
		c0.7-0.2,1.4-0.5,2-0.5s1.1,0.2,1.4,1c0.7,1.5-0.4,2.5-1.6,3.2c-5,2.8-2,4.1,0.9,5.8c9.2,5.2,11.2,11.5,6.5,20.7
		c0.5,0.3,1,0.4,1.5,0.4c1.6,0,3-1.3,4.6-1.5c0.3,0,0.5,0,0.8,0c3.8,0,9.5,2.5,9.6,5.6c0.2,3.2,1.9,3,3.5,3.1c5,0.1,9,3.2,13.6,4.1
		c0.8,0.2,1.1,0.5,1.3,1.2c0.5,2.2,1.5,3,3,3c0.8,0,1.6-0.2,2.6-0.5c3.1-1,4.4-2.5,3.9-6.2c-1.3-9.1,5.5-21.7,13.4-26
		c1.8-1,3.7-1.3,5.6-1.3c1.4,0,2.7,0.2,4.1,0.4c0.6,0.1,1.1,0.1,1.6,0.1c3.3,0,5-2,5.5-5.5c0.2-1.3-0.2-3.1-1.6-3.2
		c-2.4-0.3-2.8-1.7-2.4-3.4c0.5-1.9,2.1-2.3,3.9-2.5c0.3,0,0.7,0,1,0c3.3,0,5.9,1.5,7.5,4.3c2.2,3.7,3.8,7.9,1.3,12.3
		c-3.3,5.8-8.3,8.9-14.9,9.5c-5.4,0.5-9.3,6.3-8,11.6c0.3,1.2,0.8,1.8,1.7,1.8c0.2,0,0.4,0,0.6-0.1c1-0.2,2.1-0.3,2.8-1
		c6.1-5.7,13.7-7.9,21.7-9.1c6.8-1,13-3.9,19.1-6.8c5.3-2.5,10.6-5.1,16-7.5c3.2-1.5,3.4-2.9,2.8-6.7c-1.3-8.4-5.4-14.6-10.8-20.5
		c-1.1-1.2-1.7-2.9-2.1-4.4c-0.3-1.7-1.6-3.9,0.5-5c0.3-0.2,0.5-0.2,0.7-0.2c1.2,0,1.3,2.1,2.3,2.6c3.9,1.7,6.5,4.9,9.3,7.9
		c1.1,1.2,2.7,1.7,4.4,1.7c2.4,0,5-1.1,7.2-3.1c2.3-2.1,3.2-8.4,0.9-10.4c-2.7-2.3-2.6-6.2-5.4-8.2c-0.3-0.3-0.5-1.3-0.2-1.7
		s0.6-0.6,1-0.6s0.8,0.1,1.2,0.3c2.7,1.1,4.7,3,6.5,5.3c1,1.3,1.9,2.9,3.5,2.9c0.4,0,0.8-0.1,1.2-0.3c2.4-1,0.9-3.2,0.7-4.8
		c-0.3-2.1,0.6-3.9,0.7-5.9c0.1-1.6,0.6-2.6,1.4-2.6c0.5,0,1.1,0.4,1.9,1.2c0.3,0.4,0.8,0.5,1.3,0.5c0.7,0,1.4-0.2,2-0.2
		c0.8,0,1.4,0.3,1.5,1.8c-0.1,0.8,0,1.7,0.8,1.7c0.1,0,0.2,0,0.3,0c1.2-0.3,0.7-1.6,0.7-2.6c0.6-0.4,1.1-0.5,1.5-0.5
		c0.9,0,1.4,0.8,1.4,2.1c0,4.6-0.3,9-2.9,13.3c-3.1,5.2-9,9.1-8.1,16.3c0.1,0.6-0.8,1.4-1.5,1.9c-4.7,3.5-6.4,8.6-6,14.1
		c0.5,8.2-5,11.9-10.9,14.1c-13.8,5.2-25.4,13.7-37.4,21.7c-1.1,0.7-2.1,1.9-3.3,2.1c-7.4,1.3-7.9,7.1-8.9,12.9
		c-2.7,16.7-4.6,33.5-6.1,50.4c-0.6,7-0.7,14-0.7,21c0,10.2-0.8,20.2-2.1,30.3c-0.2,1.3-0.2,2.6-1.5,3.4c-1.7,1.1-1.6,2.9-1.3,4.5
		c3.4,22.6,2.7,45.2,1.9,67.9c-0.8,23-4.7,45.6-7,68.4c-0.8,7.9-2.4,15.7-3.7,23.5c-2.2,13.5-2.6,27.1-2.6,40.8
		c0,1.8,0.7,4.1-1.7,4.1c-0.3,0-0.7,0-1.1-0.1c-0.4,1.1,0.2,1.4,0.8,1.7c1,0.5,2.4,0.7,1.4,2.4c-0.5,0.8-0.9,1.1-1.4,1.1
		c-0.6,0-1.1-0.4-1.8-0.9c-0.9-0.7-2-1.7-3.1-1.7c-0.6,0-1.1,0.3-1.6,1c-1.3,1.9-2.7,4.3,0.3,6.3c0.6,0.4,0.9,1.4,1,2.1
		c1.6,12.4,0.6,24.7-3,36.7c-2.6,8.6-5.6,17-8.7,25.4c-0.7,1.8-1,5.1-3.3,5.1c-0.7,0-1.6-0.3-2.8-1.1c0,0-0.1,0-0.2,0
		c-0.2,0-0.6,0.1-0.7,0.3c-2.5,2.6-5,5.2-7.5,7.9c-2.5,2.8-4.6,5.6-2.3,9.7c0.9,1.7-1,3.4-1.8,4.9c-2.9,5.6-6.8,10.6-11.2,15.2
		c-1,1-3.2,2.1-1.7,4c3,3.6,2.8,6.9,0.4,10.8c-2.1,3.4-3.7,7.1-7.7,8.8c-1.1,0.5-1.9,0.6-1.5,2.3c1.5,8.5,0,12.2-7.3,15.6
		c-3.6,1.7-2.5,2.7-0.6,4.4c2.4,2.1,4.8,3.9,6.6,6.7c0.4,0.7,0.9,1,1.4,1c1.1,0,2.4-1.4,3.7-1.4c0.3,0,0.6,0.1,0.8,0.2
		c0.2,0.1,0.3,0.1,0.4,0.1c0.6,0-0.1-1.4-0.2-2.1c-0.1-1,0.8-1.9,0.3-3.2c-1-2.7-5.2-4.6-2.9-8.1c2.8-4.2,7.3-7.1,9.9-11.5
		c0.2-0.3,0.5-0.5,0.8-0.5s0.6,0.1,0.9,0.3c1.3,0.7,0.6,1.7,0.4,2.6c-1.2,4.1-3,8-5,11.3c0.3,0.5,0.6,0.7,1,0.7
		c1.3,0,3.2-2.1,4.4-2.1c0.8,0,1.2,0.9,1,3.9c0.7,0.2,1.4,0.3,2,0.3c4.9,0,7.2-5.8,11.9-6.5c2.6-0.4,5.1-1.4,7.8-1.4
		c0.8,0,1.6,0.1,2.4,0.3c10.4,2.8,13.5,8.7,10.5,19.5c-0.9,3.5-0.3,4,1.1,4c0.6,0,1.4-0.1,2.3-0.1c0.1,0,0.2,0,0.2,0
		c6.8,0,11,3.6,14.4,9.9c1.5,3,3.4,5.4,2.9,8.9c-0.1,0.9,0.8,1.4,1.6,1.7c4.7,2.3,5.2,6.5,5,11c0,0.7-0.2,1.5,0.3,1.8
		c6.1,2.6,4.4,10.5,9.7,13.7c1.6,1,2.8,3.3,3,5.6c0.4,6.9,4.9,10.9,10.1,14.4c5.9,4,8.8,10.8,14,15.5c3.8,3.4,7.3,7.3,10.9,10.8
		c0.7,0.7,1.8,1,1.5,2.3c-0.3,1.2-1.5,1-2.4,1.3c-9.8,2.7-19.7,5-29,9.6c-4.7,2.3-10.8,2.2-16.3,2.7c-2,0.2-3.3,0-4,2.4
		c-0.4,1.5-1.3,1.8-2.3,1.8c-0.8,0-1.7-0.2-2.6-0.2c-0.4,0-0.8,0-1.1,0.2c-0.4,0.2-0.9,0.2-1.3,0.2s-0.9,0-1.3,0
		c-1.3,0-2.5,0.3-2.7,2.8c0,0.6-1.1,0.9-2.1,0.9c-0.4,0-0.7,0-1.1-0.1c-1.3-0.2-2.5-0.3-3.8-0.3c-7.1,0-13.9,2.9-21,3.2
		c-0.1,0-0.2,0-0.3,0c-2.2,0-4.1-0.9-6.2-0.9c-0.2,0-0.4,0-0.6,0c-4.2,0.3-8,2.2-11.9,2.7c-9.5,1.3-18.8,4.3-28.4,4.3
		c-1.9,0-3.8-0.1-5.7-0.4c-1-0.1-1.9-0.2-2.7-0.2c-1.9,0-3.6,0.5-5.5,2.2c-1.1,1-2.5,1.6-3.8,1.6c-1.8,0-3.5-1-5-3.1
		c-0.9-1.3-2-2-3.1-2s-2.2,0.6-3.2,2.1c-2.2,3.1-5.2,4.4-9,4.4c-0.1,0-0.3,0-0.4,0c-5.1-0.1-10.3-0.2-15.4-0.2
		c-5.5,0-11.1,0.1-16.5,0.5c-8.8,0.6-17.7,1.8-26.5,2.8c-1.9,0.2-3.9,0.3-5.8,0.3c-7.4,0-14.5-1.8-21.1-5.9
		c-7.4-4.6-15.4-6.7-23.9-6.7c-1.5,0-3.1,0.1-4.7,0.2c-1.3,0.1-2.6,0.2-3.8,0.2c-3.1,0-6.2-0.5-9.1-2.2c-9.6-5.6-21.4-3.9-31.2-9
		c-0.7-0.4-1.7-0.4-2.2-1c-1-1-3.3-1.1-2.9-2.9c0.3-1.4,1.9-2.1,3.5-2.4c2.7-0.4,4.8-2,6.3-4.3c2-2.9,3.8-5.9,7.2-7.8
		c2.3-1.3,4.4-3.4,5.8-5.9s3.1-4.7,6.2-5.7c3.4-1.1,4.6-4.2,3.8-7.6c-0.7-2.9,1-5.3,2.7-5.8c3.5-1.1,4.7-3.5,5.9-6.5
		c0.9-2.2,2.6-3.6,5-4.5c2.3-0.9,2.7-3.5,2.7-5.6c-0.1-2-1.4-2.1-2.8-2.1c-0.3,0-0.7,0-1,0c-0.1,0-0.3,0-0.4,0
		C69,668.7,60,658.2,62.1,644c0.5-3.6,3.3-5.8,6.7-8.6c-0.7,0-1.3-0.1-2-0.1c-2.6,0-5.1,0.2-7.5,0.2s-4.7-0.2-6.9-1.3
		c-6.9-3.1-12.7-7.4-16.4-14.4c-10.1-18.8-14.1-38.7-12.3-60.1c1.8-21.7,3.6-43.3,9.4-64.4c3.6-12.9,11.4-24,15.6-36.7
		c2.3-6.9,4.8-13.7,8.7-20c1.1-1.8,0.5-2.5-0.8-4.3c-2.4-3.5-6.5-6.1-6.9-10.9c0-0.6-0.4-1.4-0.9-1.7c-4.6-3.4-5.9-7.8-6.9-13.6
		c-0.7-4.3-0.4-8-0.2-12.1c0.6-13.2,11.7-15.4,20.4-19.1c1.2-0.5,2.3-0.7,3.6-0.7c4.4,0,9.2,2.7,13.6,4.3c1.7,0.6,3.2,0.9,4.4,0.9
		c2.8,0,4.7-1.5,5.8-5.2c2-6.6,5.6-12.8,6.3-19.8c0.1-1.4,1.1-2.9-0.4-4.2c-0.4-0.4-0.8-0.5-1-0.5c-0.9,0-1.2,1.6-2.1,1.8
		c-0.5,0.1-1,0.4-1.6,0.4c-0.2,0-0.5-0.1-0.7-0.3c-0.9-0.7-0.4-1.5-0.1-2.2c1.6-4.2,1.7-8.6,1.8-13.1c-2.5,0.1-3,2.1-3.7,3.6
		c-3.3,7.2-6.5,14.5-9.7,21.7c-0.4,0.9-0.7,2.5-1.9,2.5c-0.2,0-0.4,0-0.6-0.1c-1.5-0.6-0.8-2.3-0.5-3.5c0.8-3.9,1.8-7.8,2.4-11.7
		c0.4-2.5,1.5-5.8-3.2-5.8l0,0l0,0c-2.2,0-1.5-1.5-0.8-2.8c8.1-14.1,12.3-29.5,15-45.3c1.1-6.6,1.1-13.4,1.7-21.4
		c-4.8,4.9-6.4,10.3-9.4,14.7c-4.3,6-4.3,13.2-5.6,19.9c-1.4,7-5.4,12.7-7.8,19.2c-2.9,7.6-6.9,14.9-10.4,22.3
		c-1.1,2.4-2.5,5.8-4.9,5.8c-0.3,0-0.6-0.1-0.9-0.2c-3.4-1.1-2.4-5.2-1.5-8.3c0.2-0.8,0.4-1.6,0.4-2.5c-0.1-1.2,0.9-2.9-1.2-3.2
		c-0.1,0-0.2,0-0.3,0c-1.2,0-1.3,1.3-1.7,2.2c-1.7,3.6-3.7,7-5.7,10.4c-0.6,1-1.2,2.4-2.5,2.4c-0.3,0-0.5-0.1-0.9-0.2
		c-1.8-0.8-1.9-2.4-1.4-4.3c1.4-6,3.2-11.8,5.5-17.5c0.4-1.1,1.8-2.5,0.4-3.6c-0.4-0.3-0.8-0.4-1.2-0.4c-0.9,0-1.9,0.7-2.9,1.1
		c-6.5,2.9-9.9,8.9-14.2,14c-0.9,1.1-1.5,2.6-2.8,2.6c-0.3,0-0.6-0.1-0.9-0.2c-2.3-0.9-1.6-2.8-1.1-4.7c2.2-8.5,7.7-14.9,13.7-20.9
		c2.5-2.5,3.7-5.3,4.2-9.3c-3.8,2.2-7.5,2.9-10.2,5.8c-0.8,0.9-1.7,2.5-2.9,2.5c-0.3,0-0.6-0.1-1-0.4c-2-1.5-0.3-3.9-0.1-5.8
		c0.1-0.8,1.1-1.9,1.9-2.1c3.9-1.1,4.3-4.2,4.6-7.3c0.3-2.7,1.4-3.9,4.3-4.5c3.5-0.7,6.9-1.9,9.3-5.4c1.2-1.7,3.4-3.2,6.1-3.2
		c0.6,0,1.1,0.1,1.7,0.2c1,0.2,1.9,0.3,2.8,0.3c4,0,6.9-2.3,8.9-6.3c4.6-9.1,10.3-17.8,11.7-28.3c0.4-3,2.1-5.9,3.6-8.7
		c1.3-2.5,1.8-4.8,0.9-7.7c-1.1-3.6,2.3-5.8,4.4-6.4c3.1-0.8,3.4-2.4,3.2-4.5c-0.3-3,1-4.7,3.5-5.9c1.3,0,2.6,0,3.9,0
		c3.1-0.3,4.2-1.7,4.6-4.8c0.4-2.9-0.1-6.4,3.9-7.4c1.1-0.3,1.3-0.8,0.7-1.8c-0.5-0.8-0.3-2.1,0.3-2.2c7-1.2,4.3-9.3,8.9-12.2
		c1.4-0.8,1-2,0.5-3.1c-2.1-4.1,0.6-5.9,3.7-6.3c2.9-0.3,2.8-1.2,2.1-3.4c-1.4-4.4-0.3-7,4.5-9.3c3.6-1.7,5.7-6.2,6.1-10.6
		c0.2-2.1,0-4.2,0-6.7c-1.4,0.6-2.6,0.9-3.8,0.9c-3,0-5.4-1.7-7.5-4.5c-2-2.7-2.3-5.8-0.6-8.4c1.5-2.3,3.5-4,6.2-4
		c1,0,2,0.2,3.1,0.7c-2.6-7.8-0.7-14.6,2.3-21.4c-1.5-0.8-3.3-1.6-5-2.6c-1.5-0.9-3.1-1.3-4.6-1.3c-4.4,0-8.1,3.6-8.3,9
		c0,1.4-0.6,3.4,1.5,3.4c0.3,0,0.7,0,1.1-0.1c0.2,0,0.3-0.1,0.5-0.1c1.1,0,1.7,0.9,1.6,2.1c-0.1,1.4-1.1,1.8-2.4,2.1
		c-0.7,0.1-1.4,0.2-2.1,0.2c-5.2,0-9.4-4.1-9.3-10c0.1-6.1,1.9-11.6,7.2-15.3c1.9-1.3,2.1-2.4,1.5-4.8c-1.8-6.7,0.7-12.4,5.9-16.8
		c1.1-1,2.5-1.7,3.6-2.6c4.6-3.5,4.5-5-0.5-7.8c-10.4-5.9-12.2-19.8-3.6-26c1-0.7,2.1-1.5,3.2-1.5c0.6,0,1.1,0.2,1.6,0.8
		c1.5,1.8-1.1,2.2-1.9,3.2c-2.3,3.1-1.9,6.7-0.7,9.9c0.5,1.2,1.3,1.6,2.3,1.6c0.9,0,1.9-0.4,2.8-0.9c0.9-0.5,1.7-0.9,2.3-0.9
		c0.7,0,1,0.7,0.3,2.7c-0.5,1.3,0.1,1.8,1.2,2.3c9.3,4,12.5,11.8,13.4,21.1c0.1,0.6,0.2,1.3,0.3,2.1c2-1.4,0.9-3,1-4.4
		c0.2-1.5,0-3.3,0.8-4.3c3.4-4.2,3.9-7.7-1.2-10.9c-0.9-0.6-1-1.8-0.4-2.7c0.4-0.5,0.8-0.7,1.2-0.7c0.9,0,1.8,1,2.7,1
		c0.2,0,0.3,0,0.5-0.1c-2.1-8.9-1.2-17.1,6.1-23.5c4.7-4.1,9.8-7.2,16-7.2c1.1,0,2.3,0.1,3.5,0.3c1.9,0.4,3.6,0.5,5.2,0.5
		c5.4,0,8.3-2.3,9.6-7.2c0.2-0.8,0-1.6,0-2.4c0-0.3,0-0.7-0.1-1c-0.1-2.6-1.2-3.7-2.8-3.7c-0.7,0-1.6,0.2-2.5,0.6
		c-0.7,0.3-1.4,0.7-2,0.7c-0.5,0-0.9-0.3-1.3-1.1c-0.6-1.5,0.6-2.4,1.6-3.3C180.3,22.4,181.7,22.1,183.1,22.1 M246.6,114.8
		c1.2,0,2.5-0.1,3.8-0.1c1,0,2,0.1,3,0.3c-3.3-3.7-3-7.1-2.3-11.3c-3.7,3.4-6.7,6.1-9.9,9.2C242.9,114.4,244.7,114.8,246.6,114.8
		 M175.8,222.5c2.1,0,4.2-0.5,6.2-1.6c2.9-1.7,4.2-6,2.1-6.7c-4.9-1.6-7.2-6.5-11.2-8.5c-10.9-5.4-15-16-21.7-24.9
		c-4.7,3.6-6.8,9.8-10.6,14.7c-0.7,1-0.1,1.9,0.5,2.7c6.8,10.1,15.4,18.3,26.9,22.7C170.5,221.8,173.2,222.5,175.8,222.5
		 M142.9,220.3c-1.6-6.1-4.2-10-6.7-14c-0.3-0.6-0.8-0.9-1.4-0.9c-0.2,0-0.4,0.1-0.7,0.2c-0.6,0.3-1.1,0.9-0.8,1.6
		C135.5,211.6,137.7,216.1,142.9,220.3 M138.2,236c0.3,0,0.7-0.1,1.2-0.4c-1.4-6.7-4.8-12.8-7.6-19c-0.5-1.1-0.9-3.3-2.2-3.3
		c-0.2,0-0.5,0.1-0.8,0.2c-2,0.9-3.1,3.2-1.8,5.9c2.5,5.4,5.6,10.5,9.4,15.1C136.8,235,137.2,236,138.2,236 M121.3,244.4
		c0.9,0,0.7-1.4,0.5-2.4c-0.7-4.3-2.2-8.2-5.2-11.5c-1.7,1.3-3.4,2.4-2.2,4.9c1.6,3.3,2.8,7,6.1,8.7
		C120.8,244.3,121.1,244.4,121.3,244.4 M106.2,270.8c-0.2-3.4,0.5-6.5-1.7-8.5c-0.2-0.2-0.4-0.3-0.6-0.3c-0.9,0-1.7,1.6-2,2.5
		C101,267.7,103.4,269,106.2,270.8 M214.6,362.4c0.3,0,0.7-0.2,1.1-0.7c1.3-1.8-1-11.4-2.9-12.5c-7.7-4.3-9.9-9.8-7.4-18.2
		c0.4-1.2,1.1-2.4-0.4-4.7c-3,8.2-5.9,15.8-8.7,23.5c-0.3,0.7,0.2,1.2,1,1.4c6.5,1.3,10.3,6.7,15.4,10.1
		C213.3,361.8,213.9,362.4,214.6,362.4 M213.5,346.3c2.9-3.4,2.3-5.7,0.8-8.8C213,340.5,213.3,342.7,213.5,346.3 M206.8,435.1
		c1.3-1.9,5.8-0.6,5.3-5.4c-0.3-3.1,0.5-6.3,0.6-9.4c0.1-4.9,1.2-9.6-1.7-14.9c-6.9-12.7-6-14.5,3.9-25.2c1.3-1.4,2.6-3.2,0.3-4.6
		c-6.2-3.7-9.7-9.9-14.2-15.1c-1.7-2-3.4-5.3-5.7-5.3c-0.3,0-0.5,0-0.8,0.1c-2.8,0.9-2.8,5.3-3.9,8.2c-0.1,0.3-0.2,0.6-0.2,1
		c-0.1,5.5-2.6,10.1-6.2,13.9c-2.4,2.5-2.7,4.6-0.7,7.3c4.4,6.1,8,12.7,10.4,19.8c3.1,8.9,4.6,18.3,9.5,26.6
		C204.1,433.3,204.2,435.1,206.8,435.1 M266.5,440.9c1.5-0.1,1.5-1.1,1.9-2.1c0.7-2,0.2-4.8,3.7-5c0.7-0.1,1.5-2.5,1.7-3.9
		c0.9-9.1,2.2-18,1.9-27.4c-0.2-6.2-0.9-11.8-3-17.5c-0.6-1.5-1.1-3.2-1.3-4.8c-0.2-1.4-0.3-2.8-1.9-3c-0.1,0-0.2,0-0.3,0
		c-1.6,0-1.5,1.8-2,2.8c-2.1,4.5-3.8,9.2-5.9,13.7c-1.1,2.3-0.7,3.7,1,5.6c3.4,3.8,6.1,7.9,7,13.4c1.4,8.4,0.1,15.7-5.3,22.3
		c-1.1,1.3-1.8,2.7-0.6,4C264.2,439.8,265.5,440.3,266.5,440.9 M215.2,396L215.2,396c1.9,0,0.8-1.7,1.2-2.7c0.5-1.3,1.3-2.7,0.1-4
		c-0.1-0.1-0.3-0.2-0.4-0.2c-0.4,0-0.8,0.4-1,0.9c-1.3,1-0.8,2.4-0.8,3.6C214.3,394.6,213.8,396,215.2,396 M175.8,418.7
		c-0.8-2.5-1.2-4.2-1.8-5.8c-0.3-0.8-0.7-1.8-1.7-1.8c-0.1,0-0.2,0-0.4,0c-1,0.2-0.9,1.3-1.1,2c-0.5,1.8-0.1,3.6,0.2,5.4
		c0.1,0.9,0.6,2.2-0.6,2.6c-0.2,0.1-0.4,0.1-0.6,0.1c-1.1,0-1.4-1.3-1.7-2.2c-0.6-1.7-1.2-3.5-1.3-5.3c-0.2-3.7-2.2-6.5-4-10.2
		c-5.5,13.8-14,25.2-20.4,37.7c-1.1,2.1-3,3.3-5.5,3.9c-3,0.7-6.1,1.3-8.5,3.8c-3.7,3.8-7.5,7.4-12.3,9.8c-2,1-4,2.1-4.5,5.2
		c-0.3,1.8-1.4,4.3-3.4,5.8c-6.6,5-7.1,8.2-2.3,15.3c1.4,2,0.9,3.9-0.2,5.6c-3.9,5.7-3.9,11.4-1.2,17.5c1.1,2.6,2,5.3,2.5,8
		c0.8,4.6,2.6,7.4,6.7,7.4c0.9,0,1.8-0.1,2.9-0.4c0.5-0.1,0.9-0.1,1.4-0.1c0.8,0,1.6,0.1,2.4,0.1c1.3,0,2.6-0.3,3.6-1.6
		c6.4-8.6,9.1-21.5-1.4-29.9c-2.1-1.7-3.8-4.2-3.2-6.3c1.1-4.6-0.8-7.1-4.6-8.8c-4.3-2-3.6-4.9-1.7-8.1c1.1-1.8,2.8-3,4-4.8
		c3.2-4.8,5.8-7.4,8.5-7.4c2.5,0,5.1,2.3,8.2,7.1c0.3,0.4,0.5,0.9,0.7,1.3c0.4,1,1.9,1.9,0.7,3c-0.3,0.3-0.6,0.4-0.9,0.4
		c-0.8,0-1.4-1-2-1.4c-1-0.8-2-1.8-2.9-2.7c-0.7-0.7-1.5-1-2.2-1c-1.5,0-2.9,1.1-4,1.7c-1.2,0.6,0.3,3,1.5,4.2
		c3,3.1,5.8,6.4,9.1,9.2c8.5,7.2,11.3,16.4,10.4,27.2c-1.2,14.4-9.3,22.4-23.1,22.4c-0.2,0-0.4,0-0.6,0c-0.5,0-1,0-1.5,0
		c-0.3,0-0.6,0-1,0.1c-4.6,0.6-5.9,2.6-4.4,7.1c5.5,17,11.4,33.9,16.2,51.1c2.4,8.7,7.3,14.6,14.9,19.6c0.2-5,0.3-7,2-7
		c1,0,2.7,0.8,5.4,2.1c0.3,0.1,0.6,0.3,0.9,0.5c0.7,0.4,1.6,0.9,2.3,0.9c0.6,0,1.1-0.3,1.5-1.2c0.7-1.7-0.2-3.4-1.7-4.2
		c-0.9-0.5-2.2-0.4-3.4-0.5c-4.2-0.5-8.6-5.4-8.4-9.6c0-0.8,0.4-1.7,0.9-2.2c0.2-0.2,0.4-0.3,0.6-0.3c0.5,0,0.9,0.6,1.4,1
		c2.9,2.1,5.6,5.1,8.8,5.9c5.5,1.3,9.3,3.7,11,9.2c0.1,0.3,0.6,0.6,1,0.9c1.4-2.1-1.4-4.7,0-5.6c4.4-2.8,0.6-3.5-0.8-5.1
		c-1.1-1.4-2.5-2.3-4-3.1c-10.8-6.2-19.5-14.4-24.9-25.7c-1.9-4-3.2-8.5-2.1-13c4.2-16.2,11.6-31.2,24.2-42.1
		c6.9-6,10-12.4,11.8-20.6c0.4-1.9,1-3.8,1.8-5.6c2-4.5,3.8-9.2,9.3-10.9c0.5-0.1,1-0.2,1.5-0.2c1,0,2,0.2,2.8,0.2s1.5-0.1,1.9-0.7
		c3.3-3.8,7.9-7.1,8-12.7c0.1-5-4.8-5.3-8-6.9c-0.4-0.2-0.9-0.4-1.4-0.6c-4.8-2.7-7.4-10-3.9-12.5c3.3-2.4,2.9-5,3-7.9
		c0-1.2,0.3-2.3,2-3.4c0.8,4,1.7,7.9,2.6,11.7c1.3,5.3,1.3,5.9,7.4,6.3c-3.3-17.2-6.2-34.4-19.4-47.5c-1.9-1.9-3-4.9-5.7-4.9
		c-1,0-2.3,0.5-3.9,1.6c-2.7,1.9-1.5,2.5-0.6,3.7c3.5,4.7,6.2,9.8,7.8,15.5C177.3,413.3,178.2,415.6,175.8,418.7 M254.2,437.5
		c3.3,0,4.6-2,8.2-8.3c0.2-0.4,0.5-0.7,0.7-1.1c5.9-11,3.3-13.9-6.3-23.5c-1.9,4-3.8,8-5.7,11.9c-0.5,1.1-1,2-0.3,3.3
		c3.2,5.9,3,11.6-1.9,16.9C251.1,437.2,252.8,437.5,254.2,437.5 M251.8,480.9c1.9,0,2.9-2.4,5.3-7.8c1.6-3.5,1.3-5.9-2-8
		c-1.9-1.2-3.2-2.9-3.1-5.3c-0.1-1.4,0.3-2.6,1.4-3.5c0.4-0.4,0.7-0.5,1-0.5c0.7,0,0.9,1.2,1.5,1.5c0.9,0.5,1.9,0.9,2.8,0.9
		c0.6,0,1.3-0.2,1.8-0.6c1.9-1.4-0.4-2.5-0.7-3.8c-0.3-1.6-0.8-3.2-1.4-4.7c-0.8-2-1.7-3.4-3.9-3.4c-0.5,0-1,0.1-1.6,0.2
		c-5.9,1.3-9.4,5.2-12.4,9.9c-1.6,2.5-3.1,5-0.1,7.7c1.1,1,1.9,2.7,0.8,4.1c-4,5-0.1,6.9,3.3,9.3
		C248.3,479.5,250.3,480.9,251.8,480.9 M179.5,497.6c1,0,1.7-0.7,2.5-1c6.1-2.2,6.9-3.8,5-9.9c-0.6-2-1.3-4-1.4-6.2
		c-0.1-1.3,0.5-3.1-1.9-3.3c-0.1,0-0.3,0-0.4,0c-1.9,0-2.9,1.1-3.1,2.7c-0.8,5.8-2.6,11.6-1.4,17.6
		C179,497.6,179.3,497.6,179.5,497.6 M182.2,512.9c1.5-1.7,3.3-3.6,4.8-5.8c1-1.5,3.4-3.5,2.3-4.9c-0.4-0.5-0.7-0.7-1.1-0.7
		c-1.2,0-2.4,1.8-3.7,2.1c-1.6,0.3-3,1.3-4.6,2s-1.7,1.8-0.8,3.2C179.8,510,179.6,511.8,182.2,512.9 M69.4,537.5c-1.4,0-3-2-4.4-2.9
		c-1.1-0.7-2.3-1.4-3.2-2.4c-1.1-1.2-2-1.7-2.8-1.7c-1.4,0-2.4,1.5-3.4,3.2c-4.1,7-5.8,14.8-8.1,22.4c-1.6,5.6-2.8,11.6-0.7,17.6
		c0.9,2.7,1.2,6.3-1.6,8.2c-4.8,3.2-4.3,7.4-3.3,12c0.4,1.8,0.1,3.5-0.4,5.3c-0.5,1.7-1.5,4.5,2.2,4.7c0.9,0,1.3,1,1.3,1.9
		c0.1,3.1,2.6,4.9,3.8,7.3c1.9,3.9,7,6.3,7.1,10.3c0.2,5.7,3.5,4.7,6.9,5.5c0.9,0.2,1.9,0.2,3,0.2c0.6,0,1.2,0,1.8,0
		c1.5,0,2.7,0.1,3,0.7c0.8,1.6,1.4,2.1,1.9,2.1c0.9,0,1.6-1.4,2.3-2.1c2.4-2.3,4.6-4.8,6.8-7.3c0.9-1,2.1-1.9,1.3-3.4
		c-0.3-0.6-0.8-0.8-1.3-0.8c-0.6,0-1.3,0.2-1.9,0.3c-3,0.3-5.9,0.6-8.9,0.6c-3.6,0-7.3-0.4-10.8-1.7c-6.4-2.4-11.4-7.7-12.1-13.5
		c-1.6-13.3,2.2-26.2,9.3-37.3c2.3-3.7,3.9-7.9,6.6-11.4c1.2-1.6,2.5-4.2-0.4-6c-0.9-0.6-1.3-1.7-0.4-2.5c0.3-0.3,0.5-0.4,0.8-0.4
		c0.6,0,1.1,0.8,1.7,1.2c5.5,4,8.6,15.7,5.6,21.8c-0.5,1-1.3,2-2.2,2.7C60.5,578,59,587,58.3,596.2c-0.7,3.1,0.3,5.8,2.4,7.8
		c5.4,5.2,12.2,7.8,19.6,8.5c0.5,0,1,0.2,1.5,0.2s1-0.2,1.1-0.7c0.4-2.3,0.2-4.7-0.7-6.8c-0.3-0.7-0.6-1-1-1c-0.6,0-1.1,0.6-1.7,1
		c-0.5,0.3-0.9,0.5-1.2,0.5c-0.9,0-1.4-0.9-1.8-1.8c-0.9-1.9-1.4-4.1-2.5-5.9c-1-1.6-3.6-3.1-1-4.5c2.1-1.2,3.5-4.4,6.1-4.4
		c0.9,0,1.8,0.3,3,1.2c6.4,4.5,12.2,9.2,12.4,18c0.1,2.4,1.2,3.7,4,3.8c7,0.1,13.5,2,19.6,5.6c1.8,1.1,3.8,2.1,5.8,2.5
		c0.4,0.1,0.7,0.1,1.1,0.1c2,0,3.7-1.4,4.9-3c1-1.3-0.8-2-1.6-2.6c-14.1-11.4-25.2-25.2-33-41.6c-6.2-12.8-6-25.2,1.7-37.3
		c3.2-5,2.6-17.5-1.5-21.3c-0.9-0.8-2.1-2.3-3.6-2.3c-0.2,0-0.4,0-0.6,0.1c-0.7,0.2-1.4,0.3-2.1,0.3c-3.9,0-6.4-2.9-8.9-5.4
		c-1.8-1.8-3.6-2.6-5.2-2.6c-2.1,0-3.9,1.6-4.9,4.7c-1.2,3.8-2.6,7.5-3.6,11.4c-0.8,3.2-0.8,6.3,2.3,8.9c2.2,1.8,2.8,5.9,1.6,7.4
		C70.3,537.4,69.9,537.5,69.4,537.5 M156.6,572.6c1,0,1.7-0.6,1.5-1.7c-1.1-5-1.5-9.8,1.3-14.2c-1.4-2.4-0.7-5-2.3-7.2
		c-2.1-2.8-0.2-12.3,2.9-13.4c3-1,2.8-3,2.3-4.6c-2.1-6.9,2.8-10.8,6.3-15.2c1.2-1.6,0.6-2.8,0.2-4.1c-0.3-0.9-0.7-1.2-1.2-1.2
		c-0.7,0-1.5,0.6-2,0.8c-2.4,1.2-4.3,2.9-6,5c-8,9.5-12.3,20.9-15.8,32.6c-0.8,2.7-1.7,5.7-0.6,8.6c2.3,5.9,7.3,9.8,11.9,13.8
		C155.3,572.4,156,572.6,156.6,572.6 M220.2,523.1c0.2,0,0.5-0.1,0.9-0.3c2.7-1.4,4.8-4.2,4.3-7.7c-0.2-1.7-1.5-3.8-3.4-3.8
		c0,0,0,0-0.1,0c-2.3,0-1.5,2.4-1.8,3.8c-0.4,1.6-0.5,3.2-0.8,5.5C219.4,521.2,219.1,523.1,220.2,523.1 M197.3,525.5
		c0-4.2,0-7.4,0-10.6c0-1.7-1.2-2.5-2.5-2.5c0,0,0,0-0.1,0c-1.5,0-1.4,1.5-1.5,2.6C193,518.7,193.4,522.1,197.3,525.5 M170.1,547.2
		c1,0,1.8-0.7,2.8-1.3c0.7-0.4,1.5-0.6,2.3-0.7c5.4-0.6,6.5-2.6,4.1-7.5c-1.6-3.2-3.4-6.4-5.2-9.5c-1.1-3.1-2.3-6.2-3.6-9.8
		c-2.8,4.6-2.6,8.3,0.5,11.8c-1.2,3.6-2.5,7.2-3.5,10.9c-0.5,1.8-1,3.9,1,5.5C169.1,547,169.7,547.2,170.1,547.2 M219.9,538.3
		c1.1,0,1.9-0.6,2.3-1.8c0.9-3.2,1.8-6.5,2.9-10.5c-5.4,1.8-7.7,4.7-7.5,9.4c0.1,1.1-0.1,2.4,1.5,2.8
		C219.4,538.3,219.7,538.3,219.9,538.3 M121.7,596.1c0.2,0,0.4-0.1,0.7-0.2c1.7-0.9,0.6-2.5,0.2-3.9c-5.2-15.7-10.4-31.4-15.7-47.1
		c-0.3-1-0.4-2.3-1.6-2.7c-0.1,0-0.2,0-0.3,0c-0.9,0-1.3,0.5-1.5,1c-2.7,7.5-5.8,15.2-1.9,23c4.9,9.8,10.9,19,17.7,27.6
		C120,594.8,120.6,596.1,121.7,596.1 M180.9,580.1c-0.3-5.2-2-9.7-5.1-13.6c-0.9-1.1-2.1-1.3-3.5-1.3h-0.1c-0.9,0-1,0.6-1,1.3
		C171,569.4,177.4,578.6,180.9,580.1 M234.5,594.2c0.4,0,0.7,0,1.1-0.1c5.1-0.3,10.2-3.2,10-5.7c-0.2-2.7-7.4-8.1-11.4-8.1
		c-0.5,0-0.9,0.1-1.3,0.3c-3.6,1.7-1.2,6.7-2.5,10.2C229.8,592.4,231.9,594.2,234.5,594.2 M219.5,587.8c1.3,0,2.4-1.5,3.8-1.9
		c-1.5-0.1-2.4-2.1-3.7-2.1c-0.4,0-0.9,0.2-1.4,0.7c-0.7,0.6-0.9,2,0,2.7C218.6,587.7,219,587.8,219.5,587.8 M160.4,606.2
		c-1,0-2-0.2-3-0.2s-2.2,0.2-3.4,0.8c1.9,2.6,4.4,3.5,6.7,4.6c0.5,0.2,0.9,0.3,1.4,0.3c0.8,0,1.4-0.3,1.7-0.9c0.5-1.1,0.2-2.6,0-3.9
		c-0.1-0.8-0.6-1-1.2-1c-0.4,0-0.8,0.1-1.2,0.2C161.1,606.2,160.8,606.2,160.4,606.2 M80,659.5c3.8,0,7.3-1.8,10.6-3.8
		c3.3-2,0.7-5.1,1-7.7c0-0.5,0.1-1,0.1-1.5c0-4.6,0.3-6,2.8-6c0.8,0,1.9,0.2,3.3,0.4c0.8,0.1,1.6,0.8,2.4,0.8c0.4,0,0.8-0.2,1.2-0.7
		c0.8-1.2-0.6-2.1-1-3.1c-1.7-4.4-0.9-5.5,4.1-6.4c2.9-0.5,5.7-1.7,8.5-2.7c1.9-0.7,1.5-1.9,0.3-2.9c-4.1-3.5-9-5.6-14-7.2
		c-0.5-0.1-1.3-0.4-2.2-0.4c-0.9,0-1.8,0.3-2.4,1.4c-5.1,9.6-13.3,16.2-21.4,22.9c-4.5,3.7-2.1,14.7,3.4,16.3
		C77.6,659.3,78.8,659.5,80,659.5 M183.1,7.1L183.1,7.1L183.1,7.1c-5.4,0-10.1,1.7-14,5.1l-0.1,0.1c-5.1,4.5-6.6,9.3-6.7,13.2
		c-7,1.2-13.7,4.6-20.3,10.4c-2.6,2.3-5.2,5.2-7.4,8.8c-0.5-1-1.2-1.9-1.9-2.8c-3.3-4-8.1-6.2-13.2-6.2c-5.9,0-10.1,3-11.9,4.3
		c-7.8,5.6-12.2,14.8-11.7,24.7c0.3,6.3,2.6,12.4,6.4,17.4c-4.9,6.1-7.3,13.2-6.9,20.7c-4.3,4.8-8,12-8.2,22.5
		c-0.1,6.9,2.4,13.3,7.1,18c2.1,2.2,4.6,3.9,7.3,5.1c-0.7,5.6,0.8,11.4,4.4,16.4c1.1,1.4,2.1,2.7,3.3,3.8c-3.1,3.1-5,6.8-5.7,11
		c-1.7,1.4-3,3.1-4.1,5.1c-1.5,2.9-2.2,6.1-2.1,9.3c-0.9,1.6-1.4,3.1-1.9,4.4c-2.6,1.6-4.7,4-6,6.9c-0.1,0.3-0.3,0.6-0.4,1
		c-1.3,1.4-2.3,3-3.2,4.8c-0.3,0.7-0.6,1.4-0.8,2c-0.5,0.2-1.1,0.4-1.6,0.7c-5.6,2.8-9.4,7.3-11.1,12.7c-2.5,1.8-4.6,4-6.1,6.6
		c-2.3,4-3.1,8.5-2.3,13c-1.7,3.1-3.7,7.2-4.4,12.2c-0.8,5.7-3.8,11.2-7.2,17.7c-0.6,1.1-1.2,2.3-1.9,3.5c-0.4,0-0.9,0-1.3,0
		c-6.9,0-13.7,3.4-17.9,8.9c-0.1,0-0.3,0.1-0.5,0.1c-8.4,1.7-14.1,7.1-15.9,15c-3.6,2.7-6.2,6.8-6.9,11.1c-2,6.8-0.8,11.8,1.3,15.3
		c-2,3.5-3.6,7.3-4.7,11.6l-0.1,0.3c-0.4,1.6-1.2,4.5-0.7,8.1c0.8,6.3,4.8,11.5,10.9,13.9c2.1,0.8,4.3,1.3,6.5,1.3
		c0.8,0,1.7-0.1,2.6-0.2c2,3.2,4.9,5.6,8.1,7c1.6,0.7,3.3,1.1,5,1.3c-6.2,5.6-9.7,13.2-10.1,22.1l-0.1,1.1
		c-0.2,4.1-0.4,8.7,0.5,14.1c1,6.4,2.9,13.6,8.8,19.8c1.1,3.4,2.9,6.1,4.5,8.2c-2.6,5.4-4.4,10.7-6,15.5c-1.6,4.9-4,9.8-6.6,15.1
		c-3.4,6.9-6.9,14-9.2,22.3c-6.2,22.3-8.1,44.9-9.9,66.7v0.4c-2,24.2,2.7,47.2,14,68.4c4.9,9.2,12.6,16.1,23.4,21
		c0.2,0.1,0.4,0.2,0.6,0.3c0.1,8.6,2.9,16.6,8.1,23c2.2,2.7,4.8,5,7.7,6.9c-3.4,3.2-5.6,7.7-6.1,12.6c-4.6,3.3-7,7.4-7.9,9.1
		c-0.1,0.3-0.3,0.4-0.3,0.5c-5.6,3.2-8.7,7.4-11.1,10.8c-6.6,1.9-11.4,6.7-13,12.9c-1.5,5.9,0,14.3,9,18.9c1.9,1.3,3.7,2,4.8,2.4
		c6.5,3.1,12.8,4.2,18.4,5.1c4.5,0.8,8.5,1.4,11.1,3c4.8,2.8,10.3,4.2,16.6,4.2c1.6,0,3.2-0.1,5.1-0.3c1.1-0.1,2.3-0.2,3.4-0.2
		c5.9,0,11.1,1.5,16,4.5c8.7,5.4,18.5,8.2,29.1,8.2c2.4,0,4.9-0.1,7.4-0.4c2.4-0.3,4.7-0.5,7.1-0.8c6.5-0.8,12.7-1.5,18.7-1.9
		c4.6-0.3,9.7-0.4,15.6-0.4c5,0,10.2,0.1,15,0.2c0.3,0,0.5,0,0.8,0c4.6,0,8.8-1,12.6-3c2.5,1.1,5.1,1.6,7.8,1.6
		c4,0,7.9-1.2,11.3-3.5c2.1,0.2,4.2,0.3,6.4,0.3c7.6,0,14.8-1.5,21.2-2.7c3.2-0.7,6.3-1.3,9.2-1.7c2.9-0.4,5.5-1.2,7.5-1.8
		c1-0.3,2.1-0.6,2.9-0.8l0,0c1.4,0.3,3.6,0.8,6.3,0.8c0.3,0,0.6,0,0.9,0c4.7-0.2,9-1.1,12.7-1.9c2.9-0.6,5.7-1.3,7.8-1.3
		c0.5,0,0.9,0,1.3,0.1c1.1,0.2,2.3,0.3,3.5,0.3c4.7,0,8.5-1.5,11.4-3.8c4.6-0.1,8.7-1.8,11.7-4.7c5.1-0.4,11.2-1,17.1-3.9
		c6.5-3.2,13.7-5.1,21.4-7.2c1.4-0.4,2.9-0.8,4.3-1.2c10.2-1.7,13-9.8,13.6-12.2s2-10.8-6.1-17.1c-1.2-1.2-2.4-2.4-3.6-3.6
		c-2.3-2.3-4.6-4.7-7.3-7.1c-1.2-1-2.5-2.8-3.9-4.7c-2.8-3.7-6.3-8.4-11.8-12.1c-2.5-1.7-3.3-2.5-3.5-2.9
		c-0.4-6.4-3.4-12.4-8.1-16.1c-0.1-0.2-0.1-0.3-0.2-0.5c-0.8-2.2-2.1-5.8-4.9-9.2c-0.2-1.9-0.6-3.8-1.4-5.8c-1.3-3.5-3.3-6.5-5.9-9
		c-0.9-3-2.2-5.3-3.1-7.1c-0.2-0.4-0.4-0.7-0.6-1.1c-4.3-8.2-9.8-12.9-15.2-15.4c-0.2-4.4-1.3-8.4-3.4-12
		c-3.7-6.5-10.2-11.1-19.2-13.5c-2.1-0.6-4.2-0.8-6.4-0.8c-3.5,0-6.3,0.7-8.4,1.2c-0.1,0-0.3,0.1-0.4,0.1c-0.9-2.1-2.2-4-3.7-5.5
		c1.3-3.8,1.6-7.6,0.9-11.3c3.6-4.3,6.6-8.7,9.1-13.4c0,0,0,0,0-0.1c0.7-1,1.9-2.7,2.8-5.1c1.1-2.8,1.4-5.8,1-8.6
		c0.1-0.1,0.2-0.3,0.4-0.4c5.3-0.6,10-3.7,12.8-8.4c1.5-2.4,2.1-4.8,2.5-6.1c0-0.1,0.1-0.2,0.1-0.3c3.3-8.8,6.4-17.6,9-26.1
		c3.6-11.8,5-24.1,4.2-36.7c1.6-1.3,3-2.9,4.1-4.8c1.8-3.1,2.6-6.5,2.4-9.9c0.5-2.6,0.4-4.7,0.3-5.8c0-0.1,0-0.1,0-0.2
		c0-11.5,0.2-25,2.4-38.1c0.4-2.2,0.7-4.3,1.1-6.6c1-5.7,2.1-11.7,2.7-17.8c0.8-7.6,1.8-15.4,2.7-23c1.9-15,3.9-30.6,4.4-46.4
		c0.7-20.4,1.5-43.3-1.5-66.7c1.2-2.2,2-4.8,2.3-7.7V234c1.5-11.8,2.2-22.3,2.2-32.1c0-7.4,0.1-13.6,0.6-19.6
		c1.7-19,3.6-34.7,6-49.3l0.2-1c0-0.2,0.1-0.4,0.1-0.6c2.7-1.1,4.6-2.7,5.7-3.6c0,0,0.1,0,0.1-0.1c1.5-1,2.9-2,4.4-3
		c9.9-6.7,19.3-13.1,29.6-16.9c19.1-7.2,21.1-21.3,20.6-29.1c0-0.5,0-0.9,0-1.1c6.6-5,7.6-11,7.5-14.3c0.4-0.6,1.1-1.4,1.7-2.1
		c1.3-1.6,2.9-3.6,4.4-6c4.5-7.5,5.1-14.8,5-21c0-9.7-7.1-17.1-16.4-17.1c-0.4,0-0.8,0-1.2,0c-0.6-0.1-1.1-0.2-1.7-0.3
		c-2.8-1.4-5.5-1.7-7.2-1.7c-4.3,0-8.8,1.8-11.9,5.3c-1.1-0.2-2.1-0.3-3.2-0.3l0,0c-5.8,0-10.9,2.9-13.9,7.9
		c-0.8,1.4-1.4,2.8-1.8,4.3c-1.5-0.4-2.9-0.5-3.8-0.5c-2.7,0-5.4,0.7-7.9,2c-2.1,1.1-12.1,7.3-8,21.3v0.1c0.7,3.1,2.2,7.5,5.6,11.3
		c2.4,2.6,4.1,4.9,5.2,7c-0.7,0.3-1.3,0.6-2,1c-2.1,1-4.3,2.1-6.5,3.1l-0.4,0.2c-0.1,0-0.2,0.1-0.3,0.1c-0.5-4-2-8.2-4.4-12.5
		c-4.3-7.3-11.9-11.7-20.5-11.7c-0.8,0-1.6,0-2.4,0.1c-13.1,1.2-16.4,10.9-17.1,13.9c-0.1,0.4-0.2,0.8-0.2,1.2
		c-1.8,0.5-3.6,1.2-5.3,2.2c-6.5,3.5-12.3,9.7-16.3,17.4c-1.3,2.4-2.3,4.9-3.1,7.4c-1-0.4-2.1-0.8-3.3-1.1c-2.7-3.6-6.7-6.4-11-8
		c-0.2-0.7-0.3-1.4-0.6-2.1c-1.3-4.1-3.6-7.8-6.9-11.1c0.2-2.8-0.3-5.7-1.5-8.5c-2.8-6.1-8.5-9.8-15.1-9.8c-0.8,0-1.5,0.1-2.2,0.1
		c-2.3-3-5.7-5.1-9.5-5.8c-0.5-0.9-1.1-1.7-1.7-2.4c-0.2-0.2-0.4-0.4-0.6-0.7c-2.8-9.2-10.6-16.6-19.8-19.1
		c-0.7-2.7-1.9-5.5-3.8-8.3c-0.7-1-1.6-2-2.5-2.8c-1.3-1.7-3-3.1-5-4.2l-6-3c-2.1-1.1-4.4-1.6-6.8-1.6c-0.2,0-0.4,0-0.6,0
		c-0.1,0-0.4,0-0.6,0C185.2,7.2,184.2,7.1,183.1,7.1L183.1,7.1L183.1,7.1z M228.3,342.4L228.3,342.4L228.3,342.4L228.3,342.4z
		 M147.6,457.1c3.6-2.1,6.5-5.2,8.4-8.9c2.2-4.4,4.8-8.7,7.5-13.2c1.2,0.5,2.3,0.9,3.5,1.1c-0.3,1.5-0.3,3.1-0.3,4.7
		c0.3,5.9,2.9,11.6,7,16c-8.6,4.3-12.1,12.2-14.1,16.7l-0.3,0.7c-1.2,2.7-2.1,5.6-2.8,8.6c-0.1,0.4-0.2,0.8-0.3,1.1
		c-1.6-4-3.8-7.6-6.6-11c1.8-4.5,1.7-10-1.9-15.4C147.8,457.4,147.7,457.2,147.6,457.1L147.6,457.1z M166,544.7L166,544.7L166,544.7
		z"/>
</g>
</svg>
