<?xml version="1.0" encoding="utf-8"?>
<!-- Generator: Adobe Illustrator 24.1.0, SVG Export Plug-In . SVG Version: 6.00 Build 0)  -->
<svg version="1.1" id="Livello_1" xmlns="http://www.w3.org/2000/svg" xmlns:xlink="http://www.w3.org/1999/xlink" x="0px" y="0px"
	 viewBox="0 0 340.2 509.5" style="enable-background:new 0 0 340.2 509.5;" width="50" height="50" xml:space="preserve">
<style type="text/css">
	.st0{fill:#FEFEFE;}
</style>
<g id="R9sSw6_1_">
	<g>
		<g>
			<path class="st0" d="M251.1,499.8c-2.6,0-6.4-0.4-9.5-2.4c-6-3.7-8.3-9.8-6.8-18.2l0.3-1.5c0.6-3.4,1.2-6.5,1.1-9.6
				c-0.2-4.4-3-6.9-8-10.9c-1.5-1.2-3-2.4-4.5-3.8c-0.2-0.1-0.6-0.2-1.2-0.2s-1.7,0.1-2.7,0.9c-6.5,5-12.1,7.3-17.9,7.3
				c-3.3,0-6.6-0.7-10-2.3c0,0.1-0.1,0.2-0.1,0.4c0.1,0.1,0.1,0.3,0.2,0.4c0.6,1.4,1.4,3.2,1.8,5.2c2,11.6-1.5,16.8-13.1,19.2
				c-4.7,1-9.3,2.2-14.2,3.5c-2.9,0.8-5.9,1.6-8.9,2.3c-3,0.7-5.5,1.1-7.9,1.1c-3.3,0-6.4-0.7-9.2-2c-5.2-2.5-8.3-7.5-7.9-12.9
				c0.2-2.3,1.5-7.8,9.5-8.8c0.1,0,0.2,0,0.3,0c1.1-0.3,2.1-0.6,3.2-0.9c4.2-1.1,6.7-1.9,8.1-3.9c2.2-3.2,5.2-4.1,6.8-4.5
				c0.6-0.9,1-2.1,1.3-3.7c-1.3-0.6-2.2-1.3-2.9-2c-3-3.1-2.9-7.2-2.9-8.5c0.4-15.5,2.5-29.2,6.3-41.7c3.2-10.4,6.1-21.5,5.4-32.7
				c-0.2-2.6-0.2-6.4,0.9-10.1c3.7-12.3,5.4-24.8,7.2-38.1c0.3-2.3,0.6-4.5,0.9-6.8c0.2-1.3,0.1-3.1,0-5c-0.1-2.5-0.3-5.4,0.2-8.3
				c-5.6,3.4-10.2,7.4-14.2,12.3c-3.3,4-8.2,7.3-15.1,10c-1.3,0.5-2.7,0.8-4,0.8c-5.9,0-10.3-4.8-11-12.1
				c-0.9-9.5-1.5-19.1-1.9-27.6c-0.2-4.2-0.4-8.6,0.6-13.4c0.6-3.1-0.1-4.9-3.3-7.7c-2.1,33.8-2,68.3-2,101.6c0,4.7,0,9.4,0,14.1
				c0,4.3,0,8.6,0,12.9c0,9.4,0,19.1,0,28.7c0,2.4-0.2,4.7-0.4,6.8c-0.2,1.8-0.3,3.5-0.4,5.1c-0.2,9.9-0.3,21.4,2,32.4
				c1.9,9-2,17.4-10.3,22.5c-2.5,1.5-4.9,2.3-7.3,2.3c-3,0-5.8-1.2-7.9-3.4c-0.3-0.4-0.9-0.8-1.5-1.3c-2.3-1.9-5.8-4.8-7.1-10.6
				c-1.3-6.1-0.2-11.3,0.7-16c0.5-2.6,1.1-5.1,1-7.3c-0.1-7.4,0-14.9,0.2-22.2c0.1-3.8,0.2-7.6,0.2-11.4c0.1-10.4,0.2-20.8,0.3-31.2
				c0.1-7.9,0.1-15.8,0.2-23.7c0.1-7.7,0.2-15.6,0.4-23.1c0.3-18.6,0.7-37.7,0.1-56.5c-0.1-2.3-0.1-4.6-0.1-6.9
				c-0.1-7.5-0.1-14.6-1.9-20.8c-1.1-3.8-1.3-7.5-1.5-10.7s-0.3-6-1.3-8.2c-1.2-2.8-1.2-5.8-0.1-8.3c0.7-1.7,1.9-3,3.4-3.9
				c-0.1-0.8-0.1-1.8-0.1-2.8c0.2-9.2,0.3-18.6,0.4-27.7c0.1-4.5,0.1-9.1,0.2-13.6c-3.4-1.2-6.9-3-8.7-6.9
				c-2.1-4.7-0.1-9.4,1.2-12.5c1.4-3.2,1.3-3.3-0.6-5.1c-15-14.2-18-33.5-18.9-48.8c-0.4-7-0.5-15.2,1.5-23.4
				c-4.1-6.9-7.1-14.1-9.9-21c-1.8-4.3-3.4-8.4-5.4-12.4c-2.3-4.8-1.3-9.6,3.1-14.2c0.1-0.1,0.3-0.3,0.4-0.4
				C66,21.4,79.2,12.9,97.2,10.4c1.6-0.2,3.2-0.3,4.7-0.3c12.6,0,21,7.2,27.9,13.9c9.9,9.6,17.4,22,23.6,38.9
				c1.4,3.9,1,7.6-1.3,11.1c-1.6,2.5-3.2,5-4.8,7.7c-3,4.9-6,9.9-9.7,14.7c2.5,17.1,3.2,36.7-8.2,55.2c-0.2,0.7,0.1,2.8,0.2,4.1
				c0.2,1.8,0.5,3.7,0.4,5.8c-0.6,19.3-0.7,40.5-0.5,66.7c0,0.5,0.1,0.9,0.2,1c0.1,0,0.2,0.1,0.5,0.1l1.2,0.1
				c1.3,0.1,2.4,0.1,3.6,0.1c3,0,4.8-0.4,6.6-1.4c2.1-1.2,4.4-1.9,7-1.9c2.4,0,4.4,0.5,6.3,1c1.1,0.3,2.2,0.6,2.8,0.6
				c0.5,0,0.9,0,1.3,0c2.4,0,4.5,0.4,6.3,0.8c1.4,0.3,2.6,0.5,3.6,0.5c0.5,0,1-0.1,1.4-0.2c0.2-0.1,0.4-0.1,0.5-0.2
				c1.5-4.6,4.5-13.5,15.1-13.5c2.1,0,4.4,0.3,7.6,1.1c2.4,0.6,4.8,1.1,7.4,1.6c0.8,0.2,1.7,0.3,2.5,0.5c0.1-3.6,0.8-6.9,1.5-10
				c0.5-2.1,0.9-4.1,1.1-6c1.1-11.5,14.9-19.5,26.6-19.5c2.7,0,5.2,0.4,7.4,1.2c7.8,2.8,13.5,7.9,16,14.3c1.6,4.3,2.7,11.2-1.9,19.6
				c-1.8,3.3-1.8,6.8-1.9,11.2c0,0.4,0,0.7,0,1.1c3.8,1.2,7.5,2.4,11.2,3.5c4.5,1.4,9.2,2.9,13.8,4.3c8.9,2.7,10,10.1,10.6,13.6
				c1.5,9.6-1.5,17.7-8.7,24.3c-0.3,11.5-3,22.2-5.7,32.6c-1.4,5.2-2.6,10.2-3.6,15.2c-0.4,2-0.7,4-1.1,6.2c-1,6.2-2,12.6-4.7,18.8
				c-2.2,4.9-2.6,10-1.6,17.5c1.4,10.3,1.4,19.1,0,26.3c-1.7,8.3,0.8,15.6,3.7,24c1,3,2,6,2.9,9.2c0.6,2.1,1.2,4.2,1.8,6.3
				c2.4,8.2,5,16.7,4.9,26.1c0,9.8-4.7,13-9.4,13.7c0.6,1.4,1.1,2.7,1.7,4.1c1.2,3,5,12-2.9,19.3
				C260.4,499.5,253.2,499.8,251.1,499.8z"/>
			<path d="M101.9,17.7c9.6,0,16.2,5.5,22.7,11.8c10.4,10.1,16.8,22.6,21.8,36.1c0.7,1.9,0.4,3-0.6,4.4c-5,7.7-9.2,15.9-15.1,23
				c-0.9,1.1-1.1,1.7-0.8,3.2c2.7,17.8,3.1,35.3-7,51.6c-2.4,3.9-0.3,9-0.4,13.6c-0.7,22.3-0.7,44.6-0.5,67c0,4.3,2.5,8.3,7.8,8.5
				c1.7,0.1,3.4,0.2,5.1,0.2c3.5,0,7-0.4,10.4-2.5c1-0.6,2.1-0.8,3.1-0.8c2.9,0,6,1.6,9.1,1.6c0.2,0,0.4,0,0.5,0c0.2,0,0.5,0,0.7,0
				c3.3,0,6.5,1.3,10,1.3c1.3,0,2.6-0.2,4-0.7c2.8-1,4.1-2,5-4.6c2-6.2,3.8-8.6,8.1-8.6c1.6,0,3.5,0.3,5.9,0.9
				c5.1,1.2,10.2,2,15.3,3.2c0.7,0.2,1.4,0.3,1.9,0.3c2,0,3-1.1,2.4-3.8c-1.5-7,1.5-13.5,2.2-20.2c0.7-7,10.8-12.7,19.1-12.7
				c1.7,0,3.4,0.2,4.9,0.8c11.1,4,15.5,13.1,10,23.4c-3.4,6.4-2.5,12.7-2.9,19.2c-0.2,2.7,1.5,2.6,3.3,3.2
				c9.1,2.8,18.1,5.8,27.2,8.5c4,1.2,4.7,3.7,5.3,7.5c1.2,7.8-1.4,13.5-7.1,18.4c-1,0.8-1.6,1.8-1.6,3.2c0,16.6-6.1,32-9.2,48
				c-1.5,7.9-2,16.1-5.3,23.4c-3.2,7.2-3.2,14-2.2,21.5c1.1,7.9,1.5,16.4,0.1,23.8c-2.7,13.7,3.5,24.7,6.7,36.6
				c2.8,10.1,6.6,19.8,6.5,30.4c0,4.8-0.8,6.4-4.3,6.4c-0.9,0-1.9-0.1-3.1-0.3c-1.7-0.3-3.5-0.2-5.8-0.3c2.2,5.3,4.2,10.1,6.2,14.9
				c1.6,3.8,2.5,7.6-1,10.9c-1.8,1.6-5.4,2.6-8.8,2.6c-2.1,0-4.2-0.4-5.5-1.2c-4-2.5-4.1-6.4-3.4-10.5c0.8-4.2,1.6-8.3,1.4-12.8
				c-0.5-10.2-9.1-14.4-15.1-19.9c-1.3-1.3-3.6-2.1-6.1-2.1c-2.4,0-5,0.7-7.3,2.5c-5,3.8-9.2,5.7-13.3,5.7c-4.4,0-8.7-2.1-13.9-6.2
				c-2.1,3.3-2.5,7.4-3.9,10.9c-0.8,1.9,1.7,5,2.2,7.8c1.3,7.7,0.3,9-7.2,10.6c-7.8,1.6-15.5,3.9-23.3,5.8c-2,0.5-4.1,0.8-6.1,0.8
				s-4-0.4-6-1.3c-2.3-1.1-3.8-3.2-3.7-5.5c0.2-2.2,2.8-1.7,4.4-2.2c5.6-1.7,11.7-2.4,15.4-7.9c1.3-1.9,3.9-1.2,5.5-2.9
				c3.8-4,3.7-9.1,4.8-13.8c0.5-2-0.6-2.4-1.8-2.4c-0.4,0-0.8,0-1.2,0.1c-0.3,0-0.6,0.1-0.8,0.1c-2.2,0-2.9-1.2-2.8-3.8
				c0.3-13.5,2-26.6,6-39.6c3.5-11.4,6.4-23.1,5.7-35.3c-0.2-2.5-0.1-5.1,0.6-7.5c4.6-15,6.2-30.6,8.4-46c0.7-5.2-1.1-11.2,1-16.1
				c1.8-4.2,0.2-7.1-0.3-10.5c-11.1,4.4-20.4,10.6-28,19.8c-2.9,3.5-7.6,6.1-12,7.8c-0.5,0.2-0.9,0.3-1.2,0.3
				c-2.3,0-3.3-3.1-3.6-5.3c-0.9-9.1-1.4-18.2-1.9-27.3c-0.2-3.8-0.3-7.6,0.5-11.5c2.3-11.3-6.9-15.4-13.6-21
				c-0.6-0.5-1.2-0.7-1.7-0.7c-1,0-1.9,0.9-2.2,2.5c-0.1,0.7-0.1,1.4-0.1,2.1c-2.9,41.2-2.5,82.4-2.5,123.7c0,13.9,0.1,27.8,0,41.6
				c0,3.9-0.7,7.9-0.8,11.8c-0.3,11.4-0.2,22.8,2.2,34.1c1.3,6-1.3,11.2-6.8,14.5c-1.1,0.7-2.3,1.2-3.5,1.2c-0.9,0-1.7-0.3-2.5-1.1
				c-2.4-2.5-5.6-3.8-6.6-8.3c-1.7-7.7,2.1-14.5,1.9-21.9c-0.2-11.1,0.3-22.2,0.4-33.3c0.2-18.3,0.3-36.7,0.5-55
				c0.3-26.6,1.3-53.3,0.4-79.9c-0.3-9.8,0.3-20.3-2.3-29.5c-1.9-6.7-0.4-13.5-3.1-19.8c-0.5-1.1-0.5-2.6,0.5-2.9
				c5-1.7,3.3-5.7,3.3-9c0.3-14.1,0.4-28.2,0.6-42.4c0-2.9-0.6-4.7-4-5.8c-6.4-2.1-6.7-3.6-4.1-9.7c2.2-5,2.6-8.8-2.4-13.5
				c-12.4-11.7-15.6-27.5-16.5-43.8c-0.4-7.3-0.4-14.8,1.5-22c0.3-1.2,0.6-2.2-0.2-3.5c-6.8-10.7-10.3-22.9-15.8-34.2
				c-1.7-3.6,2-5.4,3.1-7.3C72,27,83.6,20.3,98.6,18.3C99.5,17.7,100.7,17.7,101.9,17.7 M101.9,2.7c-1.9,0-3.8,0.1-5.7,0.4
				c-20.1,2.7-35,12.2-44.3,28.2c-1.2,1.2-3.1,3.3-4.4,6.3c-2.3,5.1-2.2,10.8,0.3,16c1.8,3.8,3.4,7.8,5.2,12
				c2.6,6.4,5.3,13,8.9,19.5c-1.6,8.1-1.4,15.9-1,22.6c0.9,16,4,36.3,19.4,52c-1.6,3.9-3.5,10.2-0.5,16.9c1.9,4.2,5,6.9,8,8.6
				c0,2.9-0.1,5.9-0.1,8.8c-0.1,8.9-0.2,18.2-0.4,27.3c-1.1,1.2-2,2.6-2.7,4.1c-2,4.4-2,9.6,0,14.3c0.4,1.1,0.6,3.4,0.7,5.7
				c0.2,3.4,0.4,7.7,1.7,12.3c1.5,5.2,1.5,11.8,1.6,18.8c0,2.3,0,4.7,0.1,7c0.6,18.6,0.2,37.6-0.1,56.1c-0.1,7.6-0.3,15.4-0.4,23.2
				c-0.1,7.9-0.1,15.8-0.2,23.7c-0.1,10.3-0.2,20.9-0.3,31.3c0,3.7-0.1,7.6-0.2,11.3c-0.2,7.3-0.3,14.9-0.2,22.5
				c0,1.4-0.4,3.4-0.9,5.6c-1,4.8-2.4,11.5-0.7,19.1c1.8,8.3,7.1,12.7,9.6,14.8c0.3,0.2,0.7,0.6,0.8,0.7c3.5,3.7,8.3,5.7,13.3,5.7
				c3.8,0,7.5-1.1,11.2-3.3c2.9-1.7,5.4-3.8,7.4-6.2c2.1,3.3,5.2,6.1,9.1,7.9c3.8,1.8,8,2.7,12.4,2.7c3,0,6.1-0.4,9.6-1.3
				c3.1-0.7,6.1-1.6,9.1-2.3c4.8-1.3,9.3-2.5,13.7-3.4c4-0.8,11.5-2.4,16.2-9.1c3.2-4.6,3.7-9.5,3.4-13.6h0.1
				c8.4,0,15.2-3.7,20.1-7.1c0.5,0.4,1,0.8,1.5,1.2c3.7,2.9,5.2,4.3,5.2,5.4c0.1,2.2-0.4,4.9-0.9,7.9c-0.1,0.5-0.2,1-0.3,1.6
				c-2.7,15.3,5.2,22.8,10.2,25.9c3.7,2.3,8.3,3.5,13.5,3.5c3.6,0,12.5-0.6,19-6.5c5-4.6,9.9-12.7,5.7-25.1c1.9-1.5,3.2-3.2,4-4.5
				c2.8-4.4,3.2-9,3.2-13c0-10.6-2.8-20-5.3-28.3c-0.6-2.1-1.2-4.1-1.8-6.2c-0.9-3.4-2-6.6-3.1-9.6c-2.9-8.6-4.6-14.1-3.4-20.1
				c1.6-8,1.6-17.6,0.1-28.7c-0.8-6.1-0.5-9.8,1-13.4c3.2-7.1,4.3-14.3,5.3-20.7c0.3-2.1,0.6-4.1,1-5.9c0.9-4.8,2.2-9.7,3.5-14.8
				c2.6-9.9,5.2-20.1,5.8-31.2c7.4-7.9,10.4-17.8,8.7-28.7c-0.5-3.1-1.2-6.7-3.4-10.3c-1.9-3.1-5.6-7.3-12.4-9.3
				c-4.5-1.4-9.2-2.9-13.7-4.3c-1.9-0.6-3.8-1.2-5.8-1.8c0.1-1.4,0.4-2.4,0.8-3.3c4.6-8.6,5.4-17.7,2.3-25.9
				c-3.3-8.5-10.5-15.1-20.4-18.7c-3.1-1.1-6.4-1.7-10-1.7c-15.3,0-32.6,10.6-34.1,26.3c-0.1,1.4-0.5,3.2-0.9,5.1
				c-0.2,0.8-0.4,1.7-0.6,2.7c-0.6-0.1-1.2-0.3-1.8-0.4c-3.8-0.9-6.7-1.3-9.3-1.3c-11.7,0-17.4,7.4-20.2,13.3
				c-1.9-0.4-4.1-0.7-6.8-0.7c-0.3,0-0.7,0-1,0c-0.3-0.1-0.8-0.2-1.2-0.3c-2-0.5-4.8-1.2-8.1-1.2c-3.9,0-7.5,1-10.8,2.9
				c-0.1,0.1-0.3,0.2-0.7,0.2c-0.1-23.2,0-42.4,0.6-60c0.1-2.7-0.2-5.1-0.5-7c0-0.3-0.1-0.7-0.1-1.1c10.8-18.8,10.7-38.1,8.5-55.1
				c3.1-4.3,5.7-8.6,8.3-12.8c1.6-2.6,3.1-5.1,4.7-7.5c4.6-7,3.7-13.6,2.1-17.8c-6.6-18-14.7-31.2-25.4-41.7
				C129.3,13.1,118.6,2.7,101.9,2.7L101.9,2.7z M143.7,331.8c2.3,0,4.6-0.4,6.8-1.3c8-3.2,14-7.2,18.1-12.2c0.1-0.1,0.1-0.2,0.2-0.2
				c-0.1,0.7-0.2,1.5-0.3,2.2c-1.8,13-3.4,25.2-7,36.9c-1.5,4.9-1.4,9.6-1.2,12.8c0.6,10-2.1,20.3-5.1,30
				c-4.1,13.2-6.2,27.4-6.6,43.7c-0.1,4.1,0.8,7.7,2.6,10.8c-1.2,0.9-2.3,2.1-3.4,3.6c-0.8,0.4-2.7,0.9-4,1.3
				c-0.8,0.2-1.8,0.5-2.7,0.8c-2.7,0.3-4.9,1-6.7,1.9c-1.6-8.6-1.8-17.6-1.5-28.9c0-1.3,0.2-2.9,0.3-4.5c0.2-2.2,0.5-4.8,0.5-7.5
				c0.1-9.6,0.1-19.3,0-28.8c0-4.3,0-8.7,0-13c0-4.7,0-9.4,0-14.1c0-12.1,0-24.3,0.1-36.5C136.4,330.7,139.9,331.8,143.7,331.8
				L143.7,331.8z"/>
		</g>
	</g>
</g>
</svg>
