<?xml version="1.0" encoding="utf-8"?>
<!-- Generator: Adobe Illustrator 24.1.0, SVG Export Plug-In . SVG Version: 6.00 Build 0)  -->
<svg version="1.1" id="Livello_1" xmlns="http://www.w3.org/2000/svg" xmlns:xlink="http://www.w3.org/1999/xlink" x="0px" y="0px"
	 viewBox="0 0 403 441" style="enable-background:new 0 0 403 441;" width="50" height="50" xml:space="preserve">
<style type="text/css">
	.st0{fill:#FEFEFE;}
</style>
<g>
	<path class="st0" d="M220,429.4c-1.7,0-3.5-0.3-5.1-0.8c-6.1-1.9-9.8-7.4-9.3-13.6c-2.8-3.7-4.7-7.6-6.5-11.2
		c-1.1-2.2-2.2-4.4-3.3-6.3c-0.4-0.6-0.7-1.2-1.1-1.9c-0.5-0.9-1.3-2.3-1.7-2.6c-0.8-0.2-1.5-0.5-2.1-1c-1.6-1.1-4.8-3.2-6.4-7.2
		c-2.1-2.5-3.2-5.2-4-7.3c-0.1-0.4-0.3-0.7-0.4-1.1c-2.2-5.3-5.5-7.7-11.2-8.3c-7.8-0.7-12.6-4.3-14.5-10.5c-0.6-1-1.6-3.3-0.9-6.1
		c0.1-0.4,0.2-0.7,0.2-1c-10-2.3-18-7.7-24.5-16.4c-0.3-0.4-0.6-0.8-0.8-1.3l-1.3-2.7c-0.9-1.9-0.9-4-0.2-5.8
		c-4.2-3.5-8.5-7.6-11.1-13.8c-0.2-0.2-0.6-0.7-0.9-1c-0.6-0.6-1.2-1.3-1.8-2.2c-1.1-1.4-3.9-5.2-2.8-9.7c0.1-0.2,0.1-0.4,0.2-0.6
		c-0.8-2.7,0.1-5.2,0.3-5.6c0.5-1.2,1.4-2.3,2.4-3.1c0.8-0.6,1.7-1.2,2.5-1.8c4.4-3.1,6.1-4.5,6.4-7.3c0-0.5,0.2-1.3,0.6-2.3
		c-0.2-1.2-0.1-2.3,0.1-3.2c0.1-0.3,0.1-0.5,0.2-0.7c-2.6-0.1-4.9-0.5-6.9-1.3c0.8,2.2,1.4,5,0.2,8c-1.9,5-6.9,6.5-8.6,7
		c-4,1.2-8.8,2.5-13.8,2.5c-4.1,0-8-0.9-11.6-2.6l-0.4-0.2c-2.3-1.1-6.6-3.2-7.7-8.2c-0.6-2.8,0.1-5.5,1.9-8.2
		c-0.9-0.2-1.8-0.3-2.7-0.3c-1.5,0-3.1,0.3-5.1,0.8c0.8,4-0.3,6.8-1.4,8.6c-1.9,3-5.1,4.9-9.6,5.6c-2.2,0.4-4.5,0.5-7,0.5
		c-5.8,0-11.4-1-16.4-1.9c-6.1-1.1-10.4-4.7-11.9-9.9c-0.5-1.7-0.6-3.4-0.5-5c-2.2,0-6-0.4-8.7-3.4c-1.3-1.5-2.9-4-2.5-8
		c0.5-6.6,3.8-10.2,7.7-11.7c-0.1-0.3-0.1-0.7-0.2-1c-0.3-2.4,0-8.3,7.5-10.9c3.6-1.2,6.2-3.2,8.3-6.2c0.7-1.1,0.9-1.6-1.3-6.2
		l-0.3-0.6c-7.1-15.4-9-32.2-5.8-51.4c0.9-5.6,2.6-10.6,4.2-15.5c0.3-0.9,0.6-1.7,0.8-2.6c7.1-22.1,23-37.2,37.3-49.5
		c2.1-1.8,3.3-2.9,4.1-4.4c2.2-4.2,6.1-7.5,11.6-10c-3-5.8-2.3-12.3,1.8-16.6c2.6-2.7,4.4-6.2,6.4-9.9c2-3.7,4-7.5,7-11.1
		c5.8-7,12.4-12.6,20.2-16.9c3.6-2,7.3-3.8,10.9-5.5c6.5-3.1,12.7-6.1,18.1-10.1c3.8-2.8,9.1-6.2,16.1-7.3c1.6-0.2,3.1-0.4,4.4-0.4
		c4.1,0,7.6,1.1,10.4,3.3c7.1,5.6,16.1,6.9,25.7,8.2c1.3,0.2,2.6,0.4,3.8,0.5c3.2,0.5,6.3,0.8,9.7,1.1c6.9,0.6,14.1,1.3,21.4,3.6
		c10.2,3.2,19.3,8.1,27.8,15.1c4.3,3.5,9.6,5.7,17.6,7.1c17.9,3.1,34,11.6,47.8,25.2c0.9-0.4,2-0.7,3.1-0.7l0,0
		c2.7,0,5.1,1.4,6.4,3.7c0.6-0.2,1.3-0.3,2-0.3c1,0,2.1,0.2,3.1,0.7c2.8,1.2,4.5,4,4.4,6.9c3.1,1.4,7.1,4.8,5.4,12.3V96
		c-1.5,6.9-1.3,12.4,0.8,17.8c4.1,10.8,3.1,21.6-3,30.5l-0.1,0.2c-0.6,1.1-2.1,3.6-5.3,4.6c-0.5,0.2-0.7,0.3-0.7,0.3
		c-0.3,0.5-0.4,3-0.5,4.5v0.9c-0.1,1.9-0.5,3.7-1.2,5.4c0.6,1.5,0.8,3.1,0.5,4.8c-0.5,3.1-2.1,5.7-4.4,7.3c-0.2,1.8,0.4,3.6,1,4.5
		c2.7,4.5,6.4,8.9,10.7,12.8c1.4,1.3,2.4,1.4,6.2,1.4c0.6,0,1.2,0,1.7,0c5.7,0.1,9.7,2.5,11.9,7.1c2.5,0.4,6.2,1.5,7.7,5.8
		c0.1,0.2,0.1,0.4,0.2,0.6c2.6,0.7,5.7,2.4,7.7,6.3c1.2,2.4,1.1,5.2-0.3,7.4c0.6,1.1,0.9,2.1,1,3.1c0.4,3.3-1,6.3-4.2,8.9
		c-3.5,2.7-8.5,4.3-13.8,4.3c0,0-0.3,0-0.4,0c0.1,0.5,0.2,1.1,0.2,1.6c0.2,5.1-2.9,9.4-8.1,11.3c-2.5,0.9-5.1,1.4-7.7,1.4
		c-6.6,0-13-2.9-19.5-8.9c-1.6-1.4-2.9-3-4.1-4.4c-2.7-3.1-4.3-4.9-6.6-5.2c-4.7-0.7-9.1-2.6-13-5.5c-0.2,0.5-0.3,1.2-0.5,1.7
		c-0.4,1.8-1,4-2.4,6.2c-2.3,3.8-6.2,6-10.5,6c-0.1,0-0.2,0-0.2,0c-0.4,1-0.8,1.9-1.2,2.7c-0.2,0.5-0.6,1.2-0.7,1.6
		c-1.2,6.7-6.1,9.3-8.7,10.8c-0.1,0-0.1,0.1-0.2,0.1c-0.3,2.2-1,4.9-2.6,8.1c-1.3,2.6-3.9,4.2-6.7,4.2c-0.6,0-1.1-0.1-1.7-0.2
		c-3.4-0.8-5.8-3.8-5.8-7.3v-4.3c-5.7,2.1-10.5,3.1-15.2,3.1c-5.4,0-10.5-1.4-15.3-4.1c-0.2-0.1-0.7-0.1-1-0.2
		c-0.8-0.1-1.8-0.3-2.9-0.6c-0.5,1.8-1.3,3.3-1.9,4.5c-0.3,0.5-0.7,1.4-0.8,1.7c0,0.3,0.1,0.6,0.1,0.9v10c0,2.3-1,4.4-2.8,5.8
		c-1.3,1.1-3,1.7-4.7,1.7c-0.5,0-1-0.1-1.5-0.2c-2.3-0.5-7.6-2.4-7.9-9.5c-0.2-0.5-0.5-1.1-0.7-1.6c-0.6-1.3-1.1-2.7-1.7-4.1
		c-1.4,2.2-3.8,3.5-6.3,3.5c-0.3,0-0.6,0-0.9-0.1l-0.7-0.1c-3.8-0.4-6.6-3.6-6.6-7.4v-4c0-2.8-0.8-5.9-1.5-9.2
		c-0.8-3.3-1.6-6.6-1.8-10.3c-0.3-0.4-1-1-1.5-1.5c-0.2-0.2-0.4-0.4-0.6-0.6c-0.2-0.1-0.5-0.3-0.8-0.4c-3-1.6-5.1-3.5-6.3-5.7
		c-1.3,0.2-2.4,0.7-3.2,1.6c-1.1,1.1-1.6,2.7-1.6,4.6c0.1,4.2,0,8.5,0,12.6c-0.1,5.7-0.2,11.1,0.2,16.5l0.1,1.9
		c0.3,4,0.5,7.8,1.1,11.4c0.1,0.6,0.4,1.3,3.2,3.4c5.4,4,8.4,10.3,10.9,15.3c3.4,7,7.3,15.3,9.9,24c0.5,1.7,1.5,3.4,2.7,5.4
		c1.1,1.9,2.3,3.9,3.3,6.3c1.3,1,2.6,2,3.9,3.1c6.1,5,11.5,9.3,18.2,9.3c0.7,0,1.3,0,2-0.1c0.5-0.1,1-0.1,1.5-0.1
		c5.3,0,8.9,3.2,11.1,5.2l0.3,0.2c2,1.8,4,2.6,6.4,2.6c0.8,0,1.7-0.1,2.7-0.3c1.2-0.3,2.3-0.4,3.4-0.4c3.5,0,6.7,1.3,9.1,3.6
		c0.4,0.4,0.9,0.7,2.3,0.9c1.2-0.5,2.6-0.9,4.2-0.9c3.4,0,6.4,1.7,8.3,4.7c1.4,2.2,1.9,4.7,1.3,7c-0.9,3.7-3.7,5.5-5.1,6.3
		c-0.2,0.2-0.4,0.3-0.7,0.5c0.6,1.3,1,2.5,1.3,3.6c1.2,1.1,2.1,2.4,2.8,3.9c1.1,0.6,2.7,0.8,5.3,1.1c1.3,0.2,2.6,0.3,4.1,0.6
		l0.3,0.1c2.4,0.5,8.9,1.6,10.5,8.9c0.6,2.8,0.6,8.1-6.2,11.5c-0.1,0.1-0.2,0.1-0.3,0.2c-3.3,2.2-7.1,3.2-11.6,3.2
		c-1.9,0-3.8-0.2-5.5-0.4c0.6,1.9,0.6,3.7,0.5,4.8c-0.9,8.3-7.8,10.3-10.8,11.2l-0.6,0.2c-1,0.3-1.9,0.4-2.6,0.6l-0.3,0.1
		c-2.3,0.4-4.2,0.6-5.8,0.6c-2.7,0-5-0.5-6.8-1.4c-1.3,3.1-4.3,6.3-10.6,8.1c-2.8,0.8-5.2,1.3-7.5,1.3c-4.3,0-7.2-1.7-9.5-4
		c-0.3,0.3-0.5,0.5-0.7,0.6C228.3,427.9,224.1,429.4,220,429.4z M131.7,233.6c0.2,2.1,0,3.9-0.1,5.2c-0.2,1.9,0.2,4.2,3.9,7.7
		c0.1,0.1,0.2,0.1,0.2,0.2c0.9-0.5,1.4-1.1,1.6-1.7c0.1-0.6-0.2-1.4-0.8-2.3c-1.3-1.8-3.3-4.6-4.3-8.3
		C132,234.2,131.8,233.9,131.7,233.6z M124,215.9c0.1,0.8,0.1,1.7,0,2.5c-0.2,1,0.3,1.8,2.7,4.6c0.6,0.7,1.2,1.4,1.7,2.1
		c1.2,1.5,2,3.1,2.5,4.7c0.1-3,1.9-5.6,4.7-6.8c0.3-0.1,0.5-0.2,0.8-0.3c-1.2-2.6-2.5-3.4-4.6-3.9C129,218.1,126.4,217.1,124,215.9z
		"/>
	<path d="M169.4,16.8c2.1,0,4.1,0.4,5.8,1.7c9.8,7.7,21.5,8.6,33.1,10.3c10,1.5,20.1,1.3,30,4.3c9.4,3,17.7,7.6,25.2,13.8
		c6.2,5.1,13.3,7.3,21.1,8.7c18.7,3.3,34.2,12.7,47,26.4c1.4,1.5,2.4,2.3,3.1,2.3c1,0,1.5-1.4,2.1-4c0.8,3.2,1.3,5.8,4.8,6.4
		c0.2,0,0.4,0,0.6,0c1.7,0,1.9-1.5,3.1-3c-0.6,3.5,1.4,6.1,3.2,6.5c3.2,0.7,2.8,2.4,2.3,4.4c-1.7,7.5-1.8,14.6,1.1,22.1
		c3,7.8,2.9,16.2-2.2,23.6c-0.5,0.7-0.9,1.7-1.5,1.9c-6.3,2-6.2,7.3-6.4,12.4c-0.1,2.1-0.8,3.8-2.2,5.4c-1.3,1.4-2,2.9,0.7,3.5l0,0
		c0.3-0.3,0.5-0.4,0.6-0.4c0.3,0,0.3,0.6,0.3,0.9c-0.3,1.6-1.2,2.7-2.9,2.8c-2.7,4.8-1.6,10.6,0.5,14.1c3.1,5.2,7.3,10.1,12,14.5
		c4.2,3.8,8.3,3.3,12.9,3.4c2.5,0,4.4,0.6,5.4,3.3c0.7,1.8,2.2,3.3,4.4,3.6c2.5,0.3,4.1,0.5,1.2,3.4c-1.7,1.6,1.1,2.1,2.4,2.3
		c2.7,0.5,5.8-0.1,7.5,3.1c-1.9,2.7-5.9,1.7-9,4c2.8,1,5,1.7,7.2,2.6c2,0.9,2.5,1.7,0.3,3.4c-2.2,1.8-5.7,2.7-9.2,2.7
		c-3.2,0-6.4-0.8-8.9-2.4c-1.8-1.2-3.8-1.8-5.6-1.8c-2.6,0-4.8,1.2-5.8,3.4c-1.5,3.4,0,5,3,5.8c2.1,0.5,4.2,0.7,6.3,1.1
		c1.8,0.4,3.1,1.5,3.2,3.3c0.1,2-1.1,3.3-3.1,4c-1.7,0.6-3.5,0.9-5.1,0.9c-5.3,0-10.1-2.9-14.4-6.9c-4.4-4.1-7.5-10.6-14.8-11.6
		c-4.6-0.7-8.7-2.9-12.2-6.3c-0.9-0.9-1.5-1.3-1.9-1.3c-0.8,0-1.3,1.2-3.1,2.1c-5.1,2.8-4,7.7-6.2,11.3c-0.9,1.5-2.4,2.5-4.1,2.5
		c-0.4,0-0.7,0-1.1-0.1c-0.6-0.2-1.1-0.2-1.6-0.2c-2.9,0-3.6,2.6-4.4,4.9c-0.7,2-2.1,4-2.4,5.8c-0.9,5.2-6.2,5.2-8.6,8.3
		c-0.3,2.5-0.4,5.1-2.2,8.7c0-5.2,0-9,0-12.8c-1-0.4-1.9-0.6-2.9-0.6c-2.3,0-4.5,1-6.5,1.7c-4.5,1.8-8.9,3-13.3,3
		c-3.9,0-7.8-0.9-11.8-3.3c-1.6-1-3.9-0.8-5.7-1.5c-2.6-0.9-4.2-1.4-5.3-1.4c-2,0-2.3,1.7-3.5,6.5c-0.8,3.2-3.6,5.8-3,9.4
		c0,3.2,0,6.5,0,10c-2.6-0.5-1.7-2.5-2-3.8c-1.2-3-2.5-6-3.7-9.1c-1.5-3.9-3.1-5.9-5.2-5.9c-1.7,0-3.6,1.3-6,3.9c-0.4,1-0.8,2-1.3,3
		c-0.2,0-0.5-0.1-0.7-0.1c0-1.3,0-2.7,0-4c-0.1-7-3-13.5-3.4-20.5c-0.2-2.9-2.6-4.8-4.6-6.6c-2.2-2.1-6.6-2.2-5.7-6.9
		c0-0.2-1-0.7-1.6-0.8c-1.3-0.3-2.5-0.4-3.7-0.4c-8,0-13.6,6-13.4,13.9c0.3,9.8-0.5,19.6,0.2,29.4c0.3,4.7,0.5,9.4,1.4,14.1
		c0.6,3.6,2.9,5.7,6.1,8.1c3.9,2.9,6.4,8,8.6,12.6c3.6,7.4,7.1,15,9.5,22.9c1.6,5.3,5.6,9.3,6.9,14.5c0.1,0.4,1.1,0.5,1.5,0.8
		c8.2,6.3,15.6,14,26.7,14c0.9,0,1.9-0.1,2.9-0.2c0.2,0,0.4,0,0.6,0c2.6,0,4.6,1.9,6.3,3.5c3.5,3.1,7.3,4.5,11.4,4.5
		c1.4,0,2.8-0.2,4.3-0.5c0.6-0.1,1.2-0.2,1.8-0.2c1.6,0,2.9,0.5,3.9,1.5c2.6,2.5,5.8,3,9.1,3.1c0.9-0.6,1.8-1,2.6-1
		c0.7,0,1.4,0.4,2,1.3c1,1.5-0.3,2.3-1.5,3c-2.9,1.9-5.6,4.2-9.2,5.4c5.6,0.9,6.1,5.4,7.3,9.3c1.6,0.9,2.6,2.2,3,3.9
		c3.9,4.2,9.4,3.7,14.4,4.6c2.2,0.4,4.3,0.7,4.8,3.2c0.5,2.4-1.9,2.9-3.2,3.8c-2.4,1.6-5,2-7.5,2c-3,0-6-0.6-9-0.7
		c-0.4,0-0.8,0-1.2,0c-2.8,0-5.5,0.3-8.2,0.9c-1.7,0.4-3,1.4-3,3.5c0,1.8,1.4,2.5,2.8,3.1c0.3,0.1,0.6,0.2,0.9,0.4
		c2,1,5.6,0.1,5.1,4c-0.4,3.5-3.4,4.2-6.1,5c-0.6,0.2-1.3,0.3-2,0.4c-1.8,0.3-3.3,0.5-4.6,0.5c-4.5,0-6.4-2.1-8.2-8.1
		c-0.9-2.9-2.5-3.9-4.8-4h-0.1c-3.5,0-5.5,2.5-6.9,5.4c-1.3,2.7,1,3.6,2.5,5.2c1.3,1.4,4.7,1.2,4.1,3.6c-0.6,2.7-3.2,4-5.9,4.7
		c-2.4,0.6-4.1,1-5.5,1c-3.2,0-4.7-1.9-7.8-7c-0.9-1.6-2.3-2-3.9-2c-1.4,0-3,0.3-4.4,0.4c0.2,2.5,4.2,4.4,1.2,6.7
		c-2,1.6-4.5,2.5-7,2.5c-1,0-2-0.1-2.9-0.4c-2.7-0.8-4.6-3.3-3.9-6.7c0.2-0.8,0.3-2-0.1-2.4c-4.9-5.5-7.2-12.5-10.9-18.7
		c-1.8-3-3.1-6.6-7.1-7.7c-1.8-1.2-3.6-2.6-4.1-4.9c-2.2-1.9-3-4.7-4.1-7.2c-3.3-7.9-9.1-12.1-17.5-12.9c-3.9-0.4-7.1-1.3-8.1-5.6
		c-0.2-0.6-0.8-1.3-0.7-1.8c1.4-6.1,0.5-8.7-5.1-10c-8.7-2-15.2-6.7-20.4-13.6c-0.6-1.2-1.1-2.4-1.3-2.7c0.7,0.2,2.6,0.9,4.5,1.5
		c1.6,0,3.3-0.4,3.4-2.2c0.1-1.4-1.8-1.1-2.6-1.8c-5.9-5.2-13.2-9.2-16.5-17.1c-0.7-1.8-2.4-3.1-3.6-4.7c-0.9-1.3-2.4-3.4-1-4.1
		c5.2-2.6-1.2-2.7-0.5-4.3c5-3.7,11.2-6.7,11.9-14.4c0.1-0.9,2.6-0.2,2.5-2.1c-0.4-1.1-4.4-2.4,0.1-3.4c2.5-1.7,4.8-3.5,6.4-6.1
		c0.8-1.3,2.8-2.6-0.2-3.7c-1.6-0.6-0.3-1.2,0.2-1.6c2.3-2.7,3-5.4,0.5-8.3c-0.8-0.9-0.5-1.1,0.5-1.7c5.7-3.4,7-9.4,3.1-14.8
		c-1.7-2.3-3.2-4.6-3.5-7.5c-0.6-0.1-0.9-0.8-0.6-1c0.4-0.2,0.9-0.3,1.3-0.3c1,0,1.9,0.4,2.7,1c0.3,0,0.6,0.1,0.8,0.1
		c2.5,0,2.7-2.1,2.2-4c-1.6-6.8-3.8-13.3-11.9-15.2c-5.4-1.3-10.1-4.3-14.8-7.1c-0.7-0.4-1.3-0.7-1.7-0.7c-0.7,0-1.2,0.5-1.8,1.6
		c-2.2,3.6-5.9,7,0.4,10.3c0.5,0.2,1,1.2,0.9,1.7c-0.8,5.5,3,8.7,5.9,12.4c2,2.6,1.9,5.6,1.7,8.5c-0.5,5.8,2.4,10.1,6.3,13.8
		c2.7,2.5,4.4,5.4,3.4,8.8c-1,3.6-4.5,4.8-7.9,4.9c-0.7,0-1.4,0.1-2,0.1c-4,0-7.7-0.8-9.4-5.7c-0.5-1.5-1.6-1.8-2.8-1.8
		c-0.6,0-1.3,0.1-1.9,0.1c-2.2,0.1-2.1,1.6-1.7,3.2c0.3,1.2,0.2,2.3-0.7,3.2c-2.6,2.7-1,5.2,0.4,7.5c2.5,4,2.2,6.1-2.3,7.4
		c-3.8,1.2-7.7,2.2-11.7,2.2c-2.8,0-5.5-0.5-8.3-1.9c-2.9-1.4-6-2.7-2.4-6.9c2.7-3.1,1.3-7.6-2.5-9.3c-2.4-1.1-4.9-1.6-7.3-1.6
		c-3.4,0-6.8,0.9-10.1,2c-3,1-3.5,3.9-2.6,6.7c1.3,4.3-0.9,5.8-4.5,6.4c-1.9,0.3-3.9,0.4-5.8,0.4c-5.1,0-10.1-0.9-15-1.8
		c-2.5-0.5-5.2-1.6-6-4.6c-0.8-2.8,0.3-4.7,2.9-6c1.4-0.7,3.2-1.8,2.4-3.8c-0.5-1.3-1.6-1.5-2.8-1.5c-0.5,0-1.1,0.1-1.6,0.1
		c-2.4,0.2-4.8,0.8-7.2,0.8c-0.1,0-0.1,0-0.2,0c-2.2,0-5.3,0.2-5-3.3c0.2-2.8,1.2-5.7,4.9-5.8c4.3-0.1,8.1-1.5,11.3-4.6
		c-0.7-0.9-1.4-1.2-2.2-1.2c-0.8,0-1.6,0.2-2.4,0.2c-0.3,0-0.7,0-1-0.2c-1.3-0.5-2.9-0.8-3.1-2.7c-0.2-2,1-2.5,2.5-3
		c5-1.7,9-4.6,12-9.1c3.6-5.2,1.1-9.8-0.9-14.3c-7-15.1-7.9-30.8-5.2-47.1c1-5.9,2.9-11.4,4.7-17C44.2,133,58,119.3,73,106.4
		c2.2-1.9,4.3-3.7,5.8-6.5c1.7-3.2,4.9-5.3,8.3-6.8c4.9-2.1,6.1-5.1,3.5-9.8C88.8,80.2,89,77,91,74.9c6-6.3,8.3-14.8,13.8-21.4
		c5.2-6.3,11-11.2,18.1-15.1c9.9-5.5,20.7-9.4,29.8-16.2c3.9-2.9,7.9-5.2,12.7-5.9C167.2,17,168.3,16.8,169.4,16.8 M169.4,1.8
		c-1.7,0-3.5,0.1-5.5,0.4c-8.8,1.3-15.3,5.6-19.5,8.7c-4.8,3.6-10.6,6.4-16.8,9.4c-3.7,1.8-7.4,3.6-11.2,5.7
		c-8.7,4.8-16,10.9-22.4,18.7c-3.4,4.2-5.8,8.5-7.8,12.3c-1.8,3.4-3.4,6.3-5.2,8.2c-4.7,5-6.6,11.6-5.4,18.3c-4,2.7-7,6-9.1,10
		c-0.2,0.4-1.5,1.5-2.4,2.2c-15.2,13.1-31.9,29-39.6,52.9c-0.3,0.9-0.6,1.7-0.8,2.6c-1.7,5.1-3.4,10.5-4.4,16.6
		c-3.4,20.8-1.4,39,6.3,55.8l0.3,0.6c0.1,0.2,0.2,0.4,0.3,0.6c-0.8,0.7-1.8,1.2-3,1.6c-8.5,2.9-12,9.1-12.6,15
		c-4,3.2-7,8.2-7.5,15.2c-0.4,5.2,1.2,10,4.5,13.7c2.3,2.5,4.9,3.9,7.4,4.7c0.1,0.2,0.1,0.4,0.2,0.7c2.3,7.9,8.9,13.6,17.8,15.2
		c5,0.9,11.2,2,17.7,2c2.8,0,5.5-0.2,8.1-0.6c5.4-0.9,9.1-3,11.7-5.3c2.9,3.7,6.7,5.6,8.5,6.4l0.3,0.2c4.6,2.2,9.6,3.4,14.9,3.4
		c3.1,0,6-0.4,8.8-1c0,0.3,0.1,0.7,0.1,1c-1.3,7.4,2.9,13,4.3,14.9c0.9,1.1,1.7,2.1,2.3,2.7l0,0c2.5,5.4,6,9.4,9.5,12.7
		c0,2.1,0.5,4.1,1.4,6l0.6,1.3l0.7,1.4c0.4,0.9,1,1.8,1.6,2.6c6.2,8.2,13.8,14.1,22.8,17.4c0.3,1.5,0.7,2.9,1.4,4.4
		c1.9,5.8,7,13.9,20.7,15.2c2.9,0.3,3.9,1,5,3.7c0.1,0.3,0.3,0.6,0.4,0.9c0.8,2.1,2.1,5.3,4.5,8.5c2.6,5.3,6.8,8.1,8.6,9.4
		c0.4,0.3,0.9,0.6,1.3,0.8c0,0.1,0.1,0.1,0.1,0.2c0.4,0.6,0.8,1.4,1.2,2.1c1,1.6,2,3.6,3,5.7c1.6,3.2,3.3,6.7,5.7,10.2
		c0.4,8.5,6,15.8,14.6,18.4c2.4,0.7,4.8,1.1,7.3,1.1c4.2,0,8.4-1.1,12.2-3c2.6,1.4,5.8,2.4,9.7,2.4c3.1,0,6-0.6,9.4-1.5
		c5.5-1.5,9.2-4,11.7-6.6c1.2,0.2,2.4,0.3,3.7,0.3c2.1,0,4.3-0.2,7-0.7h0.3c0.8-0.1,2.1-0.3,3.6-0.8l0.5-0.1
		c1.9-0.6,4.8-1.4,7.8-3.5c4.2-2.9,6.9-7.1,8-12c5-0.3,9.3-1.7,13.3-4.2c12-6.1,10.7-16.7,10.1-19.8c-1.2-5.4-4.4-9.8-9.2-12.4
		c-2.9-1.6-5.6-2.1-7.2-2.4h-0.3c-1.7-0.3-3.2-0.5-4.6-0.6c-0.1,0-0.1,0-0.2,0c1.2-1.6,2.3-3.7,2.9-6.2c1-4.4,0.2-8.9-2.4-12.8
		c-3.4-5.2-8.7-8.1-14.6-8.1c-1.2,0-2.4,0.1-3.4,0.3c-3.5-2.6-7.8-4-12.2-4c-1.6,0-3.3,0.2-5,0.6c-0.5,0.1-0.9,0.1-1.1,0.1
		c-0.3,0-0.6,0-1.4-0.7l-0.3-0.2c-2.6-2.3-7.9-7.1-16.1-7.1c-0.8,0-1.6,0-2.3,0.1c-0.4,0-0.8,0.1-1.2,0.1c-3.9,0-7.6-2.9-13.4-7.6
		c-0.8-0.7-1.6-1.3-2.5-2c-1-2.1-2-3.8-2.9-5.4c-0.8-1.4-1.7-2.9-2-3.7c-2.8-9.3-6.8-17.8-10.4-25.1c-2.7-5.5-6.3-13-13.2-18.1
		c-0.2-0.2-0.4-0.3-0.5-0.4c-0.4-2.7-0.6-5.7-0.8-8.8c0-0.6-0.1-1.3-0.1-1.9c-0.3-5.1-0.3-10.3-0.2-15.9c0-1.1,0-2.1,0.1-3.2
		c0.3,1.6,0.7,3.2,1,4.6c0.7,3,1.3,5.5,1.3,7.6v3.9c0,7.6,5.7,14,13.2,14.9l0.7,0.1c0.6,0.1,1.2,0.1,1.8,0.1c0.7,0,1.3,0,2-0.1
		c2.1,7,7.9,10.6,13.1,11.7c1,0.2,2,0.3,3.1,0.3c3.4,0,6.8-1.2,9.5-3.4c3.5-2.8,5.5-7.1,5.5-11.6v-7.5c4.6,1.9,9.4,2.8,14.3,2.8
		c2.8,0,5.7-0.3,8.7-0.9c1.7,4.5,5.6,8,10.6,9.2c1.1,0.3,2.3,0.4,3.4,0.4c5.6,0,10.9-3.1,13.4-8.3c1.2-2.4,2-4.7,2.5-6.7
		c3.3-2.2,7.7-6.1,9.4-13.1c4.9-1.3,9.1-4.4,11.9-9c0.2-0.3,0.4-0.6,0.6-1c2.4,0.9,4.8,1.6,7.3,2c0.6,0.6,1.7,1.9,2.5,2.8
		c1.3,1.6,2.8,3.3,4.7,5.1c7.8,7.2,16.1,10.9,24.5,10.9c3.4,0,6.9-0.6,10.2-1.8c6.3-2.3,10.8-7.2,12.4-13.1
		c4.5-0.9,8.5-2.7,11.8-5.3c7.2-5.7,7.5-12.3,7-15.8c-0.1-0.6-0.2-1.3-0.4-2c1-3.6,0.6-7.5-1.2-10.9c-2.4-4.5-5.6-7.1-8.8-8.7
		c-1.9-3.2-4.9-5.7-8.6-7c-2.9-4-7.9-7.9-16.6-8.1c-0.6,0-1.3,0-1.9,0s-1.2,0-1.8,0c-3-2.8-5.6-5.9-7.7-9.1c1.7-2.3,2.9-5.1,3.4-8.3
		c0.3-2,0.3-4-0.1-5.8c0.5-1.7,0.7-3.4,0.8-5.2v-0.8c3.2-2.1,4.8-4.9,5.5-6c7.4-11,8.7-24.2,3.7-37.2c-1.6-4.1-1.7-8-0.5-13.5v-0.1
		c0.4-2,1.3-6-0.3-10.8c-0.6-1.7-2.1-5.1-5.6-7.8c-1.3-4-4.2-7.4-8.2-9.1c-1.6-0.7-3.3-1.1-5-1.3c-2.6-2.2-6-3.4-9.5-3.4l0,0
		c-0.2,0-0.5,0-0.7,0c-14.3-13.1-30.7-21.3-48.9-24.5c-6.7-1.2-10.8-2.8-14.1-5.5c-9.1-7.5-19.3-13.1-30.3-16.5
		c-8-2.5-16-3.2-23-3.9c-3.3-0.3-6.4-0.6-9.3-1c-1.3-0.2-2.6-0.4-3.9-0.6c-8.9-1.2-16.6-2.3-22.1-6.6C180.3,3.5,175.2,1.8,169.4,1.8
		L169.4,1.8z M209.1,261.4L209.1,261.4L209.1,261.4L209.1,261.4z"/>
</g>
</svg>
