<?xml version="1.0" encoding="utf-8"?>
<!-- Generator: Adobe Illustrator 24.1.0, SVG Export Plug-In . SVG Version: 6.00 Build 0)  -->
<svg version="1.1" id="Livello_1" xmlns="http://www.w3.org/2000/svg" xmlns:xlink="http://www.w3.org/1999/xlink" x="0px" y="0px"
	 viewBox="0 0 474 461" style="enable-background:new 0 0 474 461;" width="50" height="50" xml:space="preserve">
<style type="text/css">
	.st0{fill:#FFFFFF;}
</style>
<g>
	<path class="st0" d="M366.1,435.1c-15.8,0-27.6-5.3-31.6-14.1c-0.7-1.6-1.3-3.5-1.5-5.8c-1,1.3-2.5,2.3-4.3,2.7
		c-3.2,0.7-6.4,2.6-9.8,4.6c-3.2,1.9-6.7,4-10.8,5.4c-10.7,4.6-21.9,5.8-32.5,6.7c-4,0.3-8.7,0.4-13.5,0.4
		c-16.5,0-95.9-2.1-106.6-41.7c-1.8-0.1-3.7-0.2-5.6-0.2c-1.2,0-2.3,0-3.4,0.1c0.7,2.3,0.4,4.8-1,6.7c-7.3,10.2-23.1,11.7-31.9,11.7
		c-9.1,0-18-1.6-23.8-4.4c-1.8-0.8-3.1-2.3-3.8-4.1c-4.3-11.6,4.3-20.6,11.3-26.6c-1.5-3.4-1.2-7.2-0.9-9.7c-1.7-0.5-3.2-1.5-4.2-3
		c0,0,0,0,0,0c-4.9-2.5-10.5-5.4-14.6-10.9c-1.7-2.3-1.9-5.4-0.6-8c1.3-2.4,3.9-4,6.6-4c0.1,0,0.2,0,0.4,0c4.3,0.2,7.9,1.4,11.1,2.5
		c2.3,0.8,4.5,1.5,6,1.5c0.4,0,1.2,0,2.3-0.8c-0.1-0.2-0.3-0.4-0.4-0.7c-1.1-1.3-3.1-2.3-4.9-2.3c-0.5,0-1,0.1-1.5,0.3
		c-0.9,0.4-1.8,0.5-2.8,0.5c-1.1,0-2.1-0.2-3.1-0.7c-0.7-0.3-1.3-0.7-1.8-1.1c-0.1,0-0.2,0-0.3,0c-1.4,0-2.8-0.4-4-1.1
		c-1.3-0.8-2.6-1.6-3.9-2.4c-10.6-6.3-23.7-14.1-20-34.6c0.1-0.3,0.1-0.6,0.2-0.9c2.1-6.5,5.5-11.9,9.8-16.5
		c-2.1,0.3-4.2,0.4-6.3,0.4c-4.1,0-8.2-0.5-12.3-1.6c-11-0.7-22-7.8-28.1-18.1c-5.6-9.5-6.3-20-1.8-29c0.2-0.5,0.5-0.9,0.8-1.3
		c5.5-6.9,15.3-11.5,24.6-11.5c9.4,0,17,4.9,20.1,13.2c0.8,2,0.7,4.2-0.3,6.1c-0.2,0.3-0.3,0.6-0.5,0.9c3.4-1.8,6.2-5.3,10.4-10.8
		c1.6-2.1,3.3-4.3,5.2-6.6c-6.3-4.7-9.1-10-9.2-22.3c0-1.9,0.7-3.7,2-5.1c0.5-0.5,1.1-1.4,1.7-2.2c2-2.8,5.2-7.3,11-8.7
		c2.4-10.6,10.5-20,22.2-26c-0.1-0.4-0.3-0.9-0.6-1.4c-1-1.5-2.9-2.6-4.4-2.6c-0.5,0-1.3,0-2.1,1.6c-2.3,6.8-7.5,13-14.7,17.6
		c-6.9,4.4-14.9,6.8-22.4,6.8c-11.9,0-21.1-6-25.1-16.3c-0.9-2.3-0.6-5,0.8-7l0.1-0.2c0.6-0.9,1.4-2,2.3-3c1.4-1.7,3.5-2.6,5.7-2.6
		c0.1,0,0.3,0,0.4,0c4.3,0.3,6.8,3,8.2,5c0.4,0.1,0.6,0.1,0.8,0.1c2.2,0,5.1-8.2,6.5-12.1c1.6-4.5,3.3-9.1,5.8-12.6
		c4.5-6.7,10.6-10.7,16.8-13.8c0.1-0.5,0.2-0.9,0.3-1.4c-0.1-0.4-0.4-1.1-0.6-1.6c-0.9-2.1-2-5-1.7-8.6c1.6-27.5,26-40.7,45.7-51.3
		c1.5-0.8,2.9-1.6,4.4-2.4c0.1-0.8,0.4-1.7,0.8-2.4c-3.5,1.1-7.3,2.8-11.2,5c-1.8,1.3-3.8,1.9-6.1,1.9c-1.2,0-2.4-0.2-3.7-0.6
		c-3.8-1.1-6.1-4.9-5.2-8.8C114.6,36,129,25.9,148,25.9c13.6,0,26.2,5.4,33.5,14.2c2,1,3.6,2.8,4.1,5c0.2,0.9,0.3,1.7,0.2,2.6
		c1.6,4,2.2,9.2-0.3,15.4c9.2-5.8,19-10.4,28.6-14.9c3-1.4,5.9-2.8,8.9-4.2c0.5-0.2,1-0.4,1.6-0.6c4.9-1.1,9.8-2.6,14.9-4.1
		c11.2-3.3,22.7-6.8,35-6.8c4.3,0,8.5,0.4,12.5,1.3c4.6,0.4,8.6,2,12.1,3.5c1.7,0.7,3.3,1.3,4.8,1.8c0.8,0,1.6,0,2.4,0
		c9.9,0,19,2.3,27.8,4.6c2.2,0.6,4.4,1.1,6.5,1.6c0,0,0.1,0,0.1,0c4.9,0,7.7,3.2,9,4.8c0.1,0.1,0.2,0.2,0.3,0.3
		c11.1,5.5,21.7,13.7,31.5,24.6c0.1,0.1,0.2,0.2,0.2,0.3c20.2,24.5,30.9,62.2,17.8,93.8c0.8-0.1,1.7-0.1,2.5-0.1
		c10.2,0,18.5,4.9,22.5,13.2c1.3,0.1,2.5,0.5,3.6,1.3c3.2,2.2,7.4,5.6,8.1,10.8c0.7,5.1-2.4,8.6-4.2,10.7c-0.5,0.6-1.2,1.4-1.4,1.8
		c-0.1,0.7-0.4,1.5-0.8,2.1c-0.7,2.1-2,3.8-3.8,5.1c-0.1,2.7-0.5,5.6-1.9,8.6c0,0.1-0.1,0.2-0.2,0.3c-0.1,0.3-0.2,1.5-0.2,2.2
		c0,0.5-0.1,1.1-0.1,1.6c-0.1,1.6-0.8,3-1.8,4.2c0.7,2.2,1,4.5,1.1,6.9c0.2,8.2-3.6,16.5-10.4,23.1c-0.2,2.4-1.6,4.5-3.7,5.7
		c-1.2,0.7-2.5,1-3.8,1c-0.5,0-1.1-0.1-1.6-0.2c-1.5,1.2-3,2.9-3.8,4.3c0.6-0.1,1.2-0.1,1.8-0.1c5,0,9.8,1.8,13.8,5.1
		c0.5,0,1.1,0,1.6,0c13,0,25.8,7.1,33.4,18.5c0.1,0.1,0.1,0.2,0.1,0.2c3.9,6.5,5.1,14.4,3.1,21.8c-1.8,6.9-6.2,12.6-12.3,15.9
		c-0.2,0.1-0.3,0.2-0.5,0.2c-2.2,1-4.6,1.5-7.2,1.5c0,0,0,0,0,0c-1,0-2.1-0.1-3.1-0.2c13.7,20.5,15.9,40.9,6.6,62.2
		c-0.6,1.3-1.5,2.4-2.7,3.2c-1.3,3.5-3.3,5.2-5.4,5.9c-0.1,1.1-0.3,2.3-0.7,3.6c-1,2.7-3.4,4.6-6.2,4.9c-0.4,0-0.8,0.1-1.1,0.1
		c-1.1,0-3-0.2-4.8-1.4c-4.9,2.2-10.5,3.2-16.2,3.6c-0.1,2.9-1.2,5.7-3.1,8.1C390.8,432.3,377,435.1,366.1,435.1z M348.8,370.5
		c0.2,0.7,0.3,1.5,0.5,2.2c0.2,0.8,0.3,1.6,0.3,2.4c-0.3,5.9-1.6,11.3-2.9,16.5c0,0.2-0.1,0.3-0.1,0.5c1.1-0.8,2.3-2.1,3.3-3.2
		c0.8-0.9,1.8-1.6,2.9-2c0.5-0.2,1.1-0.4,1.7-0.6c0.3-0.1,0.6-0.2,0.8-0.3c1-2.6,3.5-4.6,6.4-4.8c9.3-0.7,16-3.3,18.8-7.2
		c1.3-1.8,1.9-4,1.7-6.7c-0.1-0.1-0.3-0.2-0.4-0.3c-1.5-1.5-2.3-3.6-2.2-5.7c0-0.4-0.3-1-0.8-1.6c-8.4,6.9-18.8,10.8-29.1,10.8
		C349.5,370.5,349.2,370.5,348.8,370.5C348.8,370.5,348.8,370.5,348.8,370.5z M139.8,347.9c-1,2.9-2.5,5.5-4.4,7.9
		c5.1-1.5,10.2-2.6,15.3-3.5c-1-2.1-1.6-4.3-1.7-6.4c-0.8-0.2-1.5-0.4-2.1-0.8C145.1,346.4,142.8,347.6,139.8,347.9
		C139.8,347.9,139.8,347.9,139.8,347.9z M130,318.1c0.6-1.9,1.6-4,3-6.2c-3.6,0.4-6.9,1-9.6,2.2c0.1,0.1,0.2,0.1,0.3,0.2
		c1.9,1,3.9,2.2,6,3.7C129.9,318,129.9,318.1,130,318.1z M413.6,315c0.3,0.4,0.7,0.7,1.1,1.1c0.1-0.6,0.2-1.2,0.4-1.7
		C414.6,314.5,414.1,314.7,413.6,315z M397.6,209.8c0.4,0.1,0.7,0.3,1.1,0.4c0.1-0.2,0.2-0.4,0.3-0.6c0.1-0.2,0.2-0.3,0.3-0.5
		c-0.2-0.4-0.5-0.9-0.9-1.6C398.2,208.2,397.9,209,397.6,209.8z"/>
	<path d="M148,33.4c11.2,0,22.8,4.4,28.8,12.9c0.4,0.2,1.2,0.5,1.5,0.6c-0.2,0.3-0.6,0.8-0.8,1.1c15.2,22.4-55.3,49.6-28.1,56.3
		c12.2-7,21.9-18.2,30.9-28.5c13.9-10.9,30.1-17.5,45.8-25.1c16-3.7,31.7-10.7,48.2-10.7c3.7,0,7.5,0.4,11.4,1.2
		c6.1,0.5,11.4,3.9,17.2,5.4c1.1-0.1,2.2-0.1,3.2-0.1c11.7,0,22.7,3.7,33.8,6.3c0.2,0,0.5-0.1,0.7-0.1c2.6,0,3.5,3.5,5.9,4.3
		c11.2,5.6,21,13.7,29.3,22.9c22.4,27.2,31.1,69.7,9.1,99.6c1,0.4,2.1,0.8,3.1,1.2c3.9-2.7,9-4.3,13.9-4.3c6.7,0,13.2,2.9,16.1,9.7
		c1,4.2-1.7,8.1-1.3,12.4c3.2-0.9,8.1-3.8,5.9-7.7c0.3-0.3,0.9-0.9,1.2-1.2c10.8,7.4,0.6,9.3-0.6,15.7c-0.1,0-0.3-0.2-0.4-0.2
		c0.2,1.5-0.3,2.5-1.6,3.1c-0.1-0.6-0.3-1.7-0.4-2.3c-0.5,0-1.4,0.1-1.9,0.1c-0.7,4.4,0.4,9.3-1.6,13.4c-1.1,2.1-1,4.4-1.2,6.6
		c-0.8-5.8,1.4-11.3,0-17.1c-0.6,0-1.2,0-1.8,0c-1.8,0-3.5,0.2-5.1,1c0.2,4-2.9,7.3-3.2,11.4c13.6,10.2,11.9,25.7-0.8,36.1
		c0,0.7-0.1,2.1-0.1,2.7c-0.5-0.3-1.6-0.8-2.1-1.1c-7.4,3.3-18.8,17.5-5.7,20.8c1.4-0.5,2.8-0.7,4.2-0.7c4.2,0,8.1,2,11,5.3
		c1.4-0.2,2.9-0.3,4.3-0.3c10.9,0,21.1,6,27.1,15.1c5.5,9,3.2,21.9-6.4,27.2c-1.3,0.6-2.7,0.8-4.1,0.8c-6.9,0-14.6-6.2-10.1-13.1
		c1.4-2,3.1-4.5,5.8-4.5c0.2,0,0.3,0,0.5,0c-0.1,1.4-0.6,2.7-1.5,3.8c0,1.1,0,2.2,0,3.3c0.7,0.1,2.1,0.2,2.9,0.2
		c4.7-3.6,2-12.1-4-12.5c-0.2,0-0.3,0-0.5,0c-8.4,0-16.5,3.4-23.4,7.9c0,1.2,0,2.3-0.1,3.5c0.4,0,1.3,0,1.7-0.1
		c3.3,6.2,10.3,10.3,15.3,15.3c0,0.5,0.1,1.6,0.1,2.1c14.7,19,19.5,38.1,9.8,60.4c-0.1,0-0.2,0-0.2,0c-2.9,0-1.8,5.2-4.1,5.2
		c-0.4,0-0.9-0.1-1.5-0.5c-0.8,1.4-1.3,3-2.8,3.9c-0.1,1.5,0.2,3.1-0.3,4.6c-0.1,0-0.2,0-0.2,0c-1.9,0-1.6-3-2.4-4.3
		c-13.6,12.8-46.6,1.3-54.1,13.8c3.1,2.3,7,3.3,10.9,3.3c6,0,12.2-2.2,16.9-5.2c2,8.3-12.1,13.3-26.1,13.3c-18,0-35.7-8.1-18.7-27.6
		c3.3-1,5.7-3.6,8-6.1c2.6-1,6.9-1.7,6.9-5.2c16.1-1.3,31.1-8,26.7-27c-0.4,0-1.3,0-1.8,0.1c0.3-4.9-4-8.6-7.1-12
		c-0.4,0-1.1,0-1.5,0c-7.2,7.9-17.9,13.3-28.7,13.3c-1.6,0-3.2-0.1-4.8-0.4l0,1.2c-1.5-1.4-3.4-2.2-5.4-2.5
		c0.7,4.4,1.1,8.9,2.3,13.3c-0.5,10.1-4.7,19.5-5.3,29.6c0.1,1.4-0.4,3.3-1.9,3.3c-0.2,0-0.4,0-0.6-0.1c-0.1-1.2-0.2-2.3-0.2-3.5
		c-0.3-0.4-0.9-1.1-1.2-1.5c-1.8,1.9-3.6,3.8-5.6,5.5c0,0.7,0,2,0,2.6c-7.9,1.7-13.9,7.7-21.6,10.3c-9.6,4.2-20.1,5.4-30.4,6.2
		c-3.6,0.3-8,0.4-12.9,0.4c-35.2,0-97.5-7.7-100.2-41c-3.6-0.5-7.7-0.9-12-0.9c-11.8,0-24.9,2.5-32.3,9.9c1.8,0.1,3.5,0.2,5.3,0.2
		c4.3,0,8.6-0.3,12.9-0.3c1.2,0,2.4,0,3.6,0.1c-4.4,6.1-15.2,8.6-25.8,8.6c-8,0-15.8-1.4-20.6-3.7c-3.4-9.1,7.6-16.9,13.6-22.1
		c22.1-17.4,51-21.2,79-21.2c7.6,0,15.1,0.3,22.4,0.6c-0.4-1.6,0.9-4.1-1.1-4.9c-2.9-1.1-5.1-3.3-7.8-4.6
		c-1.7-5.7-1.1-11.4,2.8-16.1c0-0.7,0.1-2,0.1-2.6c-0.5,0-1.5,0.1-2,0.1c0-0.6,0-1.7,0-2.3c-1.8,1.6-4.2,3.1-4.2,5.8
		c-2.6,2.3-2,6.1-3.3,9.1c-3.5,9.1-13.5,13.4-23,13.4c-2.8,0-5.6-0.4-8.2-1.1c-4.9-4.4-7.6-11.5-2.2-16.7c-0.6-0.6-1.3-0.9-2-0.9
		c-0.5,0-0.9,0.1-1.4,0.3c0,0.5-0.1,1.5-0.1,2c-0.2-0.2-0.7-0.6-0.9-0.8c-0.9,0-1.9,0.2-2.9,0.2c-1.4,0-2.7-0.4-3.2-2.1
		c0.8,0.1,2.4,0.3,3.2,0.5c3.7-4.3,0.2-10.5,3.4-15.2c-10.5,1-10.9,5.1-10.2,14.4c-1.7,1.7-3.3,3.9-6,4.1c-2.9-0.6,0.5-2.5,1-3.5
		c-2.4-8.8-6.6-11.9-0.8-21.1c4.5-1.3,8.9-3.1,13.5-4.4c0.1-0.5,0.4-1.3,0.5-1.8c0.4,0,1.3,0.1,1.7,0.1c0-1.2,0-2.5,0-3.7
		c-0.9-0.8-1.8-1.5-2.7-2.3c-12.4,0.6-33.8-1.5-40.5,11c3.6,4.5,9.3,6.1,13.8,9.6c12.4,6.7,10,24.1-0.7,31.2c-1.8,1.3-1.7,4.1-3.9,5
		c-0.3-0.6-0.8-1.7-1.1-2.3c-3.8,0.8-6.4,3.7-9.4,5.8c-1-0.1-2.1-0.2-3.2-0.2c0.5,2.5-0.6,4.6-1.4,6.9c0.2,0.5,0.7,1.6,1,2.1
		c-0.3,0.6-1,1.8-1.4,2.4c-5.1-3.7,3.2-15.5-6-15.5c-0.3,0-0.7,0-1,0c-0.2-0.4-0.6-1.1-0.8-1.4c-5-2.6-10.5-5-14-9.7
		c6.5,0.3,12,4,17.5,4c3.2,0,6.4-1.2,9.9-5.1c1.5-7.5-5.8-13.6-12.9-13.6c-1.4,0-2.9,0.2-4.2,0.8c-1.1-0.5-2.9-2.8-4.1-2.8
		c-0.4,0-0.8,0.3-1.1,1.1c-12.1-7.5-23.7-11.9-20.5-29.2c6.2-19.3,26.9-27.2,43.6-35.3c0.1-0.4,0.3-1.2,0.5-1.6c1.9-0.3,3.9-1,5.8-1
		c0.5,0,1.1,0.1,1.6,0.2l0.1-1.4c0.3,0.1,1,0.2,1.3,0.3c3.7-3.1,9.1-3,13.1-5.6c-3.5-2.8-7.9-4-12.7-4c-9.4,0-20.1,4.5-26.5,9.3
		c-8.3,8.5-19.1,13.1-30.4,13.1c-3.7,0-7.4-0.5-11.1-1.5C36.9,275.7,21.2,256,29.3,240c4-5.1,11.7-8.7,18.7-8.7
		c5.7,0,10.8,2.4,13.2,8.4c-0.8,1.6-2,2.9-3.5,4c-1.6-0.1-3.2-0.2-4.8-0.3c2.7-3.9,0.8-6-1.8-6c-3.6,0-8.4,4.1-3.6,13
		c5.4,1.7,9.8,2.5,13.5,2.5c16.6,0,20-15.1,33.5-27.8c-10.5-6.2-13.3-8-13.4-20.9c3-3.3,4.9-8.5,10.2-8.8c0.1,3.1-3.5,5-3,8.2
		c0.2,3.4,2.2,6.3,4.9,8.2c14.3-0.5,3.6-13,2-20.1c1.7-11.4,11.7-20,21.9-24.2c3.7-8.8-4.2-16.7-11.6-16.7c-3.6,0-7.1,1.9-9.1,6.4
		c-3.5,11.1-17.7,19.6-30.1,19.6c-7.8,0-14.9-3.4-18.1-11.6c0.6-0.9,1.2-1.8,1.9-2.6c1.9,0.1,2.6,2.3,3.6,3.6c2.2,1,4.1,1.5,5.8,1.5
		c11.2,0,12.8-20,18.5-28c5.1-7.8,13.4-11.3,21.6-14.8c-1.6-0.2-2.6-1.2-3.5-2.5c1.7-4-2.4-7.7-2-11.8c1.5-26.9,29.8-38.3,50-49.8
		c0-0.8,0-2.4,0-3.2c1.2,0,2.3,0,3.5,0c2.3-3.4,3.2-7,1.1-10.8c-1-0.7-2-1.4-3-2.2c-8.1,0.6-16.4,4-23.5,8c-0.6,0.5-1.2,0.7-1.9,0.7
		c-0.5,0-1.1-0.1-1.6-0.3C121.5,39.8,134.6,33.4,148,33.4 M188.7,161.1c-0.6,0-1.3-0.1-1.9-0.2c1-1.1,2.2-2.2,2.8-3.6l0.3,2.5
		c0.4-1,1.2-2.9,1.6-3.8c-1.1-0.5-2.2-0.9-3.3-1.3c-2.7,0.9-5.2,2.1-7.8,3.4c-1.8,9.5,4.4,10.5,11.1,10.5c1.8,0,3.6-0.1,5.3-0.1
		c0.5,0,0.9,0,1.3,0c4.5-10,14.9-18.7,26-18.7c2.4,0,4.8,0.4,7.2,1.3c2.5-4.5,3.3-9.6,4-14.6c-1.3-0.2-2.5-0.3-3.8-0.3
		c-12.5,0-23.9,9.5-35.2,14.1C199.9,155.9,194.3,161.1,188.7,161.1 M160.8,173.6l1.9-0.7c2.9,2.7,5.4,5.9,6.9,9.6
		c1.3,0.3,2.7,0.4,4,0.4c2.9,0,5.9-0.6,8.7-1.5c-0.2-1-0.4-1.9-0.6-2.9c-11.6-0.6-15.2-8.1-15.7-18.6c-0.8,0.1-1.6,0.1-2.4,0.1
		c-3.7,0-7.4-0.7-10.8-2.2c-0.5,2.7-1.4,5.2-2.2,7.8c4.2,1.4,8.3,3.3,11.5,6.4L160.8,173.6 M386.9,215.8c0.1,0,0.1,0,0.2,0
		c3.6,0,7.6,0.3,10.6,2.5c0.3,0,0.6,0,0.8,0c0.8,0,1.7,0.1,2.5,0.2c1.9-1.5,3.5-3.3,4.6-5.4l1.1,0.7c2-8.9-4.9-10.7-4.7-18
		c-0.2,0-0.3,0-0.5,0C391.6,195.6,391.2,209.1,386.9,215.8 M117.1,216.4c2.8-0.4,5.6-0.3,8.4-0.5c-1.9-2.6-4.6-4.4-7.1-6.5
		C119,211.9,118.1,214.2,117.1,216.4 M364.9,269.9c1.4-0.3,2.7-0.8,4.1-1.4c3.6,4.1,0.7,10-4.3,10c-0.4,0-0.9,0-1.3-0.1
		c2,2.6,4.2,4.9,6.7,7c0.8,0,2.2-0.1,3-0.2l0.4-1.1c0.3,0.1,1,0.4,1.3,0.5c1.5-4.3,0-8.7-1.7-12.7c-0.4-8.4,1.7-16.9,6.4-24
		c-0.9-0.6-2.3-0.9-3.9-0.9c-4,0-9,1.7-9.6,4.4c-2.9,0.7-4.1,3.7-5.7,5.9C365.2,259.4,365.8,265.2,364.9,269.9 M160.3,336.8
		c1.4-0.8,3-1.4,4.6-1.4c1.3,0,2.7,0.4,3.7,1.5c-1.3,1.4-3,2.4-4.3,3.8c-0.3,1.4,0.8,2.6,1.1,3.9c0.6,0,1.8,0,2.4,0
		c1-1.2,2.4-2.3,2.5-4c0.5-0.1,1.4-0.2,1.9-0.2c0-5.3-3.1-10-2.1-15.4c-0.7-0.3-2.1-1-2.9-1.4c-4.7,0.8-8.2,4.7-8.2,9.5
		C160.1,334.1,160.5,335.3,160.3,336.8 M218.9,357.4l-2-0.1c1.8,2.7,5.4,2.1,8.2,2.5c-2.4-6.1-5.4-11.8-8.9-17.4
		c-1.7,1-3.4,2.3-4.3,4.1C213.6,350.8,219.3,352.3,218.9,357.4 M148,18.4C148,18.4,148,18.4,148,18.4c-9.8,0-19,2.4-26.5,7.1
		c-9.3,5.7-15.3,14.2-17.5,24.6c-1.1,5.3,0.7,10.6,4.4,14.1c-14.7,10-28,23.8-29.2,45.4c-0.3,3.2,0.2,6,0.9,8.2
		c-5.3,3.2-10.4,7.4-14.4,13.4c-3,4.3-4.9,9.4-6.7,14.3c-0.4,1.1-0.9,2.5-1.4,3.8c-2-1-4.2-1.6-6.6-1.7c-0.3,0-0.6,0-0.9,0
		c-4.3,0-8.5,1.9-11.3,5.2c-1.2,1.4-2.1,2.6-2.8,3.7l-0.1,0.2c-2.8,4.1-3.5,9.4-1.6,14c5.2,13.2,17.2,21.1,32.1,21.1
		c1.9,0,3.8-0.1,5.8-0.4c-0.3,0.5-0.7,0.9-0.9,1.3c-0.4,0.5-0.9,1.3-1.1,1.5c-2.5,2.8-3.9,6.4-3.9,10.2c0.1,7.2,0.8,14.8,5.5,21.5
		c0.4,0.5,0.7,1,1.1,1.4c-0.3,0.3-0.5,0.7-0.8,1c-5.2-7.6-13.8-12-24-12c-11.6,0-23.5,5.6-30.4,14.4c-0.6,0.8-1.2,1.7-1.7,2.6
		c-5.6,11.3-4.9,24.5,2,36.2c7.2,12.2,20.2,20.6,33.4,21.7c1.9,0.4,3.7,0.8,5.6,1.1c-1.1,2.2-2,4.4-2.8,6.9
		c-0.2,0.6-0.3,1.2-0.5,1.8c-2.1,11.3,0,21,6.2,28.8c3.4,4.3,7.5,7.4,11.7,10.1c-0.3,0.5-0.7,1-0.9,1.5c-2.7,5.1-2.3,11.3,1.1,16
		c4.6,6.3,10.8,9.8,15.8,12.4c0.4,0.4,0.8,0.9,1.3,1.3c0,1,0.1,2,0.2,3c-1.9,1.9-3.9,4-5.6,6.3c-7.9,10.9-6.1,20.6-4.3,25.4
		c1.4,3.7,4.1,6.6,7.6,8.3c6.9,3.3,16.7,5.1,27,5.1c10.2,0,28.7-1.9,38-14.8c0.1-0.1,0.1-0.2,0.2-0.3c6,11.1,18.6,22.3,43.7,29.9
		c26,7.8,55.2,8.6,66.6,8.6c5,0,9.9-0.2,14-0.4c0.1,0,0.1,0,0.2,0c10.6-0.9,22.9-2.2,34.6-7.2c4.7-1.7,8.5-3.9,11.9-6
		c2.1-1.3,4-2.4,5.7-3.1c5.9,10.7,19.4,16.7,37.5,16.7c6.1,0,26.9-1,36.6-13.3c1.5-1.9,2.6-3.8,3.4-5.9c3.3-0.5,6.7-1.2,9.9-2.4
		c2.2,0.7,4.1,0.8,4.9,0.8c0.7,0,1.3,0,2-0.1c5.7-0.7,10.5-4.5,12.4-9.9c0.2-0.5,0.3-1,0.5-1.5c1.7-1.4,3.4-3.3,4.7-5.9
		c1.4-1.4,2.6-3,3.4-4.9c8.8-20.3,8.5-39.7-1.2-59.1c0.4-0.2,0.8-0.3,1.2-0.5c0.3-0.2,0.7-0.3,1-0.5c7.9-4.3,13.5-11.6,15.9-20.5
		c2.5-9.4,1.1-19.4-3.9-27.6c-0.1-0.2-0.2-0.3-0.3-0.5c-8.7-13.2-23.5-21.6-38.8-21.9c-0.1-0.1-0.3-0.2-0.4-0.3
		c0.9-1.3,1.7-2.7,2.1-4.3c7.3-7.8,11.3-17.3,11.1-27c0-1.9-0.2-3.7-0.6-5.5c0.6-1.4,1.1-3,1.2-4.7c0.1-0.6,0.1-1.2,0.1-1.8
		c0-0.2,0-0.4,0-0.6c1.1-2.6,1.7-5.1,2-7.4c1.5-1.7,2.7-3.6,3.5-5.7c0.3-0.6,0.5-1.1,0.7-1.7c0.1-0.1,0.2-0.2,0.3-0.3
		c2.1-2.4,7-8.1,5.9-16.5c-1.2-9.1-8.8-14.4-11.3-16.1c-0.9-0.6-1.9-1.2-2.9-1.6c-4.4-6.8-11.4-11.6-19.7-13.4c3-11,3.8-23,2.2-35.4
		c-2.6-20.3-11.3-40.3-24.5-56.4c-0.2-0.2-0.3-0.4-0.5-0.6c-10.1-11.1-21-19.6-32.4-25.5c-2-2.2-6.3-6.2-13.1-6.5
		c-1.8-0.4-3.7-0.9-5.6-1.4c-8.8-2.3-18.8-4.8-29.7-4.8c-0.4,0-0.9,0-1.3,0c-1-0.3-2-0.8-3.1-1.2c-3.7-1.5-8.3-3.3-13.8-3.9
		c-4.4-0.9-9-1.3-13.7-1.4c-13.4,0-25.5,3.6-37.2,7.1c-5,1.5-9.7,2.9-14.4,4c-1.1,0.3-2.2,0.6-3.2,1.1c-2.9,1.4-5.9,2.8-8.8,4.2
		c-5.5,2.6-11.1,5.2-16.7,8.1c-0.2-1.1-0.5-2.1-0.8-3.1c0-1-0.2-2.1-0.4-3.1c-1-3.8-3.3-7-6.6-9.1C177.5,24.4,163.2,18.4,148,18.4
		L148,18.4z"/>
</g>
</svg>
