<?xml version="1.0" encoding="utf-8"?>
<!-- Generator: Adobe Illustrator 24.1.0, SVG Export Plug-In . SVG Version: 6.00 Build 0)  -->
<svg version="1.1" id="Livello_1" xmlns="http://www.w3.org/2000/svg" xmlns:xlink="http://www.w3.org/1999/xlink" x="0px" y="0px"
	 viewBox="0 0 474 405.9" style="enable-background:new 0 0 474 405.9;" width="50" height="50" xml:space="preserve">
<style type="text/css">

		.Stile_x0020_grafica{fill:#FEFEFE;stroke:#000000;stroke-width:15;stroke-linecap:round;stroke-linejoin:round;stroke-miterlimit:10;}
	.st0{fill:#FEFEFE;}
</style>
<g>
	<path class="st0" d="M219.8,320.6c-6.6,0-12-1.6-16.5-5c-1.3-0.1-3.7-0.6-5.7-2.8c-3.3,1.8-7,2.9-11,3.4c-0.9,0.1-1.8,0.2-2.7,0.2
		c-2.2,0-4.4-0.3-6.4-1c-4.9,1.7-10.2,2.5-15.6,2.5c-3.5,0-7.1-0.3-10.9-1c-1.4-0.2-2.8-0.5-4.3-0.7c-2.6-0.4-5.4-0.8-8.2-1.5
		l-1.1-0.2c-4.1-1-8.8-2-13.1-5.2c-1.4,0.5-2.9,0.7-4.4,0.7c-2.2,0-4-0.5-5.5-0.9c-0.5-0.1-0.9-0.2-1.4-0.3c-2.1-0.4-3.9-1-5.4-1.6
		c-1.3-0.5-2.4-0.9-3.3-1c-2.7-0.4-4.6-1.7-5.9-2.6c-0.2-0.1-0.4-0.2-0.5-0.4c-0.4-0.2-1.5-0.5-2.3-0.7c-1.3-0.3-2.8-0.6-4.4-1.3
		c-1.8-0.4-3.3-1.4-4.4-2.7c-0.6-0.8-1.8-1-5.1-1.2c-1.2-0.1-2.6-0.2-4-0.4c-1-0.2-2.2-0.2-3.8-0.2c-1.2,0-2.3,0-3.5,0.1
		c-1.3,0-2.7,0.1-4,0.1c-0.3,0-0.9,0-0.9,0c-0.6,0-1.6,0.3-2.6,0.6c-0.4,0.1-0.8,0.2-1.2,0.3c-2.5,0.7-5.2,1-8.1,1
		c-2.5,0-4.9-0.3-7.1-0.5c-0.1,0-0.3,0-0.6,0c-0.4,0-0.7,0-1.1,0c-0.5,0-1.1,0-1.6,0c-1.6,0-2.9-0.2-4.3-0.5
		c-1.6-0.4-3.1-0.9-4.5-1.4c-1.7-0.6-3.1-1.1-4.4-1.2c0,0-0.4-0.1-0.5-0.1c-1.1,0.2-2.2,0.4-3.4,0.4c-1.8,0-3.4-0.3-4.7-0.5
		c-0.7-0.1-1.3-0.2-1.8-0.3c-4.4-0.4-8-4.1-8.3-8.6c-0.2-3.2,1.4-7.3,6.7-8.6c1.8-0.7,3.8-1.3,6-1.4c3.5-2.3,7.3-3,10.5-3.5
		c-1.2-0.2-2.3-0.5-3.4-0.8c-8.9-2.4-7.9-9.8-7.8-10.7c0.4-2.1,2-6.9,9.1-7.8c3.6-0.4,7.3-1.8,11.2-3.2l1.4-0.5
		c1-0.4,2.1-0.9,3.3-1.5c2.8-1.4,6.3-3,10.5-3.4c0.4,0,0.9-0.1,2.2-1.4c0.4-0.4,1.6-1.6,3.3-2.3c0-0.1,0.1-0.8,0.2-1
		c0.3-1.3,0.5-2.6,0.7-3.9c0.7-3.9,1.4-8,2.9-12.2c0.2-0.6,0.3-1.7,0.4-2.8c0.1-0.8,0.2-1.7,0.3-2.6c0.6-3.7,2.2-6.6,3.5-9
		c0.2-0.4,0.5-0.9,0.7-1.3c0.3-0.6,0.6-1.4,0.9-2.2c0.9-2.4,2.1-5.7,5-8.4c0.1-0.1,0.3-0.4,0.5-0.7c0.5-0.6,1.1-1.4,2-2.2
		c2.5-2.4,4.7-5.3,7-8.3c0.9-1.2,1.9-2.5,2.8-3.7c1.7-2.1,3.4-4.2,5.1-6.3c0.9-1.2,1.9-2.3,2.8-3.5c2-2.5,4.2-5.3,6.3-8.3
		c2-3.8,5.2-4.4,6.8-4.5c0.4-0.3,1-1,1.5-1.6c0.8-0.9,1.8-2,3-3c1.4-1.2,2.9-2.9,4.3-4.7c1-1.2,2-2.3,3.1-3.5c1-1.1,3.5-3.7,7.4-3.7
		c0.6,0,1.1,0,1.8,0.2c0.5-0.7,1.1-1.3,1.9-2l0.1-0.1c0.8-1,3.3-4.1,7.6-4.1c0.8,0,1.6,0.1,2.4,0.3c0.2,0,0.3,0.1,0.5,0.1
		c1-1.1,2-2.5,3-4.2c1.6-2.5,3.6-4,5-5c0.3-0.2,0.5-0.4,0.8-0.6c2.2-1.8,4.4-2.1,5.9-2.1c0.9,0,1.8,0.1,2.7,0.4
		c0.3-0.3,0.5-0.6,0.8-0.9c1.4-1.5,2.9-3.3,4.9-4.9c2-1.6,4.2-2.4,6.4-2.4c1.3,0,3.7,0.3,5.9,2.2c2.7-5.3,7.9-7.1,10.1-7.8
		c1.7-0.6,3.2-0.9,4.8-0.9c1.9,0,3.8,0.4,5.4,1.3c1.6,0.1,3,0.5,4.2,1c1.7-2.1,3.6-3.2,5.3-3.8c-2.7-3.4-4-7.3-4.9-9.7
		c-0.6-1.7-0.6-3.3-0.5-4.4c0.6-8.9,2.9-16.4,7.1-23l0-0.1c1.3-2.2,2.8-3.7,4.3-4.5c0.3-0.3,0.6-0.7,0.9-1c0.7-0.6,1.3-2,1.9-3.6
		c0.9-2.2,2.1-4.9,4.2-7.3c2.8-3.2,6.2-5.1,10.1-5.4c0.2,0,0.5,0,0.7,0c2.4-1.6,5.1-2.5,8-2.5c2.8,0,5.3,0.8,7.7,1.6
		c1.6,0.6,3.4,1,5.3,1.5c2.6,0.6,5.2,1.3,7.9,2.3l0.2,0c0.4,0,0.8,0,1.1,0c3.9,0,7.3,1.6,10.1,4.5c4.1,0.7,6.9,2.9,9,4.6
		c0.4,0.3,0.7,0.6,1.1,0.9l1.1,0.8c2.7,2,5.5,4,8.2,6.5c3.6,3.3,6.6,7.2,9,11.5c0.3,0.5,0.6,1.1,0.9,1.6c1.2,1.9,2.7,4.4,3.4,7.6
		c0.6,2.6,1.6,5.3,2.7,8.1c1,2.6,2,5.3,2.8,8.1c1.6,5.9,2.9,12.8,0.4,20c-0.4,2.1-1.4,3.4-2.2,4.3c-0.5,0.5-0.9,1-1.2,1.6
		c0.3,0,0.6,0.1,0.9,0.1c4.1,0.8,7.5,3.2,9.7,6.7c0.3,0.5,0.6,0.9,0.8,1.4c0.6-0.4,1.2-0.7,1.9-1c1.4-2.9,4.2-4.8,7.5-4.8
		c0.4,0,0.7,0,1.1,0.1c0.4-3.5,1.4-7.5,4.8-11.1c0.4-0.4,0.8-0.8,1.2-1.2c-0.9-3.1-0.2-7.4,4.6-10.1l0.1-0.1c1.7-1,3.6-1.6,5.6-1.6
		c0.4,0,0.8,0,1.2,0.1c0.8-2,2.1-3.8,3.9-5.5c1.9-1.8,4-3.5,6.8-5.3c3.7-2.4,7.5-3.2,10.6-3.7c1.4-0.3,2.6-0.5,3.6-0.8
		c1.2-0.4,2.3-0.7,3.4-1c0.4-0.1,0.7-0.2,1.1-0.3c0.1-1,0.3-2.1,0.6-3.2l0-0.1c1.5-5.3,5.7-8.6,10.9-8.6c2.4,0,8.2,0.9,10.6,8.6
		c2.8,0.5,5.2,2.1,6.8,4.7c0.1,0.2,0.3,0.5,0.4,0.7c0.3-0.3,0.5-0.5,0.8-0.7c1.7-1.6,3.5-2.8,5.1-3.8c0.5-0.3,1-0.7,1.5-1
		c-1-1.2-1.6-2.7-1.8-4.4c-0.5-3.7,1.5-7.5,5-9.4c1.7-0.9,3.6-1.4,5.6-1.4c6,0,11.6,4.3,13.1,10.1c2.4,9.4-0.7,17.9-8.6,23.9
		c-0.1,0.1-0.1,0.1-0.2,0.1c0,0.3,0.1,1,0.5,2.2c1.4,4.3,2.5,9,1.6,14.1c0.3,0.1,0.6,0.2,0.9,0.3c-0.4-1.6-0.5-3.3-0.4-5.1
		c0.3-5.7,3.2-10.2,7.8-12.2c0.8-0.3,2.2-1,4.1-1c2.6,0,4.9,1.1,6.6,3.2c1.6,2,2.3,4.4,1.9,6.8c6,2.5,10.3,8.4,11,15.3
		c0.9,9.7-3,18-11.9,25.3c-3.3,2.7-7,4.7-11.3,5.9c0.6,5.2-0.7,10.3-3.8,15.2c0.2,0.2,0.5,0.5,0.7,0.7c0.7-0.6,1.5-1,2.4-1.4
		c0.9-0.4,2.4-0.9,4.1-0.9c2.2,0,4.4,0.8,6,2.3c2.3,2.1,3.6,5.1,3.8,8.6c0.1,3.6-1.1,7.1-3.5,9.5c-3,3.1-6.8,5.2-11,6.3
		c0.4,2.6-0.3,5.2-1.9,7.1c-1.5,1.8-3.7,2.8-6.1,3c-0.3,0.5-0.7,1.1-1,1.8c-1,1.8-2.2,3.9-4,5.9c-5.2,5.6-11.9,8.6-19.3,8.6
		c-2,0-4.1-0.2-6.1-0.6c-0.1,0-0.2,0-0.3-0.1c-0.1,0.4-0.2,0.8-0.3,1.2c-1.2,4-3.5,7-6.6,8.6c-1.2,0.6-2.5,1-3.8,1.3
		c-0.2,1.3-0.6,2.5-1,3.5c2.3,1.3,3.5,3.1,4,4c1.3,2,2.4,5.4,0.3,9.5c-0.9,2.8-3.2,4.8-6.1,5.4c-0.3,0.7-0.7,1.4-1.3,2.2
		c-2.6,3.4-6.7,5.3-11.3,5.3c-0.7,0-1.4,0-2.1-0.1c0,0.2,0,0.4,0.1,0.6c0.1,1.4,0.1,2.6,0,3.8c0.4,0.1,0.7,0.2,1.1,0.3
		c5.2,1.3,8.6,5.3,8.8,10.2c0.1,3-1,7.1-6.9,10.2c-1.1,0.5-2.1,1-3.1,1.3c-0.2,1.2-0.7,2.2-1.4,3.2c-1.3,1.8-3.3,3.1-5.5,3.5
		c-1.2,0.2-2.4,0.3-3.6,0.3c-3.3,0-6.3-0.9-9.1-2.6c-2.6-1.6-4.3-4.3-4.7-7.5c-0.5,0-1,0-1.5-0.1c-0.5,0.6-1.1,1.2-1.7,1.7
		c0.6,3.9-1.1,6.9-3.3,8.5c-0.1,0.1-0.1,0.2-0.2,0.3c-0.3,0.4-0.6,0.9-0.9,1.3c-3.2,4.1-6.8,4.9-9.2,4.9c-2.8,0-5.6-1.1-8.2-3.3
		c-0.1-0.1-0.3-0.2-0.4-0.3c-0.3-0.2-0.6-0.4-0.9-0.7c-1.9,0.8-4.1,1.2-6.3,1.2c-5.7,0-10.7-2.5-13.4-6.8c-0.5-0.8-0.9-1.8-1.2-2.7
		c-0.6,0-1.2,0.2-1.9,0.6c-0.8,0.4-1.6,1-2.5,1.6c-0.4,0.2-0.7,0.5-1.1,0.7c-2.4,1.6-5.1,2.4-8,2.4c-2.1,0-4.3-0.4-6.6-1.3
		c-0.4-0.1-0.8-0.2-1.4-0.2c-0.9,0-2,0.1-3.1,0.3c-0.3,0-0.7,0.1-1,0.1c-0.1,0.1-0.3,0.3-0.4,0.4c-0.3,0.3-0.5,0.6-0.8,0.9
		c-4.1,4.4-9.3,6.9-15.1,7.3c-0.4,0.2-1,0.5-1.6,0.7c-4.7,1.6-9.7,2.3-15.9,2.3c-0.9,0-1.9,0-2.8,0c-3.7,2.8-8.4,4.3-14,4.7
		C221.9,320.6,220.8,320.6,219.8,320.6z"/>
	<path d="M243,56.1c1.7,0,3.5,0.6,5.3,1.2c4.6,1.5,9.4,2.2,13.8,4c0.3,0.1,0.7,0.2,1.2,0.2c0.5,0,1-0.1,1.4-0.1c0.2,0,0.4,0,0.5,0
		c1.9,0,3.4,0.8,4.6,2.2c1.1,1.2,2.3,1.9,4,2.2c2.8,0.4,4.9,2.5,7.1,4.1c2.9,2.2,5.9,4.3,8.6,6.8c3,2.8,5.5,6,7.6,9.7
		c1.3,2.3,3,4.4,3.6,7.1c1.2,5.8,4,11,5.6,16.7c1.4,5.3,2.4,10.8,0.4,16.3c-0.1,0.2,0,0.5-0.1,0.7c-4.3,4.2-4.8,10.1-6.6,15.4
		c-0.4,1.2-1.1,2.3-2.1,3.3c-2,2-2.6,4.8-3.8,7.2c0.5,0.1,1.1,0.1,1.6,0.1c3.1,0,6-0.8,8.9-1.2c3.9-0.5,6.5-2.6,5-6.7
		c-0.2-0.6-0.6-0.8-1-1.1c-0.5-0.5-1.3-1-0.9-1.7c0.3-0.6,1-0.9,1.7-0.9c0.2,0,0.3,0,0.5,0.1c4.5,0.9,7,5.4,6,9.6
		c-1.4,5.9-6,8.1-11.1,9.9c-3.4,1.2-7.3,1.3-9.9,4.4c-0.2,0.2-0.4,0.3-0.5,0.5c-0.7,1.2-2.1,2.5-1.3,3.7c0.3,0.5,0.8,0.6,1.4,0.6
		c0.8,0,1.6-0.2,2.4-0.2c1.5,0,1.8-1.2,1.8-2.5c0-1.1,0.9-1.9,1.7-2c0.1,0,0.1,0,0.1,0c0.8,0,1,0.9,1,1.8c0,3,1.4,4.6,4.5,4.8
		c1,0.1,1.9,0.9,2.8,0.9c0.4,0,0.9-0.2,1.4-0.7c1.5-1.5,2.7-2.9,1.7-5.3c-0.6-1.4-0.1-3.2,1.1-4c1.4-0.9,3-1.7,4.7-1.7
		c0.4,0,0.9,0.1,1.4,0.2c0.6,0.1,0.8,0.6,0.8,1.3c0,0.7-0.2,1.3-0.9,1.5c-2.2,0.7-2.5,1.7-1.2,3.8c1,1.6,0.7,3.7-0.2,6
		c3.3-2.3,6-4.2,6.7-8.1c0.3-1.8-0.5-2.9-1.3-3.8c-4-5.1-0.4-13.6,5.2-14.6c1.3-0.2,2-1,2.1-2.4c0-0.7,0.2-1.4,1-1.4c0,0,0,0,0,0
		c0.7,0,0.7,0.8,1,1.3c1.1,2.4,0,4.2-1.4,5.9c-1,1.2-1.8,2.4-1.3,4.2c2.1-0.8,3.1-3,5-4c3.5-1.9,4.5-5.3,4.9-9.1
		c0.4-4,0.1-8.2,3.2-11.6c1.1-1.2,2.3-2,3.7-2.4c1-0.3,1.9-0.8,2.4-1.7c1-1.6,0.7-2.5-1.2-2.5c-1.3-0.1-1.6-0.9-1.9-1.7
		c-0.3-0.9,0.6-1.3,1.3-1.7c0.6-0.4,1.2-0.5,1.8-0.5c1.5,0,2.9,1.2,3.5,3.4c1,3.5,0.9,6.4-2.6,8.8c-1,0.6-2.1,2.8-0.9,4.6
		c0.2,0.3,0.1,0.8,0.6,0.8c0,0,0,0,0.1,0c0.5,0,0.9-0.4,0.9-0.9c0.1-3.5,2.5-5.8,4.4-8.4c1.6-2.3,2.4-5,1.8-7.7
		c-0.8-3.3,0.2-5.9,2.5-8.1c1.7-1.7,3.7-3.1,5.7-4.5c3.8-2.5,8.4-2.3,12.5-3.7c2.7-0.9,5.4-1.4,8-2.6c1.2-0.5,2.7-0.2,3.5-1.6
		c0.2-0.4,0.6-0.8-0.1-1c-2.6-0.8-2-2.6-1.5-4.5c0.6-1.9,1.8-3.1,3.7-3.1c0,0,0,0,0,0c2.1,0,2.9,1.6,3.4,3.4c1.7,5.8-0.9,9.9-5,13
		c-3.1,2.4-6.8,3.6-10.6,4.6c-3.7,0.9-7.3,2.6-8.9,6.5c-0.5,1.2,0,2.5-0.7,3.6c-0.2,0.3,0,0.7,0.4,0.7c0.1,0,0.1,0,0.2-0.1
		c2.6-1.1,5.1-1.9,6.7-5c2-4,5.8-6.5,10.7-6.9c2.3-0.2,4.7,0,6.8-1.2c1.8-1,3.1-2.1,2.5-4.7c-0.9-3.5,0.6-5.5,3.3-5.5
		c0.1,0,0.2,0,0.3,0c1,0.1,1.5,0.6,1.9,1.2c0.5,0.8-0.1,1.4-0.7,1.8c-1.2,0.8-0.9,1.6-0.4,2.7c1.5,3.6,0.1,8.8-3.2,11.7
		c1.9,0.4,4,0.1,4.5,2.6c0.3,1.9-0.6,3.3-2.1,3.3c-0.3,0-0.7-0.1-1-0.2c-0.3-0.1-0.4-0.1-0.6-0.1c-0.6,0-0.6,0.6-0.8,0.9
		c-0.2,0.2-0.1,0.6-0.2,0.9c-0.7,3.1-0.7,2.8,2.5,2.9c0.1,0,0.2,0,0.3,0c4.7,0,8.7-5.5,9.2-9.7c0.3-2.3,0.2-4.7,0.5-7
		c0.4-3.3,2.5-5.9,4.9-8.2c2.9-2.7,6.8-4.2,9.3-7.3c1.2-1.4,2-2.9,1.9-4.8c-0.1-1.4-1-2.2-2-2.2c-0.1,0-0.2,0-0.3,0
		c-0.2,0-0.3,0-0.4,0c-1,0-1.4-0.7-1.5-1.2c-0.1-0.7,0.4-1.5,1.3-2c0.6-0.3,1.2-0.5,1.9-0.5c2.4,0,5.2,1.9,5.8,4.4
		c1.6,6.4-0.4,11.9-5.9,16.1c-3.2,2.5-3.9,5.6-2.3,10.7c1.4,4.2,2.3,8.4,0.6,12.9c-1.2,3-3.2,5.1-5.5,7c-0.5,0.4-1,1-1.4,1.6
		c0.1,0.1,0.2,0.2,0.2,0.2c0,0,0,0,0,0c0.1,0,0.2,0,0.3,0c1.5,0,3,1.3,4.1,1.3c0.2,0,0.3,0,0.5-0.1c1.3-0.5,2.2-2.5,3.7-3.3
		c0.9-0.5,1.8-0.8,2.7-0.8c1.5,0,3,0.7,4.2,2c0.8,0.9,1,1.7,0.1,2.7c-0.3,0.3-0.5,0.5-0.7,0.5c-0.4,0-0.7-0.7-1-0.9
		c-0.4-0.2-0.9-0.4-1.3-0.4c-0.5,0-0.9,0.2-1,0.8c-0.3,1.3-1.3,3,0.5,4c2.2,1.2,4.4,2.2,6.9,2.2c0.6,0,1.3-0.1,2-0.2
		c3.3-0.7,8.6-4.5,9.5-7.7c0.4-1.5-0.4-2.9-1.4-4c-0.9-1-1.8-2.1-3.1-2.8c-4-2.3-4.6-11.3,0.1-13.3c0.4-0.2,0.7-0.3,1.1-0.3
		c0.3,0,0.5,0.1,0.8,0.4c0.5,0.6,0.3,1.1-0.2,1.7c-1.1,1.2-0.9,3.8,0.5,5c1,0.9,2.2,1.5,3.4,1.9c4.4,1.2,7.1,5.3,7.4,9.5
		c0.7,8-3.1,13.8-9.2,18.9c-4.3,3.5-8.9,5-14.1,5.5c-1.6,0.2-1.8,0.7-1.2,1.9c2.7,6.1,1.6,11.7-2.2,16.8c-1.8,2.5-4,4.6-6.5,6.6
		c1.3-0.4,2.5-0.8,3.8-0.8c1.2,0,2.3,0.3,3.4,1.1c1.2,0.9,2.5,1.8,2.3,3.5c-0.1,0.7-0.2,1.2-0.9,1.2c-0.2,0-0.4,0-0.7-0.1
		c-0.7-0.2-1.5-0.3-2.2-0.3c-1.8,0-3.5,0.7-4.6,2.8c4.1,0.8,8.4,0.6,12.5,1.5c0.3,0.1,0.6,0.1,0.9,0.1c2.8,0,5.1-3,4.6-5.8
		c-0.1-0.7,0.1-0.7,0.6-0.9c0.4-0.2,0.9-0.3,1.3-0.3c0.4,0,0.7,0.1,1,0.4c1.7,1.5,1.7,5.4-0.1,7.2c-2.5,2.5-5.6,4.1-9.1,4.6
		c-4.2,0.7-8,1.9-12,4.8c1.2,0,2.1,0,2.9,0c0.5,0,1,0,1.5,0c0,0,0.1,0,0.1,0c2.2,0,3.2,1.4,3.5,3.2c0.2,1.1-0.5,1.5-1.2,1.5
		c-0.3,0-0.6-0.1-1-0.2c-0.3-0.1-0.6-0.2-0.8-0.2c-0.7,0-1.2,0.5-1.8,1.1c-2.7,2.7-3.8,6.5-6.3,9.3c-3.9,4.2-8.6,6.2-13.8,6.2
		c-1.5,0-3-0.2-4.6-0.5c-4.4-0.9-8.1-3.2-11.8-5.5c-2.5-1.6-5.6-2.3-8.4-2.3c-2.4,0-4.8,0.6-6.5,1.7c-0.7,0.4-1.5,1-1.1,2.3
		c1.8-1.9,4-2.6,6.3-2.6c1,0,2,0.1,3,0.4c3.4,0.8,6.9,2,8.9,5.5c1.7,2.9,0.5,9.4-2.5,10.9c-1.1,0.5-2.2,0.7-3.4,0.7
		c-1.2,0-2.5-0.2-3.7-0.6c-1.1-0.3-1.4-1.1-1.1-2c0.2-0.7,0.7-1,1.2-1c0.3,0,0.6,0.1,0.8,0.2c0.5,0.3,1,0.4,1.4,0.4
		c0.8,0,1.6-0.4,2.1-1c0.9-0.9,1.6-2.4,0.8-3.6c-0.7-1.1-1.7-2.1-3.4-2.1c-0.1,0-0.2,0-0.3,0c-3.2,0.2-5.3,1.6-6.4,4.2
		c-0.7,1.6,0.5,2.5,1,3.5c0.9,1.6,1.9,3.1,2.6,4.8c1,2.7,0,4.9-1.2,6.9c-1.4,2.2-3.4,3.9-5.3,5.8c-1.3,1.3-1.8,2.9-0.7,4.6
		c0.5,0.8,0.9,1.2,1.4,1.2c0.4,0,0.9-0.4,1.4-1.2c1.3-1.9,3-3.3,5.4-3.3c0.3,0,0.6,0,0.9,0.1c1.3,0.2,1.8,0.9,2.4,1.8
		c0.8,1.2-0.3,2-0.5,3c-0.1,0.3-0.4,0.5-0.8,0.5c-0.2,0-0.5-0.1-0.6-0.2c-0.6-0.5-1.1-0.7-1.5-0.7c-1,0-1.4,1.3-1.9,2.3
		c-0.6,1.1-0.5,2.4-1.4,3.6c-1.2,1.6-3.2,2.4-5.4,2.4c-3,0-6.2-1.5-7.6-4.5c-1-2.2-1.8-4.4-1.1-7c0.4-1.7,0.3-3.7-0.2-5.6
		c-0.4-1.7-1.6-2.6-3.1-2.6c-0.8,0-1.7,0.3-2.5,1c-2.8,2.2-4,5.1-3.6,8.7c0.1,0.6,0.3,1.2,0.8,1.3c2.2,0.3,3.3,2.1,4.6,3.5
		c1.6,1.6,1.9,6.1,0.9,7.7c-0.3,0.6-0.6,0.8-0.9,0.8c-0.4,0-0.6-0.4-0.6-0.8c0-1-0.8-1.5-1.1-2.3c-0.4-1.2-1.2-1.8-2-1.8
		c-0.6,0-1.2,0.3-1.8,0.9c-1.4,1.5-2.4,3.4-1.8,5.5c0.6,2.4,1.7,4.7,4.3,5.6c0.2,0.1,0.5,0.1,0.6,0.1c0.8,0,0.8-0.9,0.6-1.8
		c0,0-0.1,0-0.1,0c-0.4,0-0.9,0.5-1.4,0.5c-0.3,0-0.6-0.2-0.8-0.8c-0.8-1.7,0.5-2.5,1.3-3.2c0.5-0.4,1.1-0.6,1.7-0.6
		c1.9,0,4,1.8,4.2,3.9c0.3,3.4-0.1,4.3-3.4,7.9c3.6,0.4,6.8,2,10.1,2.8c1.9,0.5,3.1,1.6,3.1,3.2c0.1,1.5-1.3,2.4-2.8,3.2
		c-3.3,1.7-7.3,1.9-10.5,4.1c0.3,0.5,0.7,0.6,1.1,0.6c0.3,0,0.6-0.1,0.9-0.1c0.1,0,0.1,0,0.2,0c0.7,0.1,1.1,0.4,1.3,1.1
		c0.2,0.9-0.3,1.4-1,1.5c-0.7,0.1-1.5,0.2-2.2,0.2c-1.8,0-3.5-0.4-5.2-1.5c-2-1.2-1.4-5,0.5-6.1c0.4-0.2,0.9-0.3,1.2-0.6
		c0.8-0.7,2.4-0.2,2.8-1.6c0.1-0.4-3.1-1.7-4.1-1.7c-0.1,0-0.2,0-0.2,0c-2.6,0.9-5.1,1.4-7.8,1.4c-1.7,0-3.3-0.2-5-0.5
		c-0.2,0-0.4-0.1-0.5-0.1c-0.6,0-0.9,0.3-1.1,0.7c-1.5,3.6-4.9,4.9-8,6.6c-1.2,0.7-2.3,1.5-3.4,2.4c-0.3,0.2-1,0.9-0.3,1.5
		c0.3,0.2,0.5,0.4,0.8,0.4c0.3,0,0.6-0.2,0.9-0.5c0.9-1,1.9-1.5,3.2-1.5c0.1,0,0.2,0,0.3,0c0.7,0,1.3,0.2,1.5,0.9
		c0.1,0.6,0.3,1.3-0.4,1.7c-1.1,0.7-1.7,1.9-2.4,2.9c-1.1,1.4-2.2,2-3.3,2c-1,0-2.2-0.5-3.4-1.6c-0.6-0.5-1.2-0.9-1.8-1.4
		c-4.5-4.1-2.9-7.2,0.9-10.3c1.8-1.4,3.7-2.5,4-5.4c0.3-3-0.8-5-2.9-6.5c-1.3-0.9-2.8-1.6-4.3-1.6c-0.9,0-1.7,0.2-2.7,0.7
		c-2,1-3.2,2.9-2.5,4.1c0.5,1,1.9,1.6,3.2,1.6c0.8,0,1.6-0.2,2.2-0.8c0.8-0.7,1.6-1,2.3-1c0.9,0,1.7,0.5,2.6,1.2
		c0.8,0.7,1.3,1.5,0.9,2.4c-0.2,0.5-0.5,0.6-0.8,0.6c-0.4,0-0.8-0.2-1.1-0.4c-0.1-0.1-0.2-0.1-0.3-0.1c-0.2,0-0.3,0.2-0.6,0.4
		c-2.1,2.1-4.4,3-6.9,3c-1.6,0-3.2-0.4-4.9-1c-2.2-0.8-4.4-1.8-6.5-2.9c-0.2-0.1-0.6-0.4-0.9-0.4c-0.2,0-0.4,0.1-0.6,0.5
		c-0.3,0.8,0.4,0.9,0.9,1.3c2.3,1.7,5.4,2.3,6.6,5.4c0.3,0.7,0.5,1.3,0.4,2c-0.1,0.8-0.9,1.6,0.4,2.1c0.6,0.3,1.3,0.6,1.9,0.6
		c0.4,0,0.9-0.2,1.3-0.6c0.5-0.6,1.1-0.9,1.6-0.9c0.6,0,1.1,0.3,1.6,0.9c1.2,1.2,0,2.1-0.8,3c-1.2,1.2-3.4,1.9-5.7,1.9
		c-2.7,0-5.6-1-7.2-3.4c-0.2-0.3-0.3-0.8-0.2-1.1c0.8-2.4-0.8-3.2-2.5-4c-1.6-0.7-3.1-1-4.7-1c-1.9,0-3.7,0.5-5.5,1.5
		c-1.4,0.8-2.7,1.7-4.1,2.6c-1.3,0.8-2.6,1.2-3.9,1.2c-1.4,0-2.7-0.3-4.1-0.8c-1.3-0.5-2.7-0.7-4-0.7c-2,0-4.1,0.4-6.1,0.6
		c-2,0.2-3.3,2.1-4.6,3.5c-3,3.2-6.7,4.9-11.1,4.9c-0.1,0-0.2,0-0.2,0c0,0,0,0,0,0c-1,0-1.5,0.8-2.2,1c-4.4,1.5-8.9,1.9-13.5,1.9
		c-1,0-2,0-2.9-0.1c-0.1,0-0.2,0-0.3,0c-1.5,0-2.6,0.4-4,1.4c-2.9,2.2-6.5,3.1-10.1,3.3c-1,0.1-1.9,0.1-2.8,0.1
		c-4.4,0-8.6-0.8-12.4-3.8c-0.7-0.6-1.6-1.3-2.7-1.3c-0.2,0-0.5,0-0.8,0.1c-0.1,0-0.1,0-0.2,0c-0.5,0-0.9-0.7-1.1-1.2
		c-0.2-0.4,0-0.9,0.4-1.3c0.4-0.3,1.1-0.2,1.3-1c0-0.3-0.3-0.1-0.5-0.2c-1.1-0.8-2.2-1.1-3.2-1.1c-2.2,0-4.3,1.4-6.3,2.6
		c-2.7,1.5-5.7,2.4-8.7,2.7c-0.6,0.1-1.2,0.1-1.8,0.1c-1.5,0-3.1-0.2-4.5-0.8c-0.7-0.3-1.3-0.4-1.8-0.4c-0.8,0-1.5,0.2-2.4,0.5
		c-4.4,1.5-8.8,2.1-13.3,2.1c-3.2,0-6.3-0.3-9.5-0.9c-4-0.7-8.1-1.1-12.1-2.1c-4.2-1-8.4-1.8-11.9-4.5c-1.2-0.9-2.4-1.4-3.7-1.4
		c-0.8,0-1.6,0.2-2.4,0.5c-0.8,0.3-1.6,0.4-2.3,0.4c-1.9,0-3.7-0.7-5.5-1.1c-3.1-0.6-5.9-2.3-9.1-2.7c-1.2-0.2-2.3-1.1-3.4-1.8
		c-2.6-1.6-5.7-1.5-8.4-2.8c-0.3-0.2-0.8,0-1.1-0.4c-3.6-4.4-9-3.5-13.7-4.3c-1.6-0.3-3.3-0.3-5-0.3c-2.5,0-5,0.2-7.5,0.2
		c-0.3,0-0.5,0-0.8,0c0,0-0.1,0-0.1,0c-2,0-3.9,0.7-5.7,1.2c-2.1,0.6-4.1,0.8-6.1,0.8c-2.1,0-4.1-0.2-6.2-0.5
		c-0.5-0.1-1-0.1-1.5-0.1c-0.9,0-1.8,0.1-2.7,0.1c-0.8,0-1.6-0.1-2.4-0.3c-3.3-0.8-6.4-2.4-9.8-2.8c-0.5-0.1-1-0.1-1.5-0.1
		c-0.4,0-0.7,0-1.1,0.1c-0.7,0.2-1.4,0.3-2,0.3c-2,0-3.9-0.6-5.9-0.7c-0.8-0.1-1.4-0.9-1.4-1.6c-0.1-0.9,0.9-0.8,1.5-1
		c1.4-0.5,2.9-1,4.4-1c0.3,0,0.5,0,0.8,0c0.1,0,0.2,0,0.3,0c0.4,0,0.8-0.1,1.2-0.4c2.9-2.5,6.5-2.9,10.1-3.4
		c2.6-0.4,4.9-1.7,7.2-2.8c3.9-1.9,8.2-2.8,12.4-3.9c2.7-0.8,4.9-2.5,7.5-3.3c0.5-0.2,1-0.3,1.5-0.3c0.4,0,0.8,0.1,1.2,0.2
		c0.6,0.2,1.2,0.2,1.8,0.2c1.3,0,2.6-0.4,3.8-1.1c1.8-1.1,3.9-1.9,5.1-4.2c-5.7,0.4-11.4-0.1-17.2,0.7c-3.1,0.4-6.3,1.4-9.5,1.4
		c-1.6,0-3.3-0.3-5-1c-0.5-0.2-1.2-0.3-1.8-0.3c-1,0-2,0.2-2.9,0.2c-0.4,0-0.8,0-1.3,0c-2.3,0-4.6-0.5-6.8-1.1
		c-1-0.3-2.5-0.7-2.3-2.1c0.2-1.2,1.4-1.5,2.7-1.7c5-0.6,9.6-2.5,14.2-4.2c4-1.5,7.6-4.1,11.9-4.5c2.9-0.3,4.9-1.6,6.9-3.6
		c0.3-0.3,0.6-0.6,1-0.6c3.9-0.5,4.1-3.8,4.6-6.5c1-5,1.6-10.1,3.3-15c0.8-2.1,0.7-4.5,1.1-6.8c0.5-2.9,2.1-5.4,3.4-7.9
		c1.5-2.9,2-6.4,4.5-8.7c0.9-0.9,1.6-2,2.5-2.9c4.1-3.8,7.1-8.5,10.5-12.9c2.6-3.3,5.2-6.5,7.8-9.7c2.3-2.9,4.6-6,6.8-9
		c0.3-0.4,0.4-1,0.8-1c4.4-0.1,6.1-4,8.9-6.3c3-2.5,5.4-5.9,8.1-8.8c0.8-0.9,1.4-1.3,1.9-1.3c0.6,0,1,0.7,1.4,2.2
		c0.2,0.7,0.6,1,0.9,1c0.4,0,0.9-0.3,1.3-0.7c2.1-1.7,3-4.5,5.1-6.3c0.9-0.8,1.4-2.1,2.6-2.1c0.1,0,0.3,0,0.4,0.1
		c1.3,0.3,0.8,2.1,1.3,3.1c4.8-2.2,7.9-6.2,10.5-10.5c1.1-1.7,2.7-2.6,4.1-3.7c0.4-0.3,0.8-0.5,1.2-0.5c0.5,0,1,0.4,1.2,1.3
		c0.4,1.2,1.5,1.4,2.5,1.6c0.1,0,0.1,0,0.2,0c0.9,0,0.9-0.9,1.1-1.6c0-0.2,0.3-0.4,0.4-0.5c2.8-2.3,4.7-5.4,7.6-7.7
		c0.7-0.5,1.2-0.8,1.8-0.8c0.6,0,1.1,0.3,1.7,1c1.5,1.9,3.4,2.6,5.8,2.6c0.1,0,0.1,0,0.2,0c2.5,0,4-1.4,4.3-3.3
		c0.7-3.9,3.3-5.2,6.5-6.3c0.8-0.3,1.6-0.4,2.4-0.4c1,0,2,0.3,2.9,1c0.2,0.2,0.5,0.4,0.7,0.4c0,0,0,0,0.1,0c0.4-0.1,0.7-0.1,1.1-0.1
		c1.8,0,3.1,1.1,4.5,2.5c0.4,0.4,0.8,0.6,1.3,0.6c1.2,0,2.7-1.1,3.5-2.8c1.3-2.5,2.9-3.8,4.7-3.8c1.4,0,2.9,0.8,4.4,2.4
		c0.6,0.7,1.4,0.9,2.1,0.9c0.6,0,1.3-0.2,1.9-0.3c0.8-0.1,1.6-0.3,2.4-0.3c0.1,0,0.2,0,0.3,0c0.2,0,0.4,0,0.6,0
		c1.8,0,3.3-0.6,4.8-1.8c1.6-1.2,3.2-2.3,5.2-2.9c1.8-0.5,1.7-1.6,0.3-2.3c-2.2-1.2-4.5-2.5-7-2.5c-0.9,0-1.9,0.2-2.9,0.6
		c-0.5,0.2-1,0.3-1.5,0.3c-1.9,0-3.4-1.6-5-2.5c-4.1-2.3-5.8-6.4-7.3-10.6c-0.1-0.4-0.1-0.9-0.1-1.4c0.5-7,2.2-13.6,5.9-19.5
		c0.5-0.7,1.1-2.3,2.8-2.3c0.1,0,0.2,0,0.4,0c0,0,0.1,0,0.1,0c0.7,0,0.3-1.3,0.9-1.9c3.3-3.2,3.7-8,6.6-11.5c1.4-1.6,3-2.6,5-2.8
		c1.3-0.1,2.6,0,3.8-0.9C240,56.5,241.5,56.1,243,56.1 M388.8,120.5c-0.1,0-0.2,0-0.2,0c-0.3,0-0.5,0-0.8,0c-2.1,0-3.5,0.9-4.6,2.9
		c-0.3,0.5-0.4,0.9-0.4,1.4c0,0.5,0.3,0.6,0.6,0.6c0.2,0,0.5-0.1,0.7-0.1c0,0,0,0,0,0c0.1,0,0.1,0,0.2,0c3.5,0,5.2-2.5,7.1-5.3
		C390.3,120.2,389.5,120.5,388.8,120.5 M403.5,170c0.5,0,0.9-0.5,1.3-0.5c0,0,0.1,0,0.1,0c0.5,0.1,1.1,0,1.6,0.2
		c0.6,0.2,1.2,0.3,1.7,0.3c1.8,0,3.4-0.9,4.9-2c2.1-1.6,0.7-3.8,1.1-5.4c0-1.2,0-2,0-2.9c0-1.9,0-2.5-1-2.5c-0.5,0-1.1,0.1-2.1,0.3
		c-4.7,0.9-7.5,3.9-9.2,8.1c-0.5,1.1-0.2,2.5,0.6,3.8C403,169.9,403.3,170,403.5,170 M243,41.1C243,41.1,243,41.1,243,41.1
		c-3.7,0-7.2,0.9-10.4,2.6c-4,0.5-9.5,2.4-14.2,7.8c-2.9,3.3-4.3,6.8-5.4,9.3c-0.2,0.5-0.5,1.2-0.7,1.6c0,0.1-0.1,0.1-0.1,0.2
		c-2.1,1.4-4.1,3.5-5.9,6.6c-4.7,7.5-7.4,16.4-8.1,26.3c-0.1,1-0.3,4,0.9,7.3c0.2,0.5,0.3,1,0.6,1.6c-1.1-0.2-2.3-0.3-3.5-0.3
		c-2.4,0-4.8,0.4-7.2,1.3c-4,1.4-7.3,3.3-9.9,5.6c-1.2-0.3-2.4-0.4-3.7-0.4c-2.8,0-6.9,0.7-11.1,4.1c-1.5,1.2-2.8,2.5-4,3.7
		c-3.7,0.1-7.2,1.3-10.2,3.7c-0.2,0.1-0.4,0.3-0.6,0.4c-1.6,1.2-4.6,3.3-7,7.1c-0.1,0.1-0.1,0.2-0.2,0.2c-3.4,0.1-8,1.4-12.2,6
		c-6.3,0.6-10.1,4.6-11.4,6.1c-1.2,1.3-2.3,2.7-3.3,3.8c-1.3,1.5-2.5,3-3.4,3.7c-1.4,1.2-2.6,2.4-3.5,3.4c-2.9,0.8-6.7,2.8-9.3,7.4
		c-2,2.7-3.9,5.3-5.8,7.6c-0.9,1.1-1.9,2.3-2.8,3.4c-1.7,2.1-3.4,4.2-5.2,6.4c-1,1.3-2,2.6-2.9,3.8c-2.1,2.8-4.1,5.5-6.1,7.4
		c-1.2,1.2-2.1,2.3-2.7,3c-0.1,0.1-0.1,0.1-0.2,0.2c-3.9,3.9-5.6,8.3-6.6,10.9c-0.2,0.5-0.4,1.2-0.5,1.4c-0.2,0.4-0.4,0.8-0.6,1.1
		c-1.4,2.6-3.6,6.4-4.3,11.4c-0.2,1.1-0.3,2.1-0.4,3c0,0.5-0.1,1.1-0.2,1.4c-1.6,4.6-2.4,9.1-3.1,13.1c-0.1,0.5-0.2,1-0.3,1.6
		c-0.4,0.3-0.9,0.7-1.3,1.1c-4.7,0.7-8.4,2.5-11.3,3.9c-1,0.5-2,1-2.7,1.2l-1.4,0.5c-3.6,1.3-6.7,2.5-9.5,2.8
		c-9.9,1.2-14.6,8-15.6,14c-0.5,3.2-0.2,6.7,1.4,9.9c-0.6,0.2-1.1,0.4-1.7,0.6c-8.7,2.4-12.3,10-11.9,16.3c0.5,8.2,7,14.9,15.1,15.6
		c0.2,0,0.7,0.1,1.1,0.2c1.5,0.3,3.5,0.6,6,0.6c1.2,0,2.4-0.1,3.5-0.3c0.6,0.2,1.6,0.5,2.3,0.8c1.5,0.5,3.2,1.1,5.1,1.6
		c1.9,0.5,3.9,0.7,6.1,0.7c0.7,0,1.4,0,1.9,0c0.2,0,0.5,0,0.7,0c2.3,0.3,4.9,0.5,7.7,0.5c3.6,0,6.9-0.4,10.1-1.3
		c0.4-0.1,0.9-0.2,1.3-0.4c0.3-0.1,0.7-0.2,1-0.3c0.1,0,0.3,0,0.4,0c1.5,0,2.9,0,4.3-0.1c1.2,0,2.3-0.1,3.2-0.1c1.1,0,2,0,2.6,0.2
		c1.7,0.3,3.3,0.4,4.7,0.5c0.4,0,1,0.1,1.4,0.1c1.5,1.4,3.6,2.7,6.4,3.5c2,0.8,3.7,1.2,5.1,1.5c0.2,0,0.4,0.1,0.7,0.2
		c1.6,1.1,4.6,3,8.6,3.6c0.3,0.1,1.2,0.4,1.9,0.6c1.8,0.6,3.9,1.5,6.6,2c0.2,0,0.6,0.1,0.9,0.2c1.7,0.4,4.3,1.1,7.4,1.1
		c1,0,2-0.1,2.9-0.2c4.6,2.6,9.3,3.7,12.9,4.5l1,0.2c3.1,0.7,6.1,1.2,8.8,1.6c1.4,0.2,2.8,0.4,4.1,0.6c4.2,0.7,8.3,1.1,12.2,1.1
		c5.4,0,10.7-0.7,15.8-2.2c2,0.4,4.1,0.7,6.2,0.7c1.2,0,2.4-0.1,3.6-0.2c3.2-0.4,6.3-1.1,9.2-2.2c1.2,0.6,2.4,1.1,3.7,1.4
		c5.5,3.6,11.9,5.4,19.4,5.4c1.2,0,2.5,0,3.8-0.1c6-0.4,11.3-2,15.7-4.6c0.2,0,0.4,0,0.6,0c7,0,12.8-0.9,18.3-2.7
		c0.4-0.1,0.8-0.3,1.2-0.4c6.8-0.8,12.9-3.7,17.9-8.8c0,0,0.1,0,0.1,0c2.9,1,5.7,1.5,8.4,1.5c3.8,0,7.6-1,10.9-2.8
		c4.3,4.5,10.5,7.1,17.3,7.1c1.6,0,3.2-0.2,4.8-0.4c3.5,2.4,7.2,3.6,11.1,3.6c3.4,0,9.8-1,15.1-7.8c0.3-0.4,0.6-0.8,0.8-1.1
		c0.5-0.5,1-1,1.4-1.5c0.1,0,0.2,0.1,0.2,0.1c4,2.5,8.4,3.7,13,3.7c1.6,0,3.3-0.2,5-0.5c5.2-1,9.2-4.1,11.4-8.4
		c0.2-0.1,0.4-0.2,0.7-0.3c10.3-5.3,11.1-13.7,11-17.1c-0.1-3.8-1.4-7.3-3.6-10.1c2.1-1.3,4-3,5.5-5c0.1-0.2,0.3-0.4,0.4-0.6
		c3.6-1.7,6.5-4.8,7.9-8.6c3.5-7.3,1-13.3-0.6-16c2.4-1.7,4.4-4,6-6.8c0.5,0,1.1,0,1.6,0c9.5,0,18.1-3.8,24.8-11
		c2-2.2,3.4-4.4,4.5-6.2c2.7-0.9,5.1-2.5,6.9-4.7c1.6-1.9,2.8-4.1,3.3-6.5c3.5-1.6,6.6-3.8,9.3-6.5c3.7-3.8,5.8-9.3,5.6-15
		c-0.2-5.5-2.4-10.5-6.2-13.9c-2.1-1.8-4.5-3.1-7.2-3.8c0.1-0.5,0.1-0.9,0.2-1.4c3.1-1.4,5.9-3.2,8.6-5.3
		c10.8-8.9,15.7-19.6,14.6-31.8c-0.7-7.9-4.9-15-11.1-19.2c-0.5-2.5-1.6-4.9-3.4-7c-2.8-3.4-6.7-5.5-11-5.8
		c1.7-5.2,1.9-10.9,0.4-16.8c-2.3-9.1-10.9-15.7-20.4-15.7c-3.3,0-6.5,0.8-9.3,2.4c-5.1,2.9-8.3,8-8.8,13.5
		c-3.8-6.7-10.3-9.2-15.7-9.3l0,0c0,0-0.1,0-0.1,0c-8.4,0-15.4,5.3-18,13.5c-0.2,0.1-0.3,0.1-0.5,0.2c-0.5,0.2-1.6,0.4-2.6,0.6
		c-3.3,0.6-8.4,1.6-13.3,4.9c-3.1,2.1-5.6,4-7.8,6.1c-1.2,1.1-2.2,2.4-3.2,3.6c-2.1,0.4-4.1,1.1-6,2.2l0,0c-6.2,3.4-8.7,8.9-8.8,14
		c-2.2,2.7-3.6,5.5-4.5,8.2c-1.3,0.4-2.5,1-3.6,1.7c-0.5-0.4-1-0.8-1.5-1.2c0-0.1,0-0.2,0.1-0.3c2.8-9,1.3-17.4-0.5-23.9
		c-0.9-3.3-2-6.2-3-8.9c-1-2.6-1.9-5-2.3-7c-1-4.5-3-7.8-4.4-10c-0.3-0.5-0.6-0.9-0.7-1.2c-2.8-5-6.3-9.5-10.5-13.4
		c-3-2.7-6.1-5-8.8-7l-1.1-0.8c-0.3-0.2-0.6-0.5-0.9-0.7c-2.1-1.6-5.3-4.2-9.9-5.5c-3.9-3.4-8.7-5.2-13.8-5.2c-0.1,0-0.1,0-0.2,0
		c-2.6-0.9-5-1.5-7.3-2c-1.7-0.4-3.3-0.8-4.7-1.3C250.3,42.1,247,41.1,243,41.1L243,41.1L243,41.1z"/>
</g>
</svg>
