<?xml version="1.0" encoding="utf-8"?>
<!-- Generator: Adobe Illustrator 24.1.0, SVG Export Plug-In . SVG Version: 6.00 Build 0)  -->
<svg version="1.1" id="Livello_1" xmlns="http://www.w3.org/2000/svg" xmlns:xlink="http://www.w3.org/1999/xlink" x="0px" y="0px"
	 viewBox="0 0 474 638.3" style="enable-background:new 0 0 474 638.3;" width="50" height="50" xml:space="preserve">
<style type="text/css">

		.Stile_x0020_grafica_x0020_2{fill:#FFFFFF;stroke:#000000;stroke-width:15;stroke-linecap:round;stroke-linejoin:round;stroke-miterlimit:10;}
	.st0{fill:#FFFFFF;}
</style>
<g>
	<path class="st0" d="M226.7,615.4c-2.7,0-5.1-0.7-7-1.2c-1.3-0.4-2.5-0.7-3.3-0.7c-0.1,0-0.1,0-0.2,0c-0.7,0.1-1.5,0.1-2.2,0.1
		c-2.9,0-5.6-0.6-8-1.1c-1.8-0.4-3.5-0.7-4.9-0.7c-0.6,0-1.1,0.1-1.6,0.2c-0.7,0.2-1.5,0.3-2.2,0.3c-2,0-3.9-0.8-5.4-2.2
		c0,0,0,0,0,0c-0.5,0-1.2,0.1-1.9,0.1c-0.9,0.1-1.9,0.2-3,0.2c-3.6,0-6.6-0.9-9-2.8c-0.3,0-0.7,0-1-0.1l0,0l-0.4,0
		c-0.2,0-0.5,0-0.7,0c-3.5,0-5.9-1.2-7.5-2.6c-0.3,0-0.6,0-0.9,0c-4.2,0-7.7-1.8-10.2-3.1c-1.1-0.6-2.2-1.1-2.8-1.3
		c-6-1.4-11.4-5.2-16.3-9.3c-0.9,0.4-1.9,0.6-2.9,0.6c-1,0-2-0.2-2.9-0.6c-2.9-1.2-4.8-4.2-4.6-7.4c0.1-0.9-0.2-1.4-2.5-3.7
		l-0.6-0.6c-1.6-1.6-3-3.3-4.2-4.8c-1-1.3-2-2.5-3-3.5c-3.2-3.1-3-6.2-2.5-8c-0.1-0.2-0.3-0.5-0.4-0.7c-1.5-2.5-4.4-7.1-2.1-13.1
		c0.5-1.4,0.8-3.1,1.2-5c0.6-3.3,1.2-6.9,3.2-10.4c1.1-2,1.3-2.9,1.3-4.4c0-6.1,4.4-10.6,10.6-11c-0.8-0.5-1.7-1.1-2.6-1.9
		c-0.1,0-0.1,0-0.2,0c-2.2,0-4.3-0.7-6-2.1c-1.6-1.3-2.6-3.2-2.7-5.2c-0.2-2,0.5-4,1.9-5.6l0.1-0.2c3-3.4,5.6-6.4,6.1-9.7
		c0.5-3.7,4.2-7.9,8.7-8.1c0,0,0,0,0,0c0.5-0.5,1.1-1.2,1.9-1.9c-0.4-1.3-0.5-2.5-0.4-3.4c0.3-4.6,3.6-7.2,4.7-8
		c0.1-0.1,0.2-0.2,0.3-0.3c0.9-0.8,2.5-2.1,4.7-2.8c-1.3-3.6,0.2-6.7,0.7-7.9l0.1-0.2c1.6-4.4,5.6-7.3,10.1-7.3c1,0,2,0.1,2.9,0.4
		c0.4-2,0.1-3.3-0.6-4.5c-3.2-5.9-0.2-11.2,1.2-13.8c0.3-0.5,0.6-1.1,0.7-1.4c1.3-3.7,0.8-5.1-1.3-7.3c-2.3-2.4-2.9-5.1-3.3-6.8
		c0-0.2-0.1-0.5-0.2-0.7c-2.7-3-4.6-8,0.7-14.9c0.2-0.3,0.4-0.6,0.6-0.9c0.2-0.2,0.4-0.5,0.6-0.8c0,0,0.1-0.1,0.1-0.1
		c-1.2-1.7-1.7-3.7-1.5-5.8c0.4-4.4,3.9-6.6,5.1-7.5l0.1-0.1c2.3-1.5,2.9-3.3,2.9-8.2c-3.2-1.6-4.7-4.6-5.3-5.8c0,0,0,0,0,0
		c-0.5-0.5-0.9-1.1-1.2-1.7c-2.1-0.7-3.7-2.1-4.7-4c-1.3-2.6-1.2-5.4,0.4-8.4c-1.7-1.6-3-3.7-3.6-6.1c-0.9-3.6-0.2-7.3,2-10.3
		c0.6-0.8,0.8-1.1-0.3-3.4c-0.8-1.8-2.4-6.3-0.4-11c1-2.3,2.8-4.2,5.1-5.4c0.9-6.6,4-11.9,6.7-16.7c1.7-2.9,3.2-5.6,4.1-8.2
		c0-0.1-0.1-0.9-0.2-1.4c-0.5-3.9,0.4-7.5,2.6-10.1c1.6-1.8,3.6-3,6-3.5c-0.1-0.2-0.2-0.4-0.2-0.6c-1.4-3.6,0.2-6.6,1-8.1
		c0.1-0.2,0.3-0.5,0.4-0.8c1.6-3.3,1.4-7.6-0.4-13.2c-0.3-0.8-0.6-1.4-0.9-2.2c-0.4-0.8-0.9-1.8-1.3-3.1c-1.1-0.5-1.9-1.2-2.5-1.8
		c-0.4-0.4-0.7-0.8-1.1-1.3c-3.4-0.7-5.9-2.6-7.4-3.9c-0.4-0.3-1-0.8-1.3-1c-4.2-0.9-7.2-4.5-7.5-8.9c-0.2-2.4-2.5-8.4-3.8-11.5
		c-0.4-0.9-0.7-1.7-1-2.5c0-0.1-0.2-0.4-0.4-0.7c-0.6-1.1-1.6-2.8-2.1-5c-1.1-0.7-2-1.6-2.7-2.7c-2.5-3.8-1.3-7.8-0.6-9.9
		c-0.3,0-0.7,0.1-1,0.1c-0.8,0-1.6-0.1-2.3-0.4c-1.7-0.5-3.1-1.6-4-3.1c-0.1,0-0.2,0-0.3,0.1c-1.3,0.3-2.9,0.6-4.7,0.6
		c-1.3,0-2.6-0.2-3.7-0.5c-0.1,0-0.2,0-0.3,0c-1.7-0.2-5.6-0.6-8.1-4.1c-0.9-1.3-2.3-4-1.4-7.8c0.6-2.6,2-4.7,3.9-6.3
		c-1.2-0.8-2.3-2-3-3.4c-1.6-3-1.4-6.7,0.4-9.6c0.1-0.2,0.2-0.5,0.3-0.8c0.8-2.2,2.8-8,9.8-8.9c0.5-0.1,1-0.1,1.5-0.1
		c0.3,0,0.8,0,1.4,0.1c-1.7-2-2.8-4.7-3-7.6c-0.4-4.6,1-9.3,3.9-12.6c-1.1-2.4-1-5,0.2-7.2c0.8-1.5,1.3-3.6,1.9-5.9
		c1.1-4.7,2.6-11.1,8.3-15.7c0-0.3,0-0.6,0-0.9c0-2.3,1.1-4.5,2.9-5.9c0.2-0.2,0.8-1.2,1.1-1.9c0.9-1.6,2-3.7,4-5.6
		c0.7-1.4,1.6-4.7,1.7-6.3c-3.3-10.1,0.1-20,9.1-26.1c0.8-0.5,1.6-1.2,2.6-1.9c3.1-2.3,6.5-5,10.6-5.5c1.3-0.2,2.8-0.6,4.4-1.1
		c2.8-0.8,6-1.7,9.6-1.7c2,0,3.9,0.3,5.8,0.8c4.2-8.1,11.3-13.9,21.1-17.2c3-1,6-1.6,8.9-2.3c3.6-0.8,7.1-1.5,9.6-2.8
		c7.2-3.9,14.3-4,20.6-4.1c2.7-0.1,5.2-0.1,7.5-0.4c0.1-0.1,0.3-0.2,0.5-0.3c1.4-0.9,4-2.7,7.8-2.7c0.3,0,0.6,0,0.8,0
		c0.7,0,1.3,0.1,2.1,0.1c1.8,0,3.8-0.1,5.8-0.3c2.2-0.1,4.5-0.3,6.8-0.3c2.4,0,4.6,0.2,6.7,0.5c0.6,0.1,1.3,0.2,1.8,0.2
		c0.2,0,0.3,0,0.3,0c1.5-0.7,3.2-1.1,4.8-1.1c3.4,0,5.9,1.4,7.5,2.4c0.3,0.2,0.7,0.4,0.9,0.5c3.1,1.3,6.7,1.9,10.5,2.6
		c3.6,0.6,7.4,1.3,11.2,2.6c6,0.8,7.4,5.6,7.7,7c0.4,1.8,1,7.8-6.2,10.9c-5.3,2.3-10.7,2.6-15.3,2.9c-1.5,0.1-2.9,0.2-4.2,0.3
		c-0.3,0-0.5,0-0.8,0c-0.2,0-0.5,0-0.7,0l-2-0.2c-2.7-0.3-5-2-6.1-4.3c-1.3,0.1-2.6,0.3-4,0.5c-3,0.4-6.1,0.8-9.5,0.8
		c-2.8,0-5.4-0.3-7.9-0.9c-0.1,0-0.2,0-0.3,0c-0.1,0-0.3,0.1-0.6,0.6c-3.1,5.7-12.7,8.1-17.1,8.1c-1.6,0-3.1-0.3-4.4-0.8
		c-2.6,4.2-7.4,6.9-13.8,7.5c-1.4,0.1-2.7,0.2-4.1,0.2c-3.4,0-6.8-0.4-10.3-1.4l-0.9,1.2c-3.4,4.3-6.6,8.3-9.1,12.7
		c-4.8,8.5-11.3,17.5-23.4,20.1c-2.2,0.5-4.3,0.5-6,0.5c-1.8,0-2.9,0-3.7,0.4c-2,0.9-3.3,1.8-4,2.9c-1,1.6-2,3.2-2.9,4.7
		c-2.5,3.9-4.9,7.6-5.8,11.7c-1.4,6,0.5,12.6,4.5,16c0.6,0.4,3.1,1.3,6.2,1.3c0.8,0,1.5-0.1,1.9-0.1c3.5-5.6,8.1-8.8,12.5-11.2
		c-2-4.7,0.6-7.8,1.5-8.8c0.5-0.5,0.6-1.1,0.4-4.5c-0.1-2-0.3-4.3,0.1-6.8c0.7-4.8,4.3-6.7,5.5-7.4l0.2-0.1c1.4-0.8,2.8-1.2,4-1.4
		c1.1-3.1,4-5.3,7.4-5.3c1.9,0,3.3,0.6,4.2,1.1c0.4,0.1,0.8,0.1,1.3,0.2c2.8,0.3,10.4,1.1,12.9,8.6c1.5-1.2,3.3-1.8,5.3-1.8
		c0.6,0,1.2,0.1,1.8,0.2c3.5,0.7,9.3,3.3,8.4,13.5c0,0.4-0.1,0.9-0.1,1.1c0,1.2,0.8,2.8,1.8,4.7c0.8,1.6,1.8,3.4,2.5,5.5
		c0.2,0.5,0.3,1.1,0.5,1.7c0.1,0.4,0.2,0.8,0.4,1.2c2,0.3,7.6,1.8,7.3,10c0,0.1,0,0.2,0,0.4c3.4,4.8,5.1,9.6,5,14.4
		c3.3,1.6,6,4.8,7.2,8.5c1,3.3,0.5,6.6-1.2,9.3c0,0,0.1,0.1,0.1,0.1c0.3,0.4,0.5,0.7,0.7,1c1.6,2.3,4.1,4.2,6.7,5.2
		c5.5,1.9,8,6.1,9.6,8.9c0.4,0.8,1.1,1.9,1.4,2.1c2.3,1.8,3.4,4.8,3,7.8c-0.3,1.7-1,3.3-2.1,4.5c0.1,0.4,0.2,0.7,0.3,1.2
		c0.6,2.5,1.1,5.3,0.9,8.5c-0.2,2.4,0.2,2.6,1.4,3.3c6.6,3.5,8,8.8,7.1,13.4c0.7,0.8,1.6,1.8,2.2,3c0.3,0.5,1,1.3,1.7,2.1
		c2.2,2.4,5.6,6.3,5.6,12.5c0.1,0.1,0.2,0.1,0.3,0.1l0.2,0c9,1.8,13.7,6.8,13.7,14.7c0,1.5,1,3.8,2,6c0.3,0.7,0.6,1.4,0.9,2.2
		c6.8,2.4,14.7,6.7,17.3,18.4c0.6,2.8,0.9,5.4,1.2,7.9l0.2,1.5c0.1,0.5,1.1,1.7,2,2.7c0.4,0.5,0.8,0.9,1.3,1.5
		c3.4,2.1,4.2,5.4,3.9,8c-0.1,0.9,0.1,1.4,2.8,4.2c1,1,2.1,2.2,3.1,3.5c1.8,2.3,3.5,6.3,1.7,12.1c-0.4,1.3-0.5,2.9-0.4,5.1l0,0.6
		c0.2,3.1,0.6,7.3-1.7,11.4c0.1,0.1,0.1,0.2,0.2,0.3c1,1.4,2.3,3.4,2.8,6c0.4,1.7,0.5,3.3,0.6,4.5c0,0.6,0.1,1.2,0.2,1.7
		c0.4,3.3,0.1,6.3-0.2,9.1c-0.4,3.7-0.6,5.5,0.3,6.4c3.8,4,6.2,8.6,8.4,12.7c0.8,1.5,1.6,3,2.4,4.3c2.1,3.6,6.1,10.2,6.1,18.2
		c0,1.6,0.1,3.2,0.3,4.9c0.3,4.6,0.7,9.8-0.8,15.1c-2.6,9.7-9.6,17.1-19.7,20.8c-0.2,3.3-0.7,11.7-10.5,14.2
		c-0.7,0.4-2.1,2.4-2.9,3.6c-0.4,0.6-0.9,1.2-1.3,1.8c-2.6,3.5-4,7.2-4.5,11.9c-0.1,0.7-0.2,1.5-0.3,2.3c2.3,0.1,4.4,1.1,6.1,2.9
		c0.1,0.1,0.5,0.5,0.9,0.7c1.5,1.2,4,3.2,5.5,6.9c2.5,6,1.6,11.4,0.9,15.7c-0.1,0.7-0.2,1.3-0.3,2c3.9,1.7,6.9,5.6,6.8,11.9
		c0,0.8-0.1,1.5-0.2,2.2c1.1,0.6,2,1.4,2.7,2.4c0.9,1.3,1.3,2.8,1.3,4.3c0.1,0.1,0.1,0.1,0.2,0.2c1.6,1.8,4.5,5,4.3,10.1
		c0.1,0.3,0.3,0.9,0.5,1.4c0.8,2.3,2.1,5.7,1.1,10.1c-1.7,7.9-3.9,16.2-10.8,23.6c-3.7,4-7.8,7.1-11.7,10.1
		c-2.3,1.8-4.5,3.4-6.5,5.2c-4.5,3.9-10.4,5.1-12.1,5.4c-0.4,0.1-1.6,0.8-2.3,1.3c-2.3,1.4-5.4,3.4-9.7,3.4c-3.4,2.2-7,2.8-9.9,3.3
		c-1.9,0.3-3.7,0.6-4.5,1.3c-1.2,1-3.2,2.2-6.2,2.2c-1.3,0-2.4-0.2-3.4-0.4c-0.5-0.1-1.2-0.2-1.5-0.2c-2.5,0.5-5.1,1-7.7,1.6
		c-5.5,1.3-11.2,2.6-17.4,2.8c-2.1,0.1-4.2,0.1-6.3,0.2c-3.9,0.1-7.5,0.1-11.1,0.6c-2.2,0.3-4.5,0.4-7.4,0.4c-1.5,0-3.1,0-4.6-0.1
		c-1.4,0-2.8-0.1-4.3-0.1c-3.1,0-5.4,0.2-7.5,0.6C228.7,615.3,227.7,615.4,226.7,615.4z"/>
	<path d="M300.4,35.9c2,0,3.7,1.5,5.5,2.3c7.3,3.1,15.4,2.9,22.8,5.5c0.9,0.3,2-0.1,2.3,1.3c0.3,1.5-0.7,2-1.8,2.5
		c-5.6,2.4-11.5,2-17.4,2.6c-0.7-0.1-1.3-0.1-2-0.2c-0.5-3.6-3.5-4.4-6-4.4c-0.3,0-0.7,0-1,0c-4.5,0.4-8.9,1.3-13.4,1.3
		c-2,0-4.1-0.2-6.2-0.7c-0.7-0.2-1.4-0.2-2.1-0.2c-2.8,0-5.5,1.4-7.1,4.5c-1.1,2.1-7,4.2-10.5,4.2c-1,0-1.8-0.2-2.2-0.5
		c-1.1-0.9-1-3-2.9-3c-0.3,0-0.6,0-0.9,0.1c-2.1,0.5-3.5,0.6-3.8,3.4c-0.6,4.5-4.6,6.4-9.1,6.8c-1.1,0.1-2.2,0.2-3.3,0.2
		c-3.4,0-6.5-0.5-9.8-1.5c-0.4-0.1-0.8-0.2-1.2-0.2c-1.7,0-3.4,1-4.6,2.4c-4,5-8.1,9.9-11.3,15.6c-4.2,7.4-9.2,14.4-18.4,16.4
		c-3.6,0.8-7.3-0.3-11.1,1.3c-3.3,1.4-5.9,3.4-7.5,6.1c-3.5,6-7.9,11.4-9.6,18.5c-1.9,8.3,0.4,17.9,7,23.4c2.3,1.9,6.9,3,11.1,3
		c3.5,0,6.7-0.8,7.7-2.6c2.9-5.4,7.3-8.2,12.5-10.7c2.1-1.1,4.1-4.1,1.8-7.3c-0.4-0.5-0.9-1.5-0.8-1.6c4.6-4.6,1.9-10.4,2.6-15.5
		c0.2-1.2,1-1.5,1.9-2c2.7-1.5,7.3-0.2,7.5-5.4c0-0.3,0.1-0.4,0.3-0.4c0.5,0,1.5,0.7,2.1,0.8c3.9,0.9,9.4-0.3,9.7,6.4
		c0,0.5,0.8,1,1.3,1.4c2.3,2.2,3.1,4.6,1.7,7.6c-2.2,4.7,0.3,8.5,5.2,8.5c0.2,0,0.3,0,0.5,0c1.2-0.1,2.5-1.1,2-1.5
		c-2.7-2,3-6.5-2.4-7.6c-1-0.2-0.6-1.5,0.1-2c1.8-1.5,1.6-5.6,3.8-5.6c0.1,0,0.2,0,0.4,0c3.5,0.7,2.2,4.5,2.3,7.2
		c0,4.7,3.3,8.3,4.7,12.5c1.1,3.1,1.5,7.6,7.1,7.9c1.7,0.1-0.2,4.1,1.6,6.6c2.7,3.5,4.9,7.9,3.9,12.8c-0.7,3.3,1.5,3.9,3.8,4.5
		c3,0.8,5.4,5.3,3.4,7.6c-3.4,3.8-0.2,7,1.2,9.1c2.4,3.6,6.2,6.5,10.5,8c4.9,1.7,5.3,7.1,8.7,9.8c0.5,0.4,0.3,1.4-0.4,1.7
		c-4.6,1.9-1.5,5.4-1,7.6c0.5,2.1,0.9,4.1,0.7,6.2c-0.4,4.6,0.8,8.1,5.3,10.5c1.9,1,4.7,2.9,2.7,6.8c-1.4,2.7,2.3,4.3,3.5,6.6
		c2.2,4,7.1,6.3,6.3,12.4c-0.2,1.2,2.2,5.3,6.4,6.1c3.1,0.6,7.9,1.4,7.9,7.4c0,4.1,2.5,8.2,3.9,12.3c0.5,1.5,2.1,2.3,3.4,2.7
		c6.5,2.2,11.2,5.3,12.9,13.1c0.6,2.9,0.9,5.8,1.2,8.7c0.5,4,3.7,6.3,5.8,9.2c0.3,0.4,1.5,0.4,1.4,1.1c-0.9,6.3,4.3,9.3,7.4,13.3
		c1.3,1.6,1,3.6,0.5,5.3c-0.8,2.6-0.9,5.3-0.7,7.9c0.2,2.9,0.6,5.9-1.1,8.4c-3.2,4.7,1.8,7.3,2.6,11c0.4,1.9,0.4,3.8,0.6,5.7
		c0.9,6.6-3.1,14.1,2,19.5c4.4,4.7,6.7,10.5,9.7,15.7c2.3,3.9,5,8.9,5.1,14.5c0.1,6,1.3,12.1-0.3,18c-2.2,8.2-8.1,13.4-15.9,16.1
		c-3.3,1.1-3.9,2.7-4,5.7c-0.2,3.3-0.1,6.8-5,8c-3.8,0.9-6,5-8.3,8.2c-3.4,4.6-5.2,9.6-5.9,15.5c-0.4,3.3-1,7.7-4.6,10.3
		c-1.8,1.3-1.1,3.3,0,4.9c0.8,1.1,1.8,1.6,2.9,1.6c0.6,0,1.3-0.2,1.9-0.5c1.5-0.7,2.8-1.7,4.2-2.7c1-0.7,1.5-3,2.5-3
		c0.2,0,0.5,0.1,0.7,0.4c1.6,1.7,3.8,2.6,5,5.4c2.5,6,0,11.3-0.2,16.9c-0.1,2.1-0.3,4.2,3.1,4.4c2.6,0.1,4,2,3.9,5.3
		c-0.1,3.3-2.3,8.1,3.8,9c-1,4.4,4.7,5.7,4.5,10.2c-0.2,3.2,2.6,6.1,1.8,10c-1.6,7.4-3.5,14.1-9,20c-5.3,5.7-11.9,9.7-17.6,14.7
		c-2.3,2-5.8,3.2-8.4,3.6c-4.1,0.6-6.9,4.6-11,4.6c-0.7,0-1.4-0.1-2.2-0.4c-4.4,5.1-11.9,2.5-16.9,6.8c-0.3,0.3-0.8,0.4-1.3,0.4
		c-1.3,0-3.2-0.6-5-0.6c-0.4,0-0.8,0-1.1,0.1c-8.1,1.4-16,4-24.3,4.4c-6,0.3-12,0.1-18,0.8c-2.1,0.3-4.3,0.3-6.4,0.3
		c-2.9,0-5.9-0.1-8.9-0.1c-3,0-5.9,0.1-8.9,0.7c-0.5,0.1-1,0.1-1.6,0.1c-3.4,0-6.7-1.9-10.3-1.9c-0.3,0-0.7,0-1,0.1
		c-0.5,0-1,0.1-1.4,0.1c-4.3,0-8.5-1.8-12.8-1.8c-1.3,0-2.6,0.2-3.9,0.6c-1.5-1.8-3.3-2.2-5.4-2.2c-1.6,0-3.3,0.3-4.9,0.3
		c-2.2,0-4.3-0.5-5.8-2.8c-0.1-0.2-0.4-0.2-0.7-0.2c-0.6,0-1.5,0.2-2.3,0.2c-0.1,0-0.3,0-0.4,0c-0.3,0-0.6,0-0.9,0
		c-0.4,0-0.8,0-1.2,0c-1.5,0-2.9-0.2-3.4-2.5c-0.1-0.4-1-0.9-1.5-0.9c-0.1,0-0.1,0-0.2,0c-1.2,0.6-2.3,0.8-3.4,0.8
		c-4.1,0-7.6-3.3-11.3-4.2c-5.3-1.2-10.6-5.6-15.3-9.5c-1-0.9-1.9-1.3-2.7-1.3c-0.9,0-1.9,0.6-3,1.9c0.3-5-2.8-7.6-5.3-10.1
		c-2.6-2.6-4.6-5.7-7.2-8.3c-0.2-0.2-0.6-0.6-0.6-0.7c2.5-5.1-4.7-8-2.7-13.2c1.7-4.7,1.5-10.2,3.9-14.4c1.6-2.8,2.3-5,2.3-8
		c0-2.2,1.5-3.6,4-3.6c0.1,0,0.3,0,0.4,0c0.3,0,0.7,0,1,0c3.2,0,6.2-0.9,9.1-2.2c2.2-1,2.6-1.8,0.6-4.3c-1.6-2.1-3.8-3.6-5.5-5.6
		c-1.4-1.7-4.5-1.8-5.5-5.2c-0.1-0.5-0.4-0.7-0.7-0.7c-0.8,0-1.9,1-3.1,1c-0.4,0-0.8-0.1-1.3-0.5c3.6-4.1,7.2-8.1,8.1-13.8
		c0.1-0.6,1.1-1.6,1.6-1.6c0,0,0,0,0.1,0c0.3,0.1,0.6,0.1,0.9,0.1c3.6,0,4.5-4.5,7.9-5.1c1.5-0.3,2.6-3.3,0.9-5
		c-2.2-2.3-0.7-3.8,0.7-5c1-0.8,2-2,3.3-2c0.6,0,1.3,0.3,2.2,0.9c0.9,0.7,1.8,1,2.7,1c1.6,0,3-1.1,3.9-2.8c1.4-2.8,1.4-6.4-2.2-7.3
		c-3.9-1-2-3.1-1.5-4.6c0.5-1.5,1.8-2.4,3.1-2.4c0.6,0,1.2,0.2,1.7,0.6c2.1,1.6,5.2,2,5.6,6c0.3,2.8,3.6,4.4,6.8,4.4
		c1.9,0,3.9-0.6,5.1-1.9c2.3-2.5-1.7-2.8-1.7-4.8c0-2.4-5.6-6.2-8.2-6.2c1.5-4.4,2.1-8.7-0.4-13.1c-1.8-3.3,1.4-6.2,2.4-9.1
		c2.1-6,1.4-10.4-2.9-15c-1.8-1.9-1-4.9-3.1-7.1c-2.2-2.3,0.2-4.3,1.8-6.7c1.6-2.3,4.7-5.6,1-9.2c-1.4-1.3,0.3-2.4,1.4-3.1
		c6.6-4.3,6.4-11,6.3-17.7c0-1.6-0.5-3.2-2.2-3.2c0,0-0.1,0-0.1,0c-0.1,0-0.2,0-0.2,0c-2.9,0-3.1-2.5-4.3-4.1
		c-1.4-0.9-0.1-3.2-2.1-3.8c-1.6-0.4-4.7,0.7-2.1-3.1c1.5-2.2,3-5.2-1.4-7.5c-2-1-3.3-4.4-1.4-7.1c2.6-3.7,2.3-6.9,0.4-10.9
		c-0.7-1.4-1.9-5.6,2.2-6.9c1.5-0.5,2.9-1.8,3-3.2c0.3-9.9,7.7-16.9,10.7-25.7c0.6-1.7,0.4-3.2,0.2-4.8c-0.5-3.4,1.1-5.3,3.8-5.3
		c0.7,0,1.6,0.1,2.5,0.4c1.5,0.5,3.1,1.6,4.7,1.6c0.7,0,1.4-0.2,2.1-0.8c1.7-1.5-0.2-9.1-2.9-10.2c-3.3-1.3-2.3-1.9-1.1-4.5
		c2.9-6,2-12.7,0-18.8c-1.2-3.5-2.5-4.3-2.7-7.7c-0.1-1.2-0.6-1.8-1.6-1.8c-0.1,0-0.2,0-0.2,0c-0.2,0-0.4,0-0.5,0
		c-1.3,0-2-0.5-1.9-2.1c0-0.9-0.7-2-1.5-2c-0.1,0-0.2,0-0.3,0c-0.6,0.2-1.1,0.2-1.6,0.2c-3.9,0-5.9-4.2-9.5-4.9
		c-1-0.2-1.7-1-1.8-2.2c-0.3-4.3-3.7-12.1-5.2-16.1c-0.8-2-2.9-4.1-1.9-6.8c0.2-0.6,0.4-1.7-0.4-1.7c-7-0.5-2.4-4.9-2.7-7.7
		c-0.2-1.9,0.6-3.5-2.4-4.9c-1.7-0.8-2.7-2.6-4.5-2.6c-0.6,0-1.2,0.2-1.9,0.6c-1.2-2.9-3-3.7-4.9-3.7c-2.1,0-4.3,0.9-6.4,0.9
		c-0.6,0-1.1-0.1-1.7-0.3c-1.6-0.6-5.2,0.1-4.5-3.2c0.4-1.8,1.9-2.9,3.7-2.9c0.6,0,1.3,0.1,1.9,0.4c0.8,0.3,1.5,0.5,2.2,0.5
		c2.6,0,3.8-2.3,4.5-4.4c1-3.2-2.3-4.8-4.6-5c-2.5-0.2-3.9-2.4-6.4-2.5c-1,0-1.9-1.7-1.1-3c1.5-2.2,1.2-5.8,4.8-6.3
		c0.2,0,0.4,0,0.5,0c2,0,2,1.8,2,3.4c0.1,2.4,1.4,2.9,2.8,2.9c0.8,0,1.7-0.2,2.5-0.2c2.9-0.1,1.2-1.8,0.8-3.3
		c-0.6-2.3,1.5-4.1,2-6.4c0.8-3.4,0.5-5.7-2.3-7.9c-2.7-2.1-2.7-7.9,0.2-11.2c2.1-2.4,4.1-4.4,1.4-7.5c-0.2-0.2-0.5-0.7-0.4-0.9
		c3.7-6.5,2.1-15.6,9.7-20.4c1.6-1,5.1-2.8,1.4-5.7c2.8-2.2,3.3-6,6-8.2c2-1.7,4.5-10.8,3.6-13.2c-2.6-7.2-0.4-13.8,6-18.1
		c3.3-2.2,7-5.8,9.9-6.2c4.4-0.5,8.6-2.7,13.1-2.7c1.2,0,2.4,0.2,3.7,0.6c1.1,0.3,2.2,0.6,3.2,0.6c2,0,3.8-0.9,5.1-3.5
		c3.6-7.4,9.7-11.9,17.3-14.4c6.5-2.2,13.9-2.5,19.6-5.6c8.6-4.6,17.5-2.5,26.1-3.8c2.7-0.4,3.9-2.8,6.7-2.8c0.1,0,0.2,0,0.3,0
		c0.9,0.1,1.7,0.1,2.6,0.1c4.2,0,8.4-0.6,12.6-0.6c1.8,0,3.6,0.1,5.5,0.4c1,0.2,2,0.3,3,0.3c1.1,0,2.3-0.2,3.4-0.7
		C299.3,36.1,299.9,35.9,300.4,35.9 M225.6,143c0.3,0,0.6-0.1,0.7-0.4c0.4-2.3,2.9-3,2.9-5.9c0-5.4,0.4-11,2.5-16.6
		c-0.3-0.3-0.8-0.4-1.3-0.4c-0.7,0-1.3,0.2-1.8,0.2c-0.3,0-0.4-0.1-0.3-0.4c0.8-2.2-0.8-5.1,1.1-6.5c3.6-2.6-1-4.5-0.1-6.7
		c-0.1,0-0.2,0-0.3,0c-1.3,0-3.1-1.3-4.1-1.3c-0.4,0-0.6,0.2-0.7,0.7c-0.6,5.5-5.5,9.6-4.3,15.4c1.1,5-0.6,9.4-2.3,14.1
		c-1.6,4.6,4.7,3.8,6.2,6.7C224.2,142.7,225,143,225.6,143 M300.4,20.9c-2,0-4,0.3-5.9,0.9c-2.4-0.4-4.9-0.6-7.7-0.6
		c-2.6,0-5.1,0.2-7.3,0.3c-1.9,0.1-3.7,0.2-5.3,0.2c-0.6,0-1.1,0-1.6,0c-0.4,0-0.9,0-1.4,0c-5,0-8.7,1.9-10.9,3.2
		c-1.5,0.1-3.3,0.2-5.1,0.2c-6.7,0.1-15.1,0.3-23.9,5c-1.6,0.8-4.6,1.5-7.6,2.1c-3,0.6-6.3,1.3-9.7,2.5c-9.7,3.3-17.2,8.7-22.5,16
		c-0.7-0.1-1.4-0.1-2.1-0.1c-4.7,0-8.5,1.1-11.7,2c-1.3,0.4-2.6,0.7-3.3,0.8c-6.1,0.7-10.6,4.2-14.3,7c-0.8,0.6-1.6,1.2-2.2,1.6
		C147,69.7,142.2,82.3,145.6,95c-0.1,0.6-0.3,1.2-0.5,1.7c-2.1,2.3-3.3,4.6-4.1,6.2c-0.1,0.2-0.2,0.3-0.3,0.5
		c-2.3,2.2-3.9,5.1-4.4,8.3c-5.6,5.9-7.2,12.8-8.3,17.4c-0.3,1.3-0.8,3.3-1.1,3.9c-1.7,3-2.3,6.3-1.8,9.5c-2.5,4.4-3.7,9.7-3.2,14.8
		c0,0.5,0.1,1,0.2,1.5c-2.4,1.3-4.4,3-6.1,5.2c-2,2.6-2.8,5.1-3.4,6.6c0,0,0,0,0,0.1c-2.8,5-3,11.2-0.2,16.3c0,0,0,0,0,0.1
		c-0.7,1.4-1.3,2.9-1.6,4.5c-1.1,5-0.2,9.9,2.6,13.8c4.2,6,10.6,6.9,13.1,7.2c1.7,0.4,3.4,0.6,5.2,0.6c0.8,0,1.6,0,2.4-0.1
		c0.5,0.4,1,0.7,1.5,1c0.1,2.6,0.8,5.4,2.7,8.3c0.6,1,1.4,2,2.5,3c0.7,2,1.6,3.5,2.1,4.4c0,0.1,0.1,0.1,0.1,0.2
		c0.2,0.6,0.5,1.3,0.8,2c0.9,2.3,3,7.5,3.3,9.5c0.6,7.1,5.2,12.9,11.6,15c1.5,1.2,4.1,3.3,7.8,4.6c0,0,0,0,0,0
		c0.5,0.6,1.1,1.1,1.7,1.5c0.2,0.5,0.5,1,0.7,1.4c0.3,0.6,0.4,0.9,0.5,1.2c1.2,3.5,1.4,6.2,0.7,7.7c-0.1,0.2-0.2,0.4-0.3,0.5
		c-0.6,1.2-2.1,4-2.3,7.6c-1.2,0.9-2.4,1.9-3.4,3c-3.6,4.1-5.1,9.5-4.5,15.4c-0.7,1.7-1.8,3.5-2.9,5.5c-2.5,4.4-5.5,9.5-7,16
		c-2.2,1.8-4,4.1-5.2,6.8c-2.8,6.3-1.4,12.4-0.1,15.7c-2.1,4.2-2.7,9.1-1.6,13.8c0.5,2.1,1.3,4,2.4,5.8c-0.9,4.5,0.3,8.2,1.4,10.3
		c1,1.9,2.9,4.7,6.3,6.6c1,1.8,2.1,3.3,3.2,4.5c-4.3,3.2-6.8,7.3-7.2,12.2c-0.2,1.9,0,3.7,0.4,5.5c-1,1.4-2.1,3.3-2.8,5.6
		c-1.7,5.3-0.8,10.9,2.4,15.4c0.5,2.2,1.6,5.7,4.5,8.9c-0.1,0.1-0.1,0.2-0.2,0.3c-1.3,2.2-4.6,8.1-3.3,15.2
		c-4.8,1.8-8.8,5.7-10.7,10.8c-1.1,2.3-1.7,4.6-1.9,6.8c-0.7,0.5-1.3,1-1.7,1.4l-0.1,0.1c-5.6,4.4-7.1,9.5-7.4,13.1
		c-5.2,2.3-9.4,7.4-10.2,13.2c-0.2,1.1-2.5,3.7-4.3,5.8l-0.1,0.2c-2.7,3.1-4,7.1-3.7,11.2c0.3,3.4,1.7,6.7,4.1,9.1
		c-2,2.9-3.2,6.5-3.2,10.5c0,0,0,0,0,0.1c-0.1,0.1-0.2,0.3-0.3,0.7c-2.6,4.6-3.4,9.2-4.1,12.8c-0.3,1.4-0.5,3-0.8,3.7
		c-3,8-0.2,14.6,1.8,18.1c-0.1,3.8,1.2,8.1,5,11.8c0.7,0.7,1.5,1.7,2.4,2.8c1.3,1.7,2.8,3.5,4.8,5.5c0.2,0.2,0.4,0.4,0.6,0.6
		c0.1,0.1,0.2,0.2,0.3,0.3c0.5,5.4,4,10.1,9.1,12.3c1.9,0.8,3.9,1.2,5.8,1.2c0.3,0,0.7,0,1,0c4.7,3.6,10.1,7,16.2,8.5
		c0.3,0.2,1,0.5,1.5,0.7c2.8,1.4,6.8,3.5,12.1,3.9c2.8,1.7,6.2,2.7,9.9,2.7c2.9,1.6,6.6,2.9,11.3,2.9c1,0,1.8,0,2.6-0.1
		c2.3,1.4,4.9,2.1,7.6,2.1c1.4,0,2.7-0.2,4.1-0.6c0.7,0.1,2,0.3,3.1,0.6c2.6,0.5,5.8,1.2,9.5,1.2c0.8,0,1.5,0,2.3-0.1
		c0.4,0.1,1,0.3,1.5,0.4c2.2,0.6,5.3,1.5,9,1.5c1.5,0,3-0.1,4.4-0.4c1.6-0.3,3.4-0.4,6-0.4c1.3,0,2.6,0,4.1,0.1
		c1.5,0,3.1,0.1,4.8,0.1c3.1,0,5.8-0.1,8.3-0.5c3.2-0.4,6.6-0.5,10.3-0.5c2.1,0,4.3-0.1,6.5-0.2c6.8-0.3,13.1-1.7,18.7-3
		c2.2-0.5,4.3-1,6.3-1.4c0,0,0,0,0.1,0c1.2,0.2,2.8,0.5,4.7,0.5c4.6,0,7.9-1.6,10.1-3.2c0.5-0.1,1.2-0.2,1.8-0.3
		c2.8-0.5,6.9-1.1,11-3.3c5.2-0.6,9-2.9,11.3-4.4c0.2-0.1,0.5-0.3,0.7-0.4c3.1-0.6,9.5-2.4,14.7-6.9c1.8-1.6,3.9-3.2,6.1-4.9
		c4-3,8.5-6.5,12.6-10.9c8.2-8.8,10.8-18.6,12.7-27.1c1.4-6.4-0.4-11.5-1.4-14.2c0,0,0,0,0-0.1c-0.2-5.7-2.8-9.8-4.8-12.3
		c-0.4-1.9-1.2-3.7-2.3-5.3c-0.4-0.5-0.8-1.1-1.2-1.5c-0.2-5.8-2.5-10.8-6.2-14.3c0.6-4.5,0.9-10.4-1.8-17c-2.2-5.5-6-8.4-7.7-9.9
		c-0.1-0.1-0.2-0.2-0.3-0.3c-0.9-0.9-1.9-1.7-2.9-2.4c0.5-1.8,1.3-3.3,2.4-4.9c0.5-0.6,0.9-1.3,1.4-2c0.3-0.4,0.6-0.9,0.9-1.3
		c5.2-1.9,9.3-5.5,11.6-10.2c0.9-1.9,1.5-3.7,1.8-5.4c10.1-5,17.1-13.4,20-24c1.8-6.6,1.4-12.7,1-17.6c-0.1-1.6-0.2-3.1-0.2-4.5
		c-0.1-10-4.7-17.8-7.2-22c-0.7-1.2-1.4-2.6-2.2-4c-2-3.8-4.4-8.3-8-12.6c0.1-0.6,0.2-1.4,0.2-2c0.4-3,0.8-6.8,0.2-11
		c0-0.2-0.1-0.8-0.1-1.2c-0.1-1.4-0.2-3.4-0.7-5.6c-0.5-2.1-1.2-3.9-2-5.4c1.4-4.5,1-8.7,0.8-11.3l0-0.5c-0.1-1.8,0-2.3,0-2.3
		c3-9.4-0.6-16-3-19c-1.3-1.6-2.6-3-3.6-4.1c-0.2-0.2-0.4-0.4-0.6-0.6c-0.2-4.3-2.2-8.9-6.5-12c-0.2-0.3-0.5-0.5-0.7-0.8
		c-0.1-0.1-0.2-0.2-0.3-0.4c-0.3-2.5-0.6-5.3-1.3-8.4c-3.1-14.1-12.8-20-19-22.7c-0.4-1-0.9-2.1-1-2.7c-0.2-7.4-3.5-13.7-9.3-17.6
		c-1.9-1.3-3.8-2.2-5.6-2.8c-1.5-5.6-4.8-9.4-6.7-11.5c-0.3-0.3-0.7-0.8-0.9-1c-0.3-0.5-0.6-1-0.9-1.5c0.1-5.7-2.4-11.7-8.7-16
		c0-2.4-0.3-4.5-0.7-6.6c0.7-1.5,1.2-3.1,1.5-4.8c0.8-5.2-1.1-10.5-4.9-14c-0.1-0.2-0.3-0.5-0.5-0.8c-1.8-3.1-5.4-9.4-13.6-12.3
		c-0.5-0.2-0.9-0.4-1.4-0.7c0.8-3.2,0.7-6.6-0.3-9.9c-1.2-4.2-3.8-7.9-7.1-10.6c-0.5-3.8-1.9-8-4.7-12.5c0-1-0.1-2.1-0.4-3.3
		c-1.1-4.9-4.2-8.8-8.5-10.8c-0.8-2.3-1.8-4.2-2.7-5.8c-0.3-0.6-0.7-1.3-0.9-1.8c0.2-1.9,0.4-5-0.5-8.5c-1.8-6.7-7-11.5-14-12.9
		c-1.1-0.2-2.1-0.3-3.2-0.3c-0.7,0-1.5,0-2.2,0.1c-1.5-1.7-3.2-2.9-4.4-3.7c-3.8-2.3-7.7-2.9-10.3-3.2c0.5-0.8,0.9-1.5,1.2-2.1
		c1.8-3.1,4-6.2,6.5-9.3c2.4,0.4,4.9,0.6,7.3,0.6c1.6,0,3.2-0.1,4.8-0.2c7.1-0.7,12.3-3.3,15.9-6.8c0.5,0,1,0.1,1.5,0.1
		c3.8,0,14.4-1.6,20.8-8.1c1.7,0.2,3.4,0.3,5.2,0.3c3.7,0,7.2-0.4,10.2-0.8c2.3,2.1,5.3,3.5,8.6,3.9l1,0.1l1,0.1
		c0.5,0,1,0.1,1.5,0.1c0.5,0,1,0,1.5-0.1c1.2-0.1,2.5-0.2,3.9-0.3c5-0.3,11.3-0.7,17.8-3.5c9.9-4.2,11.9-13,10.6-19.3
		c-1.1-5.4-5.2-11.5-13.3-12.9c-4.2-1.3-8.2-2-11.7-2.6c-3.4-0.6-6.3-1.1-8.6-2c-0.1-0.1-0.2-0.1-0.3-0.2
		C309.8,23.3,305.8,20.9,300.4,20.9L300.4,20.9z M190.3,109.7c0.4,0,0.9,0,1.3,0c0.9,0,1.9,0,3-0.1c-0.1,2.1,0,4,0.2,5.4
		c0,0.2,0,0.5,0.1,0.7c-1.6,2.3-2.6,5.1-2.7,8.2c-2.9,2-5.7,4.3-8.1,7.4c-0.1,0-0.1,0-0.2,0c-1.4-1.8-2-5-1.4-7.8
		c0.7-2.8,2.6-5.8,4.8-9.3c0.9-1.4,1.8-2.9,2.8-4.4C190.1,109.8,190.2,109.8,190.3,109.7L190.3,109.7z M304.9,212.2
		C304.9,212.2,304.9,212.2,304.9,212.2S304.9,212.2,304.9,212.2L304.9,212.2z"/>
</g>
</svg>
