<?xml version="1.0" encoding="utf-8"?>
<!-- Generator: Adobe Illustrator 24.1.0, SVG Export Plug-In . SVG Version: 6.00 Build 0)  -->
<svg version="1.1" id="Livello_1" xmlns="http://www.w3.org/2000/svg" xmlns:xlink="http://www.w3.org/1999/xlink" x="0px" y="0px"
	 viewBox="0 0 474 507.4" style="enable-background:new 0 0 474 507.4;" width="50" height="50" xml:space="preserve">
<style type="text/css">

		.Stile_x0020_grafica_x0020_2{fill:#FFFFFF;stroke:#000000;stroke-width:15;stroke-linecap:round;stroke-linejoin:round;stroke-miterlimit:10;}
	.st0{fill:#FFFFFF;}
</style>
<g>
	<path class="st0" d="M307.9,450.4c-6.5,0-14.2-0.4-22-3.4c-9.2-3.5-16-9.4-20.2-17.7c-1.6,1.6-3.9,2.9-7.2,3.7
		c-3.2,0.7-6.5,1.1-9.7,1.1c-3.8,0-7.7-0.5-11.4-1.5c-4.3-1.1-7.3-3.4-9.1-6.7c-0.9-1.6-1.3-3.3-1.5-5c-2.6,0.1-5.2,0.3-7.5,0.8
		c-1.2,0.2-2.4,0.3-3.6,0.3c-4.5,0-8.2-1.5-11.3-2.7c-2.2-0.9-4-1.6-5.5-1.6c-0.3,0-0.5,0-0.8,0c-0.4,0-0.9,0-1.3,0
		c-1.5,0-6.1,0-9.8-3.9c-0.9-1-1.6-2.2-1.8-3.6c-9.8-2.3-19.2-4.4-28.9-4.4c-1.2,0-2.4,0-3.6,0.1c-0.6,0-1.3,0.1-1.9,0.1
		c-5.7,0-10.8-1.5-15-4.6c-0.4,0-0.9,0.1-1.4,0.1l-0.3,0c-9.7-0.2-18.4-1.1-26.5-2.5l-0.4-0.1c-8.8-1.5-10.9-6.4-11.1-10.2
		c0-0.2,0-0.3,0-0.5c-4.8-0.2-9.2-0.9-12.7-1.4c-7.7-1.3-9.9-6.1-10.6-8.8c-1.5-6.4,3-10.4,4.7-11.9l0.1-0.1
		c5.3-4.7,11.5-7.2,17-9.1c-1.1-1.9-1.9-4.1-2.4-6.5c-2.4-13.1,1-25.3,9.7-35.4c-5.5-11.9-1.3-29.5,10-40.4
		c7.7-7.4,17.3-11.3,29.6-11.9c0.8,0,2.6-0.3,2.9-1.8c0.1-0.6-0.6-2-2.2-2.8c-3.1-1.6-6.6-2.3-11.6-2.3c-2.2,0-4.4,0.1-6.7,0.3
		c-2.1,0.1-4.2,0.2-6.4,0.3c-0.2,0-0.7,0.1-1.1,0.1c-0.9,0.1-2,0.3-3.3,0.3c0,0-0.7,0-0.7,0c-9.2,0-14.9,2.6-19,8.7
		c-3.1,4.6-7.3,9-12.4,13.1c0,0.1-0.1,0.5-0.1,1.1c0.1,3.3-0.2,8.1-3.7,11.7c-3.3,3.4-7.8,4.1-11.2,4.2
		c-6.6,6.7-13.1,14.2-19.3,22.1c0,0-0.4,0.5-0.4,0.6c-1.1,7.8-6.4,8.7-8.6,8.8l-0.3,0c-4,0-7.4-1.8-10.3-3.4
		c-3.8-2.2-6.4-5.4-8.8-8.5c-1.3-1.8-1.8-4-1.3-6.2c0.5-2.2,1.9-4,3.9-5c7.2-3.7,12.6-9.9,18.2-16.4c2.5-2.8,5-5.8,7.8-8.5
		c-1.4-9.6,1.2-19.1,7.6-27.6c5.4-7.1,13-12.9,21-16c1.9-0.7,3.7-1.5,5.6-2.3c3.3-1.4,6.7-2.8,10.4-4c1.6-0.5,3.3-2.3,5.2-4.3
		c0.7-0.8,1.5-1.5,2.2-2.3c3-2.9,6.1-5.7,9.1-8.4c5.5-4.9,10.7-9.5,15-14.9c0.2-0.3,0.9-1.1,0.9-1.4c1.3-6.8,6-11.6,12-12.2
		c0.3,0,0.6-0.1,0.8-0.2c-0.8-1.1-1.6-2.5-2.1-4.1c-0.8-2.7-0.1-5.6,1.9-7.5l1.1-1.1c0.9-0.9,2-1.5,3.2-1.9
		c-0.6-0.1-1.3-0.3-1.9-0.5c-1.1-0.3-1.7-0.4-2.1-0.4c-0.2,0-0.3,0-0.3,0c0,0-0.4,0.2-1.2,1.4c-0.6,0.9-1.1,2.2-1.7,3.6l-0.2,0.4
		c-0.4,1-0.7,2-1.2,3.3c-0.2,0.6-0.4,1.2-0.6,1.9c-1,2.9-3.6,4.9-6.6,5c-0.1,0-0.3,0-0.4,0c-2.9,0-5.5-1.6-6.7-4.2
		c-2.6-5.3-2.3-12.8,0.7-20.1c2.9-7,7.5-12.1,12.7-13.9c1.4-0.5,3-0.8,4.5-0.8c1.5,0,2.9,0.2,4.5,0.7c1,0.3,2,0.5,3,0.5
		c4.8,0,9.4-3.4,10.9-8.2c0.3-0.8,0.3-1.4,0.3-1.7c-8.5-7.4-7.4-17-6.7-23.3c0.1-0.6,0.1-1.2,0.2-1.9c0.3-2.7,0.7-5.4,1.1-7.9
		c0.3-2.1,0.6-4,0.8-6c2.4-21.1,16.8-37.3,35.8-40.3c4.2-0.7,9.7-1.4,15.3-1.4c6.5,0,12.1,1,17.1,3c1.6,0.6,3.2,1.3,4.8,1.9
		c9.2,3.5,19.6,7.5,27.3,17c2.4,3,4,4.8,6.3,5.3c8.6,1.8,11.8,10.2,13.1,14.1c3.1,1.4,5.6,3.9,6.7,7c0.5,1.3,0.9,2.4,5.6,2.7
		c5.5,0.4,10.5,3.1,13.5,7.3c1,1.4,2.6,2.2,5.5,3.5c0.7,0.3,1.4,0.6,2.1,0.9c12.1,5.6,29.1,15.3,36.9,34.3c1.9,4.6,4.6,8.1,9.5,12.2
		c3.7,3.1,6.1,6.8,8.3,10.1c0.4,0.6,0.7,1.1,1.1,1.7c1.8,2.7,3.8,5.4,5.9,8.2c2.9,3.9,5.9,8,8.6,12.4c6.8,11.1,9.6,23.1,12.3,34.7
		l0.6,2.6c1.6,6.7,0.6,13.8-2.9,19.9c-1.7,3-2.2,6.4-2.4,10.3c2.7-0.6,5.5-1,8.3-1c6.3,0,12.7,1.6,19.6,5
		c6.3,3.1,11.2,8.2,14.5,15.1c1.9,4,3.7,7.8,6.7,10c1.2,0.9,2.5,1.4,3.4,1.4c0.5,0,0.7-0.1,0.9-0.2c0.9-0.6,1.1-0.9,1.1-0.9
		c0,0,0,0,0,0c0,0,0.2-0.8-0.5-3.5c-0.5-2-1.5-5.5,0.3-9.4c1.3-2.7,4-4.3,6.8-4.3c1,0,2,0.2,3,0.6c9.8,4.2,14.7,16.3,10.8,26.8
		c-2.8,7.7-2.7,15.9-2.7,24.5c0,1.9,0,3.8,0,5.6c0,4-0.6,5.4-3,9.2c-0.9,1.4-2.2,2.4-3.6,3c0.1,2.5-0.4,5.1-2.1,7.4
		c-1.6,2.1-3.9,3.3-6.5,3.6c-0.4,0-0.8,0.1-1.1,0.1c-4.3,0-7.8-2.6-9.2-6.8c-0.7-2-0.7-4-0.8-5.6c0-0.5,0-1.3-0.1-1.6
		c-0.1-0.5-0.4-1.5-0.3-2.8c0.4-11.7-2.5-18.4-9.9-23c-4.1-2.6-6.4-6.9-7.9-10.3c-1-2.4-3.6-3.4-8.9-5l-0.3-0.1
		c-2.7-0.8-5.4-1.2-7.9-1.2c-8,0-15.3,4-21.8,11.8c-1.8,2.2-3.6,4.6-5.4,7.2c-3,4.2-6.3,8.7-10.4,12.7c4.1,1.7,8.2,4.1,12.1,7.5
		c15.1,13.3,20.3,33.5,13.1,51.5c-2.8,7.1-8.1,12.8-15.2,16.5c1,0.2,2,0.5,3,0.7c5.1,1.3,8.3,5.5,7.7,10.4c-0.4,3.9-3.5,7.8-9.4,7.8
		c-0.2,0-0.5,0-0.7,0c-0.2,0-0.3,0-0.5,0c-4.5,0-8.4,2.5-13.1,6.6c-11.5,10-24,15-38.2,15.3C311.1,450.3,309.5,450.4,307.9,450.4z
		 M128.4,340.8c1.2,2,3.5,3.3,6.6,4.6c0.6-0.2,1.3-0.3,1.9-0.4c-0.3-0.3-0.6-0.7-0.8-1l-0.5-0.7c-1.4-1.7-3.7-2.9-6.4-4.2
		C128.8,339.8,128.5,340.4,128.4,340.8z M146.9,171.6c1.1,0.7,2,1,2.6,1c0.4,0,0.8-0.1,1.3-0.3c0.2-0.1,0.3-0.1,0.4-0.2
		c0,0-0.1-0.4-0.1-0.6c-0.3,0-0.7,0.1-1.1,0.1c0,0-0.1,0-0.2,0c-1,0-2,0-3.1-0.1C146.9,171.6,146.9,171.6,146.9,171.6z"/>
	<path d="M201,64.6c5,0,9.8,0.7,14.3,2.5c10.2,4.1,21.5,7.2,29.1,16.7c2.6,3.2,5.5,6.9,10.7,8c4.5,0.9,6.4,5.7,7.6,9.8
		c0.6,2,1.3,2.9,3.1,3.5c1.6,0.5,3,1.7,3.5,3.1c2.2,5.6,6.6,7.1,12.1,7.5c3.1,0.2,6.2,1.7,7.9,4.1c2.7,3.9,6.7,5.1,10.6,6.9
		c14.2,6.6,27,15.4,33.2,30.3c2.7,6.5,6.6,10.9,11.6,15.1c3.4,2.8,5.6,6.6,8,10.2c4.6,6.9,10,13.2,14.3,20.3
		c6.7,10.9,9.2,23,12,35.1c1.2,4.9,0.4,10-2.1,14.4c-3.2,5.7-3.5,11.9-3.5,18.1c0,2.9,1.3,4.5,3.7,4.5c0.8,0,1.8-0.2,2.9-0.6
		c3.1-1,6.2-1.5,9.2-1.5c5.6,0,11,1.6,16.3,4.2c5.1,2.5,8.6,6.5,11,11.6c2.3,4.8,4.6,9.5,9,12.8c2.6,1.9,5.3,2.9,7.9,2.9
		c1.8,0,3.5-0.5,5-1.5c4.4-2.9,5.3-6.2,3.6-12.6c-0.4-1.4-0.8-2.8-0.1-4.2c5.7,2.4,9.5,10,6.7,17.4c-3.9,10.8-3,21.7-3.1,32.7
		c0,2.3,0,2.3-1.8,5.2c-1.5-5.7-1.9-11-2-16.3c0-1.8,0.7-4.5-1.9-4.7c-0.1,0-0.1,0-0.2,0c-2,0-2.4,2.3-2.9,4.2
		c-1.7,6.3,0.6,12.3,1.5,18.4c0.5,3.3,1.9,8.6-1.1,9c-0.1,0-0.2,0-0.4,0c-3.2,0-2.1-5.2-2.8-8.1c-0.1-0.3-0.2-0.6-0.2-0.9
		c0.4-12.1-2.3-22.7-13.5-29.7c-2.3-1.4-3.8-4.2-5-6.9c-2.6-6-8.5-7.6-13.9-9.3c-3.5-1-6.9-1.5-10.1-1.5c-10.7,0-20,5.4-27.6,14.5
		c-8.1,9.8-13.8,22.2-28,27.9c10.1,1.4,18.3,4,25.1,9.9c12.6,11,17.1,27.9,11.1,43.1c-2.9,7.3-8.8,11.9-15.8,14.4
		c-8.1,2.9-16.1,6-24.8,7.3c-4.6,0.7-9.3,2.5-12.8,6.1c-2.9,3-2.2,5.1,1.8,6c0.9,0.2,1.8,0.3,2.7,0.3c2.4,0,4.8-0.7,7.1-1.8
		c6.7-3.2,13.6-5.6,21-6.6c1-0.1,2-0.2,3-0.2c3.7,0,7.2,0.8,10.8,1.7c1.2,0.3,2.2,1.1,2.1,2.3c-0.1,0.9-1.1,1.1-2,1.1
		c-0.1,0-0.2,0-0.4,0c-0.3,0-0.6,0-0.8,0c-7.3,0-12.9,4-18,8.4c-9.7,8.4-20.4,13.2-33.5,13.5c-1.6,0-3.1,0.1-4.6,0.1
		c-6.6,0-13-0.5-19.4-2.9c-7.7-2.9-13.4-7.9-16.8-15.5c-0.3-0.7-0.6-1.5-0.9-2.2c-0.9-1.9,1.4-5-1-5.9c-1.6-0.6-3.4-0.9-5.1-0.9
		c-1.6,0-3.2,0.2-4.8,0.7c-0.7,0.2-1.4,0.4-3.1,0.9c3.2,0.6,5.1,1.6,4.7,4.5c-0.4,2.7-2.5,3.6-4.7,4.1c-2.7,0.6-5.4,0.9-8.1,0.9
		c-3.2,0-6.4-0.4-9.5-1.2c-5.3-1.4-6.3-5.1-3.8-12.3c-5.9,0.4-11.9,0.2-17.6,1.3c-0.8,0.1-1.5,0.2-2.2,0.2c-6,0-10.9-4.4-16.8-4.4
		c0,0,0,0,0,0c-0.7,0-1.4,0-2.1,0c-1.5,0-3.1-0.2-4.3-1.6c3.9-3.5,0.7-4.2-2-4.9c-11.3-2.7-22.5-5.4-34.2-5.4c-1.3,0-2.7,0-4,0.1
		c-0.5,0-1,0-1.5,0c-4.2,0-8.1-1.1-11.5-3.9c-0.8-0.6-1.6-0.8-2.4-0.8c-0.8,0-1.7,0.2-2.5,0.2c0,0-0.1,0-0.1,0
		c-8.5-0.2-17-0.9-25.3-2.4c-2.1-0.4-5.2-0.7-5.3-3.3c-0.1-2.2,2.5-3.4,4.5-4.5c7.5-4.1,15.9-4.4,24.1-5.8c0.1,0,0.2,0,0.4,0
		c0.4,0,0.9,0.1,1.3,0.1c0.7,0,1.3-0.2,1.5-1.3c0.3-1.6-0.2-3-1.6-3.7c-2.1-1.1-4.3-2.9-6.5-2.9c-0.2,0-0.4,0-0.6,0
		c-9.6,0-19.1,0.8-28.1,4.3c-0.4,0.2-0.7,0.5-1.4,1.1c3.2,2.1,6.8,2.4,10.6,3.4c-1.5,1.7-3.1,2-4.6,2c-0.7,0-1.3,0-2,0
		c-0.1,0-0.2,0-0.3,0c-0.6,0-1.2,0-1.8,0c-4.9,0-9.7-0.6-14.5-1.4c-1.8-0.3-4-0.9-4.5-3.1c-0.5-2.1,1.1-3.5,2.6-4.8
		c5-4.5,11.2-6.6,17.5-8.6c2.1-0.7,4.2-1.3,7-2.2c-3.3-3.8-6.6-7.1-7.4-11.8c-2.1-11.7,1.1-21.8,9.1-30.4c1.7-1.9,2.2-2.8,0.7-5.4
		c-5.4-9.2-1.3-24.6,7.7-33.2c7.1-6.8,15.4-9.3,24.8-9.8c5.1-0.3,9-3.3,9.8-7.8c0.8-4.2-1.8-8.7-6.1-10.9c-4.9-2.5-9.9-3.1-15-3.1
		c-4.4,0-8.8,0.4-13.3,0.5c-1.4,0-2.8,0.4-4.2,0.4c0,0,0,0-0.1,0c-0.2,0-0.4,0-0.6,0c-10.3,0-19,2.8-25.2,12.1
		c-2.9,4.3-6.7,8.1-10.9,11.4c-2.2,1.7-2.9,4.1-2.9,7.1c0.2,6.2-2,8.2-8.4,8.2c-1.8,0-2.9,0.7-4.1,1.9c-7.2,7.3-13.9,15-20.2,23.1
		c-0.5,0.6-1,1.2-1.4,1.9c-0.8,1.5-0.2,4.5-1.9,4.5c0,0-0.1,0-0.1,0c-2.2,0-4.5-1.3-6.5-2.4c-2.6-1.5-4.6-3.9-6.5-6.5
		c12-6.2,19.1-17.5,28.2-26.6c1.3-1.3,2.3-3.1,2-5.2c-3.1-17.3,11.4-31.7,23.8-36.4c5.2-2,10.3-4.4,15.6-6.1
		c4.4-1.4,7.2-5.3,10.3-8.4c8.2-8.1,17.6-14.9,24.7-24c1.1-1.4,2-2.7,2.4-4.6c0.6-3,2.3-5.8,5.4-6.1c5.4-0.5,8.1-4.6,12.1-7.5
		c-2.8-2-5.9-3.2-7-6.5c0.4-0.4,0.7-0.7,1.1-1.1c2.2,1.4,4.4,2.2,6.7,2.2c1.4,0,2.8-0.3,4.2-0.9c4.4-1.9,6-4.7,4.7-9.3
		c-0.6-2.3-0.5-5.2-1.9-6.7c-0.4-0.5-0.9-0.7-1.4-0.7c-1.5,0-3.3,1.6-5.1,1.6c0,0,0,0,0,0c-3.1,0-6.1-0.2-9-1.1
		c-1.6-0.5-3-0.7-4.3-0.7c-3.2,0-5.7,1.5-7.8,5c-1,1.6-1.7,3.4-2.4,5.2c-0.7,1.7-1.2,3.5-1.9,5.5c-3.4-7,2.3-21.3,9.2-23.7
		c0.7-0.2,1.3-0.3,2-0.3c0.7,0,1.5,0.1,2.2,0.4c1.7,0.5,3.5,0.8,5.3,0.8c8,0,15.6-5.4,18-13.5c1.1-3.5,1.1-7-1.7-9.3
		c-6.4-5.4-4.9-12.2-4.2-19c0.4-4.6,1.4-9.2,1.9-13.8c1.9-17,13.1-31.1,29.6-33.7C191.5,65.2,196.3,64.6,201,64.6 M176.8,198.5
		c1.5,0,2.1-0.9,2.4-2.9c0.5-3.6-1-5.8-4.3-6.9c-0.7-0.2-1.2-0.3-1.7-0.3c-2.5,0-3.3,2.6-4.1,4.9c-2.1-1.2-2.6-2.7-1.9-4.3
		c1.6-4.1,5.3-5.9,9.1-7.4c-1.3-1.9-2.6-3.3-4.5-4.2c-1.8,3.4-3.2,7.4-7.4,8.2c-4.4,0.8-6.6,3.9-9.1,7.4c6.8,1.8,13.3,3.4,19.7,5.3
		C175.7,198.4,176.3,198.5,176.8,198.5 M61.6,273.4c1.4-1.5,3.6-2,2.8-4.5c-0.4-1.4-0.2-2,0.6-2c0.3,0,0.7,0.1,1.2,0.3
		c0.4,0.1,0.8,0.3,1.1,0.3c0.4,0,0.7-0.1,1.1-0.5c2.8-3.3,5.5-6.5,8.3-9.8c0.2-0.3,0.4-0.9,0.3-1.1c-0.3-0.4-0.7-0.5-1.2-0.5
		c-0.1,0-0.3,0-0.4,0C69.1,256.4,61.4,266.1,61.6,273.4 M339.6,302.8c1.1,0,2.1-1.8,3.1-2.5c1.7-1.2,3.4-2.4,4.8-3.9
		c5.9-6.7,12.4-12.8,19.8-17.8c1.7-1.1,2.8-2.7,3.1-4.6c0.4-2.5-0.3-4.8-1.8-6.3c-0.2,0-0.4,0-0.6,0c-2,0-2.5,1.3-3.2,2.4
		c-1.7,2.9-4.1,5.2-6.5,7.6c-3.8,3.8-8.7,5.9-12.8,9.1c-3.6,2.7-7,5.5-8,10.2c-0.4,2.1-0.2,4.6,1.4,5.7
		C339.2,302.7,339.4,302.8,339.6,302.8 M120.9,307c6.7-4.4,9-11,13-17.2C125,292.2,120.6,297.9,120.9,307 M135,353.3
		c3.3-1.7,8-0.6,9.9-4.6c1.9-4.1-1.1-7.2-3.5-10.1c-3.4-4.1-8.3-5.7-12.8-8.1c-0.6-0.3-1.1-0.4-1.5-0.4c-1.4,0-2.2,1.2-2.7,2.3
		c-1.9,3.7-5,7.7-2.5,12C124.5,349.1,129.6,351.4,135,353.3 M201,49.6C201,49.6,201,49.6,201,49.6c-6.2,0-12.1,0.8-16.5,1.5
		c-22.4,3.5-39.3,22.4-42.1,46.9c-0.2,1.8-0.5,3.7-0.8,5.7c-0.4,2.7-0.8,5.4-1.1,8.3c-0.1,0.6-0.1,1.2-0.2,1.8
		c-0.7,6-1.8,16.4,5.3,25.6c-0.7,0.6-1.6,0.9-2.3,0.9c-0.3,0-0.5,0-0.8-0.1c-2.2-0.7-4.5-1-6.7-1c-2.4,0-4.7,0.4-7,1.2
		c-7.2,2.5-13.5,9.1-17.2,18.1c-3.9,9.4-4.1,19-0.5,26.3c1.5,3.1,3.9,5.5,6.9,6.9c-0.4,1.1-0.8,2.2-1.1,3.3
		c-3.8,4.8-8.7,9.1-13.9,13.7c-3.1,2.7-6.3,5.6-9.4,8.6c-0.9,0.9-1.7,1.7-2.4,2.5c-0.8,0.8-1.9,2-2.4,2.4c-3.8,1.2-7.2,2.7-10.5,4.1
		c-1.9,0.8-3.7,1.5-5.4,2.2c-18,6.9-35,25.6-33.8,48c-2,2.1-3.8,4.2-5.6,6.3c-5.4,6.2-10.1,11.6-16,14.6c-3.9,2-6.8,5.7-7.8,10
		c-1,4.3-0.1,8.8,2.6,12.4c2.8,3.7,6,7.6,11,10.5c2.5,1.4,7.7,4.5,14,4.5c0.2,0,0.3,0,0.5,0c6.3-0.2,11.9-3.9,14.4-9.8
		c0.5-1.2,0.8-2.3,1-3.3c5.2-6.6,10.6-12.9,16.1-18.6c3.8-0.5,9-1.9,13.2-6.3c4.6-4.8,5.6-10.7,5.8-14.4c4.5-3.9,8.3-8.1,11.2-12.5
		c2.3-3.4,5.1-5.4,12.7-5.4l0.2,0c-2.1,1.5-4.1,3.1-6,4.9c-6.4,6.2-11.2,14.6-13.4,23.7c-1.8,7.3-1.7,14.4,0.1,20.7
		c-8.1,11.1-11.1,24.2-8.6,38.1c0.1,0.3,0.1,0.6,0.2,0.9c-4.1,1.9-8.4,4.3-12.4,7.8l-0.1,0.1c-6.3,5.6-8.7,12.1-7.1,19.2
		c0.8,3.7,4.2,12.5,16.7,14.6c2.3,0.4,5,0.8,7.9,1.1c1.7,3.8,4.7,6.9,8.6,8.8c2.8,1.4,5.5,1.9,7.2,2.1l0.4,0.1
		c8.4,1.5,17.4,2.4,27.4,2.6c5,3,10.8,4.6,17.2,4.6c0.8,0,1.5,0,2.3-0.1c1-0.1,2.1-0.1,3.2-0.1c7.7,0,15.4,1.5,23.5,3.3
		c0.5,0.8,1.1,1.5,1.7,2.2c3.9,4.2,9.1,6.3,15.3,6.3c0.5,0,1,0,1.5,0c0.1,0,0.2,0,0.3,0c0.6,0.1,1.9,0.7,2.9,1.1
		c3.4,1.4,8.1,3.3,14.1,3.3c1.6,0,3.3-0.1,4.9-0.4c0.3,0,0.5-0.1,0.8-0.1c0.1,0.2,0.2,0.3,0.3,0.5c1.9,3.6,5.9,8.3,13.8,10.4
		c4.4,1.2,8.9,1.7,13.3,1.7c3.8,0,7.7-0.4,11.4-1.3c1.1-0.3,2.1-0.6,3.1-0.9c5,6.6,11.7,11.4,20,14.6c9,3.4,17.5,3.8,24.7,3.8
		c1.4,0,3,0,5-0.1c16-0.4,30-6,42.9-17.1c3.9-3.4,6.3-4.8,8.2-4.8c0.1,0,0.1,0,0.2,0c0.3,0,0.6,0,1,0c2.6,0,5-0.5,7.2-1.4
		c5.4-2.3,9-7.2,9.6-13c0.6-4.9-1-9.5-4.2-13c3.5-3.6,6.3-7.9,8.2-12.7c8.4-21,2.4-44.5-15.1-59.9c-1.7-1.5-3.4-2.8-5.2-4
		c1.7-2.1,3.2-4.2,4.6-6.2c1.8-2.4,3.4-4.8,5.1-6.8c5-6,10.4-9.1,16.1-9.1c1.8,0,3.8,0.3,5.8,0.9l0.3,0.1c1.4,0.4,3.5,1,4.5,1.5
		c1.8,4,4.9,9.5,10.4,12.9c4.3,2.7,6.7,6.2,6.4,16.5c-0.1,1.8,0.2,3.3,0.4,4.2c0,0.2,0,0.5,0,0.7c0.1,1.9,0.2,4.7,1.2,7.7
		c2.4,7.2,8.8,11.9,16.3,11.9c0.6,0,1.3,0,1.9-0.1c4.7-0.5,8.8-2.8,11.7-6.6c1.9-2.5,2.9-5.1,3.3-7.7c1.1-0.9,2-2,2.8-3.3
		c2.8-4.4,4.1-7.2,4.1-13.1c0-2,0-3.9,0-5.8c-0.1-8.3-0.1-15.4,2.2-21.8c2.6-7,2.4-14.7-0.5-21.6c-2.8-6.6-8.1-12-14.4-14.7
		c-1.9-0.8-4-1.2-5.9-1.2c-5.5,0-10.8,3-13.4,8.2c-4-7-9.5-12.3-16.5-15.7c-7.4-3.6-14.3-5.4-21.2-5.7c3.6-7.3,4.6-15.6,2.7-23.5
		c-0.2-0.9-0.4-1.7-0.6-2.6c-2.9-12.2-5.8-24.8-13.2-36.9c-2.9-4.7-6-8.9-9-12.9c-2-2.7-3.9-5.3-5.7-7.9c-0.4-0.5-0.7-1.1-1.1-1.6
		c-2.3-3.5-5.2-7.9-9.8-11.7c-3.9-3.2-5.9-5.8-7.3-9.2c-8.8-21.4-27.5-32.1-40.7-38.2c-0.8-0.3-1.5-0.7-2.3-1
		c-0.9-0.4-2.1-0.9-2.6-1.2c-4.3-5.9-11.3-9.6-18.9-10.1c0,0,0,0,0,0c-1.6-2.9-3.9-5.4-6.7-7.3c-3.6-9-9.4-14.4-17.3-16.2
		c-0.6-0.5-1.6-1.8-2.4-2.7c-9-11.2-20.9-15.7-30.5-19.4c-1.6-0.6-3.2-1.2-4.7-1.8C215,50.7,208.5,49.6,201,49.6L201,49.6L201,49.6z
		"/>
</g>
</svg>
