<?xml version="1.0" encoding="utf-8"?>
<!-- Generator: Adobe Illustrator 24.1.0, SVG Export Plug-In . SVG Version: 6.00 Build 0)  -->
<svg version="1.1" id="Livello_1" xmlns="http://www.w3.org/2000/svg" xmlns:xlink="http://www.w3.org/1999/xlink" x="0px" y="0px"
	 viewBox="0 0 474 487.4" style="enable-background:new 0 0 474 487.4;" width="50" height="50" xml:space="preserve">
<style type="text/css">

		.Stile_x0020_grafica{fill:#FEFEFE;stroke:#000000;stroke-width:15;stroke-linecap:round;stroke-linejoin:round;stroke-miterlimit:10;}
	.st0{fill:#FEFEFE;}
</style>
<g>
	<path class="st0" d="M248.4,472.9c-1,0-2,0-2.9-0.1c-0.8,0-1.5-0.1-2.3-0.1c-0.2,0-0.7,0-0.8,0c-3.8,0-7-2.4-8.4-6
		c-3.6,1.6-7.7,2.3-12.4,2.3c-1.2,0-2.4,0-3.7-0.1c-2.5-0.2-5.2-0.3-8.5-0.3c-2.4,0-4.7,0-7.3,0.1c-0.2,0-0.5,0-0.7,0
		c-5.8,0-8.2-3.4-9.2-5.4c-0.4-0.8-0.6-1.7-0.8-2.6c-1.6,2.2-4,3.4-6.7,3.4c-1.3,0-2.4-0.3-3.2-0.6c-0.1,0-0.2,0-0.2,0
		c-5.7-0.4-8.9-3-10.5-5.1c-0.5-0.7-1-1.5-1.5-2.6c-0.5,0-1.1-0.1-1.5-0.1c-0.9,0-1.6,0.1-2.1,0.3c-1.1,0.4-2.1,0.6-3.2,0.6
		c-1.8,0-5.2-0.6-8.1-4.2c-1-1.3-3.9-5.9,0.3-11.4l0.1-0.2c3.8-5.2,8.9-8.2,15.3-9c7.8-1,13.6-3.2,18.4-6.7
		c5.8-4.2,11.9-6.4,18.1-6.4c0.8,0,1.7,0,2.5,0.1c0.2,0,0.4,0,0.7,0c0.8,0,1.7-0.1,2.7-0.2c2-2.5,5-3.9,9.1-4.1c0.2,0,0.3,0,0.5,0
		c0.4-0.1,1-0.3,1.1-0.4c2.4-1.8,5.5-3.9,9.1-5.8c-0.1-0.6-0.3-1.3-0.5-2c-3.3-0.3-5.7-1.6-7.1-4c-0.4-0.6-0.7-1.4-1-2.3
		c-1.2,0.2-2.5,0.3-3.8,0.3l-0.2,0c-4.8,0-9.2-1-14-2.2c-2.6-0.6-5.3-1.1-8.8-1.5c-0.2,0.1-0.4,0.2-0.7,0.4c-2.1,1-4.3,1.6-6.6,1.6
		c-3.3,0-6-1.1-8.1-2c-0.6-0.3-1.3-0.5-1.8-0.7c-1.6-0.5-3.1-1.2-4.4-1.8c-1.5-0.7-3-1.4-3.8-1.4c-0.1,0-0.2,0-0.3,0
		c-0.4,0.1-0.9,0.1-1.4,0.1c-4.2,0-7.8-2.6-9.2-6.2c-0.3-0.1-0.5-0.3-0.8-0.4c-4.9-2.6-6.4-6.9-6.9-10.1c-1.4,2.8-3.4,4.8-5,6.5
		c-0.7,0.7-1.3,1.4-1.8,2c-0.1,0.1-0.1,0.2-0.2,0.3c-0.6,0.9-1.9,3.2-4.4,4.6c-0.6,1.6-1.7,3.3-3.5,4.9c-0.1,0.1-0.1,0.3-0.2,0.5
		c0.2,0.5,0.5,0.9,0.7,1.4c1.2,2.2,2.5,4.6,3.5,7.4c6.3,6.3,5.2,14.3,4.5,18c0,0.1,0.2,0.7,0.2,0.7c1.8,6.7,2.1,13.3,2.4,19.7l0,0.5
		c0,0.1,0.1,0.5,0.2,0.9c0.5,1.9,1.4,5,0.2,8.9c-2.6,8.2-9.1,13.5-16.7,13.5c-0.9,0-1.7-0.1-2.6-0.2c-0.1,0-0.2,0-0.3,0
		c-0.8-0.1-2.7-0.3-4.5-1.6c-1.5,2.9-4.4,4.7-7.8,4.7c-1.2,0-2.3-0.2-3.5-0.7c-1-0.4-2.1-0.7-3.2-1.1c-3.8-1.2-8-2.6-12.1-5.9
		c-0.6-0.5-2.6-1.7-7.9-1.8c-4.1-0.1-8-1.7-10.8-4.5c-0.6-0.6-1.4-1.2-2.3-1.9c-2.3-1.7-5.5-4.1-7.5-8.2c-3.6-7.4-1.6-15.7,5.1-20.4
		c2.2-1.6,4.5-2.9,6.6-4.1l0.5-0.3c2.4-1.4,5-2,8-2h0c0.2-1.1,0.4-2.2,0.6-3.4c0.9-4.8,1.8-9.3,1.9-13.8c0-0.3,0-0.5,0-0.5
		c-1.6-6.8-0.3-10.9,4.8-14.9c-1.6-3-2.6-7.9,3.2-12.8c1.8-1.5,4.5-3.4,8.4-4c1.2-2.6,3.2-4,4.1-4.7c0,0,0,0,0.1,0
		c0.4-0.5,0.8-1,1.3-1.4c0.6-1.7,1.5-3,1.9-3.7c0.7-1,1.3-1.8,1.9-2.6c0.7-0.9,1.4-1.7,1.7-2.3c1.4-2.8,3.3-5.2,4.9-7.1
		c1.1-1.3,1.7-2.4,2-3.6c0.5-2.2,1.4-3.8,2.1-5c0.2-0.4,0.5-0.9,0.6-1.1c0.3-1.1,1.5-4.1,4.8-5.8c0.1-0.4,0.3-0.8,0.4-1.3
		c-0.3,0-0.5,0-0.8,0c-2.4,0-4.8-0.8-6.8-2.3c-4.4-3.4-6.5-8-8.1-12c-1-2.6-1.4-6.7,0.9-9.9c0.1-0.3,0-1.6,0-2.5
		c-0.1-1.2-0.1-2.5,0-3.9c0.4-5.6-0.6-11.8-2.9-19c-2.4-7.3-0.9-13.5,0.9-18.6c1-2.9,2.3-5.6,4.3-9l0.7-1.2c2-3.5,4.1-7,6.2-10.5
		c0.4-0.7,0.8-3,1-4.4l0.2-1.3c0.6-3.6,1.3-7.6,3.3-11.4c-0.1-0.1-0.1-0.3-0.2-0.4c-0.2-0.4-0.4-0.8-0.5-1.2
		c-0.1-0.2-0.5-0.7-0.8-1.1c-0.5-0.6-1-1.4-1.6-2.4c-0.2-0.4-0.4-0.7-0.6-0.9c-0.1,0-0.3,0-0.4,0.1c-2,0.5-3.9,0.6-5.6,0.7
		c-1.1,0.1-2.1,0.1-2.9,0.3c-0.8,0.2-1.7,0.2-2.5,0.2c-3.4,0-9.6-1.3-13.4-10.1c-3.2-7.3-1.9-14-0.9-19.4c0.3-1.6,0.6-3.1,0.8-4.6
		c0.4-3.3,1.2-6.2,1.9-9.1c0.6-2.4,1.2-4.6,1.5-6.8c0.5-4.1,2.5-7.4,4.1-9.6c-0.6-2.1-0.5-4.2,0-6.1c-2.9-3.8-2.2-7.4-1.3-9.5
		c1-2.2,2.3-4,4.1-5.2c-0.9-2.9-0.6-5.9,1-8.4c1.1-1.8,2.7-3.1,4.7-3.9c-0.8-3-0.4-5.4,0.3-7.1c1.4-3.6,4.5-6.1,9.2-7.6
		c3-0.9,4.8-1.6,5.8-2.7c0-1.7,0.3-3.4,0.7-5c-4.4-2.5-6.5-7.2-5-11.7c0.2-0.6,0.5-1.4,1-2.2c-1.5-3.7,0.1-6.6,0.7-7.6
		c1.1-1.7,2.3-2.9,3.7-3.8c-0.7-1.9-0.8-4,0.2-6.3c1.4-3.4,4.3-4.6,7.2-5.4c-0.9-2.5-0.7-4.9,0.5-7.2c1.6-3.3,4.9-5.3,8.5-5.3
		c0.5,0,0.9,0,1.3,0.1c-1.4-5.1,1.9-8.5,2.8-9.2c1.9-1.7,4.3-2.6,6.8-2.6c1,0,2.1,0.2,3.1,0.4c-0.2-3.2,1.3-5.8,3.2-7.4
		c2.1-1.8,4.4-2.7,6.9-2.7c1.1,0,2.2,0.2,3.2,0.6c-1.3-4.4,1.2-7.6,2.1-8.6c2.2-2.4,4.8-3.7,7.7-3.7c1.2,0,2.4,0.2,3.6,0.7
		c1.2-4.6,5-7.7,9.6-7.7c1.8,0,3.6,0.5,5.3,1.5c0.3,0.1,0.9,0.4,1.5,0.5c0.9,0.3,2,0.6,3.2,1.2c0.6-0.1,1.3-0.2,2.1-0.2
		c1.1,0,2.1,0.1,3.1,0.4c6.3,1.7,10.7,6.7,11.3,12.7c3.7,2.5,5.1,6.1,6.2,8.8l0.2,0.4c1.1,2.6,1.3,5.1,1.5,7.1
		c0.2,1.9,0.3,2.9,0.7,3.3c2.6,3,3.2,6.5,3.7,9.1c0.2,1,0.4,2,0.6,2.6c0.5,1.2,1.1,2.5,1.7,3.8c1.2,2.7,2.7,5.8,3.5,9.2
		c0.5,2,1.2,4,2.1,6.2c1.2,3.2,2.5,6.8,3.1,10.8c0.2,1.2,0.3,2.3,0.3,3.3c0.1,1.3,0.2,2.6,0.5,3.1c2.2,3.5,1.9,8.1-0.8,12.2
		c-2,3-3.6,5.9-4.8,8.7c-0.8,1.9-2.1,4.4-4.3,6.4c1.3,4.7-0.6,8.2-1.2,9.4c-0.2,0.5-0.4,0.8-0.4,1c0.1,0.1,0.3,0.3,0.5,0.6
		c4.5,4.5,4.6,8.7,3.7,11.8c1.3,4,0.4,7.6-0.1,9.9c-0.2,0.7-0.3,1.3-0.4,1.7c-0.3,2.1-0.9,4-1.4,5.6c-0.6,1.7-1,3.2-0.8,4
		c0.7,3-0.3,6.3-2.6,8.3c-1,0.8-1.8,2.3-2.8,4c-1.2,2.1-2.6,4.4-4.7,6.6c-1.9,2-3.3,4.7-4.3,7.6c5.4,1.5,10,4,14.2,6.3
		c2.5,1.3,4.8,2.6,7.1,3.6c2,0.9,4.5,1.4,7.1,2c1.1,0.2,2.1,0.5,3.2,0.7c1,0.3,2,0.5,3,0.8c2.3,0.7,4.4,1.2,6.2,1.2c0,0,0.2,0,0.2,0
		c2.5,0,5.1,1,7.1,2.8c3.4,2.9,5.8,4,8.6,4.1c5.2,0.1,9,2.6,12.1,4.6c1,0.7,2,1.3,2.8,1.7c2.1,1.1,4.1,2.4,6,4.1
		c1.7-3.4,3-7.2,4.3-11.2c0.9-2.7,1.8-5.5,2.9-8.3l0.2-0.5c0.7-1.7,1.5-3.8,3.1-5.8c6.5-8.1,10.6-17.3,12.4-27.2
		c0.5-2.7,1.4-5.1,2.1-6.9l0.3-0.7c0.3-0.8,0.9-2.2,0.8-2.5c-0.1-0.8-0.4-3.1,1-5.5c-0.2-0.5-0.6-1.3-0.9-1.9
		c-0.7-1.3-1.5-2.9-2.1-4.7c-0.3-1-1.2-2.3-2.1-3.7c-1.1-1.6-2.3-3.4-3.3-5.6c-1.2,0-2.2,0.1-2.8,0.4c-1.4,0.6-2.9,1.1-4.3,1.2
		c-0.4,1.7-0.9,3.8-2.3,5.9c-2.4,3.8-5.9,6.8-10.9,9.2c-4.6,2.3-7.6,6.5-11.1,11.4c-0.9,1.3-1.7,2.8-2.6,4.4c-1.4,2.7-3,5.8-5.6,8.6
		c-0.5,0.6-1.1,1.1-1.5,1.4c-2.4,3.4-5.5,3.9-7.2,3.9c-4.2,0-6.5-2.9-7.3-4l-0.1-0.2c-1.3-1.5-3.2-4.9-1.8-10
		c0.5-1.9,0.7-4.1,0.9-6.4c0.2-2.9,0.5-6.2,1.5-9.6c0-0.4-0.3-1.2-0.4-1.7l-0.1-0.4c-0.6-2.1-0.8-4.1-1-5.8c-0.1-1.1-0.2-2.1-0.4-3
		c-1.6-7.4,2.8-15.5,10.3-18.8c2.5-1.1,4.9-2.9,7.5-4.8c1.1-0.8,2.3-1.7,3.5-2.5c4.4-3.1,8.3-6.8,12.5-11.1
		c3.6-3.6,8.1-5.6,12.8-5.6c2.8,0,5.6,0.6,8.7,1.9c1.4,0.6,2.5,0.9,3.5,0.9c0.5,0,1-0.1,1.4-0.2c0.7-0.2,1.3-0.4,2-0.5
		c2.8-0.8,6-1.7,9.6-1.7c2.2,0,4.3,0.3,6.4,1c6.2,2.1,9.6,6.6,9.8,13c2.7,3.8,3,8,3.3,11c0.1,1.4,0.2,2.9,0.6,3.6
		c0.5,1.1,1,2.1,1.3,3.1c0.4,0.9,0.9,2.2,1.2,2.5c2.1,2.1,3.7,4.3,5.1,6.3c0.8,1.2,1.6,2.3,2.4,3.2c3.1,3.7,4,8.2,2.3,12.4
		c-0.6,1.5-0.9,3.4-1.3,5.3c-0.5,2.9-1.1,6.2-2.7,9.6c-0.5,1-1,2.1-1.4,3.1c-1.4,3.2-2.9,6.4-4.9,9.6c-1.3,2-1.6,4.5-2,7.8l-0.1,1
		c-0.4,2.7-0.7,5.6-1,8.3c-0.2,2-0.4,4-0.7,6.1c-0.4,3.2-2.1,5.9-4.6,7.3c-0.5,0.3-1,1.5-1.6,3.3l-0.3,0.8c-1.9,4.8-5.4,7.6-8.2,9.8
		c-0.3,0.3-0.7,0.5-1,0.8c-2.8,2.3-4.7,4.7-5.8,7.3c-0.9,2.3-1.3,5.1-1.6,8.1c-0.2,1.8-0.4,3.6-0.8,5.5c-0.1,0.4-0.1,0.7-0.2,1
		c-0.2,1.3-0.4,3-1.2,4.9c2.5,4.6,2.7,8.4,1.8,11.3c0.5,0.4,0.9,0.8,1.3,1.2c1.7,1.5,3.2,2.9,4.7,3.7c3.8,2.1,5,5.5,5.6,7.2
		c0.1,0.1,0.1,0.3,0.2,0.4c4.1,5.5,7,10.5,9.1,15.5c0.6,1.3,1.3,3.4,1.2,6c-0.3,5.7,1.5,11.2,5.8,18.3c0.3,0.5,0.7,1.1,1,1.5
		c0.7-0.1,1.5-0.1,2.2-0.1c6.5,0,12,3.7,15,10.1c0.5,1,1,2,1.4,3c2.1,4.4,4.3,8.9,6,14c1.4,4.3,1.9,8.4,2.3,12.1
		c0.3,2.4,0.5,4.6,1,6.7c0.2,1,0.9,2.2,1.7,3.7l0.4,0.7c0.7,1.3,1.4,2.6,2,3.8c1.4,2.7,2.7,5.3,4.5,7.3c2.9,3.4,4.1,8.3,3.4,14
		c-0.8,6.3-3.8,11.8-7.9,14.6c-2.4,1.6-4.8,1.9-6.3,2.1c-0.3,0-0.6,0.1-0.7,0.1c-0.4,0.1-0.8,0.2-1.2,0.3c-2.6,2.4-5.5,3.2-7.9,3.5
		c-0.5,0-1,0.1-1.4,0.1c-3.5,0-6.5-1.5-8.2-4.1c-0.5-0.7-1.1-1.8-1.4-3.2c-3.7-1.7-7-4.9-9.2-7.8c-1.1,0.6-2.4,1-3.8,1.4
		c-2.9,0.7-4.8,2.2-6.6,5.1c-3.6,5.8-9.6,8.7-18,8.7h-0.1c-2.5,0-4.8-0.4-6.8-0.7c-0.7-0.1-1.4-0.2-2.1-0.3
		c-4.2-0.6-7.4-3.3-8.6-6.7c-1.8,0.3-3.6,0.6-5.4,0.8c-1.7,0.2-3.4,0.5-5,0.8c-1.5,0.9-3.1,1.3-4.7,1.3c-4,0-6.4-2.5-7.3-3.5
		l-0.2-0.2c-2.6-2.5-2.8-5.4-2.7-6.8c0.1-1,0.3-1.9,0.7-2.7c-0.6-0.8-1.2-1.7-1.6-2.7c-1.1-2.8-1.6-7,2.4-11.7
		c4.7-5.5,10.8-7.7,16.2-9.3c4.8-1.4,8.9-2.7,11.5-5.5c-0.5-1.4-0.8-2.8-1.2-4.2c-7.2-3.8-11.4-10-15.1-15.6l-1-1.4
		c-1.4-2.1-2.5-4.2-3.6-6.2c-1.2-2.2-2.3-4.3-3.6-6c-1.7-2.1-2.8-4.3-3.6-6.5c-0.2,0-0.4,0.1-0.7,0.1c-0.7,0.1-1.5,0.3-2.4,0.5
		c-1.2,0.3-2.4,0.6-3.8,0.7c2.2,4.1,2.5,8.2,2.6,9.9l0,0.4c0.2,2.8,0.3,5.1,1.1,6.9c2.1,4.9,1.2,9.4,0.2,12.4
		c-0.5,1.7-0.9,3.6-1.4,5.6c-0.3,1.3-0.6,2.6-0.9,4c-0.8,3.1-2.4,5.2-3.4,6.6c-0.3,0.4-0.6,0.8-0.7,1c-0.6,0.9-0.7,1.3-0.7,1.4
		c0.1,7.2-2.7,12.9-8.1,16.7c0.1,0.3,0.1,0.7,0.2,1c0.5,2.4,0.9,4.5,1.8,5.9c4.6,7.6,3.1,15.4,1.6,20.6c-0.1,0.2-0.1,0.3-0.1,0.5
		c3.6,3.3,5,7.3,5.7,10.4c0.8,0.1,1.6,0.3,2.4,0.4c3,0.5,6.1,1,9.3,1.9c5.5,1.6,8.9,5,11.6,7.8c0.5,0.5,0.9,0.9,1.4,1.4
		c2.8,2.8,3.5,7.1,1.5,10.7c-1.6,3-4.4,4.7-7.8,4.7l-0.4,0c-3.1,0-5.6-0.9-7.6-1.5c-0.9-0.3-1.7-0.6-2.4-0.7
		c-2.4-0.5-4.9-0.9-7.2-0.9c-0.8,0-1.5,0.1-2.2,0.2c-0.9,0.1-1.8,0.2-2.8,0.2c-4.2,0-8.1-1.3-11.4-3.3c-0.5,1.3-1.2,2.8-2.3,4.2
		C259,472.2,252.7,472.9,248.4,472.9z"/>
	<path d="M204.5,22c0.5,0,1,0.2,1.6,0.5c2.1,1.2,4.4,1.3,6.5,2.7c0.2,0.2,0.5,0.2,0.9,0.2c0.9,0,2-0.3,3.2-0.3c0.4,0,0.7,0,1.1,0.1
		c3.2,0.9,6,3.6,5.8,7.1c-0.1,2.2,0.7,3.2,2.6,4.2c2.4,1.3,3.2,3.6,4.3,6.2c1.7,4.1,0.2,8.7,3.5,12.5c2,2.4,1.7,6.4,3,9.6
		c1.6,4,3.8,7.9,4.8,12c1.3,5.6,4.2,10.6,5.1,16.3c0.5,3.1,0,6.3,1.9,9.3c0.6,1,0.2,2.6-0.7,4c-2.1,3.1-4,6.5-5.5,9.9
		c-0.7,1.7-1.5,3.1-2.9,4.2c-2.4,1.9-2.7,4.3-1.9,6.8c0.6,1.7,0.2,2.9-0.5,4.3c-2.1,4-1.8,7.1,1.4,10.3c1.7,1.8,2.8,3.4,1.1,5.7
		c-0.3,0.4-0.5,0.9-0.1,1.3c2.4,3.3,0.6,6.7,0.1,10c-0.6,4.1-3.1,7.9-2.1,12.3c0.1,0.3,0,0.8-0.3,1.1c-3.5,3.1-4.7,7.7-8,11
		c-4,4.1-6,9.6-7.5,15.1c-0.5,1.9,1.9,4.1,3.4,4.3c8.8,1.4,15.7,6.9,23.5,10.3c3.6,1.6,7.6,2.2,11.4,3.2c3.6,0.9,7.1,2.3,11,2.3
		c0.1,0,0.1,0,0.2,0c0,0,0,0,0,0c0.7,0,1.6,0.4,2.3,1c3.8,3.3,7.9,5.7,13.3,5.9c4.5,0.1,7.9,3.6,11.8,5.5c4.1,2,7.1,5.4,9.4,9.2
		c0.3,0.6,0.6,0.8,0.8,0.8c0.5,0,0.7-0.7,1-1c1.7-1.8,2.6-4.2,3.8-6.3c3.9-6.9,5.6-14.7,8.5-22c0.6-1.5,1.2-3.1,2.2-4.4
		c7.2-9,11.9-19.2,13.9-30.5c0.3-1.9,1-3.6,1.7-5.4c0.9-2.2,1.9-4.4,1.6-6.8c0-0.3-0.1-0.7,0-0.9c3.2-4.9-1-8.5-2.2-12.7
		c-1.5-4.8-5.9-8-6.6-13.2c-0.1-0.8-1.1-1.4-2.2-1.4c0,0,0,0-0.1,0c-0.3,0-0.6,0-0.9,0c-0.9,0-1.7,0-2.6,0c-2.1,0-4.2,0.1-6.2,1.1
		c-0.9,0.4-1.9,0.7-2.9,0.7c-0.6,0-1.2-0.1-1.8-0.3c-0.2-0.1-0.5-0.1-0.7-0.1c-1.2,0-1.9,1.2-2.3,2.4c-0.9,2.4-0.7,5-2.1,7.3
		c-1.9,3.1-4.9,5-7.9,6.5c-6.3,3.1-10,8.3-13.9,13.8c-2.8,4-4.3,8.7-7.6,12.4c-0.6,0.6-1.4,1-1.8,1.7c-0.5,0.8-0.9,1.1-1.3,1.1
		c-0.6,0-1.1-0.8-1.7-1.4c-0.8-1-0.7-2.3-0.4-3.4c1.4-5.3,0.8-10.8,2.4-16.1c0.6-2-0.1-4.1-0.6-5.9c-0.8-2.8-0.7-5.7-1.3-8.5
		c-0.8-3.7,1.6-8.4,6-10.4c4.6-2,8.2-5.3,12.2-8.1c5-3.5,9.3-7.7,13.5-12c2.3-2.3,4.8-3.3,7.5-3.3c1.8,0,3.7,0.5,5.8,1.3
		c2,0.8,4.1,1.5,6.4,1.5c1.1,0,2.2-0.1,3.3-0.4c3.2-0.8,6.4-2,9.7-2c1.3,0,2.6,0.2,3.9,0.6c3.4,1.1,4.7,3.1,4.7,6.5
		c0,0.8-0.3,1.9,0.1,2.3c4.5,4.1,2.1,10.2,4.5,15c1.3,2.6,1.9,5.5,4,7.6c2.8,2.7,4.6,6.1,7,9c1.1,1.3,1.8,2.9,1,4.8
		c-1.9,4.7-1.7,9.9-3.8,14.5c-1.9,4-3.5,8.2-5.9,11.9c-2.4,3.7-2.8,7.8-3.3,11.9c-0.6,4.8-1.1,9.7-1.6,14.5
		c-0.1,0.5-0.3,1.3-0.7,1.5c-3.2,1.7-4.2,4.8-5.4,8c-1.3,3.3-4.2,5.2-6.9,7.5c-3.3,2.7-6.3,6.1-8.1,10.3c-2,4.9-1.9,10-2.8,15
		c-0.4,2-0.4,3.9-1.7,5.8c-0.9,1.4,0,3.2,0.9,4.8c1.7,3,2.7,6.1-0.7,8.9c-0.9,0.8-0.1,1.5,0.7,2c3.9,2.6,6.9,6.4,11,8.7
		c2,1.1,1.9,3.6,3.1,5.3c3.3,4.4,6.3,9.1,8.4,14.2c0.4,0.9,0.6,1.8,0.6,2.7c-0.4,8.4,2.6,15.5,6.9,22.5c2,3.3,3.2,5.2,6.7,5.2
		c0.5,0,1,0,1.6-0.1c0.4-0.1,0.8-0.1,1.3-0.1c3.4,0,6.4,1.8,8.3,5.8c2.5,5.3,5.2,10.4,7.1,16.2c2,6,1.8,12.2,3.2,18.2
		c0.5,2.4,1.8,4.4,2.9,6.4c2.4,4.2,4.1,8.6,7.4,12.3c3.5,4,1.4,14.4-3.1,17.4c-1.4,1-3.3,0.8-4.9,1.2c-0.1,0-0.1,0-0.2,0
		c-0.8,0-0.1-1.9-0.8-2.7c-1.2,0.1-1,1.3-1.2,1.9c-1.2,2.4-2.7,4-5.5,4.3c-0.2,0-0.5,0-0.7,0c-1.9,0-2.7-1-2-2.9c0.9-2.2,0.7-3-2-3
		c-3.5,0-9-5.5-10.5-8.8c-1.7-4.1-0.6-7.6,0.9-11.4c1.5-3.9,0.2-7.9-0.7-11.9c-1.8,4.3-4.1,8.4-3.6,13.3c0.2,2.1-0.8,4.4-1.3,6.6
		c-0.7,2.7-3,4-5.3,4.6c-5,1.3-8.4,4.1-11.1,8.4c-2.6,4.2-7.1,5.2-11.6,5.2c0,0-0.1,0-0.1,0c-2.6,0-5.3-0.6-7.9-1
		c-1.5-0.2-2.8-1.2-2.6-2.5c0.1-1.1,1.1-1.2,2.2-1.2c0.2,0,0.4,0,0.6,0c0.1,0,0.2,0,0.3,0c3.1-0.1,5.9-1.6,8.8-2.6
		c1.7-0.6,2.8-1.6,3.3-3.4c0.6-1.8,1.2-3.6,1.9-5.4c0.7,0,1.4-0.1,1.3-1.1c-0.2-0.1-0.4-0.1-0.5-0.1c-0.7,0-1.1,0.6-1.6,1.1
		c-5.9,2.4-12,4.5-18,6.7c-6,2.1-12,2.3-18,3.5c-0.4,0.1-0.9,0.3-1.3,0.6c-0.4,0.3-0.8,0.4-1.1,0.4c-0.9,0-1.6-0.9-2.2-1.5
		c-1.2-1.2,0.3-1.6,0.8-2.1c2.8-3.1,6.1-5.3,10.3-6.2c1.5-0.3,2.9-0.8,4.1-1.9c0.1,0,0.2,0,0.4,0c0.2,0,0.4,0,0.5,0
		c0.6,0,1.2-0.1,1.5-0.9c-0.5-0.1-0.9-0.3-1.4-0.3c-0.4,0-0.8,0.1-1.1,0.5c-4.5,1.4-9.4,0-13.8,2.2c-0.4,0.2-0.9,0.4-1.4,0.4
		c-0.7,0-1.4-0.3-1.7-1.2c-0.7-1.7,0.1-2.9,1.1-4c3.3-3.9,7.9-5.6,12.6-7c6.1-1.9,12.2-3.7,16.3-9.4c1-1.4,1.2-2.8,0.7-4
		c-1-2.6-1.6-5.2-2.1-7.9c-0.1-0.8-0.7-1.1-1.3-1.4c-7.3-3-11.1-9.4-15.3-15.5c-2.8-4.1-4.4-8.8-7.6-12.7c-3.1-3.8-3.3-9.1-5.3-13.6
		c-1,0.2-1.4,0.9-1.8,1.7c-0.9,1.7-2.5,2.7-4.1,2.9c-2.7,0.4-5.3,1.4-8,1.4c-0.5,0-1.1,0-1.6-0.1c-0.2,0-0.4,0-0.6,0
		c-2.5,0-4.3,2.3-6.9,2.5c-0.6,0-0.2,0.8-0.1,1.2c0.3,1.7,1.4,2.9,2.6,3.9c3.4,2.6,4.4,6.4,4.6,10.3c0.2,3.4,0.4,6.6,1.7,9.8
		c1,2.4,0.7,4.8-0.1,7.3c-1,3.2-1.6,6.6-2.4,9.9c-0.6,2.4-2.2,3.7-3.3,5.6c-1,1.7-1.8,3.2-1.8,5.3c0.1,6.1-2.5,10-8.3,12.3
		c-0.9,0.4-1,0.9-0.8,1.5c1.6,4.5,1.5,9.5,4.1,13.7c2.8,4.6,2.2,9.6,0.8,14.5c-0.9,3.1-0.8,5.7,1.8,8c2.9,2.5,3.8,6,4,9.7
		c0.1,1.7,1.3,2,2.7,2.3c4.6,1,9.3,1.3,13.9,2.6c4.3,1.2,6.9,4.5,9.8,7.4c0.4,0.4,0.6,1.1,0.2,1.8c-0.3,0.7-0.7,0.7-1.2,0.7
		c-0.1,0-0.2,0-0.4,0c-3,0-5.6-1.5-8.5-2.1c-2.9-0.6-5.8-1.1-8.7-1.1c-1.1,0-2.2,0.1-3.3,0.2c-0.5,0.1-1.1,0.1-1.7,0.1
		c-6,0-12-4.6-14.2-9.3c-0.4-0.8-0.5-1.7,0-2.5c1.6-2.5-0.6-2.6-2-3.5c-0.6-0.4-1.1-0.5-1.4-0.5c-0.9,0-1.1,1.1-1.5,2.2
		c-0.9,2.5-0.8,5.5-3.1,7.5c-0.5,0.4-0.2,0.8,0.2,1.2c0.7,0.8,1.4,1.6,2.1,2.3c2.2,2.3,1.9,4,0.1,6.5c-2.6,3.5-5.8,4.1-9.2,4.1
		c-1.7,0-3.5-0.2-5.2-0.2c-0.2,0-0.5,0-0.7,0c0,0,0,0,0,0c-0.8,0-1.4-0.9-1.6-1.8c-0.2-1.3,0.8-1.4,1.6-1.6c2.1-0.6,4.3-0.8,6.1-2.5
		c-0.4-0.3-0.6-0.7-0.9-0.9c-4.1-2.7-5.8-6.8-1.7-11.8c0.8-1,1.2-2,1-3.3c-0.2-1.6-0.6-2.5-2.1-2.5c-0.3,0-0.6,0-1,0.1
		c-2.6,0.5-5.4-0.2-7.8,1.5c-1.5,1.1-2.1,2-0.3,3.7c3.1,3.1,3.5,7.6,0.1,10.6c-4.3,3.8-9.2,4.8-14.3,4.8c-1,0-2.1,0-3.2-0.1
		c-3-0.2-6-0.3-9-0.3c-2.5,0-5,0-7.5,0.1c-0.2,0-0.4,0-0.6,0c-1.1,0-1.9-0.1-2.4-1c-0.6-1.4,0.5-2.3,1.6-2.8c4-1.9,7.9-3.5,12.6-3.5
		c0,0,0.1,0,0.1,0c0,0,0.1,0,0.1,0c4.1,0,8.2-0.8,12.2-1.9c1.4-0.4,1.3-0.8,0.5-1.7c-0.8-0.8-1.6-1.7-2.4-2.5c-1-1-2.3-1.7-1.3-3.6
		c0.2-0.4,0.3-2.2-1-2.2c-0.3,0-0.8,0.1-1.4,0.5c-3.1,1.9-6.3,3.8-9.7,5.2c-4.2,1.8-8.6,2-12.9,3c-3.6,0.8-7.2,1.8-11,1.8
		c-0.6,0-1.1,0-1.7-0.1c-0.1,0-0.2,0-0.3,0c-0.3,0-0.5,0.1-0.6,0.4c-0.2,0.5,0,0.9,0.5,1.1c0.9,0.5,1.7,1.2,1.1,2.2
		c-0.2,0.4-0.5,0.5-0.8,0.5c-0.5,0-1-0.4-1.5-0.5c-0.2-0.1-0.4-0.1-0.6-0.1c-0.2,0-0.4,0-0.6,0c-0.1,0-0.1,0-0.2,0
		c-4.7-0.3-6.7-2.9-5.7-7.6c-0.7,0.1-1.5,0.1-2.2,0.1c-2,0-4-0.3-6.1-0.3c-1.5,0-3.1,0.2-4.6,0.7c-0.3,0.1-0.5,0.1-0.7,0.1
		c-0.9,0-1.6-0.6-2.2-1.3c-0.8-1-0.1-1.7,0.5-2.5c2.6-3.5,5.7-5.4,10.3-6.1c7.8-1,15.2-3.2,21.8-8c4-2.9,8.5-4.9,13.7-4.9
		c0.6,0,1.2,0,1.8,0.1c0.4,0,0.9,0.1,1.4,0.1c1.9,0,3.9-0.3,5.8-0.6c0.8-0.1,1.8-0.3,2.3-1.7c1.1-2.8,4-1.6,6.1-2.3
		c1.3-0.4,2.4-0.8,3.5-1.6c2.9-2.2,6-4.2,9.4-5.8c2.7-1.2,3.1-3.8,2.8-6.2c-0.3-2.7-1.3-5.3-2-7.9c-0.3-1-0.7-1.8-1.5-1.8
		c-0.3,0-0.7,0.1-1.3,0.4c-0.3,0.2-0.7,0.2-1.1,0.2c-0.5,0-1-0.1-1.5-0.1c-1.2-0.1-1.9-0.3-1.3-2c1.7-4.2,1.9-5.1-1-5.1
		c-0.6,0-1.4,0-2.3,0.1c-2.7,0.2-5.4,1-8.1,1c0,0-0.1,0-0.1,0c-4.2,0-8.3-1-12.3-2c-3.7-0.9-7.4-1.4-11.2-1.9c-0.1,0-0.2,0-0.3,0
		c-1.3,0-2.2,0.8-3,1.3c-1.1,0.6-2.2,0.8-3.2,0.8c-2.6,0-5-1.5-7.5-2.3c-3.5-1.2-6.7-3.6-10.6-3.6c-0.4,0-0.9,0-1.4,0.1
		c-0.1,0-0.2,0-0.3,0c-0.9,0-2.2-0.6-2.2-1.6c-0.1-3-2.5-3.1-4.3-4.1c-3.2-1.7-2.9-5.1-3.2-8c-0.3-2.5-0.2-5,0.2-7.5
		c0.2-1.2-0.6-1.6-1.1-2.1c-0.1-0.1-0.3-0.2-0.4-0.2c-0.4,0-0.6,0.6-1,0.8c-3.1,1.7-5.6,4.2-8.9,5.7c-0.6,0.3-1.6,0.9-1.6,1.4
		c-0.6,4.7-4.5,7-7,10.3c-0.8,1.1-1.5,3.1-3.2,3.1c-0.4,0-0.9-0.1-1.5-0.4c0,0-0.1,0-0.1,0c-0.5,0-0.9,1.1-0.7,1.5
		c0.9,2.2-0.4,3.7-1.6,4.8c-1.6,1.4-1.8,3.5-3.2,5c-0.7,0.7,0,1.3,0.3,1.8c1.8,4,4.4,7.6,5.5,11.9c0,0.1,0.1,0.2,0.1,0.3
		c4.5,3.4,4.5,8,3.5,12.9c-0.2,1.1,0.1,2.2,0.5,3.4c1.7,6.1,1.9,12.4,2.2,18.6c0.1,2.4,1.7,4.5,0.8,7.2c-1.4,4.5-4.9,8.2-9.5,8.2
		c-0.5,0-0.9,0-1.4-0.1c-1.5-0.2-2.3,0.1-1.6-2.3c0.8-2.9,2.4-4,4.7-4.9c-1.2-1.5-2.3-3-3.4-4.4c-0.2-0.6-0.4-1.2-0.6-1.8
		c-1.5,1.4,0.1,2.8-0.3,4.1c-1.5,1.4-2.6,2.1-3.7,2.1c-1,0-2-0.5-3.4-1.3c-1-0.6-2.1-1.1-3.1-1.1c-0.8,0-1.6,0.3-2.4,0.9
		c-0.5,0.4-1.4,0.1-1.2,1.1c0.1,0.6,0.5,0.6,0.8,0.6c0,0,0.1,0,0.1,0c0.2,0,0.3,0,0.4,0c0.1,0,0.2,0,0.3,0c0.4,0,0.8-0.1,1.2-0.1
		c0.5,0,0.9,0.2,0.9,1.1c0.2,1.7-1.5,1.5-2.4,2c-0.2,0.1-0.4,0.1-0.6,0.1c-0.2,0-0.4,0-0.6,0c-0.3,0-0.7,0.1-0.9,0.4
		c1.3,1.5,3.7,2.1,3.5,4.7c-0.1,1.2-0.6,1.8-1.4,1.8c-0.3,0-0.5-0.1-0.8-0.2c-4.5-1.7-9.1-2.5-13.2-5.8c-3.2-2.6-8-3.4-12.5-3.5
		c-2.2-0.1-4.2-0.9-5.6-2.3c-2.8-2.8-6.6-4.3-8.4-8.1c-2-4.1-1.1-8.3,2.7-11c2.1-1.5,4.3-2.7,6.5-4c1.4-0.8,2.7-1,4.2-1
		c0.1,0,0.1,0,0.2,0c0.1,0,0.2,0,0.3,0c4.4,0,6.1-1.2,6.8-5.5c1.1-6.3,2.6-12.5,2.8-18.9c0-0.8,0-1.6-0.2-2.3
		c-1-4.4-0.6-5.6,3.2-8.3c2.6-1.8,3.4-5.4,1.4-7.9c-1.6-2.1-0.7-2.8,1-4.3c1.9-1.6,3.7-2.4,6.2-2.5c1.6,0,3.6-1.7,3.8-3.1
		c0.4-2.5,2.7-2.7,3.7-4.4c0.2-0.3,0.4-0.4,0.7-0.4c0.5,0,1.1,0.4,1.8,0.4c0.1,0,0.2,0,0.3,0c-1.2-2.1-0.6-3.4,0.7-5.4
		c1.3-1.9,3-3.6,4.1-5.8c0.9-1.9,2.4-3.8,3.9-5.5c1.7-2,3-4.2,3.6-6.9c0.4-2,1.9-3.5,2.5-5.6c0.4-1.3,1.6-1.5,2.8-1.5
		c0.4,0,0.8,0,1.1,0c0.3,0,0.6,0,0.8,0c1,0,1.6-0.2,0.6-2c-1.6-2.8,0.6-4.6,2.5-5.9c1.6-1.1,1.7-2.4,0.7-3.6
		c-2.6-2.8-5.1-5.7-6.6-9.4c-0.2,1.6-0.9,2.8-1.6,4c-0.7,1.1-1.8,1.7-3,1.7c-0.8,0-1.5-0.2-2.2-0.8c-2.9-2.3-4.4-5.5-5.7-8.8
		c-0.3-0.8-0.4-2.2,0.1-2.8c2.3-3.2,1.1-6.8,1.3-10.2c0.5-7.4-1-14.8-3.3-21.8c-1.6-5-0.7-9.3,0.8-13.9c0.9-2.7,2.2-5.2,3.7-7.7
		c2.2-3.9,4.4-7.7,6.8-11.5c1.3-2.1,1.7-5,2.2-7.7c0.6-3.6,1.2-7.3,3-10.5c1.7-2.8,0.2-5-0.8-7.3c-0.7-1.6-1.9-2.8-2.8-4.3
		c-1.9-3.3-3.5-4.8-6.4-4.8c-0.8,0-1.7,0.1-2.8,0.4c-2.7,0.6-5.5,0.4-8.2,0.9c-0.4,0.1-0.8,0.1-1.2,0.1c-3.1,0-5.2-2.4-6.6-5.6
		c-3.1-6.9-0.3-13.4,0.4-20.1c0.6-5.4,2.8-10.4,3.4-15.8c0.3-2.4,1.5-4.5,2.9-6.4c1.3-1.7,1.9-3.4,1.1-5.6c-0.5-1.4-0.4-2.9,0.8-4
		c1.5-1.5,0.9-2.6-0.6-3.7c-1.2-0.9-2.6-1.9-1.9-3.5c0.6-1.3,1.6-2.6,3.4-2.7c0.8,0,1.6-0.4,2.5-0.6c1.6-0.3,2.5-1.2,1-2.7
		c-1.1-1-1.6-2.4-2.3-3.6c-1.1-2.3-0.1-4.2,2.5-4.2c0.1,0,0.1,0,0.2,0c0,0,0.1,0,0.1,0c2,0,2.4-1.4,3.5-2.6c1.5-1.6,1-2.6,0-4.1
		c-2.2-3.7-0.8-6.1,3.6-7.4c3.9-1.2,7.8-2.5,10.2-6.2c0.4-0.6,1-0.9,0.9-1.7c-0.3-3,0.2-5.7,1.9-8.2c0.6-0.8-0.2-1.2-0.7-1.7
		c-1.3-1.3-2.5-2.6-4.3-3.4c-1.1-0.5-2.3-1.5-1.8-3c0.4-1.2,1.6-1.5,2.8-1.6c0.1,0,0.1,0,0.2,0c0.3,0,0.6,0,0.9,0
		c0.4,0,0.8-0.1,1-0.5c0.4-1-0.8-1.4-1.3-2c-0.6-0.8-1.4-1.4-2-2.1c-0.5-0.5-1.2-1.2-0.7-1.9c0.5-0.8,1.1-1.7,2.2-1.7
		c0.1,0,0.2,0,0.3,0c0.3,0,0.6,0.1,0.8,0.2c0.5,0.2,1,0.3,1.5,0.3c1.1,0,2.2-0.5,3.1-1.1c1.5-1-0.8-1.8-0.7-2.9
		c0.1-0.7-0.3-1.2-0.7-1.8c-3-4.7-3-4.7,2.3-5.7c4.8-0.9,6.3-4.1,3.7-8.1c-0.5-0.8-1-1.6-0.5-2.6c0.4-0.8,1.2-1.1,1.8-1.1
		c0.4,0,0.7,0.1,0.9,0.3c0.9,0.6,1.7,0.8,2.6,0.8c1.9,0,3.8-1.1,5.7-1.2c1.3,0,1.3-1.8,1.4-2.7c0-1.6-0.1-3.4-1.1-4.9
		c-0.7-1.1-1.6-2.2-0.4-3.3c0.6-0.5,1.2-0.7,1.9-0.7c0.7,0,1.4,0.2,2.1,0.7c1.7,1.1,3.3,1.8,5.2,1.8c0.5,0,1.1-0.1,1.7-0.2
		c2.5-0.5,4-2.2,3.3-4.8c-0.3-1.2-0.7-2.4-1.3-3.4c-0.5-1-0.9-2,0-2.8c0.6-0.5,1.3-1,2-1c0.4,0,0.7,0.1,1.1,0.4
		c0.7,0.6,1.4,0.7,2.1,0.7c1,0,2-0.3,3-0.3c0.5,0,1,0.1,1.4,0.3c0,0,0,0,0.1,0c0.2,0,0.6-0.3,0.9-0.5c1.2-0.9,3.1-7.4,2.3-8.6
		c-0.6-1-0.9-1.6,0-2.5c0.6-0.7,1.3-1.2,2.1-1.2c0.3,0,0.6,0.1,0.9,0.2c1.1,0.4,2.1,0.6,3.2,0.6c1.2,0,2.5-0.2,3.8-0.6
		c2.3-0.6,2.8-2.3,2.8-4C202.1,23.3,203.1,22,204.5,22 M385.5,402.9c0.5-2.2,0.1-3.7-1-5.4c-1.7-2.8-3.6-5.5-3.7-9.1
		c-0.2-3.3-0.8-6.9-3.5-9.9c-0.2,2.4-1.1,4.4-0.7,6.5c0.8,3.8,1.2,7.4-1,11c-0.7,1.2-0.5,2.6,1.7,3.3
		C380,400.1,382.8,401,385.5,402.9 M225,383.1L225,383.1c-0.1-0.1-0.2-0.1-0.2,0c-0.5-0.1-1-0.1-1.5-0.1c-1.5,0-3,0.4-4.8,0.9
		c1.1,0.1,1.8,0.2,2.4,0.2c1.1,0,1.9-0.3,4-0.9C224.9,383,224.9,383.1,225,383.1C225,383,225,383,225,383.1c0.2-0.1,0.5-0.1,0.8-0.1
		c0.1,0,0.1,0,0.2,0c0.2,0,0.4,0,0.6,0c0.3,0,0.6-0.1,0.7-0.7c0-0.2,0-0.5-0.1-0.5c-0.1-0.1-0.3-0.1-0.4-0.1c-0.4,0-0.7,0.4-1.1,0.5
		C225.3,382.3,224.8,382.4,225,383.1C225,383,224.9,383,225,383.1C224.9,383,225,383.1,225,383.1 M262,392c1.2-2.4,0.4-4.2-1.2-5.9
		C258.9,388.6,260.2,390.3,262,392 M345.8,395.1c1,0,1.9-1.6,2.4-2.2c0.7-0.9,2.8-0.2,2.1-2.3c0.4-1,0.1-1.3-0.5-1.3
		c-0.3,0-0.7,0.1-1,0.2c-0.8,0.3-1.5,0.8-2.1,1.4c-1,1.1-2.8,2.8-2,3.7C345.2,395,345.5,395.1,345.8,395.1 M389.1,406.4
		C389.1,406.4,389.2,406.4,389.1,406.4c1.5-0.1,1.3-2.2,1.4-3.4c0.1-1.3-1.3-1.7-2.5-2.2c-0.7,0.5-1,1.5-0.7,2.1
		C387.8,404.1,387.4,406.4,389.1,406.4 M102.2,446.6c0.5,0,0.9-0.6,1.4-1.4c2-2.9,2.5-6.5,6-9.4c-0.4,0-0.8-0.1-1.2-0.1
		c-3.6,0-5.9,1.9-8.5,2.8c-2.3,0.8-2.9,2.4-0.9,4.5c0.7,0.8,1.5,1.5,2,2.4C101.5,446.3,101.9,446.6,102.2,446.6 M119.7,443.9
		c1,0,1.1-0.9,1.4-3.4c0.7-0.4,0.9-1.4,0.6-1.6c-0.2-0.1-0.3-0.1-0.4-0.1c-0.4,0-0.7,0.5-0.8,1.1c-0.7,1.4-1.6,2.7-3.2,3.5
		C118.4,443.6,119.1,443.9,119.7,443.9 M203.9,440.9c0.7-0.2,1.5-0.3,2-1.5c-1.2,0-2,0-2.3,1.1C203.5,440.6,203.7,440.8,203.9,440.9
		 M204.5,7C204.5,7,204.5,7,204.5,7c-5.8,0-10.8,2.7-13.9,7.1c-3.4,0.2-8.2,1.4-12.5,6.1c-1.5,1.6-2.7,3.7-3.6,6
		c-2.4,0.5-5.1,1.7-7.9,4c-1.7,1.4-3.2,3.3-4.2,5.5c-3.3,0.5-6.5,2-9,4.3c-2.4,2.1-4.3,5-5.1,8.4c-3.9,1.5-7.2,4.4-9.2,8.3
		c-0.7,1.4-1.5,3.4-1.7,5.8c-2.4,1.5-4.7,3.7-6.1,7.2c-1,2.2-1.3,4.3-1.3,6.3c-0.7,0.8-1.3,1.6-2,2.6c-1.8,2.8-3,6.7-2.4,10.9
		c-0.1,0.2-0.2,0.4-0.2,0.6c-1.7,5.3-0.8,10.7,2.2,15c-7.8,2.8-11.2,7.8-12.7,11.6c-0.6,1.4-1.1,3.5-1.2,6c-1.2,1.1-2.3,2.3-3.1,3.8
		c-1.8,2.9-2.7,6.3-2.6,9.6c-1.2,1.5-2.2,3.1-3,5c-0.6,1.5-2.8,7.5,0.3,13.9c-0.1,1-0.1,2,0,3c-2,3.4-3.3,6.9-3.7,10.4
		c-0.2,1.6-0.7,3.5-1.3,5.7c-0.8,3-1.7,6.3-2.1,10.1c-0.1,1.2-0.4,2.5-0.7,4c-1.1,5.8-2.7,14.4,1.4,23.9
		c5.8,13.1,16.1,14.5,20.3,14.5c1.3,0,2.6-0.1,3.9-0.3c0.4-0.1,1.3-0.1,2.1-0.2c0.1,0,0.2,0,0.2,0c-0.9,2.9-1.4,5.7-1.7,8l-0.1,0.6
		l-0.1,0.7c-0.1,0.7-0.3,1.7-0.4,2.3c-2.1,3.4-4.1,6.8-6,10.1l-0.7,1.1c-2.2,3.8-3.7,7-4.9,10.4c-2,5.9-3.9,13.9-0.9,23.3
		c2,6.3,2.9,11.6,2.6,16.2c-0.1,1.9,0,3.5,0,4.8c0,0,0,0.1,0,0.1c-2.5,5.1-1.9,10.8-0.3,14.7c1.4,3.6,4.1,10.2,10.5,15.1
		c0,0,0.1,0.1,0.1,0.1c-0.1,0.2-0.1,0.3-0.2,0.5c-0.1,0.1-0.1,0.2-0.2,0.3c-0.8,1.4-2.1,3.8-2.9,7c-0.1,0.1-0.2,0.3-0.4,0.5
		c-1.8,2.1-4.1,5-5.8,8.5c-0.2,0.2-0.6,0.7-0.9,1.1c-0.7,0.8-1.5,1.8-2.3,3.1c-0.8,1.2-1.5,2.4-2,3.5c-0.1,0.1-0.1,0.2-0.2,0.2
		c-1,0.7-2.4,1.9-3.7,3.6c-3,1-5.8,2.6-8.5,4.8l-0.1,0.1c-1.6,1.3-4.5,3.8-6.2,8.2c-0.6,1.5-1.4,4.6-0.8,8.2
		c-4,4.9-5.2,10.6-3.8,17.7c-0.1,3.2-0.7,6.6-1.4,10.3c-1.9,0.5-3.7,1.2-5.4,2.2l-0.6,0.3c-2.2,1.3-4.7,2.7-7.2,4.5
		c-9.6,6.9-12.7,19.1-7.4,29.8c2.8,5.7,7,8.9,9.8,11c0.5,0.4,1.3,1,1.5,1.2c4.2,4.2,9.8,6.6,15.9,6.7c2.2,0.1,3.3,0.3,3.7,0.5
		c5.1,4,10.3,5.7,14.2,6.9c1,0.3,2,0.6,2.8,1c2,0.8,4.1,1.1,6.1,1.1c3.8,0,7.2-1.3,10-3.4c0.5,0.1,1,0.2,1.5,0.2l0.1,0
		c1.2,0.2,2.4,0.3,3.6,0.3c8.5,0,16-4.4,20.7-11.8c3.4,2.1,6.8,2.5,8.9,2.5c1,0,2.1-0.1,3.1-0.3c2.3,2.7,6.8,6.4,14.5,7.1
		c1.3,0.4,2.9,0.7,4.7,0.7c1.4,0,2.7-0.2,4-0.5c2.5,2.5,6.5,5,12.7,5c0.3,0,0.6,0,0.9,0c2.6-0.1,4.9-0.1,7.2-0.1
		c3.1,0,5.6,0.1,8,0.2c1.5,0.1,2.9,0.2,4.2,0.2c3.4,0,6.5-0.3,9.4-1c3,2.9,7,4.7,11.4,4.7c0.1,0,0.3,0,0.4,0c0.1,0,0.2,0,0.3,0
		c0.5,0,1.2,0,2,0.1c1,0,2.1,0.1,3.3,0.1c8.8,0,15.7-3.1,20.7-9.3c2.7,0.8,5.5,1.3,8.3,1.3c1.3,0,2.6-0.1,3.9-0.3
		c0.3-0.1,0.7-0.1,1.1-0.1c1.6,0,3.7,0.4,5.8,0.8c0.3,0.1,1,0.3,1.5,0.5c2.2,0.7,5.6,1.8,9.7,1.9l0.1,0c0.2,0,0.4,0,0.5,0
		c6.2,0,11.6-3.3,14.5-8.7c3.5-6.6,2.3-14.5-2.9-19.6c-0.4-0.4-0.8-0.8-1.3-1.3c-3-3.1-7.5-7.7-15-9.8c-2.8-0.8-5.5-1.3-7.9-1.7
		c-0.8-2.1-1.9-4-3.2-5.7c0.6-2.8,1.1-6.5,0.8-10.6c0.6,0.8,1.2,1.6,2,2.3l0,0c3.7,3.8,7.9,5.8,12.7,5.8c2.5,0,4.9-0.6,7.2-1.6
		c1.1-0.2,2.3-0.4,3.6-0.5c0.2,0,0.4-0.1,0.6-0.1c2.8,3.1,6.7,5.3,11.3,6c0.6,0.1,1.2,0.2,1.9,0.3c2.2,0.4,4.9,0.8,8,0.9l0.2,0
		c13.9,0,21-6.7,24.4-12.3c0.8-1.2,1.2-1.5,1.7-1.7c1.6,1.6,3.4,3,5.3,4.2c0.4,0.8,0.8,1.5,1.3,2.3c3.2,4.7,8.4,7.4,14.4,7.4
		c0.7,0,1.5,0,2.2-0.1c2.6-0.3,6.6-1.2,10.4-3.9c1.9-0.3,5.6-0.9,9.2-3.3c5.9-4,10-11.4,11.1-19.8c1-7.8-0.8-14.8-5.2-19.8
		c-1.2-1.3-2.2-3.4-3.5-5.8c-0.7-1.3-1.4-2.6-2.2-4l-0.4-0.7c-0.3-0.6-0.8-1.4-1-1.8c-0.4-1.7-0.6-3.7-0.8-5.8
		c-0.5-4-1-8.6-2.7-13.6c-1.8-5.6-4.1-10.3-6.4-15c-0.5-1-0.9-2-1.4-2.9c-4-8.4-11.3-13.6-19.8-14.3c-2.6-4.7-3.7-8.2-3.5-11.9
		c0.1-3.1-0.4-6.1-1.7-9.2c-2.2-5.3-5.2-10.5-9.4-16.2c-0.9-2.5-3.1-7.5-8.8-10.6c-0.4-0.2-1-0.7-1.7-1.3c0-0.3,0-0.6,0-0.8
		c-0.1-3.1-0.8-5.8-1.7-8.1c0.3-1.3,0.5-2.4,0.6-3.3c0-0.3,0.1-0.5,0.1-0.8c0.4-2.1,0.6-4.2,0.9-6c0.3-2.5,0.6-4.8,1.1-6.1
		c0.6-1.4,1.8-2.9,3.6-4.3c0.3-0.3,0.6-0.5,0.9-0.7c3.2-2.5,8-6.3,10.6-13l0.3-0.8c0.1-0.2,0.2-0.4,0.3-0.7
		c3.5-2.7,5.8-6.8,6.4-11.7c0.2-2,0.5-4.1,0.7-6.1c0.3-2.8,0.6-5.5,0.9-8.2l0.1-1c0.2-1.7,0.5-4.1,0.9-4.6c2.4-3.7,4-7.3,5.5-10.6
		c0.5-1.1,0.9-2,1.4-3c2-4.2,2.7-8.2,3.3-11.4c0.3-1.5,0.6-3.1,0.9-3.9c2.7-6.8,1.4-14.3-3.5-20.1c-0.6-0.7-1.3-1.6-2-2.7
		c-1.3-1.9-3-4.2-5.2-6.5c-0.1-0.2-0.2-0.5-0.3-0.8c-0.3-0.8-0.7-1.9-1.3-3c-0.1-0.4-0.1-1-0.1-1.5c-0.3-3-0.7-7.9-3.4-12.8
		c-1-8.4-6.3-14.8-14.7-17.6c-2.8-1-5.8-1.4-8.8-1.4c-4.7,0-8.7,1.1-11.7,2c-0.5,0.1-1,0.3-1.4,0.4c-0.1,0-0.3-0.1-0.6-0.2
		c-3.9-1.7-7.8-2.5-11.6-2.5c-6.8,0-13.1,2.7-18.1,7.8c-4,4-7.6,7.6-11.5,10.2c-1.3,0.9-2.5,1.8-3.7,2.7c-2.3,1.7-4.2,3.2-6,4
		c-10.7,4.7-16.9,16.5-14.6,27.3c0.1,0.5,0.2,1.4,0.3,2.2c0.2,1.9,0.5,4.3,1.2,7l0,0.1c-0.8,3.3-1,6.4-1.2,9c-0.2,2-0.3,3.9-0.7,5.2
		c-2.2,8.3,1.1,14,3.3,16.7l0.1,0.1c4.5,5.7,9.7,6.8,13.2,6.8c2.5,0,8.2-0.7,12.7-6.2c0.5-0.4,1-0.9,1.6-1.5
		c3.2-3.5,5.1-7.2,6.7-10.1c0.7-1.4,1.4-2.7,2-3.6c3.3-4.7,5.5-7.6,8.3-9c6.2-3.1,10.8-7,13.9-12c0.2-0.4,0.4-0.7,0.6-1.1
		c0.3,0.5,0.6,0.9,0.8,1.2c0.6,1.8,1.3,3.4,1.9,4.6c-0.3,1.3-0.5,2.7-0.4,4.3c-0.1,0.2-0.2,0.4-0.2,0.5c-0.1,0.2-0.2,0.5-0.3,0.8
		c-0.8,2.1-1.9,4.9-2.5,8.3c-1.6,8.8-5.1,16.6-10.9,23.8c-2.3,2.9-3.5,5.8-4.2,7.7l-0.2,0.4c-1.2,3-2.1,5.9-3.1,8.7
		c-0.2,0.7-0.5,1.5-0.7,2.2c-0.4-0.2-0.7-0.5-1.1-0.7c-3.5-2.2-8.7-5.6-16-5.8c-0.5,0-1.3,0-4-2.3c-3.5-2.9-7.7-4.6-12-4.6
		c-0.1,0-0.1,0-0.2,0v0c0,0,0,0,0,0c-0.8,0-2.6-0.5-4.1-1c-1-0.3-2.1-0.6-3.2-0.9c-1.2-0.3-2.3-0.5-3.3-0.8c-2.2-0.5-4.3-1-5.7-1.6
		c-2-0.9-4.2-2.1-6.5-3.3c-2.1-1.2-4.4-2.4-6.8-3.6c2-2.4,3.5-4.8,4.5-6.6c0.5-0.8,1.1-1.9,1.4-2.3c3.9-3.5,5.8-9,5.1-14.2
		c0.1-0.4,0.3-0.9,0.4-1.4c0.6-1.8,1.3-4.1,1.7-6.9c0-0.1,0.1-0.6,0.2-1c0.6-2.3,1.6-6.7,0.6-11.7c0.7-4.2,0-8.9-3.2-13.6
		c0.7-2.2,1-4.5,0.9-6.7c1.5-2.1,2.5-4.1,3.2-5.7c1.1-2.4,2.5-5,4.2-7.6c4.1-6.1,4.6-13.3,1.6-19.1c0-0.3,0-0.6-0.1-0.8
		c-0.1-1.1-0.2-2.4-0.4-3.9c-0.7-4.8-2.2-8.8-3.5-12.3c-0.7-1.9-1.4-3.8-1.8-5.3c-1-4.1-2.6-7.5-3.9-10.5c-0.5-1.2-1-2.3-1.4-3.3
		c-0.1-0.3-0.2-0.9-0.3-1.4c-0.5-2.7-1.3-7.1-4.2-11.2c0-0.2,0-0.4-0.1-0.6c-0.2-2.2-0.6-5.6-2-9.2l-0.1-0.4c-1-2.5-2.7-6.6-6.3-10
		c-2-7.5-8-13.6-16.2-15.8c-1.6-0.4-3.3-0.7-5-0.7c-0.4,0-0.7,0-1,0c-0.8-0.3-1.5-0.5-2-0.7c-0.2-0.1-0.4-0.1-0.6-0.2
		C210.4,7.8,207.5,7,204.5,7L204.5,7z M292.4,379.9c0.1-0.4,0.3-0.9,0.4-1.4c0.4-1.4,0.7-2.8,1-4.2c0.4-1.8,0.8-3.6,1.2-5
		c0.4-1.4,1.4-4.6,1.4-8.7c2.7,4,6,8.9,10.9,13.1c-0.7,0.2-1.4,0.4-2.1,0.7l-0.1,0C302,375.3,297.2,376.8,292.4,379.9L292.4,379.9z
		 M147.5,394.7c1.5-1.2,2.9-2.8,4.3-4.8c0.9,0.9,2,1.7,3.3,2.5c3,4.9,8.5,8.2,14.8,8.2c0.3,0,0.7,0,1,0c0.4,0.2,0.9,0.4,1.3,0.6
		c1.4,0.7,3.2,1.5,5.2,2.2c0.2,0.1,0.8,0.3,1.2,0.5c2.4,1,6.1,2.5,10.9,2.5c2.9,0,5.8-0.6,8.5-1.7c2.2,0.3,4.1,0.7,5.8,1.1
		c4,1,8,1.9,12.3,2.2c-2.9,0.8-5.2,2-6.9,3.5c-0.9-0.1-1.7-0.1-2.6-0.1c-7.9,0-15.4,2.6-22.5,7.8c-3.7,2.7-8.5,4.4-14.9,5.3
		c-5.1,0.7-9.5,2.4-13.4,5.1c-0.3-2.7-0.8-5.4-1.5-8.2c1.4-10.1-1.7-17-5.7-21.6c-0.6-1.4-1.2-2.7-1.8-3.9
		C147,395.6,147.3,395.2,147.5,394.7L147.5,394.7z M280.8,405.1c0.2-0.2,0.4-0.4,0.6-0.6c0.1,0.3,0.2,0.6,0.3,0.8
		c0.2,0.4,0.3,0.7,0.5,1.1c0,0.3-0.1,0.6-0.1,0.9c0,0,0,0,0,0c-0.3-0.7-0.7-1.4-1.1-2C280.9,405.3,280.8,405.2,280.8,405.1
		L280.8,405.1z M338.5,384.8L338.5,384.8L338.5,384.8L338.5,384.8z"/>
</g>
</svg>
