<?xml version="1.0" encoding="utf-8"?>
<!-- Generator: Adobe Illustrator 24.1.0, SVG Export Plug-In . SVG Version: 6.00 Build 0)  -->
<svg version="1.1" id="Livello_1" xmlns="http://www.w3.org/2000/svg" xmlns:xlink="http://www.w3.org/1999/xlink" x="0px" y="0px"
	 viewBox="0 0 474 405.9" style="enable-background:new 0 0 474 405.9;" width="50" height="50" xml:space="preserve">
<style type="text/css">

		.Stile_x0020_grafica{fill:#FEFEFE;stroke:#000000;stroke-width:15;stroke-linecap:round;stroke-linejoin:round;stroke-miterlimit:10;}
	.st0{fill:#FEFEFE;}
</style>
<g>
	<path class="st0" d="M209.3,393c-3.4,0-6.7-0.2-10-0.4c-2-0.1-3.8-0.2-5.7-0.3c-6.3-0.2-12.5-1.3-18.6-3.1
		c-10.6-3.2-20.7-7.6-30.1-12.9c-7-4-11.7-9.8-15.8-14.9c-0.5-0.6-1-1.3-1.6-1.9c-3.2-3.9-5.7-7.7-7.7-11.4c-1.1-2-1.7-3.9-2.3-5.6
		c-0.3-0.8-0.5-1.5-0.8-2.2c-2.5-6.3-4.2-12.7-5-18.9c-0.8-6.4-0.4-12.4,0.1-18.2c0.1-1.6,0.2-3.2,0.3-4.9
		c0.3-5.9,1.5-11.6,2.7-17.3c1.5-7.2,4.2-14.6,8.2-22.8c4.8-9.9,12.1-17.8,18.5-24.8c1.3-1.5,2.7-2.7,4.1-4
		c-0.2-1.1-0.4-2.2-0.6-3.3c-0.8-4.4-1.6-8.6-2.9-12.5c-1.3-4-1.9-8.1-2-12.3c0-0.3,0-0.6,0-0.8c-0.6-0.2-1.2-0.5-1.7-0.8
		c-0.5-0.3-1.1-0.6-1.6-0.9c-2.5-1.5-5.3-3.1-8-5.5c-0.4,0.2-0.8,0.5-1.3,0.7c-0.1,0.1-0.2,0.1-0.3,0.2c-1.5,0.9-3.2,1.4-4.9,1.4
		c-3.3,0-6.2-1.8-8.1-4.8c-0.2-0.4-0.9-1-1.5-1.6c-1.1-1.1-2.6-2.5-3.8-4.5c-2.9-4.1-1.6-7.6-0.9-9c0.1-0.3,0.1-1.4,0.1-2.2
		c0-1,0-2.1,0.1-3.3c0.5-5.7,3.3-9.8,6.2-13.4c0.2-0.3,0.4-0.6,0.6-0.8c0.4-0.6,1-1.3,1.6-1.9c-0.5-5.8,0.2-10.9,2.2-15.3
		c-1.6-0.8-3-1.9-4.2-3.3c-2.5-2.8-3.7-6.2-3.4-9.5c0.5-4.4,3.3-7.3,5.3-9.3l0.4-0.4c4.2-4.3,9.1-6.6,14.5-6.8
		c2-4.6,5.3-7.6,6.6-8.7c1.8-1.6,3.8-3.1,6-4.5c-0.1-3.3,0.3-7.3,2-11.3c0-0.3-0.1-0.7-0.1-1.1l0-0.7c0-3.5-0.1-7.4,0.7-11.4
		c1.9-9.3,6.5-16.6,13.8-21.7l0.5-0.4c0.6-0.4,1.3-0.9,2.1-1.4c1.8-8.4,8.5-12.6,10.8-14c1.6-1,2.9-2.2,4-3.9
		c2.6-3.8,6.4-6,11.2-6.4c1.4-1,2.7-1.8,3.9-2.4c0.8-0.4,1.5-0.8,2-1.2c1.5-1.2,3.4-1.8,5.3-1.9c1.2,0,2.6-0.6,4.4-1.3
		c2.3-0.9,4.9-1.9,8.1-2.2c1.3-0.1,2.7-0.4,4.2-0.7c2.4-0.5,5.2-1,8.2-1c1.6,0,3,0.1,4.5,0.4c1.3,0.3,2.6,0.5,4,0.7
		c4.2,0.7,9,1.4,13.6,3.7c0.2,0.1,1,0.2,1.6,0.3c1.6,0.3,3.7,0.6,5.9,1.8c3.8,2,8.1,3.8,13.1,5.5c9.1,3.2,15.1,9.2,20.9,15.1
		l0.4,0.4c0.9,0.9,1.7,1.8,2.6,2.7c2.3,2.4,4.4,4.7,6.8,6.3c4.1,2.9,6.8,7,8.9,10.6c0.7,1.3,1.6,2.6,2.4,4c1.6,2.5,3.2,5,4.5,7.9
		c2,4.1,3.3,7.8,4.1,11.6c0.6,2.6,1.1,5.2,1.6,7.8c0.7,3.9,1.4,7.5,2.5,11.1c3.3,11.2,4.5,22.2,3.7,32.7c-0.5,5.8-2.1,10.7-4.9,15
		c-1.3,2-2.5,4.6-3.5,7.5c-0.9,2.7-2.1,5.2-3.8,7.5c0.4,0.5,0.8,0.9,1,1.2c4.2,3.5,5,11.1,3,15.6c0,5.3,0,10,0.4,14.7c0,0,0,0,0,0
		c3.2,8.5-1.4,13.3-3.6,15c-0.5,0.4-1.1,1.1-1.7,1.8c-1.2,1.4-2.6,3.1-4.7,4.5c0,0,0,0.1-0.1,0.1c0.4,0.6,1.4,1.1,4.2,2.2
		c0.5,0.2,0.9,0.4,1.3,0.6c2.2,0.9,6.2,2.7,8.2,7.4c0.1,0.2,0.4,0.7,0.6,1c0.8,1.3,2.2,3.6,2.6,6.5c1.1,1.3,2.1,3.1,2.5,5.6
		c0.2,0.3,0.8,1.1,1.2,1.6c0.7,0.9,1.6,1.9,2.4,3.2c1.7,2.7,3.8,5.8,6.5,7.8c4.1,3.1,4.1,7.6,4.1,9.3c0,0.1,0,0.2,0,0.3
		c0.3,1.5,0.9,4.3-0.3,7.3c1.6,4.1,3.5,9.2,4.7,14.6c0.7,3.3,0.8,6.6,0.8,9.5c0,0.9,0,1.8,0.1,2.7c0.1,1.6-0.3,3-0.9,4.1
		c1.1,0.8,3,2.5,3.8,5.4c0.6,2.3,1.6,4.7,2.6,7.2c1.1,2.6,2.2,5.3,3,8.2c0.5,1.6,0.7,1.8,0.9,1.9c3.4,1.7,4.4,4.7,4.8,5.8
		c1.2,3.6,2.6,7.3,4.5,10.7c1.7,3,1.1,5.6,0.7,6.9c-0.8,2.2-2.3,3.8-4.6,4.8c-4.9,2.9-10,3.3-14.1,3.6c-1.5,0.1-3,0.2-4.3,0.5
		c-4.2,0.7-8.6,1.5-12.3,2.9c-2,0.8-4.2,1.1-6.6,1.1l0,0c-1.4,0-2.7-0.1-3.8-0.2c-0.6-0.1-1.2-0.1-1.9-0.1l-0.5,0
		c-2.8-0.1-5.4-0.3-8.1-0.3c-3.9,0-7,0.3-9.9,0.9c-4.6,1-9.1,1.6-13.4,2.2c-0.7,0.1-1.6,1.1-2.1,1.8c-3,3.6-6.2,6.7-9.5,9.1
		l-1.1,0.8c-5.4,4-11.4,8.5-19.1,10.6c-6.3,1.8-12.6,3.1-19.6,4.4c-5.8,1.1-11.5,1.7-17,2.1c-1,0.1-2,0.2-3,0.3
		C213.7,392.9,211.6,393,209.3,393z M343.8,305.4L343.8,305.4z M179,198.6c0.1,0.2,0.2,0.5,0.2,0.8c0.2,0.5,0.3,0.9,0.4,1.4
		c0.3,0.9,1,3.4,0.1,6.1c-0.4,1.3-0.7,2.6-1,4c0.5-0.3,0.9-0.5,1.4-0.8c1.1-0.6,2.9-1.5,3.2-2c0,0,0-0.1,0-0.3
		c0.1-1,0.3-1.8,0.6-2.5c-1.1-1.4-2.6-3.5-3-6.4c-0.6-0.2-1.3-0.4-1.9-0.5C179,198.4,179,198.5,179,198.6z"/>
	<path d="M225,20.4c1,0,2,0.1,3,0.3c5.3,1.1,10.9,1.4,15.9,3.8c2.3,1.1,5,0.8,7.3,2c4.5,2.4,9.3,4.3,14.1,5.9
		c7.6,2.7,12.9,8.1,18.4,13.7c3.3,3.4,6.4,7.1,10.4,9.9c2.9,2,4.9,5.1,6.6,8.2c2.2,3.8,4.8,7.4,6.7,11.4c1.5,3.3,2.8,6.5,3.6,10.1
		c1.5,6.4,2.3,12.9,4.1,19.3c2.9,9.8,4.2,19.7,3.4,29.9c-0.3,4.1-1.4,8-3.7,11.6c-1.8,2.8-3.2,6-4.3,9.2c-1.1,3.1-2.7,5.8-4.8,8.2
		c-1.1,1.2-1.3,2.2-0.1,3.5c1.6,1.6,2.7,3.6,4.4,5.1c1.4,1.2,1.8,5.3,1,6.8c-0.4,0.7-0.6,1.6-0.6,2.3c0,5.4,0,10.9,0.4,16.3
		c0.1,0.6,0.2,1.2,0.4,1.7c0.9,2.3,1.1,4.7-1.1,6.3c-2.4,1.8-3.8,4.6-6.4,6.3c-2,1.3-2.7,3.8-3.6,6c-0.2,0.5,0.4,1.1,0.6,1.6
		c1.4,5.1,5.9,6.5,10.1,8.2c1.8,0.8,3.4,1.5,4.2,3.4c1,2.5,3.6,4.6,2.3,7.8c-0.3,0.7,0.2,1,0.7,1.1c1.5,0.3,2,1.3,2.2,2.7
		c0.5,3,3.1,4.9,4.6,7.3c2.3,3.6,4.8,7.2,8.4,9.8c1.6,1.2,0.8,3.4,1.2,5.1c0.3,1.4,0.7,2.9-0.6,4.3c-0.5,0.6-0.4,1.9,0,2.9
		c2,4.9,3.8,9.9,5,15.1c0.8,3.5,0.6,7.2,0.7,10.8c0,0.8-0.8,1.3-1.2,1.8c-2,2.4-1.9,3.3,0.3,5.4c0.9,0.8,1.8,1.6,2.7,2.3
		c0.6,0.4,1.1,0.8,1.3,1.5c1.4,5.4,4.1,10.2,5.6,15.5c0.8,3,2.1,5.2,4.8,6.5c0.7,0.4,0.9,0.9,1.1,1.6c1.4,4,2.9,8,5,11.8
		c0.6,1.1-0.3,1.1-0.9,1.5c-5,3.1-10.7,2.4-16.1,3.3c-4.6,0.8-9.3,1.6-13.7,3.3c-1.3,0.5-2.7,0.7-4,0.7c-1.8,0-3.6-0.3-5.4-0.4
		c-3-0.1-5.9-0.3-8.9-0.3c-3.8,0-7.6,0.2-11.4,1c-4.2,0.9-8.5,1.5-12.8,2.1c-2.8,0.4-5,2.1-6.9,4.4c-2.4,2.9-5.1,5.6-8.1,7.9
		c-5.5,4.1-10.9,8.3-17.7,10.2c-6.3,1.8-12.6,3-19,4.3c-6.4,1.3-12.8,1.7-19.2,2.3c-1.9,0.2-3.9,0.3-5.8,0.3
		c-5.1,0-10.3-0.5-15.4-0.7c-5.7-0.2-11.3-1.2-16.7-2.8c-9.9-3-19.5-7.1-28.5-12.3c-6.6-3.7-10.7-9.5-15.2-15.1
		c-2.6-3.2-5-6.6-6.9-10.2c-1.2-2.3-1.8-4.7-2.7-7.1c-2.2-5.5-3.7-11.2-4.5-17.1c-0.9-7.3,0-14.5,0.4-21.7
		c0.3-5.5,1.4-10.9,2.5-16.2c1.5-7.3,4.3-14.3,7.6-21.1c4.3-8.8,10.7-15.9,17.2-23c1.7-1.9,3.7-3.5,5.6-5.3c0.7-0.6,1.2-1.3,0.9-2.3
		c-1.4-6.5-2.3-13.2-4.3-19.5c-1.1-3.4-1.6-6.7-1.6-10.1c-0.1-4.5,1.3-8.6,3.3-12.5c1.1-2.1,0.9-4.2,1.3-6.3c0.6-4-0.8-7.2-3.2-10.3
		c-2-2.5-2.4-5.8-2.7-8.9c-0.2-1.6,0.2-3.8-0.7-4.8c-0.3-0.3-0.9-0.4-1.6-0.4c-0.9,0-2.1,0.2-3,0.2c-1.1,0-2.1,0-3.2,0.3
		c-2.9,0.6-3.1,1.5-1.2,3.7c1.8,2,2.6,4.3,1.5,7.1c-0.3,0.7-0.4,1.4-0.6,2.2c-0.9,3.5-0.4,3.7,3,5c3.1,1.2,6.3,2.7,7.7,6.2
		c0.1,0.1,0.1,0.3,0.2,0.4c4.5,3.5,0.2,6.5-0.6,9.6c-0.2,0.7-0.9,1.2-1.9,1.2c-0.1,0-0.2,0-0.3,0c-1.1-0.1-2.4-0.1-3.3-0.7
		c-4.3-2.6-8.8-4.8-11.5-9.5c-2.6-4.5-2-9-1.1-13.6c0.1-0.7,0.3-1.3,0.2-2c-0.1-1.3-0.4-2.8-1.5-3.2c-0.1,0-0.2-0.1-0.3-0.1
		c-0.9,0-1.5,1.2-2.3,1.9c-1.4,1.3-2,2.9-1.9,4.8c0.1,1.3,0.1,2.2,1.4,2.9c1.2,0.7,2.2,2.1,1.7,3.6c-0.6,2-0.6,3.9-0.3,5.8
		c0.3,2.5-1.9,2.7-3.4,3.6c-0.4,0.2-0.7,0.3-1,0.3c-0.7,0-1.3-0.5-1.6-1.2c-1.4-2.4-3.9-3.9-5.3-6.2c-0.3-0.5-0.8-1-0.6-1.4
		c1.4-2.7,0.8-5.6,1-8.4c0.3-3.7,2.4-6.6,4.6-9.4c1.2-1.5,2.3-3.3,4.1-4.3c0.6-0.3,0.2-0.7,0.1-1.1c-1.3-8-0.3-15.3,6.4-20.8
		c2.8-2.3,5.6-4.7,8.5-7c0.5-0.4,1.2-0.7,0.6-1.6c-0.3-0.5-0.5-1.1-1.2-1.1c-0.1,0-0.2,0-0.3,0c-0.2,0-0.5,0.1-0.7,0.1
		c-1.1,0-2.3-0.4-3.4-0.4c-0.3,0-0.7,0-1,0.1c0,0.5,0.2,0.9,0.7,1.1c1.5,0.5,1.5,1.5,1.1,2.7c-0.4,1.2-1.1,2.1-2.3,2.1
		c-0.1,0-0.2,0-0.3,0c-0.4,0-0.7-0.1-1.1-0.1c-2,0-3.8,0.6-5.8,1.2c-0.4,0.1-0.8,0.2-1.2,0.2c-3,0-6.1-3.2-5.8-5.9
		c0.2-2,2.1-3.7,3.6-5.2c2.8-2.9,6.1-4.5,9.8-4.5c1.1,0,2.3,0.1,3.5,0.4c0.3,0.1,0.5,0.1,0.8,0.1c0.5,0,1-0.3,1-1.3
		c0.3-4.2,2.7-7.2,5.7-9.9c2.2-2,4.7-3.7,7.4-5.1c1.2-0.6,1.4-1.3,1.3-2.5c-0.4-4.2-0.3-8.3,1.9-12.1c0.6-1.1-0.1-1.9-0.1-2.8
		c0-3.6-0.1-7.1,0.6-10.6c1.4-7,4.8-12.9,10.8-17.1c1.1-0.8,2.1-1.6,3.4-2.1c1.5-0.5,1.8-2.2,2-3.5c0.7-4.7,4-7.7,7.5-9.9
		c2.7-1.7,4.6-3.7,6.3-6.1c1.6-2.4,3.9-3.1,6.5-3.2c0.9,0,1.5-0.1,2.2-0.8c1.9-1.8,4.5-2.6,6.6-4.2c0.3-0.2,0.7-0.4,1.1-0.4
		c4.6-0.2,8.4-3,12.9-3.5C217.3,21.7,221.1,20.4,225,20.4 M148.6,115.2c0.2,0,0.5-0.1,0.6-0.2c1.6-1.2,3-2.4,2.8-4.8
		c-1.9,0.9-3,2.3-3.7,4c-0.1,0.4-0.3,0.8,0.1,1C148.5,115.2,148.5,115.2,148.6,115.2 M230,129.4c-0.3,0-0.6-0.1-0.7-0.2
		c-0.9-0.7-1.6-1-2.3-1c-1.3,0-2.4,1.1-3.8,2c-2,1.2-1.7,1.6-0.6,2.8c0.2,0.3,0.4,0.6,0.5,1c0.5,1.1,0.7,2.7,1.6,3.4
		c0.2,0.2,0.4,0.2,0.6,0.2c0.8,0,1.7-1,2.7-1c4.5,0,5.9-3.3,5.8-7.4c0-0.2,0.1-0.8,0.1-1.3c-0.1-0.5,0.3-1.4-0.5-1.5
		c0,0-0.1,0-0.1,0c-0.6,0-1.2,0.3-1.3,1.3C231.9,128.9,230.8,129.4,230,129.4 M209.4,133.6c-0.1,0-0.2,0-0.3,0c-0.1,0-0.2,0-0.2,0
		c-0.1,0-0.3,0-0.4,0c-2.9,0-3.7,0.5-4.8,2.9c-0.1,0.3-0.4,0.5-0.1,0.8c0.1,0.1,0.2,0.1,0.3,0.1c0.2,0,0.3-0.1,0.5-0.2
		c1.8-0.5,3.4-1.3,5-2.2c0.1-0.1,0.3-0.1,0.4-0.1c0.4,0,0.8,0.1,1.1,0.1c0.4,0,0.6-0.2,0.6-0.8c0-0.5-0.4-0.7-0.8-0.7
		C210.2,133.5,209.8,133.6,209.4,133.6 M148.2,140.2c1.1-0.7,1.6-1.7,2.4-2.4c0.7-0.6,0.9-0.9,0.1-1.5c-0.3-0.2-0.6-0.4-0.9-0.4
		c-0.3,0-0.5,0.2-0.8,0.6C148.4,137.6,147.9,138.7,148.2,140.2 M190.8,142.6c0.7-0.1,1.5,0.2,1.6-0.8c0.2-1-0.6-1.3-1.5-1.8
		C190.9,141,190.8,141.8,190.8,142.6 M133.2,151.9c0.2,0,0.4,0,0.7-0.1c2.1-0.8,4.4-0.8,6.6-0.8c0,0,0,0,0,0c0.3,0,0.6,0.1,1,0.1
		c0.5,0,0.9-0.1,1.3-0.7c-3.1-2.6-4.1-6.1-4.3-10.2c-4.7,3.6-5.7,6.3-5.8,10.6C132.6,151.3,132.6,151.9,133.2,151.9 M185.5,157
		c0.3,0,0.6-0.1,1-0.2c0.6-0.2,0.4-0.7,0-1c-3-2.8-3.2-7.5-6.8-10.1c-1.9,1.1-1.7,2.1,0.2,3.3c0.7,0.4,1.3,1,1.8,1.6
		c1.5,1.6,2.2,3.5,2.8,5.5C184.7,156.7,185,157,185.5,157 M174.1,155.6c0.3,0,0.3-0.3,0.3-0.6c0-0.3-0.1-0.6-0.5-0.6c0,0,0,0,0,0
		c-0.1,0-0.2,0.3-0.4,0.5c0.2,0.3,0.3,0.6,0.5,0.7C174,155.6,174.1,155.6,174.1,155.6 M178.9,168.7c0.1,0,0.1,0,0.2,0
		c3.8,1.1,7.7,2.1,11.7,2.2c0.1,0,0.3,0,0.4,0c0.6,0,1.1-0.1,0.9-0.9c-0.1-0.6,0.6-1.5-0.4-1.7c-1-0.2-2.4-0.5-3.3-0.5
		c-0.3,0-0.6,0-0.7,0.1c-1.3,0.7-2.6,0.9-3.9,0.9c-1.2,0-2.3-0.1-3.5-0.1c-0.4,0-0.8,0-1.3,0.1C179.1,168.7,179,168.6,178.9,168.7
		C178.9,168.6,178.9,168.6,178.9,168.7c-0.8-2.3-3.1-3.5-3.8-5.8C175.3,165.5,176,167.8,178.9,168.7
		C178.9,168.6,178.9,168.7,178.9,168.7L178.9,168.7 M169.8,223.9c4-3,8.4-3.9,12.1-6.2c3.9-2.3,8.6-3.8,9-9.5c0-0.3,0.2-0.6,0.4-0.8
		c1.6-2.8,1.3-3.9-0.9-6.3c-1.1-1.2-2.2-2.5-2.1-4.5c0-2.2-1.5-4-3.6-4.6c-4.6-1.4-9.2-2.4-13.8-3.6c-0.2-0.1-0.5-0.1-0.7-0.1
		c-0.3,0-0.5,0.1-0.5,0.6c0.1,1.6-0.9,3.2,0.6,4.7c0.8,0.8,1.8,2,1.4,3.2c-0.8,2.2,0.2,4.1,0.8,6c0.2,0.6,0.3,1.2,0.2,1.8
		c-1,3.1-1.5,6.3-1.7,9.5C170.8,217.2,170.4,220.3,169.8,223.9 M225,5.4c-3.7,0-7,0.6-9.6,1.1c-1.3,0.2-2.5,0.5-3.4,0.6
		c-4.2,0.4-7.6,1.7-10.1,2.6c-0.8,0.3-1.8,0.7-2.2,0.8c-3.3,0.2-6.6,1.4-9.2,3.4c-0.2,0.1-0.7,0.4-1.1,0.6c-0.9,0.5-2,1.1-3.1,1.8
		c-7.6,1.3-12.1,5.7-14.6,9.4c-0.7,1-1.2,1.4-1.8,1.8c-6.7,4.2-11.2,9.5-13.3,15.7c0,0,0,0,0,0c-0.1,0.1-0.3,0.2-0.4,0.3
		c-8.7,6.2-14.5,15.3-16.8,26.4c-1,4.8-0.9,9.1-0.9,13l0,0.5c-1.1,3-1.6,5.8-1.8,8.5c-1.2,0.9-2.4,1.9-3.6,2.9
		c-2.8,2.5-4.9,5-6.4,7.4c-4.6,0.9-10,3.3-15.1,8.5l-0.4,0.4c-2.2,2.2-6.7,6.7-7.4,13.8c-0.5,5.4,1.4,11,5.3,15.3
		c0.3,0.3,0.6,0.7,1,1c-0.8,3.1-1.1,6.5-1,10.1c-0.1,0.2-0.3,0.3-0.4,0.5c-2.1,2.6-7.1,8.8-7.9,17.5c-0.1,1.6-0.1,3-0.1,4.1
		c0,0.1,0,0.3,0,0.4c-1.2,3.1-2.2,8.8,2.1,14.9c1.6,2.6,3.5,4.4,4.7,5.6c0.2,0.2,0.5,0.5,0.6,0.6c3.2,5,8.5,8,14.2,8
		c1.9,0,3.8-0.3,5.5-1c1.7,1.2,3.4,2.2,5,3.1c0.3,3.7,1,7.3,2.2,10.9c1,3.3,1.8,7,2.5,10.9c-0.5,0.5-1,1-1.5,1.5
		c-6.7,7.3-14.4,15.6-19.7,26.6c-4.2,8.7-7.1,16.7-8.7,24.5c-1.3,6-2.5,12-2.8,18.4c-0.1,1.5-0.2,3.1-0.3,4.7
		c-0.4,5.9-0.9,12.6,0,19.8c0.9,6.9,2.7,13.8,5.4,20.7c0.2,0.5,0.4,1.1,0.6,1.8c0.6,1.9,1.4,4.2,2.8,6.8c2.2,4.2,5,8.4,8.5,12.7
		c0.5,0.6,1,1.3,1.5,1.9c4.5,5.7,9.6,12.1,17.9,16.8c9.9,5.6,20.5,10.2,31.6,13.6c6.7,2,13.6,3.2,20.5,3.5c1.8,0.1,3.6,0.2,5.5,0.3
		c3.3,0.2,6.8,0.4,10.4,0.4c2.6,0,4.9-0.1,7.2-0.3c1-0.1,2-0.2,3-0.3c5.7-0.5,11.6-1,17.7-2.3c7.1-1.4,13.5-2.7,20.1-4.6
		c9-2.5,15.7-7.5,21.5-11.8l1-0.8c3.6-2.7,7.1-5.9,10.3-9.8c3.8-0.5,7.7-1.1,11.8-2c2.3-0.5,5-0.7,8.3-0.7c2.5,0,5,0.1,7.7,0.2
		l0.5,0c0.4,0,0.9,0.1,1.5,0.1c1.2,0.1,2.8,0.3,4.5,0.3c3.3,0,6.4-0.5,9.3-1.6c3.1-1.2,6.9-1.8,11-2.5c0.9-0.2,2.2-0.3,3.6-0.4
		c4.6-0.4,10.7-0.8,17-4.4c5.3-2.5,7.4-6.7,8.2-9c1.5-4.3,1.1-8.9-1.2-13c-1.6-2.8-2.8-6.2-3.9-9.4l0-0.1c-1.2-3.6-3.2-6.4-6-8.5
		c-0.9-2.9-2-5.5-2.9-7.8c-0.9-2.2-1.8-4.4-2.3-6.1c-0.5-2.1-1.5-4-2.7-5.8c0.1-0.8,0.1-1.5,0.1-2.2c0-0.8,0-1.6,0-2.5
		c0-3.1-0.1-6.9-1-11c-1.1-4.9-2.6-9.5-4.1-13.5c0.4-2.4,0.4-4.9-0.1-7.6c-0.1-6.5-2.5-11.5-7.1-15c-1.7-1.3-3.3-3.6-4.6-5.7
		c-1.1-1.7-2.2-3-3-4c0,0,0,0,0,0c-0.6-2.1-1.4-3.9-2.5-5.4c-0.8-3.5-2.4-6.1-3.2-7.3c-0.1-0.1-0.2-0.2-0.2-0.4
		c-2-4.4-5.1-7.1-7.8-8.8c4.6-4.4,7.8-11.8,4.8-21.1c-0.3-3.7-0.3-7.4-0.3-11.7c1.9-5.7,1.3-13.3-2.4-18.9c0.7-1.4,1.3-2.8,1.8-4.3
		c0.8-2.4,1.7-4.3,2.7-5.9c3.4-5.3,5.4-11.5,6-18.5c1-11.4-0.4-23.3-3.9-35.4c-0.9-3.2-1.6-6.6-2.3-10.3c-0.5-2.6-1-5.3-1.6-8.1
		c-1-4.3-2.5-8.5-4.7-13.1c-1.6-3.3-3.4-6.2-5-8.7c-0.8-1.3-1.6-2.5-2.3-3.7c-2.5-4.4-5.8-9.4-11.1-13.1c-1.7-1.2-3.5-3.1-5.6-5.3
		c-0.9-0.9-1.8-1.9-2.7-2.8l-0.4-0.4c-6.1-6.2-13-13.2-23.7-16.9c-4.6-1.6-8.6-3.3-12.1-5.1c-3.2-1.7-6.2-2.2-8.1-2.5
		c-0.1,0-0.3-0.1-0.4-0.1c-5.4-2.4-10.6-3.3-14.9-3.9c-1.3-0.2-2.6-0.4-3.7-0.6C229.1,5.6,227.1,5.4,225,5.4L225,5.4z"/>
</g>
</svg>
