<?xml version="1.0" encoding="utf-8"?>
<!-- Generator: Adobe Illustrator 24.1.0, SVG Export Plug-In . SVG Version: 6.00 Build 0)  -->
<svg version="1.1" id="Livello_1" xmlns="http://www.w3.org/2000/svg" xmlns:xlink="http://www.w3.org/1999/xlink" x="0px" y="0px"
	 viewBox="0 0 474 391.6" style="enable-background:new 0 0 474 391.6;" width="50" height="50" xml:space="preserve">
<style type="text/css">
	.st0{fill:#FEFEFE;}
</style>
<g>
	<g>
		<path class="st0" d="M340.7,87.2c-1.7,0-3.4-0.6-4.8-1.7c-0.1-0.1-0.3-0.3-0.4-0.4c-1.9-1.8-2.7-4.4-2.2-7
			c0.5-2.5,2.4-4.6,4.8-5.5c0.3-0.1,0.6-0.2,0.9-0.3c0.6-0.1,1.1-0.2,1.7-0.2c1.9,0,3.7,0.7,5.1,2c1.8,1.7,2.7,4.1,2.4,6.6
			c0,0.1,0,0.1,0,0.2c-0.4,2.6-2.2,4.8-4.7,5.8C342.5,87,341.6,87.2,340.7,87.2z"/>
		<path d="M340.7,79.6L340.7,79.6 M340.7,79.6C340.7,79.6,340.7,79.6,340.7,79.6C340.7,79.6,340.7,79.6,340.7,79.6
			C340.7,79.6,340.7,79.6,340.7,79.6 M340.7,64.6c-0.2,0-0.4,0-0.6,0c-1.8,0.1-3.6,0.5-5.2,1.1c-4.5,1.9-7.9,5.9-8.9,10.7
			c-1.1,5.2,0.6,10.6,4.6,14.2c0.1,0.1,0.3,0.2,0.4,0.4c2.8,2.3,6.2,3.6,9.7,3.6c1.8,0,3.6-0.3,5.3-1c4.5-1.7,7.8-5.4,9.1-9.9
			c0.4-1.3,0.6-2.8,0.6-4.2c0-8.2-6.5-14.8-14.6-15C340.9,64.6,340.8,64.6,340.7,64.6L340.7,64.6z M340.7,94.6L340.7,94.6
			L340.7,94.6L340.7,94.6z"/>
	</g>
	<g>
		<path class="st0" d="M77.8,375.8c-3.6,0-6.8-1-9.6-3c-0.9,0.2-1.7,0.2-2.6,0.2c-4.7,0-8.2-2.4-10.6-4.1c-0.3-0.2-0.7-0.5-1-0.7
			c-2.8-1.9-4.6-5.5-4.4-8.8c0.9-13.1,4-23.1,9.9-31.5c0.2-0.4,0.5-0.7,0.8-1c-0.1-2.2,0.3-4.2,0.9-6l-0.2,0
			c-0.5,0.1-1.1,0.1-1.6,0.1c-0.3,0-0.5,0-0.8,0c-1.1,1.4-3,3-6.4,3.2c-0.6,0.1-1.4,0.2-2.3,0.4c-1.7,0.3-3.7,0.7-5.8,0.7
			c-1.9,0-3.5-0.3-5.1-0.9c-3.4-1.3-7.1-1.6-11.1-2c-1.4-0.1-2.8-0.3-4.2-0.4c-2-0.2-3.9-1.3-5.1-3c-0.9-1.2-3.6-5.6,0-10.7
			c5.4-9,7.3-15.8,6.4-23c-0.9-6.4-1.6-8.2-4-9.3c-3.8-1.8-6.1-5-6.3-8.8c-0.2-3.2,1.2-6.3,3.6-8.6c0.3-8.7,6.4-15.1,14.8-15.1
			c1.5,0,3,0.2,4.6,0.6c0.8,0.2,1.6,0.3,2.5,0.3c3.7,0,7.5-2,9.3-4.9c0.9-1.4,1.7-3,2.5-4.6c1.4-2.7,3-5.7,5.1-8.5
			c-1.7-2.6-2.5-6.4-0.6-11.9c0.1-0.2,0.2-0.5,0.2-0.7c0.1-0.2,0.1-0.5,0.2-0.8c1.8-6.6,5.4-10.1,10.7-10.6
			c0.9-3.2,3.4-7.9,10.8-9.1c2.2-0.4,5.1-0.8,8.1-0.8c2.4,0,4.7,0.3,6.9,0.8l0.3,0.1c1.5,0.3,5,1.2,7.1,4.6c1.2,2,1.5,4.5,0.9,6.8
			c0,0.3,0.2,1,0.4,1.5c0.4,1.4,0.9,3.3,0.9,5.5c1.7,2.4,3,4.9,4.4,7.3c2.5,4.4,4.6,8.2,7.8,10.7c0.3,0.2,0.6,0.4,0.9,0.6
			c2.1-2.5,4.9-4.3,8.3-5.3c-2.9-2.8-5.3-7.2-5.4-13.8c-0.2-10.6,1-24.1,11.8-34.7l0.3-0.3c0.3-0.3,0.6-0.6,1-1
			c-0.8-0.4-1.6-0.8-2.2-1.2c-0.4-0.2-0.9-0.5-1.3-0.7c-1.3,0.7-2.7,1.1-4.1,1.1c-1.1,0-4-0.3-6.1-2.9c-0.4,0.1-0.8,0.1-1.2,0.1
			c-0.9,0-1.8-0.2-2.7-0.5c-2.4-0.9-4.1-3-4.6-5.4c0,0-0.1,0-0.1,0c-6.6-2.4-16.1-6.9-23.4-14.9c-6.6-7.1-11.6-14.8-14.9-22.7
			c-0.9-2.1-1.9-4.2-2.9-6.4c-2.3-4.8-4.6-9.7-6-15.2c-1.7-6.7-1.7-14.2-0.1-22.3c2.4-12.6,5.5-27.1,12-40.8c0-0.3,0-0.5,0-0.8
			l0-0.7c-0.1-2.9-0.4-10.2,6.3-14c3-9.2,11.7-9.5,15.2-9.6c0.8,0,1.9-0.1,2.4-0.2c1.3-0.7,2.7-1.1,4.1-1.1c2.5,0,4.9,1.1,6.7,2.9
			c0.2-0.1,0.4-0.2,0.7-0.4c2.8-1.8,6.3-3.6,10.2-3.6c6.1,0,9.9,4.3,12.1,7.4c3.5,1.8,6.3,4.1,8.8,6.3c3.8,3.2,6.3,5.1,9.4,5.4
			c1,0.1,1.7,0.1,2.3,0.1c1.4,0,2.4-0.2,3.1-0.5c2.4-1.1,5.7-2.5,9.5-2.5c2.5,0,5,0.6,7.3,1.8c1.9-1.3,4.5-2.4,7.9-2.4
			c1.8,0,3.5,0.3,4.9,0.6c0.5,0.1,0.9,0.2,1.4,0.2c3.3,0.5,6,2.5,7.2,5.5c0.8,2,0.8,4.1,0.1,6.1c0.5,1.5,0.6,3.1,0.2,4.6
			c-0.3,1.1-0.8,2.1-1.4,3c1.5,3.5,2.7,4,4.1,4.3c3,0.6,5.2,2.5,6.2,3.4c2.8,2.4,5.3,3.7,7.6,3.7c2.3,0,4.9-1.3,7.6-3.7
			c13.2-11.9,27.7-17.9,43.1-17.9c5.7,0,11.6,0.8,17.6,2.5c0.8,0.2,1.7,0.5,2.5,0.7c5.5,1.4,11.8,3.1,17.3,8.4
			c0.9,0.4,3.4,0.6,4.9,0.8c0.8,0.1,1.5,0.2,2.2,0.2c1.8,0.2,3.7,0.4,5.7,0.5c2.2,0.2,4.4,0.3,6.6,0.6c1-5.1,5-7.5,8.7-7.5
			c1.4,0,2.6,0.3,3.4,0.5c1,0.3,1.9,0.6,2.8,1c1,0.4,2.1,0.8,2.6,0.8c2.5,0.3,4.7,0.4,6.8,0.4c7.6,0,13.5-1.9,18.5-6
			c2.8-2.2,5.7-3.9,8.5-5.5c2.6-1.5,5-2.8,7-4.5c1.8-1.6,4-2.4,6.3-2.4c3.1,0,6,1.5,8.1,4.2c2.2,2.8,3.7,2.8,4.4,2.8c0,0,0,0,0,0
			c0.6,0,1.3-0.1,2-0.3c1.2-0.3,2.4-0.5,3.7-0.5c5.4,0,9,3.4,10.6,4.8c0.3,0.2,1,0.7,1.6,1c2.5,1.5,6.9,4.3,8.2,10.2
			c0.1,0.1,0.1,0.1,0.2,0.1c0.5,0.4,1,0.9,1.5,1.3c8.3,8.1,15,17,20,23.9c7.6,10.5,11.6,22.4,12,35.3c0,0.9,0.5,2.2,1.1,3.6
			c0.5,1.2,1,2.6,1.4,4.1c0.2,0.7,0.4,1.4,0.6,2.1c1.2,4.2,3,10.3,0.1,16.8c2.6,11.7-2,21.1-6,29.5c-1.5,3.1-2.9,6.1-3.9,9
			c-1.1,3.2-2.4,6.2-3.7,9c-0.8,1.8-1.5,3.4-2.2,5.1c-1.6,4-3.8,6.7-6.9,8.5c-0.6,0.3-1.4,1.1-2.2,1.8c-1.8,1.7-4.2,3.9-7.7,5.1
			c-0.2,1.1-0.3,2.5-0.3,4.2c0,1.4-0.1,2.9-0.2,4.6c-0.3,2.8-2.1,5.3-4.8,6.3c-0.9,0.3-1.8,0.5-2.7,0.5c-1.9,0-3.7-0.7-5.1-2
			c-3.4-3.1-4.1-6.7-4.3-9.2c-0.7,0.1-1.6,0.2-2.5,0.2c-0.9,0-1.9-0.1-2.8-0.3c-2.7-0.5-4.9-2.4-5.7-5s-0.2-5.4,1.6-7.4
			c2.3-2.5,4.8-4.7,7.1-6.8c3.3-2.9,6.3-5.6,8.6-8.8c6.8-9.5,10.2-21.1,10.4-35.5c0.1-6.3-3.1-13.2-6.5-19.7
			c-1.9-3.6-3.7-7.2-5.5-10.7c-2.4-4.8-4.7-9.4-7.2-13.9c-0.4,7.1-5.2,10.3-9.7,10.3c-0.3,0-0.5,0-0.8,0c-1.4-0.1-8.6-1.2-8.8-10.7
			c0-2.4-0.1-5.2,0.3-8.1c0.2-1.5-0.1-2.4-1.1-3.4c-0.3-0.3-0.5-0.6-0.8-1c-0.9,1.2-2.2,2.1-3.7,2.5c-0.7,0.2-1.5,0.3-2.2,0.3
			c-2.3,0-4.6-1.1-6-3c-1.8-2.5-2.5-4.9-2.7-7.1c-2.3,1-4.6,2.1-6.9,3.2c-0.9,0.4-1.8,0.7-2.8,0.7c-0.1,0.3-0.2,0.6-0.4,0.9
			c-0.2,0.5-0.7,1.5-1.7,2.5c-6.8,7-6.5,8.6-0.7,17.9c4.4,7.1,3.2,13.3,2.3,17.9l-0.1,0.7c0,0.2-0.1,0.4-0.1,0.6
			c2.4,6.3,1.4,12.5,0.4,16.7c5.1,8.9,3.8,17.8-3.2,24.3c2.3,6.5,0.5,12.7-4.9,16.9c0,0.2,0.1,0.4,0.1,0.8
			c2.1,9.8-0.8,18.9-7.9,24.8c-0.9,0.8-1.4,2.1-2.2,4.4c-0.3,0.9-0.6,1.8-1,2.8c0.5-0.4,1.1-0.7,1.8-1c2.4-1.2,4.5-3,7-5.1
			c0.9-0.8,1.8-1.6,2.8-2.4c3.1-2.5,4.2-4,4.6-6c0.7-3.7,3.4-6.3,10.2-9.5c4.8-2.3,8.5-3.5,11-3.5c0.9,0,1.9,0.1,2.7,0.4
			c8.7,2.9,12.3,16.2,11.6,22.3c-0.5,4.3-0.8,9.3,0.4,13.5c0.3,1.2,0.7,2.4,1,3.6c0.4,1.3,0.7,2.5,1.1,3.8c2.5-3.2,6.5-6.3,12.8-6.3
			c0.3,0,0.7,0,1,0c4.6,0.3,7.9,2.1,9.7,5.3c1.1-0.4,2.8-0.9,4.8-0.9c1.8,0,3.6,0.4,5.3,1.3c4,2,6.9,6.2,7.8,11.4
			c1,6-0.6,11.9-4.4,15.9c-1.9,1.9-2.9,4.7-3.4,9.1c-0.7,6.4-2.8,11.6-6.3,15.9c-0.8,1-0.8,2.2-0.4,5.7l0,0.1
			c0.3,2.6,0.4,5.8-1.2,9.3c-2.8,5.9-2.8,12.3,0,20.8c2.3,6.9,4.1,13.8,5.4,20.4c0.7,3.4-1.1,6.9-4.3,8.3c-3.1,1.4-6.1,2.1-8.8,2.8
			c-2.1,0.5-4,1-5.6,1.6c-3,1.3-6.1,1.9-9.4,1.9c-4.2,0-8-1-11-1.8c-1.9-0.5-3.7-1.4-5.2-2.1c-0.6-0.3-1.5-0.7-2-0.9
			c-0.7,0.1-1.3,0.1-2,0.1c-6,0-10-2.7-13.2-4.9c-0.6-0.4-1.2-0.8-1.8-1.2c-9.8-6.3-6.7-13.8-4.9-16.8c1.4-2.3,2.3-5,3.3-8
			c0.8-2.4,1.7-4.9,2.9-7.4c-1.9,2-4.6,3-8,3c-0.8,0-1.4,0-2.1-0.1c-0.3,0-0.5,0-0.8,0c-1.8,2.4-5.3,5.4-11.8,5.4c-0.5,0-1,0-1.5,0
			c-2.9-0.2-6.4-1.5-8.4-6.6c-0.2,1-0.6,1.8-0.9,2.5c-1.8,3.8-5.3,6.6-10.3,8.3c-3.7,1.2-7.3,1.5-10.5,1.8c-0.2,0-0.3,0-0.5,0
			c0,0.1-0.1,0.2-0.1,0.3c-2.3,4.5-7.2,5.6-9.5,6.1c-8.3,1.8-16.5,2-24.2,2h-0.2c-2.2,0-4.4-0.1-6.6-0.2c-2.1-0.1-4-0.2-6-0.2
			c-2.5,0-4.6,0.1-6.5,0.4c-0.3,0-0.6,0.1-1,0.2c-0.1,0.4-0.2,0.8-0.3,1.3c-1.7,4.9-6.6,6.3-9,7c-2,0.6-4.1,0.9-6.4,0.9
			c-1.2,0-2.4-0.1-3.6-0.2c-1.5-0.2-2.9-0.8-4-1.8c-0.9,0.1-1.9,0.3-2.9,0.4c-2.2,0.4-4.6,0.8-7.3,0.8c-1,0-2-0.1-2.9-0.2
			c-2.7-0.3-5.3-0.7-8-2c-2.3-1-7.9-3.6-8.5-10.1c-2.1-0.2-4.4-0.4-6.8-1c-0.7,0.4-1.5,0.7-2.4,1c-2.8,0.9-6.2,1.8-9.9,1.8
			c-1.5,0-3.1-0.2-4.5-0.5c-2.6-0.6-4.7-2.5-5.5-5c-1.2,0-2.4-0.1-3.5-0.2c-0.2,0.3-0.4,0.7-0.6,1c-1.1,1.5-3.1,3.3-6.7,3.8
			c-0.2,0-0.6,0.1-1,0.2c-1.1,0.3-2.5,0.6-4.1,0.6c-0.1,0.2-0.3,0.4-0.4,0.6c-2.4,2.8-5.7,4.4-9.4,4.4c-3,0-5.7-1-7.7-1.8l-0.5-0.2
			c-0.8-0.3-1.5-0.7-2-1c-0.2-0.1-0.4-0.2-0.6-0.4c-1.6-0.9-2.8-2.2-3.4-3.8c-1.7,0.2-3.4,0.3-5.1,0.3c-4,0-8-0.5-11.8-1.6
			c0.7,1.1,1.3,2.3,1.9,3.4c4.2,7.4,5.5,16.3,5.9,22.5c0.2,2.6-1,5-3.1,6.5c-1.3,1-2.9,1.4-4.4,1.4c-0.9,0-1.8-0.2-2.7-0.5
			c0,0-0.7-0.3-0.8-0.3c-1.8,2.2-4.7,3.2-7.1,3.2c-0.9,0-1.7-0.1-2.5-0.4c-0.7-0.2-1.4-0.3-2.1-0.3c-2.3,0-4.8,1.1-7.7,2.3
			c-2.2,0.9-4.5,1.9-7.1,2.5l-0.6,0.2C83.7,375,80.9,375.8,77.8,375.8z M366.5,310.2c0,0.7-0.1,1.3-0.3,1.9c0.4-0.6,0.8-1.1,1.2-1.7
			C367.1,310.3,366.8,310.3,366.5,310.2z M338.9,270c0.6,0.5,3,1.5,5,1.5c0.1,0,0.1,0,0.1,0c4.7-4.1,9.9-6.1,14.5-7.9
			c1.7-0.7,3.3-1.3,4.9-2c0.7-0.3,1.5-0.7,2.2-1c0.9-0.4,1.8-0.8,2.6-1.2c-1.1-2.9-1.4-6.8,0.9-11.4c0-0.1,0.1-0.1,0.1-0.1l0,0
			c0,0,0,0,0-0.1c-0.3-1.5-0.3-2.9-0.4-4c0-0.6-0.1-1.5-0.1-2c-0.6-0.4-1.2-0.9-1.6-1.4c-1.9,0.7-3.6,1-5.1,1.2
			c-1.6,0.2-3.9,1.7-5.5,2.6c-6.5,4-14.1,9.1-20.3,15.8c-1.7,1.9-2.4,2.9-2.7,3.3c0.2,0.4,0.6,1,1.6,2.1l0.3,0.3
			C336.4,267.1,337.6,268.6,338.9,270z M81.4,247.6c2.5,1.4,4.7,3.4,6.7,6.2c1.6,2.2,3.2,4.5,5.1,6.2c3.8,3.5,8.4,5.3,13.8,6.7
			c0.1-0.8,0.4-1.6,0.7-2.4c-3.4-3-6.6-6.2-9.7-9.3c-4.1-4.1-8-8.1-12.3-11.5c-0.5-0.4-0.9-0.7-1.3-0.9c-0.3,0.3-0.6,0.8-1,1.4
			C82.6,245.1,82,246.3,81.4,247.6z M130.2,71.4c-0.5,0.9-1.2,1.6-2,2.2c-0.2,0.1-0.3,0.2-0.5,0.4c-0.5,0.4-1.1,0.8-1.8,1.3
			c-11,7.2-16.4,14.4-18.2,23.9c-2,10.5,1.5,19.7,9.6,25.4l0.2,0.1c1.3,0.9,3.6,2.5,4.9,5.2c2.2,4.5,6.3,8,10.6,11.7
			c1.7,1.5,3.5,3,5.2,4.6c2.2-3.1,5.1-6.5,9.3-8.7c0.2-7.4,5.1-12.4,8.2-15.1c-2.9-12.4,4.2-21.5,10-27.4c0.2-0.2,0.4-0.4,0.6-0.6
			c0.2-2.7,0.1-5.5-0.1-8.4c-3.7-0.6-7.5-3.4-8-9.8c0-0.1,0-0.1,0-0.2c-0.1,0-0.2,0-0.3,0c-1.1,0-2.1-0.2-3.2-0.6
			c-2.3-0.8-4-2.7-4.6-4.9c-0.1,0-0.3,0-0.4,0c-2,0-3.7-0.5-5.2-1.6c-1.5-1.1-2.6-1.2-3.4-1.2c-2.3,0-5.3,1.4-8.2,2.9
			C132,71,131.1,71.3,130.2,71.4z"/>
		<path d="M119.8,23.8c2.4,0,4.3,1.8,6.8,5.5c0.1,0.1,0.2,0.3,0.3,0.4c8.2,3.2,12.9,12.4,22.6,13.2c1,0.1,1.9,0.1,2.8,0.1
			c2.2,0,4.3-0.3,6.3-1.2c2.1-1,4.2-1.7,6.2-1.7c1.7,0,3.4,0.5,5.2,1.8c0.8,0.6,1.6,0.9,2.5,0.9c1,0,2-0.5,3-1.4
			c1.4-1.5,2.9-1.9,4.5-1.9c1.7,0,3.4,0.5,5.2,0.7c1.2,0.2,1.8,1.1,1.1,1.9c-1.1,1.4-1.9,2.5-0.2,3.9c0.4,0.4,0.7,1.3-0.1,1.5
			c-5.2,1.3-1.9,3.7-1,6.1c1.8,4.8,4.4,8.7,9.9,9.9c1,0.2,2,1,2.8,1.7c4.2,3.7,8.4,5.5,12.5,5.5c4.2,0,8.4-1.9,12.6-5.7
			c11.4-10.3,24-16,38.1-16c5,0,10.2,0.7,15.6,2.2c6.1,1.7,11.9,2.6,16.8,7.4c2.4,2.3,7.3,2.4,11.1,2.9c4.9,0.6,9.9,0.6,14.8,1.5
			c0.3,0.1,0.7,0.1,1,0.1c3,0,4.7-2.7,4.9-5.9c0.1-1.5,0.6-2,1.4-2c0.4,0,0.8,0.1,1.3,0.2c2.2,0.7,4.4,1.8,6.7,2
			c2.6,0.3,5.1,0.5,7.7,0.5c8.3,0,16.1-1.9,23.2-7.6c4.8-3.9,10.9-6,15.7-10.1c0.5-0.4,1-0.6,1.4-0.6c0.9,0,1.7,0.6,2.2,1.3
			c2.9,3.6,6.2,5.6,10.3,5.6c1.3,0,2.6-0.2,4.1-0.6c0.6-0.2,1.1-0.2,1.6-0.2c2.2,0,4,1.4,5.5,2.8c2.7,2.5,7.3,3.3,7.6,8.3
			c0.1,1.5,2.2,2.8,3.6,4.1c7.2,7,13.3,14.9,19.1,22.9c6.6,9.2,10.3,19.7,10.6,31.2c0.1,3.3,1.9,6.3,2.7,9.4
			c1.3,5,3.7,10.1,0.3,15.3c-0.2,0.3-0.3,1-0.2,1.4c4.2,14-5.2,24.5-9.2,36.4c-1.6,4.7-3.9,9.2-5.8,13.8c-0.8,2-1.9,3.7-3.6,4.8
			c-3.8,2.1-6,6.7-11.1,6.8c-0.9,0-1,1.4-1.4,2.3c-1.9,3.8-1.2,7.9-1.6,12.5c-2.6-2.4-1.7-5-1.9-7.2c-0.3-3.8-0.5-5-2.6-5
			c-0.8,0-1.9,0.2-3.3,0.5c-1.3,0.3-2.5,0.7-4,0.7c-0.4,0-0.9,0-1.4-0.1c5.4-5.7,11.8-10,16.4-16.3c8.5-12,11.6-25.6,11.8-39.7
			c0.1-8.1-3.5-16.1-7.4-23.4C418,114.7,412.4,101.5,404,90c-1-1.4-1.9-2.8-3.7-2.8c-0.1,0-0.2,0-0.3,0c-2.3,0.2-2.3,2.4-2.7,3.9
			c-0.9,3.5-0.5,7.1,0.1,10.7c0.2,1.2,0.5,2.5,0.4,3.7c-0.1,1.5-0.4,3.3-2.3,3.3c-0.1,0-0.2,0-0.2,0c-1.7-0.1-1.8-1.9-1.9-3.3
			c0-2.3-0.1-4.7,0.2-7c0.4-3.7-0.5-6.7-3-9.4c0.3-0.3,0.5-0.6,0.8-0.9c0.1,0,0.1-0.1,0.2-0.1c0.5,0,1.3,0.7,1.7,0.7
			c0.2,0,0.3-0.3,0-1.1c-1.3-4-3.6-7.6-8.1-9c-0.5-0.2-0.9-0.2-1.2-0.2c-1.3,0-0.4,1.4-0.2,2.4c0,0.3,0,0.7,0,1c0,0,0,0,0,0
			c-1.7-1-2.8-2-3.6-2c-1.1,0-1.5,2-1.9,8.7c-2-2.6-1.1-5.2-1.2-7.6c-0.1-2.9-1-4.2-3-4.2c-0.7,0-1.5,0.2-2.4,0.4
			c-4.3,1.4-8.4,3.3-12.4,5.3c-0.8-0.1-1.6-0.3-2-1.2h0l0,0c0.6-0.9,1.4-1.7,1.9-2.6c0.9-1.6,3.4-2.8,1.3-5.1
			c-1.4-1.5-2.9-2.4-4.6-2.4c-0.8,0-1.6,0.2-2.5,0.6c-4.4,2.3-10,2.9-12.9,7.8c0,0,0,0-0.1,0c0.1-0.4,0.1-0.8,0.1-1.3
			c0-1.8,0-3.5-2.5-3.7c-0.1,0-0.3,0-0.4,0c-1.4,0-2.6,0.6-2.9,1.9c-0.4,2.1,1.7,3.2,2.9,4.5c0.4,0.5,0.7,0.6,1,0.6
			c0.7,0,1-1.5,1.6-1.9c0.1,0,0.2,0.1,0.3,0.1c0,1,0.1,2-0.1,3c-0.4,2.7-0.6,5.6,1.6,7.2c0.7,0.5,1.3,0.7,1.9,0.7
			c1.8,0,3.5-1.7,5.1-2.6c0.9-0.5,1.8-1.2,2.7-1.8c0.3,0.4,0.7,0.7,1,1.1c-0.2,0.3-0.3,0.6-0.5,0.8c-10,10.3-8.6,16-1.6,27
			c3,4.8,2,8.7,1.2,13.1c-0.2,0.9-1.1,2-0.8,2.5c3.1,5.4,2.1,10.8,0.6,16.3c-0.2,0.9,0.4,2.2,1,3.1c4.1,6.7,2.9,12.8-3.5,17.2
			c-1.8,1.2-2.4,1.7-1,4.2c2,3.5,2.7,7.7-1.6,10.8c-2.7,2-3.2,4.4-2.4,8.1c1.4,6.5-0.1,13.1-5.3,17.5c-4.2,3.5-4.1,8.8-6.8,12.8
			c-3.6,5.5-1.8,12.9-6.5,18.5c6.5-0.1,10.9-3.4,14.5-7.4c1.7-1.9,3.3-4.3,5.5-5.4c4.3-2.1,7.5-5.4,11.2-8.4
			c3.5-2.9,6.4-5.8,7.2-10.5c0.3-1.8,11.2-6.8,13.8-6.8c0.1,0,0.3,0,0.3,0c4.2,1.4,6.9,10.7,6.5,14.4c-0.6,5.4-0.8,11,0.7,16.3
			c1.6,5.7,3.5,11.4,4.3,17.3c0.2,1.5,0.6,2.6,2,2.6c0.4,0,1-0.1,1.7-0.4c2.7-1.1,3.7-3,4.8-5.3c1.9-4,4.2-7.6,9.4-7.6
			c0.2,0,0.4,0,0.6,0c2.2,0.1,3.6,0.3,4.1,3.1c0.4,2.1,2,2.7,3.7,2.7c0.9,0,1.8-0.1,2.7-0.3c1.5-0.3,2.8-1.1,4.3-1.1
			c0.6,0,1.2,0.1,1.9,0.5c4.4,2.2,5.5,11,1.3,15.4c-3.7,3.9-4.9,8.8-5.4,13.5c-0.5,4.6-1.9,8.7-4.7,12c-3,3.7-2.5,7.7-2,11.6
			c0.2,2,0.2,3.5-0.6,5.1c-4.1,8.7-3.2,17.6-0.3,26.3c2.2,6.6,3.9,13.2,5.2,19.5c-4.7,2.1-9.9,2.5-14.3,4.4
			c-2.2,0.9-4.4,1.3-6.5,1.3c-3.1,0-6.1-0.8-9.1-1.6c-3-0.8-6.6-3.4-9-3.4c-0.1,0-0.3,0-0.4,0c-0.7,0.1-1.3,0.1-1.9,0.1
			c-4.6,0-7.3-2.6-10.9-4.9c-3.1-2-4.4-3.6-2.6-6.6c4.5-7.5,4.8-16.9,11.6-23.4c1.8-1.7,1.6-5.5,2.3-8.6c-3.4-0.3-6.6-0.2-9.8-1
			c-1.8-0.5-2.4-0.9-1.8-2.7c1-3.1,1.9-6.2,2.9-9.8c-3.6,2.6-5.9,5.2-6,9.4c0,2.1-1.2,3.8-2.8,5.3c-0.8,0.7-2.1,1.3-1.8,2.6
			c0.9,4-0.9,4.6-3,4.6c-0.8,0-1.8-0.1-2.6-0.1c-0.3,0-0.6,0-0.9,0c-2.1,0-3.8,0.4-5,2.6c-1.3,2.2-3.8,2.8-6.1,2.8c-0.3,0-0.7,0-1,0
			c-2-0.1-2.1-2.8-2.5-4.5c-1-3.3-1.2-7-5.3-8.4c-0.9-0.3-2-2-2-3c0.2-6.6-4.4-10.4-8.1-14.7c-2.4-2.8-5.1-5.4-7.1-8.6
			c-0.5-0.8-1.1-1.9-2-1.9c-0.3,0-0.7,0.2-1.2,0.5c-1.1,0.9-3.7,1.3-2.6,3.1c1,1.5-1.1,4.2,2.3,4.7c8.6,1.4,12.7,9.4,8.7,17
			c-1,1.9-0.9,2.8,0.3,4.3c1.2,1.4,2.2,3.1,2.8,4.8c2.1,5.6,0,9.2-5.7,11.1c-5.1,1.7-10.5,1.2-15.7,2.4c1.8,4.1-1.1,5-4.2,5.6
			c-7.4,1.7-15,1.8-22.6,1.8c-0.1,0-0.1,0-0.2,0c-4.2,0-8.4-0.3-12.6-0.3c-2.5,0-5.1,0.1-7.6,0.5c-3.1,0.5-5.8,1.9-9.1,1.9
			c2.9,4.3,2.5,5.4-2.3,6.8c-1.4,0.4-2.8,0.6-4.2,0.6c-0.9,0-1.8-0.1-2.7-0.2c-0.3-1.6,0.5-1.7,1.4-1.7c0.2,0,0.5,0,0.7,0
			c0.8,0,1.6-0.1,1.6-1.2c-0.6-0.1-1.2-0.2-1.7-0.2c-1.5,0-2.9,0.4-4.3,1.2c-0.3,0-0.5,0-0.8,0c-4,0-8,1.4-12,1.4
			c-0.7,0-1.3,0-2-0.1c-2-0.3-4-0.5-5.9-1.4c-4.7-2.1-5.3-4-2.9-9.5c-5-1.5-10.4-0.9-15.4-2.5c-0.2-0.1-0.5-0.1-0.7-0.1
			c-1.4,0-2.7,1.3-4.1,1.7c-2.5,0.8-5.1,1.5-7.7,1.5c-1,0-1.9-0.1-2.9-0.3c0-0.6,0-1.1,0-1.7c3-1,5.7-2.3,7.8-5.9
			c-3.7,0.8-6.8,1.6-9.9,2.1c-1.6,0.2-3.1,0.3-4.7,0.3c-2.6,0-5.3-0.4-7.8-1.4c-0.6-0.2-1.1-0.4-1.5-0.4c-1,0-1.5,0.8-1.2,2.3
			c0.3,1.7,1,3.7-1.6,4c-1.4,0.2-3,0.8-4.4,0.8c-1.2,0-2.3-0.4-3.3-1.7c-0.9-1.2-2-2.4-3.2-3.4c-0.3-0.2-0.5-0.3-0.8-0.3
			c-0.6,0-1.3,0.5-1.8,0.8c-0.7,0.5-0.6,1.3,0.2,1.9c1.8,1.6,5.6,2.8,3,5.9c-1,1.3-2.3,1.7-3.6,1.7c-1.8,0-3.7-0.8-5.5-1.5
			c-0.4-0.2-0.8-0.4-1.7-0.9c2.1-1.4,3.9,0.2,6.2-1.6c-4.2-0.5-6.8-3.5-10.8-3.5c-0.4,0-0.9,0-1.4,0.1c-2,0.3-4,0.5-6.1,0.5
			c-5.1,0-10.2-1.1-15.1-3.2c-4.4-2-8.1-4.9-8.9-10.1c-0.3-1.7-1-2.2-1.8-2.2c-1,0-2.1,0.7-2.9,0.8c-2.3,0.3-0.8,1.9-0.3,3.1
			c3,8.8,8,16.5,12.5,24.5c2.9,5.1,4.5,12.1,5,19.3c-1.8-0.7-3.7-1.5-5.3-1.5c-1.6,0-3,0.8-3.9,3.3c-0.1,0.3-0.9,0.6-1.4,0.6
			c-0.1,0-0.2,0-0.3,0c-1.5-0.4-2.9-0.6-4.3-0.6c-5.9,0-11.1,3.6-16.7,5.1c-2.1,0.5-4.5,1.3-6.8,1.3c-2.2,0-4.4-0.6-6.3-2.5
			c-0.6-0.6-1.4-0.8-2.3-0.8c-0.6,0-1.2,0.1-1.7,0.3c-0.6,0.2-1.3,0.3-1.9,0.3c-2.9,0-5.1-2-7.4-3.5c-0.6-0.4-1.1-1.4-1-2
			c0.7-9.9,2.8-19.4,8.5-27.7c0.8-1.1,3.7-1.4,3.2-2.2c-3.5-5.9,2.4-10.2,2.2-15.4c0-1.6-0.1-2.6,1.3-4c1.5-1.4-0.2-2.9-1.5-4.1
			c-2.5-2.2-5.6-4.5-1.6-8.1c0.1-0.1,0.2-0.2,0.3-0.4c0.9-2.6-4.1-17.7-6.5-19.1c-1.9-1.1-2.9-2.3-2.5-4.5c0.7-3.9-3.9-5.1-4.4-8.4
			c0.8-1.2,2.2-2.2,1.4-4.1c-1.2,1-2.4,1.9-3.6,2.8c-4.3,0.6-8.9-0.2-11.5,5.2c-1.1,2.4-0.6,3.4,0.7,4.6c1,0.9,2.4,1.4,3.1,2.7
			c0.8,1.6,1.8,2.9,2.9,2.9c0.7,0,1.5-0.5,2.4-1.9c4,5,2.5,11,4,16.5c1.4,5.4,4.2,10,6.5,14.8c1.7,3.7-0.1,3.6-2.1,3.9
			c-0.2,0-0.3,0-0.5,0c-1.2,0-2.4-0.5-3.6-0.6c-0.6,0-1.3-0.2-1.8-0.2c-1.2,0-2,0.4-1.2,2.7c0.4,1.3-0.6,1.2-1.2,1.3
			c-2.4,0.3-5,1-7.3,1c-0.9,0-1.7-0.1-2.4-0.4c-5.7-2.1-11.5-2.2-17.1-2.9c-0.8-1-0.1-1.5,0.3-2.2c5.2-8.6,8.9-17.6,7.5-28
			c-0.8-6.1-1.8-12-8.2-15c-3.3-1.6-2-4.4-0.3-5.4c2.1-1.4,1.8-2.7,1.9-4.6c0-5,3-8,7.3-8c0.8,0,1.7,0.1,2.7,0.4
			c1.4,0.4,2.9,0.6,4.4,0.6c6.2,0,12.4-3.1,15.7-8.4c3.3-5.2,5.3-11.3,10-15.6c1.4-1.3,1.7-3-0.6-4.1c-4-1.9-2.2-5.3-1.4-7.7
			c0.8-2.5,1.2-6.1,5.1-6.1c0.2,0,0.5,0,0.7,0c0.3,0,0.5,0,0.8,0c2.8,0,4-1.7,4.3-4.6c0.3-2.8,2-4.1,5-4.6c2.3-0.4,4.6-0.7,6.9-0.7
			c1.7,0,3.4,0.2,5.1,0.6c1.4,0.3,3.3,0.6,2.8,2.4c-0.9,3.2,1.1,5.9,1,9c0,0.9-0.1,2.1,0.4,2.7c5.1,6.8,7.7,15.5,14.7,20.9
			c2.2,1.7,4.8,2.8,7.2,4.1c0.4,0.2,0.7,0.3,0.9,0.3c0.8,0,1-1,1.3-1.8c1.4-3.7,4.4-5.7,8-6.5c4.5-0.9,5.2-4.3,5.9-8
			c0.3-1.6-0.7-1.8-1.7-2.3c-4.3-2.2-5.8-5.9-5.9-10.4c-0.2-10.8,1.3-21.1,9.6-29.2c0.6-0.5,1.1-1.1,1.7-1.6c4.3-3,4-9.8-1-11.3
			c-2.7-0.8-5.3-3.4-8.4-3.4c-1.1,0-2.2,0.3-3.5,1.2c-0.2,0.1-0.3,0.2-0.4,0.2c-0.5,0-0.8-0.8-0.9-1.4c-0.6-2.3-1.5-3.3-2.8-3.3
			c-1,0-2.2,0.7-3.6,2c-0.2-3.2-2.2-4.5-4.9-5.5c-7.8-2.8-15.2-7.2-20.5-12.9c-5.4-5.8-10.3-12.8-13.5-20.5
			c-2.9-6.9-6.8-13.4-8.6-20.6c-1.5-6.2-1.3-12.8,0-19.1c2.6-13.6,5.7-27.2,11.7-39.8c0.6-1.2,0.4-2.2,0.3-3.5
			c-0.1-3.2-0.6-6.9,3.6-8.5c0.8-0.3,1.8-1.2,1.9-2c1.6-9,9.7-4.6,14.4-7.2c0.2-0.1,0.4-0.2,0.6-0.2c0.6,0,1.1,0.4,1.5,0.8
			c1.5,1.8,3,2.6,4.6,2.6c1.7,0,3.5-0.9,5.3-2C116.2,24.7,118.1,23.8,119.8,23.8 M109,73.4c0.7,0,1.4-0.4,2-0.8
			c3.8-2,7.6-4.1,11.5-6.2c0.4,0.4,0.8,0.8,1.2,1.2c-0.6,0.5-1.2,1-1.9,1.4c-10.6,7-18.9,15.5-21.4,28.7
			c-2.5,13.2,1.9,25.4,12.7,32.9c1,0.7,2.2,1.5,2.7,2.5c4.7,9.6,14.5,14.4,21.1,22.2c0.7,0.8,1.3,1.3,2,1.3c0.7,0,1.5-0.5,2.5-1.8
			c3.5-4.8,6.3-10.6,13-12c1.2-0.3,1.4-1,1.1-2.1c-1.6-6.1,2-10,6.1-13.6c1.3-1.1,3-1.9,2.2-4.1c-3.5-9.5,1-16.5,7.3-22.9
			c1.2-1.3,2.5-2.2,2.7-4.1c0.7-8.2-0.4-16.3-2.6-24.5c-1.4,1.5-0.8,2.8-1,4c-0.2,1.4-0.5,3-2.3,3.1c0,0,0,0,0,0c-1.8,0-2-1.5-2.2-3
			c-0.1-1.4-0.8-2.9-0.5-4.2c0.7-3.5-2.1-4.1-4.1-5.2c-0.4-0.2-0.7-0.3-0.9-0.3c-1.2,0-0.8,2.6-2.3,2.6c-0.2,0-0.4,0-0.6-0.1
			c-0.4-3.2-2.1-5.5-5.8-5.5c-0.1,0-0.3,0-0.4,0c-0.4,0-0.9,0.1-1.4,0.1c-0.4,0-0.7,0-0.9-0.2c-2.6-1.9-5.2-2.6-7.7-2.6
			c-3.9,0-7.8,1.8-11.6,3.7c-0.4-0.4-0.8-0.8-1.2-1.2c1.8-1.3,3.6-2.4,5.3-3.8c0.8-0.7,1.6-2.4,0-2.5c-2.7-0.2-5.3-1.7-7.8-1.7
			c-0.1,0-0.2,0-0.2,0c-8.9,0.3-15.9,6.7-17.7,15.6c-0.2,0.9-0.3,2.1,0.2,2.7C108.3,73.3,108.6,73.4,109,73.4 M97.8,88.8
			c6.2-7.7,7.9-16,8.4-24.8C99.7,70.7,96.4,78.4,97.8,88.8 M177.7,94.2c1.3,0,2.5-1.4,2.9-2.6c1.7-4.7,1.6-15.5-4.7-20.8
			c-1.1,7.1-0.9,13.7,0.1,20.3c0.2,1.2,0,3,1.5,3.1C177.6,94.2,177.6,94.2,177.7,94.2 M190.8,85.4c0.8,0,1.6-0.4,2.2-1
			c1.6-1.5-0.3-2.3-1.3-3c-1.4-1-2.9-1.7-4.8-2.8c-0.4,2.8,0.6,4.4,1.8,5.8C189.4,85.1,190.1,85.4,190.8,85.4 M427.8,120.8
			c1.9-14.6-10.7-18.7-17-26.9C415.1,103.5,419.5,112.9,427.8,120.8 M343.9,279c1.9,0,3.5-0.4,4.5-1.4c5.3-5,12-6.4,18.1-9.3
			c2.4-1.1,4.9-2.1,7.2-3.4c2.9-1.6,3.8-4.1,2.1-7c-1.4-2.3-1.2-4.4-0.1-6.6c0.7-1.3,1-2.6,0.9-4.6c-1-3.5,0.8-8.4-3.8-11.3
			c-0.9-0.6-1.1-2.3-0.7-3.5c0.3-1,0.5-1.8-0.5-2.4c-0.3-0.2-0.6-0.3-0.9-0.3c-0.6,0-1.1,0.4-1.6,0.9c-2.2,2.4-4.9,3.4-8.2,3.8
			c-3,0.4-5.8,2-8.5,3.7c-7.9,4.9-15.4,10.1-21.8,17.1c-5.7,6.1-6.6,9.3-1.3,15.5c1.3,1.5,2.6,3.1,4,4.6
			C335.2,277.3,340,279,343.9,279 M68.9,253.6c1.6-0.4,2.9-0.5,4.2-0.5c3.8,0,6.4,1.7,8.8,5.1c1.8,2.6,3.8,5.2,6.1,7.3
			c7.8,7.2,17.8,8.8,28.3,10.9c-2-3.9-3.1-7.4-1.1-10.7c1.5-2.5,0.6-4.2-1.2-5.6c-8.3-7.1-15.3-15.6-23.8-22.4
			c-2.4-1.9-4.5-2.9-6.4-2.9c-2.5,0-4.7,1.7-6.9,5.4C74.3,244.4,72.7,249.3,68.9,253.6 M91.4,292.4c0.4-2.4,2.8-3,4.5-4.7
			c-2.3-0.9-4.2-2.1-6.6-2.1c-0.5,0-0.9,0-1.5,0.1C88.9,288,88.6,290.6,91.4,292.4 M311.3,290.1c-0.9,0-1.7-1.1-2.8-1.1
			c-0.1,0-0.2,0-0.4,0c-0.6,3.7,1.3,5.6,4.6,6.2c0.3,0.1,0.6,0.1,0.9,0.1c1.3,0,2.4-0.6,2.1-2.5c-0.2-1.6-1.8-4-2.6-4
			c-0.1,0-0.2,0.1-0.3,0.2C312.3,289.8,311.8,290.1,311.3,290.1 M119.8,8.8c-4,0-7.6,1.2-10.5,2.7c-2.2-1-4.6-1.6-7-1.6
			c-2.1,0-4.2,0.4-6.1,1.2c-0.2,0-0.5,0-0.7,0c-2.8,0.1-7.1,0.3-11.6,2.5c-2.6,1.3-6.8,4.2-9.4,9.7c-3.1,2.4-5.4,5.7-6.7,9.6
			c-1.2,3.7-1.1,7.2-1,9.3c-6.3,14-9.4,28.4-11.8,40.9c-1.8,9.2-1.7,17.8,0.2,25.5c1.6,6.3,4.2,11.8,6.5,16.7c1,2.1,2,4.1,2.8,6.1
			c3.7,8.8,9.1,17.1,16.3,24.9c7.3,7.9,16.2,12.8,23.4,15.7c1.7,2.9,4.3,5.3,7.6,6.5c1.2,0.5,2.5,0.8,3.8,0.9
			c0.8,0.6,1.7,1.1,2.6,1.4c-6,10.2-6.8,21.3-6.7,30.4c-0.3-0.6-0.7-1.2-1.1-1.7c-0.2-1.9-0.6-3.5-0.9-4.7c0.5-3.6-0.3-7.3-2.1-10.4
			c-3.7-6.2-9.8-7.6-11.8-8.1l-0.2,0c-2.8-0.7-5.6-1-8.7-1c-3.6,0-6.9,0.5-9.4,0.9c-6.8,1.2-12.1,4.8-15,10.1
			c-3.6,1.3-6.7,3.7-9,6.9c-2.2,3.1-3,6.3-3.5,8.1c-0.1,0.2-0.1,0.4-0.2,0.5c0,0.1-0.1,0.3-0.2,0.5c-0.6,1.9-1.8,5.4-1.5,9.7
			c0.1,1.3,0.3,2.6,0.7,3.9c-1.2,2-2.3,4-3.2,5.8c-0.8,1.5-1.5,3-2.3,4.1c-0.4,0.6-1.7,1.3-2.9,1.3c-0.2,0-0.4,0-0.6-0.1
			c-2.1-0.6-4.3-0.8-6.4-0.8c-11.5,0-20.4,8.1-22.1,19.4c-2.7,3.5-4.1,7.8-3.9,12.2c0.4,6.1,4,11.5,9.7,14.6c0.3,1.1,0.5,3,0.7,4
			c0.7,5.2-0.8,10.6-5.2,17.8c-4.1,6-4,13.5,0.3,19.3c2.4,3.3,6.1,5.4,10.2,5.9c1.5,0.2,3,0.3,4.4,0.5c3.6,0.3,6.8,0.6,9.2,1.6
			c2.4,0.9,5,1.4,7.7,1.4c1.5,0,2.8-0.1,4.1-0.3c-3.4,7.5-5.4,16.1-6.1,26.3c-0.4,6.1,2.6,12.2,7.7,15.5c0.3,0.2,0.6,0.4,0.9,0.6
			c2.7,1.9,7.8,5.4,14.9,5.4c0.3,0,0.6,0,0.9,0c3.4,1.8,7.2,2.7,11.3,2.7c4.1,0,7.7-1,10.1-1.6l0.6-0.2c3.1-0.8,5.7-1.9,8-2.9
			c1.6-0.7,3.9-1.6,4.8-1.7c1.5,0.4,3,0.7,4.6,0.7c3.2,0,6.3-0.9,8.8-2.5c0.6,0.1,1.2,0.1,1.7,0.1c3.1,0,6.3-1,8.9-2.9
			c4.1-3,6.4-8,6.1-13.1c-0.3-4.5-1.1-10.3-2.9-16.3c0.2,0,0.5,0,0.7,0c1,1,2.2,1.9,3.5,2.7c0.2,0.1,0.3,0.2,0.5,0.3
			c0.7,0.4,1.7,0.9,3,1.5l0.4,0.2c2.4,0.9,6,2.3,10.5,2.3c5.1,0,9.8-1.9,13.5-5.3c0.9-0.2,1.6-0.3,2.2-0.5c0.1,0,0.3-0.1,0.4-0.1
			c2.7-0.4,5.1-1.3,7.3-2.7c1.8,1.5,3.9,2.5,6.3,3.1c2,0.4,4,0.7,6.1,0.7c4.7,0,8.7-1.1,12-2.1c0.4-0.1,0.8-0.3,1.2-0.4
			c0,0,0.1,0,0.1,0c3.1,6.4,9.1,9.1,11.2,10.1c4,1.8,7.9,2.3,10.2,2.6c1.2,0.2,2.5,0.2,3.8,0.2c3.3,0,6.2-0.5,8.5-0.9
			c1.5,0.7,3.1,1.2,4.8,1.4c1.6,0.2,3.1,0.3,4.6,0.3c3,0,5.8-0.4,8.5-1.2c2.6-0.8,8.8-2.7,12.4-8.6c0.7,0,1.4,0,2.3,0
			c1.8,0,3.7,0.1,5.7,0.2c2.2,0.1,4.5,0.2,6.9,0.2l0.2,0c8.1,0,16.8-0.2,25.8-2.2c2.4-0.5,8.1-1.8,12.2-6.6c2.8-0.3,5.9-0.8,9.1-1.9
			c4.4-1.5,7.6-3.5,10-5.7c2.1,1.1,4.4,1.7,6.8,1.9c0.6,0,1.3,0.1,1.9,0.1c3.1,0,6-0.5,8.6-1.5c-3.1,7.3-2.4,17.1,8.7,24.2
			c0.5,0.3,1,0.7,1.5,1c3.4,2.3,9.1,6.3,17.4,6.3c0.2,0,0.4,0,0.6,0c0.1,0,0.2,0.1,0.2,0.1c1.8,0.8,3.9,1.9,6.5,2.6
			c3.3,0.9,7.8,2.1,13,2.1c4.3,0,8.4-0.8,12.3-2.5c1-0.4,2.7-0.8,4.5-1.3c2.9-0.7,6.4-1.6,10.1-3.2c6.4-2.8,10-9.7,8.6-16.6
			c-1.4-6.9-3.2-14-5.6-21.3c-2.7-8.3-1.7-12.3-0.4-15.2c2.5-5.3,2.3-10.2,1.9-13.4l0-0.2c-0.1-0.4-0.1-1-0.2-1.5
			c3.8-5.1,6.1-11.3,6.9-18.4c0.3-2.6,0.8-4.2,1.4-4.8c5.5-5.7,7.9-14.1,6.4-22.4c-1.3-7.6-5.6-13.7-11.8-16.8
			c-1.3-0.7-2.7-1.2-4.1-1.5c2.4-2.4,4-5.6,4.3-9.2c0.2-1.8,0.2-3.4,0.2-4.7c2.4-1.5,4.3-3.2,5.6-4.4c0.4-0.3,0.8-0.8,1.1-1
			c4.4-2.6,7.7-6.6,9.9-12c0.6-1.5,1.3-3.2,2.1-4.9c1.4-3,2.8-6.2,4-9.7c0.8-2.5,2.2-5.3,3.6-8.2c3.9-8.1,9.1-18.9,7-32
			c2.8-8,0.6-15.3-0.6-19.6c-0.2-0.7-0.4-1.3-0.5-1.9c-0.5-1.9-1.1-3.6-1.6-4.9c-0.2-0.5-0.5-1.3-0.6-1.7
			c-0.5-14.2-5.1-27.3-13.4-39c-5.1-7.2-12.1-16.4-20.8-24.9c-0.1-0.1-0.2-0.2-0.2-0.2c-2.5-7.3-8.4-10.9-10.9-12.4
			c-0.2-0.1-0.5-0.3-0.7-0.4c-2.1-1.9-7.5-6.5-15.4-6.5c-1.5,0-3,0.2-4.5,0.5c-3.5-4.2-8.5-6.6-13.7-6.6c-4.1,0-8.1,1.5-11.2,4.2
			c-1.4,1.2-3.5,2.4-5.7,3.6c-2.9,1.7-6.3,3.5-9.6,6.2c-3.7,3-7.9,4.3-13.8,4.3c-1.7,0-3.5-0.1-5.6-0.3c-0.3-0.1-0.8-0.3-1.3-0.4
			c-0.9-0.3-2-0.7-3.2-1.1c-1.9-0.6-3.7-0.9-5.5-0.9c-5.1,0-10.3,2.4-13.4,7c-0.5,0-0.9-0.1-1.4-0.1c-1.9-0.1-3.7-0.3-5.3-0.5
			c-0.8-0.1-1.5-0.2-2.4-0.3c-0.6-0.1-1.4-0.2-2.1-0.2c-6.6-5.5-13.7-7.4-19-8.8c-0.8-0.2-1.6-0.4-2.4-0.6
			c-6.6-1.8-13.2-2.8-19.6-2.8c-17.3,0-33.4,6.7-48.1,19.8c-1.4,1.3-2.3,1.7-2.6,1.8c-0.3-0.1-1.2-0.5-2.6-1.8
			c-1.6-1.4-3.6-3-6.3-4.1c0.3-1.8,0.3-3.7,0.1-5.5c0.6-3,0.3-6.1-0.8-8.9c-2.2-5.4-7.1-9.2-13.1-10.1c-0.3,0-0.6-0.1-1.1-0.2
			c-1.6-0.3-3.7-0.7-6.2-0.7c-3,0-5.8,0.6-8.4,1.6c-2.2-0.7-4.5-1-6.8-1c-5.1,0-9.3,1.6-12.2,3c-0.1,0-0.2,0-0.4,0
			c-0.4,0-1,0-1.7-0.1c-0.9-0.1-3.4-2.2-5.1-3.6c-2.4-2-5.2-4.4-8.7-6.4C133.8,14,128.3,8.8,119.8,8.8L119.8,8.8z M134.5,78
			c0.6-0.2,1.2-0.5,1.8-0.8c2-1,3.4-1.7,4.3-1.9c1.2,0.8,2.8,1.6,4.8,2.1c1.7,2.2,3.9,3.9,6.6,4.9c0.3,0.8,0.7,1.6,1.1,2.5
			c1.4,2.7,3.5,4.8,5.9,6.3c0,0,0,0,0,0c-4.5,4.7-12.6,14.6-11.3,28.5c-2.8,3.1-6,7.5-7.2,13.3c-1.1,0.8-2.1,1.6-3,2.5
			c-3.7-3.2-6.9-5.9-8.3-8.9c-2.2-4.5-5.7-6.9-7.4-8.1l-0.2-0.1c-7.2-5-7.6-12.5-6.6-17.8c1.4-7.4,5.7-12.9,14.9-19
			c1-0.6,1.7-1.2,2.3-1.7c0.1-0.1,0.2-0.2,0.4-0.3C133.4,79.1,133.9,78.6,134.5,78L134.5,78z M365.1,96.5c0.1-0.1,0.3-0.1,0.4-0.2
			c0.3,0.4,0.6,0.9,0.9,1.3c2.9,3.8,7.3,6,12,6c0,0.8,0,1.5,0,2.2c0.2,11.6,8,17.4,15.7,18c0.5,0,1,0.1,1.4,0.1c3.3,0,6.5-1,9.2-2.7
			c0.3,0.7,0.7,1.4,1,2.1c1.8,3.6,3.6,7.3,5.6,10.9c2.8,5.3,5.7,11.4,5.7,16.1c-0.2,12.8-3.2,23.1-9.1,31.3
			c-1.8,2.5-4.4,4.8-7.4,7.5c-2.1,1.8-4.4,3.9-6.7,6.2c-2.6-3.8-6.2-7-10.8-8.5c-1.6-0.5-3.3-0.8-5.1-0.8c0,0,0,0,0,0
			c-1.5,0-5.5,0-14.2,4.2c-1.3,0.6-2.7,1.3-4,2.1c0-0.4-0.1-0.9-0.1-1.3c4.2-4.9,6-11.1,5.1-17.4c6.1-7.8,7.3-17.8,2.9-27.4
			c0.8-4.4,1.3-10-0.5-16.1c1-5.2,2.3-13.4-3.4-22.7c-1.9-3-2.7-4.6-3-5.5c0.4-0.6,1.2-1.6,2.7-3.2
			C364.1,97.9,364.7,97.1,365.1,96.5L365.1,96.5z M399.5,224.7c-0.1-1.2-0.1-2.5,0-3.8c0.5,0.2,1.1,0.3,1.6,0.4
			c0.2,0,0.5,0.1,0.7,0.1c0.3,0.8,0.7,1.5,1.1,2.3C401.7,224,400.6,224.3,399.5,224.7L399.5,224.7z M345.2,261.5
			c4.8-4.4,10.2-7.9,15.1-10.9c-0.3,1.5-0.5,3-0.4,4.4c-1.2,0.5-2.6,1.1-4,1.6C352.6,257.8,348.9,259.3,345.2,261.5L345.2,261.5z"/>
	</g>
	<g>
		<path class="st0" d="M340.8,87.2c-1.6,0-3.1-0.5-4.4-1.4c-0.2-0.1-0.4-0.3-0.5-0.4c-3.1-2.6-3.5-7.2-1-10.4c1.5-1.9,3.7-2.9,6-2.9
			c0.8,0,1.7,0.1,2.5,0.4c3,1.1,5,3.9,5,7c0,0,0,0.1,0,0.1c0,2.9-1.6,5.5-4.2,6.7C343,87,341.9,87.2,340.8,87.2z"/>
		<path d="M340.8,79.6L340.8,79.6 M340.8,79.6c0,0,0,0.1,0,0.1C340.8,79.7,340.7,79.7,340.8,79.6C340.7,79.6,340.8,79.6,340.8,79.6
			 M340.8,64.6c-4.4,0-8.7,2-11.6,5.5c-0.1,0.2-0.3,0.3-0.4,0.5l0,0c-4.8,6.4-3.8,15.4,2.3,20.6c0.3,0.2,0.6,0.5,0.9,0.7
			c2.6,1.9,5.7,2.9,8.8,2.9c2.3,0,4.5-0.5,6.6-1.5c5.1-2.5,8.3-7.7,8.4-13.4c0-0.1,0-0.1,0-0.2c0-3.2-1-6.2-2.7-8.6
			c-1.8-2.5-4.3-4.5-7.4-5.6C344.1,64.9,342.4,64.6,340.8,64.6L340.8,64.6z M340.8,94.6L340.8,94.6L340.8,94.6L340.8,94.6z"/>
	</g>
</g>
</svg>
