<?xml version="1.0" encoding="utf-8"?>
<!-- Generator: Adobe Illustrator 24.1.0, SVG Export Plug-In . SVG Version: 6.00 Build 0)  -->
<svg version="1.1" id="Livello_1" xmlns="http://www.w3.org/2000/svg" xmlns:xlink="http://www.w3.org/1999/xlink" x="0px" y="0px"
	 viewBox="0 0 448 521" style="enable-background:new 0 0 448 521;" width="50" height="50" xml:space="preserve">
<style type="text/css">
	.st0{fill:#FEFEFE;}
</style>
<g>
	<path class="st0" d="M313.3,509.8c-9.4,0-17.6-1.7-24.9-5.3c-6.6-3.2-10.3-7.5-11.2-12.8c-1.5-0.1-3-0.2-4.6-0.3
		c-0.1,0-0.1,0-0.2,0c-0.6,0.1-1.4,0.2-2.2,0.2c-1.8,0-3.2-0.4-4.3-1c-0.6,2.8-2.7,6.3-9,7.6c-0.2,0-0.3,0.1-0.4,0.1
		c-7.3,1.8-14.6,2-21.5,2.2c-0.2,0-0.5,0-0.7,0c-0.1,0.2-0.3,0.5-0.4,0.7c-1.2,1.9-3.7,4.1-8.5,4.1c-0.4,0-0.7,0-1.1,0
		c-0.1,0-0.2,0-0.4,0c-4.7,0.3-10.7,0.6-16.8,0.6c-13.9,0-25.1-1.7-35.5-5.4c-0.2-0.1-0.3-0.1-0.4-0.1c-4,1.5-8.4,2.3-13.3,2.3
		c-3.9,0-7.7-0.5-11.3-0.9c-1.9-0.2-3.7-0.4-5.4-0.6c-9.8-0.8-19.6-2.3-29.1-3.7c-2.8-0.4-5.5-0.8-8.3-1.2c-4.3-0.6-8.8-1.7-13-5.1
		c-0.6-0.1-1.5-0.1-2.1-0.1s-1.3,0-1.9,0c-12-0.5-22.6-2.2-32.7-5c-4.1-1.2-9.6-2.8-13.9-7.7l-0.2-0.2c-0.8-0.9-2.7-3-3-6.1
		c-2-0.5-4.2-0.9-6.4-1.3c-1.8-0.3-3.7-0.7-5.6-1.1c-0.4-0.1-0.7-0.2-1.1-0.2c-1.1-0.2-2.2-0.5-3.5-0.9c-7.4-2.3-9-7.1-9-10.6
		c0-5.6,4.1-9.9,10.1-10.8c1.5-0.2,3.1-0.5,4.8-0.9c0.1,0,0.3-0.1,0.4-0.1c-3.7-7.1-4.8-15-3.4-23.6c1.1-7,3-14.2,8.7-20.3
		c-0.8-1.5-1-3.3-0.6-5c0.5-2.4,2.2-4.3,4.5-5.3c1.5-0.6,3-0.9,4.4-0.9c1.3,0,3.8,0.3,6,2.2c5.6-9.4,12.7-17.2,19.7-23.9
		c2.6-2.5,3.9-4.8,4.3-7.4c0.4-2.8,1.4-5.2,2.2-7.2c0.1-0.3,0.3-0.7,0.4-1c2.3-5.6,3.6-10.1,3.2-15.3c-0.8-10.7,3.4-20.9,12.7-30.2
		c0.5-0.5,1-1,1.5-1.6c0.8-0.8,1.5-1.6,2.4-2.5c2.7-2.6,3.8-5.3,3.6-9.2c-0.8-14.5,4.7-27.3,15.9-37.2c-7.4-15.8-8.1-33.1-2.1-51.4
		c1.2-3.5,2.5-6.9,3.7-10.2c0.7-1.9,1.5-3.8,2.2-5.8c0.9-2.6,0.6-2.9-0.2-3.5c-5.3-4.3-5.3-8.9-4.3-12c0.7-2.2,2.4-3.9,4.6-4.7
		c0.8-0.3,1.7-0.5,2.6-0.5c1.4,0,2.8,0.4,4,1.1c10.4,6.5,15.2,14.6,14.4,24.6c2.2-1.3,4.7-2.4,7.3-3.2c-1-6.7,0.6-13.6,4.6-20.5
		c3-5.2,4.2-9.1,4.1-13c-0.1-3.2-0.3-4.3-1.1-5.2c-1.8-2.1-2.3-5-1.3-7.6s3.3-4.4,6.1-4.8c0.6-0.1,1.3-0.1,1.9-0.1
		c0.9,0,1.7,0.1,2.5,0.2c-0.3-1.4-0.3-2.9,0-4.4c0.5-2,1.8-3.7,3.5-4.7c1.2-0.7,2.4-1,3.8-1c0.7,0,1.4,0.1,2.1,0.3
		c3.9,1.1,7.1,3.4,9,6.3c0.1-0.2,0.3-0.3,0.4-0.5c1.5-1.8,3.6-2.8,5.8-2.8c0.3,0,0.5,0,0.8,0c1.3-0.9,2.8-1.4,4.3-1.4
		c0.8,0,1.7,0.1,2.5,0.4c1.1,0.4,2,1,2.8,1.7c1.3-3.3,3.2-6.1,5.1-8.5c2.8-3.7,2.7-4,0.3-7.4c-5.4-7.5-7.6-14.9-6.5-22.7
		c0-0.1-0.1-0.3-0.1-0.4c-0.5-1.7-1.5-4.8-0.4-8.6c0.7-2.5,2.6-4.5,5.1-5.2c0.7-0.2,1.4-0.3,2.1-0.3c1.8,0,3.6,0.7,5,1.9
		c0.3,0.2,0.5,0.5,0.8,0.7c0.4-1.4,0.9-2.7,1.4-3.9c1.7-4.4,1-8-2.3-12.4c-4.7-6.4-9.6-14.2-9.6-24.3c0-12.7,6.9-18.7,12.7-21.6
		c1.9-0.9,1.9-1.3,2-1.5c0.6-3.2,3.2-5.7,6.4-6.1c0.3,0,0.6-0.1,0.9-0.1c2.9,0,5.6,1.7,6.8,4.4c3.8,8.2-0.3,15.6-1.7,18
		c-0.8,1.4-2.5,4.4-2.9,5.6c0.4,0.8,1.8,2.5,2.8,3.7c1.5-2.5,3.9-4.6,7.2-6.2c1-0.5,2.1-0.7,3.2-0.7c1.9,0,3.8,0.7,5.2,2.1
		c1.5,1.4,2.2,3.3,2.3,5.3c0.7-0.2,1.4-0.3,2.1-0.3c0.1,0,0.1,0,0.2,0c3,0,5.7,1.8,6.9,4.5c2.8,6.6,5.8,11.1,9.6,14.6
		c2.2,0.1,4.3,1.2,5.6,3c0.7,0.9,1.2,1.7,1.6,2.6c0.8,0.2,1.6,0.6,2.2,1.1c0.2,0.1,0.4,0.3,0.5,0.4c-0.9-3.1-1.5-6.5-1.1-10.4
		c-0.1-0.2-0.2-0.6-0.2-0.9c-0.2-0.7-0.4-1.5-0.6-2.4c-0.6-2.7,0.4-5.4,2.4-7.2c1.4-1.2,3.1-1.8,4.9-1.8c0.8,0,1.7,0.1,2.5,0.4
		c7.2,2.6,8,9,8.3,11.4c0,0.3,0.1,0.5,0.1,0.7c0.7,3,1.7,5.1,3.2,6.7c5.9,6.5,7.6,14.9,4.8,23.5c-1.9,5.8-0.9,10.5,3.1,14.3
		c2.6,2.5,6.7,4.6,11.3,6.1c1.9,0.6,3.6,1.9,4.5,3.8c0.9,1.8,1.1,3.9,0.4,5.8c-0.5,1.6-1.3,2.8-2.2,3.8c4.1,7.5,6,15.1,5.9,23.1v0.1
		c0,0.7,0.1,1.9-0.2,3.3l-0.2,0.9c-1.4,5.6-1.4,6.8,0.8,9c5.6,5.6,5.5,13.9,4.7,20.1c3.5,2.3,7.5,5,10.5,9.3c1.3-0.2,2.7-0.3,4-0.3
		c16.8,0,30,15.2,32.6,29.3c0.8,4.6-0.3,8.7-1.3,12c-0.3,1.2-0.7,2.2-0.8,3.2c-0.5,2.7-0.1,5.4,0.7,9l1.6,0.9
		c7.1,4.2,15.2,9.1,19.9,18.3c2.2,4.3,8.8,17.1-1.4,29.9c1.5,2.6,1.4,5.3,0.6,7.3c-0.2,0.4-0.4,0.8-0.6,1.1c0.5,0.1,0.9,0.1,1.4,0.2
		c9.2,2,15.9,7.9,18.8,16.8c2.5,7.5,1.4,14.8-3,20.9c2.7,1.4,4.4,4.3,4.1,7.4c-0.1,0.8-0.2,1.5-0.3,2.2c0.4-1,1-1.8,1.7-2.6
		c1.6-1.6,3.7-2.5,6-2.5c0.5,0,1,0,1.5,0.1c3.1,0.5,6.8,3,7.2,8.2c0.1,2.1,0.5,6.4-2.6,10.1c-2,2.4-3,4.5,1.5,10
		c7.7,9.4,11.4,20.7,11,33.7c-0.5,16.5-11.4,26.8-29.9,28.4c-0.4,0-0.7,0-1.1,0l0,0c-1.2,0-2.3-0.2-3.3-0.4
		c-1.3,3.1-2.9,6.3-5.1,9.3c3.1-1.8,6.5-2.7,10.1-2.7c0.5,0,1.1,0,1.6,0.1c8.3,0.6,11.4,6,12.5,9.2c1.2,3.4-0.1,7.1-3.2,9
		c-1.6,1-3.4,1.5-5.3,1.5c-1.4,0-2.5-0.3-3.4-0.5c-0.5,0.1-1,0.3-1.4,0.4c-7.3,10.6-17.9,11.5-26.5,12.2c-1.1,0.1-2.2,0.2-3.3,0.3
		c0,0,0,0,0,0.1c-1,2.3-3.3,5.2-8.9,6.1l-1.2,0.2c2.2,2.9,2.8,6,1.7,9.4c-2.2,6.5-8.2,8-10.8,8.6c-0.8,0.2-1.6,0.3-2.4,0.3
		c-2.3,0-4.4-0.9-5.9-2.3c-9.9,10.1-22.6,12.1-32.7,12.6C316.3,509.8,314.8,509.8,313.3,509.8z M390.2,369.2
		c0.1,0.1,0.2,0.2,0.3,0.2c8.5,5,13.1,13.6,13.6,25.4c0.1,2.3,0.8,3.8,2.6,5.3c0.8,0.7,1.5,1,2,1c0.1,0,0.4,0,0.9-0.3
		c1.3-0.8,1.8-2,1.4-3.5c-0.9-3.6-3.2-6.9-6.1-10.7c-6.8-9-7.3-18.3-1.7-26.3c-1.6,0.6-3,0.7-3.8,0.7c-1.1,0-2.1-0.1-3.2-0.4
		C395.2,362.8,393.5,366.5,390.2,369.2z M409.4,353.4c-0.1,0.2-0.1,0.4-0.2,0.5l0.1-0.1C409.4,353.6,409.4,353.5,409.4,353.4z
		 M380.8,332.1c1.8,3.7,2.7,7.5,3.3,11.2c0.5-0.4,1.1-0.8,1.7-1.1c0-1.3,0.2-2.7,0.6-4c0.5-1.5,1.3-2.6,1.8-3.4
		c0.1-0.2,0.2-0.3,0.3-0.5c1.5-2.8,0.8-3.6,0.4-3.9c-0.6-0.6-1.5-0.9-2.5-0.9c-0.8,0-1.5,0.2-2.2,0.6c-0.6,0.3-1.3,0.8-2,1.2
		C381.8,331.5,381.3,331.8,380.8,332.1z M275,81.7c0,0.7,0,1.5-0.1,2.3c0,0.1,0,0.2,0,0.3c0,0.2,0,0.3,0,0.5
		c0.4-0.4,0.9-0.8,1.3-1.1c-0.2-0.5-0.4-0.9-0.7-1.3C275.3,82.2,275.2,81.9,275,81.7z"/>
	<path d="M219.1,22.5c1.9,4,0.5,7.7-1.4,11.1c-5.5,9.7-5.5,10.7,1.8,19.1c2,2.3,4.1,4.4,6.1,6.7c1.7,1.9,2.4,2.8,3.4,2.8
		c0.8,0,1.8-0.6,3.7-1.7c-4.2-6.5-3.8-10.5,1.9-13.2c-1,2.3-2.6,4.2-1.5,6.5c1.1,2.2,2.9,3.3,5.1,4.3c2.3,1,3.1,4.2,6.2,4.5
		c-0.7-2.4-1.3-4.8-0.1-8.2c3.1,7.1,6.6,12.8,11.8,17.4c1.2,1.1,1.1,1.2,3.2,1.8c0.4,0,0.8-0.1,1.2-0.1c2.4,3.1,1.4,7.4,3.6,10.7
		c1.8-1.1,1.5-3.2,1.9-5.4c2.2,1.6,1.5,3.6,1.4,5.1c-0.4,6.4,1.4,12.8-2.3,19.1c-3.2,5.6-0.2,12.3,5.8,16.1c1-2.3-0.6-4.1-1.4-5.9
		c-3.5-8.7-1.3-15.3,6.9-19.9c1.5-0.8,2.7-1.9,3.7-3.2c1.2,0.1,0.8,1.2,0.9,1.8c-1,1.3-1.9,2.8-3.2,3.8c-3.7,3-4,7.1-3.1,11.1
		c1,4.6,5,7.4,7.6,11.4c0.7-1.4,3-1.8,2.1-3.6c-4.1-7.7-3.4-15.6-1.6-23.7c1.7-4.4,1.4-8.8-1.1-12.7c-3.1-4.7-5.1-9.5-4.5-15.2
		c0.2-1.5-0.6-3.2-1-5.2c3.7,1.3,3.1,4.6,3.6,6.8c0.9,3.8,2.4,7.2,5,10c4.3,4.7,5.1,10.4,3.2,16.1c-2.8,8.5-1.1,16.2,5.1,22.1
		c3.8,3.6,8.9,6.2,14.3,7.8c-0.9,2.6-3.8,2.1-5.6,3.6c5.6,7.6,9,16,8.9,25.6c0,0.6,0.1,1.2,0,1.8c-1.4,5.9-3.1,11.3,2.5,16.9
		c3.5,3.6,3.2,10,2.3,15.3c-0.4,2.7,0.4,3.7,2.4,5c4.4,2.9,9.1,5.8,11.1,11c0.4,0.9,0.8,1.2,1.3,1.2s1-0.3,1.5-0.4
		c2-0.5,3.9-0.8,5.8-0.8c13.3,0,23.3,12.8,25.2,23.2c0.8,4.2-1.3,8.3-2.1,12.5c-0.9,4.7,0,9,1,13.5c0.4,1.9,1.8,2.6,3.3,3.5
		c7.1,4.3,14.5,8.3,18.6,16.2c3.9,7.5,5.2,14.7-0.8,21.9c-1.8,2.2-4,4.8-0.8,8c1.2,1.1-0.1,1.6-0.9,1.6c-0.1,0-0.2,0-0.3,0
		c-2.5-0.5-4.1-2-4.3-4.6c-0.2-2.3,0-4.5,0.1-6.8c0-1.2-0.1-2.5-1.2-2.6c-0.1,0-0.2,0-0.2,0c-1.2,0-2,1.2-2,2.4
		c-0.1,3.8-0.1,7.6-0.2,11.4c0,1.8,0.1,3.6-0.9,5.2c-0.2,0-0.3,0.1-0.5,0.1c-1.5,0-0.5-2.4-2-2.4c-0.8,7.3-0.4,9.3,4.6,9.3
		c1.1,0,2.5-0.1,4.1-0.3c2.6-0.3,5.1-0.9,7.7-0.9c0.9,0,1.8,0.1,2.7,0.3c6.7,1.4,11.2,5.5,13.3,11.8c2.1,6.3,0.6,12.1-4.3,16.9
		c-0.6,0.6-1.1,1.5-1.8,2.1c-0.7,0.7,1.6,2.4-0.2,2.4c-0.1,0-0.3,0-0.5,0c-1.6-0.2-2.3-1.9-1.7-3.6c0.3-1,1.1-1.8,1.6-2.8
		c2.8-5,2.4-9.6-0.9-12.9c-2.1-2-4.9-3.1-7.8-3.1c-1.9,0-3.9,0.5-5.7,1.4c-1.9,1-3.5,2.4-5.4,3.3c-1.7,0.9-3.6,1.4-5.9,2.3
		c6.1,5.5,7.1,12.9,8.1,20.1c0.4,2.8,1.8,4.6,4.2,5.3c0.4,0.1,0.8,0.2,1.1,0.2c1.8,0,3.1-1.5,4.1-3.4c1.3-2.3,3.8-3.6,6.3-3.6
		c1.5,0,3,0.5,4.2,1.4c1,0.8,1.9,1.3,2.7,1.3c1,0,1.8-0.7,2.7-2.2c-0.3,3.1-1.1,5.2-3.5,5.2c-0.7,0-1.5-0.2-2.4-0.5
		c-1-0.4-1.9-0.6-2.8-0.6c-2.3,0-3.7,1.6-4.7,4.5c-1.3,3.7-3.2,7.3-7.6,8.3c-1.6,0.4-1.6,1.2-1.1,2.3c1.5,3.1,2.7,6.5,5.9,8.4
		c7.3,4.3,9.6,11.5,10,19.3c0.2,4.5,1.9,7.8,5.1,10.6c2.2,1.9,4.6,2.9,7,2.9c1.6,0,3.3-0.5,4.8-1.4c4.1-2.5,5.9-7,4.7-11.8
		c-1.3-5.1-4.3-9.3-7.4-13.4c-6.1-8.1-5.2-15.5,2.7-22c1.6-1.3,3.4-2.6,3.3-5.1c0-0.7,0-1.4,0.9-1.4c0.1,0,0.2,0,0.3,0
		c0.8,0.1,0.9,0.8,0.9,1.4c0.1,1.7,0.2,3.4-0.9,4.8c-5.8,7-3.5,13.5,1.5,19.5c6.9,8.4,9.7,18,9.3,28.7
		c-0.5,14.3-10.6,20.1-23.1,21.2c-0.1,0-0.3,0-0.4,0c-2.7,0-4.7-2.1-7.2-3.2c-2.6,6.2-4.5,12.7-9.6,17.7c-2.1,2.1-1.6,5.7,0.8,8.2
		c1.7,1.7,3.5,2.6,5.4,2.6c1.5,0,3-0.5,4.4-1.6c2.4-1.8,4.9-2.7,7.8-2.7c0.3,0,0.7,0,1.1,0c2.8,0.2,4.9,1.2,6,4.2
		c-0.5,0.3-1,0.4-1.4,0.4c-1.2,0-2.3-0.6-3.5-0.6c-0.2,0-0.5,0-0.7,0.1c-2.4,0.7-5.1,1.3-6.4,3.2c-6.4,9.9-16.8,8.7-26.4,10
		c-0.3,0-0.6,0-0.8,0c-0.8,0-1.6-0.1-2.4-0.1c-2.6-0.8-5.1-1.8-7.7-2.4c-0.4-0.1-0.9-0.2-1.4-0.2c-0.7,0-1.4,0.2-1.9,0.9
		c-0.6,0.9-0.2,1.8,0.6,2.4c0.9,0.8,2.5,1.5,3.4,1.5c0.3,0,0.5-0.1,0.6-0.3c0.5-1.5,1-1.9,1.6-1.9c0.9,0,1.9,1,2.8,1.2
		c2,2.9,1,4.4-2.3,4.9c-11.4,1.8-22.8,3.7-34.4,3.7c-3.5,0-7-0.2-10.6-0.6c-0.7-0.1-1.5-0.3-2.2-0.3c-0.5,0-1,0.1-1.3,0.6
		c-0.8,1.3-0.2,2.9,0.6,4.3c1.7,2.9,3.5,4.4,5.8,4.4c1.4,0,2.9-0.5,4.7-1.7c4.8-3,9.7-4.2,14.8-4.2c3,0,6.1,0.5,9.3,1.3
		c2,0.5,3.7,1.4,5.1,2.8c1.3,1.2,3.3,2.3,2.6,4.4c-0.8,2.4-3.2,3.1-5.4,3.6c-0.2,0.1-0.5,0.1-0.7,0.1c-0.4,0-0.8-0.1-0.9-0.6
		c-0.4-2.6-1.4-3.3-2.5-3.3c-1.5,0-3.3,1.2-4.7,1.2l0,0l0,0c-0.7,0-1.6,0.9-2.2,1.6c-7.7,8.6-17.9,10.8-28.7,11.4
		c-1.4,0.1-2.8,0.1-4.1,0.1c-7.5,0-14.7-1.2-21.6-4.5c-4.5-2.2-8.1-4.9-7-10.8c0.4-2.1-0.3-2.8-2.2-2.8c-0.1,0-0.3,0-0.4,0
		c-0.7,0-1.3,0-2,0c-2.4,0-4.7-0.2-7.1-0.4c-0.1,0-0.2,0-0.3,0c-0.7,0-1.7,0.2-2.5,0.2c-1.3,0-2.2-0.5-1.5-3.3
		c0.2-0.8-1.1-0.6-1.8-0.7c-6.8-0.4-13.6-0.8-20.4-1.2c-0.1,0-0.1,0-0.2,0c-0.7,0-1.8,0.2-1.4,0.9c0.8,1.3-0.4,3.5,1.9,4.1
		c2.8,0.7,5.6,1.5,8.3,2.5c1.3,0.5,3.6,0.4,3.6,2.1c0,2-2.4,2.1-3.9,2.5c-6.5,1.6-13.2,1.8-19.9,2c-2,0-3.9,0.1-5.9,0.2
		c-0.7,0-2,0.1-1.7,0.9c1.5,3.3-0.2,3.7-1.9,3.7c-0.5,0-1.1,0-1.5,0c-0.1,0-0.2,0-0.3,0c-5.5,0.3-11,0.6-16.5,0.6
		c-11.1,0-22.1-1.1-32.9-5c-1-0.4-2.2-0.6-3.3-0.6c-0.6,0-1.1,0.1-1.6,0.3c-3.8,1.6-7.5,2.1-11.3,2.1c-5.4,0-10.8-1-16.1-1.5
		c-12.4-1-24.6-3.1-36.9-4.9c-3.5-0.5-6.9-1.2-9.8-4c-1.6-1.5-5.2-1.2-7.9-1.3c-10.5-0.5-20.8-1.9-30.9-4.8
		c-3.8-1.1-7.6-2.2-10.3-5.4c-0.9-1-2.2-2.1-0.4-3.3c4-2.6,0.4-3-1.1-3.6c-5.7-2.2-11.8-2.9-17.7-4.2c-1.3-0.3-2.7-0.5-4-0.9
		c-1.8-0.5-3.7-1.2-3.7-3.4c0-2.2,1.8-3.2,3.7-3.4C28,453.6,33,452,38.7,452c1.1,0,2.2,0.1,3.4,0.2c-2-1.8-3.7-2.9-5-4.5
		c-5.7-7.1-7.6-15.2-6.1-24.2c1-6.4,2.5-12.3,7.5-17.1c2.1-2,3-4.9,0.5-7.7c0.7-0.3,1.2-0.4,1.6-0.4c1.5,0,1.9,1.3,2.3,2.5
		c0.9,3.1,0.3,6-1.2,8.8c-1,2-1.9,4.2-1,6.6c0.4,1.2,1.1,2.1,2.6,2.2c0.1,0,0.1,0,0.2,0c1.6,0,1.8-1.2,2-2.3
		c3.5-17.1,14-29.8,26-41.6c3.3-3.2,5.8-6.9,6.4-11.7c0.3-2.2,1.3-4.3,2.2-6.4c2.5-6,4.3-11.8,3.7-18.7c-0.7-9.4,3.9-17.5,10.6-24.3
		c1.3-1.3,2.5-2.7,3.8-3.9c4.3-4.1,6.2-8.8,5.9-15c-0.8-13.7,5-24.7,15.7-33.1c1.6-1.2,2.1-1.9,1-4c-8.4-15.7-8.7-32-3.2-48.8
		c1.7-5.3,3.9-10.4,5.8-15.7c1.6-4.5,1.6-8.6-2.6-11.9c-1.1-0.9-2.5-2-1.9-3.8c11.6,7.2,13.8,15.4,7.7,28.5
		c-3.3,7.1-3.3,10.2,0.6,15.7c3.4-14.5,13.2-21.5,26.8-23.8c-3.6-7.8-2.3-15.2,1.7-22.1c3.1-5.4,5.3-10.8,5.1-17.1
		c-0.1-3.5-0.3-6.8-2.9-9.8c0.3,0,0.7-0.1,1-0.1c4.4,0,4,4.5,6.2,6.8c0.9-3.2,2.4-5.9,5-8c2-1.6,1.8-3.6,0.3-5.6
		c-0.7-0.9-1.9-1.6-1.6-3c4.6,1.3,7,4.9,4.9,9.3c-3.4,7.2-0.3,14.7-2.1,21.8c-0.4,1.6,0.7,2.5,2,3.2c1.8,0.9,3.4,1.4,4.9,1.4
		c3.4,0,6.1-2.3,7.4-6.5c0.5-1.6-0.6-2-1.3-2.5c-4.3-3.2-3.4-7.6-2.7-12c1,3.1,1,6.7,5.8,7.4c-0.9-6.2-7.4-11.7-1.7-18.9
		c-0.2,3.7,1.9,4.8,4.6,5.3c0.7-1.9-2-4.1,0.5-6.6c0.7,6.2,8.2,8.4,6.6,16.1c3.9-4,4.6-8.2,4.5-12.1c-0.2-5.4,2.1-9.3,5.1-13.2
		c4.8-6.1,5-10.1,0.4-16.4c-3.9-5.4-6.1-11.2-5.1-17.8c0.4-2.5-1.7-4.5-0.8-7.5c2.6,2.4,3.7,5,4.6,7.8c0.3,1.2,0.4,2.5,1,3.5
		c1.2,1.8,2.3,4.4,4.5,4.4c0.2,0,0.4,0,0.6-0.1c1.3-0.3,0.5-3.5,0.4-5.3c-0.3-5.7,1.1-11.2,3.1-16.4c2.8-7.3,1.1-13.6-3.3-19.6
		c-4.4-5.9-8.1-12.1-8.1-19.8c0-6.6,2.2-11.8,8.5-14.8C215.9,28,218.4,26.1,219.1,22.5 M236.7,92.4c0.3,0,0.7-0.2,0.9-0.3
		c1.2-1.6,0.7-3.5,0.4-5.2c0-0.3-0.2-0.6-0.3-0.9c-1.1-3.3-1.3-5.8,2.1-8.6c2.7-2.2,1.8-6.6,0-9.3c-0.6-0.9-1.4-1.3-2.2-1.3
		c-1.4,0-3.1,1.1-4.2,1.9c-3.2,2.3-1.6,5.6-0.4,8.1c1.7,3.4,2.6,6.7,2.4,11.1c0.1,1.1-0.9,3,1,4.3C236.5,92.4,236.6,92.4,236.7,92.4
		 M255.4,87.4c3.4-6.9,3.3-7.1-2.2-12.1C253.5,79.5,252.3,83.5,255.4,87.4 M293.4,159.4c5.7-5.6,6.4-12,6-18.6
		c-0.1-2.1,0.1-4.9-4.1-5.3C301.7,144.1,292.4,150.7,293.4,159.4 M309.1,180.4c0.6-6.5-1.5-9.6-7.1-10
		C303.6,174.6,304.9,178.6,309.1,180.4 M170.2,195.9c6.4,0,8-2.1,6.4-8.2c-0.7-2.7-2.1-5-4.1-6.9c-2.1-2-3.7-3-5.1-3
		c-1.8,0-3.2,1.5-4.7,4.6C159.3,189.4,162.9,195.9,170.2,195.9L170.2,195.9 M154.2,240.4L154.2,240.4c1.4-0.1,1-1.3,0.9-2.1
		c-0.2-4.9,0.3-9.7,2.5-14.2c0.3-0.6,0.3-2,0.1-2.1c-5-1.9-1.9-4.9-1.1-7.5c0.4-1.3,0.8-2.2-1.2-2.4c-0.2,0-0.5,0-0.7,0
		c-4.7,0-9.7,4.7-9.5,9.9c0.1,0.4,0.3,1.2,0.6,2.1c1.8,5.4,7.4,9,7.1,15.4C152.9,239.8,153.8,240.4,154.2,240.4 M141.1,245.3
		c-0.1-7.3-2.7-13.4-5.6-19.7C132.8,232.7,134.9,240.1,141.1,245.3 M115.6,297.6c0.7,0,1.5-0.4,2.6-1.1c7.7-5.2,8.9-13,8.8-21.8
		c-9.7,4.7-13.8,11.2-13.2,19.7C113.9,296.5,114.5,297.6,115.6,297.6 M219.1,7.5c-0.6,0-1.3,0-1.9,0.1c-5.3,0.7-9.7,4.1-11.8,8.8
		c-10.3,5.4-15.9,15.2-15.9,27.8c0,12.2,5.6,21.4,11.1,28.8c0.5,0.6,0.8,1.2,1.1,1.7c-1.4,0-2.7,0.2-4.1,0.6
		c-5,1.4-8.9,5.4-10.3,10.4c-1.4,5.1-0.5,9.3,0.2,11.7c-0.7,8.7,1.8,17.3,7.4,25.5c-0.7,0.9-1.4,1.8-2,2.9c-0.6-0.1-1.2-0.1-1.8-0.1
		c-2.1,0-4.3,0.5-6.2,1.3c-1.5,0.1-2.9,0.4-4.3,1c-2.2-1.6-4.8-2.9-7.7-3.7c-1.4-0.4-2.8-0.6-4.2-0.6c-2.6,0-5.2,0.7-7.5,2
		c-3.2,1.9-5.6,4.8-6.8,8.4c-4.8,1.1-8.8,4.6-10.5,9.2c-1.8,4.7-1.1,10.1,1.8,14.1c0,0.5,0.1,1.2,0.1,1.7c0.1,2.4-0.8,5-3.1,9
		c-1.5,2.6-2.7,5.1-3.6,7.6c-3.4-4.6-7.8-8.3-12.3-11.1c-2.4-1.5-5.2-2.3-7.9-2.3c-1.7,0-3.5,0.3-5.2,0.9c-4.3,1.6-7.7,5.1-9.1,9.5
		c-1,3.1-2.4,10.4,3.8,17.4c-0.4,1.1-0.9,2.3-1.3,3.5c-1.3,3.4-2.7,6.9-3.9,10.6c-6,18.3-5.9,35.7,0.3,51.9
		C93.2,267,88.2,280.5,89,295.5c0.1,1.8-0.2,2.3-1.3,3.4c-1,1-1.9,1.9-2.7,2.8c-0.5,0.5-0.9,1-1.3,1.4
		c-13.6,13.6-15.6,27.1-14.9,36.1c0.3,3.7-0.8,7.2-2.7,11.9c-0.1,0.3-0.3,0.6-0.4,0.9c-0.9,2.2-2.2,5.3-2.8,9.1c0,0.3-0.2,1.2-2.1,3
		c-5.9,5.8-12,12.3-17.3,19.9c-1.1-0.2-2.1-0.3-3.1-0.3c-2.4,0-4.9,0.5-7.3,1.5c-4.5,1.8-7.9,5.8-9,10.5c-0.4,1.6-0.5,3.3-0.3,4.9
		c-5,6.7-6.8,14.2-7.9,20.9c-1.1,6.7-0.8,13.2,0.8,19.3C9.1,443.4,4,450,4,458.1c0,4,1.3,13.8,14.2,17.8c1.6,0.5,3.1,0.8,4.2,1
		c0.3,0.1,0.6,0.1,0.9,0.2c2,0.5,4,0.8,5.9,1.2c0.6,0.1,1.2,0.2,1.9,0.4c0.8,1.6,1.9,3.2,3.3,4.7l0.1,0.1c5.7,6.6,13.1,8.7,17.5,9.9
		c10.6,3,21.8,4.8,34.4,5.3c0.6,0,1.2,0,1.8,0c5.7,3.9,11.4,4.7,14.5,5.1c2.7,0.4,5.5,0.8,8.2,1.2c9.6,1.5,19.5,3,29.6,3.8
		c1.6,0.1,3.3,0.3,5.2,0.6c3.7,0.4,7.8,0.9,12.2,0.9c4.8,0,9.2-0.6,13.3-1.8c10.6,3.5,22.1,5.1,35.9,5.1c6.1,0,12.2-0.3,16.9-0.6
		c0.4,0,0.9,0,1.3,0c6.2,0,10.2-2.5,12.6-4.9c6.4-0.2,13.2-0.6,20.2-2.3h0.2c5.7-1.2,9.2-3.7,11.5-6.5c0.1,0,0.2,0,0.3,0
		c0.6,0,1.1,0,1.5-0.1c2.2,4.4,6.2,8.7,13.4,12.2c8.4,4.1,17.6,6.1,28.2,6.1c1.6,0,3.2,0,4.9-0.1c10.1-0.5,22.6-2.4,33.4-11
		c1.5,0.5,3.1,0.7,4.8,0.7c1.3,0,2.7-0.2,4.1-0.5c2.2-0.5,4.6-1.2,7.1-2.5c4.5-2.4,7.6-6.2,9.2-11c0.5-1.5,1.1-4,0.8-6.9
		c2.1-1.2,3.7-2.6,4.8-4c8.3-0.7,20.1-1.8,29.1-12.1c0.4,0,0.7,0,1.1,0c3.2,0,6.4-0.9,9.1-2.5c6.1-3.7,8.8-11.2,6.4-17.9
		c-1.3-3.6-3.3-6.6-6-8.9c3.3-1.4,6.3-3.2,9-5.3c5.5-4.5,12.1-12.7,12.6-26.7c0.5-14.8-3.8-27.9-12.7-38.7c-0.4-0.5-0.7-0.9-0.9-1.2
		c4.3-5.8,3.9-12.2,3.7-14.6c-0.6-7.8-6-13.9-13.5-15.1c-0.9-0.1-1.8-0.2-2.7-0.2c-0.5,0-1,0-1.5,0.1c2.4-6.4,2.5-13.3,0.1-20.3
		c-3.1-9.4-9.8-16.5-18.8-20.1c-0.1-0.6-0.1-1.3-0.3-1.9c3.2-5.2,4.8-10.8,4.7-16.9c-0.1-5.6-1.7-11.4-5-17.6
		c-5.4-10.5-14.1-16.1-21.4-20.5c-0.2-1.2-0.2-2.1-0.1-2.9c0.1-0.6,0.4-1.5,0.7-2.5c1.1-3.6,2.6-9.1,1.5-15.5
		c-1.5-8.3-6-16.8-12.4-23.3c-7.7-7.9-17.5-12.2-27.6-12.2c-0.2,0-0.5,0-0.7,0c-1.9-2.1-4-3.8-5.9-5.2c0.3-6.1-0.6-14.5-6.6-21.1
		c0.2-0.8,0.4-1.8,0.6-2.6l0.2-0.9c0.6-2.4,0.5-4.5,0.4-5.4c0.1-7.7-1.5-15.2-4.8-22.4c0.3-0.6,0.5-1.2,0.7-1.8
		c1.3-3.8,1-8-0.9-11.7c-1.8-3.6-5.1-6.3-9-7.5c-3.6-1.1-6.6-2.7-8.4-4.4c-1.3-1.2-2.4-2.7-1.1-6.5c3.7-11.2,1.3-22.5-6.4-30.9
		c-0.4-0.4-0.9-1.1-1.4-3.1c0-0.1,0-0.1,0-0.2c-1.4-11.1-7.9-15.7-13.2-17.6c-1.6-0.6-3.4-0.9-5.1-0.9c-3.6,0-7.1,1.3-9.8,3.7
		c-2.6,2.2-4.3,5.3-4.9,8.5c-1.2-1.9-2.3-4.1-3.4-6.6c-1.9-4.5-5.9-7.7-10.6-8.7c-0.7-1.1-1.5-2.2-2.5-3.1
		c-2.9-2.8-6.6-4.3-10.5-4.3c-0.1,0-0.2,0-0.3,0c1.3-5.5,0.8-10.9-1.6-16C230.2,10.9,224.9,7.5,219.1,7.5L219.1,7.5z"/>
</g>
</svg>
