<?xml version="1.0" encoding="utf-8"?>
<!-- Generator: Adobe Illustrator 24.1.0, SVG Export Plug-In . SVG Version: 6.00 Build 0)  -->
<svg version="1.1" id="Livello_1" xmlns="http://www.w3.org/2000/svg" xmlns:xlink="http://www.w3.org/1999/xlink" x="0px" y="0px"
	 viewBox="0 0 474 544.5" style="enable-background:new 0 0 474 544.5;" width="50" height="50" xml:space="preserve">
<style type="text/css">
	.st0{fill:#FEFEFE;}
</style>
<g>
	<path class="st0" d="M239.7,534.8c-3.5,0-6.6-1.7-8.5-4.7c-2.8-4.3-2.5-10.7,4.3-15.2c2.9-1.9,5.7-4.2,8.5-7c-3.9,0-8-0.5-13-1.6
		c-2.9-0.6-5.8-0.9-9.6-0.9c-0.8,0-1.5,0-2.3,0c-1,0-2,0-3,0c-12.2,0-25.3-1.8-39.9-5.5c-23-5.8-38.9-18.7-47.2-38.1
		c-3.7-8.6-5.3-17.2-4.8-25.7c0.4-5.8,0-11.9-1.2-18.4c-3.4-19.2,4.8-34.9,11.6-45.2c-1.7-1.8-3.2-3.7-4.5-5.5
		c-0.7,0.3-1.2,0.4-1.6,0.5l-0.2,0c-0.8,0.3-1.7,0.4-2.5,0.4c-2.8,0-5.5-1.7-6.8-4.4c-1-2.1-1.1-4.1-1.1-5.6
		c-0.4-0.3-0.9-0.6-1.2-0.7c-0.2,0.1-0.4,0.2-0.8,0.4c-0.9,0.6-1.9,1.2-2.8,1.8c-4.2,2.6-5,3.3-5.1,5.2c-0.5,5.3-4.4,9.3-9.2,9.3
		c-1.3,0-3.6-0.3-5.8-2.1c0,0.2-0.1,1.1-0.1,1.1c-0.3,3-0.1,6.1,0.8,8.9c1.4,4.7,1.4,9.2,1.3,13.2c0,2.9,0,5.6,0.5,7.9
		c0.5,2.3,1.6,4.6,2.8,7.1c0.7,1.5,1.4,3,2.1,4.6c1.8,4.4,1.3,8.6,0.9,11.7c-0.2,1.9-0.4,3.6,0,4.4c0.3,0.7,0.5,1.4,0.7,2
		c4.5,3.9,5.5,9.1,6.2,12.6c0.1,0.4,0.2,0.8,0.3,1.2c1,4.4,2.7,8.3,5.4,11.8c3.8,5,6.9,10.3,9.9,15.4c3.7,6.3,7.1,12.2,11.6,17.3
		c4.5,5.1,3.4,10.6,0.3,13.8c-1.8,1.8-4.1,2.8-6.5,2.8c-3.4,0-5.6-1.9-6.5-2.7c-8.9-5.3-16.5-12-23.8-18.4c-2.8-2.4-5.6-5-8.5-7.3
		c-1.1-0.9-2.7-2.5-3.8-4.6c-3.5-6.8-7.9-13-12.6-19.6c-1.5-2.1-3-4.3-4.5-6.4c-2.9-4.2-4.1-8.9-3.5-14c0.1-1-0.1-1.6-0.2-1.8
		c-2.7-3.2-4.1-6.5-5.3-9.5c-0.2-0.6-0.5-1.2-0.7-1.8c-0.6,1.2-1.3,2.2-2.1,3.1c2.9,1.1,4.9,4,4.8,7.2c-0.1,4-2.2,7.3-5.6,9.3
		c0.2,0.5,0.5,1,0.7,1.4c0.2,0.4,0.3,0.7,0.5,1.1c1.5,3.1,0.7,6.9-2,9.1c-1.9,1.5-4,2.3-6.3,2.3c-2.1,0-5.1-0.7-7.9-4
		c-2.9-3.5-6.5-6.5-10.3-9.6c-2.7-2.3-5.6-4.6-8.3-7.3c-5.3-5.2-5.1-10.8-4-14.6c2.1-7.3,3.2-14.7,4.3-22.6
		c0.7-4.8,1.4-9.8,2.4-14.7c1.7-8.6,7.7-13.3,12.7-16.5c2.6-1.7,5.6-3.5,6.7-4.5c-0.2-1.5-1.2-4.8-2.1-7.5c-2.9-9.1-2.9-18-0.2-27.2
		c0.1-0.4-0.1-1.9-0.2-2.9c-0.3-2.2-0.6-5,0-8.1l0.1-0.4c0.8-3.9,1.7-8.3,4.9-12.8c2.1-2.9,2-7.3,1.8-12.3c0-1-0.1-1.9-0.1-2.9
		c-0.1-4.1-0.2-13.8,11.4-17.1l0.6-0.2c2.3-0.6,3.1-0.9,3.7-1.6c1.5-1.6,4.5-3.6,9.6-3.6c3.9,0,8.7,1.2,12.3,3.6
		c0.5-0.1,1-0.1,1.6-0.1c2.9,0,5.5,1.4,7.3,3.9c2.1,3,4.4,6.6,5,11.3c0.8,6.2,11.1,17.6,16.1,19c4.5-2.6,8.8-5.4,13.4-8.3
		c6.6-4.3,13.5-8.8,20.9-12.4c0,0,0-0.1,0-0.1c1.6-9.4,5.1-17.5,10.5-24.2c1.8-2.2,2.4-4.1,0.6-8.5c-0.6-0.1-1.3-0.3-2-0.4
		c-3.1-0.6-7-1.3-10.8-3.7c-0.1,0-0.2,0.1-0.3,0.2c-1.9,1.1-4.9,2.6-8.5,2.6c-2.5,0-6.2-0.8-9.5-4.2c-0.1,0-0.1,0-0.2,0
		c-1.7-0.5-4.5-1.3-7-3.9c-3.9-4.1-6-8.2-7.3-14c-0.1-0.2-0.5-1-0.8-1.6c-1-1.9-2.7-4.9-2.8-8.6c-3.8-3.9-4.8-8.8-5.5-12.2
		c-0.3-1.7-0.7-3.5-1.2-4.3c-3.3-5.1-6-10.1-8-15.2c-0.3,0-0.5,0-0.8,0c-1.5,0-3-0.3-4.5-0.9c0,0,0,0,0,0c-1.4,1.1-3.6,2.1-5.9,2.1
		c-1.2,0-2.4-0.3-3.5-0.8c-0.2,0.2-0.4,0.4-0.5,0.5c-0.6,0.6-1.3,1.4-2.1,2.1c-0.5,0.5-1.3,1.3-2.6,1.9c-0.2,0.1-0.4,0.2-0.6,0.3
		c-1.4,0.8-3.4,1.9-6.1,1.9c-1,0-2-0.2-3-0.5c0,0,0,0,0,0c-1.3,1.3-2.7,2.6-4.5,3.8c-9.4,6.1-14.3,16.4-19.5,27.2
		c-0.4,0.8-0.8,1.6-1.1,2.4c-1.6,7.1-7,7.7-8.7,7.7c-0.6,0-1.1-0.1-1.7-0.2c-2.6-0.5-4.7-1.9-6.1-3.9c-2.1-3.3-1.3-6.7-1-8.1l0-0.2
		c1-8,2.6-14.7,5.2-20.9c1.2-2.8,2.2-5.7,3.3-8.8c2.3-6.3,4.6-12.8,8.2-19.1c3.1-5.5,6.8-11.1,14.1-14.1c0.2-0.1,0.9-0.6,1.3-0.9
		c0.3-0.2,0.5-0.4,0.8-0.6c0.1-0.1,0.2-0.2,0.3-0.3c1.2-1,3.6-3.1,7.2-3.1c1,0,2.3,0.2,3.6,0.7c6.6-2.6,14.1-4.3,23.4-5.4
		c1-0.1,2.4-0.4,3.5-1.3c3.6-2.5,7.5-3.9,11.2-3.9c0.4,0,0.7,0,1.1,0c1.9,0.1,3.5,0.2,4.9,0.2c-2.1-4-3.3-8.3-4.3-12.1
		c-0.2-0.8-0.5-1.6-0.7-2.4c-1.1-3.6-1.5-7.2-1.9-10.6l-0.1-0.9c-0.5-4.2,0.5-7.7,3-10.5c0-0.2-0.2-0.8-0.2-0.8
		c-1.7-5.8-0.1-10.6,1.1-14.1c0.3-0.9,0.6-1.7,0.8-2.5c1.4-5.4,5.7-7.4,8.9-7.4c0.6,0,1.2,0.1,1.8,0.2c3.8,0.7,6.6,3.6,7.5,7.5
		c0.4,1.6,1.3,3.1,2.8,4.7c-0.8-1.3-1.4-3-1.6-5.3c-0.1-1.2-0.1-2.4,0-3.4c-1.5-1-2.6-2.5-3.1-4.2c-0.2-0.7-0.3-1.3-0.4-1.9
		c-1.9-0.8-4.4-2.6-5.3-6.6c-0.6-1.6-0.6-3.4,0-5.1c5.6-15,16.9-25.6,32.7-30.7c5.3-1.7,10.4-3.8,15.8-6c2.3-0.9,4.6-1.9,6.8-2.8
		c7.3-2.9,14.9-4.2,23.4-4.2c4.4,0,9.2,0.4,14.5,1.2c7.4,1.1,13.2,3.1,18.3,6.3c1.5,0.9,2.8,1.4,4.1,1.4c6.5,0.1,10.5,3.9,13.1,6.4
		c0.6,0.6,1.2,1.2,1.8,1.6c2.1,1.7,3.5,4.2,3.8,6.8c0.3,2.5-0.5,5-2.1,7c-2.4,2.9-5.2,3.3-6.7,3.3c-3.1,0-5.1-1.6-6.1-2.6
		c-1.4,2.1-3.3,3.4-5.6,3.9c-1.1,2.9-3.9,4.8-7,4.8c-0.4,0-0.7,0-1.1-0.1c-1.8-0.3-3.3-1-4.4-1.9c-0.1,0.1-0.2,0.1-0.3,0.2
		c0.8,2.2,0.4,4.6-0.8,6.5c0.3,0.2,0.5,0.4,0.8,0.7c0.3,0.3,1.7,0.7,2.6,0.9c3.1,0.9,8.1,2.3,11,7.4c6.6,2.2,10.2,7.3,12.9,11
		c0.6,0.9,1.2,1.7,1.8,2.5c0.7-0.1,1.3-0.2,2-0.2c2.3,0,4.3,0.7,6,2c0.5-0.1,1.7-0.5,1.9-0.5c0.2-1.2,0.6-2.3,1.3-3.3
		c2.5-4,6.8-4.5,8.7-4.7c0.1,0,0.2,0,0.3,0c1.1-0.5,2.1-0.8,3-1.1c0.1,0,0.1,0,0.2-0.1c1.2-3.7,4.6-5.1,6.2-5.8
		c0.2-0.1,0.3-0.1,0.5-0.2l3.8-1.8c8.2-4,16.6-8,24.9-12.3c-0.1-1.6-0.1-3.2-0.2-4.7c-0.1-3.8-0.2-6.9-1.1-9.3
		c-2.6-0.5-4.4-1.8-5.6-2.6l-0.4-0.3c-3.4-2.3-6.9-3.5-10.5-3.5c-4.1,0-8.7,1.4-14.1,4.3c-0.1,0-0.3,0.2-0.5,0.8
		c-2.3,5.4-6.6,6-8.3,6c-1.5,0-3-0.4-4.5-1.2c-3.9-2.2-6.5-7-3.5-12.9c3.5-6.8,9.3-12.2,16.3-15c6.9-2.8,16.2-6,26.8-6l1.1,0
		c6.8,0,14.2-1.8,21.4-3.5L329,13c2.6-0.6,5.3-0.9,8.1-0.9c5.2,0,10,1,14.6,2.1c2,0.4,3.9,0.9,5.8,1.2c13.5,2.3,26.2,8.6,38,18.9
		c0.9,0.8,1.7,1.5,2.6,2.2c5.4,4.6,11.6,9.8,14.6,18.2c0.5,1.4,0.6,2.9,0.2,4.3c2.5,2,4.7,4.6,6.5,7.6c2.7,4.5,6.6,8.3,10.6,12.3
		c2.3,2.3,4.7,4.6,7,7.2c9.1,10.4,13.7,22.9,17.7,34.8c0.9,2.7,0.2,5.6-1.8,7.6c-1.4,1.5-3.4,2.2-5.4,2.2c-0.7,0-1.5-0.1-2.2-0.3
		c-5.8-1.8-8.4-5.3-12.5-11.4c-0.3-0.4-0.5-0.8-0.7-1.2c-0.6,0.1-1.3,0.2-2,0.2c-0.7,0-1.3-0.1-1.7-0.1c-1.9,0-3.4-0.5-4.7-0.9
		c-0.7,0.5-1.4,1-2.2,1.3c-0.2,0.6-0.5,1.2-0.7,1.6c-0.1,0.2-0.1,0.3-0.2,0.4c-1.2,6.5-1.2,12.1,0,17.5c0.8,3.5-1,7-4.3,8.4
		c-1,0.4-2,0.7-3.1,0.7c-2.3,0-4.6-1.1-6.1-3.1c-1.8-2.5-3.3-5-4.7-7.4c-0.3-0.5-0.5-0.9-0.8-1.4c-0.8,0.3-1.6,0.4-2.4,0.4
		c-1.7,0-3.3-0.6-4.7-1.6c-2.3-1.8-4.2-3.8-5.9-5.8c-0.4,0.4-0.9,0.8-1.3,1.1c-8.3,6-13.2,11.7-15.9,18.2c-1.2,2.9-4,4.6-6.9,4.6
		c-0.6,0-1.2-0.1-1.8-0.2l-1.3-0.3c-3.4-0.8-5.7-3.8-5.7-7.3c0-1.2,0-2.5,0-3.7c0-2.6,0.1-5-0.1-7.3c-0.3-4-1.9-5.5-3.7-6.4
		c0,0-0.3,0.5-0.3,0.5c-1.1,2.1-2.4,4.6-4.9,6.9c-1.4,1.3-3.2,1.9-5,1.9c-1,0-2-0.2-2.9-0.6c-2.9-1.2-4.7-3.3-5.6-6.2
		c-0.1,0-0.2,0-0.3,0c-3.6,0-6.7-0.8-9.6-1.5c-1.7-0.4-3.3-0.8-4.8-1c-0.5,0-1-0.1-1.4-0.1c-6.6,0-13.8,4.2-15.1,8.8
		c-0.3,1-0.4,1.7-0.5,2.2c0.4,0.2,0.9,0.6,1.8,1c0.7,0.3,1.4,0.7,2.3,1c0.5,0.2,0.9,0.4,1.4,0.6c3.7,1.6,5.5,5.9,4,9.6
		c-0.8,2-2.6,4.6-6.8,5.5c-0.8,0.3-1.6,0.4-2.4,0.4c-0.1,0-0.2,0-0.3,0c1.6,3.5,2.8,7.2,3.9,10.8c0.6,1.9,1.2,3.9,1.9,5.8
		c1,2.8,0.2,6-2,8.1c-1.4,1.3-3.2,1.9-5,1.9c-1.1,0-2.2-0.2-3.2-0.7c-4.8-2.2-6.6-5.7-7.5-7.5c-0.1-0.2-0.2-0.4-0.3-0.6l-0.1-0.1
		c-0.2-0.3-0.4-0.6-0.6-0.9c-2-0.4-3.6-1-4.9-1.8c-0.1,0.7-0.1,1.4-0.2,2.1c-0.3,2.9-0.5,6.2-1.6,9.5c1.9,1.6,3.2,3.6,3.7,6.1
		c0.2,1,0.3,2,0.2,3.1c2.3,2.2,2.6,5.2,2.6,6.4c0.1,1.9-0.3,4.7-2.6,7.1c1.4,3.5,0.9,6.3,0.2,8c-0.3,0.6-0.6,1.1-0.9,1.6
		c0.1,0.1,0.3,0.4,0.3,0.4c3.3,3.9,3.5,8.6,0.7,12.6c-0.3,0.4-0.5,0.7-0.8,1.1c1.2,1.4,2,3.2,2.2,5.1c0.2,2.2-0.4,4.5-1.7,6.4
		c0.4,0.2,0.9,0.3,1.2,0.3c0.1,0,0.2,0,0.4,0c0.2-0.1,0.4-0.1,0.6-0.2c1.1-0.3,2.5-0.8,4.3-0.8c2.1,0,7.1,0.7,9.6,7.2
		c1,2.5,2.3,8.5-3.8,12.8c2.1,1.9,2.9,4.3,3.2,5.7c0.8,3.6,0.8,6.6,0,9.2c0.9-0.1,1.8-0.2,2.6-0.2c6.3,0,10,3.3,14.7,7.4l1.1,1
		c5,4.4,9.6,9.4,8.4,18c5.1,3.7,10.9,8,14.2,15.9c0.4,0.7,2.6,2.4,4,3.4c1.4,1,2.8,2.1,4.2,3.3c16.9,15.2,29.2,33,36.4,52.9l0.4,1
		c1.3,3.5,2.6,7.1,3.7,10.8c1.9-0.4,3.8-0.5,5.7-0.5c6.3,0,12.3,2,17.9,5.9c15.3,10.8,24.2,23.6,27.4,39.1c1.1,5.5,0.5,10.4,0,14.7
		c-3.5,29.8-20.3,39.6-44.4,45.2c-7.4,1.7-15,3.1-22.3,4.4c-5.6,1-11.3,2.1-16.9,3.2c-12.6,2.7-24,4.9-36,4.9c-3.8,0-7.5-0.2-11-0.7
		c-1.8-0.2-3.7-0.3-5.8-0.3c-4.1,0-8.2,0.4-13.2,1.1c-1.5,0.2-3.6,2.7-5.4,4.9c-0.5,0.6-1,1.1-1.4,1.7c-7.9,8.9-17.7,12.9-27.2,16.7
		l-2.3,0.9c-1.9,0.8-3.7,1.5-5.6,2.1c-1.7,0.7-3.4,1.3-5,1.9C244.3,533.9,242.1,534.8,239.7,534.8z M192.8,253.7
		c0-0.2-0.1-0.4-0.1-0.6c-0.2,0-0.3,0-0.5,0C192.4,253.2,192.6,253.4,192.8,253.7z M284.9,241.8L284.9,241.8z M183.5,221.8
		c0.5,0.9,1.4,1.4,2.2,1.4c0.3,0,0.6-0.1,0.9-0.3c2.2-1.4,4.3-2.4,6.6-3.2c-1.1-4,0.7-7.1,1.5-8.2c0.4-0.6,0.9-1.1,1.4-1.6
		c-0.1-0.1-0.2-0.1-0.2-0.1c0,0-0.1,0-0.1,0.1c-1.9,1.8-4.8,3-7.4,3c-0.3,0-0.6,0-0.8,0c-0.3,0.3-0.5,0.5-0.8,0.8
		c0.1,0.8,0,1.6-0.1,2.4C186.2,218.1,185.1,220.2,183.5,221.8z"/>
	<path d="M337.1,19.6c6.5,0,12.8,2.1,19.1,3.1c13,2.2,24.4,8.5,34.3,17.2c5.7,5,12.3,9.6,15.1,17.3c-0.4,0.4-0.8,0.8-1.1,1.2
		c-1.9-2.9-5.3-3.3-8.4-4.9c0.9,4.7,3.1,7.5,7.3,8.7c4.4,1.3,7.7,5,9.6,8.3c4.9,8.2,12.3,13.8,18.4,20.7
		c8.2,9.3,12.3,20.5,16.2,32.3c-3.1-1-4.5-2.5-8.4-8.4c-1.2-1.7-1.6-3.9-3.9-5c-0.9-0.4-1.6-1.3-2.4-1.3c-0.5,0-0.9,0.3-1.4,1.3
		c-0.3,0.6-0.7,0.7-1.2,0.7c-0.4,0-0.9-0.1-1.4-0.1c0,0,0,0,0,0c0,0,0,0,0,0c-2,0-4.2-1.5-6.2-1.5c-1.2,0-2.4,0.5-3.5,2.3
		c0,0,0,0,0,0c-0.2,0-1.4-0.6-2.1-0.8c-0.8-0.2-1.4-0.3-1.9-0.3c-1.2,0-1.5,0.8-0.4,3c0.9,1.9-0.9,3.7-1.2,5.6
		c-1.3,6.9-1.6,13.7,0,20.7c-4.6-6.3-7.3-13.8-13.7-19.1c-1.4,2.1-0.4,4.4-0.3,7.7c-6.7-5.3-9.9-12.4-14.4-19.2
		c-0.7,3.5-0.3,6.3,0.1,9.1c0.3,2.2-0.2,3.9-2,5.2c-7.8,5.7-14.6,12.2-18.4,21.4c-0.4-0.1-0.8-0.2-1.3-0.3c0-3.8,0.2-7.6,0-11.4
		c-0.5-7.2-4.2-11.5-9.7-13.4c-1-0.3-1.8-0.5-2.6-0.5c-2.8,0-4.3,2.1-5.6,4.5c-1,1.9-1.9,3.8-3.5,5.3c-2.1-0.9-1.1-2.9-1.8-4.3
		c-0.7-1.3-1.1-3-2.7-3c-0.2,0-0.4,0-0.7,0.1c-1.2,0.3-2.4,0.4-3.5,0.4c-4.6,0-9-2-13.5-2.5c-0.7-0.1-1.5-0.1-2.2-0.1
		c-9.4,0-19.9,5.9-22.3,14.2c-1.9,6.6-0.9,8.9,5.1,12c1.3,0.7,2.7,1.2,4.1,1.8c-0.4,1-1.5,0.8-2.3,1.2c-1.8-0.2-3.6-0.3-5.4-0.7
		c-1.1-0.3-2.4-1.4-3.4-1.4c-0.5,0-0.9,0.2-1.2,0.9c-0.9,1.8-2,4.2-0.1,6.8c4.3,5.9,5.7,13.1,8.4,20.9c-3.3-1.5-3.7-3.8-4.8-5.4
		c-1.1-1.7-2.3-3.5-4.2-4c-2.7-0.7-5.6-0.5-5.3-4.7c0-0.7-1-1.1-1.9-1.1c-0.4,0-0.8,0.1-1.1,0.2c-2.1,1.2-4.9,1.7-5.7,4.3
		c-1.8,5.7-0.8,11.9-3.2,17.7c-0.8,1.9-0.8,4.2,2.4,5.9c2.9,1.5,1.8,5.2-0.2,7.6c1.5,1.6,4.5,0,4.6,2.7c0.1,2.4-2.2,2.6-3.8,3.2
		c-2.9,1.1-5,2.9-6.3,6c0.7,0.1,1,0.3,1.2,0.3c0,0,0.1,0,0.1,0c1.5-0.3,3-2,4.5-2c0.8,0,1.5,0.5,2.2,1.9c1.8,3.9-1.9,4-4.2,5.1
		c-1.3,0.6-2.9,1.5-1.8,3.4c0.6,1,0.8,2.9,2.2,2.9c0.4,0,0.9-0.2,1.6-0.6c0.4-0.2,0.7-0.3,1-0.3c1,0,1.5,1.1,2.1,1.9
		c1,1.1,1.3,2,0.3,3.4c-2.3,3.2-5.8,6.4-0.6,10.2c0.8,0.6,0.7,2-0.1,2.7c-2.7,2.7-2.9,6.3-0.5,8.4c2.1,1.9,5,3.5,8.1,3.5
		c0.8,0,1.5-0.1,2.3-0.3c1.1-0.3,2.1-0.7,3-0.7c1,0,1.9,0.5,2.5,2.3c1.4,3.7-1.6,4.2-3.6,5.4c-1,0.6-2.2,1-3.3,1c0,0,0,0,0,0
		c0,0,0,0,0,0c-3.6,0-3.7,2.1-3.7,4.9c0,3.1,1.7,3.5,3.6,3.5c0.3,0,0.7,0,1,0c0.3,0,0.5,0,0.8,0c2,0,3.7,0.4,4.3,2.8
		c0.6,2.8,1.2,5.8-2,7.4c-2.4,1.2-2.6,2.6-1,4.5c1.4,1.7,2.2,4.5,4.8,4.5c0.4,0,0.9-0.1,1.4-0.2c3-0.9,5.1-1.4,6.8-1.4
		c3.8,0,5.8,2.1,10.8,6.5c4.7,4.2,7.2,7.2,5.6,13.3c-0.5,1.9,1.5,3.8,3.4,5.1c4.7,3.5,9.2,6.7,11.7,12.8c1.6,3.9,6.7,6.3,10.1,9.4
		c15.5,13.8,27.3,30.2,34.4,49.8c1.7,4.7,3.4,9.3,4.7,14.1c1.9,7.2,6.2,13,10.6,18.8c-2.3-4.9,1.8-11.7-5.7-15.7
		c2.5-0.8,4.9-1.1,7.2-1.1c5.1,0,9.6,1.7,13.5,4.5c12.1,8.5,21.3,19.3,24.4,34.5c0.9,4.2,0.4,8.2-0.1,12.3
		c-2.9,24.5-14.8,33.2-38.6,38.8c-12.9,3-26,4.9-39,7.7c-11.2,2.4-22.7,4.7-34.4,4.7c-3.3,0-6.7-0.2-10-0.6
		c-2.2-0.3-4.5-0.4-6.7-0.4c-4.8,0-9.5,0.5-14.2,1.2c-5.1,0.7-8.3,5.4-11.5,9c-7.3,8.3-17.1,11.7-26.7,15.6
		c-3.5,1.4-7.1,2.7-10.6,4.1c-1,0.4-2.2,0.9-3.2,0.9c-0.8,0-1.6-0.3-2.2-1.2c-1.4-2.1,0.5-3.8,2.1-4.9c6.4-4.3,11.8-9.7,16.7-15.5
		c1.8-2.1,3.5-4.2,5.8-7.1c-4.1,0.4-7.3,0.3-10.3,1c-2.5,0.6-5,0.8-7.5,0.8c-4,0-7.9-0.6-11.8-1.4c-3.8-0.8-7.4-1.1-11.2-1.1
		c-0.8,0-1.6,0-2.5,0c-0.9,0-1.9,0-2.8,0c-12.9,0-25.6-2.1-38.1-5.3c-19.1-4.9-34.2-15.2-42.2-33.8c-3-7-4.7-14.6-4.2-22.3
		c0.4-6.8-0.1-13.5-1.3-20.2c-2.7-15.2,2.8-28.3,11.1-40.6c1-1.5,2.1-3,3.1-4.5c0.1-0.1,0.1-0.3,0.1-0.5c-4.2-2.2-7-5.9-9.6-9.8
		c-1.8-2.7-2.7-4-3.7-4c-0.9,0-1.9,1-4,2.9c-0.3,0.3-0.8,0.3-1.5,0.6c-1.1-2.5,0.8-5.6-2.2-7.7c-2.4-1.7-4.5-3-6.9-3
		c-1.5,0-3,0.5-4.9,1.7c-5,3.3-10.6,5.4-11.3,12.5c-0.1,1.1-0.8,2.5-1.8,2.5c-0.4,0-1-0.3-1.5-1c-1.2-1.5-2.5-2-3.8-2
		c-1.7,0-3.3,0.9-4.8,1.4c-2.8,1.1-2.9,4.4-3.2,7.2c-0.4,4-0.1,8.1,1,11.8c2,6.8,0.2,13.8,1.7,20.6c1.1,4.7,3.5,8.6,5.2,12.8
		c2.2,5.4-1.5,11.1,1,16.5c0.5,1.1,0.3,3,1.3,3.6c4,2.5,4.5,6.7,5.3,10.7c1.2,5.4,3.4,10.3,6.8,14.8c8,10.6,12.9,23.2,21.9,33.2
		c0.9,1,1.7,2.3,0.6,3.5c-0.4,0.4-0.8,0.6-1.1,0.6c-0.9,0-1.5-1-2.3-1.5c-11.8-6.9-21.3-16.7-31.7-25.3c-0.8-0.6-1.5-1.4-1.9-2.3
		c-5-9.6-11.6-18.1-17.6-26.9c-1.9-2.8-2.6-5.7-2.2-8.9c0.3-2.8-0.3-5.5-2-7.5c-2.7-3.1-3.7-6.9-5.3-10.4c-2.2-4.7-4.2-9-3.4-14.3
		c0.2-1.2-0.4-2.6-0.5-3.8c-0.2-0.1-0.3-0.1-0.5-0.1c-1.2,0-1.7,1.5-2.6,1.5c-6,0.1-4.8,6.8-8.5,9.1c-0.4,0.3-0.4,1.6,0.3,2.3
		c4.5,3.7,2.4,6.6-1.1,9.5c-1.5,1.2-3,2.6-4.6,4c2.9,2.8,5.8,5.3,9.7,6c-0.1,2.3-1.8,3.1-3.2,3.5c-5,1.5-4.5,4.4-2.4,7.9
		c0.7,1.2,1.3,2.6,1.9,3.9c-0.6,0.5-1.1,0.6-1.5,0.6c-1,0-1.7-0.8-2.1-1.3c-5.6-6.7-12.9-11.4-19-17.5c-2.1-2-2.9-4.2-2-7.2
		c3.6-12.4,4.4-25.4,6.8-38c1.1-5.5,4.8-8.8,9.3-11.6c11.8-7.4,11.9-7.6,7.7-20.7c-2.4-7.7-2.4-15.1-0.1-22.8
		c1.1-3.7-0.8-7.7,0-11.6c0.8-3.7,1.4-7.1,3.8-10.4c4.1-5.7,3.2-13,3.1-19.6c-0.1-5.3,0.7-8.3,6-9.8c2.9-0.8,5.5-1.4,7.8-3.8
		c0.8-0.9,2.3-1.2,4.1-1.2c3.5,0,8,1.5,9.3,3.6c0.4,0.7,0.7,1.1,1.4,1.1c0.1,0,0.3,0,0.4,0c0.9-0.2,1.9-1.2,2.8-1.2
		c0.4,0,0.8,0.2,1.2,0.7c1.7,2.4,3.3,4.9,3.7,7.8c1.2,9.3,14,23.9,22.4,25.5c0.5,0.1,1,0.2,1.5,0.2c0.9,0,1.7-0.2,2.6-0.7
		c12-6.8,22.9-15.3,35.3-21.4c2.4-1.1,2.9-3.1,3.2-5.2c1.3-7.7,4.1-14.7,8.9-20.7c5-6.3,3.6-12.3,0.5-18.5c-0.7-1.4-2-1.5-3.3-1.8
		c-4-1-8.1-1-11.7-3.7c-0.9-0.7-2-1-3.1-1c-1.5,0-3,0.5-4.5,1.3c-1.6,0.9-3.2,1.6-4.7,1.6c-1.6,0-3.1-0.7-4.6-2.4
		c-1.6-1.9-4.6-1.2-6.7-3.4c-3-3.1-4.4-5.9-5.4-10.3c-0.8-3.8-5-6.9-2.8-11.7c0-0.1-0.1-0.4-0.2-0.4c-7.3-3.4-4.8-11.7-8.4-17.1
		c-3.6-5.5-6.7-11.4-8.7-17.8c-0.5-1.7-1.1-2.5-2-2.5c-0.6,0-1.2,0.3-2.1,1c-0.7,0.5-1.5,0.8-2.2,0.8c-0.5,0-1-0.1-1.5-0.3
		c-1.2-0.5-2.3-0.8-3.4-0.8c-1.4,0-2.7,0.5-4,1.6c-0.4,0.3-1.1,0.6-1.5,0.6c-0.1,0-0.2,0-0.3-0.1c-1.4-0.9-2.6-1.3-3.6-1.3
		c-3.1,0-5,3.3-7.4,5.3c-0.1,0.1-0.2,0.3-0.4,0.3c-1.2,0.5-2.6,1.6-3.6,1.6c-0.1,0-0.3,0-0.4-0.1c-1.9-0.7,0.4-2.6-0.3-4.3
		c-4.7,1.8-7.1,6.2-11,8.8c-12.1,7.9-17.6,20.7-23.5,33.1c-0.5,1-0.3,2.9-1.7,2.9c-0.1,0-0.2,0-0.3,0c-2.2-0.4-1.1-2.5-0.9-3.8
		c0.8-6.6,2.1-12.9,4.7-19.2c3.7-9,6.2-18.4,11.1-27.1c2.6-4.6,5.2-8.7,10.3-10.8c1.4-0.5,2.5-1.5,3.7-2.4c1-0.8,2-2,3.1-2
		c0.6,0,1.3,0.3,2,1.3c0.1,0.1,0.2,0.1,0.5,0.1c0.6,0,1.7-0.3,2.3-0.6c7.4-3.1,15.2-4.6,23.1-5.6c2.4-0.3,4.8-1.1,6.9-2.6
		c2.1-1.5,4.5-2.5,6.9-2.5c0.2,0,0.4,0,0.6,0c2.3,0.2,4.5,0.3,6.8,0.3c3,0,6-0.2,9-0.7c0.2,0,0.4-0.1,0.6-0.1c0.9,0,1.5,0.4,2,1.1
		c0.9,1.3,0.1,2.4-0.8,3c-7.5,5.5-3.5,13.2-3.4,19.8c0.1,6.3,2.7,12.3,8.4,16.2c1.8,1.2,3.3,2.8,5,4.3c1.9-1.8,1-5.2,3.5-6.7
		c1.2-0.8-0.1-1.3-0.4-1.9c-4.4-7.3-6.6-15-5.2-23.6c0.9-5.6,0.6-10.6-5.3-13.9c-8.3-4.7-10.1-13.5-12.5-21.7
		c-1-3.3-1.3-6.8-1.8-10.3c-0.2-1.9-0.1-3.7,1.9-5.2c2.4-1.9,1.3-5.1,0.6-7.3c-1.4-4.7,0.8-8.5,1.9-12.5c0.2-0.8,0.6-1.8,1.7-1.8
		c0.1,0,0.2,0,0.4,0c0.9,0.2,1.4,0.8,1.6,1.7c1.6,7.3,8.2,10.8,12.1,16.5c4.8-6.4,8.5-14.1,9.4-19.1c-0.2-0.1-0.4-0.1-0.6-0.1
		c-1,0-1.6,0.8-2.3,1.3c-0.8,0.5-1.3,0.8-1.7,0.8c-0.7,0-0.9-1-1-2.5c-0.3-2.9,2.3-7-2.9-8.6c-1.3-0.4,0-2,0.7-2.9
		c1.2-1.5,3-2.8,1.9-5.6c-0.9,1.2-2,1.5-3,1.5c-1,0-2.1-0.3-3.2-0.3c-0.5,0-1,0.1-1.5,0.2c-1-0.4-0.8-1.5-1.1-2.2
		c5-13.4,14.8-21.9,27.9-26.1c7.9-2.5,15.4-5.9,23.1-8.9c6.9-2.7,13.8-3.7,20.7-3.7c4.4,0,8.9,0.4,13.5,1.1
		c5.5,0.8,10.6,2.2,15.3,5.2c2.4,1.5,5.1,2.5,8,2.6c4.7,0.1,7.2,3.8,10.3,6.3c0.9,0.7,1.5,2,0.5,3.1c-0.4,0.4-0.7,0.6-1,0.6
		c-0.7,0-1.1-1-1.8-1.4c-1.9-1-3.9-1.9-5.6-1.9c-1.8,0-3.4,0.9-4.8,3.7c-0.3,0.5-0.6,1-1.1,1c-0.1,0-0.3,0-0.4-0.1
		c-1.1-0.6-2-0.8-2.6-0.8c-2.5,0-1.7,3.5-2.4,5.6c-2-0.3-2.6-3.9-4.5-3.9c-0.5,0-1.1,0.3-1.9,0.9c-3.4,3-9.9,4.3-6.5,11.1
		c-0.4,0.2-0.8,0.3-1.1,0.3c-1.1,0-1.8-1.1-2.8-1.1c-0.1,0-0.3,0-0.4,0.1c-1.9,0.6-3.4,1.7-4.1,3.4c-0.7,1.7,1.8,1.9,2,2.6
		c1.5,4.4,6.4,3.1,8.5,5c3.9,3.6,10.5,1.9,12.7,7.6c0.3,0.8,1.3,1.8,2.2,1.9c7.3,1.6,9.7,8.5,14.1,13.2c0.9,1,1.7,1.8,2.8,1.8
		c0.3,0,0.6-0.1,0.9-0.2c1.1-0.4,2-0.6,2.7-0.6c2.1,0,2.4,1.9,1.7,4.8c-0.2,0.9,0.1,1.9,0.2,4.4c1.2-3,6.7-0.9,3.5-5.9
		c-0.5-0.8,0.8-1.2,1.6-1.4c1.9-0.6,3.8-1.1,5.7-1.7c1.3-0.4,3.2-1.5,2.9-2.4c-2.1-5.6,3.1-4,5.1-5.1c2.9-1.5,6.8-1.1,7.5-5.7
		c0.1-0.7,1.8-1.2,2.8-1.7c17-8.3,34.1-16.4,50.4-26.1c0.9-0.5,2.7-0.6,2.2-2.1c-0.3-0.9-1.1-1.3-2-1.3c-0.4,0-0.9,0.1-1.4,0.3
		c-0.9,0.4-1.9,0.6-2.9,0.8c-0.7,0.2-1.4,0.4-2.1,0.4c-0.7,0-1.5-0.3-2.3-1.3c-1.2-1.5-1.8-2.6-0.8-4.3c0.8-1.2,1.1-2.7-0.1-3.6
		c-0.4-0.3-0.7-0.4-0.9-0.4c-0.9,0-1.3,1.5-2.1,1.9c-3.1,1.6-3.2,4.7-3.5,7.7c-0.2,2,0.5,4.2-1.7,7.1c-0.4-7.1,0.3-13.2-2.8-18.8
		c-0.8-1.4-1.2-2.6-2.7-2.6c-0.2,0-0.4,0-0.6,0.1c-0.2,0-0.4,0.1-0.6,0.1c-1.5,0-2.6-0.9-3.8-1.7c-4.9-3.4-9.9-4.8-14.8-4.8
		c-5.9,0-11.8,2.1-17.7,5.2c-1.8,1-3,2.5-3.8,4.4c-0.3,0.7-0.7,1.4-1.4,1.4c-0.2,0-0.5-0.1-0.8-0.2c-1.3-0.7-1.1-1.7-0.5-2.9
		c2.8-5.4,7.2-9.4,12.5-11.5c7.6-3.1,15.4-5.4,24-5.4c0.2,0,0.4,0,0.5,0c0.2,0,0.4,0,0.5,0c8,0,16.1-2,23.9-3.9
		C332.9,19.8,335,19.6,337.1,19.6 M161.6,226.2c0.8,0,1.6,0,2.5-0.1c-7.3-5.3-8.5-13.8-15.6-17.8c-0.7-3.9-2-7.2-6.6-7.8
		c3.2,2.2,1.6,7.3,5.6,9v0c0.2,1.8,0.5,3.6,0.5,5.5c0,2.3,3.7,3.2,2.4,5.6c-1.8,3.5,0.5,4,2.8,4.6
		C155.6,225.8,158.1,226.2,161.6,226.2 M188.4,205.4c-0.2,0-0.3,0-0.4-0.1c-0.7-0.4-1.4-0.6-1.9-0.6c-2.1,0-3,2.4-4.5,3.5
		c-1.9,1.4-5.7,2-2.4,5.8c0.5,0.5-0.6,2.5-1.9,3.2c-2.1,1.1-1.8,3-1.5,4.8c0.8,5,5.3,8.7,10,8.7c1.7,0,3.4-0.5,5-1.5
		c3.4-2.2,6.7-3.2,10.5-3.2c1.9,0,3.9,0.2,6,0.6c-2.3-2.9-3.7-4.7-5.3-6.4c-1.2-1.3-2.3-2.9-1.2-4.4c0.5-0.7,1.1-0.9,1.8-0.9
		c0.9,0,1.9,0.4,2.8,0.6c2.4,0.6,3.6,2.9,5.4,4.2c1,0.7,1.8,1,2.6,1c1.3,0,2.5-0.9,3.7-1.9c2.1-1.8,1.7-3.4,0.4-5.6
		c-4-6.4-11.7-6-17.2-9.7c-1.4-0.9-2.9-1.5-4.5-1.5c-1.7,0-3.5,0.6-5.1,2.1C190.1,204.9,189.1,205.4,188.4,205.4 M196.6,273.9
		c0.3,0,0.7-0.1,1.2-0.2c2.3-0.5,4.6-1,7.2-1c1.5,0,3.1,0.2,4.7,0.6c-0.4-4.4-1.1-7.9-3.5-11.7c-2.2-3.5-6.9-6.5-5.9-11.5
		c0.9-4.2-1.5-4.6-4.4-4.6c-4,0-8-0.2-11.8-1.5c-0.9-0.3-1.8-1.1-2.6-1.1c-0.3,0-0.6,0.1-1,0.5c-1.1,1.2-0.8,2.9-0.5,4.6
		c1.2,5.6,6.2,8.6,9,13.1c2.1,3.4,4.1,6.7,5.4,10.4C195,273.1,195.3,273.9,196.6,273.9 M85.3,334.5c0.8,0,1.6-0.3,2.2-0.7
		c3-1.8,5.7-3.8,9-6.1c-1.8-1.6-3-3-4.5-3.9c-0.6-0.3-1.5-0.6-2.2-0.6c-0.9,0-1.6,0.4-1.7,1.7c0,2.8-1.4,4.1-3.4,5.5
		c-1.1,0.7-2,2.4-1.2,3.4C84.1,334.3,84.7,334.5,85.3,334.5 M337.1,4.6C337.1,4.6,337.1,4.6,337.1,4.6c-3.4,0-6.7,0.4-9.9,1.2
		l-0.8,0.2c-7,1.7-13.7,3.3-19.6,3.3l-0.4,0c-0.2,0-0.5,0-0.7,0c-11.9,0-22.1,3.5-29.6,6.5c-7.8,3.1-14.3,8.8-18.8,16c0,0,0,0-0.1,0
		c-3-2.9-8.7-8.2-17.9-8.4c-0.1,0-0.2-0.1-0.4-0.2c-6-3.8-12.8-6.2-21.3-7.4c-5.7-0.8-10.8-1.2-15.6-1.2c-9.4,0-18,1.6-26.2,4.8
		c-2.4,0.9-4.7,1.9-6.9,2.8c-5.3,2.1-10.2,4.2-15.2,5.8c-18.1,5.8-31,18-37.4,35.2c-1.2,3.2-1.2,6.6-0.2,9.8c0,0.2,0.1,0.3,0.1,0.5
		c-5.2,1.8-9.2,6.2-10.7,12.1c-0.1,0.5-0.4,1.2-0.6,2c-1.2,3.5-3,9-1.8,15.8c-1.8,3.2-3,7.4-2.3,12.9l0.1,0.9
		c0.4,3.6,0.9,7.6,2.2,11.8c0.2,0.8,0.4,1.5,0.7,2.3c0.2,0.9,0.5,1.8,0.8,2.8c-3.7,0.7-7.3,2.3-10.7,4.7c-0.1,0-0.1,0-0.3,0.1
		c-5.8,0.7-14.1,2-22.8,5c-1.3-0.3-2.4-0.3-3.3-0.3c-6.5,0-10.6,3.6-12.1,5l-0.1,0.1c-0.2,0.1-0.4,0.3-0.6,0.4
		c-0.1,0.1-0.3,0.2-0.4,0.3c-9.9,4.3-14.5,12.5-17.1,17c-3.9,6.8-6.3,13.7-8.7,20.3c-1.1,3-2.1,5.8-3.2,8.5
		c-2.8,6.8-4.5,13.9-5.6,22.5c-1.2,5.2-0.5,9.8,2,13.7c2.5,3.8,6.4,6.4,11,7.2c1,0.2,2,0.3,3,0.3c5.8,0,13.3-3.3,15.8-12.6
		c0.3-0.6,0.5-1.1,0.8-1.7c4.9-10.3,9.2-19.2,16.9-24.2c1-0.7,1.9-1.3,2.7-2c0.2,0,0.5,0,0.7,0c4.6,0,8.1-2,9.8-2.9
		c0.1,0,0.2-0.1,0.2-0.1c1.6-0.7,3-1.7,4.3-2.9c0.4,0,0.7,0,1.1,0c2.1,0,4.2-0.4,6.3-1.2c1.8,3.8,3.9,7.6,6.3,11.4
		c0.1,0.5,0.3,1.4,0.4,2.1c0.6,3.3,1.7,8.9,5.6,13.9c0.7,4.2,2.4,7.4,3.4,9c0.1,0.2,0.2,0.3,0.3,0.5c1.6,6.7,4.3,11.7,9,16.7
		c3.1,3.2,6.5,4.7,8.8,5.4c3.8,3.3,8.5,5,13.4,5c2.9,0,5.7-0.6,8.6-1.8c1.7,0.7,3.3,1.3,4.8,1.7c-4.6,6.3-7.8,13.6-9.6,21.8
		c-6.5,3.5-12.5,7.4-18.3,11.2c-3.2,2.1-6.2,4.1-9.3,5.9c-3.5-2.9-8-8.5-8.6-11.3c-0.9-6.9-4.6-12.1-6.3-14.6c-3.1-4.4-7.9-7-13.2-7
		c-4.6-2.5-9.9-3.5-14.2-3.5c-7,0-11.5,2.6-14.2,5.1c-0.3,0.1-0.8,0.2-1.1,0.3l-0.7,0.2c-6.6,1.9-11.3,5.5-14.2,10.9
		c-2.5,4.7-2.8,9.5-2.7,13.5c0,1,0,2,0.1,3c0.1,2.2,0.2,6.9-0.4,7.7c-4.1,5.8-5.3,11.5-6.2,15.7l-0.1,0.4c-0.9,4.3-0.4,8-0.1,10.5
		c0,0.3,0.1,0.7,0.1,1c-2.9,10.3-2.7,20.3,0.5,30.5c0.2,0.7,0.4,1.4,0.7,2.1c-0.7,0.4-1.4,0.9-2.1,1.3c-3.7,2.3-13.5,8.5-16,21.4
		c-1,5.1-1.7,10.2-2.4,15.1c-1.1,7.7-2.1,14.9-4.1,21.6c-2.3,8.1-0.2,15.9,5.9,22c2.9,2.9,5.9,5.3,8.7,7.7c3.5,2.9,6.9,5.7,9.3,8.7
		c4.8,5.8,10.6,6.6,13.6,6.6c4,0,7.8-1.4,11-4c1.5-1.2,2.7-2.6,3.6-4.2c1.2,1.7,2.4,3.4,3.5,5c4.5,6.4,8.8,12.4,12.1,18.8
		c1.3,2.6,3.2,4.9,5.6,6.9c2.8,2.3,5.4,4.7,8.3,7.2c7.4,6.6,15.1,13.4,24.4,18.9c3.3,2.7,6.9,4.1,10.9,4.1c4.4,0,8.6-1.8,11.8-5.1
		c3.8-3.9,5.8-9.8,4.3-15.8c8.1,5.8,17.7,10.2,28.9,13c15.2,3.9,28.9,5.8,41.8,5.8c1.1,0,2.1,0,3.2,0c0.7,0,1.4,0,2.1,0
		c1.8,0,3.4,0.1,4.8,0.2c-0.6,0.7-1.1,1.5-1.6,2.3c-3.5,5.8-3.4,13,0.2,18.7c3.3,5.1,8.8,8.1,14.8,8.1c3.9,0,7.1-1.3,8.8-2
		c1.6-0.6,3.2-1.2,4.9-1.9c1.9-0.7,3.8-1.4,5.7-2.2c0.8-0.3,1.5-0.6,2.3-0.9c9.9-4,21-8.4,30.1-18.7c0.5-0.6,1-1.2,1.5-1.8
		c0.6-0.8,1.5-1.8,2.2-2.5c4-0.5,7.4-0.9,10.7-0.9c1.7,0,3.3,0.1,4.8,0.3c3.8,0.5,7.9,0.8,11.9,0.8c12.7,0,24.5-2.3,37.6-5.1
		c5.4-1.2,10.9-2.2,16.6-3.2c7.4-1.3,15-2.7,22.6-4.5c23.5-5.5,45.8-15.5,50.1-51.6c0.5-4.6,1.2-10.4-0.1-17.1
		c-3.5-17.5-13.5-31.8-30.4-43.7c-6.8-4.8-14.3-7.3-22.2-7.3c-0.1,0-0.3,0-0.4,0c-0.6-1.8-1.3-3.6-1.9-5.3l-0.3-1
		c-7.7-21.1-20.6-39.9-38.5-55.9c-1.7-1.5-3.4-2.7-4.8-3.8c-0.6-0.5-1.5-1.1-2.1-1.5c-3.4-7.2-8.4-11.9-12.9-15.3
		c-0.4-10.5-7.4-16.7-11.1-20l-1.1-1c-4.1-3.6-8.2-7.3-14.3-8.7c-0.2-1.6-0.5-2.9-0.7-3.8c-0.2-1.1-0.6-2.1-1-3.2
		c3-4.7,3.5-10.6,1.3-16.3c-2.9-7.6-8.7-11-14-11.8c-0.2-1.1-0.4-2.2-0.8-3.3c2.3-4.9,2.2-10.3-0.3-15.1c0.5-1.9,0.9-4.5,0.4-7.5
		c1.8-3.6,2-7.1,1.9-8.7c-0.1-3-1-6-2.7-8.7c0-0.3-0.1-0.6-0.1-0.9c0.3,0.1,0.6,0.3,0.8,0.4c2,0.9,4.2,1.4,6.3,1.4
		c3.7,0,7.3-1.3,10.1-3.9c4.5-4.1,6.1-10.4,4.1-16.1c-0.6-1.8-1.2-3.6-1.8-5.5c-0.4-1.2-0.8-2.5-1.2-3.7c4.1-2.5,6-6.1,6.7-7.9
		c2.6-6.4,0.3-13.6-5-17.6c1.3-0.5,2.7-0.9,4.2-0.9c0.2,0,0.5,0,0.7,0c0.9,0.1,2.3,0.4,3.7,0.8c2,0.5,4.3,1.1,6.9,1.4
		c2.3,3.3,5.3,5,7.5,5.9c1.9,0.8,3.8,1.2,5.8,1.2c2.2,0,4.4-0.5,6.4-1.4c0,0.6,0,1.3,0,1.9c0,6.9,4.7,13,11.5,14.6l0.6,0.2l0.6,0.2
		c1.2,0.3,2.4,0.4,3.5,0.4c6,0,11.5-3.6,13.9-9.3c1.8-4.3,4.7-8.1,9.7-12.1c0.6,0.5,1.2,1.1,1.9,1.6c2.2,1.8,4.9,2.8,7.6,3.2
		c1.1,1.7,2.2,3.6,3.5,5.4c2.9,4,7.5,6.2,12.1,6.2c2.1,0,4.2-0.4,6.1-1.3c6.5-2.9,10-10,8.5-16.9c-0.7-3.3-0.9-6.8-0.5-10.8
		c0.1,0,0.2,0,0.3,0c0.1,0,0.2,0,0.3,0c3.4,5,7.4,9.8,14.9,12.1c1.5,0.5,3,0.7,4.4,0.7c4,0,7.8-1.6,10.7-4.5c3.9-4,5.3-9.9,3.5-15.2
		c-4.2-12.7-9.1-26-19.2-37.4c-2.5-2.8-5-5.3-7.4-7.6c-3.9-3.8-7.2-7.1-9.4-10.8c-1.1-1.9-2.9-4.4-5.3-6.9c-0.1-1.2-0.4-2.4-0.8-3.6
		c-3.7-10.4-11-16.5-16.8-21.5c-0.9-0.8-1.7-1.5-2.5-2.2c-12.8-11.2-26.8-18.2-41.7-20.7c-1.7-0.3-3.5-0.7-5.4-1.1
		C348.5,5.7,343.1,4.6,337.1,4.6L337.1,4.6z M284.8,50.7c3.4-1.6,6.3-2.4,8.6-2.4c1.5,0,3.5,0.2,6.3,2.2l0.3,0.2
		c0.7,0.5,1.8,1.3,3.3,2c0.1,1.2,0.1,2.6,0.1,3.9c-6.7,3.4-13.5,6.7-20.5,10.1l-3.6,1.8l-0.2,0.1c-3.8,1.6-6.6,3.8-8.5,6.5
		c-2.8,0.4-8.4,1.6-12.3,6.8c-0.6-0.1-1.2-0.2-1.9-0.3c-2.7-3.7-6.7-9-13.5-12.1c-1-1.3-2.2-2.5-3.3-3.4c1-0.8,1.9-1.8,2.7-2.8
		c0.5-0.2,0.9-0.5,1.4-0.7c1.9,0.7,3.7,0.9,5.2,0.9c4.8,0,9.3-2.1,12.5-6c0.1-0.2,0.3-0.3,0.4-0.5c0.2,0.1,0.4,0.3,0.6,0.4
		c2.5,1.4,5.3,2.2,8.1,2.2C272.8,59.3,280.4,58.6,284.8,50.7L284.8,50.7z M101.4,381.2c6-0.9,10.9-5.2,13.1-11.1
		c2.4,2.9,5.9,4.7,9.5,5.2c-6.2,11.1-11.6,25.9-8.5,43.7c1.1,6,1.4,11.4,1.1,16.7c-0.3,4.7,0,9.5,0.9,14.2c-0.7-1.6-1.3-3.2-1.7-5
		c-0.1-0.4-0.2-0.8-0.2-1.1c-0.8-3.7-2-9.9-7-15.2c0-0.5,0.1-1,0.2-1.5c0.4-3.7,1.1-9.2-1.4-15.5c-0.7-1.8-1.5-3.5-2.2-5
		c-1-2.2-1.9-4-2.2-5.5c-0.3-1.5-0.3-3.8-0.3-6.2C102.6,391.1,102.7,386.4,101.4,381.2L101.4,381.2z"/>
</g>
</svg>
